<?xml version="1.0" encoding="utf-8" standalone="no"?>
<!DOCTYPE svg PUBLIC "-//W3C//DTD SVG 1.1//EN"
  "http://www.w3.org/Graphics/SVG/1.1/DTD/svg11.dtd">
<!-- Created with matplotlib (https://matplotlib.org/) -->
<svg height="432pt" version="1.1" viewBox="0 0 864 432" width="864pt" xmlns="http://www.w3.org/2000/svg" xmlns:xlink="http://www.w3.org/1999/xlink">
 <defs>
  <style type="text/css">
*{stroke-linecap:butt;stroke-linejoin:round;}
  </style>
 </defs>
 <g id="figure_1">
  <g id="patch_1">
   <path d="M 0 432 
L 864 432 
L 864 0 
L 0 0 
z
" style="fill:#ffffff;"/>
  </g>
  <g id="axes_1">
   <g id="patch_2">
    <path d="M 36.925 404.12 
L 724.28 404.12 
L 724.28 26.16 
L 36.925 26.16 
z
" style="fill:#ffffff;"/>
   </g>
   <g id="matplotlib.axis_1">
    <g id="xtick_1">
     <g id="line2d_1">
      <defs>
       <path d="M 0 0 
L 0 3.5 
" id="mdacaba49a4" style="stroke:#000000;stroke-width:0.8;"/>
      </defs>
      <g>
       <use style="stroke:#000000;stroke-width:0.8;" x="36.925" xlink:href="#mdacaba49a4" y="404.12"/>
      </g>
     </g>
     <g id="text_1">
      <!-- 0 -->
      <defs>
       <path d="M 31.78125 66.40625 
Q 24.171875 66.40625 20.328125 58.90625 
Q 16.5 51.421875 16.5 36.375 
Q 16.5 21.390625 20.328125 13.890625 
Q 24.171875 6.390625 31.78125 6.390625 
Q 39.453125 6.390625 43.28125 13.890625 
Q 47.125 21.390625 47.125 36.375 
Q 47.125 51.421875 43.28125 58.90625 
Q 39.453125 66.40625 31.78125 66.40625 
z
M 31.78125 74.21875 
Q 44.046875 74.21875 50.515625 64.515625 
Q 56.984375 54.828125 56.984375 36.375 
Q 56.984375 17.96875 50.515625 8.265625 
Q 44.046875 -1.421875 31.78125 -1.421875 
Q 19.53125 -1.421875 13.0625 8.265625 
Q 6.59375 17.96875 6.59375 36.375 
Q 6.59375 54.828125 13.0625 64.515625 
Q 19.53125 74.21875 31.78125 74.21875 
z
" id="DejaVuSans-48"/>
      </defs>
      <g transform="translate(33.74375 418.718437)scale(0.1 -0.1)">
       <use xlink:href="#DejaVuSans-48"/>
      </g>
     </g>
    </g>
    <g id="xtick_2">
     <g id="line2d_2">
      <g>
       <use style="stroke:#000000;stroke-width:0.8;" x="122.898108" xlink:href="#mdacaba49a4" y="404.12"/>
      </g>
     </g>
     <g id="text_2">
      <!-- 200 -->
      <defs>
       <path d="M 19.1875 8.296875 
L 53.609375 8.296875 
L 53.609375 0 
L 7.328125 0 
L 7.328125 8.296875 
Q 12.9375 14.109375 22.625 23.890625 
Q 32.328125 33.6875 34.8125 36.53125 
Q 39.546875 41.84375 41.421875 45.53125 
Q 43.3125 49.21875 43.3125 52.78125 
Q 43.3125 58.59375 39.234375 62.25 
Q 35.15625 65.921875 28.609375 65.921875 
Q 23.96875 65.921875 18.8125 64.3125 
Q 13.671875 62.703125 7.8125 59.421875 
L 7.8125 69.390625 
Q 13.765625 71.78125 18.9375 73 
Q 24.125 74.21875 28.421875 74.21875 
Q 39.75 74.21875 46.484375 68.546875 
Q 53.21875 62.890625 53.21875 53.421875 
Q 53.21875 48.921875 51.53125 44.890625 
Q 49.859375 40.875 45.40625 35.40625 
Q 44.1875 33.984375 37.640625 27.21875 
Q 31.109375 20.453125 19.1875 8.296875 
z
" id="DejaVuSans-50"/>
      </defs>
      <g transform="translate(113.354358 418.718437)scale(0.1 -0.1)">
       <use xlink:href="#DejaVuSans-50"/>
       <use x="63.623047" xlink:href="#DejaVuSans-48"/>
       <use x="127.246094" xlink:href="#DejaVuSans-48"/>
      </g>
     </g>
    </g>
    <g id="xtick_3">
     <g id="line2d_3">
      <g>
       <use style="stroke:#000000;stroke-width:0.8;" x="208.871216" xlink:href="#mdacaba49a4" y="404.12"/>
      </g>
     </g>
     <g id="text_3">
      <!-- 400 -->
      <defs>
       <path d="M 37.796875 64.3125 
L 12.890625 25.390625 
L 37.796875 25.390625 
z
M 35.203125 72.90625 
L 47.609375 72.90625 
L 47.609375 25.390625 
L 58.015625 25.390625 
L 58.015625 17.1875 
L 47.609375 17.1875 
L 47.609375 0 
L 37.796875 0 
L 37.796875 17.1875 
L 4.890625 17.1875 
L 4.890625 26.703125 
z
" id="DejaVuSans-52"/>
      </defs>
      <g transform="translate(199.327466 418.718437)scale(0.1 -0.1)">
       <use xlink:href="#DejaVuSans-52"/>
       <use x="63.623047" xlink:href="#DejaVuSans-48"/>
       <use x="127.246094" xlink:href="#DejaVuSans-48"/>
      </g>
     </g>
    </g>
    <g id="xtick_4">
     <g id="line2d_4">
      <g>
       <use style="stroke:#000000;stroke-width:0.8;" x="294.844325" xlink:href="#mdacaba49a4" y="404.12"/>
      </g>
     </g>
     <g id="text_4">
      <!-- 600 -->
      <defs>
       <path d="M 33.015625 40.375 
Q 26.375 40.375 22.484375 35.828125 
Q 18.609375 31.296875 18.609375 23.390625 
Q 18.609375 15.53125 22.484375 10.953125 
Q 26.375 6.390625 33.015625 6.390625 
Q 39.65625 6.390625 43.53125 10.953125 
Q 47.40625 15.53125 47.40625 23.390625 
Q 47.40625 31.296875 43.53125 35.828125 
Q 39.65625 40.375 33.015625 40.375 
z
M 52.59375 71.296875 
L 52.59375 62.3125 
Q 48.875 64.0625 45.09375 64.984375 
Q 41.3125 65.921875 37.59375 65.921875 
Q 27.828125 65.921875 22.671875 59.328125 
Q 17.53125 52.734375 16.796875 39.40625 
Q 19.671875 43.65625 24.015625 45.921875 
Q 28.375 48.1875 33.59375 48.1875 
Q 44.578125 48.1875 50.953125 41.515625 
Q 57.328125 34.859375 57.328125 23.390625 
Q 57.328125 12.15625 50.6875 5.359375 
Q 44.046875 -1.421875 33.015625 -1.421875 
Q 20.359375 -1.421875 13.671875 8.265625 
Q 6.984375 17.96875 6.984375 36.375 
Q 6.984375 53.65625 15.1875 63.9375 
Q 23.390625 74.21875 37.203125 74.21875 
Q 40.921875 74.21875 44.703125 73.484375 
Q 48.484375 72.75 52.59375 71.296875 
z
" id="DejaVuSans-54"/>
      </defs>
      <g transform="translate(285.300575 418.718437)scale(0.1 -0.1)">
       <use xlink:href="#DejaVuSans-54"/>
       <use x="63.623047" xlink:href="#DejaVuSans-48"/>
       <use x="127.246094" xlink:href="#DejaVuSans-48"/>
      </g>
     </g>
    </g>
    <g id="xtick_5">
     <g id="line2d_5">
      <g>
       <use style="stroke:#000000;stroke-width:0.8;" x="380.817433" xlink:href="#mdacaba49a4" y="404.12"/>
      </g>
     </g>
     <g id="text_5">
      <!-- 800 -->
      <defs>
       <path d="M 31.78125 34.625 
Q 24.75 34.625 20.71875 30.859375 
Q 16.703125 27.09375 16.703125 20.515625 
Q 16.703125 13.921875 20.71875 10.15625 
Q 24.75 6.390625 31.78125 6.390625 
Q 38.8125 6.390625 42.859375 10.171875 
Q 46.921875 13.96875 46.921875 20.515625 
Q 46.921875 27.09375 42.890625 30.859375 
Q 38.875 34.625 31.78125 34.625 
z
M 21.921875 38.8125 
Q 15.578125 40.375 12.03125 44.71875 
Q 8.5 49.078125 8.5 55.328125 
Q 8.5 64.0625 14.71875 69.140625 
Q 20.953125 74.21875 31.78125 74.21875 
Q 42.671875 74.21875 48.875 69.140625 
Q 55.078125 64.0625 55.078125 55.328125 
Q 55.078125 49.078125 51.53125 44.71875 
Q 48 40.375 41.703125 38.8125 
Q 48.828125 37.15625 52.796875 32.3125 
Q 56.78125 27.484375 56.78125 20.515625 
Q 56.78125 9.90625 50.3125 4.234375 
Q 43.84375 -1.421875 31.78125 -1.421875 
Q 19.734375 -1.421875 13.25 4.234375 
Q 6.78125 9.90625 6.78125 20.515625 
Q 6.78125 27.484375 10.78125 32.3125 
Q 14.796875 37.15625 21.921875 38.8125 
z
M 18.3125 54.390625 
Q 18.3125 48.734375 21.84375 45.5625 
Q 25.390625 42.390625 31.78125 42.390625 
Q 38.140625 42.390625 41.71875 45.5625 
Q 45.3125 48.734375 45.3125 54.390625 
Q 45.3125 60.0625 41.71875 63.234375 
Q 38.140625 66.40625 31.78125 66.40625 
Q 25.390625 66.40625 21.84375 63.234375 
Q 18.3125 60.0625 18.3125 54.390625 
z
" id="DejaVuSans-56"/>
      </defs>
      <g transform="translate(371.273683 418.718437)scale(0.1 -0.1)">
       <use xlink:href="#DejaVuSans-56"/>
       <use x="63.623047" xlink:href="#DejaVuSans-48"/>
       <use x="127.246094" xlink:href="#DejaVuSans-48"/>
      </g>
     </g>
    </g>
    <g id="xtick_6">
     <g id="line2d_6">
      <g>
       <use style="stroke:#000000;stroke-width:0.8;" x="466.790541" xlink:href="#mdacaba49a4" y="404.12"/>
      </g>
     </g>
     <g id="text_6">
      <!-- 1000 -->
      <defs>
       <path d="M 12.40625 8.296875 
L 28.515625 8.296875 
L 28.515625 63.921875 
L 10.984375 60.40625 
L 10.984375 69.390625 
L 28.421875 72.90625 
L 38.28125 72.90625 
L 38.28125 8.296875 
L 54.390625 8.296875 
L 54.390625 0 
L 12.40625 0 
z
" id="DejaVuSans-49"/>
      </defs>
      <g transform="translate(454.065541 418.718437)scale(0.1 -0.1)">
       <use xlink:href="#DejaVuSans-49"/>
       <use x="63.623047" xlink:href="#DejaVuSans-48"/>
       <use x="127.246094" xlink:href="#DejaVuSans-48"/>
       <use x="190.869141" xlink:href="#DejaVuSans-48"/>
      </g>
     </g>
    </g>
    <g id="xtick_7">
     <g id="line2d_7">
      <g>
       <use style="stroke:#000000;stroke-width:0.8;" x="552.763649" xlink:href="#mdacaba49a4" y="404.12"/>
      </g>
     </g>
     <g id="text_7">
      <!-- 1200 -->
      <g transform="translate(540.038649 418.718437)scale(0.1 -0.1)">
       <use xlink:href="#DejaVuSans-49"/>
       <use x="63.623047" xlink:href="#DejaVuSans-50"/>
       <use x="127.246094" xlink:href="#DejaVuSans-48"/>
       <use x="190.869141" xlink:href="#DejaVuSans-48"/>
      </g>
     </g>
    </g>
    <g id="xtick_8">
     <g id="line2d_8">
      <g>
       <use style="stroke:#000000;stroke-width:0.8;" x="638.736757" xlink:href="#mdacaba49a4" y="404.12"/>
      </g>
     </g>
     <g id="text_8">
      <!-- 1400 -->
      <g transform="translate(626.011757 418.718437)scale(0.1 -0.1)">
       <use xlink:href="#DejaVuSans-49"/>
       <use x="63.623047" xlink:href="#DejaVuSans-52"/>
       <use x="127.246094" xlink:href="#DejaVuSans-48"/>
       <use x="190.869141" xlink:href="#DejaVuSans-48"/>
      </g>
     </g>
    </g>
   </g>
   <g id="matplotlib.axis_2">
    <g id="ytick_1">
     <g id="line2d_9">
      <defs>
       <path d="M 0 0 
L -3.5 0 
" id="m30d79043c6" style="stroke:#000000;stroke-width:0.8;"/>
      </defs>
      <g>
       <use style="stroke:#000000;stroke-width:0.8;" x="36.925" xlink:href="#m30d79043c6" y="394.563708"/>
      </g>
     </g>
     <g id="text_9">
      <!-- 0 -->
      <g transform="translate(23.5625 398.362927)scale(0.1 -0.1)">
       <use xlink:href="#DejaVuSans-48"/>
      </g>
     </g>
    </g>
    <g id="ytick_2">
     <g id="line2d_10">
      <g>
       <use style="stroke:#000000;stroke-width:0.8;" x="36.925" xlink:href="#m30d79043c6" y="351.913592"/>
      </g>
     </g>
     <g id="text_10">
      <!-- 20 -->
      <g transform="translate(17.2 355.712811)scale(0.1 -0.1)">
       <use xlink:href="#DejaVuSans-50"/>
       <use x="63.623047" xlink:href="#DejaVuSans-48"/>
      </g>
     </g>
    </g>
    <g id="ytick_3">
     <g id="line2d_11">
      <g>
       <use style="stroke:#000000;stroke-width:0.8;" x="36.925" xlink:href="#m30d79043c6" y="309.263476"/>
      </g>
     </g>
     <g id="text_11">
      <!-- 40 -->
      <g transform="translate(17.2 313.062694)scale(0.1 -0.1)">
       <use xlink:href="#DejaVuSans-52"/>
       <use x="63.623047" xlink:href="#DejaVuSans-48"/>
      </g>
     </g>
    </g>
    <g id="ytick_4">
     <g id="line2d_12">
      <g>
       <use style="stroke:#000000;stroke-width:0.8;" x="36.925" xlink:href="#m30d79043c6" y="266.613359"/>
      </g>
     </g>
     <g id="text_12">
      <!-- 60 -->
      <g transform="translate(17.2 270.412578)scale(0.1 -0.1)">
       <use xlink:href="#DejaVuSans-54"/>
       <use x="63.623047" xlink:href="#DejaVuSans-48"/>
      </g>
     </g>
    </g>
    <g id="ytick_5">
     <g id="line2d_13">
      <g>
       <use style="stroke:#000000;stroke-width:0.8;" x="36.925" xlink:href="#m30d79043c6" y="223.963243"/>
      </g>
     </g>
     <g id="text_13">
      <!-- 80 -->
      <g transform="translate(17.2 227.762462)scale(0.1 -0.1)">
       <use xlink:href="#DejaVuSans-56"/>
       <use x="63.623047" xlink:href="#DejaVuSans-48"/>
      </g>
     </g>
    </g>
    <g id="ytick_6">
     <g id="line2d_14">
      <g>
       <use style="stroke:#000000;stroke-width:0.8;" x="36.925" xlink:href="#m30d79043c6" y="181.313126"/>
      </g>
     </g>
     <g id="text_14">
      <!-- 100 -->
      <g transform="translate(10.8375 185.112345)scale(0.1 -0.1)">
       <use xlink:href="#DejaVuSans-49"/>
       <use x="63.623047" xlink:href="#DejaVuSans-48"/>
       <use x="127.246094" xlink:href="#DejaVuSans-48"/>
      </g>
     </g>
    </g>
    <g id="ytick_7">
     <g id="line2d_15">
      <g>
       <use style="stroke:#000000;stroke-width:0.8;" x="36.925" xlink:href="#m30d79043c6" y="138.66301"/>
      </g>
     </g>
     <g id="text_15">
      <!-- 120 -->
      <g transform="translate(10.8375 142.462229)scale(0.1 -0.1)">
       <use xlink:href="#DejaVuSans-49"/>
       <use x="63.623047" xlink:href="#DejaVuSans-50"/>
       <use x="127.246094" xlink:href="#DejaVuSans-48"/>
      </g>
     </g>
    </g>
    <g id="ytick_8">
     <g id="line2d_16">
      <g>
       <use style="stroke:#000000;stroke-width:0.8;" x="36.925" xlink:href="#m30d79043c6" y="96.012894"/>
      </g>
     </g>
     <g id="text_16">
      <!-- 140 -->
      <g transform="translate(10.8375 99.812112)scale(0.1 -0.1)">
       <use xlink:href="#DejaVuSans-49"/>
       <use x="63.623047" xlink:href="#DejaVuSans-52"/>
       <use x="127.246094" xlink:href="#DejaVuSans-48"/>
      </g>
     </g>
    </g>
    <g id="ytick_9">
     <g id="line2d_17">
      <g>
       <use style="stroke:#000000;stroke-width:0.8;" x="36.925" xlink:href="#m30d79043c6" y="53.362777"/>
      </g>
     </g>
     <g id="text_17">
      <!-- 160 -->
      <g transform="translate(10.8375 57.161996)scale(0.1 -0.1)">
       <use xlink:href="#DejaVuSans-49"/>
       <use x="63.623047" xlink:href="#DejaVuSans-54"/>
       <use x="127.246094" xlink:href="#DejaVuSans-48"/>
      </g>
     </g>
    </g>
   </g>
   <g id="line2d_18">
    <path clip-path="url(#p1ca9fad576)" d="M 53.689756 307.824034 
L 54.119622 310.383041 
L 54.549487 311.342669 
L 54.979353 307.824034 
L 55.839084 308.357161 
L 56.698815 312.355609 
L 57.12868 312.302296 
L 57.558546 310.276416 
L 57.988412 313.901676 
L 58.418277 308.517099 
L 58.848143 310.169791 
L 59.278008 310.169791 
L 59.707874 300.89339 
L 60.137739 299.933763 
L 60.567605 289.324546 
L 60.99747 295.24225 
L 61.427336 297.961195 
L 61.857201 297.374756 
L 62.287067 294.069372 
L 62.716932 293.64287 
L 63.146798 283.033654 
L 63.576664 282.500528 
L 64.006529 280.208084 
L 64.436395 279.888208 
L 64.86626 282.127339 
L 65.296126 282.127339 
L 65.725991 283.56678 
L 66.155857 284.259845 
L 66.585722 279.888208 
L 67.015588 279.461707 
L 67.875319 260.908906 
L 68.305184 258.883026 
L 68.73505 253.551761 
L 69.164916 251.152692 
L 69.594781 250.246377 
L 70.024647 250.193064 
L 70.454512 247.154244 
L 70.884378 246.141303 
L 71.314243 236.918216 
L 71.744109 234.519147 
L 72.173974 236.971528 
L 72.60384 236.331777 
L 73.033705 236.331777 
L 73.893437 253.391823 
L 74.323302 252.272258 
L 74.753168 243.688922 
L 75.183033 243.528984 
L 75.612899 248.913561 
L 76.042764 249.393375 
L 76.902495 268.85249 
L 77.332361 270.984996 
L 77.762226 281.594213 
L 78.621957 270.771746 
L 79.051823 270.185306 
L 79.481689 265.81367 
L 79.911554 265.920295 
L 80.34142 276.049697 
L 80.771285 276.529511 
L 81.201151 274.930132 
L 81.631016 267.679612 
L 82.060882 267.946175 
L 82.490747 267.946175 
L 82.920613 267.466362 
L 83.350478 258.030023 
L 83.780344 256.483957 
L 84.21021 252.165632 
L 84.640075 256.430644 
L 85.069941 263.627851 
L 85.499806 258.669775 
L 85.929672 267.306424 
L 86.789403 253.231885 
L 87.219268 244.755175 
L 87.649134 241.503103 
L 88.078999 242.782607 
L 88.508865 251.365943 
L 88.93873 253.765012 
L 89.368596 255.044515 
L 89.798462 245.07505 
L 90.228327 244.701862 
L 90.658193 238.091094 
L 91.517924 220.018107 
L 91.947789 221.244298 
L 92.377655 210.795019 
L 93.237386 210.795019 
L 94.097117 202.798123 
L 94.956848 202.691497 
L 95.386714 203.971001 
L 95.816579 198.479798 
L 96.246445 200.239116 
L 96.67631 209.782079 
L 97.536041 210.795019 
L 97.965907 203.117998 
L 98.395772 198.10661 
L 98.825638 197.680109 
L 99.255503 196.560543 
L 99.685369 187.284143 
L 100.115235 186.21789 
L 100.5451 188.936835 
L 100.974966 197.413545 
L 101.404831 193.948223 
L 101.834697 199.812614 
L 102.264562 196.027417 
L 102.694428 203.811063 
L 103.124293 205.037254 
L 103.984024 225.882498 
L 104.843755 240.490163 
L 105.273621 240.596788 
L 105.703487 242.356106 
L 106.133352 239.530535 
L 106.563218 238.677533 
L 106.993083 249.286749 
L 107.422949 249.5 
L 107.852814 245.66149 
L 108.28268 243.688922 
L 108.712545 243.688922 
L 109.142411 249.926501 
L 109.572276 249.926501 
L 110.002142 239.317285 
L 110.432008 238.144407 
L 110.861873 232.17339 
L 111.291739 235.372149 
L 111.721604 235.478774 
L 112.15147 233.079705 
L 112.581335 227.108689 
L 113.011201 237.024841 
L 113.441066 227.908379 
L 113.870932 225.455997 
L 114.300797 225.029496 
L 114.730663 224.92287 
L 115.590394 243.04917 
L 116.02026 248.753623 
L 116.450125 239.957036 
L 116.879991 238.62422 
L 117.309856 240.116974 
L 117.739722 246.621117 
L 118.169587 236.011901 
L 118.599453 233.666144 
L 119.029318 233.879395 
L 119.459184 240.116974 
L 119.889049 240.543476 
L 120.318915 236.331777 
L 120.74878 235.425462 
L 121.178646 235.532087 
L 121.608512 237.931156 
L 122.038377 237.61128 
L 122.468243 236.011901 
L 122.898108 236.225151 
L 123.327974 238.944096 
L 123.757839 239.850411 
L 124.187705 239.797099 
L 124.61757 239.317285 
L 125.477301 259.149589 
L 125.907167 269.758805 
L 126.337033 272.904251 
L 127.196764 292.469992 
L 127.626629 292.043491 
L 128.056495 302.066268 
L 128.48636 302.919271 
L 128.916226 300.626827 
L 129.346091 303.025896 
L 129.775957 313.635112 
L 130.205822 314.221552 
L 130.635688 322.64495 
L 131.065553 325.097331 
L 131.925285 325.203957 
L 132.35515 325.68377 
L 133.214881 328.935842 
L 134.074612 349.887711 
L 134.504478 350.474151 
L 134.934343 349.941024 
L 135.794074 368.920326 
L 136.22394 368.867013 
L 136.653806 369.186889 
L 137.083671 368.867013 
L 137.513537 373.718464 
L 137.943402 374.571466 
L 138.373268 374.838029 
L 138.803133 374.838029 
L 139.232999 374.678092 
L 139.662864 376.117533 
L 140.09273 376.170846 
L 140.952461 376.010908 
L 141.382326 375.584407 
L 141.812192 376.170846 
L 142.242058 377.450349 
L 142.671923 377.556974 
L 143.101789 377.077161 
L 143.96152 376.810597 
L 144.821251 380.009356 
L 145.251116 380.275919 
L 145.680982 380.169294 
L 146.110847 382.461738 
L 146.540713 382.3018 
L 146.970578 382.3018 
L 147.400444 381.928611 
L 147.83031 382.621676 
L 148.260175 382.621676 
L 148.690041 382.035237 
L 149.119906 381.768673 
L 149.549772 381.768673 
L 149.979637 382.834926 
L 150.409503 382.408425 
L 150.839368 381.608735 
L 151.699099 379.262979 
L 152.128965 380.009356 
L 152.558831 380.169294 
L 152.988696 382.195175 
L 153.418562 382.035237 
L 153.848427 382.035237 
L 154.278293 382.3018 
L 155.138024 382.461738 
L 155.567889 382.355112 
L 155.997755 381.28886 
L 156.42762 381.662048 
L 157.287351 381.50211 
L 157.717217 381.821986 
L 158.147083 381.235547 
L 158.576948 381.608735 
L 159.006814 381.022296 
L 159.436679 378.516602 
L 159.866545 377.077161 
L 160.29641 377.397036 
L 160.726276 376.810597 
L 161.156141 376.917223 
L 161.586007 376.810597 
L 162.015872 376.86391 
L 162.445738 376.330784 
L 162.875604 376.490721 
L 163.305469 376.330784 
L 163.735335 375.264531 
L 164.1652 375.264531 
L 164.595066 373.558526 
L 165.454797 372.812149 
L 165.884662 372.065772 
L 166.314528 369.346827 
L 166.744393 368.333887 
L 167.174259 368.067324 
L 167.604124 368.173949 
L 168.03399 368.60045 
L 168.463856 369.61339 
L 168.893721 369.560078 
L 169.323587 367.640822 
L 170.183318 367.58751 
L 170.613183 365.081815 
L 171.043049 363.96225 
L 171.90278 363.96225 
L 172.332645 363.109247 
L 172.762511 363.055935 
L 173.192376 360.710178 
L 173.622242 360.870116 
L 174.052108 360.710178 
L 174.481973 356.658417 
L 174.911839 354.09941 
L 175.341704 353.779535 
L 175.77157 353.779535 
L 176.201435 352.713282 
L 176.631301 355.165663 
L 177.061166 356.605105 
L 177.491032 356.765043 
L 177.920897 357.244856 
L 178.350763 357.138231 
L 178.780629 356.765043 
L 179.210494 356.71173 
L 179.64036 357.031606 
L 180.500091 356.871668 
L 180.929956 357.458107 
L 181.359822 357.244856 
L 181.789687 359.057486 
L 182.219553 358.844236 
L 182.649418 358.844236 
L 183.509149 362.416183 
L 183.939015 361.13668 
L 184.368881 360.603553 
L 184.798746 360.55024 
L 185.228612 354.046098 
L 185.658477 353.246408 
L 186.088343 353.672909 
L 186.518208 355.592164 
L 186.948074 355.645477 
L 187.377939 355.432227 
L 187.807805 357.991234 
L 188.23767 358.52436 
L 188.667536 357.72467 
L 189.097402 356.125291 
L 189.527267 356.231916 
L 189.957133 353.193095 
L 190.386998 355.858728 
L 190.816864 354.739162 
L 191.246729 352.500031 
L 191.676595 356.231916 
L 192.10646 358.790923 
L 192.536326 359.590613 
L 192.966191 359.377362 
L 193.396057 357.831296 
L 194.685654 357.777983 
L 195.545385 358.097859 
L 195.97525 358.577673 
L 196.834981 358.737611 
L 197.264847 357.404794 
L 197.694712 357.244856 
L 198.124578 357.777983 
L 198.554443 357.72467 
L 198.984309 357.031606 
L 199.414174 357.191544 
L 199.84404 356.658417 
L 200.273906 354.152723 
L 200.703771 354.472599 
L 201.133637 355.645477 
L 201.993368 357.138231 
L 202.423233 361.669806 
L 202.853099 362.309558 
L 203.282964 363.375811 
L 204.142695 363.269185 
L 204.572561 361.723119 
L 205.002427 361.616493 
L 205.432292 361.34993 
L 205.862158 360.230365 
L 206.292023 361.243305 
L 206.721889 359.377362 
L 207.151754 361.989682 
L 207.58162 355.165663 
L 208.011485 354.046098 
L 208.441351 356.605105 
L 208.871216 356.765043 
L 209.301082 356.71173 
L 209.730947 356.818355 
L 210.160813 355.432227 
L 210.590679 358.684298 
L 211.020544 358.097859 
L 214.029603 356.978293 
L 214.889334 357.991234 
L 215.319199 358.097859 
L 215.749065 357.937921 
L 216.178931 358.897548 
L 216.608796 359.270737 
L 217.038662 360.123739 
L 217.468527 361.936369 
L 218.328258 363.589061 
L 218.758124 363.802312 
L 219.187989 363.748999 
L 219.617855 365.881505 
L 220.04772 366.148068 
L 220.477586 366.094756 
L 220.907452 365.881505 
L 221.337317 365.881505 
L 221.767183 367.161009 
L 222.197048 367.694135 
L 222.626914 367.960698 
L 223.056779 369.879953 
L 223.486645 370.146517 
L 223.91651 372.598898 
L 224.346376 373.132025 
L 224.776241 380.70242 
L 225.206107 382.941552 
L 225.635972 382.834926 
L 226.065838 383.048177 
L 226.495704 382.941552 
L 226.925569 382.994864 
L 227.355435 384.700869 
L 227.7853 384.487618 
L 228.215166 385.12737 
L 229.074897 384.914119 
L 229.504762 385.020745 
L 229.934628 385.340621 
L 230.364493 384.967432 
L 230.794359 385.074057 
L 231.224225 384.807494 
L 231.65409 385.607184 
L 232.513821 385.607184 
L 232.943687 386.033685 
L 233.373552 385.820434 
L 233.803418 384.967432 
L 234.233283 385.074057 
L 234.663149 385.500559 
L 235.093014 385.340621 
L 235.52288 385.713809 
L 235.952745 385.500559 
L 237.672208 385.873747 
L 238.102073 386.193623 
L 238.961804 386.086998 
L 239.39167 385.767122 
L 239.821535 386.460186 
L 240.251401 386.353561 
L 241.111132 386.673437 
L 243.26046 386.780062 
L 243.690325 386.94 
L 244.120191 386.94 
L 245.409787 386.460186 
L 246.699384 386.833375 
L 247.12925 385.660497 
L 247.559115 385.92706 
L 247.988981 385.607184 
L 248.418846 386.086998 
L 249.278577 385.980372 
L 249.708443 385.660497 
L 250.138308 384.807494 
L 250.568174 385.12737 
L 250.998039 385.92706 
L 251.427905 385.607184 
L 251.85777 385.553871 
L 252.287636 385.660497 
L 253.577233 385.393933 
L 254.007098 384.540931 
L 254.436964 384.434306 
L 254.866829 384.487618 
L 255.296695 383.154802 
L 255.72656 383.10149 
L 256.156426 383.687929 
L 256.586291 383.581303 
L 257.016157 382.3018 
L 257.446023 382.408425 
L 257.875888 382.141862 
L 259.165485 380.542483 
L 260.025216 380.435857 
L 261.744678 380.115981 
L 262.174543 380.382545 
L 262.604409 380.275919 
L 263.46414 380.435857 
L 263.894006 380.222607 
L 264.323871 381.235547 
L 264.753737 381.342172 
L 265.183602 380.542483 
L 265.613468 380.062669 
L 266.473199 380.169294 
L 266.903064 380.329232 
L 267.762795 380.009356 
L 268.192661 380.062669 
L 268.622527 380.382545 
L 269.052392 379.262979 
L 269.912123 379.422917 
L 270.341989 379.262979 
L 270.771854 379.529542 
L 271.20172 379.529542 
L 271.631585 379.369604 
L 272.061451 378.516602 
L 272.491316 379.742793 
L 273.351048 379.316292 
L 273.780913 379.422917 
L 274.210779 380.382545 
L 274.640644 378.623227 
L 275.930241 379.796106 
L 276.360106 380.382545 
L 277.219837 380.382545 
L 278.079568 379.849418 
L 278.9393 379.956043 
L 279.369165 378.036788 
L 279.799031 378.409977 
L 280.228896 377.983476 
L 280.658762 377.930163 
L 281.088627 378.196726 
L 281.518493 377.930163 
L 281.948358 377.930163 
L 282.378224 378.889791 
L 282.808089 378.623227 
L 283.667821 378.516602 
L 284.097686 378.67654 
L 284.527552 379.68948 
L 285.817148 379.369604 
L 286.247014 380.382545 
L 287.106745 379.742793 
L 287.53661 379.209666 
L 287.966476 379.049728 
L 288.396341 380.009356 
L 288.826207 380.329232 
L 290.545669 380.649108 
L 291.4054 381.075609 
L 291.835266 382.088549 
L 292.265131 381.28886 
L 293.124862 381.395485 
L 293.554728 380.968984 
L 294.414459 380.542483 
L 294.844325 377.290411 
L 295.27419 377.450349 
L 295.704056 374.25159 
L 296.133921 374.25159 
L 296.563787 374.624779 
L 297.423518 368.707075 
L 298.283249 368.333887 
L 298.713114 368.493825 
L 299.14298 367.534197 
L 299.572846 367.001071 
L 300.002711 367.80076 
L 300.862442 367.694135 
L 301.292308 367.694135 
L 301.722173 363.055935 
L 302.152039 361.403243 
L 302.581904 361.403243 
L 303.871501 362.042995 
L 304.301366 357.351482 
L 304.731232 358.204484 
L 305.590963 357.298169 
L 306.020829 357.351482 
L 306.450694 357.084919 
L 306.88056 353.992785 
L 307.310425 354.152723 
L 307.740291 353.726222 
L 308.600022 353.672909 
L 309.029887 354.312661 
L 309.459753 353.566284 
L 309.889619 352.500031 
L 310.319484 352.553344 
L 310.74935 350.207587 
L 311.609081 347.701893 
L 312.038946 350.420838 
L 312.468812 350.580776 
L 312.898677 352.07353 
L 313.328543 348.928084 
L 313.758408 350.047649 
L 314.188274 349.407898 
L 314.618139 352.233468 
L 315.048005 352.393406 
L 315.477871 352.233468 
L 315.907736 351.753654 
L 316.337602 352.500031 
L 316.767467 350.953964 
L 317.197333 350.794026 
L 317.627198 351.007277 
L 318.057064 349.887711 
L 318.486929 349.834399 
L 318.916795 354.472599 
L 319.34666 356.178604 
L 319.776526 356.178604 
L 320.206391 350.900652 
L 320.636257 351.007277 
L 321.066123 350.847339 
L 321.495988 355.69879 
L 321.925854 353.459659 
L 322.355719 352.979845 
L 322.785585 353.459659 
L 323.21545 352.87322 
L 323.645316 353.779535 
L 324.075181 355.165663 
L 324.505047 355.059038 
L 325.794644 353.88616 
L 326.224509 353.992785 
L 326.654375 355.592164 
L 327.08424 350.2609 
L 327.514106 350.2609 
L 327.943971 352.233468 
L 329.233568 356.178604 
L 329.663433 353.992785 
L 330.093299 353.832847 
L 330.523164 356.71173 
L 330.95303 357.084919 
L 331.382896 360.816804 
L 331.812761 361.296618 
L 332.242627 360.656866 
L 332.672492 359.430675 
L 333.102358 360.177052 
L 333.532223 360.177052 
L 333.962089 362.469496 
L 334.82182 354.09941 
L 335.251685 355.218976 
L 335.681551 355.059038 
L 336.111417 354.685849 
L 336.541282 353.992785 
L 336.971148 352.819907 
L 337.401013 355.69879 
L 337.830879 354.312661 
L 338.260744 352.500031 
L 338.69061 352.233468 
L 339.120475 354.259348 
L 339.550341 354.952413 
L 339.980206 351.913592 
L 340.410072 352.393406 
L 340.839937 352.553344 
L 341.269803 353.08647 
L 341.699669 353.08647 
L 342.129534 352.553344 
L 342.5594 353.08647 
L 342.989265 353.353033 
L 343.419131 348.714833 
L 343.848996 348.714833 
L 344.278862 355.325601 
L 344.708727 355.059038 
L 345.138593 355.858728 
L 345.568458 355.432227 
L 346.428189 355.218976 
L 347.287921 359.377362 
L 347.717786 359.697238 
L 348.147652 359.590613 
L 348.577517 358.044546 
L 349.007383 357.618045 
L 349.437248 357.564732 
L 350.296979 355.69879 
L 350.726845 355.485539 
L 351.15671 355.059038 
L 351.586576 359.430675 
L 352.016442 361.083367 
L 352.446307 360.763491 
L 352.876173 360.123739 
L 353.735904 360.923429 
L 354.165769 362.042995 
L 354.595635 364.388751 
L 355.0255 364.655314 
L 355.455366 365.668254 
L 355.885231 366.094756 
L 356.315097 366.308006 
L 356.744962 361.776431 
L 357.174828 364.655314 
L 357.604694 363.535749 
L 358.034559 361.883057 
L 358.464425 361.723119 
L 358.89429 361.829744 
L 359.324156 363.215873 
L 359.754021 363.269185 
L 360.183887 361.563181 
L 360.613752 366.201381 
L 361.043618 363.96225 
L 361.473483 363.96225 
L 361.903349 363.748999 
L 362.333215 363.748999 
L 362.76308 364.122188 
L 363.192946 364.335438 
L 363.622811 364.068875 
L 364.052677 364.068875 
L 364.482542 360.496928 
L 364.912408 360.443615 
L 365.342273 360.603553 
L 365.772139 362.14962 
L 366.202004 362.309558 
L 366.63187 362.736059 
L 367.061735 364.655314 
L 367.491601 365.455004 
L 367.921467 365.295066 
L 368.351332 365.721567 
L 368.781198 365.455004 
L 369.211063 367.854073 
L 369.640929 368.120636 
L 370.070794 368.867013 
L 370.50066 368.867013 
L 370.930525 366.841133 
L 371.360391 366.627882 
L 371.790256 366.681195 
L 372.649987 368.867013 
L 373.079853 367.320946 
L 373.509719 365.241753 
L 373.939584 369.986579 
L 374.36945 370.039891 
L 374.799315 369.240202 
L 375.659046 372.279022 
L 376.948643 371.905834 
L 377.378508 372.22571 
L 377.808374 372.22571 
L 378.23824 372.43896 
L 378.668105 372.279022 
L 379.097971 372.492273 
L 379.527836 371.42602 
L 380.387567 371.42602 
L 380.817433 370.093204 
L 381.247298 369.560078 
L 381.677164 372.012459 
L 382.536895 372.012459 
L 383.396626 372.065772 
L 383.826492 370.253142 
L 384.256357 367.001071 
L 384.686223 366.201381 
L 385.116088 366.574569 
L 385.545954 366.414631 
L 385.975819 363.375811 
L 386.405685 354.632537 
L 386.83555 354.365974 
L 387.265416 354.419286 
L 387.695281 353.512971 
L 388.125147 354.685849 
L 388.555013 354.845787 
L 388.984878 352.926532 
L 389.414744 352.659969 
L 389.844609 351.113902 
L 390.274475 351.806967 
L 390.70434 347.541955 
L 391.134206 347.115454 
L 391.564071 344.02332 
L 391.993937 344.876323 
L 392.423802 344.716385 
L 392.853668 342.79713 
L 393.713399 343.117005 
L 394.143265 342.903755 
L 394.57313 344.503134 
L 395.002996 344.396509 
L 395.432861 346.422389 
L 395.862727 345.409449 
L 396.292592 345.196199 
L 396.722458 345.356137 
L 397.152323 345.356137 
L 397.582189 344.449822 
L 398.012054 345.729325 
L 398.44192 345.089573 
L 398.871785 345.356137 
L 399.301651 344.02332 
L 399.731517 343.756757 
L 400.161382 343.756757 
L 400.591248 333.360791 
L 401.021113 334.053856 
L 401.450979 337.625803 
L 401.880844 338.37218 
L 402.31071 338.265555 
L 402.740575 338.37218 
L 403.170441 340.771249 
L 403.600306 349.301272 
L 404.030172 349.514523 
L 404.460038 348.661521 
L 404.889903 349.46121 
L 405.749634 339.598371 
L 406.1795 341.464313 
L 406.609365 340.557998 
L 407.039231 342.104065 
L 407.469096 342.423941 
L 407.898962 348.768146 
L 408.328827 349.354585 
L 408.758693 350.314213 
L 409.188558 340.877874 
L 409.618424 339.704996 
L 410.04829 341.144438 
L 410.908021 340.078185 
L 411.337886 337.625803 
L 411.767752 336.772801 
L 412.197617 335.439984 
L 412.627483 335.333359 
L 413.057348 336.452925 
L 413.487214 331.654787 
L 413.917079 329.682219 
L 414.776811 329.468968 
L 415.206676 328.882529 
L 415.636542 330.055407 
L 416.066407 330.535221 
L 416.496273 331.494849 
L 417.356004 326.376835 
L 417.785869 335.919798 
L 418.215735 336.879426 
L 418.6456 334.267106 
L 419.075466 333.040915 
L 419.935197 333.200853 
L 420.365063 325.523832 
L 420.794928 325.843708 
L 421.224794 325.790396 
L 421.654659 325.523832 
L 422.084525 325.630458 
L 422.51439 331.92135 
L 422.944256 336.55955 
L 423.374121 336.55955 
L 423.803987 337.785741 
L 424.233852 337.57249 
L 425.523449 335.386672 
L 425.953315 336.826113 
L 426.38318 347.382017 
L 426.813046 348.714833 
L 427.242911 349.354585 
L 427.672777 349.354585 
L 428.102642 346.63564 
L 428.532508 348.181707 
L 429.392239 349.834399 
L 429.822104 349.941024 
L 430.25197 348.768146 
L 430.681836 353.88616 
L 431.111701 356.765043 
L 431.541567 356.391854 
L 431.971432 356.978293 
L 432.401298 357.991234 
L 432.831163 357.991234 
L 433.261029 357.244856 
L 433.690894 357.618045 
L 434.12076 360.177052 
L 434.550625 360.816804 
L 434.980491 358.471047 
L 435.410356 358.311109 
L 435.840222 361.083367 
L 436.270088 362.202933 
L 436.699953 362.416183 
L 437.129819 362.416183 
L 437.559684 369.506765 
L 437.98955 369.186889 
L 438.419415 368.387199 
L 438.849281 369.293514 
L 439.279146 369.293514 
L 439.709012 369.133576 
L 440.138877 369.240202 
L 440.568743 367.854073 
L 441.428474 367.640822 
L 442.288205 369.720016 
L 442.718071 369.61339 
L 443.147936 370.199829 
L 444.007667 370.253142 
L 444.437533 368.920326 
L 444.867398 369.346827 
L 445.297264 371.159457 
L 445.727129 371.905834 
L 446.156995 370.999519 
L 446.586861 371.532645 
L 447.016726 369.879953 
L 447.446592 371.052832 
L 448.306323 370.946206 
L 449.166054 371.799209 
L 449.595919 371.479333 
L 450.025785 371.479333 
L 450.45565 372.598898 
L 450.885516 372.545586 
L 451.315381 367.854073 
L 451.745247 369.826641 
L 452.175113 372.332335 
L 452.604978 372.972087 
L 453.034844 373.132025 
L 453.464709 372.545586 
L 453.894575 371.42602 
L 454.32444 371.42602 
L 454.754306 372.758836 
L 455.184171 372.972087 
L 455.614037 373.931715 
L 456.043902 369.986579 
L 456.903634 368.547137 
L 457.333499 368.173949 
L 457.763365 365.401691 
L 458.19323 365.028503 
L 458.623096 364.921877 
L 459.052961 363.96225 
L 459.482827 362.042995 
L 459.912692 358.737611 
L 460.342558 358.204484 
L 461.202289 358.151171 
L 461.632154 359.217424 
L 462.06202 359.270737 
L 462.491886 360.710178 
L 463.351617 361.296618 
L 463.781482 359.5373 
L 464.211348 360.923429 
L 464.641213 360.33699 
L 465.071079 359.483988 
L 466.360675 359.483988 
L 466.790541 357.937921 
L 467.220407 354.952413 
L 467.650272 349.727773 
L 468.080138 339.17187 
L 468.510003 333.467417 
L 468.939869 331.92135 
L 469.369734 332.027975 
L 469.7996 328.456028 
L 470.229465 328.29609 
L 470.659331 329.09578 
L 471.519062 328.935842 
L 471.948927 328.082839 
L 472.378793 320.83232 
L 472.808659 319.073002 
L 473.238524 319.659441 
L 473.66839 318.753126 
L 474.528121 310.809542 
L 474.957986 314.168239 
L 475.387852 314.59474 
L 476.247583 314.168239 
L 476.677448 312.728798 
L 477.107314 316.567308 
L 477.537179 317.047122 
L 477.967045 315.874244 
L 478.396911 311.129418 
L 478.826776 311.395981 
L 479.256642 310.809542 
L 479.686507 310.862855 
L 480.116373 304.891839 
L 480.546238 295.775376 
L 480.976104 297.001567 
L 481.405969 294.549185 
L 481.835835 294.22931 
L 482.2657 294.975687 
L 482.695566 294.975687 
L 483.125432 294.602498 
L 483.555297 288.258293 
L 483.985163 289.431171 
L 484.415028 292.41668 
L 484.844894 296.308503 
L 485.704625 315.820931 
L 486.13449 317.42031 
L 486.564356 317.100434 
L 486.994221 318.539876 
L 487.424087 315.074554 
L 487.853952 314.807991 
L 488.283818 315.927556 
L 488.713684 314.754678 
L 489.143549 315.39443 
L 489.573415 322.751575 
L 490.00328 323.604577 
L 490.433146 327.229837 
L 490.863011 328.935842 
L 491.722742 337.145989 
L 492.582473 336.239674 
L 493.012339 336.932739 
L 493.442205 334.853545 
L 493.87207 337.625803 
L 494.731801 334.640295 
L 495.161667 335.653235 
L 495.591532 339.17187 
L 496.021398 338.265555 
L 496.451263 338.798681 
L 496.881129 338.532118 
L 497.310994 344.60976 
L 497.74086 348.661521 
L 498.170725 343.117005 
L 498.600591 342.21069 
L 499.030457 343.170318 
L 499.460322 341.944127 
L 499.890188 341.944127 
L 500.320053 342.370628 
L 500.749919 348.714833 
L 501.179784 347.808518 
L 502.039515 337.57249 
L 502.469381 338.105617 
L 503.329112 333.360791 
L 503.758977 334.480357 
L 504.188843 326.003646 
L 504.618709 329.575593 
L 505.048574 329.682219 
L 505.47844 326.963274 
L 505.908305 328.136152 
L 506.338171 327.922901 
L 506.768036 325.843708 
L 507.197902 319.659441 
L 507.627767 317.42031 
L 508.057633 317.313685 
L 508.487498 317.686874 
L 508.917364 316.940497 
L 509.34723 318.22 
L 509.777095 318.486563 
L 510.206961 318.273313 
L 510.636826 318.326625 
L 511.066692 316.247432 
L 511.926423 319.392878 
L 512.356288 319.499503 
L 513.216019 321.632009 
L 513.645885 320.405818 
L 514.07575 320.672382 
L 514.505616 320.405818 
L 515.365347 326.376835 
L 515.795213 329.948782 
L 516.225078 329.468968 
L 516.654944 331.068348 
L 517.94454 331.015035 
L 518.374406 332.507789 
L 519.234137 341.464313 
L 519.664003 341.464313 
L 520.093868 342.370628 
L 520.523734 340.18481 
L 520.953599 339.971559 
L 521.383465 350.527463 
L 522.243196 350.740714 
L 522.673061 353.246408 
L 523.102927 352.713282 
L 523.532792 351.913592 
L 524.392523 355.432227 
L 524.822389 356.871668 
L 525.252255 353.512971 
L 525.68212 353.939472 
L 526.111986 354.792475 
L 526.541851 353.672909 
L 526.971717 353.992785 
L 527.401582 353.299721 
L 527.831448 354.685849 
L 528.261313 356.658417 
L 528.691179 354.739162 
L 529.121044 349.834399 
L 529.55091 349.941024 
L 530.410641 349.834399 
L 530.840507 351.113902 
L 531.700238 348.288332 
L 532.130103 351.27384 
L 532.559969 353.193095 
L 532.989834 352.87322 
L 533.4197 353.299721 
L 533.849565 353.299721 
L 534.279431 353.08647 
L 534.709296 346.848891 
L 535.139162 346.848891 
L 535.998893 341.730877 
L 536.428759 343.01038 
L 536.858624 343.01038 
L 537.28849 345.516074 
L 537.718355 349.194647 
L 538.148221 349.301272 
L 538.578086 349.088022 
L 539.007952 349.088022 
L 539.437817 348.714833 
L 539.867683 348.181707 
L 540.297548 348.821458 
L 540.727414 350.100962 
L 541.15728 350.314213 
L 541.587145 354.206036 
L 542.017011 355.005725 
L 542.446876 358.151171 
L 543.306607 357.777983 
L 543.736473 358.737611 
L 544.166338 358.684298 
L 544.596204 359.32405 
L 545.026069 361.243305 
L 545.455935 360.496928 
L 545.885801 362.416183 
L 546.315666 359.643926 
L 546.745532 359.643926 
L 547.175397 359.004174 
L 548.035128 359.057486 
L 548.464994 357.671358 
L 548.894859 358.417735 
L 549.324725 357.618045 
L 549.75459 357.138231 
L 550.184456 357.51142 
L 551.044187 357.298169 
L 551.474053 357.458107 
L 551.903918 362.202933 
L 552.333784 362.256245 
L 553.193515 346.848891 
L 553.62338 347.595268 
L 554.483111 335.599922 
L 554.912977 335.653235 
L 555.342842 335.226734 
L 555.772708 332.987603 
L 556.202573 332.187913 
L 557.062305 332.93429 
L 557.49217 332.93429 
L 557.922036 333.094228 
L 558.351901 330.428596 
L 558.781767 331.494849 
L 559.211632 327.123212 
L 559.641498 327.443088 
L 560.071363 327.229837 
L 560.501229 324.031078 
L 560.931094 324.191016 
L 561.36096 322.538324 
L 561.790826 318.379938 
L 562.220691 315.927556 
L 562.650557 316.460683 
L 563.080422 312.78211 
L 563.510288 319.712754 
L 564.370019 319.819379 
L 564.799884 319.552816 
L 565.22975 319.552816 
L 565.659615 313.101986 
L 566.089481 314.114926 
L 566.519346 304.3054 
L 566.949212 304.891839 
L 567.379078 295.828689 
L 568.238809 292.843181 
L 568.668674 290.230861 
L 569.09854 289.591109 
L 569.528405 289.591109 
L 570.388136 306.597843 
L 570.818002 303.825586 
L 571.247867 310.329728 
L 571.677733 313.688425 
L 572.107598 311.98242 
L 572.537464 306.864407 
L 572.96733 306.064717 
L 573.397195 303.825586 
L 573.827061 303.079209 
L 574.256926 302.812645 
L 574.686792 300.200326 
L 575.116657 298.600946 
L 575.546523 299.027448 
L 575.976388 293.589558 
L 576.406254 297.374756 
L 576.836119 297.374756 
L 577.265985 297.694631 
L 577.695851 299.827137 
L 578.125716 299.667199 
L 578.555582 293.64287 
L 578.985447 295.4555 
L 579.415313 295.668751 
L 579.845178 296.25519 
L 580.275044 297.05488 
L 580.704909 296.894942 
L 581.134775 293.64287 
L 581.56464 293.856121 
L 581.994506 293.696183 
L 582.424371 293.163057 
L 582.854237 295.668751 
L 583.284103 295.562126 
L 583.713968 302.439457 
L 584.143834 302.546082 
L 584.573699 311.609232 
L 585.003565 306.384593 
L 585.43343 305.211715 
L 586.293161 308.9436 
L 586.723027 308.9436 
L 587.152892 302.865958 
L 587.582758 304.51865 
L 588.012624 307.290908 
L 588.872355 301.853018 
L 589.732086 305.424965 
L 590.161951 298.121133 
L 590.591817 297.161505 
L 591.021682 298.014507 
L 591.451548 297.747944 
L 592.741144 303.345772 
L 593.17101 307.557471 
L 594.030741 303.079209 
L 594.460607 302.919271 
L 594.890472 304.465337 
L 595.320338 304.625275 
L 595.750203 312.142358 
L 596.609934 316.887184 
L 597.0398 313.901676 
L 597.469665 315.714306 
L 597.899531 316.300745 
L 598.329396 319.23294 
L 598.759262 316.887184 
L 599.189128 317.100434 
L 599.618993 317.153747 
L 600.048859 320.085943 
L 600.478724 319.872692 
L 600.90859 322.804888 
L 601.338455 323.604577 
L 601.768321 318.006749 
L 602.198186 324.884081 
L 603.057917 315.234492 
L 603.487783 315.341117 
L 603.917649 314.807991 
L 604.347514 322.591637 
L 604.77738 322.378386 
L 605.207245 321.472071 
L 605.637111 323.65789 
L 606.066976 327.976214 
L 606.496842 328.935842 
L 606.926707 332.614414 
L 607.356573 343.170318 
L 607.786438 347.115454 
L 608.216304 346.422389 
L 608.646169 347.328704 
L 609.076035 346.262452 
L 609.505901 339.651683 
L 609.935766 339.545058 
L 610.365632 341.091125 
L 610.795497 343.81007 
L 611.225363 343.383569 
L 611.655228 343.596819 
L 612.085094 343.276943 
L 612.514959 340.824562 
L 612.944825 339.225182 
L 613.37469 339.225182 
L 613.804556 337.625803 
L 614.234422 340.557998 
L 614.664287 339.118557 
L 615.094153 339.598371 
L 615.524018 339.811621 
L 615.953884 342.264003 
L 616.383749 342.477254 
L 616.813615 339.811621 
L 617.24348 343.223631 
L 617.673346 340.717936 
L 618.103211 339.971559 
L 618.533077 339.864934 
L 618.962942 345.142886 
L 619.392808 344.076633 
L 619.822674 351.966905 
L 620.252539 357.138231 
L 620.682405 357.244856 
L 621.11227 357.51142 
L 621.542136 356.71173 
L 621.972001 353.353033 
L 622.401867 353.406346 
L 622.831732 353.939472 
L 623.261598 353.832847 
L 623.691463 353.406346 
L 624.551194 347.541955 
L 624.98106 347.595268 
L 625.410926 348.181707 
L 625.840791 347.701893 
L 626.270657 349.301272 
L 626.700522 355.91204 
L 627.130388 355.858728 
L 627.560253 354.259348 
L 627.990119 353.832847 
L 628.419984 355.91204 
L 628.84985 355.69879 
L 629.279715 355.858728 
L 629.709581 356.498479 
L 630.139447 357.937921 
L 630.569312 354.365974 
L 630.999178 355.805415 
L 631.429043 354.632537 
L 631.858909 355.91204 
L 632.288774 354.152723 
L 633.578371 354.09941 
L 634.008236 357.191544 
L 634.438102 357.244856 
L 634.867967 359.910489 
L 635.297833 360.55024 
L 635.727699 360.230365 
L 636.157564 357.937921 
L 636.58743 359.057486 
L 637.017295 355.91204 
L 637.877026 355.858728 
L 638.306892 354.152723 
L 638.736757 344.60976 
L 639.166623 338.158929 
L 639.596488 338.851994 
L 640.026354 333.307479 
L 640.45622 333.574042 
L 640.886085 334.107168 
L 641.315951 326.696711 
L 641.745816 329.628906 
L 642.175682 324.297642 
L 643.035413 324.564205 
L 643.465278 323.338014 
L 643.895144 323.338014 
L 644.754875 304.038836 
L 645.18474 296.415128 
L 645.614606 293.802808 
L 646.044472 290.177548 
L 646.474337 290.337486 
L 646.904203 284.792971 
L 647.334068 274.556943 
L 647.763934 278.075578 
L 648.193799 277.968953 
L 648.623665 279.515019 
L 649.05353 276.689449 
L 649.483396 278.448766 
L 649.913261 270.398557 
L 650.343127 270.66512 
L 650.772992 269.492242 
L 651.202858 266.293483 
L 651.632724 261.122157 
L 652.062589 261.335407 
L 652.492455 258.829713 
L 652.92232 250.886129 
L 653.352186 253.391823 
L 653.782051 248.70031 
L 654.211917 252.005694 
L 654.641782 247.047618 
L 655.071648 246.781055 
L 655.501513 248.753623 
L 655.931379 259.362839 
L 656.361245 265.81367 
L 656.79111 255.364391 
L 657.220976 250.672878 
L 657.650841 250.406315 
L 658.080707 250.406315 
L 658.510572 251.899069 
L 658.940438 247.047618 
L 659.370303 251.739131 
L 659.800169 247.740683 
L 660.230034 237.451342 
L 660.6599 237.984469 
L 661.089765 235.79865 
L 661.519631 246.034678 
L 661.949497 251.419255 
L 662.379362 248.860248 
L 663.239093 255.897517 
L 663.668959 245.288301 
L 664.098824 252.485508 
L 664.52869 252.485508 
L 664.958555 242.03623 
L 665.388421 241.929604 
L 665.818286 240.276912 
L 666.248152 243.688922 
L 666.678018 243.422358 
L 667.107883 248.273809 
L 667.537749 247.420807 
L 667.967614 238.784158 
L 668.39748 242.03623 
L 668.827345 247.420807 
L 669.257211 243.26242 
L 669.687076 245.448239 
L 670.116942 253.231885 
L 670.546807 251.152692 
L 670.976673 255.897517 
L 671.406538 255.844205 
L 671.836404 260.429092 
L 672.26627 260.58903 
L 672.696135 260.482405 
L 673.126001 258.030023 
L 673.555866 262.18841 
L 673.985732 272.744313 
L 674.415597 272.744313 
L 674.845463 262.40166 
L 675.275328 258.136649 
L 675.705194 263.574538 
L 676.135059 265.760357 
L 676.99479 253.178573 
L 677.424656 258.56315 
L 677.854522 256.537269 
L 678.284387 253.231885 
L 678.714253 251.152692 
L 679.144118 247.847308 
L 679.573984 255.311078 
L 680.433715 240.810039 
L 680.86358 245.768115 
L 681.293446 245.928053 
L 682.153177 261.068844 
L 682.583043 259.736028 
L 683.012908 260.855593 
L 683.442774 253.92495 
L 683.872639 252.645446 
L 684.302505 254.93789 
L 684.73237 254.831265 
L 685.162236 263.841102 
L 685.592101 260.908906 
L 686.021967 260.535718 
L 686.451832 263.467913 
L 686.881698 264.427541 
L 687.311563 263.148037 
L 687.741429 264.747417 
L 688.60116 261.282095 
L 689.031026 254.93789 
L 689.460891 253.498448 
L 689.890757 253.391823 
L 690.320622 255.417704 
L 690.750488 251.899069 
L 691.180353 251.685818 
L 691.610219 257.656835 
L 692.040084 265.333856 
L 692.46995 266.666672 
L 693.329681 272.744313 
L 693.759547 279.035206 
L 694.189412 289.591109 
L 694.619278 291.83024 
L 695.049143 292.736555 
L 695.479009 297.801257 
L 695.908874 300.253638 
L 696.33874 308.14391 
L 696.768605 311.289356 
L 697.628336 325.630458 
L 698.058202 330.055407 
L 698.488068 329.362343 
L 698.917933 331.388223 
L 699.347799 334.320419 
L 699.777664 331.868037 
L 700.20753 332.241226 
L 700.637395 339.704996 
L 701.067261 340.024872 
L 701.926992 341.677564 
L 702.356857 341.837502 
L 702.786723 344.129946 
L 703.216588 344.343196 
L 703.646454 345.569387 
L 704.07632 345.196199 
L 704.506185 345.942576 
L 704.936051 346.155826 
L 705.365916 344.82301 
L 705.795782 345.516074 
L 706.225647 345.249511 
L 706.655513 346.63564 
L 707.085378 346.688953 
L 707.515244 347.062141 
L 707.945109 350.474151 
L 708.374975 342.104065 
L 708.804841 346.475702 
L 709.664572 351.860279 
L 710.094437 350.154275 
L 710.524303 349.781086 
L 710.954168 350.100962 
L 711.384034 346.902203 
L 712.243765 349.194647 
L 712.67363 349.46121 
L 713.103496 349.407898 
L 713.533361 345.089573 
L 713.963227 344.929635 
L 714.822958 341.411001 
L 715.252824 341.837502 
L 715.682689 340.717936 
L 716.112555 340.611311 
L 716.54242 340.344748 
L 716.972286 341.037812 
L 717.402151 339.331808 
L 717.832017 339.278495 
L 718.261882 339.811621 
L 718.691748 334.320419 
L 719.121614 334.427044 
L 719.551479 324.45758 
L 719.981345 319.339566 
L 720.41121 319.499503 
L 720.841076 318.806439 
L 721.270941 319.126315 
L 721.700807 320.139255 
L 722.130672 319.23294 
L 722.560538 321.525384 
L 722.990403 322.751575 
L 723.420269 329.682219 
L 723.850134 329.628906 
L 724.28 325.790396 
L 724.28 325.790396 
" style="fill:none;stroke:#1f77b4;stroke-linecap:square;stroke-width:1.5;"/>
   </g>
   <g id="line2d_19">
    <path clip-path="url(#p1ca9fad576)" d="M 53.689756 307.824034 
L 54.119622 310.383041 
L 54.549487 311.342669 
L 54.979353 307.824034 
L 55.839084 308.357161 
L 56.698815 312.355609 
L 57.12868 312.302296 
L 57.558546 310.276416 
L 57.988412 313.901676 
L 58.418277 308.517099 
L 58.848143 310.169791 
L 59.278008 310.169791 
L 59.707874 300.89339 
L 60.137739 299.933763 
L 60.567605 289.324546 
L 60.99747 295.24225 
L 61.427336 297.961195 
L 61.857201 297.374756 
L 62.287067 294.069372 
L 62.716932 293.64287 
L 63.146798 283.033654 
L 63.576664 282.500528 
L 64.006529 280.208084 
L 64.436395 279.888208 
L 64.86626 282.127339 
L 65.296126 282.127339 
L 65.725991 283.56678 
L 66.155857 284.259845 
L 66.585722 279.888208 
L 67.015588 279.461707 
L 67.875319 260.908906 
L 68.305184 258.883026 
L 68.73505 253.551761 
L 69.164916 251.152692 
L 69.594781 250.246377 
L 70.024647 250.193064 
L 70.454512 247.154244 
L 70.884378 246.141303 
L 71.314243 236.918216 
L 71.744109 234.519147 
L 72.173974 236.971528 
L 72.60384 236.331777 
L 73.033705 236.331777 
L 73.893437 253.391823 
L 74.323302 252.272258 
L 74.753168 243.688922 
L 75.183033 243.528984 
L 75.612899 248.913561 
L 76.042764 249.393375 
L 76.902495 268.85249 
L 77.332361 270.984996 
L 77.762226 281.594213 
L 78.621957 270.771746 
L 79.051823 270.185306 
L 79.481689 265.81367 
L 79.911554 265.920295 
L 80.34142 276.049697 
L 80.771285 276.476199 
L 81.201151 274.823507 
L 81.631016 267.519674 
L 82.060882 267.732925 
L 82.490747 267.732925 
L 82.920613 267.253111 
L 83.350478 257.76346 
L 83.780344 261.708596 
L 84.21021 256.643894 
L 84.640075 262.40166 
L 85.069941 266.080233 
L 85.499806 266.400109 
L 86.359537 271.038309 
L 87.649134 247.367494 
L 88.078999 248.433747 
L 88.508865 253.071947 
L 88.93873 255.311078 
L 89.368596 256.590582 
L 89.798462 255.097828 
L 90.228327 244.488611 
L 90.658193 243.955485 
L 91.517924 229.614383 
L 91.947789 229.614383 
L 92.377655 220.28467 
L 93.237386 220.28467 
L 93.667251 218.631978 
L 94.097117 217.725663 
L 94.956848 217.672351 
L 95.386714 212.980838 
L 95.816579 217.938914 
L 96.246445 219.698231 
L 96.67631 229.241195 
L 97.106176 228.921319 
L 97.536041 229.401133 
L 97.965907 228.281567 
L 98.395772 229.027944 
L 98.825638 226.042436 
L 99.255503 216.179597 
L 99.685369 214.84678 
L 100.115235 205.517067 
L 100.5451 207.809511 
L 100.974966 210.795019 
L 101.834697 219.27173 
L 102.264562 216.499472 
L 102.694428 219.27173 
L 103.124293 225.349372 
L 103.554159 227.375252 
L 103.984024 231.267075 
L 104.843755 251.899069 
L 105.273621 252.218945 
L 105.703487 258.083336 
L 106.133352 257.550209 
L 106.563218 257.336959 
L 106.993083 259.469465 
L 107.422949 269.972056 
L 107.852814 268.266051 
L 108.28268 271.304872 
L 108.712545 272.744313 
L 109.142411 275.676509 
L 109.572276 274.556943 
L 110.002142 263.947727 
L 110.432008 262.668223 
L 110.861873 253.818324 
L 111.291739 251.845756 
L 111.721604 251.899069 
L 112.15147 241.289853 
L 112.581335 241.289853 
L 113.011201 241.129915 
L 113.441066 240.276912 
L 113.870932 229.934259 
L 114.300797 230.733949 
L 114.730663 230.574011 
L 115.160528 234.145958 
L 115.590394 236.59834 
L 116.02026 236.59834 
L 116.450125 237.238092 
L 116.879991 238.091094 
L 117.309856 247.634057 
L 117.739722 254.084888 
L 118.169587 247.68737 
L 118.599453 238.570908 
L 119.029318 238.677533 
L 119.459184 237.238092 
L 119.889049 237.398029 
L 120.318915 228.974631 
L 120.74878 218.365415 
L 121.178646 223.90993 
L 121.608512 224.443057 
L 122.038377 223.643367 
L 122.468243 219.058479 
L 122.898108 218.152164 
L 123.327974 218.951854 
L 123.757839 219.218417 
L 124.187705 217.245849 
L 124.61757 214.473592 
L 125.047436 216.552785 
L 125.477301 219.964794 
L 126.337033 234.892335 
L 127.196764 255.097828 
L 127.626629 255.524329 
L 128.056495 265.653732 
L 128.48636 268.585927 
L 128.916226 268.319364 
L 129.775957 289.537797 
L 130.205822 287.565229 
L 130.635688 288.204981 
L 131.065553 298.547634 
L 131.495419 298.06782 
L 131.925285 298.227758 
L 132.35515 298.760884 
L 132.785016 301.106641 
L 133.644747 319.979317 
L 134.074612 319.606129 
L 134.504478 320.405818 
L 134.934343 320.352506 
L 135.364209 326.536773 
L 135.794074 335.066796 
L 136.22394 335.013483 
L 136.653806 345.516074 
L 137.083671 345.142886 
L 137.943402 365.98813 
L 138.373268 367.161009 
L 138.803133 367.161009 
L 139.232999 367.58751 
L 139.662864 372.012459 
L 140.09273 373.0254 
L 140.522595 372.758836 
L 140.952461 372.705524 
L 141.382326 374.091652 
L 141.812192 376.917223 
L 142.671923 377.610287 
L 143.101789 377.130473 
L 143.96152 376.650659 
L 144.391385 377.6636 
L 145.251116 378.729853 
L 145.680982 376.917223 
L 146.110847 377.183786 
L 146.970578 377.130473 
L 147.400444 379.369604 
L 147.83031 379.582855 
L 148.260175 379.582855 
L 148.690041 379.902731 
L 149.119906 379.582855 
L 149.549772 379.582855 
L 149.979637 379.422917 
L 150.409503 378.996416 
L 150.839368 379.849418 
L 151.269234 379.369604 
L 151.699099 378.516602 
L 152.128965 379.316292 
L 152.558831 377.983476 
L 152.988696 380.062669 
L 153.848427 378.943103 
L 154.278293 378.463289 
L 154.708158 378.569915 
L 155.138024 378.836478 
L 155.997755 377.930163 
L 156.42762 376.86391 
L 156.857486 376.703972 
L 157.287351 375.157905 
L 157.717217 375.424469 
L 158.576948 375.211218 
L 159.006814 375.104593 
L 159.436679 374.464841 
L 159.866545 374.358216 
L 160.29641 373.505213 
L 160.726276 371.479333 
L 161.156141 371.745896 
L 161.586007 371.585958 
L 162.015872 371.852521 
L 162.445738 370.999519 
L 162.875604 373.078712 
L 163.305469 371.21277 
L 163.735335 370.466393 
L 164.1652 370.466393 
L 164.595066 370.093204 
L 165.024931 369.879953 
L 165.454797 368.867013 
L 165.884662 368.173949 
L 166.314528 367.960698 
L 166.744393 367.001071 
L 167.174259 367.107696 
L 167.604124 367.747448 
L 168.03399 367.907386 
L 168.893721 369.240202 
L 169.753452 368.440512 
L 170.183318 368.173949 
L 171.043049 364.495376 
L 171.472914 365.348379 
L 171.90278 364.921877 
L 172.332645 364.335438 
L 172.762511 364.655314 
L 173.192376 362.682746 
L 173.622242 364.1755 
L 174.052108 364.015562 
L 174.911839 358.790923 
L 175.341704 357.884608 
L 175.77157 356.71173 
L 176.201435 356.338542 
L 176.631301 356.285229 
L 177.061166 356.391854 
L 177.491032 357.72467 
L 177.920897 359.750551 
L 178.780629 358.790923 
L 179.64036 358.097859 
L 180.070225 357.937921 
L 180.500091 358.364422 
L 180.929956 357.084919 
L 181.359822 356.391854 
L 181.789687 356.551792 
L 182.219553 356.178604 
L 182.649418 349.781086 
L 183.079284 350.794026 
L 183.509149 351.113902 
L 183.939015 351.167215 
L 184.368881 350.154275 
L 185.228612 349.727773 
L 185.658477 349.621148 
L 186.088343 349.194647 
L 186.518208 349.621148 
L 186.948074 351.540403 
L 187.377939 350.2609 
L 187.807805 353.033157 
L 188.23767 354.739162 
L 188.667536 351.487091 
L 189.097402 351.433778 
L 189.527267 350.527463 
L 189.957133 348.075081 
L 190.386998 349.994337 
L 190.816864 349.727773 
L 191.246729 349.301272 
L 191.676595 350.687401 
L 192.10646 353.299721 
L 192.536326 354.09941 
L 192.966191 355.538852 
L 193.396057 355.005725 
L 193.825922 355.645477 
L 194.255788 355.645477 
L 194.685654 355.059038 
L 195.115519 355.059038 
L 196.405116 356.551792 
L 196.834981 356.498479 
L 197.264847 356.285229 
L 197.694712 356.658417 
L 198.124578 356.178604 
L 198.554443 354.739162 
L 198.984309 354.792475 
L 199.414174 354.419286 
L 199.84404 361.669806 
L 200.273906 360.33699 
L 200.703771 359.910489 
L 201.133637 360.33699 
L 201.563502 360.123739 
L 201.993368 360.33699 
L 202.423233 359.270737 
L 202.853099 359.643926 
L 203.282964 360.55024 
L 203.71283 360.230365 
L 204.142695 360.230365 
L 204.572561 361.13668 
L 205.002427 360.870116 
L 205.432292 358.097859 
L 205.862158 353.08647 
L 206.292023 353.353033 
L 206.721889 352.819907 
L 207.151754 354.845787 
L 207.58162 354.952413 
L 208.441351 351.806967 
L 208.871216 353.512971 
L 209.301082 353.299721 
L 209.730947 353.246408 
L 210.160813 353.672909 
L 210.590679 354.739162 
L 211.45041 354.525912 
L 211.880275 354.792475 
L 212.740006 354.152723 
L 213.169872 354.152723 
L 213.599737 343.543507 
L 214.029603 344.60976 
L 214.459468 344.556447 
L 214.889334 345.6227 
L 215.749065 350.100962 
L 216.178931 350.154275 
L 216.608796 350.900652 
L 217.038662 350.794026 
L 217.468527 341.517626 
L 217.898393 342.104065 
L 218.328258 342.477254 
L 218.758124 343.863382 
L 219.187989 343.970008 
L 219.617855 345.516074 
L 220.04772 345.729325 
L 220.477586 345.516074 
L 220.907452 345.676012 
L 221.337317 345.676012 
L 222.197048 346.582327 
L 222.626914 349.887711 
L 223.056779 358.151171 
L 223.486645 358.311109 
L 223.91651 360.230365 
L 224.346376 360.816804 
L 224.776241 361.13668 
L 225.635972 365.348379 
L 226.065838 366.361319 
L 226.495704 355.965353 
L 226.925569 356.231916 
L 229.504762 356.551792 
L 229.934628 356.871668 
L 230.364493 356.765043 
L 230.794359 367.161009 
L 231.224225 367.267634 
L 231.65409 367.694135 
L 232.513821 367.694135 
L 232.943687 367.907386 
L 233.373552 367.374259 
L 233.803418 367.427572 
L 234.233283 367.694135 
L 238.531939 367.640822 
L 239.39167 346.63564 
L 239.821535 346.688953 
L 240.251401 336.079736 
L 240.681266 336.079736 
L 241.111132 325.577145 
L 241.540997 325.310582 
L 242.400729 325.257269 
L 243.26046 325.363894 
L 243.690325 335.973111 
L 244.120191 335.973111 
L 245.409787 334.74692 
L 245.839653 334.693607 
L 246.269518 334.906858 
L 246.699384 335.333359 
L 247.12925 335.173421 
L 247.559115 335.173421 
L 247.988981 324.777455 
L 248.848712 324.724143 
L 249.278577 314.114926 
L 249.708443 313.848363 
L 250.138308 312.995361 
L 250.568174 313.688425 
L 250.998039 313.79505 
L 251.427905 312.675485 
L 251.85777 321.472071 
L 252.287636 310.96948 
L 252.717502 310.75623 
L 253.577233 310.75623 
L 254.436964 310.75623 
L 254.866829 311.022793 
L 255.72656 310.702917 
L 256.586291 331.708099 
L 257.016157 331.601474 
L 257.446023 342.21069 
L 257.875888 342.21069 
L 258.305754 352.606656 
L 258.735619 352.87322 
L 260.025216 352.766594 
L 260.455081 352.446718 
L 261.314812 352.28678 
L 261.744678 352.340093 
L 262.174543 352.766594 
L 262.604409 352.87322 
L 263.46414 352.87322 
L 264.323871 352.979845 
L 264.753737 353.08647 
L 265.183602 363.535749 
L 265.613468 363.375811 
L 266.043333 363.375811 
L 266.473199 373.985027 
L 266.903064 373.078712 
L 267.33293 373.611839 
L 267.762795 363.002622 
L 268.192661 363.055935 
L 268.622527 364.1755 
L 269.052392 365.934818 
L 269.482258 376.544034 
L 269.912123 376.757285 
L 270.771854 376.810597 
L 271.20172 376.597347 
L 271.631585 366.094756 
L 272.061451 365.98813 
L 272.491316 355.485539 
L 272.921182 355.752102 
L 273.351048 355.645477 
L 273.780913 355.112351 
L 274.210779 354.845787 
L 275.07051 354.792475 
L 275.500375 344.396509 
L 276.789972 344.343196 
L 277.219837 344.396509 
L 277.649703 344.716385 
L 278.079568 344.716385 
L 278.509434 334.160481 
L 278.9393 334.427044 
L 279.369165 334.373732 
L 279.799031 334.74692 
L 280.228896 334.853545 
L 281.088627 334.853545 
L 281.518493 324.297642 
L 283.667821 324.191016 
L 284.097686 325.363894 
L 284.527552 325.68377 
L 284.957417 335.813173 
L 285.387283 335.813173 
L 285.817148 325.203957 
L 287.106745 324.617517 
L 287.966476 323.87114 
L 288.396341 324.191016 
L 288.826207 334.74692 
L 289.256073 334.640295 
L 289.685938 345.196199 
L 290.115804 334.640295 
L 290.545669 334.693607 
L 290.975535 335.386672 
L 291.835266 335.493297 
L 292.265131 335.013483 
L 292.694997 345.462762 
L 293.124862 345.516074 
L 293.554728 344.716385 
L 293.984593 334.160481 
L 294.844325 334.160481 
L 295.27419 323.65789 
L 296.133921 323.65789 
L 296.563787 323.391327 
L 297.423518 302.226206 
L 297.853383 302.226206 
L 298.283249 299.187386 
L 298.713114 309.583351 
L 300.002711 278.182203 
L 301.292308 278.182203 
L 301.722173 277.755702 
L 302.152039 276.689449 
L 302.581904 276.689449 
L 303.01177 287.298666 
L 303.441635 276.956012 
L 303.871501 277.275888 
L 304.301366 266.719984 
L 304.731232 267.199798 
L 305.161098 256.910458 
L 306.020829 256.910458 
L 306.450694 257.070396 
L 306.88056 256.537269 
L 307.310425 267.146486 
L 309.889619 204.610753 
L 310.319484 204.664065 
L 310.74935 203.917688 
L 311.179215 203.917688 
L 311.609081 193.361784 
L 312.038946 193.308472 
L 312.468812 203.917688 
L 312.898677 203.917688 
L 313.758408 183.072444 
L 314.188274 183.072444 
L 314.618139 193.521722 
L 315.048005 193.521722 
L 315.477871 185.951327 
L 315.907736 175.555361 
L 317.197333 204.55744 
L 317.627198 204.664065 
L 318.486929 183.445632 
L 318.916795 183.872133 
L 319.34666 174.808984 
L 319.776526 174.808984 
L 320.206391 164.199767 
L 321.066123 164.146455 
L 321.495988 174.435795 
L 321.925854 163.826579 
L 322.785585 163.879891 
L 323.21545 153.537238 
L 323.645316 153.430613 
L 324.075181 151.138169 
L 324.505047 150.924919 
L 327.08424 210.741707 
L 327.514106 210.741707 
L 327.943971 208.929077 
L 328.803702 229.34782 
L 329.233568 229.454445 
L 329.663433 228.494818 
L 330.95303 258.403212 
L 331.382896 269.012428 
L 331.812761 269.172366 
L 332.242627 268.585927 
L 332.672492 276.529511 
L 333.102358 287.138728 
L 333.532223 286.552289 
L 333.962089 289.164608 
L 334.391954 287.725167 
L 334.82182 284.473095 
L 335.681551 305.53159 
L 336.111417 305.478278 
L 336.541282 315.554368 
L 336.971148 315.287804 
L 337.830879 334.853545 
L 338.69061 334.74692 
L 339.120475 343.117005 
L 339.550341 353.672909 
L 339.980206 352.819907 
L 340.410072 362.629434 
L 340.839937 362.789372 
L 341.269803 365.561629 
L 341.699669 365.508317 
L 342.5594 365.721567 
L 342.989265 366.308006 
L 343.419131 364.815252 
L 343.848996 364.815252 
L 344.278862 367.161009 
L 344.708727 364.708627 
L 345.138593 368.067324 
L 345.568458 364.388751 
L 345.998324 365.028503 
L 346.428189 364.708627 
L 346.858055 365.401691 
L 347.287921 363.269185 
L 347.717786 363.16256 
L 348.147652 363.642374 
L 348.577517 362.576121 
L 349.007383 362.416183 
L 349.867114 363.535749 
L 350.296979 363.16256 
L 350.726845 362.256245 
L 351.15671 362.202933 
L 351.586576 363.748999 
L 352.016442 365.934818 
L 352.446307 365.828192 
L 353.306038 365.934818 
L 353.735904 365.614942 
L 354.165769 362.789372 
L 354.595635 364.068875 
L 355.0255 363.642374 
L 355.455366 363.482436 
L 355.885231 363.748999 
L 356.315097 365.98813 
L 356.744962 365.081815 
L 357.174828 365.721567 
L 357.604694 365.401691 
L 358.034559 363.855625 
L 358.464425 362.736059 
L 359.324156 363.16256 
L 360.183887 363.002622 
L 360.613752 364.388751 
L 361.043618 363.322498 
L 361.473483 363.215873 
L 361.903349 365.401691 
L 362.333215 365.401691 
L 362.76308 368.867013 
L 363.192946 369.026951 
L 363.622811 368.867013 
L 364.052677 368.867013 
L 364.482542 371.959147 
L 364.912408 372.065772 
L 365.342273 371.959147 
L 365.772139 372.918774 
L 366.202004 372.758836 
L 366.63187 368.707075 
L 367.061735 370.199829 
L 367.491601 370.519705 
L 367.921467 371.799209 
L 368.351332 371.852521 
L 368.781198 370.839581 
L 369.211063 371.692583 
L 369.640929 369.986579 
L 370.070794 369.826641 
L 370.50066 369.826641 
L 370.930525 369.026951 
L 371.360391 372.012459 
L 371.790256 372.012459 
L 372.220122 372.545586 
L 372.649987 372.758836 
L 373.509719 370.466393 
L 373.939584 370.892894 
L 374.36945 366.574569 
L 374.799315 364.122188 
L 375.229181 365.614942 
L 375.659046 366.148068 
L 376.088912 366.148068 
L 376.518777 365.98813 
L 376.948643 366.041443 
L 377.378508 366.308006 
L 377.808374 366.414631 
L 378.23824 366.201381 
L 378.668105 365.668254 
L 379.097971 363.215873 
L 379.527836 362.736059 
L 380.387567 362.789372 
L 380.817433 363.055935 
L 381.247298 363.16256 
L 381.677164 362.576121 
L 382.96676 362.416183 
L 383.396626 362.202933 
L 383.826492 365.028503 
L 384.256357 359.164112 
L 384.686223 358.097859 
L 385.116088 357.937921 
L 385.975819 355.538852 
L 386.405685 354.206036 
L 386.83555 349.194647 
L 387.265416 347.861831 
L 387.695281 342.423941 
L 388.125147 340.344748 
L 388.555013 329.842157 
L 388.984878 327.976214 
L 389.414744 327.762964 
L 389.844609 326.909961 
L 390.274475 327.229837 
L 390.70434 327.922901 
L 391.134206 328.402715 
L 391.993937 335.226734 
L 392.423802 335.226734 
L 392.853668 334.693607 
L 393.713399 334.74692 
L 394.143265 328.29609 
L 394.57313 328.349403 
L 395.002996 327.922901 
L 395.432861 329.09578 
L 395.862727 329.362343 
L 396.292592 331.228285 
L 396.722458 330.268658 
L 397.152323 330.321971 
L 397.582189 330.10872 
L 398.012054 330.10872 
L 398.44192 319.659441 
L 398.871785 319.926005 
L 399.301651 316.087494 
L 400.161382 316.087494 
L 400.591248 313.155299 
L 401.021113 313.101986 
L 401.450979 319.552816 
L 401.880844 320.245881 
L 402.31071 320.405818 
L 403.170441 316.727246 
L 403.600306 318.166687 
L 404.030172 324.084391 
L 404.460038 323.817828 
L 404.889903 329.042467 
L 405.319769 332.507789 
L 405.749634 342.903755 
L 406.1795 343.330256 
L 406.609365 341.464313 
L 407.898962 343.223631 
L 408.328827 343.117005 
L 408.758693 341.464313 
L 409.188558 341.144438 
L 409.618424 339.758309 
L 410.04829 333.574042 
L 410.478155 332.987603 
L 410.908021 332.667727 
L 411.337886 338.798681 
L 411.767752 338.692056 
L 412.197617 336.826113 
L 412.627483 336.772801 
L 413.057348 337.092676 
L 413.487214 337.892366 
L 413.917079 336.55955 
L 414.346945 336.292987 
L 414.776811 336.186362 
L 415.206676 332.987603 
L 415.636542 343.490194 
L 416.066407 344.076633 
L 416.496273 347.915144 
L 416.926138 347.43533 
L 417.356004 346.049201 
L 417.785869 338.905306 
L 418.215735 339.918247 
L 418.6456 339.758309 
L 419.075466 340.078185 
L 419.505331 340.18481 
L 419.935197 343.276943 
L 420.365063 344.716385 
L 420.794928 344.663072 
L 421.224794 343.596819 
L 421.654659 343.330256 
L 422.084525 343.436881 
L 422.51439 342.743817 
L 422.944256 336.292987 
L 423.374121 332.987603 
L 423.803987 334.427044 
L 424.233852 333.307479 
L 424.663718 332.987603 
L 425.523449 332.72104 
L 425.953315 334.74692 
L 426.38318 335.173421 
L 426.813046 336.666175 
L 427.242911 344.076633 
L 427.672777 343.170318 
L 428.102642 343.490194 
L 428.532508 343.383569 
L 428.962373 342.79713 
L 429.392239 343.863382 
L 429.822104 344.02332 
L 430.25197 343.596819 
L 430.681836 343.330256 
L 431.111701 346.102514 
L 431.541567 346.102514 
L 431.971432 343.81007 
L 432.401298 347.222079 
L 432.831163 347.328704 
L 433.261029 347.168766 
L 433.690894 347.275392 
L 434.12076 347.808518 
L 434.550625 348.874771 
L 434.980491 359.004174 
L 435.410356 358.577673 
L 435.840222 358.577673 
L 436.270088 358.151171 
L 437.129819 358.417735 
L 437.559684 360.656866 
L 437.98955 360.496928 
L 438.849281 364.015562 
L 439.279146 364.122188 
L 439.709012 363.855625 
L 440.138877 369.933266 
L 440.568743 374.144965 
L 440.998609 374.411528 
L 441.428474 375.264531 
L 441.85834 375.691032 
L 442.718071 376.010908 
L 443.147936 375.957595 
L 443.577802 376.224158 
L 444.007667 376.224158 
L 444.437533 375.85097 
L 444.867398 377.290411 
L 445.297264 376.86391 
L 446.156995 376.917223 
L 446.586861 378.143413 
L 447.016726 377.87685 
L 447.446592 377.983476 
L 448.306323 377.930163 
L 448.736188 378.250039 
L 449.166054 380.809046 
L 449.595919 380.222607 
L 450.025785 380.222607 
L 450.45565 380.48917 
L 450.885516 379.956043 
L 451.315381 376.170846 
L 451.745247 376.490721 
L 452.175113 375.637719 
L 452.604978 376.384096 
L 453.034844 376.597347 
L 453.894575 375.424469 
L 455.184171 375.477781 
L 455.614037 375.797657 
L 456.043902 375.85097 
L 456.473768 375.637719 
L 457.333499 376.490721 
L 457.763365 376.06422 
L 458.623096 375.531094 
L 459.052961 375.264531 
L 459.912692 372.385648 
L 460.342558 371.479333 
L 460.772423 371.319395 
L 461.202289 371.319395 
L 461.632154 371.106144 
L 462.06202 371.266082 
L 462.491886 371.106144 
L 462.921751 371.42602 
L 463.351617 372.065772 
L 463.781482 371.959147 
L 464.211348 371.159457 
L 464.641213 369.240202 
L 465.500944 369.293514 
L 465.93081 368.493825 
L 466.360675 368.547137 
L 466.790541 367.427572 
L 467.650272 363.589061 
L 468.080138 359.750551 
L 468.510003 363.002622 
L 468.939869 362.629434 
L 469.369734 354.152723 
L 469.7996 349.354585 
L 470.229465 349.354585 
L 470.659331 348.021769 
L 471.089196 347.115454 
L 471.519062 346.902203 
L 471.948927 345.83595 
L 472.378793 342.79713 
L 472.808659 342.264003 
L 473.238524 340.824562 
L 473.66839 338.105617 
L 474.528121 334.640295 
L 474.957986 331.494849 
L 475.387852 323.124763 
L 475.817717 320.885632 
L 476.247583 320.512444 
L 476.677448 319.979317 
L 477.537179 322.591637 
L 477.967045 312.142358 
L 478.396911 311.076106 
L 478.826776 311.662545 
L 479.256642 310.649604 
L 479.686507 311.342669 
L 480.116373 311.449294 
L 480.546238 307.877347 
L 480.976104 307.13097 
L 481.405969 307.930659 
L 481.835835 307.717409 
L 482.2657 305.691528 
L 482.695566 305.691528 
L 483.125432 306.011404 
L 483.555297 302.812645 
L 483.985163 302.759333 
L 484.415028 304.785213 
L 484.844894 302.919271 
L 485.274759 299.88045 
L 485.704625 294.975687 
L 486.13449 295.4555 
L 486.564356 305.211715 
L 486.994221 304.785213 
L 487.424087 301.213266 
L 487.853952 301.373204 
L 488.283818 302.759333 
L 488.713684 301.90633 
L 489.143549 300.573514 
L 489.573415 303.985524 
L 490.00328 304.145462 
L 490.433146 305.798154 
L 490.863011 308.730349 
L 491.292877 310.009853 
L 491.722742 303.345772 
L 492.152608 305.744841 
L 492.582473 311.022793 
L 493.012339 314.061614 
L 493.442205 307.824034 
L 493.87207 305.53159 
L 494.301936 304.678588 
L 494.731801 304.3054 
L 495.161667 312.995361 
L 495.591532 310.596292 
L 496.451263 307.34422 
L 496.881129 304.838526 
L 497.310994 304.891839 
L 497.74086 301.746393 
L 498.170725 292.62993 
L 498.600591 289.431171 
L 499.030457 291.936866 
L 499.460322 293.322995 
L 500.320053 293.42962 
L 500.749919 296.628379 
L 501.179784 291.403739 
L 501.60965 290.550737 
L 502.039515 294.016059 
L 502.469381 301.426517 
L 502.899246 305.851466 
L 503.329112 305.211715 
L 503.758977 305.265027 
L 504.188843 309.263476 
L 504.618709 309.316788 
L 505.048574 307.877347 
L 505.47844 307.557471 
L 505.908305 307.077657 
L 506.338171 308.783662 
L 506.768036 307.024344 
L 507.197902 307.13097 
L 507.627767 305.638216 
L 508.057633 305.584903 
L 508.487498 305.904779 
L 508.917364 311.076106 
L 509.34723 312.942048 
L 509.777095 316.620621 
L 510.206961 316.460683 
L 510.636826 321.418759 
L 511.066692 324.884081 
L 511.496557 325.630458 
L 511.926423 325.150644 
L 512.356288 326.750023 
L 512.786154 330.055407 
L 513.216019 331.601474 
L 514.07575 336.239674 
L 514.505616 335.919798 
L 514.935482 341.677564 
L 515.365347 351.327153 
L 515.795213 354.685849 
L 516.225078 354.046098 
L 516.654944 355.005725 
L 517.084809 355.005725 
L 517.514675 355.272289 
L 517.94454 350.900652 
L 518.374406 356.445167 
L 518.804271 355.325601 
L 519.234137 353.406346 
L 519.664003 352.393406 
L 520.093868 353.459659 
L 520.523734 350.740714 
L 520.953599 350.580776 
L 521.383465 351.700341 
L 522.243196 358.417735 
L 522.673061 358.097859 
L 523.102927 359.430675 
L 523.532792 358.311109 
L 523.962658 360.017114 
L 524.392523 358.471047 
L 524.822389 359.803863 
L 525.252255 356.871668 
L 525.68212 357.671358 
L 526.111986 360.230365 
L 526.541851 359.483988 
L 526.971717 359.590613 
L 527.831448 357.031606 
L 528.261313 357.884608 
L 528.691179 357.937921 
L 529.121044 358.311109 
L 529.55091 357.831296 
L 529.980775 356.018666 
L 530.410641 356.178604 
L 530.840507 356.551792 
L 531.270372 355.965353 
L 531.700238 356.125291 
L 532.130103 357.138231 
L 532.559969 356.871668 
L 532.989834 355.752102 
L 533.4197 356.338542 
L 533.849565 356.338542 
L 534.279431 354.952413 
L 534.709296 354.472599 
L 535.139162 350.154275 
L 535.569028 351.27384 
L 535.998893 353.033157 
L 536.428759 353.08647 
L 536.858624 352.766594 
L 537.28849 352.926532 
L 537.718355 354.206036 
L 538.148221 354.152723 
L 539.007952 348.288332 
L 539.437817 348.075081 
L 539.867683 348.341645 
L 540.297548 348.394957 
L 540.727414 350.314213 
L 541.15728 349.621148 
L 541.587145 350.420838 
L 542.017011 350.314213 
L 542.446876 352.659969 
L 542.876742 352.500031 
L 543.306607 353.193095 
L 543.736473 353.353033 
L 544.166338 352.926532 
L 544.596204 354.206036 
L 545.026069 357.51142 
L 545.455935 354.046098 
L 545.885801 354.152723 
L 546.315666 351.966905 
L 546.745532 352.766594 
L 547.175397 354.472599 
L 547.605263 354.525912 
L 548.035128 354.312661 
L 548.464994 353.459659 
L 548.894859 353.406346 
L 549.324725 352.606656 
L 549.75459 350.900652 
L 550.184456 351.753654 
L 550.614321 349.194647 
L 551.044187 349.141334 
L 551.474053 349.887711 
L 551.903918 349.46121 
L 552.333784 358.151171 
L 552.763649 347.861831 
L 553.193515 347.701893 
L 553.62338 349.781086 
L 557.062305 275.729822 
L 557.922036 275.943072 
L 559.211632 246.141303 
L 559.641498 246.781055 
L 560.501229 225.989123 
L 560.931094 226.575562 
L 561.790826 226.788813 
L 562.220691 216.179597 
L 562.650557 209.142327 
L 563.510288 190.642839 
L 563.940153 190.642839 
L 564.799884 169.69097 
L 565.22975 169.90422 
L 565.659615 160.734445 
L 566.089481 160.894383 
L 567.379078 132.638681 
L 567.808943 124.641784 
L 569.09854 94.573452 
L 569.958271 94.573452 
L 570.818002 73.728208 
L 572.537464 73.728208 
L 572.96733 84.070861 
L 574.256926 84.070861 
L 574.686792 73.461645 
L 575.546523 73.355019 
L 575.976388 73.355019 
L 576.406254 74.794461 
L 577.695851 74.794461 
L 578.985447 43.34 
L 579.415313 43.34 
L 580.704909 67.170753 
L 581.134775 56.561536 
L 581.56464 65.731311 
L 581.994506 65.731311 
L 582.424371 65.411435 
L 582.854237 75.220962 
L 583.284103 64.665058 
L 584.143834 64.665058 
L 584.573699 75.274275 
L 585.003565 75.274275 
L 585.43343 83.111234 
L 587.582758 83.111234 
L 588.012624 93.72045 
L 588.442489 97.718898 
L 589.30222 97.718898 
L 589.732086 106.40886 
L 590.591817 106.40886 
L 591.451548 126.720978 
L 591.881413 133.971497 
L 592.311279 134.078123 
L 592.741144 144.687339 
L 593.17101 150.498417 
L 593.600876 149.058976 
L 594.030741 138.44976 
L 594.460607 138.44976 
L 595.320338 159.668192 
L 595.750203 165.159395 
L 596.609934 185.791389 
L 597.0398 177.634554 
L 597.469665 180.300186 
L 597.899531 181.739628 
L 598.329396 181.739628 
L 598.759262 182.166129 
L 599.189128 192.615407 
L 599.618993 191.229279 
L 600.048859 191.86903 
L 600.478724 202.211683 
L 600.90859 202.211683 
L 601.338455 212.8209 
L 601.768321 202.211683 
L 602.198186 210.368518 
L 602.628052 212.287773 
L 603.487783 232.599891 
L 603.917649 232.066765 
L 604.347514 242.569356 
L 604.77738 249.073499 
L 605.207245 249.020186 
L 605.637111 255.577642 
L 606.496842 275.996385 
L 606.926707 277.91564 
L 607.356573 277.968953 
L 607.786438 288.418231 
L 608.216304 287.885105 
L 608.646169 288.79142 
L 609.076035 290.657362 
L 609.505901 289.00467 
L 609.935766 285.805912 
L 610.365632 285.752599 
L 611.655228 314.861303 
L 612.085094 314.701365 
L 612.514959 313.261924 
L 613.37469 314.434802 
L 613.804556 312.355609 
L 614.234422 314.648053 
L 614.664287 310.96948 
L 615.094153 311.662545 
L 615.524018 322.165136 
L 615.953884 320.192568 
L 616.383749 320.352506 
L 616.813615 321.258821 
L 617.24348 321.312133 
L 617.673346 319.179628 
L 618.103211 328.989154 
L 618.533077 328.562653 
L 618.962942 338.692056 
L 619.392808 338.212242 
L 619.822674 338.745369 
L 620.252539 339.598371 
L 620.682405 339.651683 
L 621.11227 338.532118 
L 621.542136 338.105617 
L 621.972001 341.99744 
L 622.401867 339.598371 
L 622.831732 335.54661 
L 623.261598 335.973111 
L 623.691463 335.973111 
L 624.121329 329.842157 
L 624.551194 328.562653 
L 624.98106 328.722591 
L 625.840791 327.336462 
L 626.270657 328.562653 
L 626.700522 330.215345 
L 627.130388 332.561102 
L 627.560253 334.053856 
L 627.990119 333.467417 
L 628.419984 331.174973 
L 629.279715 330.855097 
L 629.709581 331.761412 
L 630.139447 331.974663 
L 630.569312 327.976214 
L 630.999178 329.415656 
L 631.429043 337.57249 
L 631.858909 340.824562 
L 632.288774 337.625803 
L 632.71864 337.625803 
L 633.148505 339.38512 
L 633.578371 339.38512 
L 634.008236 340.078185 
L 634.438102 335.120109 
L 634.867967 337.252614 
L 635.297833 332.987603 
L 635.727699 332.347851 
L 636.157564 323.551265 
L 636.58743 324.777455 
L 637.017295 324.45758 
L 637.447161 324.45758 
L 637.877026 324.084391 
L 638.306892 324.404267 
L 638.736757 314.328177 
L 639.166623 313.79505 
L 639.596488 316.247432 
L 640.026354 317.793499 
L 640.45622 318.006749 
L 640.886085 318.060062 
L 641.315951 323.764515 
L 641.745816 324.937393 
L 642.175682 316.140807 
L 642.605547 317.313685 
L 643.465278 297.641319 
L 643.895144 297.26813 
L 644.325009 297.694631 
L 644.754875 298.494321 
L 645.18474 299.027448 
L 645.614606 302.279519 
L 646.044472 291.83024 
L 646.474337 292.150116 
L 646.904203 291.510365 
L 647.334068 288.311606 
L 647.763934 292.310054 
L 648.193799 291.670303 
L 648.623665 291.670303 
L 649.05353 287.19204 
L 649.483396 290.017611 
L 649.913261 289.324546 
L 650.343127 290.444112 
L 650.772992 290.284174 
L 651.202858 289.910985 
L 651.632724 285.326098 
L 652.062589 285.326098 
L 652.492455 287.405291 
L 652.92232 285.752599 
L 653.352186 294.975687 
L 653.782051 291.723615 
L 654.211917 291.883553 
L 654.641782 288.79142 
L 655.071648 289.057983 
L 655.501513 290.017611 
L 655.931379 300.520202 
L 656.361245 298.974135 
L 656.79111 295.508813 
L 657.220976 295.935314 
L 657.650841 295.775376 
L 658.080707 295.775376 
L 658.510572 295.935314 
L 658.940438 295.24225 
L 659.370303 298.387696 
L 659.800169 294.602498 
L 660.230034 300.840078 
L 660.6599 308.890287 
L 661.089765 305.958092 
L 661.519631 297.961195 
L 661.949497 294.655811 
L 662.379362 293.749496 
L 662.809228 295.4555 
L 663.239093 305.798154 
L 663.668959 299.400636 
L 664.098824 300.360264 
L 664.52869 299.347324 
L 664.958555 288.79142 
L 665.388421 290.017611 
L 665.818286 284.099907 
L 666.248152 289.644422 
L 666.678018 279.834895 
L 667.107883 274.983445 
L 667.537749 273.064189 
L 667.967614 262.614911 
L 668.39748 262.774849 
L 668.827345 272.424438 
L 669.257211 262.081784 
L 669.687076 263.894414 
L 670.546807 256.643894 
L 670.976673 260.429092 
L 671.406538 260.748968 
L 671.836404 261.335407 
L 672.26627 261.335407 
L 672.696135 261.655283 
L 673.126001 254.618014 
L 673.555866 256.803832 
L 673.985732 259.949279 
L 674.415597 251.472568 
L 674.845463 247.474119 
L 675.275328 239.157347 
L 675.705194 238.144407 
L 676.135059 235.851963 
L 676.564925 236.065213 
L 676.99479 236.438402 
L 677.854522 229.34782 
L 678.284387 227.588503 
L 678.714253 231.320388 
L 679.144118 226.575562 
L 679.573984 216.925974 
L 680.003849 216.925974 
L 680.433715 216.766036 
L 680.86358 214.473592 
L 681.293446 214.686843 
L 681.723311 222.683739 
L 682.153177 233.18633 
L 682.583043 230.574011 
L 683.012908 236.171839 
L 683.442774 231.373701 
L 683.872639 241.449791 
L 684.302505 246.301241 
L 684.73237 247.740683 
L 685.162236 258.189961 
L 685.592101 253.765012 
L 686.021967 252.272258 
L 686.451832 259.096276 
L 686.881698 255.364391 
L 687.311563 260.642343 
L 687.741429 262.721536 
L 688.171295 263.361288 
L 688.60116 263.467913 
L 689.031026 262.348348 
L 689.460891 261.708596 
L 689.890757 260.748968 
L 690.320622 265.973607 
L 690.750488 265.973607 
L 691.180353 265.653732 
L 691.610219 275.09007 
L 692.040084 277.862327 
L 692.46995 282.873716 
L 692.899816 280.52796 
L 693.329681 283.833344 
L 693.759547 283.300217 
L 694.189412 286.339038 
L 694.619278 292.363367 
L 695.049143 295.935314 
L 695.908874 305.31834 
L 696.768605 326.323522 
L 697.198471 326.110272 
L 697.628336 326.536773 
L 698.058202 335.120109 
L 698.488068 334.427044 
L 698.917933 333.200853 
L 699.347799 333.200853 
L 699.777664 325.257269 
L 700.20753 325.68377 
L 700.637395 329.149092 
L 701.067261 318.646501 
L 701.497126 318.273313 
L 701.926992 318.273313 
L 702.356857 317.20706 
L 702.786723 315.554368 
L 703.216588 316.780559 
L 703.646454 320.565756 
L 704.07632 325.363894 
L 704.936051 327.336462 
L 705.365916 321.951885 
L 705.795782 321.472071 
L 706.225647 318.753126 
L 706.655513 319.392878 
L 707.085378 318.806439 
L 707.515244 320.192568 
L 708.374975 320.245881 
L 708.804841 319.766067 
L 709.234706 321.098883 
L 710.094437 326.856649 
L 710.524303 323.551265 
L 710.954168 329.522281 
L 711.384034 326.270209 
L 711.813899 324.884081 
L 712.243765 325.417207 
L 712.67363 325.203957 
L 713.103496 325.150644 
L 713.533361 318.433251 
L 713.963227 317.793499 
L 714.393093 316.140807 
L 714.822958 315.874244 
L 715.252824 315.234492 
L 715.682689 309.636664 
L 716.112555 310.223103 
L 716.54242 310.169791 
L 716.972286 319.819379 
L 717.402151 317.42031 
L 717.832017 318.646501 
L 718.261882 327.922901 
L 718.691748 326.590085 
L 719.121614 327.123212 
L 719.981345 323.444639 
L 720.41121 323.711202 
L 720.841076 323.124763 
L 721.700807 323.284701 
L 722.130672 322.751575 
L 722.560538 325.950334 
L 722.990403 323.65789 
L 723.420269 329.948782 
L 723.850134 319.446191 
L 724.28 319.339566 
L 724.28 319.339566 
" style="fill:none;stroke:#ff7f0e;stroke-linecap:square;stroke-width:1.5;"/>
   </g>
   <g id="patch_3">
    <path d="M 36.925 404.12 
L 36.925 26.16 
" style="fill:none;stroke:#000000;stroke-linecap:square;stroke-linejoin:miter;stroke-width:0.8;"/>
   </g>
   <g id="patch_4">
    <path d="M 724.28 404.12 
L 724.28 26.16 
" style="fill:none;stroke:#000000;stroke-linecap:square;stroke-linejoin:miter;stroke-width:0.8;"/>
   </g>
   <g id="patch_5">
    <path d="M 36.925 404.12 
L 724.28 404.12 
" style="fill:none;stroke:#000000;stroke-linecap:square;stroke-linejoin:miter;stroke-width:0.8;"/>
   </g>
   <g id="patch_6">
    <path d="M 36.925 26.16 
L 724.28 26.16 
" style="fill:none;stroke:#000000;stroke-linecap:square;stroke-linejoin:miter;stroke-width:0.8;"/>
   </g>
   <g id="text_18">
    <!-- gridworld_5x5_100_2_8_42__1: episode duration, steps, MA=40 -->
    <defs>
     <path d="M 45.40625 27.984375 
Q 45.40625 37.75 41.375 43.109375 
Q 37.359375 48.484375 30.078125 48.484375 
Q 22.859375 48.484375 18.828125 43.109375 
Q 14.796875 37.75 14.796875 27.984375 
Q 14.796875 18.265625 18.828125 12.890625 
Q 22.859375 7.515625 30.078125 7.515625 
Q 37.359375 7.515625 41.375 12.890625 
Q 45.40625 18.265625 45.40625 27.984375 
z
M 54.390625 6.78125 
Q 54.390625 -7.171875 48.1875 -13.984375 
Q 42 -20.796875 29.203125 -20.796875 
Q 24.46875 -20.796875 20.265625 -20.09375 
Q 16.0625 -19.390625 12.109375 -17.921875 
L 12.109375 -9.1875 
Q 16.0625 -11.328125 19.921875 -12.34375 
Q 23.78125 -13.375 27.78125 -13.375 
Q 36.625 -13.375 41.015625 -8.765625 
Q 45.40625 -4.15625 45.40625 5.171875 
L 45.40625 9.625 
Q 42.625 4.78125 38.28125 2.390625 
Q 33.9375 0 27.875 0 
Q 17.828125 0 11.671875 7.65625 
Q 5.515625 15.328125 5.515625 27.984375 
Q 5.515625 40.671875 11.671875 48.328125 
Q 17.828125 56 27.875 56 
Q 33.9375 56 38.28125 53.609375 
Q 42.625 51.21875 45.40625 46.390625 
L 45.40625 54.6875 
L 54.390625 54.6875 
z
" id="DejaVuSans-103"/>
     <path d="M 41.109375 46.296875 
Q 39.59375 47.171875 37.8125 47.578125 
Q 36.03125 48 33.890625 48 
Q 26.265625 48 22.1875 43.046875 
Q 18.109375 38.09375 18.109375 28.8125 
L 18.109375 0 
L 9.078125 0 
L 9.078125 54.6875 
L 18.109375 54.6875 
L 18.109375 46.1875 
Q 20.953125 51.171875 25.484375 53.578125 
Q 30.03125 56 36.53125 56 
Q 37.453125 56 38.578125 55.875 
Q 39.703125 55.765625 41.0625 55.515625 
z
" id="DejaVuSans-114"/>
     <path d="M 9.421875 54.6875 
L 18.40625 54.6875 
L 18.40625 0 
L 9.421875 0 
z
M 9.421875 75.984375 
L 18.40625 75.984375 
L 18.40625 64.59375 
L 9.421875 64.59375 
z
" id="DejaVuSans-105"/>
     <path d="M 45.40625 46.390625 
L 45.40625 75.984375 
L 54.390625 75.984375 
L 54.390625 0 
L 45.40625 0 
L 45.40625 8.203125 
Q 42.578125 3.328125 38.25 0.953125 
Q 33.9375 -1.421875 27.875 -1.421875 
Q 17.96875 -1.421875 11.734375 6.484375 
Q 5.515625 14.40625 5.515625 27.296875 
Q 5.515625 40.1875 11.734375 48.09375 
Q 17.96875 56 27.875 56 
Q 33.9375 56 38.25 53.625 
Q 42.578125 51.265625 45.40625 46.390625 
z
M 14.796875 27.296875 
Q 14.796875 17.390625 18.875 11.75 
Q 22.953125 6.109375 30.078125 6.109375 
Q 37.203125 6.109375 41.296875 11.75 
Q 45.40625 17.390625 45.40625 27.296875 
Q 45.40625 37.203125 41.296875 42.84375 
Q 37.203125 48.484375 30.078125 48.484375 
Q 22.953125 48.484375 18.875 42.84375 
Q 14.796875 37.203125 14.796875 27.296875 
z
" id="DejaVuSans-100"/>
     <path d="M 4.203125 54.6875 
L 13.1875 54.6875 
L 24.421875 12.015625 
L 35.59375 54.6875 
L 46.1875 54.6875 
L 57.421875 12.015625 
L 68.609375 54.6875 
L 77.59375 54.6875 
L 63.28125 0 
L 52.6875 0 
L 40.921875 44.828125 
L 29.109375 0 
L 18.5 0 
z
" id="DejaVuSans-119"/>
     <path d="M 30.609375 48.390625 
Q 23.390625 48.390625 19.1875 42.75 
Q 14.984375 37.109375 14.984375 27.296875 
Q 14.984375 17.484375 19.15625 11.84375 
Q 23.34375 6.203125 30.609375 6.203125 
Q 37.796875 6.203125 41.984375 11.859375 
Q 46.1875 17.53125 46.1875 27.296875 
Q 46.1875 37.015625 41.984375 42.703125 
Q 37.796875 48.390625 30.609375 48.390625 
z
M 30.609375 56 
Q 42.328125 56 49.015625 48.375 
Q 55.71875 40.765625 55.71875 27.296875 
Q 55.71875 13.875 49.015625 6.21875 
Q 42.328125 -1.421875 30.609375 -1.421875 
Q 18.84375 -1.421875 12.171875 6.21875 
Q 5.515625 13.875 5.515625 27.296875 
Q 5.515625 40.765625 12.171875 48.375 
Q 18.84375 56 30.609375 56 
z
" id="DejaVuSans-111"/>
     <path d="M 9.421875 75.984375 
L 18.40625 75.984375 
L 18.40625 0 
L 9.421875 0 
z
" id="DejaVuSans-108"/>
     <path d="M 50.984375 -16.609375 
L 50.984375 -23.578125 
L -0.984375 -23.578125 
L -0.984375 -16.609375 
z
" id="DejaVuSans-95"/>
     <path d="M 10.796875 72.90625 
L 49.515625 72.90625 
L 49.515625 64.59375 
L 19.828125 64.59375 
L 19.828125 46.734375 
Q 21.96875 47.46875 24.109375 47.828125 
Q 26.265625 48.1875 28.421875 48.1875 
Q 40.625 48.1875 47.75 41.5 
Q 54.890625 34.8125 54.890625 23.390625 
Q 54.890625 11.625 47.5625 5.09375 
Q 40.234375 -1.421875 26.90625 -1.421875 
Q 22.3125 -1.421875 17.546875 -0.640625 
Q 12.796875 0.140625 7.71875 1.703125 
L 7.71875 11.625 
Q 12.109375 9.234375 16.796875 8.0625 
Q 21.484375 6.890625 26.703125 6.890625 
Q 35.15625 6.890625 40.078125 11.328125 
Q 45.015625 15.765625 45.015625 23.390625 
Q 45.015625 31 40.078125 35.4375 
Q 35.15625 39.890625 26.703125 39.890625 
Q 22.75 39.890625 18.8125 39.015625 
Q 14.890625 38.140625 10.796875 36.28125 
z
" id="DejaVuSans-53"/>
     <path d="M 54.890625 54.6875 
L 35.109375 28.078125 
L 55.90625 0 
L 45.3125 0 
L 29.390625 21.484375 
L 13.484375 0 
L 2.875 0 
L 24.125 28.609375 
L 4.6875 54.6875 
L 15.28125 54.6875 
L 29.78125 35.203125 
L 44.28125 54.6875 
z
" id="DejaVuSans-120"/>
     <path d="M 11.71875 12.40625 
L 22.015625 12.40625 
L 22.015625 0 
L 11.71875 0 
z
M 11.71875 51.703125 
L 22.015625 51.703125 
L 22.015625 39.3125 
L 11.71875 39.3125 
z
" id="DejaVuSans-58"/>
     <path id="DejaVuSans-32"/>
     <path d="M 56.203125 29.59375 
L 56.203125 25.203125 
L 14.890625 25.203125 
Q 15.484375 15.921875 20.484375 11.0625 
Q 25.484375 6.203125 34.421875 6.203125 
Q 39.59375 6.203125 44.453125 7.46875 
Q 49.3125 8.734375 54.109375 11.28125 
L 54.109375 2.78125 
Q 49.265625 0.734375 44.1875 -0.34375 
Q 39.109375 -1.421875 33.890625 -1.421875 
Q 20.796875 -1.421875 13.15625 6.1875 
Q 5.515625 13.8125 5.515625 26.8125 
Q 5.515625 40.234375 12.765625 48.109375 
Q 20.015625 56 32.328125 56 
Q 43.359375 56 49.78125 48.890625 
Q 56.203125 41.796875 56.203125 29.59375 
z
M 47.21875 32.234375 
Q 47.125 39.59375 43.09375 43.984375 
Q 39.0625 48.390625 32.421875 48.390625 
Q 24.90625 48.390625 20.390625 44.140625 
Q 15.875 39.890625 15.1875 32.171875 
z
" id="DejaVuSans-101"/>
     <path d="M 18.109375 8.203125 
L 18.109375 -20.796875 
L 9.078125 -20.796875 
L 9.078125 54.6875 
L 18.109375 54.6875 
L 18.109375 46.390625 
Q 20.953125 51.265625 25.265625 53.625 
Q 29.59375 56 35.59375 56 
Q 45.5625 56 51.78125 48.09375 
Q 58.015625 40.1875 58.015625 27.296875 
Q 58.015625 14.40625 51.78125 6.484375 
Q 45.5625 -1.421875 35.59375 -1.421875 
Q 29.59375 -1.421875 25.265625 0.953125 
Q 20.953125 3.328125 18.109375 8.203125 
z
M 48.6875 27.296875 
Q 48.6875 37.203125 44.609375 42.84375 
Q 40.53125 48.484375 33.40625 48.484375 
Q 26.265625 48.484375 22.1875 42.84375 
Q 18.109375 37.203125 18.109375 27.296875 
Q 18.109375 17.390625 22.1875 11.75 
Q 26.265625 6.109375 33.40625 6.109375 
Q 40.53125 6.109375 44.609375 11.75 
Q 48.6875 17.390625 48.6875 27.296875 
z
" id="DejaVuSans-112"/>
     <path d="M 44.28125 53.078125 
L 44.28125 44.578125 
Q 40.484375 46.53125 36.375 47.5 
Q 32.28125 48.484375 27.875 48.484375 
Q 21.1875 48.484375 17.84375 46.4375 
Q 14.5 44.390625 14.5 40.28125 
Q 14.5 37.15625 16.890625 35.375 
Q 19.28125 33.59375 26.515625 31.984375 
L 29.59375 31.296875 
Q 39.15625 29.25 43.1875 25.515625 
Q 47.21875 21.78125 47.21875 15.09375 
Q 47.21875 7.46875 41.1875 3.015625 
Q 35.15625 -1.421875 24.609375 -1.421875 
Q 20.21875 -1.421875 15.453125 -0.5625 
Q 10.6875 0.296875 5.421875 2 
L 5.421875 11.28125 
Q 10.40625 8.6875 15.234375 7.390625 
Q 20.0625 6.109375 24.8125 6.109375 
Q 31.15625 6.109375 34.5625 8.28125 
Q 37.984375 10.453125 37.984375 14.40625 
Q 37.984375 18.0625 35.515625 20.015625 
Q 33.0625 21.96875 24.703125 23.78125 
L 21.578125 24.515625 
Q 13.234375 26.265625 9.515625 29.90625 
Q 5.8125 33.546875 5.8125 39.890625 
Q 5.8125 47.609375 11.28125 51.796875 
Q 16.75 56 26.8125 56 
Q 31.78125 56 36.171875 55.265625 
Q 40.578125 54.546875 44.28125 53.078125 
z
" id="DejaVuSans-115"/>
     <path d="M 8.5 21.578125 
L 8.5 54.6875 
L 17.484375 54.6875 
L 17.484375 21.921875 
Q 17.484375 14.15625 20.5 10.265625 
Q 23.53125 6.390625 29.59375 6.390625 
Q 36.859375 6.390625 41.078125 11.03125 
Q 45.3125 15.671875 45.3125 23.6875 
L 45.3125 54.6875 
L 54.296875 54.6875 
L 54.296875 0 
L 45.3125 0 
L 45.3125 8.40625 
Q 42.046875 3.421875 37.71875 1 
Q 33.40625 -1.421875 27.6875 -1.421875 
Q 18.265625 -1.421875 13.375 4.4375 
Q 8.5 10.296875 8.5 21.578125 
z
M 31.109375 56 
z
" id="DejaVuSans-117"/>
     <path d="M 34.28125 27.484375 
Q 23.390625 27.484375 19.1875 25 
Q 14.984375 22.515625 14.984375 16.5 
Q 14.984375 11.71875 18.140625 8.90625 
Q 21.296875 6.109375 26.703125 6.109375 
Q 34.1875 6.109375 38.703125 11.40625 
Q 43.21875 16.703125 43.21875 25.484375 
L 43.21875 27.484375 
z
M 52.203125 31.203125 
L 52.203125 0 
L 43.21875 0 
L 43.21875 8.296875 
Q 40.140625 3.328125 35.546875 0.953125 
Q 30.953125 -1.421875 24.3125 -1.421875 
Q 15.921875 -1.421875 10.953125 3.296875 
Q 6 8.015625 6 15.921875 
Q 6 25.140625 12.171875 29.828125 
Q 18.359375 34.515625 30.609375 34.515625 
L 43.21875 34.515625 
L 43.21875 35.40625 
Q 43.21875 41.609375 39.140625 45 
Q 35.0625 48.390625 27.6875 48.390625 
Q 23 48.390625 18.546875 47.265625 
Q 14.109375 46.140625 10.015625 43.890625 
L 10.015625 52.203125 
Q 14.9375 54.109375 19.578125 55.046875 
Q 24.21875 56 28.609375 56 
Q 40.484375 56 46.34375 49.84375 
Q 52.203125 43.703125 52.203125 31.203125 
z
" id="DejaVuSans-97"/>
     <path d="M 18.3125 70.21875 
L 18.3125 54.6875 
L 36.8125 54.6875 
L 36.8125 47.703125 
L 18.3125 47.703125 
L 18.3125 18.015625 
Q 18.3125 11.328125 20.140625 9.421875 
Q 21.96875 7.515625 27.59375 7.515625 
L 36.8125 7.515625 
L 36.8125 0 
L 27.59375 0 
Q 17.1875 0 13.234375 3.875 
Q 9.28125 7.765625 9.28125 18.015625 
L 9.28125 47.703125 
L 2.6875 47.703125 
L 2.6875 54.6875 
L 9.28125 54.6875 
L 9.28125 70.21875 
z
" id="DejaVuSans-116"/>
     <path d="M 54.890625 33.015625 
L 54.890625 0 
L 45.90625 0 
L 45.90625 32.71875 
Q 45.90625 40.484375 42.875 44.328125 
Q 39.84375 48.1875 33.796875 48.1875 
Q 26.515625 48.1875 22.3125 43.546875 
Q 18.109375 38.921875 18.109375 30.90625 
L 18.109375 0 
L 9.078125 0 
L 9.078125 54.6875 
L 18.109375 54.6875 
L 18.109375 46.1875 
Q 21.34375 51.125 25.703125 53.5625 
Q 30.078125 56 35.796875 56 
Q 45.21875 56 50.046875 50.171875 
Q 54.890625 44.34375 54.890625 33.015625 
z
" id="DejaVuSans-110"/>
     <path d="M 11.71875 12.40625 
L 22.015625 12.40625 
L 22.015625 4 
L 14.015625 -11.625 
L 7.71875 -11.625 
L 11.71875 4 
z
" id="DejaVuSans-44"/>
     <path d="M 9.8125 72.90625 
L 24.515625 72.90625 
L 43.109375 23.296875 
L 61.8125 72.90625 
L 76.515625 72.90625 
L 76.515625 0 
L 66.890625 0 
L 66.890625 64.015625 
L 48.09375 14.015625 
L 38.1875 14.015625 
L 19.390625 64.015625 
L 19.390625 0 
L 9.8125 0 
z
" id="DejaVuSans-77"/>
     <path d="M 34.1875 63.1875 
L 20.796875 26.90625 
L 47.609375 26.90625 
z
M 28.609375 72.90625 
L 39.796875 72.90625 
L 67.578125 0 
L 57.328125 0 
L 50.6875 18.703125 
L 17.828125 18.703125 
L 11.1875 0 
L 0.78125 0 
z
" id="DejaVuSans-65"/>
     <path d="M 10.59375 45.40625 
L 73.1875 45.40625 
L 73.1875 37.203125 
L 10.59375 37.203125 
z
M 10.59375 25.484375 
L 73.1875 25.484375 
L 73.1875 17.1875 
L 10.59375 17.1875 
z
" id="DejaVuSans-61"/>
    </defs>
    <g transform="translate(189.379687 20.16)scale(0.12 -0.12)">
     <use xlink:href="#DejaVuSans-103"/>
     <use x="63.476562" xlink:href="#DejaVuSans-114"/>
     <use x="104.589844" xlink:href="#DejaVuSans-105"/>
     <use x="132.373047" xlink:href="#DejaVuSans-100"/>
     <use x="195.849609" xlink:href="#DejaVuSans-119"/>
     <use x="277.636719" xlink:href="#DejaVuSans-111"/>
     <use x="338.818359" xlink:href="#DejaVuSans-114"/>
     <use x="379.931641" xlink:href="#DejaVuSans-108"/>
     <use x="407.714844" xlink:href="#DejaVuSans-100"/>
     <use x="471.191406" xlink:href="#DejaVuSans-95"/>
     <use x="521.191406" xlink:href="#DejaVuSans-53"/>
     <use x="584.814453" xlink:href="#DejaVuSans-120"/>
     <use x="643.994141" xlink:href="#DejaVuSans-53"/>
     <use x="707.617188" xlink:href="#DejaVuSans-95"/>
     <use x="757.617188" xlink:href="#DejaVuSans-49"/>
     <use x="821.240234" xlink:href="#DejaVuSans-48"/>
     <use x="884.863281" xlink:href="#DejaVuSans-48"/>
     <use x="948.486328" xlink:href="#DejaVuSans-95"/>
     <use x="998.486328" xlink:href="#DejaVuSans-50"/>
     <use x="1062.109375" xlink:href="#DejaVuSans-95"/>
     <use x="1112.109375" xlink:href="#DejaVuSans-56"/>
     <use x="1175.732422" xlink:href="#DejaVuSans-95"/>
     <use x="1225.732422" xlink:href="#DejaVuSans-52"/>
     <use x="1289.355469" xlink:href="#DejaVuSans-50"/>
     <use x="1352.978516" xlink:href="#DejaVuSans-95"/>
     <use x="1402.978516" xlink:href="#DejaVuSans-95"/>
     <use x="1452.978516" xlink:href="#DejaVuSans-49"/>
     <use x="1516.601562" xlink:href="#DejaVuSans-58"/>
     <use x="1550.292969" xlink:href="#DejaVuSans-32"/>
     <use x="1582.080078" xlink:href="#DejaVuSans-101"/>
     <use x="1643.603516" xlink:href="#DejaVuSans-112"/>
     <use x="1707.080078" xlink:href="#DejaVuSans-105"/>
     <use x="1734.863281" xlink:href="#DejaVuSans-115"/>
     <use x="1786.962891" xlink:href="#DejaVuSans-111"/>
     <use x="1848.144531" xlink:href="#DejaVuSans-100"/>
     <use x="1911.621094" xlink:href="#DejaVuSans-101"/>
     <use x="1973.144531" xlink:href="#DejaVuSans-32"/>
     <use x="2004.931641" xlink:href="#DejaVuSans-100"/>
     <use x="2068.408203" xlink:href="#DejaVuSans-117"/>
     <use x="2131.787109" xlink:href="#DejaVuSans-114"/>
     <use x="2172.900391" xlink:href="#DejaVuSans-97"/>
     <use x="2234.179688" xlink:href="#DejaVuSans-116"/>
     <use x="2273.388672" xlink:href="#DejaVuSans-105"/>
     <use x="2301.171875" xlink:href="#DejaVuSans-111"/>
     <use x="2362.353516" xlink:href="#DejaVuSans-110"/>
     <use x="2425.732422" xlink:href="#DejaVuSans-44"/>
     <use x="2457.519531" xlink:href="#DejaVuSans-32"/>
     <use x="2489.306641" xlink:href="#DejaVuSans-115"/>
     <use x="2541.40625" xlink:href="#DejaVuSans-116"/>
     <use x="2580.615234" xlink:href="#DejaVuSans-101"/>
     <use x="2642.138672" xlink:href="#DejaVuSans-112"/>
     <use x="2705.615234" xlink:href="#DejaVuSans-115"/>
     <use x="2757.714844" xlink:href="#DejaVuSans-44"/>
     <use x="2789.501953" xlink:href="#DejaVuSans-32"/>
     <use x="2821.289062" xlink:href="#DejaVuSans-77"/>
     <use x="2907.568359" xlink:href="#DejaVuSans-65"/>
     <use x="2975.976562" xlink:href="#DejaVuSans-61"/>
     <use x="3059.765625" xlink:href="#DejaVuSans-52"/>
     <use x="3123.388672" xlink:href="#DejaVuSans-48"/>
    </g>
   </g>
   <g id="legend_1">
    <g id="patch_7">
     <path d="M 773.679125 231.59625 
L 854.751 231.59625 
Q 856.751 231.59625 856.751 229.59625 
L 856.751 200.68375 
Q 856.751 198.68375 854.751 198.68375 
L 773.679125 198.68375 
Q 771.679125 198.68375 771.679125 200.68375 
L 771.679125 229.59625 
Q 771.679125 231.59625 773.679125 231.59625 
z
" style="fill:#ffffff;opacity:0.8;stroke:#cccccc;stroke-linejoin:miter;"/>
    </g>
    <g id="line2d_20">
     <path d="M 775.679125 206.782187 
L 795.679125 206.782187 
" style="fill:none;stroke:#1f77b4;stroke-linecap:square;stroke-width:1.5;"/>
    </g>
    <g id="line2d_21"/>
    <g id="text_19">
     <!-- htm_1_1g -->
     <defs>
      <path d="M 54.890625 33.015625 
L 54.890625 0 
L 45.90625 0 
L 45.90625 32.71875 
Q 45.90625 40.484375 42.875 44.328125 
Q 39.84375 48.1875 33.796875 48.1875 
Q 26.515625 48.1875 22.3125 43.546875 
Q 18.109375 38.921875 18.109375 30.90625 
L 18.109375 0 
L 9.078125 0 
L 9.078125 75.984375 
L 18.109375 75.984375 
L 18.109375 46.1875 
Q 21.34375 51.125 25.703125 53.5625 
Q 30.078125 56 35.796875 56 
Q 45.21875 56 50.046875 50.171875 
Q 54.890625 44.34375 54.890625 33.015625 
z
" id="DejaVuSans-104"/>
      <path d="M 52 44.1875 
Q 55.375 50.25 60.0625 53.125 
Q 64.75 56 71.09375 56 
Q 79.640625 56 84.28125 50.015625 
Q 88.921875 44.046875 88.921875 33.015625 
L 88.921875 0 
L 79.890625 0 
L 79.890625 32.71875 
Q 79.890625 40.578125 77.09375 44.375 
Q 74.3125 48.1875 68.609375 48.1875 
Q 61.625 48.1875 57.5625 43.546875 
Q 53.515625 38.921875 53.515625 30.90625 
L 53.515625 0 
L 44.484375 0 
L 44.484375 32.71875 
Q 44.484375 40.625 41.703125 44.40625 
Q 38.921875 48.1875 33.109375 48.1875 
Q 26.21875 48.1875 22.15625 43.53125 
Q 18.109375 38.875 18.109375 30.90625 
L 18.109375 0 
L 9.078125 0 
L 9.078125 54.6875 
L 18.109375 54.6875 
L 18.109375 46.1875 
Q 21.1875 51.21875 25.484375 53.609375 
Q 29.78125 56 35.6875 56 
Q 41.65625 56 45.828125 52.96875 
Q 50 49.953125 52 44.1875 
z
" id="DejaVuSans-109"/>
     </defs>
     <g transform="translate(803.679125 210.282187)scale(0.1 -0.1)">
      <use xlink:href="#DejaVuSans-104"/>
      <use x="63.378906" xlink:href="#DejaVuSans-116"/>
      <use x="102.587891" xlink:href="#DejaVuSans-109"/>
      <use x="200" xlink:href="#DejaVuSans-95"/>
      <use x="250" xlink:href="#DejaVuSans-49"/>
      <use x="313.623047" xlink:href="#DejaVuSans-95"/>
      <use x="363.623047" xlink:href="#DejaVuSans-49"/>
      <use x="427.246094" xlink:href="#DejaVuSans-103"/>
     </g>
    </g>
    <g id="line2d_22">
     <path d="M 775.679125 221.738437 
L 795.679125 221.738437 
" style="fill:none;stroke:#ff7f0e;stroke-linecap:square;stroke-width:1.5;"/>
    </g>
    <g id="line2d_23"/>
    <g id="text_20">
     <!-- htm_1_4g -->
     <g transform="translate(803.679125 225.238437)scale(0.1 -0.1)">
      <use xlink:href="#DejaVuSans-104"/>
      <use x="63.378906" xlink:href="#DejaVuSans-116"/>
      <use x="102.587891" xlink:href="#DejaVuSans-109"/>
      <use x="200" xlink:href="#DejaVuSans-95"/>
      <use x="250" xlink:href="#DejaVuSans-49"/>
      <use x="313.623047" xlink:href="#DejaVuSans-95"/>
      <use x="363.623047" xlink:href="#DejaVuSans-52"/>
      <use x="427.246094" xlink:href="#DejaVuSans-103"/>
     </g>
    </g>
   </g>
  </g>
 </g>
 <defs>
  <clipPath id="p1ca9fad576">
   <rect height="377.96" width="687.355" x="36.925" y="26.16"/>
  </clipPath>
 </defs>
</svg>
