<?xml version="1.0" encoding="utf-8" standalone="no"?>
<!DOCTYPE svg PUBLIC "-//W3C//DTD SVG 1.1//EN"
  "http://www.w3.org/Graphics/SVG/1.1/DTD/svg11.dtd">
<!-- Created with matplotlib (https://matplotlib.org/) -->
<svg height="432pt" version="1.1" viewBox="0 0 864 432" width="864pt" xmlns="http://www.w3.org/2000/svg" xmlns:xlink="http://www.w3.org/1999/xlink">
 <defs>
  <style type="text/css">
*{stroke-linecap:butt;stroke-linejoin:round;}
  </style>
 </defs>
 <g id="figure_1">
  <g id="patch_1">
   <path d="M 0 432 
L 864 432 
L 864 0 
L 0 0 
z
" style="fill:#ffffff;"/>
  </g>
  <g id="axes_1">
   <g id="patch_2">
    <path d="M 48.445 404.12 
L 724.28 404.12 
L 724.28 26.52 
L 48.445 26.52 
z
" style="fill:#ffffff;"/>
   </g>
   <g id="matplotlib.axis_1">
    <g id="xtick_1">
     <g id="line2d_1">
      <defs>
       <path d="M 0 0 
L 0 3.5 
" id="m3903070eab" style="stroke:#000000;stroke-width:0.8;"/>
      </defs>
      <g>
       <use style="stroke:#000000;stroke-width:0.8;" x="48.445" xlink:href="#m3903070eab" y="404.12"/>
      </g>
     </g>
     <g id="text_1">
      <!-- 0 -->
      <defs>
       <path d="M 31.78125 66.40625 
Q 24.171875 66.40625 20.328125 58.90625 
Q 16.5 51.421875 16.5 36.375 
Q 16.5 21.390625 20.328125 13.890625 
Q 24.171875 6.390625 31.78125 6.390625 
Q 39.453125 6.390625 43.28125 13.890625 
Q 47.125 21.390625 47.125 36.375 
Q 47.125 51.421875 43.28125 58.90625 
Q 39.453125 66.40625 31.78125 66.40625 
z
M 31.78125 74.21875 
Q 44.046875 74.21875 50.515625 64.515625 
Q 56.984375 54.828125 56.984375 36.375 
Q 56.984375 17.96875 50.515625 8.265625 
Q 44.046875 -1.421875 31.78125 -1.421875 
Q 19.53125 -1.421875 13.0625 8.265625 
Q 6.59375 17.96875 6.59375 36.375 
Q 6.59375 54.828125 13.0625 64.515625 
Q 19.53125 74.21875 31.78125 74.21875 
z
" id="DejaVuSans-48"/>
      </defs>
      <g transform="translate(45.26375 418.718437)scale(0.1 -0.1)">
       <use xlink:href="#DejaVuSans-48"/>
      </g>
     </g>
    </g>
    <g id="xtick_2">
     <g id="line2d_2">
      <g>
       <use style="stroke:#000000;stroke-width:0.8;" x="132.977208" xlink:href="#m3903070eab" y="404.12"/>
      </g>
     </g>
     <g id="text_2">
      <!-- 200 -->
      <defs>
       <path d="M 19.1875 8.296875 
L 53.609375 8.296875 
L 53.609375 0 
L 7.328125 0 
L 7.328125 8.296875 
Q 12.9375 14.109375 22.625 23.890625 
Q 32.328125 33.6875 34.8125 36.53125 
Q 39.546875 41.84375 41.421875 45.53125 
Q 43.3125 49.21875 43.3125 52.78125 
Q 43.3125 58.59375 39.234375 62.25 
Q 35.15625 65.921875 28.609375 65.921875 
Q 23.96875 65.921875 18.8125 64.3125 
Q 13.671875 62.703125 7.8125 59.421875 
L 7.8125 69.390625 
Q 13.765625 71.78125 18.9375 73 
Q 24.125 74.21875 28.421875 74.21875 
Q 39.75 74.21875 46.484375 68.546875 
Q 53.21875 62.890625 53.21875 53.421875 
Q 53.21875 48.921875 51.53125 44.890625 
Q 49.859375 40.875 45.40625 35.40625 
Q 44.1875 33.984375 37.640625 27.21875 
Q 31.109375 20.453125 19.1875 8.296875 
z
" id="DejaVuSans-50"/>
      </defs>
      <g transform="translate(123.433458 418.718437)scale(0.1 -0.1)">
       <use xlink:href="#DejaVuSans-50"/>
       <use x="63.623047" xlink:href="#DejaVuSans-48"/>
       <use x="127.246094" xlink:href="#DejaVuSans-48"/>
      </g>
     </g>
    </g>
    <g id="xtick_3">
     <g id="line2d_3">
      <g>
       <use style="stroke:#000000;stroke-width:0.8;" x="217.509415" xlink:href="#m3903070eab" y="404.12"/>
      </g>
     </g>
     <g id="text_3">
      <!-- 400 -->
      <defs>
       <path d="M 37.796875 64.3125 
L 12.890625 25.390625 
L 37.796875 25.390625 
z
M 35.203125 72.90625 
L 47.609375 72.90625 
L 47.609375 25.390625 
L 58.015625 25.390625 
L 58.015625 17.1875 
L 47.609375 17.1875 
L 47.609375 0 
L 37.796875 0 
L 37.796875 17.1875 
L 4.890625 17.1875 
L 4.890625 26.703125 
z
" id="DejaVuSans-52"/>
      </defs>
      <g transform="translate(207.965665 418.718437)scale(0.1 -0.1)">
       <use xlink:href="#DejaVuSans-52"/>
       <use x="63.623047" xlink:href="#DejaVuSans-48"/>
       <use x="127.246094" xlink:href="#DejaVuSans-48"/>
      </g>
     </g>
    </g>
    <g id="xtick_4">
     <g id="line2d_4">
      <g>
       <use style="stroke:#000000;stroke-width:0.8;" x="302.041623" xlink:href="#m3903070eab" y="404.12"/>
      </g>
     </g>
     <g id="text_4">
      <!-- 600 -->
      <defs>
       <path d="M 33.015625 40.375 
Q 26.375 40.375 22.484375 35.828125 
Q 18.609375 31.296875 18.609375 23.390625 
Q 18.609375 15.53125 22.484375 10.953125 
Q 26.375 6.390625 33.015625 6.390625 
Q 39.65625 6.390625 43.53125 10.953125 
Q 47.40625 15.53125 47.40625 23.390625 
Q 47.40625 31.296875 43.53125 35.828125 
Q 39.65625 40.375 33.015625 40.375 
z
M 52.59375 71.296875 
L 52.59375 62.3125 
Q 48.875 64.0625 45.09375 64.984375 
Q 41.3125 65.921875 37.59375 65.921875 
Q 27.828125 65.921875 22.671875 59.328125 
Q 17.53125 52.734375 16.796875 39.40625 
Q 19.671875 43.65625 24.015625 45.921875 
Q 28.375 48.1875 33.59375 48.1875 
Q 44.578125 48.1875 50.953125 41.515625 
Q 57.328125 34.859375 57.328125 23.390625 
Q 57.328125 12.15625 50.6875 5.359375 
Q 44.046875 -1.421875 33.015625 -1.421875 
Q 20.359375 -1.421875 13.671875 8.265625 
Q 6.984375 17.96875 6.984375 36.375 
Q 6.984375 53.65625 15.1875 63.9375 
Q 23.390625 74.21875 37.203125 74.21875 
Q 40.921875 74.21875 44.703125 73.484375 
Q 48.484375 72.75 52.59375 71.296875 
z
" id="DejaVuSans-54"/>
      </defs>
      <g transform="translate(292.497873 418.718437)scale(0.1 -0.1)">
       <use xlink:href="#DejaVuSans-54"/>
       <use x="63.623047" xlink:href="#DejaVuSans-48"/>
       <use x="127.246094" xlink:href="#DejaVuSans-48"/>
      </g>
     </g>
    </g>
    <g id="xtick_5">
     <g id="line2d_5">
      <g>
       <use style="stroke:#000000;stroke-width:0.8;" x="386.573831" xlink:href="#m3903070eab" y="404.12"/>
      </g>
     </g>
     <g id="text_5">
      <!-- 800 -->
      <defs>
       <path d="M 31.78125 34.625 
Q 24.75 34.625 20.71875 30.859375 
Q 16.703125 27.09375 16.703125 20.515625 
Q 16.703125 13.921875 20.71875 10.15625 
Q 24.75 6.390625 31.78125 6.390625 
Q 38.8125 6.390625 42.859375 10.171875 
Q 46.921875 13.96875 46.921875 20.515625 
Q 46.921875 27.09375 42.890625 30.859375 
Q 38.875 34.625 31.78125 34.625 
z
M 21.921875 38.8125 
Q 15.578125 40.375 12.03125 44.71875 
Q 8.5 49.078125 8.5 55.328125 
Q 8.5 64.0625 14.71875 69.140625 
Q 20.953125 74.21875 31.78125 74.21875 
Q 42.671875 74.21875 48.875 69.140625 
Q 55.078125 64.0625 55.078125 55.328125 
Q 55.078125 49.078125 51.53125 44.71875 
Q 48 40.375 41.703125 38.8125 
Q 48.828125 37.15625 52.796875 32.3125 
Q 56.78125 27.484375 56.78125 20.515625 
Q 56.78125 9.90625 50.3125 4.234375 
Q 43.84375 -1.421875 31.78125 -1.421875 
Q 19.734375 -1.421875 13.25 4.234375 
Q 6.78125 9.90625 6.78125 20.515625 
Q 6.78125 27.484375 10.78125 32.3125 
Q 14.796875 37.15625 21.921875 38.8125 
z
M 18.3125 54.390625 
Q 18.3125 48.734375 21.84375 45.5625 
Q 25.390625 42.390625 31.78125 42.390625 
Q 38.140625 42.390625 41.71875 45.5625 
Q 45.3125 48.734375 45.3125 54.390625 
Q 45.3125 60.0625 41.71875 63.234375 
Q 38.140625 66.40625 31.78125 66.40625 
Q 25.390625 66.40625 21.84375 63.234375 
Q 18.3125 60.0625 18.3125 54.390625 
z
" id="DejaVuSans-56"/>
      </defs>
      <g transform="translate(377.030081 418.718437)scale(0.1 -0.1)">
       <use xlink:href="#DejaVuSans-56"/>
       <use x="63.623047" xlink:href="#DejaVuSans-48"/>
       <use x="127.246094" xlink:href="#DejaVuSans-48"/>
      </g>
     </g>
    </g>
    <g id="xtick_6">
     <g id="line2d_6">
      <g>
       <use style="stroke:#000000;stroke-width:0.8;" x="471.106038" xlink:href="#m3903070eab" y="404.12"/>
      </g>
     </g>
     <g id="text_6">
      <!-- 1000 -->
      <defs>
       <path d="M 12.40625 8.296875 
L 28.515625 8.296875 
L 28.515625 63.921875 
L 10.984375 60.40625 
L 10.984375 69.390625 
L 28.421875 72.90625 
L 38.28125 72.90625 
L 38.28125 8.296875 
L 54.390625 8.296875 
L 54.390625 0 
L 12.40625 0 
z
" id="DejaVuSans-49"/>
      </defs>
      <g transform="translate(458.381038 418.718437)scale(0.1 -0.1)">
       <use xlink:href="#DejaVuSans-49"/>
       <use x="63.623047" xlink:href="#DejaVuSans-48"/>
       <use x="127.246094" xlink:href="#DejaVuSans-48"/>
       <use x="190.869141" xlink:href="#DejaVuSans-48"/>
      </g>
     </g>
    </g>
    <g id="xtick_7">
     <g id="line2d_7">
      <g>
       <use style="stroke:#000000;stroke-width:0.8;" x="555.638246" xlink:href="#m3903070eab" y="404.12"/>
      </g>
     </g>
     <g id="text_7">
      <!-- 1200 -->
      <g transform="translate(542.913246 418.718437)scale(0.1 -0.1)">
       <use xlink:href="#DejaVuSans-49"/>
       <use x="63.623047" xlink:href="#DejaVuSans-50"/>
       <use x="127.246094" xlink:href="#DejaVuSans-48"/>
       <use x="190.869141" xlink:href="#DejaVuSans-48"/>
      </g>
     </g>
    </g>
    <g id="xtick_8">
     <g id="line2d_8">
      <g>
       <use style="stroke:#000000;stroke-width:0.8;" x="640.170453" xlink:href="#m3903070eab" y="404.12"/>
      </g>
     </g>
     <g id="text_8">
      <!-- 1400 -->
      <g transform="translate(627.445453 418.718437)scale(0.1 -0.1)">
       <use xlink:href="#DejaVuSans-49"/>
       <use x="63.623047" xlink:href="#DejaVuSans-52"/>
       <use x="127.246094" xlink:href="#DejaVuSans-48"/>
       <use x="190.869141" xlink:href="#DejaVuSans-48"/>
      </g>
     </g>
    </g>
   </g>
   <g id="matplotlib.axis_2">
    <g id="ytick_1">
     <g id="line2d_9">
      <defs>
       <path d="M 0 0 
L -3.5 0 
" id="m70c66b101d" style="stroke:#000000;stroke-width:0.8;"/>
      </defs>
      <g>
       <use style="stroke:#000000;stroke-width:0.8;" x="48.445" xlink:href="#m70c66b101d" y="360.411144"/>
      </g>
     </g>
     <g id="text_9">
      <!-- −0.25 -->
      <defs>
       <path d="M 10.59375 35.5 
L 73.1875 35.5 
L 73.1875 27.203125 
L 10.59375 27.203125 
z
" id="DejaVuSans-8722"/>
       <path d="M 10.6875 12.40625 
L 21 12.40625 
L 21 0 
L 10.6875 0 
z
" id="DejaVuSans-46"/>
       <path d="M 10.796875 72.90625 
L 49.515625 72.90625 
L 49.515625 64.59375 
L 19.828125 64.59375 
L 19.828125 46.734375 
Q 21.96875 47.46875 24.109375 47.828125 
Q 26.265625 48.1875 28.421875 48.1875 
Q 40.625 48.1875 47.75 41.5 
Q 54.890625 34.8125 54.890625 23.390625 
Q 54.890625 11.625 47.5625 5.09375 
Q 40.234375 -1.421875 26.90625 -1.421875 
Q 22.3125 -1.421875 17.546875 -0.640625 
Q 12.796875 0.140625 7.71875 1.703125 
L 7.71875 11.625 
Q 12.109375 9.234375 16.796875 8.0625 
Q 21.484375 6.890625 26.703125 6.890625 
Q 35.15625 6.890625 40.078125 11.328125 
Q 45.015625 15.765625 45.015625 23.390625 
Q 45.015625 31 40.078125 35.4375 
Q 35.15625 39.890625 26.703125 39.890625 
Q 22.75 39.890625 18.8125 39.015625 
Q 14.890625 38.140625 10.796875 36.28125 
z
" id="DejaVuSans-53"/>
      </defs>
      <g transform="translate(10.799688 364.210363)scale(0.1 -0.1)">
       <use xlink:href="#DejaVuSans-8722"/>
       <use x="83.789062" xlink:href="#DejaVuSans-48"/>
       <use x="147.412109" xlink:href="#DejaVuSans-46"/>
       <use x="179.199219" xlink:href="#DejaVuSans-50"/>
       <use x="242.822266" xlink:href="#DejaVuSans-53"/>
      </g>
     </g>
    </g>
    <g id="ytick_2">
     <g id="line2d_10">
      <g>
       <use style="stroke:#000000;stroke-width:0.8;" x="48.445" xlink:href="#m70c66b101d" y="312.303558"/>
      </g>
     </g>
     <g id="text_10">
      <!-- 0.00 -->
      <g transform="translate(19.179375 316.102777)scale(0.1 -0.1)">
       <use xlink:href="#DejaVuSans-48"/>
       <use x="63.623047" xlink:href="#DejaVuSans-46"/>
       <use x="95.410156" xlink:href="#DejaVuSans-48"/>
       <use x="159.033203" xlink:href="#DejaVuSans-48"/>
      </g>
     </g>
    </g>
    <g id="ytick_3">
     <g id="line2d_11">
      <g>
       <use style="stroke:#000000;stroke-width:0.8;" x="48.445" xlink:href="#m70c66b101d" y="264.195972"/>
      </g>
     </g>
     <g id="text_11">
      <!-- 0.25 -->
      <g transform="translate(19.179375 267.995191)scale(0.1 -0.1)">
       <use xlink:href="#DejaVuSans-48"/>
       <use x="63.623047" xlink:href="#DejaVuSans-46"/>
       <use x="95.410156" xlink:href="#DejaVuSans-50"/>
       <use x="159.033203" xlink:href="#DejaVuSans-53"/>
      </g>
     </g>
    </g>
    <g id="ytick_4">
     <g id="line2d_12">
      <g>
       <use style="stroke:#000000;stroke-width:0.8;" x="48.445" xlink:href="#m70c66b101d" y="216.088386"/>
      </g>
     </g>
     <g id="text_12">
      <!-- 0.50 -->
      <g transform="translate(19.179375 219.887605)scale(0.1 -0.1)">
       <use xlink:href="#DejaVuSans-48"/>
       <use x="63.623047" xlink:href="#DejaVuSans-46"/>
       <use x="95.410156" xlink:href="#DejaVuSans-53"/>
       <use x="159.033203" xlink:href="#DejaVuSans-48"/>
      </g>
     </g>
    </g>
    <g id="ytick_5">
     <g id="line2d_13">
      <g>
       <use style="stroke:#000000;stroke-width:0.8;" x="48.445" xlink:href="#m70c66b101d" y="167.9808"/>
      </g>
     </g>
     <g id="text_13">
      <!-- 0.75 -->
      <defs>
       <path d="M 8.203125 72.90625 
L 55.078125 72.90625 
L 55.078125 68.703125 
L 28.609375 0 
L 18.3125 0 
L 43.21875 64.59375 
L 8.203125 64.59375 
z
" id="DejaVuSans-55"/>
      </defs>
      <g transform="translate(19.179375 171.780019)scale(0.1 -0.1)">
       <use xlink:href="#DejaVuSans-48"/>
       <use x="63.623047" xlink:href="#DejaVuSans-46"/>
       <use x="95.410156" xlink:href="#DejaVuSans-55"/>
       <use x="159.033203" xlink:href="#DejaVuSans-53"/>
      </g>
     </g>
    </g>
    <g id="ytick_6">
     <g id="line2d_14">
      <g>
       <use style="stroke:#000000;stroke-width:0.8;" x="48.445" xlink:href="#m70c66b101d" y="119.873214"/>
      </g>
     </g>
     <g id="text_14">
      <!-- 1.00 -->
      <g transform="translate(19.179375 123.672433)scale(0.1 -0.1)">
       <use xlink:href="#DejaVuSans-49"/>
       <use x="63.623047" xlink:href="#DejaVuSans-46"/>
       <use x="95.410156" xlink:href="#DejaVuSans-48"/>
       <use x="159.033203" xlink:href="#DejaVuSans-48"/>
      </g>
     </g>
    </g>
    <g id="ytick_7">
     <g id="line2d_15">
      <g>
       <use style="stroke:#000000;stroke-width:0.8;" x="48.445" xlink:href="#m70c66b101d" y="71.765628"/>
      </g>
     </g>
     <g id="text_15">
      <!-- 1.25 -->
      <g transform="translate(19.179375 75.564846)scale(0.1 -0.1)">
       <use xlink:href="#DejaVuSans-49"/>
       <use x="63.623047" xlink:href="#DejaVuSans-46"/>
       <use x="95.410156" xlink:href="#DejaVuSans-50"/>
       <use x="159.033203" xlink:href="#DejaVuSans-53"/>
      </g>
     </g>
    </g>
   </g>
   <g id="line2d_16">
    <path clip-path="url(#p15be7d77c4)" d="M 64.92878 312.303558 
L 724.28 312.303558 
L 724.28 312.303558 
" style="fill:none;stroke:#1f77b4;stroke-linecap:square;stroke-width:1.5;"/>
   </g>
   <g id="line2d_17">
    <path clip-path="url(#p15be7d77c4)" d="M 64.92878 312.303558 
L 91.556426 312.21841 
L 92.401748 312.139713 
L 92.824409 311.807805 
L 94.092392 311.780854 
L 94.515053 316.746147 
L 94.937714 316.057723 
L 95.360375 317.335957 
L 95.783036 313.542879 
L 96.205697 318.440584 
L 96.628358 311.646495 
L 97.051019 319.51091 
L 97.896341 319.51091 
L 98.319003 317.13297 
L 99.586986 304.60445 
L 100.009647 304.60445 
L 100.432308 312.228277 
L 100.854969 296.743042 
L 101.27763 307.389121 
L 102.122952 309.469239 
L 102.545613 308.88152 
L 102.968274 309.415185 
L 103.813596 309.415185 
L 104.236257 313.650378 
L 104.658918 319.320602 
L 105.081579 321.271197 
L 105.50424 321.271197 
L 105.926901 317.321658 
L 106.349562 336.141456 
L 107.194884 336.141456 
L 107.617545 327.26163 
L 108.040206 327.26163 
L 108.885528 335.605485 
L 109.308189 334.287006 
L 109.730851 326.233909 
L 110.153512 335.406532 
L 110.576173 328.23054 
L 110.998834 327.92811 
L 111.421495 322.962817 
L 111.844156 331.745632 
L 112.266817 330.974262 
L 112.689478 333.242283 
L 113.112139 332.245767 
L 113.5348 334.086606 
L 113.957461 326.22219 
L 114.380122 312.921667 
L 114.802783 319.804641 
L 115.225444 322.182582 
L 115.648105 326.258727 
L 116.493427 344.072406 
L 116.916088 349.357564 
L 117.338749 341.733737 
L 117.76141 358.602941 
L 118.184071 355.027118 
L 118.606732 358.816618 
L 119.029393 359.682003 
L 119.452054 356.024761 
L 119.874715 355.491096 
L 120.297376 355.491096 
L 120.720038 355.089967 
L 121.142699 350.708242 
L 121.56536 339.166476 
L 121.988021 337.215882 
L 122.410682 330.145625 
L 122.833343 334.095165 
L 123.256004 318.60993 
L 123.678665 329.743378 
L 124.101326 322.898381 
L 124.523987 336.644775 
L 124.946648 335.260806 
L 125.369309 330.27244 
L 125.79197 326.886424 
L 126.214631 320.954325 
L 126.637292 329.636997 
L 127.482614 341.035554 
L 127.905275 336.079777 
L 128.327936 338.497313 
L 128.750597 330.402922 
L 129.173258 329.154476 
L 129.595919 315.760924 
L 130.01858 311.859735 
L 130.441241 313.180754 
L 130.863902 301.596709 
L 131.286563 308.432849 
L 131.709225 301.549874 
L 132.131886 297.92366 
L 132.554547 292.959338 
L 132.977208 278.547593 
L 133.399869 280.26347 
L 133.82253 274.978312 
L 134.245191 260.813326 
L 134.667852 252.490397 
L 135.090513 251.544071 
L 135.513174 241.910621 
L 135.935835 240.090536 
L 136.358496 244.335497 
L 136.781157 244.335497 
L 137.203818 246.596571 
L 137.626479 249.887878 
L 138.04914 247.576951 
L 138.471801 248.163333 
L 139.317123 264.81869 
L 139.739784 264.81869 
L 140.162445 248.564462 
L 140.585106 242.384265 
L 141.007767 249.229262 
L 141.430428 243.559037 
L 141.853089 244.943006 
L 142.27575 245.401521 
L 143.121073 263.90278 
L 143.543734 251.084201 
L 143.966395 230.785168 
L 144.389056 231.801725 
L 144.811717 236.776404 
L 145.234378 234.358869 
L 145.657039 234.237071 
L 146.0797 234.336266 
L 146.502361 249.254874 
L 146.925022 248.612487 
L 147.347683 252.244719 
L 148.193005 265.007989 
L 148.615666 265.007989 
L 149.460988 274.563903 
L 149.883649 285.641085 
L 150.30631 278.640049 
L 150.728971 278.640049 
L 151.151632 291.927929 
L 151.574293 298.86689 
L 151.996954 292.742959 
L 152.419615 297.461492 
L 152.842276 297.461492 
L 153.264937 296.388002 
L 153.687598 293.053438 
L 154.11026 290.792364 
L 154.532921 282.617028 
L 154.955582 285.074486 
L 155.378243 279.282464 
L 155.800904 269.697363 
L 156.223565 273.031927 
L 156.646226 273.031927 
L 157.068887 293.694209 
L 157.491548 288.740958 
L 157.914209 288.740958 
L 158.33687 295.05357 
L 158.759531 294.311988 
L 159.182192 294.311988 
L 159.604853 281.178477 
L 160.027514 280.339705 
L 160.450175 294.954827 
L 160.872836 301.023675 
L 161.295497 302.183848 
L 161.718158 302.494327 
L 162.140819 289.466551 
L 162.56348 289.588349 
L 162.986141 286.896172 
L 163.408802 280.227045 
L 163.831463 270.57409 
L 164.254124 270.57409 
L 164.676785 275.859249 
L 165.099447 269.608712 
L 165.522108 274.251483 
L 165.944769 263.755985 
L 166.36743 262.137299 
L 166.790091 251.060118 
L 167.212752 250.318536 
L 167.635413 257.372729 
L 168.058074 250.507217 
L 168.903396 262.461503 
L 169.326057 273.206776 
L 169.748718 264.201988 
L 170.171379 260.209028 
L 170.59404 263.543591 
L 171.016701 262.159622 
L 171.439362 267.444781 
L 171.862023 265.350571 
L 172.284684 276.427752 
L 172.707345 265.857435 
L 173.130006 264.473466 
L 173.552667 264.473466 
L 173.975328 264.141558 
L 174.397989 265.760244 
L 174.82065 261.918817 
L 175.243311 259.237561 
L 175.665972 267.893591 
L 176.088634 268.140351 
L 176.933956 281.98547 
L 177.356617 280.457886 
L 177.779278 277.940665 
L 178.201939 281.902559 
L 178.6246 288.703496 
L 179.047261 287.694582 
L 179.469922 282.409423 
L 180.315244 289.497141 
L 180.737905 299.792483 
L 181.160566 292.55673 
L 181.583227 294.232349 
L 182.005888 299.409396 
L 182.428549 296.53566 
L 182.85121 306.06578 
L 183.273871 306.610977 
L 183.696532 317.688158 
L 184.119193 317.590968 
L 184.541854 310.290014 
L 184.964515 305.946536 
L 185.387176 305.56147 
L 185.809837 289.916104 
L 186.232498 279.170831 
L 186.655159 288.17562 
L 187.077821 294.119175 
L 187.500482 287.868638 
L 187.923143 288.375502 
L 188.768465 276.459096 
L 189.191126 273.124532 
L 189.613787 276.28414 
L 190.036448 268.926589 
L 190.88177 257.946598 
L 191.304431 255.909321 
L 191.727092 246.548017 
L 192.149753 243.720317 
L 192.572414 243.548486 
L 192.995075 247.601668 
L 193.840397 238.660997 
L 194.263058 250.012074 
L 194.685719 254.404064 
L 195.10838 250.02358 
L 195.531041 243.222642 
L 195.953702 257.259333 
L 196.376363 254.801874 
L 196.799024 257.629574 
L 197.221685 261.287129 
L 197.644346 254.770737 
L 198.067008 267.602128 
L 198.489669 262.755037 
L 198.91233 264.689884 
L 199.334991 265.378308 
L 200.180313 277.617252 
L 200.602974 269.087453 
L 201.025635 269.184643 
L 201.448296 268.357913 
L 201.870957 278.728132 
L 202.293618 278.651158 
L 202.716279 288.012462 
L 203.13894 288.012462 
L 203.561601 279.39274 
L 203.984262 274.107581 
L 204.406923 280.358118 
L 204.829584 281.235223 
L 205.252245 287.904351 
L 205.674906 285.242148 
L 206.097567 294.428496 
L 206.520228 297.76306 
L 206.942889 289.732567 
L 207.36555 285.440441 
L 207.788211 290.960317 
L 208.210872 287.217614 
L 208.633533 307.916203 
L 209.056194 310.865701 
L 209.478856 304.948717 
L 209.901517 304.441852 
L 210.746839 290.547441 
L 211.1695 280.528325 
L 211.592161 280.003999 
L 212.014822 279.262417 
L 212.437483 275.186272 
L 212.860144 275.186272 
L 213.282805 287.693458 
L 213.705466 285.324273 
L 214.128127 278.740294 
L 214.550788 278.334302 
L 214.973449 277.335399 
L 215.39611 281.702158 
L 215.818771 280.455735 
L 216.241432 292.512019 
L 216.664093 286.6094 
L 217.086754 266.93482 
L 217.509415 269.437879 
L 218.354737 260.818157 
L 218.777398 276.020324 
L 219.200059 270.812139 
L 219.62272 275.408874 
L 220.045381 278.743438 
L 220.468043 284.670983 
L 220.890704 285.285959 
L 221.736026 285.285959 
L 222.158687 266.466161 
L 222.581348 279.162028 
L 223.004009 276.078182 
L 223.42667 280.154328 
L 224.271992 305.664853 
L 224.694653 297.377039 
L 225.117314 293.795716 
L 225.539975 282.965294 
L 225.962636 267.222738 
L 226.385297 265.397106 
L 226.807958 266.32256 
L 227.230619 274.435419 
L 227.65328 279.720577 
L 228.075941 283.10715 
L 228.498602 283.52574 
L 228.921263 279.117687 
L 229.343924 285.886009 
L 229.766585 285.886009 
L 230.189246 284.914518 
L 230.611907 284.456003 
L 231.034568 299.659705 
L 231.45723 306.582089 
L 231.879891 308.654481 
L 232.302552 308.843163 
L 232.725213 309.228229 
L 233.147874 294.714485 
L 233.570535 294.366568 
L 233.993196 310.510199 
L 234.415857 316.536939 
L 234.838518 302.125194 
L 235.261179 307.410353 
L 235.68384 293.924063 
L 236.106501 298.332116 
L 236.529162 293.735382 
L 236.951823 295.685976 
L 237.374484 298.378153 
L 237.797145 296.379208 
L 238.219806 296.379208 
L 238.642467 301.097741 
L 239.065128 315.509486 
L 239.487789 321.437032 
L 239.91045 318.669094 
L 240.755772 318.669094 
L 241.178433 315.841394 
L 241.601094 313.890799 
L 242.023755 328.594194 
L 242.446417 331.928758 
L 242.869078 327.852613 
L 243.291739 330.310071 
L 243.7144 325.591539 
L 244.137061 328.048997 
L 244.559722 326.098403 
L 245.405044 319.429275 
L 245.827705 319.761183 
L 246.250366 317.069007 
L 246.673027 315.118412 
L 247.518349 281.663072 
L 247.94101 272.301768 
L 248.363671 252.098001 
L 248.786332 248.763437 
L 249.208993 225.225106 
L 249.631654 219.198366 
L 250.476976 219.198366 
L 250.899637 217.814397 
L 251.322298 217.814397 
L 251.744959 236.634195 
L 252.16762 236.634195 
L 252.590281 233.299631 
L 253.012942 226.940983 
L 253.435604 224.483524 
L 253.858265 220.582335 
L 254.280926 220.582335 
L 254.703587 226.374357 
L 255.126248 234.789336 
L 255.548909 230.070803 
L 256.394231 210.373899 
L 256.816892 210.373899 
L 257.239553 190.170132 
L 257.662214 190.911714 
L 258.084875 190.911714 
L 258.507536 194.246278 
L 259.352858 181.776545 
L 259.775519 190.903131 
L 260.19818 168.241905 
L 260.620841 163.833851 
L 261.043502 164.710956 
L 261.466163 169.996115 
L 261.888824 176.925347 
L 262.734146 184.84292 
L 263.156807 195.231677 
L 263.579468 193.106127 
L 264.002129 206.640766 
L 264.42479 225.596088 
L 264.847452 235.796164 
L 265.270113 255.999931 
L 265.692774 259.901121 
L 266.115435 286.267152 
L 266.538096 300.913614 
L 266.960757 309.533337 
L 267.806079 309.533337 
L 268.22874 306.198773 
L 268.651401 306.198773 
L 269.074062 308.149368 
L 269.496723 308.791755 
L 270.342045 313.199808 
L 270.764706 308.481276 
L 271.187367 308.481276 
L 271.610028 313.766434 
L 272.032689 308.68602 
L 272.45535 308.68602 
L 272.878011 332.586233 
L 273.300672 335.920796 
L 273.723333 335.920796 
L 274.145994 356.124564 
L 274.568655 346.968004 
L 274.991316 352.018445 
L 275.413977 333.198646 
L 275.836639 333.198646 
L 276.2593 338.707601 
L 277.104622 379.349854 
L 277.527283 383.757907 
L 277.949944 386.450084 
L 278.795266 377.08878 
L 279.217927 359.146086 
L 279.640588 366.38184 
L 280.063249 335.789315 
L 280.48591 345.150619 
L 280.908571 348.485183 
L 281.331232 341.991011 
L 281.753893 331.148548 
L 282.176554 344.778453 
L 282.599215 337.5427 
L 283.021876 316.461828 
L 283.867198 299.222383 
L 284.71252 299.222383 
L 285.135181 310.299564 
L 285.557842 314.375709 
L 285.980503 292.221347 
L 286.403164 294.913524 
L 286.825826 308.950214 
L 287.248487 308.950214 
L 287.671148 320.027396 
L 288.093809 320.027396 
L 288.51647 314.742237 
L 288.939131 296.489064 
L 289.361792 296.489064 
L 289.784453 290.531545 
L 290.207114 291.465583 
L 291.052436 291.465583 
L 291.475097 299.880561 
L 291.897758 294.83012 
L 292.320419 311.19246 
L 292.74308 311.19246 
L 293.165741 293.446151 
L 293.588402 282.700878 
L 294.011063 282.700878 
L 294.433724 288.727618 
L 295.701707 277.757745 
L 296.124368 293.242979 
L 296.547029 291.017409 
L 296.96969 314.55574 
L 297.392351 290.450784 
L 297.815013 287.11622 
L 298.237674 292.733286 
L 298.660335 290.04111 
L 299.082996 286.104417 
L 299.505657 288.198627 
L 299.928318 306.14132 
L 300.350979 306.14132 
L 300.77364 303.373382 
L 301.196301 287.24576 
L 301.618962 291.653814 
L 302.041623 301.083356 
L 302.464284 278.187413 
L 302.886945 292.833875 
L 303.309606 292.833875 
L 304.154928 279.925343 
L 304.577589 266.62542 
L 305.00025 271.033474 
L 305.422911 259.24228 
L 305.845572 275.037994 
L 306.268233 263.714053 
L 306.690894 248.795444 
L 307.113555 222.372481 
L 307.536216 224.82994 
L 308.381538 224.82994 
L 308.804199 235.799009 
L 309.226861 239.265383 
L 309.649522 239.265383 
L 310.072183 257.011691 
L 310.494844 238.933475 
L 310.917505 238.933475 
L 311.340166 229.325411 
L 311.762827 226.772687 
L 312.185488 215.930223 
L 312.608149 223.672841 
L 313.03081 223.672841 
L 313.876132 232.813555 
L 314.298793 251.633354 
L 314.721454 237.221609 
L 315.144115 215.067247 
L 315.566776 199.582012 
L 315.989437 169.685033 
L 316.834759 147.544799 
L 317.25742 147.544799 
L 318.102742 159.719641 
L 318.525403 146.342745 
L 318.948064 138.297171 
L 319.370725 157.11697 
L 319.793386 154.28927 
L 320.216048 148.576766 
L 320.638709 126.657122 
L 321.06137 127.547797 
L 321.484031 137.513155 
L 322.329353 129.411061 
L 322.752014 116.072806 
L 324.019997 166.878827 
L 324.442658 164.421368 
L 324.865319 153.802701 
L 325.28798 131.648339 
L 325.710641 120.67927 
L 326.133302 101.924046 
L 326.555963 101.924046 
L 326.978624 98.589482 
L 327.401285 96.970796 
L 327.823946 100.305359 
L 328.246607 101.194506 
L 328.669268 93.799806 
L 329.091929 96.491983 
L 329.51459 88.749366 
L 329.937251 75.336524 
L 330.782573 55.812194 
L 331.205235 53.354735 
L 331.627896 71.392694 
L 332.050557 96.88162 
L 332.473218 112.613614 
L 332.895879 132.817382 
L 333.31854 141.786224 
L 333.741201 156.704833 
L 334.163862 156.704833 
L 334.586523 147.297929 
L 335.009184 156.756423 
L 335.431845 157.672169 
L 335.854506 148.545583 
L 336.277167 152.361624 
L 337.54515 181.028983 
L 337.967811 186.011185 
L 338.390472 181.603131 
L 338.813133 181.959647 
L 339.658455 207.511051 
L 340.081116 198.506263 
L 340.503777 199.121238 
L 340.926438 202.843255 
L 341.349099 204.008966 
L 341.77176 214.627633 
L 342.194422 237.855485 
L 342.617083 244.524613 
L 343.039744 264.640107 
L 343.885066 276.827292 
L 344.307727 303.351067 
L 344.730388 314.181488 
L 345.153049 316.873665 
L 345.57571 313.916756 
L 345.998371 331.428347 
L 346.843693 344.494558 
L 347.266354 344.494558 
L 347.689015 356.922183 
L 348.111676 356.045078 
L 348.534337 359.654618 
L 348.956998 354.369459 
L 349.379659 355.196189 
L 349.80232 360.536328 
L 350.224981 360.536328 
L 350.647642 355.621411 
L 351.070303 345.719002 
L 351.492964 352.38813 
L 351.915625 342.519962 
L 352.338286 351.646548 
L 352.760947 347.570403 
L 353.183609 335.134639 
L 353.60627 313.153589 
L 354.028931 300.457721 
L 354.451592 311.993416 
L 354.874253 313.709293 
L 355.296914 317.610483 
L 355.719575 326.947179 
L 356.564897 334.100859 
L 356.987558 332.905571 
L 357.410219 340.141324 
L 357.83288 335.345818 
L 358.255541 338.157057 
L 358.678202 342.233203 
L 359.100863 349.50446 
L 359.946185 337.913422 
L 360.368846 315.167554 
L 361.214168 304.00185 
L 362.05949 289.590105 
L 362.482151 299.941714 
L 362.904812 300.912843 
L 363.327473 293.935448 
L 363.750134 301.844929 
L 364.172795 302.145699 
L 364.595457 292.667339 
L 365.018118 290.716745 
L 365.86344 276.811864 
L 366.286101 285.873875 
L 366.708762 275.248577 
L 367.131423 278.696341 
L 367.554084 273.411182 
L 367.976745 285.771049 
L 368.399406 285.771049 
L 368.822067 291.231164 
L 369.244728 290.157674 
L 369.667389 293.16033 
L 370.09005 293.16033 
L 370.512711 323.611089 
L 370.935372 330.280217 
L 371.358033 320.276525 
L 371.780694 313.27549 
L 372.203355 308.632718 
L 372.626016 287.341736 
L 373.048677 286.484227 
L 373.471338 284.533632 
L 373.893999 293.660218 
L 374.31666 286.424465 
L 375.161982 274.704897 
L 375.584644 256.859394 
L 376.007305 245.180083 
L 376.429966 245.180083 
L 376.852627 249.683402 
L 377.275288 269.29945 
L 378.12061 262.630323 
L 378.543271 256.207955 
L 378.965932 263.754188 
L 379.388593 266.41639 
L 380.233915 238.839424 
L 380.656576 234.87337 
L 381.501898 222.350303 
L 381.924559 227.635462 
L 382.34722 228.708951 
L 382.769881 233.427484 
L 383.192542 236.477503 
L 383.615203 241.762661 
L 384.037864 240.454174 
L 384.460525 240.069108 
L 384.883186 227.222892 
L 385.305847 230.792173 
L 385.728508 231.865663 
L 386.151169 231.865663 
L 386.573831 242.017389 
L 386.996492 255.503679 
L 387.419153 245.913612 
L 387.841814 240.628453 
L 388.264475 242.012422 
L 388.687136 242.012422 
L 389.109797 238.960926 
L 389.532458 252.93856 
L 390.37778 247.578148 
L 390.800441 241.415885 
L 391.223102 233.214753 
L 391.645763 240.19436 
L 392.068424 250.910912 
L 392.491085 250.662189 
L 393.336407 232.419552 
L 393.759068 225.636149 
L 394.181729 202.097818 
L 394.60439 208.513689 
L 395.027051 209.156076 
L 395.449712 211.88851 
L 395.872373 210.476326 
L 396.295034 219.768409 
L 396.717695 233.254699 
L 397.140356 256.8354 
L 398.40834 279.376251 
L 399.253662 267.732444 
L 400.098984 239.977436 
L 400.521645 234.692277 
L 400.944306 227.267843 
L 401.366967 238.018482 
L 401.789628 245.854515 
L 402.212289 240.159683 
L 402.63495 241.543652 
L 403.057611 247.705915 
L 403.480272 241.455378 
L 403.902933 226.18399 
L 404.748255 226.601436 
L 405.170916 232.628176 
L 405.593577 232.628176 
L 406.016238 241.754762 
L 406.438899 239.731414 
L 406.86156 248.202593 
L 407.284221 245.266782 
L 407.706882 248.836063 
L 408.552205 232.29548 
L 408.974866 228.112533 
L 409.397527 233.510891 
L 409.820188 243.361847 
L 410.242849 249.296069 
L 410.66551 268.659412 
L 411.088171 302.821219 
L 411.510832 289.888955 
L 411.933493 286.750776 
L 412.356154 276.275725 
L 412.778815 280.603883 
L 413.624137 248.075588 
L 414.046798 240.527922 
L 414.469459 248.240565 
L 414.89212 246.331265 
L 415.314781 232.440109 
L 415.737442 236.106581 
L 416.160103 242.775709 
L 416.582764 265.78336 
L 417.005425 276.955807 
L 417.850747 283.967764 
L 418.273408 278.887349 
L 418.696069 300.259872 
L 419.11873 302.563619 
L 419.541391 299.795681 
L 419.964053 298.918576 
L 420.386714 290.420652 
L 421.232036 299.324808 
L 421.654697 309.139818 
L 422.077358 314.470577 
L 422.500019 322.471552 
L 422.92268 306.29558 
L 423.345341 307.654942 
L 423.768002 313.25058 
L 424.190663 327.722086 
L 424.613324 328.053994 
L 425.458646 351.697491 
L 425.881307 340.952218 
L 426.303968 338.741519 
L 426.726629 339.295089 
L 427.14929 336.46739 
L 427.571951 315.514487 
L 427.994612 284.95939 
L 428.417273 279.674232 
L 428.839934 272.476812 
L 429.262595 272.28813 
L 429.685256 272.444591 
L 430.107917 284.152118 
L 430.530578 292.537122 
L 430.95324 297.366252 
L 431.375901 279.288036 
L 431.798562 279.813367 
L 432.221223 291.247064 
L 432.643884 287.422848 
L 433.066545 300.685341 
L 433.489206 295.795589 
L 433.911867 281.855204 
L 434.334528 280.276441 
L 434.757189 281.66041 
L 435.17985 285.872079 
L 435.602511 264.360104 
L 436.025172 264.181908 
L 436.447833 269.97393 
L 436.870494 256.946154 
L 437.715816 267.901538 
L 438.138477 269.433542 
L 438.561138 264.715009 
L 438.983799 258.642669 
L 439.40646 262.981046 
L 439.829121 282.828297 
L 440.251782 280.423997 
L 441.097104 254.241839 
L 441.519765 253.168349 
L 441.942427 258.453508 
L 442.365088 260.314736 
L 442.787749 266.983863 
L 443.21041 282.617966 
L 443.633071 285.398959 
L 444.055732 290.684118 
L 444.478393 291.821327 
L 444.901054 299.798662 
L 445.323715 321.603904 
L 446.169037 333.104484 
L 446.591698 330.538914 
L 447.014359 324.116546 
L 447.43702 326.612338 
L 447.859681 320.275118 
L 448.282342 325.560277 
L 448.705003 325.560277 
L 449.127664 331.230501 
L 449.550325 333.33884 
L 449.972986 323.35593 
L 450.395647 319.300655 
L 450.818308 328.427241 
L 451.240969 332.180396 
L 451.66363 340.233492 
L 452.086291 329.352696 
L 452.508952 330.660904 
L 452.931614 330.660904 
L 453.354275 329.587414 
L 453.776936 337.330031 
L 454.199597 334.737049 
L 454.622258 334.737049 
L 455.044919 328.486512 
L 455.46758 320.285381 
L 455.890241 321.25651 
L 456.735563 301.477898 
L 457.158224 302.166322 
L 457.580885 303.239811 
L 458.003546 304.701584 
L 458.426207 308.036148 
L 458.848868 308.036148 
L 459.271529 301.36702 
L 460.116851 291.844806 
L 460.539512 305.183062 
L 461.384834 317.447827 
L 461.807495 328.895249 
L 462.652817 335.019179 
L 463.075478 333.967119 
L 463.498139 337.449717 
L 463.920801 338.300888 
L 464.343462 338.59579 
L 464.766123 337.953403 
L 465.188784 334.618839 
L 465.611445 334.618839 
L 466.034106 325.614051 
L 466.456767 328.948615 
L 466.879428 314.923758 
L 467.302089 314.046653 
L 467.72475 319.331812 
L 468.147411 331.011123 
L 468.570072 316.931286 
L 468.992733 317.734943 
L 469.415394 324.627867 
L 469.838055 324.627867 
L 470.260716 316.28312 
L 470.683377 316.28312 
L 471.106038 319.294693 
L 471.528699 321.120326 
L 471.95136 326.122417 
L 472.796682 350.044519 
L 473.219343 357.438017 
L 473.642004 347.431435 
L 474.064665 346.029812 
L 474.487326 352.698939 
L 474.909987 338.86429 
L 475.332649 334.5834 
L 475.75531 332.125942 
L 476.177971 330.410065 
L 476.600632 338.785191 
L 477.023293 344.213965 
L 477.868615 326.432376 
L 478.291276 328.831968 
L 478.713937 329.276757 
L 479.136598 315.555415 
L 479.559259 297.265444 
L 479.98192 293.195439 
L 480.404581 290.78633 
L 480.827242 292.077442 
L 481.249903 287.570872 
L 481.672564 295.117104 
L 482.095225 288.251592 
L 482.517886 295.252627 
L 482.940547 298.587191 
L 483.363208 296.129732 
L 483.785869 305.491036 
L 484.20853 326.367165 
L 484.631191 324.641598 
L 485.053852 310.868077 
L 485.476513 327.283575 
L 485.899174 328.690617 
L 486.321836 314.872419 
L 486.744497 314.872419 
L 487.167158 322.758652 
L 487.589819 326.013697 
L 488.01248 321.326505 
L 488.435141 319.500872 
L 488.857802 309.734212 
L 489.703124 273.409012 
L 490.125785 267.96611 
L 490.548446 291.277422 
L 490.971107 288.438131 
L 491.393768 281.839235 
L 491.816429 288.176455 
L 492.23909 289.12278 
L 492.661751 292.419011 
L 493.084412 284.909107 
L 493.507073 281.252514 
L 493.929734 279.72493 
L 494.352395 276.028484 
L 494.775056 278.572626 
L 495.197717 273.25706 
L 495.620378 255.454037 
L 496.043039 261.210555 
L 496.4657 272.040977 
L 496.888361 278.87892 
L 497.311023 272.938863 
L 497.733684 261.435275 
L 498.156345 264.351248 
L 499.001667 265.587295 
L 499.424328 253.719691 
L 499.846989 250.660103 
L 500.692311 227.82502 
L 501.114972 208.332861 
L 501.537633 202.896122 
L 501.960294 202.625797 
L 502.382955 192.450887 
L 502.805616 196.909315 
L 503.228277 207.573656 
L 503.650938 207.573656 
L 504.073599 200.796417 
L 504.918921 194.840076 
L 505.341582 203.218 
L 505.764243 223.350938 
L 506.609565 247.777157 
L 507.032226 254.061218 
L 507.454887 242.525523 
L 507.877548 256.966513 
L 508.30021 240.003084 
L 508.722871 236.123323 
L 509.145532 245.219748 
L 509.568193 233.303795 
L 509.990854 240.165532 
L 510.413515 240.947372 
L 510.836176 251.988785 
L 511.681498 255.834358 
L 512.104159 254.598424 
L 512.52682 263.771457 
L 512.949481 265.525667 
L 513.372142 278.221535 
L 513.794803 279.295024 
L 514.217464 285.084734 
L 514.640125 299.196116 
L 515.062786 289.611016 
L 515.485447 276.425496 
L 515.908108 281.977988 
L 516.330769 280.175428 
L 516.75343 275.492399 
L 517.176091 296.262792 
L 517.598752 306.266484 
L 518.021413 305.524902 
L 518.444074 310.908443 
L 518.866735 323.27667 
L 519.289396 321.112228 
L 519.712058 319.850057 
L 520.134719 317.494959 
L 520.55738 317.494959 
L 520.980041 321.396148 
L 521.402702 303.472737 
L 521.825363 299.697362 
L 523.093346 255.753473 
L 523.516007 262.914639 
L 523.938668 258.216941 
L 524.361329 259.290431 
L 524.78399 247.13976 
L 525.206651 264.032958 
L 525.629312 268.244626 
L 526.051973 255.072056 
L 526.474634 270.745972 
L 526.897295 270.567408 
L 527.319956 274.193622 
L 527.742617 264.443661 
L 528.165278 269.21781 
L 528.587939 267.972489 
L 529.0106 270.740427 
L 529.433261 270.552666 
L 529.855922 272.395149 
L 531.123906 260.252486 
L 531.546567 262.913117 
L 532.391889 299.326376 
L 533.237211 282.568408 
L 533.659872 290.311026 
L 534.082533 284.829482 
L 534.505194 288.360431 
L 534.927855 299.536806 
L 535.773177 282.125531 
L 536.195838 278.790967 
L 536.618499 280.053138 
L 537.04116 280.053138 
L 537.463821 271.94028 
L 537.886482 285.926701 
L 538.309143 282.65045 
L 539.154465 320.480373 
L 539.577126 316.002428 
L 539.999787 314.740257 
L 540.422448 302.785971 
L 540.845109 297.865043 
L 541.26777 294.334095 
L 541.690432 284.748994 
L 542.113093 266.125581 
L 542.958415 278.821449 
L 543.381076 267.555586 
L 543.803737 272.359267 
L 544.226398 254.923438 
L 544.649059 251.681392 
L 545.07172 236.392542 
L 545.494381 232.70922 
L 545.917042 232.70922 
L 546.339703 240.711941 
L 547.185025 226.348546 
L 547.607686 230.424692 
L 548.030347 232.985058 
L 548.875669 209.219652 
L 549.29833 203.829272 
L 549.720991 217.167527 
L 550.143652 235.408658 
L 550.566313 235.408658 
L 550.988974 227.66604 
L 551.411635 227.019724 
L 551.834296 223.488776 
L 552.256957 228.207308 
L 553.10228 219.025741 
L 553.524941 207.94856 
L 553.947602 207.94856 
L 554.370263 207.05663 
L 554.792924 198.12065 
L 555.215585 219.320313 
L 555.638246 209.403304 
L 556.483568 217.984693 
L 556.906229 231.358894 
L 557.32889 228.166531 
L 557.751551 220.177154 
L 558.174212 208.681382 
L 558.596873 213.351565 
L 559.019534 219.824308 
L 559.864856 184.135306 
L 560.287517 190.804434 
L 560.710178 187.46987 
L 561.132839 193.923784 
L 561.5555 177.561444 
L 561.978161 181.950216 
L 562.400822 184.928264 
L 562.823483 169.44303 
L 563.246144 161.93513 
L 563.668806 167.220289 
L 564.514128 197.946023 
L 565.782111 178.613344 
L 566.204772 161.997396 
L 566.627433 161.997396 
L 567.472755 127.517408 
L 567.895416 135.260025 
L 568.318077 131.64982 
L 568.740738 124.745975 
L 569.163399 125.3126 
L 569.58606 115.734131 
L 570.008721 124.984198 
L 570.431382 127.536923 
L 570.854043 118.247244 
L 571.276704 120.678171 
L 571.699365 111.454394 
L 572.122026 111.454394 
L 572.544687 103.465017 
L 572.967348 80.585083 
L 573.390009 74.196273 
L 573.81267 54.341626 
L 574.235331 49.791372 
L 574.657992 54.541451 
L 575.080654 65.485607 
L 575.503315 83.663018 
L 575.925976 89.858574 
L 576.348637 98.203321 
L 576.771298 100.538982 
L 577.193959 93.869854 
L 577.61662 105.104779 
L 578.039281 104.283941 
L 578.461942 115.906319 
L 578.884603 107.300314 
L 579.307264 107.300314 
L 579.729925 100.631186 
L 580.152586 96.555041 
L 580.575247 77.735242 
L 580.997908 68.761695 
L 581.420569 44.111541 
L 581.84323 43.683636 
L 582.265891 46.106855 
L 582.688552 50.353639 
L 583.111213 58.719047 
L 583.533874 53.084769 
L 583.956535 60.592668 
L 584.801857 64.717655 
L 585.224518 75.332824 
L 585.647179 56.513026 
L 586.069841 51.530824 
L 586.492502 50.964198 
L 586.915163 51.717821 
L 587.337824 58.243334 
L 587.760485 67.34796 
L 588.183146 62.337777 
L 588.605807 52.099368 
L 589.028468 52.099368 
L 589.451129 58.768495 
L 589.87379 52.628556 
L 590.296451 59.017366 
L 590.719112 77.559924 
L 591.141773 81.186138 
L 591.564434 76.917537 
L 592.409756 88.551147 
L 592.832417 89.851448 
L 593.677739 114.860042 
L 594.1004 115.151693 
L 594.523061 103.916768 
L 594.945722 111.311468 
L 595.368383 109.221032 
L 595.791044 115.577542 
L 596.213705 108.40155 
L 596.636366 112.809604 
L 597.059028 121.93619 
L 597.481689 140.755988 
L 597.90435 128.004773 
L 598.327011 128.004773 
L 598.749672 135.399473 
L 599.172333 139.002995 
L 599.594994 141.425338 
L 600.017655 143.025288 
L 600.440316 132.531945 
L 600.862977 143.15542 
L 601.285638 159.147519 
L 601.708299 151.229454 
L 602.13096 155.109215 
L 602.553621 175.312982 
L 602.976282 168.144514 
L 603.398943 180.295184 
L 603.821604 177.240938 
L 604.244265 166.002911 
L 604.666926 176.726734 
L 605.512248 216.434948 
L 605.934909 216.434948 
L 606.35757 221.089761 
L 606.780231 227.003582 
L 607.202892 237.573899 
L 607.625553 251.756019 
L 608.048215 249.513774 
L 608.470876 262.306832 
L 608.893537 259.239602 
L 609.316198 237.962345 
L 610.16152 240.442767 
L 610.584181 240.442767 
L 611.429503 254.547284 
L 611.852164 240.05602 
L 612.274825 229.851717 
L 613.120147 243.599791 
L 613.542808 261.3461 
L 614.38813 266.529975 
L 615.233452 285.146309 
L 615.656113 283.920084 
L 616.078774 275.156702 
L 616.501435 270.845839 
L 616.924096 272.464525 
L 617.346757 288.592147 
L 617.769418 273.164991 
L 618.192079 272.091501 
L 618.61474 284.193822 
L 619.037402 273.759029 
L 619.460063 273.234703 
L 619.882724 288.409458 
L 620.305385 283.124299 
L 620.728046 284.462668 
L 621.150707 293.418751 
L 621.573368 280.187804 
L 621.996029 271.760537 
L 622.41869 269.809943 
L 622.841351 261.756846 
L 623.264012 261.53305 
L 623.686673 282.431611 
L 624.109334 266.969068 
L 624.531995 245.443368 
L 625.377317 257.310971 
L 625.799978 253.542713 
L 626.222639 261.448422 
L 626.6453 264.782986 
L 627.067961 253.422737 
L 627.490622 252.160566 
L 627.913283 251.730141 
L 628.335944 245.175108 
L 628.758605 252.705593 
L 629.181266 264.746786 
L 629.603927 263.362817 
L 630.026588 254.059446 
L 630.44925 255.132935 
L 630.871911 249.748582 
L 631.294572 252.825109 
L 631.717233 245.956768 
L 632.139894 243.547659 
L 632.562555 239.103659 
L 632.985216 263.117558 
L 633.407877 266.014479 
L 633.830538 263.202526 
L 634.253199 264.586495 
L 634.67586 268.747789 
L 635.098521 268.747789 
L 635.521182 260.438546 
L 635.943843 242.888622 
L 636.366504 241.151874 
L 636.789165 230.074693 
L 637.211826 231.283706 
L 637.634487 226.972843 
L 638.057148 217.767442 
L 638.479809 228.051887 
L 638.90247 228.051887 
L 639.325131 221.38276 
L 639.747792 231.261489 
L 640.170453 228.150722 
L 640.593114 227.334131 
L 641.015775 238.895483 
L 641.438437 253.827818 
L 641.861098 249.284241 
L 642.283759 241.083109 
L 642.70642 259.573592 
L 643.129081 254.45725 
L 643.551742 252.066941 
L 643.974403 256.981859 
L 644.397064 242.116408 
L 645.242386 222.542216 
L 645.665047 244.421603 
L 646.087708 254.230834 
L 646.510369 276.448916 
L 646.93303 288.627803 
L 647.355691 282.705752 
L 648.201013 288.484159 
L 648.623674 301.302739 
L 649.046335 305.095817 
L 649.468996 303.900529 
L 649.891657 287.538189 
L 650.314318 285.750593 
L 650.736979 278.558855 
L 651.15964 288.099331 
L 651.582301 289.4833 
L 652.004962 297.898279 
L 652.850285 320.056107 
L 653.272946 312.31349 
L 654.540929 338.398336 
L 654.96359 351.675429 
L 655.386251 333.00598 
L 655.808912 335.246626 
L 656.231573 345.991899 
L 656.654234 334.162574 
L 657.076895 328.877416 
L 657.499556 319.231802 
L 657.922217 317.896183 
L 658.344878 321.543059 
L 658.767539 326.828217 
L 659.1902 326.828217 
L 659.612861 328.020497 
L 660.035522 337.185416 
L 660.458183 329.435226 
L 660.880844 334.848679 
L 661.303505 355.207251 
L 661.726166 361.07666 
L 662.148827 369.129756 
L 662.571488 339.829564 
L 662.994149 332.512846 
L 663.416811 323.002674 
L 663.839472 321.986117 
L 664.262133 318.214956 
L 664.684794 320.632491 
L 665.107455 310.904544 
L 665.530116 310.296397 
L 665.952777 306.961833 
L 666.375438 320.496473 
L 666.798099 321.011697 
L 667.22076 329.648742 
L 667.643421 322.979615 
L 668.066082 309.5827 
L 668.488743 310.873253 
L 668.911404 302.083221 
L 669.334065 283.944451 
L 669.756726 286.730043 
L 670.179387 290.881198 
L 670.602048 290.454117 
L 671.024709 273.795775 
L 671.44737 269.818824 
L 671.870031 254.943914 
L 672.292692 262.686532 
L 672.715353 251.826163 
L 673.138014 249.133987 
L 673.560675 261.088273 
L 673.983336 261.297469 
L 674.405997 253.196775 
L 674.828659 241.836526 
L 675.25132 234.212699 
L 675.673981 238.560991 
L 676.096642 235.377247 
L 676.519303 223.832156 
L 676.941964 215.632615 
L 677.364625 226.704404 
L 677.787286 231.837274 
L 678.209947 225.327061 
L 678.632608 225.963687 
L 679.055269 228.299348 
L 679.47793 239.609316 
L 679.900591 239.116201 
L 680.323252 222.000237 
L 681.168574 262.070019 
L 681.591235 257.598109 
L 682.013896 258.671599 
L 682.436557 265.799241 
L 682.859218 280.290504 
L 683.281879 271.527166 
L 683.70454 278.139585 
L 684.127201 273.155196 
L 684.549862 300.905196 
L 684.972523 304.685873 
L 685.817846 317.935359 
L 686.240507 325.01416 
L 686.663168 318.818604 
L 687.085829 318.002012 
L 687.50849 304.611749 
L 687.931151 317.307616 
L 688.353812 315.803024 
L 689.199134 353.213323 
L 689.621795 364.767996 
L 690.044456 366.876334 
L 690.467117 358.256612 
L 690.889778 356.531637 
L 691.312439 376.759398 
L 691.7351 379.066509 
L 692.157761 385.521789 
L 692.580422 384.339245 
L 693.003083 386.956364 
L 693.425744 365.55225 
L 693.848405 366.205559 
L 694.693727 338.88947 
L 695.116388 342.200206 
L 695.539049 346.532713 
L 695.96171 346.714272 
L 696.384371 349.785887 
L 697.229694 361.218161 
L 697.652355 340.197802 
L 698.075016 327.817507 
L 698.497677 339.875573 
L 698.920338 339.875573 
L 699.76566 317.326794 
L 700.188321 314.952437 
L 700.610982 317.828486 
L 701.033643 305.013408 
L 701.456304 283.736151 
L 703.146948 249.522436 
L 703.99227 259.052556 
L 704.414931 279.29227 
L 704.837592 281.701379 
L 705.260253 287.493401 
L 706.105575 269.030065 
L 706.528236 266.553628 
L 706.950897 265.51878 
L 707.373558 262.336951 
L 707.79622 260.936757 
L 708.218881 245.994154 
L 708.641542 262.264301 
L 709.064203 247.755923 
L 709.486864 247.282352 
L 709.909525 251.183541 
L 710.332186 270.312452 
L 710.754847 260.384522 
L 711.177508 273.76554 
L 711.600169 280.856081 
L 712.02283 276.750147 
L 712.445491 274.740524 
L 712.868152 268.88874 
L 713.290813 268.88874 
L 714.136135 257.025077 
L 714.558796 257.518921 
L 714.981457 265.572018 
L 715.404118 255.878806 
L 715.826779 249.991518 
L 716.24944 252.477192 
L 716.672101 254.009196 
L 717.094762 264.468196 
L 717.517423 259.850946 
L 718.785407 287.987435 
L 719.208068 293.272593 
L 720.05339 310.943454 
L 720.476051 312.894049 
L 720.898712 313.635631 
L 721.321373 312.608177 
L 721.744034 304.096567 
L 722.166695 304.292951 
L 722.589356 300.660004 
L 723.012017 280.854989 
L 723.434678 280.396475 
L 723.857339 261.069813 
L 724.28 274.934027 
L 724.28 274.934027 
" style="fill:none;stroke:#ff7f0e;stroke-linecap:square;stroke-width:1.5;"/>
   </g>
   <g id="patch_3">
    <path d="M 48.445 404.12 
L 48.445 26.52 
" style="fill:none;stroke:#000000;stroke-linecap:square;stroke-linejoin:miter;stroke-width:0.8;"/>
   </g>
   <g id="patch_4">
    <path d="M 724.28 404.12 
L 724.28 26.52 
" style="fill:none;stroke:#000000;stroke-linecap:square;stroke-linejoin:miter;stroke-width:0.8;"/>
   </g>
   <g id="patch_5">
    <path d="M 48.445 404.12 
L 724.28 404.12 
" style="fill:none;stroke:#000000;stroke-linecap:square;stroke-linejoin:miter;stroke-width:0.8;"/>
   </g>
   <g id="patch_6">
    <path d="M 48.445 26.52 
L 724.28 26.52 
" style="fill:none;stroke:#000000;stroke-linecap:square;stroke-linejoin:miter;stroke-width:0.8;"/>
   </g>
   <g id="text_16">
    <!-- gridworld_5x5_100_2_8_42__1: episode duration in steps log-relative to `htm_1_1g`, MA=40 -->
    <defs>
     <path d="M 45.40625 27.984375 
Q 45.40625 37.75 41.375 43.109375 
Q 37.359375 48.484375 30.078125 48.484375 
Q 22.859375 48.484375 18.828125 43.109375 
Q 14.796875 37.75 14.796875 27.984375 
Q 14.796875 18.265625 18.828125 12.890625 
Q 22.859375 7.515625 30.078125 7.515625 
Q 37.359375 7.515625 41.375 12.890625 
Q 45.40625 18.265625 45.40625 27.984375 
z
M 54.390625 6.78125 
Q 54.390625 -7.171875 48.1875 -13.984375 
Q 42 -20.796875 29.203125 -20.796875 
Q 24.46875 -20.796875 20.265625 -20.09375 
Q 16.0625 -19.390625 12.109375 -17.921875 
L 12.109375 -9.1875 
Q 16.0625 -11.328125 19.921875 -12.34375 
Q 23.78125 -13.375 27.78125 -13.375 
Q 36.625 -13.375 41.015625 -8.765625 
Q 45.40625 -4.15625 45.40625 5.171875 
L 45.40625 9.625 
Q 42.625 4.78125 38.28125 2.390625 
Q 33.9375 0 27.875 0 
Q 17.828125 0 11.671875 7.65625 
Q 5.515625 15.328125 5.515625 27.984375 
Q 5.515625 40.671875 11.671875 48.328125 
Q 17.828125 56 27.875 56 
Q 33.9375 56 38.28125 53.609375 
Q 42.625 51.21875 45.40625 46.390625 
L 45.40625 54.6875 
L 54.390625 54.6875 
z
" id="DejaVuSans-103"/>
     <path d="M 41.109375 46.296875 
Q 39.59375 47.171875 37.8125 47.578125 
Q 36.03125 48 33.890625 48 
Q 26.265625 48 22.1875 43.046875 
Q 18.109375 38.09375 18.109375 28.8125 
L 18.109375 0 
L 9.078125 0 
L 9.078125 54.6875 
L 18.109375 54.6875 
L 18.109375 46.1875 
Q 20.953125 51.171875 25.484375 53.578125 
Q 30.03125 56 36.53125 56 
Q 37.453125 56 38.578125 55.875 
Q 39.703125 55.765625 41.0625 55.515625 
z
" id="DejaVuSans-114"/>
     <path d="M 9.421875 54.6875 
L 18.40625 54.6875 
L 18.40625 0 
L 9.421875 0 
z
M 9.421875 75.984375 
L 18.40625 75.984375 
L 18.40625 64.59375 
L 9.421875 64.59375 
z
" id="DejaVuSans-105"/>
     <path d="M 45.40625 46.390625 
L 45.40625 75.984375 
L 54.390625 75.984375 
L 54.390625 0 
L 45.40625 0 
L 45.40625 8.203125 
Q 42.578125 3.328125 38.25 0.953125 
Q 33.9375 -1.421875 27.875 -1.421875 
Q 17.96875 -1.421875 11.734375 6.484375 
Q 5.515625 14.40625 5.515625 27.296875 
Q 5.515625 40.1875 11.734375 48.09375 
Q 17.96875 56 27.875 56 
Q 33.9375 56 38.25 53.625 
Q 42.578125 51.265625 45.40625 46.390625 
z
M 14.796875 27.296875 
Q 14.796875 17.390625 18.875 11.75 
Q 22.953125 6.109375 30.078125 6.109375 
Q 37.203125 6.109375 41.296875 11.75 
Q 45.40625 17.390625 45.40625 27.296875 
Q 45.40625 37.203125 41.296875 42.84375 
Q 37.203125 48.484375 30.078125 48.484375 
Q 22.953125 48.484375 18.875 42.84375 
Q 14.796875 37.203125 14.796875 27.296875 
z
" id="DejaVuSans-100"/>
     <path d="M 4.203125 54.6875 
L 13.1875 54.6875 
L 24.421875 12.015625 
L 35.59375 54.6875 
L 46.1875 54.6875 
L 57.421875 12.015625 
L 68.609375 54.6875 
L 77.59375 54.6875 
L 63.28125 0 
L 52.6875 0 
L 40.921875 44.828125 
L 29.109375 0 
L 18.5 0 
z
" id="DejaVuSans-119"/>
     <path d="M 30.609375 48.390625 
Q 23.390625 48.390625 19.1875 42.75 
Q 14.984375 37.109375 14.984375 27.296875 
Q 14.984375 17.484375 19.15625 11.84375 
Q 23.34375 6.203125 30.609375 6.203125 
Q 37.796875 6.203125 41.984375 11.859375 
Q 46.1875 17.53125 46.1875 27.296875 
Q 46.1875 37.015625 41.984375 42.703125 
Q 37.796875 48.390625 30.609375 48.390625 
z
M 30.609375 56 
Q 42.328125 56 49.015625 48.375 
Q 55.71875 40.765625 55.71875 27.296875 
Q 55.71875 13.875 49.015625 6.21875 
Q 42.328125 -1.421875 30.609375 -1.421875 
Q 18.84375 -1.421875 12.171875 6.21875 
Q 5.515625 13.875 5.515625 27.296875 
Q 5.515625 40.765625 12.171875 48.375 
Q 18.84375 56 30.609375 56 
z
" id="DejaVuSans-111"/>
     <path d="M 9.421875 75.984375 
L 18.40625 75.984375 
L 18.40625 0 
L 9.421875 0 
z
" id="DejaVuSans-108"/>
     <path d="M 50.984375 -16.609375 
L 50.984375 -23.578125 
L -0.984375 -23.578125 
L -0.984375 -16.609375 
z
" id="DejaVuSans-95"/>
     <path d="M 54.890625 54.6875 
L 35.109375 28.078125 
L 55.90625 0 
L 45.3125 0 
L 29.390625 21.484375 
L 13.484375 0 
L 2.875 0 
L 24.125 28.609375 
L 4.6875 54.6875 
L 15.28125 54.6875 
L 29.78125 35.203125 
L 44.28125 54.6875 
z
" id="DejaVuSans-120"/>
     <path d="M 11.71875 12.40625 
L 22.015625 12.40625 
L 22.015625 0 
L 11.71875 0 
z
M 11.71875 51.703125 
L 22.015625 51.703125 
L 22.015625 39.3125 
L 11.71875 39.3125 
z
" id="DejaVuSans-58"/>
     <path id="DejaVuSans-32"/>
     <path d="M 56.203125 29.59375 
L 56.203125 25.203125 
L 14.890625 25.203125 
Q 15.484375 15.921875 20.484375 11.0625 
Q 25.484375 6.203125 34.421875 6.203125 
Q 39.59375 6.203125 44.453125 7.46875 
Q 49.3125 8.734375 54.109375 11.28125 
L 54.109375 2.78125 
Q 49.265625 0.734375 44.1875 -0.34375 
Q 39.109375 -1.421875 33.890625 -1.421875 
Q 20.796875 -1.421875 13.15625 6.1875 
Q 5.515625 13.8125 5.515625 26.8125 
Q 5.515625 40.234375 12.765625 48.109375 
Q 20.015625 56 32.328125 56 
Q 43.359375 56 49.78125 48.890625 
Q 56.203125 41.796875 56.203125 29.59375 
z
M 47.21875 32.234375 
Q 47.125 39.59375 43.09375 43.984375 
Q 39.0625 48.390625 32.421875 48.390625 
Q 24.90625 48.390625 20.390625 44.140625 
Q 15.875 39.890625 15.1875 32.171875 
z
" id="DejaVuSans-101"/>
     <path d="M 18.109375 8.203125 
L 18.109375 -20.796875 
L 9.078125 -20.796875 
L 9.078125 54.6875 
L 18.109375 54.6875 
L 18.109375 46.390625 
Q 20.953125 51.265625 25.265625 53.625 
Q 29.59375 56 35.59375 56 
Q 45.5625 56 51.78125 48.09375 
Q 58.015625 40.1875 58.015625 27.296875 
Q 58.015625 14.40625 51.78125 6.484375 
Q 45.5625 -1.421875 35.59375 -1.421875 
Q 29.59375 -1.421875 25.265625 0.953125 
Q 20.953125 3.328125 18.109375 8.203125 
z
M 48.6875 27.296875 
Q 48.6875 37.203125 44.609375 42.84375 
Q 40.53125 48.484375 33.40625 48.484375 
Q 26.265625 48.484375 22.1875 42.84375 
Q 18.109375 37.203125 18.109375 27.296875 
Q 18.109375 17.390625 22.1875 11.75 
Q 26.265625 6.109375 33.40625 6.109375 
Q 40.53125 6.109375 44.609375 11.75 
Q 48.6875 17.390625 48.6875 27.296875 
z
" id="DejaVuSans-112"/>
     <path d="M 44.28125 53.078125 
L 44.28125 44.578125 
Q 40.484375 46.53125 36.375 47.5 
Q 32.28125 48.484375 27.875 48.484375 
Q 21.1875 48.484375 17.84375 46.4375 
Q 14.5 44.390625 14.5 40.28125 
Q 14.5 37.15625 16.890625 35.375 
Q 19.28125 33.59375 26.515625 31.984375 
L 29.59375 31.296875 
Q 39.15625 29.25 43.1875 25.515625 
Q 47.21875 21.78125 47.21875 15.09375 
Q 47.21875 7.46875 41.1875 3.015625 
Q 35.15625 -1.421875 24.609375 -1.421875 
Q 20.21875 -1.421875 15.453125 -0.5625 
Q 10.6875 0.296875 5.421875 2 
L 5.421875 11.28125 
Q 10.40625 8.6875 15.234375 7.390625 
Q 20.0625 6.109375 24.8125 6.109375 
Q 31.15625 6.109375 34.5625 8.28125 
Q 37.984375 10.453125 37.984375 14.40625 
Q 37.984375 18.0625 35.515625 20.015625 
Q 33.0625 21.96875 24.703125 23.78125 
L 21.578125 24.515625 
Q 13.234375 26.265625 9.515625 29.90625 
Q 5.8125 33.546875 5.8125 39.890625 
Q 5.8125 47.609375 11.28125 51.796875 
Q 16.75 56 26.8125 56 
Q 31.78125 56 36.171875 55.265625 
Q 40.578125 54.546875 44.28125 53.078125 
z
" id="DejaVuSans-115"/>
     <path d="M 8.5 21.578125 
L 8.5 54.6875 
L 17.484375 54.6875 
L 17.484375 21.921875 
Q 17.484375 14.15625 20.5 10.265625 
Q 23.53125 6.390625 29.59375 6.390625 
Q 36.859375 6.390625 41.078125 11.03125 
Q 45.3125 15.671875 45.3125 23.6875 
L 45.3125 54.6875 
L 54.296875 54.6875 
L 54.296875 0 
L 45.3125 0 
L 45.3125 8.40625 
Q 42.046875 3.421875 37.71875 1 
Q 33.40625 -1.421875 27.6875 -1.421875 
Q 18.265625 -1.421875 13.375 4.4375 
Q 8.5 10.296875 8.5 21.578125 
z
M 31.109375 56 
z
" id="DejaVuSans-117"/>
     <path d="M 34.28125 27.484375 
Q 23.390625 27.484375 19.1875 25 
Q 14.984375 22.515625 14.984375 16.5 
Q 14.984375 11.71875 18.140625 8.90625 
Q 21.296875 6.109375 26.703125 6.109375 
Q 34.1875 6.109375 38.703125 11.40625 
Q 43.21875 16.703125 43.21875 25.484375 
L 43.21875 27.484375 
z
M 52.203125 31.203125 
L 52.203125 0 
L 43.21875 0 
L 43.21875 8.296875 
Q 40.140625 3.328125 35.546875 0.953125 
Q 30.953125 -1.421875 24.3125 -1.421875 
Q 15.921875 -1.421875 10.953125 3.296875 
Q 6 8.015625 6 15.921875 
Q 6 25.140625 12.171875 29.828125 
Q 18.359375 34.515625 30.609375 34.515625 
L 43.21875 34.515625 
L 43.21875 35.40625 
Q 43.21875 41.609375 39.140625 45 
Q 35.0625 48.390625 27.6875 48.390625 
Q 23 48.390625 18.546875 47.265625 
Q 14.109375 46.140625 10.015625 43.890625 
L 10.015625 52.203125 
Q 14.9375 54.109375 19.578125 55.046875 
Q 24.21875 56 28.609375 56 
Q 40.484375 56 46.34375 49.84375 
Q 52.203125 43.703125 52.203125 31.203125 
z
" id="DejaVuSans-97"/>
     <path d="M 18.3125 70.21875 
L 18.3125 54.6875 
L 36.8125 54.6875 
L 36.8125 47.703125 
L 18.3125 47.703125 
L 18.3125 18.015625 
Q 18.3125 11.328125 20.140625 9.421875 
Q 21.96875 7.515625 27.59375 7.515625 
L 36.8125 7.515625 
L 36.8125 0 
L 27.59375 0 
Q 17.1875 0 13.234375 3.875 
Q 9.28125 7.765625 9.28125 18.015625 
L 9.28125 47.703125 
L 2.6875 47.703125 
L 2.6875 54.6875 
L 9.28125 54.6875 
L 9.28125 70.21875 
z
" id="DejaVuSans-116"/>
     <path d="M 54.890625 33.015625 
L 54.890625 0 
L 45.90625 0 
L 45.90625 32.71875 
Q 45.90625 40.484375 42.875 44.328125 
Q 39.84375 48.1875 33.796875 48.1875 
Q 26.515625 48.1875 22.3125 43.546875 
Q 18.109375 38.921875 18.109375 30.90625 
L 18.109375 0 
L 9.078125 0 
L 9.078125 54.6875 
L 18.109375 54.6875 
L 18.109375 46.1875 
Q 21.34375 51.125 25.703125 53.5625 
Q 30.078125 56 35.796875 56 
Q 45.21875 56 50.046875 50.171875 
Q 54.890625 44.34375 54.890625 33.015625 
z
" id="DejaVuSans-110"/>
     <path d="M 4.890625 31.390625 
L 31.203125 31.390625 
L 31.203125 23.390625 
L 4.890625 23.390625 
z
" id="DejaVuSans-45"/>
     <path d="M 2.984375 54.6875 
L 12.5 54.6875 
L 29.59375 8.796875 
L 46.6875 54.6875 
L 56.203125 54.6875 
L 35.6875 0 
L 23.484375 0 
z
" id="DejaVuSans-118"/>
     <path d="M 17.921875 79.984375 
L 31.6875 61.71875 
L 24.21875 61.71875 
L 8.296875 79.984375 
z
" id="DejaVuSans-96"/>
     <path d="M 54.890625 33.015625 
L 54.890625 0 
L 45.90625 0 
L 45.90625 32.71875 
Q 45.90625 40.484375 42.875 44.328125 
Q 39.84375 48.1875 33.796875 48.1875 
Q 26.515625 48.1875 22.3125 43.546875 
Q 18.109375 38.921875 18.109375 30.90625 
L 18.109375 0 
L 9.078125 0 
L 9.078125 75.984375 
L 18.109375 75.984375 
L 18.109375 46.1875 
Q 21.34375 51.125 25.703125 53.5625 
Q 30.078125 56 35.796875 56 
Q 45.21875 56 50.046875 50.171875 
Q 54.890625 44.34375 54.890625 33.015625 
z
" id="DejaVuSans-104"/>
     <path d="M 52 44.1875 
Q 55.375 50.25 60.0625 53.125 
Q 64.75 56 71.09375 56 
Q 79.640625 56 84.28125 50.015625 
Q 88.921875 44.046875 88.921875 33.015625 
L 88.921875 0 
L 79.890625 0 
L 79.890625 32.71875 
Q 79.890625 40.578125 77.09375 44.375 
Q 74.3125 48.1875 68.609375 48.1875 
Q 61.625 48.1875 57.5625 43.546875 
Q 53.515625 38.921875 53.515625 30.90625 
L 53.515625 0 
L 44.484375 0 
L 44.484375 32.71875 
Q 44.484375 40.625 41.703125 44.40625 
Q 38.921875 48.1875 33.109375 48.1875 
Q 26.21875 48.1875 22.15625 43.53125 
Q 18.109375 38.875 18.109375 30.90625 
L 18.109375 0 
L 9.078125 0 
L 9.078125 54.6875 
L 18.109375 54.6875 
L 18.109375 46.1875 
Q 21.1875 51.21875 25.484375 53.609375 
Q 29.78125 56 35.6875 56 
Q 41.65625 56 45.828125 52.96875 
Q 50 49.953125 52 44.1875 
z
" id="DejaVuSans-109"/>
     <path d="M 11.71875 12.40625 
L 22.015625 12.40625 
L 22.015625 4 
L 14.015625 -11.625 
L 7.71875 -11.625 
L 11.71875 4 
z
" id="DejaVuSans-44"/>
     <path d="M 9.8125 72.90625 
L 24.515625 72.90625 
L 43.109375 23.296875 
L 61.8125 72.90625 
L 76.515625 72.90625 
L 76.515625 0 
L 66.890625 0 
L 66.890625 64.015625 
L 48.09375 14.015625 
L 38.1875 14.015625 
L 19.390625 64.015625 
L 19.390625 0 
L 9.8125 0 
z
" id="DejaVuSans-77"/>
     <path d="M 34.1875 63.1875 
L 20.796875 26.90625 
L 47.609375 26.90625 
z
M 28.609375 72.90625 
L 39.796875 72.90625 
L 67.578125 0 
L 57.328125 0 
L 50.6875 18.703125 
L 17.828125 18.703125 
L 11.1875 0 
L 0.78125 0 
z
" id="DejaVuSans-65"/>
     <path d="M 10.59375 45.40625 
L 73.1875 45.40625 
L 73.1875 37.203125 
L 10.59375 37.203125 
z
M 10.59375 25.484375 
L 73.1875 25.484375 
L 73.1875 17.1875 
L 10.59375 17.1875 
z
" id="DejaVuSans-61"/>
    </defs>
    <g transform="translate(108.40875 20.52)scale(0.12 -0.12)">
     <use xlink:href="#DejaVuSans-103"/>
     <use x="63.476562" xlink:href="#DejaVuSans-114"/>
     <use x="104.589844" xlink:href="#DejaVuSans-105"/>
     <use x="132.373047" xlink:href="#DejaVuSans-100"/>
     <use x="195.849609" xlink:href="#DejaVuSans-119"/>
     <use x="277.636719" xlink:href="#DejaVuSans-111"/>
     <use x="338.818359" xlink:href="#DejaVuSans-114"/>
     <use x="379.931641" xlink:href="#DejaVuSans-108"/>
     <use x="407.714844" xlink:href="#DejaVuSans-100"/>
     <use x="471.191406" xlink:href="#DejaVuSans-95"/>
     <use x="521.191406" xlink:href="#DejaVuSans-53"/>
     <use x="584.814453" xlink:href="#DejaVuSans-120"/>
     <use x="643.994141" xlink:href="#DejaVuSans-53"/>
     <use x="707.617188" xlink:href="#DejaVuSans-95"/>
     <use x="757.617188" xlink:href="#DejaVuSans-49"/>
     <use x="821.240234" xlink:href="#DejaVuSans-48"/>
     <use x="884.863281" xlink:href="#DejaVuSans-48"/>
     <use x="948.486328" xlink:href="#DejaVuSans-95"/>
     <use x="998.486328" xlink:href="#DejaVuSans-50"/>
     <use x="1062.109375" xlink:href="#DejaVuSans-95"/>
     <use x="1112.109375" xlink:href="#DejaVuSans-56"/>
     <use x="1175.732422" xlink:href="#DejaVuSans-95"/>
     <use x="1225.732422" xlink:href="#DejaVuSans-52"/>
     <use x="1289.355469" xlink:href="#DejaVuSans-50"/>
     <use x="1352.978516" xlink:href="#DejaVuSans-95"/>
     <use x="1402.978516" xlink:href="#DejaVuSans-95"/>
     <use x="1452.978516" xlink:href="#DejaVuSans-49"/>
     <use x="1516.601562" xlink:href="#DejaVuSans-58"/>
     <use x="1550.292969" xlink:href="#DejaVuSans-32"/>
     <use x="1582.080078" xlink:href="#DejaVuSans-101"/>
     <use x="1643.603516" xlink:href="#DejaVuSans-112"/>
     <use x="1707.080078" xlink:href="#DejaVuSans-105"/>
     <use x="1734.863281" xlink:href="#DejaVuSans-115"/>
     <use x="1786.962891" xlink:href="#DejaVuSans-111"/>
     <use x="1848.144531" xlink:href="#DejaVuSans-100"/>
     <use x="1911.621094" xlink:href="#DejaVuSans-101"/>
     <use x="1973.144531" xlink:href="#DejaVuSans-32"/>
     <use x="2004.931641" xlink:href="#DejaVuSans-100"/>
     <use x="2068.408203" xlink:href="#DejaVuSans-117"/>
     <use x="2131.787109" xlink:href="#DejaVuSans-114"/>
     <use x="2172.900391" xlink:href="#DejaVuSans-97"/>
     <use x="2234.179688" xlink:href="#DejaVuSans-116"/>
     <use x="2273.388672" xlink:href="#DejaVuSans-105"/>
     <use x="2301.171875" xlink:href="#DejaVuSans-111"/>
     <use x="2362.353516" xlink:href="#DejaVuSans-110"/>
     <use x="2425.732422" xlink:href="#DejaVuSans-32"/>
     <use x="2457.519531" xlink:href="#DejaVuSans-105"/>
     <use x="2485.302734" xlink:href="#DejaVuSans-110"/>
     <use x="2548.681641" xlink:href="#DejaVuSans-32"/>
     <use x="2580.46875" xlink:href="#DejaVuSans-115"/>
     <use x="2632.568359" xlink:href="#DejaVuSans-116"/>
     <use x="2671.777344" xlink:href="#DejaVuSans-101"/>
     <use x="2733.300781" xlink:href="#DejaVuSans-112"/>
     <use x="2796.777344" xlink:href="#DejaVuSans-115"/>
     <use x="2848.876953" xlink:href="#DejaVuSans-32"/>
     <use x="2880.664062" xlink:href="#DejaVuSans-108"/>
     <use x="2908.447266" xlink:href="#DejaVuSans-111"/>
     <use x="2969.628906" xlink:href="#DejaVuSans-103"/>
     <use x="3033.105469" xlink:href="#DejaVuSans-45"/>
     <use x="3069.189453" xlink:href="#DejaVuSans-114"/>
     <use x="3110.271484" xlink:href="#DejaVuSans-101"/>
     <use x="3171.794922" xlink:href="#DejaVuSans-108"/>
     <use x="3199.578125" xlink:href="#DejaVuSans-97"/>
     <use x="3260.857422" xlink:href="#DejaVuSans-116"/>
     <use x="3300.066406" xlink:href="#DejaVuSans-105"/>
     <use x="3327.849609" xlink:href="#DejaVuSans-118"/>
     <use x="3387.029297" xlink:href="#DejaVuSans-101"/>
     <use x="3448.552734" xlink:href="#DejaVuSans-32"/>
     <use x="3480.339844" xlink:href="#DejaVuSans-116"/>
     <use x="3519.548828" xlink:href="#DejaVuSans-111"/>
     <use x="3580.730469" xlink:href="#DejaVuSans-32"/>
     <use x="3612.517578" xlink:href="#DejaVuSans-96"/>
     <use x="3662.517578" xlink:href="#DejaVuSans-104"/>
     <use x="3725.896484" xlink:href="#DejaVuSans-116"/>
     <use x="3765.105469" xlink:href="#DejaVuSans-109"/>
     <use x="3862.517578" xlink:href="#DejaVuSans-95"/>
     <use x="3912.517578" xlink:href="#DejaVuSans-49"/>
     <use x="3976.140625" xlink:href="#DejaVuSans-95"/>
     <use x="4026.140625" xlink:href="#DejaVuSans-49"/>
     <use x="4089.763672" xlink:href="#DejaVuSans-103"/>
     <use x="4153.240234" xlink:href="#DejaVuSans-96"/>
     <use x="4203.240234" xlink:href="#DejaVuSans-44"/>
     <use x="4235.027344" xlink:href="#DejaVuSans-32"/>
     <use x="4266.814453" xlink:href="#DejaVuSans-77"/>
     <use x="4353.09375" xlink:href="#DejaVuSans-65"/>
     <use x="4421.501953" xlink:href="#DejaVuSans-61"/>
     <use x="4505.291016" xlink:href="#DejaVuSans-52"/>
     <use x="4568.914062" xlink:href="#DejaVuSans-48"/>
    </g>
   </g>
   <g id="legend_1">
    <g id="patch_7">
     <path d="M 771.375125 231.77625 
L 852.447 231.77625 
Q 854.447 231.77625 854.447 229.77625 
L 854.447 200.86375 
Q 854.447 198.86375 852.447 198.86375 
L 771.375125 198.86375 
Q 769.375125 198.86375 769.375125 200.86375 
L 769.375125 229.77625 
Q 769.375125 231.77625 771.375125 231.77625 
z
" style="fill:#ffffff;opacity:0.8;stroke:#cccccc;stroke-linejoin:miter;"/>
    </g>
    <g id="line2d_18">
     <path d="M 773.375125 206.962187 
L 793.375125 206.962187 
" style="fill:none;stroke:#1f77b4;stroke-linecap:square;stroke-width:1.5;"/>
    </g>
    <g id="line2d_19"/>
    <g id="text_17">
     <!-- htm_1_1g -->
     <g transform="translate(801.375125 210.462187)scale(0.1 -0.1)">
      <use xlink:href="#DejaVuSans-104"/>
      <use x="63.378906" xlink:href="#DejaVuSans-116"/>
      <use x="102.587891" xlink:href="#DejaVuSans-109"/>
      <use x="200" xlink:href="#DejaVuSans-95"/>
      <use x="250" xlink:href="#DejaVuSans-49"/>
      <use x="313.623047" xlink:href="#DejaVuSans-95"/>
      <use x="363.623047" xlink:href="#DejaVuSans-49"/>
      <use x="427.246094" xlink:href="#DejaVuSans-103"/>
     </g>
    </g>
    <g id="line2d_20">
     <path d="M 773.375125 221.918437 
L 793.375125 221.918437 
" style="fill:none;stroke:#ff7f0e;stroke-linecap:square;stroke-width:1.5;"/>
    </g>
    <g id="line2d_21"/>
    <g id="text_18">
     <!-- htm_1_4g -->
     <g transform="translate(801.375125 225.418437)scale(0.1 -0.1)">
      <use xlink:href="#DejaVuSans-104"/>
      <use x="63.378906" xlink:href="#DejaVuSans-116"/>
      <use x="102.587891" xlink:href="#DejaVuSans-109"/>
      <use x="200" xlink:href="#DejaVuSans-95"/>
      <use x="250" xlink:href="#DejaVuSans-49"/>
      <use x="313.623047" xlink:href="#DejaVuSans-95"/>
      <use x="363.623047" xlink:href="#DejaVuSans-52"/>
      <use x="427.246094" xlink:href="#DejaVuSans-103"/>
     </g>
    </g>
   </g>
  </g>
 </g>
 <defs>
  <clipPath id="p15be7d77c4">
   <rect height="377.6" width="675.835" x="48.445" y="26.52"/>
  </clipPath>
 </defs>
</svg>
