<?xml version="1.0" encoding="utf-8" standalone="no"?>
<!DOCTYPE svg PUBLIC "-//W3C//DTD SVG 1.1//EN"
  "http://www.w3.org/Graphics/SVG/1.1/DTD/svg11.dtd">
<!-- Created with matplotlib (https://matplotlib.org/) -->
<svg height="432pt" version="1.1" viewBox="0 0 864 432" width="864pt" xmlns="http://www.w3.org/2000/svg" xmlns:xlink="http://www.w3.org/1999/xlink">
 <defs>
  <style type="text/css">
*{stroke-linecap:butt;stroke-linejoin:round;}
  </style>
 </defs>
 <g id="figure_1">
  <g id="patch_1">
   <path d="M 0 432 
L 864 432 
L 864 0 
L 0 0 
z
" style="fill:#ffffff;"/>
  </g>
  <g id="axes_1">
   <g id="patch_2">
    <path d="M 30.58 404.12 
L 724.28 404.12 
L 724.28 26.16 
L 30.58 26.16 
z
" style="fill:#ffffff;"/>
   </g>
   <g id="matplotlib.axis_1">
    <g id="xtick_1">
     <g id="line2d_1">
      <defs>
       <path d="M 0 0 
L 0 3.5 
" id="m446a659c41" style="stroke:#000000;stroke-width:0.8;"/>
      </defs>
      <g>
       <use style="stroke:#000000;stroke-width:0.8;" x="30.58" xlink:href="#m446a659c41" y="404.12"/>
      </g>
     </g>
     <g id="text_1">
      <!-- 0 -->
      <defs>
       <path d="M 31.78125 66.40625 
Q 24.171875 66.40625 20.328125 58.90625 
Q 16.5 51.421875 16.5 36.375 
Q 16.5 21.390625 20.328125 13.890625 
Q 24.171875 6.390625 31.78125 6.390625 
Q 39.453125 6.390625 43.28125 13.890625 
Q 47.125 21.390625 47.125 36.375 
Q 47.125 51.421875 43.28125 58.90625 
Q 39.453125 66.40625 31.78125 66.40625 
z
M 31.78125 74.21875 
Q 44.046875 74.21875 50.515625 64.515625 
Q 56.984375 54.828125 56.984375 36.375 
Q 56.984375 17.96875 50.515625 8.265625 
Q 44.046875 -1.421875 31.78125 -1.421875 
Q 19.53125 -1.421875 13.0625 8.265625 
Q 6.59375 17.96875 6.59375 36.375 
Q 6.59375 54.828125 13.0625 64.515625 
Q 19.53125 74.21875 31.78125 74.21875 
z
" id="DejaVuSans-48"/>
      </defs>
      <g transform="translate(27.39875 418.718437)scale(0.1 -0.1)">
       <use xlink:href="#DejaVuSans-48"/>
      </g>
     </g>
    </g>
    <g id="xtick_2">
     <g id="line2d_2">
      <g>
       <use style="stroke:#000000;stroke-width:0.8;" x="117.401026" xlink:href="#m446a659c41" y="404.12"/>
      </g>
     </g>
     <g id="text_2">
      <!-- 100 -->
      <defs>
       <path d="M 12.40625 8.296875 
L 28.515625 8.296875 
L 28.515625 63.921875 
L 10.984375 60.40625 
L 10.984375 69.390625 
L 28.421875 72.90625 
L 38.28125 72.90625 
L 38.28125 8.296875 
L 54.390625 8.296875 
L 54.390625 0 
L 12.40625 0 
z
" id="DejaVuSans-49"/>
      </defs>
      <g transform="translate(107.857276 418.718437)scale(0.1 -0.1)">
       <use xlink:href="#DejaVuSans-49"/>
       <use x="63.623047" xlink:href="#DejaVuSans-48"/>
       <use x="127.246094" xlink:href="#DejaVuSans-48"/>
      </g>
     </g>
    </g>
    <g id="xtick_3">
     <g id="line2d_3">
      <g>
       <use style="stroke:#000000;stroke-width:0.8;" x="204.222053" xlink:href="#m446a659c41" y="404.12"/>
      </g>
     </g>
     <g id="text_3">
      <!-- 200 -->
      <defs>
       <path d="M 19.1875 8.296875 
L 53.609375 8.296875 
L 53.609375 0 
L 7.328125 0 
L 7.328125 8.296875 
Q 12.9375 14.109375 22.625 23.890625 
Q 32.328125 33.6875 34.8125 36.53125 
Q 39.546875 41.84375 41.421875 45.53125 
Q 43.3125 49.21875 43.3125 52.78125 
Q 43.3125 58.59375 39.234375 62.25 
Q 35.15625 65.921875 28.609375 65.921875 
Q 23.96875 65.921875 18.8125 64.3125 
Q 13.671875 62.703125 7.8125 59.421875 
L 7.8125 69.390625 
Q 13.765625 71.78125 18.9375 73 
Q 24.125 74.21875 28.421875 74.21875 
Q 39.75 74.21875 46.484375 68.546875 
Q 53.21875 62.890625 53.21875 53.421875 
Q 53.21875 48.921875 51.53125 44.890625 
Q 49.859375 40.875 45.40625 35.40625 
Q 44.1875 33.984375 37.640625 27.21875 
Q 31.109375 20.453125 19.1875 8.296875 
z
" id="DejaVuSans-50"/>
      </defs>
      <g transform="translate(194.678303 418.718437)scale(0.1 -0.1)">
       <use xlink:href="#DejaVuSans-50"/>
       <use x="63.623047" xlink:href="#DejaVuSans-48"/>
       <use x="127.246094" xlink:href="#DejaVuSans-48"/>
      </g>
     </g>
    </g>
    <g id="xtick_4">
     <g id="line2d_4">
      <g>
       <use style="stroke:#000000;stroke-width:0.8;" x="291.043079" xlink:href="#m446a659c41" y="404.12"/>
      </g>
     </g>
     <g id="text_4">
      <!-- 300 -->
      <defs>
       <path d="M 40.578125 39.3125 
Q 47.65625 37.796875 51.625 33 
Q 55.609375 28.21875 55.609375 21.1875 
Q 55.609375 10.40625 48.1875 4.484375 
Q 40.765625 -1.421875 27.09375 -1.421875 
Q 22.515625 -1.421875 17.65625 -0.515625 
Q 12.796875 0.390625 7.625 2.203125 
L 7.625 11.71875 
Q 11.71875 9.328125 16.59375 8.109375 
Q 21.484375 6.890625 26.8125 6.890625 
Q 36.078125 6.890625 40.9375 10.546875 
Q 45.796875 14.203125 45.796875 21.1875 
Q 45.796875 27.640625 41.28125 31.265625 
Q 36.765625 34.90625 28.71875 34.90625 
L 20.21875 34.90625 
L 20.21875 43.015625 
L 29.109375 43.015625 
Q 36.375 43.015625 40.234375 45.921875 
Q 44.09375 48.828125 44.09375 54.296875 
Q 44.09375 59.90625 40.109375 62.90625 
Q 36.140625 65.921875 28.71875 65.921875 
Q 24.65625 65.921875 20.015625 65.03125 
Q 15.375 64.15625 9.8125 62.3125 
L 9.8125 71.09375 
Q 15.4375 72.65625 20.34375 73.4375 
Q 25.25 74.21875 29.59375 74.21875 
Q 40.828125 74.21875 47.359375 69.109375 
Q 53.90625 64.015625 53.90625 55.328125 
Q 53.90625 49.265625 50.4375 45.09375 
Q 46.96875 40.921875 40.578125 39.3125 
z
" id="DejaVuSans-51"/>
      </defs>
      <g transform="translate(281.499329 418.718437)scale(0.1 -0.1)">
       <use xlink:href="#DejaVuSans-51"/>
       <use x="63.623047" xlink:href="#DejaVuSans-48"/>
       <use x="127.246094" xlink:href="#DejaVuSans-48"/>
      </g>
     </g>
    </g>
    <g id="xtick_5">
     <g id="line2d_5">
      <g>
       <use style="stroke:#000000;stroke-width:0.8;" x="377.864105" xlink:href="#m446a659c41" y="404.12"/>
      </g>
     </g>
     <g id="text_5">
      <!-- 400 -->
      <defs>
       <path d="M 37.796875 64.3125 
L 12.890625 25.390625 
L 37.796875 25.390625 
z
M 35.203125 72.90625 
L 47.609375 72.90625 
L 47.609375 25.390625 
L 58.015625 25.390625 
L 58.015625 17.1875 
L 47.609375 17.1875 
L 47.609375 0 
L 37.796875 0 
L 37.796875 17.1875 
L 4.890625 17.1875 
L 4.890625 26.703125 
z
" id="DejaVuSans-52"/>
      </defs>
      <g transform="translate(368.320355 418.718437)scale(0.1 -0.1)">
       <use xlink:href="#DejaVuSans-52"/>
       <use x="63.623047" xlink:href="#DejaVuSans-48"/>
       <use x="127.246094" xlink:href="#DejaVuSans-48"/>
      </g>
     </g>
    </g>
    <g id="xtick_6">
     <g id="line2d_6">
      <g>
       <use style="stroke:#000000;stroke-width:0.8;" x="464.685131" xlink:href="#m446a659c41" y="404.12"/>
      </g>
     </g>
     <g id="text_6">
      <!-- 500 -->
      <defs>
       <path d="M 10.796875 72.90625 
L 49.515625 72.90625 
L 49.515625 64.59375 
L 19.828125 64.59375 
L 19.828125 46.734375 
Q 21.96875 47.46875 24.109375 47.828125 
Q 26.265625 48.1875 28.421875 48.1875 
Q 40.625 48.1875 47.75 41.5 
Q 54.890625 34.8125 54.890625 23.390625 
Q 54.890625 11.625 47.5625 5.09375 
Q 40.234375 -1.421875 26.90625 -1.421875 
Q 22.3125 -1.421875 17.546875 -0.640625 
Q 12.796875 0.140625 7.71875 1.703125 
L 7.71875 11.625 
Q 12.109375 9.234375 16.796875 8.0625 
Q 21.484375 6.890625 26.703125 6.890625 
Q 35.15625 6.890625 40.078125 11.328125 
Q 45.015625 15.765625 45.015625 23.390625 
Q 45.015625 31 40.078125 35.4375 
Q 35.15625 39.890625 26.703125 39.890625 
Q 22.75 39.890625 18.8125 39.015625 
Q 14.890625 38.140625 10.796875 36.28125 
z
" id="DejaVuSans-53"/>
      </defs>
      <g transform="translate(455.141381 418.718437)scale(0.1 -0.1)">
       <use xlink:href="#DejaVuSans-53"/>
       <use x="63.623047" xlink:href="#DejaVuSans-48"/>
       <use x="127.246094" xlink:href="#DejaVuSans-48"/>
      </g>
     </g>
    </g>
    <g id="xtick_7">
     <g id="line2d_7">
      <g>
       <use style="stroke:#000000;stroke-width:0.8;" x="551.506158" xlink:href="#m446a659c41" y="404.12"/>
      </g>
     </g>
     <g id="text_7">
      <!-- 600 -->
      <defs>
       <path d="M 33.015625 40.375 
Q 26.375 40.375 22.484375 35.828125 
Q 18.609375 31.296875 18.609375 23.390625 
Q 18.609375 15.53125 22.484375 10.953125 
Q 26.375 6.390625 33.015625 6.390625 
Q 39.65625 6.390625 43.53125 10.953125 
Q 47.40625 15.53125 47.40625 23.390625 
Q 47.40625 31.296875 43.53125 35.828125 
Q 39.65625 40.375 33.015625 40.375 
z
M 52.59375 71.296875 
L 52.59375 62.3125 
Q 48.875 64.0625 45.09375 64.984375 
Q 41.3125 65.921875 37.59375 65.921875 
Q 27.828125 65.921875 22.671875 59.328125 
Q 17.53125 52.734375 16.796875 39.40625 
Q 19.671875 43.65625 24.015625 45.921875 
Q 28.375 48.1875 33.59375 48.1875 
Q 44.578125 48.1875 50.953125 41.515625 
Q 57.328125 34.859375 57.328125 23.390625 
Q 57.328125 12.15625 50.6875 5.359375 
Q 44.046875 -1.421875 33.015625 -1.421875 
Q 20.359375 -1.421875 13.671875 8.265625 
Q 6.984375 17.96875 6.984375 36.375 
Q 6.984375 53.65625 15.1875 63.9375 
Q 23.390625 74.21875 37.203125 74.21875 
Q 40.921875 74.21875 44.703125 73.484375 
Q 48.484375 72.75 52.59375 71.296875 
z
" id="DejaVuSans-54"/>
      </defs>
      <g transform="translate(541.962408 418.718437)scale(0.1 -0.1)">
       <use xlink:href="#DejaVuSans-54"/>
       <use x="63.623047" xlink:href="#DejaVuSans-48"/>
       <use x="127.246094" xlink:href="#DejaVuSans-48"/>
      </g>
     </g>
    </g>
    <g id="xtick_8">
     <g id="line2d_8">
      <g>
       <use style="stroke:#000000;stroke-width:0.8;" x="638.327184" xlink:href="#m446a659c41" y="404.12"/>
      </g>
     </g>
     <g id="text_8">
      <!-- 700 -->
      <defs>
       <path d="M 8.203125 72.90625 
L 55.078125 72.90625 
L 55.078125 68.703125 
L 28.609375 0 
L 18.3125 0 
L 43.21875 64.59375 
L 8.203125 64.59375 
z
" id="DejaVuSans-55"/>
      </defs>
      <g transform="translate(628.783434 418.718437)scale(0.1 -0.1)">
       <use xlink:href="#DejaVuSans-55"/>
       <use x="63.623047" xlink:href="#DejaVuSans-48"/>
       <use x="127.246094" xlink:href="#DejaVuSans-48"/>
      </g>
     </g>
    </g>
   </g>
   <g id="matplotlib.axis_2">
    <g id="ytick_1">
     <g id="line2d_9">
      <defs>
       <path d="M 0 0 
L -3.5 0 
" id="m7e33300004" style="stroke:#000000;stroke-width:0.8;"/>
      </defs>
      <g>
       <use style="stroke:#000000;stroke-width:0.8;" x="30.58" xlink:href="#m7e33300004" y="364.829893"/>
      </g>
     </g>
     <g id="text_9">
      <!-- 10 -->
      <g transform="translate(10.855 368.629112)scale(0.1 -0.1)">
       <use xlink:href="#DejaVuSans-49"/>
       <use x="63.623047" xlink:href="#DejaVuSans-48"/>
      </g>
     </g>
    </g>
    <g id="ytick_2">
     <g id="line2d_10">
      <g>
       <use style="stroke:#000000;stroke-width:0.8;" x="30.58" xlink:href="#m7e33300004" y="320.163009"/>
      </g>
     </g>
     <g id="text_10">
      <!-- 20 -->
      <g transform="translate(10.855 323.962228)scale(0.1 -0.1)">
       <use xlink:href="#DejaVuSans-50"/>
       <use x="63.623047" xlink:href="#DejaVuSans-48"/>
      </g>
     </g>
    </g>
    <g id="ytick_3">
     <g id="line2d_11">
      <g>
       <use style="stroke:#000000;stroke-width:0.8;" x="30.58" xlink:href="#m7e33300004" y="275.496126"/>
      </g>
     </g>
     <g id="text_11">
      <!-- 30 -->
      <g transform="translate(10.855 279.295345)scale(0.1 -0.1)">
       <use xlink:href="#DejaVuSans-51"/>
       <use x="63.623047" xlink:href="#DejaVuSans-48"/>
      </g>
     </g>
    </g>
    <g id="ytick_4">
     <g id="line2d_12">
      <g>
       <use style="stroke:#000000;stroke-width:0.8;" x="30.58" xlink:href="#m7e33300004" y="230.829243"/>
      </g>
     </g>
     <g id="text_12">
      <!-- 40 -->
      <g transform="translate(10.855 234.628462)scale(0.1 -0.1)">
       <use xlink:href="#DejaVuSans-52"/>
       <use x="63.623047" xlink:href="#DejaVuSans-48"/>
      </g>
     </g>
    </g>
    <g id="ytick_5">
     <g id="line2d_13">
      <g>
       <use style="stroke:#000000;stroke-width:0.8;" x="30.58" xlink:href="#m7e33300004" y="186.162359"/>
      </g>
     </g>
     <g id="text_13">
      <!-- 50 -->
      <g transform="translate(10.855 189.961578)scale(0.1 -0.1)">
       <use xlink:href="#DejaVuSans-53"/>
       <use x="63.623047" xlink:href="#DejaVuSans-48"/>
      </g>
     </g>
    </g>
    <g id="ytick_6">
     <g id="line2d_14">
      <g>
       <use style="stroke:#000000;stroke-width:0.8;" x="30.58" xlink:href="#m7e33300004" y="141.495476"/>
      </g>
     </g>
     <g id="text_14">
      <!-- 60 -->
      <g transform="translate(10.855 145.294695)scale(0.1 -0.1)">
       <use xlink:href="#DejaVuSans-54"/>
       <use x="63.623047" xlink:href="#DejaVuSans-48"/>
      </g>
     </g>
    </g>
    <g id="ytick_7">
     <g id="line2d_15">
      <g>
       <use style="stroke:#000000;stroke-width:0.8;" x="30.58" xlink:href="#m7e33300004" y="96.828593"/>
      </g>
     </g>
     <g id="text_15">
      <!-- 70 -->
      <g transform="translate(10.855 100.627812)scale(0.1 -0.1)">
       <use xlink:href="#DejaVuSans-55"/>
       <use x="63.623047" xlink:href="#DejaVuSans-48"/>
      </g>
     </g>
    </g>
    <g id="ytick_8">
     <g id="line2d_16">
      <g>
       <use style="stroke:#000000;stroke-width:0.8;" x="30.58" xlink:href="#m7e33300004" y="52.161709"/>
      </g>
     </g>
     <g id="text_16">
      <!-- 80 -->
      <defs>
       <path d="M 31.78125 34.625 
Q 24.75 34.625 20.71875 30.859375 
Q 16.703125 27.09375 16.703125 20.515625 
Q 16.703125 13.921875 20.71875 10.15625 
Q 24.75 6.390625 31.78125 6.390625 
Q 38.8125 6.390625 42.859375 10.171875 
Q 46.921875 13.96875 46.921875 20.515625 
Q 46.921875 27.09375 42.890625 30.859375 
Q 38.875 34.625 31.78125 34.625 
z
M 21.921875 38.8125 
Q 15.578125 40.375 12.03125 44.71875 
Q 8.5 49.078125 8.5 55.328125 
Q 8.5 64.0625 14.71875 69.140625 
Q 20.953125 74.21875 31.78125 74.21875 
Q 42.671875 74.21875 48.875 69.140625 
Q 55.078125 64.0625 55.078125 55.328125 
Q 55.078125 49.078125 51.53125 44.71875 
Q 48 40.375 41.703125 38.8125 
Q 48.828125 37.15625 52.796875 32.3125 
Q 56.78125 27.484375 56.78125 20.515625 
Q 56.78125 9.90625 50.3125 4.234375 
Q 43.84375 -1.421875 31.78125 -1.421875 
Q 19.734375 -1.421875 13.25 4.234375 
Q 6.78125 9.90625 6.78125 20.515625 
Q 6.78125 27.484375 10.78125 32.3125 
Q 14.796875 37.15625 21.921875 38.8125 
z
M 18.3125 54.390625 
Q 18.3125 48.734375 21.84375 45.5625 
Q 25.390625 42.390625 31.78125 42.390625 
Q 38.140625 42.390625 41.71875 45.5625 
Q 45.3125 48.734375 45.3125 54.390625 
Q 45.3125 60.0625 41.71875 63.234375 
Q 38.140625 66.40625 31.78125 66.40625 
Q 25.390625 66.40625 21.84375 63.234375 
Q 18.3125 60.0625 18.3125 54.390625 
z
" id="DejaVuSans-56"/>
      </defs>
      <g transform="translate(10.855 55.960928)scale(0.1 -0.1)">
       <use xlink:href="#DejaVuSans-56"/>
       <use x="63.623047" xlink:href="#DejaVuSans-48"/>
      </g>
     </g>
    </g>
   </g>
   <g id="line2d_17">
    <path clip-path="url(#p8aa46e5d25)" d="M 64.4402 333.33974 
L 65.308411 340.93311 
L 66.176621 342.049782 
L 67.044831 347.409808 
L 67.913041 350.201488 
L 68.781252 345.176464 
L 69.649462 344.841462 
L 70.517672 346.516471 
L 71.385882 346.404803 
L 72.254093 347.856477 
L 73.122303 343.836458 
L 73.990513 341.379779 
L 74.858723 339.258102 
L 75.726934 342.94312 
L 76.595144 348.414813 
L 77.463354 361.033208 
L 78.331564 356.678187 
L 79.199775 353.774839 
L 80.067985 353.663172 
L 80.936195 357.683191 
L 81.804406 357.459857 
L 82.672616 353.886506 
L 83.540826 353.886506 
L 84.409036 356.678187 
L 85.277247 357.906526 
L 86.145457 359.804868 
L 87.013667 359.246532 
L 87.881877 360.92154 
L 89.618298 356.008183 
L 90.486508 355.33818 
L 91.354718 353.663172 
L 92.222929 353.774839 
L 93.091139 352.323165 
L 93.959349 345.7348 
L 94.827559 345.064797 
L 95.69577 343.166454 
L 96.56398 342.384784 
L 97.43219 340.93311 
L 98.300401 342.719786 
L 99.168611 338.364764 
L 100.036821 337.248092 
L 100.905031 336.801423 
L 101.773242 336.578089 
L 102.641452 327.086376 
L 103.509662 332.446402 
L 104.377872 332.446402 
L 105.246083 332.55807 
L 106.114293 330.883061 
L 106.982503 329.654722 
L 107.850713 334.233078 
L 108.718924 335.238083 
L 109.587134 338.253097 
L 110.455344 334.791414 
L 111.323554 333.228073 
L 112.191765 332.223068 
L 113.059975 336.578089 
L 113.928185 338.9231 
L 114.796395 339.034768 
L 115.664606 339.369769 
L 116.532816 338.811433 
L 117.401026 333.563074 
L 118.269237 333.563074 
L 119.137447 333.451407 
L 120.005657 311.452967 
L 120.873867 305.534605 
L 121.742078 306.092941 
L 122.610288 307.32128 
L 123.478498 310.671297 
L 124.346708 313.127975 
L 125.214919 312.234638 
L 126.083129 314.021313 
L 126.951339 295.149555 
L 127.819549 296.266227 
L 128.68776 303.077927 
L 129.55597 302.519591 
L 130.42418 304.5296 
L 131.29239 302.966259 
L 132.160601 293.586214 
L 133.028811 293.139545 
L 133.897021 293.697881 
L 134.765232 291.576204 
L 135.633442 286.774514 
L 136.501652 284.652837 
L 137.369862 294.92622 
L 138.238073 286.662847 
L 139.106283 279.962814 
L 139.974493 277.171134 
L 140.842703 271.141105 
L 141.710914 272.369444 
L 142.579124 272.257777 
L 143.447334 275.049457 
L 144.315544 278.287806 
L 145.183755 279.069477 
L 146.051965 280.409483 
L 146.920175 273.486116 
L 148.656596 264.329405 
L 149.524806 251.264342 
L 150.393016 245.680981 
L 151.261227 243.112636 
L 152.129437 251.934345 
L 152.997647 247.244322 
L 153.865857 247.35599 
L 154.734068 263.101066 
L 155.602278 266.004413 
L 157.338698 261.426058 
L 158.206909 254.391024 
L 159.075119 248.360994 
L 159.943329 249.477667 
L 160.811539 239.762619 
L 161.67975 258.634378 
L 162.54796 259.081046 
L 163.41617 257.964374 
L 164.28438 260.086051 
L 166.020801 259.862717 
L 166.889011 268.237758 
L 167.757222 268.237758 
L 168.625432 263.212733 
L 169.493642 261.761059 
L 170.361852 264.887741 
L 171.230063 267.232753 
L 172.098273 266.339415 
L 172.966483 275.049457 
L 173.834693 280.967819 
L 174.702904 280.52115 
L 175.571114 287.33285 
L 176.439324 285.992844 
L 177.307534 285.546175 
L 178.175745 286.327845 
L 179.043955 270.359435 
L 179.912165 273.151115 
L 180.780375 273.374449 
L 181.648586 279.627813 
L 182.516796 272.92778 
L 183.385006 277.841137 
L 184.253217 290.906201 
L 185.121427 291.129535 
L 185.989637 292.13454 
L 186.857847 292.13454 
L 187.726058 289.677862 
L 188.594268 289.34286 
L 189.462478 295.261222 
L 190.330688 285.211173 
L 191.198899 284.987839 
L 192.067109 286.662847 
L 192.935319 293.586214 
L 193.803529 299.281241 
L 194.67174 299.72791 
L 195.53995 306.316276 
L 196.40816 306.204608 
L 197.27637 301.626253 
L 198.144581 299.72791 
L 199.012791 299.504576 
L 199.881001 299.72791 
L 200.749212 302.296256 
L 201.617422 303.189594 
L 202.485632 300.397914 
L 203.353842 291.464537 
L 204.222053 290.794534 
L 205.090263 292.022873 
L 205.958473 291.129535 
L 207.694894 289.901196 
L 208.563104 290.236198 
L 209.431314 292.916211 
L 210.299524 291.35287 
L 211.167735 287.556185 
L 212.035945 288.114521 
L 212.904155 284.317836 
L 213.772365 296.93623 
L 214.640576 294.032883 
L 215.508786 293.809548 
L 216.376996 295.484556 
L 217.245207 305.534605 
L 218.113417 303.971264 
L 218.981627 303.301261 
L 219.849837 300.844582 
L 220.718048 301.291251 
L 221.586258 298.052902 
L 222.454468 305.087936 
L 223.322678 304.194599 
L 224.190889 302.184589 
L 225.059099 315.249652 
L 225.927309 318.153 
L 226.795519 317.817998 
L 227.66373 318.041332 
L 228.53194 314.021313 
L 229.40015 313.239643 
L 230.26836 315.361319 
L 231.136571 312.346305 
L 232.004781 316.92466 
L 233.741202 316.031323 
L 234.609412 312.346305 
L 235.477622 311.006298 
L 236.345832 312.457972 
L 237.214043 315.696321 
L 238.082253 330.659727 
L 238.950463 333.786409 
L 239.818673 331.664732 
L 240.686884 331.664732 
L 241.555094 333.004738 
L 242.423304 332.223068 
L 244.159725 333.116406 
L 245.027935 335.684751 
L 245.896145 339.816438 
L 246.764355 339.816438 
L 247.632566 335.014748 
L 248.500776 338.364764 
L 249.368986 334.233078 
L 250.237196 334.233078 
L 251.105407 333.33974 
L 251.973617 334.456412 
L 252.841827 336.019753 
L 253.710038 334.791414 
L 254.578248 341.156445 
L 255.446458 342.608118 
L 256.314668 345.623133 
L 257.182879 345.623133 
L 258.051089 345.7348 
L 258.919299 347.968144 
L 259.787509 346.739805 
L 260.65572 346.516471 
L 261.52393 346.069802 
L 262.39214 345.958135 
L 263.26035 350.648157 
L 264.128561 345.064797 
L 264.996771 346.069802 
L 265.864981 347.409808 
L 266.733191 346.181469 
L 267.601402 349.419818 
L 268.469612 344.841462 
L 269.337822 348.52648 
L 270.206033 349.75482 
L 271.942453 349.866487 
L 272.810663 351.653162 
L 273.678874 352.658167 
L 274.547084 354.333175 
L 275.415294 353.774839 
L 276.283504 353.551505 
L 277.151715 353.998174 
L 278.019925 349.75482 
L 278.888135 349.978154 
L 280.624556 348.414813 
L 281.492766 343.948125 
L 282.360976 352.5465 
L 283.229186 352.323165 
L 284.097397 359.693201 
L 284.965607 357.013188 
L 285.833817 353.32817 
L 286.702028 353.551505 
L 287.570238 347.856477 
L 288.438448 344.841462 
L 289.306658 344.618128 
L 290.174869 345.064797 
L 291.043079 342.94312 
L 291.911289 342.384784 
L 292.779499 343.278122 
L 293.64771 340.709776 
L 294.51592 340.821443 
L 295.38413 337.248092 
L 296.25234 336.019753 
L 297.120551 333.228073 
L 297.988761 331.999734 
L 298.856971 337.35976 
L 299.725181 335.014748 
L 300.593392 335.461417 
L 302.329812 334.009743 
L 303.198023 335.34975 
L 304.066233 335.34975 
L 304.934443 334.12141 
L 305.802653 323.848027 
L 306.670864 323.848027 
L 307.539074 324.629698 
L 308.407284 324.406363 
L 310.143705 326.974709 
L 311.011915 320.721345 
L 311.880125 320.274677 
L 312.748335 324.406363 
L 313.616546 324.294696 
L 314.484756 324.964699 
L 315.352966 325.188034 
L 316.221176 328.984719 
L 317.089387 328.649717 
L 317.957597 327.868047 
L 319.694018 325.74637 
L 320.562228 330.659727 
L 321.430438 330.436393 
L 322.298648 336.243087 
L 323.166859 340.821443 
L 324.035069 340.821443 
L 324.903279 332.334735 
L 325.771489 334.568079 
L 326.6397 334.12141 
L 327.50791 333.898076 
L 328.37612 336.801423 
L 329.24433 336.578089 
L 330.112541 338.253097 
L 330.980751 341.268112 
L 331.848961 343.389789 
L 332.717171 344.729795 
L 333.585382 338.364764 
L 334.453592 338.588099 
L 335.321802 338.476432 
L 336.190013 340.374774 
L 337.058223 339.816438 
L 337.926433 342.719786 
L 338.794643 340.93311 
L 339.662854 342.273117 
L 340.531064 350.089821 
L 341.399274 350.089821 
L 343.135695 350.424823 
L 344.003905 348.079812 
L 344.872115 342.831453 
L 345.740325 349.308151 
L 346.608536 350.648157 
L 347.476746 347.186474 
L 348.344956 346.739805 
L 349.213166 346.516471 
L 350.081377 347.856477 
L 350.949587 348.52648 
L 351.817797 348.749815 
L 352.686008 349.75482 
L 353.554218 348.749815 
L 354.422428 352.434833 
L 355.290638 350.089821 
L 356.158849 350.089821 
L 357.027059 349.75482 
L 357.895269 349.978154 
L 358.763479 346.069802 
L 359.63169 354.444842 
L 360.4999 347.298141 
L 361.36811 347.968144 
L 362.23632 345.846467 
L 363.104531 345.7348 
L 363.972741 344.171459 
L 364.840951 345.7348 
L 365.709161 345.7348 
L 366.577372 346.404803 
L 367.445582 346.516471 
L 368.313792 353.216503 
L 369.182003 355.226513 
L 370.050213 356.678187 
L 370.918423 355.896516 
L 371.786633 356.454852 
L 372.654844 356.343185 
L 373.523054 357.683191 
L 374.391264 357.571524 
L 375.259474 359.469867 
L 376.995895 358.911531 
L 377.864105 360.13987 
L 378.732315 352.323165 
L 379.600526 356.566519 
L 381.336946 356.343185 
L 382.205156 359.581534 
L 383.073367 355.33818 
L 383.941577 355.003178 
L 386.546208 349.196484 
L 387.414418 349.196484 
L 388.282628 339.034768 
L 389.150839 336.801423 
L 390.019049 328.649717 
L 390.887259 323.959695 
L 391.755469 322.284686 
L 392.62368 316.366324 
L 393.49189 313.239643 
L 394.3601 313.35131 
L 395.22831 320.609678 
L 396.096521 321.056347 
L 396.964731 319.939675 
L 397.832941 317.371329 
L 398.701151 314.356315 
L 399.569362 310.782964 
L 400.437572 308.772954 
L 401.305782 308.996289 
L 402.173992 308.772954 
L 403.042203 308.326285 
L 403.910413 291.129535 
L 404.778623 289.677862 
L 405.646834 281.414488 
L 406.515044 264.106071 
L 407.383254 262.766064 
L 408.251464 251.487676 
L 409.119675 243.224303 
L 409.987885 232.169249 
L 410.856095 232.504251 
L 411.724305 230.717576 
L 412.592516 230.717576 
L 413.460726 236.077602 
L 414.328936 237.305941 
L 415.197146 235.965934 
L 416.065357 231.834248 
L 416.933567 230.270907 
L 417.801777 234.514261 
L 418.669987 235.184264 
L 419.538198 236.635938 
L 420.406408 235.072597 
L 421.274618 228.372564 
L 422.142829 223.794209 
L 423.011039 236.077602 
L 423.879249 238.199279 
L 424.747459 247.690991 
L 425.61567 251.376009 
L 426.48388 253.386019 
L 427.35209 259.416048 
L 428.2203 267.121085 
L 429.088511 264.999409 
L 429.956721 262.319396 
L 430.824931 261.984394 
L 431.693141 264.664407 
L 432.561352 257.74104 
L 433.429562 263.3244 
L 434.297772 267.456087 
L 435.165982 269.689431 
L 436.034193 265.892746 
L 436.902403 265.781079 
L 437.770613 266.786084 
L 438.638824 272.257777 
L 439.507034 273.597784 
L 440.375244 282.754495 
L 441.243454 299.839578 
L 442.111665 297.494566 
L 442.979875 307.767949 
L 443.848085 312.12297 
L 444.716295 322.508021 
L 445.584506 318.823003 
L 446.452716 317.371329 
L 447.320926 316.14299 
L 448.189136 319.158005 
L 449.057347 318.153 
L 449.925557 316.477992 
L 450.793767 320.833013 
L 451.661977 322.619688 
L 452.530188 314.244647 
L 453.398398 313.462977 
L 454.266608 313.797979 
L 455.134819 315.807988 
L 456.003029 324.406363 
L 456.871239 327.086376 
L 457.739449 323.066357 
L 458.60766 313.239643 
L 459.47587 314.244647 
L 460.34408 315.472987 
L 461.21229 311.899636 
L 462.080501 311.006298 
L 462.948711 312.12297 
L 463.816921 307.991284 
L 465.553342 306.762944 
L 466.421552 307.767949 
L 467.289762 316.366324 
L 468.157972 316.701326 
L 469.026183 311.229633 
L 469.894393 311.117966 
L 470.762603 309.889626 
L 471.630814 297.382899 
L 472.499024 294.367884 
L 473.367234 297.606233 
L 475.103655 265.669412 
L 475.971865 266.451082 
L 476.840075 263.212733 
L 477.708285 264.664407 
L 478.576496 258.411043 
L 479.444706 241.660962 
L 480.312916 228.484231 
L 481.181126 231.387579 
L 482.049337 232.504251 
L 482.917547 233.844257 
L 483.785757 229.712571 
L 484.653967 221.672532 
L 485.522178 205.257452 
L 486.390388 198.445752 
L 487.258598 206.15079 
L 488.126809 206.15079 
L 488.995019 197.440747 
L 489.863229 194.760734 
L 490.731439 189.400708 
L 491.59965 191.299051 
L 492.46786 195.319071 
L 493.33607 188.172369 
L 494.20428 186.274027 
L 495.072491 181.137335 
L 495.940701 176.782314 
L 496.808911 177.675652 
L 497.677121 177.787319 
L 498.545332 171.422288 
L 499.413542 170.52895 
L 500.281752 171.422288 
L 501.149962 162.93558 
L 502.018173 161.483906 
L 502.886383 160.478902 
L 503.754593 151.32219 
L 504.622804 139.150465 
L 505.491014 144.175489 
L 506.359224 156.905551 
L 507.227434 150.205518 
L 508.095645 153.555535 
L 508.963855 164.052252 
L 509.832065 179.238993 
L 510.700275 178.568989 
L 511.568486 184.264017 
L 512.436696 166.732265 
L 513.304906 166.9556 
L 514.173116 184.822353 
L 515.041327 198.445752 
L 515.909537 199.115756 
L 516.777747 199.227423 
L 517.645957 186.832363 
L 518.514168 190.629048 
L 519.382378 201.795769 
L 520.250588 217.875847 
L 521.118798 202.912441 
L 521.987009 199.785759 
L 522.855219 200.567429 
L 523.723429 205.927455 
L 524.59164 203.024108 
L 525.45985 201.237433 
L 526.32806 196.994079 
L 527.19627 193.644062 
L 528.064481 210.505811 
L 528.932691 190.294046 
L 529.800901 194.760734 
L 530.669111 193.085726 
L 532.405532 193.085726 
L 533.273742 200.902431 
L 534.141952 205.145785 
L 535.010163 202.242437 
L 536.746583 205.257452 
L 537.614793 205.927455 
L 538.483004 220.444192 
L 539.351214 232.727585 
L 540.219424 220.890861 
L 541.087635 204.699116 
L 541.955845 213.185824 
L 542.824055 206.15079 
L 543.692265 211.957485 
L 544.560476 207.490796 
L 545.428686 204.810783 
L 546.296896 206.15079 
L 547.165106 210.282476 
L 548.033317 211.957485 
L 548.901527 199.227423 
L 549.769737 202.354105 
L 550.637947 202.019103 
L 551.506158 188.730705 
L 552.374368 192.974059 
L 553.242578 193.085726 
L 554.110788 191.522385 
L 554.978999 191.410718 
L 555.847209 213.632493 
L 556.715419 215.75417 
L 557.58363 213.520825 
L 558.45184 213.409158 
L 560.18826 226.474222 
L 561.924681 232.615918 
L 562.792891 232.280916 
L 563.661101 251.711011 
L 564.529312 251.934345 
L 565.397522 261.314391 
L 566.265732 259.974384 
L 567.133942 259.862717 
L 568.002153 263.771069 
L 568.870363 263.771069 
L 569.738573 260.644387 
L 570.606783 267.567754 
L 571.474994 268.349425 
L 572.343204 258.411043 
L 573.211414 258.52271 
L 574.079625 258.411043 
L 574.947835 267.902756 
L 575.816045 284.206168 
L 576.684255 284.206168 
L 577.552466 290.682866 
L 578.420676 290.682866 
L 579.288886 294.814553 
L 580.157096 297.159565 
L 581.025307 296.824563 
L 581.893517 308.102951 
L 582.761727 316.14299 
L 583.629937 329.096386 
L 584.498148 326.863042 
L 585.366358 326.639708 
L 586.234568 337.694761 
L 587.102778 346.404803 
L 587.970989 345.958135 
L 588.839199 343.836458 
L 589.707409 342.496451 
L 590.57562 342.384784 
L 591.44383 342.719786 
L 592.31204 340.486441 
L 593.18025 342.384784 
L 594.048461 342.384784 
L 594.916671 342.608118 
L 595.784881 342.608118 
L 597.521302 343.613123 
L 598.389512 343.72479 
L 599.257722 341.603113 
L 600.125932 341.826448 
L 601.862353 339.146435 
L 602.730563 339.034768 
L 603.598773 337.471427 
L 604.466984 337.918096 
L 605.335194 334.679747 
L 606.203404 328.984719 
L 607.071615 338.811433 
L 607.939825 336.801423 
L 608.808035 336.578089 
L 609.676245 334.903081 
L 610.544456 334.791414 
L 611.412666 335.014748 
L 612.280876 338.588099 
L 613.149086 337.471427 
L 614.017297 337.806428 
L 614.885507 339.146435 
L 615.753717 332.111401 
L 616.621927 329.654722 
L 617.490138 329.989724 
L 618.358348 329.543055 
L 619.226558 331.553065 
L 620.094768 330.54806 
L 620.962979 332.446402 
L 621.831189 330.883061 
L 622.699399 332.55807 
L 623.56761 333.451407 
L 624.43582 335.126415 
L 625.30403 333.898076 
L 626.17224 335.238083 
L 627.040451 339.704771 
L 628.776871 339.816438 
L 629.645081 337.248092 
L 630.513292 338.14143 
L 631.381502 337.248092 
L 632.249712 335.684751 
L 633.117922 337.35976 
L 633.986133 338.699766 
L 634.854343 337.694761 
L 635.722553 340.15144 
L 636.590763 336.466422 
L 637.458974 336.243087 
L 638.327184 336.913091 
L 639.195394 339.704771 
L 640.063605 341.491446 
L 640.931815 346.739805 
L 641.800025 345.288131 
L 642.668235 345.7348 
L 643.536446 343.501456 
L 644.404656 347.521475 
L 645.272866 344.95313 
L 646.141076 344.506461 
L 647.009287 346.739805 
L 647.877497 347.856477 
L 648.745707 345.399799 
L 649.613917 344.841462 
L 650.482128 352.881501 
L 651.350338 357.236523 
L 652.218548 357.013188 
L 653.086758 357.459857 
L 653.954969 349.866487 
L 654.823179 349.419818 
L 655.691389 337.918096 
L 656.559599 333.563074 
L 657.42781 332.669737 
L 658.29602 335.684751 
L 659.16423 335.238083 
L 660.032441 336.578089 
L 660.900651 337.136425 
L 661.768861 336.243087 
L 662.637071 338.029763 
L 663.505282 337.583094 
L 664.373492 339.258102 
L 665.241702 336.243087 
L 666.109912 334.679747 
L 666.978123 336.243087 
L 667.846333 336.354755 
L 668.714543 337.694761 
L 669.582753 336.243087 
L 671.319174 335.684751 
L 672.187384 336.801423 
L 673.055594 337.583094 
L 673.923805 339.369769 
L 674.792015 340.821443 
L 675.660225 340.598109 
L 676.528436 342.496451 
L 677.396646 343.836458 
L 678.264856 346.404803 
L 679.133066 343.948125 
L 680.001277 344.394794 
L 680.869487 345.176464 
L 681.737697 330.324725 
L 682.605907 330.324725 
L 683.474118 332.446402 
L 684.342328 332.781404 
L 685.210538 331.441397 
L 686.078748 327.979714 
L 686.946959 328.203048 
L 687.815169 327.421378 
L 688.683379 330.771394 
L 689.551589 332.781404 
L 690.4198 343.613123 
L 691.28801 349.419818 
L 692.15622 350.313156 
L 693.024431 349.084816 
L 693.892641 349.531485 
L 694.760851 347.521475 
L 695.629061 347.298141 
L 696.497272 344.841462 
L 697.365482 344.506461 
L 698.233692 342.161449 
L 699.101902 343.054787 
L 699.970113 345.958135 
L 700.838323 348.414813 
L 701.706533 348.303146 
L 702.574743 349.196484 
L 703.442954 349.084816 
L 704.311164 350.53649 
L 705.179374 350.53649 
L 706.047584 355.896516 
L 706.915795 355.114846 
L 707.784005 355.226513 
L 708.652215 356.231518 
L 709.520426 353.998174 
L 710.388636 352.323165 
L 711.256846 352.099831 
L 712.125056 351.429828 
L 712.993267 350.983159 
L 713.861477 351.318161 
L 714.729687 350.759825 
L 715.597897 348.973149 
L 716.466108 363.043217 
L 717.334318 361.926545 
L 718.202528 362.261547 
L 719.070738 356.678187 
L 720.807159 359.469867 
L 721.675369 359.469867 
L 722.543579 360.251537 
L 723.41179 364.829893 
L 724.28 364.383224 
L 724.28 364.383224 
" style="fill:none;stroke:#1f77b4;stroke-linecap:square;stroke-width:1.5;"/>
   </g>
   <g id="line2d_18">
    <path clip-path="url(#p8aa46e5d25)" d="M 64.4402 333.33974 
L 65.308411 340.93311 
L 66.176621 342.049782 
L 67.044831 347.409808 
L 67.913041 350.201488 
L 68.781252 345.176464 
L 69.649462 344.841462 
L 70.517672 346.516471 
L 71.385882 346.404803 
L 72.254093 347.856477 
L 73.122303 343.836458 
L 73.990513 341.379779 
L 74.858723 343.836458 
L 75.726934 346.963139 
L 76.595144 352.434833 
L 77.463354 365.053227 
L 78.331564 364.494891 
L 79.199775 362.261547 
L 80.067985 361.703211 
L 80.936195 365.611563 
L 81.804406 361.256542 
L 82.672616 360.92154 
L 83.540826 360.92154 
L 84.409036 363.713221 
L 85.277247 364.494891 
L 86.145457 366.393234 
L 87.013667 365.164894 
L 87.881877 368.403243 
L 88.750088 364.829893 
L 89.618298 363.824888 
L 90.486508 361.926545 
L 91.354718 358.353195 
L 92.222929 358.464862 
L 93.091139 355.449847 
L 93.959349 354.891511 
L 94.827559 355.561514 
L 95.69577 354.333175 
L 96.56398 352.658167 
L 97.43219 345.846467 
L 98.300401 347.633143 
L 99.168611 345.399799 
L 100.036821 344.283126 
L 100.905031 343.72479 
L 101.773242 341.714781 
L 102.641452 337.918096 
L 103.509662 340.039773 
L 104.377872 336.466422 
L 105.246083 336.13142 
L 106.114293 332.223068 
L 106.982503 328.984719 
L 107.850713 333.563074 
L 108.718924 334.903081 
L 109.587134 335.238083 
L 110.455344 332.669737 
L 111.323554 328.649717 
L 112.191765 328.649717 
L 113.059975 329.208053 
L 113.928185 330.436393 
L 114.796395 330.994729 
L 115.664606 331.32973 
L 116.532816 334.791414 
L 117.401026 323.959695 
L 118.269237 323.959695 
L 119.137447 323.848027 
L 120.005657 302.296256 
L 120.873867 296.042892 
L 121.742078 296.377894 
L 122.610288 274.714456 
L 124.346708 277.952805 
L 125.214919 277.171134 
L 126.083129 280.856152 
L 126.951339 269.801098 
L 127.819549 272.704446 
L 128.68776 273.486116 
L 129.55597 269.689431 
L 130.42418 267.902756 
L 131.29239 263.994404 
L 132.160601 268.237758 
L 133.028811 267.34442 
L 134.765232 255.396029 
L 135.633442 252.93935 
L 136.501652 247.020988 
L 137.369862 251.599344 
L 138.238073 253.944355 
L 139.106283 254.837693 
L 139.974493 246.574319 
L 140.842703 245.569314 
L 141.710914 248.807663 
L 142.579124 243.670972 
L 143.447334 233.73259 
L 144.315544 235.072597 
L 145.183755 232.727585 
L 146.051965 233.174254 
L 146.920175 228.595899 
L 147.788385 221.784199 
L 148.656596 220.220858 
L 149.524806 219.215853 
L 151.261227 214.860832 
L 152.129437 226.027553 
L 152.997647 218.657517 
L 153.865857 218.769184 
L 154.734068 234.179259 
L 155.602278 237.194274 
L 156.470488 237.529275 
L 157.338698 256.847702 
L 158.206909 253.832688 
L 159.075119 251.487676 
L 159.943329 252.716016 
L 160.811539 251.822678 
L 161.67975 262.877732 
L 162.54796 263.101066 
L 163.41617 259.862717 
L 164.28438 263.882736 
L 165.152591 262.207728 
L 166.020801 263.212733 
L 166.889011 264.441072 
L 167.757222 263.3244 
L 168.625432 269.912766 
L 169.493642 272.14611 
L 170.361852 273.932785 
L 171.230063 281.861157 
L 172.098273 281.191154 
L 172.966483 282.307826 
L 173.834693 284.429503 
L 174.702904 285.546175 
L 175.571114 288.784524 
L 176.439324 285.434508 
L 177.307534 290.459532 
L 178.175745 303.636263 
L 179.043955 302.072922 
L 180.780375 309.219623 
L 182.516796 318.711336 
L 183.385006 321.279682 
L 184.253217 322.284686 
L 185.121427 323.066357 
L 185.989637 325.299701 
L 186.857847 325.299701 
L 187.726058 331.106396 
L 188.594268 329.989724 
L 189.462478 330.101391 
L 190.330688 331.776399 
L 191.198899 332.669737 
L 192.067109 332.669737 
L 192.935319 338.029763 
L 193.803529 336.354755 
L 194.67174 337.806428 
L 195.53995 331.218063 
L 196.40816 330.883061 
L 197.27637 330.771394 
L 198.144581 333.33974 
L 199.012791 332.55807 
L 200.749212 342.161449 
L 201.617422 340.15144 
L 202.485632 341.379779 
L 203.353842 340.598109 
L 204.222053 323.289691 
L 207.694894 236.747605 
L 208.563104 236.52427 
L 209.431314 241.549295 
L 210.299524 241.549295 
L 211.167735 244.787644 
L 212.035945 244.899311 
L 212.904155 244.675977 
L 213.772365 245.569314 
L 214.640576 247.467657 
L 215.508786 247.132655 
L 216.376996 247.35599 
L 217.245207 247.020988 
L 218.113417 246.462652 
L 218.981627 246.239318 
L 219.849837 247.802658 
L 220.718048 248.472662 
L 221.586258 247.914326 
L 222.454468 249.365999 
L 223.322678 249.477667 
L 224.190889 255.396029 
L 225.059099 256.736035 
L 225.927309 256.624368 
L 226.795519 259.081046 
L 227.66373 259.304381 
L 228.53194 241.214293 
L 229.40015 241.102626 
L 230.26836 247.579324 
L 231.136571 247.579324 
L 232.004781 247.467657 
L 232.872991 225.915886 
L 233.741202 226.585889 
L 234.609412 226.474222 
L 235.477622 224.575879 
L 236.345832 227.814228 
L 237.214043 228.595899 
L 238.082253 230.047572 
L 238.950463 252.046012 
L 239.818673 252.046012 
L 242.423304 317.929665 
L 243.291514 317.371329 
L 244.159725 319.939675 
L 245.027935 321.503016 
L 245.896145 321.056347 
L 246.764355 320.833013 
L 247.632566 319.939675 
L 248.500776 320.386344 
L 251.105407 320.94468 
L 251.973617 322.95469 
L 252.841827 323.513026 
L 253.710038 319.158005 
L 254.578248 297.047897 
L 255.446458 297.159565 
L 256.314668 297.606233 
L 257.182879 297.382899 
L 258.051089 276.166129 
L 258.919299 276.836133 
L 259.787509 276.9478 
L 260.65572 254.94936 
L 261.52393 252.604348 
L 262.39214 252.93935 
L 263.26035 275.049457 
L 264.128561 275.049457 
L 264.996771 275.831128 
L 265.864981 275.496126 
L 266.733191 275.607793 
L 267.601402 297.717901 
L 269.337822 297.382899 
L 270.206033 299.169574 
L 273.678874 299.504576 
L 274.547084 320.386344 
L 275.415294 318.376334 
L 276.283504 318.376334 
L 277.151715 318.599669 
L 278.019925 319.939675 
L 279.756345 319.828008 
L 280.624556 319.381339 
L 281.492766 317.482996 
L 282.360976 318.376334 
L 283.229186 317.594664 
L 284.965607 317.594664 
L 285.833817 316.477992 
L 287.570238 316.477992 
L 288.438448 319.046337 
L 289.306658 340.486441 
L 290.174869 340.598109 
L 291.043079 340.039773 
L 291.911289 318.153 
L 292.779499 340.263107 
L 294.51592 340.263107 
L 295.38413 362.373214 
L 296.25234 364.718226 
L 297.120551 363.043217 
L 297.988761 363.043217 
L 299.725181 362.14988 
L 300.593392 362.373214 
L 301.461602 362.038213 
L 302.329812 339.928105 
L 304.066233 340.039773 
L 304.934443 339.704771 
L 305.802653 338.029763 
L 306.670864 337.806428 
L 307.539074 338.14143 
L 308.407284 316.254657 
L 309.275494 317.482996 
L 310.143705 297.606233 
L 311.011915 297.382899 
L 311.880125 293.697881 
L 312.748335 293.697881 
L 314.484756 293.921215 
L 317.089387 230.605908 
L 317.957597 230.605908 
L 318.825807 230.494241 
L 319.694018 229.600903 
L 320.562228 230.829243 
L 321.430438 230.382574 
L 322.298648 230.494241 
L 323.166859 232.392584 
L 324.035069 231.387579 
L 324.903279 227.479227 
L 325.771489 228.037563 
L 326.6397 250.036003 
L 327.50791 248.025993 
L 328.37612 247.914326 
L 329.24433 246.350985 
L 330.112541 246.350985 
L 330.980751 246.239318 
L 331.848961 247.802658 
L 332.717171 247.802658 
L 333.585382 247.132655 
L 334.453592 247.244322 
L 336.190013 203.694111 
L 337.058223 225.804218 
L 339.662854 226.13922 
L 340.531064 227.590894 
L 341.399274 227.814228 
L 342.267484 227.702561 
L 343.135695 248.584329 
L 344.003905 246.574319 
L 344.872115 268.684426 
L 345.740325 268.907761 
L 346.608536 272.592779 
L 347.476746 272.816113 
L 349.213166 272.816113 
L 351.817797 339.258102 
L 352.686008 340.263107 
L 353.554218 338.364764 
L 354.422428 339.258102 
L 356.158849 339.258102 
L 357.027059 339.034768 
L 357.895269 339.034768 
L 358.763479 340.486441 
L 359.63169 344.283126 
L 360.4999 343.389789 
L 361.36811 343.389789 
L 362.23632 344.729795 
L 363.104531 344.841462 
L 363.972741 346.293136 
L 364.840951 344.171459 
L 365.709161 322.173019 
L 367.445582 322.173019 
L 368.313792 323.289691 
L 369.182003 323.73636 
L 370.918423 367.844907 
L 372.654844 323.624693 
L 373.523054 323.624693 
L 374.391264 301.626253 
L 375.259474 301.849587 
L 376.127685 301.402918 
L 376.995895 301.626253 
L 378.732315 303.077927 
L 379.600526 302.742925 
L 381.336946 302.742925 
L 382.205156 294.14455 
L 383.073367 294.032883 
L 383.941577 292.692876 
L 384.809787 292.357875 
L 385.677997 288.449522 
L 386.546208 288.002853 
L 387.414418 288.002853 
L 388.282628 287.891186 
L 389.150839 282.419493 
L 390.019049 282.084491 
L 390.887259 277.952805 
L 391.755469 276.612798 
L 392.62368 276.612798 
L 393.49189 276.166129 
L 394.3601 276.277797 
L 395.22831 277.282801 
L 396.096521 277.506136 
L 396.964731 277.282801 
L 397.832941 276.612798 
L 398.701151 273.151115 
L 399.569362 275.049457 
L 400.437572 295.819558 
L 401.305782 296.042892 
L 402.173992 295.149555 
L 403.042203 295.149555 
L 403.910413 295.037888 
L 404.778623 294.591219 
L 405.646834 286.886181 
L 406.515044 301.961254 
L 407.383254 323.178024 
L 408.251464 322.843022 
L 409.119675 344.506461 
L 409.987885 343.72479 
L 410.856095 344.171459 
L 411.724305 343.389789 
L 412.592516 344.059792 
L 413.460726 336.689756 
L 414.328936 337.136425 
L 415.197146 335.796419 
L 416.065357 335.573084 
L 416.933567 335.908086 
L 417.801777 336.019753 
L 418.669987 337.471427 
L 419.538198 336.913091 
L 420.406408 335.461417 
L 421.274618 334.679747 
L 422.142829 334.568079 
L 423.011039 335.796419 
L 423.879249 339.034768 
L 424.747459 339.034768 
L 425.61567 342.719786 
L 426.48388 344.283126 
L 428.2203 344.506461 
L 429.088511 338.811433 
L 429.956721 338.699766 
L 430.824931 337.248092 
L 431.693141 337.248092 
L 432.561352 337.583094 
L 433.429562 336.466422 
L 434.297772 336.801423 
L 435.165982 338.253097 
L 436.034193 337.918096 
L 436.902403 338.476432 
L 438.638824 338.476432 
L 439.507034 338.029763 
L 440.375244 345.846467 
L 441.243454 351.653162 
L 442.111665 350.648157 
L 442.979875 350.983159 
L 443.848085 350.089821 
L 444.716295 347.298141 
L 445.584506 346.851472 
L 446.452716 343.278122 
L 447.320926 343.054787 
L 448.189136 350.983159 
L 449.057347 350.313156 
L 449.925557 349.419818 
L 450.793767 349.75482 
L 451.661977 357.906526 
L 453.398398 357.683191 
L 454.266608 354.668177 
L 455.134819 359.693201 
L 456.003029 361.033208 
L 456.871239 360.586539 
L 457.739449 359.581534 
L 458.60766 360.586539 
L 459.47587 360.92154 
L 460.34408 361.814878 
L 461.21229 358.911531 
L 462.080501 354.779844 
L 462.948711 354.444842 
L 463.816921 359.916536 
L 464.685131 355.33818 
L 465.553342 355.114846 
L 466.421552 356.119851 
L 467.289762 356.119851 
L 468.157972 360.92154 
L 469.894393 351.318161 
L 471.630814 345.623133 
L 472.499024 335.34975 
L 473.367234 334.903081 
L 476.840075 304.752935 
L 477.708285 304.976269 
L 478.576496 301.514586 
L 479.444706 301.291251 
L 480.312916 294.256217 
L 481.181126 298.276237 
L 482.049337 293.697881 
L 482.917547 287.444517 
L 483.785757 283.424498 
L 484.653967 284.54117 
L 485.522178 283.871167 
L 487.258598 276.054462 
L 488.995019 268.237758 
L 489.863229 247.35599 
L 490.731439 245.792649 
L 491.59965 246.350985 
L 492.46786 248.472662 
L 493.33607 248.584329 
L 494.20428 244.452642 
L 495.072491 243.894306 
L 495.940701 246.350985 
L 496.808911 250.482671 
L 497.677121 251.487676 
L 498.545332 246.909321 
L 499.413542 229.377569 
L 500.281752 231.052577 
L 501.149962 223.682541 
L 502.018173 222.565869 
L 502.886383 218.657517 
L 503.754593 218.54585 
L 504.622804 214.079162 
L 506.359224 220.444192 
L 507.227434 222.677537 
L 508.095645 208.384134 
L 509.832065 221.560864 
L 510.700275 229.042567 
L 511.568486 235.184264 
L 512.436696 232.504251 
L 514.173116 240.432623 
L 515.041327 247.020988 
L 515.909537 247.467657 
L 516.777747 252.269347 
L 517.645957 252.381014 
L 518.514168 255.619363 
L 520.250588 256.289366 
L 521.118798 258.969379 
L 521.987009 256.066032 
L 522.855219 259.974384 
L 523.723429 267.34442 
L 524.59164 284.987839 
L 525.45985 280.074482 
L 527.19627 278.95781 
L 528.064481 268.12609 
L 528.932691 265.669412 
L 529.800901 265.892746 
L 530.669111 265.33441 
L 532.405532 265.33441 
L 533.273742 267.679422 
L 534.141952 289.901196 
L 535.010163 287.33285 
L 535.878373 289.007858 
L 536.746583 280.967819 
L 537.614793 281.637823 
L 538.483004 284.429503 
L 539.351214 293.697881 
L 540.219424 292.804543 
L 541.087635 287.891186 
L 541.955845 287.109516 
L 542.824055 297.382899 
L 543.692265 299.392909 
L 544.560476 291.576204 
L 545.428686 271.029438 
L 546.296896 268.684426 
L 547.165106 269.912766 
L 548.033317 259.974384 
L 548.901527 254.726025 
L 549.769737 255.284361 
L 550.637947 250.482671 
L 551.506158 228.260897 
L 552.374368 212.962489 
L 554.978999 148.977179 
L 555.847209 150.205518 
L 556.715419 156.905551 
L 558.45184 113.132005 
L 559.32005 94.483581 
L 560.18826 78.738505 
L 561.056471 57.075067 
L 561.924681 57.186734 
L 562.792891 68.241787 
L 563.661101 72.485141 
L 564.529312 72.820143 
L 565.397522 73.601813 
L 566.265732 72.820143 
L 567.133942 72.708476 
L 568.002153 75.053487 
L 568.870363 75.053487 
L 569.738573 73.713481 
L 570.606783 57.186734 
L 571.474994 66.678447 
L 572.343204 47.695021 
L 573.211414 49.816698 
L 574.079625 48.476692 
L 574.947835 47.806688 
L 575.816045 52.720045 
L 576.684255 60.983419 
L 577.552466 43.451667 
L 578.420676 43.34 
L 579.288886 48.588359 
L 580.157096 69.135125 
L 581.025307 75.388489 
L 581.893517 54.618388 
L 582.761727 64.668437 
L 583.629937 70.028463 
L 584.498148 48.14169 
L 585.366358 52.720045 
L 589.707409 161.372239 
L 590.57562 161.260572 
L 591.44383 139.597134 
L 595.784881 248.919331 
L 596.653091 249.365999 
L 597.521302 228.14923 
L 598.389512 230.270907 
L 599.257722 208.160799 
L 600.125932 208.384134 
L 601.862353 164.833923 
L 602.730563 164.833923 
L 603.598773 142.612148 
L 604.466984 146.408833 
L 605.335194 166.173929 
L 606.203404 165.838928 
L 607.071615 165.838928 
L 607.939825 143.617153 
L 608.808035 144.622158 
L 609.676245 145.850497 
L 610.544456 145.73883 
L 611.412666 124.187059 
L 613.149086 124.187059 
L 614.017297 127.202073 
L 614.885507 127.760409 
L 615.753717 126.420403 
L 616.621927 146.632168 
L 617.490138 147.302171 
L 618.358348 147.190504 
L 619.226558 168.853942 
L 620.094768 167.625603 
L 620.962979 166.732265 
L 621.831189 144.510491 
L 622.699399 144.845492 
L 623.56761 144.398824 
L 624.43582 144.622158 
L 625.30403 122.512051 
L 626.17224 144.398824 
L 627.040451 145.068827 
L 627.908661 145.180494 
L 628.776871 123.293721 
L 629.645081 119.162034 
L 630.513292 97.163594 
L 631.381502 96.94026 
L 632.249712 118.492031 
L 633.117922 115.030348 
L 633.986133 115.030348 
L 634.854343 114.583679 
L 635.722553 135.688781 
L 637.458974 135.688781 
L 638.327184 136.917121 
L 639.195394 134.572109 
L 640.063605 136.805453 
L 640.931815 136.917121 
L 642.668235 180.914001 
L 644.404656 181.472337 
L 645.272866 180.020663 
L 647.009287 224.240877 
L 647.877497 223.124205 
L 649.613917 222.789204 
L 651.350338 226.027553 
L 652.218548 225.804218 
L 653.086758 225.915886 
L 653.954969 225.804218 
L 654.823179 226.585889 
L 655.691389 227.702561 
L 656.559599 249.589334 
L 657.42781 249.365999 
L 658.29602 250.036003 
L 659.16423 250.482671 
L 660.032441 272.704446 
L 660.900651 273.039448 
L 661.768861 271.029438 
L 662.637071 271.476107 
L 663.505282 293.362879 
L 664.373492 297.047897 
L 665.241702 319.046337 
L 666.109912 318.264667 
L 666.978123 318.823003 
L 667.846333 322.396354 
L 668.714543 344.618128 
L 669.582753 343.278122 
L 670.450964 342.608118 
L 671.319174 363.936555 
L 672.187384 363.936555 
L 673.055594 384.036653 
L 673.923805 384.92999 
L 675.660225 384.818323 
L 676.528436 385.153325 
L 677.396646 385.153325 
L 678.264856 385.264992 
L 679.133066 384.92999 
L 680.001277 382.696646 
L 680.869487 382.696646 
L 681.737697 380.463302 
L 682.605907 381.691641 
L 683.474118 382.13831 
L 684.342328 382.026643 
L 685.210538 381.35664 
L 686.078748 381.244972 
L 686.946959 381.468307 
L 687.815169 380.798304 
L 688.683379 381.244972 
L 689.551589 381.914976 
L 690.4198 382.361644 
L 692.15622 382.808313 
L 693.024431 382.026643 
L 693.892641 382.249977 
L 694.760851 381.021638 
L 695.629061 380.351635 
L 696.497272 381.244972 
L 697.365482 381.133305 
L 698.233692 380.798304 
L 699.101902 381.244972 
L 699.970113 380.016633 
L 700.838323 381.021638 
L 701.706533 380.463302 
L 702.574743 380.686636 
L 703.442954 380.574969 
L 704.311164 381.803308 
L 705.179374 382.808313 
L 706.047584 383.589984 
L 706.915795 383.478317 
L 707.784005 384.371654 
L 708.652215 385.934995 
L 709.520426 384.818323 
L 711.256846 384.483321 
L 712.125056 384.371654 
L 712.993267 383.366649 
L 713.861477 382.13831 
L 714.729687 384.92999 
L 715.597897 384.818323 
L 716.466108 386.94 
L 717.334318 384.92999 
L 718.202528 384.92999 
L 719.070738 384.14832 
L 719.938949 384.14832 
L 720.807159 384.371654 
L 721.675369 384.371654 
L 722.543579 385.041657 
L 723.41179 385.264992 
L 724.28 384.483321 
L 724.28 384.483321 
" style="fill:none;stroke:#ff7f0e;stroke-linecap:square;stroke-width:1.5;"/>
   </g>
   <g id="patch_3">
    <path d="M 30.58 404.12 
L 30.58 26.16 
" style="fill:none;stroke:#000000;stroke-linecap:square;stroke-linejoin:miter;stroke-width:0.8;"/>
   </g>
   <g id="patch_4">
    <path d="M 724.28 404.12 
L 724.28 26.16 
" style="fill:none;stroke:#000000;stroke-linecap:square;stroke-linejoin:miter;stroke-width:0.8;"/>
   </g>
   <g id="patch_5">
    <path d="M 30.58 404.12 
L 724.28 404.12 
" style="fill:none;stroke:#000000;stroke-linecap:square;stroke-linejoin:miter;stroke-width:0.8;"/>
   </g>
   <g id="patch_6">
    <path d="M 30.58 26.16 
L 724.28 26.16 
" style="fill:none;stroke:#000000;stroke-linecap:square;stroke-linejoin:miter;stroke-width:0.8;"/>
   </g>
   <g id="text_17">
    <!-- gridworld_5x5_50_4_4_1337__1: episode duration, steps, MA=40 -->
    <defs>
     <path d="M 45.40625 27.984375 
Q 45.40625 37.75 41.375 43.109375 
Q 37.359375 48.484375 30.078125 48.484375 
Q 22.859375 48.484375 18.828125 43.109375 
Q 14.796875 37.75 14.796875 27.984375 
Q 14.796875 18.265625 18.828125 12.890625 
Q 22.859375 7.515625 30.078125 7.515625 
Q 37.359375 7.515625 41.375 12.890625 
Q 45.40625 18.265625 45.40625 27.984375 
z
M 54.390625 6.78125 
Q 54.390625 -7.171875 48.1875 -13.984375 
Q 42 -20.796875 29.203125 -20.796875 
Q 24.46875 -20.796875 20.265625 -20.09375 
Q 16.0625 -19.390625 12.109375 -17.921875 
L 12.109375 -9.1875 
Q 16.0625 -11.328125 19.921875 -12.34375 
Q 23.78125 -13.375 27.78125 -13.375 
Q 36.625 -13.375 41.015625 -8.765625 
Q 45.40625 -4.15625 45.40625 5.171875 
L 45.40625 9.625 
Q 42.625 4.78125 38.28125 2.390625 
Q 33.9375 0 27.875 0 
Q 17.828125 0 11.671875 7.65625 
Q 5.515625 15.328125 5.515625 27.984375 
Q 5.515625 40.671875 11.671875 48.328125 
Q 17.828125 56 27.875 56 
Q 33.9375 56 38.28125 53.609375 
Q 42.625 51.21875 45.40625 46.390625 
L 45.40625 54.6875 
L 54.390625 54.6875 
z
" id="DejaVuSans-103"/>
     <path d="M 41.109375 46.296875 
Q 39.59375 47.171875 37.8125 47.578125 
Q 36.03125 48 33.890625 48 
Q 26.265625 48 22.1875 43.046875 
Q 18.109375 38.09375 18.109375 28.8125 
L 18.109375 0 
L 9.078125 0 
L 9.078125 54.6875 
L 18.109375 54.6875 
L 18.109375 46.1875 
Q 20.953125 51.171875 25.484375 53.578125 
Q 30.03125 56 36.53125 56 
Q 37.453125 56 38.578125 55.875 
Q 39.703125 55.765625 41.0625 55.515625 
z
" id="DejaVuSans-114"/>
     <path d="M 9.421875 54.6875 
L 18.40625 54.6875 
L 18.40625 0 
L 9.421875 0 
z
M 9.421875 75.984375 
L 18.40625 75.984375 
L 18.40625 64.59375 
L 9.421875 64.59375 
z
" id="DejaVuSans-105"/>
     <path d="M 45.40625 46.390625 
L 45.40625 75.984375 
L 54.390625 75.984375 
L 54.390625 0 
L 45.40625 0 
L 45.40625 8.203125 
Q 42.578125 3.328125 38.25 0.953125 
Q 33.9375 -1.421875 27.875 -1.421875 
Q 17.96875 -1.421875 11.734375 6.484375 
Q 5.515625 14.40625 5.515625 27.296875 
Q 5.515625 40.1875 11.734375 48.09375 
Q 17.96875 56 27.875 56 
Q 33.9375 56 38.25 53.625 
Q 42.578125 51.265625 45.40625 46.390625 
z
M 14.796875 27.296875 
Q 14.796875 17.390625 18.875 11.75 
Q 22.953125 6.109375 30.078125 6.109375 
Q 37.203125 6.109375 41.296875 11.75 
Q 45.40625 17.390625 45.40625 27.296875 
Q 45.40625 37.203125 41.296875 42.84375 
Q 37.203125 48.484375 30.078125 48.484375 
Q 22.953125 48.484375 18.875 42.84375 
Q 14.796875 37.203125 14.796875 27.296875 
z
" id="DejaVuSans-100"/>
     <path d="M 4.203125 54.6875 
L 13.1875 54.6875 
L 24.421875 12.015625 
L 35.59375 54.6875 
L 46.1875 54.6875 
L 57.421875 12.015625 
L 68.609375 54.6875 
L 77.59375 54.6875 
L 63.28125 0 
L 52.6875 0 
L 40.921875 44.828125 
L 29.109375 0 
L 18.5 0 
z
" id="DejaVuSans-119"/>
     <path d="M 30.609375 48.390625 
Q 23.390625 48.390625 19.1875 42.75 
Q 14.984375 37.109375 14.984375 27.296875 
Q 14.984375 17.484375 19.15625 11.84375 
Q 23.34375 6.203125 30.609375 6.203125 
Q 37.796875 6.203125 41.984375 11.859375 
Q 46.1875 17.53125 46.1875 27.296875 
Q 46.1875 37.015625 41.984375 42.703125 
Q 37.796875 48.390625 30.609375 48.390625 
z
M 30.609375 56 
Q 42.328125 56 49.015625 48.375 
Q 55.71875 40.765625 55.71875 27.296875 
Q 55.71875 13.875 49.015625 6.21875 
Q 42.328125 -1.421875 30.609375 -1.421875 
Q 18.84375 -1.421875 12.171875 6.21875 
Q 5.515625 13.875 5.515625 27.296875 
Q 5.515625 40.765625 12.171875 48.375 
Q 18.84375 56 30.609375 56 
z
" id="DejaVuSans-111"/>
     <path d="M 9.421875 75.984375 
L 18.40625 75.984375 
L 18.40625 0 
L 9.421875 0 
z
" id="DejaVuSans-108"/>
     <path d="M 50.984375 -16.609375 
L 50.984375 -23.578125 
L -0.984375 -23.578125 
L -0.984375 -16.609375 
z
" id="DejaVuSans-95"/>
     <path d="M 54.890625 54.6875 
L 35.109375 28.078125 
L 55.90625 0 
L 45.3125 0 
L 29.390625 21.484375 
L 13.484375 0 
L 2.875 0 
L 24.125 28.609375 
L 4.6875 54.6875 
L 15.28125 54.6875 
L 29.78125 35.203125 
L 44.28125 54.6875 
z
" id="DejaVuSans-120"/>
     <path d="M 11.71875 12.40625 
L 22.015625 12.40625 
L 22.015625 0 
L 11.71875 0 
z
M 11.71875 51.703125 
L 22.015625 51.703125 
L 22.015625 39.3125 
L 11.71875 39.3125 
z
" id="DejaVuSans-58"/>
     <path id="DejaVuSans-32"/>
     <path d="M 56.203125 29.59375 
L 56.203125 25.203125 
L 14.890625 25.203125 
Q 15.484375 15.921875 20.484375 11.0625 
Q 25.484375 6.203125 34.421875 6.203125 
Q 39.59375 6.203125 44.453125 7.46875 
Q 49.3125 8.734375 54.109375 11.28125 
L 54.109375 2.78125 
Q 49.265625 0.734375 44.1875 -0.34375 
Q 39.109375 -1.421875 33.890625 -1.421875 
Q 20.796875 -1.421875 13.15625 6.1875 
Q 5.515625 13.8125 5.515625 26.8125 
Q 5.515625 40.234375 12.765625 48.109375 
Q 20.015625 56 32.328125 56 
Q 43.359375 56 49.78125 48.890625 
Q 56.203125 41.796875 56.203125 29.59375 
z
M 47.21875 32.234375 
Q 47.125 39.59375 43.09375 43.984375 
Q 39.0625 48.390625 32.421875 48.390625 
Q 24.90625 48.390625 20.390625 44.140625 
Q 15.875 39.890625 15.1875 32.171875 
z
" id="DejaVuSans-101"/>
     <path d="M 18.109375 8.203125 
L 18.109375 -20.796875 
L 9.078125 -20.796875 
L 9.078125 54.6875 
L 18.109375 54.6875 
L 18.109375 46.390625 
Q 20.953125 51.265625 25.265625 53.625 
Q 29.59375 56 35.59375 56 
Q 45.5625 56 51.78125 48.09375 
Q 58.015625 40.1875 58.015625 27.296875 
Q 58.015625 14.40625 51.78125 6.484375 
Q 45.5625 -1.421875 35.59375 -1.421875 
Q 29.59375 -1.421875 25.265625 0.953125 
Q 20.953125 3.328125 18.109375 8.203125 
z
M 48.6875 27.296875 
Q 48.6875 37.203125 44.609375 42.84375 
Q 40.53125 48.484375 33.40625 48.484375 
Q 26.265625 48.484375 22.1875 42.84375 
Q 18.109375 37.203125 18.109375 27.296875 
Q 18.109375 17.390625 22.1875 11.75 
Q 26.265625 6.109375 33.40625 6.109375 
Q 40.53125 6.109375 44.609375 11.75 
Q 48.6875 17.390625 48.6875 27.296875 
z
" id="DejaVuSans-112"/>
     <path d="M 44.28125 53.078125 
L 44.28125 44.578125 
Q 40.484375 46.53125 36.375 47.5 
Q 32.28125 48.484375 27.875 48.484375 
Q 21.1875 48.484375 17.84375 46.4375 
Q 14.5 44.390625 14.5 40.28125 
Q 14.5 37.15625 16.890625 35.375 
Q 19.28125 33.59375 26.515625 31.984375 
L 29.59375 31.296875 
Q 39.15625 29.25 43.1875 25.515625 
Q 47.21875 21.78125 47.21875 15.09375 
Q 47.21875 7.46875 41.1875 3.015625 
Q 35.15625 -1.421875 24.609375 -1.421875 
Q 20.21875 -1.421875 15.453125 -0.5625 
Q 10.6875 0.296875 5.421875 2 
L 5.421875 11.28125 
Q 10.40625 8.6875 15.234375 7.390625 
Q 20.0625 6.109375 24.8125 6.109375 
Q 31.15625 6.109375 34.5625 8.28125 
Q 37.984375 10.453125 37.984375 14.40625 
Q 37.984375 18.0625 35.515625 20.015625 
Q 33.0625 21.96875 24.703125 23.78125 
L 21.578125 24.515625 
Q 13.234375 26.265625 9.515625 29.90625 
Q 5.8125 33.546875 5.8125 39.890625 
Q 5.8125 47.609375 11.28125 51.796875 
Q 16.75 56 26.8125 56 
Q 31.78125 56 36.171875 55.265625 
Q 40.578125 54.546875 44.28125 53.078125 
z
" id="DejaVuSans-115"/>
     <path d="M 8.5 21.578125 
L 8.5 54.6875 
L 17.484375 54.6875 
L 17.484375 21.921875 
Q 17.484375 14.15625 20.5 10.265625 
Q 23.53125 6.390625 29.59375 6.390625 
Q 36.859375 6.390625 41.078125 11.03125 
Q 45.3125 15.671875 45.3125 23.6875 
L 45.3125 54.6875 
L 54.296875 54.6875 
L 54.296875 0 
L 45.3125 0 
L 45.3125 8.40625 
Q 42.046875 3.421875 37.71875 1 
Q 33.40625 -1.421875 27.6875 -1.421875 
Q 18.265625 -1.421875 13.375 4.4375 
Q 8.5 10.296875 8.5 21.578125 
z
M 31.109375 56 
z
" id="DejaVuSans-117"/>
     <path d="M 34.28125 27.484375 
Q 23.390625 27.484375 19.1875 25 
Q 14.984375 22.515625 14.984375 16.5 
Q 14.984375 11.71875 18.140625 8.90625 
Q 21.296875 6.109375 26.703125 6.109375 
Q 34.1875 6.109375 38.703125 11.40625 
Q 43.21875 16.703125 43.21875 25.484375 
L 43.21875 27.484375 
z
M 52.203125 31.203125 
L 52.203125 0 
L 43.21875 0 
L 43.21875 8.296875 
Q 40.140625 3.328125 35.546875 0.953125 
Q 30.953125 -1.421875 24.3125 -1.421875 
Q 15.921875 -1.421875 10.953125 3.296875 
Q 6 8.015625 6 15.921875 
Q 6 25.140625 12.171875 29.828125 
Q 18.359375 34.515625 30.609375 34.515625 
L 43.21875 34.515625 
L 43.21875 35.40625 
Q 43.21875 41.609375 39.140625 45 
Q 35.0625 48.390625 27.6875 48.390625 
Q 23 48.390625 18.546875 47.265625 
Q 14.109375 46.140625 10.015625 43.890625 
L 10.015625 52.203125 
Q 14.9375 54.109375 19.578125 55.046875 
Q 24.21875 56 28.609375 56 
Q 40.484375 56 46.34375 49.84375 
Q 52.203125 43.703125 52.203125 31.203125 
z
" id="DejaVuSans-97"/>
     <path d="M 18.3125 70.21875 
L 18.3125 54.6875 
L 36.8125 54.6875 
L 36.8125 47.703125 
L 18.3125 47.703125 
L 18.3125 18.015625 
Q 18.3125 11.328125 20.140625 9.421875 
Q 21.96875 7.515625 27.59375 7.515625 
L 36.8125 7.515625 
L 36.8125 0 
L 27.59375 0 
Q 17.1875 0 13.234375 3.875 
Q 9.28125 7.765625 9.28125 18.015625 
L 9.28125 47.703125 
L 2.6875 47.703125 
L 2.6875 54.6875 
L 9.28125 54.6875 
L 9.28125 70.21875 
z
" id="DejaVuSans-116"/>
     <path d="M 54.890625 33.015625 
L 54.890625 0 
L 45.90625 0 
L 45.90625 32.71875 
Q 45.90625 40.484375 42.875 44.328125 
Q 39.84375 48.1875 33.796875 48.1875 
Q 26.515625 48.1875 22.3125 43.546875 
Q 18.109375 38.921875 18.109375 30.90625 
L 18.109375 0 
L 9.078125 0 
L 9.078125 54.6875 
L 18.109375 54.6875 
L 18.109375 46.1875 
Q 21.34375 51.125 25.703125 53.5625 
Q 30.078125 56 35.796875 56 
Q 45.21875 56 50.046875 50.171875 
Q 54.890625 44.34375 54.890625 33.015625 
z
" id="DejaVuSans-110"/>
     <path d="M 11.71875 12.40625 
L 22.015625 12.40625 
L 22.015625 4 
L 14.015625 -11.625 
L 7.71875 -11.625 
L 11.71875 4 
z
" id="DejaVuSans-44"/>
     <path d="M 9.8125 72.90625 
L 24.515625 72.90625 
L 43.109375 23.296875 
L 61.8125 72.90625 
L 76.515625 72.90625 
L 76.515625 0 
L 66.890625 0 
L 66.890625 64.015625 
L 48.09375 14.015625 
L 38.1875 14.015625 
L 19.390625 64.015625 
L 19.390625 0 
L 9.8125 0 
z
" id="DejaVuSans-77"/>
     <path d="M 34.1875 63.1875 
L 20.796875 26.90625 
L 47.609375 26.90625 
z
M 28.609375 72.90625 
L 39.796875 72.90625 
L 67.578125 0 
L 57.328125 0 
L 50.6875 18.703125 
L 17.828125 18.703125 
L 11.1875 0 
L 0.78125 0 
z
" id="DejaVuSans-65"/>
     <path d="M 10.59375 45.40625 
L 73.1875 45.40625 
L 73.1875 37.203125 
L 10.59375 37.203125 
z
M 10.59375 25.484375 
L 73.1875 25.484375 
L 73.1875 17.1875 
L 10.59375 17.1875 
z
" id="DejaVuSans-61"/>
    </defs>
    <g transform="translate(182.389687 20.16)scale(0.12 -0.12)">
     <use xlink:href="#DejaVuSans-103"/>
     <use x="63.476562" xlink:href="#DejaVuSans-114"/>
     <use x="104.589844" xlink:href="#DejaVuSans-105"/>
     <use x="132.373047" xlink:href="#DejaVuSans-100"/>
     <use x="195.849609" xlink:href="#DejaVuSans-119"/>
     <use x="277.636719" xlink:href="#DejaVuSans-111"/>
     <use x="338.818359" xlink:href="#DejaVuSans-114"/>
     <use x="379.931641" xlink:href="#DejaVuSans-108"/>
     <use x="407.714844" xlink:href="#DejaVuSans-100"/>
     <use x="471.191406" xlink:href="#DejaVuSans-95"/>
     <use x="521.191406" xlink:href="#DejaVuSans-53"/>
     <use x="584.814453" xlink:href="#DejaVuSans-120"/>
     <use x="643.994141" xlink:href="#DejaVuSans-53"/>
     <use x="707.617188" xlink:href="#DejaVuSans-95"/>
     <use x="757.617188" xlink:href="#DejaVuSans-53"/>
     <use x="821.240234" xlink:href="#DejaVuSans-48"/>
     <use x="884.863281" xlink:href="#DejaVuSans-95"/>
     <use x="934.863281" xlink:href="#DejaVuSans-52"/>
     <use x="998.486328" xlink:href="#DejaVuSans-95"/>
     <use x="1048.486328" xlink:href="#DejaVuSans-52"/>
     <use x="1112.109375" xlink:href="#DejaVuSans-95"/>
     <use x="1162.109375" xlink:href="#DejaVuSans-49"/>
     <use x="1225.732422" xlink:href="#DejaVuSans-51"/>
     <use x="1289.355469" xlink:href="#DejaVuSans-51"/>
     <use x="1352.978516" xlink:href="#DejaVuSans-55"/>
     <use x="1416.601562" xlink:href="#DejaVuSans-95"/>
     <use x="1466.601562" xlink:href="#DejaVuSans-95"/>
     <use x="1516.601562" xlink:href="#DejaVuSans-49"/>
     <use x="1580.224609" xlink:href="#DejaVuSans-58"/>
     <use x="1613.916016" xlink:href="#DejaVuSans-32"/>
     <use x="1645.703125" xlink:href="#DejaVuSans-101"/>
     <use x="1707.226562" xlink:href="#DejaVuSans-112"/>
     <use x="1770.703125" xlink:href="#DejaVuSans-105"/>
     <use x="1798.486328" xlink:href="#DejaVuSans-115"/>
     <use x="1850.585938" xlink:href="#DejaVuSans-111"/>
     <use x="1911.767578" xlink:href="#DejaVuSans-100"/>
     <use x="1975.244141" xlink:href="#DejaVuSans-101"/>
     <use x="2036.767578" xlink:href="#DejaVuSans-32"/>
     <use x="2068.554688" xlink:href="#DejaVuSans-100"/>
     <use x="2132.03125" xlink:href="#DejaVuSans-117"/>
     <use x="2195.410156" xlink:href="#DejaVuSans-114"/>
     <use x="2236.523438" xlink:href="#DejaVuSans-97"/>
     <use x="2297.802734" xlink:href="#DejaVuSans-116"/>
     <use x="2337.011719" xlink:href="#DejaVuSans-105"/>
     <use x="2364.794922" xlink:href="#DejaVuSans-111"/>
     <use x="2425.976562" xlink:href="#DejaVuSans-110"/>
     <use x="2489.355469" xlink:href="#DejaVuSans-44"/>
     <use x="2521.142578" xlink:href="#DejaVuSans-32"/>
     <use x="2552.929688" xlink:href="#DejaVuSans-115"/>
     <use x="2605.029297" xlink:href="#DejaVuSans-116"/>
     <use x="2644.238281" xlink:href="#DejaVuSans-101"/>
     <use x="2705.761719" xlink:href="#DejaVuSans-112"/>
     <use x="2769.238281" xlink:href="#DejaVuSans-115"/>
     <use x="2821.337891" xlink:href="#DejaVuSans-44"/>
     <use x="2853.125" xlink:href="#DejaVuSans-32"/>
     <use x="2884.912109" xlink:href="#DejaVuSans-77"/>
     <use x="2971.191406" xlink:href="#DejaVuSans-65"/>
     <use x="3039.599609" xlink:href="#DejaVuSans-61"/>
     <use x="3123.388672" xlink:href="#DejaVuSans-52"/>
     <use x="3187.011719" xlink:href="#DejaVuSans-48"/>
    </g>
   </g>
   <g id="legend_1">
    <g id="patch_7">
     <path d="M 774.948125 231.59625 
L 856.02 231.59625 
Q 858.02 231.59625 858.02 229.59625 
L 858.02 200.68375 
Q 858.02 198.68375 856.02 198.68375 
L 774.948125 198.68375 
Q 772.948125 198.68375 772.948125 200.68375 
L 772.948125 229.59625 
Q 772.948125 231.59625 774.948125 231.59625 
z
" style="fill:#ffffff;opacity:0.8;stroke:#cccccc;stroke-linejoin:miter;"/>
    </g>
    <g id="line2d_19">
     <path d="M 776.948125 206.782187 
L 796.948125 206.782187 
" style="fill:none;stroke:#1f77b4;stroke-linecap:square;stroke-width:1.5;"/>
    </g>
    <g id="line2d_20"/>
    <g id="text_18">
     <!-- htm_1_1g -->
     <defs>
      <path d="M 54.890625 33.015625 
L 54.890625 0 
L 45.90625 0 
L 45.90625 32.71875 
Q 45.90625 40.484375 42.875 44.328125 
Q 39.84375 48.1875 33.796875 48.1875 
Q 26.515625 48.1875 22.3125 43.546875 
Q 18.109375 38.921875 18.109375 30.90625 
L 18.109375 0 
L 9.078125 0 
L 9.078125 75.984375 
L 18.109375 75.984375 
L 18.109375 46.1875 
Q 21.34375 51.125 25.703125 53.5625 
Q 30.078125 56 35.796875 56 
Q 45.21875 56 50.046875 50.171875 
Q 54.890625 44.34375 54.890625 33.015625 
z
" id="DejaVuSans-104"/>
      <path d="M 52 44.1875 
Q 55.375 50.25 60.0625 53.125 
Q 64.75 56 71.09375 56 
Q 79.640625 56 84.28125 50.015625 
Q 88.921875 44.046875 88.921875 33.015625 
L 88.921875 0 
L 79.890625 0 
L 79.890625 32.71875 
Q 79.890625 40.578125 77.09375 44.375 
Q 74.3125 48.1875 68.609375 48.1875 
Q 61.625 48.1875 57.5625 43.546875 
Q 53.515625 38.921875 53.515625 30.90625 
L 53.515625 0 
L 44.484375 0 
L 44.484375 32.71875 
Q 44.484375 40.625 41.703125 44.40625 
Q 38.921875 48.1875 33.109375 48.1875 
Q 26.21875 48.1875 22.15625 43.53125 
Q 18.109375 38.875 18.109375 30.90625 
L 18.109375 0 
L 9.078125 0 
L 9.078125 54.6875 
L 18.109375 54.6875 
L 18.109375 46.1875 
Q 21.1875 51.21875 25.484375 53.609375 
Q 29.78125 56 35.6875 56 
Q 41.65625 56 45.828125 52.96875 
Q 50 49.953125 52 44.1875 
z
" id="DejaVuSans-109"/>
     </defs>
     <g transform="translate(804.948125 210.282187)scale(0.1 -0.1)">
      <use xlink:href="#DejaVuSans-104"/>
      <use x="63.378906" xlink:href="#DejaVuSans-116"/>
      <use x="102.587891" xlink:href="#DejaVuSans-109"/>
      <use x="200" xlink:href="#DejaVuSans-95"/>
      <use x="250" xlink:href="#DejaVuSans-49"/>
      <use x="313.623047" xlink:href="#DejaVuSans-95"/>
      <use x="363.623047" xlink:href="#DejaVuSans-49"/>
      <use x="427.246094" xlink:href="#DejaVuSans-103"/>
     </g>
    </g>
    <g id="line2d_21">
     <path d="M 776.948125 221.738437 
L 796.948125 221.738437 
" style="fill:none;stroke:#ff7f0e;stroke-linecap:square;stroke-width:1.5;"/>
    </g>
    <g id="line2d_22"/>
    <g id="text_19">
     <!-- htm_1_4g -->
     <g transform="translate(804.948125 225.238437)scale(0.1 -0.1)">
      <use xlink:href="#DejaVuSans-104"/>
      <use x="63.378906" xlink:href="#DejaVuSans-116"/>
      <use x="102.587891" xlink:href="#DejaVuSans-109"/>
      <use x="200" xlink:href="#DejaVuSans-95"/>
      <use x="250" xlink:href="#DejaVuSans-49"/>
      <use x="313.623047" xlink:href="#DejaVuSans-95"/>
      <use x="363.623047" xlink:href="#DejaVuSans-52"/>
      <use x="427.246094" xlink:href="#DejaVuSans-103"/>
     </g>
    </g>
   </g>
  </g>
 </g>
 <defs>
  <clipPath id="p8aa46e5d25">
   <rect height="377.96" width="693.7" x="30.58" y="26.16"/>
  </clipPath>
 </defs>
</svg>
