<?xml version="1.0" encoding="utf-8" standalone="no"?>
<!DOCTYPE svg PUBLIC "-//W3C//DTD SVG 1.1//EN"
  "http://www.w3.org/Graphics/SVG/1.1/DTD/svg11.dtd">
<!-- Created with matplotlib (https://matplotlib.org/) -->
<svg height="432pt" version="1.1" viewBox="0 0 864 432" width="864pt" xmlns="http://www.w3.org/2000/svg" xmlns:xlink="http://www.w3.org/1999/xlink">
 <defs>
  <style type="text/css">
*{stroke-linecap:butt;stroke-linejoin:round;}
  </style>
 </defs>
 <g id="figure_1">
  <g id="patch_1">
   <path d="M 0 432 
L 864 432 
L 864 0 
L 0 0 
z
" style="fill:#ffffff;"/>
  </g>
  <g id="axes_1">
   <g id="patch_2">
    <path d="M 42.1 404.12 
L 724.28 404.12 
L 724.28 26.52 
L 42.1 26.52 
z
" style="fill:#ffffff;"/>
   </g>
   <g id="matplotlib.axis_1">
    <g id="xtick_1">
     <g id="line2d_1">
      <defs>
       <path d="M 0 0 
L 0 3.5 
" id="m50e6a684e9" style="stroke:#000000;stroke-width:0.8;"/>
      </defs>
      <g>
       <use style="stroke:#000000;stroke-width:0.8;" x="42.1" xlink:href="#m50e6a684e9" y="404.12"/>
      </g>
     </g>
     <g id="text_1">
      <!-- 0 -->
      <defs>
       <path d="M 31.78125 66.40625 
Q 24.171875 66.40625 20.328125 58.90625 
Q 16.5 51.421875 16.5 36.375 
Q 16.5 21.390625 20.328125 13.890625 
Q 24.171875 6.390625 31.78125 6.390625 
Q 39.453125 6.390625 43.28125 13.890625 
Q 47.125 21.390625 47.125 36.375 
Q 47.125 51.421875 43.28125 58.90625 
Q 39.453125 66.40625 31.78125 66.40625 
z
M 31.78125 74.21875 
Q 44.046875 74.21875 50.515625 64.515625 
Q 56.984375 54.828125 56.984375 36.375 
Q 56.984375 17.96875 50.515625 8.265625 
Q 44.046875 -1.421875 31.78125 -1.421875 
Q 19.53125 -1.421875 13.0625 8.265625 
Q 6.59375 17.96875 6.59375 36.375 
Q 6.59375 54.828125 13.0625 64.515625 
Q 19.53125 74.21875 31.78125 74.21875 
z
" id="DejaVuSans-48"/>
      </defs>
      <g transform="translate(38.91875 418.718437)scale(0.1 -0.1)">
       <use xlink:href="#DejaVuSans-48"/>
      </g>
     </g>
    </g>
    <g id="xtick_2">
     <g id="line2d_2">
      <g>
       <use style="stroke:#000000;stroke-width:0.8;" x="127.586216" xlink:href="#m50e6a684e9" y="404.12"/>
      </g>
     </g>
     <g id="text_2">
      <!-- 50 -->
      <defs>
       <path d="M 10.796875 72.90625 
L 49.515625 72.90625 
L 49.515625 64.59375 
L 19.828125 64.59375 
L 19.828125 46.734375 
Q 21.96875 47.46875 24.109375 47.828125 
Q 26.265625 48.1875 28.421875 48.1875 
Q 40.625 48.1875 47.75 41.5 
Q 54.890625 34.8125 54.890625 23.390625 
Q 54.890625 11.625 47.5625 5.09375 
Q 40.234375 -1.421875 26.90625 -1.421875 
Q 22.3125 -1.421875 17.546875 -0.640625 
Q 12.796875 0.140625 7.71875 1.703125 
L 7.71875 11.625 
Q 12.109375 9.234375 16.796875 8.0625 
Q 21.484375 6.890625 26.703125 6.890625 
Q 35.15625 6.890625 40.078125 11.328125 
Q 45.015625 15.765625 45.015625 23.390625 
Q 45.015625 31 40.078125 35.4375 
Q 35.15625 39.890625 26.703125 39.890625 
Q 22.75 39.890625 18.8125 39.015625 
Q 14.890625 38.140625 10.796875 36.28125 
z
" id="DejaVuSans-53"/>
      </defs>
      <g transform="translate(121.223716 418.718437)scale(0.1 -0.1)">
       <use xlink:href="#DejaVuSans-53"/>
       <use x="63.623047" xlink:href="#DejaVuSans-48"/>
      </g>
     </g>
    </g>
    <g id="xtick_3">
     <g id="line2d_3">
      <g>
       <use style="stroke:#000000;stroke-width:0.8;" x="213.072431" xlink:href="#m50e6a684e9" y="404.12"/>
      </g>
     </g>
     <g id="text_3">
      <!-- 100 -->
      <defs>
       <path d="M 12.40625 8.296875 
L 28.515625 8.296875 
L 28.515625 63.921875 
L 10.984375 60.40625 
L 10.984375 69.390625 
L 28.421875 72.90625 
L 38.28125 72.90625 
L 38.28125 8.296875 
L 54.390625 8.296875 
L 54.390625 0 
L 12.40625 0 
z
" id="DejaVuSans-49"/>
      </defs>
      <g transform="translate(203.528681 418.718437)scale(0.1 -0.1)">
       <use xlink:href="#DejaVuSans-49"/>
       <use x="63.623047" xlink:href="#DejaVuSans-48"/>
       <use x="127.246094" xlink:href="#DejaVuSans-48"/>
      </g>
     </g>
    </g>
    <g id="xtick_4">
     <g id="line2d_4">
      <g>
       <use style="stroke:#000000;stroke-width:0.8;" x="298.558647" xlink:href="#m50e6a684e9" y="404.12"/>
      </g>
     </g>
     <g id="text_4">
      <!-- 150 -->
      <g transform="translate(289.014897 418.718437)scale(0.1 -0.1)">
       <use xlink:href="#DejaVuSans-49"/>
       <use x="63.623047" xlink:href="#DejaVuSans-53"/>
       <use x="127.246094" xlink:href="#DejaVuSans-48"/>
      </g>
     </g>
    </g>
    <g id="xtick_5">
     <g id="line2d_5">
      <g>
       <use style="stroke:#000000;stroke-width:0.8;" x="384.044862" xlink:href="#m50e6a684e9" y="404.12"/>
      </g>
     </g>
     <g id="text_5">
      <!-- 200 -->
      <defs>
       <path d="M 19.1875 8.296875 
L 53.609375 8.296875 
L 53.609375 0 
L 7.328125 0 
L 7.328125 8.296875 
Q 12.9375 14.109375 22.625 23.890625 
Q 32.328125 33.6875 34.8125 36.53125 
Q 39.546875 41.84375 41.421875 45.53125 
Q 43.3125 49.21875 43.3125 52.78125 
Q 43.3125 58.59375 39.234375 62.25 
Q 35.15625 65.921875 28.609375 65.921875 
Q 23.96875 65.921875 18.8125 64.3125 
Q 13.671875 62.703125 7.8125 59.421875 
L 7.8125 69.390625 
Q 13.765625 71.78125 18.9375 73 
Q 24.125 74.21875 28.421875 74.21875 
Q 39.75 74.21875 46.484375 68.546875 
Q 53.21875 62.890625 53.21875 53.421875 
Q 53.21875 48.921875 51.53125 44.890625 
Q 49.859375 40.875 45.40625 35.40625 
Q 44.1875 33.984375 37.640625 27.21875 
Q 31.109375 20.453125 19.1875 8.296875 
z
" id="DejaVuSans-50"/>
      </defs>
      <g transform="translate(374.501112 418.718437)scale(0.1 -0.1)">
       <use xlink:href="#DejaVuSans-50"/>
       <use x="63.623047" xlink:href="#DejaVuSans-48"/>
       <use x="127.246094" xlink:href="#DejaVuSans-48"/>
      </g>
     </g>
    </g>
    <g id="xtick_6">
     <g id="line2d_6">
      <g>
       <use style="stroke:#000000;stroke-width:0.8;" x="469.531078" xlink:href="#m50e6a684e9" y="404.12"/>
      </g>
     </g>
     <g id="text_6">
      <!-- 250 -->
      <g transform="translate(459.987328 418.718437)scale(0.1 -0.1)">
       <use xlink:href="#DejaVuSans-50"/>
       <use x="63.623047" xlink:href="#DejaVuSans-53"/>
       <use x="127.246094" xlink:href="#DejaVuSans-48"/>
      </g>
     </g>
    </g>
    <g id="xtick_7">
     <g id="line2d_7">
      <g>
       <use style="stroke:#000000;stroke-width:0.8;" x="555.017293" xlink:href="#m50e6a684e9" y="404.12"/>
      </g>
     </g>
     <g id="text_7">
      <!-- 300 -->
      <defs>
       <path d="M 40.578125 39.3125 
Q 47.65625 37.796875 51.625 33 
Q 55.609375 28.21875 55.609375 21.1875 
Q 55.609375 10.40625 48.1875 4.484375 
Q 40.765625 -1.421875 27.09375 -1.421875 
Q 22.515625 -1.421875 17.65625 -0.515625 
Q 12.796875 0.390625 7.625 2.203125 
L 7.625 11.71875 
Q 11.71875 9.328125 16.59375 8.109375 
Q 21.484375 6.890625 26.8125 6.890625 
Q 36.078125 6.890625 40.9375 10.546875 
Q 45.796875 14.203125 45.796875 21.1875 
Q 45.796875 27.640625 41.28125 31.265625 
Q 36.765625 34.90625 28.71875 34.90625 
L 20.21875 34.90625 
L 20.21875 43.015625 
L 29.109375 43.015625 
Q 36.375 43.015625 40.234375 45.921875 
Q 44.09375 48.828125 44.09375 54.296875 
Q 44.09375 59.90625 40.109375 62.90625 
Q 36.140625 65.921875 28.71875 65.921875 
Q 24.65625 65.921875 20.015625 65.03125 
Q 15.375 64.15625 9.8125 62.3125 
L 9.8125 71.09375 
Q 15.4375 72.65625 20.34375 73.4375 
Q 25.25 74.21875 29.59375 74.21875 
Q 40.828125 74.21875 47.359375 69.109375 
Q 53.90625 64.015625 53.90625 55.328125 
Q 53.90625 49.265625 50.4375 45.09375 
Q 46.96875 40.921875 40.578125 39.3125 
z
" id="DejaVuSans-51"/>
      </defs>
      <g transform="translate(545.473543 418.718437)scale(0.1 -0.1)">
       <use xlink:href="#DejaVuSans-51"/>
       <use x="63.623047" xlink:href="#DejaVuSans-48"/>
       <use x="127.246094" xlink:href="#DejaVuSans-48"/>
      </g>
     </g>
    </g>
    <g id="xtick_8">
     <g id="line2d_8">
      <g>
       <use style="stroke:#000000;stroke-width:0.8;" x="640.503509" xlink:href="#m50e6a684e9" y="404.12"/>
      </g>
     </g>
     <g id="text_8">
      <!-- 350 -->
      <g transform="translate(630.959759 418.718437)scale(0.1 -0.1)">
       <use xlink:href="#DejaVuSans-51"/>
       <use x="63.623047" xlink:href="#DejaVuSans-53"/>
       <use x="127.246094" xlink:href="#DejaVuSans-48"/>
      </g>
     </g>
    </g>
   </g>
   <g id="matplotlib.axis_2">
    <g id="ytick_1">
     <g id="line2d_9">
      <defs>
       <path d="M 0 0 
L -3.5 0 
" id="m782eca8bf7" style="stroke:#000000;stroke-width:0.8;"/>
      </defs>
      <g>
       <use style="stroke:#000000;stroke-width:0.8;" x="42.1" xlink:href="#m782eca8bf7" y="381.849454"/>
      </g>
     </g>
     <g id="text_9">
      <!-- −2.0 -->
      <defs>
       <path d="M 10.59375 35.5 
L 73.1875 35.5 
L 73.1875 27.203125 
L 10.59375 27.203125 
z
" id="DejaVuSans-8722"/>
       <path d="M 10.6875 12.40625 
L 21 12.40625 
L 21 0 
L 10.6875 0 
z
" id="DejaVuSans-46"/>
      </defs>
      <g transform="translate(10.817188 385.648673)scale(0.1 -0.1)">
       <use xlink:href="#DejaVuSans-8722"/>
       <use x="83.789062" xlink:href="#DejaVuSans-50"/>
       <use x="147.412109" xlink:href="#DejaVuSans-46"/>
       <use x="179.199219" xlink:href="#DejaVuSans-48"/>
      </g>
     </g>
    </g>
    <g id="ytick_2">
     <g id="line2d_10">
      <g>
       <use style="stroke:#000000;stroke-width:0.8;" x="42.1" xlink:href="#m782eca8bf7" y="307.354833"/>
      </g>
     </g>
     <g id="text_10">
      <!-- −1.5 -->
      <g transform="translate(10.817188 311.154052)scale(0.1 -0.1)">
       <use xlink:href="#DejaVuSans-8722"/>
       <use x="83.789062" xlink:href="#DejaVuSans-49"/>
       <use x="147.412109" xlink:href="#DejaVuSans-46"/>
       <use x="179.199219" xlink:href="#DejaVuSans-53"/>
      </g>
     </g>
    </g>
    <g id="ytick_3">
     <g id="line2d_11">
      <g>
       <use style="stroke:#000000;stroke-width:0.8;" x="42.1" xlink:href="#m782eca8bf7" y="232.860212"/>
      </g>
     </g>
     <g id="text_11">
      <!-- −1.0 -->
      <g transform="translate(10.817188 236.659431)scale(0.1 -0.1)">
       <use xlink:href="#DejaVuSans-8722"/>
       <use x="83.789062" xlink:href="#DejaVuSans-49"/>
       <use x="147.412109" xlink:href="#DejaVuSans-46"/>
       <use x="179.199219" xlink:href="#DejaVuSans-48"/>
      </g>
     </g>
    </g>
    <g id="ytick_4">
     <g id="line2d_12">
      <g>
       <use style="stroke:#000000;stroke-width:0.8;" x="42.1" xlink:href="#m782eca8bf7" y="158.365591"/>
      </g>
     </g>
     <g id="text_12">
      <!-- −0.5 -->
      <g transform="translate(10.817188 162.16481)scale(0.1 -0.1)">
       <use xlink:href="#DejaVuSans-8722"/>
       <use x="83.789062" xlink:href="#DejaVuSans-48"/>
       <use x="147.412109" xlink:href="#DejaVuSans-46"/>
       <use x="179.199219" xlink:href="#DejaVuSans-53"/>
      </g>
     </g>
    </g>
    <g id="ytick_5">
     <g id="line2d_13">
      <g>
       <use style="stroke:#000000;stroke-width:0.8;" x="42.1" xlink:href="#m782eca8bf7" y="83.870971"/>
      </g>
     </g>
     <g id="text_13">
      <!-- 0.0 -->
      <g transform="translate(19.196875 87.670189)scale(0.1 -0.1)">
       <use xlink:href="#DejaVuSans-48"/>
       <use x="63.623047" xlink:href="#DejaVuSans-46"/>
       <use x="95.410156" xlink:href="#DejaVuSans-48"/>
      </g>
     </g>
    </g>
   </g>
   <g id="line2d_14">
    <path clip-path="url(#p826c9377f1)" d="M 108.779248 83.870971 
L 724.28 83.870971 
L 724.28 83.870971 
" style="fill:none;stroke:#1f77b4;stroke-linecap:square;stroke-width:1.5;"/>
   </g>
   <g id="line2d_15">
    <path clip-path="url(#p826c9377f1)" d="M 108.779248 73.524838 
L 110.488972 69.684813 
L 112.198697 75.26852 
L 113.908421 81.942342 
L 115.618145 79.360555 
L 117.32787 79.360555 
L 119.037594 90.938985 
L 120.747318 94.45685 
L 122.457043 91.043914 
L 124.166767 91.043914 
L 125.876491 92.946602 
L 127.586216 91.875064 
L 129.29594 92.449233 
L 131.005664 98.906019 
L 132.715388 93.982834 
L 134.425113 93.982834 
L 136.134837 108.554068 
L 137.844561 108.554068 
L 139.554286 112.646103 
L 141.26401 126.643167 
L 149.812632 126.643167 
L 151.522356 126.8867 
L 153.23208 110.523212 
L 154.941805 123.23049 
L 156.651529 139.311972 
L 158.361253 141.747672 
L 160.070977 148.732068 
L 161.780702 137.573771 
L 163.490426 142.315226 
L 165.20015 140.230808 
L 166.909875 127.720785 
L 168.619599 128.792324 
L 170.329323 120.089539 
L 172.039048 120.089539 
L 173.748772 132.128321 
L 175.458496 132.128321 
L 177.168221 132.80742 
L 178.877945 135.079626 
L 180.587669 128.424381 
L 182.297393 118.870635 
L 184.007118 129.673927 
L 185.716842 129.673927 
L 187.426566 111.712061 
L 189.136291 120.925343 
L 192.555739 127.659242 
L 194.265464 127.659242 
L 195.975188 131.312567 
L 197.684912 139.008593 
L 199.394637 118.811723 
L 201.104361 124.806446 
L 202.814085 139.37768 
L 204.52381 124.806446 
L 206.233534 129.460256 
L 207.943258 126.523465 
L 209.652982 122.61316 
L 211.362707 120.710472 
L 213.072431 124.347279 
L 214.782155 143.010548 
L 216.49188 132.683401 
L 218.201604 132.683401 
L 219.911328 127.46983 
L 221.621053 129.567204 
L 223.330777 122.154205 
L 225.040501 106.072723 
L 226.750226 101.886386 
L 228.45995 94.90199 
L 231.879398 94.90199 
L 233.589123 96.986408 
L 235.298847 109.49643 
L 237.008571 108.665281 
L 238.718296 104.573245 
L 240.42802 104.573245 
L 242.137744 101.991459 
L 243.847469 101.991459 
L 245.557193 97.899423 
L 247.266917 74.382162 
L 248.976642 76.11793 
L 250.686366 63.98791 
L 252.39609 73.243519 
L 255.815539 97.611126 
L 257.525263 99.889922 
L 259.234987 112.558467 
L 260.944712 109.237504 
L 262.654436 124.487836 
L 264.36416 121.906049 
L 266.073885 119.684172 
L 267.783609 147.995489 
L 269.493333 147.995489 
L 271.203058 143.702068 
L 272.912782 142.191819 
L 274.622506 148.017208 
L 276.332231 150.953999 
L 278.041955 140.867241 
L 279.751679 142.769929 
L 281.461404 140.974242 
L 283.171128 122.310973 
L 284.880852 132.63812 
L 288.300301 132.63812 
L 290.010025 128.684911 
L 293.429474 128.684911 
L 295.139198 139.404498 
L 296.848922 139.404498 
L 298.558647 134.399447 
L 300.268371 145.317356 
L 301.978095 137.720411 
L 303.68782 133.628375 
L 305.397544 134.459525 
L 307.107268 137.720411 
L 308.816992 137.720411 
L 310.526717 140.302197 
L 312.236441 140.302197 
L 313.946165 144.394233 
L 315.65589 165.639288 
L 317.365614 164.975059 
L 319.075338 170.577343 
L 320.785063 176.927071 
L 322.494787 164.937624 
L 324.204511 164.937624 
L 325.914236 156.601502 
L 327.62396 143.932957 
L 329.333684 147.377063 
L 331.043409 122.296952 
L 332.753133 130.751329 
L 334.462857 120.113607 
L 336.172581 121.623856 
L 337.882306 126.78743 
L 339.59203 130.009312 
L 341.301754 152.764617 
L 343.011479 142.285418 
L 344.721203 142.285418 
L 346.430927 130.295972 
L 348.140652 115.438079 
L 349.850376 113.596958 
L 351.5601 113.596958 
L 353.269825 115.438079 
L 354.979549 128.106624 
L 356.689273 128.106624 
L 358.398997 134.378589 
L 360.108722 133.547439 
L 361.818446 134.394141 
L 363.52817 125.425191 
L 365.237895 139.422255 
L 366.947619 145.937554 
L 368.657343 135.019646 
L 370.367068 149.745455 
L 372.076792 160.156307 
L 373.786516 160.156307 
L 375.496241 160.987457 
L 377.205965 174.984521 
L 378.915689 174.984521 
L 380.625414 187.298061 
L 382.335138 197.38482 
L 387.464311 197.38482 
L 389.174035 183.206026 
L 392.593484 167.729883 
L 394.303208 159.545813 
L 396.012932 174.117046 
L 397.722657 179.782463 
L 399.432381 194.775815 
L 401.142105 192.442436 
L 402.85183 192.442436 
L 404.561554 176.360954 
L 406.271278 171.19738 
L 407.981003 157.697685 
L 409.690727 147.370538 
L 411.400451 144.214581 
L 413.110175 144.214581 
L 414.8199 153.622241 
L 416.529624 181.541119 
L 418.239348 181.541119 
L 419.949073 188.44541 
L 421.658797 194.109261 
L 423.368521 196.691048 
L 425.078246 196.691048 
L 426.78797 204.746982 
L 428.497694 198.90431 
L 430.207419 206.279113 
L 431.917143 206.279113 
L 433.626867 186.287326 
L 435.336591 200.85856 
L 437.046316 208.181801 
L 438.75604 202.124476 
L 440.465764 200.088748 
L 442.175489 216.17023 
L 443.885213 219.807037 
L 445.594937 198.717201 
L 447.304662 197.206953 
L 449.014386 193.229534 
L 450.72411 183.142775 
L 452.433835 184.728273 
L 454.143559 196.71772 
L 455.853283 188.267484 
L 457.563008 183.783009 
L 459.272732 206.538313 
L 462.69218 222.693554 
L 464.401905 208.300328 
L 466.111629 199.190806 
L 467.821353 194.027232 
L 469.531078 174.213004 
L 471.240802 179.376577 
L 472.950526 179.376577 
L 474.660251 177.866329 
L 476.369975 189.855775 
L 478.079699 176.35608 
L 479.789424 172.996738 
L 481.499148 172.996738 
L 483.208872 174.506986 
L 484.918596 161.446001 
L 486.628321 161.446001 
L 488.338045 161.864952 
L 490.047769 158.92816 
L 491.757494 147.314635 
L 493.467218 147.314635 
L 495.176942 159.348513 
L 496.886667 163.440548 
L 498.596391 162.285304 
L 500.306115 158.872368 
L 502.01584 153.784044 
L 503.725564 140.284349 
L 505.435288 128.667686 
L 507.145013 134.662409 
L 508.854737 120.052173 
L 510.564461 103.970691 
L 512.274185 100.333883 
L 513.98391 119.740196 
L 515.693634 121.250445 
L 517.403358 108.52415 
L 519.113083 100.55298 
L 520.822807 112.964545 
L 522.532531 122.220154 
L 524.242256 138.083389 
L 525.95198 148.562587 
L 527.661704 120.900689 
L 529.371429 125.777603 
L 532.790877 145.591383 
L 534.500602 145.591383 
L 536.210326 134.825526 
L 537.92005 160.832298 
L 539.629774 160.832298 
L 541.339499 159.760759 
L 543.049223 161.271008 
L 544.758947 147.378873 
L 546.468672 149.96066 
L 548.178396 154.573271 
L 549.88812 153.894172 
L 551.597845 153.063022 
L 553.307569 151.809754 
L 555.017293 156.827241 
L 556.727018 151.730781 
L 558.436742 153.690336 
L 560.146466 153.111461 
L 561.85619 158.924454 
L 563.565915 146.255908 
L 565.275639 161.506241 
L 566.985363 161.113801 
L 568.695088 177.587723 
L 570.404812 188.67077 
L 572.114536 187.599232 
L 573.824261 190.382404 
L 575.533985 184.387681 
L 577.243709 194.714828 
L 580.663158 194.714828 
L 582.372882 172.314529 
L 584.082607 175.316449 
L 585.792331 179.706621 
L 587.502055 180.222818 
L 589.211779 166.225754 
L 590.921504 146.085493 
L 592.631228 144.369081 
L 594.340952 137.800188 
L 596.050677 161.37005 
L 597.760401 146.074015 
L 599.470125 135.987256 
L 601.17985 137.000136 
L 602.889574 137.000136 
L 604.599298 138.668908 
L 606.309023 141.6057 
L 608.018747 134.051393 
L 609.728471 135.122931 
L 611.438195 134.291781 
L 613.14792 136.194469 
L 614.857644 136.194469 
L 616.567368 137.025619 
L 618.277093 147.98253 
L 619.986817 145.552794 
L 621.696541 142.139858 
L 623.406266 140.324133 
L 625.11599 149.015259 
L 626.825714 150.489864 
L 628.535439 151.413869 
L 630.245163 156.292973 
L 631.954887 154.390285 
L 633.664612 140.211491 
L 635.374336 133.537669 
L 637.08406 120.476684 
L 638.793784 120.476684 
L 640.503509 121.548223 
L 642.213233 132.624654 
L 643.922957 132.624654 
L 645.632682 127.106076 
L 647.342406 127.106076 
L 649.05213 125.422553 
L 650.761855 135.509311 
L 652.471579 132.507392 
L 654.181303 132.507392 
L 655.891028 139.962366 
L 657.600752 139.962366 
L 659.310476 138.857571 
L 661.020201 133.160985 
L 662.729925 129.726825 
L 664.439649 119.058809 
L 666.149373 133.423878 
L 667.859098 133.423878 
L 669.568822 124.286525 
L 671.278546 127.316345 
L 672.988271 136.413431 
L 674.697995 122.05685 
L 676.407719 129.611157 
L 678.117444 129.611157 
L 679.827168 134.317306 
L 681.536892 141.730304 
L 683.246617 155.727368 
L 684.956341 165.908429 
L 686.666065 144.472319 
L 688.375789 162.304439 
L 690.085514 166.970644 
L 691.795238 171.273854 
L 693.504962 160.355946 
L 695.214687 154.813259 
L 696.924411 159.407832 
L 698.634135 147.884585 
L 700.34386 161.776719 
L 702.053584 177.284031 
L 703.763308 171.599882 
L 708.892481 171.599882 
L 710.602206 154.446862 
L 712.31193 146.860025 
L 714.021654 148.965666 
L 715.731378 148.965666 
L 717.441103 150.649189 
L 719.150827 163.710174 
L 720.860551 163.710174 
L 722.570276 163.136005 
L 724.28 163.136005 
L 724.28 163.136005 
" style="fill:none;stroke:#ff7f0e;stroke-linecap:square;stroke-width:1.5;"/>
   </g>
   <g id="line2d_16">
    <path clip-path="url(#p826c9377f1)" d="M 108.779248 69.477388 
L 110.488972 43.683636 
L 112.198697 66.936309 
L 113.908421 73.004792 
L 115.618145 80.033619 
L 117.32787 83.054116 
L 119.037594 98.304448 
L 120.747318 97.730278 
L 122.457043 96.22003 
L 124.166767 99.156821 
L 125.876491 99.156821 
L 127.586216 97.494522 
L 129.29594 102.160727 
L 131.005664 115.221712 
L 132.715388 113.711463 
L 134.425113 102.908171 
L 136.134837 102.908171 
L 137.844561 90.918725 
L 139.554286 90.918725 
L 141.26401 91.990263 
L 148.102907 91.990263 
L 149.812632 110.653532 
L 151.522356 125.903864 
L 153.23208 115.626052 
L 154.941805 130.559194 
L 156.651529 152.183363 
L 158.361253 163.874672 
L 160.070977 181.027692 
L 161.780702 158.190523 
L 163.490426 153.058118 
L 165.20015 151.54787 
L 166.909875 152.37902 
L 168.619599 152.37902 
L 170.329323 139.318035 
L 172.039048 142.473991 
L 175.458496 142.473991 
L 177.168221 143.15309 
L 178.877945 166.793657 
L 180.587669 149.640637 
L 182.297393 145.548602 
L 184.007118 161.630084 
L 185.716842 161.630084 
L 187.426566 143.359254 
L 189.136291 165.17848 
L 190.846015 166.688728 
L 192.555739 181.939061 
L 194.265464 181.939061 
L 197.684912 220.096748 
L 199.394637 210.191719 
L 201.104361 204.213587 
L 202.814085 234.427593 
L 204.52381 233.356054 
L 206.233534 262.498521 
L 207.943258 262.498521 
L 209.652982 271.75413 
L 211.362707 264.878922 
L 213.072431 283.542191 
L 214.782155 299.623673 
L 216.49188 299.623673 
L 219.911328 263.128285 
L 221.621053 263.128285 
L 225.040501 230.965321 
L 226.750226 216.013127 
L 228.45995 196.278319 
L 230.169674 203.865157 
L 231.879398 202.821107 
L 233.589123 206.913143 
L 235.298847 206.913143 
L 237.008571 205.402894 
L 238.718296 205.402894 
L 240.42802 203.892646 
L 245.557193 203.892646 
L 247.266917 179.326627 
L 248.976642 182.482583 
L 250.686366 155.242805 
L 252.39609 139.161323 
L 254.105815 157.824591 
L 255.815539 162.355337 
L 257.525263 157.689132 
L 259.234987 173.770614 
L 260.944712 156.617593 
L 262.654436 177.862649 
L 264.36416 161.781167 
L 266.073885 158.36823 
L 267.783609 175.521251 
L 269.493333 184.51988 
L 271.203058 186.709227 
L 272.912782 190.362552 
L 274.622506 195.964836 
L 276.332231 198.546623 
L 278.041955 184.12744 
L 279.751679 191.002648 
L 281.461404 172.339379 
L 283.171128 156.257897 
L 284.880852 156.257897 
L 286.590576 152.165862 
L 288.300301 173.410918 
L 290.010025 171.900669 
L 291.719749 173.985088 
L 293.429474 173.985088 
L 295.139198 188.40427 
L 296.848922 190.986057 
L 298.558647 185.981006 
L 300.268371 206.546963 
L 303.68782 206.546963 
L 305.397544 207.226062 
L 307.107268 196.728287 
L 308.816992 197.559436 
L 310.526717 196.728287 
L 312.236441 196.728287 
L 313.946165 194.643868 
L 315.65589 217.010459 
L 317.365614 233.091941 
L 319.075338 263.170487 
L 320.785063 284.415543 
L 322.494787 276.910571 
L 324.204511 287.713863 
L 325.914236 286.777784 
L 327.62396 281.614211 
L 329.333684 299.598381 
L 331.043409 278.353325 
L 332.753133 302.180168 
L 334.462857 286.929835 
L 336.172581 285.858297 
L 337.882306 304.521566 
L 339.59203 300.189142 
L 341.301754 318.852411 
L 343.011479 299.117604 
L 344.721203 296.535817 
L 346.430927 301.69939 
L 348.140652 301.69939 
L 349.850376 310.275901 
L 351.5601 324.847134 
L 353.269825 327.606928 
L 354.979549 341.785722 
L 356.689273 326.962478 
L 358.398997 316.583955 
L 360.108722 313.563458 
L 361.818446 314.553131 
L 363.52817 310.544801 
L 365.237895 323.605786 
L 366.947619 328.610836 
L 368.657343 314.039603 
L 370.367068 323.008552 
L 372.076792 328.272801 
L 373.786516 328.032412 
L 375.496241 338.530187 
L 377.205965 352.708981 
L 378.915689 353.540131 
L 380.625414 366.208677 
L 382.335138 386.956364 
L 384.044862 385.834828 
L 385.754586 369.753346 
L 387.464311 358.338069 
L 389.174035 337.093014 
L 392.593484 286.381397 
L 394.303208 267.325689 
L 396.012932 275.071049 
L 397.722657 274.239899 
L 399.432381 295.484955 
L 401.142105 292.903168 
L 402.85183 291.39292 
L 404.561554 275.311438 
L 406.271278 256.648169 
L 407.981003 245.730261 
L 409.690727 238.482269 
L 411.400451 236.39785 
L 414.8199 236.39785 
L 416.529624 249.897545 
L 418.239348 241.321035 
L 419.949073 228.931707 
L 421.658797 241.422245 
L 423.368521 247.416968 
L 425.078246 252.984603 
L 426.78797 275.151188 
L 428.497694 278.171685 
L 430.207419 292.432344 
L 431.917143 295.369136 
L 433.626867 282.308151 
L 435.336591 298.389633 
L 437.046316 307.902222 
L 438.75604 298.933272 
L 440.465764 308.240257 
L 442.175489 327.975064 
L 443.885213 330.339815 
L 445.594937 311.676546 
L 447.304662 311.676546 
L 449.014386 301.767795 
L 450.72411 283.104526 
L 452.433835 288.688233 
L 454.143559 307.351502 
L 455.853283 304.195545 
L 457.563008 304.195545 
L 459.272732 337.430047 
L 460.982456 348.195905 
L 462.69218 354.190628 
L 464.401905 354.190628 
L 466.111629 343.032331 
L 469.531078 309.797829 
L 471.240802 312.818326 
L 472.950526 310.236539 
L 474.660251 312.818326 
L 476.369975 334.063381 
L 478.079699 322.648104 
L 479.789424 328.385848 
L 481.499148 327.706749 
L 483.208872 329.216998 
L 484.918596 315.717302 
L 486.628321 324.550792 
L 488.338045 335.429872 
L 490.047769 326.928612 
L 491.757494 321.765038 
L 493.467218 312.357378 
L 495.176942 320.742835 
L 498.596391 320.742835 
L 500.306115 306.564041 
L 502.01584 302.472005 
L 503.725564 286.390524 
L 505.435288 272.926472 
L 507.145013 287.497705 
L 510.564461 241.128459 
L 512.274185 237.253459 
L 513.98391 255.916728 
L 515.693634 252.263403 
L 517.403358 249.503609 
L 519.113083 247.99336 
L 520.822807 261.072923 
L 522.532531 258.491136 
L 524.242256 282.892148 
L 525.95198 292.623902 
L 527.661704 273.960633 
L 529.371429 288.176862 
L 531.081153 304.258344 
L 532.790877 304.258344 
L 534.500602 299.09477 
L 536.210326 295.002735 
L 537.92005 308.50243 
L 539.629774 311.084217 
L 541.339499 312.594465 
L 543.049223 307.823331 
L 544.758947 285.506737 
L 546.468672 287.016986 
L 549.88812 279.484525 
L 551.597845 282.066312 
L 553.307569 282.066312 
L 555.017293 294.477878 
L 556.727018 286.945417 
L 558.436742 290.474157 
L 560.146466 300.801305 
L 561.85619 314.798368 
L 563.565915 296.1351 
L 565.275639 304.589476 
L 566.985363 300.257053 
L 568.695088 315.764365 
L 570.404812 319.8564 
L 572.114536 312.698165 
L 573.824261 311.644577 
L 575.533985 295.563095 
L 577.243709 288.283934 
L 578.953434 293.447507 
L 580.663158 277.804736 
L 582.372882 243.059985 
L 584.082607 261.963642 
L 585.792331 261.963642 
L 587.502055 248.223558 
L 589.211779 229.56029 
L 590.921504 218.355722 
L 592.631228 218.355722 
L 594.340952 225.776988 
L 596.050677 241.027321 
L 597.760401 229.54493 
L 599.470125 210.526656 
L 601.17985 202.781296 
L 602.889574 203.852834 
L 604.599298 203.852834 
L 606.309023 203.021684 
L 608.018747 200.832337 
L 609.728471 200.153238 
L 611.438195 199.322089 
L 613.14792 197.81184 
L 614.857644 193.719805 
L 616.567368 194.791343 
L 618.277093 208.915761 
L 619.986817 201.56284 
L 621.696541 201.56284 
L 623.406266 188.113142 
L 625.11599 192.671376 
L 626.825714 198.475046 
L 628.535439 193.311472 
L 630.245163 196.467429 
L 631.954887 196.467429 
L 633.664612 188.013052 
L 637.08406 165.679867 
L 638.793784 165.679867 
L 640.503509 172.838102 
L 642.213233 187.049426 
L 643.922957 185.146738 
L 645.632682 190.786457 
L 647.342406 190.786457 
L 649.05213 205.633722 
L 650.761855 216.730452 
L 652.471579 200.408582 
L 654.181303 191.926373 
L 655.891028 207.176706 
L 657.600752 220.237691 
L 659.310476 226.519073 
L 661.020201 223.937286 
L 662.729925 214.107508 
L 664.439649 208.264835 
L 666.149373 214.418082 
L 667.859098 234.507894 
L 669.568822 239.671467 
L 671.278546 252.732452 
L 672.988271 252.732452 
L 674.697995 248.640417 
L 676.407719 257.429827 
L 678.117444 259.180464 
L 683.246617 301.670575 
L 684.956341 317.752057 
L 686.666065 308.185874 
L 688.375789 327.528242 
L 690.085514 327.528242 
L 691.795238 322.00509 
L 693.504962 319.815743 
L 695.214687 319.815743 
L 696.924411 320.887282 
L 698.634135 305.484898 
L 700.34386 314.892558 
L 702.053584 330.14289 
L 708.892481 330.14289 
L 710.602206 322.446865 
L 712.31193 325.859801 
L 714.021654 335.470415 
L 715.731378 335.470415 
L 717.441103 337.77617 
L 719.150827 369.169551 
L 720.860551 370.24109 
L 722.570276 382.815333 
L 724.28 382.815333 
L 724.28 382.815333 
" style="fill:none;stroke:#2ca02c;stroke-linecap:square;stroke-width:1.5;"/>
   </g>
   <g id="patch_3">
    <path d="M 42.1 404.12 
L 42.1 26.52 
" style="fill:none;stroke:#000000;stroke-linecap:square;stroke-linejoin:miter;stroke-width:0.8;"/>
   </g>
   <g id="patch_4">
    <path d="M 724.28 404.12 
L 724.28 26.52 
" style="fill:none;stroke:#000000;stroke-linecap:square;stroke-linejoin:miter;stroke-width:0.8;"/>
   </g>
   <g id="patch_5">
    <path d="M 42.1 404.12 
L 724.28 404.12 
" style="fill:none;stroke:#000000;stroke-linecap:square;stroke-linejoin:miter;stroke-width:0.8;"/>
   </g>
   <g id="patch_6">
    <path d="M 42.1 26.52 
L 724.28 26.52 
" style="fill:none;stroke:#000000;stroke-linecap:square;stroke-linejoin:miter;stroke-width:0.8;"/>
   </g>
   <g id="text_14">
    <!-- gridworld_5x5_20_1_20_1337__dqn: episode duration in steps log-relative to `dqn_greedy`, MA=40 -->
    <defs>
     <path d="M 45.40625 27.984375 
Q 45.40625 37.75 41.375 43.109375 
Q 37.359375 48.484375 30.078125 48.484375 
Q 22.859375 48.484375 18.828125 43.109375 
Q 14.796875 37.75 14.796875 27.984375 
Q 14.796875 18.265625 18.828125 12.890625 
Q 22.859375 7.515625 30.078125 7.515625 
Q 37.359375 7.515625 41.375 12.890625 
Q 45.40625 18.265625 45.40625 27.984375 
z
M 54.390625 6.78125 
Q 54.390625 -7.171875 48.1875 -13.984375 
Q 42 -20.796875 29.203125 -20.796875 
Q 24.46875 -20.796875 20.265625 -20.09375 
Q 16.0625 -19.390625 12.109375 -17.921875 
L 12.109375 -9.1875 
Q 16.0625 -11.328125 19.921875 -12.34375 
Q 23.78125 -13.375 27.78125 -13.375 
Q 36.625 -13.375 41.015625 -8.765625 
Q 45.40625 -4.15625 45.40625 5.171875 
L 45.40625 9.625 
Q 42.625 4.78125 38.28125 2.390625 
Q 33.9375 0 27.875 0 
Q 17.828125 0 11.671875 7.65625 
Q 5.515625 15.328125 5.515625 27.984375 
Q 5.515625 40.671875 11.671875 48.328125 
Q 17.828125 56 27.875 56 
Q 33.9375 56 38.28125 53.609375 
Q 42.625 51.21875 45.40625 46.390625 
L 45.40625 54.6875 
L 54.390625 54.6875 
z
" id="DejaVuSans-103"/>
     <path d="M 41.109375 46.296875 
Q 39.59375 47.171875 37.8125 47.578125 
Q 36.03125 48 33.890625 48 
Q 26.265625 48 22.1875 43.046875 
Q 18.109375 38.09375 18.109375 28.8125 
L 18.109375 0 
L 9.078125 0 
L 9.078125 54.6875 
L 18.109375 54.6875 
L 18.109375 46.1875 
Q 20.953125 51.171875 25.484375 53.578125 
Q 30.03125 56 36.53125 56 
Q 37.453125 56 38.578125 55.875 
Q 39.703125 55.765625 41.0625 55.515625 
z
" id="DejaVuSans-114"/>
     <path d="M 9.421875 54.6875 
L 18.40625 54.6875 
L 18.40625 0 
L 9.421875 0 
z
M 9.421875 75.984375 
L 18.40625 75.984375 
L 18.40625 64.59375 
L 9.421875 64.59375 
z
" id="DejaVuSans-105"/>
     <path d="M 45.40625 46.390625 
L 45.40625 75.984375 
L 54.390625 75.984375 
L 54.390625 0 
L 45.40625 0 
L 45.40625 8.203125 
Q 42.578125 3.328125 38.25 0.953125 
Q 33.9375 -1.421875 27.875 -1.421875 
Q 17.96875 -1.421875 11.734375 6.484375 
Q 5.515625 14.40625 5.515625 27.296875 
Q 5.515625 40.1875 11.734375 48.09375 
Q 17.96875 56 27.875 56 
Q 33.9375 56 38.25 53.625 
Q 42.578125 51.265625 45.40625 46.390625 
z
M 14.796875 27.296875 
Q 14.796875 17.390625 18.875 11.75 
Q 22.953125 6.109375 30.078125 6.109375 
Q 37.203125 6.109375 41.296875 11.75 
Q 45.40625 17.390625 45.40625 27.296875 
Q 45.40625 37.203125 41.296875 42.84375 
Q 37.203125 48.484375 30.078125 48.484375 
Q 22.953125 48.484375 18.875 42.84375 
Q 14.796875 37.203125 14.796875 27.296875 
z
" id="DejaVuSans-100"/>
     <path d="M 4.203125 54.6875 
L 13.1875 54.6875 
L 24.421875 12.015625 
L 35.59375 54.6875 
L 46.1875 54.6875 
L 57.421875 12.015625 
L 68.609375 54.6875 
L 77.59375 54.6875 
L 63.28125 0 
L 52.6875 0 
L 40.921875 44.828125 
L 29.109375 0 
L 18.5 0 
z
" id="DejaVuSans-119"/>
     <path d="M 30.609375 48.390625 
Q 23.390625 48.390625 19.1875 42.75 
Q 14.984375 37.109375 14.984375 27.296875 
Q 14.984375 17.484375 19.15625 11.84375 
Q 23.34375 6.203125 30.609375 6.203125 
Q 37.796875 6.203125 41.984375 11.859375 
Q 46.1875 17.53125 46.1875 27.296875 
Q 46.1875 37.015625 41.984375 42.703125 
Q 37.796875 48.390625 30.609375 48.390625 
z
M 30.609375 56 
Q 42.328125 56 49.015625 48.375 
Q 55.71875 40.765625 55.71875 27.296875 
Q 55.71875 13.875 49.015625 6.21875 
Q 42.328125 -1.421875 30.609375 -1.421875 
Q 18.84375 -1.421875 12.171875 6.21875 
Q 5.515625 13.875 5.515625 27.296875 
Q 5.515625 40.765625 12.171875 48.375 
Q 18.84375 56 30.609375 56 
z
" id="DejaVuSans-111"/>
     <path d="M 9.421875 75.984375 
L 18.40625 75.984375 
L 18.40625 0 
L 9.421875 0 
z
" id="DejaVuSans-108"/>
     <path d="M 50.984375 -16.609375 
L 50.984375 -23.578125 
L -0.984375 -23.578125 
L -0.984375 -16.609375 
z
" id="DejaVuSans-95"/>
     <path d="M 54.890625 54.6875 
L 35.109375 28.078125 
L 55.90625 0 
L 45.3125 0 
L 29.390625 21.484375 
L 13.484375 0 
L 2.875 0 
L 24.125 28.609375 
L 4.6875 54.6875 
L 15.28125 54.6875 
L 29.78125 35.203125 
L 44.28125 54.6875 
z
" id="DejaVuSans-120"/>
     <path d="M 8.203125 72.90625 
L 55.078125 72.90625 
L 55.078125 68.703125 
L 28.609375 0 
L 18.3125 0 
L 43.21875 64.59375 
L 8.203125 64.59375 
z
" id="DejaVuSans-55"/>
     <path d="M 14.796875 27.296875 
Q 14.796875 17.390625 18.875 11.75 
Q 22.953125 6.109375 30.078125 6.109375 
Q 37.203125 6.109375 41.296875 11.75 
Q 45.40625 17.390625 45.40625 27.296875 
Q 45.40625 37.203125 41.296875 42.84375 
Q 37.203125 48.484375 30.078125 48.484375 
Q 22.953125 48.484375 18.875 42.84375 
Q 14.796875 37.203125 14.796875 27.296875 
z
M 45.40625 8.203125 
Q 42.578125 3.328125 38.25 0.953125 
Q 33.9375 -1.421875 27.875 -1.421875 
Q 17.96875 -1.421875 11.734375 6.484375 
Q 5.515625 14.40625 5.515625 27.296875 
Q 5.515625 40.1875 11.734375 48.09375 
Q 17.96875 56 27.875 56 
Q 33.9375 56 38.25 53.625 
Q 42.578125 51.265625 45.40625 46.390625 
L 45.40625 54.6875 
L 54.390625 54.6875 
L 54.390625 -20.796875 
L 45.40625 -20.796875 
z
" id="DejaVuSans-113"/>
     <path d="M 54.890625 33.015625 
L 54.890625 0 
L 45.90625 0 
L 45.90625 32.71875 
Q 45.90625 40.484375 42.875 44.328125 
Q 39.84375 48.1875 33.796875 48.1875 
Q 26.515625 48.1875 22.3125 43.546875 
Q 18.109375 38.921875 18.109375 30.90625 
L 18.109375 0 
L 9.078125 0 
L 9.078125 54.6875 
L 18.109375 54.6875 
L 18.109375 46.1875 
Q 21.34375 51.125 25.703125 53.5625 
Q 30.078125 56 35.796875 56 
Q 45.21875 56 50.046875 50.171875 
Q 54.890625 44.34375 54.890625 33.015625 
z
" id="DejaVuSans-110"/>
     <path d="M 11.71875 12.40625 
L 22.015625 12.40625 
L 22.015625 0 
L 11.71875 0 
z
M 11.71875 51.703125 
L 22.015625 51.703125 
L 22.015625 39.3125 
L 11.71875 39.3125 
z
" id="DejaVuSans-58"/>
     <path id="DejaVuSans-32"/>
     <path d="M 56.203125 29.59375 
L 56.203125 25.203125 
L 14.890625 25.203125 
Q 15.484375 15.921875 20.484375 11.0625 
Q 25.484375 6.203125 34.421875 6.203125 
Q 39.59375 6.203125 44.453125 7.46875 
Q 49.3125 8.734375 54.109375 11.28125 
L 54.109375 2.78125 
Q 49.265625 0.734375 44.1875 -0.34375 
Q 39.109375 -1.421875 33.890625 -1.421875 
Q 20.796875 -1.421875 13.15625 6.1875 
Q 5.515625 13.8125 5.515625 26.8125 
Q 5.515625 40.234375 12.765625 48.109375 
Q 20.015625 56 32.328125 56 
Q 43.359375 56 49.78125 48.890625 
Q 56.203125 41.796875 56.203125 29.59375 
z
M 47.21875 32.234375 
Q 47.125 39.59375 43.09375 43.984375 
Q 39.0625 48.390625 32.421875 48.390625 
Q 24.90625 48.390625 20.390625 44.140625 
Q 15.875 39.890625 15.1875 32.171875 
z
" id="DejaVuSans-101"/>
     <path d="M 18.109375 8.203125 
L 18.109375 -20.796875 
L 9.078125 -20.796875 
L 9.078125 54.6875 
L 18.109375 54.6875 
L 18.109375 46.390625 
Q 20.953125 51.265625 25.265625 53.625 
Q 29.59375 56 35.59375 56 
Q 45.5625 56 51.78125 48.09375 
Q 58.015625 40.1875 58.015625 27.296875 
Q 58.015625 14.40625 51.78125 6.484375 
Q 45.5625 -1.421875 35.59375 -1.421875 
Q 29.59375 -1.421875 25.265625 0.953125 
Q 20.953125 3.328125 18.109375 8.203125 
z
M 48.6875 27.296875 
Q 48.6875 37.203125 44.609375 42.84375 
Q 40.53125 48.484375 33.40625 48.484375 
Q 26.265625 48.484375 22.1875 42.84375 
Q 18.109375 37.203125 18.109375 27.296875 
Q 18.109375 17.390625 22.1875 11.75 
Q 26.265625 6.109375 33.40625 6.109375 
Q 40.53125 6.109375 44.609375 11.75 
Q 48.6875 17.390625 48.6875 27.296875 
z
" id="DejaVuSans-112"/>
     <path d="M 44.28125 53.078125 
L 44.28125 44.578125 
Q 40.484375 46.53125 36.375 47.5 
Q 32.28125 48.484375 27.875 48.484375 
Q 21.1875 48.484375 17.84375 46.4375 
Q 14.5 44.390625 14.5 40.28125 
Q 14.5 37.15625 16.890625 35.375 
Q 19.28125 33.59375 26.515625 31.984375 
L 29.59375 31.296875 
Q 39.15625 29.25 43.1875 25.515625 
Q 47.21875 21.78125 47.21875 15.09375 
Q 47.21875 7.46875 41.1875 3.015625 
Q 35.15625 -1.421875 24.609375 -1.421875 
Q 20.21875 -1.421875 15.453125 -0.5625 
Q 10.6875 0.296875 5.421875 2 
L 5.421875 11.28125 
Q 10.40625 8.6875 15.234375 7.390625 
Q 20.0625 6.109375 24.8125 6.109375 
Q 31.15625 6.109375 34.5625 8.28125 
Q 37.984375 10.453125 37.984375 14.40625 
Q 37.984375 18.0625 35.515625 20.015625 
Q 33.0625 21.96875 24.703125 23.78125 
L 21.578125 24.515625 
Q 13.234375 26.265625 9.515625 29.90625 
Q 5.8125 33.546875 5.8125 39.890625 
Q 5.8125 47.609375 11.28125 51.796875 
Q 16.75 56 26.8125 56 
Q 31.78125 56 36.171875 55.265625 
Q 40.578125 54.546875 44.28125 53.078125 
z
" id="DejaVuSans-115"/>
     <path d="M 8.5 21.578125 
L 8.5 54.6875 
L 17.484375 54.6875 
L 17.484375 21.921875 
Q 17.484375 14.15625 20.5 10.265625 
Q 23.53125 6.390625 29.59375 6.390625 
Q 36.859375 6.390625 41.078125 11.03125 
Q 45.3125 15.671875 45.3125 23.6875 
L 45.3125 54.6875 
L 54.296875 54.6875 
L 54.296875 0 
L 45.3125 0 
L 45.3125 8.40625 
Q 42.046875 3.421875 37.71875 1 
Q 33.40625 -1.421875 27.6875 -1.421875 
Q 18.265625 -1.421875 13.375 4.4375 
Q 8.5 10.296875 8.5 21.578125 
z
M 31.109375 56 
z
" id="DejaVuSans-117"/>
     <path d="M 34.28125 27.484375 
Q 23.390625 27.484375 19.1875 25 
Q 14.984375 22.515625 14.984375 16.5 
Q 14.984375 11.71875 18.140625 8.90625 
Q 21.296875 6.109375 26.703125 6.109375 
Q 34.1875 6.109375 38.703125 11.40625 
Q 43.21875 16.703125 43.21875 25.484375 
L 43.21875 27.484375 
z
M 52.203125 31.203125 
L 52.203125 0 
L 43.21875 0 
L 43.21875 8.296875 
Q 40.140625 3.328125 35.546875 0.953125 
Q 30.953125 -1.421875 24.3125 -1.421875 
Q 15.921875 -1.421875 10.953125 3.296875 
Q 6 8.015625 6 15.921875 
Q 6 25.140625 12.171875 29.828125 
Q 18.359375 34.515625 30.609375 34.515625 
L 43.21875 34.515625 
L 43.21875 35.40625 
Q 43.21875 41.609375 39.140625 45 
Q 35.0625 48.390625 27.6875 48.390625 
Q 23 48.390625 18.546875 47.265625 
Q 14.109375 46.140625 10.015625 43.890625 
L 10.015625 52.203125 
Q 14.9375 54.109375 19.578125 55.046875 
Q 24.21875 56 28.609375 56 
Q 40.484375 56 46.34375 49.84375 
Q 52.203125 43.703125 52.203125 31.203125 
z
" id="DejaVuSans-97"/>
     <path d="M 18.3125 70.21875 
L 18.3125 54.6875 
L 36.8125 54.6875 
L 36.8125 47.703125 
L 18.3125 47.703125 
L 18.3125 18.015625 
Q 18.3125 11.328125 20.140625 9.421875 
Q 21.96875 7.515625 27.59375 7.515625 
L 36.8125 7.515625 
L 36.8125 0 
L 27.59375 0 
Q 17.1875 0 13.234375 3.875 
Q 9.28125 7.765625 9.28125 18.015625 
L 9.28125 47.703125 
L 2.6875 47.703125 
L 2.6875 54.6875 
L 9.28125 54.6875 
L 9.28125 70.21875 
z
" id="DejaVuSans-116"/>
     <path d="M 4.890625 31.390625 
L 31.203125 31.390625 
L 31.203125 23.390625 
L 4.890625 23.390625 
z
" id="DejaVuSans-45"/>
     <path d="M 2.984375 54.6875 
L 12.5 54.6875 
L 29.59375 8.796875 
L 46.6875 54.6875 
L 56.203125 54.6875 
L 35.6875 0 
L 23.484375 0 
z
" id="DejaVuSans-118"/>
     <path d="M 17.921875 79.984375 
L 31.6875 61.71875 
L 24.21875 61.71875 
L 8.296875 79.984375 
z
" id="DejaVuSans-96"/>
     <path d="M 32.171875 -5.078125 
Q 28.375 -14.84375 24.75 -17.8125 
Q 21.140625 -20.796875 15.09375 -20.796875 
L 7.90625 -20.796875 
L 7.90625 -13.28125 
L 13.1875 -13.28125 
Q 16.890625 -13.28125 18.9375 -11.515625 
Q 21 -9.765625 23.484375 -3.21875 
L 25.09375 0.875 
L 2.984375 54.6875 
L 12.5 54.6875 
L 29.59375 11.921875 
L 46.6875 54.6875 
L 56.203125 54.6875 
z
" id="DejaVuSans-121"/>
     <path d="M 11.71875 12.40625 
L 22.015625 12.40625 
L 22.015625 4 
L 14.015625 -11.625 
L 7.71875 -11.625 
L 11.71875 4 
z
" id="DejaVuSans-44"/>
     <path d="M 9.8125 72.90625 
L 24.515625 72.90625 
L 43.109375 23.296875 
L 61.8125 72.90625 
L 76.515625 72.90625 
L 76.515625 0 
L 66.890625 0 
L 66.890625 64.015625 
L 48.09375 14.015625 
L 38.1875 14.015625 
L 19.390625 64.015625 
L 19.390625 0 
L 9.8125 0 
z
" id="DejaVuSans-77"/>
     <path d="M 34.1875 63.1875 
L 20.796875 26.90625 
L 47.609375 26.90625 
z
M 28.609375 72.90625 
L 39.796875 72.90625 
L 67.578125 0 
L 57.328125 0 
L 50.6875 18.703125 
L 17.828125 18.703125 
L 11.1875 0 
L 0.78125 0 
z
" id="DejaVuSans-65"/>
     <path d="M 10.59375 45.40625 
L 73.1875 45.40625 
L 73.1875 37.203125 
L 10.59375 37.203125 
z
M 10.59375 25.484375 
L 73.1875 25.484375 
L 73.1875 17.1875 
L 10.59375 17.1875 
z
" id="DejaVuSans-61"/>
     <path d="M 37.796875 64.3125 
L 12.890625 25.390625 
L 37.796875 25.390625 
z
M 35.203125 72.90625 
L 47.609375 72.90625 
L 47.609375 25.390625 
L 58.015625 25.390625 
L 58.015625 17.1875 
L 47.609375 17.1875 
L 47.609375 0 
L 37.796875 0 
L 37.796875 17.1875 
L 4.890625 17.1875 
L 4.890625 26.703125 
z
" id="DejaVuSans-52"/>
    </defs>
    <g transform="translate(84.002812 20.52)scale(0.12 -0.12)">
     <use xlink:href="#DejaVuSans-103"/>
     <use x="63.476562" xlink:href="#DejaVuSans-114"/>
     <use x="104.589844" xlink:href="#DejaVuSans-105"/>
     <use x="132.373047" xlink:href="#DejaVuSans-100"/>
     <use x="195.849609" xlink:href="#DejaVuSans-119"/>
     <use x="277.636719" xlink:href="#DejaVuSans-111"/>
     <use x="338.818359" xlink:href="#DejaVuSans-114"/>
     <use x="379.931641" xlink:href="#DejaVuSans-108"/>
     <use x="407.714844" xlink:href="#DejaVuSans-100"/>
     <use x="471.191406" xlink:href="#DejaVuSans-95"/>
     <use x="521.191406" xlink:href="#DejaVuSans-53"/>
     <use x="584.814453" xlink:href="#DejaVuSans-120"/>
     <use x="643.994141" xlink:href="#DejaVuSans-53"/>
     <use x="707.617188" xlink:href="#DejaVuSans-95"/>
     <use x="757.617188" xlink:href="#DejaVuSans-50"/>
     <use x="821.240234" xlink:href="#DejaVuSans-48"/>
     <use x="884.863281" xlink:href="#DejaVuSans-95"/>
     <use x="934.863281" xlink:href="#DejaVuSans-49"/>
     <use x="998.486328" xlink:href="#DejaVuSans-95"/>
     <use x="1048.486328" xlink:href="#DejaVuSans-50"/>
     <use x="1112.109375" xlink:href="#DejaVuSans-48"/>
     <use x="1175.732422" xlink:href="#DejaVuSans-95"/>
     <use x="1225.732422" xlink:href="#DejaVuSans-49"/>
     <use x="1289.355469" xlink:href="#DejaVuSans-51"/>
     <use x="1352.978516" xlink:href="#DejaVuSans-51"/>
     <use x="1416.601562" xlink:href="#DejaVuSans-55"/>
     <use x="1480.224609" xlink:href="#DejaVuSans-95"/>
     <use x="1530.224609" xlink:href="#DejaVuSans-95"/>
     <use x="1580.224609" xlink:href="#DejaVuSans-100"/>
     <use x="1643.701172" xlink:href="#DejaVuSans-113"/>
     <use x="1707.177734" xlink:href="#DejaVuSans-110"/>
     <use x="1770.556641" xlink:href="#DejaVuSans-58"/>
     <use x="1804.248047" xlink:href="#DejaVuSans-32"/>
     <use x="1836.035156" xlink:href="#DejaVuSans-101"/>
     <use x="1897.558594" xlink:href="#DejaVuSans-112"/>
     <use x="1961.035156" xlink:href="#DejaVuSans-105"/>
     <use x="1988.818359" xlink:href="#DejaVuSans-115"/>
     <use x="2040.917969" xlink:href="#DejaVuSans-111"/>
     <use x="2102.099609" xlink:href="#DejaVuSans-100"/>
     <use x="2165.576172" xlink:href="#DejaVuSans-101"/>
     <use x="2227.099609" xlink:href="#DejaVuSans-32"/>
     <use x="2258.886719" xlink:href="#DejaVuSans-100"/>
     <use x="2322.363281" xlink:href="#DejaVuSans-117"/>
     <use x="2385.742188" xlink:href="#DejaVuSans-114"/>
     <use x="2426.855469" xlink:href="#DejaVuSans-97"/>
     <use x="2488.134766" xlink:href="#DejaVuSans-116"/>
     <use x="2527.34375" xlink:href="#DejaVuSans-105"/>
     <use x="2555.126953" xlink:href="#DejaVuSans-111"/>
     <use x="2616.308594" xlink:href="#DejaVuSans-110"/>
     <use x="2679.6875" xlink:href="#DejaVuSans-32"/>
     <use x="2711.474609" xlink:href="#DejaVuSans-105"/>
     <use x="2739.257812" xlink:href="#DejaVuSans-110"/>
     <use x="2802.636719" xlink:href="#DejaVuSans-32"/>
     <use x="2834.423828" xlink:href="#DejaVuSans-115"/>
     <use x="2886.523438" xlink:href="#DejaVuSans-116"/>
     <use x="2925.732422" xlink:href="#DejaVuSans-101"/>
     <use x="2987.255859" xlink:href="#DejaVuSans-112"/>
     <use x="3050.732422" xlink:href="#DejaVuSans-115"/>
     <use x="3102.832031" xlink:href="#DejaVuSans-32"/>
     <use x="3134.619141" xlink:href="#DejaVuSans-108"/>
     <use x="3162.402344" xlink:href="#DejaVuSans-111"/>
     <use x="3223.583984" xlink:href="#DejaVuSans-103"/>
     <use x="3287.060547" xlink:href="#DejaVuSans-45"/>
     <use x="3323.144531" xlink:href="#DejaVuSans-114"/>
     <use x="3364.226562" xlink:href="#DejaVuSans-101"/>
     <use x="3425.75" xlink:href="#DejaVuSans-108"/>
     <use x="3453.533203" xlink:href="#DejaVuSans-97"/>
     <use x="3514.8125" xlink:href="#DejaVuSans-116"/>
     <use x="3554.021484" xlink:href="#DejaVuSans-105"/>
     <use x="3581.804688" xlink:href="#DejaVuSans-118"/>
     <use x="3640.984375" xlink:href="#DejaVuSans-101"/>
     <use x="3702.507812" xlink:href="#DejaVuSans-32"/>
     <use x="3734.294922" xlink:href="#DejaVuSans-116"/>
     <use x="3773.503906" xlink:href="#DejaVuSans-111"/>
     <use x="3834.685547" xlink:href="#DejaVuSans-32"/>
     <use x="3866.472656" xlink:href="#DejaVuSans-96"/>
     <use x="3916.472656" xlink:href="#DejaVuSans-100"/>
     <use x="3979.949219" xlink:href="#DejaVuSans-113"/>
     <use x="4043.425781" xlink:href="#DejaVuSans-110"/>
     <use x="4106.804688" xlink:href="#DejaVuSans-95"/>
     <use x="4156.804688" xlink:href="#DejaVuSans-103"/>
     <use x="4220.28125" xlink:href="#DejaVuSans-114"/>
     <use x="4261.363281" xlink:href="#DejaVuSans-101"/>
     <use x="4322.886719" xlink:href="#DejaVuSans-101"/>
     <use x="4384.410156" xlink:href="#DejaVuSans-100"/>
     <use x="4447.886719" xlink:href="#DejaVuSans-121"/>
     <use x="4507.066406" xlink:href="#DejaVuSans-96"/>
     <use x="4557.066406" xlink:href="#DejaVuSans-44"/>
     <use x="4588.853516" xlink:href="#DejaVuSans-32"/>
     <use x="4620.640625" xlink:href="#DejaVuSans-77"/>
     <use x="4706.919922" xlink:href="#DejaVuSans-65"/>
     <use x="4775.328125" xlink:href="#DejaVuSans-61"/>
     <use x="4859.117188" xlink:href="#DejaVuSans-52"/>
     <use x="4922.740234" xlink:href="#DejaVuSans-48"/>
    </g>
   </g>
   <g id="legend_1">
    <g id="patch_7">
     <path d="M 762.651937 239.254375 
L 853.716 239.254375 
Q 855.716 239.254375 855.716 237.254375 
L 855.716 193.385625 
Q 855.716 191.385625 853.716 191.385625 
L 762.651937 191.385625 
Q 760.651937 191.385625 760.651937 193.385625 
L 760.651937 237.254375 
Q 760.651937 239.254375 762.651937 239.254375 
z
" style="fill:#ffffff;opacity:0.8;stroke:#cccccc;stroke-linejoin:miter;"/>
    </g>
    <g id="line2d_17">
     <path d="M 764.651937 199.484062 
L 784.651937 199.484062 
" style="fill:none;stroke:#1f77b4;stroke-linecap:square;stroke-width:1.5;"/>
    </g>
    <g id="line2d_18"/>
    <g id="text_15">
     <!-- dqn_greedy -->
     <g transform="translate(792.651937 202.984062)scale(0.1 -0.1)">
      <use xlink:href="#DejaVuSans-100"/>
      <use x="63.476562" xlink:href="#DejaVuSans-113"/>
      <use x="126.953125" xlink:href="#DejaVuSans-110"/>
      <use x="190.332031" xlink:href="#DejaVuSans-95"/>
      <use x="240.332031" xlink:href="#DejaVuSans-103"/>
      <use x="303.808594" xlink:href="#DejaVuSans-114"/>
      <use x="344.890625" xlink:href="#DejaVuSans-101"/>
      <use x="406.414062" xlink:href="#DejaVuSans-101"/>
      <use x="467.9375" xlink:href="#DejaVuSans-100"/>
      <use x="531.414062" xlink:href="#DejaVuSans-121"/>
     </g>
    </g>
    <g id="line2d_19">
     <path d="M 764.651937 214.440313 
L 784.651937 214.440313 
" style="fill:none;stroke:#ff7f0e;stroke-linecap:square;stroke-width:1.5;"/>
    </g>
    <g id="line2d_20"/>
    <g id="text_16">
     <!-- dqn_eps -->
     <g transform="translate(792.651937 217.940313)scale(0.1 -0.1)">
      <use xlink:href="#DejaVuSans-100"/>
      <use x="63.476562" xlink:href="#DejaVuSans-113"/>
      <use x="126.953125" xlink:href="#DejaVuSans-110"/>
      <use x="190.332031" xlink:href="#DejaVuSans-95"/>
      <use x="240.332031" xlink:href="#DejaVuSans-101"/>
      <use x="301.855469" xlink:href="#DejaVuSans-112"/>
      <use x="365.332031" xlink:href="#DejaVuSans-115"/>
     </g>
    </g>
    <g id="line2d_21">
     <path d="M 764.651937 229.396562 
L 784.651937 229.396562 
" style="fill:none;stroke:#2ca02c;stroke-linecap:square;stroke-width:1.5;"/>
    </g>
    <g id="line2d_22"/>
    <g id="text_17">
     <!-- htm_4_1g -->
     <defs>
      <path d="M 54.890625 33.015625 
L 54.890625 0 
L 45.90625 0 
L 45.90625 32.71875 
Q 45.90625 40.484375 42.875 44.328125 
Q 39.84375 48.1875 33.796875 48.1875 
Q 26.515625 48.1875 22.3125 43.546875 
Q 18.109375 38.921875 18.109375 30.90625 
L 18.109375 0 
L 9.078125 0 
L 9.078125 75.984375 
L 18.109375 75.984375 
L 18.109375 46.1875 
Q 21.34375 51.125 25.703125 53.5625 
Q 30.078125 56 35.796875 56 
Q 45.21875 56 50.046875 50.171875 
Q 54.890625 44.34375 54.890625 33.015625 
z
" id="DejaVuSans-104"/>
      <path d="M 52 44.1875 
Q 55.375 50.25 60.0625 53.125 
Q 64.75 56 71.09375 56 
Q 79.640625 56 84.28125 50.015625 
Q 88.921875 44.046875 88.921875 33.015625 
L 88.921875 0 
L 79.890625 0 
L 79.890625 32.71875 
Q 79.890625 40.578125 77.09375 44.375 
Q 74.3125 48.1875 68.609375 48.1875 
Q 61.625 48.1875 57.5625 43.546875 
Q 53.515625 38.921875 53.515625 30.90625 
L 53.515625 0 
L 44.484375 0 
L 44.484375 32.71875 
Q 44.484375 40.625 41.703125 44.40625 
Q 38.921875 48.1875 33.109375 48.1875 
Q 26.21875 48.1875 22.15625 43.53125 
Q 18.109375 38.875 18.109375 30.90625 
L 18.109375 0 
L 9.078125 0 
L 9.078125 54.6875 
L 18.109375 54.6875 
L 18.109375 46.1875 
Q 21.1875 51.21875 25.484375 53.609375 
Q 29.78125 56 35.6875 56 
Q 41.65625 56 45.828125 52.96875 
Q 50 49.953125 52 44.1875 
z
" id="DejaVuSans-109"/>
     </defs>
     <g transform="translate(792.651937 232.896562)scale(0.1 -0.1)">
      <use xlink:href="#DejaVuSans-104"/>
      <use x="63.378906" xlink:href="#DejaVuSans-116"/>
      <use x="102.587891" xlink:href="#DejaVuSans-109"/>
      <use x="200" xlink:href="#DejaVuSans-95"/>
      <use x="250" xlink:href="#DejaVuSans-52"/>
      <use x="313.623047" xlink:href="#DejaVuSans-95"/>
      <use x="363.623047" xlink:href="#DejaVuSans-49"/>
      <use x="427.246094" xlink:href="#DejaVuSans-103"/>
     </g>
    </g>
   </g>
  </g>
 </g>
 <defs>
  <clipPath id="p826c9377f1">
   <rect height="377.6" width="682.18" x="42.1" y="26.52"/>
  </clipPath>
 </defs>
</svg>
