<?xml version="1.0" encoding="utf-8" standalone="no"?>
<!DOCTYPE svg PUBLIC "-//W3C//DTD SVG 1.1//EN"
  "http://www.w3.org/Graphics/SVG/1.1/DTD/svg11.dtd">
<!-- Created with matplotlib (https://matplotlib.org/) -->
<svg height="432pt" version="1.1" viewBox="0 0 864 432" width="864pt" xmlns="http://www.w3.org/2000/svg" xmlns:xlink="http://www.w3.org/1999/xlink">
 <defs>
  <style type="text/css">
*{stroke-linecap:butt;stroke-linejoin:round;}
  </style>
 </defs>
 <g id="figure_1">
  <g id="patch_1">
   <path d="M 0 432 
L 864 432 
L 864 0 
L 0 0 
z
" style="fill:#ffffff;"/>
  </g>
  <g id="axes_1">
   <g id="patch_2">
    <path d="M 42.1 404.12 
L 724.28 404.12 
L 724.28 26.52 
L 42.1 26.52 
z
" style="fill:#ffffff;"/>
   </g>
   <g id="matplotlib.axis_1">
    <g id="xtick_1">
     <g id="line2d_1">
      <defs>
       <path d="M 0 0 
L 0 3.5 
" id="m26603c12f6" style="stroke:#000000;stroke-width:0.8;"/>
      </defs>
      <g>
       <use style="stroke:#000000;stroke-width:0.8;" x="42.1" xlink:href="#m26603c12f6" y="404.12"/>
      </g>
     </g>
     <g id="text_1">
      <!-- 0 -->
      <defs>
       <path d="M 31.78125 66.40625 
Q 24.171875 66.40625 20.328125 58.90625 
Q 16.5 51.421875 16.5 36.375 
Q 16.5 21.390625 20.328125 13.890625 
Q 24.171875 6.390625 31.78125 6.390625 
Q 39.453125 6.390625 43.28125 13.890625 
Q 47.125 21.390625 47.125 36.375 
Q 47.125 51.421875 43.28125 58.90625 
Q 39.453125 66.40625 31.78125 66.40625 
z
M 31.78125 74.21875 
Q 44.046875 74.21875 50.515625 64.515625 
Q 56.984375 54.828125 56.984375 36.375 
Q 56.984375 17.96875 50.515625 8.265625 
Q 44.046875 -1.421875 31.78125 -1.421875 
Q 19.53125 -1.421875 13.0625 8.265625 
Q 6.59375 17.96875 6.59375 36.375 
Q 6.59375 54.828125 13.0625 64.515625 
Q 19.53125 74.21875 31.78125 74.21875 
z
" id="DejaVuSans-48"/>
      </defs>
      <g transform="translate(38.91875 418.718437)scale(0.1 -0.1)">
       <use xlink:href="#DejaVuSans-48"/>
      </g>
     </g>
    </g>
    <g id="xtick_2">
     <g id="line2d_2">
      <g>
       <use style="stroke:#000000;stroke-width:0.8;" x="127.801005" xlink:href="#m26603c12f6" y="404.12"/>
      </g>
     </g>
     <g id="text_2">
      <!-- 25 -->
      <defs>
       <path d="M 19.1875 8.296875 
L 53.609375 8.296875 
L 53.609375 0 
L 7.328125 0 
L 7.328125 8.296875 
Q 12.9375 14.109375 22.625 23.890625 
Q 32.328125 33.6875 34.8125 36.53125 
Q 39.546875 41.84375 41.421875 45.53125 
Q 43.3125 49.21875 43.3125 52.78125 
Q 43.3125 58.59375 39.234375 62.25 
Q 35.15625 65.921875 28.609375 65.921875 
Q 23.96875 65.921875 18.8125 64.3125 
Q 13.671875 62.703125 7.8125 59.421875 
L 7.8125 69.390625 
Q 13.765625 71.78125 18.9375 73 
Q 24.125 74.21875 28.421875 74.21875 
Q 39.75 74.21875 46.484375 68.546875 
Q 53.21875 62.890625 53.21875 53.421875 
Q 53.21875 48.921875 51.53125 44.890625 
Q 49.859375 40.875 45.40625 35.40625 
Q 44.1875 33.984375 37.640625 27.21875 
Q 31.109375 20.453125 19.1875 8.296875 
z
" id="DejaVuSans-50"/>
       <path d="M 10.796875 72.90625 
L 49.515625 72.90625 
L 49.515625 64.59375 
L 19.828125 64.59375 
L 19.828125 46.734375 
Q 21.96875 47.46875 24.109375 47.828125 
Q 26.265625 48.1875 28.421875 48.1875 
Q 40.625 48.1875 47.75 41.5 
Q 54.890625 34.8125 54.890625 23.390625 
Q 54.890625 11.625 47.5625 5.09375 
Q 40.234375 -1.421875 26.90625 -1.421875 
Q 22.3125 -1.421875 17.546875 -0.640625 
Q 12.796875 0.140625 7.71875 1.703125 
L 7.71875 11.625 
Q 12.109375 9.234375 16.796875 8.0625 
Q 21.484375 6.890625 26.703125 6.890625 
Q 35.15625 6.890625 40.078125 11.328125 
Q 45.015625 15.765625 45.015625 23.390625 
Q 45.015625 31 40.078125 35.4375 
Q 35.15625 39.890625 26.703125 39.890625 
Q 22.75 39.890625 18.8125 39.015625 
Q 14.890625 38.140625 10.796875 36.28125 
z
" id="DejaVuSans-53"/>
      </defs>
      <g transform="translate(121.438505 418.718437)scale(0.1 -0.1)">
       <use xlink:href="#DejaVuSans-50"/>
       <use x="63.623047" xlink:href="#DejaVuSans-53"/>
      </g>
     </g>
    </g>
    <g id="xtick_3">
     <g id="line2d_3">
      <g>
       <use style="stroke:#000000;stroke-width:0.8;" x="213.50201" xlink:href="#m26603c12f6" y="404.12"/>
      </g>
     </g>
     <g id="text_3">
      <!-- 50 -->
      <g transform="translate(207.13951 418.718437)scale(0.1 -0.1)">
       <use xlink:href="#DejaVuSans-53"/>
       <use x="63.623047" xlink:href="#DejaVuSans-48"/>
      </g>
     </g>
    </g>
    <g id="xtick_4">
     <g id="line2d_4">
      <g>
       <use style="stroke:#000000;stroke-width:0.8;" x="299.203015" xlink:href="#m26603c12f6" y="404.12"/>
      </g>
     </g>
     <g id="text_4">
      <!-- 75 -->
      <defs>
       <path d="M 8.203125 72.90625 
L 55.078125 72.90625 
L 55.078125 68.703125 
L 28.609375 0 
L 18.3125 0 
L 43.21875 64.59375 
L 8.203125 64.59375 
z
" id="DejaVuSans-55"/>
      </defs>
      <g transform="translate(292.840515 418.718437)scale(0.1 -0.1)">
       <use xlink:href="#DejaVuSans-55"/>
       <use x="63.623047" xlink:href="#DejaVuSans-53"/>
      </g>
     </g>
    </g>
    <g id="xtick_5">
     <g id="line2d_5">
      <g>
       <use style="stroke:#000000;stroke-width:0.8;" x="384.90402" xlink:href="#m26603c12f6" y="404.12"/>
      </g>
     </g>
     <g id="text_5">
      <!-- 100 -->
      <defs>
       <path d="M 12.40625 8.296875 
L 28.515625 8.296875 
L 28.515625 63.921875 
L 10.984375 60.40625 
L 10.984375 69.390625 
L 28.421875 72.90625 
L 38.28125 72.90625 
L 38.28125 8.296875 
L 54.390625 8.296875 
L 54.390625 0 
L 12.40625 0 
z
" id="DejaVuSans-49"/>
      </defs>
      <g transform="translate(375.36027 418.718437)scale(0.1 -0.1)">
       <use xlink:href="#DejaVuSans-49"/>
       <use x="63.623047" xlink:href="#DejaVuSans-48"/>
       <use x="127.246094" xlink:href="#DejaVuSans-48"/>
      </g>
     </g>
    </g>
    <g id="xtick_6">
     <g id="line2d_6">
      <g>
       <use style="stroke:#000000;stroke-width:0.8;" x="470.605025" xlink:href="#m26603c12f6" y="404.12"/>
      </g>
     </g>
     <g id="text_6">
      <!-- 125 -->
      <g transform="translate(461.061275 418.718437)scale(0.1 -0.1)">
       <use xlink:href="#DejaVuSans-49"/>
       <use x="63.623047" xlink:href="#DejaVuSans-50"/>
       <use x="127.246094" xlink:href="#DejaVuSans-53"/>
      </g>
     </g>
    </g>
    <g id="xtick_7">
     <g id="line2d_7">
      <g>
       <use style="stroke:#000000;stroke-width:0.8;" x="556.30603" xlink:href="#m26603c12f6" y="404.12"/>
      </g>
     </g>
     <g id="text_7">
      <!-- 150 -->
      <g transform="translate(546.76228 418.718437)scale(0.1 -0.1)">
       <use xlink:href="#DejaVuSans-49"/>
       <use x="63.623047" xlink:href="#DejaVuSans-53"/>
       <use x="127.246094" xlink:href="#DejaVuSans-48"/>
      </g>
     </g>
    </g>
    <g id="xtick_8">
     <g id="line2d_8">
      <g>
       <use style="stroke:#000000;stroke-width:0.8;" x="642.007035" xlink:href="#m26603c12f6" y="404.12"/>
      </g>
     </g>
     <g id="text_8">
      <!-- 175 -->
      <g transform="translate(632.463285 418.718437)scale(0.1 -0.1)">
       <use xlink:href="#DejaVuSans-49"/>
       <use x="63.623047" xlink:href="#DejaVuSans-55"/>
       <use x="127.246094" xlink:href="#DejaVuSans-53"/>
      </g>
     </g>
    </g>
   </g>
   <g id="matplotlib.axis_2">
    <g id="ytick_1">
     <g id="line2d_9">
      <defs>
       <path d="M 0 0 
L -3.5 0 
" id="maeb5b6ee96" style="stroke:#000000;stroke-width:0.8;"/>
      </defs>
      <g>
       <use style="stroke:#000000;stroke-width:0.8;" x="42.1" xlink:href="#maeb5b6ee96" y="351.553327"/>
      </g>
     </g>
     <g id="text_9">
      <!-- −0.5 -->
      <defs>
       <path d="M 10.59375 35.5 
L 73.1875 35.5 
L 73.1875 27.203125 
L 10.59375 27.203125 
z
" id="DejaVuSans-8722"/>
       <path d="M 10.6875 12.40625 
L 21 12.40625 
L 21 0 
L 10.6875 0 
z
" id="DejaVuSans-46"/>
      </defs>
      <g transform="translate(10.817188 355.352546)scale(0.1 -0.1)">
       <use xlink:href="#DejaVuSans-8722"/>
       <use x="83.789062" xlink:href="#DejaVuSans-48"/>
       <use x="147.412109" xlink:href="#DejaVuSans-46"/>
       <use x="179.199219" xlink:href="#DejaVuSans-53"/>
      </g>
     </g>
    </g>
    <g id="ytick_2">
     <g id="line2d_10">
      <g>
       <use style="stroke:#000000;stroke-width:0.8;" x="42.1" xlink:href="#maeb5b6ee96" y="274.867084"/>
      </g>
     </g>
     <g id="text_10">
      <!-- 0.0 -->
      <g transform="translate(19.196875 278.666303)scale(0.1 -0.1)">
       <use xlink:href="#DejaVuSans-48"/>
       <use x="63.623047" xlink:href="#DejaVuSans-46"/>
       <use x="95.410156" xlink:href="#DejaVuSans-48"/>
      </g>
     </g>
    </g>
    <g id="ytick_3">
     <g id="line2d_11">
      <g>
       <use style="stroke:#000000;stroke-width:0.8;" x="42.1" xlink:href="#maeb5b6ee96" y="198.180842"/>
      </g>
     </g>
     <g id="text_11">
      <!-- 0.5 -->
      <g transform="translate(19.196875 201.980061)scale(0.1 -0.1)">
       <use xlink:href="#DejaVuSans-48"/>
       <use x="63.623047" xlink:href="#DejaVuSans-46"/>
       <use x="95.410156" xlink:href="#DejaVuSans-53"/>
      </g>
     </g>
    </g>
    <g id="ytick_4">
     <g id="line2d_12">
      <g>
       <use style="stroke:#000000;stroke-width:0.8;" x="42.1" xlink:href="#maeb5b6ee96" y="121.494599"/>
      </g>
     </g>
     <g id="text_12">
      <!-- 1.0 -->
      <g transform="translate(19.196875 125.293818)scale(0.1 -0.1)">
       <use xlink:href="#DejaVuSans-49"/>
       <use x="63.623047" xlink:href="#DejaVuSans-46"/>
       <use x="95.410156" xlink:href="#DejaVuSans-48"/>
      </g>
     </g>
    </g>
    <g id="ytick_5">
     <g id="line2d_13">
      <g>
       <use style="stroke:#000000;stroke-width:0.8;" x="42.1" xlink:href="#maeb5b6ee96" y="44.808357"/>
      </g>
     </g>
     <g id="text_13">
      <!-- 1.5 -->
      <g transform="translate(19.196875 48.607576)scale(0.1 -0.1)">
       <use xlink:href="#DejaVuSans-49"/>
       <use x="63.623047" xlink:href="#DejaVuSans-46"/>
       <use x="95.410156" xlink:href="#DejaVuSans-53"/>
      </g>
     </g>
    </g>
   </g>
   <g id="line2d_14">
    <path clip-path="url(#pa37975889e)" d="M 175.793568 274.867084 
L 724.28 274.867084 
L 724.28 274.867084 
" style="fill:none;stroke:#1f77b4;stroke-linecap:square;stroke-width:1.5;"/>
   </g>
   <g id="line2d_15">
    <path clip-path="url(#pa37975889e)" d="M 175.793568 244.740513 
L 179.221608 244.740513 
L 182.649648 235.911683 
L 186.077688 240.178165 
L 189.505729 212.836073 
L 192.933769 218.641712 
L 196.361809 205.600459 
L 199.789849 205.600459 
L 203.217889 186.38812 
L 206.64593 190.565842 
L 210.07397 188.662348 
L 213.50201 195.769763 
L 216.93005 185.238761 
L 220.35809 185.657465 
L 223.786131 188.366676 
L 227.214171 223.278011 
L 230.642211 205.620351 
L 234.070251 200.582879 
L 237.498291 211.774359 
L 240.926332 202.089927 
L 244.354372 209.325541 
L 247.782412 226.866411 
L 251.210452 217.773041 
L 254.638492 217.773041 
L 258.066533 214.113144 
L 261.494573 211.702862 
L 264.922613 189.83278 
L 268.350653 182.329647 
L 271.778693 182.329647 
L 275.206734 197.329565 
L 278.634774 197.082104 
L 282.062814 213.636701 
L 285.490854 221.085168 
L 288.918894 211.852353 
L 292.346935 218.771363 
L 295.774975 203.072368 
L 299.203015 177.580925 
L 302.631055 161.770783 
L 306.059095 172.401754 
L 309.487136 168.5815 
L 312.915176 159.949345 
L 316.343216 159.949345 
L 319.771256 177.095004 
L 323.199296 167.378485 
L 326.627337 172.850495 
L 330.055377 161.729371 
L 333.483417 171.747432 
L 336.911457 204.856626 
L 340.339497 206.411306 
L 343.767538 199.251621 
L 347.195578 221.386244 
L 350.623618 200.833592 
L 354.051658 227.539245 
L 357.479698 205.669162 
L 360.907739 204.219539 
L 364.335779 170.598344 
L 367.763819 201.845949 
L 371.191859 208.281577 
L 374.619899 201.472275 
L 378.04794 211.490336 
L 381.47598 192.46124 
L 384.90402 187.697083 
L 388.33206 187.697083 
L 391.760101 199.448196 
L 395.188141 193.42366 
L 398.616181 201.887041 
L 402.044221 212.969629 
L 405.472261 213.765783 
L 408.900302 208.975059 
L 412.328342 180.933889 
L 415.756382 177.420544 
L 419.184422 178.523607 
L 422.612462 171.614906 
L 426.040503 152.402566 
L 429.468543 154.716371 
L 432.896583 147.442221 
L 436.324623 167.437912 
L 439.752663 170.471342 
L 443.180704 174.840289 
L 446.608744 177.685108 
L 450.036784 151.405929 
L 453.464824 151.405929 
L 456.892864 136.788024 
L 460.320905 162.683452 
L 463.748945 175.724704 
L 467.176985 182.330329 
L 470.605025 197.330246 
L 474.033065 172.19428 
L 477.461106 172.19428 
L 480.889146 174.795217 
L 484.317186 147.660436 
L 487.745226 161.105673 
L 491.173266 159.303533 
L 494.601307 176.961192 
L 498.029347 178.191653 
L 501.457387 194.987481 
L 504.885427 175.226448 
L 508.313467 191.781045 
L 511.741508 185.625024 
L 515.169548 181.412602 
L 518.597588 178.490319 
L 522.025628 187.583689 
L 525.453668 201.90827 
L 528.881709 179.150499 
L 532.309749 200.773121 
L 535.737789 184.179988 
L 539.165829 194.967483 
L 542.593869 210.338291 
L 546.02191 202.453212 
L 552.87799 202.453212 
L 556.30603 195.658977 
L 559.73407 198.985245 
L 563.162111 226.978183 
L 566.590151 217.657219 
L 570.018191 209.232375 
L 573.446231 203.916889 
L 576.874271 201.982264 
L 580.302312 191.964203 
L 583.730352 185.6851 
L 587.158392 207.340118 
L 590.586432 211.826536 
L 594.014472 220.785355 
L 597.442513 214.614268 
L 600.870553 195.881843 
L 604.298593 187.007093 
L 607.726633 173.462257 
L 611.154673 185.008277 
L 614.582714 205.039527 
L 618.010754 210.787505 
L 621.438794 209.025515 
L 624.866834 209.16496 
L 628.294874 196.822785 
L 631.722915 208.496434 
L 635.150955 203.880027 
L 638.578995 198.835311 
L 642.007035 209.218821 
L 645.435075 192.664224 
L 648.863116 189.774028 
L 652.291156 200.241812 
L 655.719196 208.47958 
L 659.147236 208.47958 
L 662.575276 205.906111 
L 666.003317 238.782851 
L 669.431357 241.844579 
L 672.859397 249.974331 
L 676.287437 254.590739 
L 679.715477 253.116784 
L 683.143518 271.520763 
L 686.571558 294.089923 
L 689.999598 279.681067 
L 693.427638 285.37224 
L 696.855678 285.845314 
L 700.283719 271.484689 
L 703.711759 262.991469 
L 707.139799 278.690464 
L 710.567839 299.777195 
L 713.995879 307.027305 
L 717.42392 308.153157 
L 720.85196 328.99764 
L 724.28 323.041617 
L 724.28 323.041617 
" style="fill:none;stroke:#ff7f0e;stroke-linecap:square;stroke-width:1.5;"/>
   </g>
   <g id="line2d_16">
    <path clip-path="url(#pa37975889e)" d="M 175.793568 119.004625 
L 179.221608 119.004625 
L 182.649648 110.175795 
L 186.077688 106.093362 
L 189.505729 78.75127 
L 192.933769 76.093528 
L 196.361809 82.264615 
L 199.789849 104.134697 
L 203.217889 104.134697 
L 206.64593 114.483507 
L 210.07397 112.580013 
L 213.50201 112.580013 
L 216.93005 102.049012 
L 220.35809 102.467716 
L 223.786131 122.834586 
L 227.214171 157.745921 
L 230.642211 157.745921 
L 234.070251 160.838201 
L 237.498291 167.047825 
L 240.926332 183.602422 
L 244.354372 186.625613 
L 247.782412 186.508823 
L 251.210452 176.31239 
L 254.638492 176.31239 
L 258.066533 171.097814 
L 261.494573 182.584386 
L 264.922613 178.371964 
L 268.350653 170.868831 
L 271.778693 170.868831 
L 275.206734 175.081254 
L 278.634774 163.751206 
L 282.062814 167.26455 
L 285.490854 162.370843 
L 288.918894 162.370843 
L 292.346935 179.12467 
L 295.774975 179.12467 
L 299.203015 189.912164 
L 302.631055 174.102022 
L 306.059095 162.86291 
L 309.487136 158.343579 
L 312.915176 139.13124 
L 316.343216 161.001322 
L 319.771256 178.146981 
L 323.199296 176.779378 
L 326.627337 165.69679 
L 330.055377 175.224698 
L 333.483417 166.030419 
L 336.911457 166.030419 
L 340.339497 170.242841 
L 343.767538 156.912069 
L 347.195578 162.492095 
L 350.623618 149.046858 
L 354.051658 160.053516 
L 357.479698 138.183433 
L 360.907739 112.501077 
L 364.335779 78.879882 
L 367.763819 100.749965 
L 371.191859 107.185592 
L 374.619899 105.358147 
L 378.04794 101.479353 
L 381.47598 99.004855 
L 384.90402 94.240697 
L 391.760101 94.240697 
L 395.188141 88.216162 
L 398.616181 88.216162 
L 402.044221 99.29875 
L 405.472261 100.094904 
L 408.900302 98.980711 
L 412.328342 98.980711 
L 415.756382 108.508618 
L 419.184422 98.125109 
L 422.612462 103.558582 
L 426.040503 84.346243 
L 429.468543 89.462498 
L 432.896583 82.188348 
L 436.324623 80.313957 
L 439.752663 71.005212 
L 443.180704 99.901984 
L 446.608744 115.788056 
L 450.036784 100.089061 
L 453.464824 78.218978 
L 456.892864 63.601073 
L 460.320905 78.009929 
L 463.748945 88.393438 
L 467.176985 69.77216 
L 470.605025 69.77216 
L 474.033065 55.875306 
L 477.461106 51.662884 
L 480.889146 54.263821 
L 484.317186 43.683636 
L 487.745226 57.128874 
L 494.601307 57.128874 
L 498.029347 54.146912 
L 501.457387 63.582422 
L 504.885427 70.856572 
L 508.313467 70.856572 
L 511.741508 64.700551 
L 515.169548 60.488128 
L 518.597588 57.565846 
L 522.025628 66.659216 
L 525.453668 71.136178 
L 528.881709 60.12952 
L 532.309749 71.368632 
L 535.737789 76.684117 
L 539.165829 87.471612 
L 542.593869 91.603309 
L 546.02191 99.254038 
L 549.44995 83.555043 
L 552.87799 83.555043 
L 556.30603 101.288633 
L 559.73407 112.480113 
L 563.162111 151.104022 
L 566.590151 143.655555 
L 570.018191 135.23071 
L 573.446231 129.915225 
L 576.874271 133.67603 
L 580.302312 103.342567 
L 583.730352 97.063464 
L 587.158392 127.91276 
L 594.014472 110.255101 
L 597.442513 115.570586 
L 600.870553 116.0505 
L 604.298593 132.252268 
L 607.726633 124.329827 
L 611.154673 146.506818 
L 614.582714 139.787037 
L 618.010754 167.405098 
L 621.438794 165.643107 
L 624.866834 170.958593 
L 628.294874 157.513355 
L 631.722915 186.844664 
L 635.150955 207.424607 
L 638.578995 212.397952 
L 642.007035 183.25372 
L 645.435075 199.808317 
L 648.863116 196.918121 
L 652.291156 189.728244 
L 655.719196 197.966012 
L 659.147236 197.966012 
L 662.575276 199.069075 
L 666.003317 210.075733 
L 669.431357 210.075733 
L 672.859397 204.760248 
L 676.287437 191.718996 
L 679.715477 198.82641 
L 683.143518 185.342246 
L 686.571558 186.041323 
L 689.999598 171.632468 
L 693.427638 164.282388 
L 696.855678 150.315178 
L 700.283719 135.707092 
L 703.711759 134.57419 
L 707.139799 150.273185 
L 710.567839 157.463061 
L 713.995879 171.359916 
L 717.42392 184.035719 
L 720.85196 190.983348 
L 724.28 153.962964 
L 724.28 153.962964 
" style="fill:none;stroke:#2ca02c;stroke-linecap:square;stroke-width:1.5;"/>
   </g>
   <g id="line2d_17">
    <path clip-path="url(#pa37975889e)" d="M 175.793568 276.754989 
L 179.221608 276.754989 
L 182.649648 285.499544 
L 186.077688 292.903684 
L 189.505729 265.561592 
L 192.933769 271.525369 
L 196.361809 270.669767 
L 199.789849 270.669767 
L 203.217889 251.457427 
L 206.64593 238.342939 
L 210.07397 237.476449 
L 213.50201 237.476449 
L 216.93005 236.629879 
L 220.35809 238.980713 
L 223.786131 251.217832 
L 227.214171 259.4556 
L 230.642211 259.4556 
L 234.070251 259.204977 
L 237.498291 258.286736 
L 240.926332 261.73378 
L 244.354372 256.091328 
L 247.782412 256.83014 
L 251.210452 263.639921 
L 254.638492 263.639921 
L 258.066533 276.782082 
L 261.494573 276.782082 
L 264.922613 288.236568 
L 268.350653 267.288199 
L 271.778693 267.288199 
L 275.206734 289.158281 
L 278.634774 289.863499 
L 282.062814 279.232528 
L 285.490854 269.646484 
L 288.918894 247.776401 
L 295.774975 269.695329 
L 299.203015 277.825081 
L 302.631055 272.033 
L 306.059095 271.800546 
L 309.487136 274.20904 
L 312.915176 274.20904 
L 316.343216 293.421379 
L 319.771256 284.164822 
L 323.199296 276.057043 
L 326.627337 286.844538 
L 330.055377 283.134519 
L 333.483417 277.453585 
L 336.911457 299.323667 
L 340.339497 322.748429 
L 343.767538 343.629914 
L 347.195578 346.823548 
L 350.623618 346.054114 
L 354.051658 347.37634 
L 357.479698 337.25737 
L 360.907739 329.232674 
L 364.335779 317.481561 
L 367.763819 317.481561 
L 371.191859 320.070215 
L 374.619899 317.909408 
L 378.04794 314.374215 
L 381.47598 311.45923 
L 384.90402 311.823481 
L 388.33206 303.242112 
L 391.760101 303.242112 
L 395.188141 298.073179 
L 398.616181 302.324137 
L 402.044221 302.324137 
L 405.472261 317.529147 
L 408.900302 312.738422 
L 412.328342 282.03951 
L 415.756382 287.556848 
L 419.184422 298.591803 
L 422.612462 297.550752 
L 426.040503 297.550752 
L 429.468543 290.631742 
L 432.896583 272.570097 
L 436.324623 282.586264 
L 439.752663 277.156313 
L 443.180704 277.388767 
L 446.608744 289.692405 
L 450.036784 293.20575 
L 453.464824 285.479983 
L 456.892864 287.416674 
L 460.320905 305.001575 
L 463.748945 311.172662 
L 467.176985 315.78907 
L 470.605025 315.78907 
L 474.033065 313.131327 
L 477.461106 304.302497 
L 480.889146 287.691094 
L 484.317186 277.11091 
L 487.745226 277.880344 
L 491.173266 287.408252 
L 494.601307 292.211736 
L 498.029347 280.035495 
L 501.457387 288.103402 
L 504.885427 277.719892 
L 508.313467 293.418887 
L 511.741508 297.614289 
L 515.169548 298.717352 
L 518.597588 292.559025 
L 522.025628 299.480658 
L 525.453668 303.957621 
L 528.881709 292.950963 
L 532.309749 288.73854 
L 535.737789 292.912426 
L 539.165829 302.364405 
L 542.593869 292.087246 
L 546.02191 284.202167 
L 549.44995 297.24342 
L 552.87799 289.218724 
L 556.30603 285.346771 
L 559.73407 283.980002 
L 563.162111 293.008061 
L 566.590151 295.943104 
L 570.018191 305.175919 
L 573.446231 294.840041 
L 576.874271 293.662811 
L 580.302312 298.644668 
L 583.730352 285.779553 
L 587.158392 287.29754 
L 590.586432 278.887414 
L 594.014472 287.846233 
L 597.442513 285.239277 
L 600.870553 268.061532 
L 604.298593 257.819178 
L 607.726633 256.543481 
L 611.154673 256.191462 
L 614.582714 254.088089 
L 618.010754 281.706149 
L 621.438794 279.944159 
L 624.866834 282.089901 
L 628.294874 276.774415 
L 631.722915 289.551128 
L 635.150955 283.046412 
L 638.578995 271.292154 
L 642.007035 281.675664 
L 645.435075 265.976669 
L 648.863116 252.223048 
L 652.291156 262.690832 
L 655.719196 292.798682 
L 659.147236 292.048136 
L 662.575276 299.322286 
L 666.003317 323.774182 
L 669.431357 334.706385 
L 672.859397 326.28154 
L 676.287437 312.617139 
L 679.715477 314.92107 
L 683.143518 330.496864 
L 686.571558 337.367029 
L 689.999598 342.170513 
L 693.427638 352.508646 
L 696.855678 357.574209 
L 700.283719 351.924942 
L 703.711759 348.538283 
L 707.139799 360.988473 
L 710.567839 366.860919 
L 713.995879 371.798955 
L 717.42392 382.516093 
L 720.85196 386.956364 
L 724.28 361.158012 
L 724.28 361.158012 
" style="fill:none;stroke:#d62728;stroke-linecap:square;stroke-width:1.5;"/>
   </g>
   <g id="patch_3">
    <path d="M 42.1 404.12 
L 42.1 26.52 
" style="fill:none;stroke:#000000;stroke-linecap:square;stroke-linejoin:miter;stroke-width:0.8;"/>
   </g>
   <g id="patch_4">
    <path d="M 724.28 404.12 
L 724.28 26.52 
" style="fill:none;stroke:#000000;stroke-linecap:square;stroke-linejoin:miter;stroke-width:0.8;"/>
   </g>
   <g id="patch_5">
    <path d="M 42.1 404.12 
L 724.28 404.12 
" style="fill:none;stroke:#000000;stroke-linecap:square;stroke-linejoin:miter;stroke-width:0.8;"/>
   </g>
   <g id="patch_6">
    <path d="M 42.1 26.52 
L 724.28 26.52 
" style="fill:none;stroke:#000000;stroke-linecap:square;stroke-linejoin:miter;stroke-width:0.8;"/>
   </g>
   <g id="text_14">
    <!-- gridworld_5x5_1_1_200_1337__4-8: episode duration in steps log-relative to `htm_4_1g`, MA=40 -->
    <defs>
     <path d="M 45.40625 27.984375 
Q 45.40625 37.75 41.375 43.109375 
Q 37.359375 48.484375 30.078125 48.484375 
Q 22.859375 48.484375 18.828125 43.109375 
Q 14.796875 37.75 14.796875 27.984375 
Q 14.796875 18.265625 18.828125 12.890625 
Q 22.859375 7.515625 30.078125 7.515625 
Q 37.359375 7.515625 41.375 12.890625 
Q 45.40625 18.265625 45.40625 27.984375 
z
M 54.390625 6.78125 
Q 54.390625 -7.171875 48.1875 -13.984375 
Q 42 -20.796875 29.203125 -20.796875 
Q 24.46875 -20.796875 20.265625 -20.09375 
Q 16.0625 -19.390625 12.109375 -17.921875 
L 12.109375 -9.1875 
Q 16.0625 -11.328125 19.921875 -12.34375 
Q 23.78125 -13.375 27.78125 -13.375 
Q 36.625 -13.375 41.015625 -8.765625 
Q 45.40625 -4.15625 45.40625 5.171875 
L 45.40625 9.625 
Q 42.625 4.78125 38.28125 2.390625 
Q 33.9375 0 27.875 0 
Q 17.828125 0 11.671875 7.65625 
Q 5.515625 15.328125 5.515625 27.984375 
Q 5.515625 40.671875 11.671875 48.328125 
Q 17.828125 56 27.875 56 
Q 33.9375 56 38.28125 53.609375 
Q 42.625 51.21875 45.40625 46.390625 
L 45.40625 54.6875 
L 54.390625 54.6875 
z
" id="DejaVuSans-103"/>
     <path d="M 41.109375 46.296875 
Q 39.59375 47.171875 37.8125 47.578125 
Q 36.03125 48 33.890625 48 
Q 26.265625 48 22.1875 43.046875 
Q 18.109375 38.09375 18.109375 28.8125 
L 18.109375 0 
L 9.078125 0 
L 9.078125 54.6875 
L 18.109375 54.6875 
L 18.109375 46.1875 
Q 20.953125 51.171875 25.484375 53.578125 
Q 30.03125 56 36.53125 56 
Q 37.453125 56 38.578125 55.875 
Q 39.703125 55.765625 41.0625 55.515625 
z
" id="DejaVuSans-114"/>
     <path d="M 9.421875 54.6875 
L 18.40625 54.6875 
L 18.40625 0 
L 9.421875 0 
z
M 9.421875 75.984375 
L 18.40625 75.984375 
L 18.40625 64.59375 
L 9.421875 64.59375 
z
" id="DejaVuSans-105"/>
     <path d="M 45.40625 46.390625 
L 45.40625 75.984375 
L 54.390625 75.984375 
L 54.390625 0 
L 45.40625 0 
L 45.40625 8.203125 
Q 42.578125 3.328125 38.25 0.953125 
Q 33.9375 -1.421875 27.875 -1.421875 
Q 17.96875 -1.421875 11.734375 6.484375 
Q 5.515625 14.40625 5.515625 27.296875 
Q 5.515625 40.1875 11.734375 48.09375 
Q 17.96875 56 27.875 56 
Q 33.9375 56 38.25 53.625 
Q 42.578125 51.265625 45.40625 46.390625 
z
M 14.796875 27.296875 
Q 14.796875 17.390625 18.875 11.75 
Q 22.953125 6.109375 30.078125 6.109375 
Q 37.203125 6.109375 41.296875 11.75 
Q 45.40625 17.390625 45.40625 27.296875 
Q 45.40625 37.203125 41.296875 42.84375 
Q 37.203125 48.484375 30.078125 48.484375 
Q 22.953125 48.484375 18.875 42.84375 
Q 14.796875 37.203125 14.796875 27.296875 
z
" id="DejaVuSans-100"/>
     <path d="M 4.203125 54.6875 
L 13.1875 54.6875 
L 24.421875 12.015625 
L 35.59375 54.6875 
L 46.1875 54.6875 
L 57.421875 12.015625 
L 68.609375 54.6875 
L 77.59375 54.6875 
L 63.28125 0 
L 52.6875 0 
L 40.921875 44.828125 
L 29.109375 0 
L 18.5 0 
z
" id="DejaVuSans-119"/>
     <path d="M 30.609375 48.390625 
Q 23.390625 48.390625 19.1875 42.75 
Q 14.984375 37.109375 14.984375 27.296875 
Q 14.984375 17.484375 19.15625 11.84375 
Q 23.34375 6.203125 30.609375 6.203125 
Q 37.796875 6.203125 41.984375 11.859375 
Q 46.1875 17.53125 46.1875 27.296875 
Q 46.1875 37.015625 41.984375 42.703125 
Q 37.796875 48.390625 30.609375 48.390625 
z
M 30.609375 56 
Q 42.328125 56 49.015625 48.375 
Q 55.71875 40.765625 55.71875 27.296875 
Q 55.71875 13.875 49.015625 6.21875 
Q 42.328125 -1.421875 30.609375 -1.421875 
Q 18.84375 -1.421875 12.171875 6.21875 
Q 5.515625 13.875 5.515625 27.296875 
Q 5.515625 40.765625 12.171875 48.375 
Q 18.84375 56 30.609375 56 
z
" id="DejaVuSans-111"/>
     <path d="M 9.421875 75.984375 
L 18.40625 75.984375 
L 18.40625 0 
L 9.421875 0 
z
" id="DejaVuSans-108"/>
     <path d="M 50.984375 -16.609375 
L 50.984375 -23.578125 
L -0.984375 -23.578125 
L -0.984375 -16.609375 
z
" id="DejaVuSans-95"/>
     <path d="M 54.890625 54.6875 
L 35.109375 28.078125 
L 55.90625 0 
L 45.3125 0 
L 29.390625 21.484375 
L 13.484375 0 
L 2.875 0 
L 24.125 28.609375 
L 4.6875 54.6875 
L 15.28125 54.6875 
L 29.78125 35.203125 
L 44.28125 54.6875 
z
" id="DejaVuSans-120"/>
     <path d="M 40.578125 39.3125 
Q 47.65625 37.796875 51.625 33 
Q 55.609375 28.21875 55.609375 21.1875 
Q 55.609375 10.40625 48.1875 4.484375 
Q 40.765625 -1.421875 27.09375 -1.421875 
Q 22.515625 -1.421875 17.65625 -0.515625 
Q 12.796875 0.390625 7.625 2.203125 
L 7.625 11.71875 
Q 11.71875 9.328125 16.59375 8.109375 
Q 21.484375 6.890625 26.8125 6.890625 
Q 36.078125 6.890625 40.9375 10.546875 
Q 45.796875 14.203125 45.796875 21.1875 
Q 45.796875 27.640625 41.28125 31.265625 
Q 36.765625 34.90625 28.71875 34.90625 
L 20.21875 34.90625 
L 20.21875 43.015625 
L 29.109375 43.015625 
Q 36.375 43.015625 40.234375 45.921875 
Q 44.09375 48.828125 44.09375 54.296875 
Q 44.09375 59.90625 40.109375 62.90625 
Q 36.140625 65.921875 28.71875 65.921875 
Q 24.65625 65.921875 20.015625 65.03125 
Q 15.375 64.15625 9.8125 62.3125 
L 9.8125 71.09375 
Q 15.4375 72.65625 20.34375 73.4375 
Q 25.25 74.21875 29.59375 74.21875 
Q 40.828125 74.21875 47.359375 69.109375 
Q 53.90625 64.015625 53.90625 55.328125 
Q 53.90625 49.265625 50.4375 45.09375 
Q 46.96875 40.921875 40.578125 39.3125 
z
" id="DejaVuSans-51"/>
     <path d="M 37.796875 64.3125 
L 12.890625 25.390625 
L 37.796875 25.390625 
z
M 35.203125 72.90625 
L 47.609375 72.90625 
L 47.609375 25.390625 
L 58.015625 25.390625 
L 58.015625 17.1875 
L 47.609375 17.1875 
L 47.609375 0 
L 37.796875 0 
L 37.796875 17.1875 
L 4.890625 17.1875 
L 4.890625 26.703125 
z
" id="DejaVuSans-52"/>
     <path d="M 4.890625 31.390625 
L 31.203125 31.390625 
L 31.203125 23.390625 
L 4.890625 23.390625 
z
" id="DejaVuSans-45"/>
     <path d="M 31.78125 34.625 
Q 24.75 34.625 20.71875 30.859375 
Q 16.703125 27.09375 16.703125 20.515625 
Q 16.703125 13.921875 20.71875 10.15625 
Q 24.75 6.390625 31.78125 6.390625 
Q 38.8125 6.390625 42.859375 10.171875 
Q 46.921875 13.96875 46.921875 20.515625 
Q 46.921875 27.09375 42.890625 30.859375 
Q 38.875 34.625 31.78125 34.625 
z
M 21.921875 38.8125 
Q 15.578125 40.375 12.03125 44.71875 
Q 8.5 49.078125 8.5 55.328125 
Q 8.5 64.0625 14.71875 69.140625 
Q 20.953125 74.21875 31.78125 74.21875 
Q 42.671875 74.21875 48.875 69.140625 
Q 55.078125 64.0625 55.078125 55.328125 
Q 55.078125 49.078125 51.53125 44.71875 
Q 48 40.375 41.703125 38.8125 
Q 48.828125 37.15625 52.796875 32.3125 
Q 56.78125 27.484375 56.78125 20.515625 
Q 56.78125 9.90625 50.3125 4.234375 
Q 43.84375 -1.421875 31.78125 -1.421875 
Q 19.734375 -1.421875 13.25 4.234375 
Q 6.78125 9.90625 6.78125 20.515625 
Q 6.78125 27.484375 10.78125 32.3125 
Q 14.796875 37.15625 21.921875 38.8125 
z
M 18.3125 54.390625 
Q 18.3125 48.734375 21.84375 45.5625 
Q 25.390625 42.390625 31.78125 42.390625 
Q 38.140625 42.390625 41.71875 45.5625 
Q 45.3125 48.734375 45.3125 54.390625 
Q 45.3125 60.0625 41.71875 63.234375 
Q 38.140625 66.40625 31.78125 66.40625 
Q 25.390625 66.40625 21.84375 63.234375 
Q 18.3125 60.0625 18.3125 54.390625 
z
" id="DejaVuSans-56"/>
     <path d="M 11.71875 12.40625 
L 22.015625 12.40625 
L 22.015625 0 
L 11.71875 0 
z
M 11.71875 51.703125 
L 22.015625 51.703125 
L 22.015625 39.3125 
L 11.71875 39.3125 
z
" id="DejaVuSans-58"/>
     <path id="DejaVuSans-32"/>
     <path d="M 56.203125 29.59375 
L 56.203125 25.203125 
L 14.890625 25.203125 
Q 15.484375 15.921875 20.484375 11.0625 
Q 25.484375 6.203125 34.421875 6.203125 
Q 39.59375 6.203125 44.453125 7.46875 
Q 49.3125 8.734375 54.109375 11.28125 
L 54.109375 2.78125 
Q 49.265625 0.734375 44.1875 -0.34375 
Q 39.109375 -1.421875 33.890625 -1.421875 
Q 20.796875 -1.421875 13.15625 6.1875 
Q 5.515625 13.8125 5.515625 26.8125 
Q 5.515625 40.234375 12.765625 48.109375 
Q 20.015625 56 32.328125 56 
Q 43.359375 56 49.78125 48.890625 
Q 56.203125 41.796875 56.203125 29.59375 
z
M 47.21875 32.234375 
Q 47.125 39.59375 43.09375 43.984375 
Q 39.0625 48.390625 32.421875 48.390625 
Q 24.90625 48.390625 20.390625 44.140625 
Q 15.875 39.890625 15.1875 32.171875 
z
" id="DejaVuSans-101"/>
     <path d="M 18.109375 8.203125 
L 18.109375 -20.796875 
L 9.078125 -20.796875 
L 9.078125 54.6875 
L 18.109375 54.6875 
L 18.109375 46.390625 
Q 20.953125 51.265625 25.265625 53.625 
Q 29.59375 56 35.59375 56 
Q 45.5625 56 51.78125 48.09375 
Q 58.015625 40.1875 58.015625 27.296875 
Q 58.015625 14.40625 51.78125 6.484375 
Q 45.5625 -1.421875 35.59375 -1.421875 
Q 29.59375 -1.421875 25.265625 0.953125 
Q 20.953125 3.328125 18.109375 8.203125 
z
M 48.6875 27.296875 
Q 48.6875 37.203125 44.609375 42.84375 
Q 40.53125 48.484375 33.40625 48.484375 
Q 26.265625 48.484375 22.1875 42.84375 
Q 18.109375 37.203125 18.109375 27.296875 
Q 18.109375 17.390625 22.1875 11.75 
Q 26.265625 6.109375 33.40625 6.109375 
Q 40.53125 6.109375 44.609375 11.75 
Q 48.6875 17.390625 48.6875 27.296875 
z
" id="DejaVuSans-112"/>
     <path d="M 44.28125 53.078125 
L 44.28125 44.578125 
Q 40.484375 46.53125 36.375 47.5 
Q 32.28125 48.484375 27.875 48.484375 
Q 21.1875 48.484375 17.84375 46.4375 
Q 14.5 44.390625 14.5 40.28125 
Q 14.5 37.15625 16.890625 35.375 
Q 19.28125 33.59375 26.515625 31.984375 
L 29.59375 31.296875 
Q 39.15625 29.25 43.1875 25.515625 
Q 47.21875 21.78125 47.21875 15.09375 
Q 47.21875 7.46875 41.1875 3.015625 
Q 35.15625 -1.421875 24.609375 -1.421875 
Q 20.21875 -1.421875 15.453125 -0.5625 
Q 10.6875 0.296875 5.421875 2 
L 5.421875 11.28125 
Q 10.40625 8.6875 15.234375 7.390625 
Q 20.0625 6.109375 24.8125 6.109375 
Q 31.15625 6.109375 34.5625 8.28125 
Q 37.984375 10.453125 37.984375 14.40625 
Q 37.984375 18.0625 35.515625 20.015625 
Q 33.0625 21.96875 24.703125 23.78125 
L 21.578125 24.515625 
Q 13.234375 26.265625 9.515625 29.90625 
Q 5.8125 33.546875 5.8125 39.890625 
Q 5.8125 47.609375 11.28125 51.796875 
Q 16.75 56 26.8125 56 
Q 31.78125 56 36.171875 55.265625 
Q 40.578125 54.546875 44.28125 53.078125 
z
" id="DejaVuSans-115"/>
     <path d="M 8.5 21.578125 
L 8.5 54.6875 
L 17.484375 54.6875 
L 17.484375 21.921875 
Q 17.484375 14.15625 20.5 10.265625 
Q 23.53125 6.390625 29.59375 6.390625 
Q 36.859375 6.390625 41.078125 11.03125 
Q 45.3125 15.671875 45.3125 23.6875 
L 45.3125 54.6875 
L 54.296875 54.6875 
L 54.296875 0 
L 45.3125 0 
L 45.3125 8.40625 
Q 42.046875 3.421875 37.71875 1 
Q 33.40625 -1.421875 27.6875 -1.421875 
Q 18.265625 -1.421875 13.375 4.4375 
Q 8.5 10.296875 8.5 21.578125 
z
M 31.109375 56 
z
" id="DejaVuSans-117"/>
     <path d="M 34.28125 27.484375 
Q 23.390625 27.484375 19.1875 25 
Q 14.984375 22.515625 14.984375 16.5 
Q 14.984375 11.71875 18.140625 8.90625 
Q 21.296875 6.109375 26.703125 6.109375 
Q 34.1875 6.109375 38.703125 11.40625 
Q 43.21875 16.703125 43.21875 25.484375 
L 43.21875 27.484375 
z
M 52.203125 31.203125 
L 52.203125 0 
L 43.21875 0 
L 43.21875 8.296875 
Q 40.140625 3.328125 35.546875 0.953125 
Q 30.953125 -1.421875 24.3125 -1.421875 
Q 15.921875 -1.421875 10.953125 3.296875 
Q 6 8.015625 6 15.921875 
Q 6 25.140625 12.171875 29.828125 
Q 18.359375 34.515625 30.609375 34.515625 
L 43.21875 34.515625 
L 43.21875 35.40625 
Q 43.21875 41.609375 39.140625 45 
Q 35.0625 48.390625 27.6875 48.390625 
Q 23 48.390625 18.546875 47.265625 
Q 14.109375 46.140625 10.015625 43.890625 
L 10.015625 52.203125 
Q 14.9375 54.109375 19.578125 55.046875 
Q 24.21875 56 28.609375 56 
Q 40.484375 56 46.34375 49.84375 
Q 52.203125 43.703125 52.203125 31.203125 
z
" id="DejaVuSans-97"/>
     <path d="M 18.3125 70.21875 
L 18.3125 54.6875 
L 36.8125 54.6875 
L 36.8125 47.703125 
L 18.3125 47.703125 
L 18.3125 18.015625 
Q 18.3125 11.328125 20.140625 9.421875 
Q 21.96875 7.515625 27.59375 7.515625 
L 36.8125 7.515625 
L 36.8125 0 
L 27.59375 0 
Q 17.1875 0 13.234375 3.875 
Q 9.28125 7.765625 9.28125 18.015625 
L 9.28125 47.703125 
L 2.6875 47.703125 
L 2.6875 54.6875 
L 9.28125 54.6875 
L 9.28125 70.21875 
z
" id="DejaVuSans-116"/>
     <path d="M 54.890625 33.015625 
L 54.890625 0 
L 45.90625 0 
L 45.90625 32.71875 
Q 45.90625 40.484375 42.875 44.328125 
Q 39.84375 48.1875 33.796875 48.1875 
Q 26.515625 48.1875 22.3125 43.546875 
Q 18.109375 38.921875 18.109375 30.90625 
L 18.109375 0 
L 9.078125 0 
L 9.078125 54.6875 
L 18.109375 54.6875 
L 18.109375 46.1875 
Q 21.34375 51.125 25.703125 53.5625 
Q 30.078125 56 35.796875 56 
Q 45.21875 56 50.046875 50.171875 
Q 54.890625 44.34375 54.890625 33.015625 
z
" id="DejaVuSans-110"/>
     <path d="M 2.984375 54.6875 
L 12.5 54.6875 
L 29.59375 8.796875 
L 46.6875 54.6875 
L 56.203125 54.6875 
L 35.6875 0 
L 23.484375 0 
z
" id="DejaVuSans-118"/>
     <path d="M 17.921875 79.984375 
L 31.6875 61.71875 
L 24.21875 61.71875 
L 8.296875 79.984375 
z
" id="DejaVuSans-96"/>
     <path d="M 54.890625 33.015625 
L 54.890625 0 
L 45.90625 0 
L 45.90625 32.71875 
Q 45.90625 40.484375 42.875 44.328125 
Q 39.84375 48.1875 33.796875 48.1875 
Q 26.515625 48.1875 22.3125 43.546875 
Q 18.109375 38.921875 18.109375 30.90625 
L 18.109375 0 
L 9.078125 0 
L 9.078125 75.984375 
L 18.109375 75.984375 
L 18.109375 46.1875 
Q 21.34375 51.125 25.703125 53.5625 
Q 30.078125 56 35.796875 56 
Q 45.21875 56 50.046875 50.171875 
Q 54.890625 44.34375 54.890625 33.015625 
z
" id="DejaVuSans-104"/>
     <path d="M 52 44.1875 
Q 55.375 50.25 60.0625 53.125 
Q 64.75 56 71.09375 56 
Q 79.640625 56 84.28125 50.015625 
Q 88.921875 44.046875 88.921875 33.015625 
L 88.921875 0 
L 79.890625 0 
L 79.890625 32.71875 
Q 79.890625 40.578125 77.09375 44.375 
Q 74.3125 48.1875 68.609375 48.1875 
Q 61.625 48.1875 57.5625 43.546875 
Q 53.515625 38.921875 53.515625 30.90625 
L 53.515625 0 
L 44.484375 0 
L 44.484375 32.71875 
Q 44.484375 40.625 41.703125 44.40625 
Q 38.921875 48.1875 33.109375 48.1875 
Q 26.21875 48.1875 22.15625 43.53125 
Q 18.109375 38.875 18.109375 30.90625 
L 18.109375 0 
L 9.078125 0 
L 9.078125 54.6875 
L 18.109375 54.6875 
L 18.109375 46.1875 
Q 21.1875 51.21875 25.484375 53.609375 
Q 29.78125 56 35.6875 56 
Q 41.65625 56 45.828125 52.96875 
Q 50 49.953125 52 44.1875 
z
" id="DejaVuSans-109"/>
     <path d="M 11.71875 12.40625 
L 22.015625 12.40625 
L 22.015625 4 
L 14.015625 -11.625 
L 7.71875 -11.625 
L 11.71875 4 
z
" id="DejaVuSans-44"/>
     <path d="M 9.8125 72.90625 
L 24.515625 72.90625 
L 43.109375 23.296875 
L 61.8125 72.90625 
L 76.515625 72.90625 
L 76.515625 0 
L 66.890625 0 
L 66.890625 64.015625 
L 48.09375 14.015625 
L 38.1875 14.015625 
L 19.390625 64.015625 
L 19.390625 0 
L 9.8125 0 
z
" id="DejaVuSans-77"/>
     <path d="M 34.1875 63.1875 
L 20.796875 26.90625 
L 47.609375 26.90625 
z
M 28.609375 72.90625 
L 39.796875 72.90625 
L 67.578125 0 
L 57.328125 0 
L 50.6875 18.703125 
L 17.828125 18.703125 
L 11.1875 0 
L 0.78125 0 
z
" id="DejaVuSans-65"/>
     <path d="M 10.59375 45.40625 
L 73.1875 45.40625 
L 73.1875 37.203125 
L 10.59375 37.203125 
z
M 10.59375 25.484375 
L 73.1875 25.484375 
L 73.1875 17.1875 
L 10.59375 17.1875 
z
" id="DejaVuSans-61"/>
    </defs>
    <g transform="translate(91.619062 20.52)scale(0.12 -0.12)">
     <use xlink:href="#DejaVuSans-103"/>
     <use x="63.476562" xlink:href="#DejaVuSans-114"/>
     <use x="104.589844" xlink:href="#DejaVuSans-105"/>
     <use x="132.373047" xlink:href="#DejaVuSans-100"/>
     <use x="195.849609" xlink:href="#DejaVuSans-119"/>
     <use x="277.636719" xlink:href="#DejaVuSans-111"/>
     <use x="338.818359" xlink:href="#DejaVuSans-114"/>
     <use x="379.931641" xlink:href="#DejaVuSans-108"/>
     <use x="407.714844" xlink:href="#DejaVuSans-100"/>
     <use x="471.191406" xlink:href="#DejaVuSans-95"/>
     <use x="521.191406" xlink:href="#DejaVuSans-53"/>
     <use x="584.814453" xlink:href="#DejaVuSans-120"/>
     <use x="643.994141" xlink:href="#DejaVuSans-53"/>
     <use x="707.617188" xlink:href="#DejaVuSans-95"/>
     <use x="757.617188" xlink:href="#DejaVuSans-49"/>
     <use x="821.240234" xlink:href="#DejaVuSans-95"/>
     <use x="871.240234" xlink:href="#DejaVuSans-49"/>
     <use x="934.863281" xlink:href="#DejaVuSans-95"/>
     <use x="984.863281" xlink:href="#DejaVuSans-50"/>
     <use x="1048.486328" xlink:href="#DejaVuSans-48"/>
     <use x="1112.109375" xlink:href="#DejaVuSans-48"/>
     <use x="1175.732422" xlink:href="#DejaVuSans-95"/>
     <use x="1225.732422" xlink:href="#DejaVuSans-49"/>
     <use x="1289.355469" xlink:href="#DejaVuSans-51"/>
     <use x="1352.978516" xlink:href="#DejaVuSans-51"/>
     <use x="1416.601562" xlink:href="#DejaVuSans-55"/>
     <use x="1480.224609" xlink:href="#DejaVuSans-95"/>
     <use x="1530.224609" xlink:href="#DejaVuSans-95"/>
     <use x="1580.224609" xlink:href="#DejaVuSans-52"/>
     <use x="1643.847656" xlink:href="#DejaVuSans-45"/>
     <use x="1679.931641" xlink:href="#DejaVuSans-56"/>
     <use x="1743.554688" xlink:href="#DejaVuSans-58"/>
     <use x="1777.246094" xlink:href="#DejaVuSans-32"/>
     <use x="1809.033203" xlink:href="#DejaVuSans-101"/>
     <use x="1870.556641" xlink:href="#DejaVuSans-112"/>
     <use x="1934.033203" xlink:href="#DejaVuSans-105"/>
     <use x="1961.816406" xlink:href="#DejaVuSans-115"/>
     <use x="2013.916016" xlink:href="#DejaVuSans-111"/>
     <use x="2075.097656" xlink:href="#DejaVuSans-100"/>
     <use x="2138.574219" xlink:href="#DejaVuSans-101"/>
     <use x="2200.097656" xlink:href="#DejaVuSans-32"/>
     <use x="2231.884766" xlink:href="#DejaVuSans-100"/>
     <use x="2295.361328" xlink:href="#DejaVuSans-117"/>
     <use x="2358.740234" xlink:href="#DejaVuSans-114"/>
     <use x="2399.853516" xlink:href="#DejaVuSans-97"/>
     <use x="2461.132812" xlink:href="#DejaVuSans-116"/>
     <use x="2500.341797" xlink:href="#DejaVuSans-105"/>
     <use x="2528.125" xlink:href="#DejaVuSans-111"/>
     <use x="2589.306641" xlink:href="#DejaVuSans-110"/>
     <use x="2652.685547" xlink:href="#DejaVuSans-32"/>
     <use x="2684.472656" xlink:href="#DejaVuSans-105"/>
     <use x="2712.255859" xlink:href="#DejaVuSans-110"/>
     <use x="2775.634766" xlink:href="#DejaVuSans-32"/>
     <use x="2807.421875" xlink:href="#DejaVuSans-115"/>
     <use x="2859.521484" xlink:href="#DejaVuSans-116"/>
     <use x="2898.730469" xlink:href="#DejaVuSans-101"/>
     <use x="2960.253906" xlink:href="#DejaVuSans-112"/>
     <use x="3023.730469" xlink:href="#DejaVuSans-115"/>
     <use x="3075.830078" xlink:href="#DejaVuSans-32"/>
     <use x="3107.617188" xlink:href="#DejaVuSans-108"/>
     <use x="3135.400391" xlink:href="#DejaVuSans-111"/>
     <use x="3196.582031" xlink:href="#DejaVuSans-103"/>
     <use x="3260.058594" xlink:href="#DejaVuSans-45"/>
     <use x="3296.142578" xlink:href="#DejaVuSans-114"/>
     <use x="3337.224609" xlink:href="#DejaVuSans-101"/>
     <use x="3398.748047" xlink:href="#DejaVuSans-108"/>
     <use x="3426.53125" xlink:href="#DejaVuSans-97"/>
     <use x="3487.810547" xlink:href="#DejaVuSans-116"/>
     <use x="3527.019531" xlink:href="#DejaVuSans-105"/>
     <use x="3554.802734" xlink:href="#DejaVuSans-118"/>
     <use x="3613.982422" xlink:href="#DejaVuSans-101"/>
     <use x="3675.505859" xlink:href="#DejaVuSans-32"/>
     <use x="3707.292969" xlink:href="#DejaVuSans-116"/>
     <use x="3746.501953" xlink:href="#DejaVuSans-111"/>
     <use x="3807.683594" xlink:href="#DejaVuSans-32"/>
     <use x="3839.470703" xlink:href="#DejaVuSans-96"/>
     <use x="3889.470703" xlink:href="#DejaVuSans-104"/>
     <use x="3952.849609" xlink:href="#DejaVuSans-116"/>
     <use x="3992.058594" xlink:href="#DejaVuSans-109"/>
     <use x="4089.470703" xlink:href="#DejaVuSans-95"/>
     <use x="4139.470703" xlink:href="#DejaVuSans-52"/>
     <use x="4203.09375" xlink:href="#DejaVuSans-95"/>
     <use x="4253.09375" xlink:href="#DejaVuSans-49"/>
     <use x="4316.716797" xlink:href="#DejaVuSans-103"/>
     <use x="4380.193359" xlink:href="#DejaVuSans-96"/>
     <use x="4430.193359" xlink:href="#DejaVuSans-44"/>
     <use x="4461.980469" xlink:href="#DejaVuSans-32"/>
     <use x="4493.767578" xlink:href="#DejaVuSans-77"/>
     <use x="4580.046875" xlink:href="#DejaVuSans-65"/>
     <use x="4648.455078" xlink:href="#DejaVuSans-61"/>
     <use x="4732.244141" xlink:href="#DejaVuSans-52"/>
     <use x="4795.867188" xlink:href="#DejaVuSans-48"/>
    </g>
   </g>
   <g id="legend_1">
    <g id="patch_7">
     <path d="M 766.281625 246.7325 
L 853.716 246.7325 
Q 855.716 246.7325 855.716 244.7325 
L 855.716 185.9075 
Q 855.716 183.9075 853.716 183.9075 
L 766.281625 183.9075 
Q 764.281625 183.9075 764.281625 185.9075 
L 764.281625 244.7325 
Q 764.281625 246.7325 766.281625 246.7325 
z
" style="fill:#ffffff;opacity:0.8;stroke:#cccccc;stroke-linejoin:miter;"/>
    </g>
    <g id="line2d_18">
     <path d="M 768.281625 192.005937 
L 788.281625 192.005937 
" style="fill:none;stroke:#1f77b4;stroke-linecap:square;stroke-width:1.5;"/>
    </g>
    <g id="line2d_19"/>
    <g id="text_15">
     <!-- htm_4_1g -->
     <g transform="translate(796.281625 195.505937)scale(0.1 -0.1)">
      <use xlink:href="#DejaVuSans-104"/>
      <use x="63.378906" xlink:href="#DejaVuSans-116"/>
      <use x="102.587891" xlink:href="#DejaVuSans-109"/>
      <use x="200" xlink:href="#DejaVuSans-95"/>
      <use x="250" xlink:href="#DejaVuSans-52"/>
      <use x="313.623047" xlink:href="#DejaVuSans-95"/>
      <use x="363.623047" xlink:href="#DejaVuSans-49"/>
      <use x="427.246094" xlink:href="#DejaVuSans-103"/>
     </g>
    </g>
    <g id="line2d_20">
     <path d="M 768.281625 206.962187 
L 788.281625 206.962187 
" style="fill:none;stroke:#ff7f0e;stroke-linecap:square;stroke-width:1.5;"/>
    </g>
    <g id="line2d_21"/>
    <g id="text_16">
     <!-- htm_4_4g -->
     <g transform="translate(796.281625 210.462187)scale(0.1 -0.1)">
      <use xlink:href="#DejaVuSans-104"/>
      <use x="63.378906" xlink:href="#DejaVuSans-116"/>
      <use x="102.587891" xlink:href="#DejaVuSans-109"/>
      <use x="200" xlink:href="#DejaVuSans-95"/>
      <use x="250" xlink:href="#DejaVuSans-52"/>
      <use x="313.623047" xlink:href="#DejaVuSans-95"/>
      <use x="363.623047" xlink:href="#DejaVuSans-52"/>
      <use x="427.246094" xlink:href="#DejaVuSans-103"/>
     </g>
    </g>
    <g id="line2d_22">
     <path d="M 768.281625 221.918437 
L 788.281625 221.918437 
" style="fill:none;stroke:#2ca02c;stroke-linecap:square;stroke-width:1.5;"/>
    </g>
    <g id="line2d_23"/>
    <g id="text_17">
     <!-- htm_4_16g -->
     <defs>
      <path d="M 33.015625 40.375 
Q 26.375 40.375 22.484375 35.828125 
Q 18.609375 31.296875 18.609375 23.390625 
Q 18.609375 15.53125 22.484375 10.953125 
Q 26.375 6.390625 33.015625 6.390625 
Q 39.65625 6.390625 43.53125 10.953125 
Q 47.40625 15.53125 47.40625 23.390625 
Q 47.40625 31.296875 43.53125 35.828125 
Q 39.65625 40.375 33.015625 40.375 
z
M 52.59375 71.296875 
L 52.59375 62.3125 
Q 48.875 64.0625 45.09375 64.984375 
Q 41.3125 65.921875 37.59375 65.921875 
Q 27.828125 65.921875 22.671875 59.328125 
Q 17.53125 52.734375 16.796875 39.40625 
Q 19.671875 43.65625 24.015625 45.921875 
Q 28.375 48.1875 33.59375 48.1875 
Q 44.578125 48.1875 50.953125 41.515625 
Q 57.328125 34.859375 57.328125 23.390625 
Q 57.328125 12.15625 50.6875 5.359375 
Q 44.046875 -1.421875 33.015625 -1.421875 
Q 20.359375 -1.421875 13.671875 8.265625 
Q 6.984375 17.96875 6.984375 36.375 
Q 6.984375 53.65625 15.1875 63.9375 
Q 23.390625 74.21875 37.203125 74.21875 
Q 40.921875 74.21875 44.703125 73.484375 
Q 48.484375 72.75 52.59375 71.296875 
z
" id="DejaVuSans-54"/>
     </defs>
     <g transform="translate(796.281625 225.418437)scale(0.1 -0.1)">
      <use xlink:href="#DejaVuSans-104"/>
      <use x="63.378906" xlink:href="#DejaVuSans-116"/>
      <use x="102.587891" xlink:href="#DejaVuSans-109"/>
      <use x="200" xlink:href="#DejaVuSans-95"/>
      <use x="250" xlink:href="#DejaVuSans-52"/>
      <use x="313.623047" xlink:href="#DejaVuSans-95"/>
      <use x="363.623047" xlink:href="#DejaVuSans-49"/>
      <use x="427.246094" xlink:href="#DejaVuSans-54"/>
      <use x="490.869141" xlink:href="#DejaVuSans-103"/>
     </g>
    </g>
    <g id="line2d_24">
     <path d="M 768.281625 236.874687 
L 788.281625 236.874687 
" style="fill:none;stroke:#d62728;stroke-linecap:square;stroke-width:1.5;"/>
    </g>
    <g id="line2d_25"/>
    <g id="text_18">
     <!-- htm_8_1g -->
     <g transform="translate(796.281625 240.374687)scale(0.1 -0.1)">
      <use xlink:href="#DejaVuSans-104"/>
      <use x="63.378906" xlink:href="#DejaVuSans-116"/>
      <use x="102.587891" xlink:href="#DejaVuSans-109"/>
      <use x="200" xlink:href="#DejaVuSans-95"/>
      <use x="250" xlink:href="#DejaVuSans-56"/>
      <use x="313.623047" xlink:href="#DejaVuSans-95"/>
      <use x="363.623047" xlink:href="#DejaVuSans-49"/>
      <use x="427.246094" xlink:href="#DejaVuSans-103"/>
     </g>
    </g>
   </g>
  </g>
 </g>
 <defs>
  <clipPath id="pa37975889e">
   <rect height="377.6" width="682.18" x="42.1" y="26.52"/>
  </clipPath>
 </defs>
</svg>
