<?xml version="1.0" encoding="utf-8" standalone="no"?>
<!DOCTYPE svg PUBLIC "-//W3C//DTD SVG 1.1//EN"
  "http://www.w3.org/Graphics/SVG/1.1/DTD/svg11.dtd">
<!-- Created with matplotlib (https://matplotlib.org/) -->
<svg height="432pt" version="1.1" viewBox="0 0 864 432" width="864pt" xmlns="http://www.w3.org/2000/svg" xmlns:xlink="http://www.w3.org/1999/xlink">
 <defs>
  <style type="text/css">
*{stroke-linecap:butt;stroke-linejoin:round;}
  </style>
 </defs>
 <g id="figure_1">
  <g id="patch_1">
   <path d="M 0 432 
L 864 432 
L 864 0 
L 0 0 
z
" style="fill:#ffffff;"/>
  </g>
  <g id="axes_1">
   <g id="patch_2">
    <path d="M 32.56 404.12 
L 724.28 404.12 
L 724.28 26.52 
L 32.56 26.52 
z
" style="fill:#ffffff;"/>
   </g>
   <g id="matplotlib.axis_1">
    <g id="xtick_1">
     <g id="line2d_1">
      <defs>
       <path d="M 0 0 
L 0 3.5 
" id="mea41abe69a" style="stroke:#000000;stroke-width:0.8;"/>
      </defs>
      <g>
       <use style="stroke:#000000;stroke-width:0.8;" x="32.56" xlink:href="#mea41abe69a" y="404.12"/>
      </g>
     </g>
     <g id="text_1">
      <!-- 0 -->
      <defs>
       <path d="M 31.78125 66.40625 
Q 24.171875 66.40625 20.328125 58.90625 
Q 16.5 51.421875 16.5 36.375 
Q 16.5 21.390625 20.328125 13.890625 
Q 24.171875 6.390625 31.78125 6.390625 
Q 39.453125 6.390625 43.28125 13.890625 
Q 47.125 21.390625 47.125 36.375 
Q 47.125 51.421875 43.28125 58.90625 
Q 39.453125 66.40625 31.78125 66.40625 
z
M 31.78125 74.21875 
Q 44.046875 74.21875 50.515625 64.515625 
Q 56.984375 54.828125 56.984375 36.375 
Q 56.984375 17.96875 50.515625 8.265625 
Q 44.046875 -1.421875 31.78125 -1.421875 
Q 19.53125 -1.421875 13.0625 8.265625 
Q 6.59375 17.96875 6.59375 36.375 
Q 6.59375 54.828125 13.0625 64.515625 
Q 19.53125 74.21875 31.78125 74.21875 
z
" id="DejaVuSans-48"/>
      </defs>
      <g transform="translate(29.37875 418.718437)scale(0.1 -0.1)">
       <use xlink:href="#DejaVuSans-48"/>
      </g>
     </g>
    </g>
    <g id="xtick_2">
     <g id="line2d_2">
      <g>
       <use style="stroke:#000000;stroke-width:0.8;" x="119.133217" xlink:href="#mea41abe69a" y="404.12"/>
      </g>
     </g>
     <g id="text_2">
      <!-- 100 -->
      <defs>
       <path d="M 12.40625 8.296875 
L 28.515625 8.296875 
L 28.515625 63.921875 
L 10.984375 60.40625 
L 10.984375 69.390625 
L 28.421875 72.90625 
L 38.28125 72.90625 
L 38.28125 8.296875 
L 54.390625 8.296875 
L 54.390625 0 
L 12.40625 0 
z
" id="DejaVuSans-49"/>
      </defs>
      <g transform="translate(109.589467 418.718437)scale(0.1 -0.1)">
       <use xlink:href="#DejaVuSans-49"/>
       <use x="63.623047" xlink:href="#DejaVuSans-48"/>
       <use x="127.246094" xlink:href="#DejaVuSans-48"/>
      </g>
     </g>
    </g>
    <g id="xtick_3">
     <g id="line2d_3">
      <g>
       <use style="stroke:#000000;stroke-width:0.8;" x="205.706433" xlink:href="#mea41abe69a" y="404.12"/>
      </g>
     </g>
     <g id="text_3">
      <!-- 200 -->
      <defs>
       <path d="M 19.1875 8.296875 
L 53.609375 8.296875 
L 53.609375 0 
L 7.328125 0 
L 7.328125 8.296875 
Q 12.9375 14.109375 22.625 23.890625 
Q 32.328125 33.6875 34.8125 36.53125 
Q 39.546875 41.84375 41.421875 45.53125 
Q 43.3125 49.21875 43.3125 52.78125 
Q 43.3125 58.59375 39.234375 62.25 
Q 35.15625 65.921875 28.609375 65.921875 
Q 23.96875 65.921875 18.8125 64.3125 
Q 13.671875 62.703125 7.8125 59.421875 
L 7.8125 69.390625 
Q 13.765625 71.78125 18.9375 73 
Q 24.125 74.21875 28.421875 74.21875 
Q 39.75 74.21875 46.484375 68.546875 
Q 53.21875 62.890625 53.21875 53.421875 
Q 53.21875 48.921875 51.53125 44.890625 
Q 49.859375 40.875 45.40625 35.40625 
Q 44.1875 33.984375 37.640625 27.21875 
Q 31.109375 20.453125 19.1875 8.296875 
z
" id="DejaVuSans-50"/>
      </defs>
      <g transform="translate(196.162683 418.718437)scale(0.1 -0.1)">
       <use xlink:href="#DejaVuSans-50"/>
       <use x="63.623047" xlink:href="#DejaVuSans-48"/>
       <use x="127.246094" xlink:href="#DejaVuSans-48"/>
      </g>
     </g>
    </g>
    <g id="xtick_4">
     <g id="line2d_4">
      <g>
       <use style="stroke:#000000;stroke-width:0.8;" x="292.27965" xlink:href="#mea41abe69a" y="404.12"/>
      </g>
     </g>
     <g id="text_4">
      <!-- 300 -->
      <defs>
       <path d="M 40.578125 39.3125 
Q 47.65625 37.796875 51.625 33 
Q 55.609375 28.21875 55.609375 21.1875 
Q 55.609375 10.40625 48.1875 4.484375 
Q 40.765625 -1.421875 27.09375 -1.421875 
Q 22.515625 -1.421875 17.65625 -0.515625 
Q 12.796875 0.390625 7.625 2.203125 
L 7.625 11.71875 
Q 11.71875 9.328125 16.59375 8.109375 
Q 21.484375 6.890625 26.8125 6.890625 
Q 36.078125 6.890625 40.9375 10.546875 
Q 45.796875 14.203125 45.796875 21.1875 
Q 45.796875 27.640625 41.28125 31.265625 
Q 36.765625 34.90625 28.71875 34.90625 
L 20.21875 34.90625 
L 20.21875 43.015625 
L 29.109375 43.015625 
Q 36.375 43.015625 40.234375 45.921875 
Q 44.09375 48.828125 44.09375 54.296875 
Q 44.09375 59.90625 40.109375 62.90625 
Q 36.140625 65.921875 28.71875 65.921875 
Q 24.65625 65.921875 20.015625 65.03125 
Q 15.375 64.15625 9.8125 62.3125 
L 9.8125 71.09375 
Q 15.4375 72.65625 20.34375 73.4375 
Q 25.25 74.21875 29.59375 74.21875 
Q 40.828125 74.21875 47.359375 69.109375 
Q 53.90625 64.015625 53.90625 55.328125 
Q 53.90625 49.265625 50.4375 45.09375 
Q 46.96875 40.921875 40.578125 39.3125 
z
" id="DejaVuSans-51"/>
      </defs>
      <g transform="translate(282.7359 418.718437)scale(0.1 -0.1)">
       <use xlink:href="#DejaVuSans-51"/>
       <use x="63.623047" xlink:href="#DejaVuSans-48"/>
       <use x="127.246094" xlink:href="#DejaVuSans-48"/>
      </g>
     </g>
    </g>
    <g id="xtick_5">
     <g id="line2d_5">
      <g>
       <use style="stroke:#000000;stroke-width:0.8;" x="378.852866" xlink:href="#mea41abe69a" y="404.12"/>
      </g>
     </g>
     <g id="text_5">
      <!-- 400 -->
      <defs>
       <path d="M 37.796875 64.3125 
L 12.890625 25.390625 
L 37.796875 25.390625 
z
M 35.203125 72.90625 
L 47.609375 72.90625 
L 47.609375 25.390625 
L 58.015625 25.390625 
L 58.015625 17.1875 
L 47.609375 17.1875 
L 47.609375 0 
L 37.796875 0 
L 37.796875 17.1875 
L 4.890625 17.1875 
L 4.890625 26.703125 
z
" id="DejaVuSans-52"/>
      </defs>
      <g transform="translate(369.309116 418.718437)scale(0.1 -0.1)">
       <use xlink:href="#DejaVuSans-52"/>
       <use x="63.623047" xlink:href="#DejaVuSans-48"/>
       <use x="127.246094" xlink:href="#DejaVuSans-48"/>
      </g>
     </g>
    </g>
    <g id="xtick_6">
     <g id="line2d_6">
      <g>
       <use style="stroke:#000000;stroke-width:0.8;" x="465.426083" xlink:href="#mea41abe69a" y="404.12"/>
      </g>
     </g>
     <g id="text_6">
      <!-- 500 -->
      <defs>
       <path d="M 10.796875 72.90625 
L 49.515625 72.90625 
L 49.515625 64.59375 
L 19.828125 64.59375 
L 19.828125 46.734375 
Q 21.96875 47.46875 24.109375 47.828125 
Q 26.265625 48.1875 28.421875 48.1875 
Q 40.625 48.1875 47.75 41.5 
Q 54.890625 34.8125 54.890625 23.390625 
Q 54.890625 11.625 47.5625 5.09375 
Q 40.234375 -1.421875 26.90625 -1.421875 
Q 22.3125 -1.421875 17.546875 -0.640625 
Q 12.796875 0.140625 7.71875 1.703125 
L 7.71875 11.625 
Q 12.109375 9.234375 16.796875 8.0625 
Q 21.484375 6.890625 26.703125 6.890625 
Q 35.15625 6.890625 40.078125 11.328125 
Q 45.015625 15.765625 45.015625 23.390625 
Q 45.015625 31 40.078125 35.4375 
Q 35.15625 39.890625 26.703125 39.890625 
Q 22.75 39.890625 18.8125 39.015625 
Q 14.890625 38.140625 10.796875 36.28125 
z
" id="DejaVuSans-53"/>
      </defs>
      <g transform="translate(455.882333 418.718437)scale(0.1 -0.1)">
       <use xlink:href="#DejaVuSans-53"/>
       <use x="63.623047" xlink:href="#DejaVuSans-48"/>
       <use x="127.246094" xlink:href="#DejaVuSans-48"/>
      </g>
     </g>
    </g>
    <g id="xtick_7">
     <g id="line2d_7">
      <g>
       <use style="stroke:#000000;stroke-width:0.8;" x="551.999299" xlink:href="#mea41abe69a" y="404.12"/>
      </g>
     </g>
     <g id="text_7">
      <!-- 600 -->
      <defs>
       <path d="M 33.015625 40.375 
Q 26.375 40.375 22.484375 35.828125 
Q 18.609375 31.296875 18.609375 23.390625 
Q 18.609375 15.53125 22.484375 10.953125 
Q 26.375 6.390625 33.015625 6.390625 
Q 39.65625 6.390625 43.53125 10.953125 
Q 47.40625 15.53125 47.40625 23.390625 
Q 47.40625 31.296875 43.53125 35.828125 
Q 39.65625 40.375 33.015625 40.375 
z
M 52.59375 71.296875 
L 52.59375 62.3125 
Q 48.875 64.0625 45.09375 64.984375 
Q 41.3125 65.921875 37.59375 65.921875 
Q 27.828125 65.921875 22.671875 59.328125 
Q 17.53125 52.734375 16.796875 39.40625 
Q 19.671875 43.65625 24.015625 45.921875 
Q 28.375 48.1875 33.59375 48.1875 
Q 44.578125 48.1875 50.953125 41.515625 
Q 57.328125 34.859375 57.328125 23.390625 
Q 57.328125 12.15625 50.6875 5.359375 
Q 44.046875 -1.421875 33.015625 -1.421875 
Q 20.359375 -1.421875 13.671875 8.265625 
Q 6.984375 17.96875 6.984375 36.375 
Q 6.984375 53.65625 15.1875 63.9375 
Q 23.390625 74.21875 37.203125 74.21875 
Q 40.921875 74.21875 44.703125 73.484375 
Q 48.484375 72.75 52.59375 71.296875 
z
" id="DejaVuSans-54"/>
      </defs>
      <g transform="translate(542.455549 418.718437)scale(0.1 -0.1)">
       <use xlink:href="#DejaVuSans-54"/>
       <use x="63.623047" xlink:href="#DejaVuSans-48"/>
       <use x="127.246094" xlink:href="#DejaVuSans-48"/>
      </g>
     </g>
    </g>
    <g id="xtick_8">
     <g id="line2d_8">
      <g>
       <use style="stroke:#000000;stroke-width:0.8;" x="638.572516" xlink:href="#mea41abe69a" y="404.12"/>
      </g>
     </g>
     <g id="text_8">
      <!-- 700 -->
      <defs>
       <path d="M 8.203125 72.90625 
L 55.078125 72.90625 
L 55.078125 68.703125 
L 28.609375 0 
L 18.3125 0 
L 43.21875 64.59375 
L 8.203125 64.59375 
z
" id="DejaVuSans-55"/>
      </defs>
      <g transform="translate(629.028766 418.718437)scale(0.1 -0.1)">
       <use xlink:href="#DejaVuSans-55"/>
       <use x="63.623047" xlink:href="#DejaVuSans-48"/>
       <use x="127.246094" xlink:href="#DejaVuSans-48"/>
      </g>
     </g>
    </g>
   </g>
   <g id="matplotlib.axis_2">
    <g id="ytick_1">
     <g id="line2d_9">
      <defs>
       <path d="M 0 0 
L -3.5 0 
" id="m9c71830399" style="stroke:#000000;stroke-width:0.8;"/>
      </defs>
      <g>
       <use style="stroke:#000000;stroke-width:0.8;" x="32.56" xlink:href="#m9c71830399" y="398.495097"/>
      </g>
     </g>
     <g id="text_9">
      <!-- −3 -->
      <defs>
       <path d="M 10.59375 35.5 
L 73.1875 35.5 
L 73.1875 27.203125 
L 10.59375 27.203125 
z
" id="DejaVuSans-8722"/>
      </defs>
      <g transform="translate(10.817813 402.294315)scale(0.1 -0.1)">
       <use xlink:href="#DejaVuSans-8722"/>
       <use x="83.789062" xlink:href="#DejaVuSans-51"/>
      </g>
     </g>
    </g>
    <g id="ytick_2">
     <g id="line2d_10">
      <g>
       <use style="stroke:#000000;stroke-width:0.8;" x="32.56" xlink:href="#m9c71830399" y="328.34723"/>
      </g>
     </g>
     <g id="text_10">
      <!-- −2 -->
      <g transform="translate(10.817813 332.146449)scale(0.1 -0.1)">
       <use xlink:href="#DejaVuSans-8722"/>
       <use x="83.789062" xlink:href="#DejaVuSans-50"/>
      </g>
     </g>
    </g>
    <g id="ytick_3">
     <g id="line2d_11">
      <g>
       <use style="stroke:#000000;stroke-width:0.8;" x="32.56" xlink:href="#m9c71830399" y="258.199363"/>
      </g>
     </g>
     <g id="text_11">
      <!-- −1 -->
      <g transform="translate(10.817813 261.998582)scale(0.1 -0.1)">
       <use xlink:href="#DejaVuSans-8722"/>
       <use x="83.789062" xlink:href="#DejaVuSans-49"/>
      </g>
     </g>
    </g>
    <g id="ytick_4">
     <g id="line2d_12">
      <g>
       <use style="stroke:#000000;stroke-width:0.8;" x="32.56" xlink:href="#m9c71830399" y="188.051497"/>
      </g>
     </g>
     <g id="text_12">
      <!-- 0 -->
      <g transform="translate(19.1975 191.850715)scale(0.1 -0.1)">
       <use xlink:href="#DejaVuSans-48"/>
      </g>
     </g>
    </g>
    <g id="ytick_5">
     <g id="line2d_13">
      <g>
       <use style="stroke:#000000;stroke-width:0.8;" x="32.56" xlink:href="#m9c71830399" y="117.90363"/>
      </g>
     </g>
     <g id="text_13">
      <!-- 1 -->
      <g transform="translate(19.1975 121.702849)scale(0.1 -0.1)">
       <use xlink:href="#DejaVuSans-49"/>
      </g>
     </g>
    </g>
    <g id="ytick_6">
     <g id="line2d_14">
      <g>
       <use style="stroke:#000000;stroke-width:0.8;" x="32.56" xlink:href="#m9c71830399" y="47.755763"/>
      </g>
     </g>
     <g id="text_14">
      <!-- 2 -->
      <g transform="translate(19.1975 51.554982)scale(0.1 -0.1)">
       <use xlink:href="#DejaVuSans-50"/>
      </g>
     </g>
    </g>
   </g>
   <g id="line2d_15">
    <path clip-path="url(#p046742b3e0)" d="M 66.323554 188.051497 
L 724.28 188.051497 
L 724.28 188.051497 
" style="fill:none;stroke:#1f77b4;stroke-linecap:square;stroke-width:1.5;"/>
   </g>
   <g id="line2d_16">
    <path clip-path="url(#p046742b3e0)" d="M 66.323554 176.67841 
L 67.189287 175.581492 
L 68.055019 175.581492 
L 68.920751 171.863193 
L 69.786483 173.58327 
L 70.652215 173.58327 
L 72.38368 179.043432 
L 74.115144 179.043432 
L 74.980876 179.619528 
L 75.846608 179.619528 
L 76.71234 179.889862 
L 77.578073 179.889862 
L 78.443805 180.394369 
L 81.041001 180.394369 
L 81.906733 182.321002 
L 85.369662 182.321002 
L 86.235394 183.806905 
L 87.101126 183.806905 
L 87.966859 185.69881 
L 88.832591 185.69881 
L 89.698323 188.657997 
L 91.429787 191.307945 
L 92.295519 196.101443 
L 93.161252 195.070644 
L 94.026984 195.070644 
L 94.892716 198.941535 
L 95.758448 199.896821 
L 96.62418 202.375361 
L 97.489912 203.718198 
L 98.355645 197.982144 
L 99.221377 206.954049 
L 100.087109 207.345375 
L 100.952841 208.785126 
L 102.684305 208.785126 
L 104.41577 215.340566 
L 105.281502 216.991862 
L 106.147234 222.636794 
L 107.012966 223.141301 
L 107.878698 223.141301 
L 108.744431 226.468274 
L 109.610163 226.788011 
L 110.475895 227.557015 
L 111.341627 224.230042 
L 113.938824 224.230042 
L 114.804556 222.30341 
L 115.670288 226.341445 
L 116.53602 226.341445 
L 117.401752 231.427906 
L 119.133217 231.427906 
L 119.998949 234.587734 
L 120.864681 239.017096 
L 121.730413 239.017096 
L 122.596145 237.125191 
L 123.461877 237.125191 
L 124.32761 234.166004 
L 126.059074 231.516056 
L 126.924806 226.722557 
L 127.790538 227.753357 
L 128.65627 227.753357 
L 129.522003 223.882466 
L 130.387735 222.92718 
L 131.253467 221.159703 
L 132.119199 219.816866 
L 132.984931 225.552919 
L 133.850663 218.187911 
L 134.716395 218.187911 
L 135.582128 216.74816 
L 137.313592 216.74816 
L 139.045056 211.82909 
L 139.910788 210.729701 
L 140.776521 205.08477 
L 141.642253 205.64873 
L 142.507985 209.160473 
L 143.373717 205.8335 
L 144.239449 205.8335 
L 145.105181 209.728031 
L 145.970914 213.055004 
L 146.836646 214.97289 
L 147.702378 219.402252 
L 148.56811 219.402252 
L 149.433842 225.99242 
L 150.299574 225.40235 
L 151.165307 225.40235 
L 152.031039 220.315889 
L 153.762503 220.315889 
L 154.628235 223.035167 
L 155.493967 218.605805 
L 156.3597 220.659705 
L 157.225432 223.52657 
L 158.091164 222.311 
L 158.956896 221.919674 
L 159.822628 221.329604 
L 160.68836 221.329604 
L 161.554093 220.618541 
L 162.419825 220.618541 
L 163.285557 219.402971 
L 169.345682 219.402971 
L 170.211414 223.832333 
L 171.942879 223.832333 
L 172.808611 221.691455 
L 173.674343 221.691455 
L 174.540075 221.139548 
L 176.271539 232.163403 
L 177.137272 231.474126 
L 178.868736 231.474126 
L 179.734468 225.59502 
L 180.6002 226.828215 
L 181.465932 227.52624 
L 183.197397 219.243612 
L 184.063129 220.729516 
L 184.928861 217.28155 
L 185.794593 217.28155 
L 187.526058 229.039761 
L 188.39179 229.039761 
L 189.257522 226.320483 
L 190.123254 230.448472 
L 191.854718 232.233061 
L 192.720451 232.233061 
L 193.586183 226.616415 
L 194.451915 227.206486 
L 195.317647 221.853454 
L 196.183379 222.564516 
L 199.646308 222.564516 
L 200.51204 229.033692 
L 201.377772 227.107059 
L 202.243504 227.107059 
L 203.109237 231.649602 
L 203.974969 230.668206 
L 204.840701 228.379722 
L 206.572165 228.379722 
L 208.30363 235.857911 
L 209.169362 235.857911 
L 210.035094 230.947582 
L 210.900826 228.246109 
L 211.766558 223.177274 
L 212.63229 221.961704 
L 213.498023 221.961704 
L 214.363755 230.542282 
L 215.229487 224.922327 
L 216.095219 221.090847 
L 216.960951 219.316806 
L 217.826683 223.170072 
L 218.692416 221.814131 
L 219.558148 220.918298 
L 220.42388 216.822759 
L 222.155344 205.064548 
L 223.021076 203.848978 
L 223.886809 200.68915 
L 224.752541 194.634529 
L 225.618273 190.826277 
L 226.484005 193.18278 
L 227.349737 191.356386 
L 228.215469 196.653295 
L 229.081202 195.437725 
L 229.946934 200.079694 
L 230.812666 200.079694 
L 231.678398 206.229133 
L 232.54413 211.315594 
L 234.275594 211.315594 
L 235.141327 204.846418 
L 236.007059 206.773051 
L 236.872791 210.565987 
L 237.738523 206.023444 
L 238.604255 207.00484 
L 239.469987 204.863962 
L 240.33572 203.648392 
L 241.201452 200.627182 
L 242.067184 198.011272 
L 242.932916 194.364562 
L 243.798648 194.364562 
L 244.66438 193.836515 
L 245.530113 190.38855 
L 246.395845 192.634919 
L 247.261577 193.850489 
L 248.127309 193.850489 
L 248.993041 192.130412 
L 249.858773 196.517172 
L 250.724506 197.732742 
L 251.590238 199.506783 
L 252.45597 199.506783 
L 253.321702 194.713285 
L 254.187434 195.609118 
L 255.053166 201.906013 
L 255.918899 201.586276 
L 256.784631 200.370707 
L 257.650363 201.586276 
L 258.516095 200.875214 
L 259.381827 202.801846 
L 260.247559 203.69768 
L 261.113292 197.548241 
L 261.979024 200.590205 
L 262.844756 201.301268 
L 263.710488 200.319871 
L 264.57622 201.030934 
L 265.441952 201.030934 
L 266.307685 194.881495 
L 267.173417 191.010604 
L 268.904881 191.010604 
L 269.770613 190.506097 
L 270.636345 190.506097 
L 271.502078 185.497592 
L 273.233542 185.497592 
L 274.099274 184.673348 
L 274.965006 185.888918 
L 275.830738 188.910128 
L 281.025131 188.910128 
L 281.890864 194.55506 
L 282.756596 194.55506 
L 283.622328 188.014295 
L 284.48806 187.118461 
L 286.219524 187.118461 
L 287.085257 192.763393 
L 288.816721 192.763393 
L 289.682453 190.562037 
L 290.548185 193.938413 
L 291.413917 195.153983 
L 292.27965 194.563913 
L 293.145382 194.684906 
L 294.876846 194.684906 
L 295.742578 193.973843 
L 297.474043 193.973843 
L 298.339775 196.170809 
L 299.205507 195.459746 
L 300.071239 195.459746 
L 300.936971 194.955239 
L 301.802703 192.524099 
L 302.668436 188.06001 
L 303.534168 187.740273 
L 304.3999 188.24478 
L 305.265632 188.24478 
L 306.131364 189.46035 
L 307.862829 189.46035 
L 308.728561 190.284594 
L 310.460025 190.284594 
L 311.325757 189.964857 
L 313.922954 189.964857 
L 314.788686 187.327162 
L 315.654418 186.111592 
L 316.52015 180.146923 
L 317.385882 180.146923 
L 318.251615 179.50745 
L 319.117347 179.69222 
L 319.983079 187.057229 
L 320.848811 187.057229 
L 321.714543 185.841659 
L 322.580275 193.206668 
L 323.446008 193.206668 
L 324.31174 187.42677 
L 325.177472 184.37013 
L 326.043204 184.37013 
L 326.908936 184.9602 
L 327.774668 184.654438 
L 328.640401 183.943375 
L 329.506133 183.943375 
L 330.371865 184.654438 
L 331.237597 184.654438 
L 332.103329 183.758604 
L 332.969061 183.758604 
L 333.834793 180.616402 
L 334.700526 179.635005 
L 335.566258 180.139512 
L 336.43199 181.746408 
L 337.297722 186.210498 
L 338.163454 186.530235 
L 339.894919 186.530235 
L 340.760651 188.456868 
L 342.492115 188.456868 
L 343.357847 187.745805 
L 344.223579 186.715005 
L 345.089312 186.715005 
L 345.955044 187.034742 
L 347.686508 187.034742 
L 348.55224 186.323679 
L 349.417972 188.961375 
L 350.283705 198.253016 
L 351.149437 195.160217 
L 352.015169 195.160217 
L 352.880901 196.695523 
L 353.746633 197.406586 
L 354.612365 190.041577 
L 355.478098 190.041577 
L 356.34383 184.396646 
L 357.209562 177.031637 
L 358.075294 177.031637 
L 358.941026 182.811535 
L 359.806758 182.420209 
L 360.672491 181.709146 
L 361.538223 181.709146 
L 362.403955 182.604979 
L 363.269687 182.811535 
L 364.135419 190.887607 
L 365.001151 189.991773 
L 365.866884 189.991773 
L 366.732616 190.887607 
L 367.598348 190.383099 
L 368.46408 194.236365 
L 369.329812 195.217761 
L 372.792741 195.146172 
L 373.658473 194.435109 
L 374.524205 194.435109 
L 375.389937 192.508476 
L 377.121402 192.508476 
L 377.987134 193.219539 
L 378.852866 197.357813 
L 379.718598 199.52867 
L 380.58433 196.890974 
L 381.450063 200.468902 
L 382.315795 199.75784 
L 383.181527 200.468902 
L 384.047259 197.792663 
L 384.912991 189.005528 
L 385.778723 192.418064 
L 386.644456 186.095115 
L 387.510188 185.199282 
L 389.241652 185.199282 
L 390.107384 192.059783 
L 390.973116 188.822763 
L 392.704581 188.822763 
L 393.570313 186.625797 
L 394.436045 186.697386 
L 395.301777 191.126748 
L 396.167509 191.126748 
L 397.033242 189.911178 
L 397.898974 190.415685 
L 398.764706 182.339614 
L 399.630438 183.235447 
L 400.49617 183.235447 
L 401.361902 182.524384 
L 402.227635 183.028891 
L 403.093367 181.813321 
L 404.824831 181.813321 
L 405.690563 182.709155 
L 407.422028 182.709155 
L 408.28776 182.33461 
L 409.153492 182.33461 
L 410.884956 180.998048 
L 411.750688 180.998048 
L 412.616421 186.436424 
L 413.482153 183.328949 
L 414.347885 181.158093 
L 415.213617 183.795789 
L 416.079349 178.291227 
L 416.945081 178.020894 
L 417.810814 178.020894 
L 418.676546 176.843868 
L 419.542278 177.554931 
L 420.40801 177.554931 
L 421.273742 183.558144 
L 422.139474 183.238407 
L 423.005207 182.527344 
L 424.736671 169.28762 
L 425.602403 173.74021 
L 426.468135 172.020133 
L 427.333867 172.020133 
L 428.199599 174.217099 
L 429.065332 174.536836 
L 429.931064 170.818537 
L 430.796796 170.107474 
L 431.662528 171.323044 
L 433.393992 171.323044 
L 434.259725 170.818537 
L 435.125457 170.818537 
L 435.991189 171.5296 
L 436.856921 171.5296 
L 437.722653 171.138274 
L 439.454118 171.138274 
L 440.31985 170.427211 
L 442.051314 170.427211 
L 442.917046 176.306316 
L 443.782778 175.716246 
L 444.648511 174.653268 
L 445.514243 175.278767 
L 446.379975 174.77426 
L 447.245707 169.335884 
L 448.111439 168.745814 
L 449.842904 168.745814 
L 450.708636 169.776613 
L 451.574368 169.54244 
L 452.4401 168.95237 
L 453.305832 171.909802 
L 455.037297 171.909802 
L 455.903029 172.229539 
L 456.768761 173.445108 
L 457.634493 174.156171 
L 458.500225 180.535394 
L 459.365957 178.729754 
L 460.23169 177.514184 
L 461.097422 179.234261 
L 462.828886 179.234261 
L 463.694618 176.803121 
L 464.56035 176.213051 
L 465.426083 176.924114 
L 466.291815 177.138359 
L 467.157547 177.138359 
L 468.889011 178.089869 
L 469.754743 181.537835 
L 470.620476 183.08017 
L 471.486208 185.902636 
L 472.35194 189.325726 
L 473.217672 189.325726 
L 474.083404 189.97646 
L 474.949136 192.951517 
L 475.814869 192.951517 
L 476.680601 186.301961 
L 477.546333 182.146533 
L 478.412065 182.736604 
L 479.277797 186.873003 
L 480.143529 186.873003 
L 481.009262 181.846428 
L 481.874994 177.993162 
L 482.740726 178.583233 
L 483.606458 186.659304 
L 484.47219 189.021663 
L 485.337922 188.241819 
L 486.203655 189.137652 
L 487.069387 194.814183 
L 488.800851 189.449151 
L 489.666583 195.59859 
L 490.532315 195.59859 
L 491.398048 199.821396 
L 493.129512 199.821396 
L 493.995244 208.096211 
L 494.860976 215.190887 
L 495.726708 218.909186 
L 496.592441 218.084942 
L 497.458173 218.084942 
L 498.323905 220.516082 
L 499.189637 220.395089 
L 500.055369 225.648695 
L 500.921101 225.43445 
L 501.786834 223.660409 
L 503.518298 232.18531 
L 504.38403 233.671213 
L 505.249762 231.624371 
L 506.115494 228.801905 
L 506.981227 226.985711 
L 507.846959 230.255181 
L 508.712691 231.745325 
L 509.578423 233.519366 
L 510.444155 238.957742 
L 511.309887 251.25223 
L 512.17562 250.614159 
L 513.041352 250.294423 
L 513.907084 247.932064 
L 515.638548 257.959537 
L 516.50428 259.381663 
L 517.370013 259.381663 
L 518.235745 251.305591 
L 519.101477 248.943232 
L 519.967209 250.114403 
L 520.832941 248.237173 
L 521.698673 243.150713 
L 522.564406 246.340965 
L 523.430138 247.165208 
L 524.29587 240.511262 
L 525.161602 240.511262 
L 526.027334 234.361824 
L 527.758798 234.361824 
L 530.355995 215.01267 
L 531.221727 214.621344 
L 532.953191 214.621344 
L 533.818924 215.332407 
L 534.684656 210.078801 
L 535.550388 210.078801 
L 536.41612 211.852842 
L 537.281852 206.918973 
L 538.147584 202.880938 
L 539.013317 197.947069 
L 539.879049 194.093803 
L 540.744781 199.532179 
L 541.610513 197.420776 
L 542.476245 193.646799 
L 543.341977 191.505922 
L 544.20771 184.325683 
L 545.939174 173.242375 
L 546.804906 173.242375 
L 547.670638 173.562112 
L 548.53637 172.580716 
L 549.402103 167.494255 
L 550.267835 163.726553 
L 551.133567 166.157693 
L 551.999299 166.28496 
L 552.865031 171.538565 
L 553.730763 172.240882 
L 554.596496 179.60589 
L 555.462228 181.802857 
L 556.32796 185.521156 
L 557.193692 188.104887 
L 558.059424 193.67823 
L 558.925156 194.182737 
L 559.790889 197.005203 
L 560.656621 200.516946 
L 562.388085 208.291644 
L 563.253817 209.27743 
L 564.119549 211.932751 
L 564.985282 215.215324 
L 565.851014 217.681894 
L 566.716746 221.193637 
L 567.582478 219.978067 
L 571.911139 219.978067 
L 572.776871 222.060483 
L 573.642603 222.060483 
L 574.508335 226.418255 
L 575.374068 220.979879 
L 576.2398 221.875712 
L 577.105532 222.38022 
L 577.971264 222.38022 
L 578.836996 225.522422 
L 579.702728 224.811359 
L 582.299925 224.811359 
L 583.165657 225.081693 
L 584.031389 225.081693 
L 584.897121 229.119729 
L 585.762854 229.119729 
L 586.628586 228.992462 
L 587.494318 223.738856 
L 588.36005 223.03654 
L 589.225782 215.280205 
L 590.091514 215.280205 
L 590.957247 211.561906 
L 591.822979 209.297911 
L 592.688711 204.165298 
L 593.554443 203.660791 
L 594.420175 204.790798 
L 595.285907 203.205687 
L 597.017372 195.430989 
L 597.883104 199.531663 
L 598.748836 192.671161 
L 599.614568 198.316093 
L 600.4803 197.065094 
L 601.346033 193.55335 
L 602.211765 197.82556 
L 603.943229 197.82556 
L 604.808961 196.60999 
L 606.540426 196.60999 
L 607.406158 199.461443 
L 608.27189 197.741366 
L 609.137622 196.525796 
L 611.734819 196.525796 
L 613.466283 195.103671 
L 614.332015 195.814734 
L 616.929212 195.814734 
L 617.794944 196.525796 
L 618.660676 195.310226 
L 619.526408 195.629963 
L 622.989337 195.629963 
L 623.855069 196.525796 
L 626.452265 196.525796 
L 627.317997 198.0117 
L 628.18373 197.620374 
L 629.049462 193.667901 
L 629.915194 192.772068 
L 631.646658 192.772068 
L 632.51239 187.685607 
L 633.378123 191.179725 
L 634.243855 185.534794 
L 635.109587 184.944723 
L 635.975319 184.944723 
L 636.841051 181.888084 
L 637.706783 181.888084 
L 638.572516 176.771199 
L 639.438248 177.986769 
L 640.30398 177.482262 
L 641.169712 177.482262 
L 642.035444 172.548393 
L 642.901176 180.147575 
L 643.766909 179.251742 
L 644.632641 185.130847 
L 645.498373 186.346417 
L 646.364105 186.346417 
L 647.229837 182.852299 
L 648.095569 183.563362 
L 648.961302 182.581966 
L 649.827034 188.226897 
L 650.692766 187.331064 
L 651.558498 186.620001 
L 652.42423 186.620001 
L 653.289962 187.835571 
L 654.155695 187.835571 
L 655.021427 187.124509 
L 655.887159 186.228675 
L 656.752891 184.621779 
L 657.618623 184.621779 
L 658.484355 180.90348 
L 660.21582 180.90348 
L 661.081552 179.417577 
L 661.947284 179.417577 
L 662.813016 180.31341 
L 663.678748 180.31341 
L 664.544481 181.209243 
L 665.410213 179.72334 
L 666.275945 179.218833 
L 667.141677 177.862892 
L 668.007409 178.573955 
L 670.604606 178.573955 
L 671.470338 178.182629 
L 672.33607 178.182629 
L 673.201802 182.588451 
L 674.067534 181.877388 
L 674.933267 183.597465 
L 676.664731 183.597465 
L 677.530463 174.504568 
L 678.396195 175.400401 
L 679.261927 165.573213 
L 680.12766 165.573213 
L 680.993392 163.897535 
L 681.859124 172.055189 
L 682.724856 172.055189 
L 684.45632 173.860829 
L 685.322053 179.420198 
L 686.187785 182.910423 
L 687.053517 182.910423 
L 687.919249 180.764292 
L 688.784981 179.868459 
L 689.650713 176.726256 
L 690.516446 176.726256 
L 691.382178 176.40652 
L 692.24791 176.40652 
L 693.113642 179.733493 
L 694.845106 179.733493 
L 695.710839 181.219396 
L 697.442303 178.581701 
L 698.308035 177.870638 
L 699.173767 177.870638 
L 700.039499 179.356541 
L 700.905232 179.861048 
L 701.770964 181.928052 
L 703.502428 181.928052 
L 704.36816 181.807059 
L 705.233892 181.807059 
L 706.099625 182.198385 
L 706.965357 179.919837 
L 707.831089 178.704267 
L 708.696821 179.41533 
L 709.562553 178.19976 
L 711.294018 178.19976 
L 712.15975 181.413552 
L 713.025482 182.629122 
L 713.891214 186.577205 
L 714.756946 186.577205 
L 715.622678 188.252882 
L 716.488411 184.300409 
L 717.354143 184.300409 
L 718.219875 183.084839 
L 719.085607 176.615664 
L 719.951339 171.952128 
L 720.817071 168.277133 
L 721.682804 168.277133 
L 722.548536 170.423264 
L 723.414268 171.319097 
L 724.28 175.172362 
L 724.28 175.172362 
" style="fill:none;stroke:#ff7f0e;stroke-linecap:square;stroke-width:1.5;"/>
   </g>
   <g id="line2d_17">
    <path clip-path="url(#p046742b3e0)" d="M 66.323554 158.777291 
L 67.189287 156.910988 
L 68.055019 161.26876 
L 68.920751 158.872348 
L 69.786483 162.181696 
L 70.652215 162.388252 
L 71.517947 161.172682 
L 72.38368 162.388252 
L 73.249412 162.388252 
L 74.115144 163.770967 
L 74.980876 160.948501 
L 76.71234 175.372756 
L 77.578073 182.297035 
L 79.309537 203.365422 
L 80.175269 210.730431 
L 81.906733 222.254468 
L 83.638198 236.59316 
L 84.50393 244.669231 
L 85.369662 253.960873 
L 86.235394 266.188161 
L 87.101126 274.854303 
L 87.966859 285.866022 
L 88.832591 290.408564 
L 89.698323 295.73376 
L 90.564055 299.60465 
L 91.429787 305.043026 
L 92.295519 311.192465 
L 93.161252 311.443421 
L 94.026984 311.443421 
L 94.892716 316.37729 
L 96.62418 331.81837 
L 97.489912 337.071976 
L 98.355645 336.176143 
L 99.221377 343.541151 
L 100.087109 344.756721 
L 100.952841 350.90616 
L 102.684305 350.90616 
L 103.550038 356.159766 
L 104.41577 363.020268 
L 105.281502 371.096339 
L 106.147234 377.750285 
L 107.012966 377.039222 
L 107.878698 377.039222 
L 108.744431 383.899724 
L 109.610163 386.72219 
L 110.475895 386.956364 
L 111.341627 380.693744 
L 112.207359 375.255368 
L 113.073091 365.373656 
L 113.938824 356.793077 
L 114.804556 349.428068 
L 115.670288 351.354701 
L 116.53602 345.709769 
L 117.401752 346.605602 
L 118.267484 339.240594 
L 119.133217 323.799513 
L 119.998949 320.657311 
L 120.864681 319.441741 
L 121.730413 314.579461 
L 122.596145 308.934529 
L 123.461877 311.252488 
L 124.32761 312.197725 
L 125.193342 315.691843 
L 126.059074 318.329538 
L 126.924806 317.26656 
L 127.790538 328.233879 
L 128.65627 332.456685 
L 129.522003 334.887825 
L 130.387735 336.103394 
L 131.253467 334.617491 
L 132.119199 332.143048 
L 132.984931 335.616247 
L 133.850663 333.689614 
L 134.716395 340.15879 
L 135.582128 339.095812 
L 136.44786 343.2238 
L 137.313592 349.692976 
L 138.179324 349.232868 
L 139.045056 342.372367 
L 139.910788 339.089794 
L 140.776521 340.120593 
L 141.642253 344.549955 
L 142.507985 350.699394 
L 143.373717 343.838892 
L 144.239449 343.838892 
L 145.105181 341.173579 
L 145.970914 342.893656 
L 148.56811 361.270383 
L 149.433842 368.130885 
L 150.299574 366.681141 
L 151.165307 366.681141 
L 152.031039 359.316133 
L 152.896771 359.316133 
L 153.762503 366.681141 
L 154.628235 366.176634 
L 155.493967 358.100563 
L 157.225432 362.138598 
L 158.091164 353.895382 
L 158.956896 349.231846 
L 160.68836 332.966522 
L 161.554093 327.880061 
L 162.419825 319.55889 
L 163.285557 315.336084 
L 164.151289 317.262716 
L 165.017021 314.44025 
L 165.882753 308.561145 
L 166.748486 313.858054 
L 167.614218 316.214557 
L 168.47995 318.14119 
L 169.345682 311.167507 
L 170.211414 312.941548 
L 171.077146 312.68445 
L 171.942879 306.215275 
L 172.808611 301.421776 
L 173.674343 307.890952 
L 174.540075 308.351059 
L 175.405807 306.545419 
L 176.271539 308.265496 
L 177.137272 309.481066 
L 178.003004 315.125998 
L 178.868736 315.125998 
L 179.734468 311.912206 
L 180.6002 319.277215 
L 181.465932 320.763118 
L 182.331665 316.220575 
L 183.197397 307.163107 
L 184.063129 306.181711 
L 184.928861 301.752349 
L 185.794593 301.752349 
L 187.526058 313.51056 
L 188.39179 313.51056 
L 189.257522 312.29499 
L 190.123254 316.422979 
L 191.854718 317.552985 
L 192.720451 318.9357 
L 193.586183 318.544374 
L 194.451915 319.368618 
L 195.317647 318.657555 
L 196.183379 318.657555 
L 197.049111 317.687085 
L 197.914844 315.255946 
L 198.780576 305.964304 
L 199.646308 299.495128 
L 200.51204 306.860137 
L 201.377772 298.784066 
L 202.243504 293.850197 
L 203.109237 290.131898 
L 203.974969 290.636405 
L 204.840701 289.029509 
L 205.706433 291.627794 
L 206.572165 295.01422 
L 207.437897 302.379228 
L 208.30363 298.689215 
L 209.169362 299.314715 
L 210.035094 298.779168 
L 210.900826 298.985724 
L 211.766558 291.620715 
L 212.63229 285.975783 
L 213.498023 285.975783 
L 214.363755 293.340792 
L 216.095219 278.020704 
L 216.960951 279.236274 
L 217.826683 278.19622 
L 218.692416 278.19622 
L 219.558148 275.765081 
L 220.42388 274.279177 
L 221.289612 268.400072 
L 222.155344 261.625133 
L 223.021076 261.305396 
L 223.886809 256.876035 
L 224.752541 250.149761 
L 225.618273 242.550579 
L 226.484005 245.692781 
L 227.349737 247.619414 
L 228.215469 248.01074 
L 229.081202 249.22631 
L 229.946934 251.152943 
L 230.812666 251.152943 
L 231.678398 254.871242 
L 232.54413 264.162883 
L 233.409862 266.089516 
L 234.275594 265.69819 
L 235.141327 258.333181 
L 236.007059 258.333181 
L 236.872791 264.48262 
L 237.738523 260.83591 
L 238.604255 260.83591 
L 239.469987 254.992234 
L 240.33572 245.951548 
L 241.201452 240.525308 
L 242.067184 233.1603 
L 242.932916 230.381137 
L 245.530113 208.256514 
L 246.395845 210.183146 
L 247.261577 210.183146 
L 248.127309 212.109779 
L 248.993041 210.894209 
L 249.858773 213.410912 
L 250.724506 211.925009 
L 251.590238 207.296903 
L 252.45597 210.533923 
L 253.321702 204.654818 
L 254.187434 203.137874 
L 255.053166 211.48428 
L 256.784631 209.948973 
L 257.650363 209.557647 
L 258.516095 210.773217 
L 259.381827 214.587072 
L 260.247559 216.307149 
L 261.113292 207.015507 
L 261.979024 204.769138 
L 262.844756 204.179067 
L 263.710488 201.747928 
L 264.57622 200.532358 
L 265.441952 200.532358 
L 266.307685 198.740691 
L 267.173417 190.66462 
L 268.039149 188.737987 
L 268.904881 188.41825 
L 269.770613 188.41825 
L 270.636345 190.344883 
L 271.502078 181.764304 
L 273.233542 181.764304 
L 274.099274 181.323575 
L 274.965006 183.895085 
L 275.830738 184.214822 
L 276.696471 184.214822 
L 277.562203 182.999252 
L 278.427935 185.731765 
L 279.293667 189.265294 
L 280.159399 193.829622 
L 281.025131 189.624441 
L 281.890864 196.484943 
L 282.756596 194.55831 
L 283.622328 190.335504 
L 284.48806 188.408871 
L 286.219524 195.233944 
L 287.085257 199.776487 
L 287.950989 199.776487 
L 288.816721 203.013507 
L 289.682453 196.153005 
L 290.548185 202.856354 
L 291.413917 204.46325 
L 292.27965 205.174313 
L 293.145382 203.368673 
L 294.011114 199.721963 
L 294.876846 199.0109 
L 295.742578 199.0109 
L 296.60831 199.330637 
L 297.474043 199.920707 
L 298.339775 200.105478 
L 299.205507 200.105478 
L 300.071239 198.570171 
L 300.936971 194.716906 
L 301.802703 195.221413 
L 302.668436 193.614517 
L 303.534168 194.325579 
L 304.3999 192.605502 
L 305.265632 192.605502 
L 306.131364 192.335169 
L 306.997096 191.510925 
L 307.862829 193.437558 
L 308.728561 193.252787 
L 309.594293 192.933051 
L 310.460025 194.653128 
L 311.325757 195.548961 
L 312.191489 196.260024 
L 313.057222 195.940287 
L 313.922954 192.798084 
L 314.788686 190.871452 
L 315.654418 193.15 
L 316.52015 185.969762 
L 317.385882 186.865595 
L 318.251615 185.834795 
L 319.117347 183.908163 
L 319.983079 188.130969 
L 320.848811 188.130969 
L 321.714543 191.664497 
L 322.580275 199.029506 
L 323.446008 199.740569 
L 324.31174 199.740569 
L 325.177472 192.645894 
L 326.043204 192.645894 
L 326.908936 189.503691 
L 327.774668 189.589254 
L 329.506133 194.65809 
L 332.103329 194.65809 
L 332.969061 195.688889 
L 333.834793 194.473319 
L 334.700526 194.793056 
L 335.566258 197.935259 
L 336.43199 198.326585 
L 337.297722 199.933481 
L 338.163454 197.295785 
L 339.029186 199.015862 
L 339.894919 197.089229 
L 340.760651 201.717335 
L 341.626383 201.830516 
L 342.492115 199.903884 
L 343.357847 201.119454 
L 344.223579 200.614947 
L 345.089312 200.614947 
L 345.955044 197.287974 
L 346.820776 195.865848 
L 347.686508 196.185585 
L 348.55224 198.112217 
L 349.417972 198.112217 
L 350.283705 206.188289 
L 351.149437 206.508026 
L 352.880901 204.716359 
L 353.746633 206.642992 
L 354.612365 199.512157 
L 355.478098 199.512157 
L 356.34383 191.436085 
L 357.209562 182.144444 
L 358.075294 180.217811 
L 358.941026 178.610915 
L 359.806758 179.115422 
L 360.672491 179.115422 
L 361.538223 180.835499 
L 362.403955 181.340006 
L 363.269687 180.835499 
L 364.135419 186.984938 
L 365.001151 186.984938 
L 365.866884 183.657965 
L 366.732616 184.049291 
L 367.598348 182.833721 
L 368.46408 184.049291 
L 369.329812 183.657965 
L 370.195544 182.442395 
L 371.061277 184.688764 
L 371.927009 184.688764 
L 372.792741 188.54203 
L 373.658473 189.7576 
L 374.524205 189.253093 
L 375.389937 188.54203 
L 376.25567 189.253093 
L 377.121402 188.748586 
L 377.987134 188.037523 
L 378.852866 196.226775 
L 379.718598 201.020274 
L 380.58433 203.451414 
L 381.450063 213.454118 
L 382.315795 213.454118 
L 383.181527 211.968214 
L 384.047259 211.378144 
L 384.912991 203.302073 
L 386.644456 205.093739 
L 387.510188 204.589232 
L 388.37592 204.589232 
L 389.241652 199.101453 
L 390.107384 199.101453 
L 390.973116 196.99005 
L 391.838849 192.447507 
L 392.704581 191.551673 
L 393.570313 193.158569 
L 394.436045 191.829819 
L 395.301777 201.12146 
L 396.167509 202.543586 
L 397.033242 202.543586 
L 397.898974 196.578917 
L 398.764706 187.607012 
L 399.630438 187.607012 
L 400.49617 190.429478 
L 401.361902 189.327089 
L 402.227635 190.542659 
L 403.093367 190.151333 
L 403.959099 191.047166 
L 404.824831 190.542659 
L 406.556295 185.707997 
L 408.28776 170.928577 
L 409.153492 169.659043 
L 410.019224 161.582971 
L 410.884956 155.703866 
L 411.750688 156.208373 
L 412.616421 164.284444 
L 413.482153 156.919436 
L 414.347885 152.125937 
L 415.213617 152.125937 
L 416.079349 142.041651 
L 416.945081 142.041651 
L 417.810814 143.527554 
L 418.676546 144.117625 
L 419.542278 144.117625 
L 420.40801 143.811862 
L 422.139474 128.875288 
L 423.005207 126.052822 
L 423.870939 129.699532 
L 424.736671 128.483962 
L 425.602403 123.230356 
L 426.468135 127.772899 
L 427.333867 130.595365 
L 428.199599 130.595365 
L 429.065332 125.774677 
L 429.931064 116.483036 
L 430.796796 108.406964 
L 431.662528 108.406964 
L 432.52826 108.015638 
L 433.393992 102.05097 
L 434.259725 101.546462 
L 435.125457 102.05097 
L 435.991189 102.762032 
L 437.722653 89.432355 
L 438.588385 89.432355 
L 439.454118 83.467686 
L 440.31985 82.643443 
L 441.185582 85.160146 
L 442.051314 84.264312 
L 442.917046 95.229878 
L 443.782778 90.534744 
L 444.648511 90.534744 
L 445.514243 89.944674 
L 446.379975 90.26441 
L 447.245707 81.292506 
L 448.111439 80.972769 
L 448.977171 78.401258 
L 449.842904 71.932083 
L 450.708636 73.940298 
L 451.574368 73.940298 
L 452.4401 67.471122 
L 454.171564 52.030042 
L 455.037297 44.074962 
L 455.903029 43.683636 
L 456.768761 51.759708 
L 457.634493 54.077667 
L 458.500225 49.535124 
L 459.365957 44.281518 
L 460.23169 51.646527 
L 461.097422 53.57316 
L 461.963154 47.103984 
L 462.828886 45.383907 
L 463.694618 50.637513 
L 464.56035 50.317776 
L 465.426083 61.553676 
L 466.291815 69.629747 
L 467.157547 76.490249 
L 468.023279 88.995682 
L 468.889011 89.500189 
L 469.754743 91.671046 
L 470.620476 97.315977 
L 472.35194 120.075914 
L 473.217672 123.946805 
L 474.083404 135.854356 
L 474.949136 142.949032 
L 475.814869 146.218501 
L 476.680601 152.097607 
L 477.546333 151.553689 
L 478.412065 158.022865 
L 480.143529 181.426836 
L 481.009262 179.657355 
L 481.874994 179.544175 
L 482.740726 178.257015 
L 484.47219 199.326246 
L 485.337922 198.110676 
L 486.203655 194.07264 
L 487.069387 204.579851 
L 487.935119 207.219301 
L 488.800851 213.049004 
L 489.666583 226.058944 
L 490.532315 230.992813 
L 491.398048 235.120802 
L 492.26378 235.625309 
L 493.129512 242.990318 
L 493.995244 252.281959 
L 494.860976 259.646968 
L 495.726708 262.973941 
L 496.592441 269.12338 
L 498.323905 272.450353 
L 499.189637 269.389152 
L 500.055369 268.966227 
L 500.921101 260.890156 
L 501.786834 260.038722 
L 502.652566 257.780217 
L 503.518298 264.249392 
L 504.38403 262.536891 
L 505.249762 256.387452 
L 506.115494 251.300991 
L 506.981227 247.348518 
L 507.846959 247.24533 
L 508.712691 243.59862 
L 509.578423 241.590406 
L 510.444155 245.685945 
L 511.309887 253.050954 
L 512.17562 245.014293 
L 513.041352 243.798723 
L 513.907084 239.369361 
L 514.772816 238.517927 
L 515.638548 236.457682 
L 517.370013 239.784655 
L 518.235745 232.419646 
L 519.101477 227.756111 
L 519.967209 227.756111 
L 520.832941 231.794147 
L 521.698673 224.993098 
L 522.564406 225.945118 
L 523.430138 228.191488 
L 524.29587 220.619923 
L 525.161602 222.546556 
L 526.027334 214.337228 
L 526.893066 212.801922 
L 527.758798 212.090859 
L 528.624531 209.268393 
L 529.490263 200.481258 
L 530.355995 197.154285 
L 531.221727 197.474022 
L 532.953191 197.474022 
L 533.818924 200.854959 
L 534.684656 198.118056 
L 535.550388 198.118056 
L 536.41612 197.586775 
L 537.281852 194.200349 
L 538.147584 187.731173 
L 539.013317 187.272819 
L 539.879049 187.777326 
L 540.744781 193.926765 
L 541.610513 193.926765 
L 542.476245 190.599792 
L 543.341977 188.808125 
L 544.20771 184.937235 
L 545.073442 174.93453 
L 545.939174 168.735688 
L 546.804906 171.91007 
L 547.670638 173.12564 
L 548.53637 173.12564 
L 549.402103 166.220738 
L 550.267835 169.730727 
L 551.133567 169.730727 
L 551.999299 173.0577 
L 552.865031 179.207139 
L 553.730763 187.28321 
L 554.596496 196.574852 
L 555.462228 196.574852 
L 557.193692 219.263546 
L 558.059424 224.701922 
L 559.790889 239.872669 
L 560.656621 251.319017 
L 562.388085 268.295404 
L 563.253817 272.724766 
L 564.119549 282.222963 
L 564.985282 282.222963 
L 566.716746 293.540445 
L 569.313942 293.540445 
L 570.179675 293.220708 
L 571.045407 294.603423 
L 571.911139 294.603423 
L 572.776871 301.072599 
L 574.508335 301.072599 
L 575.374068 294.92316 
L 576.2398 294.92316 
L 577.105532 295.193493 
L 578.836996 295.193493 
L 579.702728 297.831189 
L 581.434193 298.470662 
L 582.299925 297.574829 
L 583.165657 296.152704 
L 584.031389 298.264107 
L 584.897121 298.264107 
L 585.762854 296.657211 
L 586.628586 293.330238 
L 587.494318 287.180799 
L 588.36005 279.104727 
L 589.225782 268.917252 
L 590.091514 268.917252 
L 591.822979 250.838476 
L 592.688711 245.4001 
L 593.554443 238.625162 
L 594.420175 238.120655 
L 597.017372 216.025628 
L 597.883104 216.530135 
L 598.748836 207.558231 
L 599.614568 214.923239 
L 600.4803 209.044134 
L 601.346033 202.390188 
L 602.211765 209.25069 
L 603.943229 209.25069 
L 604.808961 209.570426 
L 605.674693 209.570426 
L 607.406158 208.930953 
L 608.27189 208.03512 
L 609.137622 208.03512 
L 610.003354 207.324057 
L 610.869086 205.397424 
L 611.734819 204.181854 
L 613.466283 204.181854 
L 614.332015 202.966285 
L 615.197747 202.966285 
L 616.063479 201.192243 
L 616.929212 202.088077 
L 617.794944 203.510202 
L 619.526408 203.510202 
L 620.39214 204.135702 
L 622.123605 201.704562 
L 622.989337 201.704562 
L 623.855069 203.815965 
L 624.720801 203.815965 
L 625.586533 202.39384 
L 626.452265 203.104902 
L 628.18373 203.104902 
L 629.049462 194.317768 
L 630.780926 194.317768 
L 631.646658 193.813261 
L 632.51239 188.879392 
L 633.378123 188.793829 
L 634.243855 181.42882 
L 635.975319 181.42882 
L 636.841051 172.137178 
L 637.706783 172.137178 
L 638.572516 168.724642 
L 639.438248 168.013579 
L 640.30398 166.527676 
L 641.169712 168.062983 
L 642.035444 160.697974 
L 642.901176 169.669879 
L 643.766909 171.596511 
L 644.632641 181.599216 
L 645.498373 179.807549 
L 646.364105 181.414445 
L 647.229837 183.341078 
L 648.095569 183.732404 
L 648.961302 184.947974 
L 649.827034 193.024046 
L 650.692766 196.724719 
L 651.558498 194.087024 
L 652.42423 194.982857 
L 654.155695 194.982857 
L 655.021427 195.964253 
L 655.887159 195.459746 
L 656.752891 196.675316 
L 657.618623 196.675316 
L 658.484355 198.601949 
L 659.350088 197.386379 
L 660.21582 198.808505 
L 661.081552 201.950707 
L 661.947284 200.145067 
L 662.813016 201.0409 
L 663.678748 202.576207 
L 664.544481 202.576207 
L 665.410213 202.0717 
L 666.275945 202.0717 
L 667.141677 202.391437 
L 668.873141 206.195299 
L 669.738874 204.812584 
L 670.604606 206.028154 
L 671.470338 206.262327 
L 672.33607 206.262327 
L 673.201802 210.890433 
L 674.067534 209.283537 
L 674.933267 211.985011 
L 675.798999 211.985011 
L 676.664731 213.20058 
L 677.530463 206.340079 
L 678.396195 204.413446 
L 679.261927 193.906235 
L 680.12766 195.697901 
L 680.993392 192.789872 
L 681.859124 195.526775 
L 682.724856 195.135449 
L 683.590588 195.135449 
L 684.45632 191.722912 
L 685.322053 197.161289 
L 686.187785 204.885445 
L 687.053517 203.989611 
L 687.919249 204.885445 
L 689.650713 204.885445 
L 690.516446 206.605522 
L 692.24791 206.605522 
L 693.113642 204.678889 
L 693.979374 205.894459 
L 694.845106 205.894459 
L 695.710839 203.967826 
L 696.576571 203.5765 
L 697.442303 203.5765 
L 698.308035 203.967826 
L 699.173767 203.967826 
L 700.905232 204.97684 
L 701.770964 204.38677 
L 702.636696 203.490937 
L 703.502428 199.957408 
L 704.36816 200.124553 
L 705.233892 199.804817 
L 706.099625 202.001783 
L 706.965357 202.001783 
L 707.831089 200.786213 
L 708.696821 203.104172 
L 709.562553 201.064358 
L 710.428285 198.633218 
L 711.294018 198.633218 
L 712.15975 196.913141 
L 713.025482 196.408634 
L 713.891214 196.408634 
L 714.756946 197.745197 
L 715.622678 200.2619 
L 716.488411 194.382794 
L 717.354143 193.351995 
L 718.219875 192.640932 
L 719.085607 186.946597 
L 719.951339 178.366018 
L 720.817071 172.383724 
L 721.682804 172.383724 
L 722.548536 171.487891 
L 723.414268 171.487891 
L 724.28 172.198954 
L 724.28 172.198954 
" style="fill:none;stroke:#2ca02c;stroke-linecap:square;stroke-width:1.5;"/>
   </g>
   <g id="patch_3">
    <path d="M 32.56 404.12 
L 32.56 26.52 
" style="fill:none;stroke:#000000;stroke-linecap:square;stroke-linejoin:miter;stroke-width:0.8;"/>
   </g>
   <g id="patch_4">
    <path d="M 724.28 404.12 
L 724.28 26.52 
" style="fill:none;stroke:#000000;stroke-linecap:square;stroke-linejoin:miter;stroke-width:0.8;"/>
   </g>
   <g id="patch_5">
    <path d="M 32.56 404.12 
L 724.28 404.12 
" style="fill:none;stroke:#000000;stroke-linecap:square;stroke-linejoin:miter;stroke-width:0.8;"/>
   </g>
   <g id="patch_6">
    <path d="M 32.56 26.52 
L 724.28 26.52 
" style="fill:none;stroke:#000000;stroke-linecap:square;stroke-linejoin:miter;stroke-width:0.8;"/>
   </g>
   <g id="text_15">
    <!-- gridworld_5x5_50_4_4_1337__dqn: episode duration in steps log-relative to `dqn_greedy`, MA=40 -->
    <defs>
     <path d="M 45.40625 27.984375 
Q 45.40625 37.75 41.375 43.109375 
Q 37.359375 48.484375 30.078125 48.484375 
Q 22.859375 48.484375 18.828125 43.109375 
Q 14.796875 37.75 14.796875 27.984375 
Q 14.796875 18.265625 18.828125 12.890625 
Q 22.859375 7.515625 30.078125 7.515625 
Q 37.359375 7.515625 41.375 12.890625 
Q 45.40625 18.265625 45.40625 27.984375 
z
M 54.390625 6.78125 
Q 54.390625 -7.171875 48.1875 -13.984375 
Q 42 -20.796875 29.203125 -20.796875 
Q 24.46875 -20.796875 20.265625 -20.09375 
Q 16.0625 -19.390625 12.109375 -17.921875 
L 12.109375 -9.1875 
Q 16.0625 -11.328125 19.921875 -12.34375 
Q 23.78125 -13.375 27.78125 -13.375 
Q 36.625 -13.375 41.015625 -8.765625 
Q 45.40625 -4.15625 45.40625 5.171875 
L 45.40625 9.625 
Q 42.625 4.78125 38.28125 2.390625 
Q 33.9375 0 27.875 0 
Q 17.828125 0 11.671875 7.65625 
Q 5.515625 15.328125 5.515625 27.984375 
Q 5.515625 40.671875 11.671875 48.328125 
Q 17.828125 56 27.875 56 
Q 33.9375 56 38.28125 53.609375 
Q 42.625 51.21875 45.40625 46.390625 
L 45.40625 54.6875 
L 54.390625 54.6875 
z
" id="DejaVuSans-103"/>
     <path d="M 41.109375 46.296875 
Q 39.59375 47.171875 37.8125 47.578125 
Q 36.03125 48 33.890625 48 
Q 26.265625 48 22.1875 43.046875 
Q 18.109375 38.09375 18.109375 28.8125 
L 18.109375 0 
L 9.078125 0 
L 9.078125 54.6875 
L 18.109375 54.6875 
L 18.109375 46.1875 
Q 20.953125 51.171875 25.484375 53.578125 
Q 30.03125 56 36.53125 56 
Q 37.453125 56 38.578125 55.875 
Q 39.703125 55.765625 41.0625 55.515625 
z
" id="DejaVuSans-114"/>
     <path d="M 9.421875 54.6875 
L 18.40625 54.6875 
L 18.40625 0 
L 9.421875 0 
z
M 9.421875 75.984375 
L 18.40625 75.984375 
L 18.40625 64.59375 
L 9.421875 64.59375 
z
" id="DejaVuSans-105"/>
     <path d="M 45.40625 46.390625 
L 45.40625 75.984375 
L 54.390625 75.984375 
L 54.390625 0 
L 45.40625 0 
L 45.40625 8.203125 
Q 42.578125 3.328125 38.25 0.953125 
Q 33.9375 -1.421875 27.875 -1.421875 
Q 17.96875 -1.421875 11.734375 6.484375 
Q 5.515625 14.40625 5.515625 27.296875 
Q 5.515625 40.1875 11.734375 48.09375 
Q 17.96875 56 27.875 56 
Q 33.9375 56 38.25 53.625 
Q 42.578125 51.265625 45.40625 46.390625 
z
M 14.796875 27.296875 
Q 14.796875 17.390625 18.875 11.75 
Q 22.953125 6.109375 30.078125 6.109375 
Q 37.203125 6.109375 41.296875 11.75 
Q 45.40625 17.390625 45.40625 27.296875 
Q 45.40625 37.203125 41.296875 42.84375 
Q 37.203125 48.484375 30.078125 48.484375 
Q 22.953125 48.484375 18.875 42.84375 
Q 14.796875 37.203125 14.796875 27.296875 
z
" id="DejaVuSans-100"/>
     <path d="M 4.203125 54.6875 
L 13.1875 54.6875 
L 24.421875 12.015625 
L 35.59375 54.6875 
L 46.1875 54.6875 
L 57.421875 12.015625 
L 68.609375 54.6875 
L 77.59375 54.6875 
L 63.28125 0 
L 52.6875 0 
L 40.921875 44.828125 
L 29.109375 0 
L 18.5 0 
z
" id="DejaVuSans-119"/>
     <path d="M 30.609375 48.390625 
Q 23.390625 48.390625 19.1875 42.75 
Q 14.984375 37.109375 14.984375 27.296875 
Q 14.984375 17.484375 19.15625 11.84375 
Q 23.34375 6.203125 30.609375 6.203125 
Q 37.796875 6.203125 41.984375 11.859375 
Q 46.1875 17.53125 46.1875 27.296875 
Q 46.1875 37.015625 41.984375 42.703125 
Q 37.796875 48.390625 30.609375 48.390625 
z
M 30.609375 56 
Q 42.328125 56 49.015625 48.375 
Q 55.71875 40.765625 55.71875 27.296875 
Q 55.71875 13.875 49.015625 6.21875 
Q 42.328125 -1.421875 30.609375 -1.421875 
Q 18.84375 -1.421875 12.171875 6.21875 
Q 5.515625 13.875 5.515625 27.296875 
Q 5.515625 40.765625 12.171875 48.375 
Q 18.84375 56 30.609375 56 
z
" id="DejaVuSans-111"/>
     <path d="M 9.421875 75.984375 
L 18.40625 75.984375 
L 18.40625 0 
L 9.421875 0 
z
" id="DejaVuSans-108"/>
     <path d="M 50.984375 -16.609375 
L 50.984375 -23.578125 
L -0.984375 -23.578125 
L -0.984375 -16.609375 
z
" id="DejaVuSans-95"/>
     <path d="M 54.890625 54.6875 
L 35.109375 28.078125 
L 55.90625 0 
L 45.3125 0 
L 29.390625 21.484375 
L 13.484375 0 
L 2.875 0 
L 24.125 28.609375 
L 4.6875 54.6875 
L 15.28125 54.6875 
L 29.78125 35.203125 
L 44.28125 54.6875 
z
" id="DejaVuSans-120"/>
     <path d="M 14.796875 27.296875 
Q 14.796875 17.390625 18.875 11.75 
Q 22.953125 6.109375 30.078125 6.109375 
Q 37.203125 6.109375 41.296875 11.75 
Q 45.40625 17.390625 45.40625 27.296875 
Q 45.40625 37.203125 41.296875 42.84375 
Q 37.203125 48.484375 30.078125 48.484375 
Q 22.953125 48.484375 18.875 42.84375 
Q 14.796875 37.203125 14.796875 27.296875 
z
M 45.40625 8.203125 
Q 42.578125 3.328125 38.25 0.953125 
Q 33.9375 -1.421875 27.875 -1.421875 
Q 17.96875 -1.421875 11.734375 6.484375 
Q 5.515625 14.40625 5.515625 27.296875 
Q 5.515625 40.1875 11.734375 48.09375 
Q 17.96875 56 27.875 56 
Q 33.9375 56 38.25 53.625 
Q 42.578125 51.265625 45.40625 46.390625 
L 45.40625 54.6875 
L 54.390625 54.6875 
L 54.390625 -20.796875 
L 45.40625 -20.796875 
z
" id="DejaVuSans-113"/>
     <path d="M 54.890625 33.015625 
L 54.890625 0 
L 45.90625 0 
L 45.90625 32.71875 
Q 45.90625 40.484375 42.875 44.328125 
Q 39.84375 48.1875 33.796875 48.1875 
Q 26.515625 48.1875 22.3125 43.546875 
Q 18.109375 38.921875 18.109375 30.90625 
L 18.109375 0 
L 9.078125 0 
L 9.078125 54.6875 
L 18.109375 54.6875 
L 18.109375 46.1875 
Q 21.34375 51.125 25.703125 53.5625 
Q 30.078125 56 35.796875 56 
Q 45.21875 56 50.046875 50.171875 
Q 54.890625 44.34375 54.890625 33.015625 
z
" id="DejaVuSans-110"/>
     <path d="M 11.71875 12.40625 
L 22.015625 12.40625 
L 22.015625 0 
L 11.71875 0 
z
M 11.71875 51.703125 
L 22.015625 51.703125 
L 22.015625 39.3125 
L 11.71875 39.3125 
z
" id="DejaVuSans-58"/>
     <path id="DejaVuSans-32"/>
     <path d="M 56.203125 29.59375 
L 56.203125 25.203125 
L 14.890625 25.203125 
Q 15.484375 15.921875 20.484375 11.0625 
Q 25.484375 6.203125 34.421875 6.203125 
Q 39.59375 6.203125 44.453125 7.46875 
Q 49.3125 8.734375 54.109375 11.28125 
L 54.109375 2.78125 
Q 49.265625 0.734375 44.1875 -0.34375 
Q 39.109375 -1.421875 33.890625 -1.421875 
Q 20.796875 -1.421875 13.15625 6.1875 
Q 5.515625 13.8125 5.515625 26.8125 
Q 5.515625 40.234375 12.765625 48.109375 
Q 20.015625 56 32.328125 56 
Q 43.359375 56 49.78125 48.890625 
Q 56.203125 41.796875 56.203125 29.59375 
z
M 47.21875 32.234375 
Q 47.125 39.59375 43.09375 43.984375 
Q 39.0625 48.390625 32.421875 48.390625 
Q 24.90625 48.390625 20.390625 44.140625 
Q 15.875 39.890625 15.1875 32.171875 
z
" id="DejaVuSans-101"/>
     <path d="M 18.109375 8.203125 
L 18.109375 -20.796875 
L 9.078125 -20.796875 
L 9.078125 54.6875 
L 18.109375 54.6875 
L 18.109375 46.390625 
Q 20.953125 51.265625 25.265625 53.625 
Q 29.59375 56 35.59375 56 
Q 45.5625 56 51.78125 48.09375 
Q 58.015625 40.1875 58.015625 27.296875 
Q 58.015625 14.40625 51.78125 6.484375 
Q 45.5625 -1.421875 35.59375 -1.421875 
Q 29.59375 -1.421875 25.265625 0.953125 
Q 20.953125 3.328125 18.109375 8.203125 
z
M 48.6875 27.296875 
Q 48.6875 37.203125 44.609375 42.84375 
Q 40.53125 48.484375 33.40625 48.484375 
Q 26.265625 48.484375 22.1875 42.84375 
Q 18.109375 37.203125 18.109375 27.296875 
Q 18.109375 17.390625 22.1875 11.75 
Q 26.265625 6.109375 33.40625 6.109375 
Q 40.53125 6.109375 44.609375 11.75 
Q 48.6875 17.390625 48.6875 27.296875 
z
" id="DejaVuSans-112"/>
     <path d="M 44.28125 53.078125 
L 44.28125 44.578125 
Q 40.484375 46.53125 36.375 47.5 
Q 32.28125 48.484375 27.875 48.484375 
Q 21.1875 48.484375 17.84375 46.4375 
Q 14.5 44.390625 14.5 40.28125 
Q 14.5 37.15625 16.890625 35.375 
Q 19.28125 33.59375 26.515625 31.984375 
L 29.59375 31.296875 
Q 39.15625 29.25 43.1875 25.515625 
Q 47.21875 21.78125 47.21875 15.09375 
Q 47.21875 7.46875 41.1875 3.015625 
Q 35.15625 -1.421875 24.609375 -1.421875 
Q 20.21875 -1.421875 15.453125 -0.5625 
Q 10.6875 0.296875 5.421875 2 
L 5.421875 11.28125 
Q 10.40625 8.6875 15.234375 7.390625 
Q 20.0625 6.109375 24.8125 6.109375 
Q 31.15625 6.109375 34.5625 8.28125 
Q 37.984375 10.453125 37.984375 14.40625 
Q 37.984375 18.0625 35.515625 20.015625 
Q 33.0625 21.96875 24.703125 23.78125 
L 21.578125 24.515625 
Q 13.234375 26.265625 9.515625 29.90625 
Q 5.8125 33.546875 5.8125 39.890625 
Q 5.8125 47.609375 11.28125 51.796875 
Q 16.75 56 26.8125 56 
Q 31.78125 56 36.171875 55.265625 
Q 40.578125 54.546875 44.28125 53.078125 
z
" id="DejaVuSans-115"/>
     <path d="M 8.5 21.578125 
L 8.5 54.6875 
L 17.484375 54.6875 
L 17.484375 21.921875 
Q 17.484375 14.15625 20.5 10.265625 
Q 23.53125 6.390625 29.59375 6.390625 
Q 36.859375 6.390625 41.078125 11.03125 
Q 45.3125 15.671875 45.3125 23.6875 
L 45.3125 54.6875 
L 54.296875 54.6875 
L 54.296875 0 
L 45.3125 0 
L 45.3125 8.40625 
Q 42.046875 3.421875 37.71875 1 
Q 33.40625 -1.421875 27.6875 -1.421875 
Q 18.265625 -1.421875 13.375 4.4375 
Q 8.5 10.296875 8.5 21.578125 
z
M 31.109375 56 
z
" id="DejaVuSans-117"/>
     <path d="M 34.28125 27.484375 
Q 23.390625 27.484375 19.1875 25 
Q 14.984375 22.515625 14.984375 16.5 
Q 14.984375 11.71875 18.140625 8.90625 
Q 21.296875 6.109375 26.703125 6.109375 
Q 34.1875 6.109375 38.703125 11.40625 
Q 43.21875 16.703125 43.21875 25.484375 
L 43.21875 27.484375 
z
M 52.203125 31.203125 
L 52.203125 0 
L 43.21875 0 
L 43.21875 8.296875 
Q 40.140625 3.328125 35.546875 0.953125 
Q 30.953125 -1.421875 24.3125 -1.421875 
Q 15.921875 -1.421875 10.953125 3.296875 
Q 6 8.015625 6 15.921875 
Q 6 25.140625 12.171875 29.828125 
Q 18.359375 34.515625 30.609375 34.515625 
L 43.21875 34.515625 
L 43.21875 35.40625 
Q 43.21875 41.609375 39.140625 45 
Q 35.0625 48.390625 27.6875 48.390625 
Q 23 48.390625 18.546875 47.265625 
Q 14.109375 46.140625 10.015625 43.890625 
L 10.015625 52.203125 
Q 14.9375 54.109375 19.578125 55.046875 
Q 24.21875 56 28.609375 56 
Q 40.484375 56 46.34375 49.84375 
Q 52.203125 43.703125 52.203125 31.203125 
z
" id="DejaVuSans-97"/>
     <path d="M 18.3125 70.21875 
L 18.3125 54.6875 
L 36.8125 54.6875 
L 36.8125 47.703125 
L 18.3125 47.703125 
L 18.3125 18.015625 
Q 18.3125 11.328125 20.140625 9.421875 
Q 21.96875 7.515625 27.59375 7.515625 
L 36.8125 7.515625 
L 36.8125 0 
L 27.59375 0 
Q 17.1875 0 13.234375 3.875 
Q 9.28125 7.765625 9.28125 18.015625 
L 9.28125 47.703125 
L 2.6875 47.703125 
L 2.6875 54.6875 
L 9.28125 54.6875 
L 9.28125 70.21875 
z
" id="DejaVuSans-116"/>
     <path d="M 4.890625 31.390625 
L 31.203125 31.390625 
L 31.203125 23.390625 
L 4.890625 23.390625 
z
" id="DejaVuSans-45"/>
     <path d="M 2.984375 54.6875 
L 12.5 54.6875 
L 29.59375 8.796875 
L 46.6875 54.6875 
L 56.203125 54.6875 
L 35.6875 0 
L 23.484375 0 
z
" id="DejaVuSans-118"/>
     <path d="M 17.921875 79.984375 
L 31.6875 61.71875 
L 24.21875 61.71875 
L 8.296875 79.984375 
z
" id="DejaVuSans-96"/>
     <path d="M 32.171875 -5.078125 
Q 28.375 -14.84375 24.75 -17.8125 
Q 21.140625 -20.796875 15.09375 -20.796875 
L 7.90625 -20.796875 
L 7.90625 -13.28125 
L 13.1875 -13.28125 
Q 16.890625 -13.28125 18.9375 -11.515625 
Q 21 -9.765625 23.484375 -3.21875 
L 25.09375 0.875 
L 2.984375 54.6875 
L 12.5 54.6875 
L 29.59375 11.921875 
L 46.6875 54.6875 
L 56.203125 54.6875 
z
" id="DejaVuSans-121"/>
     <path d="M 11.71875 12.40625 
L 22.015625 12.40625 
L 22.015625 4 
L 14.015625 -11.625 
L 7.71875 -11.625 
L 11.71875 4 
z
" id="DejaVuSans-44"/>
     <path d="M 9.8125 72.90625 
L 24.515625 72.90625 
L 43.109375 23.296875 
L 61.8125 72.90625 
L 76.515625 72.90625 
L 76.515625 0 
L 66.890625 0 
L 66.890625 64.015625 
L 48.09375 14.015625 
L 38.1875 14.015625 
L 19.390625 64.015625 
L 19.390625 0 
L 9.8125 0 
z
" id="DejaVuSans-77"/>
     <path d="M 34.1875 63.1875 
L 20.796875 26.90625 
L 47.609375 26.90625 
z
M 28.609375 72.90625 
L 39.796875 72.90625 
L 67.578125 0 
L 57.328125 0 
L 50.6875 18.703125 
L 17.828125 18.703125 
L 11.1875 0 
L 0.78125 0 
z
" id="DejaVuSans-65"/>
     <path d="M 10.59375 45.40625 
L 73.1875 45.40625 
L 73.1875 37.203125 
L 10.59375 37.203125 
z
M 10.59375 25.484375 
L 73.1875 25.484375 
L 73.1875 17.1875 
L 10.59375 17.1875 
z
" id="DejaVuSans-61"/>
    </defs>
    <g transform="translate(83.050312 20.52)scale(0.12 -0.12)">
     <use xlink:href="#DejaVuSans-103"/>
     <use x="63.476562" xlink:href="#DejaVuSans-114"/>
     <use x="104.589844" xlink:href="#DejaVuSans-105"/>
     <use x="132.373047" xlink:href="#DejaVuSans-100"/>
     <use x="195.849609" xlink:href="#DejaVuSans-119"/>
     <use x="277.636719" xlink:href="#DejaVuSans-111"/>
     <use x="338.818359" xlink:href="#DejaVuSans-114"/>
     <use x="379.931641" xlink:href="#DejaVuSans-108"/>
     <use x="407.714844" xlink:href="#DejaVuSans-100"/>
     <use x="471.191406" xlink:href="#DejaVuSans-95"/>
     <use x="521.191406" xlink:href="#DejaVuSans-53"/>
     <use x="584.814453" xlink:href="#DejaVuSans-120"/>
     <use x="643.994141" xlink:href="#DejaVuSans-53"/>
     <use x="707.617188" xlink:href="#DejaVuSans-95"/>
     <use x="757.617188" xlink:href="#DejaVuSans-53"/>
     <use x="821.240234" xlink:href="#DejaVuSans-48"/>
     <use x="884.863281" xlink:href="#DejaVuSans-95"/>
     <use x="934.863281" xlink:href="#DejaVuSans-52"/>
     <use x="998.486328" xlink:href="#DejaVuSans-95"/>
     <use x="1048.486328" xlink:href="#DejaVuSans-52"/>
     <use x="1112.109375" xlink:href="#DejaVuSans-95"/>
     <use x="1162.109375" xlink:href="#DejaVuSans-49"/>
     <use x="1225.732422" xlink:href="#DejaVuSans-51"/>
     <use x="1289.355469" xlink:href="#DejaVuSans-51"/>
     <use x="1352.978516" xlink:href="#DejaVuSans-55"/>
     <use x="1416.601562" xlink:href="#DejaVuSans-95"/>
     <use x="1466.601562" xlink:href="#DejaVuSans-95"/>
     <use x="1516.601562" xlink:href="#DejaVuSans-100"/>
     <use x="1580.078125" xlink:href="#DejaVuSans-113"/>
     <use x="1643.554688" xlink:href="#DejaVuSans-110"/>
     <use x="1706.933594" xlink:href="#DejaVuSans-58"/>
     <use x="1740.625" xlink:href="#DejaVuSans-32"/>
     <use x="1772.412109" xlink:href="#DejaVuSans-101"/>
     <use x="1833.935547" xlink:href="#DejaVuSans-112"/>
     <use x="1897.412109" xlink:href="#DejaVuSans-105"/>
     <use x="1925.195312" xlink:href="#DejaVuSans-115"/>
     <use x="1977.294922" xlink:href="#DejaVuSans-111"/>
     <use x="2038.476562" xlink:href="#DejaVuSans-100"/>
     <use x="2101.953125" xlink:href="#DejaVuSans-101"/>
     <use x="2163.476562" xlink:href="#DejaVuSans-32"/>
     <use x="2195.263672" xlink:href="#DejaVuSans-100"/>
     <use x="2258.740234" xlink:href="#DejaVuSans-117"/>
     <use x="2322.119141" xlink:href="#DejaVuSans-114"/>
     <use x="2363.232422" xlink:href="#DejaVuSans-97"/>
     <use x="2424.511719" xlink:href="#DejaVuSans-116"/>
     <use x="2463.720703" xlink:href="#DejaVuSans-105"/>
     <use x="2491.503906" xlink:href="#DejaVuSans-111"/>
     <use x="2552.685547" xlink:href="#DejaVuSans-110"/>
     <use x="2616.064453" xlink:href="#DejaVuSans-32"/>
     <use x="2647.851562" xlink:href="#DejaVuSans-105"/>
     <use x="2675.634766" xlink:href="#DejaVuSans-110"/>
     <use x="2739.013672" xlink:href="#DejaVuSans-32"/>
     <use x="2770.800781" xlink:href="#DejaVuSans-115"/>
     <use x="2822.900391" xlink:href="#DejaVuSans-116"/>
     <use x="2862.109375" xlink:href="#DejaVuSans-101"/>
     <use x="2923.632812" xlink:href="#DejaVuSans-112"/>
     <use x="2987.109375" xlink:href="#DejaVuSans-115"/>
     <use x="3039.208984" xlink:href="#DejaVuSans-32"/>
     <use x="3070.996094" xlink:href="#DejaVuSans-108"/>
     <use x="3098.779297" xlink:href="#DejaVuSans-111"/>
     <use x="3159.960938" xlink:href="#DejaVuSans-103"/>
     <use x="3223.4375" xlink:href="#DejaVuSans-45"/>
     <use x="3259.521484" xlink:href="#DejaVuSans-114"/>
     <use x="3300.603516" xlink:href="#DejaVuSans-101"/>
     <use x="3362.126953" xlink:href="#DejaVuSans-108"/>
     <use x="3389.910156" xlink:href="#DejaVuSans-97"/>
     <use x="3451.189453" xlink:href="#DejaVuSans-116"/>
     <use x="3490.398438" xlink:href="#DejaVuSans-105"/>
     <use x="3518.181641" xlink:href="#DejaVuSans-118"/>
     <use x="3577.361328" xlink:href="#DejaVuSans-101"/>
     <use x="3638.884766" xlink:href="#DejaVuSans-32"/>
     <use x="3670.671875" xlink:href="#DejaVuSans-116"/>
     <use x="3709.880859" xlink:href="#DejaVuSans-111"/>
     <use x="3771.0625" xlink:href="#DejaVuSans-32"/>
     <use x="3802.849609" xlink:href="#DejaVuSans-96"/>
     <use x="3852.849609" xlink:href="#DejaVuSans-100"/>
     <use x="3916.326172" xlink:href="#DejaVuSans-113"/>
     <use x="3979.802734" xlink:href="#DejaVuSans-110"/>
     <use x="4043.181641" xlink:href="#DejaVuSans-95"/>
     <use x="4093.181641" xlink:href="#DejaVuSans-103"/>
     <use x="4156.658203" xlink:href="#DejaVuSans-114"/>
     <use x="4197.740234" xlink:href="#DejaVuSans-101"/>
     <use x="4259.263672" xlink:href="#DejaVuSans-101"/>
     <use x="4320.787109" xlink:href="#DejaVuSans-100"/>
     <use x="4384.263672" xlink:href="#DejaVuSans-121"/>
     <use x="4443.443359" xlink:href="#DejaVuSans-96"/>
     <use x="4493.443359" xlink:href="#DejaVuSans-44"/>
     <use x="4525.230469" xlink:href="#DejaVuSans-32"/>
     <use x="4557.017578" xlink:href="#DejaVuSans-77"/>
     <use x="4643.296875" xlink:href="#DejaVuSans-65"/>
     <use x="4711.705078" xlink:href="#DejaVuSans-61"/>
     <use x="4795.494141" xlink:href="#DejaVuSans-52"/>
     <use x="4859.117188" xlink:href="#DejaVuSans-48"/>
    </g>
   </g>
   <g id="legend_1">
    <g id="patch_7">
     <path d="M 764.559937 239.254375 
L 855.624 239.254375 
Q 857.624 239.254375 857.624 237.254375 
L 857.624 193.385625 
Q 857.624 191.385625 855.624 191.385625 
L 764.559937 191.385625 
Q 762.559937 191.385625 762.559937 193.385625 
L 762.559937 237.254375 
Q 762.559937 239.254375 764.559937 239.254375 
z
" style="fill:#ffffff;opacity:0.8;stroke:#cccccc;stroke-linejoin:miter;"/>
    </g>
    <g id="line2d_18">
     <path d="M 766.559937 199.484062 
L 786.559937 199.484062 
" style="fill:none;stroke:#1f77b4;stroke-linecap:square;stroke-width:1.5;"/>
    </g>
    <g id="line2d_19"/>
    <g id="text_16">
     <!-- dqn_greedy -->
     <g transform="translate(794.559937 202.984062)scale(0.1 -0.1)">
      <use xlink:href="#DejaVuSans-100"/>
      <use x="63.476562" xlink:href="#DejaVuSans-113"/>
      <use x="126.953125" xlink:href="#DejaVuSans-110"/>
      <use x="190.332031" xlink:href="#DejaVuSans-95"/>
      <use x="240.332031" xlink:href="#DejaVuSans-103"/>
      <use x="303.808594" xlink:href="#DejaVuSans-114"/>
      <use x="344.890625" xlink:href="#DejaVuSans-101"/>
      <use x="406.414062" xlink:href="#DejaVuSans-101"/>
      <use x="467.9375" xlink:href="#DejaVuSans-100"/>
      <use x="531.414062" xlink:href="#DejaVuSans-121"/>
     </g>
    </g>
    <g id="line2d_20">
     <path d="M 766.559937 214.440313 
L 786.559937 214.440313 
" style="fill:none;stroke:#ff7f0e;stroke-linecap:square;stroke-width:1.5;"/>
    </g>
    <g id="line2d_21"/>
    <g id="text_17">
     <!-- dqn_eps -->
     <g transform="translate(794.559937 217.940313)scale(0.1 -0.1)">
      <use xlink:href="#DejaVuSans-100"/>
      <use x="63.476562" xlink:href="#DejaVuSans-113"/>
      <use x="126.953125" xlink:href="#DejaVuSans-110"/>
      <use x="190.332031" xlink:href="#DejaVuSans-95"/>
      <use x="240.332031" xlink:href="#DejaVuSans-101"/>
      <use x="301.855469" xlink:href="#DejaVuSans-112"/>
      <use x="365.332031" xlink:href="#DejaVuSans-115"/>
     </g>
    </g>
    <g id="line2d_22">
     <path d="M 766.559937 229.396562 
L 786.559937 229.396562 
" style="fill:none;stroke:#2ca02c;stroke-linecap:square;stroke-width:1.5;"/>
    </g>
    <g id="line2d_23"/>
    <g id="text_18">
     <!-- htm_4_1g -->
     <defs>
      <path d="M 54.890625 33.015625 
L 54.890625 0 
L 45.90625 0 
L 45.90625 32.71875 
Q 45.90625 40.484375 42.875 44.328125 
Q 39.84375 48.1875 33.796875 48.1875 
Q 26.515625 48.1875 22.3125 43.546875 
Q 18.109375 38.921875 18.109375 30.90625 
L 18.109375 0 
L 9.078125 0 
L 9.078125 75.984375 
L 18.109375 75.984375 
L 18.109375 46.1875 
Q 21.34375 51.125 25.703125 53.5625 
Q 30.078125 56 35.796875 56 
Q 45.21875 56 50.046875 50.171875 
Q 54.890625 44.34375 54.890625 33.015625 
z
" id="DejaVuSans-104"/>
      <path d="M 52 44.1875 
Q 55.375 50.25 60.0625 53.125 
Q 64.75 56 71.09375 56 
Q 79.640625 56 84.28125 50.015625 
Q 88.921875 44.046875 88.921875 33.015625 
L 88.921875 0 
L 79.890625 0 
L 79.890625 32.71875 
Q 79.890625 40.578125 77.09375 44.375 
Q 74.3125 48.1875 68.609375 48.1875 
Q 61.625 48.1875 57.5625 43.546875 
Q 53.515625 38.921875 53.515625 30.90625 
L 53.515625 0 
L 44.484375 0 
L 44.484375 32.71875 
Q 44.484375 40.625 41.703125 44.40625 
Q 38.921875 48.1875 33.109375 48.1875 
Q 26.21875 48.1875 22.15625 43.53125 
Q 18.109375 38.875 18.109375 30.90625 
L 18.109375 0 
L 9.078125 0 
L 9.078125 54.6875 
L 18.109375 54.6875 
L 18.109375 46.1875 
Q 21.1875 51.21875 25.484375 53.609375 
Q 29.78125 56 35.6875 56 
Q 41.65625 56 45.828125 52.96875 
Q 50 49.953125 52 44.1875 
z
" id="DejaVuSans-109"/>
     </defs>
     <g transform="translate(794.559937 232.896562)scale(0.1 -0.1)">
      <use xlink:href="#DejaVuSans-104"/>
      <use x="63.378906" xlink:href="#DejaVuSans-116"/>
      <use x="102.587891" xlink:href="#DejaVuSans-109"/>
      <use x="200" xlink:href="#DejaVuSans-95"/>
      <use x="250" xlink:href="#DejaVuSans-52"/>
      <use x="313.623047" xlink:href="#DejaVuSans-95"/>
      <use x="363.623047" xlink:href="#DejaVuSans-49"/>
      <use x="427.246094" xlink:href="#DejaVuSans-103"/>
     </g>
    </g>
   </g>
  </g>
 </g>
 <defs>
  <clipPath id="p046742b3e0">
   <rect height="377.6" width="691.72" x="32.56" y="26.52"/>
  </clipPath>
 </defs>
</svg>
