<?xml version="1.0" encoding="utf-8" standalone="no"?>
<!DOCTYPE svg PUBLIC "-//W3C//DTD SVG 1.1//EN"
  "http://www.w3.org/Graphics/SVG/1.1/DTD/svg11.dtd">
<!-- Created with matplotlib (https://matplotlib.org/) -->
<svg height="432pt" version="1.1" viewBox="0 0 864 432" width="864pt" xmlns="http://www.w3.org/2000/svg" xmlns:xlink="http://www.w3.org/1999/xlink">
 <defs>
  <style type="text/css">
*{stroke-linecap:butt;stroke-linejoin:round;}
  </style>
 </defs>
 <g id="figure_1">
  <g id="patch_1">
   <path d="M 0 432 
L 864 432 
L 864 0 
L 0 0 
z
" style="fill:#ffffff;"/>
  </g>
  <g id="axes_1">
   <g id="patch_2">
    <path d="M 33.775 404.12 
L 724.28 404.12 
L 724.28 26.52 
L 33.775 26.52 
z
" style="fill:#ffffff;"/>
   </g>
   <g id="matplotlib.axis_1">
    <g id="xtick_1">
     <g id="line2d_1">
      <defs>
       <path d="M 0 0 
L 0 3.5 
" id="meb6d306613" style="stroke:#000000;stroke-width:0.8;"/>
      </defs>
      <g>
       <use style="stroke:#000000;stroke-width:0.8;" x="33.775" xlink:href="#meb6d306613" y="404.12"/>
      </g>
     </g>
     <g id="text_1">
      <!-- 0 -->
      <defs>
       <path d="M 31.78125 66.40625 
Q 24.171875 66.40625 20.328125 58.90625 
Q 16.5 51.421875 16.5 36.375 
Q 16.5 21.390625 20.328125 13.890625 
Q 24.171875 6.390625 31.78125 6.390625 
Q 39.453125 6.390625 43.28125 13.890625 
Q 47.125 21.390625 47.125 36.375 
Q 47.125 51.421875 43.28125 58.90625 
Q 39.453125 66.40625 31.78125 66.40625 
z
M 31.78125 74.21875 
Q 44.046875 74.21875 50.515625 64.515625 
Q 56.984375 54.828125 56.984375 36.375 
Q 56.984375 17.96875 50.515625 8.265625 
Q 44.046875 -1.421875 31.78125 -1.421875 
Q 19.53125 -1.421875 13.0625 8.265625 
Q 6.59375 17.96875 6.59375 36.375 
Q 6.59375 54.828125 13.0625 64.515625 
Q 19.53125 74.21875 31.78125 74.21875 
z
" id="DejaVuSans-48"/>
      </defs>
      <g transform="translate(30.59375 418.718437)scale(0.1 -0.1)">
       <use xlink:href="#DejaVuSans-48"/>
      </g>
     </g>
    </g>
    <g id="xtick_2">
     <g id="line2d_2">
      <g>
       <use style="stroke:#000000;stroke-width:0.8;" x="120.142104" xlink:href="#meb6d306613" y="404.12"/>
      </g>
     </g>
     <g id="text_2">
      <!-- 200 -->
      <defs>
       <path d="M 19.1875 8.296875 
L 53.609375 8.296875 
L 53.609375 0 
L 7.328125 0 
L 7.328125 8.296875 
Q 12.9375 14.109375 22.625 23.890625 
Q 32.328125 33.6875 34.8125 36.53125 
Q 39.546875 41.84375 41.421875 45.53125 
Q 43.3125 49.21875 43.3125 52.78125 
Q 43.3125 58.59375 39.234375 62.25 
Q 35.15625 65.921875 28.609375 65.921875 
Q 23.96875 65.921875 18.8125 64.3125 
Q 13.671875 62.703125 7.8125 59.421875 
L 7.8125 69.390625 
Q 13.765625 71.78125 18.9375 73 
Q 24.125 74.21875 28.421875 74.21875 
Q 39.75 74.21875 46.484375 68.546875 
Q 53.21875 62.890625 53.21875 53.421875 
Q 53.21875 48.921875 51.53125 44.890625 
Q 49.859375 40.875 45.40625 35.40625 
Q 44.1875 33.984375 37.640625 27.21875 
Q 31.109375 20.453125 19.1875 8.296875 
z
" id="DejaVuSans-50"/>
      </defs>
      <g transform="translate(110.598354 418.718437)scale(0.1 -0.1)">
       <use xlink:href="#DejaVuSans-50"/>
       <use x="63.623047" xlink:href="#DejaVuSans-48"/>
       <use x="127.246094" xlink:href="#DejaVuSans-48"/>
      </g>
     </g>
    </g>
    <g id="xtick_3">
     <g id="line2d_3">
      <g>
       <use style="stroke:#000000;stroke-width:0.8;" x="206.509209" xlink:href="#meb6d306613" y="404.12"/>
      </g>
     </g>
     <g id="text_3">
      <!-- 400 -->
      <defs>
       <path d="M 37.796875 64.3125 
L 12.890625 25.390625 
L 37.796875 25.390625 
z
M 35.203125 72.90625 
L 47.609375 72.90625 
L 47.609375 25.390625 
L 58.015625 25.390625 
L 58.015625 17.1875 
L 47.609375 17.1875 
L 47.609375 0 
L 37.796875 0 
L 37.796875 17.1875 
L 4.890625 17.1875 
L 4.890625 26.703125 
z
" id="DejaVuSans-52"/>
      </defs>
      <g transform="translate(196.965459 418.718437)scale(0.1 -0.1)">
       <use xlink:href="#DejaVuSans-52"/>
       <use x="63.623047" xlink:href="#DejaVuSans-48"/>
       <use x="127.246094" xlink:href="#DejaVuSans-48"/>
      </g>
     </g>
    </g>
    <g id="xtick_4">
     <g id="line2d_4">
      <g>
       <use style="stroke:#000000;stroke-width:0.8;" x="292.876313" xlink:href="#meb6d306613" y="404.12"/>
      </g>
     </g>
     <g id="text_4">
      <!-- 600 -->
      <defs>
       <path d="M 33.015625 40.375 
Q 26.375 40.375 22.484375 35.828125 
Q 18.609375 31.296875 18.609375 23.390625 
Q 18.609375 15.53125 22.484375 10.953125 
Q 26.375 6.390625 33.015625 6.390625 
Q 39.65625 6.390625 43.53125 10.953125 
Q 47.40625 15.53125 47.40625 23.390625 
Q 47.40625 31.296875 43.53125 35.828125 
Q 39.65625 40.375 33.015625 40.375 
z
M 52.59375 71.296875 
L 52.59375 62.3125 
Q 48.875 64.0625 45.09375 64.984375 
Q 41.3125 65.921875 37.59375 65.921875 
Q 27.828125 65.921875 22.671875 59.328125 
Q 17.53125 52.734375 16.796875 39.40625 
Q 19.671875 43.65625 24.015625 45.921875 
Q 28.375 48.1875 33.59375 48.1875 
Q 44.578125 48.1875 50.953125 41.515625 
Q 57.328125 34.859375 57.328125 23.390625 
Q 57.328125 12.15625 50.6875 5.359375 
Q 44.046875 -1.421875 33.015625 -1.421875 
Q 20.359375 -1.421875 13.671875 8.265625 
Q 6.984375 17.96875 6.984375 36.375 
Q 6.984375 53.65625 15.1875 63.9375 
Q 23.390625 74.21875 37.203125 74.21875 
Q 40.921875 74.21875 44.703125 73.484375 
Q 48.484375 72.75 52.59375 71.296875 
z
" id="DejaVuSans-54"/>
      </defs>
      <g transform="translate(283.332563 418.718437)scale(0.1 -0.1)">
       <use xlink:href="#DejaVuSans-54"/>
       <use x="63.623047" xlink:href="#DejaVuSans-48"/>
       <use x="127.246094" xlink:href="#DejaVuSans-48"/>
      </g>
     </g>
    </g>
    <g id="xtick_5">
     <g id="line2d_5">
      <g>
       <use style="stroke:#000000;stroke-width:0.8;" x="379.243418" xlink:href="#meb6d306613" y="404.12"/>
      </g>
     </g>
     <g id="text_5">
      <!-- 800 -->
      <defs>
       <path d="M 31.78125 34.625 
Q 24.75 34.625 20.71875 30.859375 
Q 16.703125 27.09375 16.703125 20.515625 
Q 16.703125 13.921875 20.71875 10.15625 
Q 24.75 6.390625 31.78125 6.390625 
Q 38.8125 6.390625 42.859375 10.171875 
Q 46.921875 13.96875 46.921875 20.515625 
Q 46.921875 27.09375 42.890625 30.859375 
Q 38.875 34.625 31.78125 34.625 
z
M 21.921875 38.8125 
Q 15.578125 40.375 12.03125 44.71875 
Q 8.5 49.078125 8.5 55.328125 
Q 8.5 64.0625 14.71875 69.140625 
Q 20.953125 74.21875 31.78125 74.21875 
Q 42.671875 74.21875 48.875 69.140625 
Q 55.078125 64.0625 55.078125 55.328125 
Q 55.078125 49.078125 51.53125 44.71875 
Q 48 40.375 41.703125 38.8125 
Q 48.828125 37.15625 52.796875 32.3125 
Q 56.78125 27.484375 56.78125 20.515625 
Q 56.78125 9.90625 50.3125 4.234375 
Q 43.84375 -1.421875 31.78125 -1.421875 
Q 19.734375 -1.421875 13.25 4.234375 
Q 6.78125 9.90625 6.78125 20.515625 
Q 6.78125 27.484375 10.78125 32.3125 
Q 14.796875 37.15625 21.921875 38.8125 
z
M 18.3125 54.390625 
Q 18.3125 48.734375 21.84375 45.5625 
Q 25.390625 42.390625 31.78125 42.390625 
Q 38.140625 42.390625 41.71875 45.5625 
Q 45.3125 48.734375 45.3125 54.390625 
Q 45.3125 60.0625 41.71875 63.234375 
Q 38.140625 66.40625 31.78125 66.40625 
Q 25.390625 66.40625 21.84375 63.234375 
Q 18.3125 60.0625 18.3125 54.390625 
z
" id="DejaVuSans-56"/>
      </defs>
      <g transform="translate(369.699668 418.718437)scale(0.1 -0.1)">
       <use xlink:href="#DejaVuSans-56"/>
       <use x="63.623047" xlink:href="#DejaVuSans-48"/>
       <use x="127.246094" xlink:href="#DejaVuSans-48"/>
      </g>
     </g>
    </g>
    <g id="xtick_6">
     <g id="line2d_6">
      <g>
       <use style="stroke:#000000;stroke-width:0.8;" x="465.610522" xlink:href="#meb6d306613" y="404.12"/>
      </g>
     </g>
     <g id="text_6">
      <!-- 1000 -->
      <defs>
       <path d="M 12.40625 8.296875 
L 28.515625 8.296875 
L 28.515625 63.921875 
L 10.984375 60.40625 
L 10.984375 69.390625 
L 28.421875 72.90625 
L 38.28125 72.90625 
L 38.28125 8.296875 
L 54.390625 8.296875 
L 54.390625 0 
L 12.40625 0 
z
" id="DejaVuSans-49"/>
      </defs>
      <g transform="translate(452.885522 418.718437)scale(0.1 -0.1)">
       <use xlink:href="#DejaVuSans-49"/>
       <use x="63.623047" xlink:href="#DejaVuSans-48"/>
       <use x="127.246094" xlink:href="#DejaVuSans-48"/>
       <use x="190.869141" xlink:href="#DejaVuSans-48"/>
      </g>
     </g>
    </g>
    <g id="xtick_7">
     <g id="line2d_7">
      <g>
       <use style="stroke:#000000;stroke-width:0.8;" x="551.977627" xlink:href="#meb6d306613" y="404.12"/>
      </g>
     </g>
     <g id="text_7">
      <!-- 1200 -->
      <g transform="translate(539.252627 418.718437)scale(0.1 -0.1)">
       <use xlink:href="#DejaVuSans-49"/>
       <use x="63.623047" xlink:href="#DejaVuSans-50"/>
       <use x="127.246094" xlink:href="#DejaVuSans-48"/>
       <use x="190.869141" xlink:href="#DejaVuSans-48"/>
      </g>
     </g>
    </g>
    <g id="xtick_8">
     <g id="line2d_8">
      <g>
       <use style="stroke:#000000;stroke-width:0.8;" x="638.344731" xlink:href="#meb6d306613" y="404.12"/>
      </g>
     </g>
     <g id="text_8">
      <!-- 1400 -->
      <g transform="translate(625.619731 418.718437)scale(0.1 -0.1)">
       <use xlink:href="#DejaVuSans-49"/>
       <use x="63.623047" xlink:href="#DejaVuSans-52"/>
       <use x="127.246094" xlink:href="#DejaVuSans-48"/>
       <use x="190.869141" xlink:href="#DejaVuSans-48"/>
      </g>
     </g>
    </g>
   </g>
   <g id="matplotlib.axis_2">
    <g id="ytick_1">
     <g id="line2d_9">
      <defs>
       <path d="M 0 0 
L -3.5 0 
" id="md40104f209" style="stroke:#000000;stroke-width:0.8;"/>
      </defs>
      <g>
       <use style="stroke:#000000;stroke-width:0.8;" x="33.775" xlink:href="#md40104f209" y="333.872793"/>
      </g>
     </g>
     <g id="text_9">
      <!-- 0.0 -->
      <defs>
       <path d="M 10.6875 12.40625 
L 21 12.40625 
L 21 0 
L 10.6875 0 
z
" id="DejaVuSans-46"/>
      </defs>
      <g transform="translate(10.871875 337.672012)scale(0.1 -0.1)">
       <use xlink:href="#DejaVuSans-48"/>
       <use x="63.623047" xlink:href="#DejaVuSans-46"/>
       <use x="95.410156" xlink:href="#DejaVuSans-48"/>
      </g>
     </g>
    </g>
    <g id="ytick_2">
     <g id="line2d_10">
      <g>
       <use style="stroke:#000000;stroke-width:0.8;" x="33.775" xlink:href="#md40104f209" y="258.412859"/>
      </g>
     </g>
     <g id="text_10">
      <!-- 0.5 -->
      <defs>
       <path d="M 10.796875 72.90625 
L 49.515625 72.90625 
L 49.515625 64.59375 
L 19.828125 64.59375 
L 19.828125 46.734375 
Q 21.96875 47.46875 24.109375 47.828125 
Q 26.265625 48.1875 28.421875 48.1875 
Q 40.625 48.1875 47.75 41.5 
Q 54.890625 34.8125 54.890625 23.390625 
Q 54.890625 11.625 47.5625 5.09375 
Q 40.234375 -1.421875 26.90625 -1.421875 
Q 22.3125 -1.421875 17.546875 -0.640625 
Q 12.796875 0.140625 7.71875 1.703125 
L 7.71875 11.625 
Q 12.109375 9.234375 16.796875 8.0625 
Q 21.484375 6.890625 26.703125 6.890625 
Q 35.15625 6.890625 40.078125 11.328125 
Q 45.015625 15.765625 45.015625 23.390625 
Q 45.015625 31 40.078125 35.4375 
Q 35.15625 39.890625 26.703125 39.890625 
Q 22.75 39.890625 18.8125 39.015625 
Q 14.890625 38.140625 10.796875 36.28125 
z
" id="DejaVuSans-53"/>
      </defs>
      <g transform="translate(10.871875 262.212078)scale(0.1 -0.1)">
       <use xlink:href="#DejaVuSans-48"/>
       <use x="63.623047" xlink:href="#DejaVuSans-46"/>
       <use x="95.410156" xlink:href="#DejaVuSans-53"/>
      </g>
     </g>
    </g>
    <g id="ytick_3">
     <g id="line2d_11">
      <g>
       <use style="stroke:#000000;stroke-width:0.8;" x="33.775" xlink:href="#md40104f209" y="182.952925"/>
      </g>
     </g>
     <g id="text_11">
      <!-- 1.0 -->
      <g transform="translate(10.871875 186.752143)scale(0.1 -0.1)">
       <use xlink:href="#DejaVuSans-49"/>
       <use x="63.623047" xlink:href="#DejaVuSans-46"/>
       <use x="95.410156" xlink:href="#DejaVuSans-48"/>
      </g>
     </g>
    </g>
    <g id="ytick_4">
     <g id="line2d_12">
      <g>
       <use style="stroke:#000000;stroke-width:0.8;" x="33.775" xlink:href="#md40104f209" y="107.49299"/>
      </g>
     </g>
     <g id="text_12">
      <!-- 1.5 -->
      <g transform="translate(10.871875 111.292209)scale(0.1 -0.1)">
       <use xlink:href="#DejaVuSans-49"/>
       <use x="63.623047" xlink:href="#DejaVuSans-46"/>
       <use x="95.410156" xlink:href="#DejaVuSans-53"/>
      </g>
     </g>
    </g>
    <g id="ytick_5">
     <g id="line2d_13">
      <g>
       <use style="stroke:#000000;stroke-width:0.8;" x="33.775" xlink:href="#md40104f209" y="32.033056"/>
      </g>
     </g>
     <g id="text_13">
      <!-- 2.0 -->
      <g transform="translate(10.871875 35.832275)scale(0.1 -0.1)">
       <use xlink:href="#DejaVuSans-50"/>
       <use x="63.623047" xlink:href="#DejaVuSans-46"/>
       <use x="95.410156" xlink:href="#DejaVuSans-48"/>
      </g>
     </g>
    </g>
   </g>
   <g id="line2d_14">
    <path clip-path="url(#p5ea148e329)" d="M 50.616585 333.872793 
L 724.28 333.872793 
L 724.28 333.872793 
" style="fill:none;stroke:#1f77b4;stroke-linecap:square;stroke-width:1.5;"/>
   </g>
   <g id="line2d_15">
    <path clip-path="url(#p5ea148e329)" d="M 50.616585 333.872793 
L 77.822223 333.847214 
L 78.254059 329.606629 
L 78.685894 333.35794 
L 79.549565 333.35794 
L 79.981401 336.554792 
L 80.413236 334.337074 
L 80.845072 330.679529 
L 81.276907 331.567907 
L 81.708743 331.529987 
L 82.140578 342.144977 
L 82.572414 341.464616 
L 83.00425 351.208551 
L 83.436085 351.683769 
L 83.867921 351.530788 
L 84.299756 345.327516 
L 84.731592 347.219096 
L 85.163427 351.836397 
L 85.595263 352.564222 
L 86.027098 347.333738 
L 86.458934 347.333738 
L 86.890769 344.592015 
L 87.322605 337.677691 
L 87.75444 340.135044 
L 88.186276 337.624131 
L 88.618111 339.592264 
L 89.049947 335.943213 
L 89.481782 340.746109 
L 90.345453 340.746109 
L 90.777289 341.732237 
L 91.209124 340.462728 
L 91.64096 337.005566 
L 92.072795 337.005566 
L 92.504631 343.7861 
L 92.936467 341.631984 
L 93.800138 341.631984 
L 94.231973 346.668939 
L 94.663809 346.668939 
L 95.095644 348.319861 
L 95.52748 352.636671 
L 95.959315 353.030421 
L 96.391151 345.224203 
L 96.822986 345.19096 
L 97.254822 340.0959 
L 97.686657 342.313617 
L 98.118493 345.971162 
L 98.550328 343.627681 
L 98.982164 347.626576 
L 99.413999 337.699486 
L 99.845835 338.379846 
L 100.27767 338.165478 
L 100.709506 337.690259 
L 101.141341 328.296942 
L 101.573177 324.63398 
L 102.005013 322.7424 
L 102.436848 318.125099 
L 102.868684 317.397274 
L 103.300519 320.8845 
L 103.732355 303.991523 
L 104.16419 306.733246 
L 104.596026 313.418833 
L 105.027861 316.940719 
L 105.459697 315.268652 
L 105.891532 316.73157 
L 106.323368 321.530103 
L 106.755203 319.34245 
L 107.187039 319.34245 
L 108.05071 330.111815 
L 108.482545 329.870324 
L 108.914381 333.327486 
L 109.346216 325.909348 
L 109.778052 308.376226 
L 110.209887 309.444917 
L 110.641723 309.444917 
L 111.073558 316.699589 
L 111.505394 308.205473 
L 111.93723 308.205473 
L 112.369065 308.507474 
L 112.800901 302.574503 
L 113.232736 302.261093 
L 114.096407 320.359238 
L 114.528243 321.859921 
L 114.960078 321.278311 
L 115.391914 321.192232 
L 115.823749 324.074797 
L 116.255585 317.054185 
L 116.68742 317.821389 
L 117.119256 317.821389 
L 117.551091 299.206652 
L 117.982927 289.173273 
L 118.846598 310.697234 
L 119.278433 310.697234 
L 119.710269 320.730613 
L 120.142104 323.574592 
L 120.57394 324.47593 
L 121.005775 347.441311 
L 121.437611 354.073703 
L 121.869447 356.075762 
L 122.301282 342.891826 
L 122.733118 344.963377 
L 123.164953 341.532326 
L 123.596789 340.382844 
L 124.028624 337.767602 
L 124.46046 341.408849 
L 125.324131 332.850207 
L 125.755966 338.808269 
L 126.187802 336.193027 
L 126.619637 339.466103 
L 127.051473 350.218693 
L 127.483308 356.291097 
L 127.915144 353.094245 
L 128.346979 345.839573 
L 128.778815 349.296735 
L 129.21065 349.296735 
L 129.642486 347.369391 
L 130.074321 359.986439 
L 130.506157 353.539547 
L 131.369828 344.94308 
L 131.801664 340.110121 
L 132.233499 347.776294 
L 132.665335 350.80591 
L 133.09717 350.579972 
L 133.529006 351.024367 
L 133.960841 345.608289 
L 134.392677 342.993047 
L 134.824512 356.223278 
L 135.256348 362.799496 
L 135.688183 360.688067 
L 136.120019 360.688067 
L 136.551854 362.905784 
L 136.98369 355.932042 
L 137.415525 353.088063 
L 137.847361 351.314741 
L 138.711032 335.413093 
L 139.142867 333.639771 
L 139.574703 340.844468 
L 140.006538 342.955897 
L 140.438374 340.038654 
L 140.87021 335.893594 
L 141.302045 343.643796 
L 142.597552 333.348535 
L 143.029387 326.97413 
L 143.461223 329.589372 
L 143.893058 333.734432 
L 144.324894 333.734432 
L 144.756729 328.747452 
L 145.188565 331.944304 
L 145.6204 331.944304 
L 146.484071 328.487142 
L 146.915907 328.487142 
L 147.347742 317.581779 
L 147.779578 320.197021 
L 148.211413 329.794571 
L 148.643249 320.3182 
L 149.075084 325.548684 
L 149.938755 312.063423 
L 150.802427 309.776475 
L 151.234262 300.66124 
L 151.666098 300.66124 
L 152.097933 296.51618 
L 152.529769 299.973342 
L 152.961604 296.51618 
L 153.825275 283.933018 
L 154.257111 273.399069 
L 154.688946 274.928888 
L 155.984453 283.219009 
L 156.416288 292.433976 
L 156.848124 297.160647 
L 157.279959 298.24607 
L 157.711795 301.163313 
L 158.14363 308.611514 
L 158.575466 300.861312 
L 159.007301 300.861312 
L 160.302808 310.390878 
L 160.734644 306.245818 
L 161.166479 308.01914 
L 161.598315 308.01914 
L 162.03015 303.874079 
L 162.461986 301.946736 
L 163.325657 295.406624 
L 163.757492 294.718725 
L 164.189328 299.445396 
L 165.052999 305.120275 
L 165.484834 298.322052 
L 165.91667 302.939353 
L 166.348505 301.85393 
L 166.780341 305.866591 
L 167.212176 302.891744 
L 167.644012 298.746683 
L 168.075847 301.49914 
L 168.507683 311.731372 
L 168.939518 314.346614 
L 169.371354 315.692347 
L 169.803189 321.948836 
L 170.235025 325.405998 
L 170.666861 332.697038 
L 171.098696 336.000179 
L 171.530532 345.810124 
L 171.962367 345.365729 
L 172.394203 345.122225 
L 172.826038 342.062588 
L 173.257874 338.101613 
L 173.689709 336.119188 
L 174.121545 328.777275 
L 174.55338 327.691852 
L 174.985216 327.691852 
L 175.417051 321.773469 
L 175.848887 319.158227 
L 176.280722 318.316307 
L 176.712558 315.701065 
L 177.144393 307.410944 
L 177.576229 303.953782 
L 178.008064 305.483601 
L 178.4399 305.335621 
L 178.871735 304.493701 
L 180.599078 334.358799 
L 181.030913 335.046698 
L 181.462749 331.775131 
L 181.894584 338.450643 
L 182.32642 343.177314 
L 183.190091 338.344355 
L 183.621926 351.549348 
L 184.053762 347.536687 
L 184.485597 353.968696 
L 185.781104 380.665087 
L 186.212939 381.225075 
L 186.644775 375.734281 
L 187.07661 366.658554 
L 187.508446 364.043312 
L 187.940281 359.573991 
L 188.372117 366.140764 
L 188.803952 358.481482 
L 189.235788 354.706101 
L 189.667624 354.949605 
L 190.099459 360.180089 
L 190.531295 359.49219 
L 190.96313 354.123578 
L 191.826801 354.123578 
L 192.258637 343.433873 
L 192.690472 343.433873 
L 193.122308 346.049115 
L 193.554143 346.891035 
L 193.985979 349.506277 
L 194.84965 370.931106 
L 195.281485 377.691408 
L 195.713321 373.450824 
L 196.145156 374.796557 
L 196.576992 374.796557 
L 197.008827 368.364548 
L 197.440663 355.712156 
L 197.872498 356.554076 
L 198.736169 355.359282 
L 199.168005 351.542515 
L 199.599841 337.138299 
L 200.463512 349.656407 
L 200.895347 337.536837 
L 201.759018 337.536837 
L 202.190854 333.207691 
L 202.622689 317.3434 
L 203.48636 310.01796 
L 203.918196 313.834727 
L 204.350031 314.038723 
L 204.781867 314.038723 
L 205.213702 318.650721 
L 205.645538 304.805986 
L 206.077373 312.744878 
L 206.509209 315.434835 
L 206.941044 321.109714 
L 207.37288 321.507239 
L 207.804715 322.417142 
L 208.236551 320.553212 
L 208.668386 323.168454 
L 209.100222 323.168454 
L 209.532058 333.858159 
L 209.963893 338.178739 
L 210.395729 338.178739 
L 210.827564 329.491093 
L 211.2594 318.188205 
L 212.123071 304.365599 
L 212.554906 300.220539 
L 212.986742 302.835781 
L 213.418577 308.006846 
L 213.850413 305.391604 
L 214.282248 305.391604 
L 214.714084 311.766009 
L 215.145919 293.548797 
L 215.577755 296.164039 
L 216.00959 295.215831 
L 216.441426 293.442509 
L 216.873261 300.504812 
L 217.736932 293.217188 
L 218.168768 293.217188 
L 218.600604 292.529289 
L 219.032439 292.529289 
L 219.464275 292.131765 
L 219.89611 298.204169 
L 220.327946 297.573874 
L 220.759781 300.729035 
L 221.191617 302.005537 
L 221.623452 304.620779 
L 222.055288 310.693183 
L 222.487123 310.321769 
L 222.918959 317.599731 
L 223.350794 314.984489 
L 224.646301 301.570173 
L 225.078136 307.420571 
L 226.805478 307.420571 
L 227.237314 304.62981 
L 227.669149 304.62981 
L 228.100985 313.317456 
L 228.532821 324.620344 
L 228.964656 325.705767 
L 230.260163 325.705767 
L 230.691998 320.030888 
L 231.123834 316.727747 
L 231.555669 316.727747 
L 231.987505 317.415646 
L 232.41934 317.415646 
L 232.851176 322.64613 
L 233.283011 322.64613 
L 233.714847 326.251272 
L 235.010353 326.251272 
L 235.442189 328.178615 
L 235.874024 328.866514 
L 236.30586 330.396332 
L 236.737695 318.695919 
L 237.169531 301.320627 
L 238.033202 301.320627 
L 238.465038 300.372419 
L 238.896873 282.997127 
L 239.328709 279.539965 
L 240.624215 279.539965 
L 241.056051 284.266635 
L 241.919722 284.266635 
L 242.351557 274.891091 
L 243.215228 269.078997 
L 244.078899 269.078997 
L 244.510735 267.549178 
L 244.94257 267.549178 
L 245.374406 272.779662 
L 245.806241 255.40437 
L 246.238077 256.934189 
L 246.669912 256.934189 
L 247.101748 258.019612 
L 247.533583 263.250096 
L 247.965419 264.779915 
L 249.260926 271.142693 
L 249.692761 294.05047 
L 250.124597 278.204996 
L 250.556432 278.204996 
L 250.988268 274.599855 
L 251.420103 274.599855 
L 252.283774 284.372924 
L 253.147445 290.291307 
L 253.579281 289.846912 
L 254.011116 301.547325 
L 254.442952 317.837193 
L 255.306623 317.837193 
L 255.738458 321.294355 
L 256.170294 335.472795 
L 258.329472 335.472795 
L 258.761307 341.788703 
L 259.193143 341.788703 
L 259.624978 346.177267 
L 260.056814 348.792509 
L 260.488649 359.67451 
L 260.920485 357.059268 
L 261.35232 357.059268 
L 261.784156 365.349389 
L 262.215991 365.349389 
L 262.647827 360.118905 
L 263.079662 378.182095 
L 263.511498 384.178274 
L 263.943333 384.178274 
L 264.375169 383.092851 
L 264.807004 375.935023 
L 265.23884 372.477862 
L 265.670675 361.534579 
L 266.102511 358.919337 
L 266.534346 357.389518 
L 266.966182 354.472275 
L 267.398018 365.087264 
L 268.693524 365.087264 
L 269.12536 357.929437 
L 269.557195 338.626802 
L 269.989031 337.938903 
L 270.420866 319.478187 
L 270.852702 318.392764 
L 271.284537 318.392764 
L 272.148208 326.23849 
L 272.580044 332.310894 
L 273.011879 330.383551 
L 273.443715 318.820353 
L 275.602892 318.820353 
L 276.034728 315.701297 
L 276.466563 301.783167 
L 276.898399 302.625087 
L 277.330235 302.625087 
L 277.76207 294.939938 
L 278.193906 297.55518 
L 278.625741 297.55518 
L 279.057577 291.880301 
L 279.489412 276.034828 
L 279.921248 276.034828 
L 280.353083 280.577413 
L 280.784919 276.111052 
L 281.216754 278.038396 
L 281.64859 278.038396 
L 282.512261 281.893083 
L 282.944096 292.836366 
L 283.375932 292.836366 
L 283.807767 278.918236 
L 284.239603 276.302994 
L 284.671438 276.302994 
L 285.103274 277.832812 
L 285.535109 281.977873 
L 285.966945 290.267994 
L 286.39878 292.195337 
L 286.830616 310.412549 
L 287.262452 305.869964 
L 287.694287 329.31766 
L 288.126123 318.014772 
L 288.557958 329.023511 
L 289.421629 323.348632 
L 289.853465 317.276228 
L 290.2853 320.288995 
L 290.717136 336.976388 
L 291.580807 336.976388 
L 292.012642 322.216338 
L 292.444478 322.216338 
L 292.876313 309.567717 
L 293.308149 303.399789 
L 293.739984 301.472445 
L 294.603655 270.866922 
L 295.899162 243.060726 
L 296.330997 230.915918 
L 296.762833 244.146149 
L 297.194669 238.073745 
L 297.626504 227.536552 
L 298.05834 212.088604 
L 298.490175 210.16126 
L 299.353846 210.16126 
L 299.785682 212.980498 
L 300.217517 207.897993 
L 300.649353 207.897993 
L 301.081188 221.816124 
L 301.513024 204.440832 
L 301.944859 200.295771 
L 302.376695 187.822669 
L 303.240366 140.636904 
L 303.672201 140.636904 
L 304.104037 137.179742 
L 304.535872 137.179742 
L 304.967708 132.421498 
L 305.399543 139.579325 
L 307.126886 70.203518 
L 307.990557 44.18745 
L 308.422392 44.18745 
L 308.854228 43.683636 
L 309.286063 62.260453 
L 309.717899 60.106338 
L 310.149734 70.139717 
L 310.58157 73.110793 
L 311.013405 96.956014 
L 311.445241 105.64366 
L 311.877076 118.476367 
L 312.308912 119.466266 
L 312.740747 108.560903 
L 313.172583 125.936195 
L 313.604418 124.162873 
L 314.036254 117.692944 
L 314.468089 123.765348 
L 314.899925 123.657488 
L 315.33176 138.020013 
L 315.763596 138.020013 
L 316.195432 125.371391 
L 316.627267 107.996099 
L 317.059103 105.176862 
L 317.490938 100.604212 
L 317.922774 100.604212 
L 318.354609 109.137837 
L 318.786445 126.513129 
L 319.21828 131.50011 
L 319.650116 129.794771 
L 320.081951 147.597652 
L 320.513787 156.558164 
L 320.945622 156.558164 
L 321.377458 142.640033 
L 321.809293 142.360424 
L 322.241129 143.367358 
L 322.672964 147.512418 
L 323.1048 157.965452 
L 324.400306 212.407985 
L 324.832142 222.181054 
L 325.263977 226.798355 
L 325.695813 226.798355 
L 326.127649 221.036235 
L 326.99132 213.561489 
L 327.423155 216.176731 
L 327.854991 202.258601 
L 328.286826 194.519164 
L 328.718662 203.20681 
L 329.150497 205.134153 
L 329.582333 212.8319 
L 330.014168 230.207192 
L 330.446004 216.792875 
L 330.877839 217.480774 
L 331.309675 226.565945 
L 331.74151 222.658488 
L 332.173346 228.073057 
L 332.605181 227.806947 
L 333.037017 227.806947 
L 333.468852 240.455568 
L 333.900688 257.83086 
L 334.332523 257.83086 
L 334.764359 260.472395 
L 335.196194 251.784749 
L 335.62803 231.550712 
L 336.059866 233.478055 
L 336.491701 236.781196 
L 336.923537 248.587897 
L 337.355372 250.77555 
L 337.787208 256.575089 
L 338.219043 251.759638 
L 338.650879 262.220606 
L 339.082714 268.572619 
L 339.51455 269.952191 
L 339.946385 269.110271 
L 340.378221 275.919895 
L 340.810056 275.077975 
L 341.241892 269.458177 
L 341.673727 273.603238 
L 342.105563 273.603238 
L 342.537398 278.759006 
L 342.969234 273.168917 
L 343.401069 279.434851 
L 344.26474 282.631703 
L 344.696576 286.088865 
L 345.128412 295.861934 
L 345.992083 287.311503 
L 346.855754 283.854341 
L 347.287589 283.854341 
L 347.719425 292.541987 
L 348.15126 305.772219 
L 348.583096 301.627158 
L 349.014931 304.364401 
L 349.446767 310.436805 
L 349.878602 305.028036 
L 350.310438 302.412794 
L 350.742273 302.412794 
L 351.174109 298.267734 
L 351.605944 298.267734 
L 352.03778 301.717902 
L 352.469615 310.405548 
L 352.901451 322.105961 
L 353.333286 315.673952 
L 353.765122 304.984247 
L 354.196957 298.484255 
L 354.628793 298.484255 
L 355.060629 297.153061 
L 355.492464 301.968512 
L 356.356135 305.449938 
L 356.787971 306.651462 
L 357.219806 303.348322 
L 357.651642 292.771252 
L 358.083477 288.626192 
L 358.515313 290.458011 
L 358.947148 282.16789 
L 359.810819 273.821031 
L 360.242655 279.41112 
L 360.67449 279.41112 
L 361.106326 276.795878 
L 361.538161 280.940939 
L 361.969997 278.171675 
L 362.401832 278.171675 
L 362.833668 285.664528 
L 363.265503 289.809588 
L 363.697339 283.737185 
L 364.129174 281.519467 
L 364.56101 281.519467 
L 364.992846 277.782696 
L 365.424681 280.901752 
L 365.856517 280.144622 
L 366.288352 278.397593 
L 367.152023 266.65031 
L 367.583859 267.996043 
L 368.015694 265.380801 
L 368.44753 266.466224 
L 368.879365 266.466224 
L 369.311201 276.719452 
L 369.743036 276.719452 
L 370.174872 272.574392 
L 371.470378 300.1255 
L 371.902214 297.510258 
L 372.334049 296.22621 
L 372.765885 296.22621 
L 373.19772 292.968989 
L 373.629556 281.257811 
L 374.061391 274.825802 
L 374.493227 279.812783 
L 374.925063 281.740126 
L 376.220569 293.985942 
L 376.652405 299.893079 
L 377.08424 296.35299 
L 377.516076 291.4508 
L 377.947911 290.60888 
L 378.379747 291.694304 
L 378.811582 291.694304 
L 379.243418 280.916851 
L 379.675253 289.604497 
L 380.107089 283.641463 
L 380.538924 279.496402 
L 380.97076 285.568806 
L 381.834431 285.568806 
L 382.266266 293.912036 
L 382.698102 291.37459 
L 383.129937 299.439794 
L 383.561773 302.357037 
L 383.993609 299.741795 
L 384.425444 309.561735 
L 384.85728 311.994463 
L 385.289115 312.682362 
L 385.720951 323.587725 
L 386.152786 320.972483 
L 386.584622 323.812272 
L 387.016457 320.35511 
L 387.448293 335.896224 
L 387.880128 333.456501 
L 388.311964 339.089224 
L 388.743799 323.275324 
L 389.175635 327.084105 
L 389.60747 329.699347 
L 390.039306 334.087911 
L 390.471141 343.357167 
L 390.902977 350.11747 
L 392.198483 331.251868 
L 392.630319 331.251868 
L 393.062154 323.934535 
L 393.49399 323.934535 
L 393.925826 318.084136 
L 394.357661 323.154043 
L 394.789497 324.355568 
L 395.221332 330.427972 
L 396.085003 330.427972 
L 396.516839 337.902284 
L 396.948674 330.668232 
L 397.38051 332.701864 
L 397.812345 328.159278 
L 398.244181 329.360803 
L 398.676016 329.360803 
L 399.107852 323.896863 
L 399.539687 320.20704 
L 399.971523 319.62543 
L 400.403358 320.347167 
L 400.835194 317.731925 
L 401.267029 327.10747 
L 401.698865 324.8568 
L 402.1307 326.308822 
L 402.562536 323.333975 
L 402.994371 312.873007 
L 403.426207 317.415593 
L 403.858043 310.705264 
L 404.289878 315.935748 
L 404.721714 300.934554 
L 405.153549 304.199389 
L 405.585385 294.421607 
L 406.01722 304.135258 
L 406.880891 294.651597 
L 407.312727 298.553154 
L 407.744562 297.070205 
L 408.176398 296.457022 
L 408.608233 313.445255 
L 409.040069 316.760023 
L 409.471904 323.392415 
L 409.90374 325.610132 
L 410.335575 330.443091 
L 410.767411 332.660808 
L 411.199246 334.190627 
L 411.631082 336.805869 
L 412.062917 340.506535 
L 412.494753 336.689768 
L 412.926588 330.617364 
L 413.358424 331.305262 
L 413.79026 331.305262 
L 414.222095 329.851669 
L 415.085766 347.268652 
L 415.517602 344.537308 
L 415.949437 351.646135 
L 416.381273 366.508011 
L 416.813108 367.121194 
L 417.676779 379.365297 
L 418.108615 385.681205 
L 418.54045 374.775842 
L 418.972286 375.496693 
L 419.404121 368.73639 
L 419.835957 371.023338 
L 420.267792 382.383831 
L 420.699628 376.311427 
L 421.131463 368.261705 
L 421.563299 366.488383 
L 421.995134 370.093525 
L 422.42697 361.775558 
L 422.858806 368.032047 
L 423.290641 370.504895 
L 423.722477 374.068346 
L 424.154312 379.12331 
L 425.017983 365.662123 
L 425.449819 363.660065 
L 425.881654 352.550706 
L 426.31349 345.630797 
L 426.745325 343.143465 
L 427.177161 342.011172 
L 427.608996 338.447721 
L 428.040832 335.90171 
L 428.472667 338.516952 
L 428.904503 338.516952 
L 429.336338 344.274758 
L 429.768174 342.861041 
L 430.631845 358.952284 
L 431.06368 361.567526 
L 431.495516 365.712587 
L 431.927351 351.752766 
L 432.359187 351.752766 
L 432.791023 356.158136 
L 434.518365 342.198246 
L 434.9502 327.514421 
L 435.382036 323.813756 
L 435.813871 327.958816 
L 436.245707 329.488635 
L 437.109378 341.537026 
L 437.541213 330.864432 
L 437.973049 335.009493 
L 438.404884 342.611715 
L 438.83672 338.466654 
L 439.268555 339.736163 
L 439.700391 344.613774 
L 440.132226 347.425912 
L 440.564062 347.307997 
L 440.995897 347.889607 
L 441.427733 342.834642 
L 441.859568 343.056647 
L 442.291404 346.873414 
L 442.72324 346.873414 
L 443.586911 363.311262 
L 444.018746 366.508115 
L 444.450582 361.605924 
L 444.882417 364.037081 
L 445.314253 364.365375 
L 445.746088 368.90796 
L 446.177924 376.510183 
L 446.609759 366.607317 
L 447.041595 366.607317 
L 447.47343 364.873503 
L 447.905266 355.696583 
L 448.768937 355.696583 
L 449.200772 361.508677 
L 449.632608 355.436273 
L 450.064443 352.560721 
L 450.496279 353.248619 
L 450.928114 351.56478 
L 451.35995 352.512988 
L 451.791785 350.739666 
L 452.223621 350.739666 
L 452.655457 346.594605 
L 453.519128 346.594605 
L 453.950963 340.464597 
L 454.382799 337.161457 
L 454.814634 342.844547 
L 455.24647 342.529948 
L 455.678305 338.987996 
L 456.110141 346.436198 
L 456.541976 341.021628 
L 456.973812 340.07342 
L 457.405647 333.762428 
L 457.837483 331.651 
L 458.269318 333.986633 
L 458.701154 332.563103 
L 459.132989 328.708416 
L 459.564825 327.178597 
L 459.99666 327.178597 
L 460.428496 321.408194 
L 460.860331 322.250114 
L 461.292167 319.053262 
L 461.724003 316.797625 
L 462.155838 325.471772 
L 462.587674 325.869297 
L 463.019509 324.783873 
L 463.451345 318.17155 
L 463.88318 321.957006 
L 464.315016 321.957006 
L 464.746851 322.161001 
L 465.178687 322.161001 
L 465.610522 317.590048 
L 466.042358 314.492491 
L 466.474193 306.553599 
L 466.906029 316.808984 
L 467.7697 324.013681 
L 468.201535 316.983764 
L 468.633371 314.095657 
L 469.497042 314.095657 
L 469.928877 323.177053 
L 470.360713 323.177053 
L 470.792548 316.300649 
L 471.65622 318.572655 
L 472.519891 316.134003 
L 472.951726 326.023174 
L 473.383562 328.324387 
L 474.247233 309.128041 
L 474.679068 303.897557 
L 475.110904 292.696648 
L 475.542739 294.128461 
L 475.974575 287.192638 
L 476.40641 289.119982 
L 476.838246 283.685502 
L 477.270081 285.441316 
L 477.701917 283.609497 
L 478.133752 278.622516 
L 478.565588 278.622516 
L 478.997423 284.69492 
L 479.429259 275.175749 
L 479.861094 279.166789 
L 480.724765 264.940102 
L 481.156601 271.899432 
L 481.588437 271.899432 
L 482.020272 274.624044 
L 482.452108 267.635005 
L 482.883943 264.221334 
L 483.315779 267.318891 
L 483.747614 267.572633 
L 485.043121 255.629015 
L 485.906792 236.230898 
L 486.338627 238.84614 
L 486.770463 239.174433 
L 487.202298 234.238098 
L 487.634134 234.765419 
L 488.065969 235.812923 
L 488.497805 238.955486 
L 488.92964 234.100905 
L 489.361476 231.56859 
L 489.793311 233.098408 
L 490.225147 221.260395 
L 490.656982 216.497961 
L 491.088818 232.12143 
L 492.384325 249.929483 
L 492.81616 245.833743 
L 493.247996 253.562801 
L 493.679831 252.670907 
L 494.111667 254.085686 
L 494.543502 247.933185 
L 494.975338 255.323782 
L 495.407173 247.931895 
L 496.270844 247.931895 
L 496.70268 250.846657 
L 497.134515 236.685023 
L 497.566351 231.300518 
L 497.998186 237.777003 
L 498.430022 227.476612 
L 498.861857 227.476612 
L 499.293693 228.323504 
L 499.725528 235.312543 
L 500.157364 234.737433 
L 500.589199 234.737433 
L 501.021035 238.362311 
L 501.452871 238.06031 
L 501.884706 238.161121 
L 502.316542 229.871 
L 502.748377 243.443647 
L 503.180213 249.351707 
L 503.612048 246.736465 
L 504.043884 248.551174 
L 504.475719 248.018884 
L 504.907555 243.238695 
L 505.33939 241.155089 
L 505.771226 240.816983 
L 506.203061 246.723148 
L 506.634897 242.146418 
L 507.066732 242.146418 
L 507.498568 255.683321 
L 507.930403 255.143402 
L 508.362239 254.279984 
L 508.794074 253.099036 
L 509.22591 254.507135 
L 509.657745 268.727266 
L 510.089581 273.598145 
L 510.953252 294.713342 
L 511.816923 304.659548 
L 512.248759 297.268951 
L 512.680594 314.741087 
L 513.11243 314.741087 
L 513.544265 317.001558 
L 513.976101 316.906034 
L 514.839772 336.536963 
L 515.271607 336.536963 
L 515.703443 340.237629 
L 516.135278 340.237629 
L 516.567114 336.666125 
L 516.998949 323.14552 
L 517.430785 327.16267 
L 517.86262 329.090013 
L 518.294456 339.630977 
L 518.726291 335.485917 
L 519.158127 342.121921 
L 519.589962 353.471679 
L 520.021798 353.471679 
L 520.453634 356.149286 
L 520.885469 356.149286 
L 521.317305 355.536103 
L 521.74914 358.179821 
L 522.612811 373.785551 
L 523.044647 376.738899 
L 523.476482 374.417806 
L 523.908318 381.969383 
L 524.340153 386.956364 
L 524.771989 376.538516 
L 525.203824 377.078435 
L 526.067495 382.908257 
L 526.499331 377.570756 
L 526.931166 369.327505 
L 527.363002 364.78492 
L 528.226673 352.456027 
L 528.658508 339.04171 
L 529.090344 334.89665 
L 529.522179 334.89665 
L 529.954015 329.80338 
L 530.385851 329.9789 
L 531.249522 305.541751 
L 531.681357 296.797368 
L 532.113193 295.267549 
L 532.545028 299.41261 
L 532.976864 299.41261 
L 533.408699 304.87183 
L 533.840535 306.514284 
L 534.27237 317.419647 
L 534.704206 320.034889 
L 535.136041 316.937332 
L 535.567877 312.081981 
L 535.999712 312.081981 
L 536.863383 300.299491 
L 537.727054 320.325232 
L 538.15889 316.180172 
L 538.590725 324.025898 
L 539.022561 328.532378 
L 539.454396 320.686651 
L 539.886232 320.946961 
L 540.318068 314.186659 
L 540.749903 317.383511 
L 541.181739 310.263603 
L 541.613574 298.676897 
L 542.04541 301.736535 
L 542.477245 286.945173 
L 543.340916 281.471186 
L 543.772752 273.181064 
L 544.204587 274.266488 
L 544.636423 270.381737 
L 545.068258 270.381737 
L 545.500094 264.287835 
L 545.931929 277.702151 
L 546.363765 286.389797 
L 546.7956 286.389797 
L 547.227436 282.244737 
L 547.659271 283.64533 
L 548.091107 300.760312 
L 548.954778 323.857147 
L 549.386614 321.241905 
L 549.818449 316.01142 
L 550.250285 316.01142 
L 550.68212 307.936958 
L 551.113956 306.982403 
L 551.545791 309.597645 
L 551.977627 321.837977 
L 552.409462 326.225716 
L 552.841298 324.600374 
L 553.273133 325.896737 
L 553.704969 320.814232 
L 554.56864 295.154648 
L 555.000475 285.336927 
L 555.432311 302.21917 
L 555.864146 292.262015 
L 556.295982 273.943694 
L 556.727817 278.088755 
L 557.159653 276.558936 
L 557.591488 279.464552 
L 558.023324 272.027115 
L 558.455159 270.459377 
L 558.886995 277.059102 
L 559.318831 260.081335 
L 559.750666 261.885969 
L 560.182502 261.885969 
L 561.046173 250.044612 
L 561.478008 244.49953 
L 562.341679 221.235919 
L 562.773515 217.844213 
L 563.20535 217.844213 
L 563.637186 202.686639 
L 564.069021 193.385809 
L 564.500857 197.53087 
L 564.932692 184.254343 
L 566.660034 154.741605 
L 567.09187 153.571392 
L 568.387376 132.643414 
L 568.819212 132.643414 
L 569.251048 115.044688 
L 569.682883 106.027623 
L 570.114719 93.882815 
L 570.546554 93.274351 
L 570.97839 97.561806 
L 571.410225 109.854593 
L 571.842061 104.643022 
L 572.273896 95.083392 
L 572.705732 75.188382 
L 573.137567 67.770244 
L 573.569403 73.925575 
L 574.001238 69.567074 
L 574.433074 52.191782 
L 574.864909 51.503884 
L 575.296745 58.984196 
L 575.72858 69.852764 
L 576.160416 69.852764 
L 576.592251 73.997824 
L 577.024087 83.009731 
L 577.455922 80.792014 
L 577.887758 90.092843 
L 578.319593 103.150564 
L 578.751429 110.206067 
L 579.6151 136.529315 
L 580.046936 134.392307 
L 580.478771 127.922378 
L 580.910607 140.464711 
L 581.342442 145.524955 
L 581.774278 142.485334 
L 582.206113 147.819195 
L 582.637949 134.588963 
L 583.069784 137.162048 
L 583.50162 133.976212 
L 583.933455 147.894342 
L 584.365291 135.38993 
L 584.797126 134.219716 
L 585.228962 145.424599 
L 585.660797 139.865821 
L 586.092633 139.865821 
L 586.524468 146.11243 
L 586.956304 138.681737 
L 587.388139 150.826545 
L 587.819975 149.613211 
L 588.251811 137.75964 
L 588.683646 129.611913 
L 589.115482 129.378457 
L 589.547317 135.450861 
L 589.979153 139.47982 
L 590.410988 151.624628 
L 590.842824 150.803158 
L 591.274659 148.003831 
L 591.706495 165.379123 
L 592.13833 167.306466 
L 592.570166 161.667155 
L 593.002001 158.893173 
L 593.433837 161.943482 
L 593.865672 160.016139 
L 594.297508 163.14904 
L 594.729343 165.366757 
L 595.161179 165.490473 
L 595.593014 174.107126 
L 596.02485 172.596705 
L 596.456685 168.149644 
L 596.888521 170.504576 
L 597.320356 174.863077 
L 597.752192 165.487532 
L 598.615863 143.007344 
L 599.047699 135.733976 
L 599.479534 142.942449 
L 599.91137 155.33076 
L 600.343205 148.352305 
L 600.775041 153.659014 
L 601.206876 146.624902 
L 602.070547 166.882991 
L 602.502383 164.905673 
L 602.934218 166.31939 
L 603.366054 164.789572 
L 603.797889 164.743277 
L 604.229725 176.943982 
L 604.66156 176.943982 
L 605.093396 178.999236 
L 605.525231 192.993591 
L 606.820738 207.38868 
L 607.252573 198.013135 
L 607.684409 201.470297 
L 608.116245 207.83685 
L 608.54808 226.409091 
L 608.979916 227.938909 
L 609.411751 225.323667 
L 609.843587 217.262283 
L 610.275422 214.880496 
L 610.707258 219.904649 
L 611.139093 231.605062 
L 611.570929 228.40821 
L 612.002764 234.808908 
L 612.866435 239.65668 
L 613.298271 239.463151 
L 613.730106 245.535555 
L 614.161942 243.510206 
L 614.593777 247.655267 
L 615.025613 265.33256 
L 615.457448 267.520213 
L 616.321119 295.328281 
L 616.752955 294.486361 
L 617.18479 292.086778 
L 617.616626 306.149116 
L 618.048462 300.076712 
L 618.912133 318.399726 
L 619.343968 305.382934 
L 619.775804 306.468358 
L 620.207639 315.997924 
L 620.639475 308.579786 
L 621.07131 310.934718 
L 621.503146 309.876324 
L 621.934981 311.909956 
L 622.366817 314.868434 
L 622.798652 308.9054 
L 623.230488 320.208288 
L 623.662323 319.704475 
L 624.094159 323.161637 
L 624.525994 335.66605 
L 624.95783 321.409813 
L 625.389665 319.038075 
L 625.821501 301.023936 
L 626.253336 299.494118 
L 626.685172 302.10936 
L 627.117008 313.655751 
L 627.548843 299.931151 
L 627.980679 293.562026 
L 628.84435 300.903939 
L 629.276185 294.259738 
L 629.708021 293.441685 
L 630.139856 288.035681 
L 630.571692 275.623276 
L 631.003527 273.997933 
L 631.867198 260.00007 
L 632.299034 258.168251 
L 632.730869 264.484158 
L 633.162705 264.484158 
L 633.59454 255.676724 
L 634.026376 253.903402 
L 634.458211 246.345831 
L 634.890047 232.359717 
L 635.321882 229.839999 
L 635.753718 224.467121 
L 636.185553 206.70829 
L 636.617389 214.445277 
L 637.48106 214.445277 
L 637.912896 224.150363 
L 638.344731 220.8256 
L 638.776567 218.4333 
L 639.208402 196.409134 
L 639.640238 181.305848 
L 640.072073 180.692665 
L 640.503909 170.73551 
L 640.935744 178.657461 
L 641.36758 178.657461 
L 641.799415 185.233679 
L 642.231251 189.960349 
L 643.094922 215.0947 
L 643.526757 209.022296 
L 643.958593 212.049547 
L 644.390428 199.619544 
L 644.822264 213.344145 
L 645.254099 209.267068 
L 645.685935 195.852751 
L 646.11777 195.852751 
L 646.549606 199.271485 
L 646.981442 193.857228 
L 647.413277 190.90388 
L 647.845113 203.509814 
L 648.276948 200.450177 
L 648.708784 208.458367 
L 649.140619 208.345731 
L 649.572455 195.773335 
L 650.00429 189.457427 
L 650.436126 192.572962 
L 650.867961 203.516245 
L 651.299797 206.651669 
L 652.163468 217.056862 
L 652.595303 225.809561 
L 653.027139 228.424803 
L 653.458974 240.088288 
L 653.89081 239.759994 
L 654.322645 242.199716 
L 654.754481 242.199716 
L 655.186316 237.297526 
L 655.618152 235.207719 
L 656.049987 237.544938 
L 656.481823 259.424895 
L 656.913659 274.123594 
L 657.77733 290.841051 
L 658.209165 286.249781 
L 658.641001 278.841088 
L 659.072836 257.504821 
L 659.504672 263.13283 
L 660.368343 252.200427 
L 660.800178 255.951737 
L 661.232014 256.218088 
L 661.663849 268.854881 
L 662.095685 264.90335 
L 662.52752 269.890331 
L 662.959356 272.399284 
L 663.391191 276.340349 
L 663.823027 274.007039 
L 664.254862 277.154099 
L 664.686698 282.403033 
L 665.118533 283.932851 
L 665.550369 283.234742 
L 665.982205 281.986855 
L 666.41404 288.747157 
L 667.277711 309.190279 
L 667.709547 310.61733 
L 668.141382 299.674047 
L 668.573218 298.311945 
L 669.005053 302.845086 
L 669.436889 304.432251 
L 670.30056 299.416378 
L 670.732395 294.115672 
L 671.164231 303.491216 
L 671.596066 299.673921 
L 672.027902 299.673921 
L 672.459737 303.818981 
L 672.891573 311.569184 
L 673.755244 307.677701 
L 674.187079 308.320662 
L 674.618915 308.030289 
L 675.05075 309.820417 
L 675.482586 292.694438 
L 675.914422 297.927105 
L 676.346257 315.25721 
L 676.778093 316.219265 
L 677.209928 310.988781 
L 677.641764 309.458962 
L 678.073599 307.014151 
L 678.93727 304.082813 
L 679.369106 306.825205 
L 679.800941 304.209963 
L 680.232777 305.273386 
L 680.664612 303.553813 
L 681.096448 302.711893 
L 681.528283 316.64994 
L 681.960119 325.967527 
L 682.391954 318.63817 
L 682.82379 323.48134 
L 683.255625 325.725168 
L 683.687461 330.955652 
L 684.119296 330.883783 
L 684.551132 327.871016 
L 684.982967 333.669611 
L 685.414803 328.767421 
L 685.846639 328.767421 
L 686.278474 321.495322 
L 686.71031 324.186789 
L 687.142145 324.848023 
L 687.573981 327.114741 
L 688.005816 331.111822 
L 688.437652 339.035344 
L 688.869487 336.622628 
L 689.301323 340.323293 
L 689.733158 342.541011 
L 690.164994 342.393031 
L 690.596829 346.538092 
L 691.028665 344.138508 
L 691.4605 349.047692 
L 691.892336 341.283834 
L 692.324171 336.069495 
L 692.756007 350.368607 
L 693.187842 352.544634 
L 693.619678 354.119638 
L 694.051513 358.328649 
L 694.915184 363.88843 
L 695.34702 370.581678 
L 695.778856 368.9272 
L 696.210691 368.9272 
L 696.642527 370.136339 
L 697.074362 372.751581 
L 697.506198 378.448461 
L 697.938033 380.67403 
L 698.369869 380.67403 
L 699.23354 354.376162 
L 700.097211 363.29736 
L 700.529046 354.737625 
L 700.960882 357.956868 
L 701.392717 354.700598 
L 701.824553 347.638294 
L 702.256388 328.137228 
L 702.688224 330.718325 
L 703.120059 325.259104 
L 703.98373 342.360587 
L 704.847402 339.057447 
L 705.279237 342.672033 
L 705.711073 338.677912 
L 706.142908 347.586051 
L 706.574744 344.727305 
L 707.438415 334.907365 
L 707.87025 334.907365 
L 708.302086 336.679419 
L 708.733921 328.573383 
L 709.165757 331.397131 
L 709.597592 337.436583 
L 710.029428 325.21706 
L 710.461263 325.859772 
L 710.893099 321.714712 
L 711.324934 306.954662 
L 711.75677 304.6314 
L 712.188605 301.421736 
L 712.620441 289.128948 
L 713.052276 289.128948 
L 713.484112 284.710079 
L 713.915947 285.551999 
L 714.347783 275.619424 
L 714.779619 276.888933 
L 715.211454 276.586932 
L 715.64329 272.441871 
L 716.075125 272.055973 
L 716.506961 272.023307 
L 716.938796 272.377626 
L 717.370632 264.087505 
L 717.802467 270.403413 
L 718.234303 259.666736 
L 718.666138 271.915291 
L 719.097974 278.977595 
L 719.529809 281.705472 
L 719.961645 294.049251 
L 720.39348 299.508472 
L 720.825316 300.012285 
L 721.257151 295.867225 
L 721.688987 299.56789 
L 722.120822 304.98246 
L 722.552658 300.827955 
L 722.984493 300.095405 
L 723.416329 301.737858 
L 723.848164 285.987909 
L 724.28 290.784237 
L 724.28 290.784237 
" style="fill:none;stroke:#ff7f0e;stroke-linecap:square;stroke-width:1.5;"/>
   </g>
   <g id="patch_3">
    <path d="M 33.775 404.12 
L 33.775 26.52 
" style="fill:none;stroke:#000000;stroke-linecap:square;stroke-linejoin:miter;stroke-width:0.8;"/>
   </g>
   <g id="patch_4">
    <path d="M 724.28 404.12 
L 724.28 26.52 
" style="fill:none;stroke:#000000;stroke-linecap:square;stroke-linejoin:miter;stroke-width:0.8;"/>
   </g>
   <g id="patch_5">
    <path d="M 33.775 404.12 
L 724.28 404.12 
" style="fill:none;stroke:#000000;stroke-linecap:square;stroke-linejoin:miter;stroke-width:0.8;"/>
   </g>
   <g id="patch_6">
    <path d="M 33.775 26.52 
L 724.28 26.52 
" style="fill:none;stroke:#000000;stroke-linecap:square;stroke-linejoin:miter;stroke-width:0.8;"/>
   </g>
   <g id="text_14">
    <!-- gridworld_5x5_100_2_8_42__2: episode duration in steps log-relative to `htm_2_1g`, MA=40 -->
    <defs>
     <path d="M 45.40625 27.984375 
Q 45.40625 37.75 41.375 43.109375 
Q 37.359375 48.484375 30.078125 48.484375 
Q 22.859375 48.484375 18.828125 43.109375 
Q 14.796875 37.75 14.796875 27.984375 
Q 14.796875 18.265625 18.828125 12.890625 
Q 22.859375 7.515625 30.078125 7.515625 
Q 37.359375 7.515625 41.375 12.890625 
Q 45.40625 18.265625 45.40625 27.984375 
z
M 54.390625 6.78125 
Q 54.390625 -7.171875 48.1875 -13.984375 
Q 42 -20.796875 29.203125 -20.796875 
Q 24.46875 -20.796875 20.265625 -20.09375 
Q 16.0625 -19.390625 12.109375 -17.921875 
L 12.109375 -9.1875 
Q 16.0625 -11.328125 19.921875 -12.34375 
Q 23.78125 -13.375 27.78125 -13.375 
Q 36.625 -13.375 41.015625 -8.765625 
Q 45.40625 -4.15625 45.40625 5.171875 
L 45.40625 9.625 
Q 42.625 4.78125 38.28125 2.390625 
Q 33.9375 0 27.875 0 
Q 17.828125 0 11.671875 7.65625 
Q 5.515625 15.328125 5.515625 27.984375 
Q 5.515625 40.671875 11.671875 48.328125 
Q 17.828125 56 27.875 56 
Q 33.9375 56 38.28125 53.609375 
Q 42.625 51.21875 45.40625 46.390625 
L 45.40625 54.6875 
L 54.390625 54.6875 
z
" id="DejaVuSans-103"/>
     <path d="M 41.109375 46.296875 
Q 39.59375 47.171875 37.8125 47.578125 
Q 36.03125 48 33.890625 48 
Q 26.265625 48 22.1875 43.046875 
Q 18.109375 38.09375 18.109375 28.8125 
L 18.109375 0 
L 9.078125 0 
L 9.078125 54.6875 
L 18.109375 54.6875 
L 18.109375 46.1875 
Q 20.953125 51.171875 25.484375 53.578125 
Q 30.03125 56 36.53125 56 
Q 37.453125 56 38.578125 55.875 
Q 39.703125 55.765625 41.0625 55.515625 
z
" id="DejaVuSans-114"/>
     <path d="M 9.421875 54.6875 
L 18.40625 54.6875 
L 18.40625 0 
L 9.421875 0 
z
M 9.421875 75.984375 
L 18.40625 75.984375 
L 18.40625 64.59375 
L 9.421875 64.59375 
z
" id="DejaVuSans-105"/>
     <path d="M 45.40625 46.390625 
L 45.40625 75.984375 
L 54.390625 75.984375 
L 54.390625 0 
L 45.40625 0 
L 45.40625 8.203125 
Q 42.578125 3.328125 38.25 0.953125 
Q 33.9375 -1.421875 27.875 -1.421875 
Q 17.96875 -1.421875 11.734375 6.484375 
Q 5.515625 14.40625 5.515625 27.296875 
Q 5.515625 40.1875 11.734375 48.09375 
Q 17.96875 56 27.875 56 
Q 33.9375 56 38.25 53.625 
Q 42.578125 51.265625 45.40625 46.390625 
z
M 14.796875 27.296875 
Q 14.796875 17.390625 18.875 11.75 
Q 22.953125 6.109375 30.078125 6.109375 
Q 37.203125 6.109375 41.296875 11.75 
Q 45.40625 17.390625 45.40625 27.296875 
Q 45.40625 37.203125 41.296875 42.84375 
Q 37.203125 48.484375 30.078125 48.484375 
Q 22.953125 48.484375 18.875 42.84375 
Q 14.796875 37.203125 14.796875 27.296875 
z
" id="DejaVuSans-100"/>
     <path d="M 4.203125 54.6875 
L 13.1875 54.6875 
L 24.421875 12.015625 
L 35.59375 54.6875 
L 46.1875 54.6875 
L 57.421875 12.015625 
L 68.609375 54.6875 
L 77.59375 54.6875 
L 63.28125 0 
L 52.6875 0 
L 40.921875 44.828125 
L 29.109375 0 
L 18.5 0 
z
" id="DejaVuSans-119"/>
     <path d="M 30.609375 48.390625 
Q 23.390625 48.390625 19.1875 42.75 
Q 14.984375 37.109375 14.984375 27.296875 
Q 14.984375 17.484375 19.15625 11.84375 
Q 23.34375 6.203125 30.609375 6.203125 
Q 37.796875 6.203125 41.984375 11.859375 
Q 46.1875 17.53125 46.1875 27.296875 
Q 46.1875 37.015625 41.984375 42.703125 
Q 37.796875 48.390625 30.609375 48.390625 
z
M 30.609375 56 
Q 42.328125 56 49.015625 48.375 
Q 55.71875 40.765625 55.71875 27.296875 
Q 55.71875 13.875 49.015625 6.21875 
Q 42.328125 -1.421875 30.609375 -1.421875 
Q 18.84375 -1.421875 12.171875 6.21875 
Q 5.515625 13.875 5.515625 27.296875 
Q 5.515625 40.765625 12.171875 48.375 
Q 18.84375 56 30.609375 56 
z
" id="DejaVuSans-111"/>
     <path d="M 9.421875 75.984375 
L 18.40625 75.984375 
L 18.40625 0 
L 9.421875 0 
z
" id="DejaVuSans-108"/>
     <path d="M 50.984375 -16.609375 
L 50.984375 -23.578125 
L -0.984375 -23.578125 
L -0.984375 -16.609375 
z
" id="DejaVuSans-95"/>
     <path d="M 54.890625 54.6875 
L 35.109375 28.078125 
L 55.90625 0 
L 45.3125 0 
L 29.390625 21.484375 
L 13.484375 0 
L 2.875 0 
L 24.125 28.609375 
L 4.6875 54.6875 
L 15.28125 54.6875 
L 29.78125 35.203125 
L 44.28125 54.6875 
z
" id="DejaVuSans-120"/>
     <path d="M 11.71875 12.40625 
L 22.015625 12.40625 
L 22.015625 0 
L 11.71875 0 
z
M 11.71875 51.703125 
L 22.015625 51.703125 
L 22.015625 39.3125 
L 11.71875 39.3125 
z
" id="DejaVuSans-58"/>
     <path id="DejaVuSans-32"/>
     <path d="M 56.203125 29.59375 
L 56.203125 25.203125 
L 14.890625 25.203125 
Q 15.484375 15.921875 20.484375 11.0625 
Q 25.484375 6.203125 34.421875 6.203125 
Q 39.59375 6.203125 44.453125 7.46875 
Q 49.3125 8.734375 54.109375 11.28125 
L 54.109375 2.78125 
Q 49.265625 0.734375 44.1875 -0.34375 
Q 39.109375 -1.421875 33.890625 -1.421875 
Q 20.796875 -1.421875 13.15625 6.1875 
Q 5.515625 13.8125 5.515625 26.8125 
Q 5.515625 40.234375 12.765625 48.109375 
Q 20.015625 56 32.328125 56 
Q 43.359375 56 49.78125 48.890625 
Q 56.203125 41.796875 56.203125 29.59375 
z
M 47.21875 32.234375 
Q 47.125 39.59375 43.09375 43.984375 
Q 39.0625 48.390625 32.421875 48.390625 
Q 24.90625 48.390625 20.390625 44.140625 
Q 15.875 39.890625 15.1875 32.171875 
z
" id="DejaVuSans-101"/>
     <path d="M 18.109375 8.203125 
L 18.109375 -20.796875 
L 9.078125 -20.796875 
L 9.078125 54.6875 
L 18.109375 54.6875 
L 18.109375 46.390625 
Q 20.953125 51.265625 25.265625 53.625 
Q 29.59375 56 35.59375 56 
Q 45.5625 56 51.78125 48.09375 
Q 58.015625 40.1875 58.015625 27.296875 
Q 58.015625 14.40625 51.78125 6.484375 
Q 45.5625 -1.421875 35.59375 -1.421875 
Q 29.59375 -1.421875 25.265625 0.953125 
Q 20.953125 3.328125 18.109375 8.203125 
z
M 48.6875 27.296875 
Q 48.6875 37.203125 44.609375 42.84375 
Q 40.53125 48.484375 33.40625 48.484375 
Q 26.265625 48.484375 22.1875 42.84375 
Q 18.109375 37.203125 18.109375 27.296875 
Q 18.109375 17.390625 22.1875 11.75 
Q 26.265625 6.109375 33.40625 6.109375 
Q 40.53125 6.109375 44.609375 11.75 
Q 48.6875 17.390625 48.6875 27.296875 
z
" id="DejaVuSans-112"/>
     <path d="M 44.28125 53.078125 
L 44.28125 44.578125 
Q 40.484375 46.53125 36.375 47.5 
Q 32.28125 48.484375 27.875 48.484375 
Q 21.1875 48.484375 17.84375 46.4375 
Q 14.5 44.390625 14.5 40.28125 
Q 14.5 37.15625 16.890625 35.375 
Q 19.28125 33.59375 26.515625 31.984375 
L 29.59375 31.296875 
Q 39.15625 29.25 43.1875 25.515625 
Q 47.21875 21.78125 47.21875 15.09375 
Q 47.21875 7.46875 41.1875 3.015625 
Q 35.15625 -1.421875 24.609375 -1.421875 
Q 20.21875 -1.421875 15.453125 -0.5625 
Q 10.6875 0.296875 5.421875 2 
L 5.421875 11.28125 
Q 10.40625 8.6875 15.234375 7.390625 
Q 20.0625 6.109375 24.8125 6.109375 
Q 31.15625 6.109375 34.5625 8.28125 
Q 37.984375 10.453125 37.984375 14.40625 
Q 37.984375 18.0625 35.515625 20.015625 
Q 33.0625 21.96875 24.703125 23.78125 
L 21.578125 24.515625 
Q 13.234375 26.265625 9.515625 29.90625 
Q 5.8125 33.546875 5.8125 39.890625 
Q 5.8125 47.609375 11.28125 51.796875 
Q 16.75 56 26.8125 56 
Q 31.78125 56 36.171875 55.265625 
Q 40.578125 54.546875 44.28125 53.078125 
z
" id="DejaVuSans-115"/>
     <path d="M 8.5 21.578125 
L 8.5 54.6875 
L 17.484375 54.6875 
L 17.484375 21.921875 
Q 17.484375 14.15625 20.5 10.265625 
Q 23.53125 6.390625 29.59375 6.390625 
Q 36.859375 6.390625 41.078125 11.03125 
Q 45.3125 15.671875 45.3125 23.6875 
L 45.3125 54.6875 
L 54.296875 54.6875 
L 54.296875 0 
L 45.3125 0 
L 45.3125 8.40625 
Q 42.046875 3.421875 37.71875 1 
Q 33.40625 -1.421875 27.6875 -1.421875 
Q 18.265625 -1.421875 13.375 4.4375 
Q 8.5 10.296875 8.5 21.578125 
z
M 31.109375 56 
z
" id="DejaVuSans-117"/>
     <path d="M 34.28125 27.484375 
Q 23.390625 27.484375 19.1875 25 
Q 14.984375 22.515625 14.984375 16.5 
Q 14.984375 11.71875 18.140625 8.90625 
Q 21.296875 6.109375 26.703125 6.109375 
Q 34.1875 6.109375 38.703125 11.40625 
Q 43.21875 16.703125 43.21875 25.484375 
L 43.21875 27.484375 
z
M 52.203125 31.203125 
L 52.203125 0 
L 43.21875 0 
L 43.21875 8.296875 
Q 40.140625 3.328125 35.546875 0.953125 
Q 30.953125 -1.421875 24.3125 -1.421875 
Q 15.921875 -1.421875 10.953125 3.296875 
Q 6 8.015625 6 15.921875 
Q 6 25.140625 12.171875 29.828125 
Q 18.359375 34.515625 30.609375 34.515625 
L 43.21875 34.515625 
L 43.21875 35.40625 
Q 43.21875 41.609375 39.140625 45 
Q 35.0625 48.390625 27.6875 48.390625 
Q 23 48.390625 18.546875 47.265625 
Q 14.109375 46.140625 10.015625 43.890625 
L 10.015625 52.203125 
Q 14.9375 54.109375 19.578125 55.046875 
Q 24.21875 56 28.609375 56 
Q 40.484375 56 46.34375 49.84375 
Q 52.203125 43.703125 52.203125 31.203125 
z
" id="DejaVuSans-97"/>
     <path d="M 18.3125 70.21875 
L 18.3125 54.6875 
L 36.8125 54.6875 
L 36.8125 47.703125 
L 18.3125 47.703125 
L 18.3125 18.015625 
Q 18.3125 11.328125 20.140625 9.421875 
Q 21.96875 7.515625 27.59375 7.515625 
L 36.8125 7.515625 
L 36.8125 0 
L 27.59375 0 
Q 17.1875 0 13.234375 3.875 
Q 9.28125 7.765625 9.28125 18.015625 
L 9.28125 47.703125 
L 2.6875 47.703125 
L 2.6875 54.6875 
L 9.28125 54.6875 
L 9.28125 70.21875 
z
" id="DejaVuSans-116"/>
     <path d="M 54.890625 33.015625 
L 54.890625 0 
L 45.90625 0 
L 45.90625 32.71875 
Q 45.90625 40.484375 42.875 44.328125 
Q 39.84375 48.1875 33.796875 48.1875 
Q 26.515625 48.1875 22.3125 43.546875 
Q 18.109375 38.921875 18.109375 30.90625 
L 18.109375 0 
L 9.078125 0 
L 9.078125 54.6875 
L 18.109375 54.6875 
L 18.109375 46.1875 
Q 21.34375 51.125 25.703125 53.5625 
Q 30.078125 56 35.796875 56 
Q 45.21875 56 50.046875 50.171875 
Q 54.890625 44.34375 54.890625 33.015625 
z
" id="DejaVuSans-110"/>
     <path d="M 4.890625 31.390625 
L 31.203125 31.390625 
L 31.203125 23.390625 
L 4.890625 23.390625 
z
" id="DejaVuSans-45"/>
     <path d="M 2.984375 54.6875 
L 12.5 54.6875 
L 29.59375 8.796875 
L 46.6875 54.6875 
L 56.203125 54.6875 
L 35.6875 0 
L 23.484375 0 
z
" id="DejaVuSans-118"/>
     <path d="M 17.921875 79.984375 
L 31.6875 61.71875 
L 24.21875 61.71875 
L 8.296875 79.984375 
z
" id="DejaVuSans-96"/>
     <path d="M 54.890625 33.015625 
L 54.890625 0 
L 45.90625 0 
L 45.90625 32.71875 
Q 45.90625 40.484375 42.875 44.328125 
Q 39.84375 48.1875 33.796875 48.1875 
Q 26.515625 48.1875 22.3125 43.546875 
Q 18.109375 38.921875 18.109375 30.90625 
L 18.109375 0 
L 9.078125 0 
L 9.078125 75.984375 
L 18.109375 75.984375 
L 18.109375 46.1875 
Q 21.34375 51.125 25.703125 53.5625 
Q 30.078125 56 35.796875 56 
Q 45.21875 56 50.046875 50.171875 
Q 54.890625 44.34375 54.890625 33.015625 
z
" id="DejaVuSans-104"/>
     <path d="M 52 44.1875 
Q 55.375 50.25 60.0625 53.125 
Q 64.75 56 71.09375 56 
Q 79.640625 56 84.28125 50.015625 
Q 88.921875 44.046875 88.921875 33.015625 
L 88.921875 0 
L 79.890625 0 
L 79.890625 32.71875 
Q 79.890625 40.578125 77.09375 44.375 
Q 74.3125 48.1875 68.609375 48.1875 
Q 61.625 48.1875 57.5625 43.546875 
Q 53.515625 38.921875 53.515625 30.90625 
L 53.515625 0 
L 44.484375 0 
L 44.484375 32.71875 
Q 44.484375 40.625 41.703125 44.40625 
Q 38.921875 48.1875 33.109375 48.1875 
Q 26.21875 48.1875 22.15625 43.53125 
Q 18.109375 38.875 18.109375 30.90625 
L 18.109375 0 
L 9.078125 0 
L 9.078125 54.6875 
L 18.109375 54.6875 
L 18.109375 46.1875 
Q 21.1875 51.21875 25.484375 53.609375 
Q 29.78125 56 35.6875 56 
Q 41.65625 56 45.828125 52.96875 
Q 50 49.953125 52 44.1875 
z
" id="DejaVuSans-109"/>
     <path d="M 11.71875 12.40625 
L 22.015625 12.40625 
L 22.015625 4 
L 14.015625 -11.625 
L 7.71875 -11.625 
L 11.71875 4 
z
" id="DejaVuSans-44"/>
     <path d="M 9.8125 72.90625 
L 24.515625 72.90625 
L 43.109375 23.296875 
L 61.8125 72.90625 
L 76.515625 72.90625 
L 76.515625 0 
L 66.890625 0 
L 66.890625 64.015625 
L 48.09375 14.015625 
L 38.1875 14.015625 
L 19.390625 64.015625 
L 19.390625 0 
L 9.8125 0 
z
" id="DejaVuSans-77"/>
     <path d="M 34.1875 63.1875 
L 20.796875 26.90625 
L 47.609375 26.90625 
z
M 28.609375 72.90625 
L 39.796875 72.90625 
L 67.578125 0 
L 57.328125 0 
L 50.6875 18.703125 
L 17.828125 18.703125 
L 11.1875 0 
L 0.78125 0 
z
" id="DejaVuSans-65"/>
     <path d="M 10.59375 45.40625 
L 73.1875 45.40625 
L 73.1875 37.203125 
L 10.59375 37.203125 
z
M 10.59375 25.484375 
L 73.1875 25.484375 
L 73.1875 17.1875 
L 10.59375 17.1875 
z
" id="DejaVuSans-61"/>
    </defs>
    <g transform="translate(101.07375 20.52)scale(0.12 -0.12)">
     <use xlink:href="#DejaVuSans-103"/>
     <use x="63.476562" xlink:href="#DejaVuSans-114"/>
     <use x="104.589844" xlink:href="#DejaVuSans-105"/>
     <use x="132.373047" xlink:href="#DejaVuSans-100"/>
     <use x="195.849609" xlink:href="#DejaVuSans-119"/>
     <use x="277.636719" xlink:href="#DejaVuSans-111"/>
     <use x="338.818359" xlink:href="#DejaVuSans-114"/>
     <use x="379.931641" xlink:href="#DejaVuSans-108"/>
     <use x="407.714844" xlink:href="#DejaVuSans-100"/>
     <use x="471.191406" xlink:href="#DejaVuSans-95"/>
     <use x="521.191406" xlink:href="#DejaVuSans-53"/>
     <use x="584.814453" xlink:href="#DejaVuSans-120"/>
     <use x="643.994141" xlink:href="#DejaVuSans-53"/>
     <use x="707.617188" xlink:href="#DejaVuSans-95"/>
     <use x="757.617188" xlink:href="#DejaVuSans-49"/>
     <use x="821.240234" xlink:href="#DejaVuSans-48"/>
     <use x="884.863281" xlink:href="#DejaVuSans-48"/>
     <use x="948.486328" xlink:href="#DejaVuSans-95"/>
     <use x="998.486328" xlink:href="#DejaVuSans-50"/>
     <use x="1062.109375" xlink:href="#DejaVuSans-95"/>
     <use x="1112.109375" xlink:href="#DejaVuSans-56"/>
     <use x="1175.732422" xlink:href="#DejaVuSans-95"/>
     <use x="1225.732422" xlink:href="#DejaVuSans-52"/>
     <use x="1289.355469" xlink:href="#DejaVuSans-50"/>
     <use x="1352.978516" xlink:href="#DejaVuSans-95"/>
     <use x="1402.978516" xlink:href="#DejaVuSans-95"/>
     <use x="1452.978516" xlink:href="#DejaVuSans-50"/>
     <use x="1516.601562" xlink:href="#DejaVuSans-58"/>
     <use x="1550.292969" xlink:href="#DejaVuSans-32"/>
     <use x="1582.080078" xlink:href="#DejaVuSans-101"/>
     <use x="1643.603516" xlink:href="#DejaVuSans-112"/>
     <use x="1707.080078" xlink:href="#DejaVuSans-105"/>
     <use x="1734.863281" xlink:href="#DejaVuSans-115"/>
     <use x="1786.962891" xlink:href="#DejaVuSans-111"/>
     <use x="1848.144531" xlink:href="#DejaVuSans-100"/>
     <use x="1911.621094" xlink:href="#DejaVuSans-101"/>
     <use x="1973.144531" xlink:href="#DejaVuSans-32"/>
     <use x="2004.931641" xlink:href="#DejaVuSans-100"/>
     <use x="2068.408203" xlink:href="#DejaVuSans-117"/>
     <use x="2131.787109" xlink:href="#DejaVuSans-114"/>
     <use x="2172.900391" xlink:href="#DejaVuSans-97"/>
     <use x="2234.179688" xlink:href="#DejaVuSans-116"/>
     <use x="2273.388672" xlink:href="#DejaVuSans-105"/>
     <use x="2301.171875" xlink:href="#DejaVuSans-111"/>
     <use x="2362.353516" xlink:href="#DejaVuSans-110"/>
     <use x="2425.732422" xlink:href="#DejaVuSans-32"/>
     <use x="2457.519531" xlink:href="#DejaVuSans-105"/>
     <use x="2485.302734" xlink:href="#DejaVuSans-110"/>
     <use x="2548.681641" xlink:href="#DejaVuSans-32"/>
     <use x="2580.46875" xlink:href="#DejaVuSans-115"/>
     <use x="2632.568359" xlink:href="#DejaVuSans-116"/>
     <use x="2671.777344" xlink:href="#DejaVuSans-101"/>
     <use x="2733.300781" xlink:href="#DejaVuSans-112"/>
     <use x="2796.777344" xlink:href="#DejaVuSans-115"/>
     <use x="2848.876953" xlink:href="#DejaVuSans-32"/>
     <use x="2880.664062" xlink:href="#DejaVuSans-108"/>
     <use x="2908.447266" xlink:href="#DejaVuSans-111"/>
     <use x="2969.628906" xlink:href="#DejaVuSans-103"/>
     <use x="3033.105469" xlink:href="#DejaVuSans-45"/>
     <use x="3069.189453" xlink:href="#DejaVuSans-114"/>
     <use x="3110.271484" xlink:href="#DejaVuSans-101"/>
     <use x="3171.794922" xlink:href="#DejaVuSans-108"/>
     <use x="3199.578125" xlink:href="#DejaVuSans-97"/>
     <use x="3260.857422" xlink:href="#DejaVuSans-116"/>
     <use x="3300.066406" xlink:href="#DejaVuSans-105"/>
     <use x="3327.849609" xlink:href="#DejaVuSans-118"/>
     <use x="3387.029297" xlink:href="#DejaVuSans-101"/>
     <use x="3448.552734" xlink:href="#DejaVuSans-32"/>
     <use x="3480.339844" xlink:href="#DejaVuSans-116"/>
     <use x="3519.548828" xlink:href="#DejaVuSans-111"/>
     <use x="3580.730469" xlink:href="#DejaVuSans-32"/>
     <use x="3612.517578" xlink:href="#DejaVuSans-96"/>
     <use x="3662.517578" xlink:href="#DejaVuSans-104"/>
     <use x="3725.896484" xlink:href="#DejaVuSans-116"/>
     <use x="3765.105469" xlink:href="#DejaVuSans-109"/>
     <use x="3862.517578" xlink:href="#DejaVuSans-95"/>
     <use x="3912.517578" xlink:href="#DejaVuSans-50"/>
     <use x="3976.140625" xlink:href="#DejaVuSans-95"/>
     <use x="4026.140625" xlink:href="#DejaVuSans-49"/>
     <use x="4089.763672" xlink:href="#DejaVuSans-103"/>
     <use x="4153.240234" xlink:href="#DejaVuSans-96"/>
     <use x="4203.240234" xlink:href="#DejaVuSans-44"/>
     <use x="4235.027344" xlink:href="#DejaVuSans-32"/>
     <use x="4266.814453" xlink:href="#DejaVuSans-77"/>
     <use x="4353.09375" xlink:href="#DejaVuSans-65"/>
     <use x="4421.501953" xlink:href="#DejaVuSans-61"/>
     <use x="4505.291016" xlink:href="#DejaVuSans-52"/>
     <use x="4568.914062" xlink:href="#DejaVuSans-48"/>
    </g>
   </g>
   <g id="legend_1">
    <g id="patch_7">
     <path d="M 774.309125 231.77625 
L 855.381 231.77625 
Q 857.381 231.77625 857.381 229.77625 
L 857.381 200.86375 
Q 857.381 198.86375 855.381 198.86375 
L 774.309125 198.86375 
Q 772.309125 198.86375 772.309125 200.86375 
L 772.309125 229.77625 
Q 772.309125 231.77625 774.309125 231.77625 
z
" style="fill:#ffffff;opacity:0.8;stroke:#cccccc;stroke-linejoin:miter;"/>
    </g>
    <g id="line2d_16">
     <path d="M 776.309125 206.962187 
L 796.309125 206.962187 
" style="fill:none;stroke:#1f77b4;stroke-linecap:square;stroke-width:1.5;"/>
    </g>
    <g id="line2d_17"/>
    <g id="text_15">
     <!-- htm_2_1g -->
     <g transform="translate(804.309125 210.462187)scale(0.1 -0.1)">
      <use xlink:href="#DejaVuSans-104"/>
      <use x="63.378906" xlink:href="#DejaVuSans-116"/>
      <use x="102.587891" xlink:href="#DejaVuSans-109"/>
      <use x="200" xlink:href="#DejaVuSans-95"/>
      <use x="250" xlink:href="#DejaVuSans-50"/>
      <use x="313.623047" xlink:href="#DejaVuSans-95"/>
      <use x="363.623047" xlink:href="#DejaVuSans-49"/>
      <use x="427.246094" xlink:href="#DejaVuSans-103"/>
     </g>
    </g>
    <g id="line2d_18">
     <path d="M 776.309125 221.918437 
L 796.309125 221.918437 
" style="fill:none;stroke:#ff7f0e;stroke-linecap:square;stroke-width:1.5;"/>
    </g>
    <g id="line2d_19"/>
    <g id="text_16">
     <!-- htm_2_4g -->
     <g transform="translate(804.309125 225.418437)scale(0.1 -0.1)">
      <use xlink:href="#DejaVuSans-104"/>
      <use x="63.378906" xlink:href="#DejaVuSans-116"/>
      <use x="102.587891" xlink:href="#DejaVuSans-109"/>
      <use x="200" xlink:href="#DejaVuSans-95"/>
      <use x="250" xlink:href="#DejaVuSans-50"/>
      <use x="313.623047" xlink:href="#DejaVuSans-95"/>
      <use x="363.623047" xlink:href="#DejaVuSans-52"/>
      <use x="427.246094" xlink:href="#DejaVuSans-103"/>
     </g>
    </g>
   </g>
  </g>
 </g>
 <defs>
  <clipPath id="p5ea148e329">
   <rect height="377.6" width="690.505" x="33.775" y="26.52"/>
  </clipPath>
 </defs>
</svg>
