<?xml version="1.0" encoding="utf-8" standalone="no"?>
<!DOCTYPE svg PUBLIC "-//W3C//DTD SVG 1.1//EN"
  "http://www.w3.org/Graphics/SVG/1.1/DTD/svg11.dtd">
<!-- Created with matplotlib (https://matplotlib.org/) -->
<svg height="432pt" version="1.1" viewBox="0 0 864 432" width="864pt" xmlns="http://www.w3.org/2000/svg" xmlns:xlink="http://www.w3.org/1999/xlink">
 <defs>
  <style type="text/css">
*{stroke-linecap:butt;stroke-linejoin:round;}
  </style>
 </defs>
 <g id="figure_1">
  <g id="patch_1">
   <path d="M 0 432 
L 864 432 
L 864 0 
L 0 0 
z
" style="fill:#ffffff;"/>
  </g>
  <g id="axes_1">
   <g id="patch_2">
    <path d="M 36.925 404.12 
L 724.28 404.12 
L 724.28 26.16 
L 36.925 26.16 
z
" style="fill:#ffffff;"/>
   </g>
   <g id="matplotlib.axis_1">
    <g id="xtick_1">
     <g id="line2d_1">
      <defs>
       <path d="M 0 0 
L 0 3.5 
" id="md2b1f1f677" style="stroke:#000000;stroke-width:0.8;"/>
      </defs>
      <g>
       <use style="stroke:#000000;stroke-width:0.8;" x="36.925" xlink:href="#md2b1f1f677" y="404.12"/>
      </g>
     </g>
     <g id="text_1">
      <!-- 0 -->
      <defs>
       <path d="M 31.78125 66.40625 
Q 24.171875 66.40625 20.328125 58.90625 
Q 16.5 51.421875 16.5 36.375 
Q 16.5 21.390625 20.328125 13.890625 
Q 24.171875 6.390625 31.78125 6.390625 
Q 39.453125 6.390625 43.28125 13.890625 
Q 47.125 21.390625 47.125 36.375 
Q 47.125 51.421875 43.28125 58.90625 
Q 39.453125 66.40625 31.78125 66.40625 
z
M 31.78125 74.21875 
Q 44.046875 74.21875 50.515625 64.515625 
Q 56.984375 54.828125 56.984375 36.375 
Q 56.984375 17.96875 50.515625 8.265625 
Q 44.046875 -1.421875 31.78125 -1.421875 
Q 19.53125 -1.421875 13.0625 8.265625 
Q 6.59375 17.96875 6.59375 36.375 
Q 6.59375 54.828125 13.0625 64.515625 
Q 19.53125 74.21875 31.78125 74.21875 
z
" id="DejaVuSans-48"/>
      </defs>
      <g transform="translate(33.74375 418.718437)scale(0.1 -0.1)">
       <use xlink:href="#DejaVuSans-48"/>
      </g>
     </g>
    </g>
    <g id="xtick_2">
     <g id="line2d_2">
      <g>
       <use style="stroke:#000000;stroke-width:0.8;" x="123.059712" xlink:href="#md2b1f1f677" y="404.12"/>
      </g>
     </g>
     <g id="text_2">
      <!-- 50 -->
      <defs>
       <path d="M 10.796875 72.90625 
L 49.515625 72.90625 
L 49.515625 64.59375 
L 19.828125 64.59375 
L 19.828125 46.734375 
Q 21.96875 47.46875 24.109375 47.828125 
Q 26.265625 48.1875 28.421875 48.1875 
Q 40.625 48.1875 47.75 41.5 
Q 54.890625 34.8125 54.890625 23.390625 
Q 54.890625 11.625 47.5625 5.09375 
Q 40.234375 -1.421875 26.90625 -1.421875 
Q 22.3125 -1.421875 17.546875 -0.640625 
Q 12.796875 0.140625 7.71875 1.703125 
L 7.71875 11.625 
Q 12.109375 9.234375 16.796875 8.0625 
Q 21.484375 6.890625 26.703125 6.890625 
Q 35.15625 6.890625 40.078125 11.328125 
Q 45.015625 15.765625 45.015625 23.390625 
Q 45.015625 31 40.078125 35.4375 
Q 35.15625 39.890625 26.703125 39.890625 
Q 22.75 39.890625 18.8125 39.015625 
Q 14.890625 38.140625 10.796875 36.28125 
z
" id="DejaVuSans-53"/>
      </defs>
      <g transform="translate(116.697212 418.718437)scale(0.1 -0.1)">
       <use xlink:href="#DejaVuSans-53"/>
       <use x="63.623047" xlink:href="#DejaVuSans-48"/>
      </g>
     </g>
    </g>
    <g id="xtick_3">
     <g id="line2d_3">
      <g>
       <use style="stroke:#000000;stroke-width:0.8;" x="209.194424" xlink:href="#md2b1f1f677" y="404.12"/>
      </g>
     </g>
     <g id="text_3">
      <!-- 100 -->
      <defs>
       <path d="M 12.40625 8.296875 
L 28.515625 8.296875 
L 28.515625 63.921875 
L 10.984375 60.40625 
L 10.984375 69.390625 
L 28.421875 72.90625 
L 38.28125 72.90625 
L 38.28125 8.296875 
L 54.390625 8.296875 
L 54.390625 0 
L 12.40625 0 
z
" id="DejaVuSans-49"/>
      </defs>
      <g transform="translate(199.650674 418.718437)scale(0.1 -0.1)">
       <use xlink:href="#DejaVuSans-49"/>
       <use x="63.623047" xlink:href="#DejaVuSans-48"/>
       <use x="127.246094" xlink:href="#DejaVuSans-48"/>
      </g>
     </g>
    </g>
    <g id="xtick_4">
     <g id="line2d_4">
      <g>
       <use style="stroke:#000000;stroke-width:0.8;" x="295.329135" xlink:href="#md2b1f1f677" y="404.12"/>
      </g>
     </g>
     <g id="text_4">
      <!-- 150 -->
      <g transform="translate(285.785385 418.718437)scale(0.1 -0.1)">
       <use xlink:href="#DejaVuSans-49"/>
       <use x="63.623047" xlink:href="#DejaVuSans-53"/>
       <use x="127.246094" xlink:href="#DejaVuSans-48"/>
      </g>
     </g>
    </g>
    <g id="xtick_5">
     <g id="line2d_5">
      <g>
       <use style="stroke:#000000;stroke-width:0.8;" x="381.463847" xlink:href="#md2b1f1f677" y="404.12"/>
      </g>
     </g>
     <g id="text_5">
      <!-- 200 -->
      <defs>
       <path d="M 19.1875 8.296875 
L 53.609375 8.296875 
L 53.609375 0 
L 7.328125 0 
L 7.328125 8.296875 
Q 12.9375 14.109375 22.625 23.890625 
Q 32.328125 33.6875 34.8125 36.53125 
Q 39.546875 41.84375 41.421875 45.53125 
Q 43.3125 49.21875 43.3125 52.78125 
Q 43.3125 58.59375 39.234375 62.25 
Q 35.15625 65.921875 28.609375 65.921875 
Q 23.96875 65.921875 18.8125 64.3125 
Q 13.671875 62.703125 7.8125 59.421875 
L 7.8125 69.390625 
Q 13.765625 71.78125 18.9375 73 
Q 24.125 74.21875 28.421875 74.21875 
Q 39.75 74.21875 46.484375 68.546875 
Q 53.21875 62.890625 53.21875 53.421875 
Q 53.21875 48.921875 51.53125 44.890625 
Q 49.859375 40.875 45.40625 35.40625 
Q 44.1875 33.984375 37.640625 27.21875 
Q 31.109375 20.453125 19.1875 8.296875 
z
" id="DejaVuSans-50"/>
      </defs>
      <g transform="translate(371.920097 418.718437)scale(0.1 -0.1)">
       <use xlink:href="#DejaVuSans-50"/>
       <use x="63.623047" xlink:href="#DejaVuSans-48"/>
       <use x="127.246094" xlink:href="#DejaVuSans-48"/>
      </g>
     </g>
    </g>
    <g id="xtick_6">
     <g id="line2d_6">
      <g>
       <use style="stroke:#000000;stroke-width:0.8;" x="467.598559" xlink:href="#md2b1f1f677" y="404.12"/>
      </g>
     </g>
     <g id="text_6">
      <!-- 250 -->
      <g transform="translate(458.054809 418.718437)scale(0.1 -0.1)">
       <use xlink:href="#DejaVuSans-50"/>
       <use x="63.623047" xlink:href="#DejaVuSans-53"/>
       <use x="127.246094" xlink:href="#DejaVuSans-48"/>
      </g>
     </g>
    </g>
    <g id="xtick_7">
     <g id="line2d_7">
      <g>
       <use style="stroke:#000000;stroke-width:0.8;" x="553.733271" xlink:href="#md2b1f1f677" y="404.12"/>
      </g>
     </g>
     <g id="text_7">
      <!-- 300 -->
      <defs>
       <path d="M 40.578125 39.3125 
Q 47.65625 37.796875 51.625 33 
Q 55.609375 28.21875 55.609375 21.1875 
Q 55.609375 10.40625 48.1875 4.484375 
Q 40.765625 -1.421875 27.09375 -1.421875 
Q 22.515625 -1.421875 17.65625 -0.515625 
Q 12.796875 0.390625 7.625 2.203125 
L 7.625 11.71875 
Q 11.71875 9.328125 16.59375 8.109375 
Q 21.484375 6.890625 26.8125 6.890625 
Q 36.078125 6.890625 40.9375 10.546875 
Q 45.796875 14.203125 45.796875 21.1875 
Q 45.796875 27.640625 41.28125 31.265625 
Q 36.765625 34.90625 28.71875 34.90625 
L 20.21875 34.90625 
L 20.21875 43.015625 
L 29.109375 43.015625 
Q 36.375 43.015625 40.234375 45.921875 
Q 44.09375 48.828125 44.09375 54.296875 
Q 44.09375 59.90625 40.109375 62.90625 
Q 36.140625 65.921875 28.71875 65.921875 
Q 24.65625 65.921875 20.015625 65.03125 
Q 15.375 64.15625 9.8125 62.3125 
L 9.8125 71.09375 
Q 15.4375 72.65625 20.34375 73.4375 
Q 25.25 74.21875 29.59375 74.21875 
Q 40.828125 74.21875 47.359375 69.109375 
Q 53.90625 64.015625 53.90625 55.328125 
Q 53.90625 49.265625 50.4375 45.09375 
Q 46.96875 40.921875 40.578125 39.3125 
z
" id="DejaVuSans-51"/>
      </defs>
      <g transform="translate(544.189521 418.718437)scale(0.1 -0.1)">
       <use xlink:href="#DejaVuSans-51"/>
       <use x="63.623047" xlink:href="#DejaVuSans-48"/>
       <use x="127.246094" xlink:href="#DejaVuSans-48"/>
      </g>
     </g>
    </g>
    <g id="xtick_8">
     <g id="line2d_8">
      <g>
       <use style="stroke:#000000;stroke-width:0.8;" x="639.867982" xlink:href="#md2b1f1f677" y="404.12"/>
      </g>
     </g>
     <g id="text_8">
      <!-- 350 -->
      <g transform="translate(630.324232 418.718437)scale(0.1 -0.1)">
       <use xlink:href="#DejaVuSans-51"/>
       <use x="63.623047" xlink:href="#DejaVuSans-53"/>
       <use x="127.246094" xlink:href="#DejaVuSans-48"/>
      </g>
     </g>
    </g>
   </g>
   <g id="matplotlib.axis_2">
    <g id="ytick_1">
     <g id="line2d_9">
      <defs>
       <path d="M 0 0 
L -3.5 0 
" id="m7d7b5c8966" style="stroke:#000000;stroke-width:0.8;"/>
      </defs>
      <g>
       <use style="stroke:#000000;stroke-width:0.8;" x="36.925" xlink:href="#m7d7b5c8966" y="375.65975"/>
      </g>
     </g>
     <g id="text_9">
      <!-- 20 -->
      <g transform="translate(17.2 379.458969)scale(0.1 -0.1)">
       <use xlink:href="#DejaVuSans-50"/>
       <use x="63.623047" xlink:href="#DejaVuSans-48"/>
      </g>
     </g>
    </g>
    <g id="ytick_2">
     <g id="line2d_10">
      <g>
       <use style="stroke:#000000;stroke-width:0.8;" x="36.925" xlink:href="#m7d7b5c8966" y="327.912659"/>
      </g>
     </g>
     <g id="text_10">
      <!-- 40 -->
      <defs>
       <path d="M 37.796875 64.3125 
L 12.890625 25.390625 
L 37.796875 25.390625 
z
M 35.203125 72.90625 
L 47.609375 72.90625 
L 47.609375 25.390625 
L 58.015625 25.390625 
L 58.015625 17.1875 
L 47.609375 17.1875 
L 47.609375 0 
L 37.796875 0 
L 37.796875 17.1875 
L 4.890625 17.1875 
L 4.890625 26.703125 
z
" id="DejaVuSans-52"/>
      </defs>
      <g transform="translate(17.2 331.711878)scale(0.1 -0.1)">
       <use xlink:href="#DejaVuSans-52"/>
       <use x="63.623047" xlink:href="#DejaVuSans-48"/>
      </g>
     </g>
    </g>
    <g id="ytick_3">
     <g id="line2d_11">
      <g>
       <use style="stroke:#000000;stroke-width:0.8;" x="36.925" xlink:href="#m7d7b5c8966" y="280.165569"/>
      </g>
     </g>
     <g id="text_11">
      <!-- 60 -->
      <defs>
       <path d="M 33.015625 40.375 
Q 26.375 40.375 22.484375 35.828125 
Q 18.609375 31.296875 18.609375 23.390625 
Q 18.609375 15.53125 22.484375 10.953125 
Q 26.375 6.390625 33.015625 6.390625 
Q 39.65625 6.390625 43.53125 10.953125 
Q 47.40625 15.53125 47.40625 23.390625 
Q 47.40625 31.296875 43.53125 35.828125 
Q 39.65625 40.375 33.015625 40.375 
z
M 52.59375 71.296875 
L 52.59375 62.3125 
Q 48.875 64.0625 45.09375 64.984375 
Q 41.3125 65.921875 37.59375 65.921875 
Q 27.828125 65.921875 22.671875 59.328125 
Q 17.53125 52.734375 16.796875 39.40625 
Q 19.671875 43.65625 24.015625 45.921875 
Q 28.375 48.1875 33.59375 48.1875 
Q 44.578125 48.1875 50.953125 41.515625 
Q 57.328125 34.859375 57.328125 23.390625 
Q 57.328125 12.15625 50.6875 5.359375 
Q 44.046875 -1.421875 33.015625 -1.421875 
Q 20.359375 -1.421875 13.671875 8.265625 
Q 6.984375 17.96875 6.984375 36.375 
Q 6.984375 53.65625 15.1875 63.9375 
Q 23.390625 74.21875 37.203125 74.21875 
Q 40.921875 74.21875 44.703125 73.484375 
Q 48.484375 72.75 52.59375 71.296875 
z
" id="DejaVuSans-54"/>
      </defs>
      <g transform="translate(17.2 283.964788)scale(0.1 -0.1)">
       <use xlink:href="#DejaVuSans-54"/>
       <use x="63.623047" xlink:href="#DejaVuSans-48"/>
      </g>
     </g>
    </g>
    <g id="ytick_4">
     <g id="line2d_12">
      <g>
       <use style="stroke:#000000;stroke-width:0.8;" x="36.925" xlink:href="#m7d7b5c8966" y="232.418478"/>
      </g>
     </g>
     <g id="text_12">
      <!-- 80 -->
      <defs>
       <path d="M 31.78125 34.625 
Q 24.75 34.625 20.71875 30.859375 
Q 16.703125 27.09375 16.703125 20.515625 
Q 16.703125 13.921875 20.71875 10.15625 
Q 24.75 6.390625 31.78125 6.390625 
Q 38.8125 6.390625 42.859375 10.171875 
Q 46.921875 13.96875 46.921875 20.515625 
Q 46.921875 27.09375 42.890625 30.859375 
Q 38.875 34.625 31.78125 34.625 
z
M 21.921875 38.8125 
Q 15.578125 40.375 12.03125 44.71875 
Q 8.5 49.078125 8.5 55.328125 
Q 8.5 64.0625 14.71875 69.140625 
Q 20.953125 74.21875 31.78125 74.21875 
Q 42.671875 74.21875 48.875 69.140625 
Q 55.078125 64.0625 55.078125 55.328125 
Q 55.078125 49.078125 51.53125 44.71875 
Q 48 40.375 41.703125 38.8125 
Q 48.828125 37.15625 52.796875 32.3125 
Q 56.78125 27.484375 56.78125 20.515625 
Q 56.78125 9.90625 50.3125 4.234375 
Q 43.84375 -1.421875 31.78125 -1.421875 
Q 19.734375 -1.421875 13.25 4.234375 
Q 6.78125 9.90625 6.78125 20.515625 
Q 6.78125 27.484375 10.78125 32.3125 
Q 14.796875 37.15625 21.921875 38.8125 
z
M 18.3125 54.390625 
Q 18.3125 48.734375 21.84375 45.5625 
Q 25.390625 42.390625 31.78125 42.390625 
Q 38.140625 42.390625 41.71875 45.5625 
Q 45.3125 48.734375 45.3125 54.390625 
Q 45.3125 60.0625 41.71875 63.234375 
Q 38.140625 66.40625 31.78125 66.40625 
Q 25.390625 66.40625 21.84375 63.234375 
Q 18.3125 60.0625 18.3125 54.390625 
z
" id="DejaVuSans-56"/>
      </defs>
      <g transform="translate(17.2 236.217697)scale(0.1 -0.1)">
       <use xlink:href="#DejaVuSans-56"/>
       <use x="63.623047" xlink:href="#DejaVuSans-48"/>
      </g>
     </g>
    </g>
    <g id="ytick_5">
     <g id="line2d_13">
      <g>
       <use style="stroke:#000000;stroke-width:0.8;" x="36.925" xlink:href="#m7d7b5c8966" y="184.671388"/>
      </g>
     </g>
     <g id="text_13">
      <!-- 100 -->
      <g transform="translate(10.8375 188.470607)scale(0.1 -0.1)">
       <use xlink:href="#DejaVuSans-49"/>
       <use x="63.623047" xlink:href="#DejaVuSans-48"/>
       <use x="127.246094" xlink:href="#DejaVuSans-48"/>
      </g>
     </g>
    </g>
    <g id="ytick_6">
     <g id="line2d_14">
      <g>
       <use style="stroke:#000000;stroke-width:0.8;" x="36.925" xlink:href="#m7d7b5c8966" y="136.924297"/>
      </g>
     </g>
     <g id="text_14">
      <!-- 120 -->
      <g transform="translate(10.8375 140.723516)scale(0.1 -0.1)">
       <use xlink:href="#DejaVuSans-49"/>
       <use x="63.623047" xlink:href="#DejaVuSans-50"/>
       <use x="127.246094" xlink:href="#DejaVuSans-48"/>
      </g>
     </g>
    </g>
    <g id="ytick_7">
     <g id="line2d_15">
      <g>
       <use style="stroke:#000000;stroke-width:0.8;" x="36.925" xlink:href="#m7d7b5c8966" y="89.177207"/>
      </g>
     </g>
     <g id="text_15">
      <!-- 140 -->
      <g transform="translate(10.8375 92.976426)scale(0.1 -0.1)">
       <use xlink:href="#DejaVuSans-49"/>
       <use x="63.623047" xlink:href="#DejaVuSans-52"/>
       <use x="127.246094" xlink:href="#DejaVuSans-48"/>
      </g>
     </g>
    </g>
    <g id="ytick_8">
     <g id="line2d_16">
      <g>
       <use style="stroke:#000000;stroke-width:0.8;" x="36.925" xlink:href="#m7d7b5c8966" y="41.430116"/>
      </g>
     </g>
     <g id="text_16">
      <!-- 160 -->
      <g transform="translate(10.8375 45.229335)scale(0.1 -0.1)">
       <use xlink:href="#DejaVuSans-49"/>
       <use x="63.623047" xlink:href="#DejaVuSans-54"/>
       <use x="127.246094" xlink:href="#DejaVuSans-48"/>
      </g>
     </g>
    </g>
   </g>
   <g id="line2d_17">
    <path clip-path="url(#p5e6761b4d4)" d="M 104.110075 353.576721 
L 105.832769 341.222161 
L 107.555464 340.147851 
L 109.278158 339.551013 
L 111.000852 340.088167 
L 114.446241 339.312277 
L 116.168935 339.67038 
L 117.891629 333.881046 
L 119.614323 332.388949 
L 121.337018 332.388949 
L 123.059712 331.672743 
L 124.782406 333.881046 
L 126.5051 323.734789 
L 128.227794 326.002776 
L 129.950489 332.747052 
L 131.673183 332.269581 
L 133.395877 325.465621 
L 135.118571 322.063641 
L 136.841266 321.108699 
L 140.286654 321.108699 
L 142.009348 304.218166 
L 143.732043 304.994056 
L 145.454737 306.784572 
L 147.177431 307.142675 
L 148.900125 307.620146 
L 150.62282 306.426469 
L 154.068208 307.142675 
L 155.790902 306.90394 
L 157.513596 307.142675 
L 159.236291 309.709081 
L 160.958985 308.873507 
L 162.681679 308.694455 
L 164.404373 311.798016 
L 166.127068 311.499597 
L 167.849762 311.798016 
L 169.572456 308.694455 
L 171.29515 309.470346 
L 173.017845 308.634772 
L 174.740539 324.98815 
L 176.463233 324.092892 
L 178.185927 327.077085 
L 181.631316 328.807917 
L 183.35401 324.928466 
L 185.076704 325.525305 
L 186.799398 322.779847 
L 188.522093 322.421744 
L 190.244787 322.720163 
L 191.967481 319.855338 
L 193.690175 319.795654 
L 195.41287 330.598433 
L 197.135564 328.330446 
L 198.858258 326.957718 
L 200.580952 324.749415 
L 202.303647 331.31464 
L 204.026341 334.060097 
L 205.749035 333.463259 
L 207.471729 332.985788 
L 210.917118 367.721796 
L 214.362506 367.841164 
L 216.085201 361.932461 
L 217.807895 361.275939 
L 219.530589 363.185822 
L 221.253283 360.738784 
L 222.975977 356.083443 
L 224.698672 356.262494 
L 226.421366 356.620598 
L 229.866754 356.20281 
L 231.589449 353.218617 
L 233.312143 352.562095 
L 236.757531 354.412295 
L 238.480226 357.814275 
L 240.20292 358.291746 
L 241.925614 359.604791 
L 243.648308 359.425739 
L 245.371003 361.813094 
L 247.093697 360.917836 
L 248.816391 360.440365 
L 250.539085 360.082262 
L 252.261779 364.260132 
L 253.984474 364.08108 
L 255.707168 372.198086 
L 257.429862 374.525756 
L 259.152556 374.525756 
L 260.875251 378.643943 
L 262.597945 378.584259 
L 264.320639 376.972795 
L 266.043333 379.83762 
L 267.766028 381.090981 
L 269.488722 383.120233 
L 271.211416 383.358968 
L 272.93411 382.165291 
L 274.656805 386.104426 
L 276.379499 385.686639 
L 279.824887 350.950631 
L 281.547581 333.105155 
L 283.270276 332.926104 
L 284.99297 337.521761 
L 286.715664 336.626503 
L 288.438358 337.04429 
L 290.161053 340.207535 
L 291.883747 344.683825 
L 293.606441 344.743509 
L 295.329135 341.759316 
L 297.05183 341.043109 
L 298.774524 341.639948 
L 300.497218 341.998051 
L 302.219912 341.580264 
L 303.942607 340.386587 
L 305.665301 333.284207 
L 307.387995 332.627685 
L 309.110689 333.403575 
L 310.833383 332.209898 
L 312.556078 329.225704 
L 314.278772 327.972343 
L 317.72416 330.001595 
L 319.446855 325.286569 
L 321.169549 323.43637 
L 322.892243 323.376686 
L 324.614937 323.555737 
L 326.337632 322.242692 
L 328.060326 322.183009 
L 329.78302 322.779847 
L 331.505714 320.81028 
L 333.228409 323.794473 
L 334.951103 320.690912 
L 336.673797 320.452176 
L 338.396491 321.108699 
L 340.119185 319.616602 
L 341.84188 321.407118 
L 343.564574 321.466802 
L 345.287268 322.003957 
L 348.732657 322.003957 
L 350.455351 335.790929 
L 352.178045 334.835987 
L 353.900739 329.106337 
L 355.623434 330.479065 
L 357.346128 329.822543 
L 359.068822 324.510679 
L 360.791516 323.913841 
L 362.514211 323.43637 
L 364.236905 309.947817 
L 365.959599 310.484971 
L 367.682293 305.82963 
L 369.404987 303.084172 
L 371.127682 304.218166 
L 372.850376 304.934372 
L 374.57307 308.45572 
L 376.295764 308.515404 
L 378.018459 307.441094 
L 379.741153 308.45572 
L 381.463847 293.833174 
L 383.186541 295.086535 
L 384.909236 295.146219 
L 386.63193 291.684554 
L 388.354624 296.041476 
L 390.077318 297.533573 
L 391.800013 297.593257 
L 393.522707 297.235154 
L 395.245401 298.309463 
L 396.968095 298.369147 
L 398.690789 297.593257 
L 400.413484 295.086535 
L 402.136178 295.265586 
L 403.858872 298.249779 
L 405.581566 298.846618 
L 407.304261 297.414205 
L 409.026955 298.846618 
L 410.749649 298.906302 
L 412.472343 298.846618 
L 414.195038 299.02567 
L 415.917732 312.872326 
L 417.640426 330.598433 
L 419.36312 334.477884 
L 421.085815 335.611878 
L 422.808509 336.447452 
L 424.531203 318.781028 
L 426.253897 317.408299 
L 427.976591 322.720163 
L 429.699286 320.153757 
L 431.42198 318.721344 
L 433.144674 335.194091 
L 434.867368 327.554556 
L 436.590063 332.806736 
L 438.312757 338.417019 
L 440.035451 337.820181 
L 441.758145 334.119781 
L 443.48084 335.850613 
L 445.203534 333.821362 
L 446.926228 325.405937 
L 448.648922 325.584989 
L 450.371617 328.032027 
L 452.094311 327.733608 
L 453.817005 327.793292 
L 455.539699 331.254956 
L 457.262393 331.911478 
L 458.985088 331.374323 
L 460.707782 331.613059 
L 462.430476 331.672743 
L 464.15317 332.209898 
L 465.875865 332.209898 
L 467.598559 330.777485 
L 469.321253 334.656936 
L 471.043947 334.597252 
L 472.766642 333.284207 
L 474.489336 333.045472 
L 476.21203 334.060097 
L 477.934724 333.821362 
L 479.657419 332.926104 
L 483.102807 331.971162 
L 484.825501 335.49251 
L 486.548195 334.537568 
L 488.27089 323.615421 
L 489.993584 313.7079 
L 491.716278 320.332809 
L 493.438972 337.283026 
L 495.161667 332.329265 
L 496.884361 331.732427 
L 498.607055 334.4182 
L 500.329749 333.105155 
L 502.052444 333.105155 
L 503.775138 332.329265 
L 505.497832 331.851794 
L 507.220526 329.822543 
L 508.943221 329.16602 
L 510.665915 331.911478 
L 512.388609 332.448633 
L 514.111303 327.494872 
L 515.833997 331.79211 
L 517.556692 331.613059 
L 519.279386 329.16602 
L 526.170163 258.619694 
L 527.892857 259.455268 
L 529.615551 259.097165 
L 531.338246 259.097165 
L 533.06094 258.380959 
L 534.783634 258.380959 
L 536.506328 260.589262 
L 538.229023 261.007049 
L 539.951717 260.887681 
L 541.674411 259.335901 
L 543.397105 259.335901 
L 545.119799 259.63432 
L 546.842494 259.156849 
L 548.565188 258.08254 
L 550.287882 258.619694 
L 552.010576 258.918114 
L 553.733271 258.56001 
L 555.455965 259.037481 
L 558.901353 279.270311 
L 560.624048 279.270311 
L 562.346742 279.449363 
L 564.069436 285.716168 
L 565.79213 285.179013 
L 567.514825 285.238697 
L 569.237519 288.461626 
L 570.960213 282.851343 
L 572.682907 288.342258 
L 574.405602 288.103523 
L 576.128296 289.177832 
L 577.85099 290.669929 
L 579.573684 291.803922 
L 581.296378 293.236335 
L 583.019073 300.696818 
L 584.741767 305.889314 
L 586.464461 306.068365 
L 588.187155 321.228067 
L 589.90985 334.060097 
L 595.077932 386.94 
L 596.800627 386.820632 
L 598.523321 385.030116 
L 600.246015 385.0898 
L 601.968709 385.806007 
L 605.414098 378.942362 
L 608.859486 373.988602 
L 610.58218 372.436821 
L 612.304875 371.899666 
L 614.027569 371.839983 
L 615.750263 371.899666 
L 617.472957 371.18346 
L 619.195652 370.885041 
L 620.918346 367.00559 
L 622.64104 366.468435 
L 624.363734 363.30519 
L 626.086429 358.888584 
L 627.809123 357.157752 
L 629.531817 357.038385 
L 634.6999 358.112694 
L 636.422594 357.217436 
L 638.145288 357.157752 
L 639.867982 362.768035 
L 641.590677 361.335623 
L 643.313371 361.813094 
L 645.036065 359.724158 
L 646.758759 359.604791 
L 648.481454 357.933643 
L 650.204148 353.934824 
L 651.926842 353.815456 
L 653.649536 345.937186 
L 655.372231 342.117419 
L 657.094925 343.967619 
L 658.817619 347.84707 
L 660.540313 344.14667 
L 662.263008 339.073542 
L 663.985702 337.04429 
L 665.708396 336.447452 
L 667.43109 338.058916 
L 669.153784 338.357335 
L 670.876479 337.04429 
L 672.599173 340.505954 
L 674.321867 342.29647 
L 676.044561 343.251412 
L 677.767256 345.877502 
L 679.48995 349.279482 
L 681.212644 349.339166 
L 682.935338 347.668018 
L 684.658033 348.264857 
L 686.380727 341.998051 
L 688.103421 341.401212 
L 689.826115 345.400031 
L 691.54881 346.235605 
L 693.271504 348.145489 
L 694.994198 353.039566 
L 696.716892 354.292927 
L 698.439586 353.755772 
L 700.162281 353.397669 
L 701.884975 351.845888 
L 703.607669 352.02494 
L 705.330363 352.860514 
L 708.775752 352.920198 
L 710.498446 357.635223 
L 712.22114 355.546288 
L 713.943835 357.933643 
L 715.666529 357.814275 
L 717.389223 359.783842 
L 719.111917 363.782661 
L 720.834612 363.245506 
L 722.557306 370.109151 
L 724.28 373.869234 
L 724.28 373.869234 
" style="fill:none;stroke:#1f77b4;stroke-linecap:square;stroke-width:1.5;"/>
   </g>
   <g id="line2d_18">
    <path clip-path="url(#p5e6761b4d4)" d="M 104.110075 320.750596 
L 105.832769 323.854157 
L 107.555464 321.049015 
L 109.278158 323.555737 
L 111.000852 325.047834 
L 112.723546 325.465621 
L 114.446241 322.063641 
L 116.168935 322.839531 
L 117.891629 322.123325 
L 121.337018 322.421744 
L 123.059712 323.376686 
L 124.782406 325.584989 
L 126.5051 326.301195 
L 128.227794 328.867601 
L 129.950489 335.731245 
L 131.673183 335.253775 
L 133.395877 334.239149 
L 135.118571 334.179465 
L 136.841266 331.971162 
L 140.286654 331.971162 
L 143.732043 298.070728 
L 145.454737 299.622508 
L 147.177431 300.279031 
L 148.900125 300.756502 
L 154.068208 250.025218 
L 157.513596 214.99079 
L 159.236291 217.437829 
L 162.681679 216.781306 
L 164.404373 202.337811 
L 166.127068 202.337811 
L 167.849762 202.218444 
L 171.29515 202.218444 
L 173.017845 186.103801 
L 174.740539 187.058742 
L 176.463233 190.341355 
L 178.185927 188.550839 
L 179.908622 188.789574 
L 181.631316 188.849258 
L 183.35401 186.103801 
L 185.076704 185.924749 
L 186.799398 184.134233 
L 188.522093 183.955182 
L 190.244787 184.074549 
L 191.967481 179.896679 
L 193.690175 178.762685 
L 195.41287 179.29984 
L 197.135564 178.165847 
L 198.858258 170.884415 
L 200.580952 168.79548 
L 202.303647 169.213267 
L 204.026341 167.184016 
L 205.749035 162.051204 
L 207.471729 157.933017 
L 212.639812 211.290391 
L 214.362506 211.58881 
L 216.085201 211.708178 
L 217.807895 193.862703 
L 226.421366 281.359246 
L 229.866754 246.50387 
L 231.589449 246.742606 
L 233.312143 261.782939 
L 235.034837 279.628414 
L 236.757531 279.807466 
L 238.480226 297.652941 
L 240.20292 296.578631 
L 241.925614 314.424106 
L 243.648308 313.7079 
L 245.371003 313.528848 
L 247.093697 315.677467 
L 250.539085 280.165569 
L 252.261779 286.253323 
L 253.984474 268.825635 
L 255.707168 253.486882 
L 257.429862 253.904669 
L 259.152556 236.118878 
L 260.875251 240.177381 
L 262.597945 223.465899 
L 264.320639 223.94337 
L 266.043333 225.375783 
L 267.766028 214.931106 
L 269.488722 217.318461 
L 271.211416 217.020042 
L 272.93411 219.049293 
L 274.656805 210.991972 
L 276.379499 197.264683 
L 278.102193 188.491155 
L 281.547581 178.762685 
L 283.270276 178.762685 
L 284.99297 176.375331 
L 286.715664 190.699458 
L 288.438358 190.87851 
L 290.161053 190.938194 
L 291.883747 191.773768 
L 293.606441 191.833451 
L 295.329135 188.789574 
L 298.774524 222.570641 
L 300.497218 222.630325 
L 302.219912 223.764318 
L 303.942607 222.86906 
L 305.665301 221.078544 
L 307.387995 218.69119 
L 309.110689 219.825183 
L 310.833383 219.407396 
L 316.001466 166.945281 
L 317.72416 184.790756 
L 319.446855 184.790756 
L 321.169549 167.004964 
L 324.614937 200.845715 
L 326.337632 200.427928 
L 328.060326 200.427928 
L 329.78302 200.726347 
L 331.505714 200.726347 
L 333.228409 200.905399 
L 334.951103 199.055199 
L 336.673797 215.587629 
L 338.396491 215.766681 
L 340.119185 213.618061 
L 341.84188 212.842171 
L 345.287268 247.637863 
L 347.009962 246.205451 
L 348.732657 250.502689 
L 350.455351 244.235883 
L 352.178045 244.176199 
L 353.900739 238.028762 
L 355.623434 241.311374 
L 357.346128 240.714535 
L 359.068822 238.207813 
L 360.791516 236.656033 
L 362.514211 236.596349 
L 364.236905 234.626781 
L 365.959599 235.402672 
L 372.850376 167.721171 
L 374.57307 169.213267 
L 376.295764 163.364249 
L 378.018459 163.304565 
L 379.741153 163.662668 
L 384.909236 163.662668 
L 386.63193 145.817193 
L 390.077318 145.817193 
L 391.800013 128.92666 
L 393.522707 129.404131 
L 395.245401 112.334546 
L 396.968095 130.180021 
L 398.690789 130.120337 
L 400.413484 147.906128 
L 402.136178 148.204548 
L 403.858872 149.696644 
L 405.581566 151.009689 
L 407.304261 133.164214 
L 409.026955 135.790304 
L 410.749649 136.625878 
L 412.472343 133.820736 
L 414.195038 116.870519 
L 415.917732 109.290669 
L 417.640426 109.589088 
L 419.36312 102.844812 
L 421.085815 102.904495 
L 422.808509 93.653497 
L 426.253897 58.798121 
L 427.976591 61.304843 
L 429.699286 60.708004 
L 431.42198 58.499701 
L 433.144674 61.125791 
L 434.867368 43.34 
L 440.035451 95.56338 
L 441.758145 95.56338 
L 443.48084 78.076008 
L 445.203534 85.775227 
L 446.926228 83.984711 
L 448.648922 84.044395 
L 452.094311 118.481984 
L 460.707782 204.367063 
L 462.430476 203.531489 
L 464.15317 221.376964 
L 465.875865 221.376964 
L 467.598559 220.720441 
L 469.321253 218.750874 
L 471.043947 217.676564 
L 472.766642 217.676564 
L 474.489336 199.831089 
L 476.21203 217.61688 
L 477.934724 216.781306 
L 479.657419 214.99079 
L 481.380113 216.423203 
L 484.825501 216.423203 
L 486.548195 198.995515 
L 488.27089 198.995515 
L 489.993584 181.15004 
L 495.161667 181.15004 
L 496.884361 163.304565 
L 502.052444 117.168939 
L 503.775138 133.522317 
L 505.497832 132.507692 
L 507.220526 114.662216 
L 510.665915 114.602533 
L 512.388609 131.194647 
L 514.111303 130.120337 
L 515.833997 131.612434 
L 517.556692 113.766958 
L 519.279386 114.602533 
L 521.00208 114.781584 
L 522.724774 115.497791 
L 524.447469 113.94601 
L 526.170163 115.79621 
L 527.892857 116.333365 
L 529.615551 98.48789 
L 531.338246 99.502515 
L 533.06094 81.65704 
L 534.783634 81.65704 
L 536.506328 64.527771 
L 538.229023 66.557023 
L 539.951717 67.452281 
L 541.674411 65.12461 
L 545.119799 65.184294 
L 546.842494 66.19892 
L 548.565188 50.14396 
L 550.287882 51.397322 
L 570.960213 261.544204 
L 572.682907 261.245784 
L 574.405602 257.485701 
L 576.128296 274.913389 
L 577.85099 275.569911 
L 579.573684 293.296019 
L 581.296378 294.54938 
L 583.019073 295.265586 
L 584.741767 295.623689 
L 586.464461 313.469164 
L 588.187155 311.678649 
L 589.90985 310.425287 
L 591.632544 310.425287 
L 593.355238 311.08181 
L 595.077932 310.604339 
L 596.800627 308.754139 
L 598.523321 326.480247 
L 600.246015 324.450995 
L 601.968709 342.29647 
L 603.691404 341.938367 
L 605.414098 359.366055 
L 607.136792 359.007952 
L 608.859486 356.262494 
L 610.58218 357.27712 
L 614.027569 357.217436 
L 615.750263 357.396488 
L 617.472957 375.003227 
L 619.195652 374.287021 
L 620.918346 374.58544 
L 622.64104 371.601247 
L 624.363734 370.168834 
L 626.086429 369.33326 
L 629.531817 365.394125 
L 631.254511 365.394125 
L 632.977206 366.050648 
L 634.6999 365.871596 
L 636.422594 366.229699 
L 638.145288 366.170016 
L 639.867982 366.408751 
L 641.590677 361.992145 
L 643.313371 367.423377 
L 645.036065 363.066455 
L 646.758759 362.768035 
L 648.481454 361.275939 
L 650.204148 361.096887 
L 651.926842 359.246688 
L 653.649536 355.247869 
L 655.372231 351.905572 
L 657.094925 353.457353 
L 658.817619 354.054191 
L 660.540313 351.129682 
L 662.263008 351.607153 
L 663.985702 350.294108 
L 665.708396 350.294108 
L 667.43109 350.115056 
L 669.153784 351.786205 
L 670.876479 351.010314 
L 672.599173 351.368418 
L 674.321867 350.592527 
L 676.044561 344.803193 
L 677.767256 347.727702 
L 679.48995 348.503592 
L 681.212644 359.545107 
L 682.935338 356.50123 
L 684.658033 355.188185 
L 686.380727 354.830082 
L 688.103421 355.307553 
L 689.826115 353.815456 
L 691.54881 356.560914 
L 694.994198 324.689731 
L 696.716892 326.181827 
L 698.439586 327.912659 
L 700.162281 310.186552 
L 701.884975 308.813823 
L 703.607669 308.873507 
L 705.330363 308.336352 
L 707.053058 308.396036 
L 708.775752 290.610245 
L 710.498446 278.971892 
L 712.22114 277.778214 
L 713.943835 264.707448 
L 715.666529 263.991242 
L 717.389223 265.602706 
L 719.111917 247.936283 
L 720.834612 250.323637 
L 722.557306 254.262772 
L 724.28 239.759594 
L 724.28 239.759594 
" style="fill:none;stroke:#ff7f0e;stroke-linecap:square;stroke-width:1.5;"/>
   </g>
   <g id="patch_3">
    <path d="M 36.925 404.12 
L 36.925 26.16 
" style="fill:none;stroke:#000000;stroke-linecap:square;stroke-linejoin:miter;stroke-width:0.8;"/>
   </g>
   <g id="patch_4">
    <path d="M 724.28 404.12 
L 724.28 26.16 
" style="fill:none;stroke:#000000;stroke-linecap:square;stroke-linejoin:miter;stroke-width:0.8;"/>
   </g>
   <g id="patch_5">
    <path d="M 36.925 404.12 
L 724.28 404.12 
" style="fill:none;stroke:#000000;stroke-linecap:square;stroke-linejoin:miter;stroke-width:0.8;"/>
   </g>
   <g id="patch_6">
    <path d="M 36.925 26.16 
L 724.28 26.16 
" style="fill:none;stroke:#000000;stroke-linecap:square;stroke-linejoin:miter;stroke-width:0.8;"/>
   </g>
   <g id="text_17">
    <!-- gridworld_5x5_20_1_20_1337__1: episode duration, steps, MA=40 -->
    <defs>
     <path d="M 45.40625 27.984375 
Q 45.40625 37.75 41.375 43.109375 
Q 37.359375 48.484375 30.078125 48.484375 
Q 22.859375 48.484375 18.828125 43.109375 
Q 14.796875 37.75 14.796875 27.984375 
Q 14.796875 18.265625 18.828125 12.890625 
Q 22.859375 7.515625 30.078125 7.515625 
Q 37.359375 7.515625 41.375 12.890625 
Q 45.40625 18.265625 45.40625 27.984375 
z
M 54.390625 6.78125 
Q 54.390625 -7.171875 48.1875 -13.984375 
Q 42 -20.796875 29.203125 -20.796875 
Q 24.46875 -20.796875 20.265625 -20.09375 
Q 16.0625 -19.390625 12.109375 -17.921875 
L 12.109375 -9.1875 
Q 16.0625 -11.328125 19.921875 -12.34375 
Q 23.78125 -13.375 27.78125 -13.375 
Q 36.625 -13.375 41.015625 -8.765625 
Q 45.40625 -4.15625 45.40625 5.171875 
L 45.40625 9.625 
Q 42.625 4.78125 38.28125 2.390625 
Q 33.9375 0 27.875 0 
Q 17.828125 0 11.671875 7.65625 
Q 5.515625 15.328125 5.515625 27.984375 
Q 5.515625 40.671875 11.671875 48.328125 
Q 17.828125 56 27.875 56 
Q 33.9375 56 38.28125 53.609375 
Q 42.625 51.21875 45.40625 46.390625 
L 45.40625 54.6875 
L 54.390625 54.6875 
z
" id="DejaVuSans-103"/>
     <path d="M 41.109375 46.296875 
Q 39.59375 47.171875 37.8125 47.578125 
Q 36.03125 48 33.890625 48 
Q 26.265625 48 22.1875 43.046875 
Q 18.109375 38.09375 18.109375 28.8125 
L 18.109375 0 
L 9.078125 0 
L 9.078125 54.6875 
L 18.109375 54.6875 
L 18.109375 46.1875 
Q 20.953125 51.171875 25.484375 53.578125 
Q 30.03125 56 36.53125 56 
Q 37.453125 56 38.578125 55.875 
Q 39.703125 55.765625 41.0625 55.515625 
z
" id="DejaVuSans-114"/>
     <path d="M 9.421875 54.6875 
L 18.40625 54.6875 
L 18.40625 0 
L 9.421875 0 
z
M 9.421875 75.984375 
L 18.40625 75.984375 
L 18.40625 64.59375 
L 9.421875 64.59375 
z
" id="DejaVuSans-105"/>
     <path d="M 45.40625 46.390625 
L 45.40625 75.984375 
L 54.390625 75.984375 
L 54.390625 0 
L 45.40625 0 
L 45.40625 8.203125 
Q 42.578125 3.328125 38.25 0.953125 
Q 33.9375 -1.421875 27.875 -1.421875 
Q 17.96875 -1.421875 11.734375 6.484375 
Q 5.515625 14.40625 5.515625 27.296875 
Q 5.515625 40.1875 11.734375 48.09375 
Q 17.96875 56 27.875 56 
Q 33.9375 56 38.25 53.625 
Q 42.578125 51.265625 45.40625 46.390625 
z
M 14.796875 27.296875 
Q 14.796875 17.390625 18.875 11.75 
Q 22.953125 6.109375 30.078125 6.109375 
Q 37.203125 6.109375 41.296875 11.75 
Q 45.40625 17.390625 45.40625 27.296875 
Q 45.40625 37.203125 41.296875 42.84375 
Q 37.203125 48.484375 30.078125 48.484375 
Q 22.953125 48.484375 18.875 42.84375 
Q 14.796875 37.203125 14.796875 27.296875 
z
" id="DejaVuSans-100"/>
     <path d="M 4.203125 54.6875 
L 13.1875 54.6875 
L 24.421875 12.015625 
L 35.59375 54.6875 
L 46.1875 54.6875 
L 57.421875 12.015625 
L 68.609375 54.6875 
L 77.59375 54.6875 
L 63.28125 0 
L 52.6875 0 
L 40.921875 44.828125 
L 29.109375 0 
L 18.5 0 
z
" id="DejaVuSans-119"/>
     <path d="M 30.609375 48.390625 
Q 23.390625 48.390625 19.1875 42.75 
Q 14.984375 37.109375 14.984375 27.296875 
Q 14.984375 17.484375 19.15625 11.84375 
Q 23.34375 6.203125 30.609375 6.203125 
Q 37.796875 6.203125 41.984375 11.859375 
Q 46.1875 17.53125 46.1875 27.296875 
Q 46.1875 37.015625 41.984375 42.703125 
Q 37.796875 48.390625 30.609375 48.390625 
z
M 30.609375 56 
Q 42.328125 56 49.015625 48.375 
Q 55.71875 40.765625 55.71875 27.296875 
Q 55.71875 13.875 49.015625 6.21875 
Q 42.328125 -1.421875 30.609375 -1.421875 
Q 18.84375 -1.421875 12.171875 6.21875 
Q 5.515625 13.875 5.515625 27.296875 
Q 5.515625 40.765625 12.171875 48.375 
Q 18.84375 56 30.609375 56 
z
" id="DejaVuSans-111"/>
     <path d="M 9.421875 75.984375 
L 18.40625 75.984375 
L 18.40625 0 
L 9.421875 0 
z
" id="DejaVuSans-108"/>
     <path d="M 50.984375 -16.609375 
L 50.984375 -23.578125 
L -0.984375 -23.578125 
L -0.984375 -16.609375 
z
" id="DejaVuSans-95"/>
     <path d="M 54.890625 54.6875 
L 35.109375 28.078125 
L 55.90625 0 
L 45.3125 0 
L 29.390625 21.484375 
L 13.484375 0 
L 2.875 0 
L 24.125 28.609375 
L 4.6875 54.6875 
L 15.28125 54.6875 
L 29.78125 35.203125 
L 44.28125 54.6875 
z
" id="DejaVuSans-120"/>
     <path d="M 8.203125 72.90625 
L 55.078125 72.90625 
L 55.078125 68.703125 
L 28.609375 0 
L 18.3125 0 
L 43.21875 64.59375 
L 8.203125 64.59375 
z
" id="DejaVuSans-55"/>
     <path d="M 11.71875 12.40625 
L 22.015625 12.40625 
L 22.015625 0 
L 11.71875 0 
z
M 11.71875 51.703125 
L 22.015625 51.703125 
L 22.015625 39.3125 
L 11.71875 39.3125 
z
" id="DejaVuSans-58"/>
     <path id="DejaVuSans-32"/>
     <path d="M 56.203125 29.59375 
L 56.203125 25.203125 
L 14.890625 25.203125 
Q 15.484375 15.921875 20.484375 11.0625 
Q 25.484375 6.203125 34.421875 6.203125 
Q 39.59375 6.203125 44.453125 7.46875 
Q 49.3125 8.734375 54.109375 11.28125 
L 54.109375 2.78125 
Q 49.265625 0.734375 44.1875 -0.34375 
Q 39.109375 -1.421875 33.890625 -1.421875 
Q 20.796875 -1.421875 13.15625 6.1875 
Q 5.515625 13.8125 5.515625 26.8125 
Q 5.515625 40.234375 12.765625 48.109375 
Q 20.015625 56 32.328125 56 
Q 43.359375 56 49.78125 48.890625 
Q 56.203125 41.796875 56.203125 29.59375 
z
M 47.21875 32.234375 
Q 47.125 39.59375 43.09375 43.984375 
Q 39.0625 48.390625 32.421875 48.390625 
Q 24.90625 48.390625 20.390625 44.140625 
Q 15.875 39.890625 15.1875 32.171875 
z
" id="DejaVuSans-101"/>
     <path d="M 18.109375 8.203125 
L 18.109375 -20.796875 
L 9.078125 -20.796875 
L 9.078125 54.6875 
L 18.109375 54.6875 
L 18.109375 46.390625 
Q 20.953125 51.265625 25.265625 53.625 
Q 29.59375 56 35.59375 56 
Q 45.5625 56 51.78125 48.09375 
Q 58.015625 40.1875 58.015625 27.296875 
Q 58.015625 14.40625 51.78125 6.484375 
Q 45.5625 -1.421875 35.59375 -1.421875 
Q 29.59375 -1.421875 25.265625 0.953125 
Q 20.953125 3.328125 18.109375 8.203125 
z
M 48.6875 27.296875 
Q 48.6875 37.203125 44.609375 42.84375 
Q 40.53125 48.484375 33.40625 48.484375 
Q 26.265625 48.484375 22.1875 42.84375 
Q 18.109375 37.203125 18.109375 27.296875 
Q 18.109375 17.390625 22.1875 11.75 
Q 26.265625 6.109375 33.40625 6.109375 
Q 40.53125 6.109375 44.609375 11.75 
Q 48.6875 17.390625 48.6875 27.296875 
z
" id="DejaVuSans-112"/>
     <path d="M 44.28125 53.078125 
L 44.28125 44.578125 
Q 40.484375 46.53125 36.375 47.5 
Q 32.28125 48.484375 27.875 48.484375 
Q 21.1875 48.484375 17.84375 46.4375 
Q 14.5 44.390625 14.5 40.28125 
Q 14.5 37.15625 16.890625 35.375 
Q 19.28125 33.59375 26.515625 31.984375 
L 29.59375 31.296875 
Q 39.15625 29.25 43.1875 25.515625 
Q 47.21875 21.78125 47.21875 15.09375 
Q 47.21875 7.46875 41.1875 3.015625 
Q 35.15625 -1.421875 24.609375 -1.421875 
Q 20.21875 -1.421875 15.453125 -0.5625 
Q 10.6875 0.296875 5.421875 2 
L 5.421875 11.28125 
Q 10.40625 8.6875 15.234375 7.390625 
Q 20.0625 6.109375 24.8125 6.109375 
Q 31.15625 6.109375 34.5625 8.28125 
Q 37.984375 10.453125 37.984375 14.40625 
Q 37.984375 18.0625 35.515625 20.015625 
Q 33.0625 21.96875 24.703125 23.78125 
L 21.578125 24.515625 
Q 13.234375 26.265625 9.515625 29.90625 
Q 5.8125 33.546875 5.8125 39.890625 
Q 5.8125 47.609375 11.28125 51.796875 
Q 16.75 56 26.8125 56 
Q 31.78125 56 36.171875 55.265625 
Q 40.578125 54.546875 44.28125 53.078125 
z
" id="DejaVuSans-115"/>
     <path d="M 8.5 21.578125 
L 8.5 54.6875 
L 17.484375 54.6875 
L 17.484375 21.921875 
Q 17.484375 14.15625 20.5 10.265625 
Q 23.53125 6.390625 29.59375 6.390625 
Q 36.859375 6.390625 41.078125 11.03125 
Q 45.3125 15.671875 45.3125 23.6875 
L 45.3125 54.6875 
L 54.296875 54.6875 
L 54.296875 0 
L 45.3125 0 
L 45.3125 8.40625 
Q 42.046875 3.421875 37.71875 1 
Q 33.40625 -1.421875 27.6875 -1.421875 
Q 18.265625 -1.421875 13.375 4.4375 
Q 8.5 10.296875 8.5 21.578125 
z
M 31.109375 56 
z
" id="DejaVuSans-117"/>
     <path d="M 34.28125 27.484375 
Q 23.390625 27.484375 19.1875 25 
Q 14.984375 22.515625 14.984375 16.5 
Q 14.984375 11.71875 18.140625 8.90625 
Q 21.296875 6.109375 26.703125 6.109375 
Q 34.1875 6.109375 38.703125 11.40625 
Q 43.21875 16.703125 43.21875 25.484375 
L 43.21875 27.484375 
z
M 52.203125 31.203125 
L 52.203125 0 
L 43.21875 0 
L 43.21875 8.296875 
Q 40.140625 3.328125 35.546875 0.953125 
Q 30.953125 -1.421875 24.3125 -1.421875 
Q 15.921875 -1.421875 10.953125 3.296875 
Q 6 8.015625 6 15.921875 
Q 6 25.140625 12.171875 29.828125 
Q 18.359375 34.515625 30.609375 34.515625 
L 43.21875 34.515625 
L 43.21875 35.40625 
Q 43.21875 41.609375 39.140625 45 
Q 35.0625 48.390625 27.6875 48.390625 
Q 23 48.390625 18.546875 47.265625 
Q 14.109375 46.140625 10.015625 43.890625 
L 10.015625 52.203125 
Q 14.9375 54.109375 19.578125 55.046875 
Q 24.21875 56 28.609375 56 
Q 40.484375 56 46.34375 49.84375 
Q 52.203125 43.703125 52.203125 31.203125 
z
" id="DejaVuSans-97"/>
     <path d="M 18.3125 70.21875 
L 18.3125 54.6875 
L 36.8125 54.6875 
L 36.8125 47.703125 
L 18.3125 47.703125 
L 18.3125 18.015625 
Q 18.3125 11.328125 20.140625 9.421875 
Q 21.96875 7.515625 27.59375 7.515625 
L 36.8125 7.515625 
L 36.8125 0 
L 27.59375 0 
Q 17.1875 0 13.234375 3.875 
Q 9.28125 7.765625 9.28125 18.015625 
L 9.28125 47.703125 
L 2.6875 47.703125 
L 2.6875 54.6875 
L 9.28125 54.6875 
L 9.28125 70.21875 
z
" id="DejaVuSans-116"/>
     <path d="M 54.890625 33.015625 
L 54.890625 0 
L 45.90625 0 
L 45.90625 32.71875 
Q 45.90625 40.484375 42.875 44.328125 
Q 39.84375 48.1875 33.796875 48.1875 
Q 26.515625 48.1875 22.3125 43.546875 
Q 18.109375 38.921875 18.109375 30.90625 
L 18.109375 0 
L 9.078125 0 
L 9.078125 54.6875 
L 18.109375 54.6875 
L 18.109375 46.1875 
Q 21.34375 51.125 25.703125 53.5625 
Q 30.078125 56 35.796875 56 
Q 45.21875 56 50.046875 50.171875 
Q 54.890625 44.34375 54.890625 33.015625 
z
" id="DejaVuSans-110"/>
     <path d="M 11.71875 12.40625 
L 22.015625 12.40625 
L 22.015625 4 
L 14.015625 -11.625 
L 7.71875 -11.625 
L 11.71875 4 
z
" id="DejaVuSans-44"/>
     <path d="M 9.8125 72.90625 
L 24.515625 72.90625 
L 43.109375 23.296875 
L 61.8125 72.90625 
L 76.515625 72.90625 
L 76.515625 0 
L 66.890625 0 
L 66.890625 64.015625 
L 48.09375 14.015625 
L 38.1875 14.015625 
L 19.390625 64.015625 
L 19.390625 0 
L 9.8125 0 
z
" id="DejaVuSans-77"/>
     <path d="M 34.1875 63.1875 
L 20.796875 26.90625 
L 47.609375 26.90625 
z
M 28.609375 72.90625 
L 39.796875 72.90625 
L 67.578125 0 
L 57.328125 0 
L 50.6875 18.703125 
L 17.828125 18.703125 
L 11.1875 0 
L 0.78125 0 
z
" id="DejaVuSans-65"/>
     <path d="M 10.59375 45.40625 
L 73.1875 45.40625 
L 73.1875 37.203125 
L 10.59375 37.203125 
z
M 10.59375 25.484375 
L 73.1875 25.484375 
L 73.1875 17.1875 
L 10.59375 17.1875 
z
" id="DejaVuSans-61"/>
    </defs>
    <g transform="translate(181.744687 20.16)scale(0.12 -0.12)">
     <use xlink:href="#DejaVuSans-103"/>
     <use x="63.476562" xlink:href="#DejaVuSans-114"/>
     <use x="104.589844" xlink:href="#DejaVuSans-105"/>
     <use x="132.373047" xlink:href="#DejaVuSans-100"/>
     <use x="195.849609" xlink:href="#DejaVuSans-119"/>
     <use x="277.636719" xlink:href="#DejaVuSans-111"/>
     <use x="338.818359" xlink:href="#DejaVuSans-114"/>
     <use x="379.931641" xlink:href="#DejaVuSans-108"/>
     <use x="407.714844" xlink:href="#DejaVuSans-100"/>
     <use x="471.191406" xlink:href="#DejaVuSans-95"/>
     <use x="521.191406" xlink:href="#DejaVuSans-53"/>
     <use x="584.814453" xlink:href="#DejaVuSans-120"/>
     <use x="643.994141" xlink:href="#DejaVuSans-53"/>
     <use x="707.617188" xlink:href="#DejaVuSans-95"/>
     <use x="757.617188" xlink:href="#DejaVuSans-50"/>
     <use x="821.240234" xlink:href="#DejaVuSans-48"/>
     <use x="884.863281" xlink:href="#DejaVuSans-95"/>
     <use x="934.863281" xlink:href="#DejaVuSans-49"/>
     <use x="998.486328" xlink:href="#DejaVuSans-95"/>
     <use x="1048.486328" xlink:href="#DejaVuSans-50"/>
     <use x="1112.109375" xlink:href="#DejaVuSans-48"/>
     <use x="1175.732422" xlink:href="#DejaVuSans-95"/>
     <use x="1225.732422" xlink:href="#DejaVuSans-49"/>
     <use x="1289.355469" xlink:href="#DejaVuSans-51"/>
     <use x="1352.978516" xlink:href="#DejaVuSans-51"/>
     <use x="1416.601562" xlink:href="#DejaVuSans-55"/>
     <use x="1480.224609" xlink:href="#DejaVuSans-95"/>
     <use x="1530.224609" xlink:href="#DejaVuSans-95"/>
     <use x="1580.224609" xlink:href="#DejaVuSans-49"/>
     <use x="1643.847656" xlink:href="#DejaVuSans-58"/>
     <use x="1677.539062" xlink:href="#DejaVuSans-32"/>
     <use x="1709.326172" xlink:href="#DejaVuSans-101"/>
     <use x="1770.849609" xlink:href="#DejaVuSans-112"/>
     <use x="1834.326172" xlink:href="#DejaVuSans-105"/>
     <use x="1862.109375" xlink:href="#DejaVuSans-115"/>
     <use x="1914.208984" xlink:href="#DejaVuSans-111"/>
     <use x="1975.390625" xlink:href="#DejaVuSans-100"/>
     <use x="2038.867188" xlink:href="#DejaVuSans-101"/>
     <use x="2100.390625" xlink:href="#DejaVuSans-32"/>
     <use x="2132.177734" xlink:href="#DejaVuSans-100"/>
     <use x="2195.654297" xlink:href="#DejaVuSans-117"/>
     <use x="2259.033203" xlink:href="#DejaVuSans-114"/>
     <use x="2300.146484" xlink:href="#DejaVuSans-97"/>
     <use x="2361.425781" xlink:href="#DejaVuSans-116"/>
     <use x="2400.634766" xlink:href="#DejaVuSans-105"/>
     <use x="2428.417969" xlink:href="#DejaVuSans-111"/>
     <use x="2489.599609" xlink:href="#DejaVuSans-110"/>
     <use x="2552.978516" xlink:href="#DejaVuSans-44"/>
     <use x="2584.765625" xlink:href="#DejaVuSans-32"/>
     <use x="2616.552734" xlink:href="#DejaVuSans-115"/>
     <use x="2668.652344" xlink:href="#DejaVuSans-116"/>
     <use x="2707.861328" xlink:href="#DejaVuSans-101"/>
     <use x="2769.384766" xlink:href="#DejaVuSans-112"/>
     <use x="2832.861328" xlink:href="#DejaVuSans-115"/>
     <use x="2884.960938" xlink:href="#DejaVuSans-44"/>
     <use x="2916.748047" xlink:href="#DejaVuSans-32"/>
     <use x="2948.535156" xlink:href="#DejaVuSans-77"/>
     <use x="3034.814453" xlink:href="#DejaVuSans-65"/>
     <use x="3103.222656" xlink:href="#DejaVuSans-61"/>
     <use x="3187.011719" xlink:href="#DejaVuSans-52"/>
     <use x="3250.634766" xlink:href="#DejaVuSans-48"/>
    </g>
   </g>
   <g id="legend_1">
    <g id="patch_7">
     <path d="M 773.679125 231.59625 
L 854.751 231.59625 
Q 856.751 231.59625 856.751 229.59625 
L 856.751 200.68375 
Q 856.751 198.68375 854.751 198.68375 
L 773.679125 198.68375 
Q 771.679125 198.68375 771.679125 200.68375 
L 771.679125 229.59625 
Q 771.679125 231.59625 773.679125 231.59625 
z
" style="fill:#ffffff;opacity:0.8;stroke:#cccccc;stroke-linejoin:miter;"/>
    </g>
    <g id="line2d_19">
     <path d="M 775.679125 206.782187 
L 795.679125 206.782187 
" style="fill:none;stroke:#1f77b4;stroke-linecap:square;stroke-width:1.5;"/>
    </g>
    <g id="line2d_20"/>
    <g id="text_18">
     <!-- htm_1_1g -->
     <defs>
      <path d="M 54.890625 33.015625 
L 54.890625 0 
L 45.90625 0 
L 45.90625 32.71875 
Q 45.90625 40.484375 42.875 44.328125 
Q 39.84375 48.1875 33.796875 48.1875 
Q 26.515625 48.1875 22.3125 43.546875 
Q 18.109375 38.921875 18.109375 30.90625 
L 18.109375 0 
L 9.078125 0 
L 9.078125 75.984375 
L 18.109375 75.984375 
L 18.109375 46.1875 
Q 21.34375 51.125 25.703125 53.5625 
Q 30.078125 56 35.796875 56 
Q 45.21875 56 50.046875 50.171875 
Q 54.890625 44.34375 54.890625 33.015625 
z
" id="DejaVuSans-104"/>
      <path d="M 52 44.1875 
Q 55.375 50.25 60.0625 53.125 
Q 64.75 56 71.09375 56 
Q 79.640625 56 84.28125 50.015625 
Q 88.921875 44.046875 88.921875 33.015625 
L 88.921875 0 
L 79.890625 0 
L 79.890625 32.71875 
Q 79.890625 40.578125 77.09375 44.375 
Q 74.3125 48.1875 68.609375 48.1875 
Q 61.625 48.1875 57.5625 43.546875 
Q 53.515625 38.921875 53.515625 30.90625 
L 53.515625 0 
L 44.484375 0 
L 44.484375 32.71875 
Q 44.484375 40.625 41.703125 44.40625 
Q 38.921875 48.1875 33.109375 48.1875 
Q 26.21875 48.1875 22.15625 43.53125 
Q 18.109375 38.875 18.109375 30.90625 
L 18.109375 0 
L 9.078125 0 
L 9.078125 54.6875 
L 18.109375 54.6875 
L 18.109375 46.1875 
Q 21.1875 51.21875 25.484375 53.609375 
Q 29.78125 56 35.6875 56 
Q 41.65625 56 45.828125 52.96875 
Q 50 49.953125 52 44.1875 
z
" id="DejaVuSans-109"/>
     </defs>
     <g transform="translate(803.679125 210.282187)scale(0.1 -0.1)">
      <use xlink:href="#DejaVuSans-104"/>
      <use x="63.378906" xlink:href="#DejaVuSans-116"/>
      <use x="102.587891" xlink:href="#DejaVuSans-109"/>
      <use x="200" xlink:href="#DejaVuSans-95"/>
      <use x="250" xlink:href="#DejaVuSans-49"/>
      <use x="313.623047" xlink:href="#DejaVuSans-95"/>
      <use x="363.623047" xlink:href="#DejaVuSans-49"/>
      <use x="427.246094" xlink:href="#DejaVuSans-103"/>
     </g>
    </g>
    <g id="line2d_21">
     <path d="M 775.679125 221.738437 
L 795.679125 221.738437 
" style="fill:none;stroke:#ff7f0e;stroke-linecap:square;stroke-width:1.5;"/>
    </g>
    <g id="line2d_22"/>
    <g id="text_19">
     <!-- htm_1_4g -->
     <g transform="translate(803.679125 225.238437)scale(0.1 -0.1)">
      <use xlink:href="#DejaVuSans-104"/>
      <use x="63.378906" xlink:href="#DejaVuSans-116"/>
      <use x="102.587891" xlink:href="#DejaVuSans-109"/>
      <use x="200" xlink:href="#DejaVuSans-95"/>
      <use x="250" xlink:href="#DejaVuSans-49"/>
      <use x="313.623047" xlink:href="#DejaVuSans-95"/>
      <use x="363.623047" xlink:href="#DejaVuSans-52"/>
      <use x="427.246094" xlink:href="#DejaVuSans-103"/>
     </g>
    </g>
   </g>
  </g>
 </g>
 <defs>
  <clipPath id="p5e6761b4d4">
   <rect height="377.96" width="687.355" x="36.925" y="26.16"/>
  </clipPath>
 </defs>
</svg>
