<?xml version="1.0" encoding="utf-8" standalone="no"?>
<!DOCTYPE svg PUBLIC "-//W3C//DTD SVG 1.1//EN"
  "http://www.w3.org/Graphics/SVG/1.1/DTD/svg11.dtd">
<!-- Created with matplotlib (https://matplotlib.org/) -->
<svg height="432pt" version="1.1" viewBox="0 0 864 432" width="864pt" xmlns="http://www.w3.org/2000/svg" xmlns:xlink="http://www.w3.org/1999/xlink">
 <defs>
  <style type="text/css">
*{stroke-linecap:butt;stroke-linejoin:round;}
  </style>
 </defs>
 <g id="figure_1">
  <g id="patch_1">
   <path d="M 0 432 
L 864 432 
L 864 0 
L 0 0 
z
" style="fill:#ffffff;"/>
  </g>
  <g id="axes_1">
   <g id="patch_2">
    <path d="M 36.925 404.12 
L 724.28 404.12 
L 724.28 26.16 
L 36.925 26.16 
z
" style="fill:#ffffff;"/>
   </g>
   <g id="matplotlib.axis_1">
    <g id="xtick_1">
     <g id="line2d_1">
      <defs>
       <path d="M 0 0 
L 0 3.5 
" id="m3ea69837f6" style="stroke:#000000;stroke-width:0.8;"/>
      </defs>
      <g>
       <use style="stroke:#000000;stroke-width:0.8;" x="36.925" xlink:href="#m3ea69837f6" y="404.12"/>
      </g>
     </g>
     <g id="text_1">
      <!-- 0 -->
      <defs>
       <path d="M 31.78125 66.40625 
Q 24.171875 66.40625 20.328125 58.90625 
Q 16.5 51.421875 16.5 36.375 
Q 16.5 21.390625 20.328125 13.890625 
Q 24.171875 6.390625 31.78125 6.390625 
Q 39.453125 6.390625 43.28125 13.890625 
Q 47.125 21.390625 47.125 36.375 
Q 47.125 51.421875 43.28125 58.90625 
Q 39.453125 66.40625 31.78125 66.40625 
z
M 31.78125 74.21875 
Q 44.046875 74.21875 50.515625 64.515625 
Q 56.984375 54.828125 56.984375 36.375 
Q 56.984375 17.96875 50.515625 8.265625 
Q 44.046875 -1.421875 31.78125 -1.421875 
Q 19.53125 -1.421875 13.0625 8.265625 
Q 6.59375 17.96875 6.59375 36.375 
Q 6.59375 54.828125 13.0625 64.515625 
Q 19.53125 74.21875 31.78125 74.21875 
z
" id="DejaVuSans-48"/>
      </defs>
      <g transform="translate(33.74375 418.718437)scale(0.1 -0.1)">
       <use xlink:href="#DejaVuSans-48"/>
      </g>
     </g>
    </g>
    <g id="xtick_2">
     <g id="line2d_2">
      <g>
       <use style="stroke:#000000;stroke-width:0.8;" x="123.276131" xlink:href="#m3ea69837f6" y="404.12"/>
      </g>
     </g>
     <g id="text_2">
      <!-- 25 -->
      <defs>
       <path d="M 19.1875 8.296875 
L 53.609375 8.296875 
L 53.609375 0 
L 7.328125 0 
L 7.328125 8.296875 
Q 12.9375 14.109375 22.625 23.890625 
Q 32.328125 33.6875 34.8125 36.53125 
Q 39.546875 41.84375 41.421875 45.53125 
Q 43.3125 49.21875 43.3125 52.78125 
Q 43.3125 58.59375 39.234375 62.25 
Q 35.15625 65.921875 28.609375 65.921875 
Q 23.96875 65.921875 18.8125 64.3125 
Q 13.671875 62.703125 7.8125 59.421875 
L 7.8125 69.390625 
Q 13.765625 71.78125 18.9375 73 
Q 24.125 74.21875 28.421875 74.21875 
Q 39.75 74.21875 46.484375 68.546875 
Q 53.21875 62.890625 53.21875 53.421875 
Q 53.21875 48.921875 51.53125 44.890625 
Q 49.859375 40.875 45.40625 35.40625 
Q 44.1875 33.984375 37.640625 27.21875 
Q 31.109375 20.453125 19.1875 8.296875 
z
" id="DejaVuSans-50"/>
       <path d="M 10.796875 72.90625 
L 49.515625 72.90625 
L 49.515625 64.59375 
L 19.828125 64.59375 
L 19.828125 46.734375 
Q 21.96875 47.46875 24.109375 47.828125 
Q 26.265625 48.1875 28.421875 48.1875 
Q 40.625 48.1875 47.75 41.5 
Q 54.890625 34.8125 54.890625 23.390625 
Q 54.890625 11.625 47.5625 5.09375 
Q 40.234375 -1.421875 26.90625 -1.421875 
Q 22.3125 -1.421875 17.546875 -0.640625 
Q 12.796875 0.140625 7.71875 1.703125 
L 7.71875 11.625 
Q 12.109375 9.234375 16.796875 8.0625 
Q 21.484375 6.890625 26.703125 6.890625 
Q 35.15625 6.890625 40.078125 11.328125 
Q 45.015625 15.765625 45.015625 23.390625 
Q 45.015625 31 40.078125 35.4375 
Q 35.15625 39.890625 26.703125 39.890625 
Q 22.75 39.890625 18.8125 39.015625 
Q 14.890625 38.140625 10.796875 36.28125 
z
" id="DejaVuSans-53"/>
      </defs>
      <g transform="translate(116.913631 418.718437)scale(0.1 -0.1)">
       <use xlink:href="#DejaVuSans-50"/>
       <use x="63.623047" xlink:href="#DejaVuSans-53"/>
      </g>
     </g>
    </g>
    <g id="xtick_3">
     <g id="line2d_3">
      <g>
       <use style="stroke:#000000;stroke-width:0.8;" x="209.627261" xlink:href="#m3ea69837f6" y="404.12"/>
      </g>
     </g>
     <g id="text_3">
      <!-- 50 -->
      <g transform="translate(203.264761 418.718437)scale(0.1 -0.1)">
       <use xlink:href="#DejaVuSans-53"/>
       <use x="63.623047" xlink:href="#DejaVuSans-48"/>
      </g>
     </g>
    </g>
    <g id="xtick_4">
     <g id="line2d_4">
      <g>
       <use style="stroke:#000000;stroke-width:0.8;" x="295.978392" xlink:href="#m3ea69837f6" y="404.12"/>
      </g>
     </g>
     <g id="text_4">
      <!-- 75 -->
      <defs>
       <path d="M 8.203125 72.90625 
L 55.078125 72.90625 
L 55.078125 68.703125 
L 28.609375 0 
L 18.3125 0 
L 43.21875 64.59375 
L 8.203125 64.59375 
z
" id="DejaVuSans-55"/>
      </defs>
      <g transform="translate(289.615892 418.718437)scale(0.1 -0.1)">
       <use xlink:href="#DejaVuSans-55"/>
       <use x="63.623047" xlink:href="#DejaVuSans-53"/>
      </g>
     </g>
    </g>
    <g id="xtick_5">
     <g id="line2d_5">
      <g>
       <use style="stroke:#000000;stroke-width:0.8;" x="382.329523" xlink:href="#m3ea69837f6" y="404.12"/>
      </g>
     </g>
     <g id="text_5">
      <!-- 100 -->
      <defs>
       <path d="M 12.40625 8.296875 
L 28.515625 8.296875 
L 28.515625 63.921875 
L 10.984375 60.40625 
L 10.984375 69.390625 
L 28.421875 72.90625 
L 38.28125 72.90625 
L 38.28125 8.296875 
L 54.390625 8.296875 
L 54.390625 0 
L 12.40625 0 
z
" id="DejaVuSans-49"/>
      </defs>
      <g transform="translate(372.785773 418.718437)scale(0.1 -0.1)">
       <use xlink:href="#DejaVuSans-49"/>
       <use x="63.623047" xlink:href="#DejaVuSans-48"/>
       <use x="127.246094" xlink:href="#DejaVuSans-48"/>
      </g>
     </g>
    </g>
    <g id="xtick_6">
     <g id="line2d_6">
      <g>
       <use style="stroke:#000000;stroke-width:0.8;" x="468.680653" xlink:href="#m3ea69837f6" y="404.12"/>
      </g>
     </g>
     <g id="text_6">
      <!-- 125 -->
      <g transform="translate(459.136903 418.718437)scale(0.1 -0.1)">
       <use xlink:href="#DejaVuSans-49"/>
       <use x="63.623047" xlink:href="#DejaVuSans-50"/>
       <use x="127.246094" xlink:href="#DejaVuSans-53"/>
      </g>
     </g>
    </g>
    <g id="xtick_7">
     <g id="line2d_7">
      <g>
       <use style="stroke:#000000;stroke-width:0.8;" x="555.031784" xlink:href="#m3ea69837f6" y="404.12"/>
      </g>
     </g>
     <g id="text_7">
      <!-- 150 -->
      <g transform="translate(545.488034 418.718437)scale(0.1 -0.1)">
       <use xlink:href="#DejaVuSans-49"/>
       <use x="63.623047" xlink:href="#DejaVuSans-53"/>
       <use x="127.246094" xlink:href="#DejaVuSans-48"/>
      </g>
     </g>
    </g>
    <g id="xtick_8">
     <g id="line2d_8">
      <g>
       <use style="stroke:#000000;stroke-width:0.8;" x="641.382915" xlink:href="#m3ea69837f6" y="404.12"/>
      </g>
     </g>
     <g id="text_8">
      <!-- 175 -->
      <g transform="translate(631.839165 418.718437)scale(0.1 -0.1)">
       <use xlink:href="#DejaVuSans-49"/>
       <use x="63.623047" xlink:href="#DejaVuSans-55"/>
       <use x="127.246094" xlink:href="#DejaVuSans-53"/>
      </g>
     </g>
    </g>
   </g>
   <g id="matplotlib.axis_2">
    <g id="ytick_1">
     <g id="line2d_9">
      <defs>
       <path d="M 0 0 
L -3.5 0 
" id="mdfad9995c8" style="stroke:#000000;stroke-width:0.8;"/>
      </defs>
      <g>
       <use style="stroke:#000000;stroke-width:0.8;" x="36.925" xlink:href="#mdfad9995c8" y="368.074241"/>
      </g>
     </g>
     <g id="text_9">
      <!-- 50 -->
      <g transform="translate(17.2 371.87346)scale(0.1 -0.1)">
       <use xlink:href="#DejaVuSans-53"/>
       <use x="63.623047" xlink:href="#DejaVuSans-48"/>
      </g>
     </g>
    </g>
    <g id="ytick_2">
     <g id="line2d_10">
      <g>
       <use style="stroke:#000000;stroke-width:0.8;" x="36.925" xlink:href="#mdfad9995c8" y="294.379871"/>
      </g>
     </g>
     <g id="text_10">
      <!-- 100 -->
      <g transform="translate(10.8375 298.17909)scale(0.1 -0.1)">
       <use xlink:href="#DejaVuSans-49"/>
       <use x="63.623047" xlink:href="#DejaVuSans-48"/>
       <use x="127.246094" xlink:href="#DejaVuSans-48"/>
      </g>
     </g>
    </g>
    <g id="ytick_3">
     <g id="line2d_11">
      <g>
       <use style="stroke:#000000;stroke-width:0.8;" x="36.925" xlink:href="#mdfad9995c8" y="220.685501"/>
      </g>
     </g>
     <g id="text_11">
      <!-- 150 -->
      <g transform="translate(10.8375 224.48472)scale(0.1 -0.1)">
       <use xlink:href="#DejaVuSans-49"/>
       <use x="63.623047" xlink:href="#DejaVuSans-53"/>
       <use x="127.246094" xlink:href="#DejaVuSans-48"/>
      </g>
     </g>
    </g>
    <g id="ytick_4">
     <g id="line2d_12">
      <g>
       <use style="stroke:#000000;stroke-width:0.8;" x="36.925" xlink:href="#mdfad9995c8" y="146.991131"/>
      </g>
     </g>
     <g id="text_12">
      <!-- 200 -->
      <g transform="translate(10.8375 150.79035)scale(0.1 -0.1)">
       <use xlink:href="#DejaVuSans-50"/>
       <use x="63.623047" xlink:href="#DejaVuSans-48"/>
       <use x="127.246094" xlink:href="#DejaVuSans-48"/>
      </g>
     </g>
    </g>
    <g id="ytick_5">
     <g id="line2d_13">
      <g>
       <use style="stroke:#000000;stroke-width:0.8;" x="36.925" xlink:href="#mdfad9995c8" y="73.296761"/>
      </g>
     </g>
     <g id="text_13">
      <!-- 250 -->
      <g transform="translate(10.8375 77.09598)scale(0.1 -0.1)">
       <use xlink:href="#DejaVuSans-50"/>
       <use x="63.623047" xlink:href="#DejaVuSans-53"/>
       <use x="127.246094" xlink:href="#DejaVuSans-48"/>
      </g>
     </g>
    </g>
   </g>
   <g id="line2d_14">
    <path clip-path="url(#pa662ec2b4a)" d="M 171.632764 384.287003 
L 175.086809 379.275786 
L 181.994899 380.27066 
L 185.448945 378.612536 
L 188.90299 378.4283 
L 192.357035 378.096676 
L 195.81108 378.096676 
L 199.265126 382.039324 
L 202.719171 386.571528 
L 206.173216 386.94 
L 213.081307 378.944161 
L 216.535352 380.123271 
L 219.989397 382.407796 
L 226.897487 382.518338 
L 230.351533 377.765051 
L 233.805578 380.307507 
L 237.259623 381.412922 
L 240.713668 381.855088 
L 244.167714 381.670853 
L 247.621759 382.334102 
L 251.075804 381.118145 
L 254.529849 380.749673 
L 257.983894 379.423174 
L 261.43794 381.523464 
L 264.891985 381.597158 
L 268.34603 370.874627 
L 271.800075 370.800933 
L 275.254121 368.000547 
L 278.708166 370.506155 
L 282.162211 367.632075 
L 285.616256 368.000547 
L 289.070302 366.305576 
L 292.524347 368.037394 
L 295.978392 367.9637 
L 299.432437 367.521534 
L 306.340528 371.09571 
L 309.794573 369.806059 
L 313.248618 377.138649 
L 316.702663 376.328011 
L 320.156709 375.222595 
L 323.610754 378.391453 
L 327.064799 373.417083 
L 330.518844 362.841941 
L 333.972889 361.146971 
L 337.426935 361.81022 
L 340.88098 360.88904 
L 344.335025 360.667957 
L 347.78907 364.979078 
L 351.243116 372.090584 
L 354.697161 374.485651 
L 361.605251 374.448804 
L 365.059296 373.896097 
L 368.513342 378.575689 
L 371.967387 373.048611 
L 375.421432 372.422209 
L 378.875477 372.385362 
L 382.329523 365.973952 
L 385.783568 365.089619 
L 389.237613 366.452965 
L 392.691658 366.747743 
L 396.145704 364.131592 
L 399.599749 353.114284 
L 403.053794 352.819507 
L 406.507839 362.952483 
L 409.961884 359.046681 
L 413.41593 353.187979 
L 416.869975 352.045716 
L 420.32402 352.340493 
L 423.778065 343.202391 
L 427.232111 342.539142 
L 430.686156 344.749973 
L 434.140201 341.986434 
L 437.594246 341.396879 
L 441.048291 341.138949 
L 444.502337 340.586241 
L 447.956382 341.765351 
L 451.410427 341.249491 
L 454.864472 337.233147 
L 458.318518 337.638466 
L 461.772563 337.491078 
L 465.226608 342.83392 
L 468.680653 353.777534 
L 472.134698 355.361962 
L 475.588744 354.772408 
L 479.042789 352.819507 
L 482.496834 350.534981 
L 485.950879 346.813416 
L 492.85897 346.850263 
L 496.313015 345.818542 
L 499.76706 336.422509 
L 503.221106 336.864676 
L 506.675151 334.469609 
L 510.129196 339.628214 
L 513.583241 339.03866 
L 517.037286 340.549394 
L 520.491332 342.944461 
L 523.945377 332.848332 
L 527.399422 332.258777 
L 530.853467 331.890306 
L 534.307513 331.816611 
L 537.761558 342.060129 
L 541.215603 342.244365 
L 544.669648 339.222895 
L 548.123693 343.165544 
L 551.577739 342.870767 
L 555.031784 343.09185 
L 558.485829 341.212643 
L 561.939874 352.156257 
L 565.39392 352.229952 
L 568.847965 352.045716 
L 572.30201 353.04059 
L 575.756055 351.714091 
L 579.210101 352.193105 
L 582.664146 353.114284 
L 586.118191 353.593298 
L 589.572236 352.414188 
L 593.026281 357.793877 
L 596.480327 359.083528 
L 599.934372 357.535946 
L 603.388417 356.172601 
L 606.842462 353.519603 
L 610.296508 352.229952 
L 613.750553 350.756064 
L 617.204598 353.224826 
L 620.658643 351.456161 
L 624.112688 353.703839 
L 631.020779 353.593298 
L 634.474824 348.987399 
L 637.928869 352.966895 
L 641.382915 352.966895 
L 644.83696 355.288268 
L 648.291005 353.924922 
L 651.74505 355.177727 
L 655.199095 353.261673 
L 658.653141 357.314863 
L 662.107186 364.721147 
L 665.561231 366.268729 
L 669.015276 366.047646 
L 672.469322 359.046681 
L 679.377412 359.488847 
L 682.831457 361.441748 
L 686.285503 361.441748 
L 689.739548 370.174531 
L 693.193593 366.747743 
L 696.647638 371.795807 
L 700.101683 367.890005 
L 703.555729 361.478595 
L 707.009774 361.589137 
L 710.463819 359.525694 
L 713.917864 360.152097 
L 717.37191 359.967861 
L 724.28 359.230917 
L 724.28 359.230917 
" style="fill:none;stroke:#1f77b4;stroke-linecap:square;stroke-width:1.5;"/>
   </g>
   <g id="line2d_15">
    <path clip-path="url(#pa662ec2b4a)" d="M 171.632764 76.576161 
L 178.540854 76.576161 
L 181.994899 65.558853 
L 192.357035 65.558853 
L 195.81108 54.541544 
L 199.265126 65.522005 
L 206.173216 65.522005 
L 209.627261 54.578391 
L 216.535352 54.578391 
L 219.989397 65.5957 
L 223.443442 65.5957 
L 226.897487 54.578391 
L 251.075804 54.578391 
L 254.529849 65.522005 
L 261.43794 65.522005 
L 264.891985 54.578391 
L 268.34603 54.578391 
L 271.800075 65.485158 
L 275.254121 54.46785 
L 282.162211 54.46785 
L 285.616256 43.450542 
L 292.524347 43.450542 
L 295.978392 54.46785 
L 313.248618 54.46785 
L 316.702663 65.374617 
L 320.156709 65.374617 
L 323.610754 76.391925 
L 340.88098 76.355078 
L 344.335025 87.335539 
L 351.243116 87.335539 
L 354.697161 98.352847 
L 358.151206 87.335539 
L 406.507839 87.409233 
L 409.961884 76.502466 
L 420.32402 76.502466 
L 423.778065 87.482928 
L 427.232111 87.482928 
L 430.686156 98.426542 
L 434.140201 87.409233 
L 451.410427 87.409233 
L 454.864472 76.502466 
L 458.318518 76.502466 
L 461.772563 65.485158 
L 472.134698 65.485158 
L 475.588744 54.541544 
L 479.042789 54.541544 
L 482.496834 43.561083 
L 485.950879 43.561083 
L 489.404925 54.46785 
L 492.85897 43.450542 
L 499.76706 43.450542 
L 503.221106 54.394155 
L 510.129196 54.394155 
L 513.583241 65.300922 
L 527.399422 65.300922 
L 530.853467 54.283614 
L 537.761558 54.283614 
L 541.215603 65.264075 
L 558.485829 65.264075 
L 561.939874 54.283614 
L 565.39392 54.283614 
L 568.847965 43.34 
L 575.756055 43.34 
L 579.210101 54.357308 
L 582.664146 54.357308 
L 589.572236 76.281383 
L 593.026281 76.281383 
L 596.480327 87.298692 
L 624.112688 87.298692 
L 627.566734 76.391925 
L 631.020779 87.409233 
L 637.928869 87.409233 
L 641.382915 76.465619 
L 662.107186 76.576161 
L 665.561231 87.593469 
L 682.831457 87.630316 
L 686.285503 98.647625 
L 696.647638 98.647625 
L 700.101683 109.44385 
L 713.917864 109.44385 
L 717.37191 98.426542 
L 724.28 98.426542 
L 724.28 98.426542 
" style="fill:none;stroke:#ff7f0e;stroke-linecap:square;stroke-width:1.5;"/>
   </g>
   <g id="line2d_16">
    <path clip-path="url(#pa662ec2b4a)" d="M 171.632764 319.951818 
L 175.086809 318.293694 
L 178.540854 318.146306 
L 181.994899 317.519903 
L 185.448945 317.519903 
L 188.90299 316.082863 
L 192.357035 317.114584 
L 195.81108 319.288568 
L 199.265126 329.421544 
L 202.719171 340.402005 
L 206.173216 341.286338 
L 209.627261 350.387592 
L 213.081307 347.660901 
L 216.535352 344.123571 
L 223.443442 343.055003 
L 226.897487 343.09185 
L 230.351533 344.418349 
L 233.805578 348.176761 
L 237.259623 348.987399 
L 240.713668 345.376375 
L 244.167714 344.676279 
L 247.621759 344.602584 
L 251.075804 333.585276 
L 254.529849 333.474735 
L 261.43794 332.774638 
L 264.891985 343.60771 
L 268.34603 332.774638 
L 271.800075 331.558681 
L 275.254121 322.088954 
L 278.708166 324.963035 
L 282.162211 324.741952 
L 285.616256 313.761491 
L 289.070302 311.919131 
L 299.432437 311.845437 
L 302.886482 322.825898 
L 306.340528 321.536247 
L 309.794573 321.130928 
L 313.248618 325.29466 
L 316.702663 315.86178 
L 320.156709 314.608976 
L 323.610754 320.651914 
L 327.064799 322.052107 
L 330.518844 311.476965 
L 333.972889 311.034799 
L 337.426935 311.80859 
L 340.88098 309.487217 
L 344.335025 309.045051 
L 347.78907 310.445244 
L 351.243116 310.445244 
L 354.697161 321.352011 
L 358.151206 321.462552 
L 361.605251 322.199496 
L 365.059296 319.583346 
L 368.513342 316.819807 
L 371.967387 309.081898 
L 375.421432 309.339828 
L 378.875477 310.88741 
L 382.329523 310.039925 
L 385.783568 299.206853 
L 389.237613 309.155592 
L 392.691658 308.971357 
L 396.145704 308.566038 
L 399.599749 305.581416 
L 403.053794 305.176097 
L 406.507839 314.129962 
L 409.961884 308.01333 
L 413.41593 308.01333 
L 416.869975 308.197566 
L 420.32402 307.755399 
L 423.778065 313.098241 
L 427.232111 313.540408 
L 430.686156 313.540408 
L 437.594246 292.058499 
L 441.048291 292.021651 
L 444.502337 293.200761 
L 447.956382 291.984804 
L 451.410427 289.147571 
L 454.864472 299.833255 
L 458.318518 302.007239 
L 461.772563 306.797373 
L 465.226608 304.623389 
L 468.680653 304.623389 
L 472.134698 301.60192 
L 475.588744 300.570198 
L 479.042789 301.086059 
L 485.950879 293.384997 
L 489.404925 303.370584 
L 496.313015 303.628515 
L 499.76706 298.985769 
L 503.221106 300.607046 
L 506.675151 303.075807 
L 510.129196 300.091185 
L 513.583241 289.147571 
L 517.037286 291.91111 
L 520.491332 285.905019 
L 523.945377 285.905019 
L 527.399422 285.352311 
L 530.853467 274.62978 
L 534.307513 273.340129 
L 537.761558 265.749609 
L 541.215603 264.128332 
L 544.669648 266.081233 
L 548.123693 273.155893 
L 551.577739 283.178327 
L 555.031784 273.266434 
L 558.485829 266.412858 
L 561.939874 271.497769 
L 565.39392 272.234713 
L 568.847965 282.957244 
L 572.30201 292.132193 
L 575.756055 302.412558 
L 579.210101 302.486252 
L 582.664146 301.565072 
L 586.118191 303.29689 
L 589.572236 304.623389 
L 593.026281 302.707335 
L 596.480327 302.781029 
L 599.934372 302.707335 
L 603.388417 301.528225 
L 606.842462 312.32445 
L 610.296508 314.830059 
L 613.750553 312.877158 
L 617.204598 314.572129 
L 620.658643 315.087989 
L 624.112688 318.330542 
L 627.566734 319.178027 
L 631.020779 318.441083 
L 634.474824 316.230252 
L 637.928869 309.929383 
L 641.382915 310.88741 
L 644.83696 311.182188 
L 651.74505 332.737791 
L 655.199095 321.941566 
L 658.653141 328.574059 
L 662.107186 338.264869 
L 665.561231 339.775603 
L 669.015276 349.945426 
L 672.469322 344.086724 
L 675.923367 344.086724 
L 679.377412 345.96593 
L 682.831457 344.823668 
L 686.285503 345.228987 
L 689.739548 345.376375 
L 693.193593 345.376375 
L 696.647638 352.229952 
L 700.101683 351.235078 
L 703.555729 349.724343 
L 707.009774 348.840011 
L 710.463819 348.213609 
L 713.917864 337.933244 
L 717.37191 330.563807 
L 724.28 331.190209 
L 724.28 331.190209 
" style="fill:none;stroke:#2ca02c;stroke-linecap:square;stroke-width:1.5;"/>
   </g>
   <g id="line2d_17">
    <path clip-path="url(#pa662ec2b4a)" d="M 171.632764 328.131893 
L 175.086809 329.86371 
L 178.540854 320.283442 
L 181.994899 321.278316 
L 185.448945 321.278316 
L 188.90299 317.409362 
L 192.357035 317.519903 
L 195.81108 317.446209 
L 199.265126 328.42667 
L 202.719171 330.858584 
L 206.173216 320.83615 
L 209.627261 328.242434 
L 213.081307 326.547464 
L 216.535352 323.010134 
L 219.989397 320.57822 
L 226.897487 298.801534 
L 230.351533 298.654145 
L 233.805578 301.85985 
L 237.259623 302.044086 
L 240.713668 291.947957 
L 244.167714 289.29496 
L 247.621759 288.37378 
L 251.075804 279.530456 
L 257.983894 257.495839 
L 261.43794 257.643228 
L 264.891985 268.21837 
L 271.800075 246.515378 
L 275.254121 245.778434 
L 278.708166 249.868472 
L 282.162211 249.573694 
L 285.616256 249.536847 
L 289.070302 248.910445 
L 295.978392 248.873598 
L 299.432437 243.936075 
L 302.886482 245.041491 
L 306.340528 244.746713 
L 309.794573 254.990231 
L 313.248618 255.285008 
L 323.610754 255.285008 
L 327.064799 259.780365 
L 330.518844 248.799903 
L 337.426935 248.836751 
L 340.88098 250.200097 
L 344.335025 250.200097 
L 347.78907 248.431432 
L 351.243116 248.431432 
L 354.697161 259.301351 
L 358.151206 263.207153 
L 361.605251 263.207153 
L 365.059296 273.708601 
L 368.513342 272.640032 
L 371.967387 262.470209 
L 375.421432 261.659571 
L 378.875477 264.717887 
L 382.329523 266.670788 
L 385.783568 256.685201 
L 389.237613 264.349416 
L 392.691658 275.366724 
L 396.145704 283.988965 
L 399.599749 281.814981 
L 403.053794 282.2203 
L 406.507839 292.721748 
L 409.961884 302.744182 
L 413.41593 294.011399 
L 416.869975 291.579485 
L 420.32402 290.510917 
L 423.778065 290.547764 
L 427.232111 280.267399 
L 430.686156 290.953083 
L 434.140201 279.972622 
L 437.594246 283.436257 
L 441.048291 282.994091 
L 444.502337 272.566338 
L 447.956382 272.27156 
L 451.410427 271.792547 
L 454.864472 271.792547 
L 458.318518 268.365759 
L 461.772563 279.309373 
L 465.226608 279.309373 
L 468.680653 290.289834 
L 472.134698 279.34622 
L 475.588744 277.761791 
L 479.042789 267.03926 
L 482.496834 267.03926 
L 485.950879 261.401641 
L 489.404925 271.018756 
L 499.76706 270.908214 
L 503.221106 260.406767 
L 506.675151 262.654445 
L 510.129196 262.654445 
L 513.583241 253.405802 
L 517.037286 256.685201 
L 520.491332 256.427271 
L 523.945377 256.427271 
L 527.399422 246.589072 
L 530.853467 245.409962 
L 534.307513 247.547099 
L 537.761558 247.14178 
L 541.215603 247.031239 
L 544.669648 246.552225 
L 548.123693 247.289169 
L 551.577739 257.864311 
L 555.031784 252.889941 
L 558.485829 249.610542 
L 561.939874 249.057834 
L 565.39392 259.301351 
L 568.847965 259.338198 
L 572.30201 268.513147 
L 575.756055 269.360633 
L 579.210101 269.950188 
L 582.664146 279.677845 
L 586.118191 280.377941 
L 589.572236 279.825233 
L 593.026281 288.594863 
L 596.480327 292.095346 
L 599.934372 291.579485 
L 603.388417 287.710531 
L 606.842462 287.526295 
L 610.296508 297.585576 
L 613.750553 296.074842 
L 617.204598 306.944761 
L 620.658643 314.093115 
L 624.112688 324.041855 
L 627.566734 325.257812 
L 631.020779 324.705105 
L 634.474824 320.909845 
L 637.928869 320.909845 
L 641.382915 331.890306 
L 644.83696 332.185083 
L 651.74505 353.740686 
L 655.199095 357.241169 
L 658.653141 357.646488 
L 662.107186 357.646488 
L 665.561231 368.626949 
L 669.015276 369.65867 
L 672.469322 360.37318 
L 675.923367 361.883914 
L 679.377412 362.031303 
L 682.831457 352.008869 
L 686.285503 351.60355 
L 689.739548 352.008869 
L 693.193593 348.471539 
L 696.647638 353.003743 
L 700.101683 351.013995 
L 703.555729 349.466413 
L 707.009774 348.58208 
L 710.463819 347.955678 
L 713.917864 337.675314 
L 717.37191 330.305877 
L 720.825955 330.52696 
L 724.28 330.895432 
L 724.28 330.895432 
" style="fill:none;stroke:#d62728;stroke-linecap:square;stroke-width:1.5;"/>
   </g>
   <g id="line2d_18">
    <path clip-path="url(#pa662ec2b4a)" d="M 171.632764 307.423775 
L 175.086809 298.912075 
L 178.540854 299.280547 
L 181.994899 299.980643 
L 185.448945 310.37155 
L 188.90299 299.391088 
L 192.357035 298.985769 
L 195.81108 298.985769 
L 199.265126 309.966231 
L 202.719171 311.882284 
L 206.173216 313.540408 
L 209.627261 313.540408 
L 213.081307 322.678509 
L 216.535352 312.582381 
L 219.989397 306.981609 
L 223.443442 296.111689 
L 226.897487 296.111689 
L 230.351533 294.969426 
L 233.805578 297.40134 
L 237.259623 296.185383 
L 240.713668 293.311303 
L 244.167714 289.773973 
L 247.621759 289.405501 
L 251.075804 278.388193 
L 254.529849 275.624654 
L 257.983894 265.123206 
L 261.43794 265.196901 
L 264.891985 268.107828 
L 268.34603 268.107828 
L 271.800075 257.09052 
L 275.254121 256.464118 
L 278.708166 256.57466 
L 282.162211 258.859185 
L 285.616256 258.859185 
L 289.070302 255.985105 
L 292.524347 255.985105 
L 295.978392 256.611507 
L 299.432437 255.616633 
L 302.886482 266.081233 
L 306.340528 266.412858 
L 313.248618 266.412858 
L 316.702663 266.228622 
L 320.156709 266.339164 
L 323.610754 266.965566 
L 327.064799 277.577555 
L 330.518844 267.334038 
L 333.972889 256.316729 
L 337.426935 256.279882 
L 340.88098 255.837716 
L 344.335025 247.362863 
L 347.78907 258.085394 
L 351.243116 247.657641 
L 354.697161 258.674949 
L 358.151206 268.365759 
L 361.605251 279.161984 
L 365.059296 268.144676 
L 371.967387 250.347485 
L 375.421432 252.558316 
L 382.329523 257.606381 
L 389.237613 257.606381 
L 392.691658 259.854059 
L 396.145704 259.854059 
L 399.599749 259.227657 
L 403.053794 259.117115 
L 406.507839 267.002413 
L 409.961884 277.872332 
L 413.41593 267.739357 
L 416.869975 267.03926 
L 420.32402 264.275721 
L 423.778065 275.256182 
L 427.232111 267.112954 
L 430.686156 276.508987 
L 434.140201 269.765952 
L 437.594246 270.908214 
L 441.048291 260.443614 
L 444.502337 251.305512 
L 447.956382 262.175432 
L 451.410427 262.175432 
L 454.864472 261.327946 
L 458.318518 250.531721 
L 465.226608 249.426306 
L 468.680653 249.426306 
L 472.134698 260.185684 
L 475.588744 260.185684 
L 479.042789 258.969727 
L 482.496834 269.323786 
L 485.950879 258.601255 
L 492.85897 258.601255 
L 496.313015 259.338198 
L 499.76706 256.57466 
L 503.221106 266.891871 
L 506.675151 266.891871 
L 510.129196 274.37185 
L 513.583241 263.538777 
L 517.037286 265.012665 
L 520.491332 254.990231 
L 523.945377 253.847968 
L 527.399422 264.275721 
L 530.853467 253.811121 
L 534.307513 263.538777 
L 537.761558 253.147871 
L 541.215603 252.005609 
L 544.669648 254.769147 
L 551.577739 254.769147 
L 555.031784 253.000483 
L 558.485829 254.621759 
L 561.939874 248.873598 
L 565.39392 258.343324 
L 568.847965 259.817212 
L 572.30201 264.902123 
L 575.756055 264.717887 
L 579.210101 275.366724 
L 582.664146 282.846702 
L 586.118191 281.114885 
L 589.572236 291.100472 
L 593.026281 293.016525 
L 596.480327 303.923292 
L 599.934372 303.849598 
L 603.388417 301.823003 
L 606.842462 311.476965 
L 610.296508 310.813716 
L 613.750553 309.008204 
L 617.204598 300.42281 
L 620.658643 300.68074 
L 624.112688 310.703174 
L 627.566734 321.425705 
L 631.020779 321.204622 
L 634.474824 318.699013 
L 637.928869 321.241469 
L 641.382915 321.941566 
L 644.83696 321.941566 
L 648.291005 322.93644 
L 651.74505 332.295625 
L 655.199095 322.531121 
L 658.653141 322.531121 
L 662.107186 324.152397 
L 665.561231 313.724643 
L 669.015276 313.724643 
L 672.469322 303.996987 
L 675.923367 314.68267 
L 679.377412 316.340794 
L 682.831457 314.940601 
L 686.285503 314.903753 
L 689.739548 325.699979 
L 693.193593 317.151432 
L 696.647638 317.409362 
L 700.101683 320.651914 
L 703.555729 321.057233 
L 707.009774 310.187314 
L 710.463819 300.828129 
L 717.37191 279.419914 
L 720.825955 270.171271 
L 724.28 272.050477 
L 724.28 272.050477 
" style="fill:none;stroke:#9467bd;stroke-linecap:square;stroke-width:1.5;"/>
   </g>
   <g id="line2d_19">
    <path clip-path="url(#pa662ec2b4a)" d="M 171.632764 290.842542 
L 175.086809 282.330842 
L 181.994899 303.03896 
L 185.448945 292.132193 
L 188.90299 288.742252 
L 195.81108 288.63171 
L 199.265126 288.63171 
L 202.719171 278.793512 
L 206.173216 280.635871 
L 209.627261 280.635871 
L 213.081307 290.805694 
L 216.535352 281.520204 
L 219.989397 281.925523 
L 223.443442 281.483357 
L 226.897487 281.483357 
L 230.351533 279.125137 
L 233.805578 279.60415 
L 237.259623 279.898928 
L 240.713668 276.103668 
L 244.167714 273.19274 
L 247.621759 274.003378 
L 251.075804 262.98607 
L 254.529849 262.949223 
L 257.983894 252.447775 
L 261.43794 256.758895 
L 264.891985 246.036365 
L 271.800075 246.036365 
L 282.162211 245.078338 
L 285.616256 234.061029 
L 289.070302 233.692558 
L 292.524347 244.083464 
L 295.978392 255.063925 
L 299.432437 254.290134 
L 302.886482 264.717887 
L 306.340528 266.78133 
L 309.794573 266.78133 
L 313.248618 277.761791 
L 316.702663 267.555121 
L 320.156709 264.902123 
L 323.610754 275.919432 
L 327.064799 279.051442 
L 330.518844 268.181523 
L 333.972889 268.181523 
L 340.88098 290.179292 
L 344.335025 285.057534 
L 347.78907 295.70637 
L 351.243116 285.536547 
L 354.697161 296.074842 
L 358.151206 296.074842 
L 361.605251 296.332772 
L 365.059296 285.315464 
L 368.513342 278.314499 
L 371.967387 274.077072 
L 375.421432 275.071946 
L 378.875477 274.556086 
L 382.329523 276.73007 
L 385.783568 266.855024 
L 392.691658 266.891871 
L 396.145704 274.298155 
L 399.599749 273.045351 
L 403.053794 283.841576 
L 406.507839 283.841576 
L 409.961884 273.008504 
L 413.41593 272.124172 
L 416.869975 272.087324 
L 420.32402 269.323786 
L 423.778065 280.304247 
L 430.686156 259.338198 
L 434.140201 258.417019 
L 437.594246 258.932879 
L 441.048291 248.505126 
L 444.502337 247.878724 
L 447.956382 258.859185 
L 451.410427 258.380172 
L 454.864472 258.380172 
L 458.318518 260.185684 
L 461.772563 260.111989 
L 468.680653 260.222531 
L 472.134698 270.687131 
L 475.588744 270.355507 
L 479.042789 259.375046 
L 482.496834 259.375046 
L 485.950879 248.726209 
L 489.404925 258.859185 
L 492.85897 259.227657 
L 496.313015 258.859185 
L 503.221106 258.748643 
L 506.675151 269.618563 
L 510.129196 273.708601 
L 513.583241 262.949223 
L 517.037286 256.648354 
L 520.491332 256.058799 
L 527.399422 256.058799 
L 530.853467 247.915571 
L 534.307513 251.416054 
L 537.761558 250.863346 
L 541.215603 240.067121 
L 544.669648 240.067121 
L 548.123693 250.752804 
L 551.577739 241.061995 
L 555.031784 238.298456 
L 558.485829 238.998552 
L 561.939874 238.519539 
L 565.39392 248.836751 
L 568.847965 259.780365 
L 572.30201 257.09052 
L 575.756055 256.316729 
L 579.210101 267.260343 
L 582.664146 262.543903 
L 586.118191 262.101737 
L 589.572236 262.175432 
L 593.026281 273.119046 
L 596.480327 274.482391 
L 603.388417 252.742552 
L 606.842462 261.843807 
L 610.296508 260.333072 
L 613.750553 249.647389 
L 617.204598 260.664697 
L 620.658643 260.664697 
L 624.112688 271.129298 
L 627.566734 271.939936 
L 631.020779 272.050477 
L 634.474824 261.401641 
L 637.928869 260.517308 
L 641.382915 271.534617 
L 644.83696 260.664697 
L 648.291005 255.948257 
L 655.199095 277.90918 
L 658.653141 277.614402 
L 665.561231 299.354241 
L 669.015276 307.165845 
L 672.469322 296.259078 
L 675.923367 295.927453 
L 679.377412 306.723678 
L 682.831457 316.930349 
L 686.285503 317.225126 
L 689.739548 328.205587 
L 696.647638 332.443013 
L 703.555729 331.337598 
L 707.009774 331.190209 
L 710.463819 329.679475 
L 713.917864 319.693887 
L 717.37191 319.620193 
L 720.825955 314.314198 
L 724.28 306.539442 
L 724.28 306.539442 
" style="fill:none;stroke:#8c564b;stroke-linecap:square;stroke-width:1.5;"/>
   </g>
   <g id="patch_3">
    <path d="M 36.925 404.12 
L 36.925 26.16 
" style="fill:none;stroke:#000000;stroke-linecap:square;stroke-linejoin:miter;stroke-width:0.8;"/>
   </g>
   <g id="patch_4">
    <path d="M 724.28 404.12 
L 724.28 26.16 
" style="fill:none;stroke:#000000;stroke-linecap:square;stroke-linejoin:miter;stroke-width:0.8;"/>
   </g>
   <g id="patch_5">
    <path d="M 36.925 404.12 
L 724.28 404.12 
" style="fill:none;stroke:#000000;stroke-linecap:square;stroke-linejoin:miter;stroke-width:0.8;"/>
   </g>
   <g id="patch_6">
    <path d="M 36.925 26.16 
L 724.28 26.16 
" style="fill:none;stroke:#000000;stroke-linecap:square;stroke-linejoin:miter;stroke-width:0.8;"/>
   </g>
   <g id="text_14">
    <!-- gridworld_5x5_1_1_200_1337: episode duration, steps, MA=40 -->
    <defs>
     <path d="M 45.40625 27.984375 
Q 45.40625 37.75 41.375 43.109375 
Q 37.359375 48.484375 30.078125 48.484375 
Q 22.859375 48.484375 18.828125 43.109375 
Q 14.796875 37.75 14.796875 27.984375 
Q 14.796875 18.265625 18.828125 12.890625 
Q 22.859375 7.515625 30.078125 7.515625 
Q 37.359375 7.515625 41.375 12.890625 
Q 45.40625 18.265625 45.40625 27.984375 
z
M 54.390625 6.78125 
Q 54.390625 -7.171875 48.1875 -13.984375 
Q 42 -20.796875 29.203125 -20.796875 
Q 24.46875 -20.796875 20.265625 -20.09375 
Q 16.0625 -19.390625 12.109375 -17.921875 
L 12.109375 -9.1875 
Q 16.0625 -11.328125 19.921875 -12.34375 
Q 23.78125 -13.375 27.78125 -13.375 
Q 36.625 -13.375 41.015625 -8.765625 
Q 45.40625 -4.15625 45.40625 5.171875 
L 45.40625 9.625 
Q 42.625 4.78125 38.28125 2.390625 
Q 33.9375 0 27.875 0 
Q 17.828125 0 11.671875 7.65625 
Q 5.515625 15.328125 5.515625 27.984375 
Q 5.515625 40.671875 11.671875 48.328125 
Q 17.828125 56 27.875 56 
Q 33.9375 56 38.28125 53.609375 
Q 42.625 51.21875 45.40625 46.390625 
L 45.40625 54.6875 
L 54.390625 54.6875 
z
" id="DejaVuSans-103"/>
     <path d="M 41.109375 46.296875 
Q 39.59375 47.171875 37.8125 47.578125 
Q 36.03125 48 33.890625 48 
Q 26.265625 48 22.1875 43.046875 
Q 18.109375 38.09375 18.109375 28.8125 
L 18.109375 0 
L 9.078125 0 
L 9.078125 54.6875 
L 18.109375 54.6875 
L 18.109375 46.1875 
Q 20.953125 51.171875 25.484375 53.578125 
Q 30.03125 56 36.53125 56 
Q 37.453125 56 38.578125 55.875 
Q 39.703125 55.765625 41.0625 55.515625 
z
" id="DejaVuSans-114"/>
     <path d="M 9.421875 54.6875 
L 18.40625 54.6875 
L 18.40625 0 
L 9.421875 0 
z
M 9.421875 75.984375 
L 18.40625 75.984375 
L 18.40625 64.59375 
L 9.421875 64.59375 
z
" id="DejaVuSans-105"/>
     <path d="M 45.40625 46.390625 
L 45.40625 75.984375 
L 54.390625 75.984375 
L 54.390625 0 
L 45.40625 0 
L 45.40625 8.203125 
Q 42.578125 3.328125 38.25 0.953125 
Q 33.9375 -1.421875 27.875 -1.421875 
Q 17.96875 -1.421875 11.734375 6.484375 
Q 5.515625 14.40625 5.515625 27.296875 
Q 5.515625 40.1875 11.734375 48.09375 
Q 17.96875 56 27.875 56 
Q 33.9375 56 38.25 53.625 
Q 42.578125 51.265625 45.40625 46.390625 
z
M 14.796875 27.296875 
Q 14.796875 17.390625 18.875 11.75 
Q 22.953125 6.109375 30.078125 6.109375 
Q 37.203125 6.109375 41.296875 11.75 
Q 45.40625 17.390625 45.40625 27.296875 
Q 45.40625 37.203125 41.296875 42.84375 
Q 37.203125 48.484375 30.078125 48.484375 
Q 22.953125 48.484375 18.875 42.84375 
Q 14.796875 37.203125 14.796875 27.296875 
z
" id="DejaVuSans-100"/>
     <path d="M 4.203125 54.6875 
L 13.1875 54.6875 
L 24.421875 12.015625 
L 35.59375 54.6875 
L 46.1875 54.6875 
L 57.421875 12.015625 
L 68.609375 54.6875 
L 77.59375 54.6875 
L 63.28125 0 
L 52.6875 0 
L 40.921875 44.828125 
L 29.109375 0 
L 18.5 0 
z
" id="DejaVuSans-119"/>
     <path d="M 30.609375 48.390625 
Q 23.390625 48.390625 19.1875 42.75 
Q 14.984375 37.109375 14.984375 27.296875 
Q 14.984375 17.484375 19.15625 11.84375 
Q 23.34375 6.203125 30.609375 6.203125 
Q 37.796875 6.203125 41.984375 11.859375 
Q 46.1875 17.53125 46.1875 27.296875 
Q 46.1875 37.015625 41.984375 42.703125 
Q 37.796875 48.390625 30.609375 48.390625 
z
M 30.609375 56 
Q 42.328125 56 49.015625 48.375 
Q 55.71875 40.765625 55.71875 27.296875 
Q 55.71875 13.875 49.015625 6.21875 
Q 42.328125 -1.421875 30.609375 -1.421875 
Q 18.84375 -1.421875 12.171875 6.21875 
Q 5.515625 13.875 5.515625 27.296875 
Q 5.515625 40.765625 12.171875 48.375 
Q 18.84375 56 30.609375 56 
z
" id="DejaVuSans-111"/>
     <path d="M 9.421875 75.984375 
L 18.40625 75.984375 
L 18.40625 0 
L 9.421875 0 
z
" id="DejaVuSans-108"/>
     <path d="M 50.984375 -16.609375 
L 50.984375 -23.578125 
L -0.984375 -23.578125 
L -0.984375 -16.609375 
z
" id="DejaVuSans-95"/>
     <path d="M 54.890625 54.6875 
L 35.109375 28.078125 
L 55.90625 0 
L 45.3125 0 
L 29.390625 21.484375 
L 13.484375 0 
L 2.875 0 
L 24.125 28.609375 
L 4.6875 54.6875 
L 15.28125 54.6875 
L 29.78125 35.203125 
L 44.28125 54.6875 
z
" id="DejaVuSans-120"/>
     <path d="M 40.578125 39.3125 
Q 47.65625 37.796875 51.625 33 
Q 55.609375 28.21875 55.609375 21.1875 
Q 55.609375 10.40625 48.1875 4.484375 
Q 40.765625 -1.421875 27.09375 -1.421875 
Q 22.515625 -1.421875 17.65625 -0.515625 
Q 12.796875 0.390625 7.625 2.203125 
L 7.625 11.71875 
Q 11.71875 9.328125 16.59375 8.109375 
Q 21.484375 6.890625 26.8125 6.890625 
Q 36.078125 6.890625 40.9375 10.546875 
Q 45.796875 14.203125 45.796875 21.1875 
Q 45.796875 27.640625 41.28125 31.265625 
Q 36.765625 34.90625 28.71875 34.90625 
L 20.21875 34.90625 
L 20.21875 43.015625 
L 29.109375 43.015625 
Q 36.375 43.015625 40.234375 45.921875 
Q 44.09375 48.828125 44.09375 54.296875 
Q 44.09375 59.90625 40.109375 62.90625 
Q 36.140625 65.921875 28.71875 65.921875 
Q 24.65625 65.921875 20.015625 65.03125 
Q 15.375 64.15625 9.8125 62.3125 
L 9.8125 71.09375 
Q 15.4375 72.65625 20.34375 73.4375 
Q 25.25 74.21875 29.59375 74.21875 
Q 40.828125 74.21875 47.359375 69.109375 
Q 53.90625 64.015625 53.90625 55.328125 
Q 53.90625 49.265625 50.4375 45.09375 
Q 46.96875 40.921875 40.578125 39.3125 
z
" id="DejaVuSans-51"/>
     <path d="M 11.71875 12.40625 
L 22.015625 12.40625 
L 22.015625 0 
L 11.71875 0 
z
M 11.71875 51.703125 
L 22.015625 51.703125 
L 22.015625 39.3125 
L 11.71875 39.3125 
z
" id="DejaVuSans-58"/>
     <path id="DejaVuSans-32"/>
     <path d="M 56.203125 29.59375 
L 56.203125 25.203125 
L 14.890625 25.203125 
Q 15.484375 15.921875 20.484375 11.0625 
Q 25.484375 6.203125 34.421875 6.203125 
Q 39.59375 6.203125 44.453125 7.46875 
Q 49.3125 8.734375 54.109375 11.28125 
L 54.109375 2.78125 
Q 49.265625 0.734375 44.1875 -0.34375 
Q 39.109375 -1.421875 33.890625 -1.421875 
Q 20.796875 -1.421875 13.15625 6.1875 
Q 5.515625 13.8125 5.515625 26.8125 
Q 5.515625 40.234375 12.765625 48.109375 
Q 20.015625 56 32.328125 56 
Q 43.359375 56 49.78125 48.890625 
Q 56.203125 41.796875 56.203125 29.59375 
z
M 47.21875 32.234375 
Q 47.125 39.59375 43.09375 43.984375 
Q 39.0625 48.390625 32.421875 48.390625 
Q 24.90625 48.390625 20.390625 44.140625 
Q 15.875 39.890625 15.1875 32.171875 
z
" id="DejaVuSans-101"/>
     <path d="M 18.109375 8.203125 
L 18.109375 -20.796875 
L 9.078125 -20.796875 
L 9.078125 54.6875 
L 18.109375 54.6875 
L 18.109375 46.390625 
Q 20.953125 51.265625 25.265625 53.625 
Q 29.59375 56 35.59375 56 
Q 45.5625 56 51.78125 48.09375 
Q 58.015625 40.1875 58.015625 27.296875 
Q 58.015625 14.40625 51.78125 6.484375 
Q 45.5625 -1.421875 35.59375 -1.421875 
Q 29.59375 -1.421875 25.265625 0.953125 
Q 20.953125 3.328125 18.109375 8.203125 
z
M 48.6875 27.296875 
Q 48.6875 37.203125 44.609375 42.84375 
Q 40.53125 48.484375 33.40625 48.484375 
Q 26.265625 48.484375 22.1875 42.84375 
Q 18.109375 37.203125 18.109375 27.296875 
Q 18.109375 17.390625 22.1875 11.75 
Q 26.265625 6.109375 33.40625 6.109375 
Q 40.53125 6.109375 44.609375 11.75 
Q 48.6875 17.390625 48.6875 27.296875 
z
" id="DejaVuSans-112"/>
     <path d="M 44.28125 53.078125 
L 44.28125 44.578125 
Q 40.484375 46.53125 36.375 47.5 
Q 32.28125 48.484375 27.875 48.484375 
Q 21.1875 48.484375 17.84375 46.4375 
Q 14.5 44.390625 14.5 40.28125 
Q 14.5 37.15625 16.890625 35.375 
Q 19.28125 33.59375 26.515625 31.984375 
L 29.59375 31.296875 
Q 39.15625 29.25 43.1875 25.515625 
Q 47.21875 21.78125 47.21875 15.09375 
Q 47.21875 7.46875 41.1875 3.015625 
Q 35.15625 -1.421875 24.609375 -1.421875 
Q 20.21875 -1.421875 15.453125 -0.5625 
Q 10.6875 0.296875 5.421875 2 
L 5.421875 11.28125 
Q 10.40625 8.6875 15.234375 7.390625 
Q 20.0625 6.109375 24.8125 6.109375 
Q 31.15625 6.109375 34.5625 8.28125 
Q 37.984375 10.453125 37.984375 14.40625 
Q 37.984375 18.0625 35.515625 20.015625 
Q 33.0625 21.96875 24.703125 23.78125 
L 21.578125 24.515625 
Q 13.234375 26.265625 9.515625 29.90625 
Q 5.8125 33.546875 5.8125 39.890625 
Q 5.8125 47.609375 11.28125 51.796875 
Q 16.75 56 26.8125 56 
Q 31.78125 56 36.171875 55.265625 
Q 40.578125 54.546875 44.28125 53.078125 
z
" id="DejaVuSans-115"/>
     <path d="M 8.5 21.578125 
L 8.5 54.6875 
L 17.484375 54.6875 
L 17.484375 21.921875 
Q 17.484375 14.15625 20.5 10.265625 
Q 23.53125 6.390625 29.59375 6.390625 
Q 36.859375 6.390625 41.078125 11.03125 
Q 45.3125 15.671875 45.3125 23.6875 
L 45.3125 54.6875 
L 54.296875 54.6875 
L 54.296875 0 
L 45.3125 0 
L 45.3125 8.40625 
Q 42.046875 3.421875 37.71875 1 
Q 33.40625 -1.421875 27.6875 -1.421875 
Q 18.265625 -1.421875 13.375 4.4375 
Q 8.5 10.296875 8.5 21.578125 
z
M 31.109375 56 
z
" id="DejaVuSans-117"/>
     <path d="M 34.28125 27.484375 
Q 23.390625 27.484375 19.1875 25 
Q 14.984375 22.515625 14.984375 16.5 
Q 14.984375 11.71875 18.140625 8.90625 
Q 21.296875 6.109375 26.703125 6.109375 
Q 34.1875 6.109375 38.703125 11.40625 
Q 43.21875 16.703125 43.21875 25.484375 
L 43.21875 27.484375 
z
M 52.203125 31.203125 
L 52.203125 0 
L 43.21875 0 
L 43.21875 8.296875 
Q 40.140625 3.328125 35.546875 0.953125 
Q 30.953125 -1.421875 24.3125 -1.421875 
Q 15.921875 -1.421875 10.953125 3.296875 
Q 6 8.015625 6 15.921875 
Q 6 25.140625 12.171875 29.828125 
Q 18.359375 34.515625 30.609375 34.515625 
L 43.21875 34.515625 
L 43.21875 35.40625 
Q 43.21875 41.609375 39.140625 45 
Q 35.0625 48.390625 27.6875 48.390625 
Q 23 48.390625 18.546875 47.265625 
Q 14.109375 46.140625 10.015625 43.890625 
L 10.015625 52.203125 
Q 14.9375 54.109375 19.578125 55.046875 
Q 24.21875 56 28.609375 56 
Q 40.484375 56 46.34375 49.84375 
Q 52.203125 43.703125 52.203125 31.203125 
z
" id="DejaVuSans-97"/>
     <path d="M 18.3125 70.21875 
L 18.3125 54.6875 
L 36.8125 54.6875 
L 36.8125 47.703125 
L 18.3125 47.703125 
L 18.3125 18.015625 
Q 18.3125 11.328125 20.140625 9.421875 
Q 21.96875 7.515625 27.59375 7.515625 
L 36.8125 7.515625 
L 36.8125 0 
L 27.59375 0 
Q 17.1875 0 13.234375 3.875 
Q 9.28125 7.765625 9.28125 18.015625 
L 9.28125 47.703125 
L 2.6875 47.703125 
L 2.6875 54.6875 
L 9.28125 54.6875 
L 9.28125 70.21875 
z
" id="DejaVuSans-116"/>
     <path d="M 54.890625 33.015625 
L 54.890625 0 
L 45.90625 0 
L 45.90625 32.71875 
Q 45.90625 40.484375 42.875 44.328125 
Q 39.84375 48.1875 33.796875 48.1875 
Q 26.515625 48.1875 22.3125 43.546875 
Q 18.109375 38.921875 18.109375 30.90625 
L 18.109375 0 
L 9.078125 0 
L 9.078125 54.6875 
L 18.109375 54.6875 
L 18.109375 46.1875 
Q 21.34375 51.125 25.703125 53.5625 
Q 30.078125 56 35.796875 56 
Q 45.21875 56 50.046875 50.171875 
Q 54.890625 44.34375 54.890625 33.015625 
z
" id="DejaVuSans-110"/>
     <path d="M 11.71875 12.40625 
L 22.015625 12.40625 
L 22.015625 4 
L 14.015625 -11.625 
L 7.71875 -11.625 
L 11.71875 4 
z
" id="DejaVuSans-44"/>
     <path d="M 9.8125 72.90625 
L 24.515625 72.90625 
L 43.109375 23.296875 
L 61.8125 72.90625 
L 76.515625 72.90625 
L 76.515625 0 
L 66.890625 0 
L 66.890625 64.015625 
L 48.09375 14.015625 
L 38.1875 14.015625 
L 19.390625 64.015625 
L 19.390625 0 
L 9.8125 0 
z
" id="DejaVuSans-77"/>
     <path d="M 34.1875 63.1875 
L 20.796875 26.90625 
L 47.609375 26.90625 
z
M 28.609375 72.90625 
L 39.796875 72.90625 
L 67.578125 0 
L 57.328125 0 
L 50.6875 18.703125 
L 17.828125 18.703125 
L 11.1875 0 
L 0.78125 0 
z
" id="DejaVuSans-65"/>
     <path d="M 10.59375 45.40625 
L 73.1875 45.40625 
L 73.1875 37.203125 
L 10.59375 37.203125 
z
M 10.59375 25.484375 
L 73.1875 25.484375 
L 73.1875 17.1875 
L 10.59375 17.1875 
z
" id="DejaVuSans-61"/>
     <path d="M 37.796875 64.3125 
L 12.890625 25.390625 
L 37.796875 25.390625 
z
M 35.203125 72.90625 
L 47.609375 72.90625 
L 47.609375 25.390625 
L 58.015625 25.390625 
L 58.015625 17.1875 
L 47.609375 17.1875 
L 47.609375 0 
L 37.796875 0 
L 37.796875 17.1875 
L 4.890625 17.1875 
L 4.890625 26.703125 
z
" id="DejaVuSans-52"/>
    </defs>
    <g transform="translate(191.562187 20.16)scale(0.12 -0.12)">
     <use xlink:href="#DejaVuSans-103"/>
     <use x="63.476562" xlink:href="#DejaVuSans-114"/>
     <use x="104.589844" xlink:href="#DejaVuSans-105"/>
     <use x="132.373047" xlink:href="#DejaVuSans-100"/>
     <use x="195.849609" xlink:href="#DejaVuSans-119"/>
     <use x="277.636719" xlink:href="#DejaVuSans-111"/>
     <use x="338.818359" xlink:href="#DejaVuSans-114"/>
     <use x="379.931641" xlink:href="#DejaVuSans-108"/>
     <use x="407.714844" xlink:href="#DejaVuSans-100"/>
     <use x="471.191406" xlink:href="#DejaVuSans-95"/>
     <use x="521.191406" xlink:href="#DejaVuSans-53"/>
     <use x="584.814453" xlink:href="#DejaVuSans-120"/>
     <use x="643.994141" xlink:href="#DejaVuSans-53"/>
     <use x="707.617188" xlink:href="#DejaVuSans-95"/>
     <use x="757.617188" xlink:href="#DejaVuSans-49"/>
     <use x="821.240234" xlink:href="#DejaVuSans-95"/>
     <use x="871.240234" xlink:href="#DejaVuSans-49"/>
     <use x="934.863281" xlink:href="#DejaVuSans-95"/>
     <use x="984.863281" xlink:href="#DejaVuSans-50"/>
     <use x="1048.486328" xlink:href="#DejaVuSans-48"/>
     <use x="1112.109375" xlink:href="#DejaVuSans-48"/>
     <use x="1175.732422" xlink:href="#DejaVuSans-95"/>
     <use x="1225.732422" xlink:href="#DejaVuSans-49"/>
     <use x="1289.355469" xlink:href="#DejaVuSans-51"/>
     <use x="1352.978516" xlink:href="#DejaVuSans-51"/>
     <use x="1416.601562" xlink:href="#DejaVuSans-55"/>
     <use x="1480.224609" xlink:href="#DejaVuSans-58"/>
     <use x="1513.916016" xlink:href="#DejaVuSans-32"/>
     <use x="1545.703125" xlink:href="#DejaVuSans-101"/>
     <use x="1607.226562" xlink:href="#DejaVuSans-112"/>
     <use x="1670.703125" xlink:href="#DejaVuSans-105"/>
     <use x="1698.486328" xlink:href="#DejaVuSans-115"/>
     <use x="1750.585938" xlink:href="#DejaVuSans-111"/>
     <use x="1811.767578" xlink:href="#DejaVuSans-100"/>
     <use x="1875.244141" xlink:href="#DejaVuSans-101"/>
     <use x="1936.767578" xlink:href="#DejaVuSans-32"/>
     <use x="1968.554688" xlink:href="#DejaVuSans-100"/>
     <use x="2032.03125" xlink:href="#DejaVuSans-117"/>
     <use x="2095.410156" xlink:href="#DejaVuSans-114"/>
     <use x="2136.523438" xlink:href="#DejaVuSans-97"/>
     <use x="2197.802734" xlink:href="#DejaVuSans-116"/>
     <use x="2237.011719" xlink:href="#DejaVuSans-105"/>
     <use x="2264.794922" xlink:href="#DejaVuSans-111"/>
     <use x="2325.976562" xlink:href="#DejaVuSans-110"/>
     <use x="2389.355469" xlink:href="#DejaVuSans-44"/>
     <use x="2421.142578" xlink:href="#DejaVuSans-32"/>
     <use x="2452.929688" xlink:href="#DejaVuSans-115"/>
     <use x="2505.029297" xlink:href="#DejaVuSans-116"/>
     <use x="2544.238281" xlink:href="#DejaVuSans-101"/>
     <use x="2605.761719" xlink:href="#DejaVuSans-112"/>
     <use x="2669.238281" xlink:href="#DejaVuSans-115"/>
     <use x="2721.337891" xlink:href="#DejaVuSans-44"/>
     <use x="2753.125" xlink:href="#DejaVuSans-32"/>
     <use x="2784.912109" xlink:href="#DejaVuSans-77"/>
     <use x="2871.191406" xlink:href="#DejaVuSans-65"/>
     <use x="2939.599609" xlink:href="#DejaVuSans-61"/>
     <use x="3023.388672" xlink:href="#DejaVuSans-52"/>
     <use x="3087.011719" xlink:href="#DejaVuSans-48"/>
    </g>
   </g>
   <g id="legend_1">
    <g id="patch_7">
     <path d="M 763.686937 261.50875 
L 854.751 261.50875 
Q 856.751 261.50875 856.751 259.50875 
L 856.751 170.77125 
Q 856.751 168.77125 854.751 168.77125 
L 763.686937 168.77125 
Q 761.686937 168.77125 761.686937 170.77125 
L 761.686937 259.50875 
Q 761.686937 261.50875 763.686937 261.50875 
z
" style="fill:#ffffff;opacity:0.8;stroke:#cccccc;stroke-linejoin:miter;"/>
    </g>
    <g id="line2d_20">
     <path d="M 765.686937 176.869687 
L 785.686937 176.869687 
" style="fill:none;stroke:#1f77b4;stroke-linecap:square;stroke-width:1.5;"/>
    </g>
    <g id="line2d_21"/>
    <g id="text_15">
     <!-- htm_0 -->
     <defs>
      <path d="M 54.890625 33.015625 
L 54.890625 0 
L 45.90625 0 
L 45.90625 32.71875 
Q 45.90625 40.484375 42.875 44.328125 
Q 39.84375 48.1875 33.796875 48.1875 
Q 26.515625 48.1875 22.3125 43.546875 
Q 18.109375 38.921875 18.109375 30.90625 
L 18.109375 0 
L 9.078125 0 
L 9.078125 75.984375 
L 18.109375 75.984375 
L 18.109375 46.1875 
Q 21.34375 51.125 25.703125 53.5625 
Q 30.078125 56 35.796875 56 
Q 45.21875 56 50.046875 50.171875 
Q 54.890625 44.34375 54.890625 33.015625 
z
" id="DejaVuSans-104"/>
      <path d="M 52 44.1875 
Q 55.375 50.25 60.0625 53.125 
Q 64.75 56 71.09375 56 
Q 79.640625 56 84.28125 50.015625 
Q 88.921875 44.046875 88.921875 33.015625 
L 88.921875 0 
L 79.890625 0 
L 79.890625 32.71875 
Q 79.890625 40.578125 77.09375 44.375 
Q 74.3125 48.1875 68.609375 48.1875 
Q 61.625 48.1875 57.5625 43.546875 
Q 53.515625 38.921875 53.515625 30.90625 
L 53.515625 0 
L 44.484375 0 
L 44.484375 32.71875 
Q 44.484375 40.625 41.703125 44.40625 
Q 38.921875 48.1875 33.109375 48.1875 
Q 26.21875 48.1875 22.15625 43.53125 
Q 18.109375 38.875 18.109375 30.90625 
L 18.109375 0 
L 9.078125 0 
L 9.078125 54.6875 
L 18.109375 54.6875 
L 18.109375 46.1875 
Q 21.1875 51.21875 25.484375 53.609375 
Q 29.78125 56 35.6875 56 
Q 41.65625 56 45.828125 52.96875 
Q 50 49.953125 52 44.1875 
z
" id="DejaVuSans-109"/>
     </defs>
     <g transform="translate(793.686937 180.369687)scale(0.1 -0.1)">
      <use xlink:href="#DejaVuSans-104"/>
      <use x="63.378906" xlink:href="#DejaVuSans-116"/>
      <use x="102.587891" xlink:href="#DejaVuSans-109"/>
      <use x="200" xlink:href="#DejaVuSans-95"/>
      <use x="250" xlink:href="#DejaVuSans-48"/>
     </g>
    </g>
    <g id="line2d_22">
     <path d="M 765.686937 191.825938 
L 785.686937 191.825938 
" style="fill:none;stroke:#ff7f0e;stroke-linecap:square;stroke-width:1.5;"/>
    </g>
    <g id="line2d_23"/>
    <g id="text_16">
     <!-- dqn_greedy -->
     <defs>
      <path d="M 14.796875 27.296875 
Q 14.796875 17.390625 18.875 11.75 
Q 22.953125 6.109375 30.078125 6.109375 
Q 37.203125 6.109375 41.296875 11.75 
Q 45.40625 17.390625 45.40625 27.296875 
Q 45.40625 37.203125 41.296875 42.84375 
Q 37.203125 48.484375 30.078125 48.484375 
Q 22.953125 48.484375 18.875 42.84375 
Q 14.796875 37.203125 14.796875 27.296875 
z
M 45.40625 8.203125 
Q 42.578125 3.328125 38.25 0.953125 
Q 33.9375 -1.421875 27.875 -1.421875 
Q 17.96875 -1.421875 11.734375 6.484375 
Q 5.515625 14.40625 5.515625 27.296875 
Q 5.515625 40.1875 11.734375 48.09375 
Q 17.96875 56 27.875 56 
Q 33.9375 56 38.25 53.625 
Q 42.578125 51.265625 45.40625 46.390625 
L 45.40625 54.6875 
L 54.390625 54.6875 
L 54.390625 -20.796875 
L 45.40625 -20.796875 
z
" id="DejaVuSans-113"/>
      <path d="M 32.171875 -5.078125 
Q 28.375 -14.84375 24.75 -17.8125 
Q 21.140625 -20.796875 15.09375 -20.796875 
L 7.90625 -20.796875 
L 7.90625 -13.28125 
L 13.1875 -13.28125 
Q 16.890625 -13.28125 18.9375 -11.515625 
Q 21 -9.765625 23.484375 -3.21875 
L 25.09375 0.875 
L 2.984375 54.6875 
L 12.5 54.6875 
L 29.59375 11.921875 
L 46.6875 54.6875 
L 56.203125 54.6875 
z
" id="DejaVuSans-121"/>
     </defs>
     <g transform="translate(793.686937 195.325938)scale(0.1 -0.1)">
      <use xlink:href="#DejaVuSans-100"/>
      <use x="63.476562" xlink:href="#DejaVuSans-113"/>
      <use x="126.953125" xlink:href="#DejaVuSans-110"/>
      <use x="190.332031" xlink:href="#DejaVuSans-95"/>
      <use x="240.332031" xlink:href="#DejaVuSans-103"/>
      <use x="303.808594" xlink:href="#DejaVuSans-114"/>
      <use x="344.890625" xlink:href="#DejaVuSans-101"/>
      <use x="406.414062" xlink:href="#DejaVuSans-101"/>
      <use x="467.9375" xlink:href="#DejaVuSans-100"/>
      <use x="531.414062" xlink:href="#DejaVuSans-121"/>
     </g>
    </g>
    <g id="line2d_24">
     <path d="M 765.686937 206.782187 
L 785.686937 206.782187 
" style="fill:none;stroke:#2ca02c;stroke-linecap:square;stroke-width:1.5;"/>
    </g>
    <g id="line2d_25"/>
    <g id="text_17">
     <!-- htm_1_1g -->
     <g transform="translate(793.686937 210.282187)scale(0.1 -0.1)">
      <use xlink:href="#DejaVuSans-104"/>
      <use x="63.378906" xlink:href="#DejaVuSans-116"/>
      <use x="102.587891" xlink:href="#DejaVuSans-109"/>
      <use x="200" xlink:href="#DejaVuSans-95"/>
      <use x="250" xlink:href="#DejaVuSans-49"/>
      <use x="313.623047" xlink:href="#DejaVuSans-95"/>
      <use x="363.623047" xlink:href="#DejaVuSans-49"/>
      <use x="427.246094" xlink:href="#DejaVuSans-103"/>
     </g>
    </g>
    <g id="line2d_26">
     <path d="M 765.686937 221.738438 
L 785.686937 221.738438 
" style="fill:none;stroke:#d62728;stroke-linecap:square;stroke-width:1.5;"/>
    </g>
    <g id="line2d_27"/>
    <g id="text_18">
     <!-- htm_2_1g -->
     <g transform="translate(793.686937 225.238438)scale(0.1 -0.1)">
      <use xlink:href="#DejaVuSans-104"/>
      <use x="63.378906" xlink:href="#DejaVuSans-116"/>
      <use x="102.587891" xlink:href="#DejaVuSans-109"/>
      <use x="200" xlink:href="#DejaVuSans-95"/>
      <use x="250" xlink:href="#DejaVuSans-50"/>
      <use x="313.623047" xlink:href="#DejaVuSans-95"/>
      <use x="363.623047" xlink:href="#DejaVuSans-49"/>
      <use x="427.246094" xlink:href="#DejaVuSans-103"/>
     </g>
    </g>
    <g id="line2d_28">
     <path d="M 765.686937 236.694687 
L 785.686937 236.694687 
" style="fill:none;stroke:#9467bd;stroke-linecap:square;stroke-width:1.5;"/>
    </g>
    <g id="line2d_29"/>
    <g id="text_19">
     <!-- htm_4_1g -->
     <g transform="translate(793.686937 240.194687)scale(0.1 -0.1)">
      <use xlink:href="#DejaVuSans-104"/>
      <use x="63.378906" xlink:href="#DejaVuSans-116"/>
      <use x="102.587891" xlink:href="#DejaVuSans-109"/>
      <use x="200" xlink:href="#DejaVuSans-95"/>
      <use x="250" xlink:href="#DejaVuSans-52"/>
      <use x="313.623047" xlink:href="#DejaVuSans-95"/>
      <use x="363.623047" xlink:href="#DejaVuSans-49"/>
      <use x="427.246094" xlink:href="#DejaVuSans-103"/>
     </g>
    </g>
    <g id="line2d_30">
     <path d="M 765.686937 251.650937 
L 785.686937 251.650937 
" style="fill:none;stroke:#8c564b;stroke-linecap:square;stroke-width:1.5;"/>
    </g>
    <g id="line2d_31"/>
    <g id="text_20">
     <!-- htm_8_1g -->
     <defs>
      <path d="M 31.78125 34.625 
Q 24.75 34.625 20.71875 30.859375 
Q 16.703125 27.09375 16.703125 20.515625 
Q 16.703125 13.921875 20.71875 10.15625 
Q 24.75 6.390625 31.78125 6.390625 
Q 38.8125 6.390625 42.859375 10.171875 
Q 46.921875 13.96875 46.921875 20.515625 
Q 46.921875 27.09375 42.890625 30.859375 
Q 38.875 34.625 31.78125 34.625 
z
M 21.921875 38.8125 
Q 15.578125 40.375 12.03125 44.71875 
Q 8.5 49.078125 8.5 55.328125 
Q 8.5 64.0625 14.71875 69.140625 
Q 20.953125 74.21875 31.78125 74.21875 
Q 42.671875 74.21875 48.875 69.140625 
Q 55.078125 64.0625 55.078125 55.328125 
Q 55.078125 49.078125 51.53125 44.71875 
Q 48 40.375 41.703125 38.8125 
Q 48.828125 37.15625 52.796875 32.3125 
Q 56.78125 27.484375 56.78125 20.515625 
Q 56.78125 9.90625 50.3125 4.234375 
Q 43.84375 -1.421875 31.78125 -1.421875 
Q 19.734375 -1.421875 13.25 4.234375 
Q 6.78125 9.90625 6.78125 20.515625 
Q 6.78125 27.484375 10.78125 32.3125 
Q 14.796875 37.15625 21.921875 38.8125 
z
M 18.3125 54.390625 
Q 18.3125 48.734375 21.84375 45.5625 
Q 25.390625 42.390625 31.78125 42.390625 
Q 38.140625 42.390625 41.71875 45.5625 
Q 45.3125 48.734375 45.3125 54.390625 
Q 45.3125 60.0625 41.71875 63.234375 
Q 38.140625 66.40625 31.78125 66.40625 
Q 25.390625 66.40625 21.84375 63.234375 
Q 18.3125 60.0625 18.3125 54.390625 
z
" id="DejaVuSans-56"/>
     </defs>
     <g transform="translate(793.686937 255.150937)scale(0.1 -0.1)">
      <use xlink:href="#DejaVuSans-104"/>
      <use x="63.378906" xlink:href="#DejaVuSans-116"/>
      <use x="102.587891" xlink:href="#DejaVuSans-109"/>
      <use x="200" xlink:href="#DejaVuSans-95"/>
      <use x="250" xlink:href="#DejaVuSans-56"/>
      <use x="313.623047" xlink:href="#DejaVuSans-95"/>
      <use x="363.623047" xlink:href="#DejaVuSans-49"/>
      <use x="427.246094" xlink:href="#DejaVuSans-103"/>
     </g>
    </g>
   </g>
  </g>
 </g>
 <defs>
  <clipPath id="pa662ec2b4a">
   <rect height="377.96" width="687.355" x="36.925" y="26.16"/>
  </clipPath>
 </defs>
</svg>
