<?xml version="1.0" encoding="utf-8" standalone="no"?>
<!DOCTYPE svg PUBLIC "-//W3C//DTD SVG 1.1//EN"
  "http://www.w3.org/Graphics/SVG/1.1/DTD/svg11.dtd">
<!-- Created with matplotlib (https://matplotlib.org/) -->
<svg height="432pt" version="1.1" viewBox="0 0 864 432" width="864pt" xmlns="http://www.w3.org/2000/svg" xmlns:xlink="http://www.w3.org/1999/xlink">
 <defs>
  <style type="text/css">
*{stroke-linecap:butt;stroke-linejoin:round;}
  </style>
 </defs>
 <g id="figure_1">
  <g id="patch_1">
   <path d="M 0 432 
L 864 432 
L 864 0 
L 0 0 
z
" style="fill:#ffffff;"/>
  </g>
  <g id="axes_1">
   <g id="patch_2">
    <path d="M 36.925 404.12 
L 724.28 404.12 
L 724.28 26.16 
L 36.925 26.16 
z
" style="fill:#ffffff;"/>
   </g>
   <g id="matplotlib.axis_1">
    <g id="xtick_1">
     <g id="line2d_1">
      <defs>
       <path d="M 0 0 
L 0 3.5 
" id="m41ae40c1ae" style="stroke:#000000;stroke-width:0.8;"/>
      </defs>
      <g>
       <use style="stroke:#000000;stroke-width:0.8;" x="36.925" xlink:href="#m41ae40c1ae" y="404.12"/>
      </g>
     </g>
     <g id="text_1">
      <!-- 0 -->
      <defs>
       <path d="M 31.78125 66.40625 
Q 24.171875 66.40625 20.328125 58.90625 
Q 16.5 51.421875 16.5 36.375 
Q 16.5 21.390625 20.328125 13.890625 
Q 24.171875 6.390625 31.78125 6.390625 
Q 39.453125 6.390625 43.28125 13.890625 
Q 47.125 21.390625 47.125 36.375 
Q 47.125 51.421875 43.28125 58.90625 
Q 39.453125 66.40625 31.78125 66.40625 
z
M 31.78125 74.21875 
Q 44.046875 74.21875 50.515625 64.515625 
Q 56.984375 54.828125 56.984375 36.375 
Q 56.984375 17.96875 50.515625 8.265625 
Q 44.046875 -1.421875 31.78125 -1.421875 
Q 19.53125 -1.421875 13.0625 8.265625 
Q 6.59375 17.96875 6.59375 36.375 
Q 6.59375 54.828125 13.0625 64.515625 
Q 19.53125 74.21875 31.78125 74.21875 
z
" id="DejaVuSans-48"/>
      </defs>
      <g transform="translate(33.74375 418.718437)scale(0.1 -0.1)">
       <use xlink:href="#DejaVuSans-48"/>
      </g>
     </g>
    </g>
    <g id="xtick_2">
     <g id="line2d_2">
      <g>
       <use style="stroke:#000000;stroke-width:0.8;" x="123.059712" xlink:href="#m41ae40c1ae" y="404.12"/>
      </g>
     </g>
     <g id="text_2">
      <!-- 50 -->
      <defs>
       <path d="M 10.796875 72.90625 
L 49.515625 72.90625 
L 49.515625 64.59375 
L 19.828125 64.59375 
L 19.828125 46.734375 
Q 21.96875 47.46875 24.109375 47.828125 
Q 26.265625 48.1875 28.421875 48.1875 
Q 40.625 48.1875 47.75 41.5 
Q 54.890625 34.8125 54.890625 23.390625 
Q 54.890625 11.625 47.5625 5.09375 
Q 40.234375 -1.421875 26.90625 -1.421875 
Q 22.3125 -1.421875 17.546875 -0.640625 
Q 12.796875 0.140625 7.71875 1.703125 
L 7.71875 11.625 
Q 12.109375 9.234375 16.796875 8.0625 
Q 21.484375 6.890625 26.703125 6.890625 
Q 35.15625 6.890625 40.078125 11.328125 
Q 45.015625 15.765625 45.015625 23.390625 
Q 45.015625 31 40.078125 35.4375 
Q 35.15625 39.890625 26.703125 39.890625 
Q 22.75 39.890625 18.8125 39.015625 
Q 14.890625 38.140625 10.796875 36.28125 
z
" id="DejaVuSans-53"/>
      </defs>
      <g transform="translate(116.697212 418.718437)scale(0.1 -0.1)">
       <use xlink:href="#DejaVuSans-53"/>
       <use x="63.623047" xlink:href="#DejaVuSans-48"/>
      </g>
     </g>
    </g>
    <g id="xtick_3">
     <g id="line2d_3">
      <g>
       <use style="stroke:#000000;stroke-width:0.8;" x="209.194424" xlink:href="#m41ae40c1ae" y="404.12"/>
      </g>
     </g>
     <g id="text_3">
      <!-- 100 -->
      <defs>
       <path d="M 12.40625 8.296875 
L 28.515625 8.296875 
L 28.515625 63.921875 
L 10.984375 60.40625 
L 10.984375 69.390625 
L 28.421875 72.90625 
L 38.28125 72.90625 
L 38.28125 8.296875 
L 54.390625 8.296875 
L 54.390625 0 
L 12.40625 0 
z
" id="DejaVuSans-49"/>
      </defs>
      <g transform="translate(199.650674 418.718437)scale(0.1 -0.1)">
       <use xlink:href="#DejaVuSans-49"/>
       <use x="63.623047" xlink:href="#DejaVuSans-48"/>
       <use x="127.246094" xlink:href="#DejaVuSans-48"/>
      </g>
     </g>
    </g>
    <g id="xtick_4">
     <g id="line2d_4">
      <g>
       <use style="stroke:#000000;stroke-width:0.8;" x="295.329135" xlink:href="#m41ae40c1ae" y="404.12"/>
      </g>
     </g>
     <g id="text_4">
      <!-- 150 -->
      <g transform="translate(285.785385 418.718437)scale(0.1 -0.1)">
       <use xlink:href="#DejaVuSans-49"/>
       <use x="63.623047" xlink:href="#DejaVuSans-53"/>
       <use x="127.246094" xlink:href="#DejaVuSans-48"/>
      </g>
     </g>
    </g>
    <g id="xtick_5">
     <g id="line2d_5">
      <g>
       <use style="stroke:#000000;stroke-width:0.8;" x="381.463847" xlink:href="#m41ae40c1ae" y="404.12"/>
      </g>
     </g>
     <g id="text_5">
      <!-- 200 -->
      <defs>
       <path d="M 19.1875 8.296875 
L 53.609375 8.296875 
L 53.609375 0 
L 7.328125 0 
L 7.328125 8.296875 
Q 12.9375 14.109375 22.625 23.890625 
Q 32.328125 33.6875 34.8125 36.53125 
Q 39.546875 41.84375 41.421875 45.53125 
Q 43.3125 49.21875 43.3125 52.78125 
Q 43.3125 58.59375 39.234375 62.25 
Q 35.15625 65.921875 28.609375 65.921875 
Q 23.96875 65.921875 18.8125 64.3125 
Q 13.671875 62.703125 7.8125 59.421875 
L 7.8125 69.390625 
Q 13.765625 71.78125 18.9375 73 
Q 24.125 74.21875 28.421875 74.21875 
Q 39.75 74.21875 46.484375 68.546875 
Q 53.21875 62.890625 53.21875 53.421875 
Q 53.21875 48.921875 51.53125 44.890625 
Q 49.859375 40.875 45.40625 35.40625 
Q 44.1875 33.984375 37.640625 27.21875 
Q 31.109375 20.453125 19.1875 8.296875 
z
" id="DejaVuSans-50"/>
      </defs>
      <g transform="translate(371.920097 418.718437)scale(0.1 -0.1)">
       <use xlink:href="#DejaVuSans-50"/>
       <use x="63.623047" xlink:href="#DejaVuSans-48"/>
       <use x="127.246094" xlink:href="#DejaVuSans-48"/>
      </g>
     </g>
    </g>
    <g id="xtick_6">
     <g id="line2d_6">
      <g>
       <use style="stroke:#000000;stroke-width:0.8;" x="467.598559" xlink:href="#m41ae40c1ae" y="404.12"/>
      </g>
     </g>
     <g id="text_6">
      <!-- 250 -->
      <g transform="translate(458.054809 418.718437)scale(0.1 -0.1)">
       <use xlink:href="#DejaVuSans-50"/>
       <use x="63.623047" xlink:href="#DejaVuSans-53"/>
       <use x="127.246094" xlink:href="#DejaVuSans-48"/>
      </g>
     </g>
    </g>
    <g id="xtick_7">
     <g id="line2d_7">
      <g>
       <use style="stroke:#000000;stroke-width:0.8;" x="553.733271" xlink:href="#m41ae40c1ae" y="404.12"/>
      </g>
     </g>
     <g id="text_7">
      <!-- 300 -->
      <defs>
       <path d="M 40.578125 39.3125 
Q 47.65625 37.796875 51.625 33 
Q 55.609375 28.21875 55.609375 21.1875 
Q 55.609375 10.40625 48.1875 4.484375 
Q 40.765625 -1.421875 27.09375 -1.421875 
Q 22.515625 -1.421875 17.65625 -0.515625 
Q 12.796875 0.390625 7.625 2.203125 
L 7.625 11.71875 
Q 11.71875 9.328125 16.59375 8.109375 
Q 21.484375 6.890625 26.8125 6.890625 
Q 36.078125 6.890625 40.9375 10.546875 
Q 45.796875 14.203125 45.796875 21.1875 
Q 45.796875 27.640625 41.28125 31.265625 
Q 36.765625 34.90625 28.71875 34.90625 
L 20.21875 34.90625 
L 20.21875 43.015625 
L 29.109375 43.015625 
Q 36.375 43.015625 40.234375 45.921875 
Q 44.09375 48.828125 44.09375 54.296875 
Q 44.09375 59.90625 40.109375 62.90625 
Q 36.140625 65.921875 28.71875 65.921875 
Q 24.65625 65.921875 20.015625 65.03125 
Q 15.375 64.15625 9.8125 62.3125 
L 9.8125 71.09375 
Q 15.4375 72.65625 20.34375 73.4375 
Q 25.25 74.21875 29.59375 74.21875 
Q 40.828125 74.21875 47.359375 69.109375 
Q 53.90625 64.015625 53.90625 55.328125 
Q 53.90625 49.265625 50.4375 45.09375 
Q 46.96875 40.921875 40.578125 39.3125 
z
" id="DejaVuSans-51"/>
      </defs>
      <g transform="translate(544.189521 418.718437)scale(0.1 -0.1)">
       <use xlink:href="#DejaVuSans-51"/>
       <use x="63.623047" xlink:href="#DejaVuSans-48"/>
       <use x="127.246094" xlink:href="#DejaVuSans-48"/>
      </g>
     </g>
    </g>
    <g id="xtick_8">
     <g id="line2d_8">
      <g>
       <use style="stroke:#000000;stroke-width:0.8;" x="639.867982" xlink:href="#m41ae40c1ae" y="404.12"/>
      </g>
     </g>
     <g id="text_8">
      <!-- 350 -->
      <g transform="translate(630.324232 418.718437)scale(0.1 -0.1)">
       <use xlink:href="#DejaVuSans-51"/>
       <use x="63.623047" xlink:href="#DejaVuSans-53"/>
       <use x="127.246094" xlink:href="#DejaVuSans-48"/>
      </g>
     </g>
    </g>
   </g>
   <g id="matplotlib.axis_2">
    <g id="ytick_1">
     <g id="line2d_9">
      <defs>
       <path d="M 0 0 
L -3.5 0 
" id="m0ad7c82e48" style="stroke:#000000;stroke-width:0.8;"/>
      </defs>
      <g>
       <use style="stroke:#000000;stroke-width:0.8;" x="36.925" xlink:href="#m0ad7c82e48" y="397.379675"/>
      </g>
     </g>
     <g id="text_9">
      <!-- 0 -->
      <g transform="translate(23.5625 401.178893)scale(0.1 -0.1)">
       <use xlink:href="#DejaVuSans-48"/>
      </g>
     </g>
    </g>
    <g id="ytick_2">
     <g id="line2d_10">
      <g>
       <use style="stroke:#000000;stroke-width:0.8;" x="36.925" xlink:href="#m0ad7c82e48" y="330.026935"/>
      </g>
     </g>
     <g id="text_10">
      <!-- 50 -->
      <g transform="translate(17.2 333.826154)scale(0.1 -0.1)">
       <use xlink:href="#DejaVuSans-53"/>
       <use x="63.623047" xlink:href="#DejaVuSans-48"/>
      </g>
     </g>
    </g>
    <g id="ytick_3">
     <g id="line2d_11">
      <g>
       <use style="stroke:#000000;stroke-width:0.8;" x="36.925" xlink:href="#m0ad7c82e48" y="262.674196"/>
      </g>
     </g>
     <g id="text_11">
      <!-- 100 -->
      <g transform="translate(10.8375 266.473415)scale(0.1 -0.1)">
       <use xlink:href="#DejaVuSans-49"/>
       <use x="63.623047" xlink:href="#DejaVuSans-48"/>
       <use x="127.246094" xlink:href="#DejaVuSans-48"/>
      </g>
     </g>
    </g>
    <g id="ytick_4">
     <g id="line2d_12">
      <g>
       <use style="stroke:#000000;stroke-width:0.8;" x="36.925" xlink:href="#m0ad7c82e48" y="195.321456"/>
      </g>
     </g>
     <g id="text_12">
      <!-- 150 -->
      <g transform="translate(10.8375 199.120675)scale(0.1 -0.1)">
       <use xlink:href="#DejaVuSans-49"/>
       <use x="63.623047" xlink:href="#DejaVuSans-53"/>
       <use x="127.246094" xlink:href="#DejaVuSans-48"/>
      </g>
     </g>
    </g>
    <g id="ytick_5">
     <g id="line2d_13">
      <g>
       <use style="stroke:#000000;stroke-width:0.8;" x="36.925" xlink:href="#m0ad7c82e48" y="127.968717"/>
      </g>
     </g>
     <g id="text_13">
      <!-- 200 -->
      <g transform="translate(10.8375 131.767936)scale(0.1 -0.1)">
       <use xlink:href="#DejaVuSans-50"/>
       <use x="63.623047" xlink:href="#DejaVuSans-48"/>
       <use x="127.246094" xlink:href="#DejaVuSans-48"/>
      </g>
     </g>
    </g>
    <g id="ytick_6">
     <g id="line2d_14">
      <g>
       <use style="stroke:#000000;stroke-width:0.8;" x="36.925" xlink:href="#m0ad7c82e48" y="60.615978"/>
      </g>
     </g>
     <g id="text_14">
      <!-- 250 -->
      <g transform="translate(10.8375 64.415196)scale(0.1 -0.1)">
       <use xlink:href="#DejaVuSans-50"/>
       <use x="63.623047" xlink:href="#DejaVuSans-53"/>
       <use x="127.246094" xlink:href="#DejaVuSans-48"/>
      </g>
     </g>
    </g>
   </g>
   <g id="line2d_15">
    <path clip-path="url(#paa41ccaed0)" d="M 104.110075 363.83801 
L 105.832769 366.026974 
L 107.555464 362.996101 
L 109.278158 364.410509 
L 111.000852 365.454476 
L 112.723546 363.703305 
L 114.446241 357.506853 
L 116.168935 357.102736 
L 117.891629 354.812743 
L 121.337018 354.981125 
L 123.059712 355.553623 
L 124.782406 356.799649 
L 126.5051 357.80994 
L 128.227794 359.055966 
L 129.950489 361.076548 
L 131.673183 360.840813 
L 133.395877 359.628464 
L 135.118571 359.594788 
L 136.841266 359.123319 
L 140.286654 359.123319 
L 150.62282 301.738785 
L 152.345514 301.738785 
L 154.068208 301.435697 
L 157.513596 301.233639 
L 159.236291 301.469374 
L 160.958985 301.098934 
L 164.404373 301.098934 
L 166.127068 301.469374 
L 167.849762 301.368345 
L 169.572456 300.728494 
L 173.017845 300.964228 
L 174.740539 299.852908 
L 176.463233 303.052163 
L 179.908622 302.580694 
L 181.631316 304.601276 
L 183.35401 310.629346 
L 185.076704 310.494641 
L 186.799398 308.844499 
L 188.522093 308.440382 
L 190.244787 308.575088 
L 191.967481 308.339353 
L 195.41287 308.238324 
L 197.135564 307.059651 
L 198.858258 308.676117 
L 200.580952 308.709793 
L 202.303647 309.652732 
L 204.026341 305.005393 
L 205.749035 306.386124 
L 207.471729 304.533923 
L 214.362506 344.709832 
L 219.530589 372.156074 
L 221.253283 372.56019 
L 222.975977 372.459161 
L 228.14406 372.829601 
L 229.866754 373.200041 
L 231.589449 373.166365 
L 233.312143 371.785634 
L 236.757531 371.954015 
L 238.480226 372.694896 
L 240.20292 372.459161 
L 241.925614 372.492837 
L 243.648308 373.705187 
L 245.371003 373.738863 
L 248.816391 374.109303 
L 252.261779 374.008274 
L 253.984474 375.052241 
L 255.707168 378.150468 
L 259.152556 378.049438 
L 260.875251 378.21782 
L 262.597945 378.116791 
L 264.320639 378.352526 
L 266.043333 379.901639 
L 267.766028 379.598551 
L 271.211416 380.036344 
L 272.93411 384.683683 
L 274.656805 385.121476 
L 276.379499 386.94 
L 281.547581 356.833325 
L 284.99297 356.799649 
L 286.715664 354.779067 
L 288.438358 355.856711 
L 293.606441 355.924064 
L 295.329135 353.735099 
L 297.05183 352.994219 
L 298.774524 352.489074 
L 300.497218 352.52275 
L 302.219912 353.095248 
L 303.942607 352.084957 
L 305.665301 351.882899 
L 307.387995 349.963346 
L 309.110689 350.232757 
L 310.833383 349.155113 
L 312.556078 343.127043 
L 317.72416 343.026014 
L 319.446855 341.982046 
L 321.169549 341.274843 
L 322.892243 341.241166 
L 324.614937 341.476901 
L 326.337632 339.759406 
L 328.060326 339.72573 
L 329.78302 339.860435 
L 331.505714 339.860435 
L 333.228409 338.917497 
L 334.951103 338.917497 
L 336.673797 339.085879 
L 338.396491 339.119555 
L 340.119185 338.951173 
L 343.564574 338.98485 
L 345.287268 338.277646 
L 347.009962 345.181302 
L 348.732657 354.880096 
L 350.455351 358.752879 
L 352.178045 358.719202 
L 353.900739 354.913772 
L 355.623434 357.574206 
L 357.346128 357.372147 
L 359.068822 355.823034 
L 360.791516 355.95774 
L 362.514211 355.755682 
L 364.236905 357.843617 
L 365.959599 358.618173 
L 367.682293 355.95774 
L 369.404987 345.989534 
L 371.127682 346.528356 
L 372.850376 347.504971 
L 374.57307 347.067178 
L 376.295764 348.750997 
L 378.018459 348.649968 
L 379.741153 349.693935 
L 381.463847 345.652771 
L 386.63193 316.051242 
L 388.354624 317.095209 
L 390.077318 316.893151 
L 391.800013 315.647125 
L 393.522707 316.219624 
L 395.245401 318.644322 
L 396.968095 318.677999 
L 398.690789 318.57697 
L 400.413484 318.677999 
L 402.136178 319.68829 
L 403.858872 319.553584 
L 405.581566 319.991377 
L 407.304261 319.789319 
L 410.749649 319.755642 
L 412.472343 319.721966 
L 414.195038 320.227112 
L 415.917732 313.323456 
L 417.640426 313.020369 
L 419.36312 319.149468 
L 421.085815 319.183144 
L 422.808509 317.73506 
L 424.531203 314.838892 
L 426.253897 314.973598 
L 427.976591 316.522711 
L 429.699286 314.131689 
L 431.42198 314.266394 
L 433.144674 313.794925 
L 434.867368 308.036266 
L 436.590063 311.302874 
L 438.312757 321.372108 
L 440.035451 321.641519 
L 441.758145 312.919339 
L 443.48084 313.18875 
L 445.203534 313.323456 
L 446.926228 310.056848 
L 448.648922 310.090524 
L 450.371617 317.836089 
L 455.539699 347.302913 
L 457.262393 347.302913 
L 458.985088 347.909088 
L 460.707782 349.256142 
L 462.430476 349.256142 
L 464.15317 349.390848 
L 469.321253 349.323495 
L 471.043947 349.222466 
L 472.766642 349.357171 
L 474.489336 349.357171 
L 477.934724 349.761288 
L 479.657419 349.592906 
L 481.380113 349.020408 
L 483.102807 349.222466 
L 484.825501 357.203766 
L 486.548195 356.900678 
L 488.27089 356.361856 
L 489.993584 355.654653 
L 491.716278 355.722005 
L 493.438972 358.685526 
L 495.161667 356.563915 
L 496.884361 355.284212 
L 498.607055 357.405824 
L 500.329749 355.452594 
L 502.052444 356.025093 
L 503.775138 358.719202 
L 505.497832 358.55082 
L 508.943221 358.517144 
L 510.665915 366.599473 
L 512.388609 365.252418 
L 514.111303 364.141098 
L 515.833997 366.53212 
L 517.556692 366.397414 
L 519.279386 368.620055 
L 522.724774 369.1252 
L 524.447469 368.552702 
L 526.170163 368.38432 
L 527.892857 368.923142 
L 534.783634 368.687408 
L 538.229023 368.889466 
L 539.951717 367.811822 
L 543.397105 364.915654 
L 545.119799 364.949331 
L 546.842494 363.265512 
L 548.565188 361.750075 
L 550.287882 362.35625 
L 552.010576 362.120516 
L 553.733271 364.174774 
L 555.455965 365.05036 
L 557.178659 365.117712 
L 558.901353 365.824916 
L 560.624048 371.751957 
L 562.346742 371.415194 
L 564.069436 365.892269 
L 565.79213 365.925945 
L 567.514825 366.195356 
L 569.237519 368.215938 
L 570.960213 366.835207 
L 572.682907 369.832404 
L 574.405602 369.933433 
L 576.128296 369.664022 
L 577.85099 369.697699 
L 579.573684 367.374029 
L 581.296378 369.1252 
L 583.019073 370.270197 
L 584.741767 371.246812 
L 586.464461 371.381517 
L 588.187155 369.96711 
L 591.632544 370.068139 
L 593.355238 370.472255 
L 595.077932 369.327259 
L 596.800627 366.128004 
L 598.523321 366.026974 
L 600.246015 365.084036 
L 601.968709 365.252418 
L 603.691404 364.141098 
L 605.414098 364.040069 
L 607.136792 363.366541 
L 608.859486 363.602276 
L 610.58218 363.635952 
L 612.304875 364.983007 
L 614.027569 363.83801 
L 615.750263 364.713596 
L 617.472957 364.881978 
L 619.195652 364.477861 
L 620.918346 364.646243 
L 622.64104 362.221545 
L 624.363734 352.623779 
L 626.086429 351.243048 
L 627.809123 351.142019 
L 629.531817 351.276724 
L 631.254511 351.613488 
L 632.977206 359.2917 
L 634.6999 360.234639 
L 636.422594 360.50405 
L 638.145288 360.470373 
L 639.867982 361.851105 
L 641.590677 360.403021 
L 643.313371 360.436697 
L 645.036065 360.066257 
L 646.758759 358.281409 
L 648.481454 358.954937 
L 650.204148 355.351565 
L 651.926842 355.250536 
L 653.649536 354.273921 
L 655.372231 354.00451 
L 657.094925 350.232757 
L 658.817619 349.828641 
L 660.540313 349.794964 
L 662.263008 349.289819 
L 663.985702 349.92967 
L 665.708396 353.027896 
L 667.43109 352.084957 
L 669.153784 352.421721 
L 670.876479 351.512459 
L 672.599173 352.623779 
L 674.321867 352.52275 
L 676.044561 352.219663 
L 677.767256 353.162601 
L 679.48995 354.442303 
L 681.212644 354.273921 
L 682.935338 355.115831 
L 684.658033 355.789358 
L 686.380727 356.900678 
L 688.103421 357.203766 
L 689.826115 357.136413 
L 691.54881 359.190671 
L 693.271504 368.653731 
L 694.994198 370.303873 
L 696.716892 370.270197 
L 698.439586 368.990495 
L 700.162281 368.990495 
L 701.884975 367.340353 
L 707.053058 367.205647 
L 708.775752 367.205647 
L 710.498446 367.912851 
L 712.22114 367.475058 
L 713.943835 367.744469 
L 715.666529 369.461964 
L 717.389223 371.785634 
L 719.111917 375.389005 
L 720.834612 375.321652 
L 722.557306 376.264591 
L 724.28 376.399296 
L 724.28 376.399296 
" style="fill:none;stroke:#1f77b4;stroke-linecap:square;stroke-width:1.5;"/>
   </g>
   <g id="line2d_16">
    <path clip-path="url(#paa41ccaed0)" d="M 104.110075 344.002629 
L 105.832769 336.223387 
L 107.555464 326.490916 
L 109.278158 318.071824 
L 111.000852 309.080233 
L 112.723546 309.315968 
L 117.891629 279.680763 
L 119.614323 279.680763 
L 123.059712 260.384203 
L 124.782406 261.630228 
L 126.5051 261.562876 
L 128.227794 263.111989 
L 129.950489 266.984771 
L 131.673183 266.614331 
L 133.395877 265.839775 
L 135.118571 265.806098 
L 136.841266 266.479626 
L 140.286654 266.479626 
L 142.009348 256.949213 
L 143.732043 257.353329 
L 145.454737 258.296268 
L 148.900125 259.037148 
L 155.790902 219.433737 
L 157.513596 219.433737 
L 159.236291 218.962268 
L 160.958985 218.692857 
L 162.681679 208.690975 
L 164.404373 208.724652 
L 166.127068 218.76021 
L 167.849762 218.692857 
L 169.572456 228.560033 
L 171.29515 218.524475 
L 173.017845 218.861239 
L 176.463233 238.561915 
L 178.185927 246.745273 
L 179.908622 256.713478 
L 181.631316 256.747155 
L 186.799398 286.281331 
L 188.522093 286.517066 
L 190.244787 296.5863 
L 191.967481 303.590985 
L 193.690175 303.557309 
L 195.41287 304.062454 
L 198.858258 284.092367 
L 200.580952 284.395454 
L 202.303647 283.755603 
L 204.026341 273.720045 
L 205.749035 264.358014 
L 207.471729 264.155956 
L 210.917118 283.923985 
L 216.085201 284.092367 
L 217.807895 274.023132 
L 221.253283 293.757485 
L 222.975977 300.964228 
L 224.698672 310.764052 
L 226.421366 310.59567 
L 229.866754 291.770579 
L 231.589449 301.671432 
L 233.312143 301.368345 
L 238.480226 301.570403 
L 240.20292 311.471256 
L 241.925614 311.504932 
L 245.371003 291.804256 
L 247.093697 283.620898 
L 250.539085 263.583458 
L 252.261779 263.75184 
L 253.984474 263.718163 
L 255.707168 263.953898 
L 259.152556 244.017487 
L 260.875251 246.543215 
L 262.597945 246.30748 
L 264.320639 246.981008 
L 267.766028 266.883742 
L 269.488722 266.782713 
L 271.211416 268.129768 
L 274.656805 288.133531 
L 276.379499 288.301913 
L 278.102193 286.247655 
L 279.824887 283.688251 
L 281.547581 282.004432 
L 284.99297 281.970756 
L 286.715664 291.770579 
L 288.438358 292.107343 
L 290.161053 292.141019 
L 291.883747 294.767776 
L 293.606441 294.969834 
L 295.329135 293.690132 
L 298.774524 313.357132 
L 302.219912 313.626543 
L 303.942607 308.810822 
L 305.665301 305.476862 
L 307.387995 301.570403 
L 309.110689 301.705108 
L 310.833383 300.425406 
L 319.446855 300.425406 
L 324.614937 270.52079 
L 328.060326 270.52079 
L 329.78302 271.059612 
L 331.505714 270.992259 
L 333.228409 261.05773 
L 336.673797 261.05773 
L 338.396491 261.226112 
L 340.119185 260.148468 
L 343.564574 260.249497 
L 345.287268 260.047439 
L 347.009962 258.498326 
L 348.732657 260.552585 
L 352.178045 260.451555 
L 353.900739 257.892151 
L 355.623434 251.662023 
L 357.346128 246.846302 
L 359.068822 244.926749 
L 360.791516 241.592788 
L 362.514211 241.626465 
L 364.236905 238.393533 
L 365.959599 238.730297 
L 367.682293 234.924867 
L 369.404987 233.948252 
L 371.127682 227.85283 
L 372.850376 232.634874 
L 374.57307 231.388848 
L 376.295764 235.160602 
L 378.018459 235.160602 
L 379.741153 236.406627 
L 386.63193 236.406627 
L 388.354624 245.532924 
L 393.522707 275.235482 
L 395.245401 275.235482 
L 396.968095 285.304716 
L 398.690789 285.27104 
L 400.413484 285.574127 
L 402.136178 295.643362 
L 403.858872 295.508656 
L 405.581566 295.710714 
L 407.304261 295.47498 
L 409.026955 296.518947 
L 410.749649 296.552624 
L 412.472343 296.451595 
L 414.195038 286.618095 
L 415.917732 280.421643 
L 417.640426 280.893112 
L 419.36312 282.509578 
L 421.085815 282.442225 
L 422.808509 274.999747 
L 424.531203 271.430052 
L 426.253897 266.210215 
L 427.976591 267.927709 
L 429.699286 261.42817 
L 431.42198 260.31685 
L 433.144674 264.997865 
L 434.867368 254.962307 
L 436.590063 258.868766 
L 438.312757 259.811704 
L 440.035451 266.041833 
L 441.758145 264.896836 
L 443.48084 268.365502 
L 446.926228 248.395415 
L 448.648922 248.429091 
L 455.539699 287.628386 
L 457.262393 288.503971 
L 458.985088 288.402942 
L 460.707782 288.503971 
L 462.430476 287.998826 
L 464.15317 298.06806 
L 467.598559 298.000708 
L 469.321253 297.933355 
L 472.766642 297.495562 
L 474.489336 297.495562 
L 477.934724 297.764973 
L 481.380113 297.091446 
L 484.825501 297.091446 
L 489.993584 267.254182 
L 495.161667 267.254182 
L 496.884361 257.387006 
L 498.607055 257.387006 
L 500.329749 248.462768 
L 502.052444 247.587182 
L 503.775138 257.387006 
L 505.497832 257.285977 
L 507.220526 247.284095 
L 508.943221 247.317771 
L 510.665915 238.42721 
L 512.388609 238.157799 
L 514.111303 244.657338 
L 515.833997 254.524514 
L 521.00208 224.552545 
L 522.724774 225.360778 
L 524.447469 224.619898 
L 526.170163 224.653574 
L 527.892857 224.990338 
L 529.615551 214.921104 
L 531.338246 215.459926 
L 534.783634 215.358896 
L 538.229023 215.493602 
L 539.951717 215.661984 
L 543.397105 215.493602 
L 545.119799 215.560955 
L 546.842494 205.525396 
L 548.565188 205.12128 
L 550.287882 205.592749 
L 553.733271 225.360778 
L 555.455965 233.611489 
L 560.624048 263.078312 
L 562.346742 270.823877 
L 569.237519 310.561994 
L 570.960213 311.33655 
L 574.405602 311.504932 
L 576.128296 321.372108 
L 577.85099 321.338432 
L 579.573684 331.205608 
L 581.296378 332.85575 
L 583.019073 336.189711 
L 584.741767 336.324416 
L 586.464461 346.393651 
L 591.632544 346.393651 
L 593.355238 346.999826 
L 595.077932 336.964267 
L 596.800627 333.933394 
L 598.523321 343.935276 
L 600.246015 343.867923 
L 601.968709 343.935276 
L 605.414098 343.632189 
L 607.136792 342.958661 
L 608.859486 342.655574 
L 610.58218 342.958661 
L 612.304875 342.756603 
L 614.027569 342.722927 
L 615.750263 352.724808 
L 617.472957 343.362778 
L 619.195652 333.293543 
L 620.918346 333.59663 
L 622.64104 332.215899 
L 624.363734 333.327219 
L 626.086429 333.428249 
L 627.809123 333.798689 
L 629.531817 333.765012 
L 631.254511 336.021329 
L 632.977206 336.156034 
L 634.6999 335.987653 
L 639.867982 336.29074 
L 641.590677 334.606921 
L 643.313371 334.606921 
L 645.036065 332.48531 
L 646.758759 332.384281 
L 648.481454 329.083997 
L 650.204148 328.477822 
L 651.926842 328.646204 
L 653.649536 326.558269 
L 655.372231 326.288858 
L 658.817619 326.288858 
L 662.263008 325.918418 
L 663.985702 335.785594 
L 665.708396 337.267355 
L 667.43109 334.573245 
L 669.153784 334.606921 
L 670.876479 333.562954 
L 672.599173 333.69766 
L 674.321867 333.529278 
L 676.044561 333.798689 
L 677.767256 331.441343 
L 681.212644 331.643401 
L 682.935338 331.576048 
L 684.658033 326.928709 
L 688.103421 345.652771 
L 689.826115 343.362778 
L 691.54881 344.608803 
L 693.271504 344.64248 
L 694.994198 344.17101 
L 698.439586 343.968952 
L 700.162281 333.96707 
L 701.884975 333.765012 
L 703.607669 333.798689 
L 705.330363 323.76313 
L 708.775752 323.796807 
L 710.498446 315.579773 
L 712.22114 315.074627 
L 713.943835 307.329062 
L 715.666529 307.228033 
L 717.389223 310.730375 
L 719.111917 311.33655 
L 720.834612 301.334668 
L 722.557306 303.052163 
L 724.28 293.25234 
L 724.28 293.25234 
" style="fill:none;stroke:#ff7f0e;stroke-linecap:square;stroke-width:1.5;"/>
   </g>
   <g id="line2d_17">
    <path clip-path="url(#paa41ccaed0)" d="M 104.110075 344.002629 
L 105.832769 336.223387 
L 107.555464 326.490916 
L 109.278158 318.071824 
L 111.000852 309.080233 
L 112.723546 309.315968 
L 117.891629 279.680763 
L 119.614323 279.680763 
L 123.059712 260.384203 
L 124.782406 261.630228 
L 126.5051 261.562876 
L 128.227794 263.111989 
L 129.950489 266.984771 
L 131.673183 256.915537 
L 133.395877 256.107304 
L 135.118571 256.073627 
L 136.841266 247.385124 
L 140.286654 247.385124 
L 142.009348 237.854711 
L 143.732043 238.191475 
L 145.454737 239.134413 
L 148.900125 239.875294 
L 155.790902 200.271883 
L 157.513596 200.271883 
L 159.236291 199.800414 
L 160.958985 199.531003 
L 162.681679 189.529121 
L 164.404373 189.562797 
L 166.127068 199.598355 
L 167.849762 199.531003 
L 169.572456 209.398179 
L 171.29515 199.362621 
L 173.017845 199.699384 
L 176.463233 219.400061 
L 178.185927 227.549742 
L 179.908622 237.517948 
L 181.631316 237.551624 
L 186.799398 267.0858 
L 188.522093 267.018448 
L 190.244787 277.087682 
L 191.967481 284.294425 
L 193.690175 283.721927 
L 195.41287 284.698542 
L 198.858258 264.728454 
L 200.580952 274.730336 
L 202.303647 274.090485 
L 204.026341 264.054927 
L 205.749035 264.054927 
L 207.471729 262.202727 
L 209.194424 272.204608 
L 210.917118 280.152232 
L 214.362506 280.387966 
L 216.085201 280.387966 
L 217.807895 270.318732 
L 224.698672 309.551702 
L 226.421366 309.585379 
L 229.866754 290.760288 
L 231.589449 300.492759 
L 233.312143 300.324377 
L 235.034837 300.358054 
L 238.480226 300.76217 
L 240.20292 310.696699 
L 241.925614 310.730375 
L 243.648308 310.359935 
L 245.371003 310.730375 
L 247.093697 312.515223 
L 255.707168 262.943607 
L 257.429862 263.3814 
L 259.152556 253.312165 
L 260.875251 256.039951 
L 264.320639 236.810744 
L 266.043333 246.778949 
L 269.488722 246.711597 
L 271.211416 247.991299 
L 272.93411 247.991299 
L 274.656805 257.99318 
L 276.379499 259.811704 
L 278.102193 249.809823 
L 279.824887 251.763052 
L 281.547581 241.693818 
L 286.715664 241.592788 
L 288.438358 241.996905 
L 291.883747 241.996905 
L 293.606441 242.299992 
L 295.329135 240.043675 
L 297.05183 249.809823 
L 298.774524 258.700384 
L 300.497218 258.969795 
L 302.219912 259.070824 
L 303.942607 258.734061 
L 305.665301 257.959504 
L 307.387995 247.89027 
L 309.110689 248.024975 
L 310.833383 247.115713 
L 312.556078 237.450595 
L 314.278772 237.248537 
L 316.001466 227.314008 
L 317.72416 237.315889 
L 322.892243 237.315889 
L 324.614937 247.284095 
L 326.337632 247.284095 
L 328.060326 257.319653 
L 329.78302 257.454359 
L 333.228409 277.357093 
L 334.951103 267.388888 
L 336.673797 267.388888 
L 340.119185 267.658299 
L 341.84188 277.693857 
L 343.564574 277.761209 
L 345.287268 277.592828 
L 347.009962 277.592828 
L 348.732657 267.691975 
L 350.455351 267.691975 
L 352.178045 266.378596 
L 353.900739 256.444067 
L 355.623434 256.444067 
L 360.791516 226.573128 
L 362.514211 226.371069 
L 364.236905 218.591828 
L 365.959599 218.793886 
L 367.682293 209.903325 
L 372.850376 180.200766 
L 374.57307 170.939765 
L 378.018459 170.838736 
L 379.741153 171.646969 
L 381.463847 171.646969 
L 383.186541 171.849027 
L 384.909236 171.849027 
L 386.63193 161.847145 
L 388.354624 171.882703 
L 390.077318 171.882703 
L 391.800013 181.918261 
L 393.522707 181.985614 
L 395.245401 171.983732 
L 396.968095 172.017409 
L 400.413484 171.882703 
L 402.136178 172.051085 
L 405.581566 192.155878 
L 409.026955 192.088525 
L 412.472343 192.088525 
L 414.195038 182.221349 
L 419.36312 182.221349 
L 421.085815 173.465493 
L 429.699286 173.465493 
L 431.42198 163.598316 
L 433.144674 163.598316 
L 434.867368 153.630111 
L 436.590063 163.699345 
L 445.203534 163.699345 
L 446.926228 153.73114 
L 448.648922 153.832169 
L 450.371617 163.598316 
L 452.094311 163.598316 
L 455.539699 183.23164 
L 457.262393 183.23164 
L 458.985088 193.098816 
L 460.707782 193.132492 
L 462.430476 192.896758 
L 464.15317 202.965992 
L 465.875865 202.965992 
L 471.043947 201.955701 
L 472.766642 201.719967 
L 474.489336 201.719967 
L 476.21203 201.517908 
L 477.934724 201.113792 
L 479.657419 200.911734 
L 481.380113 200.57497 
L 483.102807 210.610528 
L 489.993584 210.610528 
L 491.716278 220.545057 
L 503.775138 220.545057 
L 505.497832 210.475823 
L 515.833997 210.475823 
L 521.00208 180.604883 
L 522.724774 171.040794 
L 524.447469 170.131532 
L 527.892857 170.299914 
L 529.615551 169.895797 
L 531.338246 167.875215 
L 533.06094 167.471099 
L 534.783634 167.471099 
L 536.506328 167.875215 
L 538.229023 168.11095 
L 539.951717 168.11095 
L 541.674411 167.976244 
L 543.397105 157.90701 
L 550.287882 158.513184 
L 552.010576 158.344803 
L 558.901353 198.150271 
L 560.624048 198.251301 
L 569.237519 247.755564 
L 577.85099 296.788358 
L 581.296378 316.859475 
L 583.019073 316.859475 
L 586.464461 336.997944 
L 591.632544 336.997944 
L 593.355238 327.837971 
L 595.077932 327.130767 
L 596.800627 327.130767 
L 598.523321 327.467531 
L 600.246015 329.656495 
L 601.968709 330.060612 
L 605.414098 329.925906 
L 607.136792 329.993259 
L 608.859486 320.294464 
L 610.58218 320.597552 
L 612.304875 330.599433 
L 614.027569 330.700463 
L 615.750263 330.936197 
L 620.918346 331.205608 
L 631.254511 271.362699 
L 632.977206 261.562876 
L 634.6999 257.959504 
L 636.422594 258.296268 
L 638.145288 258.262591 
L 639.867982 258.565679 
L 641.590677 249.237324 
L 643.313371 249.237324 
L 650.204148 209.229797 
L 651.926842 209.229797 
L 655.372231 189.091328 
L 662.263008 189.091328 
L 663.985702 179.729297 
L 670.876479 139.688094 
L 672.599173 139.789123 
L 676.044561 119.819036 
L 677.767256 129.88827 
L 689.826115 59.875098 
L 691.54881 59.875098 
L 693.271504 69.809627 
L 698.439586 69.809627 
L 700.162281 79.744156 
L 701.884975 79.744156 
L 703.607669 73.412998 
L 705.330363 63.37744 
L 707.053058 63.411116 
L 708.775752 53.375558 
L 710.498446 53.375558 
L 712.22114 43.34 
L 715.666529 43.34 
L 717.389223 53.409235 
L 720.834612 53.409235 
L 722.557306 63.444793 
L 724.28 63.444793 
L 724.28 63.444793 
" style="fill:none;stroke:#2ca02c;stroke-linecap:square;stroke-width:1.5;"/>
   </g>
   <g id="patch_3">
    <path d="M 36.925 404.12 
L 36.925 26.16 
" style="fill:none;stroke:#000000;stroke-linecap:square;stroke-linejoin:miter;stroke-width:0.8;"/>
   </g>
   <g id="patch_4">
    <path d="M 724.28 404.12 
L 724.28 26.16 
" style="fill:none;stroke:#000000;stroke-linecap:square;stroke-linejoin:miter;stroke-width:0.8;"/>
   </g>
   <g id="patch_5">
    <path d="M 36.925 404.12 
L 724.28 404.12 
" style="fill:none;stroke:#000000;stroke-linecap:square;stroke-linejoin:miter;stroke-width:0.8;"/>
   </g>
   <g id="patch_6">
    <path d="M 36.925 26.16 
L 724.28 26.16 
" style="fill:none;stroke:#000000;stroke-linecap:square;stroke-linejoin:miter;stroke-width:0.8;"/>
   </g>
   <g id="text_15">
    <!-- gridworld_5x5_20_1_20_1337__2: episode duration, steps, MA=40 -->
    <defs>
     <path d="M 45.40625 27.984375 
Q 45.40625 37.75 41.375 43.109375 
Q 37.359375 48.484375 30.078125 48.484375 
Q 22.859375 48.484375 18.828125 43.109375 
Q 14.796875 37.75 14.796875 27.984375 
Q 14.796875 18.265625 18.828125 12.890625 
Q 22.859375 7.515625 30.078125 7.515625 
Q 37.359375 7.515625 41.375 12.890625 
Q 45.40625 18.265625 45.40625 27.984375 
z
M 54.390625 6.78125 
Q 54.390625 -7.171875 48.1875 -13.984375 
Q 42 -20.796875 29.203125 -20.796875 
Q 24.46875 -20.796875 20.265625 -20.09375 
Q 16.0625 -19.390625 12.109375 -17.921875 
L 12.109375 -9.1875 
Q 16.0625 -11.328125 19.921875 -12.34375 
Q 23.78125 -13.375 27.78125 -13.375 
Q 36.625 -13.375 41.015625 -8.765625 
Q 45.40625 -4.15625 45.40625 5.171875 
L 45.40625 9.625 
Q 42.625 4.78125 38.28125 2.390625 
Q 33.9375 0 27.875 0 
Q 17.828125 0 11.671875 7.65625 
Q 5.515625 15.328125 5.515625 27.984375 
Q 5.515625 40.671875 11.671875 48.328125 
Q 17.828125 56 27.875 56 
Q 33.9375 56 38.28125 53.609375 
Q 42.625 51.21875 45.40625 46.390625 
L 45.40625 54.6875 
L 54.390625 54.6875 
z
" id="DejaVuSans-103"/>
     <path d="M 41.109375 46.296875 
Q 39.59375 47.171875 37.8125 47.578125 
Q 36.03125 48 33.890625 48 
Q 26.265625 48 22.1875 43.046875 
Q 18.109375 38.09375 18.109375 28.8125 
L 18.109375 0 
L 9.078125 0 
L 9.078125 54.6875 
L 18.109375 54.6875 
L 18.109375 46.1875 
Q 20.953125 51.171875 25.484375 53.578125 
Q 30.03125 56 36.53125 56 
Q 37.453125 56 38.578125 55.875 
Q 39.703125 55.765625 41.0625 55.515625 
z
" id="DejaVuSans-114"/>
     <path d="M 9.421875 54.6875 
L 18.40625 54.6875 
L 18.40625 0 
L 9.421875 0 
z
M 9.421875 75.984375 
L 18.40625 75.984375 
L 18.40625 64.59375 
L 9.421875 64.59375 
z
" id="DejaVuSans-105"/>
     <path d="M 45.40625 46.390625 
L 45.40625 75.984375 
L 54.390625 75.984375 
L 54.390625 0 
L 45.40625 0 
L 45.40625 8.203125 
Q 42.578125 3.328125 38.25 0.953125 
Q 33.9375 -1.421875 27.875 -1.421875 
Q 17.96875 -1.421875 11.734375 6.484375 
Q 5.515625 14.40625 5.515625 27.296875 
Q 5.515625 40.1875 11.734375 48.09375 
Q 17.96875 56 27.875 56 
Q 33.9375 56 38.25 53.625 
Q 42.578125 51.265625 45.40625 46.390625 
z
M 14.796875 27.296875 
Q 14.796875 17.390625 18.875 11.75 
Q 22.953125 6.109375 30.078125 6.109375 
Q 37.203125 6.109375 41.296875 11.75 
Q 45.40625 17.390625 45.40625 27.296875 
Q 45.40625 37.203125 41.296875 42.84375 
Q 37.203125 48.484375 30.078125 48.484375 
Q 22.953125 48.484375 18.875 42.84375 
Q 14.796875 37.203125 14.796875 27.296875 
z
" id="DejaVuSans-100"/>
     <path d="M 4.203125 54.6875 
L 13.1875 54.6875 
L 24.421875 12.015625 
L 35.59375 54.6875 
L 46.1875 54.6875 
L 57.421875 12.015625 
L 68.609375 54.6875 
L 77.59375 54.6875 
L 63.28125 0 
L 52.6875 0 
L 40.921875 44.828125 
L 29.109375 0 
L 18.5 0 
z
" id="DejaVuSans-119"/>
     <path d="M 30.609375 48.390625 
Q 23.390625 48.390625 19.1875 42.75 
Q 14.984375 37.109375 14.984375 27.296875 
Q 14.984375 17.484375 19.15625 11.84375 
Q 23.34375 6.203125 30.609375 6.203125 
Q 37.796875 6.203125 41.984375 11.859375 
Q 46.1875 17.53125 46.1875 27.296875 
Q 46.1875 37.015625 41.984375 42.703125 
Q 37.796875 48.390625 30.609375 48.390625 
z
M 30.609375 56 
Q 42.328125 56 49.015625 48.375 
Q 55.71875 40.765625 55.71875 27.296875 
Q 55.71875 13.875 49.015625 6.21875 
Q 42.328125 -1.421875 30.609375 -1.421875 
Q 18.84375 -1.421875 12.171875 6.21875 
Q 5.515625 13.875 5.515625 27.296875 
Q 5.515625 40.765625 12.171875 48.375 
Q 18.84375 56 30.609375 56 
z
" id="DejaVuSans-111"/>
     <path d="M 9.421875 75.984375 
L 18.40625 75.984375 
L 18.40625 0 
L 9.421875 0 
z
" id="DejaVuSans-108"/>
     <path d="M 50.984375 -16.609375 
L 50.984375 -23.578125 
L -0.984375 -23.578125 
L -0.984375 -16.609375 
z
" id="DejaVuSans-95"/>
     <path d="M 54.890625 54.6875 
L 35.109375 28.078125 
L 55.90625 0 
L 45.3125 0 
L 29.390625 21.484375 
L 13.484375 0 
L 2.875 0 
L 24.125 28.609375 
L 4.6875 54.6875 
L 15.28125 54.6875 
L 29.78125 35.203125 
L 44.28125 54.6875 
z
" id="DejaVuSans-120"/>
     <path d="M 8.203125 72.90625 
L 55.078125 72.90625 
L 55.078125 68.703125 
L 28.609375 0 
L 18.3125 0 
L 43.21875 64.59375 
L 8.203125 64.59375 
z
" id="DejaVuSans-55"/>
     <path d="M 11.71875 12.40625 
L 22.015625 12.40625 
L 22.015625 0 
L 11.71875 0 
z
M 11.71875 51.703125 
L 22.015625 51.703125 
L 22.015625 39.3125 
L 11.71875 39.3125 
z
" id="DejaVuSans-58"/>
     <path id="DejaVuSans-32"/>
     <path d="M 56.203125 29.59375 
L 56.203125 25.203125 
L 14.890625 25.203125 
Q 15.484375 15.921875 20.484375 11.0625 
Q 25.484375 6.203125 34.421875 6.203125 
Q 39.59375 6.203125 44.453125 7.46875 
Q 49.3125 8.734375 54.109375 11.28125 
L 54.109375 2.78125 
Q 49.265625 0.734375 44.1875 -0.34375 
Q 39.109375 -1.421875 33.890625 -1.421875 
Q 20.796875 -1.421875 13.15625 6.1875 
Q 5.515625 13.8125 5.515625 26.8125 
Q 5.515625 40.234375 12.765625 48.109375 
Q 20.015625 56 32.328125 56 
Q 43.359375 56 49.78125 48.890625 
Q 56.203125 41.796875 56.203125 29.59375 
z
M 47.21875 32.234375 
Q 47.125 39.59375 43.09375 43.984375 
Q 39.0625 48.390625 32.421875 48.390625 
Q 24.90625 48.390625 20.390625 44.140625 
Q 15.875 39.890625 15.1875 32.171875 
z
" id="DejaVuSans-101"/>
     <path d="M 18.109375 8.203125 
L 18.109375 -20.796875 
L 9.078125 -20.796875 
L 9.078125 54.6875 
L 18.109375 54.6875 
L 18.109375 46.390625 
Q 20.953125 51.265625 25.265625 53.625 
Q 29.59375 56 35.59375 56 
Q 45.5625 56 51.78125 48.09375 
Q 58.015625 40.1875 58.015625 27.296875 
Q 58.015625 14.40625 51.78125 6.484375 
Q 45.5625 -1.421875 35.59375 -1.421875 
Q 29.59375 -1.421875 25.265625 0.953125 
Q 20.953125 3.328125 18.109375 8.203125 
z
M 48.6875 27.296875 
Q 48.6875 37.203125 44.609375 42.84375 
Q 40.53125 48.484375 33.40625 48.484375 
Q 26.265625 48.484375 22.1875 42.84375 
Q 18.109375 37.203125 18.109375 27.296875 
Q 18.109375 17.390625 22.1875 11.75 
Q 26.265625 6.109375 33.40625 6.109375 
Q 40.53125 6.109375 44.609375 11.75 
Q 48.6875 17.390625 48.6875 27.296875 
z
" id="DejaVuSans-112"/>
     <path d="M 44.28125 53.078125 
L 44.28125 44.578125 
Q 40.484375 46.53125 36.375 47.5 
Q 32.28125 48.484375 27.875 48.484375 
Q 21.1875 48.484375 17.84375 46.4375 
Q 14.5 44.390625 14.5 40.28125 
Q 14.5 37.15625 16.890625 35.375 
Q 19.28125 33.59375 26.515625 31.984375 
L 29.59375 31.296875 
Q 39.15625 29.25 43.1875 25.515625 
Q 47.21875 21.78125 47.21875 15.09375 
Q 47.21875 7.46875 41.1875 3.015625 
Q 35.15625 -1.421875 24.609375 -1.421875 
Q 20.21875 -1.421875 15.453125 -0.5625 
Q 10.6875 0.296875 5.421875 2 
L 5.421875 11.28125 
Q 10.40625 8.6875 15.234375 7.390625 
Q 20.0625 6.109375 24.8125 6.109375 
Q 31.15625 6.109375 34.5625 8.28125 
Q 37.984375 10.453125 37.984375 14.40625 
Q 37.984375 18.0625 35.515625 20.015625 
Q 33.0625 21.96875 24.703125 23.78125 
L 21.578125 24.515625 
Q 13.234375 26.265625 9.515625 29.90625 
Q 5.8125 33.546875 5.8125 39.890625 
Q 5.8125 47.609375 11.28125 51.796875 
Q 16.75 56 26.8125 56 
Q 31.78125 56 36.171875 55.265625 
Q 40.578125 54.546875 44.28125 53.078125 
z
" id="DejaVuSans-115"/>
     <path d="M 8.5 21.578125 
L 8.5 54.6875 
L 17.484375 54.6875 
L 17.484375 21.921875 
Q 17.484375 14.15625 20.5 10.265625 
Q 23.53125 6.390625 29.59375 6.390625 
Q 36.859375 6.390625 41.078125 11.03125 
Q 45.3125 15.671875 45.3125 23.6875 
L 45.3125 54.6875 
L 54.296875 54.6875 
L 54.296875 0 
L 45.3125 0 
L 45.3125 8.40625 
Q 42.046875 3.421875 37.71875 1 
Q 33.40625 -1.421875 27.6875 -1.421875 
Q 18.265625 -1.421875 13.375 4.4375 
Q 8.5 10.296875 8.5 21.578125 
z
M 31.109375 56 
z
" id="DejaVuSans-117"/>
     <path d="M 34.28125 27.484375 
Q 23.390625 27.484375 19.1875 25 
Q 14.984375 22.515625 14.984375 16.5 
Q 14.984375 11.71875 18.140625 8.90625 
Q 21.296875 6.109375 26.703125 6.109375 
Q 34.1875 6.109375 38.703125 11.40625 
Q 43.21875 16.703125 43.21875 25.484375 
L 43.21875 27.484375 
z
M 52.203125 31.203125 
L 52.203125 0 
L 43.21875 0 
L 43.21875 8.296875 
Q 40.140625 3.328125 35.546875 0.953125 
Q 30.953125 -1.421875 24.3125 -1.421875 
Q 15.921875 -1.421875 10.953125 3.296875 
Q 6 8.015625 6 15.921875 
Q 6 25.140625 12.171875 29.828125 
Q 18.359375 34.515625 30.609375 34.515625 
L 43.21875 34.515625 
L 43.21875 35.40625 
Q 43.21875 41.609375 39.140625 45 
Q 35.0625 48.390625 27.6875 48.390625 
Q 23 48.390625 18.546875 47.265625 
Q 14.109375 46.140625 10.015625 43.890625 
L 10.015625 52.203125 
Q 14.9375 54.109375 19.578125 55.046875 
Q 24.21875 56 28.609375 56 
Q 40.484375 56 46.34375 49.84375 
Q 52.203125 43.703125 52.203125 31.203125 
z
" id="DejaVuSans-97"/>
     <path d="M 18.3125 70.21875 
L 18.3125 54.6875 
L 36.8125 54.6875 
L 36.8125 47.703125 
L 18.3125 47.703125 
L 18.3125 18.015625 
Q 18.3125 11.328125 20.140625 9.421875 
Q 21.96875 7.515625 27.59375 7.515625 
L 36.8125 7.515625 
L 36.8125 0 
L 27.59375 0 
Q 17.1875 0 13.234375 3.875 
Q 9.28125 7.765625 9.28125 18.015625 
L 9.28125 47.703125 
L 2.6875 47.703125 
L 2.6875 54.6875 
L 9.28125 54.6875 
L 9.28125 70.21875 
z
" id="DejaVuSans-116"/>
     <path d="M 54.890625 33.015625 
L 54.890625 0 
L 45.90625 0 
L 45.90625 32.71875 
Q 45.90625 40.484375 42.875 44.328125 
Q 39.84375 48.1875 33.796875 48.1875 
Q 26.515625 48.1875 22.3125 43.546875 
Q 18.109375 38.921875 18.109375 30.90625 
L 18.109375 0 
L 9.078125 0 
L 9.078125 54.6875 
L 18.109375 54.6875 
L 18.109375 46.1875 
Q 21.34375 51.125 25.703125 53.5625 
Q 30.078125 56 35.796875 56 
Q 45.21875 56 50.046875 50.171875 
Q 54.890625 44.34375 54.890625 33.015625 
z
" id="DejaVuSans-110"/>
     <path d="M 11.71875 12.40625 
L 22.015625 12.40625 
L 22.015625 4 
L 14.015625 -11.625 
L 7.71875 -11.625 
L 11.71875 4 
z
" id="DejaVuSans-44"/>
     <path d="M 9.8125 72.90625 
L 24.515625 72.90625 
L 43.109375 23.296875 
L 61.8125 72.90625 
L 76.515625 72.90625 
L 76.515625 0 
L 66.890625 0 
L 66.890625 64.015625 
L 48.09375 14.015625 
L 38.1875 14.015625 
L 19.390625 64.015625 
L 19.390625 0 
L 9.8125 0 
z
" id="DejaVuSans-77"/>
     <path d="M 34.1875 63.1875 
L 20.796875 26.90625 
L 47.609375 26.90625 
z
M 28.609375 72.90625 
L 39.796875 72.90625 
L 67.578125 0 
L 57.328125 0 
L 50.6875 18.703125 
L 17.828125 18.703125 
L 11.1875 0 
L 0.78125 0 
z
" id="DejaVuSans-65"/>
     <path d="M 10.59375 45.40625 
L 73.1875 45.40625 
L 73.1875 37.203125 
L 10.59375 37.203125 
z
M 10.59375 25.484375 
L 73.1875 25.484375 
L 73.1875 17.1875 
L 10.59375 17.1875 
z
" id="DejaVuSans-61"/>
     <path d="M 37.796875 64.3125 
L 12.890625 25.390625 
L 37.796875 25.390625 
z
M 35.203125 72.90625 
L 47.609375 72.90625 
L 47.609375 25.390625 
L 58.015625 25.390625 
L 58.015625 17.1875 
L 47.609375 17.1875 
L 47.609375 0 
L 37.796875 0 
L 37.796875 17.1875 
L 4.890625 17.1875 
L 4.890625 26.703125 
z
" id="DejaVuSans-52"/>
    </defs>
    <g transform="translate(181.744687 20.16)scale(0.12 -0.12)">
     <use xlink:href="#DejaVuSans-103"/>
     <use x="63.476562" xlink:href="#DejaVuSans-114"/>
     <use x="104.589844" xlink:href="#DejaVuSans-105"/>
     <use x="132.373047" xlink:href="#DejaVuSans-100"/>
     <use x="195.849609" xlink:href="#DejaVuSans-119"/>
     <use x="277.636719" xlink:href="#DejaVuSans-111"/>
     <use x="338.818359" xlink:href="#DejaVuSans-114"/>
     <use x="379.931641" xlink:href="#DejaVuSans-108"/>
     <use x="407.714844" xlink:href="#DejaVuSans-100"/>
     <use x="471.191406" xlink:href="#DejaVuSans-95"/>
     <use x="521.191406" xlink:href="#DejaVuSans-53"/>
     <use x="584.814453" xlink:href="#DejaVuSans-120"/>
     <use x="643.994141" xlink:href="#DejaVuSans-53"/>
     <use x="707.617188" xlink:href="#DejaVuSans-95"/>
     <use x="757.617188" xlink:href="#DejaVuSans-50"/>
     <use x="821.240234" xlink:href="#DejaVuSans-48"/>
     <use x="884.863281" xlink:href="#DejaVuSans-95"/>
     <use x="934.863281" xlink:href="#DejaVuSans-49"/>
     <use x="998.486328" xlink:href="#DejaVuSans-95"/>
     <use x="1048.486328" xlink:href="#DejaVuSans-50"/>
     <use x="1112.109375" xlink:href="#DejaVuSans-48"/>
     <use x="1175.732422" xlink:href="#DejaVuSans-95"/>
     <use x="1225.732422" xlink:href="#DejaVuSans-49"/>
     <use x="1289.355469" xlink:href="#DejaVuSans-51"/>
     <use x="1352.978516" xlink:href="#DejaVuSans-51"/>
     <use x="1416.601562" xlink:href="#DejaVuSans-55"/>
     <use x="1480.224609" xlink:href="#DejaVuSans-95"/>
     <use x="1530.224609" xlink:href="#DejaVuSans-95"/>
     <use x="1580.224609" xlink:href="#DejaVuSans-50"/>
     <use x="1643.847656" xlink:href="#DejaVuSans-58"/>
     <use x="1677.539062" xlink:href="#DejaVuSans-32"/>
     <use x="1709.326172" xlink:href="#DejaVuSans-101"/>
     <use x="1770.849609" xlink:href="#DejaVuSans-112"/>
     <use x="1834.326172" xlink:href="#DejaVuSans-105"/>
     <use x="1862.109375" xlink:href="#DejaVuSans-115"/>
     <use x="1914.208984" xlink:href="#DejaVuSans-111"/>
     <use x="1975.390625" xlink:href="#DejaVuSans-100"/>
     <use x="2038.867188" xlink:href="#DejaVuSans-101"/>
     <use x="2100.390625" xlink:href="#DejaVuSans-32"/>
     <use x="2132.177734" xlink:href="#DejaVuSans-100"/>
     <use x="2195.654297" xlink:href="#DejaVuSans-117"/>
     <use x="2259.033203" xlink:href="#DejaVuSans-114"/>
     <use x="2300.146484" xlink:href="#DejaVuSans-97"/>
     <use x="2361.425781" xlink:href="#DejaVuSans-116"/>
     <use x="2400.634766" xlink:href="#DejaVuSans-105"/>
     <use x="2428.417969" xlink:href="#DejaVuSans-111"/>
     <use x="2489.599609" xlink:href="#DejaVuSans-110"/>
     <use x="2552.978516" xlink:href="#DejaVuSans-44"/>
     <use x="2584.765625" xlink:href="#DejaVuSans-32"/>
     <use x="2616.552734" xlink:href="#DejaVuSans-115"/>
     <use x="2668.652344" xlink:href="#DejaVuSans-116"/>
     <use x="2707.861328" xlink:href="#DejaVuSans-101"/>
     <use x="2769.384766" xlink:href="#DejaVuSans-112"/>
     <use x="2832.861328" xlink:href="#DejaVuSans-115"/>
     <use x="2884.960938" xlink:href="#DejaVuSans-44"/>
     <use x="2916.748047" xlink:href="#DejaVuSans-32"/>
     <use x="2948.535156" xlink:href="#DejaVuSans-77"/>
     <use x="3034.814453" xlink:href="#DejaVuSans-65"/>
     <use x="3103.222656" xlink:href="#DejaVuSans-61"/>
     <use x="3187.011719" xlink:href="#DejaVuSans-52"/>
     <use x="3250.634766" xlink:href="#DejaVuSans-48"/>
    </g>
   </g>
   <g id="legend_1">
    <g id="patch_7">
     <path d="M 767.316625 239.074375 
L 854.751 239.074375 
Q 856.751 239.074375 856.751 237.074375 
L 856.751 193.205625 
Q 856.751 191.205625 854.751 191.205625 
L 767.316625 191.205625 
Q 765.316625 191.205625 765.316625 193.205625 
L 765.316625 237.074375 
Q 765.316625 239.074375 767.316625 239.074375 
z
" style="fill:#ffffff;opacity:0.8;stroke:#cccccc;stroke-linejoin:miter;"/>
    </g>
    <g id="line2d_18">
     <path d="M 769.316625 199.304062 
L 789.316625 199.304062 
" style="fill:none;stroke:#1f77b4;stroke-linecap:square;stroke-width:1.5;"/>
    </g>
    <g id="line2d_19"/>
    <g id="text_16">
     <!-- htm_2_1g -->
     <defs>
      <path d="M 54.890625 33.015625 
L 54.890625 0 
L 45.90625 0 
L 45.90625 32.71875 
Q 45.90625 40.484375 42.875 44.328125 
Q 39.84375 48.1875 33.796875 48.1875 
Q 26.515625 48.1875 22.3125 43.546875 
Q 18.109375 38.921875 18.109375 30.90625 
L 18.109375 0 
L 9.078125 0 
L 9.078125 75.984375 
L 18.109375 75.984375 
L 18.109375 46.1875 
Q 21.34375 51.125 25.703125 53.5625 
Q 30.078125 56 35.796875 56 
Q 45.21875 56 50.046875 50.171875 
Q 54.890625 44.34375 54.890625 33.015625 
z
" id="DejaVuSans-104"/>
      <path d="M 52 44.1875 
Q 55.375 50.25 60.0625 53.125 
Q 64.75 56 71.09375 56 
Q 79.640625 56 84.28125 50.015625 
Q 88.921875 44.046875 88.921875 33.015625 
L 88.921875 0 
L 79.890625 0 
L 79.890625 32.71875 
Q 79.890625 40.578125 77.09375 44.375 
Q 74.3125 48.1875 68.609375 48.1875 
Q 61.625 48.1875 57.5625 43.546875 
Q 53.515625 38.921875 53.515625 30.90625 
L 53.515625 0 
L 44.484375 0 
L 44.484375 32.71875 
Q 44.484375 40.625 41.703125 44.40625 
Q 38.921875 48.1875 33.109375 48.1875 
Q 26.21875 48.1875 22.15625 43.53125 
Q 18.109375 38.875 18.109375 30.90625 
L 18.109375 0 
L 9.078125 0 
L 9.078125 54.6875 
L 18.109375 54.6875 
L 18.109375 46.1875 
Q 21.1875 51.21875 25.484375 53.609375 
Q 29.78125 56 35.6875 56 
Q 41.65625 56 45.828125 52.96875 
Q 50 49.953125 52 44.1875 
z
" id="DejaVuSans-109"/>
     </defs>
     <g transform="translate(797.316625 202.804062)scale(0.1 -0.1)">
      <use xlink:href="#DejaVuSans-104"/>
      <use x="63.378906" xlink:href="#DejaVuSans-116"/>
      <use x="102.587891" xlink:href="#DejaVuSans-109"/>
      <use x="200" xlink:href="#DejaVuSans-95"/>
      <use x="250" xlink:href="#DejaVuSans-50"/>
      <use x="313.623047" xlink:href="#DejaVuSans-95"/>
      <use x="363.623047" xlink:href="#DejaVuSans-49"/>
      <use x="427.246094" xlink:href="#DejaVuSans-103"/>
     </g>
    </g>
    <g id="line2d_20">
     <path d="M 769.316625 214.260312 
L 789.316625 214.260312 
" style="fill:none;stroke:#ff7f0e;stroke-linecap:square;stroke-width:1.5;"/>
    </g>
    <g id="line2d_21"/>
    <g id="text_17">
     <!-- htm_2_4g -->
     <g transform="translate(797.316625 217.760312)scale(0.1 -0.1)">
      <use xlink:href="#DejaVuSans-104"/>
      <use x="63.378906" xlink:href="#DejaVuSans-116"/>
      <use x="102.587891" xlink:href="#DejaVuSans-109"/>
      <use x="200" xlink:href="#DejaVuSans-95"/>
      <use x="250" xlink:href="#DejaVuSans-50"/>
      <use x="313.623047" xlink:href="#DejaVuSans-95"/>
      <use x="363.623047" xlink:href="#DejaVuSans-52"/>
      <use x="427.246094" xlink:href="#DejaVuSans-103"/>
     </g>
    </g>
    <g id="line2d_22">
     <path d="M 769.316625 229.216562 
L 789.316625 229.216562 
" style="fill:none;stroke:#2ca02c;stroke-linecap:square;stroke-width:1.5;"/>
    </g>
    <g id="line2d_23"/>
    <g id="text_18">
     <!-- htm_2_16g -->
     <defs>
      <path d="M 33.015625 40.375 
Q 26.375 40.375 22.484375 35.828125 
Q 18.609375 31.296875 18.609375 23.390625 
Q 18.609375 15.53125 22.484375 10.953125 
Q 26.375 6.390625 33.015625 6.390625 
Q 39.65625 6.390625 43.53125 10.953125 
Q 47.40625 15.53125 47.40625 23.390625 
Q 47.40625 31.296875 43.53125 35.828125 
Q 39.65625 40.375 33.015625 40.375 
z
M 52.59375 71.296875 
L 52.59375 62.3125 
Q 48.875 64.0625 45.09375 64.984375 
Q 41.3125 65.921875 37.59375 65.921875 
Q 27.828125 65.921875 22.671875 59.328125 
Q 17.53125 52.734375 16.796875 39.40625 
Q 19.671875 43.65625 24.015625 45.921875 
Q 28.375 48.1875 33.59375 48.1875 
Q 44.578125 48.1875 50.953125 41.515625 
Q 57.328125 34.859375 57.328125 23.390625 
Q 57.328125 12.15625 50.6875 5.359375 
Q 44.046875 -1.421875 33.015625 -1.421875 
Q 20.359375 -1.421875 13.671875 8.265625 
Q 6.984375 17.96875 6.984375 36.375 
Q 6.984375 53.65625 15.1875 63.9375 
Q 23.390625 74.21875 37.203125 74.21875 
Q 40.921875 74.21875 44.703125 73.484375 
Q 48.484375 72.75 52.59375 71.296875 
z
" id="DejaVuSans-54"/>
     </defs>
     <g transform="translate(797.316625 232.716562)scale(0.1 -0.1)">
      <use xlink:href="#DejaVuSans-104"/>
      <use x="63.378906" xlink:href="#DejaVuSans-116"/>
      <use x="102.587891" xlink:href="#DejaVuSans-109"/>
      <use x="200" xlink:href="#DejaVuSans-95"/>
      <use x="250" xlink:href="#DejaVuSans-50"/>
      <use x="313.623047" xlink:href="#DejaVuSans-95"/>
      <use x="363.623047" xlink:href="#DejaVuSans-49"/>
      <use x="427.246094" xlink:href="#DejaVuSans-54"/>
      <use x="490.869141" xlink:href="#DejaVuSans-103"/>
     </g>
    </g>
   </g>
  </g>
 </g>
 <defs>
  <clipPath id="paa41ccaed0">
   <rect height="377.96" width="687.355" x="36.925" y="26.16"/>
  </clipPath>
 </defs>
</svg>
