<?xml version="1.0" encoding="utf-8" standalone="no"?>
<!DOCTYPE svg PUBLIC "-//W3C//DTD SVG 1.1//EN"
  "http://www.w3.org/Graphics/SVG/1.1/DTD/svg11.dtd">
<!-- Created with matplotlib (https://matplotlib.org/) -->
<svg height="432pt" version="1.1" viewBox="0 0 864 432" width="864pt" xmlns="http://www.w3.org/2000/svg" xmlns:xlink="http://www.w3.org/1999/xlink">
 <defs>
  <style type="text/css">
*{stroke-linecap:butt;stroke-linejoin:round;}
  </style>
 </defs>
 <g id="figure_1">
  <g id="patch_1">
   <path d="M 0 432 
L 864 432 
L 864 0 
L 0 0 
z
" style="fill:#ffffff;"/>
  </g>
  <g id="axes_1">
   <g id="patch_2">
    <path d="M 33.775 404.12 
L 724.28 404.12 
L 724.28 26.16 
L 33.775 26.16 
z
" style="fill:#ffffff;"/>
   </g>
   <g id="matplotlib.axis_1">
    <g id="xtick_1">
     <g id="line2d_1">
      <defs>
       <path d="M 0 0 
L 0 3.5 
" id="m477fb1b78b" style="stroke:#000000;stroke-width:0.8;"/>
      </defs>
      <g>
       <use style="stroke:#000000;stroke-width:0.8;" x="33.775" xlink:href="#m477fb1b78b" y="404.12"/>
      </g>
     </g>
     <g id="text_1">
      <!-- 0 -->
      <defs>
       <path d="M 31.78125 66.40625 
Q 24.171875 66.40625 20.328125 58.90625 
Q 16.5 51.421875 16.5 36.375 
Q 16.5 21.390625 20.328125 13.890625 
Q 24.171875 6.390625 31.78125 6.390625 
Q 39.453125 6.390625 43.28125 13.890625 
Q 47.125 21.390625 47.125 36.375 
Q 47.125 51.421875 43.28125 58.90625 
Q 39.453125 66.40625 31.78125 66.40625 
z
M 31.78125 74.21875 
Q 44.046875 74.21875 50.515625 64.515625 
Q 56.984375 54.828125 56.984375 36.375 
Q 56.984375 17.96875 50.515625 8.265625 
Q 44.046875 -1.421875 31.78125 -1.421875 
Q 19.53125 -1.421875 13.0625 8.265625 
Q 6.59375 17.96875 6.59375 36.375 
Q 6.59375 54.828125 13.0625 64.515625 
Q 19.53125 74.21875 31.78125 74.21875 
z
" id="DejaVuSans-48"/>
      </defs>
      <g transform="translate(30.59375 418.718437)scale(0.1 -0.1)">
       <use xlink:href="#DejaVuSans-48"/>
      </g>
     </g>
    </g>
    <g id="xtick_2">
     <g id="line2d_2">
      <g>
       <use style="stroke:#000000;stroke-width:0.8;" x="120.304449" xlink:href="#m477fb1b78b" y="404.12"/>
      </g>
     </g>
     <g id="text_2">
      <!-- 50 -->
      <defs>
       <path d="M 10.796875 72.90625 
L 49.515625 72.90625 
L 49.515625 64.59375 
L 19.828125 64.59375 
L 19.828125 46.734375 
Q 21.96875 47.46875 24.109375 47.828125 
Q 26.265625 48.1875 28.421875 48.1875 
Q 40.625 48.1875 47.75 41.5 
Q 54.890625 34.8125 54.890625 23.390625 
Q 54.890625 11.625 47.5625 5.09375 
Q 40.234375 -1.421875 26.90625 -1.421875 
Q 22.3125 -1.421875 17.546875 -0.640625 
Q 12.796875 0.140625 7.71875 1.703125 
L 7.71875 11.625 
Q 12.109375 9.234375 16.796875 8.0625 
Q 21.484375 6.890625 26.703125 6.890625 
Q 35.15625 6.890625 40.078125 11.328125 
Q 45.015625 15.765625 45.015625 23.390625 
Q 45.015625 31 40.078125 35.4375 
Q 35.15625 39.890625 26.703125 39.890625 
Q 22.75 39.890625 18.8125 39.015625 
Q 14.890625 38.140625 10.796875 36.28125 
z
" id="DejaVuSans-53"/>
      </defs>
      <g transform="translate(113.941949 418.718437)scale(0.1 -0.1)">
       <use xlink:href="#DejaVuSans-53"/>
       <use x="63.623047" xlink:href="#DejaVuSans-48"/>
      </g>
     </g>
    </g>
    <g id="xtick_3">
     <g id="line2d_3">
      <g>
       <use style="stroke:#000000;stroke-width:0.8;" x="206.833897" xlink:href="#m477fb1b78b" y="404.12"/>
      </g>
     </g>
     <g id="text_3">
      <!-- 100 -->
      <defs>
       <path d="M 12.40625 8.296875 
L 28.515625 8.296875 
L 28.515625 63.921875 
L 10.984375 60.40625 
L 10.984375 69.390625 
L 28.421875 72.90625 
L 38.28125 72.90625 
L 38.28125 8.296875 
L 54.390625 8.296875 
L 54.390625 0 
L 12.40625 0 
z
" id="DejaVuSans-49"/>
      </defs>
      <g transform="translate(197.290147 418.718437)scale(0.1 -0.1)">
       <use xlink:href="#DejaVuSans-49"/>
       <use x="63.623047" xlink:href="#DejaVuSans-48"/>
       <use x="127.246094" xlink:href="#DejaVuSans-48"/>
      </g>
     </g>
    </g>
    <g id="xtick_4">
     <g id="line2d_4">
      <g>
       <use style="stroke:#000000;stroke-width:0.8;" x="293.363346" xlink:href="#m477fb1b78b" y="404.12"/>
      </g>
     </g>
     <g id="text_4">
      <!-- 150 -->
      <g transform="translate(283.819596 418.718437)scale(0.1 -0.1)">
       <use xlink:href="#DejaVuSans-49"/>
       <use x="63.623047" xlink:href="#DejaVuSans-53"/>
       <use x="127.246094" xlink:href="#DejaVuSans-48"/>
      </g>
     </g>
    </g>
    <g id="xtick_5">
     <g id="line2d_5">
      <g>
       <use style="stroke:#000000;stroke-width:0.8;" x="379.892794" xlink:href="#m477fb1b78b" y="404.12"/>
      </g>
     </g>
     <g id="text_5">
      <!-- 200 -->
      <defs>
       <path d="M 19.1875 8.296875 
L 53.609375 8.296875 
L 53.609375 0 
L 7.328125 0 
L 7.328125 8.296875 
Q 12.9375 14.109375 22.625 23.890625 
Q 32.328125 33.6875 34.8125 36.53125 
Q 39.546875 41.84375 41.421875 45.53125 
Q 43.3125 49.21875 43.3125 52.78125 
Q 43.3125 58.59375 39.234375 62.25 
Q 35.15625 65.921875 28.609375 65.921875 
Q 23.96875 65.921875 18.8125 64.3125 
Q 13.671875 62.703125 7.8125 59.421875 
L 7.8125 69.390625 
Q 13.765625 71.78125 18.9375 73 
Q 24.125 74.21875 28.421875 74.21875 
Q 39.75 74.21875 46.484375 68.546875 
Q 53.21875 62.890625 53.21875 53.421875 
Q 53.21875 48.921875 51.53125 44.890625 
Q 49.859375 40.875 45.40625 35.40625 
Q 44.1875 33.984375 37.640625 27.21875 
Q 31.109375 20.453125 19.1875 8.296875 
z
" id="DejaVuSans-50"/>
      </defs>
      <g transform="translate(370.349044 418.718437)scale(0.1 -0.1)">
       <use xlink:href="#DejaVuSans-50"/>
       <use x="63.623047" xlink:href="#DejaVuSans-48"/>
       <use x="127.246094" xlink:href="#DejaVuSans-48"/>
      </g>
     </g>
    </g>
    <g id="xtick_6">
     <g id="line2d_6">
      <g>
       <use style="stroke:#000000;stroke-width:0.8;" x="466.422243" xlink:href="#m477fb1b78b" y="404.12"/>
      </g>
     </g>
     <g id="text_6">
      <!-- 250 -->
      <g transform="translate(456.878493 418.718437)scale(0.1 -0.1)">
       <use xlink:href="#DejaVuSans-50"/>
       <use x="63.623047" xlink:href="#DejaVuSans-53"/>
       <use x="127.246094" xlink:href="#DejaVuSans-48"/>
      </g>
     </g>
    </g>
    <g id="xtick_7">
     <g id="line2d_7">
      <g>
       <use style="stroke:#000000;stroke-width:0.8;" x="552.951692" xlink:href="#m477fb1b78b" y="404.12"/>
      </g>
     </g>
     <g id="text_7">
      <!-- 300 -->
      <defs>
       <path d="M 40.578125 39.3125 
Q 47.65625 37.796875 51.625 33 
Q 55.609375 28.21875 55.609375 21.1875 
Q 55.609375 10.40625 48.1875 4.484375 
Q 40.765625 -1.421875 27.09375 -1.421875 
Q 22.515625 -1.421875 17.65625 -0.515625 
Q 12.796875 0.390625 7.625 2.203125 
L 7.625 11.71875 
Q 11.71875 9.328125 16.59375 8.109375 
Q 21.484375 6.890625 26.8125 6.890625 
Q 36.078125 6.890625 40.9375 10.546875 
Q 45.796875 14.203125 45.796875 21.1875 
Q 45.796875 27.640625 41.28125 31.265625 
Q 36.765625 34.90625 28.71875 34.90625 
L 20.21875 34.90625 
L 20.21875 43.015625 
L 29.109375 43.015625 
Q 36.375 43.015625 40.234375 45.921875 
Q 44.09375 48.828125 44.09375 54.296875 
Q 44.09375 59.90625 40.109375 62.90625 
Q 36.140625 65.921875 28.71875 65.921875 
Q 24.65625 65.921875 20.015625 65.03125 
Q 15.375 64.15625 9.8125 62.3125 
L 9.8125 71.09375 
Q 15.4375 72.65625 20.34375 73.4375 
Q 25.25 74.21875 29.59375 74.21875 
Q 40.828125 74.21875 47.359375 69.109375 
Q 53.90625 64.015625 53.90625 55.328125 
Q 53.90625 49.265625 50.4375 45.09375 
Q 46.96875 40.921875 40.578125 39.3125 
z
" id="DejaVuSans-51"/>
      </defs>
      <g transform="translate(543.407942 418.718437)scale(0.1 -0.1)">
       <use xlink:href="#DejaVuSans-51"/>
       <use x="63.623047" xlink:href="#DejaVuSans-48"/>
       <use x="127.246094" xlink:href="#DejaVuSans-48"/>
      </g>
     </g>
    </g>
    <g id="xtick_8">
     <g id="line2d_8">
      <g>
       <use style="stroke:#000000;stroke-width:0.8;" x="639.48114" xlink:href="#m477fb1b78b" y="404.12"/>
      </g>
     </g>
     <g id="text_8">
      <!-- 350 -->
      <g transform="translate(629.93739 418.718437)scale(0.1 -0.1)">
       <use xlink:href="#DejaVuSans-51"/>
       <use x="63.623047" xlink:href="#DejaVuSans-53"/>
       <use x="127.246094" xlink:href="#DejaVuSans-48"/>
      </g>
     </g>
    </g>
   </g>
   <g id="matplotlib.axis_2">
    <g id="ytick_1">
     <g id="line2d_9">
      <defs>
       <path d="M 0 0 
L -3.5 0 
" id="m9f3be72389" style="stroke:#000000;stroke-width:0.8;"/>
      </defs>
      <g>
       <use style="stroke:#000000;stroke-width:0.8;" x="33.775" xlink:href="#m9f3be72389" y="387.486343"/>
      </g>
     </g>
     <g id="text_9">
      <!-- 0.0 -->
      <defs>
       <path d="M 10.6875 12.40625 
L 21 12.40625 
L 21 0 
L 10.6875 0 
z
" id="DejaVuSans-46"/>
      </defs>
      <g transform="translate(10.871875 391.285562)scale(0.1 -0.1)">
       <use xlink:href="#DejaVuSans-48"/>
       <use x="63.623047" xlink:href="#DejaVuSans-46"/>
       <use x="95.410156" xlink:href="#DejaVuSans-48"/>
      </g>
     </g>
    </g>
    <g id="ytick_2">
     <g id="line2d_10">
      <g>
       <use style="stroke:#000000;stroke-width:0.8;" x="33.775" xlink:href="#m9f3be72389" y="321.399841"/>
      </g>
     </g>
     <g id="text_10">
      <!-- 0.5 -->
      <g transform="translate(10.871875 325.19906)scale(0.1 -0.1)">
       <use xlink:href="#DejaVuSans-48"/>
       <use x="63.623047" xlink:href="#DejaVuSans-46"/>
       <use x="95.410156" xlink:href="#DejaVuSans-53"/>
      </g>
     </g>
    </g>
    <g id="ytick_3">
     <g id="line2d_11">
      <g>
       <use style="stroke:#000000;stroke-width:0.8;" x="33.775" xlink:href="#m9f3be72389" y="255.31334"/>
      </g>
     </g>
     <g id="text_11">
      <!-- 1.0 -->
      <g transform="translate(10.871875 259.112559)scale(0.1 -0.1)">
       <use xlink:href="#DejaVuSans-49"/>
       <use x="63.623047" xlink:href="#DejaVuSans-46"/>
       <use x="95.410156" xlink:href="#DejaVuSans-48"/>
      </g>
     </g>
    </g>
    <g id="ytick_4">
     <g id="line2d_12">
      <g>
       <use style="stroke:#000000;stroke-width:0.8;" x="33.775" xlink:href="#m9f3be72389" y="189.226839"/>
      </g>
     </g>
     <g id="text_12">
      <!-- 1.5 -->
      <g transform="translate(10.871875 193.026058)scale(0.1 -0.1)">
       <use xlink:href="#DejaVuSans-49"/>
       <use x="63.623047" xlink:href="#DejaVuSans-46"/>
       <use x="95.410156" xlink:href="#DejaVuSans-53"/>
      </g>
     </g>
    </g>
    <g id="ytick_5">
     <g id="line2d_13">
      <g>
       <use style="stroke:#000000;stroke-width:0.8;" x="33.775" xlink:href="#m9f3be72389" y="123.140337"/>
      </g>
     </g>
     <g id="text_13">
      <!-- 2.0 -->
      <g transform="translate(10.871875 126.939556)scale(0.1 -0.1)">
       <use xlink:href="#DejaVuSans-50"/>
       <use x="63.623047" xlink:href="#DejaVuSans-46"/>
       <use x="95.410156" xlink:href="#DejaVuSans-48"/>
      </g>
     </g>
    </g>
    <g id="ytick_6">
     <g id="line2d_14">
      <g>
       <use style="stroke:#000000;stroke-width:0.8;" x="33.775" xlink:href="#m9f3be72389" y="57.053836"/>
      </g>
     </g>
     <g id="text_14">
      <!-- 2.5 -->
      <g transform="translate(10.871875 60.853055)scale(0.1 -0.1)">
       <use xlink:href="#DejaVuSans-50"/>
       <use x="63.623047" xlink:href="#DejaVuSans-46"/>
       <use x="95.410156" xlink:href="#DejaVuSans-53"/>
      </g>
     </g>
    </g>
   </g>
   <g id="line2d_15">
    <path clip-path="url(#p920fbd7ef1)" d="M 101.26797 386.614338 
L 106.459737 386.699393 
L 108.190326 386.713387 
L 111.651504 386.597763 
L 116.843271 386.381115 
L 122.035038 386.42485 
L 127.226805 386.089354 
L 139.340927 385.923141 
L 158.377406 386.027084 
L 161.838584 385.880732 
L 175.683296 385.821144 
L 177.413885 385.760912 
L 179.144474 385.872385 
L 180.875063 385.840041 
L 182.605652 385.93084 
L 184.336241 385.899382 
L 187.797419 386.026723 
L 198.180952 386.298911 
L 212.025664 386.290039 
L 220.678609 386.206103 
L 232.792732 386.367397 
L 237.984499 386.440258 
L 269.1351 386.862253 
L 272.596278 386.94 
L 281.249223 386.872313 
L 286.44099 386.907116 
L 331.436303 386.570997 
L 338.358659 386.530853 
L 345.281015 386.43538 
L 348.742193 386.204694 
L 350.472782 386.201852 
L 352.203371 386.038318 
L 353.93396 386.112254 
L 357.395138 385.950227 
L 360.856316 385.876536 
L 366.048083 385.868783 
L 371.23985 385.648727 
L 383.353972 385.66221 
L 386.81515 385.631273 
L 395.468095 385.674944 
L 412.773985 385.694987 
L 416.235163 385.90863 
L 419.696341 385.984981 
L 423.157519 385.96742 
L 426.618697 386.145056 
L 428.349286 386.131791 
L 430.079875 385.990064 
L 445.655175 386.242823 
L 450.846942 386.252841 
L 466.422243 386.34812 
L 487.189311 386.302303 
L 488.9199 386.161001 
L 492.381078 386.285086 
L 495.842256 386.232073 
L 499.303434 386.397691 
L 518.339912 386.266286 
L 530.454035 386.350071 
L 554.682281 386.304771 
L 559.874048 386.643634 
L 577.179937 386.602181 
L 578.910526 386.763621 
L 597.947005 386.71423 
L 599.677594 386.603977 
L 604.869361 386.510125 
L 616.983484 386.43131 
L 630.828195 386.334142 
L 636.019962 386.357033 
L 639.48114 386.379665 
L 642.942318 386.496144 
L 646.403496 386.489403 
L 648.134085 386.329046 
L 715.627055 386.050857 
L 717.357644 386.215923 
L 724.28 386.246393 
L 724.28 386.246393 
" style="fill:none;stroke:#1f77b4;stroke-linecap:square;stroke-width:1.5;"/>
   </g>
   <g id="line2d_16">
    <path clip-path="url(#p920fbd7ef1)" d="M 101.26797 386.307374 
L 102.998559 386.416893 
L 104.729148 386.307153 
L 109.920915 386.316092 
L 111.651504 386.201929 
L 122.035038 386.205341 
L 125.496216 386.094942 
L 127.226805 386.095787 
L 128.957393 385.953406 
L 137.610338 385.843998 
L 144.532694 385.816011 
L 146.263283 385.925849 
L 153.185639 385.482471 
L 154.916228 385.600366 
L 184.336241 385.60494 
L 186.06683 385.49248 
L 189.528008 385.384609 
L 191.258596 385.274841 
L 194.719774 385.384979 
L 196.450363 385.276284 
L 198.180952 385.418048 
L 201.64213 385.30731 
L 208.564486 385.317222 
L 213.756253 385.655539 
L 217.217431 385.764388 
L 222.409198 386.101414 
L 239.715088 386.104567 
L 241.445677 386.215309 
L 243.176266 386.105411 
L 244.906855 386.217513 
L 246.637444 386.215922 
L 248.368033 386.100917 
L 251.829211 386.101101 
L 253.559799 385.986141 
L 255.290388 386.098379 
L 257.020977 385.983659 
L 260.482155 386.090735 
L 262.212744 385.979645 
L 281.249223 385.9678 
L 284.710401 385.855821 
L 288.171579 385.857347 
L 289.902168 385.746242 
L 293.363346 385.745431 
L 295.093935 385.630769 
L 308.938647 385.625331 
L 310.669236 385.513528 
L 312.399825 385.515406 
L 315.861003 385.402353 
L 319.32218 385.296521 
L 334.897481 385.198306 
L 336.62807 385.087722 
L 340.089248 385.198932 
L 355.664549 385.100008 
L 357.395138 384.989157 
L 359.125727 384.991133 
L 360.856316 384.877328 
L 362.586905 384.878458 
L 364.317494 384.993128 
L 369.509261 384.77936 
L 371.23985 384.780116 
L 372.970439 384.668653 
L 376.431617 384.559832 
L 379.892794 384.452794 
L 385.084561 384.452123 
L 390.276328 384.775692 
L 393.737506 384.776417 
L 397.198684 384.634788 
L 398.929273 384.635237 
L 404.12104 384.976835 
L 421.42693 384.858493 
L 424.888108 384.749896 
L 428.349286 384.747375 
L 430.079875 384.860502 
L 433.541053 384.632839 
L 435.271642 384.740446 
L 438.73282 384.611344 
L 440.463409 384.501999 
L 443.924586 384.61209 
L 445.655175 384.610001 
L 447.385764 384.720027 
L 452.577531 384.822563 
L 454.30812 384.933927 
L 456.038709 384.825107 
L 462.961065 384.941496 
L 468.152832 385.190037 
L 480.266955 385.187723 
L 481.997544 385.297821 
L 488.9199 385.296512 
L 490.650489 385.40568 
L 495.842256 385.402056 
L 497.572845 385.512381 
L 499.303434 385.51097 
L 502.764612 385.736535 
L 504.495201 385.624332 
L 509.686967 385.971289 
L 513.148145 385.86306 
L 516.609323 385.972819 
L 521.80109 385.874239 
L 523.531679 385.766388 
L 525.262268 385.877316 
L 530.454035 385.604568 
L 565.065815 385.50475 
L 566.796404 385.39147 
L 578.910526 385.503232 
L 580.641115 385.61327 
L 584.102293 385.506351 
L 592.755238 385.495121 
L 594.485827 385.382228 
L 599.677594 385.652052 
L 615.252895 385.652158 
L 616.983484 385.531297 
L 630.828195 385.525671 
L 636.019962 385.858678 
L 665.439975 385.752441 
L 670.631742 385.533895 
L 677.554098 385.428593 
L 684.476454 384.967054 
L 686.207043 385.088079 
L 689.668221 384.980076 
L 700.051754 384.976764 
L 701.782343 384.861037 
L 712.165877 384.969228 
L 724.28 384.864695 
L 724.28 384.864695 
" style="fill:none;stroke:#ff7f0e;stroke-linecap:square;stroke-width:1.5;"/>
   </g>
   <g id="line2d_17">
    <path clip-path="url(#p920fbd7ef1)" d="M 101.26797 358.068052 
L 102.998559 357.915515 
L 104.729148 357.096147 
L 106.459737 356.057681 
L 108.190326 355.902167 
L 109.920915 355.502547 
L 111.651504 355.282493 
L 113.382093 355.240275 
L 115.112682 351.774825 
L 116.843271 350.795773 
L 118.57386 350.707109 
L 120.304449 350.035548 
L 122.035038 350.956406 
L 123.765627 344.19984 
L 125.496216 345.04498 
L 127.226805 348.070694 
L 128.957393 347.755735 
L 130.687982 343.519469 
L 132.418571 341.365494 
L 134.14916 340.339129 
L 135.879749 340.332915 
L 137.610338 337.701327 
L 139.340927 328.139366 
L 141.071516 328.468861 
L 142.802105 329.387883 
L 146.263283 329.747791 
L 147.993872 329.034049 
L 151.45505 329.302751 
L 153.185639 329.153569 
L 154.916228 329.221918 
L 156.646817 330.617968 
L 158.377406 330.05584 
L 160.107995 329.937955 
L 161.838584 331.696219 
L 163.569173 331.467279 
L 165.299762 331.577975 
L 167.030351 329.635665 
L 168.76094 329.975258 
L 170.491529 329.394929 
L 172.222118 329.560136 
L 173.952707 328.970097 
L 175.683296 330.751642 
L 179.144474 331.819023 
L 180.875063 329.224106 
L 182.605652 329.573061 
L 184.336241 326.831822 
L 186.06683 326.423189 
L 187.797419 326.61585 
L 189.528008 324.414786 
L 191.258596 324.375074 
L 192.989185 331.019845 
L 194.719774 329.483047 
L 196.450363 328.541338 
L 198.180952 326.990304 
L 199.911541 331.043566 
L 201.64213 332.767484 
L 203.372719 332.065729 
L 205.103308 331.752907 
L 208.564486 351.541176 
L 212.025664 351.584426 
L 213.756253 347.670684 
L 215.486842 347.215739 
L 217.217431 348.299028 
L 218.94802 346.65082 
L 220.678609 343.181877 
L 224.139787 343.466694 
L 227.600965 343.020613 
L 229.331554 340.794942 
L 231.062143 340.320346 
L 234.523321 341.351308 
L 236.25391 343.448695 
L 237.984499 343.688774 
L 239.715088 344.509514 
L 241.445677 344.396834 
L 243.176266 345.843988 
L 244.906855 345.10904 
L 246.637444 344.723814 
L 248.368033 344.46187 
L 250.098622 347.201686 
L 251.829211 347.033033 
L 253.559799 352.83365 
L 255.290388 354.276318 
L 257.020977 354.268314 
L 258.751566 357.136438 
L 260.482155 357.081401 
L 262.212744 355.760609 
L 263.943333 357.619241 
L 265.673922 358.449681 
L 267.404511 359.807941 
L 269.1351 359.972737 
L 270.865689 359.065081 
L 272.596278 361.783864 
L 274.326867 361.507258 
L 279.518634 324.122573 
L 281.249223 323.991937 
L 282.979812 326.91921 
L 284.710401 326.299613 
L 286.44099 326.55356 
L 288.171579 328.667876 
L 289.902168 332.007539 
L 291.632757 332.048469 
L 293.363346 329.937681 
L 295.093935 329.418359 
L 298.555113 330.24944 
L 300.285702 329.932523 
L 302.016291 329.068818 
L 303.74688 323.987599 
L 305.477469 323.509423 
L 307.208058 324.025153 
L 308.938647 323.174451 
L 310.669236 323.281662 
L 312.399825 322.355946 
L 315.861003 323.766983 
L 317.591591 320.161826 
L 319.32218 318.858966 
L 321.052769 318.832154 
L 322.783358 319.057002 
L 324.513947 318.117007 
L 326.244536 318.077358 
L 327.975125 318.471975 
L 329.705714 317.079034 
L 331.436303 319.249798 
L 333.166892 316.936497 
L 334.897481 316.757588 
L 336.62807 317.2461 
L 338.358659 316.129127 
L 340.089248 317.405464 
L 341.819837 317.439358 
L 343.550426 317.771973 
L 348.742193 354.906564 
L 350.472782 354.141728 
L 352.203371 349.604818 
L 353.93396 350.530671 
L 355.664549 349.981669 
L 357.395138 345.897729 
L 359.125727 345.402523 
L 360.856316 345.031775 
L 362.586905 334.277144 
L 364.317494 334.600435 
L 366.048083 330.996369 
L 367.778672 328.505147 
L 369.509261 329.284901 
L 371.23985 329.770305 
L 372.970439 332.029164 
L 374.701028 332.007517 
L 376.431617 331.135357 
L 378.162206 331.821565 
L 379.892794 317.746778 
L 381.623383 318.637761 
L 383.353972 318.695075 
L 385.084561 315.955399 
L 386.81515 319.275692 
L 388.545739 320.313977 
L 390.276328 320.345179 
L 392.006917 320.059464 
L 393.737506 320.821288 
L 395.468095 320.859837 
L 397.198684 320.266288 
L 398.929273 317.862205 
L 400.659862 317.985358 
L 402.390451 320.193659 
L 404.12104 320.623453 
L 405.851629 319.428243 
L 407.582218 320.483928 
L 412.773985 320.590885 
L 414.504574 317.812427 
L 417.965752 317.867358 
L 419.696341 318.762592 
L 421.42693 319.090271 
L 423.157519 303.609316 
L 424.888108 302.186289 
L 426.618697 306.25934 
L 428.349286 303.962654 
L 430.079875 302.616628 
L 431.810464 315.459279 
L 433.541053 308.727726 
L 435.271642 312.785468 
L 437.002231 317.235798 
L 438.73282 316.7317 
L 440.463409 313.648972 
L 442.193997 314.934886 
L 443.924586 313.306541 
L 445.655175 306.072986 
L 447.385764 306.227431 
L 449.116353 318.252873 
L 450.846942 317.903157 
L 452.577531 317.914106 
L 454.30812 320.638184 
L 456.038709 321.097847 
L 457.769298 320.622092 
L 459.499887 320.800485 
L 461.230476 320.799557 
L 462.961065 321.182469 
L 464.691654 321.161239 
L 466.422243 319.920648 
L 468.152832 323.138277 
L 469.883421 323.088442 
L 471.61401 321.905344 
L 473.344599 321.716138 
L 475.075188 322.556467 
L 476.805777 322.340986 
L 478.536366 321.609327 
L 481.997544 320.788369 
L 483.728133 323.42897 
L 485.458722 322.614978 
L 487.189311 313.308015 
L 488.9199 304.675791 
L 490.650489 310.047596 
L 492.381078 324.885153 
L 494.111667 320.821196 
L 495.842256 320.317299 
L 497.572845 322.518511 
L 499.303434 321.472531 
L 501.034023 321.475819 
L 502.764612 320.620172 
L 504.495201 320.205618 
L 506.225789 318.362488 
L 507.956378 317.780167 
L 509.686967 319.920389 
L 511.417556 320.248656 
L 513.148145 315.74145 
L 514.878734 319.235684 
L 516.609323 319.081226 
L 518.339912 306.408516 
L 523.531679 261.052689 
L 525.262268 245.712435 
L 526.992857 246.385259 
L 528.723446 246.083474 
L 530.454035 246.042963 
L 532.184624 245.437877 
L 533.915213 245.449276 
L 535.645802 247.272004 
L 537.376391 247.673123 
L 539.10698 247.5553 
L 540.837569 246.085513 
L 542.568158 246.040833 
L 544.298747 246.286594 
L 546.029336 245.831176 
L 547.759925 244.801719 
L 549.490514 245.239537 
L 551.221103 245.457007 
L 552.951692 244.957189 
L 554.682281 245.357491 
L 558.143459 262.726864 
L 559.874048 262.727327 
L 561.604637 262.873679 
L 563.335226 268.294931 
L 565.065815 267.818888 
L 566.796404 267.888575 
L 568.526992 270.645328 
L 570.257581 265.600835 
L 571.98817 270.440479 
L 573.718759 270.225833 
L 575.449348 271.217523 
L 577.179937 272.481415 
L 578.910526 273.528808 
L 580.641115 274.811832 
L 582.371704 281.326279 
L 584.102293 285.932501 
L 585.832882 286.085582 
L 587.563471 300.808291 
L 589.29406 311.728167 
L 594.485827 357.228214 
L 596.216416 357.110908 
L 597.947005 355.480784 
L 599.677594 355.543613 
L 601.408183 356.170768 
L 604.869361 349.743872 
L 608.330539 345.220047 
L 610.061128 343.818438 
L 611.791717 343.33957 
L 615.252895 343.29742 
L 616.983484 342.622148 
L 618.714073 342.358269 
L 620.444662 338.782034 
L 622.175251 338.336719 
L 623.90584 335.432896 
L 625.636429 331.283241 
L 627.367018 329.674489 
L 629.097607 329.556114 
L 634.289373 330.332485 
L 636.019962 329.493177 
L 637.750551 329.42199 
L 639.48114 334.45643 
L 641.211729 332.899395 
L 642.942318 333.299606 
L 644.672907 331.30931 
L 646.403496 331.196307 
L 648.134085 329.640748 
L 649.864674 325.8832 
L 651.595263 325.763578 
L 653.325852 318.30355 
L 655.056441 314.687183 
L 656.78703 314.705294 
L 658.517619 318.102857 
L 660.248208 314.528277 
L 661.978797 309.553364 
L 663.709386 307.611619 
L 665.439975 307.049012 
L 667.170564 308.465351 
L 668.901153 308.696248 
L 670.631742 307.461711 
L 672.362331 310.726334 
L 674.09292 312.315005 
L 675.823509 312.97651 
L 677.554098 315.365486 
L 679.284687 318.318514 
L 681.015276 318.329751 
L 682.745865 316.644148 
L 684.476454 317.194686 
L 686.207043 310.71606 
L 687.937632 310.046996 
L 689.668221 313.698378 
L 691.39881 314.466096 
L 693.129398 316.045934 
L 694.859987 320.604228 
L 696.590576 321.735982 
L 698.321165 321.196506 
L 700.051754 320.835108 
L 701.782343 319.269632 
L 703.512932 319.42228 
L 705.243521 320.158992 
L 708.704699 320.221982 
L 710.435288 324.741588 
L 712.165877 322.689616 
L 713.896466 324.85692 
L 715.627055 324.73538 
L 717.357644 326.543961 
L 719.088233 330.297031 
L 720.818822 329.744831 
L 722.549411 336.198282 
L 724.28 339.749023 
L 724.28 339.749023 
" style="fill:none;stroke:#2ca02c;stroke-linecap:square;stroke-width:1.5;"/>
   </g>
   <g id="line2d_18">
    <path clip-path="url(#p920fbd7ef1)" d="M 101.26797 355.517203 
L 102.998559 355.54062 
L 104.729148 350.769419 
L 106.459737 352.351972 
L 108.190326 353.468631 
L 109.920915 350.965867 
L 111.651504 341.701895 
L 113.382093 340.64272 
L 115.112682 337.274565 
L 116.843271 337.416356 
L 118.57386 337.389837 
L 120.304449 337.921683 
L 122.035038 339.473518 
L 123.765627 340.690901 
L 125.496216 342.244483 
L 127.226805 344.973879 
L 128.957393 344.628009 
L 130.687982 342.794 
L 132.418571 342.742104 
L 134.14916 341.478596 
L 135.879749 341.469492 
L 137.610338 339.630172 
L 141.071516 321.662773 
L 142.802105 313.659094 
L 147.993872 285.656323 
L 149.724461 285.685925 
L 151.45505 285.253282 
L 154.916228 285.027697 
L 156.646817 285.232133 
L 158.377406 284.764311 
L 160.107995 284.644957 
L 161.838584 284.686187 
L 163.569173 285.18729 
L 165.299762 285.067051 
L 167.030351 284.138891 
L 172.222118 284.230183 
L 173.952707 289.020599 
L 175.683296 288.570453 
L 177.413885 288.2699 
L 179.144474 290.930861 
L 180.875063 300.020387 
L 182.605652 299.830648 
L 184.336241 295.475492 
L 186.06683 294.91154 
L 187.797419 295.142445 
L 189.528008 294.72302 
L 191.258596 294.705713 
L 192.989185 294.561497 
L 194.719774 292.48029 
L 196.450363 294.809525 
L 198.180952 294.847061 
L 199.911541 296.289104 
L 201.64213 287.166365 
L 203.372719 289.211109 
L 205.103308 285.883162 
L 212.025664 323.395222 
L 213.756253 332.079666 
L 217.217431 348.351302 
L 218.94802 348.928763 
L 220.678609 348.689712 
L 225.870376 349.184692 
L 227.600965 349.635995 
L 229.331554 349.604493 
L 231.062143 347.343797 
L 232.792732 347.367378 
L 234.523321 347.522564 
L 236.25391 348.610326 
L 237.984499 348.275954 
L 243.176266 348.405626 
L 244.906855 348.760063 
L 246.637444 348.975788 
L 248.368033 348.960976 
L 250.098622 348.777338 
L 251.829211 350.41886 
L 253.559799 356.777911 
L 255.290388 356.542403 
L 257.020977 356.541349 
L 258.751566 356.83953 
L 260.482155 356.728493 
L 262.212744 357.009036 
L 263.943333 359.674863 
L 265.673922 359.226559 
L 267.404511 359.484427 
L 269.1351 359.866029 
L 270.865689 369.012053 
L 272.596278 369.644083 
L 274.326867 372.938105 
L 276.057456 364.325827 
L 279.518634 339.26361 
L 281.249223 339.269891 
L 282.979812 339.131853 
L 284.710401 335.595318 
L 286.44099 337.253294 
L 291.632757 337.382679 
L 293.363346 333.638237 
L 296.824524 331.171251 
L 298.555113 331.237101 
L 300.285702 331.660852 
L 302.016291 329.926257 
L 303.74688 329.53748 
L 305.477469 326.299427 
L 307.208058 326.6458 
L 308.938647 324.650626 
L 312.399825 324.445455 
L 314.130414 324.108972 
L 315.861003 324.207813 
L 317.591591 322.242816 
L 319.32218 320.981491 
L 321.052769 320.890377 
L 322.783358 321.228232 
L 324.513947 317.66849 
L 326.244536 317.64738 
L 327.975125 317.80139 
L 329.705714 317.692662 
L 331.436303 315.96179 
L 333.166892 315.960882 
L 334.897481 316.131669 
L 336.62807 316.164206 
L 338.358659 315.869749 
L 341.819837 315.889429 
L 343.550426 314.641988 
L 345.281015 323.222526 
L 347.011604 335.333229 
L 348.742193 336.286005 
L 350.472782 336.245144 
L 352.203371 328.99204 
L 353.93396 333.649085 
L 355.664549 333.354818 
L 357.395138 330.410014 
L 359.125727 330.595862 
L 360.856316 330.326714 
L 362.586905 333.931292 
L 364.317494 335.16616 
L 366.048083 330.532894 
L 367.778672 309.669714 
L 369.509261 311.132121 
L 371.23985 312.838733 
L 372.970439 312.065738 
L 374.701028 314.879295 
L 376.431617 314.731273 
L 378.162206 316.695629 
L 381.623383 290.750885 
L 385.084561 266.138666 
L 386.81515 268.06705 
L 388.545739 267.8848 
L 390.276328 265.4314 
L 392.006917 266.427457 
L 393.737506 271.032816 
L 395.468095 271.045478 
L 397.198684 270.925495 
L 398.929273 271.129158 
L 400.659862 272.927892 
L 402.390451 272.731714 
L 404.12104 273.399932 
L 405.851629 273.127691 
L 407.582218 273.018715 
L 411.043396 273.008114 
L 412.773985 273.936836 
L 414.504574 265.320523 
L 416.235163 265.936967 
L 417.965752 277.265229 
L 419.696341 277.2991 
L 421.42693 273.352455 
L 423.157519 267.685021 
L 424.888108 267.905403 
L 426.618697 270.84448 
L 428.349286 266.481334 
L 430.079875 266.621319 
L 431.810464 265.664305 
L 433.541053 253.651091 
L 435.271642 259.642209 
L 437.002231 280.637285 
L 438.73282 280.960213 
L 440.463409 262.688133 
L 442.193997 263.189172 
L 443.924586 263.439819 
L 445.655175 256.917317 
L 447.385764 256.939945 
L 449.116353 268.179746 
L 454.30812 305.080155 
L 456.038709 305.063853 
L 457.769298 305.967323 
L 459.499887 308.587704 
L 461.230476 308.584622 
L 462.961065 308.744744 
L 466.422243 308.690967 
L 469.883421 308.476048 
L 471.61401 308.643575 
L 473.344599 308.645722 
L 475.075188 308.872545 
L 476.805777 309.257068 
L 478.536366 309.02028 
L 480.266955 308.062999 
L 481.997544 308.362887 
L 483.728133 316.991699 
L 485.458722 315.0866 
L 487.189311 314.332243 
L 488.9199 312.918472 
L 490.650489 312.374601 
L 492.381078 318.140269 
L 494.111667 314.012908 
L 495.842256 311.340607 
L 497.572845 314.703139 
L 499.303434 311.339506 
L 501.034023 312.415294 
L 502.764612 318.382792 
L 504.495201 318.006198 
L 507.956378 317.981349 
L 509.686967 334.969643 
L 511.417556 332.196985 
L 513.148145 330.181363 
L 514.878734 335.085098 
L 516.609323 334.928569 
L 518.339912 337.059314 
L 520.070501 337.360597 
L 521.80109 337.779017 
L 523.531679 336.794884 
L 525.262268 336.591956 
L 526.992857 337.462879 
L 533.915213 337.075852 
L 537.376391 337.384955 
L 539.10698 335.326448 
L 542.568158 329.041072 
L 544.298747 329.080974 
L 547.759925 322.309627 
L 549.490514 323.30775 
L 551.221103 322.826705 
L 552.951692 322.821305 
L 554.682281 324.576132 
L 556.41287 324.559923 
L 558.143459 325.967251 
L 559.874048 338.859615 
L 561.604637 338.220119 
L 563.335226 328.104053 
L 565.065815 328.340345 
L 566.796404 329.225293 
L 568.526992 332.704554 
L 570.257581 329.590854 
L 571.98817 335.487688 
L 573.718759 335.75861 
L 575.449348 335.173487 
L 577.179937 335.193718 
L 578.910526 329.942748 
L 580.641115 333.383451 
L 582.371704 335.463124 
L 584.102293 337.213949 
L 589.29406 337.636719 
L 591.024649 337.635752 
L 592.755238 338.313015 
L 594.485827 335.902052 
L 596.216416 328.735203 
L 597.947005 328.600293 
L 599.677594 326.564785 
L 601.408183 326.792916 
L 603.138772 324.47991 
L 604.869361 324.316392 
L 606.59995 322.899926 
L 608.330539 323.203661 
L 610.061128 323.349298 
L 611.791717 326.276105 
L 613.522306 323.8116 
L 615.252895 325.70811 
L 616.983484 326.188495 
L 618.714073 325.339195 
L 620.444662 325.749 
L 622.175251 321.308404 
L 623.90584 301.986264 
L 625.636429 299.098108 
L 627.367018 298.961021 
L 629.097607 299.141279 
L 630.828195 299.786026 
L 632.558784 314.076368 
L 634.289373 315.931403 
L 636.019962 316.405755 
L 637.750551 316.398314 
L 639.48114 319.521303 
L 641.211729 316.603388 
L 642.942318 316.646424 
L 644.672907 316.083658 
L 646.403496 312.548495 
L 648.134085 314.236134 
L 649.864674 306.28606 
L 651.595263 306.115439 
L 653.325852 304.274056 
L 655.056441 303.871288 
L 656.78703 303.808504 
L 658.517619 303.011725 
L 660.248208 302.998592 
L 661.978797 302.078687 
L 663.709386 303.419527 
L 665.439975 310.382834 
L 667.170564 308.295529 
L 668.901153 308.961614 
L 670.631742 307.239906 
L 672.362331 309.573886 
L 675.823509 308.86629 
L 677.554098 310.704792 
L 679.284687 313.547982 
L 681.015276 313.153907 
L 682.745865 314.949005 
L 684.476454 316.342123 
L 686.207043 318.496203 
L 687.937632 319.148594 
L 689.668221 318.854737 
L 691.39881 322.548997 
L 693.129398 341.678621 
L 694.859987 345.021699 
L 696.590576 344.933068 
L 698.321165 342.459858 
L 700.051754 342.44277 
L 701.782343 339.176362 
L 703.512932 339.170957 
L 705.243521 338.932423 
L 708.704699 338.930569 
L 710.435288 340.250727 
L 712.165877 339.42808 
L 713.896466 339.937772 
L 715.627055 343.377104 
L 717.357644 348.23654 
L 719.088233 356.184604 
L 720.818822 355.984165 
L 722.549411 357.809488 
L 724.28 357.956581 
L 724.28 357.956581 
" style="fill:none;stroke:#d62728;stroke-linecap:square;stroke-width:1.5;"/>
   </g>
   <g id="line2d_19">
    <path clip-path="url(#p920fbd7ef1)" d="M 101.26797 311.46845 
L 104.729148 311.392138 
L 106.459737 314.921497 
L 108.190326 317.300188 
L 109.920915 317.504098 
L 111.651504 317.250539 
L 113.382093 317.366828 
L 115.112682 316.934879 
L 116.843271 317.319549 
L 120.304449 317.346504 
L 122.035038 318.362782 
L 123.765627 317.512664 
L 125.496216 317.569696 
L 127.226805 313.776593 
L 130.687982 299.769377 
L 132.418571 299.751148 
L 134.14916 293.271343 
L 135.879749 293.26422 
L 137.610338 292.063157 
L 139.340927 290.184784 
L 141.071516 296.770611 
L 142.802105 310.994065 
L 144.532694 319.188972 
L 146.263283 320.439344 
L 147.993872 320.620037 
L 149.724461 323.150876 
L 151.45505 322.138841 
L 153.185639 322.060446 
L 154.916228 320.644207 
L 156.646817 319.562159 
L 158.377406 319.871433 
L 161.838584 319.878165 
L 163.569173 320.199007 
L 165.299762 320.341797 
L 168.76094 320.222886 
L 170.491529 320.374428 
L 173.952707 320.503539 
L 175.683296 318.461093 
L 177.413885 318.358285 
L 182.605652 318.445307 
L 184.336241 318.773286 
L 187.797419 318.81611 
L 189.528008 319.656019 
L 191.258596 319.640882 
L 192.989185 320.656531 
L 194.719774 314.040654 
L 199.911541 334.644322 
L 201.64213 334.511692 
L 203.372719 339.401836 
L 205.103308 338.499015 
L 210.295075 366.368982 
L 212.025664 366.403446 
L 213.756253 366.549992 
L 215.486842 366.485972 
L 218.94802 366.66502 
L 220.678609 367.279673 
L 222.409198 367.178107 
L 224.139787 368.687075 
L 225.870376 369.173904 
L 227.600965 369.477819 
L 229.331554 369.555835 
L 231.062143 369.42197 
L 239.715088 369.593366 
L 241.445677 360.719381 
L 243.176266 353.573241 
L 246.637444 337.703627 
L 248.368033 337.671287 
L 250.098622 337.857238 
L 251.829211 337.501681 
L 255.290388 337.332458 
L 258.751566 337.360775 
L 260.482155 337.145757 
L 262.212744 337.128796 
L 263.943333 344.030232 
L 265.673922 344.38437 
L 267.404511 344.405687 
L 269.1351 344.689396 
L 270.865689 344.814648 
L 272.596278 346.07995 
L 274.326867 346.951689 
L 276.057456 338.177784 
L 279.518634 323.486516 
L 281.249223 323.400283 
L 282.979812 323.454345 
L 284.710401 323.302333 
L 286.44099 323.531719 
L 288.171579 323.544901 
L 289.902168 323.33704 
L 291.632757 323.514903 
L 293.363346 322.341212 
L 295.093935 322.855191 
L 298.555113 322.904671 
L 300.285702 322.908013 
L 302.016291 316.984367 
L 305.477469 316.588705 
L 307.208058 316.607919 
L 308.938647 316.383337 
L 310.669236 325.203312 
L 312.399825 332.40263 
L 314.130414 341.816475 
L 315.861003 350.092069 
L 317.591591 349.240765 
L 319.32218 348.649467 
L 321.052769 348.551886 
L 322.783358 347.692864 
L 326.244536 347.71837 
L 329.705714 348.105706 
L 333.166892 348.066193 
L 334.897481 347.240451 
L 340.089248 347.192491 
L 341.819837 347.534205 
L 343.550426 347.514798 
L 345.281015 356.297053 
L 347.011604 363.549966 
L 348.742193 350.546327 
L 350.472782 348.962701 
L 352.203371 332.463535 
L 353.93396 323.366994 
L 355.664549 322.546185 
L 357.395138 289.686047 
L 359.125727 285.664625 
L 360.856316 285.277748 
L 362.586905 286.421688 
L 364.317494 286.686899 
L 366.048083 284.931615 
L 367.778672 274.951449 
L 369.509261 274.982279 
L 371.23985 280.88766 
L 372.970439 280.454174 
L 374.701028 280.581827 
L 376.431617 280.072589 
L 378.162206 280.260279 
L 381.623383 255.622674 
L 383.353972 244.268983 
L 385.084561 232.1371 
L 388.545739 209.699126 
L 390.276328 204.807568 
L 392.006917 205.853076 
L 395.468095 205.772276 
L 398.929273 205.649964 
L 402.390451 205.716693 
L 404.12104 206.698046 
L 407.582218 206.395367 
L 411.043396 206.371458 
L 412.773985 206.05659 
L 414.504574 197.921572 
L 416.235163 198.001822 
L 417.965752 217.993019 
L 419.696341 219.539187 
L 421.42693 234.58649 
L 423.157519 241.459867 
L 424.888108 242.253568 
L 426.618697 274.9522 
L 428.349286 278.439707 
L 430.079875 278.79766 
L 431.810464 278.769288 
L 433.541053 275.388294 
L 435.271642 277.227016 
L 437.002231 286.999764 
L 438.73282 287.071104 
L 440.463409 265.157113 
L 442.193997 263.571365 
L 443.924586 263.499697 
L 445.655175 243.19131 
L 447.385764 243.223613 
L 457.769298 315.503027 
L 459.499887 320.861681 
L 461.230476 320.840985 
L 462.961065 321.014147 
L 473.344599 321.008952 
L 476.805777 321.340931 
L 478.536366 321.183085 
L 480.266955 321.197958 
L 481.997544 321.514506 
L 483.728133 329.646962 
L 485.458722 329.366941 
L 487.189311 323.404138 
L 488.9199 322.592779 
L 490.650489 324.049962 
L 492.381078 326.446965 
L 494.111667 326.237209 
L 495.842256 326.214317 
L 497.572845 326.589855 
L 499.303434 325.81275 
L 501.034023 325.881657 
L 502.764612 327.277096 
L 504.495201 327.077666 
L 506.225789 326.115621 
L 507.956378 325.872446 
L 509.686967 347.540201 
L 511.417556 349.543981 
L 513.148145 348.605374 
L 514.878734 369.251187 
L 516.609323 369.167999 
L 518.339912 369.40038 
L 520.070501 369.299092 
L 521.80109 369.569426 
L 523.531679 367.674831 
L 525.262268 367.687099 
L 526.992857 367.055958 
L 528.723446 366.76623 
L 539.10698 366.716639 
L 540.837569 366.336925 
L 546.029336 366.267126 
L 547.759925 365.32877 
L 549.490514 365.350352 
L 552.951692 365.062097 
L 554.682281 359.067686 
L 556.41287 364.000876 
L 558.143459 364.926536 
L 559.874048 364.612347 
L 561.604637 364.618448 
L 563.335226 361.491632 
L 565.065815 360.007583 
L 566.796404 359.712633 
L 568.526992 360.509739 
L 570.257581 355.699074 
L 571.98817 355.884797 
L 573.718759 355.79832 
L 575.449348 343.30304 
L 577.179937 343.579508 
L 580.641115 333.730361 
L 582.371704 334.58072 
L 584.102293 334.741339 
L 587.563471 324.405564 
L 589.29406 324.067281 
L 591.024649 324.065772 
L 592.755238 325.869861 
L 594.485827 325.666726 
L 596.216416 326.371265 
L 597.947005 326.296704 
L 599.677594 325.479914 
L 601.408183 325.546059 
L 608.330539 324.98086 
L 610.061128 324.999337 
L 613.522306 324.812477 
L 615.252895 324.777584 
L 616.983484 323.658101 
L 618.714073 322.697904 
L 620.444662 322.876763 
L 622.175251 319.59021 
L 623.90584 324.785278 
L 625.636429 326.086542 
L 627.367018 325.954911 
L 629.097607 326.24716 
L 630.828195 326.236079 
L 632.558784 329.576005 
L 634.289373 331.151494 
L 636.019962 332.208433 
L 637.750551 332.185579 
L 639.48114 336.991314 
L 641.211729 335.798217 
L 642.942318 335.944703 
L 644.672907 341.728835 
L 646.403496 341.699823 
L 648.134085 346.120463 
L 649.864674 344.067378 
L 651.595263 344.17765 
L 653.325852 340.962173 
L 656.78703 351.422262 
L 658.517619 351.168352 
L 660.248208 351.152489 
L 661.978797 345.571955 
L 663.709386 343.589193 
L 665.439975 339.016121 
L 667.170564 339.336053 
L 668.901153 340.025336 
L 670.631742 339.234383 
L 672.362331 339.363935 
L 674.09292 338.689148 
L 675.823509 337.874788 
L 677.554098 338.203821 
L 679.284687 337.593636 
L 681.015276 336.799843 
L 682.745865 336.515095 
L 684.476454 336.523676 
L 686.207043 338.665287 
L 687.937632 339.552906 
L 689.668221 339.564437 
L 691.39881 338.990806 
L 693.129398 336.642066 
L 698.321165 336.501025 
L 700.051754 334.263791 
L 703.512932 334.026522 
L 708.704699 334.050659 
L 710.435288 337.077637 
L 712.165877 337.155884 
L 713.896466 345.004779 
L 715.627055 345.014501 
L 717.357644 345.820125 
L 719.088233 353.011513 
L 720.818822 353.074106 
L 722.549411 356.239609 
L 724.28 356.346677 
L 724.28 356.346677 
" style="fill:none;stroke:#9467bd;stroke-linecap:square;stroke-width:1.5;"/>
   </g>
   <g id="line2d_20">
    <path clip-path="url(#p920fbd7ef1)" d="M 101.26797 367.171694 
L 102.998559 367.199465 
L 104.729148 359.731858 
L 108.190326 345.834941 
L 109.920915 346.332758 
L 111.651504 346.698651 
L 113.382093 339.217502 
L 115.112682 338.792515 
L 118.57386 322.748222 
L 120.304449 323.459919 
L 122.035038 323.779794 
L 123.765627 323.488568 
L 125.496216 326.031821 
L 127.226805 326.220537 
L 128.957393 325.397053 
L 130.687982 324.743742 
L 132.418571 324.694427 
L 134.14916 324.180726 
L 135.879749 324.1937 
L 137.610338 315.42185 
L 139.340927 308.207891 
L 141.071516 299.72783 
L 144.532694 283.880809 
L 146.263283 275.237186 
L 147.993872 268.060818 
L 151.45505 251.358378 
L 153.185639 248.256582 
L 156.646817 230.407 
L 165.299762 186.945913 
L 170.491529 159.218949 
L 172.222118 145.161779 
L 173.952707 142.642916 
L 175.683296 110.843926 
L 177.413885 104.637357 
L 179.144474 99.085999 
L 180.875063 93.988 
L 182.605652 90.588417 
L 184.336241 85.82911 
L 186.06683 82.993094 
L 187.797419 86.01736 
L 191.258596 66.072852 
L 192.989185 61.393382 
L 194.719774 53.562726 
L 196.450363 45.142775 
L 199.911541 46.456264 
L 201.64213 44.824437 
L 203.372719 44.261893 
L 205.103308 43.34 
L 210.295075 68.944703 
L 217.217431 103.522218 
L 224.139787 138.559923 
L 225.870376 146.392284 
L 234.523321 190.582883 
L 239.715088 218.463679 
L 241.445677 232.417138 
L 243.176266 238.68837 
L 244.906855 277.636297 
L 246.637444 290.056171 
L 250.098622 300.186836 
L 251.829211 310.556384 
L 253.559799 315.19082 
L 255.290388 325.990644 
L 257.020977 330.875999 
L 260.482155 350.717844 
L 262.212744 355.677777 
L 265.673922 371.81065 
L 269.1351 371.775459 
L 270.865689 373.325539 
L 274.326867 374.332738 
L 276.057456 372.361618 
L 277.788045 372.026049 
L 279.518634 371.895699 
L 284.710401 371.884375 
L 286.44099 372.161131 
L 288.171579 372.185523 
L 289.902168 371.651324 
L 291.632757 371.673447 
L 293.363346 368.728399 
L 295.093935 369.533587 
L 300.285702 369.514676 
L 302.016291 368.684313 
L 303.74688 368.563864 
L 305.477469 368.158713 
L 307.208058 368.19739 
L 308.938647 368.07764 
L 310.669236 368.132565 
L 312.399825 371.750829 
L 314.130414 371.642826 
L 315.861003 372.751152 
L 317.591591 372.864138 
L 319.32218 372.802417 
L 321.052769 372.937201 
L 322.783358 373.35238 
L 324.513947 373.352535 
L 326.244536 373.495358 
L 340.089248 373.805843 
L 341.819837 374.399417 
L 343.550426 374.472224 
L 345.281015 376.553492 
L 347.011604 376.475331 
L 348.742193 358.595154 
L 350.472782 358.129416 
L 352.203371 341.513123 
L 355.664549 341.486168 
L 357.395138 340.577357 
L 359.125727 341.038496 
L 360.856316 340.729034 
L 362.586905 343.680791 
L 364.317494 343.992404 
L 366.048083 328.535332 
L 367.778672 324.476502 
L 369.509261 324.405048 
L 371.23985 324.831741 
L 372.970439 324.35651 
L 374.701028 324.713011 
L 376.431617 324.680322 
L 378.162206 324.783696 
L 379.892794 313.026182 
L 383.353972 313.458835 
L 385.084561 313.386382 
L 386.81515 313.751597 
L 388.545739 313.537977 
L 392.006917 313.861209 
L 393.737506 313.656488 
L 397.198684 312.959066 
L 398.929273 312.730566 
L 402.390451 312.755951 
L 404.12104 312.801866 
L 405.851629 312.591557 
L 409.312807 312.674193 
L 411.043396 312.659837 
L 412.773985 312.969491 
L 414.504574 298.943114 
L 416.235163 299.329824 
L 417.965752 317.267084 
L 419.696341 317.729401 
L 421.42693 322.107818 
L 423.157519 321.494831 
L 424.888108 320.547351 
L 426.618697 321.453311 
L 428.349286 320.422269 
L 430.079875 320.674062 
L 431.810464 320.651344 
L 433.541053 320.267353 
L 435.271642 335.821421 
L 437.002231 339.895277 
L 438.73282 340.056382 
L 440.463409 338.532221 
L 442.193997 338.719162 
L 443.924586 337.507017 
L 445.655175 337.167143 
L 447.385764 337.175505 
L 449.116353 348.847768 
L 452.577531 348.767986 
L 454.30812 348.841375 
L 456.038709 348.554566 
L 457.769298 348.865106 
L 459.499887 349.054382 
L 461.230476 349.04975 
L 462.961065 349.297445 
L 464.691654 349.68501 
L 473.344599 349.811285 
L 476.805777 350.081458 
L 480.266955 349.934305 
L 481.997544 349.701414 
L 483.728133 363.731933 
L 485.458722 363.666794 
L 487.189311 362.941334 
L 488.9199 361.708722 
L 490.650489 373.957221 
L 492.381078 374.613172 
L 494.111667 373.936761 
L 495.842256 373.706699 
L 497.572845 374.820744 
L 499.303434 371.58891 
L 502.764612 371.612081 
L 504.495201 371.129331 
L 507.956378 371.084102 
L 509.686967 372.428539 
L 511.417556 372.329269 
L 513.148145 373.297126 
L 514.878734 373.481027 
L 516.609323 373.069926 
L 518.339912 360.710762 
L 521.80109 338.034238 
L 523.531679 336.553542 
L 525.262268 336.849708 
L 528.723446 336.885147 
L 533.915213 336.826699 
L 537.376391 337.365134 
L 539.10698 337.355605 
L 540.837569 337.152015 
L 544.298747 337.232964 
L 546.029336 337.221725 
L 547.759925 336.962023 
L 549.490514 337.062479 
L 551.221103 336.865508 
L 552.951692 336.939522 
L 554.682281 321.368474 
L 556.41287 321.489977 
L 558.143459 322.715971 
L 559.874048 322.619984 
L 561.604637 321.908731 
L 563.335226 322.229483 
L 565.065815 321.815758 
L 566.796404 321.878455 
L 568.526992 325.167508 
L 570.257581 325.061537 
L 571.98817 325.380809 
L 573.718759 325.076698 
L 577.179937 325.00827 
L 578.910526 325.383315 
L 580.641115 325.925338 
L 585.832882 326.722171 
L 587.563471 339.158156 
L 591.024649 361.868883 
L 592.755238 363.259584 
L 596.216416 363.199405 
L 597.947005 362.899636 
L 599.677594 362.723248 
L 603.138772 362.670342 
L 606.59995 362.475133 
L 608.330539 362.277478 
L 610.061128 362.368412 
L 611.791717 361.592404 
L 613.522306 359.150724 
L 615.252895 358.911322 
L 616.983484 359.026535 
L 618.714073 357.802696 
L 620.444662 358.243282 
L 622.175251 343.442828 
L 623.90584 344.532232 
L 629.097607 297.674946 
L 630.828195 284.4783 
L 632.558784 274.164336 
L 634.289373 262.411865 
L 636.019962 262.60527 
L 637.750551 262.59236 
L 639.48114 240.527403 
L 641.211729 219.948078 
L 642.942318 220.719057 
L 644.672907 200.3901 
L 648.134085 198.51258 
L 655.056441 197.907233 
L 656.78703 197.853987 
L 658.517619 195.764242 
L 660.248208 195.68256 
L 661.978797 195.391941 
L 663.709386 194.30102 
L 665.439975 194.171392 
L 667.170564 194.468778 
L 668.901153 194.07169 
L 670.631742 193.348194 
L 672.362331 193.425565 
L 674.09292 192.242674 
L 675.823509 191.242117 
L 679.284687 191.59143 
L 681.015276 192.230112 
L 682.745865 194.601714 
L 684.476454 194.450983 
L 686.207043 194.545638 
L 687.937632 195.666966 
L 689.668221 195.637489 
L 694.859987 237.795555 
L 698.321165 268.173608 
L 700.051754 281.358754 
L 701.782343 292.714641 
L 703.512932 305.044677 
L 706.97411 304.966115 
L 708.704699 327.096479 
L 710.435288 347.612479 
L 712.165877 347.548684 
L 713.896466 367.94425 
L 715.627055 368.851614 
L 717.357644 370.005434 
L 719.088233 370.102572 
L 722.549411 370.065069 
L 724.28 370.182827 
L 724.28 370.182827 
" style="fill:none;stroke:#8c564b;stroke-linecap:square;stroke-width:1.5;"/>
   </g>
   <g id="patch_3">
    <path d="M 33.775 404.12 
L 33.775 26.16 
" style="fill:none;stroke:#000000;stroke-linecap:square;stroke-linejoin:miter;stroke-width:0.8;"/>
   </g>
   <g id="patch_4">
    <path d="M 724.28 404.12 
L 724.28 26.16 
" style="fill:none;stroke:#000000;stroke-linecap:square;stroke-linejoin:miter;stroke-width:0.8;"/>
   </g>
   <g id="patch_5">
    <path d="M 33.775 404.12 
L 724.28 404.12 
" style="fill:none;stroke:#000000;stroke-linecap:square;stroke-linejoin:miter;stroke-width:0.8;"/>
   </g>
   <g id="patch_6">
    <path d="M 33.775 26.16 
L 724.28 26.16 
" style="fill:none;stroke:#000000;stroke-linecap:square;stroke-linejoin:miter;stroke-width:0.8;"/>
   </g>
   <g id="text_15">
    <!-- gridworld_5x5_20_1_20_1337: episode execution time, sec, MA=40 -->
    <defs>
     <path d="M 45.40625 27.984375 
Q 45.40625 37.75 41.375 43.109375 
Q 37.359375 48.484375 30.078125 48.484375 
Q 22.859375 48.484375 18.828125 43.109375 
Q 14.796875 37.75 14.796875 27.984375 
Q 14.796875 18.265625 18.828125 12.890625 
Q 22.859375 7.515625 30.078125 7.515625 
Q 37.359375 7.515625 41.375 12.890625 
Q 45.40625 18.265625 45.40625 27.984375 
z
M 54.390625 6.78125 
Q 54.390625 -7.171875 48.1875 -13.984375 
Q 42 -20.796875 29.203125 -20.796875 
Q 24.46875 -20.796875 20.265625 -20.09375 
Q 16.0625 -19.390625 12.109375 -17.921875 
L 12.109375 -9.1875 
Q 16.0625 -11.328125 19.921875 -12.34375 
Q 23.78125 -13.375 27.78125 -13.375 
Q 36.625 -13.375 41.015625 -8.765625 
Q 45.40625 -4.15625 45.40625 5.171875 
L 45.40625 9.625 
Q 42.625 4.78125 38.28125 2.390625 
Q 33.9375 0 27.875 0 
Q 17.828125 0 11.671875 7.65625 
Q 5.515625 15.328125 5.515625 27.984375 
Q 5.515625 40.671875 11.671875 48.328125 
Q 17.828125 56 27.875 56 
Q 33.9375 56 38.28125 53.609375 
Q 42.625 51.21875 45.40625 46.390625 
L 45.40625 54.6875 
L 54.390625 54.6875 
z
" id="DejaVuSans-103"/>
     <path d="M 41.109375 46.296875 
Q 39.59375 47.171875 37.8125 47.578125 
Q 36.03125 48 33.890625 48 
Q 26.265625 48 22.1875 43.046875 
Q 18.109375 38.09375 18.109375 28.8125 
L 18.109375 0 
L 9.078125 0 
L 9.078125 54.6875 
L 18.109375 54.6875 
L 18.109375 46.1875 
Q 20.953125 51.171875 25.484375 53.578125 
Q 30.03125 56 36.53125 56 
Q 37.453125 56 38.578125 55.875 
Q 39.703125 55.765625 41.0625 55.515625 
z
" id="DejaVuSans-114"/>
     <path d="M 9.421875 54.6875 
L 18.40625 54.6875 
L 18.40625 0 
L 9.421875 0 
z
M 9.421875 75.984375 
L 18.40625 75.984375 
L 18.40625 64.59375 
L 9.421875 64.59375 
z
" id="DejaVuSans-105"/>
     <path d="M 45.40625 46.390625 
L 45.40625 75.984375 
L 54.390625 75.984375 
L 54.390625 0 
L 45.40625 0 
L 45.40625 8.203125 
Q 42.578125 3.328125 38.25 0.953125 
Q 33.9375 -1.421875 27.875 -1.421875 
Q 17.96875 -1.421875 11.734375 6.484375 
Q 5.515625 14.40625 5.515625 27.296875 
Q 5.515625 40.1875 11.734375 48.09375 
Q 17.96875 56 27.875 56 
Q 33.9375 56 38.25 53.625 
Q 42.578125 51.265625 45.40625 46.390625 
z
M 14.796875 27.296875 
Q 14.796875 17.390625 18.875 11.75 
Q 22.953125 6.109375 30.078125 6.109375 
Q 37.203125 6.109375 41.296875 11.75 
Q 45.40625 17.390625 45.40625 27.296875 
Q 45.40625 37.203125 41.296875 42.84375 
Q 37.203125 48.484375 30.078125 48.484375 
Q 22.953125 48.484375 18.875 42.84375 
Q 14.796875 37.203125 14.796875 27.296875 
z
" id="DejaVuSans-100"/>
     <path d="M 4.203125 54.6875 
L 13.1875 54.6875 
L 24.421875 12.015625 
L 35.59375 54.6875 
L 46.1875 54.6875 
L 57.421875 12.015625 
L 68.609375 54.6875 
L 77.59375 54.6875 
L 63.28125 0 
L 52.6875 0 
L 40.921875 44.828125 
L 29.109375 0 
L 18.5 0 
z
" id="DejaVuSans-119"/>
     <path d="M 30.609375 48.390625 
Q 23.390625 48.390625 19.1875 42.75 
Q 14.984375 37.109375 14.984375 27.296875 
Q 14.984375 17.484375 19.15625 11.84375 
Q 23.34375 6.203125 30.609375 6.203125 
Q 37.796875 6.203125 41.984375 11.859375 
Q 46.1875 17.53125 46.1875 27.296875 
Q 46.1875 37.015625 41.984375 42.703125 
Q 37.796875 48.390625 30.609375 48.390625 
z
M 30.609375 56 
Q 42.328125 56 49.015625 48.375 
Q 55.71875 40.765625 55.71875 27.296875 
Q 55.71875 13.875 49.015625 6.21875 
Q 42.328125 -1.421875 30.609375 -1.421875 
Q 18.84375 -1.421875 12.171875 6.21875 
Q 5.515625 13.875 5.515625 27.296875 
Q 5.515625 40.765625 12.171875 48.375 
Q 18.84375 56 30.609375 56 
z
" id="DejaVuSans-111"/>
     <path d="M 9.421875 75.984375 
L 18.40625 75.984375 
L 18.40625 0 
L 9.421875 0 
z
" id="DejaVuSans-108"/>
     <path d="M 50.984375 -16.609375 
L 50.984375 -23.578125 
L -0.984375 -23.578125 
L -0.984375 -16.609375 
z
" id="DejaVuSans-95"/>
     <path d="M 54.890625 54.6875 
L 35.109375 28.078125 
L 55.90625 0 
L 45.3125 0 
L 29.390625 21.484375 
L 13.484375 0 
L 2.875 0 
L 24.125 28.609375 
L 4.6875 54.6875 
L 15.28125 54.6875 
L 29.78125 35.203125 
L 44.28125 54.6875 
z
" id="DejaVuSans-120"/>
     <path d="M 8.203125 72.90625 
L 55.078125 72.90625 
L 55.078125 68.703125 
L 28.609375 0 
L 18.3125 0 
L 43.21875 64.59375 
L 8.203125 64.59375 
z
" id="DejaVuSans-55"/>
     <path d="M 11.71875 12.40625 
L 22.015625 12.40625 
L 22.015625 0 
L 11.71875 0 
z
M 11.71875 51.703125 
L 22.015625 51.703125 
L 22.015625 39.3125 
L 11.71875 39.3125 
z
" id="DejaVuSans-58"/>
     <path id="DejaVuSans-32"/>
     <path d="M 56.203125 29.59375 
L 56.203125 25.203125 
L 14.890625 25.203125 
Q 15.484375 15.921875 20.484375 11.0625 
Q 25.484375 6.203125 34.421875 6.203125 
Q 39.59375 6.203125 44.453125 7.46875 
Q 49.3125 8.734375 54.109375 11.28125 
L 54.109375 2.78125 
Q 49.265625 0.734375 44.1875 -0.34375 
Q 39.109375 -1.421875 33.890625 -1.421875 
Q 20.796875 -1.421875 13.15625 6.1875 
Q 5.515625 13.8125 5.515625 26.8125 
Q 5.515625 40.234375 12.765625 48.109375 
Q 20.015625 56 32.328125 56 
Q 43.359375 56 49.78125 48.890625 
Q 56.203125 41.796875 56.203125 29.59375 
z
M 47.21875 32.234375 
Q 47.125 39.59375 43.09375 43.984375 
Q 39.0625 48.390625 32.421875 48.390625 
Q 24.90625 48.390625 20.390625 44.140625 
Q 15.875 39.890625 15.1875 32.171875 
z
" id="DejaVuSans-101"/>
     <path d="M 18.109375 8.203125 
L 18.109375 -20.796875 
L 9.078125 -20.796875 
L 9.078125 54.6875 
L 18.109375 54.6875 
L 18.109375 46.390625 
Q 20.953125 51.265625 25.265625 53.625 
Q 29.59375 56 35.59375 56 
Q 45.5625 56 51.78125 48.09375 
Q 58.015625 40.1875 58.015625 27.296875 
Q 58.015625 14.40625 51.78125 6.484375 
Q 45.5625 -1.421875 35.59375 -1.421875 
Q 29.59375 -1.421875 25.265625 0.953125 
Q 20.953125 3.328125 18.109375 8.203125 
z
M 48.6875 27.296875 
Q 48.6875 37.203125 44.609375 42.84375 
Q 40.53125 48.484375 33.40625 48.484375 
Q 26.265625 48.484375 22.1875 42.84375 
Q 18.109375 37.203125 18.109375 27.296875 
Q 18.109375 17.390625 22.1875 11.75 
Q 26.265625 6.109375 33.40625 6.109375 
Q 40.53125 6.109375 44.609375 11.75 
Q 48.6875 17.390625 48.6875 27.296875 
z
" id="DejaVuSans-112"/>
     <path d="M 44.28125 53.078125 
L 44.28125 44.578125 
Q 40.484375 46.53125 36.375 47.5 
Q 32.28125 48.484375 27.875 48.484375 
Q 21.1875 48.484375 17.84375 46.4375 
Q 14.5 44.390625 14.5 40.28125 
Q 14.5 37.15625 16.890625 35.375 
Q 19.28125 33.59375 26.515625 31.984375 
L 29.59375 31.296875 
Q 39.15625 29.25 43.1875 25.515625 
Q 47.21875 21.78125 47.21875 15.09375 
Q 47.21875 7.46875 41.1875 3.015625 
Q 35.15625 -1.421875 24.609375 -1.421875 
Q 20.21875 -1.421875 15.453125 -0.5625 
Q 10.6875 0.296875 5.421875 2 
L 5.421875 11.28125 
Q 10.40625 8.6875 15.234375 7.390625 
Q 20.0625 6.109375 24.8125 6.109375 
Q 31.15625 6.109375 34.5625 8.28125 
Q 37.984375 10.453125 37.984375 14.40625 
Q 37.984375 18.0625 35.515625 20.015625 
Q 33.0625 21.96875 24.703125 23.78125 
L 21.578125 24.515625 
Q 13.234375 26.265625 9.515625 29.90625 
Q 5.8125 33.546875 5.8125 39.890625 
Q 5.8125 47.609375 11.28125 51.796875 
Q 16.75 56 26.8125 56 
Q 31.78125 56 36.171875 55.265625 
Q 40.578125 54.546875 44.28125 53.078125 
z
" id="DejaVuSans-115"/>
     <path d="M 48.78125 52.59375 
L 48.78125 44.1875 
Q 44.96875 46.296875 41.140625 47.34375 
Q 37.3125 48.390625 33.40625 48.390625 
Q 24.65625 48.390625 19.8125 42.84375 
Q 14.984375 37.3125 14.984375 27.296875 
Q 14.984375 17.28125 19.8125 11.734375 
Q 24.65625 6.203125 33.40625 6.203125 
Q 37.3125 6.203125 41.140625 7.25 
Q 44.96875 8.296875 48.78125 10.40625 
L 48.78125 2.09375 
Q 45.015625 0.34375 40.984375 -0.53125 
Q 36.96875 -1.421875 32.421875 -1.421875 
Q 20.0625 -1.421875 12.78125 6.34375 
Q 5.515625 14.109375 5.515625 27.296875 
Q 5.515625 40.671875 12.859375 48.328125 
Q 20.21875 56 33.015625 56 
Q 37.15625 56 41.109375 55.140625 
Q 45.0625 54.296875 48.78125 52.59375 
z
" id="DejaVuSans-99"/>
     <path d="M 8.5 21.578125 
L 8.5 54.6875 
L 17.484375 54.6875 
L 17.484375 21.921875 
Q 17.484375 14.15625 20.5 10.265625 
Q 23.53125 6.390625 29.59375 6.390625 
Q 36.859375 6.390625 41.078125 11.03125 
Q 45.3125 15.671875 45.3125 23.6875 
L 45.3125 54.6875 
L 54.296875 54.6875 
L 54.296875 0 
L 45.3125 0 
L 45.3125 8.40625 
Q 42.046875 3.421875 37.71875 1 
Q 33.40625 -1.421875 27.6875 -1.421875 
Q 18.265625 -1.421875 13.375 4.4375 
Q 8.5 10.296875 8.5 21.578125 
z
M 31.109375 56 
z
" id="DejaVuSans-117"/>
     <path d="M 18.3125 70.21875 
L 18.3125 54.6875 
L 36.8125 54.6875 
L 36.8125 47.703125 
L 18.3125 47.703125 
L 18.3125 18.015625 
Q 18.3125 11.328125 20.140625 9.421875 
Q 21.96875 7.515625 27.59375 7.515625 
L 36.8125 7.515625 
L 36.8125 0 
L 27.59375 0 
Q 17.1875 0 13.234375 3.875 
Q 9.28125 7.765625 9.28125 18.015625 
L 9.28125 47.703125 
L 2.6875 47.703125 
L 2.6875 54.6875 
L 9.28125 54.6875 
L 9.28125 70.21875 
z
" id="DejaVuSans-116"/>
     <path d="M 54.890625 33.015625 
L 54.890625 0 
L 45.90625 0 
L 45.90625 32.71875 
Q 45.90625 40.484375 42.875 44.328125 
Q 39.84375 48.1875 33.796875 48.1875 
Q 26.515625 48.1875 22.3125 43.546875 
Q 18.109375 38.921875 18.109375 30.90625 
L 18.109375 0 
L 9.078125 0 
L 9.078125 54.6875 
L 18.109375 54.6875 
L 18.109375 46.1875 
Q 21.34375 51.125 25.703125 53.5625 
Q 30.078125 56 35.796875 56 
Q 45.21875 56 50.046875 50.171875 
Q 54.890625 44.34375 54.890625 33.015625 
z
" id="DejaVuSans-110"/>
     <path d="M 52 44.1875 
Q 55.375 50.25 60.0625 53.125 
Q 64.75 56 71.09375 56 
Q 79.640625 56 84.28125 50.015625 
Q 88.921875 44.046875 88.921875 33.015625 
L 88.921875 0 
L 79.890625 0 
L 79.890625 32.71875 
Q 79.890625 40.578125 77.09375 44.375 
Q 74.3125 48.1875 68.609375 48.1875 
Q 61.625 48.1875 57.5625 43.546875 
Q 53.515625 38.921875 53.515625 30.90625 
L 53.515625 0 
L 44.484375 0 
L 44.484375 32.71875 
Q 44.484375 40.625 41.703125 44.40625 
Q 38.921875 48.1875 33.109375 48.1875 
Q 26.21875 48.1875 22.15625 43.53125 
Q 18.109375 38.875 18.109375 30.90625 
L 18.109375 0 
L 9.078125 0 
L 9.078125 54.6875 
L 18.109375 54.6875 
L 18.109375 46.1875 
Q 21.1875 51.21875 25.484375 53.609375 
Q 29.78125 56 35.6875 56 
Q 41.65625 56 45.828125 52.96875 
Q 50 49.953125 52 44.1875 
z
" id="DejaVuSans-109"/>
     <path d="M 11.71875 12.40625 
L 22.015625 12.40625 
L 22.015625 4 
L 14.015625 -11.625 
L 7.71875 -11.625 
L 11.71875 4 
z
" id="DejaVuSans-44"/>
     <path d="M 9.8125 72.90625 
L 24.515625 72.90625 
L 43.109375 23.296875 
L 61.8125 72.90625 
L 76.515625 72.90625 
L 76.515625 0 
L 66.890625 0 
L 66.890625 64.015625 
L 48.09375 14.015625 
L 38.1875 14.015625 
L 19.390625 64.015625 
L 19.390625 0 
L 9.8125 0 
z
" id="DejaVuSans-77"/>
     <path d="M 34.1875 63.1875 
L 20.796875 26.90625 
L 47.609375 26.90625 
z
M 28.609375 72.90625 
L 39.796875 72.90625 
L 67.578125 0 
L 57.328125 0 
L 50.6875 18.703125 
L 17.828125 18.703125 
L 11.1875 0 
L 0.78125 0 
z
" id="DejaVuSans-65"/>
     <path d="M 10.59375 45.40625 
L 73.1875 45.40625 
L 73.1875 37.203125 
L 10.59375 37.203125 
z
M 10.59375 25.484375 
L 73.1875 25.484375 
L 73.1875 17.1875 
L 10.59375 17.1875 
z
" id="DejaVuSans-61"/>
     <path d="M 37.796875 64.3125 
L 12.890625 25.390625 
L 37.796875 25.390625 
z
M 35.203125 72.90625 
L 47.609375 72.90625 
L 47.609375 25.390625 
L 58.015625 25.390625 
L 58.015625 17.1875 
L 47.609375 17.1875 
L 47.609375 0 
L 37.796875 0 
L 37.796875 17.1875 
L 4.890625 17.1875 
L 4.890625 26.703125 
z
" id="DejaVuSans-52"/>
    </defs>
    <g transform="translate(176.235 20.16)scale(0.12 -0.12)">
     <use xlink:href="#DejaVuSans-103"/>
     <use x="63.476562" xlink:href="#DejaVuSans-114"/>
     <use x="104.589844" xlink:href="#DejaVuSans-105"/>
     <use x="132.373047" xlink:href="#DejaVuSans-100"/>
     <use x="195.849609" xlink:href="#DejaVuSans-119"/>
     <use x="277.636719" xlink:href="#DejaVuSans-111"/>
     <use x="338.818359" xlink:href="#DejaVuSans-114"/>
     <use x="379.931641" xlink:href="#DejaVuSans-108"/>
     <use x="407.714844" xlink:href="#DejaVuSans-100"/>
     <use x="471.191406" xlink:href="#DejaVuSans-95"/>
     <use x="521.191406" xlink:href="#DejaVuSans-53"/>
     <use x="584.814453" xlink:href="#DejaVuSans-120"/>
     <use x="643.994141" xlink:href="#DejaVuSans-53"/>
     <use x="707.617188" xlink:href="#DejaVuSans-95"/>
     <use x="757.617188" xlink:href="#DejaVuSans-50"/>
     <use x="821.240234" xlink:href="#DejaVuSans-48"/>
     <use x="884.863281" xlink:href="#DejaVuSans-95"/>
     <use x="934.863281" xlink:href="#DejaVuSans-49"/>
     <use x="998.486328" xlink:href="#DejaVuSans-95"/>
     <use x="1048.486328" xlink:href="#DejaVuSans-50"/>
     <use x="1112.109375" xlink:href="#DejaVuSans-48"/>
     <use x="1175.732422" xlink:href="#DejaVuSans-95"/>
     <use x="1225.732422" xlink:href="#DejaVuSans-49"/>
     <use x="1289.355469" xlink:href="#DejaVuSans-51"/>
     <use x="1352.978516" xlink:href="#DejaVuSans-51"/>
     <use x="1416.601562" xlink:href="#DejaVuSans-55"/>
     <use x="1480.224609" xlink:href="#DejaVuSans-58"/>
     <use x="1513.916016" xlink:href="#DejaVuSans-32"/>
     <use x="1545.703125" xlink:href="#DejaVuSans-101"/>
     <use x="1607.226562" xlink:href="#DejaVuSans-112"/>
     <use x="1670.703125" xlink:href="#DejaVuSans-105"/>
     <use x="1698.486328" xlink:href="#DejaVuSans-115"/>
     <use x="1750.585938" xlink:href="#DejaVuSans-111"/>
     <use x="1811.767578" xlink:href="#DejaVuSans-100"/>
     <use x="1875.244141" xlink:href="#DejaVuSans-101"/>
     <use x="1936.767578" xlink:href="#DejaVuSans-32"/>
     <use x="1968.554688" xlink:href="#DejaVuSans-101"/>
     <use x="2030.0625" xlink:href="#DejaVuSans-120"/>
     <use x="2089.195312" xlink:href="#DejaVuSans-101"/>
     <use x="2150.71875" xlink:href="#DejaVuSans-99"/>
     <use x="2205.699219" xlink:href="#DejaVuSans-117"/>
     <use x="2269.078125" xlink:href="#DejaVuSans-116"/>
     <use x="2308.287109" xlink:href="#DejaVuSans-105"/>
     <use x="2336.070312" xlink:href="#DejaVuSans-111"/>
     <use x="2397.251953" xlink:href="#DejaVuSans-110"/>
     <use x="2460.630859" xlink:href="#DejaVuSans-32"/>
     <use x="2492.417969" xlink:href="#DejaVuSans-116"/>
     <use x="2531.626953" xlink:href="#DejaVuSans-105"/>
     <use x="2559.410156" xlink:href="#DejaVuSans-109"/>
     <use x="2656.822266" xlink:href="#DejaVuSans-101"/>
     <use x="2718.345703" xlink:href="#DejaVuSans-44"/>
     <use x="2750.132812" xlink:href="#DejaVuSans-32"/>
     <use x="2781.919922" xlink:href="#DejaVuSans-115"/>
     <use x="2834.019531" xlink:href="#DejaVuSans-101"/>
     <use x="2895.542969" xlink:href="#DejaVuSans-99"/>
     <use x="2950.523438" xlink:href="#DejaVuSans-44"/>
     <use x="2982.310547" xlink:href="#DejaVuSans-32"/>
     <use x="3014.097656" xlink:href="#DejaVuSans-77"/>
     <use x="3100.376953" xlink:href="#DejaVuSans-65"/>
     <use x="3168.785156" xlink:href="#DejaVuSans-61"/>
     <use x="3252.574219" xlink:href="#DejaVuSans-52"/>
     <use x="3316.197266" xlink:href="#DejaVuSans-48"/>
    </g>
   </g>
   <g id="legend_1">
    <g id="patch_7">
     <path d="M 764.316937 261.50875 
L 855.381 261.50875 
Q 857.381 261.50875 857.381 259.50875 
L 857.381 170.77125 
Q 857.381 168.77125 855.381 168.77125 
L 764.316937 168.77125 
Q 762.316937 168.77125 762.316937 170.77125 
L 762.316937 259.50875 
Q 762.316937 261.50875 764.316937 261.50875 
z
" style="fill:#ffffff;opacity:0.8;stroke:#cccccc;stroke-linejoin:miter;"/>
    </g>
    <g id="line2d_21">
     <path d="M 766.316937 176.869687 
L 786.316937 176.869687 
" style="fill:none;stroke:#1f77b4;stroke-linecap:square;stroke-width:1.5;"/>
    </g>
    <g id="line2d_22"/>
    <g id="text_16">
     <!-- htm_0 -->
     <defs>
      <path d="M 54.890625 33.015625 
L 54.890625 0 
L 45.90625 0 
L 45.90625 32.71875 
Q 45.90625 40.484375 42.875 44.328125 
Q 39.84375 48.1875 33.796875 48.1875 
Q 26.515625 48.1875 22.3125 43.546875 
Q 18.109375 38.921875 18.109375 30.90625 
L 18.109375 0 
L 9.078125 0 
L 9.078125 75.984375 
L 18.109375 75.984375 
L 18.109375 46.1875 
Q 21.34375 51.125 25.703125 53.5625 
Q 30.078125 56 35.796875 56 
Q 45.21875 56 50.046875 50.171875 
Q 54.890625 44.34375 54.890625 33.015625 
z
" id="DejaVuSans-104"/>
     </defs>
     <g transform="translate(794.316937 180.369687)scale(0.1 -0.1)">
      <use xlink:href="#DejaVuSans-104"/>
      <use x="63.378906" xlink:href="#DejaVuSans-116"/>
      <use x="102.587891" xlink:href="#DejaVuSans-109"/>
      <use x="200" xlink:href="#DejaVuSans-95"/>
      <use x="250" xlink:href="#DejaVuSans-48"/>
     </g>
    </g>
    <g id="line2d_23">
     <path d="M 766.316937 191.825938 
L 786.316937 191.825938 
" style="fill:none;stroke:#ff7f0e;stroke-linecap:square;stroke-width:1.5;"/>
    </g>
    <g id="line2d_24"/>
    <g id="text_17">
     <!-- dqn_greedy -->
     <defs>
      <path d="M 14.796875 27.296875 
Q 14.796875 17.390625 18.875 11.75 
Q 22.953125 6.109375 30.078125 6.109375 
Q 37.203125 6.109375 41.296875 11.75 
Q 45.40625 17.390625 45.40625 27.296875 
Q 45.40625 37.203125 41.296875 42.84375 
Q 37.203125 48.484375 30.078125 48.484375 
Q 22.953125 48.484375 18.875 42.84375 
Q 14.796875 37.203125 14.796875 27.296875 
z
M 45.40625 8.203125 
Q 42.578125 3.328125 38.25 0.953125 
Q 33.9375 -1.421875 27.875 -1.421875 
Q 17.96875 -1.421875 11.734375 6.484375 
Q 5.515625 14.40625 5.515625 27.296875 
Q 5.515625 40.1875 11.734375 48.09375 
Q 17.96875 56 27.875 56 
Q 33.9375 56 38.25 53.625 
Q 42.578125 51.265625 45.40625 46.390625 
L 45.40625 54.6875 
L 54.390625 54.6875 
L 54.390625 -20.796875 
L 45.40625 -20.796875 
z
" id="DejaVuSans-113"/>
      <path d="M 32.171875 -5.078125 
Q 28.375 -14.84375 24.75 -17.8125 
Q 21.140625 -20.796875 15.09375 -20.796875 
L 7.90625 -20.796875 
L 7.90625 -13.28125 
L 13.1875 -13.28125 
Q 16.890625 -13.28125 18.9375 -11.515625 
Q 21 -9.765625 23.484375 -3.21875 
L 25.09375 0.875 
L 2.984375 54.6875 
L 12.5 54.6875 
L 29.59375 11.921875 
L 46.6875 54.6875 
L 56.203125 54.6875 
z
" id="DejaVuSans-121"/>
     </defs>
     <g transform="translate(794.316937 195.325938)scale(0.1 -0.1)">
      <use xlink:href="#DejaVuSans-100"/>
      <use x="63.476562" xlink:href="#DejaVuSans-113"/>
      <use x="126.953125" xlink:href="#DejaVuSans-110"/>
      <use x="190.332031" xlink:href="#DejaVuSans-95"/>
      <use x="240.332031" xlink:href="#DejaVuSans-103"/>
      <use x="303.808594" xlink:href="#DejaVuSans-114"/>
      <use x="344.890625" xlink:href="#DejaVuSans-101"/>
      <use x="406.414062" xlink:href="#DejaVuSans-101"/>
      <use x="467.9375" xlink:href="#DejaVuSans-100"/>
      <use x="531.414062" xlink:href="#DejaVuSans-121"/>
     </g>
    </g>
    <g id="line2d_25">
     <path d="M 766.316937 206.782187 
L 786.316937 206.782187 
" style="fill:none;stroke:#2ca02c;stroke-linecap:square;stroke-width:1.5;"/>
    </g>
    <g id="line2d_26"/>
    <g id="text_18">
     <!-- htm_1_1g -->
     <g transform="translate(794.316937 210.282187)scale(0.1 -0.1)">
      <use xlink:href="#DejaVuSans-104"/>
      <use x="63.378906" xlink:href="#DejaVuSans-116"/>
      <use x="102.587891" xlink:href="#DejaVuSans-109"/>
      <use x="200" xlink:href="#DejaVuSans-95"/>
      <use x="250" xlink:href="#DejaVuSans-49"/>
      <use x="313.623047" xlink:href="#DejaVuSans-95"/>
      <use x="363.623047" xlink:href="#DejaVuSans-49"/>
      <use x="427.246094" xlink:href="#DejaVuSans-103"/>
     </g>
    </g>
    <g id="line2d_27">
     <path d="M 766.316937 221.738438 
L 786.316937 221.738438 
" style="fill:none;stroke:#d62728;stroke-linecap:square;stroke-width:1.5;"/>
    </g>
    <g id="line2d_28"/>
    <g id="text_19">
     <!-- htm_2_1g -->
     <g transform="translate(794.316937 225.238438)scale(0.1 -0.1)">
      <use xlink:href="#DejaVuSans-104"/>
      <use x="63.378906" xlink:href="#DejaVuSans-116"/>
      <use x="102.587891" xlink:href="#DejaVuSans-109"/>
      <use x="200" xlink:href="#DejaVuSans-95"/>
      <use x="250" xlink:href="#DejaVuSans-50"/>
      <use x="313.623047" xlink:href="#DejaVuSans-95"/>
      <use x="363.623047" xlink:href="#DejaVuSans-49"/>
      <use x="427.246094" xlink:href="#DejaVuSans-103"/>
     </g>
    </g>
    <g id="line2d_29">
     <path d="M 766.316937 236.694687 
L 786.316937 236.694687 
" style="fill:none;stroke:#9467bd;stroke-linecap:square;stroke-width:1.5;"/>
    </g>
    <g id="line2d_30"/>
    <g id="text_20">
     <!-- htm_4_1g -->
     <g transform="translate(794.316937 240.194687)scale(0.1 -0.1)">
      <use xlink:href="#DejaVuSans-104"/>
      <use x="63.378906" xlink:href="#DejaVuSans-116"/>
      <use x="102.587891" xlink:href="#DejaVuSans-109"/>
      <use x="200" xlink:href="#DejaVuSans-95"/>
      <use x="250" xlink:href="#DejaVuSans-52"/>
      <use x="313.623047" xlink:href="#DejaVuSans-95"/>
      <use x="363.623047" xlink:href="#DejaVuSans-49"/>
      <use x="427.246094" xlink:href="#DejaVuSans-103"/>
     </g>
    </g>
    <g id="line2d_31">
     <path d="M 766.316937 251.650937 
L 786.316937 251.650937 
" style="fill:none;stroke:#8c564b;stroke-linecap:square;stroke-width:1.5;"/>
    </g>
    <g id="line2d_32"/>
    <g id="text_21">
     <!-- htm_8_1g -->
     <defs>
      <path d="M 31.78125 34.625 
Q 24.75 34.625 20.71875 30.859375 
Q 16.703125 27.09375 16.703125 20.515625 
Q 16.703125 13.921875 20.71875 10.15625 
Q 24.75 6.390625 31.78125 6.390625 
Q 38.8125 6.390625 42.859375 10.171875 
Q 46.921875 13.96875 46.921875 20.515625 
Q 46.921875 27.09375 42.890625 30.859375 
Q 38.875 34.625 31.78125 34.625 
z
M 21.921875 38.8125 
Q 15.578125 40.375 12.03125 44.71875 
Q 8.5 49.078125 8.5 55.328125 
Q 8.5 64.0625 14.71875 69.140625 
Q 20.953125 74.21875 31.78125 74.21875 
Q 42.671875 74.21875 48.875 69.140625 
Q 55.078125 64.0625 55.078125 55.328125 
Q 55.078125 49.078125 51.53125 44.71875 
Q 48 40.375 41.703125 38.8125 
Q 48.828125 37.15625 52.796875 32.3125 
Q 56.78125 27.484375 56.78125 20.515625 
Q 56.78125 9.90625 50.3125 4.234375 
Q 43.84375 -1.421875 31.78125 -1.421875 
Q 19.734375 -1.421875 13.25 4.234375 
Q 6.78125 9.90625 6.78125 20.515625 
Q 6.78125 27.484375 10.78125 32.3125 
Q 14.796875 37.15625 21.921875 38.8125 
z
M 18.3125 54.390625 
Q 18.3125 48.734375 21.84375 45.5625 
Q 25.390625 42.390625 31.78125 42.390625 
Q 38.140625 42.390625 41.71875 45.5625 
Q 45.3125 48.734375 45.3125 54.390625 
Q 45.3125 60.0625 41.71875 63.234375 
Q 38.140625 66.40625 31.78125 66.40625 
Q 25.390625 66.40625 21.84375 63.234375 
Q 18.3125 60.0625 18.3125 54.390625 
z
" id="DejaVuSans-56"/>
     </defs>
     <g transform="translate(794.316937 255.150937)scale(0.1 -0.1)">
      <use xlink:href="#DejaVuSans-104"/>
      <use x="63.378906" xlink:href="#DejaVuSans-116"/>
      <use x="102.587891" xlink:href="#DejaVuSans-109"/>
      <use x="200" xlink:href="#DejaVuSans-95"/>
      <use x="250" xlink:href="#DejaVuSans-56"/>
      <use x="313.623047" xlink:href="#DejaVuSans-95"/>
      <use x="363.623047" xlink:href="#DejaVuSans-49"/>
      <use x="427.246094" xlink:href="#DejaVuSans-103"/>
     </g>
    </g>
   </g>
  </g>
 </g>
 <defs>
  <clipPath id="p920fbd7ef1">
   <rect height="377.96" width="690.505" x="33.775" y="26.16"/>
  </clipPath>
 </defs>
</svg>
