<?xml version="1.0" encoding="utf-8" standalone="no"?>
<!DOCTYPE svg PUBLIC "-//W3C//DTD SVG 1.1//EN"
  "http://www.w3.org/Graphics/SVG/1.1/DTD/svg11.dtd">
<!-- Created with matplotlib (https://matplotlib.org/) -->
<svg height="432pt" version="1.1" viewBox="0 0 864 432" width="864pt" xmlns="http://www.w3.org/2000/svg" xmlns:xlink="http://www.w3.org/1999/xlink">
 <defs>
  <style type="text/css">
*{stroke-linecap:butt;stroke-linejoin:round;}
  </style>
 </defs>
 <g id="figure_1">
  <g id="patch_1">
   <path d="M 0 432 
L 864 432 
L 864 0 
L 0 0 
z
" style="fill:#ffffff;"/>
  </g>
  <g id="axes_1">
   <g id="patch_2">
    <path d="M 42.145 404.12 
L 724.28 404.12 
L 724.28 26.52 
L 42.145 26.52 
z
" style="fill:#ffffff;"/>
   </g>
   <g id="matplotlib.axis_1">
    <g id="xtick_1">
     <g id="line2d_1">
      <defs>
       <path d="M 0 0 
L 0 3.5 
" id="m0b02463a0b" style="stroke:#000000;stroke-width:0.8;"/>
      </defs>
      <g>
       <use style="stroke:#000000;stroke-width:0.8;" x="42.145" xlink:href="#m0b02463a0b" y="404.12"/>
      </g>
     </g>
     <g id="text_1">
      <!-- 0 -->
      <defs>
       <path d="M 31.78125 66.40625 
Q 24.171875 66.40625 20.328125 58.90625 
Q 16.5 51.421875 16.5 36.375 
Q 16.5 21.390625 20.328125 13.890625 
Q 24.171875 6.390625 31.78125 6.390625 
Q 39.453125 6.390625 43.28125 13.890625 
Q 47.125 21.390625 47.125 36.375 
Q 47.125 51.421875 43.28125 58.90625 
Q 39.453125 66.40625 31.78125 66.40625 
z
M 31.78125 74.21875 
Q 44.046875 74.21875 50.515625 64.515625 
Q 56.984375 54.828125 56.984375 36.375 
Q 56.984375 17.96875 50.515625 8.265625 
Q 44.046875 -1.421875 31.78125 -1.421875 
Q 19.53125 -1.421875 13.0625 8.265625 
Q 6.59375 17.96875 6.59375 36.375 
Q 6.59375 54.828125 13.0625 64.515625 
Q 19.53125 74.21875 31.78125 74.21875 
z
" id="DejaVuSans-48"/>
      </defs>
      <g transform="translate(38.96375 418.718437)scale(0.1 -0.1)">
       <use xlink:href="#DejaVuSans-48"/>
      </g>
     </g>
    </g>
    <g id="xtick_2">
     <g id="line2d_2">
      <g>
       <use style="stroke:#000000;stroke-width:0.8;" x="127.518592" xlink:href="#m0b02463a0b" y="404.12"/>
      </g>
     </g>
     <g id="text_2">
      <!-- 100 -->
      <defs>
       <path d="M 12.40625 8.296875 
L 28.515625 8.296875 
L 28.515625 63.921875 
L 10.984375 60.40625 
L 10.984375 69.390625 
L 28.421875 72.90625 
L 38.28125 72.90625 
L 38.28125 8.296875 
L 54.390625 8.296875 
L 54.390625 0 
L 12.40625 0 
z
" id="DejaVuSans-49"/>
      </defs>
      <g transform="translate(117.974842 418.718437)scale(0.1 -0.1)">
       <use xlink:href="#DejaVuSans-49"/>
       <use x="63.623047" xlink:href="#DejaVuSans-48"/>
       <use x="127.246094" xlink:href="#DejaVuSans-48"/>
      </g>
     </g>
    </g>
    <g id="xtick_3">
     <g id="line2d_3">
      <g>
       <use style="stroke:#000000;stroke-width:0.8;" x="212.892184" xlink:href="#m0b02463a0b" y="404.12"/>
      </g>
     </g>
     <g id="text_3">
      <!-- 200 -->
      <defs>
       <path d="M 19.1875 8.296875 
L 53.609375 8.296875 
L 53.609375 0 
L 7.328125 0 
L 7.328125 8.296875 
Q 12.9375 14.109375 22.625 23.890625 
Q 32.328125 33.6875 34.8125 36.53125 
Q 39.546875 41.84375 41.421875 45.53125 
Q 43.3125 49.21875 43.3125 52.78125 
Q 43.3125 58.59375 39.234375 62.25 
Q 35.15625 65.921875 28.609375 65.921875 
Q 23.96875 65.921875 18.8125 64.3125 
Q 13.671875 62.703125 7.8125 59.421875 
L 7.8125 69.390625 
Q 13.765625 71.78125 18.9375 73 
Q 24.125 74.21875 28.421875 74.21875 
Q 39.75 74.21875 46.484375 68.546875 
Q 53.21875 62.890625 53.21875 53.421875 
Q 53.21875 48.921875 51.53125 44.890625 
Q 49.859375 40.875 45.40625 35.40625 
Q 44.1875 33.984375 37.640625 27.21875 
Q 31.109375 20.453125 19.1875 8.296875 
z
" id="DejaVuSans-50"/>
      </defs>
      <g transform="translate(203.348434 418.718437)scale(0.1 -0.1)">
       <use xlink:href="#DejaVuSans-50"/>
       <use x="63.623047" xlink:href="#DejaVuSans-48"/>
       <use x="127.246094" xlink:href="#DejaVuSans-48"/>
      </g>
     </g>
    </g>
    <g id="xtick_4">
     <g id="line2d_4">
      <g>
       <use style="stroke:#000000;stroke-width:0.8;" x="298.265776" xlink:href="#m0b02463a0b" y="404.12"/>
      </g>
     </g>
     <g id="text_4">
      <!-- 300 -->
      <defs>
       <path d="M 40.578125 39.3125 
Q 47.65625 37.796875 51.625 33 
Q 55.609375 28.21875 55.609375 21.1875 
Q 55.609375 10.40625 48.1875 4.484375 
Q 40.765625 -1.421875 27.09375 -1.421875 
Q 22.515625 -1.421875 17.65625 -0.515625 
Q 12.796875 0.390625 7.625 2.203125 
L 7.625 11.71875 
Q 11.71875 9.328125 16.59375 8.109375 
Q 21.484375 6.890625 26.8125 6.890625 
Q 36.078125 6.890625 40.9375 10.546875 
Q 45.796875 14.203125 45.796875 21.1875 
Q 45.796875 27.640625 41.28125 31.265625 
Q 36.765625 34.90625 28.71875 34.90625 
L 20.21875 34.90625 
L 20.21875 43.015625 
L 29.109375 43.015625 
Q 36.375 43.015625 40.234375 45.921875 
Q 44.09375 48.828125 44.09375 54.296875 
Q 44.09375 59.90625 40.109375 62.90625 
Q 36.140625 65.921875 28.71875 65.921875 
Q 24.65625 65.921875 20.015625 65.03125 
Q 15.375 64.15625 9.8125 62.3125 
L 9.8125 71.09375 
Q 15.4375 72.65625 20.34375 73.4375 
Q 25.25 74.21875 29.59375 74.21875 
Q 40.828125 74.21875 47.359375 69.109375 
Q 53.90625 64.015625 53.90625 55.328125 
Q 53.90625 49.265625 50.4375 45.09375 
Q 46.96875 40.921875 40.578125 39.3125 
z
" id="DejaVuSans-51"/>
      </defs>
      <g transform="translate(288.722026 418.718437)scale(0.1 -0.1)">
       <use xlink:href="#DejaVuSans-51"/>
       <use x="63.623047" xlink:href="#DejaVuSans-48"/>
       <use x="127.246094" xlink:href="#DejaVuSans-48"/>
      </g>
     </g>
    </g>
    <g id="xtick_5">
     <g id="line2d_5">
      <g>
       <use style="stroke:#000000;stroke-width:0.8;" x="383.639368" xlink:href="#m0b02463a0b" y="404.12"/>
      </g>
     </g>
     <g id="text_5">
      <!-- 400 -->
      <defs>
       <path d="M 37.796875 64.3125 
L 12.890625 25.390625 
L 37.796875 25.390625 
z
M 35.203125 72.90625 
L 47.609375 72.90625 
L 47.609375 25.390625 
L 58.015625 25.390625 
L 58.015625 17.1875 
L 47.609375 17.1875 
L 47.609375 0 
L 37.796875 0 
L 37.796875 17.1875 
L 4.890625 17.1875 
L 4.890625 26.703125 
z
" id="DejaVuSans-52"/>
      </defs>
      <g transform="translate(374.095618 418.718437)scale(0.1 -0.1)">
       <use xlink:href="#DejaVuSans-52"/>
       <use x="63.623047" xlink:href="#DejaVuSans-48"/>
       <use x="127.246094" xlink:href="#DejaVuSans-48"/>
      </g>
     </g>
    </g>
    <g id="xtick_6">
     <g id="line2d_6">
      <g>
       <use style="stroke:#000000;stroke-width:0.8;" x="469.01296" xlink:href="#m0b02463a0b" y="404.12"/>
      </g>
     </g>
     <g id="text_6">
      <!-- 500 -->
      <defs>
       <path d="M 10.796875 72.90625 
L 49.515625 72.90625 
L 49.515625 64.59375 
L 19.828125 64.59375 
L 19.828125 46.734375 
Q 21.96875 47.46875 24.109375 47.828125 
Q 26.265625 48.1875 28.421875 48.1875 
Q 40.625 48.1875 47.75 41.5 
Q 54.890625 34.8125 54.890625 23.390625 
Q 54.890625 11.625 47.5625 5.09375 
Q 40.234375 -1.421875 26.90625 -1.421875 
Q 22.3125 -1.421875 17.546875 -0.640625 
Q 12.796875 0.140625 7.71875 1.703125 
L 7.71875 11.625 
Q 12.109375 9.234375 16.796875 8.0625 
Q 21.484375 6.890625 26.703125 6.890625 
Q 35.15625 6.890625 40.078125 11.328125 
Q 45.015625 15.765625 45.015625 23.390625 
Q 45.015625 31 40.078125 35.4375 
Q 35.15625 39.890625 26.703125 39.890625 
Q 22.75 39.890625 18.8125 39.015625 
Q 14.890625 38.140625 10.796875 36.28125 
z
" id="DejaVuSans-53"/>
      </defs>
      <g transform="translate(459.46921 418.718437)scale(0.1 -0.1)">
       <use xlink:href="#DejaVuSans-53"/>
       <use x="63.623047" xlink:href="#DejaVuSans-48"/>
       <use x="127.246094" xlink:href="#DejaVuSans-48"/>
      </g>
     </g>
    </g>
    <g id="xtick_7">
     <g id="line2d_7">
      <g>
       <use style="stroke:#000000;stroke-width:0.8;" x="554.386552" xlink:href="#m0b02463a0b" y="404.12"/>
      </g>
     </g>
     <g id="text_7">
      <!-- 600 -->
      <defs>
       <path d="M 33.015625 40.375 
Q 26.375 40.375 22.484375 35.828125 
Q 18.609375 31.296875 18.609375 23.390625 
Q 18.609375 15.53125 22.484375 10.953125 
Q 26.375 6.390625 33.015625 6.390625 
Q 39.65625 6.390625 43.53125 10.953125 
Q 47.40625 15.53125 47.40625 23.390625 
Q 47.40625 31.296875 43.53125 35.828125 
Q 39.65625 40.375 33.015625 40.375 
z
M 52.59375 71.296875 
L 52.59375 62.3125 
Q 48.875 64.0625 45.09375 64.984375 
Q 41.3125 65.921875 37.59375 65.921875 
Q 27.828125 65.921875 22.671875 59.328125 
Q 17.53125 52.734375 16.796875 39.40625 
Q 19.671875 43.65625 24.015625 45.921875 
Q 28.375 48.1875 33.59375 48.1875 
Q 44.578125 48.1875 50.953125 41.515625 
Q 57.328125 34.859375 57.328125 23.390625 
Q 57.328125 12.15625 50.6875 5.359375 
Q 44.046875 -1.421875 33.015625 -1.421875 
Q 20.359375 -1.421875 13.671875 8.265625 
Q 6.984375 17.96875 6.984375 36.375 
Q 6.984375 53.65625 15.1875 63.9375 
Q 23.390625 74.21875 37.203125 74.21875 
Q 40.921875 74.21875 44.703125 73.484375 
Q 48.484375 72.75 52.59375 71.296875 
z
" id="DejaVuSans-54"/>
      </defs>
      <g transform="translate(544.842802 418.718437)scale(0.1 -0.1)">
       <use xlink:href="#DejaVuSans-54"/>
       <use x="63.623047" xlink:href="#DejaVuSans-48"/>
       <use x="127.246094" xlink:href="#DejaVuSans-48"/>
      </g>
     </g>
    </g>
    <g id="xtick_8">
     <g id="line2d_8">
      <g>
       <use style="stroke:#000000;stroke-width:0.8;" x="639.760144" xlink:href="#m0b02463a0b" y="404.12"/>
      </g>
     </g>
     <g id="text_8">
      <!-- 700 -->
      <defs>
       <path d="M 8.203125 72.90625 
L 55.078125 72.90625 
L 55.078125 68.703125 
L 28.609375 0 
L 18.3125 0 
L 43.21875 64.59375 
L 8.203125 64.59375 
z
" id="DejaVuSans-55"/>
      </defs>
      <g transform="translate(630.216394 418.718437)scale(0.1 -0.1)">
       <use xlink:href="#DejaVuSans-55"/>
       <use x="63.623047" xlink:href="#DejaVuSans-48"/>
       <use x="127.246094" xlink:href="#DejaVuSans-48"/>
      </g>
     </g>
    </g>
   </g>
   <g id="matplotlib.axis_2">
    <g id="ytick_1">
     <g id="line2d_9">
      <defs>
       <path d="M 0 0 
L -3.5 0 
" id="mc6bc762f55" style="stroke:#000000;stroke-width:0.8;"/>
      </defs>
      <g>
       <use style="stroke:#000000;stroke-width:0.8;" x="42.145" xlink:href="#mc6bc762f55" y="365.31901"/>
      </g>
     </g>
     <g id="text_9">
      <!-- −0.6 -->
      <defs>
       <path d="M 10.59375 35.5 
L 73.1875 35.5 
L 73.1875 27.203125 
L 10.59375 27.203125 
z
" id="DejaVuSans-8722"/>
       <path d="M 10.6875 12.40625 
L 21 12.40625 
L 21 0 
L 10.6875 0 
z
" id="DejaVuSans-46"/>
      </defs>
      <g transform="translate(10.862188 369.118229)scale(0.1 -0.1)">
       <use xlink:href="#DejaVuSans-8722"/>
       <use x="83.789062" xlink:href="#DejaVuSans-48"/>
       <use x="147.412109" xlink:href="#DejaVuSans-46"/>
       <use x="179.199219" xlink:href="#DejaVuSans-54"/>
      </g>
     </g>
    </g>
    <g id="ytick_2">
     <g id="line2d_10">
      <g>
       <use style="stroke:#000000;stroke-width:0.8;" x="42.145" xlink:href="#mc6bc762f55" y="309.262629"/>
      </g>
     </g>
     <g id="text_10">
      <!-- −0.4 -->
      <g transform="translate(10.862188 313.061848)scale(0.1 -0.1)">
       <use xlink:href="#DejaVuSans-8722"/>
       <use x="83.789062" xlink:href="#DejaVuSans-48"/>
       <use x="147.412109" xlink:href="#DejaVuSans-46"/>
       <use x="179.199219" xlink:href="#DejaVuSans-52"/>
      </g>
     </g>
    </g>
    <g id="ytick_3">
     <g id="line2d_11">
      <g>
       <use style="stroke:#000000;stroke-width:0.8;" x="42.145" xlink:href="#mc6bc762f55" y="253.206248"/>
      </g>
     </g>
     <g id="text_11">
      <!-- −0.2 -->
      <g transform="translate(10.862188 257.005467)scale(0.1 -0.1)">
       <use xlink:href="#DejaVuSans-8722"/>
       <use x="83.789062" xlink:href="#DejaVuSans-48"/>
       <use x="147.412109" xlink:href="#DejaVuSans-46"/>
       <use x="179.199219" xlink:href="#DejaVuSans-50"/>
      </g>
     </g>
    </g>
    <g id="ytick_4">
     <g id="line2d_12">
      <g>
       <use style="stroke:#000000;stroke-width:0.8;" x="42.145" xlink:href="#mc6bc762f55" y="197.149867"/>
      </g>
     </g>
     <g id="text_12">
      <!-- 0.0 -->
      <g transform="translate(19.241875 200.949086)scale(0.1 -0.1)">
       <use xlink:href="#DejaVuSans-48"/>
       <use x="63.623047" xlink:href="#DejaVuSans-46"/>
       <use x="95.410156" xlink:href="#DejaVuSans-48"/>
      </g>
     </g>
    </g>
    <g id="ytick_5">
     <g id="line2d_13">
      <g>
       <use style="stroke:#000000;stroke-width:0.8;" x="42.145" xlink:href="#mc6bc762f55" y="141.093486"/>
      </g>
     </g>
     <g id="text_13">
      <!-- 0.2 -->
      <g transform="translate(19.241875 144.892705)scale(0.1 -0.1)">
       <use xlink:href="#DejaVuSans-48"/>
       <use x="63.623047" xlink:href="#DejaVuSans-46"/>
       <use x="95.410156" xlink:href="#DejaVuSans-50"/>
      </g>
     </g>
    </g>
    <g id="ytick_6">
     <g id="line2d_14">
      <g>
       <use style="stroke:#000000;stroke-width:0.8;" x="42.145" xlink:href="#mc6bc762f55" y="85.037105"/>
      </g>
     </g>
     <g id="text_14">
      <!-- 0.4 -->
      <g transform="translate(19.241875 88.836324)scale(0.1 -0.1)">
       <use xlink:href="#DejaVuSans-48"/>
       <use x="63.623047" xlink:href="#DejaVuSans-46"/>
       <use x="95.410156" xlink:href="#DejaVuSans-52"/>
      </g>
     </g>
    </g>
    <g id="ytick_7">
     <g id="line2d_15">
      <g>
       <use style="stroke:#000000;stroke-width:0.8;" x="42.145" xlink:href="#mc6bc762f55" y="28.980724"/>
      </g>
     </g>
     <g id="text_15">
      <!-- 0.6 -->
      <g transform="translate(19.241875 32.779943)scale(0.1 -0.1)">
       <use xlink:href="#DejaVuSans-48"/>
       <use x="63.623047" xlink:href="#DejaVuSans-46"/>
       <use x="95.410156" xlink:href="#DejaVuSans-54"/>
      </g>
     </g>
    </g>
   </g>
   <g id="line2d_16">
    <path clip-path="url(#p22f6113f7e)" d="M 75.440701 197.149867 
L 724.28 197.149867 
L 724.28 197.149867 
" style="fill:none;stroke:#1f77b4;stroke-linecap:square;stroke-width:1.5;"/>
   </g>
   <g id="line2d_17">
    <path clip-path="url(#p22f6113f7e)" d="M 75.440701 197.149867 
L 87.393004 197.149867 
L 88.24674 196.952473 
L 89.100476 214.246564 
L 90.807947 197.391514 
L 91.661683 193.470259 
L 92.515419 199.407316 
L 93.369155 194.5504 
L 95.076627 194.5504 
L 95.930363 189.693485 
L 96.784099 189.693485 
L 97.637835 190.915187 
L 98.491571 195.772103 
L 99.345307 192.656168 
L 100.199043 188.734914 
L 101.052778 188.734914 
L 101.906514 193.045549 
L 102.76025 193.045549 
L 103.613986 202.307155 
L 104.467722 210.005183 
L 105.321458 210.743449 
L 106.175194 201.252083 
L 107.02893 189.097651 
L 107.882666 181.741498 
L 108.736402 181.741498 
L 109.590138 193.408286 
L 110.443874 196.2494 
L 111.29761 196.2494 
L 112.151345 186.535569 
L 113.005081 186.765329 
L 113.858817 193.185822 
L 114.712553 205.609789 
L 116.420025 205.609789 
L 117.273761 194.332381 
L 118.127497 194.332381 
L 118.981233 207.625591 
L 119.834969 211.546845 
L 120.688705 226.33321 
L 121.542441 222.241459 
L 122.396176 222.438854 
L 123.249912 205.144763 
L 124.103648 223.760785 
L 124.957384 232.538955 
L 125.81112 236.460209 
L 126.664856 213.720986 
L 127.518592 229.820187 
L 128.372328 229.820187 
L 129.226064 224.963271 
L 130.0798 234.130822 
L 130.933536 238.778556 
L 131.787272 240.111925 
L 132.641008 221.293957 
L 133.494743 227.415884 
L 134.348479 231.337139 
L 135.202215 216.480351 
L 136.055951 212.169716 
L 136.909687 197.958385 
L 137.763423 170.204778 
L 138.617159 162.50675 
L 139.470895 167.70554 
L 140.324631 180.038019 
L 141.178367 182.478621 
L 142.032103 169.679804 
L 142.885839 169.261349 
L 143.739574 159.291247 
L 144.59331 152.301603 
L 145.447046 166.649885 
L 146.300782 177.641251 
L 147.154518 177.411491 
L 148.008254 173.729817 
L 148.86199 154.346088 
L 149.715726 149.562545 
L 150.569462 158.757098 
L 151.423198 170.034506 
L 153.13067 135.349231 
L 153.984406 131.427977 
L 154.838141 107.863443 
L 155.691877 106.868518 
L 156.545613 108.786318 
L 157.399349 111.34139 
L 158.253085 100.96909 
L 159.106821 98.022606 
L 159.960557 103.190997 
L 160.814293 148.564662 
L 161.668029 137.322377 
L 163.375501 146.516929 
L 164.229237 138.352094 
L 165.082972 142.965965 
L 165.936708 145.676102 
L 166.790444 142.996077 
L 167.64418 130.118786 
L 168.497916 125.261871 
L 169.351652 140.118658 
L 170.205388 126.895871 
L 171.059124 141.107203 
L 171.91286 159.599203 
L 172.766596 145.964118 
L 173.620332 140.027061 
L 174.474068 120.70975 
L 175.327804 147.405424 
L 176.181539 178.551761 
L 177.035275 180.247752 
L 177.889011 191.894148 
L 178.742747 206.773806 
L 179.596483 206.06061 
L 180.450219 204.783074 
L 181.303955 210.249682 
L 182.157691 196.233455 
L 183.011427 220.605077 
L 183.865163 228.229733 
L 184.718899 223.637266 
L 185.572635 222.843166 
L 186.42637 243.657002 
L 187.280106 247.076344 
L 188.133842 237.972206 
L 188.987578 246.750376 
L 189.841314 251.837051 
L 190.69505 245.062336 
L 191.548786 236.372813 
L 192.402522 236.205971 
L 193.256258 239.152455 
L 194.109994 228.047008 
L 194.96373 214.38813 
L 195.817466 214.38813 
L 196.671202 212.066294 
L 197.524937 204.368266 
L 198.378673 229.55558 
L 199.232409 215.437059 
L 200.086145 210.171851 
L 200.939881 235.249223 
L 201.793617 238.247805 
L 202.647353 252.888273 
L 203.501089 252.888273 
L 204.354825 279.360339 
L 205.208561 276.519225 
L 206.062297 276.519225 
L 206.916033 299.508726 
L 207.769768 289.370096 
L 208.623504 305.846295 
L 209.47724 288.864451 
L 210.330976 289.380252 
L 211.184712 288.102716 
L 212.038448 264.872781 
L 212.892184 238.349205 
L 213.74592 198.865966 
L 214.599656 185.335206 
L 215.453392 158.139093 
L 216.307128 168.138965 
L 217.160864 155.925896 
L 218.014599 162.576149 
L 218.868335 150.276035 
L 219.722071 146.213219 
L 220.575807 135.674077 
L 221.429543 123.04871 
L 222.283279 141.320398 
L 223.137015 138.479284 
L 223.990751 138.479284 
L 224.844487 125.77986 
L 225.698223 131.914311 
L 226.551959 136.771227 
L 227.405695 133.191847 
L 228.259431 134.271988 
L 229.113166 121.221162 
L 229.966902 130.636776 
L 230.820638 128.620974 
L 231.674374 142.739495 
L 232.52811 120.128845 
L 233.381846 124.985761 
L 234.235582 124.985761 
L 235.089318 116.549466 
L 235.943054 126.263297 
L 236.79679 116.479744 
L 237.650526 116.479744 
L 238.504262 120.758146 
L 239.357997 128.456174 
L 240.211733 128.456174 
L 241.065469 119.101758 
L 241.919205 132.081502 
L 242.772941 132.081502 
L 243.626677 139.437655 
L 244.480413 127.930488 
L 245.334149 127.930488 
L 246.187885 139.697079 
L 247.041621 160.346443 
L 247.895357 158.782865 
L 249.602829 204.317824 
L 250.456564 213.293388 
L 251.3103 214.51509 
L 252.164036 205.023725 
L 254.725244 228.11781 
L 255.57898 232.666297 
L 256.432716 223.498747 
L 257.286452 226.33986 
L 258.140188 226.33986 
L 258.993924 247.475579 
L 259.84766 247.475579 
L 260.701395 242.618664 
L 261.555131 257.475451 
L 262.408867 242.008971 
L 263.262603 240.147176 
L 264.116339 230.731563 
L 265.823811 217.890577 
L 266.677547 219.168113 
L 267.531283 219.168113 
L 268.385019 191.756382 
L 269.238755 190.820721 
L 270.092491 192.836523 
L 271.799962 192.836523 
L 272.653698 175.308842 
L 273.507434 163.237334 
L 274.36117 168.09425 
L 275.214906 168.09425 
L 276.068642 161.959799 
L 276.922378 161.959799 
L 277.776114 154.603645 
L 279.483586 154.603645 
L 280.337322 156.971129 
L 281.191058 152.114214 
L 282.044793 197.12979 
L 282.898529 192.647673 
L 283.752265 192.647673 
L 284.606001 184.949644 
L 285.459737 178.529151 
L 286.313473 178.529151 
L 287.167209 185.401869 
L 288.020945 195.307685 
L 288.874681 206.585093 
L 289.728417 214.661973 
L 290.582153 220.59903 
L 292.289625 220.59903 
L 293.14336 217.757917 
L 294.850832 217.757917 
L 295.704568 227.185705 
L 296.558304 262.079847 
L 297.41204 262.079847 
L 298.265776 262.905158 
L 299.119512 247.596146 
L 301.68072 247.596146 
L 302.534456 275.007878 
L 303.388191 275.943539 
L 304.241927 269.325651 
L 305.095663 269.325651 
L 305.949399 287.142655 
L 306.803135 294.840684 
L 307.656871 297.198361 
L 308.510607 301.445583 
L 309.364343 288.820216 
L 310.218079 302.907525 
L 311.071815 302.907525 
L 311.925551 318.039134 
L 312.779287 316.958993 
L 313.633023 316.958993 
L 314.486758 312.711771 
L 316.19423 286.434081 
L 317.047966 254.793351 
L 317.901702 258.37273 
L 318.755438 266.449611 
L 319.609174 280.797892 
L 320.46291 280.797892 
L 321.316646 280.345667 
L 322.170382 250.325636 
L 323.024118 209.620695 
L 323.877854 183.772541 
L 324.731589 188.001539 
L 325.585325 191.580919 
L 326.439061 211.00858 
L 327.292797 213.111427 
L 328.146533 223.386121 
L 329.000269 223.386121 
L 329.854005 202.680924 
L 330.707741 190.12598 
L 331.561477 192.625218 
L 332.415213 191.799907 
L 333.268949 213.529412 
L 334.122685 218.386327 
L 334.976421 218.386327 
L 335.830156 232.2404 
L 336.683892 235.081514 
L 337.537628 235.081514 
L 338.391364 257.715956 
L 339.2451 267.429787 
L 340.098836 249.612783 
L 340.952572 244.755868 
L 341.806308 220.18525 
L 342.660044 211.081112 
L 343.51378 228.563394 
L 344.367516 217.769423 
L 345.221252 237.757947 
L 346.074987 222.626338 
L 346.928723 229.84093 
L 347.782459 229.84093 
L 348.636195 239.554761 
L 349.489931 257.332743 
L 350.343667 265.651269 
L 351.197403 291.499423 
L 352.051139 300.474988 
L 352.904875 292.398108 
L 353.758611 278.049826 
L 354.612347 278.049826 
L 355.466083 271.629334 
L 356.319819 288.902435 
L 358.02729 344.178122 
L 358.881026 334.012067 
L 359.734762 332.326625 
L 360.588498 312.898964 
L 361.442234 316.478343 
L 362.29597 311.060565 
L 363.149706 319.49686 
L 364.003442 330.036002 
L 364.857178 335.339377 
L 365.710914 332.840138 
L 366.56465 350.946332 
L 367.418385 350.946332 
L 368.272121 349.668796 
L 369.125857 358.446966 
L 369.979593 348.172273 
L 370.833329 359.901905 
L 372.540801 317.29893 
L 373.394537 327.640677 
L 374.248273 341.275762 
L 375.102009 338.434649 
L 375.955745 367.862182 
L 376.809481 367.862182 
L 377.663217 364.568845 
L 378.516952 364.568845 
L 379.370688 348.1597 
L 380.224424 348.1597 
L 381.07816 342.025249 
L 381.931896 349.723277 
L 382.785632 348.787616 
L 383.639368 350.960887 
L 384.493104 317.462049 
L 385.34684 323.346222 
L 386.200576 302.013108 
L 387.054312 311.726939 
L 387.908048 313.742741 
L 388.761783 307.805685 
L 389.615519 310.374645 
L 390.469255 315.792424 
L 391.322991 293.237607 
L 392.176727 276.65106 
L 393.030463 276.65106 
L 393.884199 277.827996 
L 394.737935 274.732052 
L 395.591671 290.205536 
L 396.445407 303.585792 
L 397.299143 308.398775 
L 398.152879 297.859634 
L 399.006615 305.47687 
L 399.86035 305.47687 
L 400.714086 287.370677 
L 401.567822 287.370677 
L 402.421558 293.282663 
L 403.275294 277.416158 
L 404.12903 283.975408 
L 404.982766 267.38886 
L 405.836502 293.237014 
L 406.690238 293.237014 
L 407.543974 278.706195 
L 408.39771 278.706195 
L 409.251446 276.690393 
L 410.105181 275.126815 
L 410.958917 269.037426 
L 411.812653 286.3447 
L 412.666389 276.808273 
L 414.373861 313.288379 
L 415.227597 323.002209 
L 416.081333 315.304181 
L 416.935069 289.653421 
L 417.788805 283.232928 
L 418.642541 318.468945 
L 419.496277 312.584772 
L 420.350013 330.141112 
L 421.203748 322.784958 
L 422.057484 320.769156 
L 422.91122 326.706213 
L 423.764956 324.137252 
L 424.618692 325.026947 
L 425.472428 348.101041 
L 426.326164 382.099448 
L 427.1799 386.956364 
L 428.033636 371.330547 
L 428.887372 374.42649 
L 429.741108 354.548315 
L 431.448579 326.641245 
L 432.302315 326.641245 
L 433.156051 321.760537 
L 434.009787 328.633254 
L 434.863523 328.633254 
L 435.717259 352.581428 
L 436.570995 322.098823 
L 437.424731 317.363471 
L 438.278467 324.439305 
L 439.132203 326.455107 
L 439.985939 322.336458 
L 440.839675 301.345219 
L 441.693411 269.972307 
L 442.547146 256.337222 
L 443.400882 263.209939 
L 444.254618 281.733151 
L 445.108354 287.822541 
L 445.96209 284.347746 
L 446.815826 297.915777 
L 447.669562 287.73605 
L 449.377034 246.237009 
L 450.23077 251.472776 
L 451.084506 275.504124 
L 451.938242 286.298096 
L 452.791977 279.644367 
L 453.645713 278.564226 
L 454.499449 273.904705 
L 455.353185 271.547028 
L 457.060657 286.117774 
L 457.914393 286.117774 
L 458.768129 265.907398 
L 459.621865 263.030443 
L 460.475601 245.618583 
L 461.329337 242.039204 
L 462.183073 271.070346 
L 463.036809 270.33208 
L 463.890544 274.736771 
L 464.74428 271.157391 
L 465.598016 271.982703 
L 466.451752 271.982703 
L 467.305488 261.926997 
L 468.159224 261.926997 
L 469.01296 254.349783 
L 469.866696 209.587774 
L 470.720432 230.579012 
L 471.574168 235.759743 
L 472.427904 218.545279 
L 473.28164 230.993243 
L 474.135375 213.581383 
L 474.989111 245.85003 
L 475.842847 259.881506 
L 476.696583 255.211457 
L 477.550319 248.449089 
L 478.404055 229.131777 
L 479.257791 242.766862 
L 480.111527 242.065573 
L 480.965263 246.812139 
L 481.818999 235.082506 
L 482.672735 231.305732 
L 483.526471 242.665095 
L 484.380207 240.399014 
L 485.233942 227.558029 
L 486.087678 187.901767 
L 486.941414 179.642876 
L 487.79515 193.187546 
L 488.648886 193.187546 
L 489.502622 184.578229 
L 490.356358 201.195989 
L 491.210094 178.101903 
L 492.06383 181.552709 
L 492.917566 213.911771 
L 493.771302 207.961726 
L 494.625038 215.659755 
L 495.478773 214.382219 
L 496.332509 197.90602 
L 497.186245 196.764548 
L 498.039981 178.527377 
L 498.893717 197.424522 
L 499.747453 179.356204 
L 501.454925 179.356204 
L 502.308661 177.792627 
L 503.162397 202.172008 
L 504.016133 222.985843 
L 504.869869 238.446482 
L 505.723605 247.447117 
L 506.57734 246.479091 
L 507.431076 217.838653 
L 508.284812 250.449175 
L 509.138548 239.171767 
L 509.992284 231.135984 
L 510.84602 249.02882 
L 511.699756 241.111804 
L 512.553492 237.911276 
L 513.407228 227.326485 
L 514.260964 211.963874 
L 515.1147 204.95986 
L 515.968436 201.183086 
L 516.822171 213.73803 
L 517.675907 216.949413 
L 518.529643 233.319248 
L 519.383379 239.001474 
L 520.237115 267.863764 
L 521.090851 249.626593 
L 521.944587 209.34204 
L 522.798323 210.080306 
L 523.652059 208.859971 
L 524.505795 191.789987 
L 525.359531 201.248987 
L 526.213267 197.798181 
L 527.067003 191.1587 
L 527.920738 192.938949 
L 528.774474 180.993698 
L 529.62821 195.018164 
L 530.481946 204.731994 
L 531.335682 221.689233 
L 532.189418 243.703178 
L 533.043154 231.226526 
L 533.89689 241.94206 
L 535.604362 241.94206 
L 536.458098 231.776004 
L 537.311834 214.973838 
L 538.165569 218.395749 
L 539.019305 200.577433 
L 539.873041 193.362841 
L 540.726777 194.330867 
L 541.580513 192.82544 
L 542.434249 177.626777 
L 543.287985 166.878454 
L 544.141721 180.431584 
L 544.995457 155.091937 
L 545.849193 176.398934 
L 546.702929 193.234547 
L 547.556665 192.938321 
L 548.410401 204.400135 
L 549.264136 202.225468 
L 550.117872 202.708904 
L 550.971608 195.010876 
L 551.825344 190.714823 
L 552.67908 166.518387 
L 553.532816 166.518387 
L 554.386552 160.844914 
L 555.240288 164.225297 
L 556.094024 178.268675 
L 556.94776 173.41176 
L 557.801496 194.51882 
L 558.655232 180.400298 
L 559.508967 194.596247 
L 560.362703 196.159824 
L 561.216439 189.809754 
L 562.070175 170.489073 
L 562.923911 168.799239 
L 563.777647 163.878911 
L 564.631383 157.74446 
L 566.338855 127.612778 
L 567.192591 116.335369 
L 568.900063 148.985818 
L 569.753798 163.556563 
L 570.607534 168.413479 
L 571.46127 160.71545 
L 572.315006 162.818297 
L 573.168742 160.319059 
L 574.022478 165.175974 
L 574.876214 140.605356 
L 575.72995 150.605228 
L 576.583686 150.605228 
L 577.437422 171.892693 
L 578.291158 184.612517 
L 579.144894 204.427406 
L 579.99863 200.640907 
L 580.852365 195.300555 
L 581.706101 190.666748 
L 582.559837 184.729692 
L 583.413573 192.218539 
L 584.267309 179.719429 
L 585.121045 173.985489 
L 585.974781 173.424626 
L 586.828517 187.257106 
L 587.682253 192.114021 
L 588.535989 211.42258 
L 590.243461 240.056014 
L 591.097196 240.056014 
L 592.804668 254.799782 
L 593.658404 220.692736 
L 594.51214 219.129159 
L 595.365876 187.814397 
L 597.073348 184.489847 
L 597.927084 175.385709 
L 598.78082 171.80633 
L 599.634556 147.235712 
L 600.488292 143.656332 
L 601.342028 123.942629 
L 603.049499 103.237432 
L 603.903235 62.818532 
L 604.756971 62.818532 
L 605.610707 71.596702 
L 606.464443 58.373915 
L 607.318179 66.397912 
L 608.171915 78.952856 
L 609.025651 96.066498 
L 609.879387 90.471316 
L 610.733123 63.059585 
L 611.586859 60.427653 
L 612.440594 44.293329 
L 613.29433 44.293329 
L 614.148066 43.683636 
L 615.001802 55.158439 
L 615.855538 63.45867 
L 616.709274 58.601755 
L 617.56301 49.155742 
L 618.416746 70.885247 
L 619.270482 79.4603 
L 620.124218 79.4603 
L 620.977954 70.484736 
L 621.83169 79.4603 
L 622.685426 66.563481 
L 624.392897 66.563481 
L 625.246633 70.68213 
L 626.100369 52.358983 
L 626.954105 52.358983 
L 627.807841 73.350221 
L 628.661577 73.350221 
L 629.515313 69.770842 
L 630.369049 76.859177 
L 631.222785 80.977827 
L 632.076521 76.120911 
L 632.930257 90.081964 
L 633.783992 126.271866 
L 634.637728 150.842484 
L 635.491464 183.111131 
L 636.3452 190.325723 
L 637.198936 180.051029 
L 638.052672 206.724495 
L 638.906408 201.867579 
L 639.760144 200.787438 
L 641.467616 217.263636 
L 642.321352 199.851777 
L 644.028824 228.299992 
L 644.882559 260.568639 
L 645.736295 252.661429 
L 646.590031 262.37526 
L 648.297503 247.588895 
L 649.151239 241.906669 
L 650.004975 239.40743 
L 650.858711 253.978176 
L 651.712447 256.335853 
L 652.566183 264.969543 
L 653.419919 271.84226 
L 654.273655 271.84226 
L 655.12739 288.46002 
L 655.981126 278.313899 
L 656.834862 286.011928 
L 657.688598 289.591307 
L 658.542334 291.607109 
L 659.39607 287.48846 
L 660.249806 305.980461 
L 661.103542 305.980461 
L 661.957278 310.837376 
L 662.811014 321.486867 
L 663.66475 350.914401 
L 664.518486 368.396683 
L 665.372222 375.897317 
L 666.225957 385.611148 
L 667.079693 371.650095 
L 667.933429 360.030812 
L 668.787165 343.896488 
L 669.640901 336.19846 
L 670.494637 331.341544 
L 671.348373 342.194153 
L 673.055845 351.34712 
L 673.909581 349.331318 
L 674.763317 356.361504 
L 675.617053 340.227181 
L 676.470788 354.345702 
L 677.324524 346.647673 
L 678.17826 346.647673 
L 679.031996 341.790758 
L 679.885732 341.790758 
L 680.739468 347.315516 
L 681.593204 347.315516 
L 682.44694 354.403852 
L 683.300676 347.531135 
L 684.154412 343.60988 
L 685.008148 316.681585 
L 685.861884 327.475557 
L 686.71562 323.992828 
L 687.569355 317.120111 
L 688.423091 320.361736 
L 689.276827 310.164469 
L 690.130563 306.47811 
L 690.984299 298.041815 
L 691.838035 294.462435 
L 692.691771 292.446633 
L 693.545507 294.010211 
L 694.399243 275.51821 
L 695.252979 285.945237 
L 696.106715 285.945237 
L 696.960451 283.554637 
L 698.667922 315.982621 
L 699.521658 312.061366 
L 700.375394 315.640746 
L 701.22913 315.640746 
L 702.082866 312.347408 
L 703.790338 312.347408 
L 704.644074 311.267267 
L 705.49781 308.438655 
L 706.351546 303.317291 
L 707.205282 303.317291 
L 708.059018 305.333093 
L 708.912753 297.635065 
L 709.766489 303.317291 
L 710.620225 291.698008 
L 711.473961 291.698008 
L 712.327697 294.991346 
L 714.035169 294.991346 
L 714.888905 296.496774 
L 715.742641 310.615295 
L 716.596377 318.923016 
L 717.450113 312.050299 
L 718.303849 312.050299 
L 719.157584 324.407848 
L 720.01132 308.756961 
L 720.865056 316.486913 
L 721.718792 316.486913 
L 722.572528 313.245288 
L 723.426264 306.824795 
L 724.28 318.770046 
L 724.28 318.770046 
" style="fill:none;stroke:#ff7f0e;stroke-linecap:square;stroke-width:1.5;"/>
   </g>
   <g id="patch_3">
    <path d="M 42.145 404.12 
L 42.145 26.52 
" style="fill:none;stroke:#000000;stroke-linecap:square;stroke-linejoin:miter;stroke-width:0.8;"/>
   </g>
   <g id="patch_4">
    <path d="M 724.28 404.12 
L 724.28 26.52 
" style="fill:none;stroke:#000000;stroke-linecap:square;stroke-linejoin:miter;stroke-width:0.8;"/>
   </g>
   <g id="patch_5">
    <path d="M 42.145 404.12 
L 724.28 404.12 
" style="fill:none;stroke:#000000;stroke-linecap:square;stroke-linejoin:miter;stroke-width:0.8;"/>
   </g>
   <g id="patch_6">
    <path d="M 42.145 26.52 
L 724.28 26.52 
" style="fill:none;stroke:#000000;stroke-linecap:square;stroke-linejoin:miter;stroke-width:0.8;"/>
   </g>
   <g id="text_16">
    <!-- gridworld_5x5_50_4_4_1337__2: episode duration in steps log-relative to `htm_2_1g`, MA=40 -->
    <defs>
     <path d="M 45.40625 27.984375 
Q 45.40625 37.75 41.375 43.109375 
Q 37.359375 48.484375 30.078125 48.484375 
Q 22.859375 48.484375 18.828125 43.109375 
Q 14.796875 37.75 14.796875 27.984375 
Q 14.796875 18.265625 18.828125 12.890625 
Q 22.859375 7.515625 30.078125 7.515625 
Q 37.359375 7.515625 41.375 12.890625 
Q 45.40625 18.265625 45.40625 27.984375 
z
M 54.390625 6.78125 
Q 54.390625 -7.171875 48.1875 -13.984375 
Q 42 -20.796875 29.203125 -20.796875 
Q 24.46875 -20.796875 20.265625 -20.09375 
Q 16.0625 -19.390625 12.109375 -17.921875 
L 12.109375 -9.1875 
Q 16.0625 -11.328125 19.921875 -12.34375 
Q 23.78125 -13.375 27.78125 -13.375 
Q 36.625 -13.375 41.015625 -8.765625 
Q 45.40625 -4.15625 45.40625 5.171875 
L 45.40625 9.625 
Q 42.625 4.78125 38.28125 2.390625 
Q 33.9375 0 27.875 0 
Q 17.828125 0 11.671875 7.65625 
Q 5.515625 15.328125 5.515625 27.984375 
Q 5.515625 40.671875 11.671875 48.328125 
Q 17.828125 56 27.875 56 
Q 33.9375 56 38.28125 53.609375 
Q 42.625 51.21875 45.40625 46.390625 
L 45.40625 54.6875 
L 54.390625 54.6875 
z
" id="DejaVuSans-103"/>
     <path d="M 41.109375 46.296875 
Q 39.59375 47.171875 37.8125 47.578125 
Q 36.03125 48 33.890625 48 
Q 26.265625 48 22.1875 43.046875 
Q 18.109375 38.09375 18.109375 28.8125 
L 18.109375 0 
L 9.078125 0 
L 9.078125 54.6875 
L 18.109375 54.6875 
L 18.109375 46.1875 
Q 20.953125 51.171875 25.484375 53.578125 
Q 30.03125 56 36.53125 56 
Q 37.453125 56 38.578125 55.875 
Q 39.703125 55.765625 41.0625 55.515625 
z
" id="DejaVuSans-114"/>
     <path d="M 9.421875 54.6875 
L 18.40625 54.6875 
L 18.40625 0 
L 9.421875 0 
z
M 9.421875 75.984375 
L 18.40625 75.984375 
L 18.40625 64.59375 
L 9.421875 64.59375 
z
" id="DejaVuSans-105"/>
     <path d="M 45.40625 46.390625 
L 45.40625 75.984375 
L 54.390625 75.984375 
L 54.390625 0 
L 45.40625 0 
L 45.40625 8.203125 
Q 42.578125 3.328125 38.25 0.953125 
Q 33.9375 -1.421875 27.875 -1.421875 
Q 17.96875 -1.421875 11.734375 6.484375 
Q 5.515625 14.40625 5.515625 27.296875 
Q 5.515625 40.1875 11.734375 48.09375 
Q 17.96875 56 27.875 56 
Q 33.9375 56 38.25 53.625 
Q 42.578125 51.265625 45.40625 46.390625 
z
M 14.796875 27.296875 
Q 14.796875 17.390625 18.875 11.75 
Q 22.953125 6.109375 30.078125 6.109375 
Q 37.203125 6.109375 41.296875 11.75 
Q 45.40625 17.390625 45.40625 27.296875 
Q 45.40625 37.203125 41.296875 42.84375 
Q 37.203125 48.484375 30.078125 48.484375 
Q 22.953125 48.484375 18.875 42.84375 
Q 14.796875 37.203125 14.796875 27.296875 
z
" id="DejaVuSans-100"/>
     <path d="M 4.203125 54.6875 
L 13.1875 54.6875 
L 24.421875 12.015625 
L 35.59375 54.6875 
L 46.1875 54.6875 
L 57.421875 12.015625 
L 68.609375 54.6875 
L 77.59375 54.6875 
L 63.28125 0 
L 52.6875 0 
L 40.921875 44.828125 
L 29.109375 0 
L 18.5 0 
z
" id="DejaVuSans-119"/>
     <path d="M 30.609375 48.390625 
Q 23.390625 48.390625 19.1875 42.75 
Q 14.984375 37.109375 14.984375 27.296875 
Q 14.984375 17.484375 19.15625 11.84375 
Q 23.34375 6.203125 30.609375 6.203125 
Q 37.796875 6.203125 41.984375 11.859375 
Q 46.1875 17.53125 46.1875 27.296875 
Q 46.1875 37.015625 41.984375 42.703125 
Q 37.796875 48.390625 30.609375 48.390625 
z
M 30.609375 56 
Q 42.328125 56 49.015625 48.375 
Q 55.71875 40.765625 55.71875 27.296875 
Q 55.71875 13.875 49.015625 6.21875 
Q 42.328125 -1.421875 30.609375 -1.421875 
Q 18.84375 -1.421875 12.171875 6.21875 
Q 5.515625 13.875 5.515625 27.296875 
Q 5.515625 40.765625 12.171875 48.375 
Q 18.84375 56 30.609375 56 
z
" id="DejaVuSans-111"/>
     <path d="M 9.421875 75.984375 
L 18.40625 75.984375 
L 18.40625 0 
L 9.421875 0 
z
" id="DejaVuSans-108"/>
     <path d="M 50.984375 -16.609375 
L 50.984375 -23.578125 
L -0.984375 -23.578125 
L -0.984375 -16.609375 
z
" id="DejaVuSans-95"/>
     <path d="M 54.890625 54.6875 
L 35.109375 28.078125 
L 55.90625 0 
L 45.3125 0 
L 29.390625 21.484375 
L 13.484375 0 
L 2.875 0 
L 24.125 28.609375 
L 4.6875 54.6875 
L 15.28125 54.6875 
L 29.78125 35.203125 
L 44.28125 54.6875 
z
" id="DejaVuSans-120"/>
     <path d="M 11.71875 12.40625 
L 22.015625 12.40625 
L 22.015625 0 
L 11.71875 0 
z
M 11.71875 51.703125 
L 22.015625 51.703125 
L 22.015625 39.3125 
L 11.71875 39.3125 
z
" id="DejaVuSans-58"/>
     <path id="DejaVuSans-32"/>
     <path d="M 56.203125 29.59375 
L 56.203125 25.203125 
L 14.890625 25.203125 
Q 15.484375 15.921875 20.484375 11.0625 
Q 25.484375 6.203125 34.421875 6.203125 
Q 39.59375 6.203125 44.453125 7.46875 
Q 49.3125 8.734375 54.109375 11.28125 
L 54.109375 2.78125 
Q 49.265625 0.734375 44.1875 -0.34375 
Q 39.109375 -1.421875 33.890625 -1.421875 
Q 20.796875 -1.421875 13.15625 6.1875 
Q 5.515625 13.8125 5.515625 26.8125 
Q 5.515625 40.234375 12.765625 48.109375 
Q 20.015625 56 32.328125 56 
Q 43.359375 56 49.78125 48.890625 
Q 56.203125 41.796875 56.203125 29.59375 
z
M 47.21875 32.234375 
Q 47.125 39.59375 43.09375 43.984375 
Q 39.0625 48.390625 32.421875 48.390625 
Q 24.90625 48.390625 20.390625 44.140625 
Q 15.875 39.890625 15.1875 32.171875 
z
" id="DejaVuSans-101"/>
     <path d="M 18.109375 8.203125 
L 18.109375 -20.796875 
L 9.078125 -20.796875 
L 9.078125 54.6875 
L 18.109375 54.6875 
L 18.109375 46.390625 
Q 20.953125 51.265625 25.265625 53.625 
Q 29.59375 56 35.59375 56 
Q 45.5625 56 51.78125 48.09375 
Q 58.015625 40.1875 58.015625 27.296875 
Q 58.015625 14.40625 51.78125 6.484375 
Q 45.5625 -1.421875 35.59375 -1.421875 
Q 29.59375 -1.421875 25.265625 0.953125 
Q 20.953125 3.328125 18.109375 8.203125 
z
M 48.6875 27.296875 
Q 48.6875 37.203125 44.609375 42.84375 
Q 40.53125 48.484375 33.40625 48.484375 
Q 26.265625 48.484375 22.1875 42.84375 
Q 18.109375 37.203125 18.109375 27.296875 
Q 18.109375 17.390625 22.1875 11.75 
Q 26.265625 6.109375 33.40625 6.109375 
Q 40.53125 6.109375 44.609375 11.75 
Q 48.6875 17.390625 48.6875 27.296875 
z
" id="DejaVuSans-112"/>
     <path d="M 44.28125 53.078125 
L 44.28125 44.578125 
Q 40.484375 46.53125 36.375 47.5 
Q 32.28125 48.484375 27.875 48.484375 
Q 21.1875 48.484375 17.84375 46.4375 
Q 14.5 44.390625 14.5 40.28125 
Q 14.5 37.15625 16.890625 35.375 
Q 19.28125 33.59375 26.515625 31.984375 
L 29.59375 31.296875 
Q 39.15625 29.25 43.1875 25.515625 
Q 47.21875 21.78125 47.21875 15.09375 
Q 47.21875 7.46875 41.1875 3.015625 
Q 35.15625 -1.421875 24.609375 -1.421875 
Q 20.21875 -1.421875 15.453125 -0.5625 
Q 10.6875 0.296875 5.421875 2 
L 5.421875 11.28125 
Q 10.40625 8.6875 15.234375 7.390625 
Q 20.0625 6.109375 24.8125 6.109375 
Q 31.15625 6.109375 34.5625 8.28125 
Q 37.984375 10.453125 37.984375 14.40625 
Q 37.984375 18.0625 35.515625 20.015625 
Q 33.0625 21.96875 24.703125 23.78125 
L 21.578125 24.515625 
Q 13.234375 26.265625 9.515625 29.90625 
Q 5.8125 33.546875 5.8125 39.890625 
Q 5.8125 47.609375 11.28125 51.796875 
Q 16.75 56 26.8125 56 
Q 31.78125 56 36.171875 55.265625 
Q 40.578125 54.546875 44.28125 53.078125 
z
" id="DejaVuSans-115"/>
     <path d="M 8.5 21.578125 
L 8.5 54.6875 
L 17.484375 54.6875 
L 17.484375 21.921875 
Q 17.484375 14.15625 20.5 10.265625 
Q 23.53125 6.390625 29.59375 6.390625 
Q 36.859375 6.390625 41.078125 11.03125 
Q 45.3125 15.671875 45.3125 23.6875 
L 45.3125 54.6875 
L 54.296875 54.6875 
L 54.296875 0 
L 45.3125 0 
L 45.3125 8.40625 
Q 42.046875 3.421875 37.71875 1 
Q 33.40625 -1.421875 27.6875 -1.421875 
Q 18.265625 -1.421875 13.375 4.4375 
Q 8.5 10.296875 8.5 21.578125 
z
M 31.109375 56 
z
" id="DejaVuSans-117"/>
     <path d="M 34.28125 27.484375 
Q 23.390625 27.484375 19.1875 25 
Q 14.984375 22.515625 14.984375 16.5 
Q 14.984375 11.71875 18.140625 8.90625 
Q 21.296875 6.109375 26.703125 6.109375 
Q 34.1875 6.109375 38.703125 11.40625 
Q 43.21875 16.703125 43.21875 25.484375 
L 43.21875 27.484375 
z
M 52.203125 31.203125 
L 52.203125 0 
L 43.21875 0 
L 43.21875 8.296875 
Q 40.140625 3.328125 35.546875 0.953125 
Q 30.953125 -1.421875 24.3125 -1.421875 
Q 15.921875 -1.421875 10.953125 3.296875 
Q 6 8.015625 6 15.921875 
Q 6 25.140625 12.171875 29.828125 
Q 18.359375 34.515625 30.609375 34.515625 
L 43.21875 34.515625 
L 43.21875 35.40625 
Q 43.21875 41.609375 39.140625 45 
Q 35.0625 48.390625 27.6875 48.390625 
Q 23 48.390625 18.546875 47.265625 
Q 14.109375 46.140625 10.015625 43.890625 
L 10.015625 52.203125 
Q 14.9375 54.109375 19.578125 55.046875 
Q 24.21875 56 28.609375 56 
Q 40.484375 56 46.34375 49.84375 
Q 52.203125 43.703125 52.203125 31.203125 
z
" id="DejaVuSans-97"/>
     <path d="M 18.3125 70.21875 
L 18.3125 54.6875 
L 36.8125 54.6875 
L 36.8125 47.703125 
L 18.3125 47.703125 
L 18.3125 18.015625 
Q 18.3125 11.328125 20.140625 9.421875 
Q 21.96875 7.515625 27.59375 7.515625 
L 36.8125 7.515625 
L 36.8125 0 
L 27.59375 0 
Q 17.1875 0 13.234375 3.875 
Q 9.28125 7.765625 9.28125 18.015625 
L 9.28125 47.703125 
L 2.6875 47.703125 
L 2.6875 54.6875 
L 9.28125 54.6875 
L 9.28125 70.21875 
z
" id="DejaVuSans-116"/>
     <path d="M 54.890625 33.015625 
L 54.890625 0 
L 45.90625 0 
L 45.90625 32.71875 
Q 45.90625 40.484375 42.875 44.328125 
Q 39.84375 48.1875 33.796875 48.1875 
Q 26.515625 48.1875 22.3125 43.546875 
Q 18.109375 38.921875 18.109375 30.90625 
L 18.109375 0 
L 9.078125 0 
L 9.078125 54.6875 
L 18.109375 54.6875 
L 18.109375 46.1875 
Q 21.34375 51.125 25.703125 53.5625 
Q 30.078125 56 35.796875 56 
Q 45.21875 56 50.046875 50.171875 
Q 54.890625 44.34375 54.890625 33.015625 
z
" id="DejaVuSans-110"/>
     <path d="M 4.890625 31.390625 
L 31.203125 31.390625 
L 31.203125 23.390625 
L 4.890625 23.390625 
z
" id="DejaVuSans-45"/>
     <path d="M 2.984375 54.6875 
L 12.5 54.6875 
L 29.59375 8.796875 
L 46.6875 54.6875 
L 56.203125 54.6875 
L 35.6875 0 
L 23.484375 0 
z
" id="DejaVuSans-118"/>
     <path d="M 17.921875 79.984375 
L 31.6875 61.71875 
L 24.21875 61.71875 
L 8.296875 79.984375 
z
" id="DejaVuSans-96"/>
     <path d="M 54.890625 33.015625 
L 54.890625 0 
L 45.90625 0 
L 45.90625 32.71875 
Q 45.90625 40.484375 42.875 44.328125 
Q 39.84375 48.1875 33.796875 48.1875 
Q 26.515625 48.1875 22.3125 43.546875 
Q 18.109375 38.921875 18.109375 30.90625 
L 18.109375 0 
L 9.078125 0 
L 9.078125 75.984375 
L 18.109375 75.984375 
L 18.109375 46.1875 
Q 21.34375 51.125 25.703125 53.5625 
Q 30.078125 56 35.796875 56 
Q 45.21875 56 50.046875 50.171875 
Q 54.890625 44.34375 54.890625 33.015625 
z
" id="DejaVuSans-104"/>
     <path d="M 52 44.1875 
Q 55.375 50.25 60.0625 53.125 
Q 64.75 56 71.09375 56 
Q 79.640625 56 84.28125 50.015625 
Q 88.921875 44.046875 88.921875 33.015625 
L 88.921875 0 
L 79.890625 0 
L 79.890625 32.71875 
Q 79.890625 40.578125 77.09375 44.375 
Q 74.3125 48.1875 68.609375 48.1875 
Q 61.625 48.1875 57.5625 43.546875 
Q 53.515625 38.921875 53.515625 30.90625 
L 53.515625 0 
L 44.484375 0 
L 44.484375 32.71875 
Q 44.484375 40.625 41.703125 44.40625 
Q 38.921875 48.1875 33.109375 48.1875 
Q 26.21875 48.1875 22.15625 43.53125 
Q 18.109375 38.875 18.109375 30.90625 
L 18.109375 0 
L 9.078125 0 
L 9.078125 54.6875 
L 18.109375 54.6875 
L 18.109375 46.1875 
Q 21.1875 51.21875 25.484375 53.609375 
Q 29.78125 56 35.6875 56 
Q 41.65625 56 45.828125 52.96875 
Q 50 49.953125 52 44.1875 
z
" id="DejaVuSans-109"/>
     <path d="M 11.71875 12.40625 
L 22.015625 12.40625 
L 22.015625 4 
L 14.015625 -11.625 
L 7.71875 -11.625 
L 11.71875 4 
z
" id="DejaVuSans-44"/>
     <path d="M 9.8125 72.90625 
L 24.515625 72.90625 
L 43.109375 23.296875 
L 61.8125 72.90625 
L 76.515625 72.90625 
L 76.515625 0 
L 66.890625 0 
L 66.890625 64.015625 
L 48.09375 14.015625 
L 38.1875 14.015625 
L 19.390625 64.015625 
L 19.390625 0 
L 9.8125 0 
z
" id="DejaVuSans-77"/>
     <path d="M 34.1875 63.1875 
L 20.796875 26.90625 
L 47.609375 26.90625 
z
M 28.609375 72.90625 
L 39.796875 72.90625 
L 67.578125 0 
L 57.328125 0 
L 50.6875 18.703125 
L 17.828125 18.703125 
L 11.1875 0 
L 0.78125 0 
z
" id="DejaVuSans-65"/>
     <path d="M 10.59375 45.40625 
L 73.1875 45.40625 
L 73.1875 37.203125 
L 10.59375 37.203125 
z
M 10.59375 25.484375 
L 73.1875 25.484375 
L 73.1875 17.1875 
L 10.59375 17.1875 
z
" id="DejaVuSans-61"/>
    </defs>
    <g transform="translate(101.44125 20.52)scale(0.12 -0.12)">
     <use xlink:href="#DejaVuSans-103"/>
     <use x="63.476562" xlink:href="#DejaVuSans-114"/>
     <use x="104.589844" xlink:href="#DejaVuSans-105"/>
     <use x="132.373047" xlink:href="#DejaVuSans-100"/>
     <use x="195.849609" xlink:href="#DejaVuSans-119"/>
     <use x="277.636719" xlink:href="#DejaVuSans-111"/>
     <use x="338.818359" xlink:href="#DejaVuSans-114"/>
     <use x="379.931641" xlink:href="#DejaVuSans-108"/>
     <use x="407.714844" xlink:href="#DejaVuSans-100"/>
     <use x="471.191406" xlink:href="#DejaVuSans-95"/>
     <use x="521.191406" xlink:href="#DejaVuSans-53"/>
     <use x="584.814453" xlink:href="#DejaVuSans-120"/>
     <use x="643.994141" xlink:href="#DejaVuSans-53"/>
     <use x="707.617188" xlink:href="#DejaVuSans-95"/>
     <use x="757.617188" xlink:href="#DejaVuSans-53"/>
     <use x="821.240234" xlink:href="#DejaVuSans-48"/>
     <use x="884.863281" xlink:href="#DejaVuSans-95"/>
     <use x="934.863281" xlink:href="#DejaVuSans-52"/>
     <use x="998.486328" xlink:href="#DejaVuSans-95"/>
     <use x="1048.486328" xlink:href="#DejaVuSans-52"/>
     <use x="1112.109375" xlink:href="#DejaVuSans-95"/>
     <use x="1162.109375" xlink:href="#DejaVuSans-49"/>
     <use x="1225.732422" xlink:href="#DejaVuSans-51"/>
     <use x="1289.355469" xlink:href="#DejaVuSans-51"/>
     <use x="1352.978516" xlink:href="#DejaVuSans-55"/>
     <use x="1416.601562" xlink:href="#DejaVuSans-95"/>
     <use x="1466.601562" xlink:href="#DejaVuSans-95"/>
     <use x="1516.601562" xlink:href="#DejaVuSans-50"/>
     <use x="1580.224609" xlink:href="#DejaVuSans-58"/>
     <use x="1613.916016" xlink:href="#DejaVuSans-32"/>
     <use x="1645.703125" xlink:href="#DejaVuSans-101"/>
     <use x="1707.226562" xlink:href="#DejaVuSans-112"/>
     <use x="1770.703125" xlink:href="#DejaVuSans-105"/>
     <use x="1798.486328" xlink:href="#DejaVuSans-115"/>
     <use x="1850.585938" xlink:href="#DejaVuSans-111"/>
     <use x="1911.767578" xlink:href="#DejaVuSans-100"/>
     <use x="1975.244141" xlink:href="#DejaVuSans-101"/>
     <use x="2036.767578" xlink:href="#DejaVuSans-32"/>
     <use x="2068.554688" xlink:href="#DejaVuSans-100"/>
     <use x="2132.03125" xlink:href="#DejaVuSans-117"/>
     <use x="2195.410156" xlink:href="#DejaVuSans-114"/>
     <use x="2236.523438" xlink:href="#DejaVuSans-97"/>
     <use x="2297.802734" xlink:href="#DejaVuSans-116"/>
     <use x="2337.011719" xlink:href="#DejaVuSans-105"/>
     <use x="2364.794922" xlink:href="#DejaVuSans-111"/>
     <use x="2425.976562" xlink:href="#DejaVuSans-110"/>
     <use x="2489.355469" xlink:href="#DejaVuSans-32"/>
     <use x="2521.142578" xlink:href="#DejaVuSans-105"/>
     <use x="2548.925781" xlink:href="#DejaVuSans-110"/>
     <use x="2612.304688" xlink:href="#DejaVuSans-32"/>
     <use x="2644.091797" xlink:href="#DejaVuSans-115"/>
     <use x="2696.191406" xlink:href="#DejaVuSans-116"/>
     <use x="2735.400391" xlink:href="#DejaVuSans-101"/>
     <use x="2796.923828" xlink:href="#DejaVuSans-112"/>
     <use x="2860.400391" xlink:href="#DejaVuSans-115"/>
     <use x="2912.5" xlink:href="#DejaVuSans-32"/>
     <use x="2944.287109" xlink:href="#DejaVuSans-108"/>
     <use x="2972.070312" xlink:href="#DejaVuSans-111"/>
     <use x="3033.251953" xlink:href="#DejaVuSans-103"/>
     <use x="3096.728516" xlink:href="#DejaVuSans-45"/>
     <use x="3132.8125" xlink:href="#DejaVuSans-114"/>
     <use x="3173.894531" xlink:href="#DejaVuSans-101"/>
     <use x="3235.417969" xlink:href="#DejaVuSans-108"/>
     <use x="3263.201172" xlink:href="#DejaVuSans-97"/>
     <use x="3324.480469" xlink:href="#DejaVuSans-116"/>
     <use x="3363.689453" xlink:href="#DejaVuSans-105"/>
     <use x="3391.472656" xlink:href="#DejaVuSans-118"/>
     <use x="3450.652344" xlink:href="#DejaVuSans-101"/>
     <use x="3512.175781" xlink:href="#DejaVuSans-32"/>
     <use x="3543.962891" xlink:href="#DejaVuSans-116"/>
     <use x="3583.171875" xlink:href="#DejaVuSans-111"/>
     <use x="3644.353516" xlink:href="#DejaVuSans-32"/>
     <use x="3676.140625" xlink:href="#DejaVuSans-96"/>
     <use x="3726.140625" xlink:href="#DejaVuSans-104"/>
     <use x="3789.519531" xlink:href="#DejaVuSans-116"/>
     <use x="3828.728516" xlink:href="#DejaVuSans-109"/>
     <use x="3926.140625" xlink:href="#DejaVuSans-95"/>
     <use x="3976.140625" xlink:href="#DejaVuSans-50"/>
     <use x="4039.763672" xlink:href="#DejaVuSans-95"/>
     <use x="4089.763672" xlink:href="#DejaVuSans-49"/>
     <use x="4153.386719" xlink:href="#DejaVuSans-103"/>
     <use x="4216.863281" xlink:href="#DejaVuSans-96"/>
     <use x="4266.863281" xlink:href="#DejaVuSans-44"/>
     <use x="4298.650391" xlink:href="#DejaVuSans-32"/>
     <use x="4330.4375" xlink:href="#DejaVuSans-77"/>
     <use x="4416.716797" xlink:href="#DejaVuSans-65"/>
     <use x="4485.125" xlink:href="#DejaVuSans-61"/>
     <use x="4568.914062" xlink:href="#DejaVuSans-52"/>
     <use x="4632.537109" xlink:href="#DejaVuSans-48"/>
    </g>
   </g>
   <g id="legend_1">
    <g id="patch_7">
     <path d="M 772.635125 231.77625 
L 853.707 231.77625 
Q 855.707 231.77625 855.707 229.77625 
L 855.707 200.86375 
Q 855.707 198.86375 853.707 198.86375 
L 772.635125 198.86375 
Q 770.635125 198.86375 770.635125 200.86375 
L 770.635125 229.77625 
Q 770.635125 231.77625 772.635125 231.77625 
z
" style="fill:#ffffff;opacity:0.8;stroke:#cccccc;stroke-linejoin:miter;"/>
    </g>
    <g id="line2d_18">
     <path d="M 774.635125 206.962187 
L 794.635125 206.962187 
" style="fill:none;stroke:#1f77b4;stroke-linecap:square;stroke-width:1.5;"/>
    </g>
    <g id="line2d_19"/>
    <g id="text_17">
     <!-- htm_2_1g -->
     <g transform="translate(802.635125 210.462187)scale(0.1 -0.1)">
      <use xlink:href="#DejaVuSans-104"/>
      <use x="63.378906" xlink:href="#DejaVuSans-116"/>
      <use x="102.587891" xlink:href="#DejaVuSans-109"/>
      <use x="200" xlink:href="#DejaVuSans-95"/>
      <use x="250" xlink:href="#DejaVuSans-50"/>
      <use x="313.623047" xlink:href="#DejaVuSans-95"/>
      <use x="363.623047" xlink:href="#DejaVuSans-49"/>
      <use x="427.246094" xlink:href="#DejaVuSans-103"/>
     </g>
    </g>
    <g id="line2d_20">
     <path d="M 774.635125 221.918437 
L 794.635125 221.918437 
" style="fill:none;stroke:#ff7f0e;stroke-linecap:square;stroke-width:1.5;"/>
    </g>
    <g id="line2d_21"/>
    <g id="text_18">
     <!-- htm_2_4g -->
     <g transform="translate(802.635125 225.418437)scale(0.1 -0.1)">
      <use xlink:href="#DejaVuSans-104"/>
      <use x="63.378906" xlink:href="#DejaVuSans-116"/>
      <use x="102.587891" xlink:href="#DejaVuSans-109"/>
      <use x="200" xlink:href="#DejaVuSans-95"/>
      <use x="250" xlink:href="#DejaVuSans-50"/>
      <use x="313.623047" xlink:href="#DejaVuSans-95"/>
      <use x="363.623047" xlink:href="#DejaVuSans-52"/>
      <use x="427.246094" xlink:href="#DejaVuSans-103"/>
     </g>
    </g>
   </g>
  </g>
 </g>
 <defs>
  <clipPath id="p22f6113f7e">
   <rect height="377.6" width="682.135" x="42.145" y="26.52"/>
  </clipPath>
 </defs>
</svg>
