<?xml version="1.0" encoding="utf-8" standalone="no"?>
<!DOCTYPE svg PUBLIC "-//W3C//DTD SVG 1.1//EN"
  "http://www.w3.org/Graphics/SVG/1.1/DTD/svg11.dtd">
<!-- Created with matplotlib (https://matplotlib.org/) -->
<svg height="432pt" version="1.1" viewBox="0 0 864 432" width="864pt" xmlns="http://www.w3.org/2000/svg" xmlns:xlink="http://www.w3.org/1999/xlink">
 <defs>
  <style type="text/css">
*{stroke-linecap:butt;stroke-linejoin:round;}
  </style>
 </defs>
 <g id="figure_1">
  <g id="patch_1">
   <path d="M 0 432 
L 864 432 
L 864 0 
L 0 0 
z
" style="fill:#ffffff;"/>
  </g>
  <g id="axes_1">
   <g id="patch_2">
    <path d="M 42.1 404.12 
L 724.28 404.12 
L 724.28 26.52 
L 42.1 26.52 
z
" style="fill:#ffffff;"/>
   </g>
   <g id="matplotlib.axis_1">
    <g id="xtick_1">
     <g id="line2d_1">
      <defs>
       <path d="M 0 0 
L 0 3.5 
" id="me909b211ea" style="stroke:#000000;stroke-width:0.8;"/>
      </defs>
      <g>
       <use style="stroke:#000000;stroke-width:0.8;" x="42.1" xlink:href="#me909b211ea" y="404.12"/>
      </g>
     </g>
     <g id="text_1">
      <!-- 0 -->
      <defs>
       <path d="M 31.78125 66.40625 
Q 24.171875 66.40625 20.328125 58.90625 
Q 16.5 51.421875 16.5 36.375 
Q 16.5 21.390625 20.328125 13.890625 
Q 24.171875 6.390625 31.78125 6.390625 
Q 39.453125 6.390625 43.28125 13.890625 
Q 47.125 21.390625 47.125 36.375 
Q 47.125 51.421875 43.28125 58.90625 
Q 39.453125 66.40625 31.78125 66.40625 
z
M 31.78125 74.21875 
Q 44.046875 74.21875 50.515625 64.515625 
Q 56.984375 54.828125 56.984375 36.375 
Q 56.984375 17.96875 50.515625 8.265625 
Q 44.046875 -1.421875 31.78125 -1.421875 
Q 19.53125 -1.421875 13.0625 8.265625 
Q 6.59375 17.96875 6.59375 36.375 
Q 6.59375 54.828125 13.0625 64.515625 
Q 19.53125 74.21875 31.78125 74.21875 
z
" id="DejaVuSans-48"/>
      </defs>
      <g transform="translate(38.91875 418.718437)scale(0.1 -0.1)">
       <use xlink:href="#DejaVuSans-48"/>
      </g>
     </g>
    </g>
    <g id="xtick_2">
     <g id="line2d_2">
      <g>
       <use style="stroke:#000000;stroke-width:0.8;" x="127.586216" xlink:href="#me909b211ea" y="404.12"/>
      </g>
     </g>
     <g id="text_2">
      <!-- 50 -->
      <defs>
       <path d="M 10.796875 72.90625 
L 49.515625 72.90625 
L 49.515625 64.59375 
L 19.828125 64.59375 
L 19.828125 46.734375 
Q 21.96875 47.46875 24.109375 47.828125 
Q 26.265625 48.1875 28.421875 48.1875 
Q 40.625 48.1875 47.75 41.5 
Q 54.890625 34.8125 54.890625 23.390625 
Q 54.890625 11.625 47.5625 5.09375 
Q 40.234375 -1.421875 26.90625 -1.421875 
Q 22.3125 -1.421875 17.546875 -0.640625 
Q 12.796875 0.140625 7.71875 1.703125 
L 7.71875 11.625 
Q 12.109375 9.234375 16.796875 8.0625 
Q 21.484375 6.890625 26.703125 6.890625 
Q 35.15625 6.890625 40.078125 11.328125 
Q 45.015625 15.765625 45.015625 23.390625 
Q 45.015625 31 40.078125 35.4375 
Q 35.15625 39.890625 26.703125 39.890625 
Q 22.75 39.890625 18.8125 39.015625 
Q 14.890625 38.140625 10.796875 36.28125 
z
" id="DejaVuSans-53"/>
      </defs>
      <g transform="translate(121.223716 418.718437)scale(0.1 -0.1)">
       <use xlink:href="#DejaVuSans-53"/>
       <use x="63.623047" xlink:href="#DejaVuSans-48"/>
      </g>
     </g>
    </g>
    <g id="xtick_3">
     <g id="line2d_3">
      <g>
       <use style="stroke:#000000;stroke-width:0.8;" x="213.072431" xlink:href="#me909b211ea" y="404.12"/>
      </g>
     </g>
     <g id="text_3">
      <!-- 100 -->
      <defs>
       <path d="M 12.40625 8.296875 
L 28.515625 8.296875 
L 28.515625 63.921875 
L 10.984375 60.40625 
L 10.984375 69.390625 
L 28.421875 72.90625 
L 38.28125 72.90625 
L 38.28125 8.296875 
L 54.390625 8.296875 
L 54.390625 0 
L 12.40625 0 
z
" id="DejaVuSans-49"/>
      </defs>
      <g transform="translate(203.528681 418.718437)scale(0.1 -0.1)">
       <use xlink:href="#DejaVuSans-49"/>
       <use x="63.623047" xlink:href="#DejaVuSans-48"/>
       <use x="127.246094" xlink:href="#DejaVuSans-48"/>
      </g>
     </g>
    </g>
    <g id="xtick_4">
     <g id="line2d_4">
      <g>
       <use style="stroke:#000000;stroke-width:0.8;" x="298.558647" xlink:href="#me909b211ea" y="404.12"/>
      </g>
     </g>
     <g id="text_4">
      <!-- 150 -->
      <g transform="translate(289.014897 418.718437)scale(0.1 -0.1)">
       <use xlink:href="#DejaVuSans-49"/>
       <use x="63.623047" xlink:href="#DejaVuSans-53"/>
       <use x="127.246094" xlink:href="#DejaVuSans-48"/>
      </g>
     </g>
    </g>
    <g id="xtick_5">
     <g id="line2d_5">
      <g>
       <use style="stroke:#000000;stroke-width:0.8;" x="384.044862" xlink:href="#me909b211ea" y="404.12"/>
      </g>
     </g>
     <g id="text_5">
      <!-- 200 -->
      <defs>
       <path d="M 19.1875 8.296875 
L 53.609375 8.296875 
L 53.609375 0 
L 7.328125 0 
L 7.328125 8.296875 
Q 12.9375 14.109375 22.625 23.890625 
Q 32.328125 33.6875 34.8125 36.53125 
Q 39.546875 41.84375 41.421875 45.53125 
Q 43.3125 49.21875 43.3125 52.78125 
Q 43.3125 58.59375 39.234375 62.25 
Q 35.15625 65.921875 28.609375 65.921875 
Q 23.96875 65.921875 18.8125 64.3125 
Q 13.671875 62.703125 7.8125 59.421875 
L 7.8125 69.390625 
Q 13.765625 71.78125 18.9375 73 
Q 24.125 74.21875 28.421875 74.21875 
Q 39.75 74.21875 46.484375 68.546875 
Q 53.21875 62.890625 53.21875 53.421875 
Q 53.21875 48.921875 51.53125 44.890625 
Q 49.859375 40.875 45.40625 35.40625 
Q 44.1875 33.984375 37.640625 27.21875 
Q 31.109375 20.453125 19.1875 8.296875 
z
" id="DejaVuSans-50"/>
      </defs>
      <g transform="translate(374.501112 418.718437)scale(0.1 -0.1)">
       <use xlink:href="#DejaVuSans-50"/>
       <use x="63.623047" xlink:href="#DejaVuSans-48"/>
       <use x="127.246094" xlink:href="#DejaVuSans-48"/>
      </g>
     </g>
    </g>
    <g id="xtick_6">
     <g id="line2d_6">
      <g>
       <use style="stroke:#000000;stroke-width:0.8;" x="469.531078" xlink:href="#me909b211ea" y="404.12"/>
      </g>
     </g>
     <g id="text_6">
      <!-- 250 -->
      <g transform="translate(459.987328 418.718437)scale(0.1 -0.1)">
       <use xlink:href="#DejaVuSans-50"/>
       <use x="63.623047" xlink:href="#DejaVuSans-53"/>
       <use x="127.246094" xlink:href="#DejaVuSans-48"/>
      </g>
     </g>
    </g>
    <g id="xtick_7">
     <g id="line2d_7">
      <g>
       <use style="stroke:#000000;stroke-width:0.8;" x="555.017293" xlink:href="#me909b211ea" y="404.12"/>
      </g>
     </g>
     <g id="text_7">
      <!-- 300 -->
      <defs>
       <path d="M 40.578125 39.3125 
Q 47.65625 37.796875 51.625 33 
Q 55.609375 28.21875 55.609375 21.1875 
Q 55.609375 10.40625 48.1875 4.484375 
Q 40.765625 -1.421875 27.09375 -1.421875 
Q 22.515625 -1.421875 17.65625 -0.515625 
Q 12.796875 0.390625 7.625 2.203125 
L 7.625 11.71875 
Q 11.71875 9.328125 16.59375 8.109375 
Q 21.484375 6.890625 26.8125 6.890625 
Q 36.078125 6.890625 40.9375 10.546875 
Q 45.796875 14.203125 45.796875 21.1875 
Q 45.796875 27.640625 41.28125 31.265625 
Q 36.765625 34.90625 28.71875 34.90625 
L 20.21875 34.90625 
L 20.21875 43.015625 
L 29.109375 43.015625 
Q 36.375 43.015625 40.234375 45.921875 
Q 44.09375 48.828125 44.09375 54.296875 
Q 44.09375 59.90625 40.109375 62.90625 
Q 36.140625 65.921875 28.71875 65.921875 
Q 24.65625 65.921875 20.015625 65.03125 
Q 15.375 64.15625 9.8125 62.3125 
L 9.8125 71.09375 
Q 15.4375 72.65625 20.34375 73.4375 
Q 25.25 74.21875 29.59375 74.21875 
Q 40.828125 74.21875 47.359375 69.109375 
Q 53.90625 64.015625 53.90625 55.328125 
Q 53.90625 49.265625 50.4375 45.09375 
Q 46.96875 40.921875 40.578125 39.3125 
z
" id="DejaVuSans-51"/>
      </defs>
      <g transform="translate(545.473543 418.718437)scale(0.1 -0.1)">
       <use xlink:href="#DejaVuSans-51"/>
       <use x="63.623047" xlink:href="#DejaVuSans-48"/>
       <use x="127.246094" xlink:href="#DejaVuSans-48"/>
      </g>
     </g>
    </g>
    <g id="xtick_8">
     <g id="line2d_8">
      <g>
       <use style="stroke:#000000;stroke-width:0.8;" x="640.503509" xlink:href="#me909b211ea" y="404.12"/>
      </g>
     </g>
     <g id="text_8">
      <!-- 350 -->
      <g transform="translate(630.959759 418.718437)scale(0.1 -0.1)">
       <use xlink:href="#DejaVuSans-51"/>
       <use x="63.623047" xlink:href="#DejaVuSans-53"/>
       <use x="127.246094" xlink:href="#DejaVuSans-48"/>
      </g>
     </g>
    </g>
   </g>
   <g id="matplotlib.axis_2">
    <g id="ytick_1">
     <g id="line2d_9">
      <defs>
       <path d="M 0 0 
L -3.5 0 
" id="ma9ee01beb2" style="stroke:#000000;stroke-width:0.8;"/>
      </defs>
      <g>
       <use style="stroke:#000000;stroke-width:0.8;" x="42.1" xlink:href="#ma9ee01beb2" y="363.567079"/>
      </g>
     </g>
     <g id="text_9">
      <!-- −1.5 -->
      <defs>
       <path d="M 10.59375 35.5 
L 73.1875 35.5 
L 73.1875 27.203125 
L 10.59375 27.203125 
z
" id="DejaVuSans-8722"/>
       <path d="M 10.6875 12.40625 
L 21 12.40625 
L 21 0 
L 10.6875 0 
z
" id="DejaVuSans-46"/>
      </defs>
      <g transform="translate(10.817188 367.366298)scale(0.1 -0.1)">
       <use xlink:href="#DejaVuSans-8722"/>
       <use x="83.789062" xlink:href="#DejaVuSans-49"/>
       <use x="147.412109" xlink:href="#DejaVuSans-46"/>
       <use x="179.199219" xlink:href="#DejaVuSans-53"/>
      </g>
     </g>
    </g>
    <g id="ytick_2">
     <g id="line2d_10">
      <g>
       <use style="stroke:#000000;stroke-width:0.8;" x="42.1" xlink:href="#ma9ee01beb2" y="317.229297"/>
      </g>
     </g>
     <g id="text_10">
      <!-- −1.0 -->
      <g transform="translate(10.817188 321.028516)scale(0.1 -0.1)">
       <use xlink:href="#DejaVuSans-8722"/>
       <use x="83.789062" xlink:href="#DejaVuSans-49"/>
       <use x="147.412109" xlink:href="#DejaVuSans-46"/>
       <use x="179.199219" xlink:href="#DejaVuSans-48"/>
      </g>
     </g>
    </g>
    <g id="ytick_3">
     <g id="line2d_11">
      <g>
       <use style="stroke:#000000;stroke-width:0.8;" x="42.1" xlink:href="#ma9ee01beb2" y="270.891515"/>
      </g>
     </g>
     <g id="text_11">
      <!-- −0.5 -->
      <g transform="translate(10.817188 274.690734)scale(0.1 -0.1)">
       <use xlink:href="#DejaVuSans-8722"/>
       <use x="83.789062" xlink:href="#DejaVuSans-48"/>
       <use x="147.412109" xlink:href="#DejaVuSans-46"/>
       <use x="179.199219" xlink:href="#DejaVuSans-53"/>
      </g>
     </g>
    </g>
    <g id="ytick_4">
     <g id="line2d_12">
      <g>
       <use style="stroke:#000000;stroke-width:0.8;" x="42.1" xlink:href="#ma9ee01beb2" y="224.553733"/>
      </g>
     </g>
     <g id="text_12">
      <!-- 0.0 -->
      <g transform="translate(19.196875 228.352952)scale(0.1 -0.1)">
       <use xlink:href="#DejaVuSans-48"/>
       <use x="63.623047" xlink:href="#DejaVuSans-46"/>
       <use x="95.410156" xlink:href="#DejaVuSans-48"/>
      </g>
     </g>
    </g>
    <g id="ytick_5">
     <g id="line2d_13">
      <g>
       <use style="stroke:#000000;stroke-width:0.8;" x="42.1" xlink:href="#ma9ee01beb2" y="178.215951"/>
      </g>
     </g>
     <g id="text_13">
      <!-- 0.5 -->
      <g transform="translate(19.196875 182.01517)scale(0.1 -0.1)">
       <use xlink:href="#DejaVuSans-48"/>
       <use x="63.623047" xlink:href="#DejaVuSans-46"/>
       <use x="95.410156" xlink:href="#DejaVuSans-53"/>
      </g>
     </g>
    </g>
    <g id="ytick_6">
     <g id="line2d_14">
      <g>
       <use style="stroke:#000000;stroke-width:0.8;" x="42.1" xlink:href="#ma9ee01beb2" y="131.87817"/>
      </g>
     </g>
     <g id="text_14">
      <!-- 1.0 -->
      <g transform="translate(19.196875 135.677388)scale(0.1 -0.1)">
       <use xlink:href="#DejaVuSans-49"/>
       <use x="63.623047" xlink:href="#DejaVuSans-46"/>
       <use x="95.410156" xlink:href="#DejaVuSans-48"/>
      </g>
     </g>
    </g>
    <g id="ytick_7">
     <g id="line2d_15">
      <g>
       <use style="stroke:#000000;stroke-width:0.8;" x="42.1" xlink:href="#ma9ee01beb2" y="85.540388"/>
      </g>
     </g>
     <g id="text_15">
      <!-- 1.5 -->
      <g transform="translate(19.196875 89.339606)scale(0.1 -0.1)">
       <use xlink:href="#DejaVuSans-49"/>
       <use x="63.623047" xlink:href="#DejaVuSans-46"/>
       <use x="95.410156" xlink:href="#DejaVuSans-53"/>
      </g>
     </g>
    </g>
    <g id="ytick_8">
     <g id="line2d_16">
      <g>
       <use style="stroke:#000000;stroke-width:0.8;" x="42.1" xlink:href="#ma9ee01beb2" y="39.202606"/>
      </g>
     </g>
     <g id="text_16">
      <!-- 2.0 -->
      <g transform="translate(19.196875 43.001825)scale(0.1 -0.1)">
       <use xlink:href="#DejaVuSans-50"/>
       <use x="63.623047" xlink:href="#DejaVuSans-46"/>
       <use x="95.410156" xlink:href="#DejaVuSans-48"/>
      </g>
     </g>
    </g>
   </g>
   <g id="line2d_17">
    <path clip-path="url(#pde4ea16f42)" d="M 108.779248 224.553733 
L 724.28 224.553733 
L 724.28 224.553733 
" style="fill:none;stroke:#1f77b4;stroke-linecap:square;stroke-width:1.5;"/>
   </g>
   <g id="line2d_18">
    <path clip-path="url(#pde4ea16f42)" d="M 108.779248 283.225164 
L 110.488972 289.175603 
L 112.198697 274.237784 
L 113.908421 275.698877 
L 115.618145 276.827885 
L 117.32787 283.349808 
L 119.037594 277.075556 
L 120.747318 281.220253 
L 122.457043 287.532802 
L 124.166767 293.311409 
L 125.876491 291.188465 
L 127.586216 292.207895 
L 129.29594 290.803546 
L 131.005664 284.860843 
L 132.715388 292.09374 
L 134.425113 298.131671 
L 136.134837 291.096311 
L 137.844561 297.168968 
L 139.554286 305.087461 
L 141.26401 296.296628 
L 142.973734 302.411031 
L 144.683459 303.884547 
L 146.393183 304.415545 
L 148.102907 300.805497 
L 149.812632 294.405977 
L 151.522356 291.616505 
L 153.23208 301.314799 
L 154.941805 294.31716 
L 156.651529 284.660003 
L 158.361253 279.531908 
L 160.070977 272.740657 
L 161.780702 280.400031 
L 165.20015 281.748279 
L 166.909875 292.486432 
L 168.619599 296.666521 
L 170.329323 308.718261 
L 172.039048 311.330785 
L 173.748772 311.753204 
L 175.458496 311.145335 
L 177.168221 314.393147 
L 178.877945 303.967587 
L 180.587669 316.744166 
L 182.297393 316.245776 
L 184.007118 308.246738 
L 185.716842 303.66231 
L 187.426566 315.693815 
L 189.136291 298.148636 
L 190.846015 299.472176 
L 192.555739 280.056118 
L 194.265464 275.660702 
L 195.975188 258.939536 
L 197.684912 245.724505 
L 199.394637 248.269867 
L 201.104361 248.25064 
L 202.814085 233.623471 
L 204.52381 241.4384 
L 206.233534 231.305305 
L 207.943258 230.970833 
L 209.652982 233.04171 
L 211.362707 232.482964 
L 213.072431 231.009449 
L 214.782155 224.500374 
L 216.49188 234.503515 
L 218.201604 245.173184 
L 219.911328 261.433351 
L 221.621053 264.376872 
L 223.330777 275.216441 
L 225.040501 279.560935 
L 226.750226 288.579004 
L 228.45995 296.309672 
L 230.169674 296.666822 
L 231.879398 297.96339 
L 233.589123 293.005094 
L 235.298847 289.207721 
L 237.008571 287.572994 
L 238.718296 280.308401 
L 240.42802 274.193998 
L 242.137744 272.919602 
L 243.847469 271.069548 
L 245.557193 268.338735 
L 247.266917 280.37024 
L 248.976642 266.066263 
L 250.686366 275.035406 
L 252.39609 269.647713 
L 254.105815 259.028967 
L 255.815539 252.849295 
L 257.525263 255.859589 
L 259.234987 242.81012 
L 260.944712 256.572838 
L 262.654436 243.357807 
L 264.36416 254.027476 
L 266.073885 257.379826 
L 267.783609 246.710158 
L 269.493333 242.671891 
L 271.203058 238.247693 
L 272.912782 237.091586 
L 274.622506 232.27375 
L 276.332231 229.27949 
L 278.041955 238.817699 
L 281.461404 246.031369 
L 283.171128 250.182677 
L 284.880852 243.241897 
L 286.590576 241.635952 
L 288.300301 221.891005 
L 290.010025 220.64221 
L 291.719749 225.629236 
L 293.429474 231.511757 
L 295.139198 220.586424 
L 296.848922 225.921258 
L 298.558647 229.24093 
L 300.268371 219.473609 
L 301.978095 222.457424 
L 303.68782 217.12259 
L 305.397544 213.534161 
L 307.107268 216.264974 
L 308.816992 221.654757 
L 310.526717 225.344706 
L 312.236441 220.25398 
L 313.946165 219.712721 
L 315.65589 213.495679 
L 317.365614 216.37602 
L 319.075338 206.5805 
L 320.785063 204.366686 
L 322.494787 205.921709 
L 324.204511 201.009293 
L 325.914236 199.182525 
L 327.62396 199.86894 
L 329.333684 190.547519 
L 331.043409 212.032762 
L 332.753133 196.545258 
L 334.462857 211.152216 
L 336.172581 212.485271 
L 337.882306 204.115494 
L 339.59203 206.660857 
L 341.301754 192.638837 
L 343.011479 204.823581 
L 344.721203 207.498413 
L 346.430927 202.407687 
L 348.140652 193.367249 
L 349.850376 197.762666 
L 353.269825 208.639073 
L 354.979549 199.575349 
L 356.689273 211.184436 
L 358.398997 205.855401 
L 360.108722 205.982386 
L 361.818446 196.520504 
L 363.52817 200.312874 
L 365.237895 184.035481 
L 366.947619 185.176494 
L 368.657343 195.991015 
L 370.367068 188.158265 
L 372.076792 186.441594 
L 373.786516 192.31693 
L 375.496241 198.806599 
L 377.205965 188.839379 
L 378.915689 186.999484 
L 380.625414 182.753596 
L 382.335138 170.746352 
L 384.044862 168.881601 
L 387.464311 171.806555 
L 389.174035 178.770388 
L 390.883759 186.472275 
L 392.593484 195.239823 
L 394.303208 201.871225 
L 396.012932 200.840937 
L 397.722657 198.005585 
L 399.432381 183.217013 
L 401.142105 189.331416 
L 402.85183 185.526557 
L 404.561554 202.79429 
L 406.271278 209.867499 
L 407.981003 222.416003 
L 409.690727 225.205475 
L 411.400451 222.565532 
L 413.110175 223.847664 
L 414.8199 229.182499 
L 416.529624 223.847664 
L 418.239348 223.032295 
L 419.949073 214.325721 
L 421.658797 210.812512 
L 423.368521 206.661204 
L 425.078246 206.661204 
L 426.78797 198.0199 
L 428.497694 195.142988 
L 430.207419 187.113262 
L 431.917143 187.406932 
L 433.626867 207.783566 
L 435.336591 188.811281 
L 437.046316 179.949154 
L 438.75604 183.192144 
L 440.465764 178.117564 
L 442.175489 158.220207 
L 443.885213 144.70506 
L 445.594937 153.433805 
L 447.304662 154.254382 
L 449.014386 151.042491 
L 450.72411 168.765981 
L 452.433835 167.718781 
L 454.143559 166.160609 
L 455.853283 174.724559 
L 457.563008 181.398176 
L 459.272732 172.942322 
L 460.982456 175.065266 
L 462.69218 175.374643 
L 464.401905 174.340646 
L 467.821353 195.013455 
L 469.531078 200.508138 
L 471.240802 197.296248 
L 472.950526 188.942709 
L 474.660251 190.183446 
L 476.369975 175.089579 
L 478.079699 181.363831 
L 479.789424 178.424831 
L 481.499148 170.967053 
L 483.208872 172.514339 
L 484.918596 178.788591 
L 486.628321 174.992864 
L 488.338045 177.425186 
L 490.047769 182.337601 
L 491.757494 195.035634 
L 493.467218 204.212398 
L 495.176942 201.000508 
L 496.886667 201.422927 
L 498.596391 207.846707 
L 500.306115 210.796028 
L 502.01584 208.126275 
L 503.725564 226.432032 
L 505.435288 234.650917 
L 507.145013 230.306424 
L 508.854737 238.70362 
L 510.564461 254.191124 
L 512.274185 268.473433 
L 513.98391 254.074876 
L 515.693634 254.889026 
L 517.403358 269.228925 
L 519.113083 259.902631 
L 520.822807 254.210647 
L 522.532531 249.345039 
L 524.242256 231.039282 
L 525.95198 219.615646 
L 527.661704 224.76503 
L 529.371429 212.558582 
L 531.081153 203.494859 
L 532.790877 199.616441 
L 534.500602 200.640119 
L 536.210326 196.911229 
L 537.92005 190.119979 
L 539.629774 194.591366 
L 541.339499 198.350942 
L 543.049223 194.987262 
L 544.758947 208.000698 
L 546.468672 211.569738 
L 548.178396 217.411251 
L 549.88812 222.469572 
L 551.597845 215.587451 
L 553.307569 221.469972 
L 555.017293 214.471983 
L 556.727018 216.685797 
L 558.436742 212.669491 
L 560.146466 202.516822 
L 561.85619 181.73097 
L 563.565915 194.523583 
L 565.275639 180.183684 
L 566.985363 181.217682 
L 568.695088 176.305266 
L 570.404812 168.601526 
L 572.114536 167.59684 
L 573.824261 171.872196 
L 575.533985 180.367998 
L 577.243709 183.903701 
L 578.953434 182.297756 
L 580.663158 174.855475 
L 582.372882 182.979781 
L 584.082607 167.463495 
L 585.792331 171.274097 
L 587.502055 167.545208 
L 589.211779 173.365941 
L 590.921504 178.581935 
L 592.631228 186.884551 
L 594.340952 188.577936 
L 596.050677 181.214738 
L 597.760401 189.227365 
L 599.470125 201.502978 
L 601.17985 211.267724 
L 602.889574 211.427573 
L 604.599298 219.326998 
L 606.309023 224.144833 
L 608.018747 225.128665 
L 609.728471 222.339194 
L 611.438195 226.698123 
L 613.14792 224.354356 
L 614.857644 223.330679 
L 616.567368 227.042959 
L 618.277093 214.502599 
L 619.986817 214.502599 
L 621.696541 213.015495 
L 623.406266 223.335724 
L 625.11599 225.311514 
L 626.825714 223.661436 
L 628.535439 229.935688 
L 630.245163 230.875106 
L 631.954887 228.752162 
L 633.664612 243.536651 
L 635.374336 253.06109 
L 637.08406 261.066555 
L 638.793784 265.016267 
L 640.503509 263.99259 
L 642.213233 248.530566 
L 643.922957 246.924621 
L 645.632682 247.25281 
L 647.342406 246.004015 
L 649.05213 252.165225 
L 650.761855 255.650006 
L 652.471579 269.531565 
L 654.181303 263.864299 
L 655.891028 274.882828 
L 657.600752 276.698183 
L 659.310476 277.483552 
L 661.020201 280.092395 
L 662.729925 280.626493 
L 664.439649 284.016693 
L 666.149373 278.503549 
L 667.859098 267.411461 
L 669.568822 267.08079 
L 671.278546 258.307056 
L 672.988271 253.619522 
L 674.697995 251.785502 
L 676.407719 244.575495 
L 678.117444 241.482446 
L 679.827168 232.173251 
L 681.536892 224.565944 
L 683.246617 219.935934 
L 684.956341 210.588879 
L 686.666065 222.258148 
L 688.375789 217.471 
L 690.085514 213.742111 
L 691.795238 211.487529 
L 693.504962 210.833628 
L 695.214687 210.549572 
L 696.924411 212.534628 
L 698.634135 225.74966 
L 700.34386 219.09887 
L 702.053584 201.619489 
L 703.763308 198.631872 
L 705.473033 200.713808 
L 708.892481 197.853042 
L 710.602206 210.691535 
L 712.31193 215.199993 
L 714.021654 214.755613 
L 715.731378 218.240394 
L 717.441103 209.53382 
L 719.150827 192.834008 
L 720.860551 191.650482 
L 722.570276 188.23097 
L 724.28 189.628515 
L 724.28 189.628515 
" style="fill:none;stroke:#ff7f0e;stroke-linecap:square;stroke-width:1.5;"/>
   </g>
   <g id="line2d_19">
    <path clip-path="url(#pde4ea16f42)" d="M 108.779248 257.316842 
L 110.488972 246.84036 
L 112.198697 242.871578 
L 113.908421 243.910252 
L 115.618145 243.654139 
L 117.32787 247.237061 
L 119.037594 249.669382 
L 120.747318 254.08697 
L 122.457043 252.988548 
L 124.166767 255.209966 
L 125.876491 253.087022 
L 127.586216 251.833979 
L 129.29594 254.706206 
L 131.005664 255.494571 
L 132.715388 265.094521 
L 134.425113 276.850765 
L 136.134837 277.939711 
L 137.844561 276.210716 
L 139.554286 276.327559 
L 141.26401 277.458564 
L 142.973734 283.572968 
L 144.683459 285.046483 
L 146.393183 278.926691 
L 148.102907 279.984949 
L 149.812632 280.00921 
L 151.522356 278.403265 
L 153.23208 279.977253 
L 154.941805 280.080243 
L 156.651529 280.008894 
L 158.361253 288.316653 
L 160.070977 291.011545 
L 161.780702 288.940668 
L 163.490426 293.352575 
L 165.20015 288.943569 
L 168.619599 306.055738 
L 170.329323 305.630269 
L 172.039048 308.784053 
L 173.748772 305.13371 
L 175.458496 305.601585 
L 177.168221 304.552586 
L 178.877945 318.757958 
L 180.587669 319.898972 
L 182.297393 323.55189 
L 184.007118 329.190303 
L 185.716842 329.42371 
L 187.426566 326.05197 
L 189.136291 323.327768 
L 190.846015 323.759663 
L 192.555739 314.681725 
L 194.265464 311.892254 
L 195.975188 303.717812 
L 197.684912 302.111867 
L 201.104361 296.575785 
L 202.814085 288.626826 
L 204.52381 281.992274 
L 206.233534 288.724554 
L 207.943258 294.163369 
L 209.652982 295.865711 
L 211.362707 292.761602 
L 213.072431 298.388715 
L 214.782155 301.882781 
L 216.49188 300.276836 
L 218.201604 299.337419 
L 219.911328 298.231246 
L 221.621053 297.962877 
L 223.330777 302.528194 
L 225.040501 291.964271 
L 226.750226 284.987123 
L 228.45995 283.23165 
L 230.169674 285.861272 
L 231.879398 284.612477 
L 233.589123 279.297031 
L 235.298847 269.277473 
L 238.718296 264.389001 
L 240.42802 261.611756 
L 242.137744 266.016066 
L 243.847469 266.15263 
L 245.557193 269.080464 
L 247.266917 265.773994 
L 248.976642 267.695342 
L 250.686366 262.932455 
L 252.39609 256.182925 
L 254.105815 254.270753 
L 255.815539 257.333115 
L 257.525263 258.220465 
L 259.234987 261.870808 
L 260.944712 269.632164 
L 262.654436 269.632164 
L 264.36416 274.229177 
L 266.073885 276.64211 
L 267.783609 274.369637 
L 269.493333 275.666205 
L 271.203058 274.453897 
L 272.912782 277.077602 
L 274.622506 274.805129 
L 276.332231 269.021397 
L 278.041955 275.120706 
L 279.751679 276.333014 
L 281.461404 272.961275 
L 283.171128 267.109442 
L 284.880852 260.168662 
L 286.590576 255.350827 
L 288.300301 250.106777 
L 290.010025 247.645674 
L 291.719749 254.238646 
L 293.429474 267.757255 
L 295.139198 271.738193 
L 296.848922 277.073027 
L 298.558647 275.389413 
L 300.268371 275.108234 
L 301.978095 280.25674 
L 303.68782 274.250119 
L 305.397544 269.862733 
L 308.816992 267.679321 
L 310.526717 268.823907 
L 312.236441 267.302222 
L 313.946165 262.919032 
L 315.65589 264.361364 
L 317.365614 262.995817 
L 320.785063 271.932183 
L 322.494787 267.675435 
L 325.914236 263.082481 
L 327.62396 264.857842 
L 329.333684 262.63705 
L 331.043409 270.907261 
L 332.753133 271.645083 
L 334.462857 269.825119 
L 336.172581 277.188317 
L 337.882306 272.791538 
L 339.59203 274.289702 
L 341.301754 276.028077 
L 343.011479 271.513008 
L 344.721203 279.005675 
L 346.430927 273.91495 
L 348.140652 267.729252 
L 349.850376 272.124669 
L 351.5601 277.459503 
L 353.269825 286.406152 
L 354.979549 286.828571 
L 356.689273 295.170381 
L 358.398997 293.599016 
L 360.108722 291.180638 
L 361.818446 284.508228 
L 363.52817 286.421762 
L 365.237895 278.268675 
L 366.947619 273.919763 
L 368.657343 274.51032 
L 370.367068 271.836695 
L 373.786516 289.038317 
L 375.496241 295.885135 
L 377.205965 296.935258 
L 378.915689 294.630431 
L 380.625414 296.777636 
L 382.335138 298.615464 
L 384.044862 292.820228 
L 385.754586 298.486611 
L 387.464311 300.300448 
L 389.174035 297.817079 
L 390.883759 300.832768 
L 392.593484 305.003303 
L 394.303208 303.659928 
L 396.012932 300.802872 
L 397.722657 300.353034 
L 399.432381 298.779494 
L 401.142105 298.779494 
L 402.85183 292.243821 
L 404.561554 299.508414 
L 406.271278 301.00268 
L 407.981003 305.89181 
L 409.690727 301.223503 
L 411.400451 303.674286 
L 413.110175 304.956418 
L 414.8199 310.291252 
L 416.529624 316.922654 
L 418.239348 319.546185 
L 419.949073 321.50928 
L 421.658797 324.594136 
L 423.368521 327.383607 
L 425.078246 327.654218 
L 426.78797 319.679441 
L 428.497694 313.655908 
L 430.207419 316.051742 
L 431.917143 313.517644 
L 433.626867 320.214315 
L 435.336591 323.344327 
L 437.046316 320.214315 
L 438.75604 320.641946 
L 440.465764 326.118193 
L 442.175489 314.345143 
L 443.885213 307.653651 
L 445.594937 309.10482 
L 447.304662 307.327967 
L 449.014386 299.1794 
L 450.72411 306.899748 
L 452.433835 306.193026 
L 454.143559 302.756018 
L 455.853283 301.00745 
L 457.563008 303.913238 
L 459.272732 308.857865 
L 460.982456 306.444932 
L 464.401905 304.852188 
L 466.111629 309.942914 
L 467.821353 309.520495 
L 469.531078 302.698556 
L 471.240802 306.183337 
L 472.950526 297.829798 
L 474.660251 296.339722 
L 476.369975 290.731997 
L 478.079699 289.643051 
L 479.789424 285.407483 
L 481.499148 275.254813 
L 483.208872 275.618574 
L 484.918596 267.738377 
L 486.628321 268.628055 
L 488.338045 266.783801 
L 490.047769 262.788208 
L 491.757494 263.628417 
L 493.467218 270.542983 
L 495.176942 274.122344 
L 496.886667 272.39549 
L 498.596391 273.263613 
L 500.306115 269.310451 
L 502.01584 266.640698 
L 503.725564 273.337368 
L 505.435288 272.285386 
L 507.145013 276.065197 
L 508.854737 264.61596 
L 510.564461 267.219981 
L 512.274185 273.917528 
L 513.98391 268.937952 
L 515.693634 268.269518 
L 517.403358 273.991399 
L 519.113083 263.05916 
L 520.822807 257.026699 
L 522.532531 244.036785 
L 524.242256 227.336973 
L 525.95198 215.913337 
L 527.661704 196.238603 
L 529.371429 198.720702 
L 531.081153 198.363552 
L 532.790877 194.485135 
L 534.500602 189.566109 
L 536.210326 183.291857 
L 537.92005 194.931631 
L 539.629774 199.588468 
L 541.339499 202.681517 
L 543.049223 198.228891 
L 544.758947 200.572658 
L 546.468672 205.747643 
L 549.88812 212.46875 
L 551.597845 209.315518 
L 553.307569 218.569778 
L 555.017293 210.388263 
L 556.727018 213.868358 
L 558.436742 215.857548 
L 560.146466 217.562702 
L 561.85619 208.385937 
L 563.565915 210.989959 
L 565.275639 211.763645 
L 566.985363 211.41252 
L 568.695088 216.652775 
L 570.404812 214.504692 
L 572.114536 207.076225 
L 573.824261 212.565795 
L 575.533985 210.206478 
L 577.243709 217.538232 
L 578.953434 221.87499 
L 580.663158 217.072652 
L 584.082607 221.683396 
L 585.792331 232.6556 
L 587.502055 234.261545 
L 589.211779 244.426772 
L 590.921504 252.564667 
L 592.631228 274.082314 
L 594.340952 284.172895 
L 596.050677 299.510871 
L 597.760401 296.853829 
L 599.470125 295.785662 
L 601.17985 305.794517 
L 602.889574 309.351706 
L 604.599298 311.015819 
L 606.309023 306.426058 
L 608.018747 303.775581 
L 609.728471 296.561912 
L 611.438195 299.464425 
L 613.14792 294.735144 
L 614.857644 292.105521 
L 616.567368 295.97765 
L 618.277093 292.223081 
L 619.986817 289.255299 
L 621.696541 280.245148 
L 623.406266 289.47643 
L 625.11599 287.372207 
L 626.825714 281.46304 
L 628.535439 279.857095 
L 631.954887 278.501869 
L 633.664612 282.80214 
L 635.374336 283.321513 
L 637.08406 278.111947 
L 638.793784 282.061659 
L 640.503509 287.461762 
L 642.213233 281.223311 
L 643.922957 280.225235 
L 645.632682 277.963071 
L 647.342406 276.714276 
L 649.05213 280.819703 
L 650.761855 277.740243 
L 652.471579 279.768607 
L 654.181303 265.982835 
L 655.891028 266.812773 
L 659.310476 275.362133 
L 661.020201 268.371792 
L 662.729925 263.222195 
L 664.439649 261.853219 
L 669.568822 266.254335 
L 671.278546 263.43104 
L 672.988271 264.978817 
L 674.697995 264.832045 
L 676.407719 268.047598 
L 678.117444 270.045275 
L 679.827168 273.779412 
L 681.536892 277.013473 
L 683.246617 279.174714 
L 684.956341 283.39984 
L 686.666065 282.312024 
L 688.375789 284.738546 
L 690.085514 288.128747 
L 691.795238 287.902529 
L 693.504962 288.854573 
L 695.214687 294.792702 
L 696.924411 299.56723 
L 698.634135 301.654252 
L 700.34386 304.238885 
L 702.053584 295.01624 
L 703.763308 293.153491 
L 705.473033 297.631261 
L 708.892481 294.770495 
L 710.602206 303.476142 
L 712.31193 304.106182 
L 714.021654 306.542144 
L 715.731378 307.90398 
L 717.441103 302.859135 
L 719.150827 305.938596 
L 720.860551 303.036083 
L 722.570276 305.189714 
L 724.28 313.046961 
L 724.28 313.046961 
" style="fill:none;stroke:#2ca02c;stroke-linecap:square;stroke-width:1.5;"/>
   </g>
   <g id="line2d_20">
    <path clip-path="url(#pde4ea16f42)" d="M 108.779248 286.502929 
L 110.488972 285.836402 
L 112.198697 278.976549 
L 115.618145 290.184669 
L 117.32787 290.666933 
L 119.037594 285.512727 
L 120.747318 287.807371 
L 122.457043 287.521855 
L 124.166767 292.675681 
L 125.876491 291.332306 
L 127.586216 295.563627 
L 129.29594 298.435853 
L 131.005664 306.772867 
L 132.715388 316.187366 
L 134.425113 322.264903 
L 136.134837 323.62674 
L 137.844561 324.483403 
L 139.554286 332.401896 
L 141.26401 333.614204 
L 142.973734 339.728608 
L 144.683459 341.202123 
L 146.393183 335.082331 
L 148.102907 324.531503 
L 149.812632 312.946678 
L 151.522356 303.056578 
L 153.23208 291.880466 
L 154.941805 284.882827 
L 156.651529 283.932244 
L 160.070977 289.158414 
L 161.780702 284.964593 
L 163.490426 285.124442 
L 165.20015 281.137855 
L 166.909875 291.209481 
L 168.619599 295.38957 
L 170.329323 300.168982 
L 172.039048 301.175561 
L 173.748772 298.728804 
L 175.458496 299.72688 
L 177.168221 303.754261 
L 178.877945 301.389526 
L 180.587669 310.037851 
L 182.297393 307.933516 
L 184.007118 308.331674 
L 185.716842 311.66574 
L 187.426566 321.637781 
L 189.136291 314.472281 
L 190.846015 314.552629 
L 192.555739 304.097306 
L 194.265464 300.885415 
L 195.975188 292.044446 
L 197.684912 290.438501 
L 199.394637 282.463724 
L 201.104361 279.935055 
L 202.814085 280.050317 
L 204.52381 277.504954 
L 206.233534 280.468051 
L 207.943258 272.41323 
L 209.652982 277.536148 
L 211.362707 270.196472 
L 213.072431 280.332043 
L 214.782155 284.492637 
L 216.49188 294.495778 
L 221.621053 326.651927 
L 223.330777 332.602366 
L 225.040501 329.846232 
L 226.750226 328.819413 
L 228.45995 327.063939 
L 230.169674 328.604616 
L 231.879398 331.234238 
L 233.589123 329.338304 
L 235.298847 324.357404 
L 238.718296 309.955692 
L 240.42802 305.447234 
L 242.137744 307.708541 
L 243.847469 303.313124 
L 245.557193 300.582311 
L 247.266917 307.764881 
L 248.976642 304.552991 
L 250.686366 303.246103 
L 252.39609 299.464355 
L 254.105815 300.454695 
L 255.815539 294.547913 
L 257.525263 303.183031 
L 259.234987 303.641202 
L 260.944712 306.450196 
L 262.654436 306.450196 
L 264.36416 308.056141 
L 266.073885 309.285548 
L 267.783609 311.408492 
L 269.493333 312.610479 
L 271.203058 306.699177 
L 272.912782 309.11211 
L 274.622506 308.023164 
L 276.332231 314.355197 
L 278.041955 316.952627 
L 279.751679 327.218338 
L 281.461404 319.338141 
L 284.880852 305.879 
L 286.590576 304.273055 
L 288.300301 296.055891 
L 290.010025 292.571111 
L 291.719749 302.447267 
L 293.429474 308.329788 
L 295.139198 306.890598 
L 296.848922 312.225432 
L 298.558647 309.954605 
L 300.268371 306.883954 
L 301.978095 306.924249 
L 303.68782 301.166996 
L 305.397544 298.744203 
L 307.107268 296.730738 
L 308.816992 301.031575 
L 312.236441 295.980455 
L 313.946165 290.550065 
L 315.65589 285.51655 
L 317.365614 287.617322 
L 320.785063 289.576988 
L 322.494787 284.636935 
L 324.204511 285.804428 
L 325.914236 283.311132 
L 327.62396 284.724257 
L 329.333684 283.557037 
L 331.043409 291.827249 
L 332.753133 290.738302 
L 334.462857 294.675592 
L 336.172581 290.597842 
L 339.59203 297.090049 
L 341.301754 294.677116 
L 343.011479 293.289679 
L 344.721203 294.358565 
L 346.430927 289.267839 
L 348.140652 275.508172 
L 349.850376 282.567792 
L 351.5601 295.360405 
L 353.269825 302.022024 
L 354.979549 304.567387 
L 356.689273 312.496022 
L 358.398997 313.037282 
L 360.108722 311.867699 
L 361.818446 306.700484 
L 363.52817 311.272422 
L 365.237895 303.701602 
L 366.947619 309.249588 
L 368.657343 314.306856 
L 370.367068 312.676324 
L 372.076792 312.565598 
L 373.786516 319.988222 
L 375.496241 331.222167 
L 377.205965 328.505104 
L 378.915689 330.588442 
L 380.625414 336.345695 
L 382.335138 340.836667 
L 384.044862 337.78839 
L 385.754586 330.502312 
L 387.464311 324.734443 
L 389.174035 318.483245 
L 390.883759 323.616483 
L 392.593484 324.068138 
L 394.303208 316.9103 
L 396.012932 321.096005 
L 397.722657 324.59588 
L 399.432381 323.022339 
L 401.142105 325.924852 
L 402.85183 323.303519 
L 404.561554 335.312388 
L 406.271278 328.231148 
L 407.981003 333.679024 
L 409.690727 331.960037 
L 411.400451 328.737827 
L 413.110175 330.019959 
L 414.8199 335.354793 
L 416.529624 343.136385 
L 418.239348 339.656811 
L 419.949073 329.65367 
L 421.658797 335.690084 
L 423.368521 333.144721 
L 425.078246 332.531837 
L 426.78797 327.837929 
L 428.497694 326.257585 
L 430.207419 327.148224 
L 431.917143 322.595277 
L 433.626867 334.265338 
L 435.336591 322.869672 
L 437.046316 315.282971 
L 438.75604 315.93379 
L 440.465764 324.074242 
L 442.175489 318.575443 
L 443.885213 305.382951 
L 445.594937 306.51624 
L 447.304662 309.609289 
L 449.014386 298.916567 
L 450.72411 305.03097 
L 452.433835 307.35551 
L 455.853283 318.672445 
L 457.563008 325.346062 
L 459.272732 325.95393 
L 460.982456 326.960509 
L 462.69218 331.055986 
L 464.401905 330.021988 
L 466.111629 333.506768 
L 467.821353 333.08435 
L 469.531078 328.575892 
L 471.240802 326.303419 
L 472.950526 316.343935 
L 474.660251 321.73598 
L 476.369975 319.857144 
L 478.079699 319.030768 
L 479.789424 320.243076 
L 481.499148 312.362879 
L 483.208872 311.239535 
L 484.918596 309.116591 
L 486.628321 308.936711 
L 488.338045 310.542656 
L 490.047769 311.178496 
L 491.757494 316.714926 
L 493.467218 314.307789 
L 495.176942 319.001697 
L 496.886667 312.92904 
L 498.596391 310.864755 
L 500.306115 307.295715 
L 502.01584 298.830412 
L 503.725564 310.743076 
L 505.435288 311.336313 
L 507.145013 316.055543 
L 508.854737 311.237707 
L 510.564461 315.116125 
L 512.274185 325.23385 
L 513.98391 316.285842 
L 515.693634 312.885204 
L 517.403358 320.034487 
L 519.113083 308.58525 
L 520.822807 309.524668 
L 522.532531 305.955627 
L 524.242256 303.654373 
L 525.95198 298.749097 
L 527.661704 287.780937 
L 529.371429 292.808399 
L 531.081153 294.414345 
L 532.790877 290.535927 
L 534.500602 287.408296 
L 536.210326 281.134044 
L 539.629774 293.635157 
L 541.339499 293.243426 
L 543.049223 283.288406 
L 544.758947 276.761636 
L 546.468672 281.270094 
L 548.178396 278.896431 
L 549.88812 278.996456 
L 551.597845 277.330328 
L 553.307569 281.851013 
L 555.017293 282.846262 
L 556.727018 289.728383 
L 558.436742 285.969775 
L 560.146466 282.978708 
L 561.85619 281.363286 
L 563.565915 280.08889 
L 565.275639 272.859671 
L 566.985363 273.953851 
L 568.695088 280.406413 
L 570.404812 278.498223 
L 572.114536 272.930561 
L 573.824261 283.556139 
L 575.533985 283.654745 
L 577.243709 285.584503 
L 578.953434 283.978558 
L 580.663158 272.498011 
L 582.372882 276.606011 
L 584.082607 275.974183 
L 585.792331 284.453091 
L 587.502055 286.576035 
L 589.211779 286.738121 
L 590.921504 293.043061 
L 592.631228 301.345677 
L 594.340952 305.584425 
L 596.050677 307.340782 
L 597.760401 295.292178 
L 599.470125 296.475704 
L 601.17985 299.966198 
L 602.889574 301.731992 
L 604.599298 304.673121 
L 606.309023 306.279066 
L 608.018747 301.392603 
L 609.728471 300.287623 
L 611.438195 304.184071 
L 613.14792 306.559534 
L 614.857644 296.359091 
L 616.567368 301.677317 
L 618.277093 298.862166 
L 619.986817 294.102989 
L 621.696541 292.371776 
L 623.406266 294.325908 
L 625.11599 286.385107 
L 626.825714 281.891674 
L 630.245163 287.856549 
L 631.954887 289.130945 
L 633.664612 303.29983 
L 635.374336 305.914177 
L 637.08406 306.039444 
L 638.793784 309.989157 
L 640.503509 313.528455 
L 642.213233 302.361098 
L 643.922957 300.088625 
L 645.632682 298.697827 
L 647.342406 290.752361 
L 649.05213 299.458935 
L 650.761855 295.307627 
L 652.471579 296.913572 
L 654.181303 286.577999 
L 655.891028 291.988804 
L 657.600752 290.945225 
L 659.310476 288.895242 
L 661.020201 289.89814 
L 662.729925 287.529725 
L 664.439649 292.362257 
L 666.149373 303.698453 
L 667.859098 298.07363 
L 669.568822 298.682377 
L 671.278546 295.403325 
L 672.988271 295.674087 
L 674.697995 292.543499 
L 676.407719 293.993259 
L 678.117444 294.972971 
L 679.827168 301.114794 
L 681.536892 302.772806 
L 683.246617 312.654395 
L 686.666065 321.968311 
L 688.375789 329.398118 
L 690.085514 325.669229 
L 691.795238 327.443986 
L 693.504962 335.100731 
L 695.214687 339.133546 
L 696.924411 340.601603 
L 698.634135 339.360867 
L 700.34386 343.379745 
L 702.053584 330.005792 
L 703.763308 327.112755 
L 705.473033 328.011165 
L 708.892481 325.150399 
L 710.602206 328.69094 
L 712.31193 329.470509 
L 714.021654 329.620247 
L 715.731378 338.862281 
L 717.441103 335.490542 
L 719.150827 339.64185 
L 720.860551 338.458324 
L 722.570276 342.252482 
L 724.28 343.405918 
L 724.28 343.405918 
" style="fill:none;stroke:#d62728;stroke-linecap:square;stroke-width:1.5;"/>
   </g>
   <g id="line2d_21">
    <path clip-path="url(#pde4ea16f42)" d="M 108.779248 274.271945 
L 110.488972 264.177934 
L 112.198697 263.703941 
L 115.618145 274.440943 
L 117.32787 282.8417 
L 119.037594 286.053591 
L 120.747318 289.841138 
L 122.457043 295.214269 
L 124.166767 302.819645 
L 125.876491 300.696701 
L 127.586216 300.682133 
L 129.29594 302.180297 
L 131.005664 304.361899 
L 132.715388 310.655378 
L 134.425113 309.973353 
L 136.134837 302.937994 
L 137.844561 301.552872 
L 139.554286 309.471366 
L 141.26401 301.34706 
L 142.973734 307.461463 
L 144.683459 308.934978 
L 146.393183 309.465977 
L 148.102907 305.855928 
L 149.812632 311.065495 
L 151.522356 317.762166 
L 153.23208 321.067366 
L 154.941805 323.358569 
L 156.651529 327.152263 
L 158.361253 329.296495 
L 160.070977 333.174913 
L 161.780702 326.628915 
L 163.490426 324.102941 
L 165.20015 323.845243 
L 166.909875 335.100395 
L 172.039048 347.783538 
L 173.748772 348.205957 
L 175.458496 347.598088 
L 177.168221 351.268318 
L 178.877945 355.547866 
L 180.587669 357.654776 
L 182.297393 354.611024 
L 184.007118 356.615128 
L 185.716842 352.030699 
L 187.426566 352.697227 
L 189.136291 348.724229 
L 190.846015 350.987186 
L 192.555739 341.057271 
L 195.975188 332.066774 
L 197.684912 330.460829 
L 201.104361 323.107185 
L 202.814085 327.27399 
L 204.52381 334.422391 
L 206.233534 342.416744 
L 207.943258 342.082272 
L 209.652982 349.910402 
L 211.362707 345.07508 
L 213.072431 355.210651 
L 214.782155 358.704718 
L 216.49188 368.707859 
L 218.201604 367.768441 
L 219.911328 372.936521 
L 221.621053 375.880042 
L 223.330777 376.716469 
L 225.040501 371.057822 
L 226.750226 370.775199 
L 228.45995 366.230254 
L 230.169674 371.306633 
L 231.879398 371.953773 
L 233.589123 369.540839 
L 235.298847 365.743466 
L 237.008571 363.169321 
L 240.42802 348.850908 
L 242.137744 347.576512 
L 243.847469 345.726458 
L 245.557193 342.995645 
L 247.266917 339.746385 
L 248.976642 327.405502 
L 250.686366 319.430725 
L 252.39609 304.039891 
L 254.105815 305.030231 
L 255.815539 301.668812 
L 257.525263 301.776594 
L 259.234987 298.730266 
L 260.944712 301.823316 
L 262.654436 301.823316 
L 264.36416 302.489843 
L 266.073885 303.71925 
L 267.783609 303.71925 
L 269.493333 305.278388 
L 271.203058 302.216026 
L 272.912782 303.332391 
L 276.332231 300.611021 
L 278.041955 301.180087 
L 279.751679 308.941443 
L 281.461404 301.061246 
L 283.171128 295.209413 
L 284.880852 288.268633 
L 286.590576 284.117325 
L 288.300301 277.587409 
L 290.010025 275.399196 
L 293.429474 287.565312 
L 295.139198 285.609122 
L 296.848922 292.549902 
L 298.558647 292.756289 
L 301.978095 298.765395 
L 303.68782 293.430561 
L 305.397544 290.264551 
L 307.107268 286.465448 
L 308.816992 292.37223 
L 310.526717 295.54518 
L 312.236441 290.454454 
L 313.946165 288.616627 
L 315.65589 296.312243 
L 317.365614 309.195726 
L 319.075338 318.109921 
L 320.785063 329.111138 
L 322.494787 325.997854 
L 324.204511 327.805395 
L 327.62396 322.870883 
L 329.333684 324.73613 
L 331.043409 333.006341 
L 332.753133 332.339814 
L 334.462857 337.460629 
L 336.172581 338.127157 
L 337.882306 341.366466 
L 339.59203 341.216938 
L 341.301754 338.804005 
L 343.011479 338.713135 
L 344.721203 339.782021 
L 346.430927 337.903186 
L 348.140652 328.862748 
L 349.850376 338.592999 
L 351.5601 352.991556 
L 353.269825 360.2498 
L 354.979549 360.005692 
L 356.689273 362.394297 
L 358.398997 350.609524 
L 360.108722 348.857673 
L 361.818446 340.011396 
L 363.52817 341.31047 
L 365.237895 333.157383 
L 366.947619 337.411681 
L 368.657343 339.162478 
L 370.367068 336.908671 
L 372.076792 338.466513 
L 373.786516 344.192321 
L 375.496241 357.211905 
L 377.205965 356.0643 
L 378.915689 354.741404 
L 380.625414 358.375713 
L 382.335138 359.274123 
L 384.044862 356.711745 
L 385.754586 348.129099 
L 387.464311 342.53293 
L 389.174035 336.281732 
L 390.883759 327.979116 
L 392.593484 321.207092 
L 394.303208 315.985299 
L 396.012932 319.772847 
L 397.722657 316.420496 
L 399.432381 314.846956 
L 401.142105 319.355414 
L 402.85183 314.611137 
L 404.561554 321.875729 
L 406.271278 317.339852 
L 407.981003 323.097105 
L 409.690727 321.378118 
L 411.400451 317.441608 
L 413.110175 318.72374 
L 414.8199 324.058574 
L 416.529624 327.120936 
L 418.239348 320.970732 
L 419.949073 304.557642 
L 421.658797 308.813905 
L 423.368521 308.391486 
L 425.078246 311.854714 
L 426.78797 317.001658 
L 428.497694 316.003582 
L 430.207419 316.844394 
L 431.917143 318.964832 
L 433.626867 331.21716 
L 435.336591 322.248016 
L 437.046316 319.302991 
L 438.75604 316.967038 
L 440.465764 317.681668 
L 442.175489 310.059926 
L 443.885213 298.015721 
L 445.594937 295.13538 
L 447.304662 295.955956 
L 449.014386 286.58054 
L 450.72411 292.694943 
L 452.433835 295.120968 
L 454.143559 305.171882 
L 457.563008 318.446355 
L 459.272732 330.66331 
L 460.982456 339.482925 
L 462.69218 343.521191 
L 464.401905 342.487193 
L 466.111629 345.971974 
L 467.821353 345.549555 
L 469.531078 341.041097 
L 471.240802 339.708042 
L 472.950526 329.748558 
L 474.660251 332.59524 
L 476.369975 330.716405 
L 478.079699 329.890028 
L 479.789424 330.520069 
L 481.499148 322.639871 
L 483.208872 325.126576 
L 484.918596 323.003632 
L 486.628321 324.702588 
L 488.338045 333.902007 
L 490.047769 333.526396 
L 491.757494 343.012538 
L 493.467218 346.33747 
L 495.176942 348.341573 
L 496.886667 348.763992 
L 498.596391 355.187773 
L 500.306115 349.317478 
L 502.01584 344.102362 
L 503.725564 352.404978 
L 505.435288 352.248839 
L 507.145013 356.968069 
L 508.854737 351.343245 
L 510.564461 352.009773 
L 512.274185 363.881722 
L 513.98391 361.092251 
L 515.693634 359.633928 
L 517.403358 372.257157 
L 519.113083 361.991446 
L 520.822807 364.435323 
L 522.532531 357.963769 
L 524.242256 354.836139 
L 525.95198 349.465932 
L 527.661704 343.00623 
L 529.371429 339.642682 
L 531.081153 340.5821 
L 532.790877 336.703682 
L 534.500602 334.515469 
L 536.210326 328.241217 
L 537.92005 329.847162 
L 539.629774 335.924495 
L 541.339499 340.623489 
L 543.049223 334.292027 
L 544.758947 333.423904 
L 546.468672 337.932362 
L 548.178396 341.501402 
L 549.88812 344.14679 
L 551.597845 338.870614 
L 553.307569 344.753135 
L 555.017293 345.475494 
L 556.727018 343.003902 
L 558.436742 341.182575 
L 560.146466 337.453685 
L 561.85619 325.374408 
L 563.565915 326.557934 
L 565.275639 317.476899 
L 566.985363 315.816005 
L 568.695088 320.549581 
L 572.114536 309.933891 
L 573.824261 313.553885 
L 575.533985 312.046546 
L 577.243709 311.054403 
L 578.953434 312.660348 
L 580.663158 295.487816 
L 582.372882 281.999895 
L 584.082607 278.242224 
L 585.792331 282.052825 
L 587.502055 269.777212 
L 589.211779 263.988859 
L 590.921504 262.235291 
L 592.631228 270.537907 
L 594.340952 276.847532 
L 596.050677 278.970476 
L 597.760401 279.840728 
L 599.470125 280.286432 
L 601.17985 285.233343 
L 602.889574 286.059719 
L 604.599298 293.959144 
L 606.309023 298.25998 
L 608.018747 297.881976 
L 609.728471 294.670086 
L 611.438195 298.512016 
L 613.14792 295.228832 
L 614.857644 291.659791 
L 616.567368 296.038599 
L 618.277093 292.28403 
L 619.986817 287.710303 
L 621.696541 286.223199 
L 623.406266 288.177331 
L 625.11599 292.988474 
L 626.825714 294.948444 
L 630.245163 300.913319 
L 631.954887 298.790375 
L 633.664612 308.316 
L 635.374336 311.049188 
L 637.08406 311.954025 
L 638.793784 315.903737 
L 640.503509 319.332686 
L 642.213233 312.710513 
L 643.922957 309.921041 
L 645.632682 313.757296 
L 647.342406 312.508501 
L 649.05213 327.905135 
L 650.761855 338.292398 
L 652.471579 342.021287 
L 654.181303 331.077846 
L 655.891028 351.582517 
L 657.600752 361.522178 
L 659.310476 366.214746 
L 661.020201 367.217644 
L 662.729925 361.637338 
L 664.439649 361.39323 
L 666.149373 359.70758 
L 667.859098 361.11193 
L 669.568822 363.993149 
L 671.278546 363.343721 
L 674.697995 354.276804 
L 676.407719 352.534061 
L 678.117444 350.529958 
L 679.827168 350.040378 
L 681.536892 350.979796 
L 683.246617 355.413509 
L 684.956341 356.069595 
L 686.666065 361.788425 
L 688.375789 369.032782 
L 690.085514 365.303893 
L 691.795238 359.613754 
L 693.504962 357.598016 
L 695.214687 357.31396 
L 696.924411 359.965544 
L 698.634135 363.599853 
L 700.34386 362.800896 
L 702.053584 354.807657 
L 703.763308 351.82004 
L 705.473033 353.901976 
L 708.892481 351.04121 
L 710.602206 359.092556 
L 712.31193 365.723958 
L 714.021654 371.257654 
L 715.731378 374.742434 
L 717.441103 367.470106 
L 719.150827 370.297874 
L 720.860551 369.780875 
L 722.570276 374.182902 
L 724.28 375.580447 
L 724.28 375.580447 
" style="fill:none;stroke:#9467bd;stroke-linecap:square;stroke-width:1.5;"/>
   </g>
   <g id="line2d_22">
    <path clip-path="url(#pde4ea16f42)" d="M 108.779248 314.190971 
L 110.488972 308.370237 
L 112.198697 299.189671 
L 113.908421 293.859513 
L 115.618145 284.741272 
L 117.32787 293.808557 
L 119.037594 304.318377 
L 120.747318 297.793406 
L 122.457043 302.500009 
L 124.166767 297.608948 
L 125.876491 284.816335 
L 127.586216 287.197602 
L 129.29594 286.45978 
L 131.005664 289.063801 
L 132.715388 299.409983 
L 134.425113 305.805064 
L 136.134837 305.710484 
L 137.844561 310.421304 
L 139.554286 318.339797 
L 141.26401 317.874866 
L 142.973734 326.534632 
L 144.683459 319.301574 
L 146.393183 313.671361 
L 149.812632 286.558024 
L 151.522356 275.888355 
L 153.23208 262.885475 
L 154.941805 258.433199 
L 156.651529 250.024838 
L 158.361253 248.108632 
L 160.070977 248.581974 
L 161.780702 234.902011 
L 165.20015 215.577449 
L 166.909875 214.706515 
L 168.619599 209.240614 
L 170.329323 200.197125 
L 172.039048 194.412453 
L 173.748772 186.015257 
L 177.168221 167.465391 
L 178.877945 165.405928 
L 180.587669 167.512838 
L 182.297393 167.014449 
L 184.007118 170.624497 
L 185.716842 152.825037 
L 187.426566 144.183733 
L 190.846015 130.234566 
L 192.555739 121.488177 
L 194.265464 114.547398 
L 195.975188 99.009758 
L 197.684912 85.794727 
L 199.394637 70.456751 
L 201.104361 60.951382 
L 202.814085 46.324213 
L 204.52381 46.531834 
L 206.233534 49.886662 
L 207.943258 46.45914 
L 209.652982 47.811422 
L 211.362707 43.683636 
L 213.072431 48.16056 
L 214.782155 53.260572 
L 216.49188 63.263713 
L 218.201604 73.933381 
L 221.621053 105.685573 
L 223.330777 114.402198 
L 225.040501 118.746692 
L 228.45995 133.889485 
L 230.169674 144.916303 
L 231.879398 152.932827 
L 233.589123 158.6442 
L 235.298847 164.849967 
L 237.008571 174.824327 
L 238.718296 179.168821 
L 240.42802 182.784669 
L 242.137744 190.996414 
L 243.847469 200.755447 
L 245.557193 209.63372 
L 247.266917 219.119863 
L 248.976642 219.986301 
L 250.686366 226.052932 
L 252.39609 227.937567 
L 254.105815 238.658158 
L 255.815539 243.421045 
L 257.525263 254.311537 
L 259.234987 259.389515 
L 260.944712 273.152233 
L 262.654436 282.638375 
L 264.36416 293.308043 
L 266.073885 306.146536 
L 267.783609 314.966151 
L 269.493333 320.414027 
L 271.203058 325.053552 
L 272.912782 324.563972 
L 274.622506 318.449569 
L 276.332231 318.548358 
L 278.041955 316.99448 
L 279.751679 321.502938 
L 281.461404 324.395399 
L 283.171128 324.395399 
L 284.880852 327.457761 
L 286.590576 325.851816 
L 288.300301 317.715954 
L 290.010025 316.616688 
L 291.719749 323.726659 
L 293.429474 329.609179 
L 295.139198 327.56212 
L 296.848922 332.896954 
L 298.558647 333.206332 
L 300.268371 335.268919 
L 301.978095 338.252735 
L 303.68782 332.9179 
L 305.397544 329.329472 
L 307.107268 328.007583 
L 308.816992 333.247837 
L 310.526717 335.641218 
L 312.236441 330.550492 
L 313.946165 330.009233 
L 315.65589 329.127025 
L 317.365614 337.50976 
L 319.075338 339.680476 
L 320.785063 343.409366 
L 322.494787 343.940711 
L 324.204511 348.092019 
L 325.914236 347.091627 
L 327.62396 349.139878 
L 329.333684 350.488126 
L 331.043409 362.487226 
L 332.753133 360.214754 
L 334.462857 365.335569 
L 336.172581 367.185623 
L 337.882306 368.818987 
L 339.59203 371.786769 
L 341.301754 370.979781 
L 343.011479 372.852006 
L 344.721203 375.526838 
L 346.430927 374.58742 
L 348.140652 366.12925 
L 349.850376 366.016208 
L 351.5601 372.29046 
L 353.269825 367.828892 
L 354.979549 367.162365 
L 356.689273 367.162365 
L 358.398997 362.350329 
L 360.108722 362.477313 
L 361.818446 359.956211 
L 363.52817 364.600558 
L 365.237895 357.029739 
L 366.947619 361.181047 
L 368.657343 363.175953 
L 370.367068 355.343203 
L 372.076792 359.900784 
L 373.786516 363.503648 
L 375.496241 371.143505 
L 378.915689 370.1191 
L 380.625414 377.482299 
L 382.335138 377.084141 
L 384.044862 372.429918 
L 387.464311 378.566763 
L 389.174035 382.985233 
L 390.883759 386.131855 
L 392.593484 384.675438 
L 394.303208 384.206212 
L 396.012932 385.298868 
L 397.722657 379.918154 
L 399.432381 373.009779 
L 401.142105 374.972874 
L 402.85183 368.265502 
L 404.561554 371.801205 
L 406.271278 368.871273 
L 407.981003 368.204745 
L 409.690727 367.265328 
L 411.400451 365.047804 
L 413.110175 366.329936 
L 414.8199 371.66477 
L 416.529624 379.902117 
L 418.239348 381.403096 
L 419.949073 373.36305 
L 421.658797 380.519509 
L 423.368521 381.186037 
L 425.078246 385.63352 
L 426.78797 384.872413 
L 428.497694 378.598161 
L 430.207419 376.842687 
L 431.917143 375.286303 
L 433.626867 386.956364 
L 435.336591 379.593165 
L 437.046316 379.794761 
L 438.75604 383.037751 
L 440.465764 384.90395 
L 442.175489 378.888153 
L 443.885213 374.793879 
L 445.594937 374.816051 
L 447.304662 373.29286 
L 449.014386 366.86908 
L 450.72411 372.983483 
L 452.433835 374.413162 
L 454.143559 371.249044 
L 455.853283 369.143326 
L 457.563008 365.147275 
L 459.272732 362.026254 
L 460.982456 364.370021 
L 462.69218 363.073454 
L 464.401905 362.039456 
L 467.821353 371.798488 
L 469.531078 366.350613 
L 471.240802 365.374708 
L 472.950526 360.750058 
L 474.660251 363.59674 
L 476.369975 362.234903 
L 478.079699 360.628958 
L 479.789424 360.47943 
L 481.499148 354.205178 
L 483.208872 356.691882 
L 484.918596 348.454535 
L 486.628321 346.714591 
L 488.338045 349.146912 
L 490.047769 350.040449 
L 491.757494 356.624079 
L 493.467218 361.35336 
L 495.176942 361.870359 
L 496.886667 361.35336 
L 498.596391 363.268683 
L 500.306115 357.599984 
L 502.01584 349.689976 
L 503.725564 356.386647 
L 505.435288 355.297701 
L 507.145013 358.833404 
L 508.854737 354.015569 
L 510.564461 357.893986 
L 512.274185 362.927123 
L 513.98391 355.938571 
L 515.693634 358.739338 
L 517.403358 363.076096 
L 519.113083 350.265022 
L 520.822807 342.096159 
L 522.532531 327.22741 
L 524.242256 308.921653 
L 525.95198 304.770345 
L 527.661704 302.039532 
L 529.371429 303.048116 
L 531.081153 304.654061 
L 532.790877 300.775643 
L 534.500602 299.253958 
L 536.210326 292.979706 
L 537.92005 301.282322 
L 539.629774 308.965599 
L 541.339499 312.725176 
L 543.049223 307.333132 
L 544.758947 310.343426 
L 548.178396 319.087452 
L 549.88812 322.962247 
L 551.597845 317.686071 
L 553.307569 325.109268 
L 555.017293 326.348626 
L 560.146466 314.589757 
L 561.85619 302.867629 
L 563.565915 300.322266 
L 565.275639 296.269564 
L 566.985363 296.477186 
L 568.695088 302.305733 
L 570.404812 299.842248 
L 572.114536 298.480411 
L 573.824261 302.642726 
L 575.533985 301.379495 
L 577.243709 304.915198 
L 578.953434 303.309253 
L 580.663158 296.052423 
L 582.372882 294.530737 
L 584.082607 290.980688 
L 585.792331 296.397235 
L 587.502055 297.336652 
L 589.211779 311.037583 
L 590.921504 325.739719 
L 592.631228 347.257366 
L 594.340952 351.164565 
L 596.050677 354.471036 
L 597.760401 350.452157 
L 599.470125 350.696266 
L 601.17985 357.558499 
L 602.889574 357.718348 
L 604.599298 365.617773 
L 606.309023 367.223718 
L 608.018747 365.662187 
L 609.728471 362.093147 
L 611.438195 365.935078 
L 613.14792 360.19397 
L 614.857644 349.802991 
L 616.567368 350.969909 
L 618.277093 347.493272 
L 619.986817 342.562395 
L 621.696541 342.437128 
L 623.406266 339.542325 
L 625.11599 338.512964 
L 626.825714 330.071635 
L 628.535439 323.130856 
L 630.245163 315.00655 
L 631.954887 305.942826 
L 633.664612 303.16779 
L 635.374336 294.808891 
L 637.08406 294.41716 
L 638.793784 298.366872 
L 640.503509 286.091259 
L 642.213233 271.925803 
L 643.922957 272.198693 
L 645.632682 263.040739 
L 647.342406 260.185999 
L 649.05213 266.836789 
L 650.761855 271.927515 
L 652.471579 273.016461 
L 654.181303 266.409778 
L 655.891028 275.305363 
L 657.600752 270.238597 
L 659.310476 267.930916 
L 661.020201 267.994397 
L 662.729925 267.748926 
L 664.439649 268.128831 
L 666.149373 270.918303 
L 667.859098 271.857721 
L 669.568822 271.217672 
L 671.278546 269.235189 
L 672.988271 264.547654 
L 674.697995 261.107689 
L 676.407719 260.998311 
L 678.117444 258.684831 
L 679.827168 260.984722 
L 681.536892 265.838479 
L 683.246617 278.033549 
L 684.956341 279.356162 
L 686.666065 281.444709 
L 688.375789 288.529217 
L 690.085514 284.800328 
L 691.795238 285.757637 
L 693.504962 292.204364 
L 695.214687 299.378086 
L 696.924411 312.032811 
L 700.34386 334.620943 
L 702.053584 337.147845 
L 703.763308 345.346895 
L 705.473033 346.245305 
L 707.182757 344.840956 
L 708.892481 352.448263 
L 710.602206 364.103229 
L 712.31193 367.94516 
L 714.021654 376.986922 
L 715.731378 382.077648 
L 717.441103 375.426857 
L 719.150827 370.336132 
L 720.860551 369.396714 
L 722.570276 367.856038 
L 724.28 370.193001 
L 724.28 370.193001 
" style="fill:none;stroke:#8c564b;stroke-linecap:square;stroke-width:1.5;"/>
   </g>
   <g id="patch_3">
    <path d="M 42.1 404.12 
L 42.1 26.52 
" style="fill:none;stroke:#000000;stroke-linecap:square;stroke-linejoin:miter;stroke-width:0.8;"/>
   </g>
   <g id="patch_4">
    <path d="M 724.28 404.12 
L 724.28 26.52 
" style="fill:none;stroke:#000000;stroke-linecap:square;stroke-linejoin:miter;stroke-width:0.8;"/>
   </g>
   <g id="patch_5">
    <path d="M 42.1 404.12 
L 724.28 404.12 
" style="fill:none;stroke:#000000;stroke-linecap:square;stroke-linejoin:miter;stroke-width:0.8;"/>
   </g>
   <g id="patch_6">
    <path d="M 42.1 26.52 
L 724.28 26.52 
" style="fill:none;stroke:#000000;stroke-linecap:square;stroke-linejoin:miter;stroke-width:0.8;"/>
   </g>
   <g id="text_17">
    <!-- gridworld_5x5_20_1_20_1337: episode duration in steps log-relative to `htm_0`, MA=40 -->
    <defs>
     <path d="M 45.40625 27.984375 
Q 45.40625 37.75 41.375 43.109375 
Q 37.359375 48.484375 30.078125 48.484375 
Q 22.859375 48.484375 18.828125 43.109375 
Q 14.796875 37.75 14.796875 27.984375 
Q 14.796875 18.265625 18.828125 12.890625 
Q 22.859375 7.515625 30.078125 7.515625 
Q 37.359375 7.515625 41.375 12.890625 
Q 45.40625 18.265625 45.40625 27.984375 
z
M 54.390625 6.78125 
Q 54.390625 -7.171875 48.1875 -13.984375 
Q 42 -20.796875 29.203125 -20.796875 
Q 24.46875 -20.796875 20.265625 -20.09375 
Q 16.0625 -19.390625 12.109375 -17.921875 
L 12.109375 -9.1875 
Q 16.0625 -11.328125 19.921875 -12.34375 
Q 23.78125 -13.375 27.78125 -13.375 
Q 36.625 -13.375 41.015625 -8.765625 
Q 45.40625 -4.15625 45.40625 5.171875 
L 45.40625 9.625 
Q 42.625 4.78125 38.28125 2.390625 
Q 33.9375 0 27.875 0 
Q 17.828125 0 11.671875 7.65625 
Q 5.515625 15.328125 5.515625 27.984375 
Q 5.515625 40.671875 11.671875 48.328125 
Q 17.828125 56 27.875 56 
Q 33.9375 56 38.28125 53.609375 
Q 42.625 51.21875 45.40625 46.390625 
L 45.40625 54.6875 
L 54.390625 54.6875 
z
" id="DejaVuSans-103"/>
     <path d="M 41.109375 46.296875 
Q 39.59375 47.171875 37.8125 47.578125 
Q 36.03125 48 33.890625 48 
Q 26.265625 48 22.1875 43.046875 
Q 18.109375 38.09375 18.109375 28.8125 
L 18.109375 0 
L 9.078125 0 
L 9.078125 54.6875 
L 18.109375 54.6875 
L 18.109375 46.1875 
Q 20.953125 51.171875 25.484375 53.578125 
Q 30.03125 56 36.53125 56 
Q 37.453125 56 38.578125 55.875 
Q 39.703125 55.765625 41.0625 55.515625 
z
" id="DejaVuSans-114"/>
     <path d="M 9.421875 54.6875 
L 18.40625 54.6875 
L 18.40625 0 
L 9.421875 0 
z
M 9.421875 75.984375 
L 18.40625 75.984375 
L 18.40625 64.59375 
L 9.421875 64.59375 
z
" id="DejaVuSans-105"/>
     <path d="M 45.40625 46.390625 
L 45.40625 75.984375 
L 54.390625 75.984375 
L 54.390625 0 
L 45.40625 0 
L 45.40625 8.203125 
Q 42.578125 3.328125 38.25 0.953125 
Q 33.9375 -1.421875 27.875 -1.421875 
Q 17.96875 -1.421875 11.734375 6.484375 
Q 5.515625 14.40625 5.515625 27.296875 
Q 5.515625 40.1875 11.734375 48.09375 
Q 17.96875 56 27.875 56 
Q 33.9375 56 38.25 53.625 
Q 42.578125 51.265625 45.40625 46.390625 
z
M 14.796875 27.296875 
Q 14.796875 17.390625 18.875 11.75 
Q 22.953125 6.109375 30.078125 6.109375 
Q 37.203125 6.109375 41.296875 11.75 
Q 45.40625 17.390625 45.40625 27.296875 
Q 45.40625 37.203125 41.296875 42.84375 
Q 37.203125 48.484375 30.078125 48.484375 
Q 22.953125 48.484375 18.875 42.84375 
Q 14.796875 37.203125 14.796875 27.296875 
z
" id="DejaVuSans-100"/>
     <path d="M 4.203125 54.6875 
L 13.1875 54.6875 
L 24.421875 12.015625 
L 35.59375 54.6875 
L 46.1875 54.6875 
L 57.421875 12.015625 
L 68.609375 54.6875 
L 77.59375 54.6875 
L 63.28125 0 
L 52.6875 0 
L 40.921875 44.828125 
L 29.109375 0 
L 18.5 0 
z
" id="DejaVuSans-119"/>
     <path d="M 30.609375 48.390625 
Q 23.390625 48.390625 19.1875 42.75 
Q 14.984375 37.109375 14.984375 27.296875 
Q 14.984375 17.484375 19.15625 11.84375 
Q 23.34375 6.203125 30.609375 6.203125 
Q 37.796875 6.203125 41.984375 11.859375 
Q 46.1875 17.53125 46.1875 27.296875 
Q 46.1875 37.015625 41.984375 42.703125 
Q 37.796875 48.390625 30.609375 48.390625 
z
M 30.609375 56 
Q 42.328125 56 49.015625 48.375 
Q 55.71875 40.765625 55.71875 27.296875 
Q 55.71875 13.875 49.015625 6.21875 
Q 42.328125 -1.421875 30.609375 -1.421875 
Q 18.84375 -1.421875 12.171875 6.21875 
Q 5.515625 13.875 5.515625 27.296875 
Q 5.515625 40.765625 12.171875 48.375 
Q 18.84375 56 30.609375 56 
z
" id="DejaVuSans-111"/>
     <path d="M 9.421875 75.984375 
L 18.40625 75.984375 
L 18.40625 0 
L 9.421875 0 
z
" id="DejaVuSans-108"/>
     <path d="M 50.984375 -16.609375 
L 50.984375 -23.578125 
L -0.984375 -23.578125 
L -0.984375 -16.609375 
z
" id="DejaVuSans-95"/>
     <path d="M 54.890625 54.6875 
L 35.109375 28.078125 
L 55.90625 0 
L 45.3125 0 
L 29.390625 21.484375 
L 13.484375 0 
L 2.875 0 
L 24.125 28.609375 
L 4.6875 54.6875 
L 15.28125 54.6875 
L 29.78125 35.203125 
L 44.28125 54.6875 
z
" id="DejaVuSans-120"/>
     <path d="M 8.203125 72.90625 
L 55.078125 72.90625 
L 55.078125 68.703125 
L 28.609375 0 
L 18.3125 0 
L 43.21875 64.59375 
L 8.203125 64.59375 
z
" id="DejaVuSans-55"/>
     <path d="M 11.71875 12.40625 
L 22.015625 12.40625 
L 22.015625 0 
L 11.71875 0 
z
M 11.71875 51.703125 
L 22.015625 51.703125 
L 22.015625 39.3125 
L 11.71875 39.3125 
z
" id="DejaVuSans-58"/>
     <path id="DejaVuSans-32"/>
     <path d="M 56.203125 29.59375 
L 56.203125 25.203125 
L 14.890625 25.203125 
Q 15.484375 15.921875 20.484375 11.0625 
Q 25.484375 6.203125 34.421875 6.203125 
Q 39.59375 6.203125 44.453125 7.46875 
Q 49.3125 8.734375 54.109375 11.28125 
L 54.109375 2.78125 
Q 49.265625 0.734375 44.1875 -0.34375 
Q 39.109375 -1.421875 33.890625 -1.421875 
Q 20.796875 -1.421875 13.15625 6.1875 
Q 5.515625 13.8125 5.515625 26.8125 
Q 5.515625 40.234375 12.765625 48.109375 
Q 20.015625 56 32.328125 56 
Q 43.359375 56 49.78125 48.890625 
Q 56.203125 41.796875 56.203125 29.59375 
z
M 47.21875 32.234375 
Q 47.125 39.59375 43.09375 43.984375 
Q 39.0625 48.390625 32.421875 48.390625 
Q 24.90625 48.390625 20.390625 44.140625 
Q 15.875 39.890625 15.1875 32.171875 
z
" id="DejaVuSans-101"/>
     <path d="M 18.109375 8.203125 
L 18.109375 -20.796875 
L 9.078125 -20.796875 
L 9.078125 54.6875 
L 18.109375 54.6875 
L 18.109375 46.390625 
Q 20.953125 51.265625 25.265625 53.625 
Q 29.59375 56 35.59375 56 
Q 45.5625 56 51.78125 48.09375 
Q 58.015625 40.1875 58.015625 27.296875 
Q 58.015625 14.40625 51.78125 6.484375 
Q 45.5625 -1.421875 35.59375 -1.421875 
Q 29.59375 -1.421875 25.265625 0.953125 
Q 20.953125 3.328125 18.109375 8.203125 
z
M 48.6875 27.296875 
Q 48.6875 37.203125 44.609375 42.84375 
Q 40.53125 48.484375 33.40625 48.484375 
Q 26.265625 48.484375 22.1875 42.84375 
Q 18.109375 37.203125 18.109375 27.296875 
Q 18.109375 17.390625 22.1875 11.75 
Q 26.265625 6.109375 33.40625 6.109375 
Q 40.53125 6.109375 44.609375 11.75 
Q 48.6875 17.390625 48.6875 27.296875 
z
" id="DejaVuSans-112"/>
     <path d="M 44.28125 53.078125 
L 44.28125 44.578125 
Q 40.484375 46.53125 36.375 47.5 
Q 32.28125 48.484375 27.875 48.484375 
Q 21.1875 48.484375 17.84375 46.4375 
Q 14.5 44.390625 14.5 40.28125 
Q 14.5 37.15625 16.890625 35.375 
Q 19.28125 33.59375 26.515625 31.984375 
L 29.59375 31.296875 
Q 39.15625 29.25 43.1875 25.515625 
Q 47.21875 21.78125 47.21875 15.09375 
Q 47.21875 7.46875 41.1875 3.015625 
Q 35.15625 -1.421875 24.609375 -1.421875 
Q 20.21875 -1.421875 15.453125 -0.5625 
Q 10.6875 0.296875 5.421875 2 
L 5.421875 11.28125 
Q 10.40625 8.6875 15.234375 7.390625 
Q 20.0625 6.109375 24.8125 6.109375 
Q 31.15625 6.109375 34.5625 8.28125 
Q 37.984375 10.453125 37.984375 14.40625 
Q 37.984375 18.0625 35.515625 20.015625 
Q 33.0625 21.96875 24.703125 23.78125 
L 21.578125 24.515625 
Q 13.234375 26.265625 9.515625 29.90625 
Q 5.8125 33.546875 5.8125 39.890625 
Q 5.8125 47.609375 11.28125 51.796875 
Q 16.75 56 26.8125 56 
Q 31.78125 56 36.171875 55.265625 
Q 40.578125 54.546875 44.28125 53.078125 
z
" id="DejaVuSans-115"/>
     <path d="M 8.5 21.578125 
L 8.5 54.6875 
L 17.484375 54.6875 
L 17.484375 21.921875 
Q 17.484375 14.15625 20.5 10.265625 
Q 23.53125 6.390625 29.59375 6.390625 
Q 36.859375 6.390625 41.078125 11.03125 
Q 45.3125 15.671875 45.3125 23.6875 
L 45.3125 54.6875 
L 54.296875 54.6875 
L 54.296875 0 
L 45.3125 0 
L 45.3125 8.40625 
Q 42.046875 3.421875 37.71875 1 
Q 33.40625 -1.421875 27.6875 -1.421875 
Q 18.265625 -1.421875 13.375 4.4375 
Q 8.5 10.296875 8.5 21.578125 
z
M 31.109375 56 
z
" id="DejaVuSans-117"/>
     <path d="M 34.28125 27.484375 
Q 23.390625 27.484375 19.1875 25 
Q 14.984375 22.515625 14.984375 16.5 
Q 14.984375 11.71875 18.140625 8.90625 
Q 21.296875 6.109375 26.703125 6.109375 
Q 34.1875 6.109375 38.703125 11.40625 
Q 43.21875 16.703125 43.21875 25.484375 
L 43.21875 27.484375 
z
M 52.203125 31.203125 
L 52.203125 0 
L 43.21875 0 
L 43.21875 8.296875 
Q 40.140625 3.328125 35.546875 0.953125 
Q 30.953125 -1.421875 24.3125 -1.421875 
Q 15.921875 -1.421875 10.953125 3.296875 
Q 6 8.015625 6 15.921875 
Q 6 25.140625 12.171875 29.828125 
Q 18.359375 34.515625 30.609375 34.515625 
L 43.21875 34.515625 
L 43.21875 35.40625 
Q 43.21875 41.609375 39.140625 45 
Q 35.0625 48.390625 27.6875 48.390625 
Q 23 48.390625 18.546875 47.265625 
Q 14.109375 46.140625 10.015625 43.890625 
L 10.015625 52.203125 
Q 14.9375 54.109375 19.578125 55.046875 
Q 24.21875 56 28.609375 56 
Q 40.484375 56 46.34375 49.84375 
Q 52.203125 43.703125 52.203125 31.203125 
z
" id="DejaVuSans-97"/>
     <path d="M 18.3125 70.21875 
L 18.3125 54.6875 
L 36.8125 54.6875 
L 36.8125 47.703125 
L 18.3125 47.703125 
L 18.3125 18.015625 
Q 18.3125 11.328125 20.140625 9.421875 
Q 21.96875 7.515625 27.59375 7.515625 
L 36.8125 7.515625 
L 36.8125 0 
L 27.59375 0 
Q 17.1875 0 13.234375 3.875 
Q 9.28125 7.765625 9.28125 18.015625 
L 9.28125 47.703125 
L 2.6875 47.703125 
L 2.6875 54.6875 
L 9.28125 54.6875 
L 9.28125 70.21875 
z
" id="DejaVuSans-116"/>
     <path d="M 54.890625 33.015625 
L 54.890625 0 
L 45.90625 0 
L 45.90625 32.71875 
Q 45.90625 40.484375 42.875 44.328125 
Q 39.84375 48.1875 33.796875 48.1875 
Q 26.515625 48.1875 22.3125 43.546875 
Q 18.109375 38.921875 18.109375 30.90625 
L 18.109375 0 
L 9.078125 0 
L 9.078125 54.6875 
L 18.109375 54.6875 
L 18.109375 46.1875 
Q 21.34375 51.125 25.703125 53.5625 
Q 30.078125 56 35.796875 56 
Q 45.21875 56 50.046875 50.171875 
Q 54.890625 44.34375 54.890625 33.015625 
z
" id="DejaVuSans-110"/>
     <path d="M 4.890625 31.390625 
L 31.203125 31.390625 
L 31.203125 23.390625 
L 4.890625 23.390625 
z
" id="DejaVuSans-45"/>
     <path d="M 2.984375 54.6875 
L 12.5 54.6875 
L 29.59375 8.796875 
L 46.6875 54.6875 
L 56.203125 54.6875 
L 35.6875 0 
L 23.484375 0 
z
" id="DejaVuSans-118"/>
     <path d="M 17.921875 79.984375 
L 31.6875 61.71875 
L 24.21875 61.71875 
L 8.296875 79.984375 
z
" id="DejaVuSans-96"/>
     <path d="M 54.890625 33.015625 
L 54.890625 0 
L 45.90625 0 
L 45.90625 32.71875 
Q 45.90625 40.484375 42.875 44.328125 
Q 39.84375 48.1875 33.796875 48.1875 
Q 26.515625 48.1875 22.3125 43.546875 
Q 18.109375 38.921875 18.109375 30.90625 
L 18.109375 0 
L 9.078125 0 
L 9.078125 75.984375 
L 18.109375 75.984375 
L 18.109375 46.1875 
Q 21.34375 51.125 25.703125 53.5625 
Q 30.078125 56 35.796875 56 
Q 45.21875 56 50.046875 50.171875 
Q 54.890625 44.34375 54.890625 33.015625 
z
" id="DejaVuSans-104"/>
     <path d="M 52 44.1875 
Q 55.375 50.25 60.0625 53.125 
Q 64.75 56 71.09375 56 
Q 79.640625 56 84.28125 50.015625 
Q 88.921875 44.046875 88.921875 33.015625 
L 88.921875 0 
L 79.890625 0 
L 79.890625 32.71875 
Q 79.890625 40.578125 77.09375 44.375 
Q 74.3125 48.1875 68.609375 48.1875 
Q 61.625 48.1875 57.5625 43.546875 
Q 53.515625 38.921875 53.515625 30.90625 
L 53.515625 0 
L 44.484375 0 
L 44.484375 32.71875 
Q 44.484375 40.625 41.703125 44.40625 
Q 38.921875 48.1875 33.109375 48.1875 
Q 26.21875 48.1875 22.15625 43.53125 
Q 18.109375 38.875 18.109375 30.90625 
L 18.109375 0 
L 9.078125 0 
L 9.078125 54.6875 
L 18.109375 54.6875 
L 18.109375 46.1875 
Q 21.1875 51.21875 25.484375 53.609375 
Q 29.78125 56 35.6875 56 
Q 41.65625 56 45.828125 52.96875 
Q 50 49.953125 52 44.1875 
z
" id="DejaVuSans-109"/>
     <path d="M 11.71875 12.40625 
L 22.015625 12.40625 
L 22.015625 4 
L 14.015625 -11.625 
L 7.71875 -11.625 
L 11.71875 4 
z
" id="DejaVuSans-44"/>
     <path d="M 9.8125 72.90625 
L 24.515625 72.90625 
L 43.109375 23.296875 
L 61.8125 72.90625 
L 76.515625 72.90625 
L 76.515625 0 
L 66.890625 0 
L 66.890625 64.015625 
L 48.09375 14.015625 
L 38.1875 14.015625 
L 19.390625 64.015625 
L 19.390625 0 
L 9.8125 0 
z
" id="DejaVuSans-77"/>
     <path d="M 34.1875 63.1875 
L 20.796875 26.90625 
L 47.609375 26.90625 
z
M 28.609375 72.90625 
L 39.796875 72.90625 
L 67.578125 0 
L 57.328125 0 
L 50.6875 18.703125 
L 17.828125 18.703125 
L 11.1875 0 
L 0.78125 0 
z
" id="DejaVuSans-65"/>
     <path d="M 10.59375 45.40625 
L 73.1875 45.40625 
L 73.1875 37.203125 
L 10.59375 37.203125 
z
M 10.59375 25.484375 
L 73.1875 25.484375 
L 73.1875 17.1875 
L 10.59375 17.1875 
z
" id="DejaVuSans-61"/>
     <path d="M 37.796875 64.3125 
L 12.890625 25.390625 
L 37.796875 25.390625 
z
M 35.203125 72.90625 
L 47.609375 72.90625 
L 47.609375 25.390625 
L 58.015625 25.390625 
L 58.015625 17.1875 
L 47.609375 17.1875 
L 47.609375 0 
L 37.796875 0 
L 37.796875 17.1875 
L 4.890625 17.1875 
L 4.890625 26.703125 
z
" id="DejaVuSans-52"/>
    </defs>
    <g transform="translate(118.045312 20.52)scale(0.12 -0.12)">
     <use xlink:href="#DejaVuSans-103"/>
     <use x="63.476562" xlink:href="#DejaVuSans-114"/>
     <use x="104.589844" xlink:href="#DejaVuSans-105"/>
     <use x="132.373047" xlink:href="#DejaVuSans-100"/>
     <use x="195.849609" xlink:href="#DejaVuSans-119"/>
     <use x="277.636719" xlink:href="#DejaVuSans-111"/>
     <use x="338.818359" xlink:href="#DejaVuSans-114"/>
     <use x="379.931641" xlink:href="#DejaVuSans-108"/>
     <use x="407.714844" xlink:href="#DejaVuSans-100"/>
     <use x="471.191406" xlink:href="#DejaVuSans-95"/>
     <use x="521.191406" xlink:href="#DejaVuSans-53"/>
     <use x="584.814453" xlink:href="#DejaVuSans-120"/>
     <use x="643.994141" xlink:href="#DejaVuSans-53"/>
     <use x="707.617188" xlink:href="#DejaVuSans-95"/>
     <use x="757.617188" xlink:href="#DejaVuSans-50"/>
     <use x="821.240234" xlink:href="#DejaVuSans-48"/>
     <use x="884.863281" xlink:href="#DejaVuSans-95"/>
     <use x="934.863281" xlink:href="#DejaVuSans-49"/>
     <use x="998.486328" xlink:href="#DejaVuSans-95"/>
     <use x="1048.486328" xlink:href="#DejaVuSans-50"/>
     <use x="1112.109375" xlink:href="#DejaVuSans-48"/>
     <use x="1175.732422" xlink:href="#DejaVuSans-95"/>
     <use x="1225.732422" xlink:href="#DejaVuSans-49"/>
     <use x="1289.355469" xlink:href="#DejaVuSans-51"/>
     <use x="1352.978516" xlink:href="#DejaVuSans-51"/>
     <use x="1416.601562" xlink:href="#DejaVuSans-55"/>
     <use x="1480.224609" xlink:href="#DejaVuSans-58"/>
     <use x="1513.916016" xlink:href="#DejaVuSans-32"/>
     <use x="1545.703125" xlink:href="#DejaVuSans-101"/>
     <use x="1607.226562" xlink:href="#DejaVuSans-112"/>
     <use x="1670.703125" xlink:href="#DejaVuSans-105"/>
     <use x="1698.486328" xlink:href="#DejaVuSans-115"/>
     <use x="1750.585938" xlink:href="#DejaVuSans-111"/>
     <use x="1811.767578" xlink:href="#DejaVuSans-100"/>
     <use x="1875.244141" xlink:href="#DejaVuSans-101"/>
     <use x="1936.767578" xlink:href="#DejaVuSans-32"/>
     <use x="1968.554688" xlink:href="#DejaVuSans-100"/>
     <use x="2032.03125" xlink:href="#DejaVuSans-117"/>
     <use x="2095.410156" xlink:href="#DejaVuSans-114"/>
     <use x="2136.523438" xlink:href="#DejaVuSans-97"/>
     <use x="2197.802734" xlink:href="#DejaVuSans-116"/>
     <use x="2237.011719" xlink:href="#DejaVuSans-105"/>
     <use x="2264.794922" xlink:href="#DejaVuSans-111"/>
     <use x="2325.976562" xlink:href="#DejaVuSans-110"/>
     <use x="2389.355469" xlink:href="#DejaVuSans-32"/>
     <use x="2421.142578" xlink:href="#DejaVuSans-105"/>
     <use x="2448.925781" xlink:href="#DejaVuSans-110"/>
     <use x="2512.304688" xlink:href="#DejaVuSans-32"/>
     <use x="2544.091797" xlink:href="#DejaVuSans-115"/>
     <use x="2596.191406" xlink:href="#DejaVuSans-116"/>
     <use x="2635.400391" xlink:href="#DejaVuSans-101"/>
     <use x="2696.923828" xlink:href="#DejaVuSans-112"/>
     <use x="2760.400391" xlink:href="#DejaVuSans-115"/>
     <use x="2812.5" xlink:href="#DejaVuSans-32"/>
     <use x="2844.287109" xlink:href="#DejaVuSans-108"/>
     <use x="2872.070312" xlink:href="#DejaVuSans-111"/>
     <use x="2933.251953" xlink:href="#DejaVuSans-103"/>
     <use x="2996.728516" xlink:href="#DejaVuSans-45"/>
     <use x="3032.8125" xlink:href="#DejaVuSans-114"/>
     <use x="3073.894531" xlink:href="#DejaVuSans-101"/>
     <use x="3135.417969" xlink:href="#DejaVuSans-108"/>
     <use x="3163.201172" xlink:href="#DejaVuSans-97"/>
     <use x="3224.480469" xlink:href="#DejaVuSans-116"/>
     <use x="3263.689453" xlink:href="#DejaVuSans-105"/>
     <use x="3291.472656" xlink:href="#DejaVuSans-118"/>
     <use x="3350.652344" xlink:href="#DejaVuSans-101"/>
     <use x="3412.175781" xlink:href="#DejaVuSans-32"/>
     <use x="3443.962891" xlink:href="#DejaVuSans-116"/>
     <use x="3483.171875" xlink:href="#DejaVuSans-111"/>
     <use x="3544.353516" xlink:href="#DejaVuSans-32"/>
     <use x="3576.140625" xlink:href="#DejaVuSans-96"/>
     <use x="3626.140625" xlink:href="#DejaVuSans-104"/>
     <use x="3689.519531" xlink:href="#DejaVuSans-116"/>
     <use x="3728.728516" xlink:href="#DejaVuSans-109"/>
     <use x="3826.140625" xlink:href="#DejaVuSans-95"/>
     <use x="3876.140625" xlink:href="#DejaVuSans-48"/>
     <use x="3939.763672" xlink:href="#DejaVuSans-96"/>
     <use x="3989.763672" xlink:href="#DejaVuSans-44"/>
     <use x="4021.550781" xlink:href="#DejaVuSans-32"/>
     <use x="4053.337891" xlink:href="#DejaVuSans-77"/>
     <use x="4139.617188" xlink:href="#DejaVuSans-65"/>
     <use x="4208.025391" xlink:href="#DejaVuSans-61"/>
     <use x="4291.814453" xlink:href="#DejaVuSans-52"/>
     <use x="4355.4375" xlink:href="#DejaVuSans-48"/>
    </g>
   </g>
   <g id="legend_1">
    <g id="patch_7">
     <path d="M 762.651937 261.68875 
L 853.716 261.68875 
Q 855.716 261.68875 855.716 259.68875 
L 855.716 170.95125 
Q 855.716 168.95125 853.716 168.95125 
L 762.651937 168.95125 
Q 760.651937 168.95125 760.651937 170.95125 
L 760.651937 259.68875 
Q 760.651937 261.68875 762.651937 261.68875 
z
" style="fill:#ffffff;opacity:0.8;stroke:#cccccc;stroke-linejoin:miter;"/>
    </g>
    <g id="line2d_23">
     <path d="M 764.651937 177.049688 
L 784.651937 177.049688 
" style="fill:none;stroke:#1f77b4;stroke-linecap:square;stroke-width:1.5;"/>
    </g>
    <g id="line2d_24"/>
    <g id="text_18">
     <!-- htm_0 -->
     <g transform="translate(792.651937 180.549688)scale(0.1 -0.1)">
      <use xlink:href="#DejaVuSans-104"/>
      <use x="63.378906" xlink:href="#DejaVuSans-116"/>
      <use x="102.587891" xlink:href="#DejaVuSans-109"/>
      <use x="200" xlink:href="#DejaVuSans-95"/>
      <use x="250" xlink:href="#DejaVuSans-48"/>
     </g>
    </g>
    <g id="line2d_25">
     <path d="M 764.651937 192.005938 
L 784.651937 192.005938 
" style="fill:none;stroke:#ff7f0e;stroke-linecap:square;stroke-width:1.5;"/>
    </g>
    <g id="line2d_26"/>
    <g id="text_19">
     <!-- dqn_greedy -->
     <defs>
      <path d="M 14.796875 27.296875 
Q 14.796875 17.390625 18.875 11.75 
Q 22.953125 6.109375 30.078125 6.109375 
Q 37.203125 6.109375 41.296875 11.75 
Q 45.40625 17.390625 45.40625 27.296875 
Q 45.40625 37.203125 41.296875 42.84375 
Q 37.203125 48.484375 30.078125 48.484375 
Q 22.953125 48.484375 18.875 42.84375 
Q 14.796875 37.203125 14.796875 27.296875 
z
M 45.40625 8.203125 
Q 42.578125 3.328125 38.25 0.953125 
Q 33.9375 -1.421875 27.875 -1.421875 
Q 17.96875 -1.421875 11.734375 6.484375 
Q 5.515625 14.40625 5.515625 27.296875 
Q 5.515625 40.1875 11.734375 48.09375 
Q 17.96875 56 27.875 56 
Q 33.9375 56 38.25 53.625 
Q 42.578125 51.265625 45.40625 46.390625 
L 45.40625 54.6875 
L 54.390625 54.6875 
L 54.390625 -20.796875 
L 45.40625 -20.796875 
z
" id="DejaVuSans-113"/>
      <path d="M 32.171875 -5.078125 
Q 28.375 -14.84375 24.75 -17.8125 
Q 21.140625 -20.796875 15.09375 -20.796875 
L 7.90625 -20.796875 
L 7.90625 -13.28125 
L 13.1875 -13.28125 
Q 16.890625 -13.28125 18.9375 -11.515625 
Q 21 -9.765625 23.484375 -3.21875 
L 25.09375 0.875 
L 2.984375 54.6875 
L 12.5 54.6875 
L 29.59375 11.921875 
L 46.6875 54.6875 
L 56.203125 54.6875 
z
" id="DejaVuSans-121"/>
     </defs>
     <g transform="translate(792.651937 195.505938)scale(0.1 -0.1)">
      <use xlink:href="#DejaVuSans-100"/>
      <use x="63.476562" xlink:href="#DejaVuSans-113"/>
      <use x="126.953125" xlink:href="#DejaVuSans-110"/>
      <use x="190.332031" xlink:href="#DejaVuSans-95"/>
      <use x="240.332031" xlink:href="#DejaVuSans-103"/>
      <use x="303.808594" xlink:href="#DejaVuSans-114"/>
      <use x="344.890625" xlink:href="#DejaVuSans-101"/>
      <use x="406.414062" xlink:href="#DejaVuSans-101"/>
      <use x="467.9375" xlink:href="#DejaVuSans-100"/>
      <use x="531.414062" xlink:href="#DejaVuSans-121"/>
     </g>
    </g>
    <g id="line2d_27">
     <path d="M 764.651937 206.962187 
L 784.651937 206.962187 
" style="fill:none;stroke:#2ca02c;stroke-linecap:square;stroke-width:1.5;"/>
    </g>
    <g id="line2d_28"/>
    <g id="text_20">
     <!-- htm_1_1g -->
     <g transform="translate(792.651937 210.462187)scale(0.1 -0.1)">
      <use xlink:href="#DejaVuSans-104"/>
      <use x="63.378906" xlink:href="#DejaVuSans-116"/>
      <use x="102.587891" xlink:href="#DejaVuSans-109"/>
      <use x="200" xlink:href="#DejaVuSans-95"/>
      <use x="250" xlink:href="#DejaVuSans-49"/>
      <use x="313.623047" xlink:href="#DejaVuSans-95"/>
      <use x="363.623047" xlink:href="#DejaVuSans-49"/>
      <use x="427.246094" xlink:href="#DejaVuSans-103"/>
     </g>
    </g>
    <g id="line2d_29">
     <path d="M 764.651937 221.918438 
L 784.651937 221.918438 
" style="fill:none;stroke:#d62728;stroke-linecap:square;stroke-width:1.5;"/>
    </g>
    <g id="line2d_30"/>
    <g id="text_21">
     <!-- htm_2_1g -->
     <g transform="translate(792.651937 225.418438)scale(0.1 -0.1)">
      <use xlink:href="#DejaVuSans-104"/>
      <use x="63.378906" xlink:href="#DejaVuSans-116"/>
      <use x="102.587891" xlink:href="#DejaVuSans-109"/>
      <use x="200" xlink:href="#DejaVuSans-95"/>
      <use x="250" xlink:href="#DejaVuSans-50"/>
      <use x="313.623047" xlink:href="#DejaVuSans-95"/>
      <use x="363.623047" xlink:href="#DejaVuSans-49"/>
      <use x="427.246094" xlink:href="#DejaVuSans-103"/>
     </g>
    </g>
    <g id="line2d_31">
     <path d="M 764.651937 236.874687 
L 784.651937 236.874687 
" style="fill:none;stroke:#9467bd;stroke-linecap:square;stroke-width:1.5;"/>
    </g>
    <g id="line2d_32"/>
    <g id="text_22">
     <!-- htm_4_1g -->
     <g transform="translate(792.651937 240.374687)scale(0.1 -0.1)">
      <use xlink:href="#DejaVuSans-104"/>
      <use x="63.378906" xlink:href="#DejaVuSans-116"/>
      <use x="102.587891" xlink:href="#DejaVuSans-109"/>
      <use x="200" xlink:href="#DejaVuSans-95"/>
      <use x="250" xlink:href="#DejaVuSans-52"/>
      <use x="313.623047" xlink:href="#DejaVuSans-95"/>
      <use x="363.623047" xlink:href="#DejaVuSans-49"/>
      <use x="427.246094" xlink:href="#DejaVuSans-103"/>
     </g>
    </g>
    <g id="line2d_33">
     <path d="M 764.651937 251.830938 
L 784.651937 251.830938 
" style="fill:none;stroke:#8c564b;stroke-linecap:square;stroke-width:1.5;"/>
    </g>
    <g id="line2d_34"/>
    <g id="text_23">
     <!-- htm_8_1g -->
     <defs>
      <path d="M 31.78125 34.625 
Q 24.75 34.625 20.71875 30.859375 
Q 16.703125 27.09375 16.703125 20.515625 
Q 16.703125 13.921875 20.71875 10.15625 
Q 24.75 6.390625 31.78125 6.390625 
Q 38.8125 6.390625 42.859375 10.171875 
Q 46.921875 13.96875 46.921875 20.515625 
Q 46.921875 27.09375 42.890625 30.859375 
Q 38.875 34.625 31.78125 34.625 
z
M 21.921875 38.8125 
Q 15.578125 40.375 12.03125 44.71875 
Q 8.5 49.078125 8.5 55.328125 
Q 8.5 64.0625 14.71875 69.140625 
Q 20.953125 74.21875 31.78125 74.21875 
Q 42.671875 74.21875 48.875 69.140625 
Q 55.078125 64.0625 55.078125 55.328125 
Q 55.078125 49.078125 51.53125 44.71875 
Q 48 40.375 41.703125 38.8125 
Q 48.828125 37.15625 52.796875 32.3125 
Q 56.78125 27.484375 56.78125 20.515625 
Q 56.78125 9.90625 50.3125 4.234375 
Q 43.84375 -1.421875 31.78125 -1.421875 
Q 19.734375 -1.421875 13.25 4.234375 
Q 6.78125 9.90625 6.78125 20.515625 
Q 6.78125 27.484375 10.78125 32.3125 
Q 14.796875 37.15625 21.921875 38.8125 
z
M 18.3125 54.390625 
Q 18.3125 48.734375 21.84375 45.5625 
Q 25.390625 42.390625 31.78125 42.390625 
Q 38.140625 42.390625 41.71875 45.5625 
Q 45.3125 48.734375 45.3125 54.390625 
Q 45.3125 60.0625 41.71875 63.234375 
Q 38.140625 66.40625 31.78125 66.40625 
Q 25.390625 66.40625 21.84375 63.234375 
Q 18.3125 60.0625 18.3125 54.390625 
z
" id="DejaVuSans-56"/>
     </defs>
     <g transform="translate(792.651937 255.330938)scale(0.1 -0.1)">
      <use xlink:href="#DejaVuSans-104"/>
      <use x="63.378906" xlink:href="#DejaVuSans-116"/>
      <use x="102.587891" xlink:href="#DejaVuSans-109"/>
      <use x="200" xlink:href="#DejaVuSans-95"/>
      <use x="250" xlink:href="#DejaVuSans-56"/>
      <use x="313.623047" xlink:href="#DejaVuSans-95"/>
      <use x="363.623047" xlink:href="#DejaVuSans-49"/>
      <use x="427.246094" xlink:href="#DejaVuSans-103"/>
     </g>
    </g>
   </g>
  </g>
 </g>
 <defs>
  <clipPath id="pde4ea16f42">
   <rect height="377.6" width="682.18" x="42.1" y="26.52"/>
  </clipPath>
 </defs>
</svg>
