<?xml version="1.0" encoding="utf-8" standalone="no"?>
<!DOCTYPE svg PUBLIC "-//W3C//DTD SVG 1.1//EN"
  "http://www.w3.org/Graphics/SVG/1.1/DTD/svg11.dtd">
<!-- Created with matplotlib (https://matplotlib.org/) -->
<svg height="432pt" version="1.1" viewBox="0 0 864 432" width="864pt" xmlns="http://www.w3.org/2000/svg" xmlns:xlink="http://www.w3.org/1999/xlink">
 <defs>
  <style type="text/css">
*{stroke-linecap:butt;stroke-linejoin:round;}
  </style>
 </defs>
 <g id="figure_1">
  <g id="patch_1">
   <path d="M 0 432 
L 864 432 
L 864 0 
L 0 0 
z
" style="fill:#ffffff;"/>
  </g>
  <g id="axes_1">
   <g id="patch_2">
    <path d="M 36.925 404.12 
L 724.28 404.12 
L 724.28 26.16 
L 36.925 26.16 
z
" style="fill:#ffffff;"/>
   </g>
   <g id="matplotlib.axis_1">
    <g id="xtick_1">
     <g id="line2d_1">
      <defs>
       <path d="M 0 0 
L 0 3.5 
" id="m7071b9cc87" style="stroke:#000000;stroke-width:0.8;"/>
      </defs>
      <g>
       <use style="stroke:#000000;stroke-width:0.8;" x="36.925" xlink:href="#m7071b9cc87" y="404.12"/>
      </g>
     </g>
     <g id="text_1">
      <!-- 0 -->
      <defs>
       <path d="M 31.78125 66.40625 
Q 24.171875 66.40625 20.328125 58.90625 
Q 16.5 51.421875 16.5 36.375 
Q 16.5 21.390625 20.328125 13.890625 
Q 24.171875 6.390625 31.78125 6.390625 
Q 39.453125 6.390625 43.28125 13.890625 
Q 47.125 21.390625 47.125 36.375 
Q 47.125 51.421875 43.28125 58.90625 
Q 39.453125 66.40625 31.78125 66.40625 
z
M 31.78125 74.21875 
Q 44.046875 74.21875 50.515625 64.515625 
Q 56.984375 54.828125 56.984375 36.375 
Q 56.984375 17.96875 50.515625 8.265625 
Q 44.046875 -1.421875 31.78125 -1.421875 
Q 19.53125 -1.421875 13.0625 8.265625 
Q 6.59375 17.96875 6.59375 36.375 
Q 6.59375 54.828125 13.0625 64.515625 
Q 19.53125 74.21875 31.78125 74.21875 
z
" id="DejaVuSans-48"/>
      </defs>
      <g transform="translate(33.74375 418.718437)scale(0.1 -0.1)">
       <use xlink:href="#DejaVuSans-48"/>
      </g>
     </g>
    </g>
    <g id="xtick_2">
     <g id="line2d_2">
      <g>
       <use style="stroke:#000000;stroke-width:0.8;" x="122.898108" xlink:href="#m7071b9cc87" y="404.12"/>
      </g>
     </g>
     <g id="text_2">
      <!-- 200 -->
      <defs>
       <path d="M 19.1875 8.296875 
L 53.609375 8.296875 
L 53.609375 0 
L 7.328125 0 
L 7.328125 8.296875 
Q 12.9375 14.109375 22.625 23.890625 
Q 32.328125 33.6875 34.8125 36.53125 
Q 39.546875 41.84375 41.421875 45.53125 
Q 43.3125 49.21875 43.3125 52.78125 
Q 43.3125 58.59375 39.234375 62.25 
Q 35.15625 65.921875 28.609375 65.921875 
Q 23.96875 65.921875 18.8125 64.3125 
Q 13.671875 62.703125 7.8125 59.421875 
L 7.8125 69.390625 
Q 13.765625 71.78125 18.9375 73 
Q 24.125 74.21875 28.421875 74.21875 
Q 39.75 74.21875 46.484375 68.546875 
Q 53.21875 62.890625 53.21875 53.421875 
Q 53.21875 48.921875 51.53125 44.890625 
Q 49.859375 40.875 45.40625 35.40625 
Q 44.1875 33.984375 37.640625 27.21875 
Q 31.109375 20.453125 19.1875 8.296875 
z
" id="DejaVuSans-50"/>
      </defs>
      <g transform="translate(113.354358 418.718437)scale(0.1 -0.1)">
       <use xlink:href="#DejaVuSans-50"/>
       <use x="63.623047" xlink:href="#DejaVuSans-48"/>
       <use x="127.246094" xlink:href="#DejaVuSans-48"/>
      </g>
     </g>
    </g>
    <g id="xtick_3">
     <g id="line2d_3">
      <g>
       <use style="stroke:#000000;stroke-width:0.8;" x="208.871216" xlink:href="#m7071b9cc87" y="404.12"/>
      </g>
     </g>
     <g id="text_3">
      <!-- 400 -->
      <defs>
       <path d="M 37.796875 64.3125 
L 12.890625 25.390625 
L 37.796875 25.390625 
z
M 35.203125 72.90625 
L 47.609375 72.90625 
L 47.609375 25.390625 
L 58.015625 25.390625 
L 58.015625 17.1875 
L 47.609375 17.1875 
L 47.609375 0 
L 37.796875 0 
L 37.796875 17.1875 
L 4.890625 17.1875 
L 4.890625 26.703125 
z
" id="DejaVuSans-52"/>
      </defs>
      <g transform="translate(199.327466 418.718437)scale(0.1 -0.1)">
       <use xlink:href="#DejaVuSans-52"/>
       <use x="63.623047" xlink:href="#DejaVuSans-48"/>
       <use x="127.246094" xlink:href="#DejaVuSans-48"/>
      </g>
     </g>
    </g>
    <g id="xtick_4">
     <g id="line2d_4">
      <g>
       <use style="stroke:#000000;stroke-width:0.8;" x="294.844325" xlink:href="#m7071b9cc87" y="404.12"/>
      </g>
     </g>
     <g id="text_4">
      <!-- 600 -->
      <defs>
       <path d="M 33.015625 40.375 
Q 26.375 40.375 22.484375 35.828125 
Q 18.609375 31.296875 18.609375 23.390625 
Q 18.609375 15.53125 22.484375 10.953125 
Q 26.375 6.390625 33.015625 6.390625 
Q 39.65625 6.390625 43.53125 10.953125 
Q 47.40625 15.53125 47.40625 23.390625 
Q 47.40625 31.296875 43.53125 35.828125 
Q 39.65625 40.375 33.015625 40.375 
z
M 52.59375 71.296875 
L 52.59375 62.3125 
Q 48.875 64.0625 45.09375 64.984375 
Q 41.3125 65.921875 37.59375 65.921875 
Q 27.828125 65.921875 22.671875 59.328125 
Q 17.53125 52.734375 16.796875 39.40625 
Q 19.671875 43.65625 24.015625 45.921875 
Q 28.375 48.1875 33.59375 48.1875 
Q 44.578125 48.1875 50.953125 41.515625 
Q 57.328125 34.859375 57.328125 23.390625 
Q 57.328125 12.15625 50.6875 5.359375 
Q 44.046875 -1.421875 33.015625 -1.421875 
Q 20.359375 -1.421875 13.671875 8.265625 
Q 6.984375 17.96875 6.984375 36.375 
Q 6.984375 53.65625 15.1875 63.9375 
Q 23.390625 74.21875 37.203125 74.21875 
Q 40.921875 74.21875 44.703125 73.484375 
Q 48.484375 72.75 52.59375 71.296875 
z
" id="DejaVuSans-54"/>
      </defs>
      <g transform="translate(285.300575 418.718437)scale(0.1 -0.1)">
       <use xlink:href="#DejaVuSans-54"/>
       <use x="63.623047" xlink:href="#DejaVuSans-48"/>
       <use x="127.246094" xlink:href="#DejaVuSans-48"/>
      </g>
     </g>
    </g>
    <g id="xtick_5">
     <g id="line2d_5">
      <g>
       <use style="stroke:#000000;stroke-width:0.8;" x="380.817433" xlink:href="#m7071b9cc87" y="404.12"/>
      </g>
     </g>
     <g id="text_5">
      <!-- 800 -->
      <defs>
       <path d="M 31.78125 34.625 
Q 24.75 34.625 20.71875 30.859375 
Q 16.703125 27.09375 16.703125 20.515625 
Q 16.703125 13.921875 20.71875 10.15625 
Q 24.75 6.390625 31.78125 6.390625 
Q 38.8125 6.390625 42.859375 10.171875 
Q 46.921875 13.96875 46.921875 20.515625 
Q 46.921875 27.09375 42.890625 30.859375 
Q 38.875 34.625 31.78125 34.625 
z
M 21.921875 38.8125 
Q 15.578125 40.375 12.03125 44.71875 
Q 8.5 49.078125 8.5 55.328125 
Q 8.5 64.0625 14.71875 69.140625 
Q 20.953125 74.21875 31.78125 74.21875 
Q 42.671875 74.21875 48.875 69.140625 
Q 55.078125 64.0625 55.078125 55.328125 
Q 55.078125 49.078125 51.53125 44.71875 
Q 48 40.375 41.703125 38.8125 
Q 48.828125 37.15625 52.796875 32.3125 
Q 56.78125 27.484375 56.78125 20.515625 
Q 56.78125 9.90625 50.3125 4.234375 
Q 43.84375 -1.421875 31.78125 -1.421875 
Q 19.734375 -1.421875 13.25 4.234375 
Q 6.78125 9.90625 6.78125 20.515625 
Q 6.78125 27.484375 10.78125 32.3125 
Q 14.796875 37.15625 21.921875 38.8125 
z
M 18.3125 54.390625 
Q 18.3125 48.734375 21.84375 45.5625 
Q 25.390625 42.390625 31.78125 42.390625 
Q 38.140625 42.390625 41.71875 45.5625 
Q 45.3125 48.734375 45.3125 54.390625 
Q 45.3125 60.0625 41.71875 63.234375 
Q 38.140625 66.40625 31.78125 66.40625 
Q 25.390625 66.40625 21.84375 63.234375 
Q 18.3125 60.0625 18.3125 54.390625 
z
" id="DejaVuSans-56"/>
      </defs>
      <g transform="translate(371.273683 418.718437)scale(0.1 -0.1)">
       <use xlink:href="#DejaVuSans-56"/>
       <use x="63.623047" xlink:href="#DejaVuSans-48"/>
       <use x="127.246094" xlink:href="#DejaVuSans-48"/>
      </g>
     </g>
    </g>
    <g id="xtick_6">
     <g id="line2d_6">
      <g>
       <use style="stroke:#000000;stroke-width:0.8;" x="466.790541" xlink:href="#m7071b9cc87" y="404.12"/>
      </g>
     </g>
     <g id="text_6">
      <!-- 1000 -->
      <defs>
       <path d="M 12.40625 8.296875 
L 28.515625 8.296875 
L 28.515625 63.921875 
L 10.984375 60.40625 
L 10.984375 69.390625 
L 28.421875 72.90625 
L 38.28125 72.90625 
L 38.28125 8.296875 
L 54.390625 8.296875 
L 54.390625 0 
L 12.40625 0 
z
" id="DejaVuSans-49"/>
      </defs>
      <g transform="translate(454.065541 418.718437)scale(0.1 -0.1)">
       <use xlink:href="#DejaVuSans-49"/>
       <use x="63.623047" xlink:href="#DejaVuSans-48"/>
       <use x="127.246094" xlink:href="#DejaVuSans-48"/>
       <use x="190.869141" xlink:href="#DejaVuSans-48"/>
      </g>
     </g>
    </g>
    <g id="xtick_7">
     <g id="line2d_7">
      <g>
       <use style="stroke:#000000;stroke-width:0.8;" x="552.763649" xlink:href="#m7071b9cc87" y="404.12"/>
      </g>
     </g>
     <g id="text_7">
      <!-- 1200 -->
      <g transform="translate(540.038649 418.718437)scale(0.1 -0.1)">
       <use xlink:href="#DejaVuSans-49"/>
       <use x="63.623047" xlink:href="#DejaVuSans-50"/>
       <use x="127.246094" xlink:href="#DejaVuSans-48"/>
       <use x="190.869141" xlink:href="#DejaVuSans-48"/>
      </g>
     </g>
    </g>
    <g id="xtick_8">
     <g id="line2d_8">
      <g>
       <use style="stroke:#000000;stroke-width:0.8;" x="638.736757" xlink:href="#m7071b9cc87" y="404.12"/>
      </g>
     </g>
     <g id="text_8">
      <!-- 1400 -->
      <g transform="translate(626.011757 418.718437)scale(0.1 -0.1)">
       <use xlink:href="#DejaVuSans-49"/>
       <use x="63.623047" xlink:href="#DejaVuSans-52"/>
       <use x="127.246094" xlink:href="#DejaVuSans-48"/>
       <use x="190.869141" xlink:href="#DejaVuSans-48"/>
      </g>
     </g>
    </g>
   </g>
   <g id="matplotlib.axis_2">
    <g id="ytick_1">
     <g id="line2d_9">
      <defs>
       <path d="M 0 0 
L -3.5 0 
" id="mc2998ab088" style="stroke:#000000;stroke-width:0.8;"/>
      </defs>
      <g>
       <use style="stroke:#000000;stroke-width:0.8;" x="36.925" xlink:href="#mc2998ab088" y="392.841347"/>
      </g>
     </g>
     <g id="text_9">
      <!-- 0 -->
      <g transform="translate(23.5625 396.640565)scale(0.1 -0.1)">
       <use xlink:href="#DejaVuSans-48"/>
      </g>
     </g>
    </g>
    <g id="ytick_2">
     <g id="line2d_10">
      <g>
       <use style="stroke:#000000;stroke-width:0.8;" x="36.925" xlink:href="#mc2998ab088" y="345.630574"/>
      </g>
     </g>
     <g id="text_10">
      <!-- 25 -->
      <defs>
       <path d="M 10.796875 72.90625 
L 49.515625 72.90625 
L 49.515625 64.59375 
L 19.828125 64.59375 
L 19.828125 46.734375 
Q 21.96875 47.46875 24.109375 47.828125 
Q 26.265625 48.1875 28.421875 48.1875 
Q 40.625 48.1875 47.75 41.5 
Q 54.890625 34.8125 54.890625 23.390625 
Q 54.890625 11.625 47.5625 5.09375 
Q 40.234375 -1.421875 26.90625 -1.421875 
Q 22.3125 -1.421875 17.546875 -0.640625 
Q 12.796875 0.140625 7.71875 1.703125 
L 7.71875 11.625 
Q 12.109375 9.234375 16.796875 8.0625 
Q 21.484375 6.890625 26.703125 6.890625 
Q 35.15625 6.890625 40.078125 11.328125 
Q 45.015625 15.765625 45.015625 23.390625 
Q 45.015625 31 40.078125 35.4375 
Q 35.15625 39.890625 26.703125 39.890625 
Q 22.75 39.890625 18.8125 39.015625 
Q 14.890625 38.140625 10.796875 36.28125 
z
" id="DejaVuSans-53"/>
      </defs>
      <g transform="translate(17.2 349.429793)scale(0.1 -0.1)">
       <use xlink:href="#DejaVuSans-50"/>
       <use x="63.623047" xlink:href="#DejaVuSans-53"/>
      </g>
     </g>
    </g>
    <g id="ytick_3">
     <g id="line2d_11">
      <g>
       <use style="stroke:#000000;stroke-width:0.8;" x="36.925" xlink:href="#mc2998ab088" y="298.419802"/>
      </g>
     </g>
     <g id="text_11">
      <!-- 50 -->
      <g transform="translate(17.2 302.219021)scale(0.1 -0.1)">
       <use xlink:href="#DejaVuSans-53"/>
       <use x="63.623047" xlink:href="#DejaVuSans-48"/>
      </g>
     </g>
    </g>
    <g id="ytick_4">
     <g id="line2d_12">
      <g>
       <use style="stroke:#000000;stroke-width:0.8;" x="36.925" xlink:href="#mc2998ab088" y="251.20903"/>
      </g>
     </g>
     <g id="text_12">
      <!-- 75 -->
      <defs>
       <path d="M 8.203125 72.90625 
L 55.078125 72.90625 
L 55.078125 68.703125 
L 28.609375 0 
L 18.3125 0 
L 43.21875 64.59375 
L 8.203125 64.59375 
z
" id="DejaVuSans-55"/>
      </defs>
      <g transform="translate(17.2 255.008249)scale(0.1 -0.1)">
       <use xlink:href="#DejaVuSans-55"/>
       <use x="63.623047" xlink:href="#DejaVuSans-53"/>
      </g>
     </g>
    </g>
    <g id="ytick_5">
     <g id="line2d_13">
      <g>
       <use style="stroke:#000000;stroke-width:0.8;" x="36.925" xlink:href="#mc2998ab088" y="203.998258"/>
      </g>
     </g>
     <g id="text_13">
      <!-- 100 -->
      <g transform="translate(10.8375 207.797477)scale(0.1 -0.1)">
       <use xlink:href="#DejaVuSans-49"/>
       <use x="63.623047" xlink:href="#DejaVuSans-48"/>
       <use x="127.246094" xlink:href="#DejaVuSans-48"/>
      </g>
     </g>
    </g>
    <g id="ytick_6">
     <g id="line2d_14">
      <g>
       <use style="stroke:#000000;stroke-width:0.8;" x="36.925" xlink:href="#mc2998ab088" y="156.787486"/>
      </g>
     </g>
     <g id="text_14">
      <!-- 125 -->
      <g transform="translate(10.8375 160.586704)scale(0.1 -0.1)">
       <use xlink:href="#DejaVuSans-49"/>
       <use x="63.623047" xlink:href="#DejaVuSans-50"/>
       <use x="127.246094" xlink:href="#DejaVuSans-53"/>
      </g>
     </g>
    </g>
    <g id="ytick_7">
     <g id="line2d_15">
      <g>
       <use style="stroke:#000000;stroke-width:0.8;" x="36.925" xlink:href="#mc2998ab088" y="109.576713"/>
      </g>
     </g>
     <g id="text_15">
      <!-- 150 -->
      <g transform="translate(10.8375 113.375932)scale(0.1 -0.1)">
       <use xlink:href="#DejaVuSans-49"/>
       <use x="63.623047" xlink:href="#DejaVuSans-53"/>
       <use x="127.246094" xlink:href="#DejaVuSans-48"/>
      </g>
     </g>
    </g>
    <g id="ytick_8">
     <g id="line2d_16">
      <g>
       <use style="stroke:#000000;stroke-width:0.8;" x="36.925" xlink:href="#mc2998ab088" y="62.365941"/>
      </g>
     </g>
     <g id="text_16">
      <!-- 175 -->
      <g transform="translate(10.8375 66.16516)scale(0.1 -0.1)">
       <use xlink:href="#DejaVuSans-49"/>
       <use x="63.623047" xlink:href="#DejaVuSans-55"/>
       <use x="127.246094" xlink:href="#DejaVuSans-53"/>
      </g>
     </g>
    </g>
   </g>
   <g id="line2d_17">
    <path clip-path="url(#p0ea635b762)" d="M 53.689756 361.635026 
L 54.119622 364.845359 
L 54.549487 365.317466 
L 54.979353 367.583583 
L 55.409218 368.952696 
L 56.268949 367.725216 
L 56.698815 368.433377 
L 57.12868 368.386167 
L 57.558546 368.999907 
L 57.988412 366.969843 
L 58.418277 367.772426 
L 59.278008 370.935548 
L 59.707874 373.201665 
L 60.137739 378.725326 
L 60.567605 378.678115 
L 60.99747 378.347639 
L 61.427336 376.978527 
L 61.857201 378.914169 
L 62.287067 378.630904 
L 63.146798 378.536483 
L 63.576664 377.733899 
L 64.006529 374.523567 
L 64.436395 375.042885 
L 64.86626 375.231728 
L 65.296126 376.55363 
L 65.725991 376.411998 
L 66.155857 374.71241 
L 67.015588 374.759621 
L 67.445453 373.862616 
L 67.875319 372.25745 
L 68.73505 372.446293 
L 69.594781 372.163028 
L 70.024647 372.163028 
L 70.454512 372.399082 
L 70.884378 371.926974 
L 71.314243 370.321808 
L 72.173974 363.617879 
L 72.60384 363.759511 
L 73.033705 364.750937 
L 73.463571 363.806722 
L 73.893437 361.398972 
L 74.323302 355.969733 
L 74.753168 355.78089 
L 75.183033 357.905375 
L 75.612899 357.669321 
L 76.042764 357.763743 
L 76.47263 356.39463 
L 76.902495 356.252998 
L 77.332361 354.978307 
L 77.762226 354.883886 
L 78.192092 355.16715 
L 78.621957 356.34742 
L 79.051823 356.300209 
L 79.481689 356.536263 
L 79.911554 356.630684 
L 80.34142 356.016944 
L 80.771285 357.999797 
L 81.201151 358.519115 
L 81.631016 355.072729 
L 82.060882 354.978307 
L 82.490747 353.93967 
L 82.920613 353.231509 
L 83.350478 355.355993 
L 83.780344 355.355993 
L 84.21021 354.647832 
L 84.640075 354.270146 
L 85.069941 355.639258 
L 85.499806 353.892459 
L 85.929672 353.845249 
L 86.359537 351.012602 
L 86.789403 349.02975 
L 87.219268 348.982539 
L 87.649134 346.149893 
L 88.078999 346.57479 
L 88.508865 348.038324 
L 89.368596 354.600621 
L 89.798462 353.042666 
L 90.228327 353.042666 
L 90.658193 353.561984 
L 91.088058 355.828101 
L 91.517924 361.25734 
L 92.377655 361.493394 
L 92.80752 354.175724 
L 93.237386 353.32593 
L 93.667251 354.600621 
L 94.956848 354.931096 
L 95.386714 354.978307 
L 96.246445 354.55341 
L 96.67631 354.600621 
L 97.106176 353.561984 
L 97.965907 352.759401 
L 98.395772 356.064155 
L 98.825638 353.231509 
L 99.255503 352.853822 
L 99.685369 353.93967 
L 100.115235 354.600621 
L 100.5451 353.514773 
L 100.974966 351.107024 
L 101.404831 351.012602 
L 101.834697 351.909607 
L 102.264562 351.956818 
L 102.694428 350.634916 
L 103.124293 350.162808 
L 103.554159 351.154235 
L 103.984024 351.437499 
L 104.41389 349.64349 
L 104.843755 352.004029 
L 105.273621 349.265804 
L 105.703487 349.407436 
L 106.563218 348.840907 
L 106.993083 350.398862 
L 107.422949 350.351652 
L 107.852814 351.201445 
L 108.28268 349.926755 
L 108.712545 349.973965 
L 109.142411 348.41601 
L 109.572276 348.085534 
L 110.002142 352.381715 
L 110.432008 351.201445 
L 110.861873 350.965392 
L 111.291739 347.18853 
L 111.721604 348.179956 
L 112.15147 346.385947 
L 112.581335 345.34731 
L 113.011201 342.514663 
L 113.441066 341.09834 
L 113.870932 341.051129 
L 114.730663 342.797928 
L 115.160528 341.09834 
L 115.590394 340.956708 
L 116.02026 347.519005 
L 116.450125 346.008261 
L 116.879991 341.617659 
L 117.309856 341.617659 
L 117.739722 342.32582 
L 118.169587 344.73357 
L 118.599453 345.441731 
L 119.459184 346.055471 
L 119.889049 348.935328 
L 120.318915 348.557642 
L 120.74878 341.948134 
L 121.608512 345.300099 
L 122.038377 345.866628 
L 122.468243 348.652064 
L 122.898108 343.222825 
L 123.757839 342.93956 
L 124.187705 341.523237 
L 124.61757 341.428816 
L 125.047436 341.192762 
L 125.477301 341.145551 
L 125.907167 340.390179 
L 126.337033 341.995345 
L 126.766898 342.373031 
L 127.626629 345.205677 
L 128.056495 345.300099 
L 128.48636 349.076961 
L 128.916226 348.888118 
L 129.346091 350.729338 
L 129.775957 351.437499 
L 130.205822 354.600621 
L 130.635688 356.205787 
L 131.065553 356.158577 
L 131.495419 354.175724 
L 131.925285 354.128513 
L 132.35515 355.828101 
L 132.785016 355.592047 
L 133.214881 355.592047 
L 133.644747 357.5749 
L 134.074612 361.918291 
L 134.504478 361.540605 
L 134.934343 361.87108 
L 135.794074 361.776658 
L 136.22394 361.351761 
L 136.653806 361.351761 
L 137.083671 361.210129 
L 137.513537 362.059923 
L 137.943402 370.699494 
L 138.373268 370.605073 
L 138.803133 369.660857 
L 139.232999 369.708068 
L 139.662864 368.716642 
L 140.09273 373.720984 
L 140.952461 374.429145 
L 141.382326 374.381935 
L 141.812192 372.823979 
L 142.242058 373.107244 
L 142.671923 374.617988 
L 143.101789 375.373361 
L 143.96152 375.278939 
L 144.391385 377.025738 
L 144.821251 377.639478 
L 146.110847 377.450635 
L 146.970578 377.733899 
L 147.400444 376.978527 
L 147.83031 376.695262 
L 148.260175 376.742473 
L 148.690041 378.206007 
L 149.119906 378.253218 
L 149.979637 378.866958 
L 150.409503 378.819747 
L 150.839368 377.969953 
L 151.269234 374.948464 
L 151.699099 375.562204 
L 152.558831 375.562204 
L 153.418562 375.93989 
L 153.848427 375.656625 
L 154.278293 375.93989 
L 155.138024 375.93989 
L 155.567889 376.034312 
L 155.997755 377.261792 
L 156.42762 377.261792 
L 156.857486 377.733899 
L 157.287351 377.309002 
L 158.147083 376.034312 
L 158.576948 376.978527 
L 159.006814 378.630904 
L 159.866545 378.772536 
L 160.29641 377.450635 
L 160.726276 377.16737 
L 161.156141 376.034312 
L 161.586007 376.364787 
L 162.015872 376.223155 
L 162.445738 376.648052 
L 162.875604 376.742473 
L 163.305469 376.55363 
L 163.735335 375.656625 
L 164.1652 375.798258 
L 164.595066 376.411998 
L 165.024931 374.429145 
L 165.454797 374.476356 
L 165.884662 374.759621 
L 167.604124 374.617988 
L 168.03399 375.420572 
L 168.463856 378.442061 
L 168.893721 378.064375 
L 169.323587 377.450635 
L 169.753452 376.600841 
L 170.183318 376.506419 
L 170.613183 376.695262 
L 171.043049 375.845469 
L 171.472914 370.41623 
L 171.90278 369.944122 
L 172.762511 369.896911 
L 173.192376 369.377593 
L 173.622242 369.377593 
L 174.052108 369.80249 
L 174.481973 369.991333 
L 175.77157 371.407656 
L 176.201435 371.218813 
L 176.631301 370.605073 
L 177.061166 370.369019 
L 177.491032 371.64371 
L 177.920897 370.180176 
L 178.350763 371.218813 
L 178.780629 371.124391 
L 179.64036 369.755279 
L 180.070225 369.519225 
L 180.500091 369.896911 
L 180.929956 370.605073 
L 181.359822 370.652284 
L 181.789687 370.841127 
L 182.219553 372.304661 
L 182.649418 370.746705 
L 183.079284 371.02997 
L 183.509149 371.02997 
L 183.939015 369.566436 
L 184.368881 369.708068 
L 184.798746 369.283171 
L 185.658477 369.23596 
L 186.518208 369.944122 
L 187.377939 370.038544 
L 187.807805 369.80249 
L 188.23767 370.888337 
L 188.667536 375.892679 
L 189.097402 376.411998 
L 189.527267 375.467782 
L 189.957133 375.562204 
L 190.386998 374.287513 
L 190.816864 374.287513 
L 191.246729 373.862616 
L 191.676595 373.720984 
L 192.10646 371.02997 
L 192.536326 371.313234 
L 192.966191 371.313234 
L 193.396057 371.502077 
L 193.825922 369.23596 
L 194.255788 369.424804 
L 194.685654 369.424804 
L 195.115519 371.266024 
L 195.97525 371.407656 
L 196.405116 372.163028 
L 196.834981 371.974185 
L 197.264847 372.210239 
L 197.694712 371.926974 
L 198.124578 371.313234 
L 198.554443 368.57501 
L 198.984309 368.57501 
L 199.414174 366.497736 
L 199.84404 368.00848 
L 200.273906 367.441951 
L 200.703771 367.253108 
L 201.133637 368.433377 
L 201.563502 368.386167 
L 201.993368 368.763853 
L 202.853099 367.630794 
L 203.282964 367.064265 
L 203.71283 367.253108 
L 204.142695 367.772426 
L 204.572561 367.772426 
L 205.002427 368.055691 
L 205.432292 368.055691 
L 205.862158 368.197323 
L 206.292023 368.197323 
L 206.721889 369.047117 
L 207.151754 368.999907 
L 207.58162 370.793916 
L 208.011485 370.605073 
L 208.441351 370.982759 
L 208.871216 371.124391 
L 209.301082 373.815405 
L 209.730947 371.077181 
L 210.590679 371.171602 
L 211.020544 364.703726 
L 212.740006 363.901143 
L 213.169872 363.051349 
L 213.599737 363.051349 
L 214.029603 362.059923 
L 214.459468 361.446183 
L 214.889334 361.682237 
L 215.749065 361.446183 
L 216.178931 355.969733 
L 216.608796 357.527689 
L 217.038662 357.5749 
L 217.468527 358.330272 
L 217.898393 358.613537 
L 218.328258 358.094218 
L 218.758124 358.047007 
L 219.187989 357.858164 
L 219.617855 354.317356 
L 220.04772 354.742253 
L 220.477586 355.403204 
L 220.907452 355.355993 
L 221.337317 355.639258 
L 221.767183 352.287293 
L 222.626914 347.094108 
L 223.056779 347.141319 
L 223.486645 342.986771 
L 223.91651 342.089766 
L 224.346376 340.295757 
L 224.776241 333.639038 
L 225.206107 333.827881 
L 225.635972 333.639038 
L 226.065838 334.299989 
L 226.495704 334.441621 
L 226.925569 337.227057 
L 227.355435 332.128293 
L 227.7853 322.780561 
L 228.215166 331.845029 
L 228.645031 332.033872 
L 229.074897 332.364347 
L 229.934628 331.089656 
L 230.364493 331.986661 
L 230.794359 329.626123 
L 231.224225 331.231289 
L 231.65409 331.797818 
L 232.083956 331.184078 
L 232.513821 331.797818 
L 232.943687 334.630464 
L 233.373552 339.87086 
L 233.803418 341.003919 
L 234.233283 341.003919 
L 234.663149 335.480258 
L 235.093014 334.96094 
L 235.52288 335.480258 
L 235.952745 333.261352 
L 236.382611 333.402984 
L 236.812477 337.604743 
L 237.672208 335.857944 
L 238.102073 335.999577 
L 238.531939 335.763523 
L 239.821535 343.175614 
L 240.251401 338.973855 
L 240.681266 343.128403 
L 241.111132 344.11983 
L 241.540997 345.677785 
L 241.970863 351.720764 
L 242.400729 347.235741 
L 242.830594 347.566216 
L 243.26046 346.763633 
L 243.690325 346.338736 
L 244.120191 345.724996 
L 244.550056 349.973965 
L 244.979922 357.952586 
L 245.409787 357.291635 
L 245.839653 357.338846 
L 246.269518 356.772317 
L 246.699384 357.527689 
L 247.12925 357.150003 
L 247.559115 356.536263 
L 247.988981 357.386057 
L 248.848712 354.931096 
L 249.278577 355.544836 
L 249.708443 355.875312 
L 250.138308 353.561984 
L 250.568174 353.845249 
L 250.998039 353.892459 
L 251.427905 352.381715 
L 251.85777 357.102792 
L 252.287636 357.5749 
L 252.717502 349.596279 
L 253.147367 347.80227 
L 253.577233 339.87086 
L 254.007098 339.682017 
L 254.436964 340.626232 
L 254.866829 332.128293 
L 255.296695 332.128293 
L 255.72656 332.411558 
L 256.156426 333.11972 
L 256.586291 332.978087 
L 257.016157 333.450195 
L 257.446023 336.377263 
L 257.875888 333.214141 
L 258.305754 332.883666 
L 258.735619 333.16693 
L 259.165485 333.827881 
L 259.59535 334.063935 
L 260.025216 333.639038 
L 260.455081 332.836455 
L 261.314812 333.214141 
L 261.744678 331.184078 
L 262.604409 333.497406 
L 263.034275 333.497406 
L 263.46414 333.969514 
L 264.323871 332.836455 
L 265.183602 334.016724 
L 266.043333 333.450195 
L 266.473199 332.978087 
L 266.903064 328.681907 
L 267.33293 330.192652 
L 267.762795 329.767755 
L 268.192661 329.956598 
L 268.622527 330.948024 
L 269.482258 322.214031 
L 269.912123 330.617549 
L 270.341989 330.995235 
L 270.771854 339.068277 
L 271.631585 338.171272 
L 272.061451 345.913839 
L 272.491316 344.591937 
L 272.921182 343.883776 
L 273.351048 339.729228 
L 273.780913 339.918071 
L 274.210779 333.11972 
L 274.640644 334.536043 
L 275.07051 337.368689 
L 275.930241 335.338626 
L 276.360106 335.338626 
L 276.789972 339.540385 
L 277.219837 336.613317 
L 277.649703 338.218483 
L 278.079568 336.518895 
L 278.509434 333.639038 
L 278.9393 334.913729 
L 279.369165 332.128293 
L 279.799031 324.432938 
L 280.228896 324.385727 
L 280.658762 324.480148 
L 281.088627 323.394301 
L 281.518493 315.840577 
L 281.948358 315.368469 
L 282.378224 316.265474 
L 282.808089 318.248326 
L 283.237955 314.1882 
L 283.667821 313.432828 
L 284.097686 317.681797 
L 284.527552 318.48438 
L 284.957417 315.274048 
L 285.387283 314.849151 
L 285.817148 314.849151 
L 286.247014 318.956488 
L 286.676879 317.965062 
L 287.106745 317.965062 
L 287.53661 321.364237 
L 287.966476 319.995125 
L 288.396341 319.192542 
L 288.826207 319.759071 
L 289.256073 320.656076 
L 289.685938 321.930767 
L 290.115804 322.497296 
L 290.545669 319.381385 
L 290.975535 318.956488 
L 291.4054 321.128184 
L 291.835266 320.561654 
L 292.265131 315.698945 
L 292.694997 315.037994 
L 293.124862 316.123842 
L 293.554728 316.123842 
L 293.984593 314.990783 
L 294.414459 318.295537 
L 294.844325 316.171052 
L 295.27419 317.492954 
L 295.704056 320.797708 
L 296.133921 322.214031 
L 296.563787 325.046678 
L 296.993652 332.742034 
L 297.423518 330.66476 
L 297.853383 329.814966 
L 298.283249 329.814966 
L 298.713114 338.690591 
L 299.14298 339.068277 
L 299.572846 338.832223 
L 300.002711 338.737802 
L 300.432577 343.978197 
L 300.862442 345.252888 
L 301.292308 345.252888 
L 301.722173 345.064045 
L 302.152039 348.274378 
L 303.01177 349.02975 
L 303.441635 350.210019 
L 303.871501 354.695043 
L 304.301366 354.647832 
L 304.731232 352.240082 
L 305.161098 353.089876 
L 305.590963 354.5062 
L 306.020829 354.458989 
L 306.450694 354.695043 
L 306.88056 354.695043 
L 307.310425 354.222935 
L 307.740291 361.446183 
L 308.170156 361.823869 
L 308.600022 366.214471 
L 309.029887 366.781 
L 309.459753 369.755279 
L 309.889619 371.077181 
L 310.319484 370.699494 
L 310.74935 370.699494 
L 311.179215 371.266024 
L 311.609081 371.171602 
L 312.038946 369.377593 
L 312.468812 370.038544 
L 312.898677 369.519225 
L 313.328543 369.424804 
L 313.758408 368.999907 
L 314.188274 368.338956 
L 315.048005 369.377593 
L 315.477871 370.888337 
L 316.337602 370.982759 
L 316.767467 370.605073 
L 318.057064 370.793916 
L 318.486929 370.746705 
L 319.34666 371.218813 
L 319.776526 370.652284 
L 320.206391 370.746705 
L 320.636257 370.699494 
L 321.066123 371.454867 
L 321.495988 369.991333 
L 321.925854 372.446293 
L 322.355719 372.399082 
L 322.785585 371.502077 
L 323.21545 369.613647 
L 323.645316 369.991333 
L 324.075181 369.613647 
L 324.505047 370.085754 
L 324.934912 369.944122 
L 325.794644 368.999907 
L 326.224509 369.141539 
L 326.654375 370.935548 
L 327.514106 371.832553 
L 327.943971 371.785342 
L 328.373837 372.351871 
L 328.803702 371.502077 
L 329.233568 375.373361 
L 329.663433 375.231728 
L 330.093299 375.798258 
L 330.523164 375.93989 
L 330.95303 376.364787 
L 331.382896 375.042885 
L 331.812761 376.600841 
L 332.242627 376.931316 
L 333.102358 376.695262 
L 333.532223 375.798258 
L 333.962089 376.411998 
L 334.391954 376.317576 
L 334.82182 375.892679 
L 336.111417 375.32615 
L 336.541282 375.467782 
L 336.971148 375.751047 
L 337.401013 375.751047 
L 337.830879 375.514993 
L 338.260744 373.532141 
L 338.69061 374.948464 
L 339.120475 375.184518 
L 339.550341 375.609415 
L 339.980206 376.270365 
L 340.410072 378.111586 
L 340.839937 378.253218 
L 341.269803 378.583693 
L 341.699669 378.39485 
L 342.5594 378.819747 
L 342.989265 379.103012 
L 343.419131 378.914169 
L 343.848996 379.339066 
L 344.278862 379.386276 
L 344.708727 378.914169 
L 345.138593 378.961379 
L 345.568458 378.725326 
L 345.998324 379.57512 
L 346.428189 379.433487 
L 346.858055 379.433487 
L 347.287921 379.197433 
L 347.717786 379.386276 
L 348.147652 379.197433 
L 348.577517 381.180286 
L 349.007383 381.227497 
L 349.437248 380.8026 
L 349.867114 381.038653 
L 350.296979 381.510761 
L 350.726845 382.313344 
L 351.15671 381.794026 
L 351.586576 379.716752 
L 352.016442 380.18886 
L 352.876173 380.660967 
L 353.306038 380.708178 
L 353.735904 380.566546 
L 354.165769 378.39485 
L 354.595635 378.300429 
L 355.0255 378.39485 
L 355.455366 379.527909 
L 356.744962 379.716752 
L 357.174828 379.055801 
L 357.604694 379.150223 
L 358.034559 378.866958 
L 358.464425 377.969953 
L 358.89429 378.206007 
L 359.324156 378.158796 
L 360.613752 378.772536 
L 361.043618 378.725326 
L 361.473483 378.111586 
L 362.76308 378.347639 
L 364.912408 379.00859 
L 365.342273 378.347639 
L 366.63187 378.300429 
L 367.061735 375.892679 
L 367.491601 375.892679 
L 367.921467 375.137307 
L 368.351332 375.703836 
L 368.781198 377.733899 
L 369.211063 377.356213 
L 369.640929 377.450635 
L 370.070794 376.695262 
L 370.930525 377.025738 
L 371.360391 379.386276 
L 371.790256 379.433487 
L 372.220122 379.62233 
L 372.649987 380.519335 
L 373.079853 380.566546 
L 373.509719 379.858384 
L 373.939584 379.433487 
L 374.36945 380.283281 
L 374.799315 378.866958 
L 375.229181 378.961379 
L 375.659046 378.064375 
L 376.088912 377.497846 
L 376.518777 377.261792 
L 376.948643 377.16737 
L 377.378508 377.309002 
L 377.808374 373.815405 
L 378.23824 373.862616 
L 378.668105 374.334724 
L 379.097971 374.476356 
L 381.247298 374.476356 
L 381.677164 373.673773 
L 382.107029 372.540714 
L 382.536895 373.437719 
L 382.96676 369.896911 
L 383.396626 369.991333 
L 383.826492 369.896911 
L 384.256357 370.793916 
L 384.686223 370.982759 
L 385.116088 371.360445 
L 385.545954 371.313234 
L 386.405685 369.519225 
L 386.83555 367.536373 
L 387.265416 368.00848 
L 387.695281 367.914059 
L 388.125147 358.566326 
L 388.555013 352.240082 
L 388.984878 350.918181 
L 389.414744 350.87097 
L 389.844609 350.210019 
L 390.274475 350.210019 
L 390.70434 350.965392 
L 391.134206 349.02975 
L 391.564071 348.888118 
L 391.993937 350.210019 
L 392.423802 347.613427 
L 393.283533 349.02975 
L 393.713399 349.124171 
L 394.143265 348.888118 
L 394.57313 347.896691 
L 395.002996 348.652064 
L 395.432861 345.158467 
L 396.292592 345.34731 
L 396.722458 344.639148 
L 397.582189 341.192762 
L 398.012054 336.943792 
L 398.44192 336.141209 
L 398.871785 336.471685 
L 399.301651 337.604743 
L 399.731517 337.510322 
L 400.161382 341.051129 
L 400.591248 341.09834 
L 401.021113 341.428816 
L 401.450979 342.93956 
L 402.740575 336.377263 
L 403.170441 335.905155 
L 403.600306 330.523127 
L 404.030172 332.222715 
L 404.460038 330.617549 
L 404.889903 330.66476 
L 405.319769 340.059703 
L 405.749634 343.694933 
L 406.1795 344.261462 
L 406.609365 343.978197 
L 407.039231 343.5533 
L 407.469096 342.27861 
L 407.898962 339.445963 
L 408.328827 339.965282 
L 408.758693 338.02964 
L 409.188558 337.888008 
L 409.618424 340.626232 
L 410.04829 341.759291 
L 410.478155 341.334394 
L 411.337886 341.428816 
L 411.767752 340.154125 
L 412.627483 346.102682 
L 413.057348 345.772207 
L 413.487214 343.458879 
L 413.917079 343.789354 
L 414.346945 343.411668 
L 414.776811 344.544727 
L 415.206676 348.746485 
L 416.066407 349.64349 
L 416.496273 348.321588 
L 416.926138 346.622001 
L 417.785869 346.527579 
L 418.6456 346.480368 
L 419.075466 346.905265 
L 419.505331 348.321588 
L 419.935197 348.038324 
L 420.365063 349.690701 
L 420.794928 356.252998 
L 421.224794 354.458989 
L 421.654659 356.016944 
L 422.51439 356.064155 
L 422.944256 358.896801 
L 423.374121 359.699384 
L 423.803987 358.944012 
L 424.233852 356.158577 
L 424.663718 356.866738 
L 425.093583 359.557752 
L 425.523449 361.351761 
L 425.953315 361.87108 
L 426.813046 343.364457 
L 427.672777 337.746375 
L 428.102642 337.840797 
L 428.532508 330.239863 
L 428.962373 331.750607 
L 429.392239 331.372921 
L 430.25197 313.432828 
L 430.681836 315.887788 
L 431.111701 316.265474 
L 431.541567 315.274048 
L 431.971432 312.158137 
L 432.401298 307.389849 
L 432.831163 307.909167 
L 433.261029 307.767535 
L 433.690894 308.947804 
L 434.12076 310.741814 
L 434.550625 301.488502 
L 434.980491 301.488502 
L 435.410356 296.389739 
L 435.840222 296.106474 
L 436.270088 296.814636 
L 436.699953 294.737362 
L 437.129819 296.012053 
L 437.559684 295.82321 
L 437.98955 295.775999 
L 438.419415 296.248107 
L 439.279146 296.248107 
L 439.709012 295.82321 
L 440.138877 293.793146 
L 440.568743 289.213702 
L 440.998609 290.205128 
L 441.428474 293.084985 
L 442.288205 293.226617 
L 442.718071 292.235191 
L 443.147936 293.793146 
L 444.007667 311.73324 
L 444.437533 313.57446 
L 444.867398 309.89202 
L 445.297264 309.514334 
L 445.727129 314.613097 
L 446.156995 315.226837 
L 446.586861 313.952146 
L 447.016726 317.115268 
L 447.446592 325.754839 
L 448.306323 325.565996 
L 448.736188 328.729118 
L 449.166054 327.926535 
L 449.595919 325.377153 
L 450.885516 325.046678 
L 451.315381 324.999467 
L 451.745247 326.604633 
L 452.175113 322.922193 
L 452.604978 324.857835 
L 453.464709 325.424364 
L 453.894575 319.570228 
L 454.32444 311.025078 
L 454.754306 309.939231 
L 455.184171 309.89202 
L 455.614037 311.497186 
L 456.043902 302.432718 
L 456.473768 301.394081 
L 456.903634 298.136538 
L 457.333499 300.024968 
L 457.763365 304.462781 
L 458.19323 303.660198 
L 458.623096 304.557203 
L 459.052961 303.282512 
L 459.482827 303.093669 
L 459.912692 303.518566 
L 460.342558 303.518566 
L 460.772423 298.986331 
L 461.202289 291.385397 
L 461.632154 292.046348 
L 462.06202 299.127964 
L 462.491886 290.110706 
L 462.921751 283.59562 
L 463.351617 281.848821 
L 463.781482 283.453987 
L 464.211348 289.685809 
L 464.641213 281.046238 
L 465.071079 280.668552 
L 465.500944 272.359456 
L 465.93081 270.612657 
L 466.360675 271.604084 
L 466.790541 278.544067 
L 467.220407 278.638489 
L 467.650272 279.016175 
L 468.080138 279.110596 
L 468.510003 278.968964 
L 468.939869 284.775889 
L 469.369734 286.428266 
L 469.7996 289.638599 
L 470.229465 287.230849 
L 470.659331 287.986221 
L 471.519062 306.351212 
L 471.948927 307.531481 
L 472.378793 307.48427 
L 472.808659 300.969184 
L 473.238524 310.364128 
L 473.66839 311.261132 
L 474.098255 314.943572 
L 474.528121 312.630245 
L 474.957986 312.819088 
L 475.817717 310.552971 
L 476.247583 312.299769 
L 476.677448 311.449975 
L 477.107314 312.016505 
L 477.537179 311.1195 
L 477.967045 316.407106 
L 478.396911 324.102462 
L 479.256642 318.153905 
L 480.116373 335.385837 
L 480.546238 336.093998 
L 480.976104 336.141209 
L 481.405969 332.694823 
L 481.835835 341.09834 
L 482.2657 341.381605 
L 482.695566 349.785122 
L 483.125432 351.720764 
L 483.555297 350.021176 
L 483.985163 350.446073 
L 484.415028 348.510431 
L 484.844894 347.80227 
L 485.274759 347.519005 
L 485.704625 347.566216 
L 486.564356 351.248656 
L 486.994221 350.210019 
L 487.424087 352.617769 
L 487.853952 352.759401 
L 488.283818 350.776549 
L 488.713684 351.107024 
L 489.143549 351.012602 
L 489.573415 351.107024 
L 490.00328 357.62211 
L 490.433146 357.197214 
L 490.863011 357.291635 
L 491.292877 357.197214 
L 491.722742 359.557752 
L 492.152608 359.321698 
L 492.582473 361.398972 
L 493.012339 361.493394 
L 493.442205 359.557752 
L 493.87207 360.6436 
L 494.301936 360.690811 
L 494.731801 355.214361 
L 495.591532 354.55341 
L 496.021398 357.433267 
L 496.451263 357.810954 
L 496.881129 359.368909 
L 497.310994 359.085644 
L 497.74086 360.218703 
L 498.170725 360.218703 
L 498.600591 363.665089 
L 499.030457 362.956928 
L 499.460322 360.6436 
L 499.890188 360.6436 
L 500.320053 360.313124 
L 500.749919 362.909717 
L 501.179784 362.532031 
L 501.60965 364.420462 
L 502.039515 364.514883 
L 502.469381 363.806722 
L 502.899246 363.617879 
L 503.329112 362.909717 
L 503.758977 363.145771 
L 504.188843 364.042775 
L 504.618709 364.042775 
L 505.048574 362.956928 
L 505.47844 364.892569 
L 505.908305 364.93978 
L 506.338171 365.128623 
L 508.057633 365.270256 
L 508.487498 365.175834 
L 508.917364 363.334614 
L 509.34723 363.381825 
L 509.777095 361.162918 
L 510.206961 361.493394 
L 510.636826 362.154345 
L 511.066692 361.729448 
L 511.496557 359.746595 
L 511.926423 365.695153 
L 512.356288 365.883996 
L 512.786154 365.836785 
L 513.216019 365.55352 
L 513.645885 368.338956 
L 514.07575 368.338956 
L 514.505616 368.480588 
L 514.935482 367.205897 
L 515.365347 367.064265 
L 515.795213 366.781 
L 516.654944 369.896911 
L 517.084809 368.57501 
L 517.514675 368.386167 
L 517.94454 370.652284 
L 518.374406 370.982759 
L 518.804271 371.02997 
L 519.234137 371.360445 
L 519.664003 368.291745 
L 520.093868 368.62222 
L 520.523734 369.377593 
L 520.953599 366.592157 
L 521.383465 366.592157 
L 521.81333 366.450525 
L 522.243196 367.34753 
L 522.673061 366.497736 
L 523.102927 366.025628 
L 523.532792 365.317466 
L 524.392523 365.223045 
L 524.822389 363.09856 
L 525.252255 362.48482 
L 525.68212 362.673663 
L 526.111986 364.562094 
L 526.541851 364.514883 
L 526.971717 366.73379 
L 527.401582 367.489162 
L 527.831448 368.763853 
L 528.261313 369.23596 
L 528.691179 370.982759 
L 529.121044 369.613647 
L 529.55091 369.613647 
L 530.410641 370.132965 
L 530.840507 370.132965 
L 531.270372 369.991333 
L 531.700238 369.519225 
L 532.130103 370.652284 
L 532.559969 370.605073 
L 533.4197 371.124391 
L 533.849565 371.879764 
L 534.279431 373.248876 
L 534.709296 373.48493 
L 535.139162 373.532141 
L 535.569028 371.407656 
L 535.998893 370.746705 
L 536.428759 370.321808 
L 536.858624 372.163028 
L 537.28849 371.832553 
L 537.718355 371.832553 
L 538.148221 374.476356 
L 538.578086 374.665199 
L 539.007952 374.71241 
L 539.437817 374.193092 
L 539.867683 375.137307 
L 540.297548 373.437719 
L 540.727414 373.579351 
L 541.587145 373.673773 
L 542.017011 375.467782 
L 542.446876 375.987101 
L 542.876742 375.987101 
L 543.306607 375.609415 
L 543.736473 375.845469 
L 544.596204 372.918401 
L 545.026069 372.918401 
L 545.455935 371.926974 
L 545.885801 371.502077 
L 546.315666 372.493504 
L 546.745532 371.64371 
L 547.605263 371.738131 
L 548.464994 371.454867 
L 548.894859 372.068607 
L 549.324725 369.094328 
L 550.184456 369.18875 
L 550.614321 367.678005 
L 551.044187 367.678005 
L 551.474053 367.34753 
L 551.903918 367.630794 
L 552.333784 367.583583 
L 552.763649 369.613647 
L 553.193515 370.038544 
L 554.053246 371.502077 
L 554.483111 371.785342 
L 554.912977 371.738131 
L 555.342842 369.944122 
L 556.202573 369.377593 
L 556.632439 370.132965 
L 557.062305 369.519225 
L 557.49217 371.549288 
L 557.922036 371.549288 
L 558.351901 370.605073 
L 558.781767 370.510651 
L 559.211632 371.077181 
L 559.641498 370.841127 
L 560.071363 370.793916 
L 560.501229 370.369019 
L 560.931094 370.321808 
L 561.790826 373.154455 
L 562.220691 372.823979 
L 562.650557 373.720984 
L 563.510288 374.854042 
L 563.940153 375.656625 
L 564.370019 375.703836 
L 564.799884 375.137307 
L 565.659615 375.514993 
L 566.089481 375.467782 
L 566.519346 378.442061 
L 566.949212 378.206007 
L 567.379078 378.158796 
L 567.808943 379.197433 
L 568.238809 379.103012 
L 568.668674 379.433487 
L 569.09854 379.055801 
L 569.528405 378.961379 
L 570.818002 379.291855 
L 571.247867 380.708178 
L 571.677733 380.755389 
L 572.107598 380.613757 
L 572.537464 382.454977 
L 572.96733 382.360555 
L 573.397195 382.64382 
L 573.827061 380.755389 
L 574.256926 381.227497 
L 574.686792 381.321918 
L 575.116657 381.888447 
L 575.546523 382.832663 
L 576.406254 382.832663 
L 576.836119 382.879874 
L 577.265985 382.596609 
L 577.695851 383.399192 
L 578.125716 383.25756 
L 578.555582 382.785452 
L 578.985447 379.339066 
L 579.415313 379.669541 
L 579.845178 379.386276 
L 580.704909 379.669541 
L 581.134775 379.103012 
L 581.56464 379.150223 
L 581.994506 379.716752 
L 582.424371 379.57512 
L 583.284103 379.669541 
L 583.713968 378.489272 
L 584.143834 378.583693 
L 584.573699 378.347639 
L 585.003565 378.772536 
L 585.43343 378.678115 
L 585.863296 378.206007 
L 586.293161 378.583693 
L 587.582758 378.819747 
L 588.012624 378.442061 
L 588.872355 378.442061 
L 589.30222 377.686689 
L 589.732086 377.828321 
L 590.591817 377.828321 
L 591.021682 379.669541 
L 591.451548 379.811173 
L 592.311279 379.669541 
L 593.17101 379.386276 
L 593.600876 379.339066 
L 594.030741 379.669541 
L 594.460607 379.858384 
L 594.890472 379.858384 
L 595.320338 380.047227 
L 595.750203 377.545056 
L 596.180069 380.991443 
L 596.609934 380.944232 
L 597.0398 381.321918 
L 597.469665 381.274707 
L 598.329396 380.897021 
L 600.048859 380.991443 
L 600.478724 380.377703 
L 600.90859 381.746815 
L 601.338455 381.699604 
L 601.768321 381.982869 
L 602.198186 380.897021 
L 602.628052 380.472124 
L 603.057917 380.755389 
L 603.487783 380.708178 
L 603.917649 380.8026 
L 604.347514 379.811173 
L 604.77738 379.811173 
L 605.207245 380.18886 
L 606.066976 380.18886 
L 606.496842 380.944232 
L 607.356573 381.038653 
L 608.646169 381.085864 
L 609.076035 381.038653 
L 609.505901 381.133075 
L 609.935766 380.566546 
L 610.365632 380.84981 
L 610.795497 380.84981 
L 611.655228 380.566546 
L 612.514959 380.613757 
L 612.944825 383.540824 
L 613.37469 383.588035 
L 613.804556 382.974295 
L 615.094153 382.738241 
L 615.524018 383.210349 
L 616.813615 383.115927 
L 617.24348 382.832663 
L 617.673346 383.115927 
L 618.533077 382.407766 
L 618.962942 382.407766 
L 619.392808 383.493614 
L 619.822674 383.068717 
L 620.252539 383.068717 
L 620.682405 382.266134 
L 623.261598 381.982869 
L 623.691463 382.171712 
L 624.121329 382.171712 
L 624.551194 382.502187 
L 624.98106 382.266134 
L 625.840791 382.218923 
L 626.270657 382.313344 
L 626.700522 382.171712 
L 627.130388 382.927084 
L 627.990119 382.738241 
L 628.419984 382.832663 
L 628.84985 383.068717 
L 630.139447 382.974295 
L 630.569312 382.454977 
L 630.999178 383.068717 
L 631.429043 383.115927 
L 631.858909 382.927084 
L 632.71864 383.729667 
L 633.148505 383.163138 
L 633.578371 383.25756 
L 634.008236 381.699604 
L 634.438102 380.944232 
L 635.297833 381.46355 
L 635.727699 381.935658 
L 636.58743 381.888447 
L 637.017295 382.927084 
L 637.447161 383.068717 
L 637.877026 383.918511 
L 638.306892 383.965721 
L 639.596488 356.96116 
L 640.886085 328.823539 
L 641.315951 328.493064 
L 641.745816 328.493064 
L 642.175682 327.926535 
L 642.605547 328.020956 
L 643.465278 325.565996 
L 644.325009 325.141099 
L 645.18474 323.583144 
L 646.044472 322.497296 
L 646.474337 322.544507 
L 646.904203 320.986551 
L 647.334068 319.947914 
L 647.763934 320.467233 
L 648.193799 319.947914 
L 648.623665 317.445743 
L 649.05353 309.042226 
L 649.483396 307.201006 
L 649.913261 306.917741 
L 650.343127 305.265364 
L 650.772992 302.243875 
L 651.202858 302.007821 
L 651.632724 302.291085 
L 652.92232 302.479929 
L 653.352186 302.479929 
L 653.782051 300.685919 
L 654.211917 299.741704 
L 654.641782 296.295317 
L 655.071648 294.878994 
L 655.501513 294.831783 
L 655.931379 303.660198 
L 656.361245 303.660198 
L 658.080707 339.540385 
L 658.510572 339.87086 
L 658.940438 334.488832 
L 659.800169 334.583254 
L 660.6599 336.566106 
L 661.089765 334.630464 
L 661.519631 334.866518 
L 661.949497 333.922303 
L 662.379362 334.3472 
L 662.809228 334.158357 
L 663.239093 329.012383 
L 663.668959 327.02953 
L 664.098824 328.115378 
L 664.52869 328.445853 
L 664.958555 326.41579 
L 665.388421 326.557422 
L 665.818286 326.510212 
L 666.248152 335.149783 
L 666.678018 334.866518 
L 667.107883 333.922303 
L 667.537749 328.681907 
L 667.967614 330.570338 
L 668.39748 326.41579 
L 668.827345 327.076741 
L 669.257211 319.759071 
L 669.687076 317.351322 
L 670.116942 316.548739 
L 670.546807 316.595949 
L 670.976673 317.634586 
L 671.406538 318.295537 
L 671.836404 321.741924 
L 672.26627 323.158247 
L 672.696135 322.969404 
L 673.126001 319.853493 
L 673.555866 329.248436 
L 673.985732 325.518785 
L 674.415597 319.239753 
L 674.845463 309.89202 
L 675.275328 309.561544 
L 675.705194 306.964952 
L 676.135059 311.780451 
L 676.564925 309.750387 
L 676.99479 308.900594 
L 677.424656 306.115158 
L 677.854522 306.304001 
L 678.284387 308.570118 
L 679.144118 307.201006 
L 679.573984 307.43706 
L 680.003849 308.192432 
L 680.433715 312.205348 
L 680.86358 313.952146 
L 681.293446 312.771877 
L 681.723311 313.196774 
L 682.153177 315.085205 
L 682.583043 315.462891 
L 683.012908 317.351322 
L 683.442774 317.351322 
L 683.872639 319.475807 
L 684.302505 319.995125 
L 684.73237 327.312795 
L 685.162236 319.05091 
L 685.592101 325.093888 
L 686.021967 324.905045 
L 686.451832 329.295647 
L 686.881698 329.295647 
L 687.311563 330.192652 
L 687.741429 329.767755 
L 688.171295 330.475916 
L 688.60116 327.64327 
L 689.031026 327.123952 
L 689.460891 327.123952 
L 689.890757 318.767645 
L 690.320622 316.737582 
L 690.750488 309.089437 
L 691.180353 309.467123 
L 691.610219 307.531481 
L 692.040084 311.1195 
L 692.46995 306.917741 
L 692.899816 305.454207 
L 693.329681 302.055032 
L 693.759547 304.793256 
L 694.189412 296.248107 
L 694.619278 299.222385 
L 695.049143 291.054922 
L 695.479009 291.054922 
L 695.908874 284.964732 
L 696.33874 282.887458 
L 696.768605 282.98188 
L 697.198471 280.999027 
L 697.628336 273.303671 
L 698.058202 273.162039 
L 698.488068 273.917411 
L 698.917933 264.805732 
L 699.347799 258.290646 
L 699.777664 258.337857 
L 700.20753 249.651074 
L 701.067261 249.36781 
L 701.497126 249.98155 
L 701.926992 249.98155 
L 702.356857 253.994466 
L 702.786723 253.994466 
L 703.216588 254.136098 
L 704.07632 259.376494 
L 704.506185 258.951597 
L 704.936051 259.329283 
L 705.365916 256.73269 
L 705.795782 258.904386 
L 706.225647 259.282072 
L 706.655513 256.213372 
L 707.945109 275.900264 
L 708.374975 278.73291 
L 708.804841 279.441072 
L 709.234706 283.64283 
L 709.664572 284.492624 
L 710.524303 292.518456 
L 710.954168 289.166491 
L 711.384034 298.372591 
L 711.813899 291.904716 
L 712.243765 299.977758 
L 712.67363 299.127964 
L 713.103496 305.59584 
L 713.533361 305.170943 
L 713.963227 304.132306 
L 714.393093 306.067947 
L 714.822958 315.321259 
L 715.252824 313.716092 
L 715.682689 314.565886 
L 716.112555 323.630354 
L 716.54242 330.239863 
L 716.972286 330.09823 
L 717.402151 339.493174 
L 717.832017 338.596169 
L 718.261882 338.360115 
L 719.121614 338.454537 
L 719.551479 343.789354 
L 719.981345 341.806502 
L 720.41121 341.239973 
L 720.841076 340.956708 
L 721.270941 336.613317 
L 721.700807 336.943792 
L 722.130672 336.943792 
L 722.560538 339.493174 
L 722.990403 331.93945 
L 723.420269 332.128293 
L 723.850134 335.196994 
L 724.28 336.991003 
L 724.28 336.991003 
" style="fill:none;stroke:#1f77b4;stroke-linecap:square;stroke-width:1.5;"/>
   </g>
   <g id="line2d_18">
    <path clip-path="url(#p0ea635b762)" d="M 53.689756 361.635026 
L 54.119622 364.845359 
L 54.549487 365.317466 
L 54.979353 367.583583 
L 55.409218 368.952696 
L 56.268949 367.725216 
L 56.698815 368.433377 
L 57.12868 368.386167 
L 57.558546 368.999907 
L 57.988412 366.969843 
L 58.418277 367.772426 
L 59.278008 370.935548 
L 59.707874 373.201665 
L 60.137739 378.725326 
L 60.567605 378.678115 
L 60.99747 378.347639 
L 61.427336 376.978527 
L 61.857201 378.914169 
L 62.287067 378.630904 
L 63.146798 378.536483 
L 63.576664 377.733899 
L 64.006529 374.523567 
L 64.436395 375.042885 
L 64.86626 375.231728 
L 65.296126 376.55363 
L 65.725991 376.411998 
L 66.155857 374.71241 
L 67.015588 374.759621 
L 67.445453 373.862616 
L 67.875319 372.25745 
L 68.73505 372.446293 
L 69.594781 372.163028 
L 70.024647 372.163028 
L 70.454512 372.399082 
L 70.884378 371.926974 
L 71.314243 370.321808 
L 72.173974 363.617879 
L 72.60384 363.759511 
L 73.033705 364.750937 
L 73.463571 363.806722 
L 73.893437 361.398972 
L 74.323302 355.969733 
L 74.753168 355.78089 
L 75.183033 357.905375 
L 75.612899 357.669321 
L 76.042764 357.763743 
L 76.47263 356.39463 
L 76.902495 356.252998 
L 77.332361 354.978307 
L 77.762226 354.883886 
L 78.192092 355.16715 
L 78.621957 356.34742 
L 79.051823 356.300209 
L 79.481689 356.536263 
L 79.911554 356.630684 
L 80.34142 356.016944 
L 80.771285 357.999797 
L 81.201151 358.519115 
L 81.631016 355.072729 
L 82.060882 354.978307 
L 82.490747 353.93967 
L 82.920613 353.231509 
L 83.350478 355.355993 
L 83.780344 355.355993 
L 84.21021 354.647832 
L 84.640075 354.270146 
L 85.069941 355.639258 
L 85.499806 353.892459 
L 85.929672 353.845249 
L 86.359537 351.012602 
L 86.789403 349.02975 
L 87.219268 348.982539 
L 87.649134 346.149893 
L 88.078999 346.57479 
L 88.508865 348.038324 
L 89.368596 354.600621 
L 89.798462 353.042666 
L 90.228327 353.042666 
L 90.658193 353.561984 
L 91.088058 355.828101 
L 91.517924 361.25734 
L 92.377655 361.493394 
L 92.80752 354.175724 
L 93.237386 353.32593 
L 93.667251 354.600621 
L 94.956848 354.931096 
L 95.386714 354.978307 
L 96.246445 354.55341 
L 96.67631 354.600621 
L 97.106176 353.561984 
L 97.965907 352.759401 
L 98.395772 356.064155 
L 98.825638 353.231509 
L 99.255503 352.853822 
L 99.685369 353.93967 
L 100.115235 354.600621 
L 100.5451 353.514773 
L 100.974966 351.107024 
L 101.404831 351.012602 
L 101.834697 351.909607 
L 102.264562 351.956818 
L 102.694428 350.634916 
L 103.124293 350.162808 
L 103.554159 351.154235 
L 103.984024 351.437499 
L 104.41389 349.64349 
L 104.843755 352.004029 
L 105.273621 349.265804 
L 105.703487 349.407436 
L 106.563218 348.840907 
L 106.993083 350.398862 
L 107.422949 350.351652 
L 107.852814 351.201445 
L 108.28268 349.926755 
L 108.712545 349.973965 
L 109.142411 348.41601 
L 109.572276 348.085534 
L 110.002142 352.381715 
L 110.432008 351.201445 
L 110.861873 350.965392 
L 111.291739 347.18853 
L 111.721604 348.179956 
L 112.15147 346.385947 
L 112.581335 345.34731 
L 113.011201 342.514663 
L 113.441066 341.09834 
L 113.870932 341.051129 
L 114.730663 342.797928 
L 115.160528 341.09834 
L 115.590394 340.956708 
L 116.02026 347.519005 
L 116.450125 346.008261 
L 116.879991 341.617659 
L 117.309856 341.617659 
L 117.739722 342.32582 
L 118.169587 344.73357 
L 118.599453 345.441731 
L 119.459184 346.055471 
L 119.889049 348.935328 
L 120.318915 348.557642 
L 120.74878 341.948134 
L 121.608512 345.300099 
L 122.038377 345.866628 
L 122.468243 348.652064 
L 122.898108 343.222825 
L 123.757839 342.93956 
L 124.187705 341.523237 
L 124.61757 341.428816 
L 125.047436 341.192762 
L 125.477301 341.145551 
L 125.907167 340.390179 
L 126.337033 341.995345 
L 126.766898 342.373031 
L 127.626629 345.205677 
L 128.056495 345.300099 
L 128.48636 349.076961 
L 128.916226 348.888118 
L 129.346091 341.476026 
L 129.775957 339.493174 
L 130.205822 333.355774 
L 130.635688 334.441621 
L 131.065553 334.3472 
L 131.495419 333.686249 
L 131.925285 333.686249 
L 132.35515 335.102572 
L 132.785016 325.849261 
L 133.214881 325.849261 
L 133.644747 327.832113 
L 134.074612 332.128293 
L 134.934343 332.694823 
L 135.794074 332.50598 
L 136.22394 331.514553 
L 136.653806 331.514553 
L 137.083671 331.372921 
L 137.513537 332.222715 
L 137.943402 340.862286 
L 138.373268 340.673443 
L 138.803133 340.862286 
L 139.232999 340.909497 
L 139.662864 339.776439 
L 140.09273 335.810734 
L 140.522595 335.480258 
L 140.952461 326.651844 
L 141.382326 328.020956 
L 141.812192 327.454427 
L 142.242058 326.179736 
L 142.671923 327.690481 
L 143.101789 328.445853 
L 143.96152 328.351432 
L 144.391385 330.003809 
L 144.821251 330.617549 
L 145.680982 330.523127 
L 146.110847 321.364237 
L 146.540713 321.364237 
L 146.970578 324.385727 
L 147.400444 332.50598 
L 147.83031 332.647612 
L 148.260175 332.55319 
L 148.690041 333.402984 
L 149.119906 333.402984 
L 149.549772 334.063935 
L 149.979637 334.063935 
L 150.409503 324.668991 
L 150.839368 324.527359 
L 151.269234 324.244095 
L 151.699099 323.819198 
L 152.558831 323.819198 
L 152.988696 324.055251 
L 153.418562 324.716202 
L 153.848427 315.321259 
L 154.278293 312.630245 
L 154.708158 312.34698 
L 155.138024 312.394191 
L 155.997755 312.677455 
L 156.857486 312.771877 
L 157.287351 321.317027 
L 157.717217 321.364237 
L 158.147083 329.909387 
L 159.006814 311.874872 
L 159.436679 313.338406 
L 159.866545 313.385617 
L 160.29641 311.780451 
L 160.726276 311.497186 
L 161.156141 310.364128 
L 161.586007 310.789024 
L 162.015872 310.647392 
L 162.445738 311.072289 
L 162.875604 311.072289 
L 163.735335 328.493064 
L 164.1652 328.493064 
L 164.595066 329.531701 
L 165.024931 327.64327 
L 165.454797 327.879324 
L 165.884662 327.454427 
L 167.174259 327.312795 
L 167.604124 336.660528 
L 168.463856 318.389959 
L 168.893721 318.201116 
L 169.323587 308.853383 
L 169.753452 307.342638 
L 170.183318 297.947694 
L 170.613183 298.183748 
L 171.043049 306.398423 
L 171.472914 303.943462 
L 171.90278 294.878994 
L 172.762511 294.831783 
L 173.192376 293.557093 
L 173.622242 293.557093 
L 174.052108 294.501308 
L 174.481973 294.831783 
L 175.341704 295.87042 
L 176.201435 314.282622 
L 176.631301 313.857725 
L 177.061166 304.462781 
L 177.491032 306.020736 
L 177.920897 306.20958 
L 178.350763 306.587266 
L 178.780629 306.445633 
L 179.210494 305.690261 
L 179.64036 296.295317 
L 180.070225 295.964842 
L 180.500091 296.295317 
L 180.929956 287.844589 
L 181.359822 287.8918 
L 181.789687 278.73291 
L 182.219553 280.526919 
L 182.649418 279.677126 
L 183.079284 280.102023 
L 183.509149 278.921753 
L 183.939015 278.921753 
L 184.368881 288.316697 
L 184.798746 287.089217 
L 185.658477 305.59584 
L 186.088343 304.651624 
L 186.518208 304.651624 
L 186.948074 305.737472 
L 187.377939 313.668882 
L 187.807805 313.716092 
L 188.23767 314.849151 
L 188.667536 310.930657 
L 189.097402 310.930657 
L 189.527267 308.900594 
L 189.957133 308.995015 
L 190.386998 310.175284 
L 191.246729 310.222495 
L 191.676595 309.655966 
L 192.10646 309.27828 
L 192.536326 309.561544 
L 192.966191 300.308233 
L 193.825922 300.591498 
L 194.255788 309.89202 
L 195.115519 291.385397 
L 195.545385 292.140769 
L 195.97525 282.887458 
L 196.405116 283.784463 
L 196.834981 290.582814 
L 197.264847 290.866079 
L 197.694712 290.913289 
L 198.124578 297.333954 
L 198.554443 297.097901 
L 198.984309 297.097901 
L 199.414174 296.720214 
L 199.84404 297.522797 
L 200.273906 297.145111 
L 200.703771 298.325381 
L 201.133637 296.43695 
L 201.563502 296.389739 
L 201.993368 294.878994 
L 202.423233 291.904716 
L 202.853099 291.857505 
L 203.282964 293.273828 
L 203.71283 302.621561 
L 204.142695 302.810404 
L 204.572561 304.226727 
L 205.432292 304.321149 
L 206.292023 323.016614 
L 206.721889 324.716202 
L 207.151754 324.668991 
L 207.58162 324.763413 
L 208.441351 324.527359 
L 208.871216 316.218263 
L 209.730947 315.651734 
L 210.160813 324.857835 
L 210.590679 324.857835 
L 211.45041 306.728898 
L 212.310141 306.728898 
L 212.740006 297.333954 
L 213.599737 297.333954 
L 214.029603 290.535603 
L 214.889334 271.887348 
L 215.319199 273.82299 
L 215.749065 272.265034 
L 216.178931 281.612767 
L 216.608796 273.114828 
L 217.038662 273.162039 
L 217.468527 273.586936 
L 217.898393 273.681358 
L 218.328258 274.011833 
L 218.758124 273.964622 
L 219.617855 279.535493 
L 220.04772 279.582704 
L 220.477586 279.771547 
L 220.907452 279.677126 
L 221.337317 279.818758 
L 222.197048 279.629915 
L 222.626914 279.34665 
L 223.056779 277.647062 
L 223.486645 268.299329 
L 223.91651 266.930217 
L 224.776241 265.608315 
L 225.206107 265.702737 
L 225.635972 265.513894 
L 226.065838 274.908838 
L 226.495704 275.66421 
L 226.925569 276.041896 
L 227.355435 275.286524 
L 227.7853 273.917411 
L 228.215166 282.320929 
L 228.645031 282.320929 
L 230.364493 318.578802 
L 230.794359 318.48438 
L 232.083956 346.338736 
L 232.513821 347.094108 
L 232.943687 348.840907 
L 233.373552 348.557642 
L 234.663149 348.463221 
L 235.52288 331.372921 
L 235.952745 329.48449 
L 236.812477 329.626123 
L 237.672208 311.072289 
L 238.102073 311.213921 
L 238.531939 301.96061 
L 239.39167 302.055032 
L 239.821535 302.243875 
L 240.251401 294.59573 
L 240.681266 294.59573 
L 241.111132 296.295317 
L 241.540997 287.702957 
L 241.970863 284.775889 
L 242.400729 275.380945 
L 242.830594 275.758631 
L 243.26046 266.363688 
L 243.690325 266.410899 
L 244.120191 265.372262 
L 244.550056 263.106145 
L 244.979922 263.247777 
L 245.409787 254.844259 
L 245.839653 264.239203 
L 246.269518 264.003149 
L 246.699384 264.711311 
L 247.12925 264.994575 
L 247.559115 255.599632 
L 247.988981 255.552421 
L 248.418846 253.333515 
L 248.848712 252.294878 
L 249.278577 243.041566 
L 249.708443 243.324831 
L 250.138308 242.805513 
L 250.568174 243.135988 
L 250.998039 251.20903 
L 251.427905 251.114608 
L 251.85777 250.548079 
L 252.717502 269.007491 
L 253.147367 270.612657 
L 253.577233 270.471025 
L 254.007098 269.668442 
L 254.436964 269.668442 
L 254.866829 278.591278 
L 255.296695 278.308013 
L 255.72656 287.702957 
L 256.156426 287.797378 
L 257.016157 269.196334 
L 257.446023 269.196334 
L 257.875888 275.947475 
L 258.305754 275.853053 
L 258.735619 285.247997 
L 259.165485 288.599962 
L 259.59535 297.806062 
L 260.025216 297.003479 
L 260.455081 304.368359 
L 260.884947 304.321149 
L 261.314812 305.265364 
L 261.744678 307.956378 
L 262.174543 309.136647 
L 262.604409 317.115268 
L 263.034275 317.115268 
L 263.46414 312.158137 
L 263.894006 312.063715 
L 264.323871 310.930657 
L 264.753737 310.930657 
L 265.183602 301.677345 
L 265.613468 301.724556 
L 266.043333 300.213811 
L 266.473199 309.419912 
L 266.903064 309.089437 
L 267.762795 290.866079 
L 268.192661 292.18798 
L 268.622527 282.887458 
L 269.052392 282.98188 
L 269.482258 281.990453 
L 269.912123 282.273718 
L 270.341989 282.36814 
L 270.771854 282.320929 
L 271.20172 283.02909 
L 271.631585 292.329613 
L 272.061451 292.612877 
L 273.351048 264.711311 
L 273.780913 274.106254 
L 274.640644 274.106254 
L 275.07051 267.355114 
L 275.500375 267.071849 
L 276.360106 266.080423 
L 276.789972 264.05036 
L 277.219837 263.625463 
L 277.649703 265.655526 
L 278.079568 264.522468 
L 278.509434 263.719885 
L 278.9393 264.097571 
L 279.369165 264.05036 
L 279.799031 262.586826 
L 280.228896 262.397983 
L 280.658762 267.591168 
L 281.088627 266.835796 
L 281.518493 267.449536 
L 282.378224 285.767315 
L 282.808089 287.514114 
L 283.237955 289.921863 
L 283.667821 288.458329 
L 284.097686 279.393861 
L 284.957417 279.393861 
L 285.387283 269.998917 
L 285.817148 269.998917 
L 286.247014 269.52681 
L 286.676879 270.093339 
L 287.106745 269.857285 
L 287.53661 269.290756 
L 287.966476 268.110486 
L 288.396341 265.749948 
L 289.256073 265.938791 
L 290.545669 291.763083 
L 290.975535 289.355334 
L 292.265131 316.784793 
L 292.694997 307.767535 
L 293.554728 308.428486 
L 293.984593 310.458549 
L 294.414459 311.213921 
L 296.133921 275.900264 
L 296.563787 275.380945 
L 296.993652 278.260802 
L 297.853383 278.071959 
L 298.713114 260.98166 
L 299.14298 260.840027 
L 300.002711 261.359346 
L 300.862442 244.45789 
L 301.292308 244.45789 
L 301.722173 253.711201 
L 303.01177 253.711201 
L 303.441635 254.749838 
L 304.301366 236.668112 
L 304.731232 237.470695 
L 305.161098 229.492075 
L 305.590963 231.994246 
L 306.020829 231.852613 
L 306.450694 222.552091 
L 306.88056 222.552091 
L 307.740291 206.075532 
L 308.170156 208.294438 
L 308.600022 198.993916 
L 309.029887 199.041127 
L 309.459753 190.212712 
L 309.889619 190.212712 
L 310.319484 189.929448 
L 310.74935 190.259923 
L 311.179215 189.882237 
L 311.609081 180.959401 
L 312.898677 208.483281 
L 313.328543 208.483281 
L 313.758408 199.749288 
L 314.188274 199.702077 
L 314.618139 190.543188 
L 316.767467 190.826452 
L 317.197333 191.062506 
L 318.486929 191.062506 
L 318.916795 191.204138 
L 319.34666 195.689162 
L 320.206391 214.054152 
L 320.636257 214.006941 
L 321.495988 232.324721 
L 321.925854 231.569349 
L 322.355719 240.633817 
L 322.785585 240.539395 
L 323.21545 240.114498 
L 323.645316 248.75407 
L 324.075181 247.904276 
L 324.934912 266.269266 
L 325.364778 265.844369 
L 325.794644 275.192102 
L 326.224509 275.239313 
L 327.08424 290.913289 
L 327.514106 291.385397 
L 327.943971 291.338186 
L 328.373837 290.866079 
L 328.803702 300.024968 
L 329.233568 300.213811 
L 329.663433 299.364018 
L 330.093299 299.694493 
L 330.523164 306.634477 
L 330.95303 315.982209 
L 331.382896 315.321259 
L 331.812761 324.527359 
L 332.242627 324.621781 
L 333.102358 342.93956 
L 333.532223 342.467453 
L 333.962089 342.420242 
L 334.391954 342.184188 
L 335.251685 359.321698 
L 335.681551 368.480588 
L 336.111417 367.772426 
L 336.541282 372.635136 
L 336.971148 372.729558 
L 337.830879 372.115818 
L 338.260744 371.549288 
L 338.69061 371.832553 
L 339.120475 372.493504 
L 339.980206 372.635136 
L 340.410072 373.154455 
L 341.269803 374.617988 
L 341.699669 374.334724 
L 342.129534 374.570778 
L 342.5594 374.665199 
L 342.989265 373.532141 
L 343.419131 373.296087 
L 344.278862 376.128733 
L 344.708727 375.798258 
L 345.138593 375.845469 
L 345.568458 375.562204 
L 346.428189 375.32615 
L 346.858055 375.987101 
L 347.287921 375.798258 
L 347.717786 378.253218 
L 348.147652 377.828321 
L 348.577517 378.536483 
L 349.007383 378.725326 
L 349.437248 378.39485 
L 349.867114 378.678115 
L 350.296979 378.158796 
L 350.726845 378.536483 
L 351.586576 378.442061 
L 352.016442 379.763963 
L 352.446307 379.811173 
L 353.306038 380.23607 
L 353.735904 379.952806 
L 354.165769 379.386276 
L 354.595635 379.669541 
L 355.0255 379.811173 
L 355.455366 379.57512 
L 355.885231 379.57512 
L 356.315097 379.339066 
L 356.744962 379.57512 
L 358.034559 379.480698 
L 358.464425 379.339066 
L 359.324156 378.442061 
L 359.754021 378.536483 
L 360.183887 378.819747 
L 360.613752 378.866958 
L 361.043618 378.253218 
L 361.473483 378.206007 
L 361.903349 377.403424 
L 362.333215 377.403424 
L 362.76308 378.064375 
L 363.622811 378.678115 
L 364.482542 379.00859 
L 364.912408 379.00859 
L 365.342273 377.828321 
L 366.63187 376.175944 
L 367.061735 374.381935 
L 367.491601 374.759621 
L 367.921467 374.617988 
L 368.351332 374.806832 
L 368.781198 374.854042 
L 369.211063 374.759621 
L 369.640929 374.854042 
L 370.070794 374.806832 
L 370.50066 375.32615 
L 370.930525 375.609415 
L 371.360391 376.175944 
L 371.790256 376.128733 
L 372.220122 376.364787 
L 372.649987 377.214581 
L 373.079853 377.356213 
L 373.509719 376.459209 
L 373.939584 373.957038 
L 374.36945 373.862616 
L 374.799315 373.107244 
L 375.229181 372.87119 
L 376.088912 372.965611 
L 376.518777 372.823979 
L 376.948643 373.012822 
L 377.378508 373.862616 
L 377.808374 373.579351 
L 378.23824 374.004248 
L 378.668105 373.673773 
L 379.097971 374.71241 
L 379.527836 374.71241 
L 379.957702 375.373361 
L 380.817433 375.373361 
L 381.247298 365.978417 
L 381.677164 364.184408 
L 382.107029 363.995565 
L 382.536895 365.647942 
L 382.96676 365.742363 
L 383.396626 366.214471 
L 383.826492 357.763743 
L 384.256357 359.038434 
L 384.686223 359.368909 
L 385.545954 359.321698 
L 385.975819 359.132855 
L 386.405685 359.085644 
L 386.83555 349.690701 
L 387.695281 349.407436 
L 388.555013 330.948024 
L 389.414744 330.900813 
L 389.844609 329.673333 
L 390.274475 329.673333 
L 390.70434 330.948024 
L 391.134206 330.617549 
L 391.564071 321.364237 
L 391.993937 322.025188 
L 392.853668 306.115158 
L 393.283533 307.106584 
L 393.713399 306.587266 
L 394.143265 297.428376 
L 394.57313 296.200896 
L 395.002996 296.342528 
L 395.432861 294.454097 
L 395.862727 294.973416 
L 396.292592 285.672894 
L 396.722458 285.106364 
L 397.582189 266.316477 
L 398.012054 263.814306 
L 398.44192 272.453877 
L 398.871785 273.114828 
L 399.301651 273.303671 
L 399.731517 272.642721 
L 400.591248 272.831564 
L 401.021113 281.707189 
L 401.450979 282.226507 
L 401.880844 280.668552 
L 402.31071 271.509662 
L 402.740575 269.668442 
L 403.170441 260.745606 
L 403.600306 260.887238 
L 404.460038 260.887238 
L 404.889903 260.36792 
L 405.319769 269.762863 
L 405.749634 269.762863 
L 406.609365 251.114608 
L 407.039231 251.917192 
L 407.469096 251.445084 
L 407.898962 249.131756 
L 408.328827 251.539505 
L 408.758693 260.651184 
L 409.188558 259.80139 
L 410.04829 276.27795 
L 410.478155 266.883006 
L 410.908021 267.591168 
L 411.337886 276.608425 
L 412.197617 277.411009 
L 412.627483 279.34665 
L 413.057348 278.921753 
L 413.487214 278.921753 
L 413.917079 270.093339 
L 414.776811 270.093339 
L 415.206676 272.548299 
L 415.636542 273.114828 
L 416.066407 274.295098 
L 416.496273 264.900154 
L 416.926138 264.380835 
L 417.356004 255.269156 
L 417.785869 255.269156 
L 418.215735 254.985892 
L 418.6456 254.985892 
L 419.075466 247.148904 
L 419.505331 252.766985 
L 419.935197 253.947255 
L 420.365063 263.342198 
L 420.794928 263.531041 
L 421.224794 272.737142 
L 421.654659 272.642721 
L 422.084525 273.303671 
L 422.51439 273.303671 
L 423.803987 300.685919 
L 424.233852 299.647282 
L 424.663718 299.647282 
L 425.093583 301.818978 
L 425.523449 302.196664 
L 426.813046 275.286524 
L 427.242911 275.05047 
L 427.672777 284.067727 
L 428.532508 284.634257 
L 429.822104 283.926095 
L 430.25197 282.132086 
L 431.111701 300.921973 
L 431.971432 300.921973 
L 432.401298 300.402655 
L 432.831163 300.591498 
L 433.261029 300.449865 
L 433.690894 309.655966 
L 434.550625 311.922083 
L 434.980491 311.922083 
L 435.410356 306.020736 
L 435.840222 305.359786 
L 436.270088 313.716092 
L 436.699953 317.351322 
L 437.129819 315.982209 
L 437.98955 315.793366 
L 438.419415 315.321259 
L 439.279146 315.41568 
L 439.709012 315.226837 
L 440.138877 314.377043 
L 440.568743 311.213921 
L 440.998609 311.922083 
L 441.428474 313.149563 
L 441.85834 313.432828 
L 442.288205 313.527249 
L 442.718071 306.587266 
L 444.007667 334.205567 
L 444.437533 333.969514 
L 444.867398 334.016724 
L 445.727129 333.827881 
L 446.156995 334.819308 
L 446.586861 334.819308 
L 447.016726 334.96094 
L 447.446592 334.536043 
L 447.876457 334.488832 
L 448.306323 329.059593 
L 449.166054 346.952476 
L 449.595919 345.441731 
L 450.025785 345.205677 
L 450.45565 345.205677 
L 450.885516 344.591937 
L 451.315381 344.544727 
L 451.745247 352.381715 
L 452.175113 342.986771 
L 452.604978 346.385947 
L 453.034844 347.046897 
L 453.464709 344.922413 
L 453.894575 343.458879 
L 454.32444 342.656296 
L 454.754306 342.184188 
L 455.184171 341.900923 
L 455.614037 342.561874 
L 456.043902 341.664869 
L 456.473768 341.239973 
L 456.903634 341.192762 
L 457.333499 341.617659 
L 457.763365 344.686359 
L 458.19323 344.497516 
L 459.052961 344.544727 
L 459.482827 344.403094 
L 459.912692 351.201445 
L 460.342558 351.201445 
L 460.772423 344.875202 
L 461.202289 344.025408 
L 461.632154 344.450305 
L 462.06202 343.317246 
L 462.491886 334.063935 
L 463.351617 332.647612 
L 463.781482 332.789244 
L 464.211348 333.11972 
L 464.641213 334.819308 
L 465.071079 334.630464 
L 465.500944 339.587595 
L 465.93081 336.991003 
L 466.360675 337.227057 
L 466.790541 337.321478 
L 467.220407 336.707738 
L 467.650272 336.80216 
L 468.080138 337.604743 
L 468.939869 337.604743 
L 469.369734 346.716422 
L 469.7996 349.973965 
L 470.229465 349.690701 
L 470.659331 352.806612 
L 471.089196 354.364567 
L 471.519062 357.197214 
L 471.948927 357.716532 
L 472.808659 356.583473 
L 473.238524 357.669321 
L 474.098255 358.283061 
L 474.957986 358.660747 
L 475.387852 358.094218 
L 476.247583 358.424694 
L 476.677448 358.094218 
L 477.107314 358.235851 
L 477.537179 358.235851 
L 477.967045 364.845359 
L 478.396911 365.931206 
L 478.826776 362.720874 
L 479.256642 363.617879 
L 479.686507 372.351871 
L 480.116373 373.343298 
L 480.546238 373.815405 
L 480.976104 373.862616 
L 481.405969 373.532141 
L 481.835835 374.09867 
L 482.2657 374.051459 
L 482.695566 374.476356 
L 483.125432 377.356213 
L 483.555297 375.231728 
L 483.985163 377.214581 
L 484.415028 377.733899 
L 484.844894 376.695262 
L 485.704625 376.081522 
L 486.13449 376.506419 
L 486.564356 376.459209 
L 486.994221 375.892679 
L 487.424087 376.175944 
L 487.853952 375.420572 
L 488.283818 374.901253 
L 489.143549 374.948464 
L 489.573415 375.892679 
L 490.00328 376.364787 
L 490.433146 376.081522 
L 490.863011 376.081522 
L 491.722742 375.514993 
L 492.152608 372.540714 
L 492.582473 373.343298 
L 493.012339 373.201665 
L 493.442205 372.823979 
L 493.87207 373.296087 
L 494.301936 373.343298 
L 495.161667 372.776768 
L 495.591532 371.974185 
L 496.021398 375.231728 
L 496.451263 375.184518 
L 496.881129 375.845469 
L 497.310994 373.579351 
L 497.74086 369.094328 
L 498.170725 369.094328 
L 498.600591 369.424804 
L 499.460322 368.811063 
L 499.890188 368.811063 
L 500.320053 368.338956 
L 500.749919 369.23596 
L 501.179784 368.905485 
L 501.60965 368.905485 
L 502.039515 369.141539 
L 502.469381 368.763853 
L 502.899246 368.999907 
L 503.329112 367.866848 
L 503.758977 368.150113 
L 504.188843 367.819637 
L 504.618709 367.819637 
L 505.048574 367.630794 
L 505.47844 368.150113 
L 507.627767 368.291745 
L 508.057633 368.291745 
L 508.487498 368.00848 
L 508.917364 368.338956 
L 509.34723 371.02997 
L 509.777095 369.519225 
L 510.636826 369.80249 
L 511.066692 369.566436 
L 511.496557 368.57501 
L 511.926423 368.00848 
L 512.356288 366.781 
L 512.786154 366.16726 
L 513.216019 366.025628 
L 514.07575 366.025628 
L 514.505616 367.772426 
L 514.935482 372.304661 
L 515.365347 371.738131 
L 515.795213 369.660857 
L 516.225078 370.227387 
L 516.654944 370.321808 
L 517.084809 367.772426 
L 517.514675 367.914059 
L 517.94454 369.283171 
L 518.804271 369.755279 
L 519.234137 370.41623 
L 519.664003 368.433377 
L 520.093868 368.527799 
L 520.523734 369.708068 
L 520.953599 369.566436 
L 521.383465 370.180176 
L 521.81333 369.660857 
L 522.243196 370.510651 
L 522.673061 369.944122 
L 523.102927 366.875422 
L 523.532792 365.175834 
L 523.962658 365.175834 
L 524.392523 364.892569 
L 524.822389 365.081412 
L 525.252255 364.845359 
L 525.68212 365.364677 
L 526.111986 365.081412 
L 526.541851 364.562094 
L 526.971717 366.072839 
L 527.831448 366.356103 
L 528.261313 366.639368 
L 528.691179 367.583583 
L 529.121044 368.150113 
L 529.55091 368.999907 
L 529.980775 370.180176 
L 530.410641 370.321808 
L 530.840507 370.888337 
L 531.270372 370.793916 
L 531.700238 371.02997 
L 532.130103 370.510651 
L 532.559969 370.935548 
L 532.989834 372.87119 
L 533.4197 373.060033 
L 533.849565 373.579351 
L 534.279431 376.175944 
L 534.709296 376.411998 
L 535.139162 376.317576 
L 535.569028 375.987101 
L 535.998893 375.798258 
L 536.428759 375.845469 
L 536.858624 378.300429 
L 537.28849 378.111586 
L 537.718355 378.111586 
L 538.148221 375.373361 
L 539.007952 375.987101 
L 539.437817 375.987101 
L 539.867683 376.600841 
L 540.297548 378.347639 
L 540.727414 379.433487 
L 541.15728 379.433487 
L 542.017011 378.064375 
L 542.876742 378.111586 
L 543.306607 378.347639 
L 543.736473 379.150223 
L 545.026069 378.772536 
L 545.455935 378.347639 
L 546.315666 378.300429 
L 546.745532 378.819747 
L 547.175397 377.450635 
L 547.605263 377.450635 
L 548.035128 377.261792 
L 548.464994 376.884106 
L 548.894859 377.16737 
L 549.324725 377.072949 
L 549.75459 374.523567 
L 550.184456 374.665199 
L 550.614321 372.823979 
L 551.044187 372.823979 
L 551.474053 372.351871 
L 553.62338 372.729558 
L 554.053246 363.570668 
L 554.483111 363.617879 
L 554.912977 354.222935 
L 555.342842 347.755059 
L 555.772708 338.360115 
L 556.202573 338.454537 
L 556.632439 338.312905 
L 557.062305 337.699165 
L 557.49217 338.926645 
L 557.922036 330.145441 
L 558.351901 330.09823 
L 558.781767 321.647502 
L 559.211632 322.166821 
L 559.641498 322.355664 
L 560.071363 322.214031 
L 560.501229 322.402874 
L 561.36096 322.355664 
L 561.790826 322.544507 
L 562.220691 322.450085 
L 562.650557 322.780561 
L 563.080422 322.73335 
L 563.940153 304.462781 
L 564.370019 305.831893 
L 564.799884 296.43695 
L 565.22975 296.531371 
L 565.659615 296.956268 
L 566.089481 296.909057 
L 566.519346 297.570008 
L 566.949212 290.866079 
L 567.379078 290.441182 
L 568.238809 273.492514 
L 568.668674 273.964622 
L 569.528405 255.410789 
L 569.958271 255.599632 
L 570.388136 246.629585 
L 570.818002 246.676796 
L 571.247867 256.071739 
L 571.677733 256.024529 
L 572.537464 274.672784 
L 573.397195 274.767205 
L 573.827061 265.655526 
L 574.256926 266.174845 
L 574.686792 266.222056 
L 575.116657 275.616999 
L 575.976388 275.66421 
L 576.406254 275.947475 
L 576.836119 275.853053 
L 577.265985 275.947475 
L 578.125716 275.805842 
L 578.985447 257.204798 
L 579.415313 257.204798 
L 579.845178 247.904276 
L 580.275044 247.998697 
L 580.704909 257.29922 
L 581.134775 257.29922 
L 581.56464 257.440852 
L 581.994506 266.835796 
L 582.424371 257.582484 
L 583.713968 257.629695 
L 584.143834 257.629695 
L 584.573699 248.659648 
L 585.003565 257.91296 
L 585.863296 257.818538 
L 586.723027 276.561215 
L 587.152892 276.466793 
L 587.582758 285.861737 
L 588.442489 285.672894 
L 588.872355 285.767315 
L 589.30222 276.466793 
L 589.732086 276.419582 
L 590.161951 285.767315 
L 590.591817 285.767315 
L 591.021682 295.115048 
L 591.451548 295.20947 
L 592.311279 295.067837 
L 592.741144 285.672894 
L 594.460607 285.720104 
L 595.750203 285.908948 
L 596.180069 294.831783 
L 596.609934 294.878994 
L 597.0398 304.273938 
L 597.899531 304.179516 
L 598.329396 313.432828 
L 598.759262 313.527249 
L 599.189128 313.291195 
L 599.618993 322.686139 
L 600.048859 322.686139 
L 600.478724 322.355664 
L 600.90859 322.355664 
L 601.768321 340.815076 
L 602.198186 339.634806 
L 602.628052 348.793696 
L 603.917649 348.746485 
L 605.207245 348.840907 
L 606.066976 349.02975 
L 606.496842 358.377483 
L 606.926707 358.471904 
L 607.356573 358.377483 
L 607.786438 358.424694 
L 608.216304 358.283061 
L 608.646169 358.283061 
L 609.076035 357.905375 
L 609.505901 357.999797 
L 610.365632 376.600841 
L 610.795497 376.506419 
L 611.225363 376.175944 
L 611.655228 376.034312 
L 612.514959 376.081522 
L 612.944825 385.429255 
L 613.37469 385.901363 
L 613.804556 384.48504 
L 615.953884 384.060143 
L 616.383749 384.201775 
L 617.24348 383.8713 
L 617.673346 384.107354 
L 618.103211 384.107354 
L 618.533077 384.296197 
L 618.962942 384.296197 
L 619.392808 385.570888 
L 619.822674 385.051569 
L 620.252539 385.145991 
L 620.682405 384.957148 
L 624.121329 384.673883 
L 624.551194 384.815515 
L 624.98106 384.437829 
L 625.840791 384.48504 
L 626.270657 384.815515 
L 626.700522 384.532251 
L 627.130388 384.721094 
L 627.560253 384.48504 
L 627.990119 384.437829 
L 628.84985 384.815515 
L 629.279715 384.579461 
L 629.709581 384.48504 
L 630.139447 384.532251 
L 630.569312 384.154564 
L 630.999178 385.570888 
L 631.858909 385.759731 
L 632.71864 386.231838 
L 633.148505 386.137417 
L 634.008236 386.231838 
L 634.867967 386.137417 
L 635.297833 386.231838 
L 636.157564 385.901363 
L 636.58743 385.901363 
L 637.017295 386.656735 
L 637.447161 386.656735 
L 637.877026 386.892789 
L 638.306892 386.94 
L 639.596488 359.085644 
L 640.026354 359.132855 
L 640.886085 340.342968 
L 641.745816 340.342968 
L 642.175682 331.32571 
L 642.605547 331.467343 
L 646.044472 257.34643 
L 646.474337 257.582484 
L 647.334068 238.887018 
L 647.763934 239.264705 
L 651.632724 155.371162 
L 652.062589 155.465584 
L 655.501513 80.919775 
L 656.79111 80.919775 
L 657.220976 71.524831 
L 658.510572 71.524831 
L 658.940438 62.129887 
L 661.089765 62.129887 
L 661.519631 71.524831 
L 663.239093 71.524831 
L 663.668959 62.129887 
L 664.52869 62.129887 
L 664.958555 52.734944 
L 668.827345 52.734944 
L 669.257211 43.34 
L 670.116942 43.34 
L 670.546807 52.734944 
L 671.836404 52.734944 
L 672.26627 62.129887 
L 673.126001 62.129887 
L 673.555866 71.524831 
L 675.275328 71.524831 
L 675.705194 62.129887 
L 676.564925 62.129887 
L 676.99479 52.734944 
L 677.424656 52.734944 
L 678.284387 71.524831 
L 678.714253 62.129887 
L 679.573984 62.129887 
L 680.003849 66.190014 
L 680.433715 75.065639 
L 680.86358 75.065639 
L 681.293446 84.271739 
L 682.153177 84.271739 
L 682.583043 93.572262 
L 683.012908 93.572262 
L 683.872639 110.756983 
L 684.302505 110.756983 
L 684.73237 120.010294 
L 685.162236 120.010294 
L 685.592101 129.405238 
L 686.881698 129.405238 
L 687.311563 138.611338 
L 687.741429 138.516917 
L 688.171295 147.439753 
L 690.320622 147.439753 
L 690.750488 138.044809 
L 693.329681 138.044809 
L 693.759547 147.439753 
L 694.189412 147.439753 
L 694.619278 156.504221 
L 695.049143 147.109277 
L 696.33874 147.109277 
L 696.768605 156.504221 
L 697.198471 152.444095 
L 697.628336 143.568469 
L 698.058202 152.77457 
L 698.488068 143.568469 
L 700.20753 143.662891 
L 700.637395 145.032003 
L 701.067261 144.937582 
L 701.497126 154.00205 
L 702.356857 154.096472 
L 702.786723 154.096472 
L 704.07632 181.856406 
L 704.936051 181.998038 
L 705.365916 173.075202 
L 706.225647 190.543188 
L 706.655513 181.148244 
L 707.085378 181.148244 
L 707.945109 199.277181 
L 709.664572 199.277181 
L 710.524303 218.067068 
L 710.954168 208.672124 
L 711.384034 217.122852 
L 711.813899 208.058384 
L 712.243765 217.170063 
L 712.67363 207.77512 
L 713.533361 207.77512 
L 713.963227 207.350223 
L 714.822958 225.856845 
L 715.252824 216.650745 
L 715.682689 216.650745 
L 716.54242 235.251789 
L 716.972286 235.204578 
L 717.402151 244.599522 
L 717.832017 235.440632 
L 718.261882 234.638049 
L 718.691748 234.921314 
L 719.121614 234.779681 
L 719.551479 244.127414 
L 721.270941 206.972536 
L 722.130672 206.972536 
L 722.560538 215.328843 
L 722.990403 207.161379 
L 723.420269 207.255801 
L 724.28 226.045688 
L 724.28 226.045688 
" style="fill:none;stroke:#ff7f0e;stroke-linecap:square;stroke-width:1.5;"/>
   </g>
   <g id="patch_3">
    <path d="M 36.925 404.12 
L 36.925 26.16 
" style="fill:none;stroke:#000000;stroke-linecap:square;stroke-linejoin:miter;stroke-width:0.8;"/>
   </g>
   <g id="patch_4">
    <path d="M 724.28 404.12 
L 724.28 26.16 
" style="fill:none;stroke:#000000;stroke-linecap:square;stroke-linejoin:miter;stroke-width:0.8;"/>
   </g>
   <g id="patch_5">
    <path d="M 36.925 404.12 
L 724.28 404.12 
" style="fill:none;stroke:#000000;stroke-linecap:square;stroke-linejoin:miter;stroke-width:0.8;"/>
   </g>
   <g id="patch_6">
    <path d="M 36.925 26.16 
L 724.28 26.16 
" style="fill:none;stroke:#000000;stroke-linecap:square;stroke-linejoin:miter;stroke-width:0.8;"/>
   </g>
   <g id="text_17">
    <!-- gridworld_5x5_100_2_8_1337__2: episode duration, steps, MA=40 -->
    <defs>
     <path d="M 45.40625 27.984375 
Q 45.40625 37.75 41.375 43.109375 
Q 37.359375 48.484375 30.078125 48.484375 
Q 22.859375 48.484375 18.828125 43.109375 
Q 14.796875 37.75 14.796875 27.984375 
Q 14.796875 18.265625 18.828125 12.890625 
Q 22.859375 7.515625 30.078125 7.515625 
Q 37.359375 7.515625 41.375 12.890625 
Q 45.40625 18.265625 45.40625 27.984375 
z
M 54.390625 6.78125 
Q 54.390625 -7.171875 48.1875 -13.984375 
Q 42 -20.796875 29.203125 -20.796875 
Q 24.46875 -20.796875 20.265625 -20.09375 
Q 16.0625 -19.390625 12.109375 -17.921875 
L 12.109375 -9.1875 
Q 16.0625 -11.328125 19.921875 -12.34375 
Q 23.78125 -13.375 27.78125 -13.375 
Q 36.625 -13.375 41.015625 -8.765625 
Q 45.40625 -4.15625 45.40625 5.171875 
L 45.40625 9.625 
Q 42.625 4.78125 38.28125 2.390625 
Q 33.9375 0 27.875 0 
Q 17.828125 0 11.671875 7.65625 
Q 5.515625 15.328125 5.515625 27.984375 
Q 5.515625 40.671875 11.671875 48.328125 
Q 17.828125 56 27.875 56 
Q 33.9375 56 38.28125 53.609375 
Q 42.625 51.21875 45.40625 46.390625 
L 45.40625 54.6875 
L 54.390625 54.6875 
z
" id="DejaVuSans-103"/>
     <path d="M 41.109375 46.296875 
Q 39.59375 47.171875 37.8125 47.578125 
Q 36.03125 48 33.890625 48 
Q 26.265625 48 22.1875 43.046875 
Q 18.109375 38.09375 18.109375 28.8125 
L 18.109375 0 
L 9.078125 0 
L 9.078125 54.6875 
L 18.109375 54.6875 
L 18.109375 46.1875 
Q 20.953125 51.171875 25.484375 53.578125 
Q 30.03125 56 36.53125 56 
Q 37.453125 56 38.578125 55.875 
Q 39.703125 55.765625 41.0625 55.515625 
z
" id="DejaVuSans-114"/>
     <path d="M 9.421875 54.6875 
L 18.40625 54.6875 
L 18.40625 0 
L 9.421875 0 
z
M 9.421875 75.984375 
L 18.40625 75.984375 
L 18.40625 64.59375 
L 9.421875 64.59375 
z
" id="DejaVuSans-105"/>
     <path d="M 45.40625 46.390625 
L 45.40625 75.984375 
L 54.390625 75.984375 
L 54.390625 0 
L 45.40625 0 
L 45.40625 8.203125 
Q 42.578125 3.328125 38.25 0.953125 
Q 33.9375 -1.421875 27.875 -1.421875 
Q 17.96875 -1.421875 11.734375 6.484375 
Q 5.515625 14.40625 5.515625 27.296875 
Q 5.515625 40.1875 11.734375 48.09375 
Q 17.96875 56 27.875 56 
Q 33.9375 56 38.25 53.625 
Q 42.578125 51.265625 45.40625 46.390625 
z
M 14.796875 27.296875 
Q 14.796875 17.390625 18.875 11.75 
Q 22.953125 6.109375 30.078125 6.109375 
Q 37.203125 6.109375 41.296875 11.75 
Q 45.40625 17.390625 45.40625 27.296875 
Q 45.40625 37.203125 41.296875 42.84375 
Q 37.203125 48.484375 30.078125 48.484375 
Q 22.953125 48.484375 18.875 42.84375 
Q 14.796875 37.203125 14.796875 27.296875 
z
" id="DejaVuSans-100"/>
     <path d="M 4.203125 54.6875 
L 13.1875 54.6875 
L 24.421875 12.015625 
L 35.59375 54.6875 
L 46.1875 54.6875 
L 57.421875 12.015625 
L 68.609375 54.6875 
L 77.59375 54.6875 
L 63.28125 0 
L 52.6875 0 
L 40.921875 44.828125 
L 29.109375 0 
L 18.5 0 
z
" id="DejaVuSans-119"/>
     <path d="M 30.609375 48.390625 
Q 23.390625 48.390625 19.1875 42.75 
Q 14.984375 37.109375 14.984375 27.296875 
Q 14.984375 17.484375 19.15625 11.84375 
Q 23.34375 6.203125 30.609375 6.203125 
Q 37.796875 6.203125 41.984375 11.859375 
Q 46.1875 17.53125 46.1875 27.296875 
Q 46.1875 37.015625 41.984375 42.703125 
Q 37.796875 48.390625 30.609375 48.390625 
z
M 30.609375 56 
Q 42.328125 56 49.015625 48.375 
Q 55.71875 40.765625 55.71875 27.296875 
Q 55.71875 13.875 49.015625 6.21875 
Q 42.328125 -1.421875 30.609375 -1.421875 
Q 18.84375 -1.421875 12.171875 6.21875 
Q 5.515625 13.875 5.515625 27.296875 
Q 5.515625 40.765625 12.171875 48.375 
Q 18.84375 56 30.609375 56 
z
" id="DejaVuSans-111"/>
     <path d="M 9.421875 75.984375 
L 18.40625 75.984375 
L 18.40625 0 
L 9.421875 0 
z
" id="DejaVuSans-108"/>
     <path d="M 50.984375 -16.609375 
L 50.984375 -23.578125 
L -0.984375 -23.578125 
L -0.984375 -16.609375 
z
" id="DejaVuSans-95"/>
     <path d="M 54.890625 54.6875 
L 35.109375 28.078125 
L 55.90625 0 
L 45.3125 0 
L 29.390625 21.484375 
L 13.484375 0 
L 2.875 0 
L 24.125 28.609375 
L 4.6875 54.6875 
L 15.28125 54.6875 
L 29.78125 35.203125 
L 44.28125 54.6875 
z
" id="DejaVuSans-120"/>
     <path d="M 40.578125 39.3125 
Q 47.65625 37.796875 51.625 33 
Q 55.609375 28.21875 55.609375 21.1875 
Q 55.609375 10.40625 48.1875 4.484375 
Q 40.765625 -1.421875 27.09375 -1.421875 
Q 22.515625 -1.421875 17.65625 -0.515625 
Q 12.796875 0.390625 7.625 2.203125 
L 7.625 11.71875 
Q 11.71875 9.328125 16.59375 8.109375 
Q 21.484375 6.890625 26.8125 6.890625 
Q 36.078125 6.890625 40.9375 10.546875 
Q 45.796875 14.203125 45.796875 21.1875 
Q 45.796875 27.640625 41.28125 31.265625 
Q 36.765625 34.90625 28.71875 34.90625 
L 20.21875 34.90625 
L 20.21875 43.015625 
L 29.109375 43.015625 
Q 36.375 43.015625 40.234375 45.921875 
Q 44.09375 48.828125 44.09375 54.296875 
Q 44.09375 59.90625 40.109375 62.90625 
Q 36.140625 65.921875 28.71875 65.921875 
Q 24.65625 65.921875 20.015625 65.03125 
Q 15.375 64.15625 9.8125 62.3125 
L 9.8125 71.09375 
Q 15.4375 72.65625 20.34375 73.4375 
Q 25.25 74.21875 29.59375 74.21875 
Q 40.828125 74.21875 47.359375 69.109375 
Q 53.90625 64.015625 53.90625 55.328125 
Q 53.90625 49.265625 50.4375 45.09375 
Q 46.96875 40.921875 40.578125 39.3125 
z
" id="DejaVuSans-51"/>
     <path d="M 11.71875 12.40625 
L 22.015625 12.40625 
L 22.015625 0 
L 11.71875 0 
z
M 11.71875 51.703125 
L 22.015625 51.703125 
L 22.015625 39.3125 
L 11.71875 39.3125 
z
" id="DejaVuSans-58"/>
     <path id="DejaVuSans-32"/>
     <path d="M 56.203125 29.59375 
L 56.203125 25.203125 
L 14.890625 25.203125 
Q 15.484375 15.921875 20.484375 11.0625 
Q 25.484375 6.203125 34.421875 6.203125 
Q 39.59375 6.203125 44.453125 7.46875 
Q 49.3125 8.734375 54.109375 11.28125 
L 54.109375 2.78125 
Q 49.265625 0.734375 44.1875 -0.34375 
Q 39.109375 -1.421875 33.890625 -1.421875 
Q 20.796875 -1.421875 13.15625 6.1875 
Q 5.515625 13.8125 5.515625 26.8125 
Q 5.515625 40.234375 12.765625 48.109375 
Q 20.015625 56 32.328125 56 
Q 43.359375 56 49.78125 48.890625 
Q 56.203125 41.796875 56.203125 29.59375 
z
M 47.21875 32.234375 
Q 47.125 39.59375 43.09375 43.984375 
Q 39.0625 48.390625 32.421875 48.390625 
Q 24.90625 48.390625 20.390625 44.140625 
Q 15.875 39.890625 15.1875 32.171875 
z
" id="DejaVuSans-101"/>
     <path d="M 18.109375 8.203125 
L 18.109375 -20.796875 
L 9.078125 -20.796875 
L 9.078125 54.6875 
L 18.109375 54.6875 
L 18.109375 46.390625 
Q 20.953125 51.265625 25.265625 53.625 
Q 29.59375 56 35.59375 56 
Q 45.5625 56 51.78125 48.09375 
Q 58.015625 40.1875 58.015625 27.296875 
Q 58.015625 14.40625 51.78125 6.484375 
Q 45.5625 -1.421875 35.59375 -1.421875 
Q 29.59375 -1.421875 25.265625 0.953125 
Q 20.953125 3.328125 18.109375 8.203125 
z
M 48.6875 27.296875 
Q 48.6875 37.203125 44.609375 42.84375 
Q 40.53125 48.484375 33.40625 48.484375 
Q 26.265625 48.484375 22.1875 42.84375 
Q 18.109375 37.203125 18.109375 27.296875 
Q 18.109375 17.390625 22.1875 11.75 
Q 26.265625 6.109375 33.40625 6.109375 
Q 40.53125 6.109375 44.609375 11.75 
Q 48.6875 17.390625 48.6875 27.296875 
z
" id="DejaVuSans-112"/>
     <path d="M 44.28125 53.078125 
L 44.28125 44.578125 
Q 40.484375 46.53125 36.375 47.5 
Q 32.28125 48.484375 27.875 48.484375 
Q 21.1875 48.484375 17.84375 46.4375 
Q 14.5 44.390625 14.5 40.28125 
Q 14.5 37.15625 16.890625 35.375 
Q 19.28125 33.59375 26.515625 31.984375 
L 29.59375 31.296875 
Q 39.15625 29.25 43.1875 25.515625 
Q 47.21875 21.78125 47.21875 15.09375 
Q 47.21875 7.46875 41.1875 3.015625 
Q 35.15625 -1.421875 24.609375 -1.421875 
Q 20.21875 -1.421875 15.453125 -0.5625 
Q 10.6875 0.296875 5.421875 2 
L 5.421875 11.28125 
Q 10.40625 8.6875 15.234375 7.390625 
Q 20.0625 6.109375 24.8125 6.109375 
Q 31.15625 6.109375 34.5625 8.28125 
Q 37.984375 10.453125 37.984375 14.40625 
Q 37.984375 18.0625 35.515625 20.015625 
Q 33.0625 21.96875 24.703125 23.78125 
L 21.578125 24.515625 
Q 13.234375 26.265625 9.515625 29.90625 
Q 5.8125 33.546875 5.8125 39.890625 
Q 5.8125 47.609375 11.28125 51.796875 
Q 16.75 56 26.8125 56 
Q 31.78125 56 36.171875 55.265625 
Q 40.578125 54.546875 44.28125 53.078125 
z
" id="DejaVuSans-115"/>
     <path d="M 8.5 21.578125 
L 8.5 54.6875 
L 17.484375 54.6875 
L 17.484375 21.921875 
Q 17.484375 14.15625 20.5 10.265625 
Q 23.53125 6.390625 29.59375 6.390625 
Q 36.859375 6.390625 41.078125 11.03125 
Q 45.3125 15.671875 45.3125 23.6875 
L 45.3125 54.6875 
L 54.296875 54.6875 
L 54.296875 0 
L 45.3125 0 
L 45.3125 8.40625 
Q 42.046875 3.421875 37.71875 1 
Q 33.40625 -1.421875 27.6875 -1.421875 
Q 18.265625 -1.421875 13.375 4.4375 
Q 8.5 10.296875 8.5 21.578125 
z
M 31.109375 56 
z
" id="DejaVuSans-117"/>
     <path d="M 34.28125 27.484375 
Q 23.390625 27.484375 19.1875 25 
Q 14.984375 22.515625 14.984375 16.5 
Q 14.984375 11.71875 18.140625 8.90625 
Q 21.296875 6.109375 26.703125 6.109375 
Q 34.1875 6.109375 38.703125 11.40625 
Q 43.21875 16.703125 43.21875 25.484375 
L 43.21875 27.484375 
z
M 52.203125 31.203125 
L 52.203125 0 
L 43.21875 0 
L 43.21875 8.296875 
Q 40.140625 3.328125 35.546875 0.953125 
Q 30.953125 -1.421875 24.3125 -1.421875 
Q 15.921875 -1.421875 10.953125 3.296875 
Q 6 8.015625 6 15.921875 
Q 6 25.140625 12.171875 29.828125 
Q 18.359375 34.515625 30.609375 34.515625 
L 43.21875 34.515625 
L 43.21875 35.40625 
Q 43.21875 41.609375 39.140625 45 
Q 35.0625 48.390625 27.6875 48.390625 
Q 23 48.390625 18.546875 47.265625 
Q 14.109375 46.140625 10.015625 43.890625 
L 10.015625 52.203125 
Q 14.9375 54.109375 19.578125 55.046875 
Q 24.21875 56 28.609375 56 
Q 40.484375 56 46.34375 49.84375 
Q 52.203125 43.703125 52.203125 31.203125 
z
" id="DejaVuSans-97"/>
     <path d="M 18.3125 70.21875 
L 18.3125 54.6875 
L 36.8125 54.6875 
L 36.8125 47.703125 
L 18.3125 47.703125 
L 18.3125 18.015625 
Q 18.3125 11.328125 20.140625 9.421875 
Q 21.96875 7.515625 27.59375 7.515625 
L 36.8125 7.515625 
L 36.8125 0 
L 27.59375 0 
Q 17.1875 0 13.234375 3.875 
Q 9.28125 7.765625 9.28125 18.015625 
L 9.28125 47.703125 
L 2.6875 47.703125 
L 2.6875 54.6875 
L 9.28125 54.6875 
L 9.28125 70.21875 
z
" id="DejaVuSans-116"/>
     <path d="M 54.890625 33.015625 
L 54.890625 0 
L 45.90625 0 
L 45.90625 32.71875 
Q 45.90625 40.484375 42.875 44.328125 
Q 39.84375 48.1875 33.796875 48.1875 
Q 26.515625 48.1875 22.3125 43.546875 
Q 18.109375 38.921875 18.109375 30.90625 
L 18.109375 0 
L 9.078125 0 
L 9.078125 54.6875 
L 18.109375 54.6875 
L 18.109375 46.1875 
Q 21.34375 51.125 25.703125 53.5625 
Q 30.078125 56 35.796875 56 
Q 45.21875 56 50.046875 50.171875 
Q 54.890625 44.34375 54.890625 33.015625 
z
" id="DejaVuSans-110"/>
     <path d="M 11.71875 12.40625 
L 22.015625 12.40625 
L 22.015625 4 
L 14.015625 -11.625 
L 7.71875 -11.625 
L 11.71875 4 
z
" id="DejaVuSans-44"/>
     <path d="M 9.8125 72.90625 
L 24.515625 72.90625 
L 43.109375 23.296875 
L 61.8125 72.90625 
L 76.515625 72.90625 
L 76.515625 0 
L 66.890625 0 
L 66.890625 64.015625 
L 48.09375 14.015625 
L 38.1875 14.015625 
L 19.390625 64.015625 
L 19.390625 0 
L 9.8125 0 
z
" id="DejaVuSans-77"/>
     <path d="M 34.1875 63.1875 
L 20.796875 26.90625 
L 47.609375 26.90625 
z
M 28.609375 72.90625 
L 39.796875 72.90625 
L 67.578125 0 
L 57.328125 0 
L 50.6875 18.703125 
L 17.828125 18.703125 
L 11.1875 0 
L 0.78125 0 
z
" id="DejaVuSans-65"/>
     <path d="M 10.59375 45.40625 
L 73.1875 45.40625 
L 73.1875 37.203125 
L 10.59375 37.203125 
z
M 10.59375 25.484375 
L 73.1875 25.484375 
L 73.1875 17.1875 
L 10.59375 17.1875 
z
" id="DejaVuSans-61"/>
    </defs>
    <g transform="translate(181.744687 20.16)scale(0.12 -0.12)">
     <use xlink:href="#DejaVuSans-103"/>
     <use x="63.476562" xlink:href="#DejaVuSans-114"/>
     <use x="104.589844" xlink:href="#DejaVuSans-105"/>
     <use x="132.373047" xlink:href="#DejaVuSans-100"/>
     <use x="195.849609" xlink:href="#DejaVuSans-119"/>
     <use x="277.636719" xlink:href="#DejaVuSans-111"/>
     <use x="338.818359" xlink:href="#DejaVuSans-114"/>
     <use x="379.931641" xlink:href="#DejaVuSans-108"/>
     <use x="407.714844" xlink:href="#DejaVuSans-100"/>
     <use x="471.191406" xlink:href="#DejaVuSans-95"/>
     <use x="521.191406" xlink:href="#DejaVuSans-53"/>
     <use x="584.814453" xlink:href="#DejaVuSans-120"/>
     <use x="643.994141" xlink:href="#DejaVuSans-53"/>
     <use x="707.617188" xlink:href="#DejaVuSans-95"/>
     <use x="757.617188" xlink:href="#DejaVuSans-49"/>
     <use x="821.240234" xlink:href="#DejaVuSans-48"/>
     <use x="884.863281" xlink:href="#DejaVuSans-48"/>
     <use x="948.486328" xlink:href="#DejaVuSans-95"/>
     <use x="998.486328" xlink:href="#DejaVuSans-50"/>
     <use x="1062.109375" xlink:href="#DejaVuSans-95"/>
     <use x="1112.109375" xlink:href="#DejaVuSans-56"/>
     <use x="1175.732422" xlink:href="#DejaVuSans-95"/>
     <use x="1225.732422" xlink:href="#DejaVuSans-49"/>
     <use x="1289.355469" xlink:href="#DejaVuSans-51"/>
     <use x="1352.978516" xlink:href="#DejaVuSans-51"/>
     <use x="1416.601562" xlink:href="#DejaVuSans-55"/>
     <use x="1480.224609" xlink:href="#DejaVuSans-95"/>
     <use x="1530.224609" xlink:href="#DejaVuSans-95"/>
     <use x="1580.224609" xlink:href="#DejaVuSans-50"/>
     <use x="1643.847656" xlink:href="#DejaVuSans-58"/>
     <use x="1677.539062" xlink:href="#DejaVuSans-32"/>
     <use x="1709.326172" xlink:href="#DejaVuSans-101"/>
     <use x="1770.849609" xlink:href="#DejaVuSans-112"/>
     <use x="1834.326172" xlink:href="#DejaVuSans-105"/>
     <use x="1862.109375" xlink:href="#DejaVuSans-115"/>
     <use x="1914.208984" xlink:href="#DejaVuSans-111"/>
     <use x="1975.390625" xlink:href="#DejaVuSans-100"/>
     <use x="2038.867188" xlink:href="#DejaVuSans-101"/>
     <use x="2100.390625" xlink:href="#DejaVuSans-32"/>
     <use x="2132.177734" xlink:href="#DejaVuSans-100"/>
     <use x="2195.654297" xlink:href="#DejaVuSans-117"/>
     <use x="2259.033203" xlink:href="#DejaVuSans-114"/>
     <use x="2300.146484" xlink:href="#DejaVuSans-97"/>
     <use x="2361.425781" xlink:href="#DejaVuSans-116"/>
     <use x="2400.634766" xlink:href="#DejaVuSans-105"/>
     <use x="2428.417969" xlink:href="#DejaVuSans-111"/>
     <use x="2489.599609" xlink:href="#DejaVuSans-110"/>
     <use x="2552.978516" xlink:href="#DejaVuSans-44"/>
     <use x="2584.765625" xlink:href="#DejaVuSans-32"/>
     <use x="2616.552734" xlink:href="#DejaVuSans-115"/>
     <use x="2668.652344" xlink:href="#DejaVuSans-116"/>
     <use x="2707.861328" xlink:href="#DejaVuSans-101"/>
     <use x="2769.384766" xlink:href="#DejaVuSans-112"/>
     <use x="2832.861328" xlink:href="#DejaVuSans-115"/>
     <use x="2884.960938" xlink:href="#DejaVuSans-44"/>
     <use x="2916.748047" xlink:href="#DejaVuSans-32"/>
     <use x="2948.535156" xlink:href="#DejaVuSans-77"/>
     <use x="3034.814453" xlink:href="#DejaVuSans-65"/>
     <use x="3103.222656" xlink:href="#DejaVuSans-61"/>
     <use x="3187.011719" xlink:href="#DejaVuSans-52"/>
     <use x="3250.634766" xlink:href="#DejaVuSans-48"/>
    </g>
   </g>
   <g id="legend_1">
    <g id="patch_7">
     <path d="M 773.679125 231.59625 
L 854.751 231.59625 
Q 856.751 231.59625 856.751 229.59625 
L 856.751 200.68375 
Q 856.751 198.68375 854.751 198.68375 
L 773.679125 198.68375 
Q 771.679125 198.68375 771.679125 200.68375 
L 771.679125 229.59625 
Q 771.679125 231.59625 773.679125 231.59625 
z
" style="fill:#ffffff;opacity:0.8;stroke:#cccccc;stroke-linejoin:miter;"/>
    </g>
    <g id="line2d_19">
     <path d="M 775.679125 206.782187 
L 795.679125 206.782187 
" style="fill:none;stroke:#1f77b4;stroke-linecap:square;stroke-width:1.5;"/>
    </g>
    <g id="line2d_20"/>
    <g id="text_18">
     <!-- htm_2_1g -->
     <defs>
      <path d="M 54.890625 33.015625 
L 54.890625 0 
L 45.90625 0 
L 45.90625 32.71875 
Q 45.90625 40.484375 42.875 44.328125 
Q 39.84375 48.1875 33.796875 48.1875 
Q 26.515625 48.1875 22.3125 43.546875 
Q 18.109375 38.921875 18.109375 30.90625 
L 18.109375 0 
L 9.078125 0 
L 9.078125 75.984375 
L 18.109375 75.984375 
L 18.109375 46.1875 
Q 21.34375 51.125 25.703125 53.5625 
Q 30.078125 56 35.796875 56 
Q 45.21875 56 50.046875 50.171875 
Q 54.890625 44.34375 54.890625 33.015625 
z
" id="DejaVuSans-104"/>
      <path d="M 52 44.1875 
Q 55.375 50.25 60.0625 53.125 
Q 64.75 56 71.09375 56 
Q 79.640625 56 84.28125 50.015625 
Q 88.921875 44.046875 88.921875 33.015625 
L 88.921875 0 
L 79.890625 0 
L 79.890625 32.71875 
Q 79.890625 40.578125 77.09375 44.375 
Q 74.3125 48.1875 68.609375 48.1875 
Q 61.625 48.1875 57.5625 43.546875 
Q 53.515625 38.921875 53.515625 30.90625 
L 53.515625 0 
L 44.484375 0 
L 44.484375 32.71875 
Q 44.484375 40.625 41.703125 44.40625 
Q 38.921875 48.1875 33.109375 48.1875 
Q 26.21875 48.1875 22.15625 43.53125 
Q 18.109375 38.875 18.109375 30.90625 
L 18.109375 0 
L 9.078125 0 
L 9.078125 54.6875 
L 18.109375 54.6875 
L 18.109375 46.1875 
Q 21.1875 51.21875 25.484375 53.609375 
Q 29.78125 56 35.6875 56 
Q 41.65625 56 45.828125 52.96875 
Q 50 49.953125 52 44.1875 
z
" id="DejaVuSans-109"/>
     </defs>
     <g transform="translate(803.679125 210.282187)scale(0.1 -0.1)">
      <use xlink:href="#DejaVuSans-104"/>
      <use x="63.378906" xlink:href="#DejaVuSans-116"/>
      <use x="102.587891" xlink:href="#DejaVuSans-109"/>
      <use x="200" xlink:href="#DejaVuSans-95"/>
      <use x="250" xlink:href="#DejaVuSans-50"/>
      <use x="313.623047" xlink:href="#DejaVuSans-95"/>
      <use x="363.623047" xlink:href="#DejaVuSans-49"/>
      <use x="427.246094" xlink:href="#DejaVuSans-103"/>
     </g>
    </g>
    <g id="line2d_21">
     <path d="M 775.679125 221.738437 
L 795.679125 221.738437 
" style="fill:none;stroke:#ff7f0e;stroke-linecap:square;stroke-width:1.5;"/>
    </g>
    <g id="line2d_22"/>
    <g id="text_19">
     <!-- htm_2_4g -->
     <g transform="translate(803.679125 225.238437)scale(0.1 -0.1)">
      <use xlink:href="#DejaVuSans-104"/>
      <use x="63.378906" xlink:href="#DejaVuSans-116"/>
      <use x="102.587891" xlink:href="#DejaVuSans-109"/>
      <use x="200" xlink:href="#DejaVuSans-95"/>
      <use x="250" xlink:href="#DejaVuSans-50"/>
      <use x="313.623047" xlink:href="#DejaVuSans-95"/>
      <use x="363.623047" xlink:href="#DejaVuSans-52"/>
      <use x="427.246094" xlink:href="#DejaVuSans-103"/>
     </g>
    </g>
   </g>
  </g>
 </g>
 <defs>
  <clipPath id="p0ea635b762">
   <rect height="377.96" width="687.355" x="36.925" y="26.16"/>
  </clipPath>
 </defs>
</svg>
