<?xml version="1.0" encoding="utf-8" standalone="no"?>
<!DOCTYPE svg PUBLIC "-//W3C//DTD SVG 1.1//EN"
  "http://www.w3.org/Graphics/SVG/1.1/DTD/svg11.dtd">
<!-- Created with matplotlib (https://matplotlib.org/) -->
<svg height="432pt" version="1.1" viewBox="0 0 864 432" width="864pt" xmlns="http://www.w3.org/2000/svg" xmlns:xlink="http://www.w3.org/1999/xlink">
 <defs>
  <style type="text/css">
*{stroke-linecap:butt;stroke-linejoin:round;}
  </style>
 </defs>
 <g id="figure_1">
  <g id="patch_1">
   <path d="M 0 432 
L 864 432 
L 864 0 
L 0 0 
z
" style="fill:#ffffff;"/>
  </g>
  <g id="axes_1">
   <g id="patch_2">
    <path d="M 33.775 404.12 
L 724.28 404.12 
L 724.28 26.52 
L 33.775 26.52 
z
" style="fill:#ffffff;"/>
   </g>
   <g id="matplotlib.axis_1">
    <g id="xtick_1">
     <g id="line2d_1">
      <defs>
       <path d="M 0 0 
L 0 3.5 
" id="m6ce36dec0a" style="stroke:#000000;stroke-width:0.8;"/>
      </defs>
      <g>
       <use style="stroke:#000000;stroke-width:0.8;" x="33.775" xlink:href="#m6ce36dec0a" y="404.12"/>
      </g>
     </g>
     <g id="text_1">
      <!-- 0 -->
      <defs>
       <path d="M 31.78125 66.40625 
Q 24.171875 66.40625 20.328125 58.90625 
Q 16.5 51.421875 16.5 36.375 
Q 16.5 21.390625 20.328125 13.890625 
Q 24.171875 6.390625 31.78125 6.390625 
Q 39.453125 6.390625 43.28125 13.890625 
Q 47.125 21.390625 47.125 36.375 
Q 47.125 51.421875 43.28125 58.90625 
Q 39.453125 66.40625 31.78125 66.40625 
z
M 31.78125 74.21875 
Q 44.046875 74.21875 50.515625 64.515625 
Q 56.984375 54.828125 56.984375 36.375 
Q 56.984375 17.96875 50.515625 8.265625 
Q 44.046875 -1.421875 31.78125 -1.421875 
Q 19.53125 -1.421875 13.0625 8.265625 
Q 6.59375 17.96875 6.59375 36.375 
Q 6.59375 54.828125 13.0625 64.515625 
Q 19.53125 74.21875 31.78125 74.21875 
z
" id="DejaVuSans-48"/>
      </defs>
      <g transform="translate(30.59375 418.718437)scale(0.1 -0.1)">
       <use xlink:href="#DejaVuSans-48"/>
      </g>
     </g>
    </g>
    <g id="xtick_2">
     <g id="line2d_2">
      <g>
       <use style="stroke:#000000;stroke-width:0.8;" x="120.304449" xlink:href="#m6ce36dec0a" y="404.12"/>
      </g>
     </g>
     <g id="text_2">
      <!-- 50 -->
      <defs>
       <path d="M 10.796875 72.90625 
L 49.515625 72.90625 
L 49.515625 64.59375 
L 19.828125 64.59375 
L 19.828125 46.734375 
Q 21.96875 47.46875 24.109375 47.828125 
Q 26.265625 48.1875 28.421875 48.1875 
Q 40.625 48.1875 47.75 41.5 
Q 54.890625 34.8125 54.890625 23.390625 
Q 54.890625 11.625 47.5625 5.09375 
Q 40.234375 -1.421875 26.90625 -1.421875 
Q 22.3125 -1.421875 17.546875 -0.640625 
Q 12.796875 0.140625 7.71875 1.703125 
L 7.71875 11.625 
Q 12.109375 9.234375 16.796875 8.0625 
Q 21.484375 6.890625 26.703125 6.890625 
Q 35.15625 6.890625 40.078125 11.328125 
Q 45.015625 15.765625 45.015625 23.390625 
Q 45.015625 31 40.078125 35.4375 
Q 35.15625 39.890625 26.703125 39.890625 
Q 22.75 39.890625 18.8125 39.015625 
Q 14.890625 38.140625 10.796875 36.28125 
z
" id="DejaVuSans-53"/>
      </defs>
      <g transform="translate(113.941949 418.718437)scale(0.1 -0.1)">
       <use xlink:href="#DejaVuSans-53"/>
       <use x="63.623047" xlink:href="#DejaVuSans-48"/>
      </g>
     </g>
    </g>
    <g id="xtick_3">
     <g id="line2d_3">
      <g>
       <use style="stroke:#000000;stroke-width:0.8;" x="206.833897" xlink:href="#m6ce36dec0a" y="404.12"/>
      </g>
     </g>
     <g id="text_3">
      <!-- 100 -->
      <defs>
       <path d="M 12.40625 8.296875 
L 28.515625 8.296875 
L 28.515625 63.921875 
L 10.984375 60.40625 
L 10.984375 69.390625 
L 28.421875 72.90625 
L 38.28125 72.90625 
L 38.28125 8.296875 
L 54.390625 8.296875 
L 54.390625 0 
L 12.40625 0 
z
" id="DejaVuSans-49"/>
      </defs>
      <g transform="translate(197.290147 418.718437)scale(0.1 -0.1)">
       <use xlink:href="#DejaVuSans-49"/>
       <use x="63.623047" xlink:href="#DejaVuSans-48"/>
       <use x="127.246094" xlink:href="#DejaVuSans-48"/>
      </g>
     </g>
    </g>
    <g id="xtick_4">
     <g id="line2d_4">
      <g>
       <use style="stroke:#000000;stroke-width:0.8;" x="293.363346" xlink:href="#m6ce36dec0a" y="404.12"/>
      </g>
     </g>
     <g id="text_4">
      <!-- 150 -->
      <g transform="translate(283.819596 418.718437)scale(0.1 -0.1)">
       <use xlink:href="#DejaVuSans-49"/>
       <use x="63.623047" xlink:href="#DejaVuSans-53"/>
       <use x="127.246094" xlink:href="#DejaVuSans-48"/>
      </g>
     </g>
    </g>
    <g id="xtick_5">
     <g id="line2d_5">
      <g>
       <use style="stroke:#000000;stroke-width:0.8;" x="379.892794" xlink:href="#m6ce36dec0a" y="404.12"/>
      </g>
     </g>
     <g id="text_5">
      <!-- 200 -->
      <defs>
       <path d="M 19.1875 8.296875 
L 53.609375 8.296875 
L 53.609375 0 
L 7.328125 0 
L 7.328125 8.296875 
Q 12.9375 14.109375 22.625 23.890625 
Q 32.328125 33.6875 34.8125 36.53125 
Q 39.546875 41.84375 41.421875 45.53125 
Q 43.3125 49.21875 43.3125 52.78125 
Q 43.3125 58.59375 39.234375 62.25 
Q 35.15625 65.921875 28.609375 65.921875 
Q 23.96875 65.921875 18.8125 64.3125 
Q 13.671875 62.703125 7.8125 59.421875 
L 7.8125 69.390625 
Q 13.765625 71.78125 18.9375 73 
Q 24.125 74.21875 28.421875 74.21875 
Q 39.75 74.21875 46.484375 68.546875 
Q 53.21875 62.890625 53.21875 53.421875 
Q 53.21875 48.921875 51.53125 44.890625 
Q 49.859375 40.875 45.40625 35.40625 
Q 44.1875 33.984375 37.640625 27.21875 
Q 31.109375 20.453125 19.1875 8.296875 
z
" id="DejaVuSans-50"/>
      </defs>
      <g transform="translate(370.349044 418.718437)scale(0.1 -0.1)">
       <use xlink:href="#DejaVuSans-50"/>
       <use x="63.623047" xlink:href="#DejaVuSans-48"/>
       <use x="127.246094" xlink:href="#DejaVuSans-48"/>
      </g>
     </g>
    </g>
    <g id="xtick_6">
     <g id="line2d_6">
      <g>
       <use style="stroke:#000000;stroke-width:0.8;" x="466.422243" xlink:href="#m6ce36dec0a" y="404.12"/>
      </g>
     </g>
     <g id="text_6">
      <!-- 250 -->
      <g transform="translate(456.878493 418.718437)scale(0.1 -0.1)">
       <use xlink:href="#DejaVuSans-50"/>
       <use x="63.623047" xlink:href="#DejaVuSans-53"/>
       <use x="127.246094" xlink:href="#DejaVuSans-48"/>
      </g>
     </g>
    </g>
    <g id="xtick_7">
     <g id="line2d_7">
      <g>
       <use style="stroke:#000000;stroke-width:0.8;" x="552.951692" xlink:href="#m6ce36dec0a" y="404.12"/>
      </g>
     </g>
     <g id="text_7">
      <!-- 300 -->
      <defs>
       <path d="M 40.578125 39.3125 
Q 47.65625 37.796875 51.625 33 
Q 55.609375 28.21875 55.609375 21.1875 
Q 55.609375 10.40625 48.1875 4.484375 
Q 40.765625 -1.421875 27.09375 -1.421875 
Q 22.515625 -1.421875 17.65625 -0.515625 
Q 12.796875 0.390625 7.625 2.203125 
L 7.625 11.71875 
Q 11.71875 9.328125 16.59375 8.109375 
Q 21.484375 6.890625 26.8125 6.890625 
Q 36.078125 6.890625 40.9375 10.546875 
Q 45.796875 14.203125 45.796875 21.1875 
Q 45.796875 27.640625 41.28125 31.265625 
Q 36.765625 34.90625 28.71875 34.90625 
L 20.21875 34.90625 
L 20.21875 43.015625 
L 29.109375 43.015625 
Q 36.375 43.015625 40.234375 45.921875 
Q 44.09375 48.828125 44.09375 54.296875 
Q 44.09375 59.90625 40.109375 62.90625 
Q 36.140625 65.921875 28.71875 65.921875 
Q 24.65625 65.921875 20.015625 65.03125 
Q 15.375 64.15625 9.8125 62.3125 
L 9.8125 71.09375 
Q 15.4375 72.65625 20.34375 73.4375 
Q 25.25 74.21875 29.59375 74.21875 
Q 40.828125 74.21875 47.359375 69.109375 
Q 53.90625 64.015625 53.90625 55.328125 
Q 53.90625 49.265625 50.4375 45.09375 
Q 46.96875 40.921875 40.578125 39.3125 
z
" id="DejaVuSans-51"/>
      </defs>
      <g transform="translate(543.407942 418.718437)scale(0.1 -0.1)">
       <use xlink:href="#DejaVuSans-51"/>
       <use x="63.623047" xlink:href="#DejaVuSans-48"/>
       <use x="127.246094" xlink:href="#DejaVuSans-48"/>
      </g>
     </g>
    </g>
    <g id="xtick_8">
     <g id="line2d_8">
      <g>
       <use style="stroke:#000000;stroke-width:0.8;" x="639.48114" xlink:href="#m6ce36dec0a" y="404.12"/>
      </g>
     </g>
     <g id="text_8">
      <!-- 350 -->
      <g transform="translate(629.93739 418.718437)scale(0.1 -0.1)">
       <use xlink:href="#DejaVuSans-51"/>
       <use x="63.623047" xlink:href="#DejaVuSans-53"/>
       <use x="127.246094" xlink:href="#DejaVuSans-48"/>
      </g>
     </g>
    </g>
   </g>
   <g id="matplotlib.axis_2">
    <g id="ytick_1">
     <g id="line2d_9">
      <defs>
       <path d="M 0 0 
L -3.5 0 
" id="m2fa6d583d5" style="stroke:#000000;stroke-width:0.8;"/>
      </defs>
      <g>
       <use style="stroke:#000000;stroke-width:0.8;" x="33.775" xlink:href="#m2fa6d583d5" y="350.72192"/>
      </g>
     </g>
     <g id="text_9">
      <!-- 0.0 -->
      <defs>
       <path d="M 10.6875 12.40625 
L 21 12.40625 
L 21 0 
L 10.6875 0 
z
" id="DejaVuSans-46"/>
      </defs>
      <g transform="translate(10.871875 354.521138)scale(0.1 -0.1)">
       <use xlink:href="#DejaVuSans-48"/>
       <use x="63.623047" xlink:href="#DejaVuSans-46"/>
       <use x="95.410156" xlink:href="#DejaVuSans-48"/>
      </g>
     </g>
    </g>
    <g id="ytick_2">
     <g id="line2d_10">
      <g>
       <use style="stroke:#000000;stroke-width:0.8;" x="33.775" xlink:href="#m2fa6d583d5" y="296.480277"/>
      </g>
     </g>
     <g id="text_10">
      <!-- 0.5 -->
      <g transform="translate(10.871875 300.279496)scale(0.1 -0.1)">
       <use xlink:href="#DejaVuSans-48"/>
       <use x="63.623047" xlink:href="#DejaVuSans-46"/>
       <use x="95.410156" xlink:href="#DejaVuSans-53"/>
      </g>
     </g>
    </g>
    <g id="ytick_3">
     <g id="line2d_11">
      <g>
       <use style="stroke:#000000;stroke-width:0.8;" x="33.775" xlink:href="#m2fa6d583d5" y="242.238635"/>
      </g>
     </g>
     <g id="text_11">
      <!-- 1.0 -->
      <g transform="translate(10.871875 246.037853)scale(0.1 -0.1)">
       <use xlink:href="#DejaVuSans-49"/>
       <use x="63.623047" xlink:href="#DejaVuSans-46"/>
       <use x="95.410156" xlink:href="#DejaVuSans-48"/>
      </g>
     </g>
    </g>
    <g id="ytick_4">
     <g id="line2d_12">
      <g>
       <use style="stroke:#000000;stroke-width:0.8;" x="33.775" xlink:href="#m2fa6d583d5" y="187.996992"/>
      </g>
     </g>
     <g id="text_12">
      <!-- 1.5 -->
      <g transform="translate(10.871875 191.796211)scale(0.1 -0.1)">
       <use xlink:href="#DejaVuSans-49"/>
       <use x="63.623047" xlink:href="#DejaVuSans-46"/>
       <use x="95.410156" xlink:href="#DejaVuSans-53"/>
      </g>
     </g>
    </g>
    <g id="ytick_5">
     <g id="line2d_13">
      <g>
       <use style="stroke:#000000;stroke-width:0.8;" x="33.775" xlink:href="#m2fa6d583d5" y="133.75535"/>
      </g>
     </g>
     <g id="text_13">
      <!-- 2.0 -->
      <g transform="translate(10.871875 137.554568)scale(0.1 -0.1)">
       <use xlink:href="#DejaVuSans-50"/>
       <use x="63.623047" xlink:href="#DejaVuSans-46"/>
       <use x="95.410156" xlink:href="#DejaVuSans-48"/>
      </g>
     </g>
    </g>
    <g id="ytick_6">
     <g id="line2d_14">
      <g>
       <use style="stroke:#000000;stroke-width:0.8;" x="33.775" xlink:href="#m2fa6d583d5" y="79.513707"/>
      </g>
     </g>
     <g id="text_14">
      <!-- 2.5 -->
      <g transform="translate(10.871875 83.312926)scale(0.1 -0.1)">
       <use xlink:href="#DejaVuSans-50"/>
       <use x="63.623047" xlink:href="#DejaVuSans-46"/>
       <use x="95.410156" xlink:href="#DejaVuSans-53"/>
      </g>
     </g>
    </g>
   </g>
   <g id="line2d_15">
    <path clip-path="url(#p84d9d728bd)" d="M 101.26797 350.72192 
L 724.28 350.72192 
L 724.28 350.72192 
" style="fill:none;stroke:#1f77b4;stroke-linecap:square;stroke-width:1.5;"/>
   </g>
   <g id="line2d_16">
    <path clip-path="url(#p84d9d728bd)" d="M 101.26797 329.037961 
L 102.998559 317.328579 
L 104.729148 314.376038 
L 106.459737 304.546528 
L 108.190326 290.957274 
L 109.920915 300.226429 
L 111.651504 298.915336 
L 113.382093 292.670537 
L 115.112682 288.684655 
L 116.843271 288.030603 
L 118.57386 276.926405 
L 120.304449 264.436805 
L 122.035038 264.436805 
L 123.765627 260.071877 
L 125.496216 263.268486 
L 127.226805 271.301214 
L 128.957393 270.20156 
L 130.687982 271.337136 
L 132.418571 271.337136 
L 134.14916 273.87106 
L 139.340927 273.87106 
L 144.532694 311.659296 
L 146.263283 327.128423 
L 147.993872 327.128423 
L 149.724461 318.816637 
L 151.45505 309.850799 
L 153.185639 298.7466 
L 154.916228 300.132001 
L 156.646817 296.639235 
L 158.377406 297.244418 
L 160.107995 285.535036 
L 161.838584 285.535036 
L 163.569173 294.047809 
L 165.299762 295.147464 
L 167.030351 310.083096 
L 168.76094 294.613969 
L 170.491529 296.075772 
L 172.222118 315.698388 
L 173.952707 316.553975 
L 175.683296 322.937886 
L 177.413885 338.407013 
L 179.144474 329.137857 
L 180.875063 329.349295 
L 182.605652 343.278002 
L 184.336241 353.463102 
L 186.06683 357.343403 
L 187.797419 368.447601 
L 189.528008 374.918539 
L 191.258596 374.918539 
L 192.989185 376.798411 
L 194.719774 368.631691 
L 196.450363 351.374636 
L 198.180952 354.772232 
L 199.911541 349.618422 
L 201.64213 347.551436 
L 203.372719 336.89284 
L 205.103308 342.532456 
L 206.833897 338.453275 
L 208.564486 337.673058 
L 212.025664 313.474076 
L 213.756253 307.042161 
L 215.486842 284.723051 
L 217.217431 287.466596 
L 218.94802 295.778382 
L 220.678609 299.821004 
L 222.409198 306.846022 
L 224.139787 301.700877 
L 225.870376 292.704043 
L 227.600965 280.389477 
L 229.331554 291.604389 
L 231.062143 295.301783 
L 232.792732 295.301783 
L 236.25391 288.77657 
L 237.984499 303.465479 
L 239.715088 303.465479 
L 241.445677 280.083118 
L 243.176266 271.075874 
L 244.906855 265.0114 
L 248.368033 237.832891 
L 250.098622 240.812418 
L 251.829211 233.128511 
L 253.559799 231.400591 
L 255.290388 221.54144 
L 257.020977 206.072313 
L 258.751566 208.771996 
L 260.482155 207.17787 
L 262.212744 208.277525 
L 263.943333 213.247636 
L 265.673922 225.180055 
L 267.404511 219.902587 
L 269.1351 222.040948 
L 270.865689 222.228063 
L 272.596278 230.352734 
L 274.326867 224.713118 
L 276.057456 232.739158 
L 277.788045 237.104086 
L 279.518634 241.909778 
L 281.249223 241.909778 
L 282.979812 240.905294 
L 284.710401 253.812963 
L 286.44099 249.189547 
L 288.171579 249.189547 
L 289.902168 255.630486 
L 291.632757 256.730141 
L 293.363346 261.509767 
L 295.093935 275.989951 
L 296.824524 291.92515 
L 298.555113 294.299493 
L 300.285702 294.160855 
L 302.016291 289.995569 
L 303.74688 287.016042 
L 305.477469 285.11289 
L 307.208058 282.133363 
L 308.938647 281.680299 
L 310.669236 295.764024 
L 314.130414 297.673864 
L 315.861003 293.91412 
L 317.591591 301.517064 
L 319.32218 293.300448 
L 322.783358 269.636202 
L 324.513947 272.580734 
L 326.244536 274.460606 
L 327.975125 277.779585 
L 329.705714 277.23535 
L 331.436303 272.46488 
L 333.166892 272.46488 
L 334.897481 271.63666 
L 336.62807 274.616186 
L 338.358659 272.054729 
L 340.089248 273.934601 
L 341.819837 273.934601 
L 343.550426 276.798703 
L 345.281015 272.310205 
L 347.011604 267.479205 
L 348.742193 266.063789 
L 350.472782 266.063789 
L 352.203371 261.501241 
L 353.93396 245.52162 
L 355.664549 239.181649 
L 357.395138 238.611311 
L 359.125727 230.665291 
L 360.856316 237.042414 
L 362.586905 226.94685 
L 364.317494 224.956265 
L 366.048083 220.249851 
L 367.778672 224.52585 
L 369.509261 213.010232 
L 371.23985 217.175518 
L 372.970439 218.993911 
L 374.701028 222.171751 
L 376.431617 225.931495 
L 378.162206 226.38456 
L 379.892794 227.769961 
L 381.623383 237.961619 
L 383.353972 246.474392 
L 385.084561 261.943519 
L 386.81515 260.677319 
L 388.545739 271.016842 
L 390.276328 289.037993 
L 392.006917 293.542032 
L 393.737506 286.126203 
L 395.468095 299.715457 
L 397.198684 301.595329 
L 398.929273 303.733691 
L 400.659862 309.889562 
L 402.390451 309.889562 
L 404.12104 308.00969 
L 405.851629 307.647542 
L 407.582218 313.682997 
L 409.312807 313.682997 
L 411.043396 311.803125 
L 412.773985 299.109513 
L 414.504574 299.651152 
L 416.235163 304.789508 
L 417.965752 300.013831 
L 419.696341 296.254087 
L 421.42693 293.352686 
L 423.157519 300.039317 
L 424.888108 295.76956 
L 426.618697 291.06243 
L 428.349286 293.939706 
L 430.079875 283.879241 
L 431.810464 297.960957 
L 433.541053 296.46798 
L 435.271642 296.948579 
L 437.002231 287.813181 
L 438.73282 294.670387 
L 440.463409 300.043025 
L 442.193997 302.102827 
L 443.924586 289.118757 
L 445.655175 284.286344 
L 447.385764 284.286344 
L 449.116353 290.531144 
L 450.846942 295.808612 
L 452.577531 293.217186 
L 454.30812 293.217186 
L 456.038709 299.370043 
L 457.769298 296.547881 
L 459.499887 290.236113 
L 461.230476 286.838517 
L 462.961065 297.942716 
L 464.691654 297.942716 
L 466.422243 296.062844 
L 468.152832 296.062844 
L 469.883421 294.182971 
L 471.61401 289.323573 
L 473.344599 289.323573 
L 475.075188 288.586066 
L 476.805777 286.99194 
L 478.536366 285.606539 
L 480.266955 288.127517 
L 481.997544 284.367773 
L 483.728133 280.135168 
L 485.458722 269.998301 
L 487.189311 263.900136 
L 488.9199 260.573915 
L 490.650489 260.544435 
L 492.381078 251.290141 
L 494.111667 259.673302 
L 495.842256 259.417523 
L 497.572845 255.338342 
L 499.303434 257.681112 
L 501.034023 245.422568 
L 502.764612 253.249273 
L 504.495201 254.348927 
L 506.225789 243.7392 
L 507.956378 244.838854 
L 509.686967 232.254084 
L 511.417556 235.592628 
L 513.148145 244.422021 
L 514.878734 251.32142 
L 516.609323 240.217221 
L 518.339912 222.263039 
L 520.070501 207.15606 
L 521.80109 207.867614 
L 523.531679 207.202822 
L 525.262268 211.700072 
L 526.992857 210.519454 
L 528.723446 198.029854 
L 530.454035 201.921921 
L 532.184624 203.801793 
L 533.915213 201.921921 
L 535.645802 198.942395 
L 537.376391 198.942395 
L 539.10698 207.561538 
L 542.568158 222.681229 
L 544.298747 223.780883 
L 546.029336 219.027854 
L 547.759925 222.693528 
L 549.490514 222.052423 
L 551.221103 235.097442 
L 552.951692 239.330046 
L 554.682281 238.466374 
L 556.41287 248.774448 
L 558.143459 248.176507 
L 559.874048 252.914675 
L 561.604637 260.83836 
L 563.335226 274.833917 
L 565.065815 285.867669 
L 566.796404 294.88327 
L 568.526992 296.223843 
L 570.257581 308.817638 
L 571.98817 301.384255 
L 573.718759 301.384255 
L 575.449348 315.940841 
L 577.179937 312.961314 
L 578.910526 327.099831 
L 580.641115 326.941801 
L 582.371704 327.161701 
L 584.102293 320.235316 
L 585.832882 331.339515 
L 587.563471 337.963361 
L 589.29406 336.688672 
L 591.024649 336.688672 
L 592.755238 337.847935 
L 594.485827 329.052725 
L 596.216416 329.197791 
L 597.947005 343.567263 
L 599.677594 349.999177 
L 601.408183 348.119305 
L 603.138772 355.198028 
L 604.869361 355.978246 
L 606.59995 355.978246 
L 608.330539 351.632087 
L 610.061128 354.053326 
L 611.791717 345.549608 
L 613.522306 353.312132 
L 615.252895 363.92186 
L 616.983484 356.55605 
L 618.714073 348.043277 
L 620.444662 350.467384 
L 622.175251 351.939679 
L 623.90584 366.032805 
L 625.636429 371.241025 
L 627.367018 377.825277 
L 629.097607 374.427681 
L 630.828195 378.993596 
L 632.558784 369.104477 
L 634.289373 363.603972 
L 636.019962 362.218571 
L 637.750551 365.198098 
L 639.48114 359.856813 
L 641.211729 360.4813 
L 642.942318 359.381645 
L 644.672907 355.149041 
L 646.403496 364.087621 
L 648.134085 356.061581 
L 651.595263 365.314307 
L 653.325852 366.196879 
L 655.056441 366.196879 
L 658.517619 372.862442 
L 660.248208 370.663133 
L 661.978797 372.466603 
L 663.709386 380.96991 
L 665.439975 374.142672 
L 667.170564 369.84232 
L 668.901153 369.160735 
L 670.631742 368.798587 
L 672.362331 363.599735 
L 674.09292 363.919173 
L 675.823509 366.187146 
L 677.554098 351.84265 
L 679.284687 347.345399 
L 681.015276 350.088944 
L 682.745865 344.811475 
L 684.476454 330.392732 
L 686.207043 333.496042 
L 687.937632 338.084652 
L 689.668221 329.541911 
L 691.39881 330.166571 
L 694.859987 310.806957 
L 696.590576 310.631923 
L 698.321165 315.425967 
L 700.051754 302.936368 
L 701.782343 307.960185 
L 703.512932 308.740403 
L 705.243521 297.636204 
L 708.704699 297.636204 
L 710.435288 291.478471 
L 712.165877 291.139018 
L 713.896466 285.891518 
L 715.627055 276.952938 
L 717.357644 278.052593 
L 719.088233 273.339828 
L 720.818822 261.630446 
L 722.549411 258.449932 
L 724.28 247.345734 
L 724.28 247.345734 
" style="fill:none;stroke:#ff7f0e;stroke-linecap:square;stroke-width:1.5;"/>
   </g>
   <g id="line2d_17">
    <path clip-path="url(#p84d9d728bd)" d="M 101.26797 329.037961 
L 102.998559 317.328579 
L 104.729148 314.376038 
L 106.459737 304.546528 
L 108.190326 290.957274 
L 109.920915 300.226429 
L 111.651504 298.915336 
L 113.382093 292.670537 
L 115.112682 288.684655 
L 116.843271 288.030603 
L 118.57386 276.926405 
L 120.304449 264.436805 
L 122.035038 264.436805 
L 123.765627 260.071877 
L 125.496216 263.268486 
L 127.226805 271.301214 
L 128.957393 261.471704 
L 130.687982 262.500911 
L 132.418571 262.500911 
L 134.14916 257.948869 
L 139.340927 257.948869 
L 142.802105 280.76245 
L 144.532694 294.351704 
L 146.263283 309.820831 
L 147.993872 309.820831 
L 149.724461 301.509045 
L 151.45505 292.543207 
L 153.185639 281.439008 
L 154.916228 282.824409 
L 156.646817 279.331643 
L 158.377406 279.936826 
L 160.107995 268.227444 
L 161.838584 268.227444 
L 163.569173 276.740217 
L 165.299762 277.839872 
L 167.030351 292.775504 
L 168.76094 277.306377 
L 170.491529 278.76818 
L 172.222118 298.390796 
L 173.952707 299.246383 
L 175.683296 305.583126 
L 177.413885 321.052253 
L 179.144474 311.783097 
L 180.875063 311.994535 
L 182.605652 325.923243 
L 184.336241 336.108342 
L 186.06683 337.746623 
L 187.797419 348.850822 
L 189.528008 355.504665 
L 191.258596 349.545612 
L 192.989185 353.652051 
L 194.719774 345.48533 
L 196.450363 328.228275 
L 198.180952 340.355727 
L 199.911541 335.247339 
L 201.64213 333.180352 
L 203.372719 329.607722 
L 205.103308 329.607722 
L 206.833897 328.508068 
L 208.564486 320.208362 
L 212.025664 297.394781 
L 213.756253 290.962867 
L 215.486842 268.643757 
L 217.217431 271.170219 
L 218.94802 279.482005 
L 220.678609 289.360383 
L 222.409198 296.099654 
L 224.139787 294.714253 
L 225.870376 285.71742 
L 227.600965 273.402854 
L 229.331554 282.973875 
L 231.062143 287.897091 
L 232.792732 287.897091 
L 234.523321 288.677308 
L 236.25391 285.451058 
L 237.984499 300.634439 
L 239.715088 300.634439 
L 241.445677 285.764851 
L 243.176266 290.346862 
L 244.906855 295.433754 
L 248.368033 268.255245 
L 250.098622 259.52539 
L 251.829211 239.351883 
L 253.559799 226.519764 
L 255.290388 231.392233 
L 257.020977 215.923106 
L 258.751566 221.758862 
L 260.482155 216.613717 
L 262.212744 204.382606 
L 263.943333 207.472846 
L 265.673922 209.213606 
L 267.404511 204.430609 
L 269.1351 205.112194 
L 270.865689 193.589926 
L 272.596278 200.614944 
L 274.326867 200.614944 
L 276.057456 201.714598 
L 277.788045 220.624032 
L 281.249223 220.624032 
L 282.979812 218.234147 
L 284.710401 221.631743 
L 286.44099 219.10528 
L 288.171579 219.10528 
L 289.902168 218.846791 
L 291.632757 223.211719 
L 293.363346 223.131946 
L 295.093935 238.106602 
L 296.824524 248.082747 
L 298.555113 251.001325 
L 300.285702 251.154591 
L 302.016291 253.964557 
L 303.74688 250.874318 
L 305.477469 246.417446 
L 307.208058 244.823321 
L 308.938647 245.268924 
L 310.669236 250.839876 
L 312.399825 247.992672 
L 314.130414 237.885774 
L 315.861003 246.615629 
L 317.591591 254.218573 
L 319.32218 257.711339 
L 321.052769 258.491557 
L 322.783358 269.350274 
L 324.513947 272.294806 
L 326.244536 287.763932 
L 327.975125 287.763932 
L 329.705714 300.253532 
L 331.436303 317.196988 
L 333.166892 305.487606 
L 334.897481 304.659386 
L 336.62807 307.144441 
L 338.358659 312.839979 
L 340.089248 326.429233 
L 341.819837 327.528888 
L 343.550426 330.755138 
L 345.281015 327.636499 
L 347.011604 308.296916 
L 348.742193 306.985823 
L 350.472782 298.861151 
L 352.203371 292.06518 
L 353.93396 284.413368 
L 355.664549 274.22171 
L 357.395138 269.1945 
L 359.125727 259.316122 
L 360.856316 259.316122 
L 362.586905 248.291696 
L 364.317494 243.926769 
L 366.048083 242.625688 
L 367.778672 241.84547 
L 369.509261 227.544662 
L 371.23985 211.145442 
L 372.970439 207.023549 
L 374.701028 201.650911 
L 376.431617 201.650911 
L 378.162206 199.325435 
L 379.892794 200.710836 
L 381.623383 214.662239 
L 383.353972 223.175012 
L 385.084561 226.154539 
L 386.81515 232.14085 
L 388.545739 232.650863 
L 390.276328 252.551885 
L 392.006917 248.326069 
L 393.737506 228.42064 
L 397.198684 228.42064 
L 398.929273 225.155367 
L 400.659862 220.701511 
L 402.390451 237.270292 
L 404.12104 245.582078 
L 405.851629 247.880019 
L 407.582218 248.561605 
L 411.043396 248.561605 
L 412.773985 235.505845 
L 414.504574 238.624483 
L 416.235163 240.142207 
L 417.965752 228.9637 
L 419.696341 221.619246 
L 421.42693 222.336669 
L 423.157519 230.205563 
L 424.888108 227.907622 
L 426.618697 217.465705 
L 428.349286 223.139012 
L 430.079875 210.649413 
L 431.810464 214.270045 
L 433.541053 214.656941 
L 435.271642 217.691259 
L 437.002231 202.222132 
L 438.73282 197.857205 
L 440.463409 211.068769 
L 442.193997 209.768127 
L 443.924586 207.888255 
L 445.655175 204.935715 
L 447.385764 206.815587 
L 449.116353 212.093055 
L 450.846942 203.781269 
L 452.577531 202.50658 
L 456.038709 202.50658 
L 457.769298 210.73975 
L 459.499887 202.548109 
L 461.230476 198.468928 
L 462.961065 209.573127 
L 464.691654 209.573127 
L 466.422243 205.988416 
L 468.152832 204.888762 
L 469.883421 201.909235 
L 471.61401 194.850527 
L 473.344599 194.850527 
L 475.075188 188.473404 
L 476.805777 180.029295 
L 478.536366 179.611225 
L 480.266955 180.857515 
L 481.997544 190.687025 
L 483.728133 186.45442 
L 485.458722 187.421752 
L 487.189311 192.427786 
L 488.9199 200.810947 
L 490.650489 211.885666 
L 492.381078 202.631371 
L 494.111667 211.014532 
L 495.842256 220.950412 
L 497.572845 216.871231 
L 499.303434 225.040731 
L 501.034023 218.935043 
L 502.764612 217.251675 
L 504.495201 206.641948 
L 506.225789 208.52182 
L 507.956378 208.52182 
L 509.686967 201.687378 
L 511.417556 205.498783 
L 513.148145 211.532144 
L 514.878734 208.239885 
L 516.609323 197.135687 
L 518.339912 180.148836 
L 521.80109 150.84742 
L 523.531679 149.649133 
L 525.262268 154.926601 
L 526.992857 149.540635 
L 528.723446 145.563809 
L 530.454035 140.039618 
L 532.184624 137.942663 
L 533.915213 137.942663 
L 535.645802 138.547847 
L 537.376391 137.162446 
L 539.10698 143.121499 
L 540.837569 150.445011 
L 542.568158 145.359474 
L 544.298747 145.073728 
L 546.029336 155.009608 
L 547.759925 160.813643 
L 549.490514 156.587827 
L 551.221103 157.269412 
L 552.951692 163.381889 
L 554.682281 167.746817 
L 556.41287 177.274674 
L 558.143459 184.36064 
L 559.874048 177.994609 
L 561.604637 194.461036 
L 563.335226 207.356939 
L 565.065815 218.39069 
L 566.796404 225.52642 
L 568.526992 229.846518 
L 570.257581 247.133168 
L 571.98817 245.565538 
L 573.718759 257.274921 
L 575.449348 271.831507 
L 577.179937 285.420761 
L 578.910526 301.857219 
L 580.641115 306.558588 
L 582.371704 299.745009 
L 584.102293 305.989809 
L 585.832882 317.094008 
L 587.563471 323.717853 
L 589.29406 322.443165 
L 591.024649 322.443165 
L 592.755238 313.031724 
L 594.485827 309.442607 
L 596.216416 321.821494 
L 597.947005 327.678193 
L 599.677594 342.746148 
L 601.408183 344.843102 
L 603.138772 350.647138 
L 604.869361 353.626664 
L 606.59995 363.26906 
L 608.330539 353.95279 
L 610.061128 357.085582 
L 611.791717 364.050991 
L 613.522306 376.178443 
L 615.252895 377.563844 
L 616.983484 378.801724 
L 618.714073 385.758077 
L 620.444662 386.956364 
L 622.175251 381.280343 
L 623.90584 383.058903 
L 625.636429 376.557741 
L 627.367018 364.848358 
L 630.828195 332.494736 
L 632.558784 310.116018 
L 634.289373 298.063356 
L 636.019962 298.557827 
L 637.750551 298.557827 
L 639.48114 294.860433 
L 641.211729 294.577196 
L 642.942318 293.477542 
L 644.672907 285.298078 
L 646.403496 280.647404 
L 648.134085 267.476219 
L 649.864674 264.705417 
L 651.595263 266.585289 
L 653.325852 260.340489 
L 655.056441 250.830416 
L 658.517619 257.495979 
L 660.248208 259.375851 
L 661.978797 262.773447 
L 663.709386 253.99913 
L 665.439975 232.890388 
L 667.170564 225.105169 
L 668.901153 212.296132 
L 670.631742 205.864217 
L 672.362331 200.060182 
L 674.09292 189.868524 
L 675.823509 178.346256 
L 677.554098 184.682999 
L 679.284687 166.596494 
L 681.015276 155.750785 
L 684.476454 122.297508 
L 687.937632 91.47468 
L 689.668221 78.98508 
L 691.39881 74.268456 
L 693.129398 75.644456 
L 694.859987 70.591255 
L 696.590576 71.196438 
L 698.321165 78.288424 
L 700.051754 89.392623 
L 701.782343 98.176185 
L 703.512932 95.998486 
L 705.243521 84.894287 
L 706.97411 84.894287 
L 708.704699 71.305032 
L 710.435288 69.699341 
L 712.165877 61.574669 
L 713.896466 60.274028 
L 715.627055 52.435102 
L 717.357644 56.381961 
L 719.088233 43.683636 
L 720.818822 44.463854 
L 722.549411 50.708654 
L 724.28 49.114528 
L 724.28 49.114528 
" style="fill:none;stroke:#2ca02c;stroke-linecap:square;stroke-width:1.5;"/>
   </g>
   <g id="patch_3">
    <path d="M 33.775 404.12 
L 33.775 26.52 
" style="fill:none;stroke:#000000;stroke-linecap:square;stroke-linejoin:miter;stroke-width:0.8;"/>
   </g>
   <g id="patch_4">
    <path d="M 724.28 404.12 
L 724.28 26.52 
" style="fill:none;stroke:#000000;stroke-linecap:square;stroke-linejoin:miter;stroke-width:0.8;"/>
   </g>
   <g id="patch_5">
    <path d="M 33.775 404.12 
L 724.28 404.12 
" style="fill:none;stroke:#000000;stroke-linecap:square;stroke-linejoin:miter;stroke-width:0.8;"/>
   </g>
   <g id="patch_6">
    <path d="M 33.775 26.52 
L 724.28 26.52 
" style="fill:none;stroke:#000000;stroke-linecap:square;stroke-linejoin:miter;stroke-width:0.8;"/>
   </g>
   <g id="text_15">
    <!-- gridworld_5x5_20_1_20_1337__2: episode duration in steps log-relative to `htm_2_1g`, MA=40 -->
    <defs>
     <path d="M 45.40625 27.984375 
Q 45.40625 37.75 41.375 43.109375 
Q 37.359375 48.484375 30.078125 48.484375 
Q 22.859375 48.484375 18.828125 43.109375 
Q 14.796875 37.75 14.796875 27.984375 
Q 14.796875 18.265625 18.828125 12.890625 
Q 22.859375 7.515625 30.078125 7.515625 
Q 37.359375 7.515625 41.375 12.890625 
Q 45.40625 18.265625 45.40625 27.984375 
z
M 54.390625 6.78125 
Q 54.390625 -7.171875 48.1875 -13.984375 
Q 42 -20.796875 29.203125 -20.796875 
Q 24.46875 -20.796875 20.265625 -20.09375 
Q 16.0625 -19.390625 12.109375 -17.921875 
L 12.109375 -9.1875 
Q 16.0625 -11.328125 19.921875 -12.34375 
Q 23.78125 -13.375 27.78125 -13.375 
Q 36.625 -13.375 41.015625 -8.765625 
Q 45.40625 -4.15625 45.40625 5.171875 
L 45.40625 9.625 
Q 42.625 4.78125 38.28125 2.390625 
Q 33.9375 0 27.875 0 
Q 17.828125 0 11.671875 7.65625 
Q 5.515625 15.328125 5.515625 27.984375 
Q 5.515625 40.671875 11.671875 48.328125 
Q 17.828125 56 27.875 56 
Q 33.9375 56 38.28125 53.609375 
Q 42.625 51.21875 45.40625 46.390625 
L 45.40625 54.6875 
L 54.390625 54.6875 
z
" id="DejaVuSans-103"/>
     <path d="M 41.109375 46.296875 
Q 39.59375 47.171875 37.8125 47.578125 
Q 36.03125 48 33.890625 48 
Q 26.265625 48 22.1875 43.046875 
Q 18.109375 38.09375 18.109375 28.8125 
L 18.109375 0 
L 9.078125 0 
L 9.078125 54.6875 
L 18.109375 54.6875 
L 18.109375 46.1875 
Q 20.953125 51.171875 25.484375 53.578125 
Q 30.03125 56 36.53125 56 
Q 37.453125 56 38.578125 55.875 
Q 39.703125 55.765625 41.0625 55.515625 
z
" id="DejaVuSans-114"/>
     <path d="M 9.421875 54.6875 
L 18.40625 54.6875 
L 18.40625 0 
L 9.421875 0 
z
M 9.421875 75.984375 
L 18.40625 75.984375 
L 18.40625 64.59375 
L 9.421875 64.59375 
z
" id="DejaVuSans-105"/>
     <path d="M 45.40625 46.390625 
L 45.40625 75.984375 
L 54.390625 75.984375 
L 54.390625 0 
L 45.40625 0 
L 45.40625 8.203125 
Q 42.578125 3.328125 38.25 0.953125 
Q 33.9375 -1.421875 27.875 -1.421875 
Q 17.96875 -1.421875 11.734375 6.484375 
Q 5.515625 14.40625 5.515625 27.296875 
Q 5.515625 40.1875 11.734375 48.09375 
Q 17.96875 56 27.875 56 
Q 33.9375 56 38.25 53.625 
Q 42.578125 51.265625 45.40625 46.390625 
z
M 14.796875 27.296875 
Q 14.796875 17.390625 18.875 11.75 
Q 22.953125 6.109375 30.078125 6.109375 
Q 37.203125 6.109375 41.296875 11.75 
Q 45.40625 17.390625 45.40625 27.296875 
Q 45.40625 37.203125 41.296875 42.84375 
Q 37.203125 48.484375 30.078125 48.484375 
Q 22.953125 48.484375 18.875 42.84375 
Q 14.796875 37.203125 14.796875 27.296875 
z
" id="DejaVuSans-100"/>
     <path d="M 4.203125 54.6875 
L 13.1875 54.6875 
L 24.421875 12.015625 
L 35.59375 54.6875 
L 46.1875 54.6875 
L 57.421875 12.015625 
L 68.609375 54.6875 
L 77.59375 54.6875 
L 63.28125 0 
L 52.6875 0 
L 40.921875 44.828125 
L 29.109375 0 
L 18.5 0 
z
" id="DejaVuSans-119"/>
     <path d="M 30.609375 48.390625 
Q 23.390625 48.390625 19.1875 42.75 
Q 14.984375 37.109375 14.984375 27.296875 
Q 14.984375 17.484375 19.15625 11.84375 
Q 23.34375 6.203125 30.609375 6.203125 
Q 37.796875 6.203125 41.984375 11.859375 
Q 46.1875 17.53125 46.1875 27.296875 
Q 46.1875 37.015625 41.984375 42.703125 
Q 37.796875 48.390625 30.609375 48.390625 
z
M 30.609375 56 
Q 42.328125 56 49.015625 48.375 
Q 55.71875 40.765625 55.71875 27.296875 
Q 55.71875 13.875 49.015625 6.21875 
Q 42.328125 -1.421875 30.609375 -1.421875 
Q 18.84375 -1.421875 12.171875 6.21875 
Q 5.515625 13.875 5.515625 27.296875 
Q 5.515625 40.765625 12.171875 48.375 
Q 18.84375 56 30.609375 56 
z
" id="DejaVuSans-111"/>
     <path d="M 9.421875 75.984375 
L 18.40625 75.984375 
L 18.40625 0 
L 9.421875 0 
z
" id="DejaVuSans-108"/>
     <path d="M 50.984375 -16.609375 
L 50.984375 -23.578125 
L -0.984375 -23.578125 
L -0.984375 -16.609375 
z
" id="DejaVuSans-95"/>
     <path d="M 54.890625 54.6875 
L 35.109375 28.078125 
L 55.90625 0 
L 45.3125 0 
L 29.390625 21.484375 
L 13.484375 0 
L 2.875 0 
L 24.125 28.609375 
L 4.6875 54.6875 
L 15.28125 54.6875 
L 29.78125 35.203125 
L 44.28125 54.6875 
z
" id="DejaVuSans-120"/>
     <path d="M 8.203125 72.90625 
L 55.078125 72.90625 
L 55.078125 68.703125 
L 28.609375 0 
L 18.3125 0 
L 43.21875 64.59375 
L 8.203125 64.59375 
z
" id="DejaVuSans-55"/>
     <path d="M 11.71875 12.40625 
L 22.015625 12.40625 
L 22.015625 0 
L 11.71875 0 
z
M 11.71875 51.703125 
L 22.015625 51.703125 
L 22.015625 39.3125 
L 11.71875 39.3125 
z
" id="DejaVuSans-58"/>
     <path id="DejaVuSans-32"/>
     <path d="M 56.203125 29.59375 
L 56.203125 25.203125 
L 14.890625 25.203125 
Q 15.484375 15.921875 20.484375 11.0625 
Q 25.484375 6.203125 34.421875 6.203125 
Q 39.59375 6.203125 44.453125 7.46875 
Q 49.3125 8.734375 54.109375 11.28125 
L 54.109375 2.78125 
Q 49.265625 0.734375 44.1875 -0.34375 
Q 39.109375 -1.421875 33.890625 -1.421875 
Q 20.796875 -1.421875 13.15625 6.1875 
Q 5.515625 13.8125 5.515625 26.8125 
Q 5.515625 40.234375 12.765625 48.109375 
Q 20.015625 56 32.328125 56 
Q 43.359375 56 49.78125 48.890625 
Q 56.203125 41.796875 56.203125 29.59375 
z
M 47.21875 32.234375 
Q 47.125 39.59375 43.09375 43.984375 
Q 39.0625 48.390625 32.421875 48.390625 
Q 24.90625 48.390625 20.390625 44.140625 
Q 15.875 39.890625 15.1875 32.171875 
z
" id="DejaVuSans-101"/>
     <path d="M 18.109375 8.203125 
L 18.109375 -20.796875 
L 9.078125 -20.796875 
L 9.078125 54.6875 
L 18.109375 54.6875 
L 18.109375 46.390625 
Q 20.953125 51.265625 25.265625 53.625 
Q 29.59375 56 35.59375 56 
Q 45.5625 56 51.78125 48.09375 
Q 58.015625 40.1875 58.015625 27.296875 
Q 58.015625 14.40625 51.78125 6.484375 
Q 45.5625 -1.421875 35.59375 -1.421875 
Q 29.59375 -1.421875 25.265625 0.953125 
Q 20.953125 3.328125 18.109375 8.203125 
z
M 48.6875 27.296875 
Q 48.6875 37.203125 44.609375 42.84375 
Q 40.53125 48.484375 33.40625 48.484375 
Q 26.265625 48.484375 22.1875 42.84375 
Q 18.109375 37.203125 18.109375 27.296875 
Q 18.109375 17.390625 22.1875 11.75 
Q 26.265625 6.109375 33.40625 6.109375 
Q 40.53125 6.109375 44.609375 11.75 
Q 48.6875 17.390625 48.6875 27.296875 
z
" id="DejaVuSans-112"/>
     <path d="M 44.28125 53.078125 
L 44.28125 44.578125 
Q 40.484375 46.53125 36.375 47.5 
Q 32.28125 48.484375 27.875 48.484375 
Q 21.1875 48.484375 17.84375 46.4375 
Q 14.5 44.390625 14.5 40.28125 
Q 14.5 37.15625 16.890625 35.375 
Q 19.28125 33.59375 26.515625 31.984375 
L 29.59375 31.296875 
Q 39.15625 29.25 43.1875 25.515625 
Q 47.21875 21.78125 47.21875 15.09375 
Q 47.21875 7.46875 41.1875 3.015625 
Q 35.15625 -1.421875 24.609375 -1.421875 
Q 20.21875 -1.421875 15.453125 -0.5625 
Q 10.6875 0.296875 5.421875 2 
L 5.421875 11.28125 
Q 10.40625 8.6875 15.234375 7.390625 
Q 20.0625 6.109375 24.8125 6.109375 
Q 31.15625 6.109375 34.5625 8.28125 
Q 37.984375 10.453125 37.984375 14.40625 
Q 37.984375 18.0625 35.515625 20.015625 
Q 33.0625 21.96875 24.703125 23.78125 
L 21.578125 24.515625 
Q 13.234375 26.265625 9.515625 29.90625 
Q 5.8125 33.546875 5.8125 39.890625 
Q 5.8125 47.609375 11.28125 51.796875 
Q 16.75 56 26.8125 56 
Q 31.78125 56 36.171875 55.265625 
Q 40.578125 54.546875 44.28125 53.078125 
z
" id="DejaVuSans-115"/>
     <path d="M 8.5 21.578125 
L 8.5 54.6875 
L 17.484375 54.6875 
L 17.484375 21.921875 
Q 17.484375 14.15625 20.5 10.265625 
Q 23.53125 6.390625 29.59375 6.390625 
Q 36.859375 6.390625 41.078125 11.03125 
Q 45.3125 15.671875 45.3125 23.6875 
L 45.3125 54.6875 
L 54.296875 54.6875 
L 54.296875 0 
L 45.3125 0 
L 45.3125 8.40625 
Q 42.046875 3.421875 37.71875 1 
Q 33.40625 -1.421875 27.6875 -1.421875 
Q 18.265625 -1.421875 13.375 4.4375 
Q 8.5 10.296875 8.5 21.578125 
z
M 31.109375 56 
z
" id="DejaVuSans-117"/>
     <path d="M 34.28125 27.484375 
Q 23.390625 27.484375 19.1875 25 
Q 14.984375 22.515625 14.984375 16.5 
Q 14.984375 11.71875 18.140625 8.90625 
Q 21.296875 6.109375 26.703125 6.109375 
Q 34.1875 6.109375 38.703125 11.40625 
Q 43.21875 16.703125 43.21875 25.484375 
L 43.21875 27.484375 
z
M 52.203125 31.203125 
L 52.203125 0 
L 43.21875 0 
L 43.21875 8.296875 
Q 40.140625 3.328125 35.546875 0.953125 
Q 30.953125 -1.421875 24.3125 -1.421875 
Q 15.921875 -1.421875 10.953125 3.296875 
Q 6 8.015625 6 15.921875 
Q 6 25.140625 12.171875 29.828125 
Q 18.359375 34.515625 30.609375 34.515625 
L 43.21875 34.515625 
L 43.21875 35.40625 
Q 43.21875 41.609375 39.140625 45 
Q 35.0625 48.390625 27.6875 48.390625 
Q 23 48.390625 18.546875 47.265625 
Q 14.109375 46.140625 10.015625 43.890625 
L 10.015625 52.203125 
Q 14.9375 54.109375 19.578125 55.046875 
Q 24.21875 56 28.609375 56 
Q 40.484375 56 46.34375 49.84375 
Q 52.203125 43.703125 52.203125 31.203125 
z
" id="DejaVuSans-97"/>
     <path d="M 18.3125 70.21875 
L 18.3125 54.6875 
L 36.8125 54.6875 
L 36.8125 47.703125 
L 18.3125 47.703125 
L 18.3125 18.015625 
Q 18.3125 11.328125 20.140625 9.421875 
Q 21.96875 7.515625 27.59375 7.515625 
L 36.8125 7.515625 
L 36.8125 0 
L 27.59375 0 
Q 17.1875 0 13.234375 3.875 
Q 9.28125 7.765625 9.28125 18.015625 
L 9.28125 47.703125 
L 2.6875 47.703125 
L 2.6875 54.6875 
L 9.28125 54.6875 
L 9.28125 70.21875 
z
" id="DejaVuSans-116"/>
     <path d="M 54.890625 33.015625 
L 54.890625 0 
L 45.90625 0 
L 45.90625 32.71875 
Q 45.90625 40.484375 42.875 44.328125 
Q 39.84375 48.1875 33.796875 48.1875 
Q 26.515625 48.1875 22.3125 43.546875 
Q 18.109375 38.921875 18.109375 30.90625 
L 18.109375 0 
L 9.078125 0 
L 9.078125 54.6875 
L 18.109375 54.6875 
L 18.109375 46.1875 
Q 21.34375 51.125 25.703125 53.5625 
Q 30.078125 56 35.796875 56 
Q 45.21875 56 50.046875 50.171875 
Q 54.890625 44.34375 54.890625 33.015625 
z
" id="DejaVuSans-110"/>
     <path d="M 4.890625 31.390625 
L 31.203125 31.390625 
L 31.203125 23.390625 
L 4.890625 23.390625 
z
" id="DejaVuSans-45"/>
     <path d="M 2.984375 54.6875 
L 12.5 54.6875 
L 29.59375 8.796875 
L 46.6875 54.6875 
L 56.203125 54.6875 
L 35.6875 0 
L 23.484375 0 
z
" id="DejaVuSans-118"/>
     <path d="M 17.921875 79.984375 
L 31.6875 61.71875 
L 24.21875 61.71875 
L 8.296875 79.984375 
z
" id="DejaVuSans-96"/>
     <path d="M 54.890625 33.015625 
L 54.890625 0 
L 45.90625 0 
L 45.90625 32.71875 
Q 45.90625 40.484375 42.875 44.328125 
Q 39.84375 48.1875 33.796875 48.1875 
Q 26.515625 48.1875 22.3125 43.546875 
Q 18.109375 38.921875 18.109375 30.90625 
L 18.109375 0 
L 9.078125 0 
L 9.078125 75.984375 
L 18.109375 75.984375 
L 18.109375 46.1875 
Q 21.34375 51.125 25.703125 53.5625 
Q 30.078125 56 35.796875 56 
Q 45.21875 56 50.046875 50.171875 
Q 54.890625 44.34375 54.890625 33.015625 
z
" id="DejaVuSans-104"/>
     <path d="M 52 44.1875 
Q 55.375 50.25 60.0625 53.125 
Q 64.75 56 71.09375 56 
Q 79.640625 56 84.28125 50.015625 
Q 88.921875 44.046875 88.921875 33.015625 
L 88.921875 0 
L 79.890625 0 
L 79.890625 32.71875 
Q 79.890625 40.578125 77.09375 44.375 
Q 74.3125 48.1875 68.609375 48.1875 
Q 61.625 48.1875 57.5625 43.546875 
Q 53.515625 38.921875 53.515625 30.90625 
L 53.515625 0 
L 44.484375 0 
L 44.484375 32.71875 
Q 44.484375 40.625 41.703125 44.40625 
Q 38.921875 48.1875 33.109375 48.1875 
Q 26.21875 48.1875 22.15625 43.53125 
Q 18.109375 38.875 18.109375 30.90625 
L 18.109375 0 
L 9.078125 0 
L 9.078125 54.6875 
L 18.109375 54.6875 
L 18.109375 46.1875 
Q 21.1875 51.21875 25.484375 53.609375 
Q 29.78125 56 35.6875 56 
Q 41.65625 56 45.828125 52.96875 
Q 50 49.953125 52 44.1875 
z
" id="DejaVuSans-109"/>
     <path d="M 11.71875 12.40625 
L 22.015625 12.40625 
L 22.015625 4 
L 14.015625 -11.625 
L 7.71875 -11.625 
L 11.71875 4 
z
" id="DejaVuSans-44"/>
     <path d="M 9.8125 72.90625 
L 24.515625 72.90625 
L 43.109375 23.296875 
L 61.8125 72.90625 
L 76.515625 72.90625 
L 76.515625 0 
L 66.890625 0 
L 66.890625 64.015625 
L 48.09375 14.015625 
L 38.1875 14.015625 
L 19.390625 64.015625 
L 19.390625 0 
L 9.8125 0 
z
" id="DejaVuSans-77"/>
     <path d="M 34.1875 63.1875 
L 20.796875 26.90625 
L 47.609375 26.90625 
z
M 28.609375 72.90625 
L 39.796875 72.90625 
L 67.578125 0 
L 57.328125 0 
L 50.6875 18.703125 
L 17.828125 18.703125 
L 11.1875 0 
L 0.78125 0 
z
" id="DejaVuSans-65"/>
     <path d="M 10.59375 45.40625 
L 73.1875 45.40625 
L 73.1875 37.203125 
L 10.59375 37.203125 
z
M 10.59375 25.484375 
L 73.1875 25.484375 
L 73.1875 17.1875 
L 10.59375 17.1875 
z
" id="DejaVuSans-61"/>
     <path d="M 37.796875 64.3125 
L 12.890625 25.390625 
L 37.796875 25.390625 
z
M 35.203125 72.90625 
L 47.609375 72.90625 
L 47.609375 25.390625 
L 58.015625 25.390625 
L 58.015625 17.1875 
L 47.609375 17.1875 
L 47.609375 0 
L 37.796875 0 
L 37.796875 17.1875 
L 4.890625 17.1875 
L 4.890625 26.703125 
z
" id="DejaVuSans-52"/>
    </defs>
    <g transform="translate(93.43875 20.52)scale(0.12 -0.12)">
     <use xlink:href="#DejaVuSans-103"/>
     <use x="63.476562" xlink:href="#DejaVuSans-114"/>
     <use x="104.589844" xlink:href="#DejaVuSans-105"/>
     <use x="132.373047" xlink:href="#DejaVuSans-100"/>
     <use x="195.849609" xlink:href="#DejaVuSans-119"/>
     <use x="277.636719" xlink:href="#DejaVuSans-111"/>
     <use x="338.818359" xlink:href="#DejaVuSans-114"/>
     <use x="379.931641" xlink:href="#DejaVuSans-108"/>
     <use x="407.714844" xlink:href="#DejaVuSans-100"/>
     <use x="471.191406" xlink:href="#DejaVuSans-95"/>
     <use x="521.191406" xlink:href="#DejaVuSans-53"/>
     <use x="584.814453" xlink:href="#DejaVuSans-120"/>
     <use x="643.994141" xlink:href="#DejaVuSans-53"/>
     <use x="707.617188" xlink:href="#DejaVuSans-95"/>
     <use x="757.617188" xlink:href="#DejaVuSans-50"/>
     <use x="821.240234" xlink:href="#DejaVuSans-48"/>
     <use x="884.863281" xlink:href="#DejaVuSans-95"/>
     <use x="934.863281" xlink:href="#DejaVuSans-49"/>
     <use x="998.486328" xlink:href="#DejaVuSans-95"/>
     <use x="1048.486328" xlink:href="#DejaVuSans-50"/>
     <use x="1112.109375" xlink:href="#DejaVuSans-48"/>
     <use x="1175.732422" xlink:href="#DejaVuSans-95"/>
     <use x="1225.732422" xlink:href="#DejaVuSans-49"/>
     <use x="1289.355469" xlink:href="#DejaVuSans-51"/>
     <use x="1352.978516" xlink:href="#DejaVuSans-51"/>
     <use x="1416.601562" xlink:href="#DejaVuSans-55"/>
     <use x="1480.224609" xlink:href="#DejaVuSans-95"/>
     <use x="1530.224609" xlink:href="#DejaVuSans-95"/>
     <use x="1580.224609" xlink:href="#DejaVuSans-50"/>
     <use x="1643.847656" xlink:href="#DejaVuSans-58"/>
     <use x="1677.539062" xlink:href="#DejaVuSans-32"/>
     <use x="1709.326172" xlink:href="#DejaVuSans-101"/>
     <use x="1770.849609" xlink:href="#DejaVuSans-112"/>
     <use x="1834.326172" xlink:href="#DejaVuSans-105"/>
     <use x="1862.109375" xlink:href="#DejaVuSans-115"/>
     <use x="1914.208984" xlink:href="#DejaVuSans-111"/>
     <use x="1975.390625" xlink:href="#DejaVuSans-100"/>
     <use x="2038.867188" xlink:href="#DejaVuSans-101"/>
     <use x="2100.390625" xlink:href="#DejaVuSans-32"/>
     <use x="2132.177734" xlink:href="#DejaVuSans-100"/>
     <use x="2195.654297" xlink:href="#DejaVuSans-117"/>
     <use x="2259.033203" xlink:href="#DejaVuSans-114"/>
     <use x="2300.146484" xlink:href="#DejaVuSans-97"/>
     <use x="2361.425781" xlink:href="#DejaVuSans-116"/>
     <use x="2400.634766" xlink:href="#DejaVuSans-105"/>
     <use x="2428.417969" xlink:href="#DejaVuSans-111"/>
     <use x="2489.599609" xlink:href="#DejaVuSans-110"/>
     <use x="2552.978516" xlink:href="#DejaVuSans-32"/>
     <use x="2584.765625" xlink:href="#DejaVuSans-105"/>
     <use x="2612.548828" xlink:href="#DejaVuSans-110"/>
     <use x="2675.927734" xlink:href="#DejaVuSans-32"/>
     <use x="2707.714844" xlink:href="#DejaVuSans-115"/>
     <use x="2759.814453" xlink:href="#DejaVuSans-116"/>
     <use x="2799.023438" xlink:href="#DejaVuSans-101"/>
     <use x="2860.546875" xlink:href="#DejaVuSans-112"/>
     <use x="2924.023438" xlink:href="#DejaVuSans-115"/>
     <use x="2976.123047" xlink:href="#DejaVuSans-32"/>
     <use x="3007.910156" xlink:href="#DejaVuSans-108"/>
     <use x="3035.693359" xlink:href="#DejaVuSans-111"/>
     <use x="3096.875" xlink:href="#DejaVuSans-103"/>
     <use x="3160.351562" xlink:href="#DejaVuSans-45"/>
     <use x="3196.435547" xlink:href="#DejaVuSans-114"/>
     <use x="3237.517578" xlink:href="#DejaVuSans-101"/>
     <use x="3299.041016" xlink:href="#DejaVuSans-108"/>
     <use x="3326.824219" xlink:href="#DejaVuSans-97"/>
     <use x="3388.103516" xlink:href="#DejaVuSans-116"/>
     <use x="3427.3125" xlink:href="#DejaVuSans-105"/>
     <use x="3455.095703" xlink:href="#DejaVuSans-118"/>
     <use x="3514.275391" xlink:href="#DejaVuSans-101"/>
     <use x="3575.798828" xlink:href="#DejaVuSans-32"/>
     <use x="3607.585938" xlink:href="#DejaVuSans-116"/>
     <use x="3646.794922" xlink:href="#DejaVuSans-111"/>
     <use x="3707.976562" xlink:href="#DejaVuSans-32"/>
     <use x="3739.763672" xlink:href="#DejaVuSans-96"/>
     <use x="3789.763672" xlink:href="#DejaVuSans-104"/>
     <use x="3853.142578" xlink:href="#DejaVuSans-116"/>
     <use x="3892.351562" xlink:href="#DejaVuSans-109"/>
     <use x="3989.763672" xlink:href="#DejaVuSans-95"/>
     <use x="4039.763672" xlink:href="#DejaVuSans-50"/>
     <use x="4103.386719" xlink:href="#DejaVuSans-95"/>
     <use x="4153.386719" xlink:href="#DejaVuSans-49"/>
     <use x="4217.009766" xlink:href="#DejaVuSans-103"/>
     <use x="4280.486328" xlink:href="#DejaVuSans-96"/>
     <use x="4330.486328" xlink:href="#DejaVuSans-44"/>
     <use x="4362.273438" xlink:href="#DejaVuSans-32"/>
     <use x="4394.060547" xlink:href="#DejaVuSans-77"/>
     <use x="4480.339844" xlink:href="#DejaVuSans-65"/>
     <use x="4548.748047" xlink:href="#DejaVuSans-61"/>
     <use x="4632.537109" xlink:href="#DejaVuSans-52"/>
     <use x="4696.160156" xlink:href="#DejaVuSans-48"/>
    </g>
   </g>
   <g id="legend_1">
    <g id="patch_7">
     <path d="M 767.946625 239.254375 
L 855.381 239.254375 
Q 857.381 239.254375 857.381 237.254375 
L 857.381 193.385625 
Q 857.381 191.385625 855.381 191.385625 
L 767.946625 191.385625 
Q 765.946625 191.385625 765.946625 193.385625 
L 765.946625 237.254375 
Q 765.946625 239.254375 767.946625 239.254375 
z
" style="fill:#ffffff;opacity:0.8;stroke:#cccccc;stroke-linejoin:miter;"/>
    </g>
    <g id="line2d_18">
     <path d="M 769.946625 199.484062 
L 789.946625 199.484062 
" style="fill:none;stroke:#1f77b4;stroke-linecap:square;stroke-width:1.5;"/>
    </g>
    <g id="line2d_19"/>
    <g id="text_16">
     <!-- htm_2_1g -->
     <g transform="translate(797.946625 202.984062)scale(0.1 -0.1)">
      <use xlink:href="#DejaVuSans-104"/>
      <use x="63.378906" xlink:href="#DejaVuSans-116"/>
      <use x="102.587891" xlink:href="#DejaVuSans-109"/>
      <use x="200" xlink:href="#DejaVuSans-95"/>
      <use x="250" xlink:href="#DejaVuSans-50"/>
      <use x="313.623047" xlink:href="#DejaVuSans-95"/>
      <use x="363.623047" xlink:href="#DejaVuSans-49"/>
      <use x="427.246094" xlink:href="#DejaVuSans-103"/>
     </g>
    </g>
    <g id="line2d_20">
     <path d="M 769.946625 214.440313 
L 789.946625 214.440313 
" style="fill:none;stroke:#ff7f0e;stroke-linecap:square;stroke-width:1.5;"/>
    </g>
    <g id="line2d_21"/>
    <g id="text_17">
     <!-- htm_2_4g -->
     <g transform="translate(797.946625 217.940313)scale(0.1 -0.1)">
      <use xlink:href="#DejaVuSans-104"/>
      <use x="63.378906" xlink:href="#DejaVuSans-116"/>
      <use x="102.587891" xlink:href="#DejaVuSans-109"/>
      <use x="200" xlink:href="#DejaVuSans-95"/>
      <use x="250" xlink:href="#DejaVuSans-50"/>
      <use x="313.623047" xlink:href="#DejaVuSans-95"/>
      <use x="363.623047" xlink:href="#DejaVuSans-52"/>
      <use x="427.246094" xlink:href="#DejaVuSans-103"/>
     </g>
    </g>
    <g id="line2d_22">
     <path d="M 769.946625 229.396562 
L 789.946625 229.396562 
" style="fill:none;stroke:#2ca02c;stroke-linecap:square;stroke-width:1.5;"/>
    </g>
    <g id="line2d_23"/>
    <g id="text_18">
     <!-- htm_2_16g -->
     <defs>
      <path d="M 33.015625 40.375 
Q 26.375 40.375 22.484375 35.828125 
Q 18.609375 31.296875 18.609375 23.390625 
Q 18.609375 15.53125 22.484375 10.953125 
Q 26.375 6.390625 33.015625 6.390625 
Q 39.65625 6.390625 43.53125 10.953125 
Q 47.40625 15.53125 47.40625 23.390625 
Q 47.40625 31.296875 43.53125 35.828125 
Q 39.65625 40.375 33.015625 40.375 
z
M 52.59375 71.296875 
L 52.59375 62.3125 
Q 48.875 64.0625 45.09375 64.984375 
Q 41.3125 65.921875 37.59375 65.921875 
Q 27.828125 65.921875 22.671875 59.328125 
Q 17.53125 52.734375 16.796875 39.40625 
Q 19.671875 43.65625 24.015625 45.921875 
Q 28.375 48.1875 33.59375 48.1875 
Q 44.578125 48.1875 50.953125 41.515625 
Q 57.328125 34.859375 57.328125 23.390625 
Q 57.328125 12.15625 50.6875 5.359375 
Q 44.046875 -1.421875 33.015625 -1.421875 
Q 20.359375 -1.421875 13.671875 8.265625 
Q 6.984375 17.96875 6.984375 36.375 
Q 6.984375 53.65625 15.1875 63.9375 
Q 23.390625 74.21875 37.203125 74.21875 
Q 40.921875 74.21875 44.703125 73.484375 
Q 48.484375 72.75 52.59375 71.296875 
z
" id="DejaVuSans-54"/>
     </defs>
     <g transform="translate(797.946625 232.896562)scale(0.1 -0.1)">
      <use xlink:href="#DejaVuSans-104"/>
      <use x="63.378906" xlink:href="#DejaVuSans-116"/>
      <use x="102.587891" xlink:href="#DejaVuSans-109"/>
      <use x="200" xlink:href="#DejaVuSans-95"/>
      <use x="250" xlink:href="#DejaVuSans-50"/>
      <use x="313.623047" xlink:href="#DejaVuSans-95"/>
      <use x="363.623047" xlink:href="#DejaVuSans-49"/>
      <use x="427.246094" xlink:href="#DejaVuSans-54"/>
      <use x="490.869141" xlink:href="#DejaVuSans-103"/>
     </g>
    </g>
   </g>
  </g>
 </g>
 <defs>
  <clipPath id="p84d9d728bd">
   <rect height="377.6" width="690.505" x="33.775" y="26.52"/>
  </clipPath>
 </defs>
</svg>
