<?xml version="1.0" encoding="utf-8" standalone="no"?>
<!DOCTYPE svg PUBLIC "-//W3C//DTD SVG 1.1//EN"
  "http://www.w3.org/Graphics/SVG/1.1/DTD/svg11.dtd">
<!-- Created with matplotlib (https://matplotlib.org/) -->
<svg height="432pt" version="1.1" viewBox="0 0 864 432" width="864pt" xmlns="http://www.w3.org/2000/svg" xmlns:xlink="http://www.w3.org/1999/xlink">
 <defs>
  <style type="text/css">
*{stroke-linecap:butt;stroke-linejoin:round;}
  </style>
 </defs>
 <g id="figure_1">
  <g id="patch_1">
   <path d="M 0 432 
L 864 432 
L 864 0 
L 0 0 
z
" style="fill:#ffffff;"/>
  </g>
  <g id="axes_1">
   <g id="patch_2">
    <path d="M 42.1 404.12 
L 724.28 404.12 
L 724.28 26.16 
L 42.1 26.16 
z
" style="fill:#ffffff;"/>
   </g>
   <g id="matplotlib.axis_1">
    <g id="xtick_1">
     <g id="line2d_1">
      <defs>
       <path d="M 0 0 
L 0 3.5 
" id="me02aee57a0" style="stroke:#000000;stroke-width:0.8;"/>
      </defs>
      <g>
       <use style="stroke:#000000;stroke-width:0.8;" x="42.1" xlink:href="#me02aee57a0" y="404.12"/>
      </g>
     </g>
     <g id="text_1">
      <!-- 0 -->
      <defs>
       <path d="M 31.78125 66.40625 
Q 24.171875 66.40625 20.328125 58.90625 
Q 16.5 51.421875 16.5 36.375 
Q 16.5 21.390625 20.328125 13.890625 
Q 24.171875 6.390625 31.78125 6.390625 
Q 39.453125 6.390625 43.28125 13.890625 
Q 47.125 21.390625 47.125 36.375 
Q 47.125 51.421875 43.28125 58.90625 
Q 39.453125 66.40625 31.78125 66.40625 
z
M 31.78125 74.21875 
Q 44.046875 74.21875 50.515625 64.515625 
Q 56.984375 54.828125 56.984375 36.375 
Q 56.984375 17.96875 50.515625 8.265625 
Q 44.046875 -1.421875 31.78125 -1.421875 
Q 19.53125 -1.421875 13.0625 8.265625 
Q 6.59375 17.96875 6.59375 36.375 
Q 6.59375 54.828125 13.0625 64.515625 
Q 19.53125 74.21875 31.78125 74.21875 
z
" id="DejaVuSans-48"/>
      </defs>
      <g transform="translate(38.91875 418.718437)scale(0.1 -0.1)">
       <use xlink:href="#DejaVuSans-48"/>
      </g>
     </g>
    </g>
    <g id="xtick_2">
     <g id="line2d_2">
      <g>
       <use style="stroke:#000000;stroke-width:0.8;" x="127.586216" xlink:href="#me02aee57a0" y="404.12"/>
      </g>
     </g>
     <g id="text_2">
      <!-- 50 -->
      <defs>
       <path d="M 10.796875 72.90625 
L 49.515625 72.90625 
L 49.515625 64.59375 
L 19.828125 64.59375 
L 19.828125 46.734375 
Q 21.96875 47.46875 24.109375 47.828125 
Q 26.265625 48.1875 28.421875 48.1875 
Q 40.625 48.1875 47.75 41.5 
Q 54.890625 34.8125 54.890625 23.390625 
Q 54.890625 11.625 47.5625 5.09375 
Q 40.234375 -1.421875 26.90625 -1.421875 
Q 22.3125 -1.421875 17.546875 -0.640625 
Q 12.796875 0.140625 7.71875 1.703125 
L 7.71875 11.625 
Q 12.109375 9.234375 16.796875 8.0625 
Q 21.484375 6.890625 26.703125 6.890625 
Q 35.15625 6.890625 40.078125 11.328125 
Q 45.015625 15.765625 45.015625 23.390625 
Q 45.015625 31 40.078125 35.4375 
Q 35.15625 39.890625 26.703125 39.890625 
Q 22.75 39.890625 18.8125 39.015625 
Q 14.890625 38.140625 10.796875 36.28125 
z
" id="DejaVuSans-53"/>
      </defs>
      <g transform="translate(121.223716 418.718437)scale(0.1 -0.1)">
       <use xlink:href="#DejaVuSans-53"/>
       <use x="63.623047" xlink:href="#DejaVuSans-48"/>
      </g>
     </g>
    </g>
    <g id="xtick_3">
     <g id="line2d_3">
      <g>
       <use style="stroke:#000000;stroke-width:0.8;" x="213.072431" xlink:href="#me02aee57a0" y="404.12"/>
      </g>
     </g>
     <g id="text_3">
      <!-- 100 -->
      <defs>
       <path d="M 12.40625 8.296875 
L 28.515625 8.296875 
L 28.515625 63.921875 
L 10.984375 60.40625 
L 10.984375 69.390625 
L 28.421875 72.90625 
L 38.28125 72.90625 
L 38.28125 8.296875 
L 54.390625 8.296875 
L 54.390625 0 
L 12.40625 0 
z
" id="DejaVuSans-49"/>
      </defs>
      <g transform="translate(203.528681 418.718437)scale(0.1 -0.1)">
       <use xlink:href="#DejaVuSans-49"/>
       <use x="63.623047" xlink:href="#DejaVuSans-48"/>
       <use x="127.246094" xlink:href="#DejaVuSans-48"/>
      </g>
     </g>
    </g>
    <g id="xtick_4">
     <g id="line2d_4">
      <g>
       <use style="stroke:#000000;stroke-width:0.8;" x="298.558647" xlink:href="#me02aee57a0" y="404.12"/>
      </g>
     </g>
     <g id="text_4">
      <!-- 150 -->
      <g transform="translate(289.014897 418.718437)scale(0.1 -0.1)">
       <use xlink:href="#DejaVuSans-49"/>
       <use x="63.623047" xlink:href="#DejaVuSans-53"/>
       <use x="127.246094" xlink:href="#DejaVuSans-48"/>
      </g>
     </g>
    </g>
    <g id="xtick_5">
     <g id="line2d_5">
      <g>
       <use style="stroke:#000000;stroke-width:0.8;" x="384.044862" xlink:href="#me02aee57a0" y="404.12"/>
      </g>
     </g>
     <g id="text_5">
      <!-- 200 -->
      <defs>
       <path d="M 19.1875 8.296875 
L 53.609375 8.296875 
L 53.609375 0 
L 7.328125 0 
L 7.328125 8.296875 
Q 12.9375 14.109375 22.625 23.890625 
Q 32.328125 33.6875 34.8125 36.53125 
Q 39.546875 41.84375 41.421875 45.53125 
Q 43.3125 49.21875 43.3125 52.78125 
Q 43.3125 58.59375 39.234375 62.25 
Q 35.15625 65.921875 28.609375 65.921875 
Q 23.96875 65.921875 18.8125 64.3125 
Q 13.671875 62.703125 7.8125 59.421875 
L 7.8125 69.390625 
Q 13.765625 71.78125 18.9375 73 
Q 24.125 74.21875 28.421875 74.21875 
Q 39.75 74.21875 46.484375 68.546875 
Q 53.21875 62.890625 53.21875 53.421875 
Q 53.21875 48.921875 51.53125 44.890625 
Q 49.859375 40.875 45.40625 35.40625 
Q 44.1875 33.984375 37.640625 27.21875 
Q 31.109375 20.453125 19.1875 8.296875 
z
" id="DejaVuSans-50"/>
      </defs>
      <g transform="translate(374.501112 418.718437)scale(0.1 -0.1)">
       <use xlink:href="#DejaVuSans-50"/>
       <use x="63.623047" xlink:href="#DejaVuSans-48"/>
       <use x="127.246094" xlink:href="#DejaVuSans-48"/>
      </g>
     </g>
    </g>
    <g id="xtick_6">
     <g id="line2d_6">
      <g>
       <use style="stroke:#000000;stroke-width:0.8;" x="469.531078" xlink:href="#me02aee57a0" y="404.12"/>
      </g>
     </g>
     <g id="text_6">
      <!-- 250 -->
      <g transform="translate(459.987328 418.718437)scale(0.1 -0.1)">
       <use xlink:href="#DejaVuSans-50"/>
       <use x="63.623047" xlink:href="#DejaVuSans-53"/>
       <use x="127.246094" xlink:href="#DejaVuSans-48"/>
      </g>
     </g>
    </g>
    <g id="xtick_7">
     <g id="line2d_7">
      <g>
       <use style="stroke:#000000;stroke-width:0.8;" x="555.017293" xlink:href="#me02aee57a0" y="404.12"/>
      </g>
     </g>
     <g id="text_7">
      <!-- 300 -->
      <defs>
       <path d="M 40.578125 39.3125 
Q 47.65625 37.796875 51.625 33 
Q 55.609375 28.21875 55.609375 21.1875 
Q 55.609375 10.40625 48.1875 4.484375 
Q 40.765625 -1.421875 27.09375 -1.421875 
Q 22.515625 -1.421875 17.65625 -0.515625 
Q 12.796875 0.390625 7.625 2.203125 
L 7.625 11.71875 
Q 11.71875 9.328125 16.59375 8.109375 
Q 21.484375 6.890625 26.8125 6.890625 
Q 36.078125 6.890625 40.9375 10.546875 
Q 45.796875 14.203125 45.796875 21.1875 
Q 45.796875 27.640625 41.28125 31.265625 
Q 36.765625 34.90625 28.71875 34.90625 
L 20.21875 34.90625 
L 20.21875 43.015625 
L 29.109375 43.015625 
Q 36.375 43.015625 40.234375 45.921875 
Q 44.09375 48.828125 44.09375 54.296875 
Q 44.09375 59.90625 40.109375 62.90625 
Q 36.140625 65.921875 28.71875 65.921875 
Q 24.65625 65.921875 20.015625 65.03125 
Q 15.375 64.15625 9.8125 62.3125 
L 9.8125 71.09375 
Q 15.4375 72.65625 20.34375 73.4375 
Q 25.25 74.21875 29.59375 74.21875 
Q 40.828125 74.21875 47.359375 69.109375 
Q 53.90625 64.015625 53.90625 55.328125 
Q 53.90625 49.265625 50.4375 45.09375 
Q 46.96875 40.921875 40.578125 39.3125 
z
" id="DejaVuSans-51"/>
      </defs>
      <g transform="translate(545.473543 418.718437)scale(0.1 -0.1)">
       <use xlink:href="#DejaVuSans-51"/>
       <use x="63.623047" xlink:href="#DejaVuSans-48"/>
       <use x="127.246094" xlink:href="#DejaVuSans-48"/>
      </g>
     </g>
    </g>
    <g id="xtick_8">
     <g id="line2d_8">
      <g>
       <use style="stroke:#000000;stroke-width:0.8;" x="640.503509" xlink:href="#me02aee57a0" y="404.12"/>
      </g>
     </g>
     <g id="text_8">
      <!-- 350 -->
      <g transform="translate(630.959759 418.718437)scale(0.1 -0.1)">
       <use xlink:href="#DejaVuSans-51"/>
       <use x="63.623047" xlink:href="#DejaVuSans-53"/>
       <use x="127.246094" xlink:href="#DejaVuSans-48"/>
      </g>
     </g>
    </g>
   </g>
   <g id="matplotlib.axis_2">
    <g id="ytick_1">
     <g id="line2d_9">
      <defs>
       <path d="M 0 0 
L -3.5 0 
" id="m5e6ad4ae31" style="stroke:#000000;stroke-width:0.8;"/>
      </defs>
      <g>
       <use style="stroke:#000000;stroke-width:0.8;" x="42.1" xlink:href="#m5e6ad4ae31" y="385.674027"/>
      </g>
     </g>
     <g id="text_9">
      <!-- −2.5 -->
      <defs>
       <path d="M 10.59375 35.5 
L 73.1875 35.5 
L 73.1875 27.203125 
L 10.59375 27.203125 
z
" id="DejaVuSans-8722"/>
       <path d="M 10.6875 12.40625 
L 21 12.40625 
L 21 0 
L 10.6875 0 
z
" id="DejaVuSans-46"/>
      </defs>
      <g transform="translate(10.817188 389.473246)scale(0.1 -0.1)">
       <use xlink:href="#DejaVuSans-8722"/>
       <use x="83.789062" xlink:href="#DejaVuSans-50"/>
       <use x="147.412109" xlink:href="#DejaVuSans-46"/>
       <use x="179.199219" xlink:href="#DejaVuSans-53"/>
      </g>
     </g>
    </g>
    <g id="ytick_2">
     <g id="line2d_10">
      <g>
       <use style="stroke:#000000;stroke-width:0.8;" x="42.1" xlink:href="#m5e6ad4ae31" y="336.028022"/>
      </g>
     </g>
     <g id="text_10">
      <!-- −2.0 -->
      <g transform="translate(10.817188 339.827241)scale(0.1 -0.1)">
       <use xlink:href="#DejaVuSans-8722"/>
       <use x="83.789062" xlink:href="#DejaVuSans-50"/>
       <use x="147.412109" xlink:href="#DejaVuSans-46"/>
       <use x="179.199219" xlink:href="#DejaVuSans-48"/>
      </g>
     </g>
    </g>
    <g id="ytick_3">
     <g id="line2d_11">
      <g>
       <use style="stroke:#000000;stroke-width:0.8;" x="42.1" xlink:href="#m5e6ad4ae31" y="286.382017"/>
      </g>
     </g>
     <g id="text_11">
      <!-- −1.5 -->
      <g transform="translate(10.817188 290.181236)scale(0.1 -0.1)">
       <use xlink:href="#DejaVuSans-8722"/>
       <use x="83.789062" xlink:href="#DejaVuSans-49"/>
       <use x="147.412109" xlink:href="#DejaVuSans-46"/>
       <use x="179.199219" xlink:href="#DejaVuSans-53"/>
      </g>
     </g>
    </g>
    <g id="ytick_4">
     <g id="line2d_12">
      <g>
       <use style="stroke:#000000;stroke-width:0.8;" x="42.1" xlink:href="#m5e6ad4ae31" y="236.736012"/>
      </g>
     </g>
     <g id="text_12">
      <!-- −1.0 -->
      <g transform="translate(10.817188 240.535231)scale(0.1 -0.1)">
       <use xlink:href="#DejaVuSans-8722"/>
       <use x="83.789062" xlink:href="#DejaVuSans-49"/>
       <use x="147.412109" xlink:href="#DejaVuSans-46"/>
       <use x="179.199219" xlink:href="#DejaVuSans-48"/>
      </g>
     </g>
    </g>
    <g id="ytick_5">
     <g id="line2d_13">
      <g>
       <use style="stroke:#000000;stroke-width:0.8;" x="42.1" xlink:href="#m5e6ad4ae31" y="187.090007"/>
      </g>
     </g>
     <g id="text_13">
      <!-- −0.5 -->
      <g transform="translate(10.817188 190.889226)scale(0.1 -0.1)">
       <use xlink:href="#DejaVuSans-8722"/>
       <use x="83.789062" xlink:href="#DejaVuSans-48"/>
       <use x="147.412109" xlink:href="#DejaVuSans-46"/>
       <use x="179.199219" xlink:href="#DejaVuSans-53"/>
      </g>
     </g>
    </g>
    <g id="ytick_6">
     <g id="line2d_14">
      <g>
       <use style="stroke:#000000;stroke-width:0.8;" x="42.1" xlink:href="#m5e6ad4ae31" y="137.444002"/>
      </g>
     </g>
     <g id="text_14">
      <!-- 0.0 -->
      <g transform="translate(19.196875 141.243221)scale(0.1 -0.1)">
       <use xlink:href="#DejaVuSans-48"/>
       <use x="63.623047" xlink:href="#DejaVuSans-46"/>
       <use x="95.410156" xlink:href="#DejaVuSans-48"/>
      </g>
     </g>
    </g>
    <g id="ytick_7">
     <g id="line2d_15">
      <g>
       <use style="stroke:#000000;stroke-width:0.8;" x="42.1" xlink:href="#m5e6ad4ae31" y="87.797997"/>
      </g>
     </g>
     <g id="text_15">
      <!-- 0.5 -->
      <g transform="translate(19.196875 91.597216)scale(0.1 -0.1)">
       <use xlink:href="#DejaVuSans-48"/>
       <use x="63.623047" xlink:href="#DejaVuSans-46"/>
       <use x="95.410156" xlink:href="#DejaVuSans-53"/>
      </g>
     </g>
    </g>
    <g id="ytick_8">
     <g id="line2d_16">
      <g>
       <use style="stroke:#000000;stroke-width:0.8;" x="42.1" xlink:href="#m5e6ad4ae31" y="38.151992"/>
      </g>
     </g>
     <g id="text_16">
      <!-- 1.0 -->
      <g transform="translate(19.196875 41.951211)scale(0.1 -0.1)">
       <use xlink:href="#DejaVuSans-49"/>
       <use x="63.623047" xlink:href="#DejaVuSans-46"/>
       <use x="95.410156" xlink:href="#DejaVuSans-48"/>
      </g>
     </g>
    </g>
   </g>
   <g id="line2d_17">
    <path clip-path="url(#p7a50669a23)" d="M 108.779248 70.322604 
L 110.488972 68.684286 
L 112.198697 67.889949 
L 113.908421 68.609817 
L 115.618145 68.237471 
L 117.32787 72.978665 
L 119.037594 73.450302 
L 120.747318 76.82623 
L 122.457043 78.31561 
L 124.166767 82.982335 
L 125.876491 82.237645 
L 127.586216 82.039061 
L 129.29594 81.046141 
L 131.005664 90.032068 
L 132.715388 95.642066 
L 134.425113 98.794587 
L 136.134837 100.457729 
L 137.844561 103.088967 
L 139.554286 104.578347 
L 144.683459 105.34786 
L 146.393183 105.769851 
L 148.102907 105.397506 
L 149.812632 103.188259 
L 151.522356 102.666976 
L 153.23208 101.252065 
L 154.941805 101.549941 
L 156.651529 100.681136 
L 158.361253 102.592507 
L 160.070977 102.964852 
L 161.780702 102.3691 
L 163.490426 102.145693 
L 165.20015 101.525118 
L 166.909875 106.58901 
L 168.619599 108.103213 
L 170.329323 108.301797 
L 172.039048 110.064231 
L 173.748772 110.38693 
L 175.458496 110.089054 
L 177.168221 110.461399 
L 178.877945 110.63516 
L 180.587669 111.702549 
L 182.297393 111.404673 
L 184.007118 114.011088 
L 185.716842 108.996841 
L 187.426566 109.691886 
L 189.136291 105.571267 
L 190.846015 106.737948 
L 192.555739 101.450649 
L 194.265464 100.979012 
L 195.975188 98.471888 
L 197.684912 98.471888 
L 199.394637 88.81574 
L 201.104361 92.762598 
L 202.814085 89.734192 
L 204.52381 88.468218 
L 206.233534 88.31928 
L 207.943258 90.081714 
L 209.652982 90.727112 
L 211.362707 91.198749 
L 213.072431 91.000165 
L 214.782155 89.063971 
L 218.201604 88.89021 
L 219.911328 90.329944 
L 221.621053 94.177509 
L 223.330777 94.425739 
L 225.040501 92.787421 
L 228.45995 92.092377 
L 231.879398 92.092377 
L 233.589123 90.975342 
L 235.298847 86.606493 
L 237.008571 86.58167 
L 238.718296 85.464635 
L 240.42802 82.982335 
L 242.137744 82.411406 
L 243.847469 82.088707 
L 245.557193 81.269548 
L 247.266917 81.170256 
L 248.976642 79.755345 
L 250.686366 78.911363 
L 252.39609 75.932602 
L 254.105815 76.702115 
L 255.815539 75.634726 
L 257.525263 76.230478 
L 259.234987 74.269461 
L 260.944712 74.616983 
L 264.36416 74.616983 
L 266.073885 74.939682 
L 267.783609 74.865213 
L 269.493333 65.432472 
L 271.203058 64.861543 
L 272.912782 64.762251 
L 274.622506 62.503358 
L 276.332231 59.946589 
L 278.041955 59.301191 
L 279.751679 60.939509 
L 281.461404 61.833137 
L 283.171128 62.453712 
L 284.880852 62.801234 
L 286.590576 62.776411 
L 288.300301 61.162916 
L 290.010025 60.219642 
L 291.719749 61.162916 
L 293.429474 61.560084 
L 295.139198 60.790571 
L 296.848922 61.088447 
L 298.558647 63.09911 
L 300.268371 63.521101 
L 301.978095 64.09203 
L 303.68782 63.396986 
L 305.397544 61.833137 
L 307.107268 62.131013 
L 308.816992 65.184242 
L 310.526717 66.57433 
L 312.236441 65.928932 
L 313.946165 66.251631 
L 315.65589 69.155923 
L 317.365614 70.074374 
L 319.075338 70.546011 
L 320.785063 70.347427 
L 322.494787 71.439639 
L 324.204511 72.060214 
L 325.914236 71.6134 
L 327.62396 71.86163 
L 329.333684 72.233975 
L 331.043409 73.971585 
L 332.753133 73.797824 
L 334.462857 75.684372 
L 336.172581 75.858133 
L 337.882306 77.446805 
L 339.59203 77.645389 
L 341.301754 77.297867 
L 343.011479 77.595743 
L 344.721203 78.017734 
L 346.430927 77.595743 
L 348.140652 75.212735 
L 351.5601 93.259058 
L 353.269825 96.957685 
L 354.979549 97.0818 
L 356.689273 106.986178 
L 358.398997 103.932949 
L 360.108722 112.12454 
L 361.818446 114.035911 
L 363.52817 117.734538 
L 365.237895 117.461485 
L 366.947619 117.064317 
L 368.657343 116.84091 
L 370.367068 117.957945 
L 373.786516 125.032501 
L 375.496241 127.365863 
L 377.205965 126.770111 
L 378.915689 125.802014 
L 380.625414 126.968695 
L 382.335138 126.695642 
L 384.044862 125.007678 
L 385.754586 126.09989 
L 387.464311 126.894226 
L 389.174035 129.277235 
L 390.883759 128.284314 
L 392.593484 128.631836 
L 394.303208 128.433252 
L 396.012932 128.08573 
L 397.722657 127.489978 
L 399.432381 126.174359 
L 401.142105 126.497058 
L 402.85183 124.486395 
L 404.561554 126.372943 
L 406.271278 124.560864 
L 407.981003 124.486395 
L 409.690727 124.660156 
L 411.400451 124.238165 
L 413.110175 124.089227 
L 414.8199 124.560864 
L 416.529624 125.231085 
L 418.239348 120.514715 
L 419.949073 110.734452 
L 421.658797 107.557107 
L 423.368521 107.432992 
L 425.078246 107.432992 
L 426.78797 107.780514 
L 428.497694 99.439986 
L 430.207419 97.131446 
L 431.917143 97.752021 
L 433.626867 104.206002 
L 435.336591 102.468392 
L 437.046316 103.709542 
L 438.75604 101.897463 
L 440.465764 98.744941 
L 442.175489 94.822907 
L 443.885213 93.333527 
L 445.594937 93.35835 
L 447.304662 93.805164 
L 449.014386 92.911536 
L 450.72411 94.10304 
L 452.433835 93.60658 
L 454.143559 92.439899 
L 455.853283 91.446979 
L 457.563008 89.088794 
L 459.272732 89.461139 
L 460.982456 89.188086 
L 466.111629 88.790917 
L 467.821353 88.716448 
L 469.531078 88.418572 
L 471.240802 88.344103 
L 472.950526 86.184502 
L 474.660251 86.904369 
L 479.789424 86.457555 
L 481.499148 85.663219 
L 483.208872 88.07105 
L 484.918596 87.400829 
L 486.628321 83.180919 
L 488.338045 83.503618 
L 490.047769 92.564014 
L 491.757494 98.496711 
L 493.467218 91.149103 
L 495.176942 90.702289 
L 496.886667 91.670386 
L 498.596391 92.787421 
L 500.306115 87.82282 
L 502.01584 84.719945 
L 503.725564 85.563927 
L 505.435288 85.017821 
L 507.145013 86.134856 
L 508.854737 85.83698 
L 510.564461 86.159679 
L 512.274185 92.390253 
L 513.98391 90.007245 
L 515.693634 91.074634 
L 517.403358 92.712952 
L 519.113083 91.37251 
L 520.822807 90.578174 
L 522.532531 89.510785 
L 524.242256 88.865387 
L 525.95198 89.039148 
L 527.661704 87.475298 
L 529.371429 87.07813 
L 531.081153 87.202245 
L 532.790877 86.879546 
L 534.500602 87.003661 
L 536.210326 86.656139 
L 537.92005 86.805077 
L 539.629774 87.351183 
L 541.339499 88.170342 
L 543.049223 87.450475 
L 546.468672 87.748351 
L 548.178396 88.368926 
L 549.88812 89.932776 
L 551.597845 87.102953 
L 553.307569 89.38667 
L 555.017293 88.418572 
L 556.727018 89.212909 
L 558.436742 80.574504 
L 560.146466 74.691452 
L 561.85619 72.134683 
L 563.565915 72.35809 
L 565.275639 70.173666 
L 566.985363 70.843887 
L 568.695088 72.829727 
L 570.404812 69.404153 
L 572.114536 70.248135 
L 573.824261 74.244638 
L 575.533985 73.698532 
L 577.243709 74.741098 
L 578.953434 74.443222 
L 580.663158 67.269374 
L 582.372882 67.07079 
L 584.082607 65.184242 
L 585.792331 65.755171 
L 587.502055 65.730348 
L 589.211779 66.57433 
L 590.921504 67.840303 
L 592.631228 68.709109 
L 594.340952 69.056631 
L 596.050677 69.62756 
L 597.760401 69.428976 
L 599.470125 69.776498 
L 601.17985 74.741098 
L 602.889574 74.517691 
L 604.599298 77.496451 
L 606.309023 78.88654 
L 608.018747 80.078044 
L 609.728471 79.606407 
L 611.438195 80.87238 
L 614.857644 80.599327 
L 616.567368 83.35468 
L 618.277093 82.063884 
L 619.986817 82.11353 
L 621.696541 80.251805 
L 623.406266 84.471715 
L 625.11599 86.209325 
L 626.825714 85.539104 
L 628.535439 86.58167 
L 630.245163 86.606493 
L 631.954887 86.383086 
L 633.664612 87.549767 
L 635.374336 87.202245 
L 637.08406 85.439812 
L 638.793784 85.688042 
L 640.503509 84.322777 
L 642.213233 79.581584 
L 643.922957 79.13477 
L 647.342406 79.383 
L 649.05213 89.113617 
L 652.471579 89.907953 
L 654.181303 88.269634 
L 655.891028 90.553351 
L 657.600752 91.645563 
L 659.310476 92.216492 
L 661.020201 94.078217 
L 662.729925 94.251978 
L 664.439649 96.312287 
L 666.149373 97.33003 
L 667.859098 97.0818 
L 669.568822 96.411579 
L 671.278546 97.131446 
L 672.988271 94.227155 
L 674.697995 93.35835 
L 676.407719 96.634986 
L 678.117444 96.188172 
L 679.827168 96.734278 
L 681.536892 97.007331 
L 683.246617 98.447065 
L 684.956341 101.103127 
L 686.666065 101.599587 
L 688.375789 102.418746 
L 690.085514 102.071224 
L 691.795238 99.415163 
L 693.504962 98.670472 
L 695.214687 98.596003 
L 696.924411 100.110207 
L 698.634135 100.63149 
L 700.34386 101.326534 
L 702.053584 99.8868 
L 703.763308 98.893879 
L 705.473033 100.159853 
L 708.892481 99.787508 
L 710.602206 100.557021 
L 712.31193 101.971932 
L 714.021654 101.525118 
L 715.731378 101.87264 
L 717.441103 91.943439 
L 719.150827 91.521448 
L 720.860551 91.422156 
L 722.570276 90.851227 
L 724.28 90.652643 
L 724.28 90.652643 
" style="fill:none;stroke:#1f77b4;stroke-linecap:square;stroke-width:1.5;"/>
   </g>
   <g id="line2d_18">
    <path clip-path="url(#p7a50669a23)" d="M 108.779248 139.380197 
L 110.488972 129.450996 
L 112.198697 139.380197 
L 115.618145 139.305727 
L 117.32787 139.256081 
L 119.037594 149.185282 
L 129.29594 149.011521 
L 131.005664 158.891076 
L 134.425113 158.766961 
L 136.134837 168.696162 
L 139.554286 168.770631 
L 141.26401 178.650186 
L 151.522356 178.650186 
L 153.23208 168.720985 
L 160.070977 208.11509 
L 161.780702 198.235535 
L 165.20015 198.061774 
L 168.619599 198.036951 
L 170.329323 188.132573 
L 177.168221 188.10775 
L 178.877945 198.036951 
L 180.587669 188.157396 
L 182.297393 188.157396 
L 184.007118 198.061774 
L 185.716842 198.036951 
L 187.426566 188.182219 
L 189.136291 198.061774 
L 190.846015 198.061774 
L 192.555739 207.941329 
L 194.265464 207.891683 
L 197.684912 227.700439 
L 199.394637 217.845707 
L 201.104361 217.87053 
L 202.814085 227.750085 
L 204.52381 217.87053 
L 206.233534 227.725262 
L 211.362707 227.849377 
L 214.782155 227.849377 
L 219.911328 198.086597 
L 221.621053 198.136243 
L 228.45995 158.642846 
L 245.557193 158.469085 
L 247.266917 148.539884 
L 248.976642 158.419439 
L 250.686366 148.515061 
L 252.39609 148.515061 
L 254.105815 158.444262 
L 257.525263 158.493908 
L 259.234987 168.34864 
L 260.944712 158.469085 
L 262.654436 168.398286 
L 264.36416 158.518731 
L 266.073885 158.518731 
L 267.783609 168.373463 
L 271.203058 168.298994 
L 276.332231 168.298994 
L 278.041955 158.394616 
L 283.171128 158.369793 
L 284.880852 168.298994 
L 286.590576 168.298994 
L 288.300301 178.203372 
L 291.719749 178.153726 
L 293.429474 178.128903 
L 295.139198 187.958812 
L 296.848922 187.933989 
L 298.558647 188.033281 
L 300.268371 197.937659 
L 313.946165 198.185889 
L 315.65589 208.11509 
L 317.365614 208.11509 
L 319.075338 218.019468 
L 322.494787 218.019468 
L 324.204511 227.824554 
L 327.62396 227.824554 
L 329.333684 237.704109 
L 331.043409 227.799731 
L 332.753133 237.679286 
L 334.462857 227.799731 
L 336.172581 227.799731 
L 337.882306 237.704109 
L 339.59203 237.704109 
L 341.301754 247.558841 
L 343.011479 237.679286 
L 348.140652 237.62964 
L 353.269825 237.62964 
L 354.979549 247.558841 
L 360.108722 247.608487 
L 361.818446 257.537688 
L 363.52817 257.537688 
L 365.237895 267.466889 
L 366.947619 267.39242 
L 368.657343 257.488042 
L 372.076792 277.247152 
L 375.496241 277.172683 
L 377.205965 287.002592 
L 378.915689 286.977769 
L 382.335138 306.761702 
L 389.174035 306.761702 
L 394.303208 277.495382 
L 397.722657 277.495382 
L 399.432381 287.39976 
L 402.85183 287.374937 
L 407.981003 257.612157 
L 414.8199 257.612157 
L 416.529624 267.491712 
L 425.078246 267.491712 
L 426.78797 277.371267 
L 431.917143 277.346444 
L 433.626867 267.466889 
L 437.046316 287.250822 
L 438.75604 277.321621 
L 440.465764 277.321621 
L 443.885213 297.105554 
L 445.594937 287.325291 
L 449.014386 287.350114 
L 450.72411 277.420913 
L 454.143559 277.420913 
L 457.563008 257.612157 
L 459.272732 267.417243 
L 462.69218 267.069721 
L 464.401905 267.069721 
L 469.531078 237.455879 
L 472.950526 237.579994 
L 474.660251 237.62964 
L 476.369975 247.558841 
L 478.079699 237.704109 
L 481.499148 237.828224 
L 483.208872 237.927516 
L 484.918596 228.023138 
L 491.757494 228.023138 
L 493.467218 218.11876 
L 498.596391 218.143583 
L 500.306115 208.288851 
L 502.01584 208.338497 
L 505.435288 188.629033 
L 507.145013 198.558234 
L 512.274185 168.894746 
L 513.98391 178.675009 
L 515.693634 178.724655 
L 517.403358 168.869923 
L 522.532531 168.894746 
L 525.95198 188.703502 
L 527.661704 178.774301 
L 531.081153 198.583057 
L 536.210326 198.533411 
L 537.92005 208.388143 
L 541.339499 208.338497 
L 543.049223 208.36332 
L 544.758947 198.483765 
L 555.017293 198.434119 
L 560.146466 198.434119 
L 561.85619 208.338497 
L 563.565915 198.458942 
L 565.275639 208.313674 
L 566.985363 208.313674 
L 568.695088 218.168406 
L 570.404812 218.069114 
L 572.114536 218.168406 
L 573.824261 218.11876 
L 575.533985 208.264028 
L 578.953434 208.313674 
L 580.663158 208.288851 
L 582.372882 198.35965 
L 584.082607 208.164736 
L 585.792331 208.090267 
L 589.211779 208.164736 
L 594.340952 208.164736 
L 596.050677 218.093937 
L 599.470125 198.434119 
L 608.018747 198.508588 
L 611.438195 198.533411 
L 616.567368 198.508588 
L 618.277093 208.338497 
L 619.986817 208.388143 
L 623.406266 208.313674 
L 631.954887 208.313674 
L 637.08406 178.650186 
L 638.793784 178.675009 
L 640.503509 178.575717 
L 642.213233 188.430449 
L 645.632682 188.380803 
L 650.761855 188.60421 
L 652.471579 178.724655 
L 655.891028 178.774301 
L 664.439649 178.774301 
L 667.859098 198.434119 
L 669.568822 198.434119 
L 671.278546 208.36332 
L 674.697995 208.288851 
L 676.407719 218.11876 
L 678.117444 218.019468 
L 684.956341 257.537688 
L 686.666065 247.682956 
L 688.375789 257.512865 
L 696.924411 257.537688 
L 698.634135 247.782248 
L 702.053584 267.566181 
L 708.892481 267.591004 
L 710.602206 257.711449 
L 715.731378 257.686626 
L 717.441103 257.537688 
L 719.150827 267.39242 
L 724.28 267.417243 
L 724.28 267.417243 
" style="fill:none;stroke:#ff7f0e;stroke-linecap:square;stroke-width:1.5;"/>
   </g>
   <g id="line2d_19">
    <path clip-path="url(#p7a50669a23)" d="M 108.779248 68.709109 
L 110.488972 73.84747 
L 112.198697 74.294284 
L 113.908421 74.542514 
L 115.618145 74.319107 
L 119.037594 74.641806 
L 120.747318 74.492868 
L 122.457043 76.900699 
L 124.166767 77.521274 
L 125.876491 77.521274 
L 127.586216 77.81915 
L 129.29594 76.900699 
L 131.005664 81.12061 
L 132.715388 80.177336 
L 134.425113 77.372336 
L 136.134837 77.57092 
L 137.844561 80.400743 
L 139.554286 81.815654 
L 141.26401 82.212822 
L 144.683459 82.212822 
L 146.393183 91.744855 
L 148.102907 91.422156 
L 149.812632 90.677466 
L 153.23208 90.329944 
L 154.941805 90.826404 
L 158.361253 90.528528 
L 160.070977 90.62782 
L 161.780702 90.528528 
L 163.490426 89.461139 
L 165.20015 89.808661 
L 166.909875 89.88313 
L 168.619599 88.592333 
L 170.329323 88.716448 
L 172.039048 88.592333 
L 173.748772 89.88313 
L 175.458496 89.560431 
L 177.168221 89.907953 
L 178.877945 83.10645 
L 180.587669 83.478795 
L 182.297393 82.237645 
L 185.716842 81.517778 
L 187.426566 83.131273 
L 189.136291 82.883043 
L 190.846015 84.024901 
L 192.555739 84.173839 
L 194.265464 84.049724 
L 195.975188 85.241228 
L 197.684912 85.266051 
L 199.394637 80.773088 
L 201.104361 81.716362 
L 202.814085 82.287291 
L 204.52381 83.205742 
L 206.233534 80.475212 
L 207.943258 79.333354 
L 211.362707 79.780168 
L 214.782155 60.318934 
L 218.201604 60.269288 
L 219.911328 62.726765 
L 221.621053 62.999818 
L 223.330777 62.205482 
L 225.040501 63.223225 
L 226.750226 65.159419 
L 231.879398 65.035304 
L 233.589123 65.109773 
L 235.298847 66.350923 
L 237.008571 66.623976 
L 240.42802 65.854463 
L 242.137744 64.439552 
L 243.847469 64.240968 
L 245.557193 63.694862 
L 247.266917 63.769331 
L 248.976642 62.776411 
L 250.686366 63.148756 
L 254.105815 63.496278 
L 255.815539 61.758668 
L 257.525263 61.833137 
L 259.234987 58.457208 
L 260.944712 57.489111 
L 262.654436 57.489111 
L 264.36416 55.776324 
L 266.073885 55.801147 
L 267.783609 56.471368 
L 269.493333 55.279864 
L 271.203058 54.758581 
L 272.912782 53.914599 
L 274.622506 53.815307 
L 276.332231 54.311767 
L 278.041955 52.673449 
L 279.751679 52.84721 
L 284.880852 82.237645 
L 286.590576 82.312114 
L 288.300301 80.400743 
L 290.010025 80.773088 
L 291.719749 80.599327 
L 293.429474 79.283708 
L 295.139198 77.421982 
L 296.848922 77.397159 
L 298.558647 78.638309 
L 300.268371 78.936186 
L 303.68782 78.539017 
L 305.397544 78.712779 
L 307.107268 79.209239 
L 308.816992 82.163176 
L 310.526717 82.436229 
L 312.236441 82.11353 
L 313.946165 82.60999 
L 315.65589 83.85114 
L 317.365614 84.372423 
L 320.785063 83.528441 
L 322.494787 85.489458 
L 324.204511 86.258971 
L 327.62396 86.209325 
L 329.333684 86.755431 
L 331.043409 86.780254 
L 332.753133 86.532024 
L 334.462857 87.351183 
L 336.172581 86.110033 
L 337.882306 87.400829 
L 339.59203 87.500121 
L 341.301754 87.227068 
L 343.011479 87.847643 
L 344.721203 87.102953 
L 346.430927 87.07813 
L 348.140652 86.854723 
L 351.5601 86.854723 
L 353.269825 78.613486 
L 354.979549 79.010655 
L 356.689273 81.393663 
L 358.398997 80.822734 
L 360.108722 81.095787 
L 361.818446 83.305034 
L 365.237895 83.751848 
L 366.947619 89.361847 
L 368.657343 89.13844 
L 370.367068 91.074634 
L 372.076792 92.216492 
L 373.786516 91.744855 
L 375.496241 91.446979 
L 377.205965 89.982422 
L 378.915689 89.957599 
L 380.625414 90.404413 
L 382.335138 89.982422 
L 384.044862 98.57118 
L 385.754586 98.049897 
L 387.464311 98.025074 
L 389.174035 99.464809 
L 390.883759 97.652729 
L 392.593484 97.032154 
L 394.303208 97.007331 
L 396.012932 97.156269 
L 397.722657 96.709455 
L 399.432381 96.684632 
L 401.142105 97.007331 
L 402.85183 98.049897 
L 404.561554 97.975428 
L 406.271278 96.734278 
L 407.981003 96.486048 
L 409.690727 97.0818 
L 411.400451 96.486048 
L 416.529624 96.411579 
L 418.239348 88.145519 
L 419.949073 78.265964 
L 421.658797 76.652469 
L 423.368521 76.180832 
L 425.078246 75.83331 
L 426.78797 85.688042 
L 428.497694 86.258971 
L 430.207419 84.049724 
L 431.917143 85.117113 
L 433.626867 85.712865 
L 435.336591 78.861717 
L 437.046316 82.039061 
L 440.465764 77.521274 
L 442.175489 77.769504 
L 443.885213 79.308531 
L 445.594937 78.588663 
L 447.304662 79.432646 
L 449.014386 82.932689 
L 450.72411 82.85822 
L 452.433835 79.333354 
L 454.143559 79.457469 
L 455.853283 79.432646 
L 457.563008 77.992911 
L 459.272732 77.719858 
L 460.982456 77.943265 
L 467.821353 77.595743 
L 469.531078 78.191495 
L 471.240802 76.578 
L 472.950526 76.602823 
L 474.660251 77.148929 
L 476.369975 77.248221 
L 478.079699 76.82623 
L 479.789424 76.925522 
L 481.499148 77.297867 
L 484.918596 77.695035 
L 486.628321 76.230478 
L 488.338045 76.627646 
L 490.047769 81.170256 
L 491.757494 85.290874 
L 493.467218 82.535521 
L 495.176942 72.978665 
L 496.886667 75.038974 
L 498.596391 75.287204 
L 500.306115 74.170169 
L 502.01584 74.716275 
L 503.725564 74.716275 
L 505.435288 75.038974 
L 507.145013 75.237558 
L 508.854737 76.08154 
L 510.564461 76.354593 
L 512.274185 75.212735 
L 513.98391 74.989328 
L 515.693634 77.049637 
L 517.403358 75.262381 
L 519.113083 75.33685 
L 520.822807 78.861717 
L 527.661704 118.230998 
L 529.371429 117.883476 
L 531.081153 118.032414 
L 532.790877 118.032414 
L 534.500602 118.33029 
L 536.210326 118.33029 
L 537.92005 117.411839 
L 539.629774 117.238078 
L 541.339499 117.287724 
L 543.049223 117.933122 
L 544.758947 117.933122 
L 546.468672 117.809007 
L 548.178396 118.007591 
L 549.88812 118.454405 
L 553.307569 118.106883 
L 555.017293 118.255821 
L 556.727018 118.057237 
L 560.146466 109.64224 
L 563.565915 109.567771 
L 565.275639 106.961355 
L 566.985363 107.184762 
L 568.695088 107.159939 
L 570.404812 105.819497 
L 572.114536 108.152859 
L 573.824261 105.869143 
L 575.533985 105.968435 
L 577.243709 105.521621 
L 578.953434 104.901046 
L 580.663158 104.429409 
L 582.372882 103.833657 
L 584.082607 100.730782 
L 585.792331 98.57118 
L 587.502055 98.496711 
L 589.211779 89.684546 
L 590.921504 81.840477 
L 596.050677 52.325927 
L 597.760401 52.375573 
L 599.470125 53.120263 
L 601.17985 53.09544 
L 602.889574 52.797564 
L 606.309023 55.652209 
L 609.728471 57.712518 
L 611.438195 58.357916 
L 613.14792 58.581324 
L 616.567368 58.581324 
L 618.277093 58.8792 
L 619.986817 59.003315 
L 621.696541 60.61681 
L 623.406266 60.840217 
L 625.11599 62.155836 
L 626.825714 63.992738 
L 628.535439 64.712605 
L 630.245163 64.762251 
L 635.374336 64.315437 
L 637.08406 64.687782 
L 638.793784 64.712605 
L 640.503509 62.379243 
L 642.213233 62.974995 
L 643.922957 62.776411 
L 645.632682 63.645216 
L 647.342406 63.694862 
L 649.05213 64.389906 
L 650.761855 66.053047 
L 652.471579 66.102693 
L 654.181303 69.37933 
L 655.891028 70.968002 
L 657.600752 70.198489 
L 659.310476 68.584993 
L 661.020201 70.12402 
L 662.729925 72.233975 
L 664.439649 73.077957 
L 666.149373 73.326187 
L 667.859098 72.655966 
L 669.568822 72.531851 
L 671.278546 73.077957 
L 672.988271 71.638223 
L 674.697995 70.893533 
L 676.407719 70.496365 
L 678.117444 69.404153 
L 679.827168 67.989241 
L 681.536892 67.964418 
L 683.246617 68.659463 
L 684.956341 68.411232 
L 686.666065 71.017648 
L 688.375789 71.265878 
L 690.085514 69.602737 
L 691.795238 69.255215 
L 693.504962 68.460878 
L 695.214687 66.425392 
L 696.924411 65.904109 
L 700.34386 66.276454 
L 702.053584 66.921852 
L 703.763308 66.847383 
L 705.473033 66.499861 
L 708.892481 66.475038 
L 710.602206 64.514021 
L 712.31193 65.382826 
L 714.021654 64.389906 
L 715.731378 64.439552 
L 717.441103 63.620393 
L 719.150827 61.957252 
L 720.860551 62.180659 
L 722.570276 59.326014 
L 724.28 57.762164 
L 724.28 57.762164 
" style="fill:none;stroke:#2ca02c;stroke-linecap:square;stroke-width:1.5;"/>
   </g>
   <g id="line2d_20">
    <path clip-path="url(#p7a50669a23)" d="M 108.779248 64.389906 
L 110.488972 62.776411 
L 112.198697 65.010481 
L 113.908421 63.967915 
L 115.618145 63.198402 
L 117.32787 64.489198 
L 119.037594 69.056631 
L 120.747318 69.354507 
L 122.457043 71.042471 
L 125.876491 70.918356 
L 127.586216 70.496365 
L 129.29594 69.577914 
L 131.005664 68.833224 
L 132.715388 67.914772 
L 134.425113 66.425392 
L 136.134837 66.599153 
L 137.844561 67.492781 
L 139.554286 67.517604 
L 141.26401 67.865126 
L 144.683459 67.865126 
L 154.941805 125.206262 
L 156.651529 125.206262 
L 158.361253 125.429669 
L 161.780702 125.578607 
L 163.490426 125.404846 
L 165.20015 125.677899 
L 168.619599 125.677899 
L 170.329323 125.404846 
L 172.039048 125.479315 
L 173.748772 125.950952 
L 177.168221 125.777191 
L 178.877945 126.59635 
L 180.587669 124.238165 
L 184.007118 124.585687 
L 185.716842 123.096307 
L 187.426566 118.652989 
L 189.136291 118.752281 
L 190.846015 119.968609 
L 192.555739 120.266485 
L 194.265464 120.167193 
L 195.975188 120.340954 
L 199.394637 120.415423 
L 201.104361 121.284228 
L 202.814085 120.092724 
L 204.52381 120.067901 
L 206.233534 119.372857 
L 207.943258 122.798431 
L 209.652982 121.780688 
L 211.362707 123.145953 
L 219.911328 74.244638 
L 223.330777 55.751501 
L 225.040501 55.453625 
L 226.750226 55.528094 
L 231.879398 55.255041 
L 233.589123 54.981988 
L 235.298847 55.006811 
L 237.008571 56.024554 
L 240.42802 55.900439 
L 242.137744 55.354333 
L 243.847469 55.528094 
L 245.557193 55.503271 
L 247.266917 54.609643 
L 248.976642 54.58482 
L 252.39609 54.311767 
L 255.815539 54.386236 
L 257.525263 53.616723 
L 259.234987 51.333007 
L 262.654436 51.407476 
L 264.36416 51.283361 
L 266.073885 51.35783 
L 267.783609 51.184069 
L 269.493333 50.042211 
L 271.203058 50.265618 
L 274.622506 49.942919 
L 276.332231 46.517344 
L 278.041955 46.194645 
L 279.751679 44.854203 
L 284.880852 74.567337 
L 288.300301 74.59216 
L 290.010025 76.08154 
L 291.719749 75.287204 
L 296.848922 75.237558 
L 298.558647 76.851053 
L 300.268371 77.397159 
L 301.978095 77.769504 
L 303.68782 77.744681 
L 305.397544 77.32269 
L 307.107268 78.06738 
L 308.816992 78.216318 
L 310.526717 79.63123 
L 312.236441 79.432646 
L 313.946165 80.226982 
L 315.65589 84.670299 
L 320.785063 84.744768 
L 322.494787 85.514281 
L 324.204511 86.035564 
L 325.914236 86.060387 
L 327.62396 85.886626 
L 329.333684 87.152599 
L 331.043409 87.177422 
L 334.462857 87.07813 
L 336.172581 87.773174 
L 337.882306 87.773174 
L 341.301754 87.624236 
L 343.011479 87.748351 
L 346.430927 87.723528 
L 348.140652 88.244811 
L 349.850376 80.648973 
L 351.5601 70.992825 
L 353.269825 65.631056 
L 354.979549 65.655879 
L 356.689273 68.460878 
L 358.398997 66.499861 
L 360.108722 66.648799 
L 361.818446 67.790657 
L 363.52817 67.691365 
L 365.237895 67.840303 
L 366.947619 66.301277 
L 368.657343 65.730348 
L 370.367068 67.691365 
L 372.076792 77.546097 
L 373.786516 77.148929 
L 375.496241 76.429062 
L 377.205965 76.751761 
L 378.915689 75.510611 
L 380.625414 75.58508 
L 382.335138 74.815567 
L 384.044862 80.301451 
L 389.174035 109.64224 
L 390.883759 108.872726 
L 392.593484 109.021664 
L 394.303208 109.940116 
L 396.012932 109.518125 
L 397.722657 107.730868 
L 402.85183 107.706045 
L 404.561554 106.961355 
L 406.271278 107.060647 
L 407.981003 106.737948 
L 411.400451 106.936532 
L 414.8199 106.936532 
L 416.529624 106.564187 
L 418.239348 114.160026 
L 419.949073 114.383433 
L 421.658797 109.865647 
L 423.368521 109.840824 
L 425.078246 110.908213 
L 426.78797 113.042991 
L 428.497694 112.943699 
L 430.207419 111.801841 
L 431.917143 113.564274 
L 433.626867 113.464982 
L 435.336591 113.812504 
L 437.046316 118.057237 
L 438.75604 115.649406 
L 440.465764 105.720205 
L 442.175489 105.521621 
L 443.885213 111.950779 
L 447.304662 111.652903 
L 449.014386 114.060734 
L 450.72411 114.035911 
L 452.433835 105.819497 
L 457.563008 76.578 
L 459.272732 76.578 
L 460.982456 76.131186 
L 462.69218 75.138266 
L 476.369975 75.063797 
L 479.789424 74.765921 
L 481.499148 74.890036 
L 483.208872 75.312027 
L 484.918596 75.163089 
L 486.628321 66.772914 
L 488.338045 66.996321 
L 490.047769 67.393489 
L 491.757494 67.914772 
L 493.467218 67.865126 
L 495.176942 65.680702 
L 496.886667 67.244551 
L 498.596391 68.187825 
L 500.306115 66.623976 
L 502.01584 68.06371 
L 503.725564 67.641719 
L 505.435288 65.655879 
L 508.854737 65.804817 
L 510.564461 65.804817 
L 512.274185 59.847297 
L 513.98391 60.840217 
L 515.693634 61.659376 
L 517.403358 59.896943 
L 519.113083 59.996235 
L 520.822807 58.357916 
L 524.242256 57.985571 
L 525.95198 58.407562 
L 527.661704 58.531678 
L 529.371429 58.134509 
L 536.210326 58.30827 
L 539.629774 58.159332 
L 541.339499 58.953669 
L 544.758947 61.088447 
L 546.468672 61.063624 
L 549.88812 63.421809 
L 551.597845 62.974995 
L 553.307569 63.148756 
L 555.017293 61.634553 
L 556.727018 60.989155 
L 558.436742 60.939509 
L 560.146466 60.418226 
L 561.85619 56.049377 
L 563.565915 56.297607 
L 565.275639 60.36858 
L 566.985363 60.343757 
L 568.695088 60.145173 
L 570.404812 58.655793 
L 572.114536 59.673536 
L 573.824261 57.464288 
L 575.533985 57.389819 
L 577.243709 57.588403 
L 578.953434 57.56358 
L 580.663158 59.276368 
L 582.372882 57.985571 
L 584.082607 57.141589 
L 585.792331 56.421722 
L 587.502055 56.32243 
L 589.211779 57.364996 
L 592.631228 57.290527 
L 594.340952 56.992651 
L 596.050677 57.836633 
L 597.760401 60.194819 
L 599.470125 60.269288 
L 601.17985 60.964332 
L 602.889574 60.840217 
L 604.599298 61.659376 
L 606.309023 61.733845 
L 608.018747 62.230305 
L 609.728471 62.056544 
L 611.438195 62.031721 
L 613.14792 61.038801 
L 614.857644 61.882783 
L 616.567368 61.237385 
L 618.277093 61.11327 
L 619.986817 61.411146 
L 621.696541 61.287031 
L 623.406266 63.074287 
L 625.11599 70.148843 
L 626.825714 71.166586 
L 628.535439 71.241055 
L 630.245163 71.141763 
L 631.954887 70.893533 
L 633.664612 65.233888 
L 635.374336 64.538844 
L 637.08406 64.34026 
L 638.793784 64.365083 
L 640.503509 63.34734 
L 642.213233 64.414729 
L 643.922957 64.389906 
L 645.632682 64.662959 
L 647.342406 65.978578 
L 649.05213 65.482118 
L 650.761855 68.138179 
L 652.471579 68.212648 
L 654.181303 68.932516 
L 655.891028 69.1311 
L 657.600752 71.911276 
L 659.310476 72.209152 
L 661.020201 72.233975 
L 662.729925 72.60632 
L 664.439649 72.134683 
L 666.149373 69.850967 
L 667.859098 70.546011 
L 669.568822 70.297781 
L 671.278546 70.968002 
L 672.988271 70.148843 
L 674.697995 70.223312 
L 676.407719 70.446719 
L 678.117444 69.751675 
L 679.827168 68.808401 
L 681.536892 68.932516 
L 683.246617 68.31194 
L 684.956341 67.81548 
L 686.666065 66.996321 
L 688.375789 66.772914 
L 690.085514 66.82256 
L 691.795238 65.308357 
L 693.504962 58.333093 
L 695.214687 57.116766 
L 696.924411 57.141589 
L 698.634135 58.084863 
L 700.34386 58.084863 
L 702.053584 59.301191 
L 708.892481 59.400483 
L 710.602206 58.8792 
L 712.31193 59.201899 
L 714.021654 59.003315 
L 715.731378 57.737341 
L 717.441103 56.024554 
L 719.150827 53.368493 
L 720.860551 53.418139 
L 722.570276 52.723095 
L 724.28 52.623803 
L 724.28 52.623803 
" style="fill:none;stroke:#d62728;stroke-linecap:square;stroke-width:1.5;"/>
   </g>
   <g id="line2d_21">
    <path clip-path="url(#p7a50669a23)" d="M 108.779248 97.379676 
L 110.488972 101.475472 
L 112.198697 101.351357 
L 113.908421 100.333614 
L 115.618145 99.564101 
L 117.32787 99.39034 
L 119.037594 99.489632 
L 120.747318 99.464809 
L 122.457043 99.588924 
L 124.166767 99.39034 
L 127.586216 99.365517 
L 129.29594 98.869056 
L 131.005664 99.216579 
L 132.715388 99.216579 
L 134.425113 108.351443 
L 137.844561 128.08573 
L 139.554286 128.110553 
L 141.26401 137.965285 
L 148.102907 137.965285 
L 151.522356 118.230998 
L 153.23208 117.784184 
L 154.941805 117.734538 
L 156.651529 117.064317 
L 158.361253 117.33737 
L 160.070977 117.387016 
L 161.780702 117.83383 
L 163.490426 118.007591 
L 173.748772 117.660069 
L 177.168221 117.560777 
L 178.877945 114.805424 
L 180.587669 114.805424 
L 182.297393 115.301884 
L 187.426566 115.425999 
L 190.846015 115.252238 
L 194.265464 115.252238 
L 195.975188 115.078477 
L 197.684912 115.1033 
L 199.394637 114.681309 
L 201.104361 115.84799 
L 206.233534 86.532024 
L 207.943258 86.606493 
L 209.652982 77.273044 
L 211.362707 77.719858 
L 216.49188 48.031547 
L 226.750226 47.957078 
L 228.45995 47.981901 
L 230.169674 47.460618 
L 238.718296 47.31168 
L 245.557193 47.212388 
L 247.266917 54.113183 
L 252.39609 82.957512 
L 254.105815 82.982335 
L 255.815539 82.85822 
L 257.525263 82.982335 
L 267.783609 82.982335 
L 269.493333 81.641893 
L 276.332231 81.244725 
L 279.751679 80.400743 
L 284.880852 110.089054 
L 290.010025 110.163523 
L 291.719749 110.014585 
L 296.848922 109.989762 
L 298.558647 110.511045 
L 300.268371 110.362107 
L 305.397544 110.337284 
L 307.107268 111.975602 
L 313.946165 112.248655 
L 315.65589 107.805337 
L 320.785063 78.414902 
L 322.494787 78.737602 
L 324.204511 78.911363 
L 325.914236 78.961009 
L 327.62396 79.258885 
L 337.882306 79.109947 
L 339.59203 79.383 
L 348.140652 79.258885 
L 351.5601 60.244465 
L 353.269825 53.84013 
L 354.979549 54.262121 
L 356.689273 56.868536 
L 358.398997 58.531678 
L 360.108722 58.730262 
L 361.818446 64.414729 
L 363.52817 65.134596 
L 365.237895 65.33318 
L 366.947619 64.83672 
L 368.657343 64.687782 
L 370.367068 65.258711 
L 372.076792 67.021144 
L 373.786516 66.996321 
L 375.496241 65.382826 
L 382.335138 65.482118 
L 384.044862 69.925436 
L 392.593484 118.57852 
L 394.303208 119.348034 
L 396.012932 119.000511 
L 402.85183 119.025334 
L 406.271278 118.950865 
L 407.981003 118.57852 
L 411.400451 118.801927 
L 414.8199 118.801927 
L 416.529624 118.926042 
L 418.239348 128.135376 
L 419.949073 132.13188 
L 421.658797 128.706305 
L 423.368521 128.309137 
L 425.078246 126.248828 
L 426.78797 124.908386 
L 428.497694 124.759448 
L 430.207419 119.174273 
L 431.917143 118.57852 
L 433.626867 118.429582 
L 435.336591 118.454405 
L 437.046316 119.248742 
L 438.75604 118.603343 
L 440.465764 116.940202 
L 442.175489 116.890556 
L 443.885213 120.787768 
L 445.594937 121.284228 
L 447.304662 121.309051 
L 449.014386 124.61051 
L 450.72411 124.585687 
L 452.433835 116.294804 
L 460.982456 66.946675 
L 462.69218 65.978578 
L 476.369975 65.978578 
L 479.789424 65.730348 
L 483.208872 65.904109 
L 484.918596 65.755171 
L 486.628321 56.496191 
L 488.338045 52.574157 
L 490.047769 53.666369 
L 491.757494 53.964245 
L 493.467218 53.418139 
L 495.176942 52.996148 
L 498.596391 53.020971 
L 500.306115 52.822387 
L 502.01584 53.120263 
L 503.725564 53.070617 
L 505.435288 52.84721 
L 507.145013 52.971325 
L 508.854737 53.244378 
L 510.564461 53.393316 
L 512.274185 49.595397 
L 513.98391 49.098937 
L 515.693634 49.396813 
L 517.403358 45.946415 
L 519.113083 45.996061 
L 520.822807 44.382566 
L 522.532531 44.432212 
L 524.242256 44.283274 
L 525.95198 44.804557 
L 527.661704 44.779734 
L 531.081153 45.003141 
L 536.210326 45.07761 
L 537.92005 45.127256 
L 541.339499 45.052787 
L 544.758947 45.301017 
L 548.178396 45.32584 
L 549.88812 45.598893 
L 551.597845 45.524424 
L 553.307569 45.598893 
L 555.017293 44.928672 
L 556.727018 46.393229 
L 558.436742 45.648539 
L 560.146466 45.276194 
L 563.565915 45.425132 
L 565.275639 46.095353 
L 566.985363 46.368406 
L 568.695088 46.418052 
L 570.404812 46.07053 
L 572.114536 47.038627 
L 575.533985 46.964158 
L 577.243709 56.496191 
L 578.953434 56.32243 
L 582.372882 75.882956 
L 584.082607 75.609903 
L 585.792331 75.535434 
L 589.211779 95.319367 
L 590.921504 97.230738 
L 592.631228 97.230738 
L 594.340952 96.759101 
L 596.050677 96.858393 
L 597.760401 96.684632 
L 599.470125 96.858393 
L 601.17985 97.205915 
L 602.889574 97.131446 
L 609.728471 97.379676 
L 616.567368 97.429322 
L 618.277093 97.57826 
L 619.986817 97.851313 
L 621.696541 97.776844 
L 623.406266 98.670472 
L 625.11599 97.478968 
L 626.825714 97.106623 
L 628.535439 97.181092 
L 631.954887 97.0818 
L 633.664612 96.361933 
L 637.08406 95.766181 
L 638.793784 95.791004 
L 640.503509 94.822907 
L 642.213233 95.195252 
L 643.922957 95.170429 
L 645.632682 86.854723 
L 647.342406 86.904369 
L 649.05213 77.273044 
L 650.761855 68.833224 
L 652.471579 68.808401 
L 654.181303 69.751675 
L 657.600752 50.166326 
L 659.310476 48.528008 
L 661.020201 48.552831 
L 662.729925 49.520928 
L 664.439649 49.992565 
L 666.149373 51.035131 
L 669.568822 50.538671 
L 671.278546 50.737255 
L 672.988271 50.662786 
L 676.407719 51.258538 
L 678.117444 51.084777 
L 684.956341 51.581237 
L 686.666065 51.1096 
L 688.375789 50.911016 
L 690.085514 50.935839 
L 691.795238 54.063537 
L 693.504962 54.460705 
L 698.634135 54.485528 
L 700.34386 55.006811 
L 705.473033 55.130926 
L 708.892481 55.106103 
L 710.602206 54.237298 
L 712.31193 54.187652 
L 714.021654 52.648626 
L 715.731378 52.623803 
L 717.441103 52.325927 
L 719.150827 50.836547 
L 720.860551 50.836547 
L 722.570276 49.918096 
L 724.28 49.86845 
L 724.28 49.86845 
" style="fill:none;stroke:#9467bd;stroke-linecap:square;stroke-width:1.5;"/>
   </g>
   <g id="line2d_22">
    <path clip-path="url(#p7a50669a23)" d="M 108.779248 46.988981 
L 110.488972 46.194645 
L 115.618145 75.138266 
L 119.037594 74.616983 
L 120.747318 84.471715 
L 122.457043 84.645476 
L 125.876491 104.35494 
L 129.29594 103.932949 
L 131.005664 104.081887 
L 132.715388 103.61025 
L 134.425113 103.510958 
L 137.844561 104.181179 
L 139.554286 104.206002 
L 141.26401 104.379763 
L 142.973734 104.330117 
L 153.23208 162.540058 
L 160.070977 200.767482 
L 177.168221 298.942456 
L 178.877945 307.978029 
L 184.007118 307.978029 
L 187.426566 327.761962 
L 189.136291 327.761962 
L 190.846015 337.517402 
L 194.265464 337.517402 
L 202.814085 386.716593 
L 206.233534 386.096018 
L 207.943258 386.518009 
L 209.652982 386.617301 
L 211.362707 386.94 
L 214.782155 367.652527 
L 230.169674 278.910293 
L 237.008571 239.61548 
L 247.266917 180.189213 
L 248.976642 171.302578 
L 271.203058 43.910929 
L 274.622506 43.985398 
L 276.332231 43.613053 
L 278.041955 43.538584 
L 279.751679 43.34 
L 283.171128 43.83646 
L 286.590576 43.910929 
L 290.010025 43.935752 
L 291.719749 43.712345 
L 296.848922 43.737168 
L 298.558647 44.233628 
L 305.397544 44.208805 
L 307.107268 44.754911 
L 310.526717 45.027964 
L 312.236441 44.978318 
L 313.946165 45.052787 
L 315.65589 47.212388 
L 317.365614 46.244291 
L 319.075338 46.219468 
L 320.785063 45.921592 
L 322.494787 46.045707 
L 325.914236 45.971238 
L 329.333684 45.871946 
L 336.172581 45.673362 
L 339.59203 45.698185 
L 344.721203 45.549247 
L 346.430927 45.276194 
L 348.140652 45.301017 
L 349.850376 50.215972 
L 351.5601 50.11668 
L 353.269825 59.971412 
L 354.979549 60.145173 
L 356.689273 70.049551 
L 358.398997 69.999905 
L 360.108722 70.074374 
L 361.818446 70.421896 
L 363.52817 70.322604 
L 365.237895 70.471542 
L 366.947619 69.999905 
L 368.657343 69.826144 
L 370.367068 79.680876 
L 372.076792 80.12769 
L 373.786516 80.226982 
L 375.496241 79.829814 
L 380.625414 79.755345 
L 382.335138 79.705699 
L 384.044862 87.425652 
L 389.174035 87.351183 
L 390.883759 87.053307 
L 392.593484 87.227068 
L 396.012932 87.07813 
L 402.85183 87.649059 
L 411.400451 87.698705 
L 416.529624 87.57459 
L 418.239348 83.950432 
L 419.949073 83.900786 
L 421.658797 74.021231 
L 423.368521 73.84747 
L 425.078246 64.985658 
L 428.497694 65.382826 
L 430.207419 65.035304 
L 431.917143 65.308357 
L 435.336591 65.184242 
L 437.046316 65.33318 
L 438.75604 55.403979 
L 440.465764 54.932342 
L 442.175489 54.783404 
L 443.885213 55.056457 
L 445.594937 55.056457 
L 449.014386 55.403979 
L 450.72411 55.379156 
L 452.433835 47.981901 
L 455.853283 48.031547 
L 457.563008 47.981901 
L 459.272732 48.180485 
L 460.982456 47.981901 
L 466.111629 47.708848 
L 467.821353 47.485441 
L 471.240802 47.584733 
L 474.660251 47.510264 
L 483.208872 47.435795 
L 484.918596 47.55991 
L 486.628321 46.31876 
L 488.338045 46.31876 
L 491.757494 46.988981 
L 493.467218 45.946415 
L 495.176942 45.747831 
L 496.886667 46.07053 
L 498.596391 46.219468 
L 500.306115 45.996061 
L 502.01584 47.113096 
L 505.435288 47.137919 
L 507.145013 47.361326 
L 510.564461 47.386149 
L 512.274185 47.262034 
L 513.98391 47.410972 
L 517.403358 47.31168 
L 519.113083 47.510264 
L 520.822807 54.907519 
L 524.242256 74.641806 
L 525.95198 74.939682 
L 527.661704 74.716275 
L 531.081153 74.716275 
L 536.210326 74.765921 
L 539.629774 74.393576 
L 553.307569 74.517691 
L 555.017293 73.673709 
L 556.727018 75.560257 
L 558.436742 75.535434 
L 560.146466 75.212735 
L 561.85619 75.312027 
L 563.565915 75.634726 
L 565.275639 75.560257 
L 566.985363 75.634726 
L 568.695088 75.560257 
L 570.404812 74.393576 
L 572.114536 74.517691 
L 575.533985 74.418399 
L 578.953434 74.468045 
L 580.663158 74.368753 
L 582.372882 74.0957 
L 587.502055 73.648886 
L 592.631228 44.183982 
L 594.340952 43.985398 
L 599.470125 44.233628 
L 601.17985 44.357743 
L 602.889574 44.308097 
L 611.438195 44.655619 
L 613.14792 44.903849 
L 614.857644 45.8223 
L 616.567368 45.971238 
L 618.277093 45.996061 
L 619.986817 46.31876 
L 621.696541 46.144999 
L 623.406266 56.0742 
L 625.11599 63.992738 
L 630.245163 93.283881 
L 635.374336 121.954449 
L 637.08406 121.805511 
L 638.793784 121.830334 
L 642.213233 141.39086 
L 643.922957 141.217099 
L 645.632682 151.047008 
L 655.891028 151.717229 
L 657.600752 156.309484 
L 659.310476 156.657006 
L 662.729925 156.756298 
L 664.439649 156.954882 
L 666.149373 157.004528 
L 667.859098 156.85559 
L 669.568822 156.880413 
L 671.278546 157.252758 
L 672.988271 157.178289 
L 674.697995 157.277581 
L 676.407719 157.500988 
L 681.536892 157.10382 
L 683.246617 156.259838 
L 686.666065 156.235015 
L 688.375789 156.011608 
L 690.085514 156.036431 
L 691.795238 147.944132 
L 702.053584 89.907953 
L 703.763308 80.028398 
L 707.182757 80.078044 
L 710.602206 60.443049 
L 712.31193 60.492695 
L 714.021654 50.637963 
L 715.731378 50.538671 
L 717.441103 50.141503 
L 720.860551 50.091857 
L 724.28 49.942919 
L 724.28 49.942919 
" style="fill:none;stroke:#8c564b;stroke-linecap:square;stroke-width:1.5;"/>
   </g>
   <g id="patch_3">
    <path d="M 42.1 404.12 
L 42.1 26.16 
" style="fill:none;stroke:#000000;stroke-linecap:square;stroke-linejoin:miter;stroke-width:0.8;"/>
   </g>
   <g id="patch_4">
    <path d="M 724.28 404.12 
L 724.28 26.16 
" style="fill:none;stroke:#000000;stroke-linecap:square;stroke-linejoin:miter;stroke-width:0.8;"/>
   </g>
   <g id="patch_5">
    <path d="M 42.1 404.12 
L 724.28 404.12 
" style="fill:none;stroke:#000000;stroke-linecap:square;stroke-linejoin:miter;stroke-width:0.8;"/>
   </g>
   <g id="patch_6">
    <path d="M 42.1 26.16 
L 724.28 26.16 
" style="fill:none;stroke:#000000;stroke-linecap:square;stroke-linejoin:miter;stroke-width:0.8;"/>
   </g>
   <g id="text_17">
    <!-- gridworld_5x5_20_1_20_1337: episode reward, MA=40 -->
    <defs>
     <path d="M 45.40625 27.984375 
Q 45.40625 37.75 41.375 43.109375 
Q 37.359375 48.484375 30.078125 48.484375 
Q 22.859375 48.484375 18.828125 43.109375 
Q 14.796875 37.75 14.796875 27.984375 
Q 14.796875 18.265625 18.828125 12.890625 
Q 22.859375 7.515625 30.078125 7.515625 
Q 37.359375 7.515625 41.375 12.890625 
Q 45.40625 18.265625 45.40625 27.984375 
z
M 54.390625 6.78125 
Q 54.390625 -7.171875 48.1875 -13.984375 
Q 42 -20.796875 29.203125 -20.796875 
Q 24.46875 -20.796875 20.265625 -20.09375 
Q 16.0625 -19.390625 12.109375 -17.921875 
L 12.109375 -9.1875 
Q 16.0625 -11.328125 19.921875 -12.34375 
Q 23.78125 -13.375 27.78125 -13.375 
Q 36.625 -13.375 41.015625 -8.765625 
Q 45.40625 -4.15625 45.40625 5.171875 
L 45.40625 9.625 
Q 42.625 4.78125 38.28125 2.390625 
Q 33.9375 0 27.875 0 
Q 17.828125 0 11.671875 7.65625 
Q 5.515625 15.328125 5.515625 27.984375 
Q 5.515625 40.671875 11.671875 48.328125 
Q 17.828125 56 27.875 56 
Q 33.9375 56 38.28125 53.609375 
Q 42.625 51.21875 45.40625 46.390625 
L 45.40625 54.6875 
L 54.390625 54.6875 
z
" id="DejaVuSans-103"/>
     <path d="M 41.109375 46.296875 
Q 39.59375 47.171875 37.8125 47.578125 
Q 36.03125 48 33.890625 48 
Q 26.265625 48 22.1875 43.046875 
Q 18.109375 38.09375 18.109375 28.8125 
L 18.109375 0 
L 9.078125 0 
L 9.078125 54.6875 
L 18.109375 54.6875 
L 18.109375 46.1875 
Q 20.953125 51.171875 25.484375 53.578125 
Q 30.03125 56 36.53125 56 
Q 37.453125 56 38.578125 55.875 
Q 39.703125 55.765625 41.0625 55.515625 
z
" id="DejaVuSans-114"/>
     <path d="M 9.421875 54.6875 
L 18.40625 54.6875 
L 18.40625 0 
L 9.421875 0 
z
M 9.421875 75.984375 
L 18.40625 75.984375 
L 18.40625 64.59375 
L 9.421875 64.59375 
z
" id="DejaVuSans-105"/>
     <path d="M 45.40625 46.390625 
L 45.40625 75.984375 
L 54.390625 75.984375 
L 54.390625 0 
L 45.40625 0 
L 45.40625 8.203125 
Q 42.578125 3.328125 38.25 0.953125 
Q 33.9375 -1.421875 27.875 -1.421875 
Q 17.96875 -1.421875 11.734375 6.484375 
Q 5.515625 14.40625 5.515625 27.296875 
Q 5.515625 40.1875 11.734375 48.09375 
Q 17.96875 56 27.875 56 
Q 33.9375 56 38.25 53.625 
Q 42.578125 51.265625 45.40625 46.390625 
z
M 14.796875 27.296875 
Q 14.796875 17.390625 18.875 11.75 
Q 22.953125 6.109375 30.078125 6.109375 
Q 37.203125 6.109375 41.296875 11.75 
Q 45.40625 17.390625 45.40625 27.296875 
Q 45.40625 37.203125 41.296875 42.84375 
Q 37.203125 48.484375 30.078125 48.484375 
Q 22.953125 48.484375 18.875 42.84375 
Q 14.796875 37.203125 14.796875 27.296875 
z
" id="DejaVuSans-100"/>
     <path d="M 4.203125 54.6875 
L 13.1875 54.6875 
L 24.421875 12.015625 
L 35.59375 54.6875 
L 46.1875 54.6875 
L 57.421875 12.015625 
L 68.609375 54.6875 
L 77.59375 54.6875 
L 63.28125 0 
L 52.6875 0 
L 40.921875 44.828125 
L 29.109375 0 
L 18.5 0 
z
" id="DejaVuSans-119"/>
     <path d="M 30.609375 48.390625 
Q 23.390625 48.390625 19.1875 42.75 
Q 14.984375 37.109375 14.984375 27.296875 
Q 14.984375 17.484375 19.15625 11.84375 
Q 23.34375 6.203125 30.609375 6.203125 
Q 37.796875 6.203125 41.984375 11.859375 
Q 46.1875 17.53125 46.1875 27.296875 
Q 46.1875 37.015625 41.984375 42.703125 
Q 37.796875 48.390625 30.609375 48.390625 
z
M 30.609375 56 
Q 42.328125 56 49.015625 48.375 
Q 55.71875 40.765625 55.71875 27.296875 
Q 55.71875 13.875 49.015625 6.21875 
Q 42.328125 -1.421875 30.609375 -1.421875 
Q 18.84375 -1.421875 12.171875 6.21875 
Q 5.515625 13.875 5.515625 27.296875 
Q 5.515625 40.765625 12.171875 48.375 
Q 18.84375 56 30.609375 56 
z
" id="DejaVuSans-111"/>
     <path d="M 9.421875 75.984375 
L 18.40625 75.984375 
L 18.40625 0 
L 9.421875 0 
z
" id="DejaVuSans-108"/>
     <path d="M 50.984375 -16.609375 
L 50.984375 -23.578125 
L -0.984375 -23.578125 
L -0.984375 -16.609375 
z
" id="DejaVuSans-95"/>
     <path d="M 54.890625 54.6875 
L 35.109375 28.078125 
L 55.90625 0 
L 45.3125 0 
L 29.390625 21.484375 
L 13.484375 0 
L 2.875 0 
L 24.125 28.609375 
L 4.6875 54.6875 
L 15.28125 54.6875 
L 29.78125 35.203125 
L 44.28125 54.6875 
z
" id="DejaVuSans-120"/>
     <path d="M 8.203125 72.90625 
L 55.078125 72.90625 
L 55.078125 68.703125 
L 28.609375 0 
L 18.3125 0 
L 43.21875 64.59375 
L 8.203125 64.59375 
z
" id="DejaVuSans-55"/>
     <path d="M 11.71875 12.40625 
L 22.015625 12.40625 
L 22.015625 0 
L 11.71875 0 
z
M 11.71875 51.703125 
L 22.015625 51.703125 
L 22.015625 39.3125 
L 11.71875 39.3125 
z
" id="DejaVuSans-58"/>
     <path id="DejaVuSans-32"/>
     <path d="M 56.203125 29.59375 
L 56.203125 25.203125 
L 14.890625 25.203125 
Q 15.484375 15.921875 20.484375 11.0625 
Q 25.484375 6.203125 34.421875 6.203125 
Q 39.59375 6.203125 44.453125 7.46875 
Q 49.3125 8.734375 54.109375 11.28125 
L 54.109375 2.78125 
Q 49.265625 0.734375 44.1875 -0.34375 
Q 39.109375 -1.421875 33.890625 -1.421875 
Q 20.796875 -1.421875 13.15625 6.1875 
Q 5.515625 13.8125 5.515625 26.8125 
Q 5.515625 40.234375 12.765625 48.109375 
Q 20.015625 56 32.328125 56 
Q 43.359375 56 49.78125 48.890625 
Q 56.203125 41.796875 56.203125 29.59375 
z
M 47.21875 32.234375 
Q 47.125 39.59375 43.09375 43.984375 
Q 39.0625 48.390625 32.421875 48.390625 
Q 24.90625 48.390625 20.390625 44.140625 
Q 15.875 39.890625 15.1875 32.171875 
z
" id="DejaVuSans-101"/>
     <path d="M 18.109375 8.203125 
L 18.109375 -20.796875 
L 9.078125 -20.796875 
L 9.078125 54.6875 
L 18.109375 54.6875 
L 18.109375 46.390625 
Q 20.953125 51.265625 25.265625 53.625 
Q 29.59375 56 35.59375 56 
Q 45.5625 56 51.78125 48.09375 
Q 58.015625 40.1875 58.015625 27.296875 
Q 58.015625 14.40625 51.78125 6.484375 
Q 45.5625 -1.421875 35.59375 -1.421875 
Q 29.59375 -1.421875 25.265625 0.953125 
Q 20.953125 3.328125 18.109375 8.203125 
z
M 48.6875 27.296875 
Q 48.6875 37.203125 44.609375 42.84375 
Q 40.53125 48.484375 33.40625 48.484375 
Q 26.265625 48.484375 22.1875 42.84375 
Q 18.109375 37.203125 18.109375 27.296875 
Q 18.109375 17.390625 22.1875 11.75 
Q 26.265625 6.109375 33.40625 6.109375 
Q 40.53125 6.109375 44.609375 11.75 
Q 48.6875 17.390625 48.6875 27.296875 
z
" id="DejaVuSans-112"/>
     <path d="M 44.28125 53.078125 
L 44.28125 44.578125 
Q 40.484375 46.53125 36.375 47.5 
Q 32.28125 48.484375 27.875 48.484375 
Q 21.1875 48.484375 17.84375 46.4375 
Q 14.5 44.390625 14.5 40.28125 
Q 14.5 37.15625 16.890625 35.375 
Q 19.28125 33.59375 26.515625 31.984375 
L 29.59375 31.296875 
Q 39.15625 29.25 43.1875 25.515625 
Q 47.21875 21.78125 47.21875 15.09375 
Q 47.21875 7.46875 41.1875 3.015625 
Q 35.15625 -1.421875 24.609375 -1.421875 
Q 20.21875 -1.421875 15.453125 -0.5625 
Q 10.6875 0.296875 5.421875 2 
L 5.421875 11.28125 
Q 10.40625 8.6875 15.234375 7.390625 
Q 20.0625 6.109375 24.8125 6.109375 
Q 31.15625 6.109375 34.5625 8.28125 
Q 37.984375 10.453125 37.984375 14.40625 
Q 37.984375 18.0625 35.515625 20.015625 
Q 33.0625 21.96875 24.703125 23.78125 
L 21.578125 24.515625 
Q 13.234375 26.265625 9.515625 29.90625 
Q 5.8125 33.546875 5.8125 39.890625 
Q 5.8125 47.609375 11.28125 51.796875 
Q 16.75 56 26.8125 56 
Q 31.78125 56 36.171875 55.265625 
Q 40.578125 54.546875 44.28125 53.078125 
z
" id="DejaVuSans-115"/>
     <path d="M 34.28125 27.484375 
Q 23.390625 27.484375 19.1875 25 
Q 14.984375 22.515625 14.984375 16.5 
Q 14.984375 11.71875 18.140625 8.90625 
Q 21.296875 6.109375 26.703125 6.109375 
Q 34.1875 6.109375 38.703125 11.40625 
Q 43.21875 16.703125 43.21875 25.484375 
L 43.21875 27.484375 
z
M 52.203125 31.203125 
L 52.203125 0 
L 43.21875 0 
L 43.21875 8.296875 
Q 40.140625 3.328125 35.546875 0.953125 
Q 30.953125 -1.421875 24.3125 -1.421875 
Q 15.921875 -1.421875 10.953125 3.296875 
Q 6 8.015625 6 15.921875 
Q 6 25.140625 12.171875 29.828125 
Q 18.359375 34.515625 30.609375 34.515625 
L 43.21875 34.515625 
L 43.21875 35.40625 
Q 43.21875 41.609375 39.140625 45 
Q 35.0625 48.390625 27.6875 48.390625 
Q 23 48.390625 18.546875 47.265625 
Q 14.109375 46.140625 10.015625 43.890625 
L 10.015625 52.203125 
Q 14.9375 54.109375 19.578125 55.046875 
Q 24.21875 56 28.609375 56 
Q 40.484375 56 46.34375 49.84375 
Q 52.203125 43.703125 52.203125 31.203125 
z
" id="DejaVuSans-97"/>
     <path d="M 11.71875 12.40625 
L 22.015625 12.40625 
L 22.015625 4 
L 14.015625 -11.625 
L 7.71875 -11.625 
L 11.71875 4 
z
" id="DejaVuSans-44"/>
     <path d="M 9.8125 72.90625 
L 24.515625 72.90625 
L 43.109375 23.296875 
L 61.8125 72.90625 
L 76.515625 72.90625 
L 76.515625 0 
L 66.890625 0 
L 66.890625 64.015625 
L 48.09375 14.015625 
L 38.1875 14.015625 
L 19.390625 64.015625 
L 19.390625 0 
L 9.8125 0 
z
" id="DejaVuSans-77"/>
     <path d="M 34.1875 63.1875 
L 20.796875 26.90625 
L 47.609375 26.90625 
z
M 28.609375 72.90625 
L 39.796875 72.90625 
L 67.578125 0 
L 57.328125 0 
L 50.6875 18.703125 
L 17.828125 18.703125 
L 11.1875 0 
L 0.78125 0 
z
" id="DejaVuSans-65"/>
     <path d="M 10.59375 45.40625 
L 73.1875 45.40625 
L 73.1875 37.203125 
L 10.59375 37.203125 
z
M 10.59375 25.484375 
L 73.1875 25.484375 
L 73.1875 17.1875 
L 10.59375 17.1875 
z
" id="DejaVuSans-61"/>
     <path d="M 37.796875 64.3125 
L 12.890625 25.390625 
L 37.796875 25.390625 
z
M 35.203125 72.90625 
L 47.609375 72.90625 
L 47.609375 25.390625 
L 58.015625 25.390625 
L 58.015625 17.1875 
L 47.609375 17.1875 
L 47.609375 0 
L 37.796875 0 
L 37.796875 17.1875 
L 4.890625 17.1875 
L 4.890625 26.703125 
z
" id="DejaVuSans-52"/>
    </defs>
    <g transform="translate(218.300625 20.16)scale(0.12 -0.12)">
     <use xlink:href="#DejaVuSans-103"/>
     <use x="63.476562" xlink:href="#DejaVuSans-114"/>
     <use x="104.589844" xlink:href="#DejaVuSans-105"/>
     <use x="132.373047" xlink:href="#DejaVuSans-100"/>
     <use x="195.849609" xlink:href="#DejaVuSans-119"/>
     <use x="277.636719" xlink:href="#DejaVuSans-111"/>
     <use x="338.818359" xlink:href="#DejaVuSans-114"/>
     <use x="379.931641" xlink:href="#DejaVuSans-108"/>
     <use x="407.714844" xlink:href="#DejaVuSans-100"/>
     <use x="471.191406" xlink:href="#DejaVuSans-95"/>
     <use x="521.191406" xlink:href="#DejaVuSans-53"/>
     <use x="584.814453" xlink:href="#DejaVuSans-120"/>
     <use x="643.994141" xlink:href="#DejaVuSans-53"/>
     <use x="707.617188" xlink:href="#DejaVuSans-95"/>
     <use x="757.617188" xlink:href="#DejaVuSans-50"/>
     <use x="821.240234" xlink:href="#DejaVuSans-48"/>
     <use x="884.863281" xlink:href="#DejaVuSans-95"/>
     <use x="934.863281" xlink:href="#DejaVuSans-49"/>
     <use x="998.486328" xlink:href="#DejaVuSans-95"/>
     <use x="1048.486328" xlink:href="#DejaVuSans-50"/>
     <use x="1112.109375" xlink:href="#DejaVuSans-48"/>
     <use x="1175.732422" xlink:href="#DejaVuSans-95"/>
     <use x="1225.732422" xlink:href="#DejaVuSans-49"/>
     <use x="1289.355469" xlink:href="#DejaVuSans-51"/>
     <use x="1352.978516" xlink:href="#DejaVuSans-51"/>
     <use x="1416.601562" xlink:href="#DejaVuSans-55"/>
     <use x="1480.224609" xlink:href="#DejaVuSans-58"/>
     <use x="1513.916016" xlink:href="#DejaVuSans-32"/>
     <use x="1545.703125" xlink:href="#DejaVuSans-101"/>
     <use x="1607.226562" xlink:href="#DejaVuSans-112"/>
     <use x="1670.703125" xlink:href="#DejaVuSans-105"/>
     <use x="1698.486328" xlink:href="#DejaVuSans-115"/>
     <use x="1750.585938" xlink:href="#DejaVuSans-111"/>
     <use x="1811.767578" xlink:href="#DejaVuSans-100"/>
     <use x="1875.244141" xlink:href="#DejaVuSans-101"/>
     <use x="1936.767578" xlink:href="#DejaVuSans-32"/>
     <use x="1968.554688" xlink:href="#DejaVuSans-114"/>
     <use x="2009.636719" xlink:href="#DejaVuSans-101"/>
     <use x="2071.160156" xlink:href="#DejaVuSans-119"/>
     <use x="2152.947266" xlink:href="#DejaVuSans-97"/>
     <use x="2214.226562" xlink:href="#DejaVuSans-114"/>
     <use x="2255.324219" xlink:href="#DejaVuSans-100"/>
     <use x="2318.800781" xlink:href="#DejaVuSans-44"/>
     <use x="2350.587891" xlink:href="#DejaVuSans-32"/>
     <use x="2382.375" xlink:href="#DejaVuSans-77"/>
     <use x="2468.654297" xlink:href="#DejaVuSans-65"/>
     <use x="2537.0625" xlink:href="#DejaVuSans-61"/>
     <use x="2620.851562" xlink:href="#DejaVuSans-52"/>
     <use x="2684.474609" xlink:href="#DejaVuSans-48"/>
    </g>
   </g>
   <g id="legend_1">
    <g id="patch_7">
     <path d="M 762.651937 261.50875 
L 853.716 261.50875 
Q 855.716 261.50875 855.716 259.50875 
L 855.716 170.77125 
Q 855.716 168.77125 853.716 168.77125 
L 762.651937 168.77125 
Q 760.651937 168.77125 760.651937 170.77125 
L 760.651937 259.50875 
Q 760.651937 261.50875 762.651937 261.50875 
z
" style="fill:#ffffff;opacity:0.8;stroke:#cccccc;stroke-linejoin:miter;"/>
    </g>
    <g id="line2d_23">
     <path d="M 764.651937 176.869687 
L 784.651937 176.869687 
" style="fill:none;stroke:#1f77b4;stroke-linecap:square;stroke-width:1.5;"/>
    </g>
    <g id="line2d_24"/>
    <g id="text_18">
     <!-- htm_0 -->
     <defs>
      <path d="M 54.890625 33.015625 
L 54.890625 0 
L 45.90625 0 
L 45.90625 32.71875 
Q 45.90625 40.484375 42.875 44.328125 
Q 39.84375 48.1875 33.796875 48.1875 
Q 26.515625 48.1875 22.3125 43.546875 
Q 18.109375 38.921875 18.109375 30.90625 
L 18.109375 0 
L 9.078125 0 
L 9.078125 75.984375 
L 18.109375 75.984375 
L 18.109375 46.1875 
Q 21.34375 51.125 25.703125 53.5625 
Q 30.078125 56 35.796875 56 
Q 45.21875 56 50.046875 50.171875 
Q 54.890625 44.34375 54.890625 33.015625 
z
" id="DejaVuSans-104"/>
      <path d="M 18.3125 70.21875 
L 18.3125 54.6875 
L 36.8125 54.6875 
L 36.8125 47.703125 
L 18.3125 47.703125 
L 18.3125 18.015625 
Q 18.3125 11.328125 20.140625 9.421875 
Q 21.96875 7.515625 27.59375 7.515625 
L 36.8125 7.515625 
L 36.8125 0 
L 27.59375 0 
Q 17.1875 0 13.234375 3.875 
Q 9.28125 7.765625 9.28125 18.015625 
L 9.28125 47.703125 
L 2.6875 47.703125 
L 2.6875 54.6875 
L 9.28125 54.6875 
L 9.28125 70.21875 
z
" id="DejaVuSans-116"/>
      <path d="M 52 44.1875 
Q 55.375 50.25 60.0625 53.125 
Q 64.75 56 71.09375 56 
Q 79.640625 56 84.28125 50.015625 
Q 88.921875 44.046875 88.921875 33.015625 
L 88.921875 0 
L 79.890625 0 
L 79.890625 32.71875 
Q 79.890625 40.578125 77.09375 44.375 
Q 74.3125 48.1875 68.609375 48.1875 
Q 61.625 48.1875 57.5625 43.546875 
Q 53.515625 38.921875 53.515625 30.90625 
L 53.515625 0 
L 44.484375 0 
L 44.484375 32.71875 
Q 44.484375 40.625 41.703125 44.40625 
Q 38.921875 48.1875 33.109375 48.1875 
Q 26.21875 48.1875 22.15625 43.53125 
Q 18.109375 38.875 18.109375 30.90625 
L 18.109375 0 
L 9.078125 0 
L 9.078125 54.6875 
L 18.109375 54.6875 
L 18.109375 46.1875 
Q 21.1875 51.21875 25.484375 53.609375 
Q 29.78125 56 35.6875 56 
Q 41.65625 56 45.828125 52.96875 
Q 50 49.953125 52 44.1875 
z
" id="DejaVuSans-109"/>
     </defs>
     <g transform="translate(792.651937 180.369687)scale(0.1 -0.1)">
      <use xlink:href="#DejaVuSans-104"/>
      <use x="63.378906" xlink:href="#DejaVuSans-116"/>
      <use x="102.587891" xlink:href="#DejaVuSans-109"/>
      <use x="200" xlink:href="#DejaVuSans-95"/>
      <use x="250" xlink:href="#DejaVuSans-48"/>
     </g>
    </g>
    <g id="line2d_25">
     <path d="M 764.651937 191.825938 
L 784.651937 191.825938 
" style="fill:none;stroke:#ff7f0e;stroke-linecap:square;stroke-width:1.5;"/>
    </g>
    <g id="line2d_26"/>
    <g id="text_19">
     <!-- dqn_greedy -->
     <defs>
      <path d="M 14.796875 27.296875 
Q 14.796875 17.390625 18.875 11.75 
Q 22.953125 6.109375 30.078125 6.109375 
Q 37.203125 6.109375 41.296875 11.75 
Q 45.40625 17.390625 45.40625 27.296875 
Q 45.40625 37.203125 41.296875 42.84375 
Q 37.203125 48.484375 30.078125 48.484375 
Q 22.953125 48.484375 18.875 42.84375 
Q 14.796875 37.203125 14.796875 27.296875 
z
M 45.40625 8.203125 
Q 42.578125 3.328125 38.25 0.953125 
Q 33.9375 -1.421875 27.875 -1.421875 
Q 17.96875 -1.421875 11.734375 6.484375 
Q 5.515625 14.40625 5.515625 27.296875 
Q 5.515625 40.1875 11.734375 48.09375 
Q 17.96875 56 27.875 56 
Q 33.9375 56 38.25 53.625 
Q 42.578125 51.265625 45.40625 46.390625 
L 45.40625 54.6875 
L 54.390625 54.6875 
L 54.390625 -20.796875 
L 45.40625 -20.796875 
z
" id="DejaVuSans-113"/>
      <path d="M 54.890625 33.015625 
L 54.890625 0 
L 45.90625 0 
L 45.90625 32.71875 
Q 45.90625 40.484375 42.875 44.328125 
Q 39.84375 48.1875 33.796875 48.1875 
Q 26.515625 48.1875 22.3125 43.546875 
Q 18.109375 38.921875 18.109375 30.90625 
L 18.109375 0 
L 9.078125 0 
L 9.078125 54.6875 
L 18.109375 54.6875 
L 18.109375 46.1875 
Q 21.34375 51.125 25.703125 53.5625 
Q 30.078125 56 35.796875 56 
Q 45.21875 56 50.046875 50.171875 
Q 54.890625 44.34375 54.890625 33.015625 
z
" id="DejaVuSans-110"/>
      <path d="M 32.171875 -5.078125 
Q 28.375 -14.84375 24.75 -17.8125 
Q 21.140625 -20.796875 15.09375 -20.796875 
L 7.90625 -20.796875 
L 7.90625 -13.28125 
L 13.1875 -13.28125 
Q 16.890625 -13.28125 18.9375 -11.515625 
Q 21 -9.765625 23.484375 -3.21875 
L 25.09375 0.875 
L 2.984375 54.6875 
L 12.5 54.6875 
L 29.59375 11.921875 
L 46.6875 54.6875 
L 56.203125 54.6875 
z
" id="DejaVuSans-121"/>
     </defs>
     <g transform="translate(792.651937 195.325938)scale(0.1 -0.1)">
      <use xlink:href="#DejaVuSans-100"/>
      <use x="63.476562" xlink:href="#DejaVuSans-113"/>
      <use x="126.953125" xlink:href="#DejaVuSans-110"/>
      <use x="190.332031" xlink:href="#DejaVuSans-95"/>
      <use x="240.332031" xlink:href="#DejaVuSans-103"/>
      <use x="303.808594" xlink:href="#DejaVuSans-114"/>
      <use x="344.890625" xlink:href="#DejaVuSans-101"/>
      <use x="406.414062" xlink:href="#DejaVuSans-101"/>
      <use x="467.9375" xlink:href="#DejaVuSans-100"/>
      <use x="531.414062" xlink:href="#DejaVuSans-121"/>
     </g>
    </g>
    <g id="line2d_27">
     <path d="M 764.651937 206.782187 
L 784.651937 206.782187 
" style="fill:none;stroke:#2ca02c;stroke-linecap:square;stroke-width:1.5;"/>
    </g>
    <g id="line2d_28"/>
    <g id="text_20">
     <!-- htm_1_1g -->
     <g transform="translate(792.651937 210.282187)scale(0.1 -0.1)">
      <use xlink:href="#DejaVuSans-104"/>
      <use x="63.378906" xlink:href="#DejaVuSans-116"/>
      <use x="102.587891" xlink:href="#DejaVuSans-109"/>
      <use x="200" xlink:href="#DejaVuSans-95"/>
      <use x="250" xlink:href="#DejaVuSans-49"/>
      <use x="313.623047" xlink:href="#DejaVuSans-95"/>
      <use x="363.623047" xlink:href="#DejaVuSans-49"/>
      <use x="427.246094" xlink:href="#DejaVuSans-103"/>
     </g>
    </g>
    <g id="line2d_29">
     <path d="M 764.651937 221.738438 
L 784.651937 221.738438 
" style="fill:none;stroke:#d62728;stroke-linecap:square;stroke-width:1.5;"/>
    </g>
    <g id="line2d_30"/>
    <g id="text_21">
     <!-- htm_2_1g -->
     <g transform="translate(792.651937 225.238438)scale(0.1 -0.1)">
      <use xlink:href="#DejaVuSans-104"/>
      <use x="63.378906" xlink:href="#DejaVuSans-116"/>
      <use x="102.587891" xlink:href="#DejaVuSans-109"/>
      <use x="200" xlink:href="#DejaVuSans-95"/>
      <use x="250" xlink:href="#DejaVuSans-50"/>
      <use x="313.623047" xlink:href="#DejaVuSans-95"/>
      <use x="363.623047" xlink:href="#DejaVuSans-49"/>
      <use x="427.246094" xlink:href="#DejaVuSans-103"/>
     </g>
    </g>
    <g id="line2d_31">
     <path d="M 764.651937 236.694687 
L 784.651937 236.694687 
" style="fill:none;stroke:#9467bd;stroke-linecap:square;stroke-width:1.5;"/>
    </g>
    <g id="line2d_32"/>
    <g id="text_22">
     <!-- htm_4_1g -->
     <g transform="translate(792.651937 240.194687)scale(0.1 -0.1)">
      <use xlink:href="#DejaVuSans-104"/>
      <use x="63.378906" xlink:href="#DejaVuSans-116"/>
      <use x="102.587891" xlink:href="#DejaVuSans-109"/>
      <use x="200" xlink:href="#DejaVuSans-95"/>
      <use x="250" xlink:href="#DejaVuSans-52"/>
      <use x="313.623047" xlink:href="#DejaVuSans-95"/>
      <use x="363.623047" xlink:href="#DejaVuSans-49"/>
      <use x="427.246094" xlink:href="#DejaVuSans-103"/>
     </g>
    </g>
    <g id="line2d_33">
     <path d="M 764.651937 251.650937 
L 784.651937 251.650937 
" style="fill:none;stroke:#8c564b;stroke-linecap:square;stroke-width:1.5;"/>
    </g>
    <g id="line2d_34"/>
    <g id="text_23">
     <!-- htm_8_1g -->
     <defs>
      <path d="M 31.78125 34.625 
Q 24.75 34.625 20.71875 30.859375 
Q 16.703125 27.09375 16.703125 20.515625 
Q 16.703125 13.921875 20.71875 10.15625 
Q 24.75 6.390625 31.78125 6.390625 
Q 38.8125 6.390625 42.859375 10.171875 
Q 46.921875 13.96875 46.921875 20.515625 
Q 46.921875 27.09375 42.890625 30.859375 
Q 38.875 34.625 31.78125 34.625 
z
M 21.921875 38.8125 
Q 15.578125 40.375 12.03125 44.71875 
Q 8.5 49.078125 8.5 55.328125 
Q 8.5 64.0625 14.71875 69.140625 
Q 20.953125 74.21875 31.78125 74.21875 
Q 42.671875 74.21875 48.875 69.140625 
Q 55.078125 64.0625 55.078125 55.328125 
Q 55.078125 49.078125 51.53125 44.71875 
Q 48 40.375 41.703125 38.8125 
Q 48.828125 37.15625 52.796875 32.3125 
Q 56.78125 27.484375 56.78125 20.515625 
Q 56.78125 9.90625 50.3125 4.234375 
Q 43.84375 -1.421875 31.78125 -1.421875 
Q 19.734375 -1.421875 13.25 4.234375 
Q 6.78125 9.90625 6.78125 20.515625 
Q 6.78125 27.484375 10.78125 32.3125 
Q 14.796875 37.15625 21.921875 38.8125 
z
M 18.3125 54.390625 
Q 18.3125 48.734375 21.84375 45.5625 
Q 25.390625 42.390625 31.78125 42.390625 
Q 38.140625 42.390625 41.71875 45.5625 
Q 45.3125 48.734375 45.3125 54.390625 
Q 45.3125 60.0625 41.71875 63.234375 
Q 38.140625 66.40625 31.78125 66.40625 
Q 25.390625 66.40625 21.84375 63.234375 
Q 18.3125 60.0625 18.3125 54.390625 
z
" id="DejaVuSans-56"/>
     </defs>
     <g transform="translate(792.651937 255.150937)scale(0.1 -0.1)">
      <use xlink:href="#DejaVuSans-104"/>
      <use x="63.378906" xlink:href="#DejaVuSans-116"/>
      <use x="102.587891" xlink:href="#DejaVuSans-109"/>
      <use x="200" xlink:href="#DejaVuSans-95"/>
      <use x="250" xlink:href="#DejaVuSans-56"/>
      <use x="313.623047" xlink:href="#DejaVuSans-95"/>
      <use x="363.623047" xlink:href="#DejaVuSans-49"/>
      <use x="427.246094" xlink:href="#DejaVuSans-103"/>
     </g>
    </g>
   </g>
  </g>
 </g>
 <defs>
  <clipPath id="p7a50669a23">
   <rect height="377.96" width="682.18" x="42.1" y="26.16"/>
  </clipPath>
 </defs>
</svg>
