<?xml version="1.0" encoding="utf-8" standalone="no"?>
<!DOCTYPE svg PUBLIC "-//W3C//DTD SVG 1.1//EN"
  "http://www.w3.org/Graphics/SVG/1.1/DTD/svg11.dtd">
<!-- Created with matplotlib (https://matplotlib.org/) -->
<svg height="432pt" version="1.1" viewBox="0 0 864 432" width="864pt" xmlns="http://www.w3.org/2000/svg" xmlns:xlink="http://www.w3.org/1999/xlink">
 <defs>
  <style type="text/css">
*{stroke-linecap:butt;stroke-linejoin:round;}
  </style>
 </defs>
 <g id="figure_1">
  <g id="patch_1">
   <path d="M 0 432 
L 864 432 
L 864 0 
L 0 0 
z
" style="fill:#ffffff;"/>
  </g>
  <g id="axes_1">
   <g id="patch_2">
    <path d="M 36.925 404.12 
L 724.28 404.12 
L 724.28 26.16 
L 36.925 26.16 
z
" style="fill:#ffffff;"/>
   </g>
   <g id="matplotlib.axis_1">
    <g id="xtick_1">
     <g id="line2d_1">
      <defs>
       <path d="M 0 0 
L 0 3.5 
" id="mbb7744b71a" style="stroke:#000000;stroke-width:0.8;"/>
      </defs>
      <g>
       <use style="stroke:#000000;stroke-width:0.8;" x="36.925" xlink:href="#mbb7744b71a" y="404.12"/>
      </g>
     </g>
     <g id="text_1">
      <!-- 0 -->
      <defs>
       <path d="M 31.78125 66.40625 
Q 24.171875 66.40625 20.328125 58.90625 
Q 16.5 51.421875 16.5 36.375 
Q 16.5 21.390625 20.328125 13.890625 
Q 24.171875 6.390625 31.78125 6.390625 
Q 39.453125 6.390625 43.28125 13.890625 
Q 47.125 21.390625 47.125 36.375 
Q 47.125 51.421875 43.28125 58.90625 
Q 39.453125 66.40625 31.78125 66.40625 
z
M 31.78125 74.21875 
Q 44.046875 74.21875 50.515625 64.515625 
Q 56.984375 54.828125 56.984375 36.375 
Q 56.984375 17.96875 50.515625 8.265625 
Q 44.046875 -1.421875 31.78125 -1.421875 
Q 19.53125 -1.421875 13.0625 8.265625 
Q 6.59375 17.96875 6.59375 36.375 
Q 6.59375 54.828125 13.0625 64.515625 
Q 19.53125 74.21875 31.78125 74.21875 
z
" id="DejaVuSans-48"/>
      </defs>
      <g transform="translate(33.74375 418.718437)scale(0.1 -0.1)">
       <use xlink:href="#DejaVuSans-48"/>
      </g>
     </g>
    </g>
    <g id="xtick_2">
     <g id="line2d_2">
      <g>
       <use style="stroke:#000000;stroke-width:0.8;" x="123.059712" xlink:href="#mbb7744b71a" y="404.12"/>
      </g>
     </g>
     <g id="text_2">
      <!-- 50 -->
      <defs>
       <path d="M 10.796875 72.90625 
L 49.515625 72.90625 
L 49.515625 64.59375 
L 19.828125 64.59375 
L 19.828125 46.734375 
Q 21.96875 47.46875 24.109375 47.828125 
Q 26.265625 48.1875 28.421875 48.1875 
Q 40.625 48.1875 47.75 41.5 
Q 54.890625 34.8125 54.890625 23.390625 
Q 54.890625 11.625 47.5625 5.09375 
Q 40.234375 -1.421875 26.90625 -1.421875 
Q 22.3125 -1.421875 17.546875 -0.640625 
Q 12.796875 0.140625 7.71875 1.703125 
L 7.71875 11.625 
Q 12.109375 9.234375 16.796875 8.0625 
Q 21.484375 6.890625 26.703125 6.890625 
Q 35.15625 6.890625 40.078125 11.328125 
Q 45.015625 15.765625 45.015625 23.390625 
Q 45.015625 31 40.078125 35.4375 
Q 35.15625 39.890625 26.703125 39.890625 
Q 22.75 39.890625 18.8125 39.015625 
Q 14.890625 38.140625 10.796875 36.28125 
z
" id="DejaVuSans-53"/>
      </defs>
      <g transform="translate(116.697212 418.718437)scale(0.1 -0.1)">
       <use xlink:href="#DejaVuSans-53"/>
       <use x="63.623047" xlink:href="#DejaVuSans-48"/>
      </g>
     </g>
    </g>
    <g id="xtick_3">
     <g id="line2d_3">
      <g>
       <use style="stroke:#000000;stroke-width:0.8;" x="209.194424" xlink:href="#mbb7744b71a" y="404.12"/>
      </g>
     </g>
     <g id="text_3">
      <!-- 100 -->
      <defs>
       <path d="M 12.40625 8.296875 
L 28.515625 8.296875 
L 28.515625 63.921875 
L 10.984375 60.40625 
L 10.984375 69.390625 
L 28.421875 72.90625 
L 38.28125 72.90625 
L 38.28125 8.296875 
L 54.390625 8.296875 
L 54.390625 0 
L 12.40625 0 
z
" id="DejaVuSans-49"/>
      </defs>
      <g transform="translate(199.650674 418.718437)scale(0.1 -0.1)">
       <use xlink:href="#DejaVuSans-49"/>
       <use x="63.623047" xlink:href="#DejaVuSans-48"/>
       <use x="127.246094" xlink:href="#DejaVuSans-48"/>
      </g>
     </g>
    </g>
    <g id="xtick_4">
     <g id="line2d_4">
      <g>
       <use style="stroke:#000000;stroke-width:0.8;" x="295.329135" xlink:href="#mbb7744b71a" y="404.12"/>
      </g>
     </g>
     <g id="text_4">
      <!-- 150 -->
      <g transform="translate(285.785385 418.718437)scale(0.1 -0.1)">
       <use xlink:href="#DejaVuSans-49"/>
       <use x="63.623047" xlink:href="#DejaVuSans-53"/>
       <use x="127.246094" xlink:href="#DejaVuSans-48"/>
      </g>
     </g>
    </g>
    <g id="xtick_5">
     <g id="line2d_5">
      <g>
       <use style="stroke:#000000;stroke-width:0.8;" x="381.463847" xlink:href="#mbb7744b71a" y="404.12"/>
      </g>
     </g>
     <g id="text_5">
      <!-- 200 -->
      <defs>
       <path d="M 19.1875 8.296875 
L 53.609375 8.296875 
L 53.609375 0 
L 7.328125 0 
L 7.328125 8.296875 
Q 12.9375 14.109375 22.625 23.890625 
Q 32.328125 33.6875 34.8125 36.53125 
Q 39.546875 41.84375 41.421875 45.53125 
Q 43.3125 49.21875 43.3125 52.78125 
Q 43.3125 58.59375 39.234375 62.25 
Q 35.15625 65.921875 28.609375 65.921875 
Q 23.96875 65.921875 18.8125 64.3125 
Q 13.671875 62.703125 7.8125 59.421875 
L 7.8125 69.390625 
Q 13.765625 71.78125 18.9375 73 
Q 24.125 74.21875 28.421875 74.21875 
Q 39.75 74.21875 46.484375 68.546875 
Q 53.21875 62.890625 53.21875 53.421875 
Q 53.21875 48.921875 51.53125 44.890625 
Q 49.859375 40.875 45.40625 35.40625 
Q 44.1875 33.984375 37.640625 27.21875 
Q 31.109375 20.453125 19.1875 8.296875 
z
" id="DejaVuSans-50"/>
      </defs>
      <g transform="translate(371.920097 418.718437)scale(0.1 -0.1)">
       <use xlink:href="#DejaVuSans-50"/>
       <use x="63.623047" xlink:href="#DejaVuSans-48"/>
       <use x="127.246094" xlink:href="#DejaVuSans-48"/>
      </g>
     </g>
    </g>
    <g id="xtick_6">
     <g id="line2d_6">
      <g>
       <use style="stroke:#000000;stroke-width:0.8;" x="467.598559" xlink:href="#mbb7744b71a" y="404.12"/>
      </g>
     </g>
     <g id="text_6">
      <!-- 250 -->
      <g transform="translate(458.054809 418.718437)scale(0.1 -0.1)">
       <use xlink:href="#DejaVuSans-50"/>
       <use x="63.623047" xlink:href="#DejaVuSans-53"/>
       <use x="127.246094" xlink:href="#DejaVuSans-48"/>
      </g>
     </g>
    </g>
    <g id="xtick_7">
     <g id="line2d_7">
      <g>
       <use style="stroke:#000000;stroke-width:0.8;" x="553.733271" xlink:href="#mbb7744b71a" y="404.12"/>
      </g>
     </g>
     <g id="text_7">
      <!-- 300 -->
      <defs>
       <path d="M 40.578125 39.3125 
Q 47.65625 37.796875 51.625 33 
Q 55.609375 28.21875 55.609375 21.1875 
Q 55.609375 10.40625 48.1875 4.484375 
Q 40.765625 -1.421875 27.09375 -1.421875 
Q 22.515625 -1.421875 17.65625 -0.515625 
Q 12.796875 0.390625 7.625 2.203125 
L 7.625 11.71875 
Q 11.71875 9.328125 16.59375 8.109375 
Q 21.484375 6.890625 26.8125 6.890625 
Q 36.078125 6.890625 40.9375 10.546875 
Q 45.796875 14.203125 45.796875 21.1875 
Q 45.796875 27.640625 41.28125 31.265625 
Q 36.765625 34.90625 28.71875 34.90625 
L 20.21875 34.90625 
L 20.21875 43.015625 
L 29.109375 43.015625 
Q 36.375 43.015625 40.234375 45.921875 
Q 44.09375 48.828125 44.09375 54.296875 
Q 44.09375 59.90625 40.109375 62.90625 
Q 36.140625 65.921875 28.71875 65.921875 
Q 24.65625 65.921875 20.015625 65.03125 
Q 15.375 64.15625 9.8125 62.3125 
L 9.8125 71.09375 
Q 15.4375 72.65625 20.34375 73.4375 
Q 25.25 74.21875 29.59375 74.21875 
Q 40.828125 74.21875 47.359375 69.109375 
Q 53.90625 64.015625 53.90625 55.328125 
Q 53.90625 49.265625 50.4375 45.09375 
Q 46.96875 40.921875 40.578125 39.3125 
z
" id="DejaVuSans-51"/>
      </defs>
      <g transform="translate(544.189521 418.718437)scale(0.1 -0.1)">
       <use xlink:href="#DejaVuSans-51"/>
       <use x="63.623047" xlink:href="#DejaVuSans-48"/>
       <use x="127.246094" xlink:href="#DejaVuSans-48"/>
      </g>
     </g>
    </g>
    <g id="xtick_8">
     <g id="line2d_8">
      <g>
       <use style="stroke:#000000;stroke-width:0.8;" x="639.867982" xlink:href="#mbb7744b71a" y="404.12"/>
      </g>
     </g>
     <g id="text_8">
      <!-- 350 -->
      <g transform="translate(630.324232 418.718437)scale(0.1 -0.1)">
       <use xlink:href="#DejaVuSans-51"/>
       <use x="63.623047" xlink:href="#DejaVuSans-53"/>
       <use x="127.246094" xlink:href="#DejaVuSans-48"/>
      </g>
     </g>
    </g>
   </g>
   <g id="matplotlib.axis_2">
    <g id="ytick_1">
     <g id="line2d_9">
      <defs>
       <path d="M 0 0 
L -3.5 0 
" id="m094a75eb33" style="stroke:#000000;stroke-width:0.8;"/>
      </defs>
      <g>
       <use style="stroke:#000000;stroke-width:0.8;" x="36.925" xlink:href="#m094a75eb33" y="395.240805"/>
      </g>
     </g>
     <g id="text_9">
      <!-- 0 -->
      <g transform="translate(23.5625 399.040024)scale(0.1 -0.1)">
       <use xlink:href="#DejaVuSans-48"/>
      </g>
     </g>
    </g>
    <g id="ytick_2">
     <g id="line2d_10">
      <g>
       <use style="stroke:#000000;stroke-width:0.8;" x="36.925" xlink:href="#m094a75eb33" y="328.567671"/>
      </g>
     </g>
     <g id="text_10">
      <!-- 50 -->
      <g transform="translate(17.2 332.366889)scale(0.1 -0.1)">
       <use xlink:href="#DejaVuSans-53"/>
       <use x="63.623047" xlink:href="#DejaVuSans-48"/>
      </g>
     </g>
    </g>
    <g id="ytick_3">
     <g id="line2d_11">
      <g>
       <use style="stroke:#000000;stroke-width:0.8;" x="36.925" xlink:href="#m094a75eb33" y="261.894536"/>
      </g>
     </g>
     <g id="text_11">
      <!-- 100 -->
      <g transform="translate(10.8375 265.693755)scale(0.1 -0.1)">
       <use xlink:href="#DejaVuSans-49"/>
       <use x="63.623047" xlink:href="#DejaVuSans-48"/>
       <use x="127.246094" xlink:href="#DejaVuSans-48"/>
      </g>
     </g>
    </g>
    <g id="ytick_4">
     <g id="line2d_12">
      <g>
       <use style="stroke:#000000;stroke-width:0.8;" x="36.925" xlink:href="#m094a75eb33" y="195.221401"/>
      </g>
     </g>
     <g id="text_12">
      <!-- 150 -->
      <g transform="translate(10.8375 199.02062)scale(0.1 -0.1)">
       <use xlink:href="#DejaVuSans-49"/>
       <use x="63.623047" xlink:href="#DejaVuSans-53"/>
       <use x="127.246094" xlink:href="#DejaVuSans-48"/>
      </g>
     </g>
    </g>
    <g id="ytick_5">
     <g id="line2d_13">
      <g>
       <use style="stroke:#000000;stroke-width:0.8;" x="36.925" xlink:href="#m094a75eb33" y="128.548266"/>
      </g>
     </g>
     <g id="text_13">
      <!-- 200 -->
      <g transform="translate(10.8375 132.347485)scale(0.1 -0.1)">
       <use xlink:href="#DejaVuSans-50"/>
       <use x="63.623047" xlink:href="#DejaVuSans-48"/>
       <use x="127.246094" xlink:href="#DejaVuSans-48"/>
      </g>
     </g>
    </g>
    <g id="ytick_6">
     <g id="line2d_14">
      <g>
       <use style="stroke:#000000;stroke-width:0.8;" x="36.925" xlink:href="#m094a75eb33" y="61.875131"/>
      </g>
     </g>
     <g id="text_14">
      <!-- 250 -->
      <g transform="translate(10.8375 65.67435)scale(0.1 -0.1)">
       <use xlink:href="#DejaVuSans-50"/>
       <use x="63.623047" xlink:href="#DejaVuSans-53"/>
       <use x="127.246094" xlink:href="#DejaVuSans-48"/>
      </g>
     </g>
    </g>
   </g>
   <g id="line2d_15">
    <path clip-path="url(#p2c1a91708c)" d="M 104.110075 331.201259 
L 105.832769 325.700726 
L 107.555464 325.867409 
L 109.278158 327.234208 
L 111.000852 328.267641 
L 112.723546 328.500997 
L 114.446241 328.367651 
L 116.168935 328.400988 
L 117.891629 328.234305 
L 119.614323 328.500997 
L 123.059712 328.534334 
L 124.782406 329.201065 
L 126.5051 328.734353 
L 128.227794 328.734353 
L 129.950489 319.83349 
L 133.395877 300.064905 
L 135.118571 300.031569 
L 136.841266 290.163945 
L 143.732043 290.163945 
L 147.177431 309.932529 
L 148.900125 310.532588 
L 150.62282 310.599261 
L 152.345514 311.499348 
L 154.068208 311.132646 
L 155.790902 311.065973 
L 157.513596 310.465914 
L 159.236291 310.232558 
L 162.681679 310.365905 
L 164.404373 310.399241 
L 167.849762 310.765944 
L 171.29515 310.69927 
L 173.017845 310.832617 
L 174.740539 314.532976 
L 176.463233 314.532976 
L 178.185927 313.866244 
L 183.35401 313.699561 
L 186.799398 313.932917 
L 188.522093 313.866244 
L 190.244787 313.932917 
L 191.967481 314.166273 
L 193.690175 314.132937 
L 195.41287 314.699658 
L 197.135564 313.13284 
L 202.303647 342.402346 
L 204.026341 342.302336 
L 205.749035 351.469892 
L 207.471729 350.869834 
L 212.639812 380.639389 
L 217.807895 380.639389 
L 224.698672 380.706062 
L 226.421366 381.40613 
L 228.14406 381.472803 
L 229.866754 381.672822 
L 231.589449 381.706159 
L 233.312143 381.572813 
L 241.925614 381.739495 
L 243.648308 375.838923 
L 245.371003 366.071309 
L 247.093697 357.070436 
L 248.816391 347.202812 
L 250.539085 347.169475 
L 252.261779 347.336158 
L 253.984474 347.169475 
L 264.320639 347.169475 
L 266.043333 348.96965 
L 272.93411 349.503035 
L 276.379499 350.636478 
L 281.547581 320.866923 
L 283.270276 320.80025 
L 284.99297 320.866923 
L 286.715664 320.766914 
L 288.438358 320.966933 
L 290.161053 321.00027 
L 291.883747 320.90026 
L 293.606441 321.00027 
L 295.329135 320.300202 
L 297.05183 320.500221 
L 300.497218 320.500221 
L 302.219912 320.533558 
L 303.942607 318.333344 
L 307.387995 318.099988 
L 309.110689 318.166661 
L 310.833383 317.966642 
L 312.556078 320.566894 
L 317.72416 349.93641 
L 319.446855 349.503035 
L 321.169549 349.269679 
L 322.892243 349.203006 
L 324.614937 348.802967 
L 334.951103 349.002986 
L 336.673797 348.636284 
L 340.119185 348.602948 
L 341.84188 348.602948 
L 343.564574 348.836303 
L 345.287268 348.802967 
L 347.009962 357.80384 
L 348.732657 367.604791 
L 350.455351 372.838632 
L 352.178045 372.27191 
L 353.900739 368.771571 
L 355.623434 366.538021 
L 357.346128 366.271328 
L 359.068822 358.637254 
L 360.791516 357.670494 
L 362.514211 357.403801 
L 364.236905 358.070533 
L 365.959599 358.270552 
L 367.682293 357.503811 
L 369.404987 355.136915 
L 371.127682 355.170251 
L 372.850376 357.337128 
L 374.57307 357.270455 
L 376.295764 357.337128 
L 378.018459 357.037099 
L 379.741153 357.203782 
L 381.463847 354.60353 
L 388.354624 315.733092 
L 390.077318 306.098824 
L 391.800013 305.065391 
L 393.522707 305.532102 
L 400.413484 305.498766 
L 403.858872 305.598776 
L 405.581566 306.098824 
L 409.026955 305.798795 
L 412.472343 305.798795 
L 414.195038 305.632112 
L 415.917732 296.631239 
L 417.640426 291.264052 
L 419.36312 295.864498 
L 421.085815 296.397883 
L 422.808509 299.164818 
L 424.531203 300.964993 
L 426.253897 301.165012 
L 427.976591 308.66574 
L 429.699286 309.465817 
L 431.42198 309.665837 
L 433.144674 309.6325 
L 434.867368 308.56573 
L 436.590063 309.432481 
L 438.312757 311.666031 
L 440.035451 311.732704 
L 441.758145 306.498863 
L 443.48084 305.832132 
L 445.203534 305.798795 
L 446.926228 301.365032 
L 448.648922 301.398368 
L 450.371617 309.165788 
L 458.985088 358.603918 
L 460.707782 359.904044 
L 462.430476 359.904044 
L 464.15317 360.03739 
L 469.321253 360.004054 
L 472.766642 359.904044 
L 474.489336 359.904044 
L 477.934724 360.23741 
L 481.380113 360.004054 
L 483.102807 360.204073 
L 484.825501 369.271619 
L 486.548195 374.538797 
L 488.27089 373.071988 
L 489.993584 372.671949 
L 491.716278 373.405354 
L 493.438972 373.972075 
L 496.884361 373.938739 
L 498.607055 374.205431 
L 500.329749 373.805392 
L 502.052444 373.872066 
L 503.775138 374.172095 
L 505.497832 374.005412 
L 507.220526 373.63871 
L 508.943221 373.43869 
L 510.665915 378.539185 
L 512.388609 379.205916 
L 514.111303 378.805878 
L 515.833997 383.43966 
L 517.556692 383.372987 
L 519.279386 385.539864 
L 521.00208 385.473191 
L 522.724774 385.67321 
L 524.447469 384.973143 
L 526.170163 385.006479 
L 529.615551 384.70645 
L 534.783634 384.60644 
L 536.506328 384.539767 
L 539.951717 384.639777 
L 541.674411 384.406421 
L 543.397105 384.306411 
L 546.842494 384.273075 
L 548.565188 383.906372 
L 550.287882 384.006382 
L 552.010576 383.906372 
L 553.733271 384.80646 
L 555.455965 382.839602 
L 557.178659 383.839699 
L 558.901353 384.339748 
L 560.624048 384.173065 
L 562.346742 384.139728 
L 564.069436 383.239641 
L 565.79213 382.872939 
L 567.514825 382.806266 
L 569.237519 383.272978 
L 570.960213 381.972851 
L 574.405602 382.072861 
L 576.128296 372.638613 
L 577.85099 372.871969 
L 581.296378 353.33674 
L 583.019073 353.703442 
L 584.741767 353.803452 
L 588.187155 333.968194 
L 589.90985 331.401279 
L 591.632544 331.401279 
L 593.355238 332.034674 
L 595.077932 331.901327 
L 596.800627 332.134683 
L 598.523321 331.901327 
L 600.246015 331.434615 
L 601.968709 331.534625 
L 608.859486 331.201259 
L 615.750263 331.134586 
L 617.472957 330.934567 
L 619.195652 330.567865 
L 620.918346 330.667874 
L 622.64104 329.467758 
L 624.363734 331.067913 
L 626.086429 331.567962 
L 627.809123 331.467952 
L 629.531817 331.601298 
L 631.254511 331.601298 
L 632.977206 332.568059 
L 636.422594 333.368136 
L 638.145288 333.3348 
L 639.867982 334.634926 
L 641.590677 334.134877 
L 643.313371 334.168214 
L 645.036065 341.968971 
L 646.758759 341.902297 
L 648.481454 351.469892 
L 650.204148 359.437332 
L 651.926842 359.470668 
L 653.649536 358.203879 
L 657.094925 377.772444 
L 658.817619 379.972657 
L 660.540313 379.939321 
L 662.263008 378.639195 
L 663.985702 378.0058 
L 665.708396 376.605664 
L 667.43109 376.872357 
L 669.153784 377.272395 
L 670.876479 377.005703 
L 672.599173 377.105713 
L 674.321867 376.772347 
L 676.044561 376.305635 
L 677.767256 376.538991 
L 682.935338 375.905596 
L 684.658033 375.87226 
L 686.380727 376.505654 
L 688.103421 376.772347 
L 689.826115 376.73901 
L 691.54881 372.538603 
L 693.271504 372.005218 
L 698.439586 371.971881 
L 700.162281 371.271813 
L 703.607669 371.138467 
L 708.775752 371.138467 
L 710.498446 372.305247 
L 712.22114 372.37192 
L 713.943835 374.438787 
L 715.666529 374.472124 
L 717.389223 374.872163 
L 719.111917 376.872357 
L 720.834612 376.872357 
L 722.557306 378.10581 
L 724.28 378.172483 
L 724.28 378.172483 
" style="fill:none;stroke:#1f77b4;stroke-linecap:square;stroke-width:1.5;"/>
   </g>
   <g id="line2d_16">
    <path clip-path="url(#p2c1a91708c)" d="M 104.110075 232.491683 
L 105.832769 234.691897 
L 107.555464 225.090965 
L 109.278158 216.79016 
L 111.000852 217.723584 
L 119.614323 168.71883 
L 123.059712 149.350284 
L 124.782406 150.017016 
L 128.227794 130.54846 
L 129.950489 121.647597 
L 136.841266 82.043755 
L 138.56396 82.043755 
L 140.286654 91.944715 
L 142.009348 91.944715 
L 147.177431 121.580924 
L 148.900125 122.180982 
L 150.62282 122.280992 
L 152.345514 132.148616 
L 157.513596 132.215289 
L 160.958985 152.01721 
L 162.681679 152.117219 
L 164.404373 153.550692 
L 173.017845 202.955485 
L 174.740539 201.788705 
L 176.463233 211.556319 
L 178.185927 220.523856 
L 179.908622 220.523856 
L 190.244787 279.896282 
L 191.967481 289.597223 
L 193.690175 289.563887 
L 195.41287 299.431511 
L 197.135564 299.431511 
L 204.026341 338.66865 
L 207.471729 338.601977 
L 209.194424 338.335285 
L 210.917118 348.269582 
L 212.639812 348.236245 
L 214.362506 348.402928 
L 216.085201 348.436265 
L 217.807895 338.468631 
L 221.253283 338.568641 
L 224.698672 358.337225 
L 226.421366 358.370562 
L 229.866754 338.568641 
L 231.589449 338.268612 
L 233.312143 338.135265 
L 236.757531 338.201938 
L 238.480226 338.401958 
L 240.20292 338.301948 
L 241.925614 338.401958 
L 243.648308 339.435391 
L 245.371003 339.602074 
L 247.093697 340.435489 
L 248.816391 330.601201 
L 250.539085 330.401182 
L 255.707168 300.864983 
L 257.429862 300.664964 
L 259.152556 290.69733 
L 260.875251 290.897349 
L 262.597945 290.730667 
L 264.320639 290.730667 
L 266.043333 300.664964 
L 267.766028 290.864013 
L 269.488722 290.897349 
L 271.211416 291.064032 
L 274.656805 291.030696 
L 278.102193 271.495467 
L 279.824887 270.762063 
L 281.547581 260.861102 
L 283.270276 260.861102 
L 284.99297 250.926805 
L 286.715664 250.926805 
L 290.161053 251.093488 
L 291.883747 250.826795 
L 293.606441 250.860132 
L 295.329135 240.925835 
L 298.774524 260.327717 
L 300.497218 260.661083 
L 302.219912 260.694419 
L 307.387995 230.824855 
L 309.110689 230.958201 
L 316.001466 191.487705 
L 317.72416 191.487705 
L 319.446855 181.720091 
L 324.614937 181.720091 
L 326.337632 172.01915 
L 331.505714 172.01915 
L 333.228409 162.151526 
L 334.951103 162.051516 
L 336.673797 171.91914 
L 338.396491 171.952477 
L 340.119185 162.01818 
L 341.84188 162.218199 
L 345.287268 182.02012 
L 347.009962 188.72077 
L 348.732657 185.353777 
L 350.455351 195.054718 
L 352.178045 194.854699 
L 353.900739 201.822041 
L 355.623434 211.723002 
L 357.346128 208.756047 
L 359.068822 206.522497 
L 362.514211 206.389151 
L 364.236905 209.689471 
L 365.959599 210.056173 
L 367.682293 200.221886 
L 369.404987 197.75498 
L 371.127682 197.821653 
L 372.850376 207.75595 
L 374.57307 213.556513 
L 376.295764 220.923894 
L 378.018459 220.890558 
L 379.741153 230.824855 
L 381.463847 230.824855 
L 383.186541 240.759152 
L 386.63193 240.759152 
L 388.354624 250.693449 
L 390.077318 259.927678 
L 393.522707 279.729599 
L 395.245401 279.729599 
L 396.968095 289.697233 
L 398.690789 289.597223 
L 400.413484 289.763906 
L 402.136178 299.73154 
L 405.581566 299.931559 
L 407.304261 299.664867 
L 409.026955 309.532491 
L 412.472343 309.532491 
L 414.195038 299.698203 
L 415.917732 292.997553 
L 417.640426 293.764294 
L 421.085815 294.164333 
L 422.808509 287.19699 
L 424.531203 277.29603 
L 426.253897 279.996292 
L 427.976591 282.229842 
L 429.699286 272.762257 
L 431.42198 272.595574 
L 433.144674 279.162878 
L 434.867368 269.228581 
L 436.590063 279.196214 
L 438.312757 281.729793 
L 440.035451 281.696457 
L 441.758145 271.76216 
L 443.48084 265.961597 
L 445.203534 268.128474 
L 446.926228 267.961791 
L 448.648922 267.995128 
L 450.371617 277.896088 
L 452.094311 277.896088 
L 455.539699 297.631336 
L 457.262393 297.431317 
L 458.985088 298.031375 
L 460.707782 298.131384 
L 462.430476 297.998038 
L 464.15317 307.965672 
L 465.875865 307.965672 
L 467.598559 306.932238 
L 471.043947 306.298844 
L 474.489336 306.298844 
L 476.21203 306.532199 
L 477.934724 306.598873 
L 481.380113 306.33218 
L 483.102807 316.266477 
L 484.825501 316.266477 
L 486.548195 309.665837 
L 489.993584 289.797243 
L 493.438972 289.797243 
L 496.884361 270.128668 
L 498.607055 270.128668 
L 502.052444 250.49343 
L 503.775138 250.49343 
L 508.943221 220.690538 
L 512.388609 220.690538 
L 515.833997 201.388666 
L 517.556692 191.421032 
L 519.279386 190.287589 
L 521.00208 190.320926 
L 522.724774 190.520945 
L 524.447469 190.220916 
L 526.170163 190.454272 
L 527.892857 190.520945 
L 529.615551 190.454272 
L 531.338246 190.587618 
L 534.783634 190.520945 
L 536.506328 191.621052 
L 538.229023 192.054427 
L 539.951717 192.254446 
L 541.674411 191.987754 
L 545.119799 191.954417 
L 548.565188 191.887744 
L 550.287882 191.987754 
L 552.010576 191.854408 
L 553.733271 201.655358 
L 557.178659 201.655358 
L 560.624048 221.557289 
L 567.514825 221.557289 
L 569.237519 231.524923 
L 572.682907 231.524923 
L 574.405602 241.425883 
L 576.128296 241.425883 
L 586.464461 301.131676 
L 588.187155 292.364158 
L 589.90985 292.230812 
L 591.632544 292.230812 
L 593.355238 292.397495 
L 598.523321 292.030793 
L 600.246015 291.697427 
L 601.968709 291.7641 
L 603.691404 291.66409 
L 608.859486 291.064032 
L 610.58218 291.264052 
L 620.918346 291.297388 
L 622.64104 281.496437 
L 624.363734 281.496437 
L 626.086429 290.830676 
L 629.531817 290.69733 
L 636.422594 330.301172 
L 638.145288 330.267835 
L 639.867982 340.202133 
L 641.590677 349.136333 
L 645.036065 349.169669 
L 646.758759 349.102996 
L 650.204148 329.234402 
L 655.372231 328.934373 
L 657.094925 338.735324 
L 658.817619 337.968583 
L 662.263008 337.8019 
L 663.985702 337.735227 
L 665.708396 327.934276 
L 667.43109 327.667583 
L 669.153784 327.934276 
L 670.876479 327.667583 
L 672.599173 327.767593 
L 676.044561 326.834169 
L 679.48995 327.000852 
L 681.212644 326.734159 
L 684.658033 326.600813 
L 693.271504 326.500803 
L 696.716892 307.298941 
L 700.162281 287.49702 
L 701.884975 286.596932 
L 707.053058 286.363576 
L 708.775752 276.429279 
L 710.498446 267.495079 
L 712.22114 267.09504 
L 713.943835 276.962664 
L 715.666529 276.929328 
L 719.111917 296.797922 
L 720.834612 296.831258 
L 724.28 296.697912 
L 724.28 296.697912 
" style="fill:none;stroke:#ff7f0e;stroke-linecap:square;stroke-width:1.5;"/>
   </g>
   <g id="line2d_17">
    <path clip-path="url(#p2c1a91708c)" d="M 104.110075 232.491683 
L 105.832769 234.691897 
L 107.555464 225.090965 
L 109.278158 216.79016 
L 111.000852 217.723584 
L 119.614323 168.71883 
L 123.059712 149.350284 
L 124.782406 150.017016 
L 128.227794 130.54846 
L 129.950489 121.647597 
L 136.841266 82.043755 
L 138.56396 82.043755 
L 140.286654 91.944715 
L 142.009348 91.944715 
L 147.177431 121.580924 
L 148.900125 122.180982 
L 150.62282 122.280992 
L 152.345514 132.148616 
L 157.513596 132.215289 
L 160.958985 152.01721 
L 162.681679 152.117219 
L 164.404373 153.550692 
L 173.017845 202.955485 
L 174.740539 201.788705 
L 176.463233 211.556319 
L 178.185927 220.523856 
L 179.908622 220.523856 
L 190.244787 279.829609 
L 191.967481 289.597223 
L 198.858258 289.563887 
L 202.303647 308.965769 
L 205.749035 308.965769 
L 207.471729 308.832423 
L 209.194424 308.865759 
L 210.917118 318.800056 
L 212.639812 318.833393 
L 214.362506 319.000076 
L 216.085201 318.900066 
L 217.807895 308.932432 
L 219.530589 308.999105 
L 221.253283 308.932432 
L 224.698672 328.701017 
L 226.421366 328.734353 
L 229.866754 308.932432 
L 231.589449 308.965769 
L 233.312143 308.832423 
L 236.757531 308.899096 
L 238.480226 309.099115 
L 240.20292 308.732413 
L 241.925614 308.832423 
L 243.648308 310.065876 
L 245.371003 300.298261 
L 247.093697 301.198349 
L 255.707168 251.860229 
L 257.429862 251.860229 
L 259.152556 241.892595 
L 260.875251 241.35921 
L 262.597945 231.424913 
L 267.766028 231.424913 
L 271.211416 212.023031 
L 274.656805 212.023031 
L 281.547581 172.352516 
L 283.270276 172.352516 
L 284.99297 172.485862 
L 288.438358 172.585872 
L 290.161053 172.752555 
L 291.883747 172.652545 
L 293.606441 172.685881 
L 295.329135 162.751584 
L 298.774524 182.420159 
L 300.497218 172.519199 
L 302.219912 172.585872 
L 307.387995 142.716307 
L 309.110689 143.116346 
L 312.556078 123.181079 
L 314.278772 123.181079 
L 316.001466 113.313455 
L 324.614937 113.313455 
L 326.337632 103.479168 
L 328.060326 103.479168 
L 329.78302 104.145899 
L 331.505714 114.046859 
L 336.673797 114.046859 
L 343.564574 153.817384 
L 350.455351 153.817384 
L 353.900739 133.915454 
L 355.623434 133.915454 
L 362.514211 94.278275 
L 364.236905 94.278275 
L 367.682293 74.6097 
L 369.404987 74.6097 
L 371.127682 64.742076 
L 376.295764 64.742076 
L 378.018459 54.774443 
L 390.077318 54.774443 
L 393.522707 74.443017 
L 396.968095 93.711553 
L 400.413484 73.909632 
L 402.136178 73.909632 
L 405.581566 93.444861 
L 410.749649 93.178168 
L 412.472343 93.011485 
L 414.195038 102.67909 
L 434.867368 102.67909 
L 436.590063 112.646724 
L 446.926228 112.646724 
L 450.371617 132.448645 
L 452.094311 132.448645 
L 458.985088 172.01915 
L 460.707782 172.052487 
L 462.430476 172.252506 
L 464.15317 172.785891 
L 465.875865 172.919237 
L 471.043947 202.355426 
L 472.766642 202.455436 
L 474.489336 192.621149 
L 479.657419 192.421129 
L 483.102807 172.952574 
L 503.775138 172.952574 
L 505.497832 162.98494 
L 515.833997 162.98494 
L 517.556692 153.017307 
L 519.279386 152.850624 
L 521.00208 162.818257 
L 522.724774 162.918267 
L 524.447469 162.651575 
L 526.170163 162.784921 
L 527.892857 162.784921 
L 529.615551 162.351546 
L 531.338246 162.351546 
L 533.06094 162.218199 
L 536.506328 162.251536 
L 539.951717 162.484892 
L 541.674411 162.451555 
L 543.397105 172.285843 
L 545.119799 172.452525 
L 548.565188 172.485862 
L 553.733271 202.088734 
L 557.178659 202.088734 
L 560.624048 221.923991 
L 567.514825 221.923991 
L 569.237519 231.891625 
L 572.682907 231.891625 
L 574.405602 241.759249 
L 576.128296 241.759249 
L 586.464461 301.265022 
L 588.187155 298.231394 
L 591.632544 298.164721 
L 593.355238 298.36474 
L 595.077932 298.064711 
L 596.800627 298.064711 
L 598.523321 298.431414 
L 600.246015 298.36474 
L 601.968709 298.498087 
L 607.136792 298.298067 
L 610.58218 298.398077 
L 620.918346 298.831452 
L 622.64104 288.863819 
L 626.086429 307.898999 
L 627.809123 297.931365 
L 629.531817 297.964702 
L 636.422594 337.235178 
L 638.145288 337.201841 
L 641.590677 356.570387 
L 643.313371 356.63706 
L 645.036065 366.338001 
L 646.758759 366.271328 
L 648.481454 366.071309 
L 655.372231 326.43413 
L 657.094925 319.800153 
L 670.876479 240.725815 
L 672.599173 240.825825 
L 676.044561 221.057241 
L 677.767256 221.190587 
L 689.826115 151.883863 
L 691.54881 161.718151 
L 693.271504 162.251536 
L 696.716892 162.218199 
L 703.607669 122.981059 
L 707.053058 122.981059 
L 710.498446 103.612514 
L 712.22114 103.479168 
L 715.666529 83.877266 
L 717.389223 84.143958 
L 719.111917 93.978246 
L 720.834612 93.978246 
L 722.557306 103.912543 
L 724.28 103.912543 
L 724.28 103.912543 
" style="fill:none;stroke:#2ca02c;stroke-linecap:square;stroke-width:1.5;"/>
   </g>
   <g id="line2d_18">
    <path clip-path="url(#p2c1a91708c)" d="M 104.110075 382.039525 
L 105.832769 383.106295 
L 111.000852 354.336837 
L 114.446241 355.036905 
L 116.168935 345.169281 
L 117.891629 344.935925 
L 121.337018 325.200677 
L 124.782406 325.767399 
L 126.5051 325.567379 
L 128.227794 326.200774 
L 129.950489 326.334121 
L 133.395877 325.434033 
L 135.118571 325.400697 
L 136.841266 325.167341 
L 138.56396 325.234014 
L 145.454737 286.763615 
L 154.068208 238.625612 
L 155.790902 229.391383 
L 167.849762 160.718054 
L 173.017845 131.215192 
L 174.740539 122.447674 
L 179.908622 122.447674 
L 183.35401 102.612417 
L 185.076704 102.612417 
L 186.799398 92.878139 
L 190.244787 92.878139 
L 198.858258 43.640029 
L 202.303647 44.473443 
L 204.026341 43.906722 
L 205.749035 43.773375 
L 207.471729 43.34 
L 209.194424 52.574229 
L 226.421366 151.383815 
L 231.589449 180.820004 
L 243.648308 250.29341 
L 245.371003 258.860908 
L 267.766028 386.173259 
L 271.211416 386.073249 
L 272.93411 386.573298 
L 274.656805 386.673307 
L 276.379499 386.94 
L 279.824887 386.273269 
L 283.270276 386.173259 
L 286.715664 386.139922 
L 288.438358 386.439951 
L 290.161053 386.473288 
L 291.883747 386.373278 
L 293.606441 386.406615 
L 295.329135 385.739884 
L 302.219912 385.77322 
L 303.942607 385.039816 
L 307.387995 384.673113 
L 309.110689 384.739787 
L 310.833383 384.639777 
L 312.556078 381.739495 
L 314.278772 383.039622 
L 316.001466 383.072958 
L 317.72416 383.472997 
L 319.446855 383.306314 
L 322.892243 383.406324 
L 324.614937 383.53967 
L 328.060326 383.63968 
L 333.228409 383.806363 
L 336.673797 383.773026 
L 341.84188 383.973046 
L 343.564574 384.339748 
L 345.287268 384.306411 
L 347.009962 377.705771 
L 348.732657 377.839117 
L 350.455351 367.971493 
L 352.178045 367.738137 
L 353.900739 357.80384 
L 355.623434 357.870513 
L 357.346128 357.770504 
L 359.068822 357.303792 
L 360.791516 357.437138 
L 362.514211 357.237118 
L 364.236905 357.870513 
L 365.959599 358.103869 
L 367.682293 348.236245 
L 369.404987 347.636187 
L 371.127682 347.502841 
L 372.850376 348.036226 
L 374.57307 348.036226 
L 376.295764 348.169572 
L 379.741153 348.202909 
L 381.463847 341.20223 
L 386.63193 341.302239 
L 388.354624 341.702278 
L 390.077318 341.468922 
L 393.522707 341.668941 
L 400.413484 340.9022 
L 403.858872 340.935537 
L 405.581566 340.935537 
L 407.304261 340.802191 
L 414.195038 341.00221 
L 415.917732 345.869349 
L 417.640426 345.936022 
L 419.36312 355.836983 
L 421.085815 356.070339 
L 422.808509 364.6045 
L 426.253897 364.071115 
L 427.976591 364.537827 
L 429.699286 364.171124 
L 433.144674 364.337807 
L 434.867368 364.137788 
L 436.590063 374.105422 
L 438.312757 374.738816 
L 440.035451 374.938836 
L 441.758145 374.572134 
L 443.48084 374.572134 
L 446.926228 374.105422 
L 448.648922 374.138758 
L 450.371617 380.706062 
L 453.817005 380.639389 
L 455.539699 380.706062 
L 457.262393 380.439369 
L 458.985088 380.706062 
L 464.15317 381.072764 
L 465.875865 381.372793 
L 469.321253 381.239447 
L 472.766642 381.339457 
L 476.21203 381.472803 
L 477.934724 381.572813 
L 483.102807 381.272784 
L 484.825501 382.939612 
L 486.548195 382.939612 
L 489.993584 382.039525 
L 491.716278 383.43966 
L 493.438972 383.706353 
L 495.161667 383.272978 
L 496.884361 383.072958 
L 498.607055 383.372987 
L 500.329749 381.872842 
L 503.775138 381.839505 
L 505.497832 381.539476 
L 508.943221 381.50614 
L 510.665915 381.672822 
L 512.388609 381.472803 
L 514.111303 381.606149 
L 515.833997 381.606149 
L 517.556692 381.339457 
L 519.279386 374.772153 
L 522.724774 355.003568 
L 524.447469 354.60353 
L 526.170163 354.903559 
L 527.892857 354.970232 
L 533.06094 354.836886 
L 534.783634 354.836886 
L 538.229023 355.336934 
L 548.565188 355.136915 
L 550.287882 355.236924 
L 552.010576 355.170251 
L 553.733271 356.303695 
L 555.455965 353.770115 
L 557.178659 353.803452 
L 558.901353 354.236827 
L 560.624048 354.103481 
L 562.346742 353.670106 
L 564.069436 353.770115 
L 565.79213 353.670106 
L 567.514825 353.770115 
L 569.237519 355.336934 
L 570.960213 355.170251 
L 574.405602 355.303598 
L 576.128296 355.203588 
L 579.573684 355.370271 
L 581.296378 355.736973 
L 586.464461 356.337031 
L 591.632544 385.806557 
L 593.355238 386.073249 
L 596.800627 385.939903 
L 600.246015 385.573201 
L 601.968709 385.639874 
L 610.58218 385.173162 
L 612.304875 384.839796 
L 614.027569 383.606343 
L 615.750263 383.406324 
L 617.472957 383.372987 
L 619.195652 382.939612 
L 620.918346 383.172968 
L 622.64104 373.205334 
L 624.363734 365.937963 
L 627.809123 346.502744 
L 631.254511 327.200871 
L 634.6999 308.299038 
L 636.422594 308.499057 
L 638.145288 308.46572 
L 641.590677 288.930492 
L 643.313371 289.163848 
L 645.036065 279.32956 
L 655.372231 278.429473 
L 657.094925 272.262208 
L 658.817619 271.795496 
L 662.263008 271.66215 
L 663.985702 271.395457 
L 665.708396 271.328784 
L 667.43109 271.528804 
L 669.153784 271.495467 
L 670.876479 270.995419 
L 672.599173 271.095428 
L 674.321867 270.962082 
L 676.044561 270.662053 
L 681.212644 271.195438 
L 682.935338 272.328881 
L 686.380727 272.362218 
L 688.103421 272.662247 
L 689.826115 272.62891 
L 691.54881 280.129638 
L 701.884975 337.868573 
L 703.607669 347.769533 
L 705.330363 347.669524 
L 707.053058 347.70286 
L 710.498446 367.338098 
L 712.22114 367.271425 
L 713.943835 377.139049 
L 715.666529 377.272395 
L 717.389223 377.805781 
L 719.111917 377.90579 
L 722.557306 377.939127 
L 724.28 378.072473 
L 724.28 378.072473 
" style="fill:none;stroke:#d62728;stroke-linecap:square;stroke-width:1.5;"/>
   </g>
   <g id="patch_3">
    <path d="M 36.925 404.12 
L 36.925 26.16 
" style="fill:none;stroke:#000000;stroke-linecap:square;stroke-linejoin:miter;stroke-width:0.8;"/>
   </g>
   <g id="patch_4">
    <path d="M 724.28 404.12 
L 724.28 26.16 
" style="fill:none;stroke:#000000;stroke-linecap:square;stroke-linejoin:miter;stroke-width:0.8;"/>
   </g>
   <g id="patch_5">
    <path d="M 36.925 404.12 
L 724.28 404.12 
" style="fill:none;stroke:#000000;stroke-linecap:square;stroke-linejoin:miter;stroke-width:0.8;"/>
   </g>
   <g id="patch_6">
    <path d="M 36.925 26.16 
L 724.28 26.16 
" style="fill:none;stroke:#000000;stroke-linecap:square;stroke-linejoin:miter;stroke-width:0.8;"/>
   </g>
   <g id="text_15">
    <!-- gridworld_5x5_20_1_20_1337__4-8: episode duration, steps, MA=40 -->
    <defs>
     <path d="M 45.40625 27.984375 
Q 45.40625 37.75 41.375 43.109375 
Q 37.359375 48.484375 30.078125 48.484375 
Q 22.859375 48.484375 18.828125 43.109375 
Q 14.796875 37.75 14.796875 27.984375 
Q 14.796875 18.265625 18.828125 12.890625 
Q 22.859375 7.515625 30.078125 7.515625 
Q 37.359375 7.515625 41.375 12.890625 
Q 45.40625 18.265625 45.40625 27.984375 
z
M 54.390625 6.78125 
Q 54.390625 -7.171875 48.1875 -13.984375 
Q 42 -20.796875 29.203125 -20.796875 
Q 24.46875 -20.796875 20.265625 -20.09375 
Q 16.0625 -19.390625 12.109375 -17.921875 
L 12.109375 -9.1875 
Q 16.0625 -11.328125 19.921875 -12.34375 
Q 23.78125 -13.375 27.78125 -13.375 
Q 36.625 -13.375 41.015625 -8.765625 
Q 45.40625 -4.15625 45.40625 5.171875 
L 45.40625 9.625 
Q 42.625 4.78125 38.28125 2.390625 
Q 33.9375 0 27.875 0 
Q 17.828125 0 11.671875 7.65625 
Q 5.515625 15.328125 5.515625 27.984375 
Q 5.515625 40.671875 11.671875 48.328125 
Q 17.828125 56 27.875 56 
Q 33.9375 56 38.28125 53.609375 
Q 42.625 51.21875 45.40625 46.390625 
L 45.40625 54.6875 
L 54.390625 54.6875 
z
" id="DejaVuSans-103"/>
     <path d="M 41.109375 46.296875 
Q 39.59375 47.171875 37.8125 47.578125 
Q 36.03125 48 33.890625 48 
Q 26.265625 48 22.1875 43.046875 
Q 18.109375 38.09375 18.109375 28.8125 
L 18.109375 0 
L 9.078125 0 
L 9.078125 54.6875 
L 18.109375 54.6875 
L 18.109375 46.1875 
Q 20.953125 51.171875 25.484375 53.578125 
Q 30.03125 56 36.53125 56 
Q 37.453125 56 38.578125 55.875 
Q 39.703125 55.765625 41.0625 55.515625 
z
" id="DejaVuSans-114"/>
     <path d="M 9.421875 54.6875 
L 18.40625 54.6875 
L 18.40625 0 
L 9.421875 0 
z
M 9.421875 75.984375 
L 18.40625 75.984375 
L 18.40625 64.59375 
L 9.421875 64.59375 
z
" id="DejaVuSans-105"/>
     <path d="M 45.40625 46.390625 
L 45.40625 75.984375 
L 54.390625 75.984375 
L 54.390625 0 
L 45.40625 0 
L 45.40625 8.203125 
Q 42.578125 3.328125 38.25 0.953125 
Q 33.9375 -1.421875 27.875 -1.421875 
Q 17.96875 -1.421875 11.734375 6.484375 
Q 5.515625 14.40625 5.515625 27.296875 
Q 5.515625 40.1875 11.734375 48.09375 
Q 17.96875 56 27.875 56 
Q 33.9375 56 38.25 53.625 
Q 42.578125 51.265625 45.40625 46.390625 
z
M 14.796875 27.296875 
Q 14.796875 17.390625 18.875 11.75 
Q 22.953125 6.109375 30.078125 6.109375 
Q 37.203125 6.109375 41.296875 11.75 
Q 45.40625 17.390625 45.40625 27.296875 
Q 45.40625 37.203125 41.296875 42.84375 
Q 37.203125 48.484375 30.078125 48.484375 
Q 22.953125 48.484375 18.875 42.84375 
Q 14.796875 37.203125 14.796875 27.296875 
z
" id="DejaVuSans-100"/>
     <path d="M 4.203125 54.6875 
L 13.1875 54.6875 
L 24.421875 12.015625 
L 35.59375 54.6875 
L 46.1875 54.6875 
L 57.421875 12.015625 
L 68.609375 54.6875 
L 77.59375 54.6875 
L 63.28125 0 
L 52.6875 0 
L 40.921875 44.828125 
L 29.109375 0 
L 18.5 0 
z
" id="DejaVuSans-119"/>
     <path d="M 30.609375 48.390625 
Q 23.390625 48.390625 19.1875 42.75 
Q 14.984375 37.109375 14.984375 27.296875 
Q 14.984375 17.484375 19.15625 11.84375 
Q 23.34375 6.203125 30.609375 6.203125 
Q 37.796875 6.203125 41.984375 11.859375 
Q 46.1875 17.53125 46.1875 27.296875 
Q 46.1875 37.015625 41.984375 42.703125 
Q 37.796875 48.390625 30.609375 48.390625 
z
M 30.609375 56 
Q 42.328125 56 49.015625 48.375 
Q 55.71875 40.765625 55.71875 27.296875 
Q 55.71875 13.875 49.015625 6.21875 
Q 42.328125 -1.421875 30.609375 -1.421875 
Q 18.84375 -1.421875 12.171875 6.21875 
Q 5.515625 13.875 5.515625 27.296875 
Q 5.515625 40.765625 12.171875 48.375 
Q 18.84375 56 30.609375 56 
z
" id="DejaVuSans-111"/>
     <path d="M 9.421875 75.984375 
L 18.40625 75.984375 
L 18.40625 0 
L 9.421875 0 
z
" id="DejaVuSans-108"/>
     <path d="M 50.984375 -16.609375 
L 50.984375 -23.578125 
L -0.984375 -23.578125 
L -0.984375 -16.609375 
z
" id="DejaVuSans-95"/>
     <path d="M 54.890625 54.6875 
L 35.109375 28.078125 
L 55.90625 0 
L 45.3125 0 
L 29.390625 21.484375 
L 13.484375 0 
L 2.875 0 
L 24.125 28.609375 
L 4.6875 54.6875 
L 15.28125 54.6875 
L 29.78125 35.203125 
L 44.28125 54.6875 
z
" id="DejaVuSans-120"/>
     <path d="M 8.203125 72.90625 
L 55.078125 72.90625 
L 55.078125 68.703125 
L 28.609375 0 
L 18.3125 0 
L 43.21875 64.59375 
L 8.203125 64.59375 
z
" id="DejaVuSans-55"/>
     <path d="M 37.796875 64.3125 
L 12.890625 25.390625 
L 37.796875 25.390625 
z
M 35.203125 72.90625 
L 47.609375 72.90625 
L 47.609375 25.390625 
L 58.015625 25.390625 
L 58.015625 17.1875 
L 47.609375 17.1875 
L 47.609375 0 
L 37.796875 0 
L 37.796875 17.1875 
L 4.890625 17.1875 
L 4.890625 26.703125 
z
" id="DejaVuSans-52"/>
     <path d="M 4.890625 31.390625 
L 31.203125 31.390625 
L 31.203125 23.390625 
L 4.890625 23.390625 
z
" id="DejaVuSans-45"/>
     <path d="M 31.78125 34.625 
Q 24.75 34.625 20.71875 30.859375 
Q 16.703125 27.09375 16.703125 20.515625 
Q 16.703125 13.921875 20.71875 10.15625 
Q 24.75 6.390625 31.78125 6.390625 
Q 38.8125 6.390625 42.859375 10.171875 
Q 46.921875 13.96875 46.921875 20.515625 
Q 46.921875 27.09375 42.890625 30.859375 
Q 38.875 34.625 31.78125 34.625 
z
M 21.921875 38.8125 
Q 15.578125 40.375 12.03125 44.71875 
Q 8.5 49.078125 8.5 55.328125 
Q 8.5 64.0625 14.71875 69.140625 
Q 20.953125 74.21875 31.78125 74.21875 
Q 42.671875 74.21875 48.875 69.140625 
Q 55.078125 64.0625 55.078125 55.328125 
Q 55.078125 49.078125 51.53125 44.71875 
Q 48 40.375 41.703125 38.8125 
Q 48.828125 37.15625 52.796875 32.3125 
Q 56.78125 27.484375 56.78125 20.515625 
Q 56.78125 9.90625 50.3125 4.234375 
Q 43.84375 -1.421875 31.78125 -1.421875 
Q 19.734375 -1.421875 13.25 4.234375 
Q 6.78125 9.90625 6.78125 20.515625 
Q 6.78125 27.484375 10.78125 32.3125 
Q 14.796875 37.15625 21.921875 38.8125 
z
M 18.3125 54.390625 
Q 18.3125 48.734375 21.84375 45.5625 
Q 25.390625 42.390625 31.78125 42.390625 
Q 38.140625 42.390625 41.71875 45.5625 
Q 45.3125 48.734375 45.3125 54.390625 
Q 45.3125 60.0625 41.71875 63.234375 
Q 38.140625 66.40625 31.78125 66.40625 
Q 25.390625 66.40625 21.84375 63.234375 
Q 18.3125 60.0625 18.3125 54.390625 
z
" id="DejaVuSans-56"/>
     <path d="M 11.71875 12.40625 
L 22.015625 12.40625 
L 22.015625 0 
L 11.71875 0 
z
M 11.71875 51.703125 
L 22.015625 51.703125 
L 22.015625 39.3125 
L 11.71875 39.3125 
z
" id="DejaVuSans-58"/>
     <path id="DejaVuSans-32"/>
     <path d="M 56.203125 29.59375 
L 56.203125 25.203125 
L 14.890625 25.203125 
Q 15.484375 15.921875 20.484375 11.0625 
Q 25.484375 6.203125 34.421875 6.203125 
Q 39.59375 6.203125 44.453125 7.46875 
Q 49.3125 8.734375 54.109375 11.28125 
L 54.109375 2.78125 
Q 49.265625 0.734375 44.1875 -0.34375 
Q 39.109375 -1.421875 33.890625 -1.421875 
Q 20.796875 -1.421875 13.15625 6.1875 
Q 5.515625 13.8125 5.515625 26.8125 
Q 5.515625 40.234375 12.765625 48.109375 
Q 20.015625 56 32.328125 56 
Q 43.359375 56 49.78125 48.890625 
Q 56.203125 41.796875 56.203125 29.59375 
z
M 47.21875 32.234375 
Q 47.125 39.59375 43.09375 43.984375 
Q 39.0625 48.390625 32.421875 48.390625 
Q 24.90625 48.390625 20.390625 44.140625 
Q 15.875 39.890625 15.1875 32.171875 
z
" id="DejaVuSans-101"/>
     <path d="M 18.109375 8.203125 
L 18.109375 -20.796875 
L 9.078125 -20.796875 
L 9.078125 54.6875 
L 18.109375 54.6875 
L 18.109375 46.390625 
Q 20.953125 51.265625 25.265625 53.625 
Q 29.59375 56 35.59375 56 
Q 45.5625 56 51.78125 48.09375 
Q 58.015625 40.1875 58.015625 27.296875 
Q 58.015625 14.40625 51.78125 6.484375 
Q 45.5625 -1.421875 35.59375 -1.421875 
Q 29.59375 -1.421875 25.265625 0.953125 
Q 20.953125 3.328125 18.109375 8.203125 
z
M 48.6875 27.296875 
Q 48.6875 37.203125 44.609375 42.84375 
Q 40.53125 48.484375 33.40625 48.484375 
Q 26.265625 48.484375 22.1875 42.84375 
Q 18.109375 37.203125 18.109375 27.296875 
Q 18.109375 17.390625 22.1875 11.75 
Q 26.265625 6.109375 33.40625 6.109375 
Q 40.53125 6.109375 44.609375 11.75 
Q 48.6875 17.390625 48.6875 27.296875 
z
" id="DejaVuSans-112"/>
     <path d="M 44.28125 53.078125 
L 44.28125 44.578125 
Q 40.484375 46.53125 36.375 47.5 
Q 32.28125 48.484375 27.875 48.484375 
Q 21.1875 48.484375 17.84375 46.4375 
Q 14.5 44.390625 14.5 40.28125 
Q 14.5 37.15625 16.890625 35.375 
Q 19.28125 33.59375 26.515625 31.984375 
L 29.59375 31.296875 
Q 39.15625 29.25 43.1875 25.515625 
Q 47.21875 21.78125 47.21875 15.09375 
Q 47.21875 7.46875 41.1875 3.015625 
Q 35.15625 -1.421875 24.609375 -1.421875 
Q 20.21875 -1.421875 15.453125 -0.5625 
Q 10.6875 0.296875 5.421875 2 
L 5.421875 11.28125 
Q 10.40625 8.6875 15.234375 7.390625 
Q 20.0625 6.109375 24.8125 6.109375 
Q 31.15625 6.109375 34.5625 8.28125 
Q 37.984375 10.453125 37.984375 14.40625 
Q 37.984375 18.0625 35.515625 20.015625 
Q 33.0625 21.96875 24.703125 23.78125 
L 21.578125 24.515625 
Q 13.234375 26.265625 9.515625 29.90625 
Q 5.8125 33.546875 5.8125 39.890625 
Q 5.8125 47.609375 11.28125 51.796875 
Q 16.75 56 26.8125 56 
Q 31.78125 56 36.171875 55.265625 
Q 40.578125 54.546875 44.28125 53.078125 
z
" id="DejaVuSans-115"/>
     <path d="M 8.5 21.578125 
L 8.5 54.6875 
L 17.484375 54.6875 
L 17.484375 21.921875 
Q 17.484375 14.15625 20.5 10.265625 
Q 23.53125 6.390625 29.59375 6.390625 
Q 36.859375 6.390625 41.078125 11.03125 
Q 45.3125 15.671875 45.3125 23.6875 
L 45.3125 54.6875 
L 54.296875 54.6875 
L 54.296875 0 
L 45.3125 0 
L 45.3125 8.40625 
Q 42.046875 3.421875 37.71875 1 
Q 33.40625 -1.421875 27.6875 -1.421875 
Q 18.265625 -1.421875 13.375 4.4375 
Q 8.5 10.296875 8.5 21.578125 
z
M 31.109375 56 
z
" id="DejaVuSans-117"/>
     <path d="M 34.28125 27.484375 
Q 23.390625 27.484375 19.1875 25 
Q 14.984375 22.515625 14.984375 16.5 
Q 14.984375 11.71875 18.140625 8.90625 
Q 21.296875 6.109375 26.703125 6.109375 
Q 34.1875 6.109375 38.703125 11.40625 
Q 43.21875 16.703125 43.21875 25.484375 
L 43.21875 27.484375 
z
M 52.203125 31.203125 
L 52.203125 0 
L 43.21875 0 
L 43.21875 8.296875 
Q 40.140625 3.328125 35.546875 0.953125 
Q 30.953125 -1.421875 24.3125 -1.421875 
Q 15.921875 -1.421875 10.953125 3.296875 
Q 6 8.015625 6 15.921875 
Q 6 25.140625 12.171875 29.828125 
Q 18.359375 34.515625 30.609375 34.515625 
L 43.21875 34.515625 
L 43.21875 35.40625 
Q 43.21875 41.609375 39.140625 45 
Q 35.0625 48.390625 27.6875 48.390625 
Q 23 48.390625 18.546875 47.265625 
Q 14.109375 46.140625 10.015625 43.890625 
L 10.015625 52.203125 
Q 14.9375 54.109375 19.578125 55.046875 
Q 24.21875 56 28.609375 56 
Q 40.484375 56 46.34375 49.84375 
Q 52.203125 43.703125 52.203125 31.203125 
z
" id="DejaVuSans-97"/>
     <path d="M 18.3125 70.21875 
L 18.3125 54.6875 
L 36.8125 54.6875 
L 36.8125 47.703125 
L 18.3125 47.703125 
L 18.3125 18.015625 
Q 18.3125 11.328125 20.140625 9.421875 
Q 21.96875 7.515625 27.59375 7.515625 
L 36.8125 7.515625 
L 36.8125 0 
L 27.59375 0 
Q 17.1875 0 13.234375 3.875 
Q 9.28125 7.765625 9.28125 18.015625 
L 9.28125 47.703125 
L 2.6875 47.703125 
L 2.6875 54.6875 
L 9.28125 54.6875 
L 9.28125 70.21875 
z
" id="DejaVuSans-116"/>
     <path d="M 54.890625 33.015625 
L 54.890625 0 
L 45.90625 0 
L 45.90625 32.71875 
Q 45.90625 40.484375 42.875 44.328125 
Q 39.84375 48.1875 33.796875 48.1875 
Q 26.515625 48.1875 22.3125 43.546875 
Q 18.109375 38.921875 18.109375 30.90625 
L 18.109375 0 
L 9.078125 0 
L 9.078125 54.6875 
L 18.109375 54.6875 
L 18.109375 46.1875 
Q 21.34375 51.125 25.703125 53.5625 
Q 30.078125 56 35.796875 56 
Q 45.21875 56 50.046875 50.171875 
Q 54.890625 44.34375 54.890625 33.015625 
z
" id="DejaVuSans-110"/>
     <path d="M 11.71875 12.40625 
L 22.015625 12.40625 
L 22.015625 4 
L 14.015625 -11.625 
L 7.71875 -11.625 
L 11.71875 4 
z
" id="DejaVuSans-44"/>
     <path d="M 9.8125 72.90625 
L 24.515625 72.90625 
L 43.109375 23.296875 
L 61.8125 72.90625 
L 76.515625 72.90625 
L 76.515625 0 
L 66.890625 0 
L 66.890625 64.015625 
L 48.09375 14.015625 
L 38.1875 14.015625 
L 19.390625 64.015625 
L 19.390625 0 
L 9.8125 0 
z
" id="DejaVuSans-77"/>
     <path d="M 34.1875 63.1875 
L 20.796875 26.90625 
L 47.609375 26.90625 
z
M 28.609375 72.90625 
L 39.796875 72.90625 
L 67.578125 0 
L 57.328125 0 
L 50.6875 18.703125 
L 17.828125 18.703125 
L 11.1875 0 
L 0.78125 0 
z
" id="DejaVuSans-65"/>
     <path d="M 10.59375 45.40625 
L 73.1875 45.40625 
L 73.1875 37.203125 
L 10.59375 37.203125 
z
M 10.59375 25.484375 
L 73.1875 25.484375 
L 73.1875 17.1875 
L 10.59375 17.1875 
z
" id="DejaVuSans-61"/>
    </defs>
    <g transform="translate(175.7625 20.16)scale(0.12 -0.12)">
     <use xlink:href="#DejaVuSans-103"/>
     <use x="63.476562" xlink:href="#DejaVuSans-114"/>
     <use x="104.589844" xlink:href="#DejaVuSans-105"/>
     <use x="132.373047" xlink:href="#DejaVuSans-100"/>
     <use x="195.849609" xlink:href="#DejaVuSans-119"/>
     <use x="277.636719" xlink:href="#DejaVuSans-111"/>
     <use x="338.818359" xlink:href="#DejaVuSans-114"/>
     <use x="379.931641" xlink:href="#DejaVuSans-108"/>
     <use x="407.714844" xlink:href="#DejaVuSans-100"/>
     <use x="471.191406" xlink:href="#DejaVuSans-95"/>
     <use x="521.191406" xlink:href="#DejaVuSans-53"/>
     <use x="584.814453" xlink:href="#DejaVuSans-120"/>
     <use x="643.994141" xlink:href="#DejaVuSans-53"/>
     <use x="707.617188" xlink:href="#DejaVuSans-95"/>
     <use x="757.617188" xlink:href="#DejaVuSans-50"/>
     <use x="821.240234" xlink:href="#DejaVuSans-48"/>
     <use x="884.863281" xlink:href="#DejaVuSans-95"/>
     <use x="934.863281" xlink:href="#DejaVuSans-49"/>
     <use x="998.486328" xlink:href="#DejaVuSans-95"/>
     <use x="1048.486328" xlink:href="#DejaVuSans-50"/>
     <use x="1112.109375" xlink:href="#DejaVuSans-48"/>
     <use x="1175.732422" xlink:href="#DejaVuSans-95"/>
     <use x="1225.732422" xlink:href="#DejaVuSans-49"/>
     <use x="1289.355469" xlink:href="#DejaVuSans-51"/>
     <use x="1352.978516" xlink:href="#DejaVuSans-51"/>
     <use x="1416.601562" xlink:href="#DejaVuSans-55"/>
     <use x="1480.224609" xlink:href="#DejaVuSans-95"/>
     <use x="1530.224609" xlink:href="#DejaVuSans-95"/>
     <use x="1580.224609" xlink:href="#DejaVuSans-52"/>
     <use x="1643.847656" xlink:href="#DejaVuSans-45"/>
     <use x="1679.931641" xlink:href="#DejaVuSans-56"/>
     <use x="1743.554688" xlink:href="#DejaVuSans-58"/>
     <use x="1777.246094" xlink:href="#DejaVuSans-32"/>
     <use x="1809.033203" xlink:href="#DejaVuSans-101"/>
     <use x="1870.556641" xlink:href="#DejaVuSans-112"/>
     <use x="1934.033203" xlink:href="#DejaVuSans-105"/>
     <use x="1961.816406" xlink:href="#DejaVuSans-115"/>
     <use x="2013.916016" xlink:href="#DejaVuSans-111"/>
     <use x="2075.097656" xlink:href="#DejaVuSans-100"/>
     <use x="2138.574219" xlink:href="#DejaVuSans-101"/>
     <use x="2200.097656" xlink:href="#DejaVuSans-32"/>
     <use x="2231.884766" xlink:href="#DejaVuSans-100"/>
     <use x="2295.361328" xlink:href="#DejaVuSans-117"/>
     <use x="2358.740234" xlink:href="#DejaVuSans-114"/>
     <use x="2399.853516" xlink:href="#DejaVuSans-97"/>
     <use x="2461.132812" xlink:href="#DejaVuSans-116"/>
     <use x="2500.341797" xlink:href="#DejaVuSans-105"/>
     <use x="2528.125" xlink:href="#DejaVuSans-111"/>
     <use x="2589.306641" xlink:href="#DejaVuSans-110"/>
     <use x="2652.685547" xlink:href="#DejaVuSans-44"/>
     <use x="2684.472656" xlink:href="#DejaVuSans-32"/>
     <use x="2716.259766" xlink:href="#DejaVuSans-115"/>
     <use x="2768.359375" xlink:href="#DejaVuSans-116"/>
     <use x="2807.568359" xlink:href="#DejaVuSans-101"/>
     <use x="2869.091797" xlink:href="#DejaVuSans-112"/>
     <use x="2932.568359" xlink:href="#DejaVuSans-115"/>
     <use x="2984.667969" xlink:href="#DejaVuSans-44"/>
     <use x="3016.455078" xlink:href="#DejaVuSans-32"/>
     <use x="3048.242188" xlink:href="#DejaVuSans-77"/>
     <use x="3134.521484" xlink:href="#DejaVuSans-65"/>
     <use x="3202.929688" xlink:href="#DejaVuSans-61"/>
     <use x="3286.71875" xlink:href="#DejaVuSans-52"/>
     <use x="3350.341797" xlink:href="#DejaVuSans-48"/>
    </g>
   </g>
   <g id="legend_1">
    <g id="patch_7">
     <path d="M 767.316625 246.5525 
L 854.751 246.5525 
Q 856.751 246.5525 856.751 244.5525 
L 856.751 185.7275 
Q 856.751 183.7275 854.751 183.7275 
L 767.316625 183.7275 
Q 765.316625 183.7275 765.316625 185.7275 
L 765.316625 244.5525 
Q 765.316625 246.5525 767.316625 246.5525 
z
" style="fill:#ffffff;opacity:0.8;stroke:#cccccc;stroke-linejoin:miter;"/>
    </g>
    <g id="line2d_19">
     <path d="M 769.316625 191.825937 
L 789.316625 191.825937 
" style="fill:none;stroke:#1f77b4;stroke-linecap:square;stroke-width:1.5;"/>
    </g>
    <g id="line2d_20"/>
    <g id="text_16">
     <!-- htm_4_1g -->
     <defs>
      <path d="M 54.890625 33.015625 
L 54.890625 0 
L 45.90625 0 
L 45.90625 32.71875 
Q 45.90625 40.484375 42.875 44.328125 
Q 39.84375 48.1875 33.796875 48.1875 
Q 26.515625 48.1875 22.3125 43.546875 
Q 18.109375 38.921875 18.109375 30.90625 
L 18.109375 0 
L 9.078125 0 
L 9.078125 75.984375 
L 18.109375 75.984375 
L 18.109375 46.1875 
Q 21.34375 51.125 25.703125 53.5625 
Q 30.078125 56 35.796875 56 
Q 45.21875 56 50.046875 50.171875 
Q 54.890625 44.34375 54.890625 33.015625 
z
" id="DejaVuSans-104"/>
      <path d="M 52 44.1875 
Q 55.375 50.25 60.0625 53.125 
Q 64.75 56 71.09375 56 
Q 79.640625 56 84.28125 50.015625 
Q 88.921875 44.046875 88.921875 33.015625 
L 88.921875 0 
L 79.890625 0 
L 79.890625 32.71875 
Q 79.890625 40.578125 77.09375 44.375 
Q 74.3125 48.1875 68.609375 48.1875 
Q 61.625 48.1875 57.5625 43.546875 
Q 53.515625 38.921875 53.515625 30.90625 
L 53.515625 0 
L 44.484375 0 
L 44.484375 32.71875 
Q 44.484375 40.625 41.703125 44.40625 
Q 38.921875 48.1875 33.109375 48.1875 
Q 26.21875 48.1875 22.15625 43.53125 
Q 18.109375 38.875 18.109375 30.90625 
L 18.109375 0 
L 9.078125 0 
L 9.078125 54.6875 
L 18.109375 54.6875 
L 18.109375 46.1875 
Q 21.1875 51.21875 25.484375 53.609375 
Q 29.78125 56 35.6875 56 
Q 41.65625 56 45.828125 52.96875 
Q 50 49.953125 52 44.1875 
z
" id="DejaVuSans-109"/>
     </defs>
     <g transform="translate(797.316625 195.325937)scale(0.1 -0.1)">
      <use xlink:href="#DejaVuSans-104"/>
      <use x="63.378906" xlink:href="#DejaVuSans-116"/>
      <use x="102.587891" xlink:href="#DejaVuSans-109"/>
      <use x="200" xlink:href="#DejaVuSans-95"/>
      <use x="250" xlink:href="#DejaVuSans-52"/>
      <use x="313.623047" xlink:href="#DejaVuSans-95"/>
      <use x="363.623047" xlink:href="#DejaVuSans-49"/>
      <use x="427.246094" xlink:href="#DejaVuSans-103"/>
     </g>
    </g>
    <g id="line2d_21">
     <path d="M 769.316625 206.782187 
L 789.316625 206.782187 
" style="fill:none;stroke:#ff7f0e;stroke-linecap:square;stroke-width:1.5;"/>
    </g>
    <g id="line2d_22"/>
    <g id="text_17">
     <!-- htm_4_4g -->
     <g transform="translate(797.316625 210.282187)scale(0.1 -0.1)">
      <use xlink:href="#DejaVuSans-104"/>
      <use x="63.378906" xlink:href="#DejaVuSans-116"/>
      <use x="102.587891" xlink:href="#DejaVuSans-109"/>
      <use x="200" xlink:href="#DejaVuSans-95"/>
      <use x="250" xlink:href="#DejaVuSans-52"/>
      <use x="313.623047" xlink:href="#DejaVuSans-95"/>
      <use x="363.623047" xlink:href="#DejaVuSans-52"/>
      <use x="427.246094" xlink:href="#DejaVuSans-103"/>
     </g>
    </g>
    <g id="line2d_23">
     <path d="M 769.316625 221.738437 
L 789.316625 221.738437 
" style="fill:none;stroke:#2ca02c;stroke-linecap:square;stroke-width:1.5;"/>
    </g>
    <g id="line2d_24"/>
    <g id="text_18">
     <!-- htm_4_16g -->
     <defs>
      <path d="M 33.015625 40.375 
Q 26.375 40.375 22.484375 35.828125 
Q 18.609375 31.296875 18.609375 23.390625 
Q 18.609375 15.53125 22.484375 10.953125 
Q 26.375 6.390625 33.015625 6.390625 
Q 39.65625 6.390625 43.53125 10.953125 
Q 47.40625 15.53125 47.40625 23.390625 
Q 47.40625 31.296875 43.53125 35.828125 
Q 39.65625 40.375 33.015625 40.375 
z
M 52.59375 71.296875 
L 52.59375 62.3125 
Q 48.875 64.0625 45.09375 64.984375 
Q 41.3125 65.921875 37.59375 65.921875 
Q 27.828125 65.921875 22.671875 59.328125 
Q 17.53125 52.734375 16.796875 39.40625 
Q 19.671875 43.65625 24.015625 45.921875 
Q 28.375 48.1875 33.59375 48.1875 
Q 44.578125 48.1875 50.953125 41.515625 
Q 57.328125 34.859375 57.328125 23.390625 
Q 57.328125 12.15625 50.6875 5.359375 
Q 44.046875 -1.421875 33.015625 -1.421875 
Q 20.359375 -1.421875 13.671875 8.265625 
Q 6.984375 17.96875 6.984375 36.375 
Q 6.984375 53.65625 15.1875 63.9375 
Q 23.390625 74.21875 37.203125 74.21875 
Q 40.921875 74.21875 44.703125 73.484375 
Q 48.484375 72.75 52.59375 71.296875 
z
" id="DejaVuSans-54"/>
     </defs>
     <g transform="translate(797.316625 225.238437)scale(0.1 -0.1)">
      <use xlink:href="#DejaVuSans-104"/>
      <use x="63.378906" xlink:href="#DejaVuSans-116"/>
      <use x="102.587891" xlink:href="#DejaVuSans-109"/>
      <use x="200" xlink:href="#DejaVuSans-95"/>
      <use x="250" xlink:href="#DejaVuSans-52"/>
      <use x="313.623047" xlink:href="#DejaVuSans-95"/>
      <use x="363.623047" xlink:href="#DejaVuSans-49"/>
      <use x="427.246094" xlink:href="#DejaVuSans-54"/>
      <use x="490.869141" xlink:href="#DejaVuSans-103"/>
     </g>
    </g>
    <g id="line2d_25">
     <path d="M 769.316625 236.694687 
L 789.316625 236.694687 
" style="fill:none;stroke:#d62728;stroke-linecap:square;stroke-width:1.5;"/>
    </g>
    <g id="line2d_26"/>
    <g id="text_19">
     <!-- htm_8_1g -->
     <g transform="translate(797.316625 240.194687)scale(0.1 -0.1)">
      <use xlink:href="#DejaVuSans-104"/>
      <use x="63.378906" xlink:href="#DejaVuSans-116"/>
      <use x="102.587891" xlink:href="#DejaVuSans-109"/>
      <use x="200" xlink:href="#DejaVuSans-95"/>
      <use x="250" xlink:href="#DejaVuSans-56"/>
      <use x="313.623047" xlink:href="#DejaVuSans-95"/>
      <use x="363.623047" xlink:href="#DejaVuSans-49"/>
      <use x="427.246094" xlink:href="#DejaVuSans-103"/>
     </g>
    </g>
   </g>
  </g>
 </g>
 <defs>
  <clipPath id="p2c1a91708c">
   <rect height="377.96" width="687.355" x="36.925" y="26.16"/>
  </clipPath>
 </defs>
</svg>
