<?xml version="1.0" encoding="utf-8" standalone="no"?>
<!DOCTYPE svg PUBLIC "-//W3C//DTD SVG 1.1//EN"
  "http://www.w3.org/Graphics/SVG/1.1/DTD/svg11.dtd">
<!-- Created with matplotlib (https://matplotlib.org/) -->
<svg height="432pt" version="1.1" viewBox="0 0 864 432" width="864pt" xmlns="http://www.w3.org/2000/svg" xmlns:xlink="http://www.w3.org/1999/xlink">
 <defs>
  <style type="text/css">
*{stroke-linecap:butt;stroke-linejoin:round;}
  </style>
 </defs>
 <g id="figure_1">
  <g id="patch_1">
   <path d="M 0 432 
L 864 432 
L 864 0 
L 0 0 
z
" style="fill:#ffffff;"/>
  </g>
  <g id="axes_1">
   <g id="patch_2">
    <path d="M 30.58 404.12 
L 724.28 404.12 
L 724.28 26.16 
L 30.58 26.16 
z
" style="fill:#ffffff;"/>
   </g>
   <g id="matplotlib.axis_1">
    <g id="xtick_1">
     <g id="line2d_1">
      <defs>
       <path d="M 0 0 
L 0 3.5 
" id="m93573b7b0e" style="stroke:#000000;stroke-width:0.8;"/>
      </defs>
      <g>
       <use style="stroke:#000000;stroke-width:0.8;" x="30.58" xlink:href="#m93573b7b0e" y="404.12"/>
      </g>
     </g>
     <g id="text_1">
      <!-- 0 -->
      <defs>
       <path d="M 31.78125 66.40625 
Q 24.171875 66.40625 20.328125 58.90625 
Q 16.5 51.421875 16.5 36.375 
Q 16.5 21.390625 20.328125 13.890625 
Q 24.171875 6.390625 31.78125 6.390625 
Q 39.453125 6.390625 43.28125 13.890625 
Q 47.125 21.390625 47.125 36.375 
Q 47.125 51.421875 43.28125 58.90625 
Q 39.453125 66.40625 31.78125 66.40625 
z
M 31.78125 74.21875 
Q 44.046875 74.21875 50.515625 64.515625 
Q 56.984375 54.828125 56.984375 36.375 
Q 56.984375 17.96875 50.515625 8.265625 
Q 44.046875 -1.421875 31.78125 -1.421875 
Q 19.53125 -1.421875 13.0625 8.265625 
Q 6.59375 17.96875 6.59375 36.375 
Q 6.59375 54.828125 13.0625 64.515625 
Q 19.53125 74.21875 31.78125 74.21875 
z
" id="DejaVuSans-48"/>
      </defs>
      <g transform="translate(27.39875 418.718437)scale(0.1 -0.1)">
       <use xlink:href="#DejaVuSans-48"/>
      </g>
     </g>
    </g>
    <g id="xtick_2">
     <g id="line2d_2">
      <g>
       <use style="stroke:#000000;stroke-width:0.8;" x="117.401026" xlink:href="#m93573b7b0e" y="404.12"/>
      </g>
     </g>
     <g id="text_2">
      <!-- 100 -->
      <defs>
       <path d="M 12.40625 8.296875 
L 28.515625 8.296875 
L 28.515625 63.921875 
L 10.984375 60.40625 
L 10.984375 69.390625 
L 28.421875 72.90625 
L 38.28125 72.90625 
L 38.28125 8.296875 
L 54.390625 8.296875 
L 54.390625 0 
L 12.40625 0 
z
" id="DejaVuSans-49"/>
      </defs>
      <g transform="translate(107.857276 418.718437)scale(0.1 -0.1)">
       <use xlink:href="#DejaVuSans-49"/>
       <use x="63.623047" xlink:href="#DejaVuSans-48"/>
       <use x="127.246094" xlink:href="#DejaVuSans-48"/>
      </g>
     </g>
    </g>
    <g id="xtick_3">
     <g id="line2d_3">
      <g>
       <use style="stroke:#000000;stroke-width:0.8;" x="204.222053" xlink:href="#m93573b7b0e" y="404.12"/>
      </g>
     </g>
     <g id="text_3">
      <!-- 200 -->
      <defs>
       <path d="M 19.1875 8.296875 
L 53.609375 8.296875 
L 53.609375 0 
L 7.328125 0 
L 7.328125 8.296875 
Q 12.9375 14.109375 22.625 23.890625 
Q 32.328125 33.6875 34.8125 36.53125 
Q 39.546875 41.84375 41.421875 45.53125 
Q 43.3125 49.21875 43.3125 52.78125 
Q 43.3125 58.59375 39.234375 62.25 
Q 35.15625 65.921875 28.609375 65.921875 
Q 23.96875 65.921875 18.8125 64.3125 
Q 13.671875 62.703125 7.8125 59.421875 
L 7.8125 69.390625 
Q 13.765625 71.78125 18.9375 73 
Q 24.125 74.21875 28.421875 74.21875 
Q 39.75 74.21875 46.484375 68.546875 
Q 53.21875 62.890625 53.21875 53.421875 
Q 53.21875 48.921875 51.53125 44.890625 
Q 49.859375 40.875 45.40625 35.40625 
Q 44.1875 33.984375 37.640625 27.21875 
Q 31.109375 20.453125 19.1875 8.296875 
z
" id="DejaVuSans-50"/>
      </defs>
      <g transform="translate(194.678303 418.718437)scale(0.1 -0.1)">
       <use xlink:href="#DejaVuSans-50"/>
       <use x="63.623047" xlink:href="#DejaVuSans-48"/>
       <use x="127.246094" xlink:href="#DejaVuSans-48"/>
      </g>
     </g>
    </g>
    <g id="xtick_4">
     <g id="line2d_4">
      <g>
       <use style="stroke:#000000;stroke-width:0.8;" x="291.043079" xlink:href="#m93573b7b0e" y="404.12"/>
      </g>
     </g>
     <g id="text_4">
      <!-- 300 -->
      <defs>
       <path d="M 40.578125 39.3125 
Q 47.65625 37.796875 51.625 33 
Q 55.609375 28.21875 55.609375 21.1875 
Q 55.609375 10.40625 48.1875 4.484375 
Q 40.765625 -1.421875 27.09375 -1.421875 
Q 22.515625 -1.421875 17.65625 -0.515625 
Q 12.796875 0.390625 7.625 2.203125 
L 7.625 11.71875 
Q 11.71875 9.328125 16.59375 8.109375 
Q 21.484375 6.890625 26.8125 6.890625 
Q 36.078125 6.890625 40.9375 10.546875 
Q 45.796875 14.203125 45.796875 21.1875 
Q 45.796875 27.640625 41.28125 31.265625 
Q 36.765625 34.90625 28.71875 34.90625 
L 20.21875 34.90625 
L 20.21875 43.015625 
L 29.109375 43.015625 
Q 36.375 43.015625 40.234375 45.921875 
Q 44.09375 48.828125 44.09375 54.296875 
Q 44.09375 59.90625 40.109375 62.90625 
Q 36.140625 65.921875 28.71875 65.921875 
Q 24.65625 65.921875 20.015625 65.03125 
Q 15.375 64.15625 9.8125 62.3125 
L 9.8125 71.09375 
Q 15.4375 72.65625 20.34375 73.4375 
Q 25.25 74.21875 29.59375 74.21875 
Q 40.828125 74.21875 47.359375 69.109375 
Q 53.90625 64.015625 53.90625 55.328125 
Q 53.90625 49.265625 50.4375 45.09375 
Q 46.96875 40.921875 40.578125 39.3125 
z
" id="DejaVuSans-51"/>
      </defs>
      <g transform="translate(281.499329 418.718437)scale(0.1 -0.1)">
       <use xlink:href="#DejaVuSans-51"/>
       <use x="63.623047" xlink:href="#DejaVuSans-48"/>
       <use x="127.246094" xlink:href="#DejaVuSans-48"/>
      </g>
     </g>
    </g>
    <g id="xtick_5">
     <g id="line2d_5">
      <g>
       <use style="stroke:#000000;stroke-width:0.8;" x="377.864105" xlink:href="#m93573b7b0e" y="404.12"/>
      </g>
     </g>
     <g id="text_5">
      <!-- 400 -->
      <defs>
       <path d="M 37.796875 64.3125 
L 12.890625 25.390625 
L 37.796875 25.390625 
z
M 35.203125 72.90625 
L 47.609375 72.90625 
L 47.609375 25.390625 
L 58.015625 25.390625 
L 58.015625 17.1875 
L 47.609375 17.1875 
L 47.609375 0 
L 37.796875 0 
L 37.796875 17.1875 
L 4.890625 17.1875 
L 4.890625 26.703125 
z
" id="DejaVuSans-52"/>
      </defs>
      <g transform="translate(368.320355 418.718437)scale(0.1 -0.1)">
       <use xlink:href="#DejaVuSans-52"/>
       <use x="63.623047" xlink:href="#DejaVuSans-48"/>
       <use x="127.246094" xlink:href="#DejaVuSans-48"/>
      </g>
     </g>
    </g>
    <g id="xtick_6">
     <g id="line2d_6">
      <g>
       <use style="stroke:#000000;stroke-width:0.8;" x="464.685131" xlink:href="#m93573b7b0e" y="404.12"/>
      </g>
     </g>
     <g id="text_6">
      <!-- 500 -->
      <defs>
       <path d="M 10.796875 72.90625 
L 49.515625 72.90625 
L 49.515625 64.59375 
L 19.828125 64.59375 
L 19.828125 46.734375 
Q 21.96875 47.46875 24.109375 47.828125 
Q 26.265625 48.1875 28.421875 48.1875 
Q 40.625 48.1875 47.75 41.5 
Q 54.890625 34.8125 54.890625 23.390625 
Q 54.890625 11.625 47.5625 5.09375 
Q 40.234375 -1.421875 26.90625 -1.421875 
Q 22.3125 -1.421875 17.546875 -0.640625 
Q 12.796875 0.140625 7.71875 1.703125 
L 7.71875 11.625 
Q 12.109375 9.234375 16.796875 8.0625 
Q 21.484375 6.890625 26.703125 6.890625 
Q 35.15625 6.890625 40.078125 11.328125 
Q 45.015625 15.765625 45.015625 23.390625 
Q 45.015625 31 40.078125 35.4375 
Q 35.15625 39.890625 26.703125 39.890625 
Q 22.75 39.890625 18.8125 39.015625 
Q 14.890625 38.140625 10.796875 36.28125 
z
" id="DejaVuSans-53"/>
      </defs>
      <g transform="translate(455.141381 418.718437)scale(0.1 -0.1)">
       <use xlink:href="#DejaVuSans-53"/>
       <use x="63.623047" xlink:href="#DejaVuSans-48"/>
       <use x="127.246094" xlink:href="#DejaVuSans-48"/>
      </g>
     </g>
    </g>
    <g id="xtick_7">
     <g id="line2d_7">
      <g>
       <use style="stroke:#000000;stroke-width:0.8;" x="551.506158" xlink:href="#m93573b7b0e" y="404.12"/>
      </g>
     </g>
     <g id="text_7">
      <!-- 600 -->
      <defs>
       <path d="M 33.015625 40.375 
Q 26.375 40.375 22.484375 35.828125 
Q 18.609375 31.296875 18.609375 23.390625 
Q 18.609375 15.53125 22.484375 10.953125 
Q 26.375 6.390625 33.015625 6.390625 
Q 39.65625 6.390625 43.53125 10.953125 
Q 47.40625 15.53125 47.40625 23.390625 
Q 47.40625 31.296875 43.53125 35.828125 
Q 39.65625 40.375 33.015625 40.375 
z
M 52.59375 71.296875 
L 52.59375 62.3125 
Q 48.875 64.0625 45.09375 64.984375 
Q 41.3125 65.921875 37.59375 65.921875 
Q 27.828125 65.921875 22.671875 59.328125 
Q 17.53125 52.734375 16.796875 39.40625 
Q 19.671875 43.65625 24.015625 45.921875 
Q 28.375 48.1875 33.59375 48.1875 
Q 44.578125 48.1875 50.953125 41.515625 
Q 57.328125 34.859375 57.328125 23.390625 
Q 57.328125 12.15625 50.6875 5.359375 
Q 44.046875 -1.421875 33.015625 -1.421875 
Q 20.359375 -1.421875 13.671875 8.265625 
Q 6.984375 17.96875 6.984375 36.375 
Q 6.984375 53.65625 15.1875 63.9375 
Q 23.390625 74.21875 37.203125 74.21875 
Q 40.921875 74.21875 44.703125 73.484375 
Q 48.484375 72.75 52.59375 71.296875 
z
" id="DejaVuSans-54"/>
      </defs>
      <g transform="translate(541.962408 418.718437)scale(0.1 -0.1)">
       <use xlink:href="#DejaVuSans-54"/>
       <use x="63.623047" xlink:href="#DejaVuSans-48"/>
       <use x="127.246094" xlink:href="#DejaVuSans-48"/>
      </g>
     </g>
    </g>
    <g id="xtick_8">
     <g id="line2d_8">
      <g>
       <use style="stroke:#000000;stroke-width:0.8;" x="638.327184" xlink:href="#m93573b7b0e" y="404.12"/>
      </g>
     </g>
     <g id="text_8">
      <!-- 700 -->
      <defs>
       <path d="M 8.203125 72.90625 
L 55.078125 72.90625 
L 55.078125 68.703125 
L 28.609375 0 
L 18.3125 0 
L 43.21875 64.59375 
L 8.203125 64.59375 
z
" id="DejaVuSans-55"/>
      </defs>
      <g transform="translate(628.783434 418.718437)scale(0.1 -0.1)">
       <use xlink:href="#DejaVuSans-55"/>
       <use x="63.623047" xlink:href="#DejaVuSans-48"/>
       <use x="127.246094" xlink:href="#DejaVuSans-48"/>
      </g>
     </g>
    </g>
   </g>
   <g id="matplotlib.axis_2">
    <g id="ytick_1">
     <g id="line2d_9">
      <defs>
       <path d="M 0 0 
L -3.5 0 
" id="m5f07970338" style="stroke:#000000;stroke-width:0.8;"/>
      </defs>
      <g>
       <use style="stroke:#000000;stroke-width:0.8;" x="30.58" xlink:href="#m5f07970338" y="344.5901"/>
      </g>
     </g>
     <g id="text_9">
      <!-- 10 -->
      <g transform="translate(10.855 348.389319)scale(0.1 -0.1)">
       <use xlink:href="#DejaVuSans-49"/>
       <use x="63.623047" xlink:href="#DejaVuSans-48"/>
      </g>
     </g>
    </g>
    <g id="ytick_2">
     <g id="line2d_10">
      <g>
       <use style="stroke:#000000;stroke-width:0.8;" x="30.58" xlink:href="#m5f07970338" y="276.007265"/>
      </g>
     </g>
     <g id="text_10">
      <!-- 20 -->
      <g transform="translate(10.855 279.806484)scale(0.1 -0.1)">
       <use xlink:href="#DejaVuSans-50"/>
       <use x="63.623047" xlink:href="#DejaVuSans-48"/>
      </g>
     </g>
    </g>
    <g id="ytick_3">
     <g id="line2d_11">
      <g>
       <use style="stroke:#000000;stroke-width:0.8;" x="30.58" xlink:href="#m5f07970338" y="207.424431"/>
      </g>
     </g>
     <g id="text_11">
      <!-- 30 -->
      <g transform="translate(10.855 211.22365)scale(0.1 -0.1)">
       <use xlink:href="#DejaVuSans-51"/>
       <use x="63.623047" xlink:href="#DejaVuSans-48"/>
      </g>
     </g>
    </g>
    <g id="ytick_4">
     <g id="line2d_12">
      <g>
       <use style="stroke:#000000;stroke-width:0.8;" x="30.58" xlink:href="#m5f07970338" y="138.841597"/>
      </g>
     </g>
     <g id="text_12">
      <!-- 40 -->
      <g transform="translate(10.855 142.640816)scale(0.1 -0.1)">
       <use xlink:href="#DejaVuSans-52"/>
       <use x="63.623047" xlink:href="#DejaVuSans-48"/>
      </g>
     </g>
    </g>
    <g id="ytick_5">
     <g id="line2d_13">
      <g>
       <use style="stroke:#000000;stroke-width:0.8;" x="30.58" xlink:href="#m5f07970338" y="70.258762"/>
      </g>
     </g>
     <g id="text_13">
      <!-- 50 -->
      <g transform="translate(10.855 74.057981)scale(0.1 -0.1)">
       <use xlink:href="#DejaVuSans-53"/>
       <use x="63.623047" xlink:href="#DejaVuSans-48"/>
      </g>
     </g>
    </g>
   </g>
   <g id="line2d_14">
    <path clip-path="url(#p7d3134258e)" d="M 64.4402 299.8398 
L 65.308411 311.498882 
L 66.176621 313.213453 
L 67.044831 321.443393 
L 67.913041 326.415649 
L 69.649462 321.957764 
L 70.517672 324.529621 
L 71.385882 324.358164 
L 72.254093 326.587106 
L 73.122303 319.214451 
L 73.990513 316.299681 
L 74.858723 320.414651 
L 75.726934 326.072735 
L 76.595144 334.474132 
L 77.463354 348.70507 
L 78.331564 338.760559 
L 79.199775 338.074731 
L 80.067985 337.903273 
L 80.936195 344.418643 
L 81.804406 343.3899 
L 82.672616 343.218443 
L 83.540826 343.218443 
L 84.409036 347.50487 
L 85.277247 349.219441 
L 86.145457 352.134212 
L 87.013667 348.70507 
L 87.881877 352.82004 
L 88.750088 349.047984 
L 89.618298 350.076727 
L 90.486508 349.047984 
L 91.354718 343.046986 
L 92.222929 343.218443 
L 93.091139 340.989501 
L 93.959349 338.246188 
L 95.69577 336.188703 
L 96.56398 336.017246 
L 97.43219 335.15996 
L 98.300401 336.531617 
L 99.168611 330.359162 
L 100.036821 330.016248 
L 100.905031 329.84479 
L 101.773242 329.158962 
L 102.641452 324.529621 
L 103.509662 326.587106 
L 104.377872 319.900279 
L 105.246083 320.071737 
L 106.114293 320.071737 
L 106.982503 317.156966 
L 107.850713 325.558363 
L 108.718924 318.185709 
L 109.587134 318.185709 
L 110.455344 302.068743 
L 111.323554 297.267944 
L 112.191765 301.04 
L 113.059975 310.984511 
L 113.928185 307.383912 
L 115.664606 307.726826 
L 116.532816 308.584112 
L 117.401026 274.807066 
L 118.269237 274.807066 
L 119.137447 274.635609 
L 120.873867 251.488902 
L 121.742078 243.430419 
L 122.610288 243.94479 
L 123.478498 240.858563 
L 124.346708 241.201477 
L 125.214919 241.887305 
L 126.083129 248.05976 
L 126.951339 247.373932 
L 127.819549 249.088503 
L 128.68776 252.003273 
L 129.55597 248.917046 
L 130.42418 249.774331 
L 131.29239 249.088503 
L 132.160601 249.602874 
L 133.897021 229.028024 
L 134.765232 225.084511 
L 135.633442 204.166747 
L 136.501652 204.166747 
L 137.369862 209.310459 
L 138.238073 205.195489 
L 139.106283 209.139002 
L 139.974493 201.251976 
L 140.842703 183.763353 
L 141.710914 186.678124 
L 142.579124 186.506667 
L 143.447334 189.592894 
L 144.315544 191.821836 
L 145.183755 206.738603 
L 146.051965 209.139002 
L 146.920175 199.194491 
L 147.788385 193.193493 
L 148.656596 183.248982 
L 150.393016 168.503673 
L 151.261227 148.614651 
L 152.129437 182.563154 
L 152.997647 173.818842 
L 153.865857 173.990299 
L 154.734068 181.534411 
L 156.470488 188.392695 
L 157.338698 187.535409 
L 158.206909 193.022036 
L 159.075119 193.022036 
L 159.943329 193.193493 
L 160.811539 192.507665 
L 162.54796 193.879321 
L 163.41617 193.536407 
L 164.28438 198.165749 
L 165.152591 198.337206 
L 166.889011 174.333214 
L 167.757222 184.449182 
L 168.625432 192.336208 
L 169.493642 184.106267 
L 170.361852 198.165749 
L 171.230063 198.851577 
L 172.098273 194.908064 
L 172.966483 200.394691 
L 173.834693 191.136008 
L 174.702904 198.337206 
L 175.571114 211.539401 
L 176.439324 207.424431 
L 177.307534 207.252974 
L 178.175745 217.711856 
L 179.043955 217.368942 
L 179.912165 218.569142 
L 180.780375 220.969541 
L 181.648586 232.114251 
L 182.516796 237.429421 
L 183.385006 251.660359 
L 184.253217 259.033014 
L 185.121427 265.376926 
L 185.989637 278.407665 
L 186.857847 278.407665 
L 187.726058 285.265948 
L 188.594268 284.408663 
L 189.462478 264.348184 
L 190.330688 271.206467 
L 191.198899 279.950778 
L 192.067109 277.893293 
L 192.935319 279.26495 
L 193.803529 262.290699 
L 194.67174 262.462156 
L 195.53995 254.232216 
L 197.27637 253.889301 
L 198.144581 251.145988 
L 199.012791 250.631617 
L 199.881001 250.803074 
L 200.749212 264.176727 
L 201.617422 265.891297 
L 202.485632 266.062754 
L 203.353842 272.406667 
L 204.222053 281.493892 
L 205.090263 287.837804 
L 205.958473 283.208463 
L 206.826683 285.780319 
L 207.694894 283.551377 
L 208.563104 294.353174 
L 209.431314 290.066747 
L 210.299524 292.124232 
L 211.167735 296.067745 
L 212.035945 296.410659 
L 213.772365 285.094491 
L 214.640576 285.265948 
L 215.508786 285.094491 
L 216.376996 285.437405 
L 218.113417 282.865549 
L 218.981627 282.522635 
L 219.849837 283.722834 
L 220.718048 285.780319 
L 221.586258 282.008263 
L 222.454468 283.722834 
L 223.322678 282.179721 
L 224.190889 306.526627 
L 225.059099 307.212455 
L 225.927309 307.383912 
L 226.795519 310.47014 
L 227.66373 309.955768 
L 228.53194 326.93002 
L 229.40015 326.758563 
L 230.26836 325.386906 
L 231.136571 324.358164 
L 232.004781 324.529621 
L 232.872991 327.444391 
L 233.741202 327.615848 
L 234.609412 327.444391 
L 235.477622 324.186707 
L 236.345832 334.302675 
L 237.214043 334.988503 
L 238.082253 333.788303 
L 238.950463 336.36016 
L 239.818673 336.531617 
L 240.686884 339.27493 
L 241.555094 340.47513 
L 242.423304 340.989501 
L 243.291514 342.875529 
L 244.159725 347.847784 
L 245.027935 350.248184 
L 245.896145 349.562355 
L 246.764355 349.562355 
L 247.632566 354.191697 
L 248.500776 360.364152 
L 249.368986 360.535609 
L 250.237196 360.535609 
L 251.105407 360.364152 
L 251.973617 362.078723 
L 252.841827 363.450379 
L 253.710038 360.535609 
L 254.578248 358.992495 
L 255.446458 363.793293 
L 256.314668 367.393892 
L 257.182879 367.393892 
L 258.051089 369.622834 
L 258.919299 370.137206 
L 259.787509 369.965749 
L 260.65572 369.451377 
L 261.52393 368.594092 
L 262.39214 368.937006 
L 264.128561 368.937006 
L 264.996771 379.224431 
L 265.864981 379.738802 
L 266.733191 379.224431 
L 267.601402 379.224431 
L 268.469612 378.881517 
L 269.337822 379.052974 
L 270.206033 382.139202 
L 271.074243 382.310659 
L 271.942453 382.310659 
L 272.810663 383.339401 
L 273.678874 383.682315 
L 274.547084 378.024232 
L 275.415294 374.766547 
L 276.283504 374.766547 
L 277.151715 376.481118 
L 278.019925 377.852774 
L 278.888135 378.024232 
L 279.756345 376.824032 
L 281.492766 366.536607 
L 282.360976 367.393892 
L 283.229186 366.36515 
L 284.097397 366.708064 
L 284.965607 366.708064 
L 285.833817 365.850778 
L 287.570238 365.850778 
L 288.438448 352.82004 
L 289.306658 349.219441 
L 290.174869 349.390898 
L 291.911289 346.990499 
L 294.51592 346.990499 
L 295.38413 347.333413 
L 296.25234 348.190699 
L 297.120551 347.676327 
L 297.988761 347.676327 
L 298.856971 332.759561 
L 299.725181 330.359162 
L 300.593392 330.873533 
L 302.329812 320.586108 
L 303.198023 319.042994 
L 304.066233 319.042994 
L 304.934443 314.928024 
L 305.802653 313.213453 
L 306.670864 313.213453 
L 307.539074 314.58511 
L 308.407284 310.298683 
L 309.275494 315.956766 
L 310.143705 320.586108 
L 311.011915 320.071737 
L 311.880125 313.899281 
L 312.748335 308.927026 
L 313.616546 308.755569 
L 314.484756 309.26994 
L 315.352966 312.699082 
L 316.221176 317.328423 
L 317.089387 316.642595 
L 317.957597 306.869541 
L 318.825807 306.183713 
L 319.694018 295.553373 
L 320.562228 296.753573 
L 321.430438 294.867545 
L 322.298648 295.039002 
L 323.166859 311.155968 
L 324.035069 314.58511 
L 324.903279 313.041996 
L 326.6397 315.270938 
L 327.50791 314.242196 
L 328.37612 314.413653 
L 329.24433 303.611856 
L 330.980751 303.268942 
L 331.848961 294.353174 
L 332.717171 293.324431 
L 333.585382 307.212455 
L 334.453592 308.755569 
L 335.321802 308.584112 
L 337.058223 318.871537 
L 337.926433 320.929022 
L 338.794643 312.184711 
L 339.662854 316.471138 
L 341.399274 316.471138 
L 342.267484 315.613852 
L 343.135695 314.928024 
L 344.003905 305.497884 
L 344.872115 306.012255 
L 345.740325 304.812056 
L 346.608536 310.984511 
L 347.476746 315.956766 
L 348.344956 315.956766 
L 349.213166 316.471138 
L 350.081377 319.042994 
L 350.949587 319.385908 
L 351.817797 319.900279 
L 352.686008 330.702076 
L 353.554218 325.043992 
L 354.422428 335.674331 
L 355.290638 335.331417 
L 356.158849 336.188703 
L 357.027059 334.645589 
L 357.895269 333.445389 
L 358.763479 326.244192 
L 359.63169 327.615848 
L 360.4999 318.871537 
L 361.36811 318.871537 
L 362.23632 319.385908 
L 363.104531 318.357166 
L 363.972741 328.644591 
L 364.840951 325.043992 
L 365.709161 324.01525 
L 366.577372 333.616846 
L 367.445582 328.987505 
L 368.313792 327.958762 
L 369.182003 328.644591 
L 370.050213 328.987505 
L 370.918423 328.987505 
L 371.786633 328.816048 
L 372.654844 328.816048 
L 373.523054 336.874531 
L 374.391264 336.703074 
L 375.259474 338.417645 
L 376.127685 337.045988 
L 376.995895 337.217445 
L 377.864105 342.018244 
L 378.732315 350.248184 
L 379.600526 343.046986 
L 380.468736 344.761557 
L 381.336946 343.732814 
L 382.205156 343.3899 
L 383.073367 342.704072 
L 383.941577 325.72982 
L 384.809787 323.843792 
L 385.677997 322.643593 
L 386.546208 322.472136 
L 387.414418 322.472136 
L 388.282628 323.672335 
L 389.150839 322.472136 
L 390.019049 307.726826 
L 390.887259 295.210459 
L 391.755469 287.837804 
L 392.62368 289.038004 
L 393.49189 288.180719 
L 394.3601 288.352176 
L 395.22831 297.267944 
L 396.096521 297.610858 
L 396.964731 282.522635 
L 397.832941 283.037006 
L 398.701151 280.979521 
L 399.569362 284.58012 
L 400.437572 284.58012 
L 401.305782 284.923034 
L 402.173992 289.038004 
L 403.042203 289.038004 
L 403.910413 288.866547 
L 404.778623 288.352176 
L 405.646834 286.466148 
L 406.515044 264.519641 
L 407.383254 263.147984 
L 408.251464 244.459162 
L 409.119675 210.510659 
L 409.987885 206.052774 
L 410.856095 207.424431 
L 411.724305 205.538403 
L 412.592516 206.224232 
L 413.460726 200.909062 
L 414.328936 208.281717 
L 415.197146 202.623633 
L 416.065357 202.79509 
L 416.933567 202.452176 
L 417.801777 203.138004 
L 418.669987 220.283713 
L 419.538198 201.423433 
L 420.406408 200.394691 
L 421.274618 190.621637 
L 422.142829 190.107265 
L 423.011039 195.250978 
L 423.879249 196.451178 
L 425.61567 224.398683 
L 426.48388 233.314451 
L 427.35209 233.485908 
L 428.2203 240.001277 
L 429.088511 238.801078 
L 429.956721 238.629621 
L 430.824931 228.342196 
L 431.693141 242.573134 
L 432.561352 236.91505 
L 433.429562 233.828822 
L 434.297772 234.171737 
L 435.165982 235.543393 
L 436.034193 234.000279 
L 436.902403 235.029022 
L 437.770613 237.086507 
L 438.638824 236.572136 
L 439.507034 229.542395 
L 440.375244 231.59988 
L 441.243454 249.774331 
L 442.111665 246.002275 
L 442.979875 262.80507 
L 443.848085 296.410659 
L 444.716295 300.011257 
L 445.584506 296.92503 
L 446.452716 295.72483 
L 447.320926 293.495888 
L 448.189136 298.468144 
L 449.057347 297.610858 
L 449.925557 302.068743 
L 450.793767 303.097485 
L 451.661977 302.754571 
L 452.530188 301.04 
L 453.398398 300.868543 
L 454.266608 320.071737 
L 455.134819 321.61485 
L 456.003029 331.730818 
L 456.871239 331.387904 
L 457.739449 320.757565 
L 458.60766 319.557365 
L 459.47587 319.385908 
L 460.34408 319.900279 
L 461.21229 318.528623 
L 462.080501 318.185709 
L 462.948711 321.443393 
L 463.816921 321.443393 
L 464.685131 315.099481 
L 465.553342 325.215449 
L 466.421552 326.758563 
L 467.289762 327.787305 
L 468.157972 333.616846 
L 469.026183 322.643593 
L 469.894393 322.472136 
L 470.762603 310.47014 
L 471.630814 307.040998 
L 472.499024 294.353174 
L 473.367234 289.895289 
L 474.235444 295.896287 
L 475.103655 286.466148 
L 475.971865 271.549381 
L 476.840075 267.434411 
L 477.708285 270.006267 
L 478.576496 266.92004 
L 480.312916 254.57513 
L 481.181126 258.175729 
L 482.917547 262.119242 
L 483.785757 249.945788 
L 484.653967 245.316447 
L 485.522178 243.430419 
L 486.390388 210.510659 
L 487.258598 209.82483 
L 488.126809 203.995289 
L 488.995019 172.447186 
L 489.863229 171.418443 
L 490.731439 166.446188 
L 491.59965 167.303473 
L 492.46786 177.933812 
L 493.33607 177.247984 
L 494.20428 177.247984 
L 495.072491 162.331218 
L 496.808911 163.017046 
L 497.677121 163.188503 
L 499.413542 154.444192 
L 500.281752 154.615649 
L 501.149962 136.098283 
L 502.018173 127.011058 
L 502.886383 122.553174 
L 503.754593 131.640399 
L 504.622804 125.982315 
L 505.491014 139.527425 
L 506.359224 143.470938 
L 507.227434 150.843593 
L 508.095645 153.586906 
L 508.963855 152.043792 
L 509.832065 158.730619 
L 510.700275 176.562156 
L 511.568486 173.133014 
L 512.436696 172.104271 
L 513.304906 174.161756 
L 514.173116 180.848583 
L 515.041327 163.188503 
L 515.909537 163.702874 
L 516.777747 163.874331 
L 517.645957 163.874331 
L 518.514168 176.733613 
L 519.382378 181.877325 
L 520.250588 181.362954 
L 521.118798 213.082515 
L 521.987009 214.797086 
L 522.855219 220.798084 
L 523.723429 249.602874 
L 524.59164 247.031018 
L 525.45985 250.117246 
L 526.32806 243.94479 
L 527.19627 241.372934 
L 528.064481 236.229222 
L 528.932691 226.799082 
L 529.800901 241.201477 
L 530.669111 240.172735 
L 532.405532 240.172735 
L 533.273742 243.430419 
L 534.141952 254.57513 
L 535.010163 247.202475 
L 536.746583 274.121238 
L 537.614793 264.348184 
L 538.483004 266.062754 
L 539.351214 271.892295 
L 540.219424 270.177725 
L 541.087635 264.519641 
L 541.955845 268.291697 
L 542.824055 253.37493 
L 543.692265 254.918044 
L 544.560476 250.974531 
L 545.428686 247.888303 
L 546.296896 252.174731 
L 547.165106 247.373932 
L 548.033317 241.887305 
L 548.901527 238.11525 
L 549.769737 264.862555 
L 550.637947 264.691098 
L 551.506158 249.602874 
L 552.374368 245.830818 
L 553.242578 241.372934 
L 554.110788 242.058762 
L 554.978999 242.058762 
L 555.847209 244.459162 
L 556.715419 243.258962 
L 557.58363 242.573134 
L 558.45184 243.087505 
L 559.32005 246.688104 
L 560.18826 248.231218 
L 561.056471 252.689102 
L 561.924681 254.57513 
L 562.792891 260.233214 
L 563.661101 270.177725 
L 564.529312 270.692096 
L 565.397522 270.692096 
L 566.265732 262.633613 
L 567.133942 260.061756 
L 568.002153 261.60487 
L 568.870363 261.60487 
L 569.738573 267.262954 
L 570.606783 272.063752 
L 571.474994 272.749581 
L 572.343204 286.123234 
L 573.211414 286.294691 
L 574.079625 286.123234 
L 574.947835 283.37992 
L 575.816045 288.523633 
L 576.684255 288.866547 
L 577.552466 304.469142 
L 578.420676 304.983513 
L 580.157096 313.727824 
L 581.025307 320.586108 
L 581.893517 322.986507 
L 582.761727 329.330419 
L 583.629937 333.616846 
L 584.498148 330.873533 
L 585.366358 330.530619 
L 586.234568 339.789301 
L 587.970989 347.50487 
L 588.839199 347.333413 
L 589.707409 342.875529 
L 590.57562 342.704072 
L 591.44383 344.075729 
L 592.31204 344.418643 
L 593.18025 347.676327 
L 594.048461 347.847784 
L 594.916671 348.190699 
L 595.784881 349.562355 
L 597.521302 350.934012 
L 598.389512 350.762555 
L 599.257722 350.076727 
L 600.125932 352.134212 
L 600.994143 358.13521 
L 601.862353 360.021238 
L 602.730563 360.364152 
L 603.598773 359.335409 
L 604.466984 360.878523 
L 605.335194 359.335409 
L 606.203404 354.534611 
L 607.071615 343.732814 
L 607.939825 338.760559 
L 608.808035 338.417645 
L 609.676245 337.217445 
L 610.544456 337.560359 
L 611.412666 336.531617 
L 612.280876 336.703074 
L 613.149086 329.673333 
L 614.017297 331.04499 
L 614.885507 331.559361 
L 615.753717 332.588104 
L 616.621927 334.988503 
L 617.490138 335.674331 
L 618.358348 335.502874 
L 619.226558 338.246188 
L 620.094768 332.759561 
L 620.962979 337.045988 
L 621.831189 336.703074 
L 622.699399 337.560359 
L 623.56761 336.531617 
L 624.43582 343.218443 
L 625.30403 342.532615 
L 626.17224 343.046986 
L 627.908661 343.732814 
L 628.776871 342.532615 
L 629.645081 342.189701 
L 630.513292 342.361158 
L 631.381502 338.760559 
L 632.249712 336.188703 
L 633.117922 329.84479 
L 633.986133 328.816048 
L 634.854343 326.587106 
L 635.722553 328.473134 
L 636.590763 326.244192 
L 637.458974 326.244192 
L 638.327184 325.901277 
L 639.195394 324.358164 
L 640.063605 323.672335 
L 640.931815 328.473134 
L 641.800025 339.27493 
L 642.668235 344.075729 
L 643.536446 344.075729 
L 644.404656 349.733812 
L 645.272866 349.733812 
L 646.141076 351.791297 
L 647.009287 353.505868 
L 647.877497 358.992495 
L 648.745707 358.649581 
L 649.613917 356.077725 
L 650.482128 356.592096 
L 651.350338 355.048982 
L 652.218548 353.848782 
L 653.086758 354.02024 
L 653.954969 341.503872 
L 654.823179 343.904271 
L 655.691389 343.904271 
L 656.559599 342.704072 
L 657.42781 342.189701 
L 658.29602 343.561357 
L 659.16423 339.103473 
L 660.032441 339.960758 
L 660.900651 340.132216 
L 661.768861 334.817046 
L 662.637071 335.15996 
L 663.505282 336.36016 
L 665.241702 334.988503 
L 666.978123 341.503872 
L 667.846333 347.847784 
L 668.714543 349.733812 
L 669.582753 349.733812 
L 670.450964 343.218443 
L 671.319174 341.675329 
L 672.187384 341.675329 
L 673.055594 342.704072 
L 673.923805 342.532615 
L 674.792015 344.761557 
L 675.660225 342.532615 
L 676.528436 343.3899 
L 677.396646 343.3899 
L 678.264856 343.904271 
L 679.133066 343.732814 
L 680.001277 338.589102 
L 680.869487 338.589102 
L 681.737697 333.102475 
L 682.605907 335.15996 
L 683.474118 336.017246 
L 684.342328 337.731816 
L 685.210538 335.674331 
L 686.078748 325.901277 
L 686.946959 327.101477 
L 687.815169 322.643593 
L 688.683379 333.788303 
L 689.551589 337.388902 
L 691.28801 339.960758 
L 692.15622 340.47513 
L 693.024431 339.789301 
L 693.892641 344.247186 
L 694.760851 339.103473 
L 695.629061 338.760559 
L 696.497272 342.018244 
L 697.365482 338.417645 
L 698.233692 333.788303 
L 699.101902 334.817046 
L 699.970113 334.131218 
L 700.838323 334.474132 
L 701.706533 333.102475 
L 702.574743 333.445389 
L 703.442954 333.273932 
L 704.311164 334.645589 
L 705.179374 339.617844 
L 706.047584 343.904271 
L 706.915795 343.732814 
L 707.784005 344.075729 
L 708.652215 345.961756 
L 709.520426 344.761557 
L 710.388636 346.476128 
L 711.256846 346.304671 
L 712.125056 345.275928 
L 712.993267 344.933014 
L 713.861477 344.075729 
L 714.729687 344.5901 
L 715.597897 339.960758 
L 716.466108 342.532615 
L 717.334318 342.189701 
L 718.202528 342.189701 
L 719.070738 342.532615 
L 719.938949 344.075729 
L 720.807159 349.047984 
L 721.675369 349.047984 
L 722.543579 353.505868 
L 723.41179 355.048982 
L 724.28 351.448383 
L 724.28 351.448383 
" style="fill:none;stroke:#1f77b4;stroke-linecap:square;stroke-width:1.5;"/>
   </g>
   <g id="line2d_15">
    <path clip-path="url(#p7d3134258e)" d="M 64.4402 299.8398 
L 65.308411 311.498882 
L 66.176621 313.213453 
L 67.044831 321.443393 
L 67.913041 326.415649 
L 69.649462 321.957764 
L 70.517672 324.529621 
L 71.385882 324.358164 
L 72.254093 326.587106 
L 73.122303 319.214451 
L 73.990513 316.299681 
L 74.858723 320.414651 
L 75.726934 326.072735 
L 76.595144 334.474132 
L 77.463354 348.533613 
L 78.331564 347.847784 
L 79.199775 344.933014 
L 80.067985 343.904271 
L 80.936195 349.905269 
L 81.804406 349.562355 
L 82.672616 349.047984 
L 83.540826 349.047984 
L 84.409036 353.334411 
L 85.277247 354.363154 
L 86.145457 357.277924 
L 87.013667 354.534611 
L 87.881877 359.163952 
L 88.750088 352.991497 
L 89.618298 353.505868 
L 90.486508 352.477126 
L 91.354718 349.390898 
L 92.222929 349.562355 
L 93.091139 349.219441 
L 93.959349 348.533613 
L 94.827559 347.676327 
L 95.69577 342.704072 
L 96.56398 340.132216 
L 97.43219 337.045988 
L 98.300401 338.417645 
L 99.168611 337.388902 
L 100.905031 337.045988 
L 101.773242 333.273932 
L 102.641452 328.816048 
L 103.509662 331.902275 
L 104.377872 332.759561 
L 105.246083 332.931018 
L 106.114293 332.931018 
L 106.982503 317.671337 
L 107.850713 326.072735 
L 108.718924 330.359162 
L 109.587134 331.387904 
L 110.455344 330.187705 
L 111.323554 321.443393 
L 112.191765 325.386906 
L 113.059975 326.072735 
L 113.928185 328.301677 
L 114.796395 329.330419 
L 115.664606 330.016248 
L 116.532816 326.758563 
L 117.401026 320.586108 
L 118.269237 320.586108 
L 119.137447 320.071737 
L 121.742078 303.95477 
L 122.610288 300.697086 
L 123.478498 302.583114 
L 124.346708 303.440399 
L 125.214919 300.354172 
L 126.083129 303.611856 
L 126.951339 297.267944 
L 127.819549 285.951776 
L 128.68776 286.809062 
L 129.55597 286.294691 
L 130.42418 291.266946 
L 131.29239 289.380918 
L 132.160601 280.636607 
L 133.897021 257.661357 
L 134.765232 249.945788 
L 135.633442 247.545389 
L 136.501652 250.803074 
L 137.369862 255.775329 
L 138.238073 252.517645 
L 139.106283 240.172735 
L 139.974493 224.227226 
L 140.842703 219.769341 
L 141.710914 235.029022 
L 142.579124 230.742595 
L 143.447334 215.482914 
L 144.315544 216.683114 
L 145.183755 211.539401 
L 146.051965 215.14 
L 146.920175 208.110259 
L 147.788385 203.995289 
L 148.656596 190.793094 
L 149.524806 179.476926 
L 150.393016 176.219242 
L 151.261227 179.648383 
L 152.129437 186.33521 
L 152.997647 181.705868 
L 153.865857 182.22024 
L 154.734068 180.162754 
L 155.602278 183.93481 
L 156.470488 188.221238 
L 157.338698 177.247984 
L 158.206909 174.333214 
L 159.075119 173.990299 
L 159.943329 177.933812 
L 160.811539 172.447186 
L 161.67975 178.791098 
L 162.54796 190.621637 
L 163.41617 187.192495 
L 164.28438 189.078523 
L 165.152591 185.820838 
L 166.020801 189.421437 
L 166.889011 199.023034 
L 168.625432 221.312455 
L 169.493642 226.627625 
L 170.361852 228.342196 
L 171.230063 228.856567 
L 172.098273 227.141996 
L 172.966483 229.370938 
L 173.834693 242.058762 
L 174.702904 257.661357 
L 175.571114 260.061756 
L 176.439324 255.432415 
L 177.307534 259.547385 
L 178.175745 276.693094 
L 179.043955 274.978523 
L 179.912165 281.322435 
L 180.780375 286.466148 
L 181.648586 293.667345 
L 182.516796 295.896287 
L 183.385006 309.784311 
L 184.253217 321.100479 
L 185.121427 321.271936 
L 185.989637 320.757565 
L 186.857847 320.757565 
L 187.726058 324.01525 
L 188.594268 321.100479 
L 189.462478 328.816048 
L 190.330688 329.158962 
L 191.198899 333.102475 
L 192.067109 346.819042 
L 192.935319 353.162954 
L 193.803529 349.562355 
L 194.67174 349.733812 
L 195.53995 354.02024 
L 196.40816 353.677325 
L 197.27637 353.505868 
L 198.144581 356.249182 
L 199.012791 353.505868 
L 199.881001 356.93501 
L 200.749212 357.963752 
L 201.617422 358.478124 
L 202.485632 358.478124 
L 203.353842 352.648583 
L 205.090263 287.837804 
L 206.826683 221.483912 
L 207.694894 220.112255 
L 208.563104 219.597884 
L 209.431314 218.912056 
L 210.299524 213.596886 
L 211.167735 217.711856 
L 212.035945 217.540399 
L 212.904155 183.420439 
L 213.772365 183.591896 
L 215.508786 183.248982 
L 216.376996 176.90507 
L 217.245207 176.90507 
L 218.113417 176.390699 
L 218.981627 175.70487 
L 219.849837 178.619641 
L 220.718048 175.533413 
L 221.586258 174.676128 
L 222.454468 175.876327 
L 223.322678 177.933812 
L 224.190889 178.105269 
L 225.059099 179.648383 
L 225.927309 179.81984 
L 227.66373 181.191497 
L 228.53194 185.13501 
L 229.40015 184.963553 
L 230.26836 185.477924 
L 231.136571 185.306467 
L 232.004781 185.477924 
L 232.872991 185.992295 
L 233.741202 188.564152 
L 234.609412 188.392695 
L 235.477622 187.363952 
L 236.345832 188.907066 
L 237.214043 189.592894 
L 238.082253 194.393693 
L 238.950463 228.170739 
L 239.818673 228.170739 
L 241.555094 295.896287 
L 242.423304 298.296687 
L 244.159725 300.354172 
L 245.027935 307.898283 
L 245.896145 307.898283 
L 246.764355 308.241198 
L 247.632566 339.27493 
L 248.500776 340.818044 
L 249.368986 341.332415 
L 250.237196 341.332415 
L 251.105407 349.219441 
L 251.973617 350.934012 
L 252.841827 351.448383 
L 253.710038 351.61984 
L 254.578248 318.014251 
L 255.446458 321.61485 
L 256.314668 322.300679 
L 257.182879 321.786307 
L 258.919299 323.157964 
L 259.787509 322.986507 
L 260.65572 288.866547 
L 261.52393 287.837804 
L 262.39214 288.180719 
L 264.128561 288.180719 
L 264.996771 288.866547 
L 265.864981 287.151976 
L 266.733191 286.980519 
L 267.601402 286.980519 
L 268.469612 285.951776 
L 269.337822 286.123234 
L 270.206033 286.980519 
L 271.074243 287.151976 
L 271.942453 287.151976 
L 272.810663 288.352176 
L 273.678874 288.180719 
L 274.547084 321.957764 
L 275.415294 320.071737 
L 276.283504 320.071737 
L 278.019925 320.757565 
L 278.888135 320.929022 
L 280.624556 320.243194 
L 281.492766 319.385908 
L 282.360976 322.472136 
L 283.229186 322.129222 
L 284.097397 322.472136 
L 284.965607 322.472136 
L 285.833817 321.443393 
L 287.570238 321.443393 
L 288.438448 321.271936 
L 289.306658 354.877525 
L 290.174869 355.048982 
L 291.043079 354.02024 
L 291.911289 320.586108 
L 294.51592 320.586108 
L 295.38413 354.534611 
L 296.25234 355.563353 
L 297.120551 354.363154 
L 297.988761 354.363154 
L 298.856971 353.505868 
L 299.725181 352.82004 
L 300.593392 354.534611 
L 301.461602 353.334411 
L 302.329812 319.385908 
L 303.198023 320.243194 
L 304.066233 320.243194 
L 304.934443 320.071737 
L 305.802653 318.014251 
L 306.670864 318.014251 
L 307.539074 318.528623 
L 308.407284 284.923034 
L 309.275494 285.094491 
L 310.143705 253.203473 
L 311.011915 253.032016 
L 311.880125 251.317445 
L 312.748335 250.974531 
L 313.616546 250.803074 
L 314.484756 250.974531 
L 317.089387 150.329222 
L 317.957597 148.271737 
L 319.694018 147.585908 
L 320.562228 148.786108 
L 321.430438 148.614651 
L 322.298648 148.786108 
L 323.166859 149.300479 
L 324.035069 148.443194 
L 324.903279 147.414451 
L 325.771489 148.443194 
L 326.6397 182.22024 
L 327.50791 181.877325 
L 328.37612 182.048782 
L 329.24433 180.848583 
L 330.112541 180.848583 
L 330.980751 180.677126 
L 331.848961 181.705868 
L 332.717171 181.705868 
L 333.585382 181.534411 
L 334.453592 181.705868 
L 335.321802 148.100279 
L 336.190013 149.300479 
L 337.058223 183.248982 
L 337.926433 183.420439 
L 338.794643 183.077525 
L 339.662854 183.420439 
L 340.531064 184.963553 
L 341.399274 184.963553 
L 342.267484 185.13501 
L 343.135695 216.3402 
L 344.003905 215.14 
L 344.872115 249.088503 
L 345.740325 249.25996 
L 346.608536 250.974531 
L 347.476746 251.317445 
L 349.213166 251.317445 
L 351.817797 353.334411 
L 352.686008 355.73481 
L 353.554218 351.276926 
L 354.422428 351.61984 
L 355.290638 351.61984 
L 356.158849 351.448383 
L 357.027059 351.105469 
L 357.895269 351.105469 
L 358.763479 349.390898 
L 359.63169 350.248184 
L 360.4999 349.905269 
L 361.36811 349.905269 
L 362.23632 350.076727 
L 363.104531 349.905269 
L 363.972741 350.934012 
L 364.840951 350.762555 
L 365.709161 316.985509 
L 367.445582 316.985509 
L 368.313792 318.014251 
L 369.182003 318.357166 
L 370.050213 352.477126 
L 370.918423 352.477126 
L 371.786633 352.134212 
L 373.523054 352.134212 
L 374.391264 351.962754 
L 375.259474 352.477126 
L 376.127685 352.134212 
L 376.995895 352.134212 
L 377.864105 354.877525 
L 378.732315 322.129222 
L 379.600526 319.214451 
L 380.468736 318.357166 
L 381.336946 318.357166 
L 382.205156 318.185709 
L 383.073367 316.128224 
L 383.941577 304.469142 
L 384.809787 303.783313 
L 385.677997 269.663353 
L 386.546208 264.519641 
L 387.414418 264.519641 
L 388.282628 266.062754 
L 389.150839 264.005269 
L 390.887259 263.319441 
L 391.755469 262.462156 
L 392.62368 262.462156 
L 393.49189 264.519641 
L 394.3601 264.691098 
L 395.22831 265.205469 
L 396.096521 265.548383 
L 396.964731 261.947784 
L 397.832941 260.404671 
L 399.569362 260.061756 
L 400.437572 293.495888 
L 401.305782 293.838802 
L 402.173992 293.324431 
L 403.042203 293.324431 
L 403.910413 292.981517 
L 404.778623 292.295689 
L 405.646834 287.323433 
L 406.515044 286.466148 
L 407.383254 280.122236 
L 408.251464 279.779321 
L 409.119675 277.550379 
L 409.987885 276.693094 
L 410.856095 277.036008 
L 411.724305 243.087505 
L 412.592516 243.258962 
L 413.460726 276.693094 
L 414.328936 279.779321 
L 416.933567 278.236208 
L 417.801777 280.293693 
L 418.669987 292.124232 
L 419.538198 284.58012 
L 420.406408 316.642595 
L 421.274618 321.271936 
L 422.142829 321.100479 
L 423.011039 323.500878 
L 423.879249 325.558363 
L 424.747459 325.72982 
L 425.61567 326.244192 
L 426.48388 327.444391 
L 427.35209 327.615848 
L 428.2203 327.958762 
L 429.088511 327.615848 
L 430.824931 327.272934 
L 432.561352 264.691098 
L 433.429562 264.862555 
L 434.297772 265.376926 
L 435.165982 266.062754 
L 436.902403 198.508663 
L 437.770613 198.508663 
L 439.507034 198.851577 
L 440.375244 203.995289 
L 441.243454 205.024032 
L 442.111665 208.624631 
L 442.979875 208.967545 
L 443.848085 210.339202 
L 444.716295 206.738603 
L 445.584506 205.366946 
L 446.452716 238.11525 
L 447.320926 237.772335 
L 448.189136 237.943792 
L 449.057347 236.91505 
L 449.925557 237.772335 
L 450.793767 238.458164 
L 451.661977 238.972535 
L 452.530188 238.629621 
L 453.398398 238.458164 
L 454.266608 233.314451 
L 455.134819 234.343194 
L 456.003029 235.029022 
L 456.871239 234.514651 
L 457.739449 234.514651 
L 458.60766 233.142994 
L 460.34408 233.485908 
L 461.21229 232.285709 
L 462.080501 231.942794 
L 462.948711 232.457166 
L 463.816921 232.457166 
L 464.685131 213.082515 
L 465.553342 206.738603 
L 466.421552 240.858563 
L 467.289762 261.433413 
L 468.157972 261.776327 
L 469.026183 260.061756 
L 469.894393 256.118244 
L 470.762603 287.666347 
L 471.630814 298.811058 
L 472.499024 273.778323 
L 473.367234 267.091497 
L 474.235444 265.376926 
L 475.103655 264.176727 
L 475.971865 262.290699 
L 477.708285 262.976527 
L 478.576496 252.860559 
L 479.444706 251.831816 
L 480.312916 247.202475 
L 481.181126 247.202475 
L 482.049337 226.627625 
L 482.917547 226.970539 
L 483.785757 225.941796 
L 484.653967 223.36994 
L 485.522178 216.511657 
L 486.390388 215.825828 
L 487.258598 191.821836 
L 488.126809 188.392695 
L 488.995019 199.708862 
L 489.863229 194.736607 
L 490.731439 193.193493 
L 491.59965 193.879321 
L 492.46786 194.736607 
L 493.33607 193.536407 
L 494.20428 189.24998 
L 495.072491 188.564152 
L 495.940701 175.876327 
L 496.808911 176.219242 
L 497.677121 176.390699 
L 498.545332 174.333214 
L 499.413542 193.022036 
L 500.281752 199.537405 
L 501.149962 197.651377 
L 502.018173 201.080519 
L 502.886383 195.936806 
L 503.754593 177.076527 
L 504.622804 180.505669 
L 505.491014 183.077525 
L 506.359224 200.394691 
L 507.227434 224.913054 
L 508.095645 220.969541 
L 508.963855 216.168743 
L 509.832065 215.654371 
L 510.700275 216.168743 
L 511.568486 208.796088 
L 512.436696 206.91006 
L 513.304906 217.368942 
L 514.173116 222.855569 
L 515.041327 227.313453 
L 515.909537 228.68511 
L 516.777747 249.602874 
L 517.645957 245.316447 
L 518.514168 229.370938 
L 519.382378 232.285709 
L 520.250588 228.856567 
L 521.118798 229.028024 
L 521.987009 251.317445 
L 522.855219 254.918044 
L 523.723429 256.461158 
L 524.59164 251.317445 
L 525.45985 249.25996 
L 526.32806 248.574132 
L 527.19627 248.05976 
L 528.932691 252.346188 
L 529.800901 253.032016 
L 530.669111 261.433413 
L 532.405532 261.433413 
L 533.273742 259.547385 
L 534.141952 260.404671 
L 535.010163 255.946786 
L 535.878373 250.803074 
L 536.746583 259.033014 
L 537.614793 249.945788 
L 538.483004 266.405669 
L 539.351214 266.92004 
L 541.087635 249.431417 
L 541.955845 239.658363 
L 543.692265 254.232216 
L 544.560476 251.488902 
L 546.296896 253.203473 
L 547.165106 245.659361 
L 548.033317 235.71485 
L 548.901527 231.942794 
L 549.769737 232.971537 
L 550.637947 232.80008 
L 551.506158 198.68012 
L 552.374368 169.018044 
L 553.242578 152.901078 
L 554.110788 153.072535 
L 554.978999 163.017046 
L 555.847209 163.531417 
L 556.715419 165.245988 
L 557.58363 164.731617 
L 558.45184 163.702874 
L 559.32005 140.727625 
L 560.18826 143.299481 
L 561.056471 143.642395 
L 561.924681 143.813852 
L 562.792891 142.956567 
L 563.661101 144.671138 
L 564.529312 144.328224 
L 565.397522 149.471936 
L 566.265732 148.786108 
L 567.133942 148.614651 
L 568.002153 152.386707 
L 568.870363 152.043792 
L 569.738573 155.815848 
L 570.606783 162.331218 
L 571.474994 164.045788 
L 572.343204 144.156766 
L 573.211414 147.928822 
L 574.079625 147.757365 
L 574.947835 155.472934 
L 575.816045 169.875329 
L 576.684255 179.991297 
L 577.552466 182.734611 
L 578.420676 182.563154 
L 579.288886 184.277725 
L 580.157096 184.963553 
L 581.025307 193.536407 
L 581.893517 168.846587 
L 582.761727 176.733613 
L 583.629937 180.677126 
L 584.498148 180.505669 
L 585.366358 180.505669 
L 587.970989 281.322435 
L 588.839199 281.150978 
L 589.707409 281.150978 
L 590.57562 281.322435 
L 591.44383 247.716846 
L 592.31204 247.888303 
L 593.18025 215.482914 
L 594.048461 215.482914 
L 594.916671 216.168743 
L 595.784881 216.168743 
L 596.653091 216.511657 
L 597.521302 183.93481 
L 598.389512 182.906068 
L 599.257722 149.300479 
L 600.125932 149.643393 
L 600.994143 149.471936 
L 601.862353 115.523433 
L 602.730563 115.866347 
L 603.598773 115.351976 
L 604.466984 115.180519 
L 606.203404 114.151776 
L 607.071615 114.151776 
L 608.808035 46.426228 
L 609.676245 45.568942 
L 610.544456 43.854371 
L 611.412666 43.511457 
L 612.280876 43.511457 
L 613.149086 43.34 
L 614.017297 45.911856 
L 614.885507 46.083313 
L 615.753717 45.568942 
L 616.621927 79.345988 
L 617.490138 82.089301 
L 618.358348 81.917844 
L 619.226558 82.432216 
L 620.094768 81.917844 
L 620.962979 81.232016 
L 621.831189 80.889102 
L 622.699399 81.746387 
L 623.56761 81.403473 
L 624.43582 81.57493 
L 625.30403 80.889102 
L 626.17224 114.494691 
L 627.040451 114.837605 
L 628.776871 114.837605 
L 629.645081 114.494691 
L 630.513292 114.323234 
L 631.381502 113.980319 
L 632.249712 147.585908 
L 633.117922 148.614651 
L 633.986133 182.22024 
L 634.854343 181.534411 
L 635.722553 181.877325 
L 636.590763 213.425429 
L 637.458974 213.082515 
L 638.327184 212.568144 
L 639.195394 211.882315 
L 640.063605 212.568144 
L 640.931815 212.739601 
L 643.536446 314.58511 
L 645.272866 317.842794 
L 646.141076 318.185709 
L 647.009287 318.70008 
L 647.877497 318.871537 
L 648.745707 318.528623 
L 649.613917 318.357166 
L 650.482128 319.214451 
L 651.350338 319.385908 
L 652.218548 319.042994 
L 653.086758 319.214451 
L 653.954969 318.357166 
L 654.823179 316.985509 
L 655.691389 318.014251 
L 656.559599 317.49988 
L 657.42781 317.156966 
L 658.29602 317.842794 
L 659.16423 317.842794 
L 660.032441 318.70008 
L 660.900651 319.214451 
L 661.768861 318.185709 
L 663.505282 385.568343 
L 665.241702 385.911257 
L 666.109912 385.911257 
L 666.978123 386.254172 
L 667.846333 386.425629 
L 668.714543 386.94 
L 669.582753 386.082715 
L 670.450964 383.853772 
L 671.319174 384.368144 
L 672.187384 384.711058 
L 673.055594 385.568343 
L 673.923805 386.597086 
L 674.792015 386.425629 
L 675.660225 386.425629 
L 676.528436 386.597086 
L 677.396646 386.597086 
L 678.264856 386.768543 
L 679.133066 386.597086 
L 680.001277 384.539601 
L 680.869487 384.539601 
L 681.737697 382.653573 
L 682.605907 382.82503 
L 683.474118 383.167944 
L 684.342328 377.50986 
L 685.210538 377.338403 
L 686.078748 375.109461 
L 686.946959 375.452375 
L 687.815169 372.709062 
L 688.683379 373.223433 
L 689.551589 375.280918 
L 690.4198 375.280918 
L 691.28801 375.966747 
L 692.15622 376.309661 
L 693.024431 375.795289 
L 693.892641 375.795289 
L 694.760851 374.766547 
L 695.629061 374.423633 
L 696.497272 374.938004 
L 697.365482 374.766547 
L 698.233692 374.938004 
L 699.101902 375.452375 
L 699.970113 375.452375 
L 700.838323 375.795289 
L 701.706533 373.39489 
L 702.574743 373.737804 
L 703.442954 373.566347 
L 704.311164 374.423633 
L 706.047584 378.024232 
L 706.915795 377.852774 
L 708.652215 378.881517 
L 709.520426 378.195689 
L 710.388636 377.681317 
L 711.256846 377.50986 
L 712.125056 376.995489 
L 712.993267 376.652575 
L 713.861477 375.795289 
L 714.729687 376.481118 
L 715.597897 376.309661 
L 716.466108 378.024232 
L 717.334318 376.995489 
L 718.202528 376.995489 
L 719.070738 382.310659 
L 719.938949 381.110459 
L 720.807159 383.167944 
L 721.675369 383.167944 
L 722.543579 385.911257 
L 723.41179 386.425629 
L 724.28 385.911257 
L 724.28 385.911257 
" style="fill:none;stroke:#ff7f0e;stroke-linecap:square;stroke-width:1.5;"/>
   </g>
   <g id="patch_3">
    <path d="M 30.58 404.12 
L 30.58 26.16 
" style="fill:none;stroke:#000000;stroke-linecap:square;stroke-linejoin:miter;stroke-width:0.8;"/>
   </g>
   <g id="patch_4">
    <path d="M 724.28 404.12 
L 724.28 26.16 
" style="fill:none;stroke:#000000;stroke-linecap:square;stroke-linejoin:miter;stroke-width:0.8;"/>
   </g>
   <g id="patch_5">
    <path d="M 30.58 404.12 
L 724.28 404.12 
" style="fill:none;stroke:#000000;stroke-linecap:square;stroke-linejoin:miter;stroke-width:0.8;"/>
   </g>
   <g id="patch_6">
    <path d="M 30.58 26.16 
L 724.28 26.16 
" style="fill:none;stroke:#000000;stroke-linecap:square;stroke-linejoin:miter;stroke-width:0.8;"/>
   </g>
   <g id="text_14">
    <!-- gridworld_5x5_50_4_4_1337__2: episode duration, steps, MA=40 -->
    <defs>
     <path d="M 45.40625 27.984375 
Q 45.40625 37.75 41.375 43.109375 
Q 37.359375 48.484375 30.078125 48.484375 
Q 22.859375 48.484375 18.828125 43.109375 
Q 14.796875 37.75 14.796875 27.984375 
Q 14.796875 18.265625 18.828125 12.890625 
Q 22.859375 7.515625 30.078125 7.515625 
Q 37.359375 7.515625 41.375 12.890625 
Q 45.40625 18.265625 45.40625 27.984375 
z
M 54.390625 6.78125 
Q 54.390625 -7.171875 48.1875 -13.984375 
Q 42 -20.796875 29.203125 -20.796875 
Q 24.46875 -20.796875 20.265625 -20.09375 
Q 16.0625 -19.390625 12.109375 -17.921875 
L 12.109375 -9.1875 
Q 16.0625 -11.328125 19.921875 -12.34375 
Q 23.78125 -13.375 27.78125 -13.375 
Q 36.625 -13.375 41.015625 -8.765625 
Q 45.40625 -4.15625 45.40625 5.171875 
L 45.40625 9.625 
Q 42.625 4.78125 38.28125 2.390625 
Q 33.9375 0 27.875 0 
Q 17.828125 0 11.671875 7.65625 
Q 5.515625 15.328125 5.515625 27.984375 
Q 5.515625 40.671875 11.671875 48.328125 
Q 17.828125 56 27.875 56 
Q 33.9375 56 38.28125 53.609375 
Q 42.625 51.21875 45.40625 46.390625 
L 45.40625 54.6875 
L 54.390625 54.6875 
z
" id="DejaVuSans-103"/>
     <path d="M 41.109375 46.296875 
Q 39.59375 47.171875 37.8125 47.578125 
Q 36.03125 48 33.890625 48 
Q 26.265625 48 22.1875 43.046875 
Q 18.109375 38.09375 18.109375 28.8125 
L 18.109375 0 
L 9.078125 0 
L 9.078125 54.6875 
L 18.109375 54.6875 
L 18.109375 46.1875 
Q 20.953125 51.171875 25.484375 53.578125 
Q 30.03125 56 36.53125 56 
Q 37.453125 56 38.578125 55.875 
Q 39.703125 55.765625 41.0625 55.515625 
z
" id="DejaVuSans-114"/>
     <path d="M 9.421875 54.6875 
L 18.40625 54.6875 
L 18.40625 0 
L 9.421875 0 
z
M 9.421875 75.984375 
L 18.40625 75.984375 
L 18.40625 64.59375 
L 9.421875 64.59375 
z
" id="DejaVuSans-105"/>
     <path d="M 45.40625 46.390625 
L 45.40625 75.984375 
L 54.390625 75.984375 
L 54.390625 0 
L 45.40625 0 
L 45.40625 8.203125 
Q 42.578125 3.328125 38.25 0.953125 
Q 33.9375 -1.421875 27.875 -1.421875 
Q 17.96875 -1.421875 11.734375 6.484375 
Q 5.515625 14.40625 5.515625 27.296875 
Q 5.515625 40.1875 11.734375 48.09375 
Q 17.96875 56 27.875 56 
Q 33.9375 56 38.25 53.625 
Q 42.578125 51.265625 45.40625 46.390625 
z
M 14.796875 27.296875 
Q 14.796875 17.390625 18.875 11.75 
Q 22.953125 6.109375 30.078125 6.109375 
Q 37.203125 6.109375 41.296875 11.75 
Q 45.40625 17.390625 45.40625 27.296875 
Q 45.40625 37.203125 41.296875 42.84375 
Q 37.203125 48.484375 30.078125 48.484375 
Q 22.953125 48.484375 18.875 42.84375 
Q 14.796875 37.203125 14.796875 27.296875 
z
" id="DejaVuSans-100"/>
     <path d="M 4.203125 54.6875 
L 13.1875 54.6875 
L 24.421875 12.015625 
L 35.59375 54.6875 
L 46.1875 54.6875 
L 57.421875 12.015625 
L 68.609375 54.6875 
L 77.59375 54.6875 
L 63.28125 0 
L 52.6875 0 
L 40.921875 44.828125 
L 29.109375 0 
L 18.5 0 
z
" id="DejaVuSans-119"/>
     <path d="M 30.609375 48.390625 
Q 23.390625 48.390625 19.1875 42.75 
Q 14.984375 37.109375 14.984375 27.296875 
Q 14.984375 17.484375 19.15625 11.84375 
Q 23.34375 6.203125 30.609375 6.203125 
Q 37.796875 6.203125 41.984375 11.859375 
Q 46.1875 17.53125 46.1875 27.296875 
Q 46.1875 37.015625 41.984375 42.703125 
Q 37.796875 48.390625 30.609375 48.390625 
z
M 30.609375 56 
Q 42.328125 56 49.015625 48.375 
Q 55.71875 40.765625 55.71875 27.296875 
Q 55.71875 13.875 49.015625 6.21875 
Q 42.328125 -1.421875 30.609375 -1.421875 
Q 18.84375 -1.421875 12.171875 6.21875 
Q 5.515625 13.875 5.515625 27.296875 
Q 5.515625 40.765625 12.171875 48.375 
Q 18.84375 56 30.609375 56 
z
" id="DejaVuSans-111"/>
     <path d="M 9.421875 75.984375 
L 18.40625 75.984375 
L 18.40625 0 
L 9.421875 0 
z
" id="DejaVuSans-108"/>
     <path d="M 50.984375 -16.609375 
L 50.984375 -23.578125 
L -0.984375 -23.578125 
L -0.984375 -16.609375 
z
" id="DejaVuSans-95"/>
     <path d="M 54.890625 54.6875 
L 35.109375 28.078125 
L 55.90625 0 
L 45.3125 0 
L 29.390625 21.484375 
L 13.484375 0 
L 2.875 0 
L 24.125 28.609375 
L 4.6875 54.6875 
L 15.28125 54.6875 
L 29.78125 35.203125 
L 44.28125 54.6875 
z
" id="DejaVuSans-120"/>
     <path d="M 11.71875 12.40625 
L 22.015625 12.40625 
L 22.015625 0 
L 11.71875 0 
z
M 11.71875 51.703125 
L 22.015625 51.703125 
L 22.015625 39.3125 
L 11.71875 39.3125 
z
" id="DejaVuSans-58"/>
     <path id="DejaVuSans-32"/>
     <path d="M 56.203125 29.59375 
L 56.203125 25.203125 
L 14.890625 25.203125 
Q 15.484375 15.921875 20.484375 11.0625 
Q 25.484375 6.203125 34.421875 6.203125 
Q 39.59375 6.203125 44.453125 7.46875 
Q 49.3125 8.734375 54.109375 11.28125 
L 54.109375 2.78125 
Q 49.265625 0.734375 44.1875 -0.34375 
Q 39.109375 -1.421875 33.890625 -1.421875 
Q 20.796875 -1.421875 13.15625 6.1875 
Q 5.515625 13.8125 5.515625 26.8125 
Q 5.515625 40.234375 12.765625 48.109375 
Q 20.015625 56 32.328125 56 
Q 43.359375 56 49.78125 48.890625 
Q 56.203125 41.796875 56.203125 29.59375 
z
M 47.21875 32.234375 
Q 47.125 39.59375 43.09375 43.984375 
Q 39.0625 48.390625 32.421875 48.390625 
Q 24.90625 48.390625 20.390625 44.140625 
Q 15.875 39.890625 15.1875 32.171875 
z
" id="DejaVuSans-101"/>
     <path d="M 18.109375 8.203125 
L 18.109375 -20.796875 
L 9.078125 -20.796875 
L 9.078125 54.6875 
L 18.109375 54.6875 
L 18.109375 46.390625 
Q 20.953125 51.265625 25.265625 53.625 
Q 29.59375 56 35.59375 56 
Q 45.5625 56 51.78125 48.09375 
Q 58.015625 40.1875 58.015625 27.296875 
Q 58.015625 14.40625 51.78125 6.484375 
Q 45.5625 -1.421875 35.59375 -1.421875 
Q 29.59375 -1.421875 25.265625 0.953125 
Q 20.953125 3.328125 18.109375 8.203125 
z
M 48.6875 27.296875 
Q 48.6875 37.203125 44.609375 42.84375 
Q 40.53125 48.484375 33.40625 48.484375 
Q 26.265625 48.484375 22.1875 42.84375 
Q 18.109375 37.203125 18.109375 27.296875 
Q 18.109375 17.390625 22.1875 11.75 
Q 26.265625 6.109375 33.40625 6.109375 
Q 40.53125 6.109375 44.609375 11.75 
Q 48.6875 17.390625 48.6875 27.296875 
z
" id="DejaVuSans-112"/>
     <path d="M 44.28125 53.078125 
L 44.28125 44.578125 
Q 40.484375 46.53125 36.375 47.5 
Q 32.28125 48.484375 27.875 48.484375 
Q 21.1875 48.484375 17.84375 46.4375 
Q 14.5 44.390625 14.5 40.28125 
Q 14.5 37.15625 16.890625 35.375 
Q 19.28125 33.59375 26.515625 31.984375 
L 29.59375 31.296875 
Q 39.15625 29.25 43.1875 25.515625 
Q 47.21875 21.78125 47.21875 15.09375 
Q 47.21875 7.46875 41.1875 3.015625 
Q 35.15625 -1.421875 24.609375 -1.421875 
Q 20.21875 -1.421875 15.453125 -0.5625 
Q 10.6875 0.296875 5.421875 2 
L 5.421875 11.28125 
Q 10.40625 8.6875 15.234375 7.390625 
Q 20.0625 6.109375 24.8125 6.109375 
Q 31.15625 6.109375 34.5625 8.28125 
Q 37.984375 10.453125 37.984375 14.40625 
Q 37.984375 18.0625 35.515625 20.015625 
Q 33.0625 21.96875 24.703125 23.78125 
L 21.578125 24.515625 
Q 13.234375 26.265625 9.515625 29.90625 
Q 5.8125 33.546875 5.8125 39.890625 
Q 5.8125 47.609375 11.28125 51.796875 
Q 16.75 56 26.8125 56 
Q 31.78125 56 36.171875 55.265625 
Q 40.578125 54.546875 44.28125 53.078125 
z
" id="DejaVuSans-115"/>
     <path d="M 8.5 21.578125 
L 8.5 54.6875 
L 17.484375 54.6875 
L 17.484375 21.921875 
Q 17.484375 14.15625 20.5 10.265625 
Q 23.53125 6.390625 29.59375 6.390625 
Q 36.859375 6.390625 41.078125 11.03125 
Q 45.3125 15.671875 45.3125 23.6875 
L 45.3125 54.6875 
L 54.296875 54.6875 
L 54.296875 0 
L 45.3125 0 
L 45.3125 8.40625 
Q 42.046875 3.421875 37.71875 1 
Q 33.40625 -1.421875 27.6875 -1.421875 
Q 18.265625 -1.421875 13.375 4.4375 
Q 8.5 10.296875 8.5 21.578125 
z
M 31.109375 56 
z
" id="DejaVuSans-117"/>
     <path d="M 34.28125 27.484375 
Q 23.390625 27.484375 19.1875 25 
Q 14.984375 22.515625 14.984375 16.5 
Q 14.984375 11.71875 18.140625 8.90625 
Q 21.296875 6.109375 26.703125 6.109375 
Q 34.1875 6.109375 38.703125 11.40625 
Q 43.21875 16.703125 43.21875 25.484375 
L 43.21875 27.484375 
z
M 52.203125 31.203125 
L 52.203125 0 
L 43.21875 0 
L 43.21875 8.296875 
Q 40.140625 3.328125 35.546875 0.953125 
Q 30.953125 -1.421875 24.3125 -1.421875 
Q 15.921875 -1.421875 10.953125 3.296875 
Q 6 8.015625 6 15.921875 
Q 6 25.140625 12.171875 29.828125 
Q 18.359375 34.515625 30.609375 34.515625 
L 43.21875 34.515625 
L 43.21875 35.40625 
Q 43.21875 41.609375 39.140625 45 
Q 35.0625 48.390625 27.6875 48.390625 
Q 23 48.390625 18.546875 47.265625 
Q 14.109375 46.140625 10.015625 43.890625 
L 10.015625 52.203125 
Q 14.9375 54.109375 19.578125 55.046875 
Q 24.21875 56 28.609375 56 
Q 40.484375 56 46.34375 49.84375 
Q 52.203125 43.703125 52.203125 31.203125 
z
" id="DejaVuSans-97"/>
     <path d="M 18.3125 70.21875 
L 18.3125 54.6875 
L 36.8125 54.6875 
L 36.8125 47.703125 
L 18.3125 47.703125 
L 18.3125 18.015625 
Q 18.3125 11.328125 20.140625 9.421875 
Q 21.96875 7.515625 27.59375 7.515625 
L 36.8125 7.515625 
L 36.8125 0 
L 27.59375 0 
Q 17.1875 0 13.234375 3.875 
Q 9.28125 7.765625 9.28125 18.015625 
L 9.28125 47.703125 
L 2.6875 47.703125 
L 2.6875 54.6875 
L 9.28125 54.6875 
L 9.28125 70.21875 
z
" id="DejaVuSans-116"/>
     <path d="M 54.890625 33.015625 
L 54.890625 0 
L 45.90625 0 
L 45.90625 32.71875 
Q 45.90625 40.484375 42.875 44.328125 
Q 39.84375 48.1875 33.796875 48.1875 
Q 26.515625 48.1875 22.3125 43.546875 
Q 18.109375 38.921875 18.109375 30.90625 
L 18.109375 0 
L 9.078125 0 
L 9.078125 54.6875 
L 18.109375 54.6875 
L 18.109375 46.1875 
Q 21.34375 51.125 25.703125 53.5625 
Q 30.078125 56 35.796875 56 
Q 45.21875 56 50.046875 50.171875 
Q 54.890625 44.34375 54.890625 33.015625 
z
" id="DejaVuSans-110"/>
     <path d="M 11.71875 12.40625 
L 22.015625 12.40625 
L 22.015625 4 
L 14.015625 -11.625 
L 7.71875 -11.625 
L 11.71875 4 
z
" id="DejaVuSans-44"/>
     <path d="M 9.8125 72.90625 
L 24.515625 72.90625 
L 43.109375 23.296875 
L 61.8125 72.90625 
L 76.515625 72.90625 
L 76.515625 0 
L 66.890625 0 
L 66.890625 64.015625 
L 48.09375 14.015625 
L 38.1875 14.015625 
L 19.390625 64.015625 
L 19.390625 0 
L 9.8125 0 
z
" id="DejaVuSans-77"/>
     <path d="M 34.1875 63.1875 
L 20.796875 26.90625 
L 47.609375 26.90625 
z
M 28.609375 72.90625 
L 39.796875 72.90625 
L 67.578125 0 
L 57.328125 0 
L 50.6875 18.703125 
L 17.828125 18.703125 
L 11.1875 0 
L 0.78125 0 
z
" id="DejaVuSans-65"/>
     <path d="M 10.59375 45.40625 
L 73.1875 45.40625 
L 73.1875 37.203125 
L 10.59375 37.203125 
z
M 10.59375 25.484375 
L 73.1875 25.484375 
L 73.1875 17.1875 
L 10.59375 17.1875 
z
" id="DejaVuSans-61"/>
    </defs>
    <g transform="translate(182.389687 20.16)scale(0.12 -0.12)">
     <use xlink:href="#DejaVuSans-103"/>
     <use x="63.476562" xlink:href="#DejaVuSans-114"/>
     <use x="104.589844" xlink:href="#DejaVuSans-105"/>
     <use x="132.373047" xlink:href="#DejaVuSans-100"/>
     <use x="195.849609" xlink:href="#DejaVuSans-119"/>
     <use x="277.636719" xlink:href="#DejaVuSans-111"/>
     <use x="338.818359" xlink:href="#DejaVuSans-114"/>
     <use x="379.931641" xlink:href="#DejaVuSans-108"/>
     <use x="407.714844" xlink:href="#DejaVuSans-100"/>
     <use x="471.191406" xlink:href="#DejaVuSans-95"/>
     <use x="521.191406" xlink:href="#DejaVuSans-53"/>
     <use x="584.814453" xlink:href="#DejaVuSans-120"/>
     <use x="643.994141" xlink:href="#DejaVuSans-53"/>
     <use x="707.617188" xlink:href="#DejaVuSans-95"/>
     <use x="757.617188" xlink:href="#DejaVuSans-53"/>
     <use x="821.240234" xlink:href="#DejaVuSans-48"/>
     <use x="884.863281" xlink:href="#DejaVuSans-95"/>
     <use x="934.863281" xlink:href="#DejaVuSans-52"/>
     <use x="998.486328" xlink:href="#DejaVuSans-95"/>
     <use x="1048.486328" xlink:href="#DejaVuSans-52"/>
     <use x="1112.109375" xlink:href="#DejaVuSans-95"/>
     <use x="1162.109375" xlink:href="#DejaVuSans-49"/>
     <use x="1225.732422" xlink:href="#DejaVuSans-51"/>
     <use x="1289.355469" xlink:href="#DejaVuSans-51"/>
     <use x="1352.978516" xlink:href="#DejaVuSans-55"/>
     <use x="1416.601562" xlink:href="#DejaVuSans-95"/>
     <use x="1466.601562" xlink:href="#DejaVuSans-95"/>
     <use x="1516.601562" xlink:href="#DejaVuSans-50"/>
     <use x="1580.224609" xlink:href="#DejaVuSans-58"/>
     <use x="1613.916016" xlink:href="#DejaVuSans-32"/>
     <use x="1645.703125" xlink:href="#DejaVuSans-101"/>
     <use x="1707.226562" xlink:href="#DejaVuSans-112"/>
     <use x="1770.703125" xlink:href="#DejaVuSans-105"/>
     <use x="1798.486328" xlink:href="#DejaVuSans-115"/>
     <use x="1850.585938" xlink:href="#DejaVuSans-111"/>
     <use x="1911.767578" xlink:href="#DejaVuSans-100"/>
     <use x="1975.244141" xlink:href="#DejaVuSans-101"/>
     <use x="2036.767578" xlink:href="#DejaVuSans-32"/>
     <use x="2068.554688" xlink:href="#DejaVuSans-100"/>
     <use x="2132.03125" xlink:href="#DejaVuSans-117"/>
     <use x="2195.410156" xlink:href="#DejaVuSans-114"/>
     <use x="2236.523438" xlink:href="#DejaVuSans-97"/>
     <use x="2297.802734" xlink:href="#DejaVuSans-116"/>
     <use x="2337.011719" xlink:href="#DejaVuSans-105"/>
     <use x="2364.794922" xlink:href="#DejaVuSans-111"/>
     <use x="2425.976562" xlink:href="#DejaVuSans-110"/>
     <use x="2489.355469" xlink:href="#DejaVuSans-44"/>
     <use x="2521.142578" xlink:href="#DejaVuSans-32"/>
     <use x="2552.929688" xlink:href="#DejaVuSans-115"/>
     <use x="2605.029297" xlink:href="#DejaVuSans-116"/>
     <use x="2644.238281" xlink:href="#DejaVuSans-101"/>
     <use x="2705.761719" xlink:href="#DejaVuSans-112"/>
     <use x="2769.238281" xlink:href="#DejaVuSans-115"/>
     <use x="2821.337891" xlink:href="#DejaVuSans-44"/>
     <use x="2853.125" xlink:href="#DejaVuSans-32"/>
     <use x="2884.912109" xlink:href="#DejaVuSans-77"/>
     <use x="2971.191406" xlink:href="#DejaVuSans-65"/>
     <use x="3039.599609" xlink:href="#DejaVuSans-61"/>
     <use x="3123.388672" xlink:href="#DejaVuSans-52"/>
     <use x="3187.011719" xlink:href="#DejaVuSans-48"/>
    </g>
   </g>
   <g id="legend_1">
    <g id="patch_7">
     <path d="M 774.948125 231.59625 
L 856.02 231.59625 
Q 858.02 231.59625 858.02 229.59625 
L 858.02 200.68375 
Q 858.02 198.68375 856.02 198.68375 
L 774.948125 198.68375 
Q 772.948125 198.68375 772.948125 200.68375 
L 772.948125 229.59625 
Q 772.948125 231.59625 774.948125 231.59625 
z
" style="fill:#ffffff;opacity:0.8;stroke:#cccccc;stroke-linejoin:miter;"/>
    </g>
    <g id="line2d_16">
     <path d="M 776.948125 206.782187 
L 796.948125 206.782187 
" style="fill:none;stroke:#1f77b4;stroke-linecap:square;stroke-width:1.5;"/>
    </g>
    <g id="line2d_17"/>
    <g id="text_15">
     <!-- htm_2_1g -->
     <defs>
      <path d="M 54.890625 33.015625 
L 54.890625 0 
L 45.90625 0 
L 45.90625 32.71875 
Q 45.90625 40.484375 42.875 44.328125 
Q 39.84375 48.1875 33.796875 48.1875 
Q 26.515625 48.1875 22.3125 43.546875 
Q 18.109375 38.921875 18.109375 30.90625 
L 18.109375 0 
L 9.078125 0 
L 9.078125 75.984375 
L 18.109375 75.984375 
L 18.109375 46.1875 
Q 21.34375 51.125 25.703125 53.5625 
Q 30.078125 56 35.796875 56 
Q 45.21875 56 50.046875 50.171875 
Q 54.890625 44.34375 54.890625 33.015625 
z
" id="DejaVuSans-104"/>
      <path d="M 52 44.1875 
Q 55.375 50.25 60.0625 53.125 
Q 64.75 56 71.09375 56 
Q 79.640625 56 84.28125 50.015625 
Q 88.921875 44.046875 88.921875 33.015625 
L 88.921875 0 
L 79.890625 0 
L 79.890625 32.71875 
Q 79.890625 40.578125 77.09375 44.375 
Q 74.3125 48.1875 68.609375 48.1875 
Q 61.625 48.1875 57.5625 43.546875 
Q 53.515625 38.921875 53.515625 30.90625 
L 53.515625 0 
L 44.484375 0 
L 44.484375 32.71875 
Q 44.484375 40.625 41.703125 44.40625 
Q 38.921875 48.1875 33.109375 48.1875 
Q 26.21875 48.1875 22.15625 43.53125 
Q 18.109375 38.875 18.109375 30.90625 
L 18.109375 0 
L 9.078125 0 
L 9.078125 54.6875 
L 18.109375 54.6875 
L 18.109375 46.1875 
Q 21.1875 51.21875 25.484375 53.609375 
Q 29.78125 56 35.6875 56 
Q 41.65625 56 45.828125 52.96875 
Q 50 49.953125 52 44.1875 
z
" id="DejaVuSans-109"/>
     </defs>
     <g transform="translate(804.948125 210.282187)scale(0.1 -0.1)">
      <use xlink:href="#DejaVuSans-104"/>
      <use x="63.378906" xlink:href="#DejaVuSans-116"/>
      <use x="102.587891" xlink:href="#DejaVuSans-109"/>
      <use x="200" xlink:href="#DejaVuSans-95"/>
      <use x="250" xlink:href="#DejaVuSans-50"/>
      <use x="313.623047" xlink:href="#DejaVuSans-95"/>
      <use x="363.623047" xlink:href="#DejaVuSans-49"/>
      <use x="427.246094" xlink:href="#DejaVuSans-103"/>
     </g>
    </g>
    <g id="line2d_18">
     <path d="M 776.948125 221.738437 
L 796.948125 221.738437 
" style="fill:none;stroke:#ff7f0e;stroke-linecap:square;stroke-width:1.5;"/>
    </g>
    <g id="line2d_19"/>
    <g id="text_16">
     <!-- htm_2_4g -->
     <g transform="translate(804.948125 225.238437)scale(0.1 -0.1)">
      <use xlink:href="#DejaVuSans-104"/>
      <use x="63.378906" xlink:href="#DejaVuSans-116"/>
      <use x="102.587891" xlink:href="#DejaVuSans-109"/>
      <use x="200" xlink:href="#DejaVuSans-95"/>
      <use x="250" xlink:href="#DejaVuSans-50"/>
      <use x="313.623047" xlink:href="#DejaVuSans-95"/>
      <use x="363.623047" xlink:href="#DejaVuSans-52"/>
      <use x="427.246094" xlink:href="#DejaVuSans-103"/>
     </g>
    </g>
   </g>
  </g>
 </g>
 <defs>
  <clipPath id="p7d3134258e">
   <rect height="377.96" width="693.7" x="30.58" y="26.16"/>
  </clipPath>
 </defs>
</svg>
