<?xml version="1.0" encoding="utf-8" standalone="no"?>
<!DOCTYPE svg PUBLIC "-//W3C//DTD SVG 1.1//EN"
  "http://www.w3.org/Graphics/SVG/1.1/DTD/svg11.dtd">
<!-- Created with matplotlib (https://matplotlib.org/) -->
<svg height="432pt" version="1.1" viewBox="0 0 864 432" width="864pt" xmlns="http://www.w3.org/2000/svg" xmlns:xlink="http://www.w3.org/1999/xlink">
 <defs>
  <style type="text/css">
*{stroke-linecap:butt;stroke-linejoin:round;}
  </style>
 </defs>
 <g id="figure_1">
  <g id="patch_1">
   <path d="M 0 432 
L 864 432 
L 864 0 
L 0 0 
z
" style="fill:#ffffff;"/>
  </g>
  <g id="axes_1">
   <g id="patch_2">
    <path d="M 36.925 404.12 
L 724.28 404.12 
L 724.28 26.16 
L 36.925 26.16 
z
" style="fill:#ffffff;"/>
   </g>
   <g id="matplotlib.axis_1">
    <g id="xtick_1">
     <g id="line2d_1">
      <defs>
       <path d="M 0 0 
L 0 3.5 
" id="md91f9fa197" style="stroke:#000000;stroke-width:0.8;"/>
      </defs>
      <g>
       <use style="stroke:#000000;stroke-width:0.8;" x="36.925" xlink:href="#md91f9fa197" y="404.12"/>
      </g>
     </g>
     <g id="text_1">
      <!-- 0 -->
      <defs>
       <path d="M 31.78125 66.40625 
Q 24.171875 66.40625 20.328125 58.90625 
Q 16.5 51.421875 16.5 36.375 
Q 16.5 21.390625 20.328125 13.890625 
Q 24.171875 6.390625 31.78125 6.390625 
Q 39.453125 6.390625 43.28125 13.890625 
Q 47.125 21.390625 47.125 36.375 
Q 47.125 51.421875 43.28125 58.90625 
Q 39.453125 66.40625 31.78125 66.40625 
z
M 31.78125 74.21875 
Q 44.046875 74.21875 50.515625 64.515625 
Q 56.984375 54.828125 56.984375 36.375 
Q 56.984375 17.96875 50.515625 8.265625 
Q 44.046875 -1.421875 31.78125 -1.421875 
Q 19.53125 -1.421875 13.0625 8.265625 
Q 6.59375 17.96875 6.59375 36.375 
Q 6.59375 54.828125 13.0625 64.515625 
Q 19.53125 74.21875 31.78125 74.21875 
z
" id="DejaVuSans-48"/>
      </defs>
      <g transform="translate(33.74375 418.718437)scale(0.1 -0.1)">
       <use xlink:href="#DejaVuSans-48"/>
      </g>
     </g>
    </g>
    <g id="xtick_2">
     <g id="line2d_2">
      <g>
       <use style="stroke:#000000;stroke-width:0.8;" x="123.059712" xlink:href="#md91f9fa197" y="404.12"/>
      </g>
     </g>
     <g id="text_2">
      <!-- 50 -->
      <defs>
       <path d="M 10.796875 72.90625 
L 49.515625 72.90625 
L 49.515625 64.59375 
L 19.828125 64.59375 
L 19.828125 46.734375 
Q 21.96875 47.46875 24.109375 47.828125 
Q 26.265625 48.1875 28.421875 48.1875 
Q 40.625 48.1875 47.75 41.5 
Q 54.890625 34.8125 54.890625 23.390625 
Q 54.890625 11.625 47.5625 5.09375 
Q 40.234375 -1.421875 26.90625 -1.421875 
Q 22.3125 -1.421875 17.546875 -0.640625 
Q 12.796875 0.140625 7.71875 1.703125 
L 7.71875 11.625 
Q 12.109375 9.234375 16.796875 8.0625 
Q 21.484375 6.890625 26.703125 6.890625 
Q 35.15625 6.890625 40.078125 11.328125 
Q 45.015625 15.765625 45.015625 23.390625 
Q 45.015625 31 40.078125 35.4375 
Q 35.15625 39.890625 26.703125 39.890625 
Q 22.75 39.890625 18.8125 39.015625 
Q 14.890625 38.140625 10.796875 36.28125 
z
" id="DejaVuSans-53"/>
      </defs>
      <g transform="translate(116.697212 418.718437)scale(0.1 -0.1)">
       <use xlink:href="#DejaVuSans-53"/>
       <use x="63.623047" xlink:href="#DejaVuSans-48"/>
      </g>
     </g>
    </g>
    <g id="xtick_3">
     <g id="line2d_3">
      <g>
       <use style="stroke:#000000;stroke-width:0.8;" x="209.194424" xlink:href="#md91f9fa197" y="404.12"/>
      </g>
     </g>
     <g id="text_3">
      <!-- 100 -->
      <defs>
       <path d="M 12.40625 8.296875 
L 28.515625 8.296875 
L 28.515625 63.921875 
L 10.984375 60.40625 
L 10.984375 69.390625 
L 28.421875 72.90625 
L 38.28125 72.90625 
L 38.28125 8.296875 
L 54.390625 8.296875 
L 54.390625 0 
L 12.40625 0 
z
" id="DejaVuSans-49"/>
      </defs>
      <g transform="translate(199.650674 418.718437)scale(0.1 -0.1)">
       <use xlink:href="#DejaVuSans-49"/>
       <use x="63.623047" xlink:href="#DejaVuSans-48"/>
       <use x="127.246094" xlink:href="#DejaVuSans-48"/>
      </g>
     </g>
    </g>
    <g id="xtick_4">
     <g id="line2d_4">
      <g>
       <use style="stroke:#000000;stroke-width:0.8;" x="295.329135" xlink:href="#md91f9fa197" y="404.12"/>
      </g>
     </g>
     <g id="text_4">
      <!-- 150 -->
      <g transform="translate(285.785385 418.718437)scale(0.1 -0.1)">
       <use xlink:href="#DejaVuSans-49"/>
       <use x="63.623047" xlink:href="#DejaVuSans-53"/>
       <use x="127.246094" xlink:href="#DejaVuSans-48"/>
      </g>
     </g>
    </g>
    <g id="xtick_5">
     <g id="line2d_5">
      <g>
       <use style="stroke:#000000;stroke-width:0.8;" x="381.463847" xlink:href="#md91f9fa197" y="404.12"/>
      </g>
     </g>
     <g id="text_5">
      <!-- 200 -->
      <defs>
       <path d="M 19.1875 8.296875 
L 53.609375 8.296875 
L 53.609375 0 
L 7.328125 0 
L 7.328125 8.296875 
Q 12.9375 14.109375 22.625 23.890625 
Q 32.328125 33.6875 34.8125 36.53125 
Q 39.546875 41.84375 41.421875 45.53125 
Q 43.3125 49.21875 43.3125 52.78125 
Q 43.3125 58.59375 39.234375 62.25 
Q 35.15625 65.921875 28.609375 65.921875 
Q 23.96875 65.921875 18.8125 64.3125 
Q 13.671875 62.703125 7.8125 59.421875 
L 7.8125 69.390625 
Q 13.765625 71.78125 18.9375 73 
Q 24.125 74.21875 28.421875 74.21875 
Q 39.75 74.21875 46.484375 68.546875 
Q 53.21875 62.890625 53.21875 53.421875 
Q 53.21875 48.921875 51.53125 44.890625 
Q 49.859375 40.875 45.40625 35.40625 
Q 44.1875 33.984375 37.640625 27.21875 
Q 31.109375 20.453125 19.1875 8.296875 
z
" id="DejaVuSans-50"/>
      </defs>
      <g transform="translate(371.920097 418.718437)scale(0.1 -0.1)">
       <use xlink:href="#DejaVuSans-50"/>
       <use x="63.623047" xlink:href="#DejaVuSans-48"/>
       <use x="127.246094" xlink:href="#DejaVuSans-48"/>
      </g>
     </g>
    </g>
    <g id="xtick_6">
     <g id="line2d_6">
      <g>
       <use style="stroke:#000000;stroke-width:0.8;" x="467.598559" xlink:href="#md91f9fa197" y="404.12"/>
      </g>
     </g>
     <g id="text_6">
      <!-- 250 -->
      <g transform="translate(458.054809 418.718437)scale(0.1 -0.1)">
       <use xlink:href="#DejaVuSans-50"/>
       <use x="63.623047" xlink:href="#DejaVuSans-53"/>
       <use x="127.246094" xlink:href="#DejaVuSans-48"/>
      </g>
     </g>
    </g>
    <g id="xtick_7">
     <g id="line2d_7">
      <g>
       <use style="stroke:#000000;stroke-width:0.8;" x="553.733271" xlink:href="#md91f9fa197" y="404.12"/>
      </g>
     </g>
     <g id="text_7">
      <!-- 300 -->
      <defs>
       <path d="M 40.578125 39.3125 
Q 47.65625 37.796875 51.625 33 
Q 55.609375 28.21875 55.609375 21.1875 
Q 55.609375 10.40625 48.1875 4.484375 
Q 40.765625 -1.421875 27.09375 -1.421875 
Q 22.515625 -1.421875 17.65625 -0.515625 
Q 12.796875 0.390625 7.625 2.203125 
L 7.625 11.71875 
Q 11.71875 9.328125 16.59375 8.109375 
Q 21.484375 6.890625 26.8125 6.890625 
Q 36.078125 6.890625 40.9375 10.546875 
Q 45.796875 14.203125 45.796875 21.1875 
Q 45.796875 27.640625 41.28125 31.265625 
Q 36.765625 34.90625 28.71875 34.90625 
L 20.21875 34.90625 
L 20.21875 43.015625 
L 29.109375 43.015625 
Q 36.375 43.015625 40.234375 45.921875 
Q 44.09375 48.828125 44.09375 54.296875 
Q 44.09375 59.90625 40.109375 62.90625 
Q 36.140625 65.921875 28.71875 65.921875 
Q 24.65625 65.921875 20.015625 65.03125 
Q 15.375 64.15625 9.8125 62.3125 
L 9.8125 71.09375 
Q 15.4375 72.65625 20.34375 73.4375 
Q 25.25 74.21875 29.59375 74.21875 
Q 40.828125 74.21875 47.359375 69.109375 
Q 53.90625 64.015625 53.90625 55.328125 
Q 53.90625 49.265625 50.4375 45.09375 
Q 46.96875 40.921875 40.578125 39.3125 
z
" id="DejaVuSans-51"/>
      </defs>
      <g transform="translate(544.189521 418.718437)scale(0.1 -0.1)">
       <use xlink:href="#DejaVuSans-51"/>
       <use x="63.623047" xlink:href="#DejaVuSans-48"/>
       <use x="127.246094" xlink:href="#DejaVuSans-48"/>
      </g>
     </g>
    </g>
    <g id="xtick_8">
     <g id="line2d_8">
      <g>
       <use style="stroke:#000000;stroke-width:0.8;" x="639.867982" xlink:href="#md91f9fa197" y="404.12"/>
      </g>
     </g>
     <g id="text_8">
      <!-- 350 -->
      <g transform="translate(630.324232 418.718437)scale(0.1 -0.1)">
       <use xlink:href="#DejaVuSans-51"/>
       <use x="63.623047" xlink:href="#DejaVuSans-53"/>
       <use x="127.246094" xlink:href="#DejaVuSans-48"/>
      </g>
     </g>
    </g>
   </g>
   <g id="matplotlib.axis_2">
    <g id="ytick_1">
     <g id="line2d_9">
      <defs>
       <path d="M 0 0 
L -3.5 0 
" id="meeda475e6b" style="stroke:#000000;stroke-width:0.8;"/>
      </defs>
      <g>
       <use style="stroke:#000000;stroke-width:0.8;" x="36.925" xlink:href="#meeda475e6b" y="395.240805"/>
      </g>
     </g>
     <g id="text_9">
      <!-- 0 -->
      <g transform="translate(23.5625 399.040024)scale(0.1 -0.1)">
       <use xlink:href="#DejaVuSans-48"/>
      </g>
     </g>
    </g>
    <g id="ytick_2">
     <g id="line2d_10">
      <g>
       <use style="stroke:#000000;stroke-width:0.8;" x="36.925" xlink:href="#meeda475e6b" y="328.567671"/>
      </g>
     </g>
     <g id="text_10">
      <!-- 50 -->
      <g transform="translate(17.2 332.366889)scale(0.1 -0.1)">
       <use xlink:href="#DejaVuSans-53"/>
       <use x="63.623047" xlink:href="#DejaVuSans-48"/>
      </g>
     </g>
    </g>
    <g id="ytick_3">
     <g id="line2d_11">
      <g>
       <use style="stroke:#000000;stroke-width:0.8;" x="36.925" xlink:href="#meeda475e6b" y="261.894536"/>
      </g>
     </g>
     <g id="text_11">
      <!-- 100 -->
      <g transform="translate(10.8375 265.693755)scale(0.1 -0.1)">
       <use xlink:href="#DejaVuSans-49"/>
       <use x="63.623047" xlink:href="#DejaVuSans-48"/>
       <use x="127.246094" xlink:href="#DejaVuSans-48"/>
      </g>
     </g>
    </g>
    <g id="ytick_4">
     <g id="line2d_12">
      <g>
       <use style="stroke:#000000;stroke-width:0.8;" x="36.925" xlink:href="#meeda475e6b" y="195.221401"/>
      </g>
     </g>
     <g id="text_12">
      <!-- 150 -->
      <g transform="translate(10.8375 199.02062)scale(0.1 -0.1)">
       <use xlink:href="#DejaVuSans-49"/>
       <use x="63.623047" xlink:href="#DejaVuSans-53"/>
       <use x="127.246094" xlink:href="#DejaVuSans-48"/>
      </g>
     </g>
    </g>
    <g id="ytick_5">
     <g id="line2d_13">
      <g>
       <use style="stroke:#000000;stroke-width:0.8;" x="36.925" xlink:href="#meeda475e6b" y="128.548266"/>
      </g>
     </g>
     <g id="text_13">
      <!-- 200 -->
      <g transform="translate(10.8375 132.347485)scale(0.1 -0.1)">
       <use xlink:href="#DejaVuSans-50"/>
       <use x="63.623047" xlink:href="#DejaVuSans-48"/>
       <use x="127.246094" xlink:href="#DejaVuSans-48"/>
      </g>
     </g>
    </g>
    <g id="ytick_6">
     <g id="line2d_14">
      <g>
       <use style="stroke:#000000;stroke-width:0.8;" x="36.925" xlink:href="#meeda475e6b" y="61.875131"/>
      </g>
     </g>
     <g id="text_14">
      <!-- 250 -->
      <g transform="translate(10.8375 65.67435)scale(0.1 -0.1)">
       <use xlink:href="#DejaVuSans-50"/>
       <use x="63.623047" xlink:href="#DejaVuSans-53"/>
       <use x="127.246094" xlink:href="#DejaVuSans-48"/>
      </g>
     </g>
    </g>
   </g>
   <g id="line2d_15">
    <path clip-path="url(#p66e7cc0168)" d="M 104.110075 350.703151 
L 105.832769 352.903365 
L 107.555464 353.970135 
L 109.278158 353.003374 
L 111.000852 353.503423 
L 112.723546 347.136139 
L 114.446241 346.502744 
L 116.168935 341.968971 
L 117.891629 339.968777 
L 119.614323 333.701502 
L 121.337018 334.701599 
L 123.059712 334.968291 
L 124.782406 336.301754 
L 126.5051 327.60091 
L 128.227794 320.066846 
L 129.950489 315.833102 
L 131.673183 313.599552 
L 133.395877 310.065876 
L 135.118571 308.065682 
L 140.286654 307.032248 
L 142.009348 306.465526 
L 143.732043 306.965575 
L 145.454737 309.932529 
L 147.177431 310.632597 
L 148.900125 312.532782 
L 150.62282 312.132743 
L 152.345514 313.299523 
L 154.068208 310.732607 
L 155.790902 310.232558 
L 157.513596 311.032636 
L 159.236291 311.332665 
L 160.958985 312.166079 
L 162.681679 305.36542 
L 164.404373 303.331889 
L 166.127068 303.065196 
L 167.849762 300.6983 
L 169.572456 300.264925 
L 171.29515 300.664964 
L 173.017845 300.164915 
L 174.740539 299.931559 
L 176.463233 298.498087 
L 178.185927 298.898126 
L 179.908622 295.397786 
L 181.631316 302.131773 
L 183.35401 301.198349 
L 185.076704 306.732219 
L 186.799398 305.1654 
L 188.522093 312.266089 
L 190.244787 312.899484 
L 191.967481 316.266477 
L 193.690175 316.266477 
L 195.41287 325.867409 
L 197.135564 323.933888 
L 198.858258 328.000949 
L 200.580952 329.701114 
L 202.303647 329.901133 
L 204.026341 327.534237 
L 205.749035 326.667486 
L 207.471729 326.034091 
L 209.194424 326.300784 
L 210.917118 328.901036 
L 214.362506 329.134392 
L 216.085201 327.200871 
L 217.807895 322.033703 
L 219.530589 321.700338 
L 221.253283 323.900551 
L 224.698672 324.833975 
L 226.421366 324.900648 
L 228.14406 324.833975 
L 229.866754 326.334121 
L 231.589449 332.201356 
L 233.312143 332.234693 
L 235.034837 333.734838 
L 236.757531 337.068495 
L 238.480226 337.835236 
L 240.20292 338.268612 
L 241.925614 339.368718 
L 243.648308 339.502065 
L 245.371003 341.402249 
L 247.093697 342.535692 
L 248.816391 346.53608 
L 250.539085 345.502647 
L 252.261779 346.936119 
L 253.984474 346.136042 
L 255.707168 348.76963 
L 257.429862 348.302918 
L 260.875251 348.302918 
L 262.597945 347.869543 
L 264.320639 347.969553 
L 266.043333 357.270455 
L 267.766028 358.037196 
L 269.488722 358.170542 
L 271.211416 361.20417 
L 272.93411 364.637836 
L 274.656805 365.504587 
L 276.379499 363.304374 
L 278.102193 362.104257 
L 279.824887 361.270843 
L 281.547581 360.804131 
L 283.270276 360.837468 
L 284.99297 363.004345 
L 286.715664 364.271134 
L 288.438358 363.004345 
L 290.161053 362.47096 
L 291.883747 363.504393 
L 293.606441 363.104354 
L 295.329135 360.404092 
L 297.05183 359.837371 
L 298.774524 359.07063 
L 300.497218 360.004054 
L 302.219912 362.104257 
L 303.942607 361.704218 
L 305.665301 357.603821 
L 307.387995 355.736973 
L 309.110689 356.603724 
L 310.833383 356.170348 
L 312.556078 352.26997 
L 314.278772 351.036517 
L 316.001466 350.403122 
L 317.72416 350.669815 
L 319.446855 349.203006 
L 321.169549 348.369592 
L 322.892243 348.96965 
L 324.614937 348.636284 
L 326.337632 348.136236 
L 328.060326 345.802676 
L 329.78302 346.036032 
L 331.505714 343.502453 
L 333.228409 343.269097 
L 334.951103 341.135556 
L 336.673797 340.868864 
L 338.396491 341.335576 
L 340.119185 340.935537 
L 341.84188 340.368815 
L 343.564574 340.935537 
L 345.287268 344.135847 
L 348.732657 326.63415 
L 350.455351 321.667001 
L 352.178045 321.500318 
L 353.900739 311.566021 
L 355.623434 315.666419 
L 357.346128 308.032345 
L 359.068822 305.465429 
L 360.791516 300.498281 
L 362.514211 300.864983 
L 364.236905 301.398368 
L 365.959599 301.698397 
L 367.682293 300.198252 
L 371.127682 290.69733 
L 372.850376 287.563693 
L 374.57307 288.36377 
L 376.295764 289.663896 
L 378.018459 288.097078 
L 379.741153 288.46378 
L 381.463847 290.730667 
L 383.186541 289.263858 
L 384.909236 288.197087 
L 386.63193 284.996777 
L 388.354624 286.33024 
L 390.077318 285.863528 
L 391.800013 286.13022 
L 393.522707 286.596932 
L 395.245401 287.39701 
L 396.968095 289.163848 
L 398.690789 288.730472 
L 400.413484 291.430734 
L 402.136178 288.897155 
L 403.858872 291.330725 
L 405.581566 291.430734 
L 407.304261 291.197378 
L 409.026955 291.7641 
L 410.749649 291.96412 
L 412.472343 291.330725 
L 414.195038 290.430637 
L 415.917732 293.397592 
L 417.640426 303.165206 
L 419.36312 307.432287 
L 421.085815 307.59897 
L 422.808509 307.59897 
L 424.531203 307.132258 
L 426.253897 314.966351 
L 427.976591 318.066652 
L 429.699286 317.233238 
L 431.42198 308.56573 
L 433.144674 310.89929 
L 434.867368 309.232461 
L 436.590063 311.666031 
L 438.312757 315.899775 
L 440.035451 321.166953 
L 441.758145 323.167147 
L 443.48084 323.13381 
L 445.203534 322.533752 
L 446.926228 323.733868 
L 448.648922 322.133713 
L 450.371617 322.800444 
L 452.094311 324.367263 
L 453.817005 325.700726 
L 455.539699 328.8677 
L 457.262393 328.367651 
L 458.985088 328.734353 
L 464.15317 329.267738 
L 465.875865 329.367748 
L 467.598559 329.767787 
L 469.321253 329.867797 
L 471.043947 332.768078 
L 472.766642 331.801318 
L 477.934724 332.401376 
L 479.657419 333.468146 
L 481.380113 330.234499 
L 483.102807 331.134586 
L 484.825501 336.801803 
L 486.548195 336.368427 
L 488.27089 327.567573 
L 489.993584 319.600134 
L 491.716278 326.100765 
L 493.438972 326.700823 
L 495.161667 325.400697 
L 496.884361 323.900551 
L 498.607055 330.567865 
L 500.329749 334.734935 
L 502.052444 333.601492 
L 503.775138 334.334897 
L 505.497832 332.834751 
L 507.220526 333.23479 
L 508.943221 332.801415 
L 510.665915 324.433936 
L 512.388609 327.634247 
L 514.111303 326.200774 
L 515.833997 324.000561 
L 517.556692 325.800735 
L 519.279386 326.867506 
L 521.00208 328.300978 
L 522.724774 329.167729 
L 524.447469 328.934373 
L 526.170163 331.034577 
L 527.892857 331.567962 
L 529.615551 331.401279 
L 531.338246 331.834654 
L 533.06094 331.667971 
L 534.783634 332.134683 
L 536.506328 331.934664 
L 538.229023 331.201259 
L 539.951717 330.101153 
L 541.674411 331.067913 
L 545.119799 330.667874 
L 546.842494 329.83446 
L 548.565188 327.734256 
L 550.287882 331.534625 
L 552.010576 328.467661 
L 553.733271 329.767787 
L 555.455965 328.701017 
L 558.901353 344.835915 
L 560.624048 348.269582 
L 562.346742 347.969553 
L 564.069436 350.903171 
L 565.79213 350.003083 
L 567.514825 347.336158 
L 569.237519 351.936604 
L 570.960213 350.803161 
L 572.682907 345.435974 
L 574.405602 346.169378 
L 576.128296 344.769242 
L 577.85099 345.169281 
L 579.573684 354.803549 
L 581.296378 355.070242 
L 583.019073 357.603821 
L 584.741767 356.83708 
L 586.464461 356.870416 
L 588.187155 355.736973 
L 589.90985 354.036808 
L 591.632544 352.870028 
L 593.355238 352.403316 
L 595.077932 351.636575 
L 596.800627 351.903268 
L 598.523321 351.436556 
L 600.246015 344.769242 
L 601.968709 345.069271 
L 603.691404 341.068883 
L 605.414098 339.202036 
L 607.136792 337.60188 
L 608.859486 338.235275 
L 610.58218 336.53511 
L 614.027569 336.901812 
L 615.750263 333.201453 
L 617.472957 334.934955 
L 619.195652 334.868282 
L 620.918346 337.368524 
L 622.64104 331.701308 
L 624.363734 329.367748 
L 626.086429 330.267835 
L 627.809123 328.8677 
L 629.531817 328.834363 
L 631.254511 329.134392 
L 632.977206 327.567573 
L 634.6999 328.034285 
L 636.422594 330.401182 
L 638.145288 330.067816 
L 639.867982 331.901327 
L 641.590677 338.268612 
L 643.313371 338.86867 
L 645.036065 338.635314 
L 646.758759 338.535304 
L 648.481454 328.834363 
L 651.926842 327.767593 
L 653.649536 329.967806 
L 655.372231 326.900842 
L 657.094925 325.434033 
L 658.817619 324.667292 
L 660.540313 322.16705 
L 662.263008 321.933694 
L 663.985702 319.166759 
L 665.708396 317.799959 
L 667.43109 318.133325 
L 669.153784 319.033412 
L 670.876479 318.066652 
L 672.599173 321.96703 
L 674.321867 323.13381 
L 676.044561 318.733383 
L 677.767256 319.333441 
L 679.48995 318.600037 
L 681.212644 318.233335 
L 682.935338 316.299814 
L 684.658033 312.732801 
L 686.380727 312.06607 
L 688.103421 310.965963 
L 689.826115 311.432675 
L 691.54881 314.999688 
L 693.271504 315.999785 
L 694.994198 316.099794 
L 696.716892 314.066264 
L 698.439586 313.366196 
L 700.162281 312.432772 
L 701.884975 314.366293 
L 703.607669 315.699756 
L 705.330363 313.999591 
L 708.775752 314.499639 
L 710.498446 313.466205 
L 712.22114 311.566021 
L 713.943835 312.166079 
L 715.666529 311.699367 
L 717.389223 321.667001 
L 719.111917 322.233723 
L 720.834612 322.367069 
L 722.557306 323.13381 
L 724.28 323.400503 
L 724.28 323.400503 
" style="fill:none;stroke:#1f77b4;stroke-linecap:square;stroke-width:1.5;"/>
   </g>
   <g id="line2d_16">
    <path clip-path="url(#p66e7cc0168)" d="M 104.110075 291.630754 
L 105.832769 301.598388 
L 107.555464 291.630754 
L 111.000852 291.730764 
L 112.723546 291.797437 
L 114.446241 281.829803 
L 116.168935 281.86314 
L 117.891629 281.76313 
L 124.782406 282.063159 
L 126.5051 272.162199 
L 129.950489 272.328881 
L 131.673183 262.361248 
L 135.118571 262.261238 
L 136.841266 252.360277 
L 147.177431 252.360277 
L 148.900125 262.327911 
L 155.790902 222.890752 
L 157.513596 232.791712 
L 160.958985 233.025068 
L 164.404373 233.058405 
L 166.127068 242.992702 
L 173.017845 243.026039 
L 174.740539 233.058405 
L 176.463233 242.959365 
L 178.185927 242.959365 
L 179.908622 233.025068 
L 181.631316 233.058405 
L 183.35401 242.926029 
L 185.076704 233.025068 
L 186.799398 233.025068 
L 188.522093 223.124108 
L 190.244787 223.190781 
L 193.690175 203.322187 
L 195.41287 213.189811 
L 197.135564 213.156474 
L 198.858258 203.255514 
L 200.580952 213.156474 
L 202.303647 203.28885 
L 205.749035 203.188841 
L 209.194424 203.122167 
L 210.917118 203.122167 
L 216.085201 232.991732 
L 217.807895 232.925059 
L 224.698672 272.495564 
L 231.589449 272.595574 
L 235.034837 272.562237 
L 241.925614 272.72892 
L 243.648308 282.696554 
L 245.371003 272.795593 
L 247.093697 282.72989 
L 248.816391 282.72989 
L 250.539085 272.762257 
L 253.984474 272.695584 
L 255.707168 262.82796 
L 257.429862 272.72892 
L 259.152556 262.761287 
L 260.875251 272.662247 
L 262.597945 272.662247 
L 264.320639 262.794623 
L 267.766028 262.894633 
L 272.93411 262.894633 
L 274.656805 272.82893 
L 279.824887 272.862266 
L 281.547581 262.894633 
L 283.270276 262.894633 
L 284.99297 252.960336 
L 286.715664 252.926999 
L 290.161053 253.060345 
L 291.883747 243.226058 
L 293.606441 243.259395 
L 295.329135 243.126048 
L 297.05183 233.191751 
L 310.833383 232.858386 
L 312.556078 222.890752 
L 314.278772 222.890752 
L 316.001466 212.956455 
L 319.446855 212.956455 
L 321.169549 203.155504 
L 324.614937 203.155504 
L 326.337632 193.254544 
L 328.060326 203.188841 
L 329.78302 193.28788 
L 331.505714 203.188841 
L 333.228409 203.188841 
L 334.951103 193.254544 
L 336.673797 193.254544 
L 338.396491 183.38692 
L 340.119185 193.28788 
L 343.564574 193.38789 
L 350.455351 193.354553 
L 352.178045 183.38692 
L 357.346128 183.320246 
L 359.068822 173.352613 
L 360.791516 173.352613 
L 362.514211 163.384979 
L 364.236905 163.484989 
L 365.959599 173.419286 
L 369.404987 153.617365 
L 372.850376 153.717375 
L 374.57307 143.883087 
L 376.295764 143.916424 
L 379.741153 124.081166 
L 386.63193 124.081166 
L 391.800013 153.283999 
L 395.245401 153.283999 
L 396.968095 143.349702 
L 400.413484 143.383039 
L 405.581566 173.252603 
L 412.472343 173.252603 
L 414.195038 163.351643 
L 422.808509 163.351643 
L 424.531203 153.450682 
L 429.699286 153.484019 
L 431.42198 163.384979 
L 434.867368 143.549722 
L 436.590063 153.517355 
L 438.312757 153.517355 
L 441.758145 133.682098 
L 443.48084 143.449712 
L 446.926228 143.416375 
L 448.648922 153.384009 
L 452.094311 153.384009 
L 455.539699 173.252603 
L 457.262393 163.451652 
L 460.707782 163.918364 
L 462.430476 163.918364 
L 467.598559 193.587909 
L 471.043947 193.421226 
L 472.766642 193.354553 
L 474.489336 183.38692 
L 476.21203 193.254544 
L 479.657419 193.087861 
L 481.380113 192.954514 
L 483.102807 202.888811 
L 489.993584 202.888811 
L 491.716278 212.823109 
L 496.884361 212.789772 
L 498.607055 222.657396 
L 500.329749 222.590723 
L 503.775138 242.325971 
L 505.497832 232.358337 
L 510.665915 262.094555 
L 512.388609 252.326941 
L 514.111303 252.260268 
L 515.833997 262.127892 
L 521.00208 262.094555 
L 524.447469 242.225961 
L 526.170163 252.193595 
L 529.615551 232.325 
L 534.783634 232.391674 
L 536.506328 222.52405 
L 538.229023 222.624059 
L 541.674411 222.557386 
L 543.397105 232.458347 
L 552.010576 232.52502 
L 558.901353 232.52502 
L 560.624048 222.590723 
L 562.346742 232.491683 
L 564.069436 222.624059 
L 565.79213 222.624059 
L 567.514825 212.756435 
L 569.237519 212.889782 
L 570.960213 212.756435 
L 572.682907 212.823109 
L 574.405602 222.690733 
L 576.128296 222.590723 
L 579.573684 222.657396 
L 581.296378 232.62503 
L 583.019073 222.824079 
L 584.741767 222.924088 
L 588.187155 222.824079 
L 593.355238 222.824079 
L 595.077932 212.856445 
L 598.523321 232.52502 
L 607.136792 232.42501 
L 610.58218 232.391674 
L 615.750263 232.42501 
L 617.472957 222.590723 
L 619.195652 222.52405 
L 622.64104 222.624059 
L 631.254511 222.624059 
L 636.422594 252.360277 
L 638.145288 252.326941 
L 639.867982 252.460287 
L 641.590677 242.592663 
L 645.036065 242.659336 
L 650.204148 242.359307 
L 651.926842 252.260268 
L 653.649536 252.160258 
L 660.540313 252.193595 
L 663.985702 252.193595 
L 667.43109 232.52502 
L 669.153784 232.52502 
L 670.876479 222.557386 
L 674.321867 222.657396 
L 676.044561 212.823109 
L 677.767256 212.956455 
L 684.658033 173.352613 
L 686.380727 183.220237 
L 688.103421 173.385949 
L 694.994198 173.352613 
L 696.716892 173.352613 
L 698.439586 183.08689 
L 701.884975 163.251633 
L 708.775752 163.218296 
L 710.498446 173.119257 
L 713.943835 173.119257 
L 715.666529 173.152593 
L 717.389223 173.352613 
L 719.111917 163.484989 
L 724.28 163.451652 
L 724.28 163.451652 
" style="fill:none;stroke:#ff7f0e;stroke-linecap:square;stroke-width:1.5;"/>
   </g>
   <g id="line2d_17">
    <path clip-path="url(#p66e7cc0168)" d="M 104.110075 356.237021 
L 105.832769 349.336352 
L 107.555464 348.736294 
L 109.278158 348.402928 
L 111.000852 348.702957 
L 114.446241 348.269582 
L 116.168935 348.469601 
L 117.891629 345.235954 
L 119.614323 344.40254 
L 121.337018 344.40254 
L 123.059712 344.002501 
L 124.782406 345.235954 
L 126.5051 339.568738 
L 128.227794 340.835527 
L 129.950489 344.602559 
L 131.673183 344.335867 
L 133.395877 340.535498 
L 135.118571 338.635314 
L 136.841266 338.101929 
L 140.286654 338.101929 
L 142.009348 328.66768 
L 143.732043 329.101056 
L 145.454737 330.101153 
L 148.900125 330.567865 
L 150.62282 329.901133 
L 154.068208 330.301172 
L 155.790902 330.167826 
L 157.513596 330.301172 
L 159.236291 331.734644 
L 160.958985 331.267932 
L 162.681679 331.167923 
L 164.404373 332.901424 
L 166.127068 332.734741 
L 167.849762 332.901424 
L 169.572456 331.167923 
L 171.29515 331.601298 
L 173.017845 331.134586 
L 174.740539 340.268806 
L 176.463233 339.768757 
L 178.185927 341.435586 
L 181.631316 342.402346 
L 183.35401 340.235469 
L 185.076704 340.568835 
L 186.799398 339.035353 
L 188.522093 338.835333 
L 190.244787 339.002016 
L 191.967481 337.401861 
L 193.690175 337.368524 
L 195.41287 343.402443 
L 197.135564 342.135653 
L 198.858258 341.368912 
L 200.580952 340.135459 
L 202.303647 343.802482 
L 204.026341 345.335964 
L 207.471729 344.735906 
L 210.917118 364.137788 
L 214.362506 364.204461 
L 216.085201 360.904141 
L 217.807895 360.537439 
L 219.530589 361.604209 
L 221.253283 360.23741 
L 222.975977 357.637157 
L 226.421366 357.937186 
L 229.866754 357.70383 
L 231.589449 356.037002 
L 233.312143 355.6703 
L 236.757531 356.703733 
L 238.480226 358.603918 
L 240.20292 358.87061 
L 241.925614 359.604015 
L 243.648308 359.504005 
L 245.371003 360.837468 
L 247.093697 360.337419 
L 250.539085 359.870707 
L 252.261779 362.204267 
L 253.984474 362.104257 
L 255.707168 366.63803 
L 257.429862 367.938157 
L 259.152556 367.938157 
L 260.875251 370.23838 
L 262.597945 370.205043 
L 264.320639 369.304956 
L 266.043333 370.905111 
L 267.766028 371.605179 
L 269.488722 372.738622 
L 271.211416 372.871969 
L 272.93411 372.205237 
L 274.656805 374.405451 
L 276.379499 374.172095 
L 279.824887 354.770212 
L 281.547581 344.802579 
L 283.270276 344.702569 
L 284.99297 347.269485 
L 286.715664 346.769436 
L 288.438358 347.002792 
L 290.161053 348.76963 
L 291.883747 351.269873 
L 293.606441 351.303209 
L 295.329135 349.636381 
L 297.05183 349.236342 
L 298.774524 349.569708 
L 300.497218 349.769727 
L 302.219912 349.536371 
L 303.942607 348.86964 
L 305.665301 344.902589 
L 307.387995 344.535886 
L 309.110689 344.969262 
L 310.833383 344.30253 
L 312.556078 342.635702 
L 314.278772 341.935634 
L 317.72416 343.069077 
L 319.446855 340.435489 
L 321.169549 339.402055 
L 322.892243 339.368718 
L 324.614937 339.468728 
L 326.337632 338.735324 
L 328.060326 338.701987 
L 329.78302 339.035353 
L 331.505714 337.935246 
L 333.228409 339.602074 
L 334.951103 337.868573 
L 336.673797 337.735227 
L 338.396491 338.101929 
L 340.119185 337.268515 
L 341.84188 338.268612 
L 343.564574 338.301948 
L 345.287268 338.601977 
L 348.732657 338.601977 
L 350.455351 346.302724 
L 352.178045 345.769339 
L 353.900739 342.569029 
L 355.623434 343.33577 
L 357.346128 342.969068 
L 359.068822 340.002113 
L 362.514211 339.402055 
L 364.236905 331.867991 
L 365.959599 332.16802 
L 367.682293 329.567768 
L 369.404987 328.034285 
L 371.127682 328.66768 
L 372.850376 329.067719 
L 374.57307 331.034577 
L 376.295764 331.067913 
L 378.018459 330.467855 
L 379.741153 331.034577 
L 381.463847 322.867117 
L 383.186541 323.567185 
L 384.909236 323.600522 
L 386.63193 321.667001 
L 388.354624 324.10057 
L 390.077318 324.933985 
L 391.800013 324.967321 
L 393.522707 324.767302 
L 395.245401 325.36736 
L 396.968095 325.400697 
L 398.690789 324.967321 
L 400.413484 323.567185 
L 402.136178 323.667195 
L 403.858872 325.334023 
L 405.581566 325.667389 
L 407.304261 324.867312 
L 409.026955 325.667389 
L 414.195038 325.767399 
L 415.917732 333.501482 
L 417.640426 343.402443 
L 419.36312 345.56932 
L 421.085815 346.202715 
L 422.808509 346.669427 
L 424.531203 336.801803 
L 426.253897 336.035062 
L 427.976591 339.002016 
L 429.699286 337.568544 
L 431.42198 336.768466 
L 433.144674 345.969359 
L 434.867368 341.702278 
L 438.312757 347.769533 
L 440.035451 347.436168 
L 441.758145 345.3693 
L 443.48084 346.336061 
L 445.203534 345.202618 
L 446.926228 340.502162 
L 448.648922 340.602171 
L 450.371617 341.968971 
L 452.094311 341.802288 
L 453.817005 341.835624 
L 455.539699 343.769145 
L 457.262393 344.135847 
L 458.985088 343.835818 
L 465.875865 344.30253 
L 467.598559 343.502453 
L 469.321253 345.66933 
L 471.043947 345.635993 
L 472.766642 344.902589 
L 474.489336 344.769242 
L 476.21203 345.335964 
L 477.934724 345.202618 
L 479.657419 344.702569 
L 483.102807 344.169184 
L 484.825501 346.136042 
L 486.548195 345.602656 
L 488.27089 339.502065 
L 489.993584 333.968194 
L 491.716278 337.668553 
L 493.438972 347.136139 
L 495.161667 344.369203 
L 496.884361 344.035838 
L 498.607055 345.535983 
L 500.329749 344.802579 
L 502.052444 344.802579 
L 503.775138 344.369203 
L 505.497832 344.102511 
L 507.220526 342.969068 
L 508.943221 342.602365 
L 510.665915 344.135847 
L 512.388609 344.435877 
L 514.111303 341.668941 
L 515.833997 344.069174 
L 517.556692 343.969165 
L 519.279386 342.602365 
L 526.170163 303.198543 
L 527.892857 303.665255 
L 529.615551 303.465235 
L 531.338246 303.465235 
L 533.06094 303.065196 
L 534.783634 303.065196 
L 536.506328 304.298649 
L 538.229023 304.532005 
L 539.951717 304.465332 
L 541.674411 303.598582 
L 543.397105 303.598582 
L 545.119799 303.765264 
L 546.842494 303.498572 
L 548.565188 302.898514 
L 550.287882 303.198543 
L 552.010576 303.365226 
L 553.733271 303.165206 
L 555.455965 303.431899 
L 558.901353 314.732995 
L 562.346742 314.833005 
L 564.069436 318.333344 
L 565.79213 318.033315 
L 567.514825 318.066652 
L 569.237519 319.866826 
L 570.960213 316.733189 
L 572.682907 319.800153 
L 574.405602 319.666807 
L 576.128296 320.266865 
L 577.85099 321.100279 
L 579.573684 321.733674 
L 581.296378 322.533752 
L 583.019073 326.700823 
L 584.741767 329.601104 
L 586.464461 329.701114 
L 588.187155 338.168602 
L 589.90985 345.335964 
L 595.077932 374.872163 
L 596.800627 374.805489 
L 598.523321 373.805392 
L 600.246015 373.838729 
L 601.968709 374.238768 
L 605.414098 370.405063 
L 608.859486 367.638127 
L 610.58218 366.771377 
L 612.304875 366.471348 
L 615.750263 366.471348 
L 617.472957 366.071309 
L 619.195652 365.904626 
L 620.918346 363.737749 
L 622.64104 363.43772 
L 624.363734 361.670882 
L 626.086429 359.203976 
L 627.809123 358.237215 
L 629.531817 358.170542 
L 634.6999 358.770601 
L 636.422594 358.270552 
L 638.145288 358.237215 
L 639.867982 361.370853 
L 641.590677 360.570775 
L 643.313371 360.837468 
L 645.036065 359.670688 
L 646.758759 359.604015 
L 648.481454 358.670591 
L 650.204148 356.437041 
L 651.926842 356.370368 
L 653.649536 351.969941 
L 655.372231 349.836401 
L 657.094925 350.869834 
L 658.817619 353.036711 
L 660.540313 350.969844 
L 662.263008 348.136236 
L 663.985702 347.002792 
L 665.708396 346.669427 
L 667.43109 347.569514 
L 669.153784 347.736197 
L 670.876479 347.002792 
L 672.599173 348.936313 
L 674.321867 349.93641 
L 676.044561 350.469795 
L 677.767256 351.936604 
L 679.48995 353.836789 
L 681.212644 353.870125 
L 682.935338 352.936701 
L 684.658033 353.270067 
L 686.380727 349.769727 
L 688.103421 349.436362 
L 689.826115 351.669912 
L 691.54881 352.136624 
L 693.271504 353.203394 
L 694.994198 355.936992 
L 696.716892 356.63706 
L 700.162281 356.137012 
L 701.884975 355.270261 
L 703.607669 355.370271 
L 705.330363 355.836983 
L 708.775752 355.870319 
L 710.498446 358.503908 
L 712.22114 357.337128 
L 713.943835 358.670591 
L 715.666529 358.603918 
L 717.389223 359.704024 
L 719.111917 361.937574 
L 720.834612 361.637545 
L 722.557306 365.471251 
L 724.28 367.571454 
L 724.28 367.571454 
" style="fill:none;stroke:#2ca02c;stroke-linecap:square;stroke-width:1.5;"/>
   </g>
   <g id="line2d_18">
    <path clip-path="url(#p66e7cc0168)" d="M 104.110075 362.037584 
L 105.832769 364.204461 
L 107.555464 361.20417 
L 109.278158 362.604306 
L 111.000852 363.637739 
L 112.723546 361.904238 
L 114.446241 355.770309 
L 116.168935 355.370271 
L 117.891629 353.103384 
L 121.337018 353.270067 
L 123.059712 353.836789 
L 124.782406 355.070242 
L 126.5051 356.070339 
L 128.227794 357.303792 
L 129.950489 359.303986 
L 131.673183 359.07063 
L 133.395877 357.870513 
L 135.118571 357.837177 
L 136.841266 357.370465 
L 140.286654 357.370465 
L 150.62282 300.564954 
L 152.345514 300.564954 
L 154.068208 300.264925 
L 157.513596 300.064905 
L 159.236291 300.298261 
L 160.958985 299.931559 
L 164.404373 299.931559 
L 166.127068 300.298261 
L 167.849762 300.198252 
L 169.572456 299.564857 
L 173.017845 299.798213 
L 174.740539 298.698106 
L 176.463233 301.86508 
L 179.908622 301.398368 
L 181.631316 303.398562 
L 183.35401 309.365808 
L 185.076704 309.232461 
L 186.799398 307.59897 
L 188.522093 307.198931 
L 190.244787 307.332277 
L 191.967481 307.098921 
L 195.41287 306.998911 
L 197.135564 305.832132 
L 198.858258 307.432287 
L 200.580952 307.465623 
L 202.303647 308.399047 
L 204.026341 303.798601 
L 205.749035 305.1654 
L 207.471729 303.331889 
L 214.362506 343.102414 
L 219.530589 370.271716 
L 221.253283 370.671755 
L 222.975977 370.571745 
L 228.14406 370.938448 
L 229.866754 371.30515 
L 231.589449 371.271813 
L 233.312143 369.905014 
L 236.757531 370.071697 
L 238.480226 370.805101 
L 240.20292 370.571745 
L 241.925614 370.605082 
L 243.648308 371.805198 
L 245.371003 371.838535 
L 248.816391 372.205237 
L 252.261779 372.105228 
L 253.984474 373.138661 
L 255.707168 376.205625 
L 259.152556 376.105616 
L 260.875251 376.272298 
L 262.597945 376.172289 
L 264.320639 376.405645 
L 266.043333 377.939127 
L 267.766028 377.639098 
L 271.211416 378.072473 
L 272.93411 382.672919 
L 274.656805 383.106295 
L 276.379499 384.906469 
L 281.547581 355.103578 
L 284.99297 355.070242 
L 286.715664 353.070048 
L 288.438358 354.136818 
L 293.606441 354.203491 
L 295.329135 352.036614 
L 297.05183 351.303209 
L 298.774524 350.803161 
L 300.497218 350.836498 
L 302.219912 351.403219 
L 303.942607 350.403122 
L 305.665301 350.203103 
L 307.387995 348.302918 
L 309.110689 348.569611 
L 310.833383 347.502841 
L 312.556078 341.535595 
L 317.72416 341.435586 
L 319.446855 340.402152 
L 321.169549 339.702084 
L 322.892243 339.668747 
L 324.614937 339.902103 
L 326.337632 338.201938 
L 328.060326 338.168602 
L 329.78302 338.301948 
L 331.505714 338.301948 
L 333.228409 337.368524 
L 334.951103 337.368524 
L 336.673797 337.535207 
L 338.396491 337.568544 
L 340.119185 337.401861 
L 343.564574 337.435197 
L 345.287268 336.73513 
L 347.009962 343.569126 
L 348.732657 353.170057 
L 350.455351 357.003762 
L 352.178045 356.970426 
L 353.900739 353.203394 
L 355.623434 355.836983 
L 357.346128 355.636963 
L 359.068822 354.103481 
L 360.791516 354.236827 
L 362.514211 354.036808 
L 364.236905 356.103675 
L 365.959599 356.870416 
L 367.682293 354.236827 
L 369.404987 344.369203 
L 371.127682 344.902589 
L 372.850376 345.869349 
L 374.57307 345.435974 
L 376.295764 347.102802 
L 378.018459 347.002792 
L 379.741153 348.036226 
L 381.463847 344.035838 
L 386.63193 314.732995 
L 388.354624 315.766429 
L 390.077318 315.566409 
L 391.800013 314.332956 
L 393.522707 314.899678 
L 395.245401 317.299911 
L 396.968095 317.333247 
L 398.690789 317.233238 
L 400.413484 317.333247 
L 402.136178 318.333344 
L 403.858872 318.199998 
L 405.581566 318.633373 
L 407.304261 318.433354 
L 410.749649 318.400017 
L 412.472343 318.366681 
L 414.195038 318.866729 
L 415.917732 312.032733 
L 417.640426 311.732704 
L 419.36312 317.799959 
L 421.085815 317.833296 
L 422.808509 316.399823 
L 424.531203 313.532879 
L 426.253897 313.666225 
L 427.976591 315.199707 
L 429.699286 312.832811 
L 431.42198 312.966157 
L 433.144674 312.499445 
L 434.867368 306.798892 
L 436.590063 310.032539 
L 438.312757 320.000173 
L 440.035451 320.266865 
L 441.758145 311.632694 
L 443.48084 311.899387 
L 445.203534 312.032733 
L 446.926228 308.799086 
L 448.648922 308.832423 
L 450.371617 316.499833 
L 455.539699 345.66933 
L 457.262393 345.66933 
L 458.985088 346.269388 
L 460.707782 347.60285 
L 462.430476 347.60285 
L 464.15317 347.736197 
L 469.321253 347.669524 
L 471.043947 347.569514 
L 472.766642 347.70286 
L 474.489336 347.70286 
L 477.934724 348.102899 
L 479.657419 347.936216 
L 481.380113 347.369495 
L 483.102807 347.569514 
L 484.825501 355.47028 
L 486.548195 355.170251 
L 488.27089 354.636866 
L 489.993584 353.936798 
L 491.716278 354.003471 
L 493.438972 356.937089 
L 495.161667 354.836886 
L 496.884361 353.570096 
L 498.607055 355.6703 
L 500.329749 353.736779 
L 502.052444 354.303501 
L 503.775138 356.970426 
L 505.497832 356.803743 
L 508.943221 356.770407 
L 510.665915 364.771183 
L 512.388609 363.43772 
L 514.111303 362.337613 
L 515.833997 364.70451 
L 517.556692 364.571163 
L 519.279386 366.771377 
L 522.724774 367.271425 
L 524.447469 366.704704 
L 526.170163 366.538021 
L 527.892857 367.071406 
L 534.783634 366.83805 
L 538.229023 367.038069 
L 539.951717 365.971299 
L 543.397105 363.104354 
L 545.119799 363.137691 
L 546.842494 361.470863 
L 548.565188 359.970717 
L 550.287882 360.570775 
L 552.010576 360.337419 
L 553.733271 362.37095 
L 555.455965 363.237701 
L 557.178659 363.304374 
L 558.901353 364.004442 
L 560.624048 369.871678 
L 562.346742 369.538312 
L 564.069436 364.071115 
L 565.79213 364.104451 
L 567.514825 364.371144 
L 569.237519 366.371338 
L 570.960213 365.004539 
L 572.682907 367.971493 
L 574.405602 368.071503 
L 576.128296 367.80481 
L 577.85099 367.838147 
L 579.573684 365.537924 
L 581.296378 367.271425 
L 583.019073 368.404869 
L 584.741767 369.371629 
L 586.464461 369.504975 
L 588.187155 368.104839 
L 591.632544 368.204849 
L 593.355238 368.604888 
L 595.077932 367.471445 
L 596.800627 364.304471 
L 598.523321 364.204461 
L 600.246015 363.271037 
L 601.968709 363.43772 
L 603.691404 362.337613 
L 605.414098 362.237604 
L 607.136792 361.570872 
L 608.859486 361.804228 
L 610.58218 361.837565 
L 612.304875 363.171027 
L 614.027569 362.037584 
L 615.750263 362.904335 
L 617.472957 363.071018 
L 619.195652 362.670979 
L 620.918346 362.837662 
L 622.64104 360.437429 
L 624.363734 350.936507 
L 626.086429 349.569708 
L 627.809123 349.469698 
L 629.531817 349.603045 
L 631.254511 349.93641 
L 632.977206 357.537148 
L 634.6999 358.470571 
L 636.422594 358.737264 
L 638.145288 358.703927 
L 639.867982 360.070727 
L 641.590677 358.637254 
L 643.313371 358.670591 
L 645.036065 358.303889 
L 646.758759 356.537051 
L 648.481454 357.203782 
L 650.204148 353.636769 
L 651.926842 353.536759 
L 653.649536 352.569999 
L 655.372231 352.303306 
L 657.094925 348.569611 
L 658.817619 348.169572 
L 660.540313 348.136236 
L 662.263008 347.636187 
L 663.985702 348.269582 
L 665.708396 351.336546 
L 667.43109 350.403122 
L 669.153784 350.736488 
L 670.876479 349.836401 
L 672.599173 350.936507 
L 674.321867 350.836498 
L 676.044561 350.536468 
L 677.767256 351.469892 
L 679.48995 352.736682 
L 681.212644 352.569999 
L 682.935338 353.403413 
L 684.658033 354.070145 
L 686.380727 355.170251 
L 688.103421 355.47028 
L 689.826115 355.403607 
L 691.54881 357.437138 
L 693.271504 366.804713 
L 694.994198 368.438205 
L 696.716892 368.404869 
L 698.439586 367.138079 
L 700.162281 367.138079 
L 701.884975 365.504587 
L 707.053058 365.371241 
L 708.775752 365.371241 
L 710.498446 366.071309 
L 712.22114 365.637933 
L 713.943835 365.904626 
L 715.666529 367.604791 
L 717.389223 369.905014 
L 719.111917 373.472027 
L 720.834612 373.405354 
L 722.557306 374.338778 
L 724.28 374.472124 
L 724.28 374.472124 
" style="fill:none;stroke:#d62728;stroke-linecap:square;stroke-width:1.5;"/>
   </g>
   <g id="line2d_19">
    <path clip-path="url(#p66e7cc0168)" d="M 104.110075 331.201259 
L 105.832769 325.700726 
L 107.555464 325.867409 
L 109.278158 327.234208 
L 111.000852 328.267641 
L 112.723546 328.500997 
L 114.446241 328.367651 
L 116.168935 328.400988 
L 117.891629 328.234305 
L 119.614323 328.500997 
L 123.059712 328.534334 
L 124.782406 329.201065 
L 126.5051 328.734353 
L 128.227794 328.734353 
L 129.950489 319.83349 
L 133.395877 300.064905 
L 135.118571 300.031569 
L 136.841266 290.163945 
L 143.732043 290.163945 
L 147.177431 309.932529 
L 148.900125 310.532588 
L 150.62282 310.599261 
L 152.345514 311.499348 
L 154.068208 311.132646 
L 155.790902 311.065973 
L 157.513596 310.465914 
L 159.236291 310.232558 
L 162.681679 310.365905 
L 164.404373 310.399241 
L 167.849762 310.765944 
L 171.29515 310.69927 
L 173.017845 310.832617 
L 174.740539 314.532976 
L 176.463233 314.532976 
L 178.185927 313.866244 
L 183.35401 313.699561 
L 186.799398 313.932917 
L 188.522093 313.866244 
L 190.244787 313.932917 
L 191.967481 314.166273 
L 193.690175 314.132937 
L 195.41287 314.699658 
L 197.135564 313.13284 
L 202.303647 342.402346 
L 204.026341 342.302336 
L 205.749035 351.469892 
L 207.471729 350.869834 
L 212.639812 380.639389 
L 217.807895 380.639389 
L 224.698672 380.706062 
L 226.421366 381.40613 
L 228.14406 381.472803 
L 229.866754 381.672822 
L 231.589449 381.706159 
L 233.312143 381.572813 
L 241.925614 381.739495 
L 243.648308 375.838923 
L 245.371003 366.071309 
L 247.093697 357.070436 
L 248.816391 347.202812 
L 250.539085 347.169475 
L 252.261779 347.336158 
L 253.984474 347.169475 
L 264.320639 347.169475 
L 266.043333 348.96965 
L 272.93411 349.503035 
L 276.379499 350.636478 
L 281.547581 320.866923 
L 283.270276 320.80025 
L 284.99297 320.866923 
L 286.715664 320.766914 
L 288.438358 320.966933 
L 290.161053 321.00027 
L 291.883747 320.90026 
L 293.606441 321.00027 
L 295.329135 320.300202 
L 297.05183 320.500221 
L 300.497218 320.500221 
L 302.219912 320.533558 
L 303.942607 318.333344 
L 307.387995 318.099988 
L 309.110689 318.166661 
L 310.833383 317.966642 
L 312.556078 320.566894 
L 317.72416 349.93641 
L 319.446855 349.503035 
L 321.169549 349.269679 
L 322.892243 349.203006 
L 324.614937 348.802967 
L 334.951103 349.002986 
L 336.673797 348.636284 
L 340.119185 348.602948 
L 341.84188 348.602948 
L 343.564574 348.836303 
L 345.287268 348.802967 
L 347.009962 357.80384 
L 348.732657 367.604791 
L 350.455351 372.838632 
L 352.178045 372.27191 
L 353.900739 368.771571 
L 355.623434 366.538021 
L 357.346128 366.271328 
L 359.068822 358.637254 
L 360.791516 357.670494 
L 362.514211 357.403801 
L 364.236905 358.070533 
L 365.959599 358.270552 
L 367.682293 357.503811 
L 369.404987 355.136915 
L 371.127682 355.170251 
L 372.850376 357.337128 
L 374.57307 357.270455 
L 376.295764 357.337128 
L 378.018459 357.037099 
L 379.741153 357.203782 
L 381.463847 354.60353 
L 388.354624 315.733092 
L 390.077318 306.098824 
L 391.800013 305.065391 
L 393.522707 305.532102 
L 400.413484 305.498766 
L 403.858872 305.598776 
L 405.581566 306.098824 
L 409.026955 305.798795 
L 412.472343 305.798795 
L 414.195038 305.632112 
L 415.917732 296.631239 
L 417.640426 291.264052 
L 419.36312 295.864498 
L 421.085815 296.397883 
L 422.808509 299.164818 
L 424.531203 300.964993 
L 426.253897 301.165012 
L 427.976591 308.66574 
L 429.699286 309.465817 
L 431.42198 309.665837 
L 433.144674 309.6325 
L 434.867368 308.56573 
L 436.590063 309.432481 
L 438.312757 311.666031 
L 440.035451 311.732704 
L 441.758145 306.498863 
L 443.48084 305.832132 
L 445.203534 305.798795 
L 446.926228 301.365032 
L 448.648922 301.398368 
L 450.371617 309.165788 
L 458.985088 358.603918 
L 460.707782 359.904044 
L 462.430476 359.904044 
L 464.15317 360.03739 
L 469.321253 360.004054 
L 472.766642 359.904044 
L 474.489336 359.904044 
L 477.934724 360.23741 
L 481.380113 360.004054 
L 483.102807 360.204073 
L 484.825501 369.271619 
L 486.548195 374.538797 
L 488.27089 373.071988 
L 489.993584 372.671949 
L 491.716278 373.405354 
L 493.438972 373.972075 
L 496.884361 373.938739 
L 498.607055 374.205431 
L 500.329749 373.805392 
L 502.052444 373.872066 
L 503.775138 374.172095 
L 505.497832 374.005412 
L 507.220526 373.63871 
L 508.943221 373.43869 
L 510.665915 378.539185 
L 512.388609 379.205916 
L 514.111303 378.805878 
L 515.833997 383.43966 
L 517.556692 383.372987 
L 519.279386 385.539864 
L 521.00208 385.473191 
L 522.724774 385.67321 
L 524.447469 384.973143 
L 526.170163 385.006479 
L 529.615551 384.70645 
L 534.783634 384.60644 
L 536.506328 384.539767 
L 539.951717 384.639777 
L 541.674411 384.406421 
L 543.397105 384.306411 
L 546.842494 384.273075 
L 548.565188 383.906372 
L 550.287882 384.006382 
L 552.010576 383.906372 
L 553.733271 384.80646 
L 555.455965 382.839602 
L 557.178659 383.839699 
L 558.901353 384.339748 
L 560.624048 384.173065 
L 562.346742 384.139728 
L 564.069436 383.239641 
L 565.79213 382.872939 
L 567.514825 382.806266 
L 569.237519 383.272978 
L 570.960213 381.972851 
L 574.405602 382.072861 
L 576.128296 372.638613 
L 577.85099 372.871969 
L 581.296378 353.33674 
L 583.019073 353.703442 
L 584.741767 353.803452 
L 588.187155 333.968194 
L 589.90985 331.401279 
L 591.632544 331.401279 
L 593.355238 332.034674 
L 595.077932 331.901327 
L 596.800627 332.134683 
L 598.523321 331.901327 
L 600.246015 331.434615 
L 601.968709 331.534625 
L 608.859486 331.201259 
L 615.750263 331.134586 
L 617.472957 330.934567 
L 619.195652 330.567865 
L 620.918346 330.667874 
L 622.64104 329.467758 
L 624.363734 331.067913 
L 626.086429 331.567962 
L 627.809123 331.467952 
L 629.531817 331.601298 
L 631.254511 331.601298 
L 632.977206 332.568059 
L 636.422594 333.368136 
L 638.145288 333.3348 
L 639.867982 334.634926 
L 641.590677 334.134877 
L 643.313371 334.168214 
L 645.036065 341.968971 
L 646.758759 341.902297 
L 648.481454 351.469892 
L 650.204148 359.437332 
L 651.926842 359.470668 
L 653.649536 358.203879 
L 657.094925 377.772444 
L 658.817619 379.972657 
L 660.540313 379.939321 
L 662.263008 378.639195 
L 663.985702 378.0058 
L 665.708396 376.605664 
L 667.43109 376.872357 
L 669.153784 377.272395 
L 670.876479 377.005703 
L 672.599173 377.105713 
L 674.321867 376.772347 
L 676.044561 376.305635 
L 677.767256 376.538991 
L 682.935338 375.905596 
L 684.658033 375.87226 
L 686.380727 376.505654 
L 688.103421 376.772347 
L 689.826115 376.73901 
L 691.54881 372.538603 
L 693.271504 372.005218 
L 698.439586 371.971881 
L 700.162281 371.271813 
L 703.607669 371.138467 
L 708.775752 371.138467 
L 710.498446 372.305247 
L 712.22114 372.37192 
L 713.943835 374.438787 
L 715.666529 374.472124 
L 717.389223 374.872163 
L 719.111917 376.872357 
L 720.834612 376.872357 
L 722.557306 378.10581 
L 724.28 378.172483 
L 724.28 378.172483 
" style="fill:none;stroke:#9467bd;stroke-linecap:square;stroke-width:1.5;"/>
   </g>
   <g id="line2d_20">
    <path clip-path="url(#p66e7cc0168)" d="M 104.110075 382.039525 
L 105.832769 383.106295 
L 111.000852 354.336837 
L 114.446241 355.036905 
L 116.168935 345.169281 
L 117.891629 344.935925 
L 121.337018 325.200677 
L 124.782406 325.767399 
L 126.5051 325.567379 
L 128.227794 326.200774 
L 129.950489 326.334121 
L 133.395877 325.434033 
L 135.118571 325.400697 
L 136.841266 325.167341 
L 138.56396 325.234014 
L 145.454737 286.763615 
L 154.068208 238.625612 
L 155.790902 229.391383 
L 167.849762 160.718054 
L 173.017845 131.215192 
L 174.740539 122.447674 
L 179.908622 122.447674 
L 183.35401 102.612417 
L 185.076704 102.612417 
L 186.799398 92.878139 
L 190.244787 92.878139 
L 198.858258 43.640029 
L 202.303647 44.473443 
L 204.026341 43.906722 
L 205.749035 43.773375 
L 207.471729 43.34 
L 209.194424 52.574229 
L 226.421366 151.383815 
L 231.589449 180.820004 
L 243.648308 250.29341 
L 245.371003 258.860908 
L 267.766028 386.173259 
L 271.211416 386.073249 
L 272.93411 386.573298 
L 274.656805 386.673307 
L 276.379499 386.94 
L 279.824887 386.273269 
L 283.270276 386.173259 
L 286.715664 386.139922 
L 288.438358 386.439951 
L 290.161053 386.473288 
L 291.883747 386.373278 
L 293.606441 386.406615 
L 295.329135 385.739884 
L 302.219912 385.77322 
L 303.942607 385.039816 
L 307.387995 384.673113 
L 309.110689 384.739787 
L 310.833383 384.639777 
L 312.556078 381.739495 
L 314.278772 383.039622 
L 316.001466 383.072958 
L 317.72416 383.472997 
L 319.446855 383.306314 
L 322.892243 383.406324 
L 324.614937 383.53967 
L 328.060326 383.63968 
L 333.228409 383.806363 
L 336.673797 383.773026 
L 341.84188 383.973046 
L 343.564574 384.339748 
L 345.287268 384.306411 
L 347.009962 377.705771 
L 348.732657 377.839117 
L 350.455351 367.971493 
L 352.178045 367.738137 
L 353.900739 357.80384 
L 355.623434 357.870513 
L 357.346128 357.770504 
L 359.068822 357.303792 
L 360.791516 357.437138 
L 362.514211 357.237118 
L 364.236905 357.870513 
L 365.959599 358.103869 
L 367.682293 348.236245 
L 369.404987 347.636187 
L 371.127682 347.502841 
L 372.850376 348.036226 
L 374.57307 348.036226 
L 376.295764 348.169572 
L 379.741153 348.202909 
L 381.463847 341.20223 
L 386.63193 341.302239 
L 388.354624 341.702278 
L 390.077318 341.468922 
L 393.522707 341.668941 
L 400.413484 340.9022 
L 403.858872 340.935537 
L 405.581566 340.935537 
L 407.304261 340.802191 
L 414.195038 341.00221 
L 415.917732 345.869349 
L 417.640426 345.936022 
L 419.36312 355.836983 
L 421.085815 356.070339 
L 422.808509 364.6045 
L 426.253897 364.071115 
L 427.976591 364.537827 
L 429.699286 364.171124 
L 433.144674 364.337807 
L 434.867368 364.137788 
L 436.590063 374.105422 
L 438.312757 374.738816 
L 440.035451 374.938836 
L 441.758145 374.572134 
L 443.48084 374.572134 
L 446.926228 374.105422 
L 448.648922 374.138758 
L 450.371617 380.706062 
L 453.817005 380.639389 
L 455.539699 380.706062 
L 457.262393 380.439369 
L 458.985088 380.706062 
L 464.15317 381.072764 
L 465.875865 381.372793 
L 469.321253 381.239447 
L 472.766642 381.339457 
L 476.21203 381.472803 
L 477.934724 381.572813 
L 483.102807 381.272784 
L 484.825501 382.939612 
L 486.548195 382.939612 
L 489.993584 382.039525 
L 491.716278 383.43966 
L 493.438972 383.706353 
L 495.161667 383.272978 
L 496.884361 383.072958 
L 498.607055 383.372987 
L 500.329749 381.872842 
L 503.775138 381.839505 
L 505.497832 381.539476 
L 508.943221 381.50614 
L 510.665915 381.672822 
L 512.388609 381.472803 
L 514.111303 381.606149 
L 515.833997 381.606149 
L 517.556692 381.339457 
L 519.279386 374.772153 
L 522.724774 355.003568 
L 524.447469 354.60353 
L 526.170163 354.903559 
L 527.892857 354.970232 
L 533.06094 354.836886 
L 534.783634 354.836886 
L 538.229023 355.336934 
L 548.565188 355.136915 
L 550.287882 355.236924 
L 552.010576 355.170251 
L 553.733271 356.303695 
L 555.455965 353.770115 
L 557.178659 353.803452 
L 558.901353 354.236827 
L 560.624048 354.103481 
L 562.346742 353.670106 
L 564.069436 353.770115 
L 565.79213 353.670106 
L 567.514825 353.770115 
L 569.237519 355.336934 
L 570.960213 355.170251 
L 574.405602 355.303598 
L 576.128296 355.203588 
L 579.573684 355.370271 
L 581.296378 355.736973 
L 586.464461 356.337031 
L 591.632544 385.806557 
L 593.355238 386.073249 
L 596.800627 385.939903 
L 600.246015 385.573201 
L 601.968709 385.639874 
L 610.58218 385.173162 
L 612.304875 384.839796 
L 614.027569 383.606343 
L 615.750263 383.406324 
L 617.472957 383.372987 
L 619.195652 382.939612 
L 620.918346 383.172968 
L 622.64104 373.205334 
L 624.363734 365.937963 
L 627.809123 346.502744 
L 631.254511 327.200871 
L 634.6999 308.299038 
L 636.422594 308.499057 
L 638.145288 308.46572 
L 641.590677 288.930492 
L 643.313371 289.163848 
L 645.036065 279.32956 
L 655.372231 278.429473 
L 657.094925 272.262208 
L 658.817619 271.795496 
L 662.263008 271.66215 
L 663.985702 271.395457 
L 665.708396 271.328784 
L 667.43109 271.528804 
L 669.153784 271.495467 
L 670.876479 270.995419 
L 672.599173 271.095428 
L 674.321867 270.962082 
L 676.044561 270.662053 
L 681.212644 271.195438 
L 682.935338 272.328881 
L 686.380727 272.362218 
L 688.103421 272.662247 
L 689.826115 272.62891 
L 691.54881 280.129638 
L 701.884975 337.868573 
L 703.607669 347.769533 
L 705.330363 347.669524 
L 707.053058 347.70286 
L 710.498446 367.338098 
L 712.22114 367.271425 
L 713.943835 377.139049 
L 715.666529 377.272395 
L 717.389223 377.805781 
L 719.111917 377.90579 
L 722.557306 377.939127 
L 724.28 378.072473 
L 724.28 378.072473 
" style="fill:none;stroke:#8c564b;stroke-linecap:square;stroke-width:1.5;"/>
   </g>
   <g id="patch_3">
    <path d="M 36.925 404.12 
L 36.925 26.16 
" style="fill:none;stroke:#000000;stroke-linecap:square;stroke-linejoin:miter;stroke-width:0.8;"/>
   </g>
   <g id="patch_4">
    <path d="M 724.28 404.12 
L 724.28 26.16 
" style="fill:none;stroke:#000000;stroke-linecap:square;stroke-linejoin:miter;stroke-width:0.8;"/>
   </g>
   <g id="patch_5">
    <path d="M 36.925 404.12 
L 724.28 404.12 
" style="fill:none;stroke:#000000;stroke-linecap:square;stroke-linejoin:miter;stroke-width:0.8;"/>
   </g>
   <g id="patch_6">
    <path d="M 36.925 26.16 
L 724.28 26.16 
" style="fill:none;stroke:#000000;stroke-linecap:square;stroke-linejoin:miter;stroke-width:0.8;"/>
   </g>
   <g id="text_15">
    <!-- gridworld_5x5_20_1_20_1337: episode duration, steps, MA=40 -->
    <defs>
     <path d="M 45.40625 27.984375 
Q 45.40625 37.75 41.375 43.109375 
Q 37.359375 48.484375 30.078125 48.484375 
Q 22.859375 48.484375 18.828125 43.109375 
Q 14.796875 37.75 14.796875 27.984375 
Q 14.796875 18.265625 18.828125 12.890625 
Q 22.859375 7.515625 30.078125 7.515625 
Q 37.359375 7.515625 41.375 12.890625 
Q 45.40625 18.265625 45.40625 27.984375 
z
M 54.390625 6.78125 
Q 54.390625 -7.171875 48.1875 -13.984375 
Q 42 -20.796875 29.203125 -20.796875 
Q 24.46875 -20.796875 20.265625 -20.09375 
Q 16.0625 -19.390625 12.109375 -17.921875 
L 12.109375 -9.1875 
Q 16.0625 -11.328125 19.921875 -12.34375 
Q 23.78125 -13.375 27.78125 -13.375 
Q 36.625 -13.375 41.015625 -8.765625 
Q 45.40625 -4.15625 45.40625 5.171875 
L 45.40625 9.625 
Q 42.625 4.78125 38.28125 2.390625 
Q 33.9375 0 27.875 0 
Q 17.828125 0 11.671875 7.65625 
Q 5.515625 15.328125 5.515625 27.984375 
Q 5.515625 40.671875 11.671875 48.328125 
Q 17.828125 56 27.875 56 
Q 33.9375 56 38.28125 53.609375 
Q 42.625 51.21875 45.40625 46.390625 
L 45.40625 54.6875 
L 54.390625 54.6875 
z
" id="DejaVuSans-103"/>
     <path d="M 41.109375 46.296875 
Q 39.59375 47.171875 37.8125 47.578125 
Q 36.03125 48 33.890625 48 
Q 26.265625 48 22.1875 43.046875 
Q 18.109375 38.09375 18.109375 28.8125 
L 18.109375 0 
L 9.078125 0 
L 9.078125 54.6875 
L 18.109375 54.6875 
L 18.109375 46.1875 
Q 20.953125 51.171875 25.484375 53.578125 
Q 30.03125 56 36.53125 56 
Q 37.453125 56 38.578125 55.875 
Q 39.703125 55.765625 41.0625 55.515625 
z
" id="DejaVuSans-114"/>
     <path d="M 9.421875 54.6875 
L 18.40625 54.6875 
L 18.40625 0 
L 9.421875 0 
z
M 9.421875 75.984375 
L 18.40625 75.984375 
L 18.40625 64.59375 
L 9.421875 64.59375 
z
" id="DejaVuSans-105"/>
     <path d="M 45.40625 46.390625 
L 45.40625 75.984375 
L 54.390625 75.984375 
L 54.390625 0 
L 45.40625 0 
L 45.40625 8.203125 
Q 42.578125 3.328125 38.25 0.953125 
Q 33.9375 -1.421875 27.875 -1.421875 
Q 17.96875 -1.421875 11.734375 6.484375 
Q 5.515625 14.40625 5.515625 27.296875 
Q 5.515625 40.1875 11.734375 48.09375 
Q 17.96875 56 27.875 56 
Q 33.9375 56 38.25 53.625 
Q 42.578125 51.265625 45.40625 46.390625 
z
M 14.796875 27.296875 
Q 14.796875 17.390625 18.875 11.75 
Q 22.953125 6.109375 30.078125 6.109375 
Q 37.203125 6.109375 41.296875 11.75 
Q 45.40625 17.390625 45.40625 27.296875 
Q 45.40625 37.203125 41.296875 42.84375 
Q 37.203125 48.484375 30.078125 48.484375 
Q 22.953125 48.484375 18.875 42.84375 
Q 14.796875 37.203125 14.796875 27.296875 
z
" id="DejaVuSans-100"/>
     <path d="M 4.203125 54.6875 
L 13.1875 54.6875 
L 24.421875 12.015625 
L 35.59375 54.6875 
L 46.1875 54.6875 
L 57.421875 12.015625 
L 68.609375 54.6875 
L 77.59375 54.6875 
L 63.28125 0 
L 52.6875 0 
L 40.921875 44.828125 
L 29.109375 0 
L 18.5 0 
z
" id="DejaVuSans-119"/>
     <path d="M 30.609375 48.390625 
Q 23.390625 48.390625 19.1875 42.75 
Q 14.984375 37.109375 14.984375 27.296875 
Q 14.984375 17.484375 19.15625 11.84375 
Q 23.34375 6.203125 30.609375 6.203125 
Q 37.796875 6.203125 41.984375 11.859375 
Q 46.1875 17.53125 46.1875 27.296875 
Q 46.1875 37.015625 41.984375 42.703125 
Q 37.796875 48.390625 30.609375 48.390625 
z
M 30.609375 56 
Q 42.328125 56 49.015625 48.375 
Q 55.71875 40.765625 55.71875 27.296875 
Q 55.71875 13.875 49.015625 6.21875 
Q 42.328125 -1.421875 30.609375 -1.421875 
Q 18.84375 -1.421875 12.171875 6.21875 
Q 5.515625 13.875 5.515625 27.296875 
Q 5.515625 40.765625 12.171875 48.375 
Q 18.84375 56 30.609375 56 
z
" id="DejaVuSans-111"/>
     <path d="M 9.421875 75.984375 
L 18.40625 75.984375 
L 18.40625 0 
L 9.421875 0 
z
" id="DejaVuSans-108"/>
     <path d="M 50.984375 -16.609375 
L 50.984375 -23.578125 
L -0.984375 -23.578125 
L -0.984375 -16.609375 
z
" id="DejaVuSans-95"/>
     <path d="M 54.890625 54.6875 
L 35.109375 28.078125 
L 55.90625 0 
L 45.3125 0 
L 29.390625 21.484375 
L 13.484375 0 
L 2.875 0 
L 24.125 28.609375 
L 4.6875 54.6875 
L 15.28125 54.6875 
L 29.78125 35.203125 
L 44.28125 54.6875 
z
" id="DejaVuSans-120"/>
     <path d="M 8.203125 72.90625 
L 55.078125 72.90625 
L 55.078125 68.703125 
L 28.609375 0 
L 18.3125 0 
L 43.21875 64.59375 
L 8.203125 64.59375 
z
" id="DejaVuSans-55"/>
     <path d="M 11.71875 12.40625 
L 22.015625 12.40625 
L 22.015625 0 
L 11.71875 0 
z
M 11.71875 51.703125 
L 22.015625 51.703125 
L 22.015625 39.3125 
L 11.71875 39.3125 
z
" id="DejaVuSans-58"/>
     <path id="DejaVuSans-32"/>
     <path d="M 56.203125 29.59375 
L 56.203125 25.203125 
L 14.890625 25.203125 
Q 15.484375 15.921875 20.484375 11.0625 
Q 25.484375 6.203125 34.421875 6.203125 
Q 39.59375 6.203125 44.453125 7.46875 
Q 49.3125 8.734375 54.109375 11.28125 
L 54.109375 2.78125 
Q 49.265625 0.734375 44.1875 -0.34375 
Q 39.109375 -1.421875 33.890625 -1.421875 
Q 20.796875 -1.421875 13.15625 6.1875 
Q 5.515625 13.8125 5.515625 26.8125 
Q 5.515625 40.234375 12.765625 48.109375 
Q 20.015625 56 32.328125 56 
Q 43.359375 56 49.78125 48.890625 
Q 56.203125 41.796875 56.203125 29.59375 
z
M 47.21875 32.234375 
Q 47.125 39.59375 43.09375 43.984375 
Q 39.0625 48.390625 32.421875 48.390625 
Q 24.90625 48.390625 20.390625 44.140625 
Q 15.875 39.890625 15.1875 32.171875 
z
" id="DejaVuSans-101"/>
     <path d="M 18.109375 8.203125 
L 18.109375 -20.796875 
L 9.078125 -20.796875 
L 9.078125 54.6875 
L 18.109375 54.6875 
L 18.109375 46.390625 
Q 20.953125 51.265625 25.265625 53.625 
Q 29.59375 56 35.59375 56 
Q 45.5625 56 51.78125 48.09375 
Q 58.015625 40.1875 58.015625 27.296875 
Q 58.015625 14.40625 51.78125 6.484375 
Q 45.5625 -1.421875 35.59375 -1.421875 
Q 29.59375 -1.421875 25.265625 0.953125 
Q 20.953125 3.328125 18.109375 8.203125 
z
M 48.6875 27.296875 
Q 48.6875 37.203125 44.609375 42.84375 
Q 40.53125 48.484375 33.40625 48.484375 
Q 26.265625 48.484375 22.1875 42.84375 
Q 18.109375 37.203125 18.109375 27.296875 
Q 18.109375 17.390625 22.1875 11.75 
Q 26.265625 6.109375 33.40625 6.109375 
Q 40.53125 6.109375 44.609375 11.75 
Q 48.6875 17.390625 48.6875 27.296875 
z
" id="DejaVuSans-112"/>
     <path d="M 44.28125 53.078125 
L 44.28125 44.578125 
Q 40.484375 46.53125 36.375 47.5 
Q 32.28125 48.484375 27.875 48.484375 
Q 21.1875 48.484375 17.84375 46.4375 
Q 14.5 44.390625 14.5 40.28125 
Q 14.5 37.15625 16.890625 35.375 
Q 19.28125 33.59375 26.515625 31.984375 
L 29.59375 31.296875 
Q 39.15625 29.25 43.1875 25.515625 
Q 47.21875 21.78125 47.21875 15.09375 
Q 47.21875 7.46875 41.1875 3.015625 
Q 35.15625 -1.421875 24.609375 -1.421875 
Q 20.21875 -1.421875 15.453125 -0.5625 
Q 10.6875 0.296875 5.421875 2 
L 5.421875 11.28125 
Q 10.40625 8.6875 15.234375 7.390625 
Q 20.0625 6.109375 24.8125 6.109375 
Q 31.15625 6.109375 34.5625 8.28125 
Q 37.984375 10.453125 37.984375 14.40625 
Q 37.984375 18.0625 35.515625 20.015625 
Q 33.0625 21.96875 24.703125 23.78125 
L 21.578125 24.515625 
Q 13.234375 26.265625 9.515625 29.90625 
Q 5.8125 33.546875 5.8125 39.890625 
Q 5.8125 47.609375 11.28125 51.796875 
Q 16.75 56 26.8125 56 
Q 31.78125 56 36.171875 55.265625 
Q 40.578125 54.546875 44.28125 53.078125 
z
" id="DejaVuSans-115"/>
     <path d="M 8.5 21.578125 
L 8.5 54.6875 
L 17.484375 54.6875 
L 17.484375 21.921875 
Q 17.484375 14.15625 20.5 10.265625 
Q 23.53125 6.390625 29.59375 6.390625 
Q 36.859375 6.390625 41.078125 11.03125 
Q 45.3125 15.671875 45.3125 23.6875 
L 45.3125 54.6875 
L 54.296875 54.6875 
L 54.296875 0 
L 45.3125 0 
L 45.3125 8.40625 
Q 42.046875 3.421875 37.71875 1 
Q 33.40625 -1.421875 27.6875 -1.421875 
Q 18.265625 -1.421875 13.375 4.4375 
Q 8.5 10.296875 8.5 21.578125 
z
M 31.109375 56 
z
" id="DejaVuSans-117"/>
     <path d="M 34.28125 27.484375 
Q 23.390625 27.484375 19.1875 25 
Q 14.984375 22.515625 14.984375 16.5 
Q 14.984375 11.71875 18.140625 8.90625 
Q 21.296875 6.109375 26.703125 6.109375 
Q 34.1875 6.109375 38.703125 11.40625 
Q 43.21875 16.703125 43.21875 25.484375 
L 43.21875 27.484375 
z
M 52.203125 31.203125 
L 52.203125 0 
L 43.21875 0 
L 43.21875 8.296875 
Q 40.140625 3.328125 35.546875 0.953125 
Q 30.953125 -1.421875 24.3125 -1.421875 
Q 15.921875 -1.421875 10.953125 3.296875 
Q 6 8.015625 6 15.921875 
Q 6 25.140625 12.171875 29.828125 
Q 18.359375 34.515625 30.609375 34.515625 
L 43.21875 34.515625 
L 43.21875 35.40625 
Q 43.21875 41.609375 39.140625 45 
Q 35.0625 48.390625 27.6875 48.390625 
Q 23 48.390625 18.546875 47.265625 
Q 14.109375 46.140625 10.015625 43.890625 
L 10.015625 52.203125 
Q 14.9375 54.109375 19.578125 55.046875 
Q 24.21875 56 28.609375 56 
Q 40.484375 56 46.34375 49.84375 
Q 52.203125 43.703125 52.203125 31.203125 
z
" id="DejaVuSans-97"/>
     <path d="M 18.3125 70.21875 
L 18.3125 54.6875 
L 36.8125 54.6875 
L 36.8125 47.703125 
L 18.3125 47.703125 
L 18.3125 18.015625 
Q 18.3125 11.328125 20.140625 9.421875 
Q 21.96875 7.515625 27.59375 7.515625 
L 36.8125 7.515625 
L 36.8125 0 
L 27.59375 0 
Q 17.1875 0 13.234375 3.875 
Q 9.28125 7.765625 9.28125 18.015625 
L 9.28125 47.703125 
L 2.6875 47.703125 
L 2.6875 54.6875 
L 9.28125 54.6875 
L 9.28125 70.21875 
z
" id="DejaVuSans-116"/>
     <path d="M 54.890625 33.015625 
L 54.890625 0 
L 45.90625 0 
L 45.90625 32.71875 
Q 45.90625 40.484375 42.875 44.328125 
Q 39.84375 48.1875 33.796875 48.1875 
Q 26.515625 48.1875 22.3125 43.546875 
Q 18.109375 38.921875 18.109375 30.90625 
L 18.109375 0 
L 9.078125 0 
L 9.078125 54.6875 
L 18.109375 54.6875 
L 18.109375 46.1875 
Q 21.34375 51.125 25.703125 53.5625 
Q 30.078125 56 35.796875 56 
Q 45.21875 56 50.046875 50.171875 
Q 54.890625 44.34375 54.890625 33.015625 
z
" id="DejaVuSans-110"/>
     <path d="M 11.71875 12.40625 
L 22.015625 12.40625 
L 22.015625 4 
L 14.015625 -11.625 
L 7.71875 -11.625 
L 11.71875 4 
z
" id="DejaVuSans-44"/>
     <path d="M 9.8125 72.90625 
L 24.515625 72.90625 
L 43.109375 23.296875 
L 61.8125 72.90625 
L 76.515625 72.90625 
L 76.515625 0 
L 66.890625 0 
L 66.890625 64.015625 
L 48.09375 14.015625 
L 38.1875 14.015625 
L 19.390625 64.015625 
L 19.390625 0 
L 9.8125 0 
z
" id="DejaVuSans-77"/>
     <path d="M 34.1875 63.1875 
L 20.796875 26.90625 
L 47.609375 26.90625 
z
M 28.609375 72.90625 
L 39.796875 72.90625 
L 67.578125 0 
L 57.328125 0 
L 50.6875 18.703125 
L 17.828125 18.703125 
L 11.1875 0 
L 0.78125 0 
z
" id="DejaVuSans-65"/>
     <path d="M 10.59375 45.40625 
L 73.1875 45.40625 
L 73.1875 37.203125 
L 10.59375 37.203125 
z
M 10.59375 25.484375 
L 73.1875 25.484375 
L 73.1875 17.1875 
L 10.59375 17.1875 
z
" id="DejaVuSans-61"/>
     <path d="M 37.796875 64.3125 
L 12.890625 25.390625 
L 37.796875 25.390625 
z
M 35.203125 72.90625 
L 47.609375 72.90625 
L 47.609375 25.390625 
L 58.015625 25.390625 
L 58.015625 17.1875 
L 47.609375 17.1875 
L 47.609375 0 
L 37.796875 0 
L 37.796875 17.1875 
L 4.890625 17.1875 
L 4.890625 26.703125 
z
" id="DejaVuSans-52"/>
    </defs>
    <g transform="translate(191.562187 20.16)scale(0.12 -0.12)">
     <use xlink:href="#DejaVuSans-103"/>
     <use x="63.476562" xlink:href="#DejaVuSans-114"/>
     <use x="104.589844" xlink:href="#DejaVuSans-105"/>
     <use x="132.373047" xlink:href="#DejaVuSans-100"/>
     <use x="195.849609" xlink:href="#DejaVuSans-119"/>
     <use x="277.636719" xlink:href="#DejaVuSans-111"/>
     <use x="338.818359" xlink:href="#DejaVuSans-114"/>
     <use x="379.931641" xlink:href="#DejaVuSans-108"/>
     <use x="407.714844" xlink:href="#DejaVuSans-100"/>
     <use x="471.191406" xlink:href="#DejaVuSans-95"/>
     <use x="521.191406" xlink:href="#DejaVuSans-53"/>
     <use x="584.814453" xlink:href="#DejaVuSans-120"/>
     <use x="643.994141" xlink:href="#DejaVuSans-53"/>
     <use x="707.617188" xlink:href="#DejaVuSans-95"/>
     <use x="757.617188" xlink:href="#DejaVuSans-50"/>
     <use x="821.240234" xlink:href="#DejaVuSans-48"/>
     <use x="884.863281" xlink:href="#DejaVuSans-95"/>
     <use x="934.863281" xlink:href="#DejaVuSans-49"/>
     <use x="998.486328" xlink:href="#DejaVuSans-95"/>
     <use x="1048.486328" xlink:href="#DejaVuSans-50"/>
     <use x="1112.109375" xlink:href="#DejaVuSans-48"/>
     <use x="1175.732422" xlink:href="#DejaVuSans-95"/>
     <use x="1225.732422" xlink:href="#DejaVuSans-49"/>
     <use x="1289.355469" xlink:href="#DejaVuSans-51"/>
     <use x="1352.978516" xlink:href="#DejaVuSans-51"/>
     <use x="1416.601562" xlink:href="#DejaVuSans-55"/>
     <use x="1480.224609" xlink:href="#DejaVuSans-58"/>
     <use x="1513.916016" xlink:href="#DejaVuSans-32"/>
     <use x="1545.703125" xlink:href="#DejaVuSans-101"/>
     <use x="1607.226562" xlink:href="#DejaVuSans-112"/>
     <use x="1670.703125" xlink:href="#DejaVuSans-105"/>
     <use x="1698.486328" xlink:href="#DejaVuSans-115"/>
     <use x="1750.585938" xlink:href="#DejaVuSans-111"/>
     <use x="1811.767578" xlink:href="#DejaVuSans-100"/>
     <use x="1875.244141" xlink:href="#DejaVuSans-101"/>
     <use x="1936.767578" xlink:href="#DejaVuSans-32"/>
     <use x="1968.554688" xlink:href="#DejaVuSans-100"/>
     <use x="2032.03125" xlink:href="#DejaVuSans-117"/>
     <use x="2095.410156" xlink:href="#DejaVuSans-114"/>
     <use x="2136.523438" xlink:href="#DejaVuSans-97"/>
     <use x="2197.802734" xlink:href="#DejaVuSans-116"/>
     <use x="2237.011719" xlink:href="#DejaVuSans-105"/>
     <use x="2264.794922" xlink:href="#DejaVuSans-111"/>
     <use x="2325.976562" xlink:href="#DejaVuSans-110"/>
     <use x="2389.355469" xlink:href="#DejaVuSans-44"/>
     <use x="2421.142578" xlink:href="#DejaVuSans-32"/>
     <use x="2452.929688" xlink:href="#DejaVuSans-115"/>
     <use x="2505.029297" xlink:href="#DejaVuSans-116"/>
     <use x="2544.238281" xlink:href="#DejaVuSans-101"/>
     <use x="2605.761719" xlink:href="#DejaVuSans-112"/>
     <use x="2669.238281" xlink:href="#DejaVuSans-115"/>
     <use x="2721.337891" xlink:href="#DejaVuSans-44"/>
     <use x="2753.125" xlink:href="#DejaVuSans-32"/>
     <use x="2784.912109" xlink:href="#DejaVuSans-77"/>
     <use x="2871.191406" xlink:href="#DejaVuSans-65"/>
     <use x="2939.599609" xlink:href="#DejaVuSans-61"/>
     <use x="3023.388672" xlink:href="#DejaVuSans-52"/>
     <use x="3087.011719" xlink:href="#DejaVuSans-48"/>
    </g>
   </g>
   <g id="legend_1">
    <g id="patch_7">
     <path d="M 763.686937 261.50875 
L 854.751 261.50875 
Q 856.751 261.50875 856.751 259.50875 
L 856.751 170.77125 
Q 856.751 168.77125 854.751 168.77125 
L 763.686937 168.77125 
Q 761.686937 168.77125 761.686937 170.77125 
L 761.686937 259.50875 
Q 761.686937 261.50875 763.686937 261.50875 
z
" style="fill:#ffffff;opacity:0.8;stroke:#cccccc;stroke-linejoin:miter;"/>
    </g>
    <g id="line2d_21">
     <path d="M 765.686937 176.869687 
L 785.686937 176.869687 
" style="fill:none;stroke:#1f77b4;stroke-linecap:square;stroke-width:1.5;"/>
    </g>
    <g id="line2d_22"/>
    <g id="text_16">
     <!-- htm_0 -->
     <defs>
      <path d="M 54.890625 33.015625 
L 54.890625 0 
L 45.90625 0 
L 45.90625 32.71875 
Q 45.90625 40.484375 42.875 44.328125 
Q 39.84375 48.1875 33.796875 48.1875 
Q 26.515625 48.1875 22.3125 43.546875 
Q 18.109375 38.921875 18.109375 30.90625 
L 18.109375 0 
L 9.078125 0 
L 9.078125 75.984375 
L 18.109375 75.984375 
L 18.109375 46.1875 
Q 21.34375 51.125 25.703125 53.5625 
Q 30.078125 56 35.796875 56 
Q 45.21875 56 50.046875 50.171875 
Q 54.890625 44.34375 54.890625 33.015625 
z
" id="DejaVuSans-104"/>
      <path d="M 52 44.1875 
Q 55.375 50.25 60.0625 53.125 
Q 64.75 56 71.09375 56 
Q 79.640625 56 84.28125 50.015625 
Q 88.921875 44.046875 88.921875 33.015625 
L 88.921875 0 
L 79.890625 0 
L 79.890625 32.71875 
Q 79.890625 40.578125 77.09375 44.375 
Q 74.3125 48.1875 68.609375 48.1875 
Q 61.625 48.1875 57.5625 43.546875 
Q 53.515625 38.921875 53.515625 30.90625 
L 53.515625 0 
L 44.484375 0 
L 44.484375 32.71875 
Q 44.484375 40.625 41.703125 44.40625 
Q 38.921875 48.1875 33.109375 48.1875 
Q 26.21875 48.1875 22.15625 43.53125 
Q 18.109375 38.875 18.109375 30.90625 
L 18.109375 0 
L 9.078125 0 
L 9.078125 54.6875 
L 18.109375 54.6875 
L 18.109375 46.1875 
Q 21.1875 51.21875 25.484375 53.609375 
Q 29.78125 56 35.6875 56 
Q 41.65625 56 45.828125 52.96875 
Q 50 49.953125 52 44.1875 
z
" id="DejaVuSans-109"/>
     </defs>
     <g transform="translate(793.686937 180.369687)scale(0.1 -0.1)">
      <use xlink:href="#DejaVuSans-104"/>
      <use x="63.378906" xlink:href="#DejaVuSans-116"/>
      <use x="102.587891" xlink:href="#DejaVuSans-109"/>
      <use x="200" xlink:href="#DejaVuSans-95"/>
      <use x="250" xlink:href="#DejaVuSans-48"/>
     </g>
    </g>
    <g id="line2d_23">
     <path d="M 765.686937 191.825938 
L 785.686937 191.825938 
" style="fill:none;stroke:#ff7f0e;stroke-linecap:square;stroke-width:1.5;"/>
    </g>
    <g id="line2d_24"/>
    <g id="text_17">
     <!-- dqn_greedy -->
     <defs>
      <path d="M 14.796875 27.296875 
Q 14.796875 17.390625 18.875 11.75 
Q 22.953125 6.109375 30.078125 6.109375 
Q 37.203125 6.109375 41.296875 11.75 
Q 45.40625 17.390625 45.40625 27.296875 
Q 45.40625 37.203125 41.296875 42.84375 
Q 37.203125 48.484375 30.078125 48.484375 
Q 22.953125 48.484375 18.875 42.84375 
Q 14.796875 37.203125 14.796875 27.296875 
z
M 45.40625 8.203125 
Q 42.578125 3.328125 38.25 0.953125 
Q 33.9375 -1.421875 27.875 -1.421875 
Q 17.96875 -1.421875 11.734375 6.484375 
Q 5.515625 14.40625 5.515625 27.296875 
Q 5.515625 40.1875 11.734375 48.09375 
Q 17.96875 56 27.875 56 
Q 33.9375 56 38.25 53.625 
Q 42.578125 51.265625 45.40625 46.390625 
L 45.40625 54.6875 
L 54.390625 54.6875 
L 54.390625 -20.796875 
L 45.40625 -20.796875 
z
" id="DejaVuSans-113"/>
      <path d="M 32.171875 -5.078125 
Q 28.375 -14.84375 24.75 -17.8125 
Q 21.140625 -20.796875 15.09375 -20.796875 
L 7.90625 -20.796875 
L 7.90625 -13.28125 
L 13.1875 -13.28125 
Q 16.890625 -13.28125 18.9375 -11.515625 
Q 21 -9.765625 23.484375 -3.21875 
L 25.09375 0.875 
L 2.984375 54.6875 
L 12.5 54.6875 
L 29.59375 11.921875 
L 46.6875 54.6875 
L 56.203125 54.6875 
z
" id="DejaVuSans-121"/>
     </defs>
     <g transform="translate(793.686937 195.325938)scale(0.1 -0.1)">
      <use xlink:href="#DejaVuSans-100"/>
      <use x="63.476562" xlink:href="#DejaVuSans-113"/>
      <use x="126.953125" xlink:href="#DejaVuSans-110"/>
      <use x="190.332031" xlink:href="#DejaVuSans-95"/>
      <use x="240.332031" xlink:href="#DejaVuSans-103"/>
      <use x="303.808594" xlink:href="#DejaVuSans-114"/>
      <use x="344.890625" xlink:href="#DejaVuSans-101"/>
      <use x="406.414062" xlink:href="#DejaVuSans-101"/>
      <use x="467.9375" xlink:href="#DejaVuSans-100"/>
      <use x="531.414062" xlink:href="#DejaVuSans-121"/>
     </g>
    </g>
    <g id="line2d_25">
     <path d="M 765.686937 206.782187 
L 785.686937 206.782187 
" style="fill:none;stroke:#2ca02c;stroke-linecap:square;stroke-width:1.5;"/>
    </g>
    <g id="line2d_26"/>
    <g id="text_18">
     <!-- htm_1_1g -->
     <g transform="translate(793.686937 210.282187)scale(0.1 -0.1)">
      <use xlink:href="#DejaVuSans-104"/>
      <use x="63.378906" xlink:href="#DejaVuSans-116"/>
      <use x="102.587891" xlink:href="#DejaVuSans-109"/>
      <use x="200" xlink:href="#DejaVuSans-95"/>
      <use x="250" xlink:href="#DejaVuSans-49"/>
      <use x="313.623047" xlink:href="#DejaVuSans-95"/>
      <use x="363.623047" xlink:href="#DejaVuSans-49"/>
      <use x="427.246094" xlink:href="#DejaVuSans-103"/>
     </g>
    </g>
    <g id="line2d_27">
     <path d="M 765.686937 221.738438 
L 785.686937 221.738438 
" style="fill:none;stroke:#d62728;stroke-linecap:square;stroke-width:1.5;"/>
    </g>
    <g id="line2d_28"/>
    <g id="text_19">
     <!-- htm_2_1g -->
     <g transform="translate(793.686937 225.238438)scale(0.1 -0.1)">
      <use xlink:href="#DejaVuSans-104"/>
      <use x="63.378906" xlink:href="#DejaVuSans-116"/>
      <use x="102.587891" xlink:href="#DejaVuSans-109"/>
      <use x="200" xlink:href="#DejaVuSans-95"/>
      <use x="250" xlink:href="#DejaVuSans-50"/>
      <use x="313.623047" xlink:href="#DejaVuSans-95"/>
      <use x="363.623047" xlink:href="#DejaVuSans-49"/>
      <use x="427.246094" xlink:href="#DejaVuSans-103"/>
     </g>
    </g>
    <g id="line2d_29">
     <path d="M 765.686937 236.694687 
L 785.686937 236.694687 
" style="fill:none;stroke:#9467bd;stroke-linecap:square;stroke-width:1.5;"/>
    </g>
    <g id="line2d_30"/>
    <g id="text_20">
     <!-- htm_4_1g -->
     <g transform="translate(793.686937 240.194687)scale(0.1 -0.1)">
      <use xlink:href="#DejaVuSans-104"/>
      <use x="63.378906" xlink:href="#DejaVuSans-116"/>
      <use x="102.587891" xlink:href="#DejaVuSans-109"/>
      <use x="200" xlink:href="#DejaVuSans-95"/>
      <use x="250" xlink:href="#DejaVuSans-52"/>
      <use x="313.623047" xlink:href="#DejaVuSans-95"/>
      <use x="363.623047" xlink:href="#DejaVuSans-49"/>
      <use x="427.246094" xlink:href="#DejaVuSans-103"/>
     </g>
    </g>
    <g id="line2d_31">
     <path d="M 765.686937 251.650937 
L 785.686937 251.650937 
" style="fill:none;stroke:#8c564b;stroke-linecap:square;stroke-width:1.5;"/>
    </g>
    <g id="line2d_32"/>
    <g id="text_21">
     <!-- htm_8_1g -->
     <defs>
      <path d="M 31.78125 34.625 
Q 24.75 34.625 20.71875 30.859375 
Q 16.703125 27.09375 16.703125 20.515625 
Q 16.703125 13.921875 20.71875 10.15625 
Q 24.75 6.390625 31.78125 6.390625 
Q 38.8125 6.390625 42.859375 10.171875 
Q 46.921875 13.96875 46.921875 20.515625 
Q 46.921875 27.09375 42.890625 30.859375 
Q 38.875 34.625 31.78125 34.625 
z
M 21.921875 38.8125 
Q 15.578125 40.375 12.03125 44.71875 
Q 8.5 49.078125 8.5 55.328125 
Q 8.5 64.0625 14.71875 69.140625 
Q 20.953125 74.21875 31.78125 74.21875 
Q 42.671875 74.21875 48.875 69.140625 
Q 55.078125 64.0625 55.078125 55.328125 
Q 55.078125 49.078125 51.53125 44.71875 
Q 48 40.375 41.703125 38.8125 
Q 48.828125 37.15625 52.796875 32.3125 
Q 56.78125 27.484375 56.78125 20.515625 
Q 56.78125 9.90625 50.3125 4.234375 
Q 43.84375 -1.421875 31.78125 -1.421875 
Q 19.734375 -1.421875 13.25 4.234375 
Q 6.78125 9.90625 6.78125 20.515625 
Q 6.78125 27.484375 10.78125 32.3125 
Q 14.796875 37.15625 21.921875 38.8125 
z
M 18.3125 54.390625 
Q 18.3125 48.734375 21.84375 45.5625 
Q 25.390625 42.390625 31.78125 42.390625 
Q 38.140625 42.390625 41.71875 45.5625 
Q 45.3125 48.734375 45.3125 54.390625 
Q 45.3125 60.0625 41.71875 63.234375 
Q 38.140625 66.40625 31.78125 66.40625 
Q 25.390625 66.40625 21.84375 63.234375 
Q 18.3125 60.0625 18.3125 54.390625 
z
" id="DejaVuSans-56"/>
     </defs>
     <g transform="translate(793.686937 255.150937)scale(0.1 -0.1)">
      <use xlink:href="#DejaVuSans-104"/>
      <use x="63.378906" xlink:href="#DejaVuSans-116"/>
      <use x="102.587891" xlink:href="#DejaVuSans-109"/>
      <use x="200" xlink:href="#DejaVuSans-95"/>
      <use x="250" xlink:href="#DejaVuSans-56"/>
      <use x="313.623047" xlink:href="#DejaVuSans-95"/>
      <use x="363.623047" xlink:href="#DejaVuSans-49"/>
      <use x="427.246094" xlink:href="#DejaVuSans-103"/>
     </g>
    </g>
   </g>
  </g>
 </g>
 <defs>
  <clipPath id="p66e7cc0168">
   <rect height="377.96" width="687.355" x="36.925" y="26.16"/>
  </clipPath>
 </defs>
</svg>
