<?xml version="1.0" encoding="utf-8" standalone="no"?>
<!DOCTYPE svg PUBLIC "-//W3C//DTD SVG 1.1//EN"
  "http://www.w3.org/Graphics/SVG/1.1/DTD/svg11.dtd">
<!-- Created with matplotlib (https://matplotlib.org/) -->
<svg height="432pt" version="1.1" viewBox="0 0 864 432" width="864pt" xmlns="http://www.w3.org/2000/svg" xmlns:xlink="http://www.w3.org/1999/xlink">
 <defs>
  <style type="text/css">
*{stroke-linecap:butt;stroke-linejoin:round;}
  </style>
 </defs>
 <g id="figure_1">
  <g id="patch_1">
   <path d="M 0 432 
L 864 432 
L 864 0 
L 0 0 
z
" style="fill:#ffffff;"/>
  </g>
  <g id="axes_1">
   <g id="patch_2">
    <path d="M 33.775 404.12 
L 724.28 404.12 
L 724.28 26.52 
L 33.775 26.52 
z
" style="fill:#ffffff;"/>
   </g>
   <g id="matplotlib.axis_1">
    <g id="xtick_1">
     <g id="line2d_1">
      <defs>
       <path d="M 0 0 
L 0 3.5 
" id="m0a12c99ec5" style="stroke:#000000;stroke-width:0.8;"/>
      </defs>
      <g>
       <use style="stroke:#000000;stroke-width:0.8;" x="33.775" xlink:href="#m0a12c99ec5" y="404.12"/>
      </g>
     </g>
     <g id="text_1">
      <!-- 0 -->
      <defs>
       <path d="M 31.78125 66.40625 
Q 24.171875 66.40625 20.328125 58.90625 
Q 16.5 51.421875 16.5 36.375 
Q 16.5 21.390625 20.328125 13.890625 
Q 24.171875 6.390625 31.78125 6.390625 
Q 39.453125 6.390625 43.28125 13.890625 
Q 47.125 21.390625 47.125 36.375 
Q 47.125 51.421875 43.28125 58.90625 
Q 39.453125 66.40625 31.78125 66.40625 
z
M 31.78125 74.21875 
Q 44.046875 74.21875 50.515625 64.515625 
Q 56.984375 54.828125 56.984375 36.375 
Q 56.984375 17.96875 50.515625 8.265625 
Q 44.046875 -1.421875 31.78125 -1.421875 
Q 19.53125 -1.421875 13.0625 8.265625 
Q 6.59375 17.96875 6.59375 36.375 
Q 6.59375 54.828125 13.0625 64.515625 
Q 19.53125 74.21875 31.78125 74.21875 
z
" id="DejaVuSans-48"/>
      </defs>
      <g transform="translate(30.59375 418.718437)scale(0.1 -0.1)">
       <use xlink:href="#DejaVuSans-48"/>
      </g>
     </g>
    </g>
    <g id="xtick_2">
     <g id="line2d_2">
      <g>
       <use style="stroke:#000000;stroke-width:0.8;" x="120.521859" xlink:href="#m0a12c99ec5" y="404.12"/>
      </g>
     </g>
     <g id="text_2">
      <!-- 25 -->
      <defs>
       <path d="M 19.1875 8.296875 
L 53.609375 8.296875 
L 53.609375 0 
L 7.328125 0 
L 7.328125 8.296875 
Q 12.9375 14.109375 22.625 23.890625 
Q 32.328125 33.6875 34.8125 36.53125 
Q 39.546875 41.84375 41.421875 45.53125 
Q 43.3125 49.21875 43.3125 52.78125 
Q 43.3125 58.59375 39.234375 62.25 
Q 35.15625 65.921875 28.609375 65.921875 
Q 23.96875 65.921875 18.8125 64.3125 
Q 13.671875 62.703125 7.8125 59.421875 
L 7.8125 69.390625 
Q 13.765625 71.78125 18.9375 73 
Q 24.125 74.21875 28.421875 74.21875 
Q 39.75 74.21875 46.484375 68.546875 
Q 53.21875 62.890625 53.21875 53.421875 
Q 53.21875 48.921875 51.53125 44.890625 
Q 49.859375 40.875 45.40625 35.40625 
Q 44.1875 33.984375 37.640625 27.21875 
Q 31.109375 20.453125 19.1875 8.296875 
z
" id="DejaVuSans-50"/>
       <path d="M 10.796875 72.90625 
L 49.515625 72.90625 
L 49.515625 64.59375 
L 19.828125 64.59375 
L 19.828125 46.734375 
Q 21.96875 47.46875 24.109375 47.828125 
Q 26.265625 48.1875 28.421875 48.1875 
Q 40.625 48.1875 47.75 41.5 
Q 54.890625 34.8125 54.890625 23.390625 
Q 54.890625 11.625 47.5625 5.09375 
Q 40.234375 -1.421875 26.90625 -1.421875 
Q 22.3125 -1.421875 17.546875 -0.640625 
Q 12.796875 0.140625 7.71875 1.703125 
L 7.71875 11.625 
Q 12.109375 9.234375 16.796875 8.0625 
Q 21.484375 6.890625 26.703125 6.890625 
Q 35.15625 6.890625 40.078125 11.328125 
Q 45.015625 15.765625 45.015625 23.390625 
Q 45.015625 31 40.078125 35.4375 
Q 35.15625 39.890625 26.703125 39.890625 
Q 22.75 39.890625 18.8125 39.015625 
Q 14.890625 38.140625 10.796875 36.28125 
z
" id="DejaVuSans-53"/>
      </defs>
      <g transform="translate(114.159359 418.718437)scale(0.1 -0.1)">
       <use xlink:href="#DejaVuSans-50"/>
       <use x="63.623047" xlink:href="#DejaVuSans-53"/>
      </g>
     </g>
    </g>
    <g id="xtick_3">
     <g id="line2d_3">
      <g>
       <use style="stroke:#000000;stroke-width:0.8;" x="207.268719" xlink:href="#m0a12c99ec5" y="404.12"/>
      </g>
     </g>
     <g id="text_3">
      <!-- 50 -->
      <g transform="translate(200.906219 418.718437)scale(0.1 -0.1)">
       <use xlink:href="#DejaVuSans-53"/>
       <use x="63.623047" xlink:href="#DejaVuSans-48"/>
      </g>
     </g>
    </g>
    <g id="xtick_4">
     <g id="line2d_4">
      <g>
       <use style="stroke:#000000;stroke-width:0.8;" x="294.015578" xlink:href="#m0a12c99ec5" y="404.12"/>
      </g>
     </g>
     <g id="text_4">
      <!-- 75 -->
      <defs>
       <path d="M 8.203125 72.90625 
L 55.078125 72.90625 
L 55.078125 68.703125 
L 28.609375 0 
L 18.3125 0 
L 43.21875 64.59375 
L 8.203125 64.59375 
z
" id="DejaVuSans-55"/>
      </defs>
      <g transform="translate(287.653078 418.718437)scale(0.1 -0.1)">
       <use xlink:href="#DejaVuSans-55"/>
       <use x="63.623047" xlink:href="#DejaVuSans-53"/>
      </g>
     </g>
    </g>
    <g id="xtick_5">
     <g id="line2d_5">
      <g>
       <use style="stroke:#000000;stroke-width:0.8;" x="380.762437" xlink:href="#m0a12c99ec5" y="404.12"/>
      </g>
     </g>
     <g id="text_5">
      <!-- 100 -->
      <defs>
       <path d="M 12.40625 8.296875 
L 28.515625 8.296875 
L 28.515625 63.921875 
L 10.984375 60.40625 
L 10.984375 69.390625 
L 28.421875 72.90625 
L 38.28125 72.90625 
L 38.28125 8.296875 
L 54.390625 8.296875 
L 54.390625 0 
L 12.40625 0 
z
" id="DejaVuSans-49"/>
      </defs>
      <g transform="translate(371.218687 418.718437)scale(0.1 -0.1)">
       <use xlink:href="#DejaVuSans-49"/>
       <use x="63.623047" xlink:href="#DejaVuSans-48"/>
       <use x="127.246094" xlink:href="#DejaVuSans-48"/>
      </g>
     </g>
    </g>
    <g id="xtick_6">
     <g id="line2d_6">
      <g>
       <use style="stroke:#000000;stroke-width:0.8;" x="467.509296" xlink:href="#m0a12c99ec5" y="404.12"/>
      </g>
     </g>
     <g id="text_6">
      <!-- 125 -->
      <g transform="translate(457.965546 418.718437)scale(0.1 -0.1)">
       <use xlink:href="#DejaVuSans-49"/>
       <use x="63.623047" xlink:href="#DejaVuSans-50"/>
       <use x="127.246094" xlink:href="#DejaVuSans-53"/>
      </g>
     </g>
    </g>
    <g id="xtick_7">
     <g id="line2d_7">
      <g>
       <use style="stroke:#000000;stroke-width:0.8;" x="554.256156" xlink:href="#m0a12c99ec5" y="404.12"/>
      </g>
     </g>
     <g id="text_7">
      <!-- 150 -->
      <g transform="translate(544.712406 418.718437)scale(0.1 -0.1)">
       <use xlink:href="#DejaVuSans-49"/>
       <use x="63.623047" xlink:href="#DejaVuSans-53"/>
       <use x="127.246094" xlink:href="#DejaVuSans-48"/>
      </g>
     </g>
    </g>
    <g id="xtick_8">
     <g id="line2d_8">
      <g>
       <use style="stroke:#000000;stroke-width:0.8;" x="641.003015" xlink:href="#m0a12c99ec5" y="404.12"/>
      </g>
     </g>
     <g id="text_8">
      <!-- 175 -->
      <g transform="translate(631.459265 418.718437)scale(0.1 -0.1)">
       <use xlink:href="#DejaVuSans-49"/>
       <use x="63.623047" xlink:href="#DejaVuSans-55"/>
       <use x="127.246094" xlink:href="#DejaVuSans-53"/>
      </g>
     </g>
    </g>
   </g>
   <g id="matplotlib.axis_2">
    <g id="ytick_1">
     <g id="line2d_9">
      <defs>
       <path d="M 0 0 
L -3.5 0 
" id="m2d609e5fa9" style="stroke:#000000;stroke-width:0.8;"/>
      </defs>
      <g>
       <use style="stroke:#000000;stroke-width:0.8;" x="33.775" xlink:href="#m2d609e5fa9" y="352.471225"/>
      </g>
     </g>
     <g id="text_9">
      <!-- 0.0 -->
      <defs>
       <path d="M 10.6875 12.40625 
L 21 12.40625 
L 21 0 
L 10.6875 0 
z
" id="DejaVuSans-46"/>
      </defs>
      <g transform="translate(10.871875 356.270443)scale(0.1 -0.1)">
       <use xlink:href="#DejaVuSans-48"/>
       <use x="63.623047" xlink:href="#DejaVuSans-46"/>
       <use x="95.410156" xlink:href="#DejaVuSans-48"/>
      </g>
     </g>
    </g>
    <g id="ytick_2">
     <g id="line2d_10">
      <g>
       <use style="stroke:#000000;stroke-width:0.8;" x="33.775" xlink:href="#m2d609e5fa9" y="288.751294"/>
      </g>
     </g>
     <g id="text_10">
      <!-- 0.5 -->
      <g transform="translate(10.871875 292.550513)scale(0.1 -0.1)">
       <use xlink:href="#DejaVuSans-48"/>
       <use x="63.623047" xlink:href="#DejaVuSans-46"/>
       <use x="95.410156" xlink:href="#DejaVuSans-53"/>
      </g>
     </g>
    </g>
    <g id="ytick_3">
     <g id="line2d_11">
      <g>
       <use style="stroke:#000000;stroke-width:0.8;" x="33.775" xlink:href="#m2d609e5fa9" y="225.031364"/>
      </g>
     </g>
     <g id="text_11">
      <!-- 1.0 -->
      <g transform="translate(10.871875 228.830583)scale(0.1 -0.1)">
       <use xlink:href="#DejaVuSans-49"/>
       <use x="63.623047" xlink:href="#DejaVuSans-46"/>
       <use x="95.410156" xlink:href="#DejaVuSans-48"/>
      </g>
     </g>
    </g>
    <g id="ytick_4">
     <g id="line2d_12">
      <g>
       <use style="stroke:#000000;stroke-width:0.8;" x="33.775" xlink:href="#m2d609e5fa9" y="161.311434"/>
      </g>
     </g>
     <g id="text_12">
      <!-- 1.5 -->
      <g transform="translate(10.871875 165.110653)scale(0.1 -0.1)">
       <use xlink:href="#DejaVuSans-49"/>
       <use x="63.623047" xlink:href="#DejaVuSans-46"/>
       <use x="95.410156" xlink:href="#DejaVuSans-53"/>
      </g>
     </g>
    </g>
    <g id="ytick_5">
     <g id="line2d_13">
      <g>
       <use style="stroke:#000000;stroke-width:0.8;" x="33.775" xlink:href="#m2d609e5fa9" y="97.591504"/>
      </g>
     </g>
     <g id="text_13">
      <!-- 2.0 -->
      <g transform="translate(10.871875 101.390723)scale(0.1 -0.1)">
       <use xlink:href="#DejaVuSans-50"/>
       <use x="63.623047" xlink:href="#DejaVuSans-46"/>
       <use x="95.410156" xlink:href="#DejaVuSans-48"/>
      </g>
     </g>
    </g>
    <g id="ytick_6">
     <g id="line2d_14">
      <g>
       <use style="stroke:#000000;stroke-width:0.8;" x="33.775" xlink:href="#m2d609e5fa9" y="33.871574"/>
      </g>
     </g>
     <g id="text_14">
      <!-- 2.5 -->
      <g transform="translate(10.871875 37.670793)scale(0.1 -0.1)">
       <use xlink:href="#DejaVuSans-50"/>
       <use x="63.623047" xlink:href="#DejaVuSans-46"/>
       <use x="95.410156" xlink:href="#DejaVuSans-53"/>
      </g>
     </g>
    </g>
   </g>
   <g id="line2d_15">
    <path clip-path="url(#p6a501dd77f)" d="M 169.100101 352.471225 
L 724.28 352.471225 
L 724.28 352.471225 
" style="fill:none;stroke:#1f77b4;stroke-linecap:square;stroke-width:1.5;"/>
   </g>
   <g id="line2d_16">
    <path clip-path="url(#p6a501dd77f)" d="M 169.100101 111.843726 
L 172.569975 115.312969 
L 176.039849 113.815539 
L 179.509724 93.941723 
L 182.979598 96.048936 
L 186.449472 96.54006 
L 189.919347 100.29525 
L 193.389221 82.123019 
L 196.859095 92.785623 
L 200.32897 85.074339 
L 203.798844 81.08304 
L 207.268719 73.518436 
L 210.738593 75.883778 
L 214.208467 74.624313 
L 217.678342 81.754722 
L 221.148216 78.835423 
L 224.61809 60.663192 
L 228.087965 66.679584 
L 231.557839 60.595788 
L 235.027714 52.956102 
L 238.497588 52.294564 
L 241.967462 58.003103 
L 245.437337 50.667075 
L 248.907211 52.924836 
L 252.377085 75.236578 
L 255.84696 86.74095 
L 259.316834 73.804393 
L 262.786709 58.060337 
L 266.256583 69.232218 
L 269.726457 83.478844 
L 273.196332 70.57282 
L 276.666206 57.082971 
L 280.13608 62.416254 
L 283.605955 43.683636 
L 287.075829 53.808905 
L 290.545704 52.134904 
L 294.015578 70.946472 
L 297.485452 79.118391 
L 300.955327 74.245743 
L 304.425201 70.136867 
L 307.895075 74.29858 
L 311.36495 63.048029 
L 314.834824 78.81476 
L 318.304698 82.054709 
L 321.774573 91.985757 
L 325.244447 97.021067 
L 328.714322 107.021378 
L 332.184196 119.287935 
L 335.65407 113.94046 
L 339.123945 117.527928 
L 342.593819 136.411094 
L 346.063693 125.548451 
L 349.533568 117.170911 
L 353.003442 121.994917 
L 356.473317 101.614322 
L 359.943191 103.822686 
L 363.413065 112.656144 
L 366.88294 106.905405 
L 370.352814 115.197566 
L 373.822688 121.241783 
L 377.292563 121.302471 
L 380.762437 132.138674 
L 384.232312 140.310593 
L 387.702186 137.627402 
L 391.17206 136.988066 
L 394.641935 140.400948 
L 398.111809 158.573179 
L 401.581683 161.617435 
L 405.051558 153.700531 
L 408.521432 146.789934 
L 411.991307 149.944372 
L 415.461181 160.986194 
L 418.931055 160.708976 
L 422.40093 182.256425 
L 425.870804 183.271018 
L 429.340678 191.124831 
L 432.810553 179.504449 
L 436.280427 182.060722 
L 439.750302 183.433194 
L 443.220176 185.287194 
L 446.69005 181.78702 
L 450.159925 185.622873 
L 453.629799 175.689637 
L 457.099673 174.840159 
L 460.569548 158.107951 
L 464.039422 152.000643 
L 467.509296 137.328587 
L 470.979171 129.478759 
L 474.449045 118.596713 
L 477.91892 121.428719 
L 481.388794 111.754268 
L 484.858668 122.165041 
L 488.328543 135.464624 
L 491.798417 119.500757 
L 495.268291 130.22895 
L 498.738166 143.516256 
L 502.20804 153.771583 
L 505.677915 157.852634 
L 509.147789 151.49162 
L 512.617663 167.119808 
L 516.087538 162.387376 
L 519.557412 160.959971 
L 523.027286 168.751918 
L 526.497161 170.191941 
L 529.967035 156.691454 
L 533.43691 156.749915 
L 536.906784 148.425734 
L 540.376658 162.842774 
L 543.846533 167.475064 
L 547.316407 160.394051 
L 550.786281 160.493234 
L 554.256156 159.831696 
L 557.72603 161.288133 
L 561.195905 130.652211 
L 564.665779 130.554172 
L 568.135653 117.428942 
L 571.605528 116.228428 
L 575.075402 118.799818 
L 578.545276 133.627319 
L 582.015151 129.392697 
L 585.485025 142.231645 
L 588.954899 159.031403 
L 592.424774 150.278608 
L 595.894648 157.03376 
L 599.364523 162.04341 
L 602.834397 164.937119 
L 606.304271 175.192446 
L 609.774146 182.447811 
L 613.24402 185.65815 
L 616.713894 181.311446 
L 620.183769 182.938935 
L 623.653643 180.167848 
L 627.123518 166.412346 
L 630.593392 187.503876 
L 634.063266 192.823397 
L 637.533141 191.104398 
L 641.003015 176.432342 
L 644.472889 172.596489 
L 647.942764 175.739459 
L 651.412638 170.947473 
L 654.882513 176.280756 
L 658.352387 166.291083 
L 661.822261 162.758888 
L 665.292136 171.083068 
L 668.76201 172.292121 
L 672.231884 175.488638 
L 675.701759 174.667195 
L 679.171633 170.250466 
L 682.641508 168.071739 
L 686.111382 186.24397 
L 689.581256 178.640696 
L 693.051131 183.486682 
L 696.521005 169.97383 
L 699.990879 193.392841 
L 703.460754 197.57729 
L 706.930628 196.741398 
L 710.400503 198.867715 
L 713.870377 197.901765 
L 717.340251 181.446775 
L 720.810126 183.990817 
L 724.28 188.407546 
L 724.28 188.407546 
" style="fill:none;stroke:#ff7f0e;stroke-linecap:square;stroke-width:1.5;"/>
   </g>
   <g id="line2d_17">
    <path clip-path="url(#p6a501dd77f)" d="M 169.100101 332.13012 
L 172.569975 333.9997 
L 176.039849 332.198612 
L 179.509724 329.027182 
L 182.979598 331.134395 
L 186.449472 319.872761 
L 189.919347 327.28746 
L 193.389221 340.332028 
L 196.859095 342.947669 
L 200.32897 351.200251 
L 203.798844 355.380872 
L 207.268719 368.011219 
L 210.738593 369.474136 
L 214.208467 366.985951 
L 217.678342 355.309706 
L 221.148216 348.600396 
L 224.61809 350.80876 
L 228.087965 363.528917 
L 231.557839 365.449318 
L 235.027714 361.515426 
L 238.497588 355.876772 
L 241.967462 352.040919 
L 245.437337 343.41308 
L 248.907211 327.49861 
L 252.377085 330.721567 
L 255.84696 334.309035 
L 259.316834 318.328222 
L 262.786709 329.719914 
L 266.256583 328.428103 
L 269.726457 322.457554 
L 273.196332 321.5347 
L 276.666206 311.717284 
L 280.13608 315.078311 
L 283.605955 298.554057 
L 287.075829 300.387165 
L 290.545704 298.713165 
L 294.015578 299.843625 
L 297.485452 302.887881 
L 300.955327 313.9791 
L 304.425201 304.814158 
L 307.895075 307.128572 
L 311.36495 310.967532 
L 314.834824 306.862945 
L 318.304698 308.339811 
L 321.774573 302.619157 
L 325.244447 317.198859 
L 328.714322 317.198859 
L 332.184196 321.293496 
L 335.65407 323.07643 
L 339.123945 315.572679 
L 342.593819 312.292316 
L 346.063693 305.45117 
L 349.533568 297.073631 
L 353.003442 297.480908 
L 356.473317 295.408138 
L 359.943191 304.106001 
L 363.413065 299.314016 
L 366.88294 284.729819 
L 370.352814 282.852766 
L 373.822688 292.732836 
L 377.292563 294.111132 
L 380.762437 302.508557 
L 384.232312 298.216785 
L 387.702186 302.869622 
L 391.17206 296.14649 
L 394.641935 297.486602 
L 398.111809 309.355832 
L 401.581683 309.082019 
L 405.051558 306.456199 
L 408.521432 307.946929 
L 411.991307 311.101367 
L 415.461181 322.619597 
L 418.931055 320.258972 
L 422.40093 327.94645 
L 425.870804 329.76173 
L 429.340678 322.943486 
L 432.810553 319.240008 
L 436.280427 308.751714 
L 439.750302 308.832376 
L 443.220176 314.825887 
L 446.69005 308.644482 
L 450.159925 298.599876 
L 453.629799 313.258346 
L 457.099673 316.670152 
L 460.569548 328.053337 
L 464.039422 311.057163 
L 467.509296 296.385107 
L 470.979171 282.198563 
L 474.449045 279.36348 
L 477.91892 282.968286 
L 481.388794 282.412797 
L 484.858668 286.252024 
L 488.328543 293.240143 
L 491.798417 299.865237 
L 495.268291 310.783695 
L 498.738166 312.08783 
L 502.20804 310.680152 
L 505.677915 320.550405 
L 509.147789 313.186724 
L 512.617663 300.387354 
L 516.087538 303.495051 
L 519.557412 297.076221 
L 523.027286 304.868168 
L 526.497161 305.016381 
L 529.967035 298.516244 
L 533.43691 295.627821 
L 536.906784 283.606331 
L 540.376658 277.988883 
L 543.846533 291.08559 
L 547.316407 293.031186 
L 550.786281 300.686208 
L 554.256156 292.79311 
L 557.72603 287.453873 
L 561.195905 279.823544 
L 564.665779 281.785657 
L 568.135653 294.504364 
L 571.605528 298.949298 
L 575.075402 309.993082 
L 578.545276 310.148527 
L 582.015151 302.326436 
L 585.485025 302.290025 
L 588.954899 307.306537 
L 592.424774 292.740734 
L 595.894648 281.642521 
L 599.364523 285.735617 
L 602.834397 287.285709 
L 606.304271 309.513605 
L 609.774146 320.777081 
L 613.24402 320.874972 
L 616.713894 323.927386 
L 620.183769 325.950106 
L 623.653643 327.542202 
L 627.123518 332.561855 
L 630.593392 325.781316 
L 634.063266 329.017429 
L 637.533141 324.609545 
L 641.003015 333.017572 
L 644.472889 332.225975 
L 647.942764 350.041001 
L 651.412638 351.087614 
L 654.882513 344.448329 
L 658.352387 341.052966 
L 661.822261 344.18863 
L 665.292136 342.051864 
L 668.76201 351.307879 
L 672.231884 350.300619 
L 679.171633 348.615285 
L 682.641508 339.52596 
L 686.111382 347.442864 
L 689.581256 340.330713 
L 693.051131 345.1767 
L 696.521005 338.459522 
L 699.990879 346.876158 
L 703.460754 347.708644 
L 706.930628 342.733241 
L 710.400503 343.943004 
L 713.870377 334.50466 
L 717.340251 319.325591 
L 720.810126 322.537802 
L 724.28 334.594217 
L 724.28 334.594217 
" style="fill:none;stroke:#2ca02c;stroke-linecap:square;stroke-width:1.5;"/>
   </g>
   <g id="line2d_18">
    <path clip-path="url(#p6a501dd77f)" d="M 169.100101 345.883392 
L 172.569975 352.994432 
L 176.039849 345.077528 
L 179.509724 351.895772 
L 182.979598 354.002985 
L 186.449472 348.65551 
L 189.919347 355.33 
L 193.389221 351.829825 
L 196.859095 362.492429 
L 200.32897 357.616227 
L 203.798844 346.06909 
L 207.268719 356.708737 
L 210.738593 358.543776 
L 214.208467 356.055592 
L 217.678342 342.649959 
L 221.148216 327.758092 
L 224.61809 311.794226 
L 228.087965 317.514032 
L 231.557839 316.309515 
L 235.027714 309.211126 
L 238.497588 300.757641 
L 241.967462 292.796792 
L 245.437337 279.1493 
L 248.907211 263.932517 
L 252.377085 253.399972 
L 255.84696 246.732113 
L 259.316834 238.923219 
L 262.786709 247.851531 
L 266.256583 246.559721 
L 269.726457 234.006277 
L 273.196332 238.055641 
L 276.666206 236.15513 
L 280.13608 239.060237 
L 283.605955 237.20804 
L 287.075829 242.050199 
L 294.015578 238.807171 
L 297.485452 235.697606 
L 300.955327 237.024621 
L 304.425201 230.889487 
L 307.895075 243.375381 
L 311.36495 233.564852 
L 318.304698 237.52422 
L 321.774573 229.293675 
L 325.244447 246.2118 
L 328.714322 240.248245 
L 332.184196 252.514802 
L 335.65407 250.667502 
L 339.123945 259.452658 
L 342.593819 262.371957 
L 346.063693 250.249849 
L 349.533568 241.87231 
L 353.003442 241.568652 
L 356.473317 245.224272 
L 359.943191 247.432637 
L 363.413065 265.810487 
L 366.88294 258.475026 
L 370.352814 258.720223 
L 373.822688 262.86564 
L 377.292563 263.958224 
L 380.762437 278.919424 
L 384.232312 279.647305 
L 387.702186 283.298797 
L 391.17206 297.331517 
L 394.641935 305.568404 
L 398.111809 310.696068 
L 401.581683 319.703879 
L 405.051558 321.331368 
L 408.521432 335.732111 
L 411.991307 333.914331 
L 415.461181 334.96648 
L 418.931055 331.260686 
L 422.40093 338.136078 
L 425.870804 330.678278 
L 429.340678 334.696237 
L 432.810553 325.28422 
L 436.280427 331.482291 
L 439.750302 328.95582 
L 443.220176 321.664196 
L 446.69005 317.175869 
L 450.159925 318.919225 
L 453.629799 322.741492 
L 457.099673 310.850191 
L 460.569548 328.243443 
L 464.039422 322.136134 
L 467.509296 323.427945 
L 470.979171 300.906061 
L 477.91892 284.299781 
L 481.388794 290.589197 
L 484.858668 298.727239 
L 488.328543 304.771456 
L 491.798417 306.398945 
L 495.268291 316.82348 
L 498.738166 330.110786 
L 502.20804 316.149664 
L 505.677915 325.771531 
L 509.147789 319.410518 
L 512.617663 315.510299 
L 516.087538 312.459649 
L 519.557412 310.076112 
L 523.027286 317.868059 
L 526.497161 312.275712 
L 529.967035 305.807596 
L 533.43691 312.589188 
L 536.906784 303.728691 
L 540.376658 299.262566 
L 543.846533 301.906302 
L 547.316407 298.816588 
L 550.786281 308.916082 
L 554.256156 304.800881 
L 557.72603 302.733098 
L 561.195905 281.242799 
L 564.665779 289.468941 
L 568.135653 291.351445 
L 571.605528 295.796379 
L 575.075402 300.724346 
L 578.545276 306.406224 
L 582.015151 308.926754 
L 585.485025 306.789988 
L 588.954899 308.426567 
L 592.424774 304.696966 
L 595.894648 307.821885 
L 599.364523 306.206442 
L 602.834397 297.683071 
L 606.304271 303.9471 
L 609.774146 318.874172 
L 613.24402 319.986655 
L 616.713894 328.684518 
L 620.183769 333.626537 
L 623.653643 338.191479 
L 627.123518 344.155034 
L 630.593392 343.083034 
L 634.063266 342.867615 
L 637.533141 341.148616 
L 641.003015 357.112483 
L 644.472889 356.320885 
L 647.942764 374.135911 
L 651.412638 375.182524 
L 654.882513 384.834498 
L 658.352387 376.511891 
L 661.822261 372.979696 
L 665.292136 379.095512 
L 668.76201 386.316762 
L 672.231884 378.42206 
L 675.701759 380.345297 
L 679.171633 378.847867 
L 682.641508 369.113301 
L 686.111382 366.357422 
L 689.581256 364.717703 
L 693.051131 368.334971 
L 696.521005 363.066726 
L 699.990879 369.958893 
L 703.460754 370.741205 
L 706.930628 365.765802 
L 710.400503 366.975565 
L 713.870377 357.537222 
L 717.340251 342.358152 
L 720.810126 345.483071 
L 724.28 357.539486 
L 724.28 357.539486 
" style="fill:none;stroke:#d62728;stroke-linecap:square;stroke-width:1.5;"/>
   </g>
   <g id="line2d_19">
    <path clip-path="url(#p6a501dd77f)" d="M 169.100101 318.626246 
L 172.569975 317.413106 
L 176.039849 316.832231 
L 179.509724 318.52281 
L 182.979598 329.59354 
L 186.449472 314.120797 
L 189.919347 315.667623 
L 193.389221 315.667623 
L 196.859095 326.330227 
L 200.32897 322.483629 
L 203.798844 320.073976 
L 207.268719 327.181429 
L 210.738593 338.297162 
L 214.208467 329.245751 
L 217.678342 315.952798 
L 221.148216 299.988931 
L 224.61809 299.988931 
L 228.087965 303.435894 
L 231.557839 302.72496 
L 235.027714 292.876909 
L 238.497588 289.703349 
L 241.967462 280.836875 
L 245.437337 269.509548 
L 248.907211 253.595078 
L 252.377085 249.60378 
L 255.84696 251.563759 
L 259.316834 242.127377 
L 262.786709 247.28986 
L 266.256583 258.461741 
L 269.726457 240.780634 
L 273.196332 242.416607 
L 276.666206 233.343488 
L 280.13608 242.743037 
L 283.605955 242.18265 
L 287.075829 238.386873 
L 290.545704 236.712873 
L 294.015578 246.560923 
L 297.485452 249.697533 
L 300.955327 254.163659 
L 304.425201 253.809973 
L 307.895075 257.971686 
L 311.36495 246.721135 
L 314.834824 248.241241 
L 318.304698 252.617555 
L 321.774573 253.585086 
L 325.244447 268.875722 
L 328.714322 270.551853 
L 332.184196 264.646179 
L 335.65407 259.298704 
L 339.123945 261.49925 
L 342.593819 259.78201 
L 346.063693 260.091248 
L 349.533568 242.568085 
L 353.003442 247.392091 
L 356.473317 251.851586 
L 359.943191 266.032518 
L 363.413065 256.693745 
L 366.88294 245.595532 
L 370.352814 244.873603 
L 373.822688 258.557507 
L 377.292563 260.674298 
L 380.762437 275.469122 
L 384.232312 283.641042 
L 387.702186 280.95785 
L 391.17206 281.82423 
L 394.641935 285.237112 
L 398.111809 294.200629 
L 401.581683 296.583347 
L 405.051558 292.647139 
L 408.521432 312.536611 
L 411.991307 307.774145 
L 415.461181 309.271575 
L 418.931055 304.47959 
L 422.40093 326.027039 
L 425.870804 322.790446 
L 429.340678 322.01642 
L 432.810553 311.953502 
L 436.280427 322.244572 
L 439.750302 314.278272 
L 443.220176 302.932259 
L 446.69005 312.476652 
L 450.159925 316.312505 
L 453.629799 318.525541 
L 457.099673 305.703495 
L 460.569548 298.51568 
L 464.039422 289.708883 
L 467.509296 275.036827 
L 474.449045 282.524147 
L 477.91892 283.19499 
L 481.388794 298.275664 
L 484.858668 297.514555 
L 488.328543 297.058636 
L 491.798417 299.267 
L 495.268291 312.472957 
L 498.738166 317.920134 
L 505.677915 326.212294 
L 509.147789 324.966425 
L 512.617663 314.37542 
L 516.087538 312.071163 
L 519.557412 303.087919 
L 523.027286 307.15988 
L 526.497161 317.745526 
L 529.967035 313.078498 
L 533.43691 319.89211 
L 536.906784 302.604413 
L 540.376658 297.624488 
L 543.846533 308.808626 
L 547.316407 301.727614 
L 550.786281 301.826797 
L 554.256156 297.266314 
L 557.72603 300.595438 
L 561.195905 272.002336 
L 564.665779 278.093358 
L 568.135653 286.640534 
L 571.605528 289.856748 
L 575.075402 289.30322 
L 578.545276 296.491036 
L 582.015151 297.473829 
L 585.485025 284.679561 
L 588.954899 295.167855 
L 592.424774 293.643078 
L 595.894648 295.981501 
L 599.364523 300.592382 
L 602.834397 300.024072 
L 606.304271 316.862293 
L 609.774146 320.362468 
L 613.24402 314.484333 
L 616.713894 305.361534 
L 620.183769 308.453091 
L 623.653643 313.237844 
L 627.123518 324.409725 
L 630.593392 321.129361 
L 634.063266 321.321218 
L 637.533141 325.470092 
L 641.003015 335.014484 
L 644.472889 331.178631 
L 647.942764 336.723115 
L 651.412638 333.488594 
L 654.882513 331.976972 
L 658.352387 321.987299 
L 661.822261 330.583117 
L 665.292136 311.589443 
L 668.76201 312.798496 
L 672.231884 309.239861 
L 675.701759 319.254621 
L 679.171633 322.68772 
L 682.641508 315.749353 
L 686.111382 315.168477 
L 689.581256 319.537771 
L 693.051131 319.654863 
L 696.521005 306.575727 
L 699.990879 320.61589 
L 703.460754 325.741686 
L 706.930628 311.861227 
L 710.400503 308.013351 
L 713.870377 295.500263 
L 717.340251 286.684959 
L 720.810126 283.456097 
L 724.28 300.461474 
L 724.28 300.461474 
" style="fill:none;stroke:#9467bd;stroke-linecap:square;stroke-width:1.5;"/>
   </g>
   <g id="line2d_20">
    <path clip-path="url(#p6a501dd77f)" d="M 169.100101 320.194939 
L 172.569975 318.981799 
L 176.039849 325.666926 
L 179.509724 333.509734 
L 182.979598 321.861445 
L 186.449472 311.344108 
L 189.919347 312.179999 
L 193.389221 312.179999 
L 196.859095 306.878737 
L 200.32897 292.135082 
L 203.798844 289.005448 
L 207.268719 296.112901 
L 210.738593 306.525205 
L 214.208467 299.427142 
L 217.678342 296.302223 
L 221.148216 287.183261 
L 224.61809 287.183261 
L 228.087965 290.421978 
L 231.557839 288.948061 
L 235.027714 281.964219 
L 238.497588 274.102247 
L 241.967462 265.849665 
L 245.437337 260.180704 
L 248.907211 244.266233 
L 252.377085 251.194985 
L 255.84696 253.154964 
L 259.316834 253.236313 
L 262.786709 240.992433 
L 266.256583 252.164314 
L 269.726457 252.655437 
L 273.196332 254.877388 
L 276.666206 236.970811 
L 280.13608 238.405149 
L 283.605955 219.672531 
L 287.075829 225.126055 
L 290.545704 232.415571 
L 294.015578 249.018774 
L 297.485452 247.342643 
L 300.955327 251.615619 
L 304.425201 253.263192 
L 307.895075 257.424906 
L 311.36495 262.13822 
L 314.834824 255.966893 
L 318.304698 253.606312 
L 321.774573 263.53736 
L 325.244447 275.745277 
L 328.714322 272.701021 
L 332.184196 284.967578 
L 335.65407 299.084145 
L 339.123945 318.635479 
L 342.593819 319.571884 
L 346.063693 319.241786 
L 349.533568 302.817284 
L 353.003442 299.233263 
L 356.473317 297.024898 
L 359.943191 301.441627 
L 363.413065 292.102854 
L 366.88294 283.155598 
L 370.352814 280.638217 
L 373.822688 291.384668 
L 377.292563 291.079347 
L 380.762437 306.176833 
L 384.232312 307.218345 
L 387.702186 304.535153 
L 391.17206 301.106577 
L 394.641935 308.051654 
L 398.111809 317.015171 
L 401.581683 332.031995 
L 405.051558 324.115091 
L 408.521432 318.496304 
L 411.991307 318.31829 
L 415.461181 328.984856 
L 418.931055 323.327843 
L 422.40093 344.875292 
L 425.870804 335.889573 
L 429.340678 320.107813 
L 432.810553 318.367502 
L 436.280427 324.146732 
L 439.750302 316.373582 
L 443.220176 315.250876 
L 446.69005 327.714567 
L 450.159925 325.130947 
L 453.629799 328.953213 
L 457.099673 330.742766 
L 460.569548 328.682614 
L 464.039422 323.711671 
L 467.509296 309.039615 
L 470.979171 310.52856 
L 474.449045 306.982543 
L 477.91892 293.850682 
L 481.388794 300.140097 
L 484.858668 300.018325 
L 488.328543 307.47931 
L 491.798417 313.678973 
L 495.268291 316.767479 
L 498.738166 328.91842 
L 502.20804 324.501691 
L 505.677915 341.627309 
L 509.147789 343.867473 
L 512.617663 334.193022 
L 516.087538 326.771704 
L 519.557412 323.539764 
L 523.027286 331.331711 
L 526.497161 332.771734 
L 529.967035 324.604531 
L 533.43691 334.886298 
L 536.906784 325.452414 
L 540.376658 311.933019 
L 543.846533 316.565309 
L 547.316407 320.320499 
L 550.786281 313.751823 
L 554.256156 305.974068 
L 557.72603 308.167519 
L 561.195905 287.075989 
L 564.665779 295.605789 
L 568.135653 311.824671 
L 571.605528 306.452625 
L 575.075402 304.920916 
L 578.545276 316.248243 
L 582.015151 306.541189 
L 585.485025 295.008243 
L 588.954899 298.508418 
L 592.424774 304.427678 
L 595.894648 304.599936 
L 599.364523 294.93753 
L 602.834397 285.858671 
L 606.304271 301.636893 
L 609.774146 304.844569 
L 613.24402 297.218705 
L 616.713894 311.044232 
L 620.183769 312.671721 
L 627.123518 325.994559 
L 630.593392 333.330587 
L 634.063266 328.117563 
L 637.533141 322.49962 
L 641.003015 340.671851 
L 644.472889 323.79143 
L 647.942764 317.907792 
L 651.412638 323.371134 
L 654.882513 346.876648 
L 658.352387 336.263333 
L 661.822261 350.903369 
L 665.292136 352.2272 
L 668.76201 362.520009 
L 672.231884 351.961024 
L 675.701759 350.621797 
L 679.171633 355.969272 
L 682.641508 361.973102 
L 686.111382 367.100765 
L 689.581256 375.461358 
L 693.051131 384.168584 
L 696.521005 375.298513 
L 699.990879 384.644602 
L 703.460754 386.956364 
L 706.930628 383.420984 
L 710.400503 384.452626 
L 713.870377 376.042637 
L 717.340251 376.132389 
L 720.810126 376.593024 
L 724.28 372.162104 
L 724.28 372.162104 
" style="fill:none;stroke:#8c564b;stroke-linecap:square;stroke-width:1.5;"/>
   </g>
   <g id="patch_3">
    <path d="M 33.775 404.12 
L 33.775 26.52 
" style="fill:none;stroke:#000000;stroke-linecap:square;stroke-linejoin:miter;stroke-width:0.8;"/>
   </g>
   <g id="patch_4">
    <path d="M 724.28 404.12 
L 724.28 26.52 
" style="fill:none;stroke:#000000;stroke-linecap:square;stroke-linejoin:miter;stroke-width:0.8;"/>
   </g>
   <g id="patch_5">
    <path d="M 33.775 404.12 
L 724.28 404.12 
" style="fill:none;stroke:#000000;stroke-linecap:square;stroke-linejoin:miter;stroke-width:0.8;"/>
   </g>
   <g id="patch_6">
    <path d="M 33.775 26.52 
L 724.28 26.52 
" style="fill:none;stroke:#000000;stroke-linecap:square;stroke-linejoin:miter;stroke-width:0.8;"/>
   </g>
   <g id="text_15">
    <!-- gridworld_5x5_1_1_200_1337: episode duration in steps log-relative to `htm_0`, MA=40 -->
    <defs>
     <path d="M 45.40625 27.984375 
Q 45.40625 37.75 41.375 43.109375 
Q 37.359375 48.484375 30.078125 48.484375 
Q 22.859375 48.484375 18.828125 43.109375 
Q 14.796875 37.75 14.796875 27.984375 
Q 14.796875 18.265625 18.828125 12.890625 
Q 22.859375 7.515625 30.078125 7.515625 
Q 37.359375 7.515625 41.375 12.890625 
Q 45.40625 18.265625 45.40625 27.984375 
z
M 54.390625 6.78125 
Q 54.390625 -7.171875 48.1875 -13.984375 
Q 42 -20.796875 29.203125 -20.796875 
Q 24.46875 -20.796875 20.265625 -20.09375 
Q 16.0625 -19.390625 12.109375 -17.921875 
L 12.109375 -9.1875 
Q 16.0625 -11.328125 19.921875 -12.34375 
Q 23.78125 -13.375 27.78125 -13.375 
Q 36.625 -13.375 41.015625 -8.765625 
Q 45.40625 -4.15625 45.40625 5.171875 
L 45.40625 9.625 
Q 42.625 4.78125 38.28125 2.390625 
Q 33.9375 0 27.875 0 
Q 17.828125 0 11.671875 7.65625 
Q 5.515625 15.328125 5.515625 27.984375 
Q 5.515625 40.671875 11.671875 48.328125 
Q 17.828125 56 27.875 56 
Q 33.9375 56 38.28125 53.609375 
Q 42.625 51.21875 45.40625 46.390625 
L 45.40625 54.6875 
L 54.390625 54.6875 
z
" id="DejaVuSans-103"/>
     <path d="M 41.109375 46.296875 
Q 39.59375 47.171875 37.8125 47.578125 
Q 36.03125 48 33.890625 48 
Q 26.265625 48 22.1875 43.046875 
Q 18.109375 38.09375 18.109375 28.8125 
L 18.109375 0 
L 9.078125 0 
L 9.078125 54.6875 
L 18.109375 54.6875 
L 18.109375 46.1875 
Q 20.953125 51.171875 25.484375 53.578125 
Q 30.03125 56 36.53125 56 
Q 37.453125 56 38.578125 55.875 
Q 39.703125 55.765625 41.0625 55.515625 
z
" id="DejaVuSans-114"/>
     <path d="M 9.421875 54.6875 
L 18.40625 54.6875 
L 18.40625 0 
L 9.421875 0 
z
M 9.421875 75.984375 
L 18.40625 75.984375 
L 18.40625 64.59375 
L 9.421875 64.59375 
z
" id="DejaVuSans-105"/>
     <path d="M 45.40625 46.390625 
L 45.40625 75.984375 
L 54.390625 75.984375 
L 54.390625 0 
L 45.40625 0 
L 45.40625 8.203125 
Q 42.578125 3.328125 38.25 0.953125 
Q 33.9375 -1.421875 27.875 -1.421875 
Q 17.96875 -1.421875 11.734375 6.484375 
Q 5.515625 14.40625 5.515625 27.296875 
Q 5.515625 40.1875 11.734375 48.09375 
Q 17.96875 56 27.875 56 
Q 33.9375 56 38.25 53.625 
Q 42.578125 51.265625 45.40625 46.390625 
z
M 14.796875 27.296875 
Q 14.796875 17.390625 18.875 11.75 
Q 22.953125 6.109375 30.078125 6.109375 
Q 37.203125 6.109375 41.296875 11.75 
Q 45.40625 17.390625 45.40625 27.296875 
Q 45.40625 37.203125 41.296875 42.84375 
Q 37.203125 48.484375 30.078125 48.484375 
Q 22.953125 48.484375 18.875 42.84375 
Q 14.796875 37.203125 14.796875 27.296875 
z
" id="DejaVuSans-100"/>
     <path d="M 4.203125 54.6875 
L 13.1875 54.6875 
L 24.421875 12.015625 
L 35.59375 54.6875 
L 46.1875 54.6875 
L 57.421875 12.015625 
L 68.609375 54.6875 
L 77.59375 54.6875 
L 63.28125 0 
L 52.6875 0 
L 40.921875 44.828125 
L 29.109375 0 
L 18.5 0 
z
" id="DejaVuSans-119"/>
     <path d="M 30.609375 48.390625 
Q 23.390625 48.390625 19.1875 42.75 
Q 14.984375 37.109375 14.984375 27.296875 
Q 14.984375 17.484375 19.15625 11.84375 
Q 23.34375 6.203125 30.609375 6.203125 
Q 37.796875 6.203125 41.984375 11.859375 
Q 46.1875 17.53125 46.1875 27.296875 
Q 46.1875 37.015625 41.984375 42.703125 
Q 37.796875 48.390625 30.609375 48.390625 
z
M 30.609375 56 
Q 42.328125 56 49.015625 48.375 
Q 55.71875 40.765625 55.71875 27.296875 
Q 55.71875 13.875 49.015625 6.21875 
Q 42.328125 -1.421875 30.609375 -1.421875 
Q 18.84375 -1.421875 12.171875 6.21875 
Q 5.515625 13.875 5.515625 27.296875 
Q 5.515625 40.765625 12.171875 48.375 
Q 18.84375 56 30.609375 56 
z
" id="DejaVuSans-111"/>
     <path d="M 9.421875 75.984375 
L 18.40625 75.984375 
L 18.40625 0 
L 9.421875 0 
z
" id="DejaVuSans-108"/>
     <path d="M 50.984375 -16.609375 
L 50.984375 -23.578125 
L -0.984375 -23.578125 
L -0.984375 -16.609375 
z
" id="DejaVuSans-95"/>
     <path d="M 54.890625 54.6875 
L 35.109375 28.078125 
L 55.90625 0 
L 45.3125 0 
L 29.390625 21.484375 
L 13.484375 0 
L 2.875 0 
L 24.125 28.609375 
L 4.6875 54.6875 
L 15.28125 54.6875 
L 29.78125 35.203125 
L 44.28125 54.6875 
z
" id="DejaVuSans-120"/>
     <path d="M 40.578125 39.3125 
Q 47.65625 37.796875 51.625 33 
Q 55.609375 28.21875 55.609375 21.1875 
Q 55.609375 10.40625 48.1875 4.484375 
Q 40.765625 -1.421875 27.09375 -1.421875 
Q 22.515625 -1.421875 17.65625 -0.515625 
Q 12.796875 0.390625 7.625 2.203125 
L 7.625 11.71875 
Q 11.71875 9.328125 16.59375 8.109375 
Q 21.484375 6.890625 26.8125 6.890625 
Q 36.078125 6.890625 40.9375 10.546875 
Q 45.796875 14.203125 45.796875 21.1875 
Q 45.796875 27.640625 41.28125 31.265625 
Q 36.765625 34.90625 28.71875 34.90625 
L 20.21875 34.90625 
L 20.21875 43.015625 
L 29.109375 43.015625 
Q 36.375 43.015625 40.234375 45.921875 
Q 44.09375 48.828125 44.09375 54.296875 
Q 44.09375 59.90625 40.109375 62.90625 
Q 36.140625 65.921875 28.71875 65.921875 
Q 24.65625 65.921875 20.015625 65.03125 
Q 15.375 64.15625 9.8125 62.3125 
L 9.8125 71.09375 
Q 15.4375 72.65625 20.34375 73.4375 
Q 25.25 74.21875 29.59375 74.21875 
Q 40.828125 74.21875 47.359375 69.109375 
Q 53.90625 64.015625 53.90625 55.328125 
Q 53.90625 49.265625 50.4375 45.09375 
Q 46.96875 40.921875 40.578125 39.3125 
z
" id="DejaVuSans-51"/>
     <path d="M 11.71875 12.40625 
L 22.015625 12.40625 
L 22.015625 0 
L 11.71875 0 
z
M 11.71875 51.703125 
L 22.015625 51.703125 
L 22.015625 39.3125 
L 11.71875 39.3125 
z
" id="DejaVuSans-58"/>
     <path id="DejaVuSans-32"/>
     <path d="M 56.203125 29.59375 
L 56.203125 25.203125 
L 14.890625 25.203125 
Q 15.484375 15.921875 20.484375 11.0625 
Q 25.484375 6.203125 34.421875 6.203125 
Q 39.59375 6.203125 44.453125 7.46875 
Q 49.3125 8.734375 54.109375 11.28125 
L 54.109375 2.78125 
Q 49.265625 0.734375 44.1875 -0.34375 
Q 39.109375 -1.421875 33.890625 -1.421875 
Q 20.796875 -1.421875 13.15625 6.1875 
Q 5.515625 13.8125 5.515625 26.8125 
Q 5.515625 40.234375 12.765625 48.109375 
Q 20.015625 56 32.328125 56 
Q 43.359375 56 49.78125 48.890625 
Q 56.203125 41.796875 56.203125 29.59375 
z
M 47.21875 32.234375 
Q 47.125 39.59375 43.09375 43.984375 
Q 39.0625 48.390625 32.421875 48.390625 
Q 24.90625 48.390625 20.390625 44.140625 
Q 15.875 39.890625 15.1875 32.171875 
z
" id="DejaVuSans-101"/>
     <path d="M 18.109375 8.203125 
L 18.109375 -20.796875 
L 9.078125 -20.796875 
L 9.078125 54.6875 
L 18.109375 54.6875 
L 18.109375 46.390625 
Q 20.953125 51.265625 25.265625 53.625 
Q 29.59375 56 35.59375 56 
Q 45.5625 56 51.78125 48.09375 
Q 58.015625 40.1875 58.015625 27.296875 
Q 58.015625 14.40625 51.78125 6.484375 
Q 45.5625 -1.421875 35.59375 -1.421875 
Q 29.59375 -1.421875 25.265625 0.953125 
Q 20.953125 3.328125 18.109375 8.203125 
z
M 48.6875 27.296875 
Q 48.6875 37.203125 44.609375 42.84375 
Q 40.53125 48.484375 33.40625 48.484375 
Q 26.265625 48.484375 22.1875 42.84375 
Q 18.109375 37.203125 18.109375 27.296875 
Q 18.109375 17.390625 22.1875 11.75 
Q 26.265625 6.109375 33.40625 6.109375 
Q 40.53125 6.109375 44.609375 11.75 
Q 48.6875 17.390625 48.6875 27.296875 
z
" id="DejaVuSans-112"/>
     <path d="M 44.28125 53.078125 
L 44.28125 44.578125 
Q 40.484375 46.53125 36.375 47.5 
Q 32.28125 48.484375 27.875 48.484375 
Q 21.1875 48.484375 17.84375 46.4375 
Q 14.5 44.390625 14.5 40.28125 
Q 14.5 37.15625 16.890625 35.375 
Q 19.28125 33.59375 26.515625 31.984375 
L 29.59375 31.296875 
Q 39.15625 29.25 43.1875 25.515625 
Q 47.21875 21.78125 47.21875 15.09375 
Q 47.21875 7.46875 41.1875 3.015625 
Q 35.15625 -1.421875 24.609375 -1.421875 
Q 20.21875 -1.421875 15.453125 -0.5625 
Q 10.6875 0.296875 5.421875 2 
L 5.421875 11.28125 
Q 10.40625 8.6875 15.234375 7.390625 
Q 20.0625 6.109375 24.8125 6.109375 
Q 31.15625 6.109375 34.5625 8.28125 
Q 37.984375 10.453125 37.984375 14.40625 
Q 37.984375 18.0625 35.515625 20.015625 
Q 33.0625 21.96875 24.703125 23.78125 
L 21.578125 24.515625 
Q 13.234375 26.265625 9.515625 29.90625 
Q 5.8125 33.546875 5.8125 39.890625 
Q 5.8125 47.609375 11.28125 51.796875 
Q 16.75 56 26.8125 56 
Q 31.78125 56 36.171875 55.265625 
Q 40.578125 54.546875 44.28125 53.078125 
z
" id="DejaVuSans-115"/>
     <path d="M 8.5 21.578125 
L 8.5 54.6875 
L 17.484375 54.6875 
L 17.484375 21.921875 
Q 17.484375 14.15625 20.5 10.265625 
Q 23.53125 6.390625 29.59375 6.390625 
Q 36.859375 6.390625 41.078125 11.03125 
Q 45.3125 15.671875 45.3125 23.6875 
L 45.3125 54.6875 
L 54.296875 54.6875 
L 54.296875 0 
L 45.3125 0 
L 45.3125 8.40625 
Q 42.046875 3.421875 37.71875 1 
Q 33.40625 -1.421875 27.6875 -1.421875 
Q 18.265625 -1.421875 13.375 4.4375 
Q 8.5 10.296875 8.5 21.578125 
z
M 31.109375 56 
z
" id="DejaVuSans-117"/>
     <path d="M 34.28125 27.484375 
Q 23.390625 27.484375 19.1875 25 
Q 14.984375 22.515625 14.984375 16.5 
Q 14.984375 11.71875 18.140625 8.90625 
Q 21.296875 6.109375 26.703125 6.109375 
Q 34.1875 6.109375 38.703125 11.40625 
Q 43.21875 16.703125 43.21875 25.484375 
L 43.21875 27.484375 
z
M 52.203125 31.203125 
L 52.203125 0 
L 43.21875 0 
L 43.21875 8.296875 
Q 40.140625 3.328125 35.546875 0.953125 
Q 30.953125 -1.421875 24.3125 -1.421875 
Q 15.921875 -1.421875 10.953125 3.296875 
Q 6 8.015625 6 15.921875 
Q 6 25.140625 12.171875 29.828125 
Q 18.359375 34.515625 30.609375 34.515625 
L 43.21875 34.515625 
L 43.21875 35.40625 
Q 43.21875 41.609375 39.140625 45 
Q 35.0625 48.390625 27.6875 48.390625 
Q 23 48.390625 18.546875 47.265625 
Q 14.109375 46.140625 10.015625 43.890625 
L 10.015625 52.203125 
Q 14.9375 54.109375 19.578125 55.046875 
Q 24.21875 56 28.609375 56 
Q 40.484375 56 46.34375 49.84375 
Q 52.203125 43.703125 52.203125 31.203125 
z
" id="DejaVuSans-97"/>
     <path d="M 18.3125 70.21875 
L 18.3125 54.6875 
L 36.8125 54.6875 
L 36.8125 47.703125 
L 18.3125 47.703125 
L 18.3125 18.015625 
Q 18.3125 11.328125 20.140625 9.421875 
Q 21.96875 7.515625 27.59375 7.515625 
L 36.8125 7.515625 
L 36.8125 0 
L 27.59375 0 
Q 17.1875 0 13.234375 3.875 
Q 9.28125 7.765625 9.28125 18.015625 
L 9.28125 47.703125 
L 2.6875 47.703125 
L 2.6875 54.6875 
L 9.28125 54.6875 
L 9.28125 70.21875 
z
" id="DejaVuSans-116"/>
     <path d="M 54.890625 33.015625 
L 54.890625 0 
L 45.90625 0 
L 45.90625 32.71875 
Q 45.90625 40.484375 42.875 44.328125 
Q 39.84375 48.1875 33.796875 48.1875 
Q 26.515625 48.1875 22.3125 43.546875 
Q 18.109375 38.921875 18.109375 30.90625 
L 18.109375 0 
L 9.078125 0 
L 9.078125 54.6875 
L 18.109375 54.6875 
L 18.109375 46.1875 
Q 21.34375 51.125 25.703125 53.5625 
Q 30.078125 56 35.796875 56 
Q 45.21875 56 50.046875 50.171875 
Q 54.890625 44.34375 54.890625 33.015625 
z
" id="DejaVuSans-110"/>
     <path d="M 4.890625 31.390625 
L 31.203125 31.390625 
L 31.203125 23.390625 
L 4.890625 23.390625 
z
" id="DejaVuSans-45"/>
     <path d="M 2.984375 54.6875 
L 12.5 54.6875 
L 29.59375 8.796875 
L 46.6875 54.6875 
L 56.203125 54.6875 
L 35.6875 0 
L 23.484375 0 
z
" id="DejaVuSans-118"/>
     <path d="M 17.921875 79.984375 
L 31.6875 61.71875 
L 24.21875 61.71875 
L 8.296875 79.984375 
z
" id="DejaVuSans-96"/>
     <path d="M 54.890625 33.015625 
L 54.890625 0 
L 45.90625 0 
L 45.90625 32.71875 
Q 45.90625 40.484375 42.875 44.328125 
Q 39.84375 48.1875 33.796875 48.1875 
Q 26.515625 48.1875 22.3125 43.546875 
Q 18.109375 38.921875 18.109375 30.90625 
L 18.109375 0 
L 9.078125 0 
L 9.078125 75.984375 
L 18.109375 75.984375 
L 18.109375 46.1875 
Q 21.34375 51.125 25.703125 53.5625 
Q 30.078125 56 35.796875 56 
Q 45.21875 56 50.046875 50.171875 
Q 54.890625 44.34375 54.890625 33.015625 
z
" id="DejaVuSans-104"/>
     <path d="M 52 44.1875 
Q 55.375 50.25 60.0625 53.125 
Q 64.75 56 71.09375 56 
Q 79.640625 56 84.28125 50.015625 
Q 88.921875 44.046875 88.921875 33.015625 
L 88.921875 0 
L 79.890625 0 
L 79.890625 32.71875 
Q 79.890625 40.578125 77.09375 44.375 
Q 74.3125 48.1875 68.609375 48.1875 
Q 61.625 48.1875 57.5625 43.546875 
Q 53.515625 38.921875 53.515625 30.90625 
L 53.515625 0 
L 44.484375 0 
L 44.484375 32.71875 
Q 44.484375 40.625 41.703125 44.40625 
Q 38.921875 48.1875 33.109375 48.1875 
Q 26.21875 48.1875 22.15625 43.53125 
Q 18.109375 38.875 18.109375 30.90625 
L 18.109375 0 
L 9.078125 0 
L 9.078125 54.6875 
L 18.109375 54.6875 
L 18.109375 46.1875 
Q 21.1875 51.21875 25.484375 53.609375 
Q 29.78125 56 35.6875 56 
Q 41.65625 56 45.828125 52.96875 
Q 50 49.953125 52 44.1875 
z
" id="DejaVuSans-109"/>
     <path d="M 11.71875 12.40625 
L 22.015625 12.40625 
L 22.015625 4 
L 14.015625 -11.625 
L 7.71875 -11.625 
L 11.71875 4 
z
" id="DejaVuSans-44"/>
     <path d="M 9.8125 72.90625 
L 24.515625 72.90625 
L 43.109375 23.296875 
L 61.8125 72.90625 
L 76.515625 72.90625 
L 76.515625 0 
L 66.890625 0 
L 66.890625 64.015625 
L 48.09375 14.015625 
L 38.1875 14.015625 
L 19.390625 64.015625 
L 19.390625 0 
L 9.8125 0 
z
" id="DejaVuSans-77"/>
     <path d="M 34.1875 63.1875 
L 20.796875 26.90625 
L 47.609375 26.90625 
z
M 28.609375 72.90625 
L 39.796875 72.90625 
L 67.578125 0 
L 57.328125 0 
L 50.6875 18.703125 
L 17.828125 18.703125 
L 11.1875 0 
L 0.78125 0 
z
" id="DejaVuSans-65"/>
     <path d="M 10.59375 45.40625 
L 73.1875 45.40625 
L 73.1875 37.203125 
L 10.59375 37.203125 
z
M 10.59375 25.484375 
L 73.1875 25.484375 
L 73.1875 17.1875 
L 10.59375 17.1875 
z
" id="DejaVuSans-61"/>
     <path d="M 37.796875 64.3125 
L 12.890625 25.390625 
L 37.796875 25.390625 
z
M 35.203125 72.90625 
L 47.609375 72.90625 
L 47.609375 25.390625 
L 58.015625 25.390625 
L 58.015625 17.1875 
L 47.609375 17.1875 
L 47.609375 0 
L 37.796875 0 
L 37.796875 17.1875 
L 4.890625 17.1875 
L 4.890625 26.703125 
z
" id="DejaVuSans-52"/>
    </defs>
    <g transform="translate(113.882812 20.52)scale(0.12 -0.12)">
     <use xlink:href="#DejaVuSans-103"/>
     <use x="63.476562" xlink:href="#DejaVuSans-114"/>
     <use x="104.589844" xlink:href="#DejaVuSans-105"/>
     <use x="132.373047" xlink:href="#DejaVuSans-100"/>
     <use x="195.849609" xlink:href="#DejaVuSans-119"/>
     <use x="277.636719" xlink:href="#DejaVuSans-111"/>
     <use x="338.818359" xlink:href="#DejaVuSans-114"/>
     <use x="379.931641" xlink:href="#DejaVuSans-108"/>
     <use x="407.714844" xlink:href="#DejaVuSans-100"/>
     <use x="471.191406" xlink:href="#DejaVuSans-95"/>
     <use x="521.191406" xlink:href="#DejaVuSans-53"/>
     <use x="584.814453" xlink:href="#DejaVuSans-120"/>
     <use x="643.994141" xlink:href="#DejaVuSans-53"/>
     <use x="707.617188" xlink:href="#DejaVuSans-95"/>
     <use x="757.617188" xlink:href="#DejaVuSans-49"/>
     <use x="821.240234" xlink:href="#DejaVuSans-95"/>
     <use x="871.240234" xlink:href="#DejaVuSans-49"/>
     <use x="934.863281" xlink:href="#DejaVuSans-95"/>
     <use x="984.863281" xlink:href="#DejaVuSans-50"/>
     <use x="1048.486328" xlink:href="#DejaVuSans-48"/>
     <use x="1112.109375" xlink:href="#DejaVuSans-48"/>
     <use x="1175.732422" xlink:href="#DejaVuSans-95"/>
     <use x="1225.732422" xlink:href="#DejaVuSans-49"/>
     <use x="1289.355469" xlink:href="#DejaVuSans-51"/>
     <use x="1352.978516" xlink:href="#DejaVuSans-51"/>
     <use x="1416.601562" xlink:href="#DejaVuSans-55"/>
     <use x="1480.224609" xlink:href="#DejaVuSans-58"/>
     <use x="1513.916016" xlink:href="#DejaVuSans-32"/>
     <use x="1545.703125" xlink:href="#DejaVuSans-101"/>
     <use x="1607.226562" xlink:href="#DejaVuSans-112"/>
     <use x="1670.703125" xlink:href="#DejaVuSans-105"/>
     <use x="1698.486328" xlink:href="#DejaVuSans-115"/>
     <use x="1750.585938" xlink:href="#DejaVuSans-111"/>
     <use x="1811.767578" xlink:href="#DejaVuSans-100"/>
     <use x="1875.244141" xlink:href="#DejaVuSans-101"/>
     <use x="1936.767578" xlink:href="#DejaVuSans-32"/>
     <use x="1968.554688" xlink:href="#DejaVuSans-100"/>
     <use x="2032.03125" xlink:href="#DejaVuSans-117"/>
     <use x="2095.410156" xlink:href="#DejaVuSans-114"/>
     <use x="2136.523438" xlink:href="#DejaVuSans-97"/>
     <use x="2197.802734" xlink:href="#DejaVuSans-116"/>
     <use x="2237.011719" xlink:href="#DejaVuSans-105"/>
     <use x="2264.794922" xlink:href="#DejaVuSans-111"/>
     <use x="2325.976562" xlink:href="#DejaVuSans-110"/>
     <use x="2389.355469" xlink:href="#DejaVuSans-32"/>
     <use x="2421.142578" xlink:href="#DejaVuSans-105"/>
     <use x="2448.925781" xlink:href="#DejaVuSans-110"/>
     <use x="2512.304688" xlink:href="#DejaVuSans-32"/>
     <use x="2544.091797" xlink:href="#DejaVuSans-115"/>
     <use x="2596.191406" xlink:href="#DejaVuSans-116"/>
     <use x="2635.400391" xlink:href="#DejaVuSans-101"/>
     <use x="2696.923828" xlink:href="#DejaVuSans-112"/>
     <use x="2760.400391" xlink:href="#DejaVuSans-115"/>
     <use x="2812.5" xlink:href="#DejaVuSans-32"/>
     <use x="2844.287109" xlink:href="#DejaVuSans-108"/>
     <use x="2872.070312" xlink:href="#DejaVuSans-111"/>
     <use x="2933.251953" xlink:href="#DejaVuSans-103"/>
     <use x="2996.728516" xlink:href="#DejaVuSans-45"/>
     <use x="3032.8125" xlink:href="#DejaVuSans-114"/>
     <use x="3073.894531" xlink:href="#DejaVuSans-101"/>
     <use x="3135.417969" xlink:href="#DejaVuSans-108"/>
     <use x="3163.201172" xlink:href="#DejaVuSans-97"/>
     <use x="3224.480469" xlink:href="#DejaVuSans-116"/>
     <use x="3263.689453" xlink:href="#DejaVuSans-105"/>
     <use x="3291.472656" xlink:href="#DejaVuSans-118"/>
     <use x="3350.652344" xlink:href="#DejaVuSans-101"/>
     <use x="3412.175781" xlink:href="#DejaVuSans-32"/>
     <use x="3443.962891" xlink:href="#DejaVuSans-116"/>
     <use x="3483.171875" xlink:href="#DejaVuSans-111"/>
     <use x="3544.353516" xlink:href="#DejaVuSans-32"/>
     <use x="3576.140625" xlink:href="#DejaVuSans-96"/>
     <use x="3626.140625" xlink:href="#DejaVuSans-104"/>
     <use x="3689.519531" xlink:href="#DejaVuSans-116"/>
     <use x="3728.728516" xlink:href="#DejaVuSans-109"/>
     <use x="3826.140625" xlink:href="#DejaVuSans-95"/>
     <use x="3876.140625" xlink:href="#DejaVuSans-48"/>
     <use x="3939.763672" xlink:href="#DejaVuSans-96"/>
     <use x="3989.763672" xlink:href="#DejaVuSans-44"/>
     <use x="4021.550781" xlink:href="#DejaVuSans-32"/>
     <use x="4053.337891" xlink:href="#DejaVuSans-77"/>
     <use x="4139.617188" xlink:href="#DejaVuSans-65"/>
     <use x="4208.025391" xlink:href="#DejaVuSans-61"/>
     <use x="4291.814453" xlink:href="#DejaVuSans-52"/>
     <use x="4355.4375" xlink:href="#DejaVuSans-48"/>
    </g>
   </g>
   <g id="legend_1">
    <g id="patch_7">
     <path d="M 764.316937 261.68875 
L 855.381 261.68875 
Q 857.381 261.68875 857.381 259.68875 
L 857.381 170.95125 
Q 857.381 168.95125 855.381 168.95125 
L 764.316937 168.95125 
Q 762.316937 168.95125 762.316937 170.95125 
L 762.316937 259.68875 
Q 762.316937 261.68875 764.316937 261.68875 
z
" style="fill:#ffffff;opacity:0.8;stroke:#cccccc;stroke-linejoin:miter;"/>
    </g>
    <g id="line2d_21">
     <path d="M 766.316937 177.049688 
L 786.316937 177.049688 
" style="fill:none;stroke:#1f77b4;stroke-linecap:square;stroke-width:1.5;"/>
    </g>
    <g id="line2d_22"/>
    <g id="text_16">
     <!-- htm_0 -->
     <g transform="translate(794.316937 180.549688)scale(0.1 -0.1)">
      <use xlink:href="#DejaVuSans-104"/>
      <use x="63.378906" xlink:href="#DejaVuSans-116"/>
      <use x="102.587891" xlink:href="#DejaVuSans-109"/>
      <use x="200" xlink:href="#DejaVuSans-95"/>
      <use x="250" xlink:href="#DejaVuSans-48"/>
     </g>
    </g>
    <g id="line2d_23">
     <path d="M 766.316937 192.005938 
L 786.316937 192.005938 
" style="fill:none;stroke:#ff7f0e;stroke-linecap:square;stroke-width:1.5;"/>
    </g>
    <g id="line2d_24"/>
    <g id="text_17">
     <!-- dqn_greedy -->
     <defs>
      <path d="M 14.796875 27.296875 
Q 14.796875 17.390625 18.875 11.75 
Q 22.953125 6.109375 30.078125 6.109375 
Q 37.203125 6.109375 41.296875 11.75 
Q 45.40625 17.390625 45.40625 27.296875 
Q 45.40625 37.203125 41.296875 42.84375 
Q 37.203125 48.484375 30.078125 48.484375 
Q 22.953125 48.484375 18.875 42.84375 
Q 14.796875 37.203125 14.796875 27.296875 
z
M 45.40625 8.203125 
Q 42.578125 3.328125 38.25 0.953125 
Q 33.9375 -1.421875 27.875 -1.421875 
Q 17.96875 -1.421875 11.734375 6.484375 
Q 5.515625 14.40625 5.515625 27.296875 
Q 5.515625 40.1875 11.734375 48.09375 
Q 17.96875 56 27.875 56 
Q 33.9375 56 38.25 53.625 
Q 42.578125 51.265625 45.40625 46.390625 
L 45.40625 54.6875 
L 54.390625 54.6875 
L 54.390625 -20.796875 
L 45.40625 -20.796875 
z
" id="DejaVuSans-113"/>
      <path d="M 32.171875 -5.078125 
Q 28.375 -14.84375 24.75 -17.8125 
Q 21.140625 -20.796875 15.09375 -20.796875 
L 7.90625 -20.796875 
L 7.90625 -13.28125 
L 13.1875 -13.28125 
Q 16.890625 -13.28125 18.9375 -11.515625 
Q 21 -9.765625 23.484375 -3.21875 
L 25.09375 0.875 
L 2.984375 54.6875 
L 12.5 54.6875 
L 29.59375 11.921875 
L 46.6875 54.6875 
L 56.203125 54.6875 
z
" id="DejaVuSans-121"/>
     </defs>
     <g transform="translate(794.316937 195.505938)scale(0.1 -0.1)">
      <use xlink:href="#DejaVuSans-100"/>
      <use x="63.476562" xlink:href="#DejaVuSans-113"/>
      <use x="126.953125" xlink:href="#DejaVuSans-110"/>
      <use x="190.332031" xlink:href="#DejaVuSans-95"/>
      <use x="240.332031" xlink:href="#DejaVuSans-103"/>
      <use x="303.808594" xlink:href="#DejaVuSans-114"/>
      <use x="344.890625" xlink:href="#DejaVuSans-101"/>
      <use x="406.414062" xlink:href="#DejaVuSans-101"/>
      <use x="467.9375" xlink:href="#DejaVuSans-100"/>
      <use x="531.414062" xlink:href="#DejaVuSans-121"/>
     </g>
    </g>
    <g id="line2d_25">
     <path d="M 766.316937 206.962187 
L 786.316937 206.962187 
" style="fill:none;stroke:#2ca02c;stroke-linecap:square;stroke-width:1.5;"/>
    </g>
    <g id="line2d_26"/>
    <g id="text_18">
     <!-- htm_1_1g -->
     <g transform="translate(794.316937 210.462187)scale(0.1 -0.1)">
      <use xlink:href="#DejaVuSans-104"/>
      <use x="63.378906" xlink:href="#DejaVuSans-116"/>
      <use x="102.587891" xlink:href="#DejaVuSans-109"/>
      <use x="200" xlink:href="#DejaVuSans-95"/>
      <use x="250" xlink:href="#DejaVuSans-49"/>
      <use x="313.623047" xlink:href="#DejaVuSans-95"/>
      <use x="363.623047" xlink:href="#DejaVuSans-49"/>
      <use x="427.246094" xlink:href="#DejaVuSans-103"/>
     </g>
    </g>
    <g id="line2d_27">
     <path d="M 766.316937 221.918438 
L 786.316937 221.918438 
" style="fill:none;stroke:#d62728;stroke-linecap:square;stroke-width:1.5;"/>
    </g>
    <g id="line2d_28"/>
    <g id="text_19">
     <!-- htm_2_1g -->
     <g transform="translate(794.316937 225.418438)scale(0.1 -0.1)">
      <use xlink:href="#DejaVuSans-104"/>
      <use x="63.378906" xlink:href="#DejaVuSans-116"/>
      <use x="102.587891" xlink:href="#DejaVuSans-109"/>
      <use x="200" xlink:href="#DejaVuSans-95"/>
      <use x="250" xlink:href="#DejaVuSans-50"/>
      <use x="313.623047" xlink:href="#DejaVuSans-95"/>
      <use x="363.623047" xlink:href="#DejaVuSans-49"/>
      <use x="427.246094" xlink:href="#DejaVuSans-103"/>
     </g>
    </g>
    <g id="line2d_29">
     <path d="M 766.316937 236.874687 
L 786.316937 236.874687 
" style="fill:none;stroke:#9467bd;stroke-linecap:square;stroke-width:1.5;"/>
    </g>
    <g id="line2d_30"/>
    <g id="text_20">
     <!-- htm_4_1g -->
     <g transform="translate(794.316937 240.374687)scale(0.1 -0.1)">
      <use xlink:href="#DejaVuSans-104"/>
      <use x="63.378906" xlink:href="#DejaVuSans-116"/>
      <use x="102.587891" xlink:href="#DejaVuSans-109"/>
      <use x="200" xlink:href="#DejaVuSans-95"/>
      <use x="250" xlink:href="#DejaVuSans-52"/>
      <use x="313.623047" xlink:href="#DejaVuSans-95"/>
      <use x="363.623047" xlink:href="#DejaVuSans-49"/>
      <use x="427.246094" xlink:href="#DejaVuSans-103"/>
     </g>
    </g>
    <g id="line2d_31">
     <path d="M 766.316937 251.830938 
L 786.316937 251.830938 
" style="fill:none;stroke:#8c564b;stroke-linecap:square;stroke-width:1.5;"/>
    </g>
    <g id="line2d_32"/>
    <g id="text_21">
     <!-- htm_8_1g -->
     <defs>
      <path d="M 31.78125 34.625 
Q 24.75 34.625 20.71875 30.859375 
Q 16.703125 27.09375 16.703125 20.515625 
Q 16.703125 13.921875 20.71875 10.15625 
Q 24.75 6.390625 31.78125 6.390625 
Q 38.8125 6.390625 42.859375 10.171875 
Q 46.921875 13.96875 46.921875 20.515625 
Q 46.921875 27.09375 42.890625 30.859375 
Q 38.875 34.625 31.78125 34.625 
z
M 21.921875 38.8125 
Q 15.578125 40.375 12.03125 44.71875 
Q 8.5 49.078125 8.5 55.328125 
Q 8.5 64.0625 14.71875 69.140625 
Q 20.953125 74.21875 31.78125 74.21875 
Q 42.671875 74.21875 48.875 69.140625 
Q 55.078125 64.0625 55.078125 55.328125 
Q 55.078125 49.078125 51.53125 44.71875 
Q 48 40.375 41.703125 38.8125 
Q 48.828125 37.15625 52.796875 32.3125 
Q 56.78125 27.484375 56.78125 20.515625 
Q 56.78125 9.90625 50.3125 4.234375 
Q 43.84375 -1.421875 31.78125 -1.421875 
Q 19.734375 -1.421875 13.25 4.234375 
Q 6.78125 9.90625 6.78125 20.515625 
Q 6.78125 27.484375 10.78125 32.3125 
Q 14.796875 37.15625 21.921875 38.8125 
z
M 18.3125 54.390625 
Q 18.3125 48.734375 21.84375 45.5625 
Q 25.390625 42.390625 31.78125 42.390625 
Q 38.140625 42.390625 41.71875 45.5625 
Q 45.3125 48.734375 45.3125 54.390625 
Q 45.3125 60.0625 41.71875 63.234375 
Q 38.140625 66.40625 31.78125 66.40625 
Q 25.390625 66.40625 21.84375 63.234375 
Q 18.3125 60.0625 18.3125 54.390625 
z
" id="DejaVuSans-56"/>
     </defs>
     <g transform="translate(794.316937 255.330938)scale(0.1 -0.1)">
      <use xlink:href="#DejaVuSans-104"/>
      <use x="63.378906" xlink:href="#DejaVuSans-116"/>
      <use x="102.587891" xlink:href="#DejaVuSans-109"/>
      <use x="200" xlink:href="#DejaVuSans-95"/>
      <use x="250" xlink:href="#DejaVuSans-56"/>
      <use x="313.623047" xlink:href="#DejaVuSans-95"/>
      <use x="363.623047" xlink:href="#DejaVuSans-49"/>
      <use x="427.246094" xlink:href="#DejaVuSans-103"/>
     </g>
    </g>
   </g>
  </g>
 </g>
 <defs>
  <clipPath id="p6a501dd77f">
   <rect height="377.6" width="690.505" x="33.775" y="26.52"/>
  </clipPath>
 </defs>
</svg>
