<?xml version="1.0" encoding="utf-8" standalone="no"?>
<!DOCTYPE svg PUBLIC "-//W3C//DTD SVG 1.1//EN"
  "http://www.w3.org/Graphics/SVG/1.1/DTD/svg11.dtd">
<!-- Created with matplotlib (https://matplotlib.org/) -->
<svg height="432pt" version="1.1" viewBox="0 0 864 432" width="864pt" xmlns="http://www.w3.org/2000/svg" xmlns:xlink="http://www.w3.org/1999/xlink">
 <defs>
  <style type="text/css">
*{stroke-linecap:butt;stroke-linejoin:round;}
  </style>
 </defs>
 <g id="figure_1">
  <g id="patch_1">
   <path d="M 0 432 
L 864 432 
L 864 0 
L 0 0 
z
" style="fill:#ffffff;"/>
  </g>
  <g id="axes_1">
   <g id="patch_2">
    <path d="M 36.925 404.12 
L 724.28 404.12 
L 724.28 26.16 
L 36.925 26.16 
z
" style="fill:#ffffff;"/>
   </g>
   <g id="matplotlib.axis_1">
    <g id="xtick_1">
     <g id="line2d_1">
      <defs>
       <path d="M 0 0 
L 0 3.5 
" id="me24d23a05b" style="stroke:#000000;stroke-width:0.8;"/>
      </defs>
      <g>
       <use style="stroke:#000000;stroke-width:0.8;" x="36.925" xlink:href="#me24d23a05b" y="404.12"/>
      </g>
     </g>
     <g id="text_1">
      <!-- 0 -->
      <defs>
       <path d="M 31.78125 66.40625 
Q 24.171875 66.40625 20.328125 58.90625 
Q 16.5 51.421875 16.5 36.375 
Q 16.5 21.390625 20.328125 13.890625 
Q 24.171875 6.390625 31.78125 6.390625 
Q 39.453125 6.390625 43.28125 13.890625 
Q 47.125 21.390625 47.125 36.375 
Q 47.125 51.421875 43.28125 58.90625 
Q 39.453125 66.40625 31.78125 66.40625 
z
M 31.78125 74.21875 
Q 44.046875 74.21875 50.515625 64.515625 
Q 56.984375 54.828125 56.984375 36.375 
Q 56.984375 17.96875 50.515625 8.265625 
Q 44.046875 -1.421875 31.78125 -1.421875 
Q 19.53125 -1.421875 13.0625 8.265625 
Q 6.59375 17.96875 6.59375 36.375 
Q 6.59375 54.828125 13.0625 64.515625 
Q 19.53125 74.21875 31.78125 74.21875 
z
" id="DejaVuSans-48"/>
      </defs>
      <g transform="translate(33.74375 418.718437)scale(0.1 -0.1)">
       <use xlink:href="#DejaVuSans-48"/>
      </g>
     </g>
    </g>
    <g id="xtick_2">
     <g id="line2d_2">
      <g>
       <use style="stroke:#000000;stroke-width:0.8;" x="122.951909" xlink:href="#me24d23a05b" y="404.12"/>
      </g>
     </g>
     <g id="text_2">
      <!-- 100 -->
      <defs>
       <path d="M 12.40625 8.296875 
L 28.515625 8.296875 
L 28.515625 63.921875 
L 10.984375 60.40625 
L 10.984375 69.390625 
L 28.421875 72.90625 
L 38.28125 72.90625 
L 38.28125 8.296875 
L 54.390625 8.296875 
L 54.390625 0 
L 12.40625 0 
z
" id="DejaVuSans-49"/>
      </defs>
      <g transform="translate(113.408159 418.718437)scale(0.1 -0.1)">
       <use xlink:href="#DejaVuSans-49"/>
       <use x="63.623047" xlink:href="#DejaVuSans-48"/>
       <use x="127.246094" xlink:href="#DejaVuSans-48"/>
      </g>
     </g>
    </g>
    <g id="xtick_3">
     <g id="line2d_3">
      <g>
       <use style="stroke:#000000;stroke-width:0.8;" x="208.978817" xlink:href="#me24d23a05b" y="404.12"/>
      </g>
     </g>
     <g id="text_3">
      <!-- 200 -->
      <defs>
       <path d="M 19.1875 8.296875 
L 53.609375 8.296875 
L 53.609375 0 
L 7.328125 0 
L 7.328125 8.296875 
Q 12.9375 14.109375 22.625 23.890625 
Q 32.328125 33.6875 34.8125 36.53125 
Q 39.546875 41.84375 41.421875 45.53125 
Q 43.3125 49.21875 43.3125 52.78125 
Q 43.3125 58.59375 39.234375 62.25 
Q 35.15625 65.921875 28.609375 65.921875 
Q 23.96875 65.921875 18.8125 64.3125 
Q 13.671875 62.703125 7.8125 59.421875 
L 7.8125 69.390625 
Q 13.765625 71.78125 18.9375 73 
Q 24.125 74.21875 28.421875 74.21875 
Q 39.75 74.21875 46.484375 68.546875 
Q 53.21875 62.890625 53.21875 53.421875 
Q 53.21875 48.921875 51.53125 44.890625 
Q 49.859375 40.875 45.40625 35.40625 
Q 44.1875 33.984375 37.640625 27.21875 
Q 31.109375 20.453125 19.1875 8.296875 
z
" id="DejaVuSans-50"/>
      </defs>
      <g transform="translate(199.435067 418.718437)scale(0.1 -0.1)">
       <use xlink:href="#DejaVuSans-50"/>
       <use x="63.623047" xlink:href="#DejaVuSans-48"/>
       <use x="127.246094" xlink:href="#DejaVuSans-48"/>
      </g>
     </g>
    </g>
    <g id="xtick_4">
     <g id="line2d_4">
      <g>
       <use style="stroke:#000000;stroke-width:0.8;" x="295.005726" xlink:href="#me24d23a05b" y="404.12"/>
      </g>
     </g>
     <g id="text_4">
      <!-- 300 -->
      <defs>
       <path d="M 40.578125 39.3125 
Q 47.65625 37.796875 51.625 33 
Q 55.609375 28.21875 55.609375 21.1875 
Q 55.609375 10.40625 48.1875 4.484375 
Q 40.765625 -1.421875 27.09375 -1.421875 
Q 22.515625 -1.421875 17.65625 -0.515625 
Q 12.796875 0.390625 7.625 2.203125 
L 7.625 11.71875 
Q 11.71875 9.328125 16.59375 8.109375 
Q 21.484375 6.890625 26.8125 6.890625 
Q 36.078125 6.890625 40.9375 10.546875 
Q 45.796875 14.203125 45.796875 21.1875 
Q 45.796875 27.640625 41.28125 31.265625 
Q 36.765625 34.90625 28.71875 34.90625 
L 20.21875 34.90625 
L 20.21875 43.015625 
L 29.109375 43.015625 
Q 36.375 43.015625 40.234375 45.921875 
Q 44.09375 48.828125 44.09375 54.296875 
Q 44.09375 59.90625 40.109375 62.90625 
Q 36.140625 65.921875 28.71875 65.921875 
Q 24.65625 65.921875 20.015625 65.03125 
Q 15.375 64.15625 9.8125 62.3125 
L 9.8125 71.09375 
Q 15.4375 72.65625 20.34375 73.4375 
Q 25.25 74.21875 29.59375 74.21875 
Q 40.828125 74.21875 47.359375 69.109375 
Q 53.90625 64.015625 53.90625 55.328125 
Q 53.90625 49.265625 50.4375 45.09375 
Q 46.96875 40.921875 40.578125 39.3125 
z
" id="DejaVuSans-51"/>
      </defs>
      <g transform="translate(285.461976 418.718437)scale(0.1 -0.1)">
       <use xlink:href="#DejaVuSans-51"/>
       <use x="63.623047" xlink:href="#DejaVuSans-48"/>
       <use x="127.246094" xlink:href="#DejaVuSans-48"/>
      </g>
     </g>
    </g>
    <g id="xtick_5">
     <g id="line2d_5">
      <g>
       <use style="stroke:#000000;stroke-width:0.8;" x="381.032635" xlink:href="#me24d23a05b" y="404.12"/>
      </g>
     </g>
     <g id="text_5">
      <!-- 400 -->
      <defs>
       <path d="M 37.796875 64.3125 
L 12.890625 25.390625 
L 37.796875 25.390625 
z
M 35.203125 72.90625 
L 47.609375 72.90625 
L 47.609375 25.390625 
L 58.015625 25.390625 
L 58.015625 17.1875 
L 47.609375 17.1875 
L 47.609375 0 
L 37.796875 0 
L 37.796875 17.1875 
L 4.890625 17.1875 
L 4.890625 26.703125 
z
" id="DejaVuSans-52"/>
      </defs>
      <g transform="translate(371.488885 418.718437)scale(0.1 -0.1)">
       <use xlink:href="#DejaVuSans-52"/>
       <use x="63.623047" xlink:href="#DejaVuSans-48"/>
       <use x="127.246094" xlink:href="#DejaVuSans-48"/>
      </g>
     </g>
    </g>
    <g id="xtick_6">
     <g id="line2d_6">
      <g>
       <use style="stroke:#000000;stroke-width:0.8;" x="467.059543" xlink:href="#me24d23a05b" y="404.12"/>
      </g>
     </g>
     <g id="text_6">
      <!-- 500 -->
      <defs>
       <path d="M 10.796875 72.90625 
L 49.515625 72.90625 
L 49.515625 64.59375 
L 19.828125 64.59375 
L 19.828125 46.734375 
Q 21.96875 47.46875 24.109375 47.828125 
Q 26.265625 48.1875 28.421875 48.1875 
Q 40.625 48.1875 47.75 41.5 
Q 54.890625 34.8125 54.890625 23.390625 
Q 54.890625 11.625 47.5625 5.09375 
Q 40.234375 -1.421875 26.90625 -1.421875 
Q 22.3125 -1.421875 17.546875 -0.640625 
Q 12.796875 0.140625 7.71875 1.703125 
L 7.71875 11.625 
Q 12.109375 9.234375 16.796875 8.0625 
Q 21.484375 6.890625 26.703125 6.890625 
Q 35.15625 6.890625 40.078125 11.328125 
Q 45.015625 15.765625 45.015625 23.390625 
Q 45.015625 31 40.078125 35.4375 
Q 35.15625 39.890625 26.703125 39.890625 
Q 22.75 39.890625 18.8125 39.015625 
Q 14.890625 38.140625 10.796875 36.28125 
z
" id="DejaVuSans-53"/>
      </defs>
      <g transform="translate(457.515793 418.718437)scale(0.1 -0.1)">
       <use xlink:href="#DejaVuSans-53"/>
       <use x="63.623047" xlink:href="#DejaVuSans-48"/>
       <use x="127.246094" xlink:href="#DejaVuSans-48"/>
      </g>
     </g>
    </g>
    <g id="xtick_7">
     <g id="line2d_7">
      <g>
       <use style="stroke:#000000;stroke-width:0.8;" x="553.086452" xlink:href="#me24d23a05b" y="404.12"/>
      </g>
     </g>
     <g id="text_7">
      <!-- 600 -->
      <defs>
       <path d="M 33.015625 40.375 
Q 26.375 40.375 22.484375 35.828125 
Q 18.609375 31.296875 18.609375 23.390625 
Q 18.609375 15.53125 22.484375 10.953125 
Q 26.375 6.390625 33.015625 6.390625 
Q 39.65625 6.390625 43.53125 10.953125 
Q 47.40625 15.53125 47.40625 23.390625 
Q 47.40625 31.296875 43.53125 35.828125 
Q 39.65625 40.375 33.015625 40.375 
z
M 52.59375 71.296875 
L 52.59375 62.3125 
Q 48.875 64.0625 45.09375 64.984375 
Q 41.3125 65.921875 37.59375 65.921875 
Q 27.828125 65.921875 22.671875 59.328125 
Q 17.53125 52.734375 16.796875 39.40625 
Q 19.671875 43.65625 24.015625 45.921875 
Q 28.375 48.1875 33.59375 48.1875 
Q 44.578125 48.1875 50.953125 41.515625 
Q 57.328125 34.859375 57.328125 23.390625 
Q 57.328125 12.15625 50.6875 5.359375 
Q 44.046875 -1.421875 33.015625 -1.421875 
Q 20.359375 -1.421875 13.671875 8.265625 
Q 6.984375 17.96875 6.984375 36.375 
Q 6.984375 53.65625 15.1875 63.9375 
Q 23.390625 74.21875 37.203125 74.21875 
Q 40.921875 74.21875 44.703125 73.484375 
Q 48.484375 72.75 52.59375 71.296875 
z
" id="DejaVuSans-54"/>
      </defs>
      <g transform="translate(543.542702 418.718437)scale(0.1 -0.1)">
       <use xlink:href="#DejaVuSans-54"/>
       <use x="63.623047" xlink:href="#DejaVuSans-48"/>
       <use x="127.246094" xlink:href="#DejaVuSans-48"/>
      </g>
     </g>
    </g>
    <g id="xtick_8">
     <g id="line2d_8">
      <g>
       <use style="stroke:#000000;stroke-width:0.8;" x="639.11336" xlink:href="#me24d23a05b" y="404.12"/>
      </g>
     </g>
     <g id="text_8">
      <!-- 700 -->
      <defs>
       <path d="M 8.203125 72.90625 
L 55.078125 72.90625 
L 55.078125 68.703125 
L 28.609375 0 
L 18.3125 0 
L 43.21875 64.59375 
L 8.203125 64.59375 
z
" id="DejaVuSans-55"/>
      </defs>
      <g transform="translate(629.56961 418.718437)scale(0.1 -0.1)">
       <use xlink:href="#DejaVuSans-55"/>
       <use x="63.623047" xlink:href="#DejaVuSans-48"/>
       <use x="127.246094" xlink:href="#DejaVuSans-48"/>
      </g>
     </g>
    </g>
   </g>
   <g id="matplotlib.axis_2">
    <g id="ytick_1">
     <g id="line2d_9">
      <defs>
       <path d="M 0 0 
L -3.5 0 
" id="mbef338ae71" style="stroke:#000000;stroke-width:0.8;"/>
      </defs>
      <g>
       <use style="stroke:#000000;stroke-width:0.8;" x="36.925" xlink:href="#mbef338ae71" y="392.967143"/>
      </g>
     </g>
     <g id="text_9">
      <!-- 0 -->
      <g transform="translate(23.5625 396.766361)scale(0.1 -0.1)">
       <use xlink:href="#DejaVuSans-48"/>
      </g>
     </g>
    </g>
    <g id="ytick_2">
     <g id="line2d_10">
      <g>
       <use style="stroke:#000000;stroke-width:0.8;" x="36.925" xlink:href="#mbef338ae71" y="350.671405"/>
      </g>
     </g>
     <g id="text_10">
      <!-- 20 -->
      <g transform="translate(17.2 354.470624)scale(0.1 -0.1)">
       <use xlink:href="#DejaVuSans-50"/>
       <use x="63.623047" xlink:href="#DejaVuSans-48"/>
      </g>
     </g>
    </g>
    <g id="ytick_3">
     <g id="line2d_11">
      <g>
       <use style="stroke:#000000;stroke-width:0.8;" x="36.925" xlink:href="#mbef338ae71" y="308.375667"/>
      </g>
     </g>
     <g id="text_11">
      <!-- 40 -->
      <g transform="translate(17.2 312.174886)scale(0.1 -0.1)">
       <use xlink:href="#DejaVuSans-52"/>
       <use x="63.623047" xlink:href="#DejaVuSans-48"/>
      </g>
     </g>
    </g>
    <g id="ytick_4">
     <g id="line2d_12">
      <g>
       <use style="stroke:#000000;stroke-width:0.8;" x="36.925" xlink:href="#mbef338ae71" y="266.079929"/>
      </g>
     </g>
     <g id="text_12">
      <!-- 60 -->
      <g transform="translate(17.2 269.879148)scale(0.1 -0.1)">
       <use xlink:href="#DejaVuSans-54"/>
       <use x="63.623047" xlink:href="#DejaVuSans-48"/>
      </g>
     </g>
    </g>
    <g id="ytick_5">
     <g id="line2d_13">
      <g>
       <use style="stroke:#000000;stroke-width:0.8;" x="36.925" xlink:href="#mbef338ae71" y="223.784191"/>
      </g>
     </g>
     <g id="text_13">
      <!-- 80 -->
      <defs>
       <path d="M 31.78125 34.625 
Q 24.75 34.625 20.71875 30.859375 
Q 16.703125 27.09375 16.703125 20.515625 
Q 16.703125 13.921875 20.71875 10.15625 
Q 24.75 6.390625 31.78125 6.390625 
Q 38.8125 6.390625 42.859375 10.171875 
Q 46.921875 13.96875 46.921875 20.515625 
Q 46.921875 27.09375 42.890625 30.859375 
Q 38.875 34.625 31.78125 34.625 
z
M 21.921875 38.8125 
Q 15.578125 40.375 12.03125 44.71875 
Q 8.5 49.078125 8.5 55.328125 
Q 8.5 64.0625 14.71875 69.140625 
Q 20.953125 74.21875 31.78125 74.21875 
Q 42.671875 74.21875 48.875 69.140625 
Q 55.078125 64.0625 55.078125 55.328125 
Q 55.078125 49.078125 51.53125 44.71875 
Q 48 40.375 41.703125 38.8125 
Q 48.828125 37.15625 52.796875 32.3125 
Q 56.78125 27.484375 56.78125 20.515625 
Q 56.78125 9.90625 50.3125 4.234375 
Q 43.84375 -1.421875 31.78125 -1.421875 
Q 19.734375 -1.421875 13.25 4.234375 
Q 6.78125 9.90625 6.78125 20.515625 
Q 6.78125 27.484375 10.78125 32.3125 
Q 14.796875 37.15625 21.921875 38.8125 
z
M 18.3125 54.390625 
Q 18.3125 48.734375 21.84375 45.5625 
Q 25.390625 42.390625 31.78125 42.390625 
Q 38.140625 42.390625 41.71875 45.5625 
Q 45.3125 48.734375 45.3125 54.390625 
Q 45.3125 60.0625 41.71875 63.234375 
Q 38.140625 66.40625 31.78125 66.40625 
Q 25.390625 66.40625 21.84375 63.234375 
Q 18.3125 60.0625 18.3125 54.390625 
z
" id="DejaVuSans-56"/>
      </defs>
      <g transform="translate(17.2 227.58341)scale(0.1 -0.1)">
       <use xlink:href="#DejaVuSans-56"/>
       <use x="63.623047" xlink:href="#DejaVuSans-48"/>
      </g>
     </g>
    </g>
    <g id="ytick_6">
     <g id="line2d_14">
      <g>
       <use style="stroke:#000000;stroke-width:0.8;" x="36.925" xlink:href="#mbef338ae71" y="181.488454"/>
      </g>
     </g>
     <g id="text_14">
      <!-- 100 -->
      <g transform="translate(10.8375 185.287672)scale(0.1 -0.1)">
       <use xlink:href="#DejaVuSans-49"/>
       <use x="63.623047" xlink:href="#DejaVuSans-48"/>
       <use x="127.246094" xlink:href="#DejaVuSans-48"/>
      </g>
     </g>
    </g>
    <g id="ytick_7">
     <g id="line2d_15">
      <g>
       <use style="stroke:#000000;stroke-width:0.8;" x="36.925" xlink:href="#mbef338ae71" y="139.192716"/>
      </g>
     </g>
     <g id="text_15">
      <!-- 120 -->
      <g transform="translate(10.8375 142.991935)scale(0.1 -0.1)">
       <use xlink:href="#DejaVuSans-49"/>
       <use x="63.623047" xlink:href="#DejaVuSans-50"/>
       <use x="127.246094" xlink:href="#DejaVuSans-48"/>
      </g>
     </g>
    </g>
    <g id="ytick_8">
     <g id="line2d_16">
      <g>
       <use style="stroke:#000000;stroke-width:0.8;" x="36.925" xlink:href="#mbef338ae71" y="96.896978"/>
      </g>
     </g>
     <g id="text_16">
      <!-- 140 -->
      <g transform="translate(10.8375 100.696197)scale(0.1 -0.1)">
       <use xlink:href="#DejaVuSans-49"/>
       <use x="63.623047" xlink:href="#DejaVuSans-52"/>
       <use x="127.246094" xlink:href="#DejaVuSans-48"/>
      </g>
     </g>
    </g>
    <g id="ytick_9">
     <g id="line2d_17">
      <g>
       <use style="stroke:#000000;stroke-width:0.8;" x="36.925" xlink:href="#mbef338ae71" y="54.60124"/>
      </g>
     </g>
     <g id="text_17">
      <!-- 160 -->
      <g transform="translate(10.8375 58.400459)scale(0.1 -0.1)">
       <use xlink:href="#DejaVuSans-49"/>
       <use x="63.623047" xlink:href="#DejaVuSans-54"/>
       <use x="127.246094" xlink:href="#DejaVuSans-48"/>
      </g>
     </g>
    </g>
   </g>
   <g id="line2d_18">
    <path clip-path="url(#p42797142af)" d="M 70.475494 365.845001 
L 71.335763 376.366066 
L 72.196033 376.366066 
L 73.056302 386.834261 
L 74.77684 386.834261 
L 75.637109 386.728521 
L 79.078185 386.834261 
L 89.401414 261.850355 
L 96.283567 178.84497 
L 97.143836 178.686361 
L 98.004105 178.739231 
L 101.445181 136.97219 
L 102.305451 136.91932 
L 103.16572 126.451125 
L 104.025989 126.609734 
L 104.886258 116.088669 
L 106.606796 115.98293 
L 110.047872 74.427367 
L 111.768411 74.480237 
L 112.62868 63.959172 
L 113.488949 64.170651 
L 114.349218 64.170651 
L 118.650563 116.194408 
L 119.510832 116.194408 
L 120.371101 126.715473 
L 121.23137 126.715473 
L 122.951909 147.598994 
L 130.69433 147.598994 
L 132.414869 126.768343 
L 135.855945 126.768343 
L 136.716214 116.353017 
L 137.576483 116.353017 
L 138.436752 105.831953 
L 139.297021 105.831953 
L 141.017559 84.895562 
L 141.877829 84.895562 
L 142.738098 95.416627 
L 144.458636 95.416627 
L 146.179174 74.480237 
L 147.039443 85.001302 
L 148.759981 84.948432 
L 149.62025 85.054171 
L 153.061327 43.445739 
L 154.781865 43.34 
L 155.642134 53.755325 
L 158.222941 53.861065 
L 159.08321 64.38213 
L 160.803748 64.38213 
L 165.105094 116.300148 
L 165.965363 116.300148 
L 166.825632 126.821212 
L 168.54617 126.821212 
L 169.406439 137.342277 
L 171.987247 137.342277 
L 172.847516 147.757603 
L 174.568054 147.757603 
L 176.288592 168.641123 
L 177.148861 158.120058 
L 180.589937 158.120058 
L 181.450207 147.598994 
L 182.310476 147.598994 
L 183.170745 158.120058 
L 184.031014 147.598994 
L 184.891283 147.598994 
L 186.611821 168.482514 
L 187.47209 168.482514 
L 188.332359 178.950709 
L 189.192628 179.056449 
L 190.913166 158.172928 
L 192.633705 158.172928 
L 193.493974 147.651863 
L 195.214512 147.651863 
L 196.074781 147.810472 
L 199.515857 147.757603 
L 200.376126 158.120058 
L 201.236395 158.067189 
L 202.956934 178.950709 
L 203.817203 168.429645 
L 205.537741 189.471774 
L 208.978817 189.418904 
L 210.699355 168.535384 
L 214.140432 168.535384 
L 215.86097 189.313165 
L 216.721239 189.366035 
L 217.581508 178.84497 
L 219.302046 199.517012 
L 220.162315 199.358403 
L 221.882854 199.411273 
L 223.603392 199.252663 
L 225.32393 220.136184 
L 226.184199 219.924705 
L 228.765006 251.117812 
L 233.926621 251.170682 
L 235.647159 230.340031 
L 237.367697 230.234291 
L 238.227966 240.702487 
L 239.088235 240.649617 
L 239.948504 230.128552 
L 240.808773 240.543878 
L 241.669043 240.702487 
L 248.551195 323.813611 
L 249.411464 323.919351 
L 251.992272 323.707872 
L 254.573079 323.97222 
L 255.433348 323.97222 
L 256.293617 334.440415 
L 257.153886 334.493285 
L 258.014155 324.07796 
L 258.874424 323.919351 
L 263.17577 324.130829 
L 264.036039 334.599024 
L 265.756577 334.334676 
L 268.337384 334.546155 
L 270.057922 355.271066 
L 272.63873 355.376806 
L 273.498999 355.323936 
L 274.359268 365.792131 
L 276.940075 365.845001 
L 277.800344 365.792131 
L 278.660613 365.89787 
L 280.381151 365.792131 
L 282.10169 365.89787 
L 283.822228 365.845001 
L 284.682497 355.482545 
L 285.542766 355.376806 
L 286.403035 365.792131 
L 288.983842 365.792131 
L 289.844111 355.376806 
L 291.56465 355.376806 
L 292.424919 365.686392 
L 293.285188 355.376806 
L 294.145457 355.429675 
L 295.865995 355.218197 
L 297.586533 355.323936 
L 298.446802 355.323936 
L 300.16734 355.641154 
L 301.02761 355.482545 
L 301.887879 355.482545 
L 302.748148 355.323936 
L 305.328955 355.271066 
L 306.189224 355.112457 
L 308.770031 355.059588 
L 310.490569 354.795239 
L 311.350839 354.900979 
L 313.071377 354.900979 
L 314.791915 354.848109 
L 315.652184 354.6895 
L 318.232991 354.795239 
L 319.09326 365.104825 
L 320.813798 364.999086 
L 321.674068 364.946216 
L 322.534337 354.530891 
L 324.254875 354.425152 
L 325.115144 343.956956 
L 326.835682 344.168435 
L 327.695951 354.530891 
L 328.55622 354.372282 
L 330.276758 354.63663 
L 332.857566 354.425152 
L 339.739718 354.425152 
L 341.460257 354.63663 
L 344.041064 354.6895 
L 344.901333 354.795239 
L 347.48214 354.63663 
L 350.062947 355.006718 
L 351.783486 355.112457 
L 352.643755 344.644262 
L 356.084831 345.331568 
L 356.9451 355.694024 
L 357.805369 355.799763 
L 359.525907 376.630414 
L 361.246446 376.524675 
L 365.547791 376.577544 
L 366.40806 366.162219 
L 368.128598 366.109349 
L 369.849136 366.00361 
L 371.569675 366.109349 
L 374.150482 366.426567 
L 376.731289 366.215088 
L 377.591558 366.162219 
L 378.451827 366.267958 
L 379.312096 366.162219 
L 380.172365 366.267958 
L 381.892904 345.595916 
L 382.753173 345.490177 
L 383.613442 335.021982 
L 385.33398 334.969112 
L 386.194249 334.810503 
L 387.054518 345.172959 
L 389.635325 344.750002 
L 391.355864 344.697132 
L 392.216133 334.228937 
L 396.517478 334.017458 
L 397.377747 323.549263 
L 399.098285 323.813611 
L 399.958554 323.707872 
L 400.818824 334.123197 
L 402.539362 334.070328 
L 405.120169 334.123197 
L 407.700976 334.017458 
L 410.281783 333.64737 
L 412.002322 333.594501 
L 412.862591 333.330152 
L 413.72286 333.435892 
L 414.583129 322.967697 
L 416.303667 343.904087 
L 417.163936 344.062696 
L 418.024205 354.266543 
L 419.744743 354.160803 
L 421.465282 354.478021 
L 423.18582 354.372282 
L 425.766627 354.583761 
L 426.626896 365.051956 
L 428.347434 365.157695 
L 430.067972 365.369174 
L 430.928242 365.422043 
L 431.788511 375.837369 
L 435.229587 375.731629 
L 436.950125 375.890238 
L 437.810394 376.048848 
L 438.670663 375.890238 
L 442.11174 375.890238 
L 443.832278 376.207457 
L 444.692547 366.00361 
L 446.413085 365.95074 
L 447.273354 366.056479 
L 448.133623 365.792131 
L 448.993892 376.154587 
L 449.854161 375.943108 
L 450.714431 375.943108 
L 451.5747 375.731629 
L 454.155507 375.837369 
L 455.876045 375.731629 
L 456.736314 375.943108 
L 459.317121 375.995978 
L 461.897929 375.784499 
L 462.758198 375.837369 
L 464.478736 375.520151 
L 465.339005 375.62589 
L 466.199274 375.520151 
L 467.919812 354.583761 
L 468.780081 354.74237 
L 469.64035 344.379914 
L 470.50062 344.485653 
L 477.382772 260.951571 
L 479.10331 260.951571 
L 479.963579 261.16305 
L 481.684118 240.491008 
L 483.404656 240.491008 
L 484.264925 240.649617 
L 485.985463 219.924705 
L 486.845732 219.977575 
L 487.706001 219.766096 
L 488.56627 209.45651 
L 490.286809 209.192162 
L 491.147078 198.776836 
L 492.007347 198.882576 
L 492.867616 188.361511 
L 494.588154 188.57299 
L 497.168961 157.327013 
L 498.889499 157.432753 
L 499.749768 157.485622 
L 500.610038 157.327013 
L 501.470307 157.327013 
L 502.330576 167.848078 
L 503.190845 167.47799 
L 504.051114 167.47799 
L 504.911383 156.956926 
L 505.771652 156.956926 
L 508.352459 188.361511 
L 511.793536 188.361511 
L 512.653805 177.946186 
L 513.514074 188.202902 
L 514.374343 187.991423 
L 515.234612 198.353879 
L 516.95515 198.459618 
L 518.675688 198.618227 
L 520.396227 219.554618 
L 522.116765 219.713227 
L 522.977034 229.969943 
L 523.837303 229.969943 
L 524.697572 230.181422 
L 525.557841 240.596747 
L 526.41811 240.491008 
L 527.278379 250.853464 
L 528.998917 250.483376 
L 531.579725 281.676483 
L 535.020801 281.887961 
L 535.88107 292.409026 
L 536.741339 292.250417 
L 537.601608 292.409026 
L 540.182416 323.655002 
L 541.042685 323.760742 
L 541.902954 313.239677 
L 542.763223 313.186807 
L 547.064568 364.893347 
L 549.645375 365.051956 
L 550.505645 375.308672 
L 551.365914 375.467281 
L 552.226183 375.414411 
L 555.667259 333.541631 
L 556.527528 333.64737 
L 565.130219 230.022813 
L 565.990488 230.022813 
L 567.711026 209.139292 
L 568.571295 209.086423 
L 569.431564 209.245032 
L 572.012372 209.350771 
L 572.872641 209.403641 
L 573.73291 199.041185 
L 575.453448 199.041185 
L 576.313717 209.403641 
L 580.615063 209.773728 
L 582.335601 209.985207 
L 584.056139 209.985207 
L 584.916408 210.249555 
L 585.776677 210.090946 
L 586.636946 210.090946 
L 590.078023 251.699378 
L 590.938292 251.646509 
L 594.379368 293.36068 
L 595.239637 293.36068 
L 597.820444 324.818135 
L 598.680713 324.818135 
L 599.540982 335.233461 
L 600.401252 324.765265 
L 602.12179 345.701656 
L 602.982059 335.233461 
L 606.423135 335.233461 
L 607.283404 335.074852 
L 609.003942 334.969112 
L 610.724481 334.863373 
L 615.025826 334.704764 
L 620.187441 335.021982 
L 621.04771 334.916242 
L 621.907979 335.074852 
L 622.768248 334.969112 
L 623.628517 335.127721 
L 624.488786 335.021982 
L 625.349055 335.074852 
L 626.209324 334.969112 
L 628.790131 335.127721 
L 629.650401 345.490177 
L 630.51067 345.384438 
L 631.370939 345.437307 
L 632.231208 345.331568 
L 633.091477 355.694024 
L 633.951746 355.641154 
L 634.812015 366.109349 
L 635.672284 365.89787 
L 636.532553 365.95074 
L 637.392822 376.366066 
L 641.694168 376.366066 
L 642.554437 386.834261 
L 643.414706 376.418935 
L 644.274975 376.313196 
L 645.135244 365.95074 
L 648.57632 365.845001 
L 649.436589 365.739261 
L 650.296859 355.218197 
L 651.157128 355.112457 
L 652.017397 355.165327 
L 652.877666 354.953848 
L 653.737935 355.006718 
L 654.598204 354.848109 
L 657.179011 354.74237 
L 658.03928 354.63663 
L 660.620088 354.900979 
L 661.480357 354.848109 
L 662.340626 354.63663 
L 664.061164 354.74237 
L 666.641971 354.6895 
L 669.222778 354.478021 
L 670.943317 354.372282 
L 676.104931 354.160803 
L 676.9652 354.213673 
L 677.825469 364.576129 
L 678.685738 364.840477 
L 679.546008 375.308672 
L 681.266546 375.255802 
L 682.126815 364.840477 
L 683.847353 365.104825 
L 684.707622 365.104825 
L 686.42816 344.379914 
L 687.288429 344.591393 
L 688.148698 344.379914 
L 692.450044 344.855741 
L 697.611658 344.644262 
L 700.192466 344.750002 
L 704.493811 345.172959 
L 705.35408 345.120089 
L 706.214349 345.225829 
L 707.074618 345.172959 
L 708.795156 345.490177 
L 711.375964 345.384438 
L 712.236233 345.437307 
L 714.81704 345.120089 
L 715.677309 345.172959 
L 716.537578 355.641154 
L 717.397847 355.482545 
L 718.258116 355.482545 
L 720.838924 386.464173 
L 721.699193 386.464173 
L 723.419731 386.781391 
L 724.28 386.517043 
L 724.28 386.517043 
" style="fill:none;stroke:#1f77b4;stroke-linecap:square;stroke-width:1.5;"/>
   </g>
   <g id="line2d_19">
    <path clip-path="url(#p42797142af)" d="M 70.475494 377.106241 
L 71.335763 382.710426 
L 72.196033 382.710426 
L 73.056302 383.873559 
L 73.916571 384.613734 
L 74.77684 384.560865 
L 75.637109 384.666604 
L 76.497378 385.723998 
L 77.357647 385.671128 
L 78.217916 385.882607 
L 79.078185 385.829737 
L 91.121952 240.596747 
L 91.982222 237.318828 
L 92.842491 226.956372 
L 93.70276 225.211673 
L 95.423298 215.642262 
L 96.283567 215.007826 
L 97.143836 214.637738 
L 98.004105 214.690608 
L 98.864374 213.633214 
L 99.724643 207.606072 
L 100.584912 204.063804 
L 101.445181 199.252663 
L 102.305451 195.181699 
L 104.025989 195.498917 
L 104.886258 190.899255 
L 106.606796 190.793516 
L 107.467065 189.418904 
L 108.327334 187.039769 
L 109.187603 183.180283 
L 110.047872 182.915935 
L 111.768411 183.021674 
L 112.62868 181.488454 
L 113.488949 181.752802 
L 114.349218 185.506549 
L 116.069756 205.385545 
L 122.951909 287.439277 
L 124.672447 305.996532 
L 125.532716 305.996532 
L 126.392985 299.017735 
L 127.253254 299.017735 
L 128.113523 290.399978 
L 129.834061 279.191608 
L 133.275138 239.275005 
L 134.135407 234.833953 
L 134.995676 228.119505 
L 135.855945 222.46245 
L 136.716214 216.065219 
L 138.436752 195.128829 
L 139.297021 189.207426 
L 141.017559 168.271036 
L 141.877829 163.512765 
L 142.738098 166.156249 
L 143.598367 162.561111 
L 144.458636 152.410134 
L 145.318905 144.849771 
L 146.179174 143.528029 
L 147.039443 145.061249 
L 147.899712 145.00838 
L 148.759981 151.088392 
L 149.62025 152.092916 
L 150.480519 148.762126 
L 151.340788 148.18056 
L 152.201058 137.765235 
L 153.061327 137.183668 
L 153.921596 136.760711 
L 154.781865 136.654972 
L 155.642134 137.077929 
L 157.362672 137.183668 
L 158.222941 138.55828 
L 159.08321 139.351325 
L 159.943479 146.64734 
L 160.803748 155.159357 
L 165.105094 206.601548 
L 165.965363 206.601548 
L 166.825632 217.069743 
L 168.54617 217.069743 
L 169.406439 227.590808 
L 171.987247 227.590808 
L 173.707785 247.734153 
L 174.568054 247.734153 
L 175.428323 258.149478 
L 176.288592 264.176621 
L 177.148861 253.655556 
L 178.00913 250.800594 
L 178.869399 260.898701 
L 179.729668 268.247586 
L 180.589937 267.56028 
L 181.450207 257.039215 
L 182.310476 257.039215 
L 183.170745 257.673651 
L 184.031014 252.492423 
L 184.891283 253.655556 
L 185.751552 254.448601 
L 186.611821 263.119228 
L 187.47209 263.542185 
L 188.332359 264.916796 
L 189.192628 265.022536 
L 190.913166 264.546709 
L 191.773436 264.546709 
L 192.633705 263.172097 
L 193.493974 262.220443 
L 194.354243 263.489315 
L 195.214512 264.33523 
L 196.074781 264.652448 
L 196.93505 258.413827 
L 197.795319 258.625305 
L 198.655588 252.016596 
L 199.515857 252.122336 
L 200.376126 262.484792 
L 201.236395 262.379052 
L 202.956934 283.262573 
L 203.817203 283.051094 
L 206.39801 313.768374 
L 207.258279 313.556895 
L 208.118548 311.283499 
L 208.978817 311.283499 
L 209.839086 300.868174 
L 210.699355 298.700517 
L 211.559625 307.95271 
L 212.419894 307.95271 
L 213.280163 300.603825 
L 214.140432 299.440692 
L 215.000701 300.603825 
L 215.86097 310.966281 
L 217.581508 310.966281 
L 219.302046 314.931506 
L 220.162315 314.40281 
L 221.022584 316.147509 
L 221.882854 315.777421 
L 222.743123 315.618812 
L 223.603392 314.032722 
L 225.32393 314.508549 
L 226.184199 314.032722 
L 227.044468 315.671682 
L 227.904737 315.88316 
L 228.765006 317.62786 
L 229.625275 318.526644 
L 230.485544 317.839338 
L 231.345814 324.183699 
L 232.206083 323.919351 
L 233.066352 330.316581 
L 234.78689 330.157972 
L 235.647159 329.206318 
L 237.367697 329.100579 
L 239.088235 329.312057 
L 239.948504 328.148924 
L 240.808773 328.783361 
L 241.669043 329.100579 
L 242.529312 331.955541 
L 244.24985 351.305841 
L 245.110119 353.526367 
L 245.970388 354.74237 
L 246.830657 365.104825 
L 247.690926 372.718058 
L 248.551195 374.09267 
L 249.411464 374.885715 
L 251.132003 374.779975 
L 251.992272 374.515627 
L 252.852541 377.582068 
L 253.71281 377.846416 
L 254.573079 378.322243 
L 255.433348 378.322243 
L 256.293617 378.90381 
L 257.153886 379.062419 
L 258.014155 377.687807 
L 258.874424 377.476329 
L 259.734693 377.423459 
L 260.594962 377.846416 
L 261.455232 377.634938 
L 262.315501 378.216504 
L 264.036039 378.586592 
L 264.896308 379.221028 
L 265.756577 379.115289 
L 266.616846 379.168158 
L 267.477115 379.379637 
L 268.337384 379.379637 
L 269.197653 379.538246 
L 270.057922 380.43703 
L 272.63873 380.4899 
L 273.498999 380.43703 
L 274.359268 381.441554 
L 276.079806 381.494424 
L 276.940075 381.335815 
L 277.800344 381.441554 
L 278.660613 382.763296 
L 280.381151 382.657557 
L 282.10169 382.763296 
L 284.682497 382.498948 
L 285.542766 382.393208 
L 286.403035 382.551817 
L 288.123573 382.446078 
L 288.983842 382.446078 
L 289.844111 382.181729 
L 291.56465 382.181729 
L 292.424919 384.930952 
L 293.285188 383.397732 
L 294.145457 383.556341 
L 295.005726 383.291993 
L 295.865995 383.239123 
L 297.586533 383.344862 
L 298.446802 383.291993 
L 301.02761 383.71495 
L 303.608417 383.450602 
L 304.468686 382.869035 
L 305.328955 380.278421 
L 306.189224 380.066943 
L 308.770031 380.172682 
L 310.490569 379.908334 
L 311.350839 380.172682 
L 316.512453 379.908334 
L 317.372722 379.591116 
L 318.232991 379.538246 
L 319.953529 379.643985 
L 320.813798 379.273898 
L 323.394606 379.115289 
L 324.254875 378.692331 
L 325.975413 378.692331 
L 326.835682 376.101717 
L 327.695951 377.740677 
L 328.55622 377.582068 
L 329.416489 377.846416 
L 330.276758 377.952156 
L 331.137028 377.740677 
L 334.578104 377.529198 
L 335.438373 377.634938 
L 336.298642 376.841893 
L 338.01918 376.736153 
L 338.879449 377.159111 
L 339.739718 379.643985 
L 340.599987 379.855464 
L 344.901333 380.172682 
L 347.48214 379.696855 
L 348.342409 379.908334 
L 350.923217 380.172682 
L 351.783486 380.54277 
L 352.643755 380.648509 
L 353.504024 380.225552 
L 354.364293 380.43703 
L 355.224562 380.965727 
L 356.084831 381.230075 
L 356.9451 381.177206 
L 357.805369 381.282945 
L 358.665638 381.917381 
L 360.386176 381.758772 
L 361.246446 384.507995 
L 363.827253 384.402256 
L 366.40806 384.666604 
L 368.128598 384.507995 
L 369.849136 384.455125 
L 370.709406 385.30104 
L 371.569675 385.565389 
L 374.150482 385.935476 
L 377.591558 385.459649 
L 378.451827 385.565389 
L 379.312096 385.459649 
L 380.172365 385.671128 
L 381.032635 384.349386 
L 381.892904 381.494424 
L 382.753173 380.648509 
L 383.613442 379.379637 
L 385.33398 379.326767 
L 386.194249 378.216504 
L 387.054518 378.005025 
L 387.914787 378.480852 
L 388.775056 368.805702 
L 389.635325 368.647093 
L 391.355864 368.594224 
L 392.216133 368.488484 
L 393.076402 366.690916 
L 394.79694 366.585176 
L 395.657209 366.320828 
L 396.517478 366.267958 
L 397.377747 365.157695 
L 399.098285 365.369174 
L 401.679093 365.316304 
L 404.2599 365.422043 
L 405.120169 365.104825 
L 407.700976 365.104825 
L 412.002322 364.36465 
L 412.862591 363.941693 
L 413.72286 364.047432 
L 414.583129 363.677344 
L 415.443398 365.422043 
L 416.303667 368.329875 
L 417.163936 369.22866 
L 418.024205 369.493008 
L 418.884474 369.281529 
L 419.744743 369.281529 
L 421.465282 369.810226 
L 422.325551 369.704487 
L 423.18582 379.115289 
L 424.046089 379.168158 
L 424.906358 379.062419 
L 425.766627 377.31772 
L 426.626896 377.423459 
L 427.487165 379.273898 
L 428.347434 379.115289 
L 429.207703 379.273898 
L 430.067972 379.591116 
L 430.928242 379.696855 
L 431.788511 380.807118 
L 433.509049 380.701379 
L 435.229587 380.701379 
L 436.950125 380.807118 
L 437.810394 381.071466 
L 439.530932 380.807118 
L 442.11174 380.754248 
L 443.832278 381.071466 
L 444.692547 381.071466 
L 446.413085 380.648509 
L 447.273354 380.912857 
L 448.133623 380.54277 
L 448.993892 380.807118 
L 449.854161 380.4899 
L 450.714431 380.4899 
L 451.5747 380.278421 
L 452.434969 380.859988 
L 453.295238 381.124336 
L 454.155507 380.912857 
L 455.015776 381.600163 
L 455.876045 381.547293 
L 457.596583 381.864511 
L 458.456852 382.02312 
L 459.317121 382.02312 
L 460.17739 383.873559 
L 461.03766 383.239123 
L 461.897929 383.186253 
L 462.758198 383.503471 
L 466.199274 382.763296 
L 467.919812 363.095778 
L 468.780081 363.254387 
L 469.64035 355.271066 
L 470.50062 355.429675 
L 471.360889 354.002194 
L 472.221158 349.666881 
L 473.081427 347.763573 
L 473.941696 344.538523 
L 474.801965 334.070328 
L 475.662234 327.038661 
L 476.522503 324.289438 
L 477.382772 313.768374 
L 479.10331 300.233737 
L 479.963579 300.550956 
L 480.823849 298.383299 
L 481.684118 288.073713 
L 482.544387 279.826044 
L 483.404656 278.610042 
L 484.264925 278.87439 
L 485.125194 278.92726 
L 485.985463 276.442385 
L 488.56627 275.860819 
L 489.426539 274.168989 
L 490.286809 273.005856 
L 491.147078 272.847247 
L 492.007347 272.952987 
L 492.867616 272.054202 
L 494.588154 272.265681 
L 495.448423 272.741508 
L 496.308692 272.582899 
L 497.168961 271.419766 
L 498.02923 271.261157 
L 498.889499 271.366896 
L 499.749768 271.736984 
L 500.610038 271.472636 
L 502.330576 290.822936 
L 503.190845 289.712673 
L 504.051114 297.273036 
L 504.911383 296.268512 
L 505.771652 297.114427 
L 506.631921 301.291131 
L 507.49219 303.353048 
L 508.352459 307.001056 
L 509.212728 315.93603 
L 510.072997 320.112734 
L 510.933267 321.963173 
L 511.793536 332.06128 
L 513.514074 345.701656 
L 514.374343 345.437307 
L 515.234612 347.975052 
L 516.094881 357.96742 
L 516.95515 366.267958 
L 517.815419 367.483961 
L 519.535957 367.53683 
L 520.396227 370.180314 
L 521.256496 370.656141 
L 522.116765 370.233184 
L 522.977034 370.497532 
L 523.837303 372.136492 
L 524.697572 373.246755 
L 525.557841 373.352494 
L 526.41811 373.246755 
L 527.278379 373.563973 
L 528.998917 373.193885 
L 530.719456 373.405364 
L 531.579725 373.98693 
L 534.160532 373.98693 
L 535.88107 374.832845 
L 536.741339 374.674236 
L 537.601608 375.57302 
L 538.461877 376.048848 
L 539.322146 376.894762 
L 540.182416 377.423459 
L 542.763223 376.154587 
L 543.623492 377.370589 
L 544.483761 380.331291 
L 545.34403 380.754248 
L 548.785106 381.282945 
L 549.645375 381.124336 
L 550.505645 381.388684 
L 551.365914 380.4899 
L 552.226183 380.595639 
L 553.086452 370.81475 
L 553.946721 370.391793 
L 554.80699 363.412996 
L 555.667259 363.412996 
L 556.527528 364.047432 
L 557.387797 363.095778 
L 558.248066 360.505164 
L 559.108335 359.342031 
L 559.968605 348.979575 
L 560.828874 347.076267 
L 561.689143 343.42826 
L 562.549412 342.688084 
L 563.409681 341.577821 
L 564.26995 335.762157 
L 565.130219 333.64737 
L 565.990488 334.228937 
L 566.850757 329.470666 
L 567.711026 328.096055 
L 568.571295 327.937446 
L 569.431564 328.096055 
L 572.012372 328.201794 
L 572.872641 328.254664 
L 573.73291 325.241092 
L 574.593179 325.293962 
L 575.453448 325.822659 
L 578.034255 326.668574 
L 578.894524 326.721443 
L 579.754793 327.25014 
L 580.615063 327.25014 
L 582.335601 327.461619 
L 584.056139 327.514488 
L 584.916408 327.778837 
L 585.776677 328.730491 
L 586.636946 328.730491 
L 587.497215 338.299902 
L 588.357484 338.775729 
L 589.217753 345.648786 
L 590.938292 345.543047 
L 591.798561 346.706179 
L 592.65883 349.455402 
L 593.519099 350.407056 
L 594.379368 360.769512 
L 595.239637 361.774036 
L 596.099906 366.00361 
L 596.960175 366.849525 
L 597.820444 368.118397 
L 598.680713 373.563973 
L 599.540982 374.145539 
L 600.401252 373.828321 
L 601.261521 378.956679 
L 602.12179 380.225552 
L 602.982059 378.586592 
L 606.423135 378.480852 
L 607.283404 378.322243 
L 608.143673 380.912857 
L 609.864212 380.225552 
L 612.445019 380.119812 
L 614.165557 379.696855 
L 615.025826 379.908334 
L 621.907979 380.331291 
L 622.768248 380.225552 
L 623.628517 380.384161 
L 627.069593 380.384161 
L 627.929862 380.701379 
L 628.790131 380.648509 
L 629.650401 381.547293 
L 630.51067 381.335815 
L 631.370939 381.388684 
L 632.231208 381.282945 
L 633.091477 381.653033 
L 633.951746 383.080514 
L 634.812015 383.397732 
L 635.672284 383.080514 
L 636.532553 383.133384 
L 637.392822 384.825213 
L 638.253091 384.825213 
L 639.11336 382.974775 
L 641.694168 383.027644 
L 642.554437 383.556341 
L 643.414706 383.609211 
L 644.274975 382.974775 
L 645.135244 382.816166 
L 645.995513 382.974775 
L 646.855782 382.869035 
L 647.716051 381.441554 
L 648.57632 381.494424 
L 650.296859 380.859988 
L 651.157128 380.54277 
L 652.017397 380.54277 
L 652.877666 380.331291 
L 653.737935 380.4899 
L 656.318742 380.066943 
L 657.179011 379.696855 
L 658.03928 379.591116 
L 658.899549 378.533722 
L 659.759819 378.533722 
L 660.620088 378.692331 
L 662.340626 378.216504 
L 663.200895 378.427983 
L 664.921433 378.533722 
L 665.781702 378.269374 
L 666.641971 378.216504 
L 667.50224 377.740677 
L 669.222778 377.740677 
L 670.943317 377.634938 
L 672.663855 377.529198 
L 673.524124 379.168158 
L 674.384393 379.062419 
L 676.104931 379.168158 
L 676.9652 379.221028 
L 677.825469 378.269374 
L 678.685738 379.221028 
L 679.546008 378.586592 
L 680.406277 378.533722 
L 681.266546 378.110765 
L 682.126815 378.745201 
L 684.707622 379.326767 
L 685.567891 379.115289 
L 686.42816 377.106241 
L 687.288429 377.31772 
L 688.148698 376.471805 
L 689.008967 376.471805 
L 689.869237 376.313196 
L 690.729506 376.313196 
L 692.450044 376.630414 
L 693.310313 377.687807 
L 694.170582 377.687807 
L 695.030851 377.529198 
L 695.89112 377.740677 
L 697.611658 377.370589 
L 698.471927 377.26485 
L 700.192466 377.582068 
L 701.052735 377.740677 
L 701.913004 378.216504 
L 702.773273 378.427983 
L 706.214349 378.639461 
L 707.074618 378.163634 
L 708.795156 378.586592 
L 709.655426 378.427983 
L 711.375964 378.375113 
L 712.236233 379.538246 
L 713.096502 379.485376 
L 713.956771 380.225552 
L 714.81704 380.172682 
L 715.677309 380.648509 
L 716.537578 381.653033 
L 718.258116 381.388684 
L 719.118385 381.388684 
L 719.978655 381.811642 
L 720.838924 383.71495 
L 721.699193 383.71495 
L 722.559462 384.560865 
L 724.28 384.930952 
L 724.28 384.930952 
" style="fill:none;stroke:#ff7f0e;stroke-linecap:square;stroke-width:1.5;"/>
   </g>
   <g id="line2d_20">
    <path clip-path="url(#p42797142af)" d="M 70.475494 372.295101 
L 71.335763 375.890238 
L 72.196033 376.471805 
L 73.056302 379.062419 
L 73.916571 380.595639 
L 74.77684 380.54277 
L 75.637109 380.278421 
L 76.497378 380.54277 
L 77.357647 380.4899 
L 78.217916 381.018597 
L 79.078185 379.855464 
L 80.798723 380.595639 
L 81.658992 380.4899 
L 82.519262 380.912857 
L 83.379531 382.551817 
L 84.2398 382.446078 
L 85.100069 381.653033 
L 85.960338 381.282945 
L 89.401414 381.071466 
L 90.261683 381.864511 
L 91.121952 382.12886 
L 91.982222 382.921905 
L 92.842491 382.340339 
L 93.70276 381.600163 
L 94.563029 380.595639 
L 97.143836 379.696855 
L 98.004105 379.749725 
L 98.864374 379.221028 
L 100.584912 379.273898 
L 101.445181 378.85094 
L 103.16572 378.639461 
L 104.025989 379.009549 
L 104.886258 378.745201 
L 106.606796 378.639461 
L 107.467065 378.216504 
L 108.327334 378.216504 
L 109.187603 378.533722 
L 110.047872 378.375113 
L 111.768411 378.375113 
L 112.62868 378.216504 
L 113.488949 379.485376 
L 114.349218 379.538246 
L 116.069756 380.172682 
L 116.930025 379.855464 
L 117.790294 379.749725 
L 118.650563 379.855464 
L 119.510832 380.595639 
L 120.371101 380.965727 
L 122.09164 381.124336 
L 122.951909 370.656141 
L 123.812178 370.391793 
L 124.672447 370.338923 
L 125.532716 368.752833 
L 126.392985 367.483961 
L 128.113523 368.594224 
L 128.973792 369.598747 
L 129.834061 369.968835 
L 130.69433 369.704487 
L 131.554599 370.338923 
L 132.414869 369.440138 
L 133.275138 369.915966 
L 134.135407 369.968835 
L 134.995676 369.757357 
L 135.855945 368.118397 
L 136.716214 365.95074 
L 138.436752 365.422043 
L 139.297021 365.157695 
L 140.15729 364.258911 
L 141.877829 363.941693 
L 142.738098 364.100302 
L 143.598367 362.937169 
L 144.458636 363.148647 
L 145.318905 362.038384 
L 146.179174 361.826906 
L 147.039443 361.985515 
L 147.899712 361.932645 
L 148.759981 360.610903 
L 149.62025 360.980991 
L 150.480519 360.822382 
L 151.340788 360.399425 
L 152.201058 360.399425 
L 153.061327 360.240816 
L 153.921596 359.764988 
L 155.642134 359.659249 
L 156.502403 359.659249 
L 157.362672 370.180314 
L 158.222941 370.074575 
L 159.08321 370.127444 
L 159.943479 371.290577 
L 160.803748 372.189361 
L 161.664018 371.819274 
L 162.524287 372.34797 
L 163.384556 372.083622 
L 164.244825 372.083622 
L 165.105094 372.559449 
L 165.965363 366.532307 
L 166.825632 367.431091 
L 167.685901 367.53683 
L 168.54617 367.325352 
L 169.406439 367.64257 
L 171.126977 371.502056 
L 171.987247 371.819274 
L 172.847516 371.872143 
L 173.707785 372.242231 
L 174.568054 372.083622 
L 175.428323 372.189361 
L 176.288592 372.770928 
L 177.148861 372.559449 
L 178.00913 372.876667 
L 178.869399 372.40084 
L 179.729668 373.193885 
L 180.589937 373.352494 
L 181.450207 372.982407 
L 182.310476 372.982407 
L 183.170745 374.621366 
L 184.031014 374.515627 
L 184.891283 374.727106 
L 185.751552 375.467281 
L 186.611821 374.938584 
L 187.47209 374.779975 
L 188.332359 375.520151 
L 189.192628 375.62589 
L 190.913166 375.150063 
L 191.773436 375.150063 
L 192.633705 374.727106 
L 193.493974 373.775452 
L 195.214512 374.0398 
L 196.074781 374.515627 
L 196.93505 374.462757 
L 197.795319 374.727106 
L 198.655588 374.357018 
L 199.515857 374.409888 
L 200.376126 380.278421 
L 201.236395 379.908334 
L 202.096665 379.855464 
L 202.956934 379.961203 
L 203.817203 379.855464 
L 204.677472 379.908334 
L 205.537741 380.4899 
L 206.39801 379.326767 
L 207.258279 379.326767 
L 208.118548 379.009549 
L 208.978817 379.908334 
L 209.839086 378.533722 
L 210.699355 378.480852 
L 211.559625 376.577544 
L 212.419894 376.894762 
L 213.280163 376.630414 
L 214.140432 376.683284 
L 215.000701 376.577544 
L 215.86097 376.894762 
L 216.721239 376.947632 
L 220.162315 376.524675 
L 221.022584 376.260326 
L 221.882854 376.260326 
L 222.743123 375.731629 
L 223.603392 375.414411 
L 224.463661 375.67876 
L 225.32393 375.784499 
L 226.184199 375.520151 
L 227.044468 376.260326 
L 228.765006 376.048848 
L 229.625275 376.313196 
L 232.206083 376.577544 
L 233.066352 376.947632 
L 233.926621 376.894762 
L 234.78689 375.837369 
L 235.647159 376.048848 
L 236.507428 376.101717 
L 237.367697 375.995978 
L 239.088235 375.995978 
L 239.948504 375.731629 
L 240.808773 376.894762 
L 242.529312 377.21198 
L 243.389581 376.789023 
L 244.24985 377.476329 
L 245.110119 377.476329 
L 245.970388 379.538246 
L 246.830657 379.273898 
L 247.690926 379.485376 
L 248.551195 379.432507 
L 249.411464 379.643985 
L 251.992272 379.379637 
L 252.852541 379.696855 
L 253.71281 379.538246 
L 254.573079 378.90381 
L 255.433348 379.749725 
L 256.293617 380.014073 
L 257.153886 379.643985 
L 258.014155 379.802594 
L 258.874424 379.485376 
L 259.734693 379.485376 
L 260.594962 379.643985 
L 261.455232 379.643985 
L 262.315501 380.701379 
L 263.17577 381.018597 
L 264.036039 380.965727 
L 265.756577 380.43703 
L 267.477115 380.331291 
L 268.337384 380.331291 
L 269.197653 381.547293 
L 270.057922 381.230075 
L 270.918191 381.177206 
L 271.778461 381.282945 
L 274.359268 381.177206 
L 276.079806 381.230075 
L 276.940075 381.124336 
L 278.660613 382.02312 
L 280.381151 381.811642 
L 281.241421 382.710426 
L 282.10169 383.397732 
L 282.961959 383.820689 
L 283.822228 383.291993 
L 284.682497 383.291993 
L 285.542766 383.080514 
L 286.403035 383.344862 
L 287.263304 383.239123 
L 288.123573 383.556341 
L 288.983842 384.190777 
L 289.844111 383.556341 
L 290.70438 383.556341 
L 291.56465 384.402256 
L 293.285188 384.402256 
L 294.145457 384.613734 
L 295.005726 384.507995 
L 296.726264 383.926429 
L 298.446802 383.873559 
L 300.16734 384.349386 
L 301.02761 384.085038 
L 301.887879 384.085038 
L 303.608417 383.133384 
L 304.468686 383.344862 
L 305.328955 382.921905 
L 306.189224 382.816166 
L 307.049493 382.551817 
L 307.909762 382.551817 
L 309.6303 381.917381 
L 310.490569 381.917381 
L 311.350839 382.07599 
L 312.211108 381.970251 
L 313.071377 382.287469 
L 314.791915 382.393208 
L 315.652184 382.181729 
L 316.512453 381.653033 
L 317.372722 381.600163 
L 318.232991 382.07599 
L 319.09326 381.970251 
L 319.953529 382.07599 
L 320.813798 381.970251 
L 321.674068 381.494424 
L 322.534337 381.230075 
L 323.394606 381.124336 
L 324.254875 381.811642 
L 325.115144 381.758772 
L 327.695951 381.970251 
L 328.55622 381.811642 
L 329.416489 381.441554 
L 331.997297 381.917381 
L 334.578104 381.811642 
L 335.438373 382.12886 
L 336.298642 382.02312 
L 337.158911 382.234599 
L 338.01918 382.604687 
L 338.879449 382.604687 
L 339.739718 382.921905 
L 340.599987 382.710426 
L 341.460257 383.027644 
L 342.320526 382.921905 
L 343.180795 383.609211 
L 345.761602 383.820689 
L 347.48214 383.609211 
L 348.342409 383.344862 
L 349.202678 383.239123 
L 350.062947 383.450602 
L 350.923217 383.979298 
L 352.643755 383.979298 
L 354.364293 384.296516 
L 355.224562 384.349386 
L 356.084831 384.930952 
L 356.9451 384.878083 
L 358.665638 384.983822 
L 360.386176 384.085038 
L 361.246446 383.926429 
L 365.547791 384.349386 
L 367.268329 384.296516 
L 368.128598 383.344862 
L 370.709406 383.239123 
L 371.569675 383.397732 
L 372.429944 383.397732 
L 373.290213 383.66208 
L 374.150482 383.76782 
L 375.010751 384.137907 
L 380.172365 384.137907 
L 381.032635 384.402256 
L 381.892904 383.926429 
L 383.613442 384.349386 
L 384.473711 384.349386 
L 386.194249 383.820689 
L 389.635325 383.450602 
L 390.495594 383.450602 
L 392.216133 362.77856 
L 393.076402 362.355602 
L 393.936671 352.416104 
L 394.79694 351.834538 
L 395.657209 351.993147 
L 396.517478 351.46445 
L 397.377747 351.51732 
L 398.238016 351.940277 
L 399.098285 352.046016 
L 399.958554 341.683561 
L 401.679093 341.472082 
L 402.539362 342.317997 
L 403.399631 342.212257 
L 404.2599 342.476606 
L 405.120169 342.317997 
L 405.980438 342.423736 
L 407.700976 342.106518 
L 408.561245 341.101994 
L 410.281783 320.165604 
L 411.142053 319.795516 
L 412.862591 298.859126 
L 413.72286 299.017735 
L 415.443398 299.123474 
L 416.303667 299.652171 
L 417.163936 299.81078 
L 418.024205 298.753387 
L 418.884474 298.647647 
L 421.465282 299.282083 
L 422.325551 299.176344 
L 424.046089 278.398563 
L 424.906358 277.922736 
L 426.626896 298.594778 
L 427.487165 288.54954 
L 428.347434 298.647647 
L 429.207703 299.652171 
L 430.067972 299.705041 
L 430.928242 289.977021 
L 431.788511 289.871282 
L 432.64878 279.350217 
L 434.369318 279.297347 
L 435.229587 268.987761 
L 436.089856 268.987761 
L 437.810394 269.410719 
L 439.530932 248.580068 
L 440.391202 248.580068 
L 441.251471 238.217612 
L 442.11174 238.270482 
L 442.972009 239.327875 
L 443.832278 239.327875 
L 444.692547 249.320243 
L 445.552816 239.327875 
L 447.273354 239.327875 
L 448.133623 239.116396 
L 450.714431 237.953264 
L 451.5747 227.432199 
L 452.434969 228.278114 
L 453.295238 228.436723 
L 456.736314 186.722551 
L 457.596583 186.722551 
L 458.456852 197.243616 
L 459.317121 197.560834 
L 461.03766 176.888792 
L 461.897929 187.356987 
L 462.758198 187.727075 
L 463.618467 177.20601 
L 464.478736 176.835922 
L 465.339005 187.145509 
L 466.199274 186.9869 
L 467.059543 195.816135 
L 467.919812 195.816135 
L 469.64035 216.488177 
L 470.50062 216.646786 
L 471.360889 213.633214 
L 472.221158 213.263127 
L 473.941696 232.719166 
L 474.801965 231.133076 
L 475.662234 241.231183 
L 476.522503 241.072574 
L 477.382772 239.486484 
L 478.243041 249.690331 
L 479.10331 249.478852 
L 481.684118 279.878914 
L 482.544387 279.297347 
L 484.264925 279.455956 
L 485.125194 279.984653 
L 485.985463 289.818412 
L 486.845732 289.606933 
L 487.706001 287.016319 
L 488.56627 296.53286 
L 489.426539 303.194439 
L 492.007347 333.224413 
L 492.867616 332.272759 
L 493.727885 332.431368 
L 494.588154 342.952433 
L 495.448423 351.41158 
L 496.308692 351.358711 
L 497.168961 349.87836 
L 498.02923 360.135076 
L 498.889499 360.505164 
L 499.749768 360.716643 
L 500.610038 358.126029 
L 501.470307 357.650202 
L 502.330576 357.703071 
L 503.190845 357.068635 
L 504.051114 355.958372 
L 504.911383 355.746893 
L 505.771652 350.671405 
L 506.631921 350.882884 
L 507.49219 351.41158 
L 508.352459 352.416104 
L 509.212728 352.310365 
L 510.072997 348.979575 
L 510.933267 348.18653 
L 511.793536 349.666881 
L 512.653805 349.666881 
L 513.514074 348.133661 
L 514.374343 347.657834 
L 515.234612 348.29227 
L 516.094881 348.027921 
L 516.95515 346.917658 
L 517.815419 347.287746 
L 518.675688 347.499224 
L 519.535957 347.552094 
L 520.396227 348.18653 
L 521.256496 348.398009 
L 522.116765 350.830014 
L 522.977034 350.354187 
L 523.837303 351.993147 
L 524.697572 352.891931 
L 525.557841 352.839061 
L 526.41811 352.944801 
L 527.278379 351.781668 
L 528.138648 351.200102 
L 528.998917 350.935753 
L 529.859186 352.839061 
L 530.719456 352.521843 
L 531.579725 354.002194 
L 533.300263 354.107934 
L 534.160532 354.107934 
L 535.020801 356.751417 
L 535.88107 358.919074 
L 536.741339 358.760465 
L 537.601608 358.866204 
L 538.461877 360.240816 
L 539.322146 360.293685 
L 540.182416 368.329875 
L 541.042685 368.488484 
L 541.902954 368.224136 
L 542.763223 368.171266 
L 543.623492 369.651617 
L 544.483761 373.299625 
L 545.34403 374.357018 
L 546.204299 373.088146 
L 547.064568 373.141016 
L 547.924837 375.150063 
L 548.785106 375.520151 
L 549.645375 375.520151 
L 550.505645 375.150063 
L 551.365914 377.000502 
L 552.226183 376.947632 
L 553.086452 375.414411 
L 553.946721 375.202933 
L 554.80699 375.202933 
L 556.527528 375.520151 
L 557.387797 377.000502 
L 558.248066 379.062419 
L 559.108335 378.639461 
L 560.828874 378.79807 
L 561.689143 380.807118 
L 562.549412 381.282945 
L 563.409681 381.441554 
L 564.26995 380.807118 
L 565.130219 381.177206 
L 565.990488 381.177206 
L 566.850757 381.018597 
L 567.711026 380.595639 
L 568.571295 380.54277 
L 569.431564 380.701379 
L 571.152103 380.595639 
L 572.012372 381.071466 
L 574.593179 381.124336 
L 575.453448 381.071466 
L 579.754793 381.494424 
L 580.615063 382.710426 
L 582.335601 383.027644 
L 583.19587 382.921905 
L 584.056139 382.657557 
L 584.916408 383.66208 
L 586.636946 383.344862 
L 587.497215 384.666604 
L 588.357484 384.930952 
L 589.217753 384.825213 
L 590.078023 384.402256 
L 591.798561 384.296516 
L 592.65883 384.032168 
L 593.519099 384.349386 
L 594.379368 384.455125 
L 595.239637 384.402256 
L 598.680713 384.825213 
L 600.401252 384.613734 
L 601.261521 384.930952 
L 602.12179 385.089561 
L 603.842328 384.983822 
L 604.702597 384.930952 
L 605.562866 385.142431 
L 608.143673 384.772343 
L 609.864212 384.455125 
L 610.724481 384.349386 
L 611.58475 383.979298 
L 614.165557 383.609211 
L 615.886095 383.66208 
L 616.746364 383.291993 
L 617.606633 383.397732 
L 618.466902 383.820689 
L 619.327171 383.76782 
L 620.187441 383.926429 
L 621.04771 383.820689 
L 621.907979 383.873559 
L 622.768248 383.609211 
L 625.349055 384.085038 
L 626.209324 383.71495 
L 627.069593 383.979298 
L 628.790131 384.085038 
L 629.650401 383.66208 
L 630.51067 383.556341 
L 631.370939 383.609211 
L 632.231208 383.450602 
L 633.091477 383.873559 
L 633.951746 383.76782 
L 634.812015 383.820689 
L 635.672284 383.609211 
L 636.532553 383.71495 
L 637.392822 383.291993 
L 638.253091 383.291993 
L 639.11336 382.657557 
L 640.833899 382.287469 
L 642.554437 382.604687 
L 645.135244 383.133384 
L 645.995513 382.287469 
L 648.57632 382.551817 
L 650.296859 382.498948 
L 651.157128 382.974775 
L 652.017397 382.657557 
L 652.877666 382.551817 
L 653.737935 382.604687 
L 654.598204 382.446078 
L 655.458473 382.604687 
L 656.318742 382.393208 
L 657.179011 382.498948 
L 658.03928 382.393208 
L 658.899549 382.604687 
L 659.759819 382.498948 
L 660.620088 382.921905 
L 661.480357 383.080514 
L 662.340626 382.393208 
L 663.200895 382.604687 
L 664.061164 382.974775 
L 666.641971 382.869035 
L 667.50224 382.816166 
L 668.362509 383.027644 
L 669.222778 383.080514 
L 670.083048 382.763296 
L 672.663855 382.657557 
L 673.524124 383.291993 
L 674.384393 382.816166 
L 675.244662 383.080514 
L 676.104931 383.080514 
L 676.9652 383.239123 
L 679.546008 383.133384 
L 680.406277 383.820689 
L 681.266546 382.921905 
L 682.126815 382.234599 
L 683.847353 382.446078 
L 684.707622 381.811642 
L 688.148698 381.653033 
L 689.869237 381.917381 
L 690.729506 382.181729 
L 692.450044 382.393208 
L 693.310313 382.234599 
L 694.170582 382.340339 
L 695.89112 382.07599 
L 699.332196 382.181729 
L 702.773273 382.393208 
L 703.633542 382.181729 
L 704.493811 382.340339 
L 705.35408 382.234599 
L 706.214349 382.869035 
L 707.934887 382.869035 
L 708.795156 383.609211 
L 710.515695 382.974775 
L 712.236233 382.816166 
L 713.096502 382.657557 
L 713.956771 382.340339 
L 714.81704 382.604687 
L 715.677309 383.503471 
L 716.537578 384.032168 
L 717.397847 383.66208 
L 718.258116 383.609211 
L 719.118385 383.873559 
L 719.978655 383.397732 
L 720.838924 383.71495 
L 722.559462 383.820689 
L 723.419731 383.926429 
L 724.28 383.76782 
L 724.28 383.76782 
" style="fill:none;stroke:#2ca02c;stroke-linecap:square;stroke-width:1.5;"/>
   </g>
   <g id="patch_3">
    <path d="M 36.925 404.12 
L 36.925 26.16 
" style="fill:none;stroke:#000000;stroke-linecap:square;stroke-linejoin:miter;stroke-width:0.8;"/>
   </g>
   <g id="patch_4">
    <path d="M 724.28 404.12 
L 724.28 26.16 
" style="fill:none;stroke:#000000;stroke-linecap:square;stroke-linejoin:miter;stroke-width:0.8;"/>
   </g>
   <g id="patch_5">
    <path d="M 36.925 404.12 
L 724.28 404.12 
" style="fill:none;stroke:#000000;stroke-linecap:square;stroke-linejoin:miter;stroke-width:0.8;"/>
   </g>
   <g id="patch_6">
    <path d="M 36.925 26.16 
L 724.28 26.16 
" style="fill:none;stroke:#000000;stroke-linecap:square;stroke-linejoin:miter;stroke-width:0.8;"/>
   </g>
   <g id="text_18">
    <!-- gridworld_5x5_50_4_4_1337__dqn: episode duration, steps, MA=40 -->
    <defs>
     <path d="M 45.40625 27.984375 
Q 45.40625 37.75 41.375 43.109375 
Q 37.359375 48.484375 30.078125 48.484375 
Q 22.859375 48.484375 18.828125 43.109375 
Q 14.796875 37.75 14.796875 27.984375 
Q 14.796875 18.265625 18.828125 12.890625 
Q 22.859375 7.515625 30.078125 7.515625 
Q 37.359375 7.515625 41.375 12.890625 
Q 45.40625 18.265625 45.40625 27.984375 
z
M 54.390625 6.78125 
Q 54.390625 -7.171875 48.1875 -13.984375 
Q 42 -20.796875 29.203125 -20.796875 
Q 24.46875 -20.796875 20.265625 -20.09375 
Q 16.0625 -19.390625 12.109375 -17.921875 
L 12.109375 -9.1875 
Q 16.0625 -11.328125 19.921875 -12.34375 
Q 23.78125 -13.375 27.78125 -13.375 
Q 36.625 -13.375 41.015625 -8.765625 
Q 45.40625 -4.15625 45.40625 5.171875 
L 45.40625 9.625 
Q 42.625 4.78125 38.28125 2.390625 
Q 33.9375 0 27.875 0 
Q 17.828125 0 11.671875 7.65625 
Q 5.515625 15.328125 5.515625 27.984375 
Q 5.515625 40.671875 11.671875 48.328125 
Q 17.828125 56 27.875 56 
Q 33.9375 56 38.28125 53.609375 
Q 42.625 51.21875 45.40625 46.390625 
L 45.40625 54.6875 
L 54.390625 54.6875 
z
" id="DejaVuSans-103"/>
     <path d="M 41.109375 46.296875 
Q 39.59375 47.171875 37.8125 47.578125 
Q 36.03125 48 33.890625 48 
Q 26.265625 48 22.1875 43.046875 
Q 18.109375 38.09375 18.109375 28.8125 
L 18.109375 0 
L 9.078125 0 
L 9.078125 54.6875 
L 18.109375 54.6875 
L 18.109375 46.1875 
Q 20.953125 51.171875 25.484375 53.578125 
Q 30.03125 56 36.53125 56 
Q 37.453125 56 38.578125 55.875 
Q 39.703125 55.765625 41.0625 55.515625 
z
" id="DejaVuSans-114"/>
     <path d="M 9.421875 54.6875 
L 18.40625 54.6875 
L 18.40625 0 
L 9.421875 0 
z
M 9.421875 75.984375 
L 18.40625 75.984375 
L 18.40625 64.59375 
L 9.421875 64.59375 
z
" id="DejaVuSans-105"/>
     <path d="M 45.40625 46.390625 
L 45.40625 75.984375 
L 54.390625 75.984375 
L 54.390625 0 
L 45.40625 0 
L 45.40625 8.203125 
Q 42.578125 3.328125 38.25 0.953125 
Q 33.9375 -1.421875 27.875 -1.421875 
Q 17.96875 -1.421875 11.734375 6.484375 
Q 5.515625 14.40625 5.515625 27.296875 
Q 5.515625 40.1875 11.734375 48.09375 
Q 17.96875 56 27.875 56 
Q 33.9375 56 38.25 53.625 
Q 42.578125 51.265625 45.40625 46.390625 
z
M 14.796875 27.296875 
Q 14.796875 17.390625 18.875 11.75 
Q 22.953125 6.109375 30.078125 6.109375 
Q 37.203125 6.109375 41.296875 11.75 
Q 45.40625 17.390625 45.40625 27.296875 
Q 45.40625 37.203125 41.296875 42.84375 
Q 37.203125 48.484375 30.078125 48.484375 
Q 22.953125 48.484375 18.875 42.84375 
Q 14.796875 37.203125 14.796875 27.296875 
z
" id="DejaVuSans-100"/>
     <path d="M 4.203125 54.6875 
L 13.1875 54.6875 
L 24.421875 12.015625 
L 35.59375 54.6875 
L 46.1875 54.6875 
L 57.421875 12.015625 
L 68.609375 54.6875 
L 77.59375 54.6875 
L 63.28125 0 
L 52.6875 0 
L 40.921875 44.828125 
L 29.109375 0 
L 18.5 0 
z
" id="DejaVuSans-119"/>
     <path d="M 30.609375 48.390625 
Q 23.390625 48.390625 19.1875 42.75 
Q 14.984375 37.109375 14.984375 27.296875 
Q 14.984375 17.484375 19.15625 11.84375 
Q 23.34375 6.203125 30.609375 6.203125 
Q 37.796875 6.203125 41.984375 11.859375 
Q 46.1875 17.53125 46.1875 27.296875 
Q 46.1875 37.015625 41.984375 42.703125 
Q 37.796875 48.390625 30.609375 48.390625 
z
M 30.609375 56 
Q 42.328125 56 49.015625 48.375 
Q 55.71875 40.765625 55.71875 27.296875 
Q 55.71875 13.875 49.015625 6.21875 
Q 42.328125 -1.421875 30.609375 -1.421875 
Q 18.84375 -1.421875 12.171875 6.21875 
Q 5.515625 13.875 5.515625 27.296875 
Q 5.515625 40.765625 12.171875 48.375 
Q 18.84375 56 30.609375 56 
z
" id="DejaVuSans-111"/>
     <path d="M 9.421875 75.984375 
L 18.40625 75.984375 
L 18.40625 0 
L 9.421875 0 
z
" id="DejaVuSans-108"/>
     <path d="M 50.984375 -16.609375 
L 50.984375 -23.578125 
L -0.984375 -23.578125 
L -0.984375 -16.609375 
z
" id="DejaVuSans-95"/>
     <path d="M 54.890625 54.6875 
L 35.109375 28.078125 
L 55.90625 0 
L 45.3125 0 
L 29.390625 21.484375 
L 13.484375 0 
L 2.875 0 
L 24.125 28.609375 
L 4.6875 54.6875 
L 15.28125 54.6875 
L 29.78125 35.203125 
L 44.28125 54.6875 
z
" id="DejaVuSans-120"/>
     <path d="M 14.796875 27.296875 
Q 14.796875 17.390625 18.875 11.75 
Q 22.953125 6.109375 30.078125 6.109375 
Q 37.203125 6.109375 41.296875 11.75 
Q 45.40625 17.390625 45.40625 27.296875 
Q 45.40625 37.203125 41.296875 42.84375 
Q 37.203125 48.484375 30.078125 48.484375 
Q 22.953125 48.484375 18.875 42.84375 
Q 14.796875 37.203125 14.796875 27.296875 
z
M 45.40625 8.203125 
Q 42.578125 3.328125 38.25 0.953125 
Q 33.9375 -1.421875 27.875 -1.421875 
Q 17.96875 -1.421875 11.734375 6.484375 
Q 5.515625 14.40625 5.515625 27.296875 
Q 5.515625 40.1875 11.734375 48.09375 
Q 17.96875 56 27.875 56 
Q 33.9375 56 38.25 53.625 
Q 42.578125 51.265625 45.40625 46.390625 
L 45.40625 54.6875 
L 54.390625 54.6875 
L 54.390625 -20.796875 
L 45.40625 -20.796875 
z
" id="DejaVuSans-113"/>
     <path d="M 54.890625 33.015625 
L 54.890625 0 
L 45.90625 0 
L 45.90625 32.71875 
Q 45.90625 40.484375 42.875 44.328125 
Q 39.84375 48.1875 33.796875 48.1875 
Q 26.515625 48.1875 22.3125 43.546875 
Q 18.109375 38.921875 18.109375 30.90625 
L 18.109375 0 
L 9.078125 0 
L 9.078125 54.6875 
L 18.109375 54.6875 
L 18.109375 46.1875 
Q 21.34375 51.125 25.703125 53.5625 
Q 30.078125 56 35.796875 56 
Q 45.21875 56 50.046875 50.171875 
Q 54.890625 44.34375 54.890625 33.015625 
z
" id="DejaVuSans-110"/>
     <path d="M 11.71875 12.40625 
L 22.015625 12.40625 
L 22.015625 0 
L 11.71875 0 
z
M 11.71875 51.703125 
L 22.015625 51.703125 
L 22.015625 39.3125 
L 11.71875 39.3125 
z
" id="DejaVuSans-58"/>
     <path id="DejaVuSans-32"/>
     <path d="M 56.203125 29.59375 
L 56.203125 25.203125 
L 14.890625 25.203125 
Q 15.484375 15.921875 20.484375 11.0625 
Q 25.484375 6.203125 34.421875 6.203125 
Q 39.59375 6.203125 44.453125 7.46875 
Q 49.3125 8.734375 54.109375 11.28125 
L 54.109375 2.78125 
Q 49.265625 0.734375 44.1875 -0.34375 
Q 39.109375 -1.421875 33.890625 -1.421875 
Q 20.796875 -1.421875 13.15625 6.1875 
Q 5.515625 13.8125 5.515625 26.8125 
Q 5.515625 40.234375 12.765625 48.109375 
Q 20.015625 56 32.328125 56 
Q 43.359375 56 49.78125 48.890625 
Q 56.203125 41.796875 56.203125 29.59375 
z
M 47.21875 32.234375 
Q 47.125 39.59375 43.09375 43.984375 
Q 39.0625 48.390625 32.421875 48.390625 
Q 24.90625 48.390625 20.390625 44.140625 
Q 15.875 39.890625 15.1875 32.171875 
z
" id="DejaVuSans-101"/>
     <path d="M 18.109375 8.203125 
L 18.109375 -20.796875 
L 9.078125 -20.796875 
L 9.078125 54.6875 
L 18.109375 54.6875 
L 18.109375 46.390625 
Q 20.953125 51.265625 25.265625 53.625 
Q 29.59375 56 35.59375 56 
Q 45.5625 56 51.78125 48.09375 
Q 58.015625 40.1875 58.015625 27.296875 
Q 58.015625 14.40625 51.78125 6.484375 
Q 45.5625 -1.421875 35.59375 -1.421875 
Q 29.59375 -1.421875 25.265625 0.953125 
Q 20.953125 3.328125 18.109375 8.203125 
z
M 48.6875 27.296875 
Q 48.6875 37.203125 44.609375 42.84375 
Q 40.53125 48.484375 33.40625 48.484375 
Q 26.265625 48.484375 22.1875 42.84375 
Q 18.109375 37.203125 18.109375 27.296875 
Q 18.109375 17.390625 22.1875 11.75 
Q 26.265625 6.109375 33.40625 6.109375 
Q 40.53125 6.109375 44.609375 11.75 
Q 48.6875 17.390625 48.6875 27.296875 
z
" id="DejaVuSans-112"/>
     <path d="M 44.28125 53.078125 
L 44.28125 44.578125 
Q 40.484375 46.53125 36.375 47.5 
Q 32.28125 48.484375 27.875 48.484375 
Q 21.1875 48.484375 17.84375 46.4375 
Q 14.5 44.390625 14.5 40.28125 
Q 14.5 37.15625 16.890625 35.375 
Q 19.28125 33.59375 26.515625 31.984375 
L 29.59375 31.296875 
Q 39.15625 29.25 43.1875 25.515625 
Q 47.21875 21.78125 47.21875 15.09375 
Q 47.21875 7.46875 41.1875 3.015625 
Q 35.15625 -1.421875 24.609375 -1.421875 
Q 20.21875 -1.421875 15.453125 -0.5625 
Q 10.6875 0.296875 5.421875 2 
L 5.421875 11.28125 
Q 10.40625 8.6875 15.234375 7.390625 
Q 20.0625 6.109375 24.8125 6.109375 
Q 31.15625 6.109375 34.5625 8.28125 
Q 37.984375 10.453125 37.984375 14.40625 
Q 37.984375 18.0625 35.515625 20.015625 
Q 33.0625 21.96875 24.703125 23.78125 
L 21.578125 24.515625 
Q 13.234375 26.265625 9.515625 29.90625 
Q 5.8125 33.546875 5.8125 39.890625 
Q 5.8125 47.609375 11.28125 51.796875 
Q 16.75 56 26.8125 56 
Q 31.78125 56 36.171875 55.265625 
Q 40.578125 54.546875 44.28125 53.078125 
z
" id="DejaVuSans-115"/>
     <path d="M 8.5 21.578125 
L 8.5 54.6875 
L 17.484375 54.6875 
L 17.484375 21.921875 
Q 17.484375 14.15625 20.5 10.265625 
Q 23.53125 6.390625 29.59375 6.390625 
Q 36.859375 6.390625 41.078125 11.03125 
Q 45.3125 15.671875 45.3125 23.6875 
L 45.3125 54.6875 
L 54.296875 54.6875 
L 54.296875 0 
L 45.3125 0 
L 45.3125 8.40625 
Q 42.046875 3.421875 37.71875 1 
Q 33.40625 -1.421875 27.6875 -1.421875 
Q 18.265625 -1.421875 13.375 4.4375 
Q 8.5 10.296875 8.5 21.578125 
z
M 31.109375 56 
z
" id="DejaVuSans-117"/>
     <path d="M 34.28125 27.484375 
Q 23.390625 27.484375 19.1875 25 
Q 14.984375 22.515625 14.984375 16.5 
Q 14.984375 11.71875 18.140625 8.90625 
Q 21.296875 6.109375 26.703125 6.109375 
Q 34.1875 6.109375 38.703125 11.40625 
Q 43.21875 16.703125 43.21875 25.484375 
L 43.21875 27.484375 
z
M 52.203125 31.203125 
L 52.203125 0 
L 43.21875 0 
L 43.21875 8.296875 
Q 40.140625 3.328125 35.546875 0.953125 
Q 30.953125 -1.421875 24.3125 -1.421875 
Q 15.921875 -1.421875 10.953125 3.296875 
Q 6 8.015625 6 15.921875 
Q 6 25.140625 12.171875 29.828125 
Q 18.359375 34.515625 30.609375 34.515625 
L 43.21875 34.515625 
L 43.21875 35.40625 
Q 43.21875 41.609375 39.140625 45 
Q 35.0625 48.390625 27.6875 48.390625 
Q 23 48.390625 18.546875 47.265625 
Q 14.109375 46.140625 10.015625 43.890625 
L 10.015625 52.203125 
Q 14.9375 54.109375 19.578125 55.046875 
Q 24.21875 56 28.609375 56 
Q 40.484375 56 46.34375 49.84375 
Q 52.203125 43.703125 52.203125 31.203125 
z
" id="DejaVuSans-97"/>
     <path d="M 18.3125 70.21875 
L 18.3125 54.6875 
L 36.8125 54.6875 
L 36.8125 47.703125 
L 18.3125 47.703125 
L 18.3125 18.015625 
Q 18.3125 11.328125 20.140625 9.421875 
Q 21.96875 7.515625 27.59375 7.515625 
L 36.8125 7.515625 
L 36.8125 0 
L 27.59375 0 
Q 17.1875 0 13.234375 3.875 
Q 9.28125 7.765625 9.28125 18.015625 
L 9.28125 47.703125 
L 2.6875 47.703125 
L 2.6875 54.6875 
L 9.28125 54.6875 
L 9.28125 70.21875 
z
" id="DejaVuSans-116"/>
     <path d="M 11.71875 12.40625 
L 22.015625 12.40625 
L 22.015625 4 
L 14.015625 -11.625 
L 7.71875 -11.625 
L 11.71875 4 
z
" id="DejaVuSans-44"/>
     <path d="M 9.8125 72.90625 
L 24.515625 72.90625 
L 43.109375 23.296875 
L 61.8125 72.90625 
L 76.515625 72.90625 
L 76.515625 0 
L 66.890625 0 
L 66.890625 64.015625 
L 48.09375 14.015625 
L 38.1875 14.015625 
L 19.390625 64.015625 
L 19.390625 0 
L 9.8125 0 
z
" id="DejaVuSans-77"/>
     <path d="M 34.1875 63.1875 
L 20.796875 26.90625 
L 47.609375 26.90625 
z
M 28.609375 72.90625 
L 39.796875 72.90625 
L 67.578125 0 
L 57.328125 0 
L 50.6875 18.703125 
L 17.828125 18.703125 
L 11.1875 0 
L 0.78125 0 
z
" id="DejaVuSans-65"/>
     <path d="M 10.59375 45.40625 
L 73.1875 45.40625 
L 73.1875 37.203125 
L 10.59375 37.203125 
z
M 10.59375 25.484375 
L 73.1875 25.484375 
L 73.1875 17.1875 
L 10.59375 17.1875 
z
" id="DejaVuSans-61"/>
    </defs>
    <g transform="translate(177.959062 20.16)scale(0.12 -0.12)">
     <use xlink:href="#DejaVuSans-103"/>
     <use x="63.476562" xlink:href="#DejaVuSans-114"/>
     <use x="104.589844" xlink:href="#DejaVuSans-105"/>
     <use x="132.373047" xlink:href="#DejaVuSans-100"/>
     <use x="195.849609" xlink:href="#DejaVuSans-119"/>
     <use x="277.636719" xlink:href="#DejaVuSans-111"/>
     <use x="338.818359" xlink:href="#DejaVuSans-114"/>
     <use x="379.931641" xlink:href="#DejaVuSans-108"/>
     <use x="407.714844" xlink:href="#DejaVuSans-100"/>
     <use x="471.191406" xlink:href="#DejaVuSans-95"/>
     <use x="521.191406" xlink:href="#DejaVuSans-53"/>
     <use x="584.814453" xlink:href="#DejaVuSans-120"/>
     <use x="643.994141" xlink:href="#DejaVuSans-53"/>
     <use x="707.617188" xlink:href="#DejaVuSans-95"/>
     <use x="757.617188" xlink:href="#DejaVuSans-53"/>
     <use x="821.240234" xlink:href="#DejaVuSans-48"/>
     <use x="884.863281" xlink:href="#DejaVuSans-95"/>
     <use x="934.863281" xlink:href="#DejaVuSans-52"/>
     <use x="998.486328" xlink:href="#DejaVuSans-95"/>
     <use x="1048.486328" xlink:href="#DejaVuSans-52"/>
     <use x="1112.109375" xlink:href="#DejaVuSans-95"/>
     <use x="1162.109375" xlink:href="#DejaVuSans-49"/>
     <use x="1225.732422" xlink:href="#DejaVuSans-51"/>
     <use x="1289.355469" xlink:href="#DejaVuSans-51"/>
     <use x="1352.978516" xlink:href="#DejaVuSans-55"/>
     <use x="1416.601562" xlink:href="#DejaVuSans-95"/>
     <use x="1466.601562" xlink:href="#DejaVuSans-95"/>
     <use x="1516.601562" xlink:href="#DejaVuSans-100"/>
     <use x="1580.078125" xlink:href="#DejaVuSans-113"/>
     <use x="1643.554688" xlink:href="#DejaVuSans-110"/>
     <use x="1706.933594" xlink:href="#DejaVuSans-58"/>
     <use x="1740.625" xlink:href="#DejaVuSans-32"/>
     <use x="1772.412109" xlink:href="#DejaVuSans-101"/>
     <use x="1833.935547" xlink:href="#DejaVuSans-112"/>
     <use x="1897.412109" xlink:href="#DejaVuSans-105"/>
     <use x="1925.195312" xlink:href="#DejaVuSans-115"/>
     <use x="1977.294922" xlink:href="#DejaVuSans-111"/>
     <use x="2038.476562" xlink:href="#DejaVuSans-100"/>
     <use x="2101.953125" xlink:href="#DejaVuSans-101"/>
     <use x="2163.476562" xlink:href="#DejaVuSans-32"/>
     <use x="2195.263672" xlink:href="#DejaVuSans-100"/>
     <use x="2258.740234" xlink:href="#DejaVuSans-117"/>
     <use x="2322.119141" xlink:href="#DejaVuSans-114"/>
     <use x="2363.232422" xlink:href="#DejaVuSans-97"/>
     <use x="2424.511719" xlink:href="#DejaVuSans-116"/>
     <use x="2463.720703" xlink:href="#DejaVuSans-105"/>
     <use x="2491.503906" xlink:href="#DejaVuSans-111"/>
     <use x="2552.685547" xlink:href="#DejaVuSans-110"/>
     <use x="2616.064453" xlink:href="#DejaVuSans-44"/>
     <use x="2647.851562" xlink:href="#DejaVuSans-32"/>
     <use x="2679.638672" xlink:href="#DejaVuSans-115"/>
     <use x="2731.738281" xlink:href="#DejaVuSans-116"/>
     <use x="2770.947266" xlink:href="#DejaVuSans-101"/>
     <use x="2832.470703" xlink:href="#DejaVuSans-112"/>
     <use x="2895.947266" xlink:href="#DejaVuSans-115"/>
     <use x="2948.046875" xlink:href="#DejaVuSans-44"/>
     <use x="2979.833984" xlink:href="#DejaVuSans-32"/>
     <use x="3011.621094" xlink:href="#DejaVuSans-77"/>
     <use x="3097.900391" xlink:href="#DejaVuSans-65"/>
     <use x="3166.308594" xlink:href="#DejaVuSans-61"/>
     <use x="3250.097656" xlink:href="#DejaVuSans-52"/>
     <use x="3313.720703" xlink:href="#DejaVuSans-48"/>
    </g>
   </g>
   <g id="legend_1">
    <g id="patch_7">
     <path d="M 763.686937 239.074375 
L 854.751 239.074375 
Q 856.751 239.074375 856.751 237.074375 
L 856.751 193.205625 
Q 856.751 191.205625 854.751 191.205625 
L 763.686937 191.205625 
Q 761.686937 191.205625 761.686937 193.205625 
L 761.686937 237.074375 
Q 761.686937 239.074375 763.686937 239.074375 
z
" style="fill:#ffffff;opacity:0.8;stroke:#cccccc;stroke-linejoin:miter;"/>
    </g>
    <g id="line2d_21">
     <path d="M 765.686937 199.304062 
L 785.686937 199.304062 
" style="fill:none;stroke:#1f77b4;stroke-linecap:square;stroke-width:1.5;"/>
    </g>
    <g id="line2d_22"/>
    <g id="text_19">
     <!-- dqn_greedy -->
     <defs>
      <path d="M 32.171875 -5.078125 
Q 28.375 -14.84375 24.75 -17.8125 
Q 21.140625 -20.796875 15.09375 -20.796875 
L 7.90625 -20.796875 
L 7.90625 -13.28125 
L 13.1875 -13.28125 
Q 16.890625 -13.28125 18.9375 -11.515625 
Q 21 -9.765625 23.484375 -3.21875 
L 25.09375 0.875 
L 2.984375 54.6875 
L 12.5 54.6875 
L 29.59375 11.921875 
L 46.6875 54.6875 
L 56.203125 54.6875 
z
" id="DejaVuSans-121"/>
     </defs>
     <g transform="translate(793.686937 202.804062)scale(0.1 -0.1)">
      <use xlink:href="#DejaVuSans-100"/>
      <use x="63.476562" xlink:href="#DejaVuSans-113"/>
      <use x="126.953125" xlink:href="#DejaVuSans-110"/>
      <use x="190.332031" xlink:href="#DejaVuSans-95"/>
      <use x="240.332031" xlink:href="#DejaVuSans-103"/>
      <use x="303.808594" xlink:href="#DejaVuSans-114"/>
      <use x="344.890625" xlink:href="#DejaVuSans-101"/>
      <use x="406.414062" xlink:href="#DejaVuSans-101"/>
      <use x="467.9375" xlink:href="#DejaVuSans-100"/>
      <use x="531.414062" xlink:href="#DejaVuSans-121"/>
     </g>
    </g>
    <g id="line2d_23">
     <path d="M 765.686937 214.260312 
L 785.686937 214.260312 
" style="fill:none;stroke:#ff7f0e;stroke-linecap:square;stroke-width:1.5;"/>
    </g>
    <g id="line2d_24"/>
    <g id="text_20">
     <!-- dqn_eps -->
     <g transform="translate(793.686937 217.760312)scale(0.1 -0.1)">
      <use xlink:href="#DejaVuSans-100"/>
      <use x="63.476562" xlink:href="#DejaVuSans-113"/>
      <use x="126.953125" xlink:href="#DejaVuSans-110"/>
      <use x="190.332031" xlink:href="#DejaVuSans-95"/>
      <use x="240.332031" xlink:href="#DejaVuSans-101"/>
      <use x="301.855469" xlink:href="#DejaVuSans-112"/>
      <use x="365.332031" xlink:href="#DejaVuSans-115"/>
     </g>
    </g>
    <g id="line2d_25">
     <path d="M 765.686937 229.216562 
L 785.686937 229.216562 
" style="fill:none;stroke:#2ca02c;stroke-linecap:square;stroke-width:1.5;"/>
    </g>
    <g id="line2d_26"/>
    <g id="text_21">
     <!-- htm_4_1g -->
     <defs>
      <path d="M 54.890625 33.015625 
L 54.890625 0 
L 45.90625 0 
L 45.90625 32.71875 
Q 45.90625 40.484375 42.875 44.328125 
Q 39.84375 48.1875 33.796875 48.1875 
Q 26.515625 48.1875 22.3125 43.546875 
Q 18.109375 38.921875 18.109375 30.90625 
L 18.109375 0 
L 9.078125 0 
L 9.078125 75.984375 
L 18.109375 75.984375 
L 18.109375 46.1875 
Q 21.34375 51.125 25.703125 53.5625 
Q 30.078125 56 35.796875 56 
Q 45.21875 56 50.046875 50.171875 
Q 54.890625 44.34375 54.890625 33.015625 
z
" id="DejaVuSans-104"/>
      <path d="M 52 44.1875 
Q 55.375 50.25 60.0625 53.125 
Q 64.75 56 71.09375 56 
Q 79.640625 56 84.28125 50.015625 
Q 88.921875 44.046875 88.921875 33.015625 
L 88.921875 0 
L 79.890625 0 
L 79.890625 32.71875 
Q 79.890625 40.578125 77.09375 44.375 
Q 74.3125 48.1875 68.609375 48.1875 
Q 61.625 48.1875 57.5625 43.546875 
Q 53.515625 38.921875 53.515625 30.90625 
L 53.515625 0 
L 44.484375 0 
L 44.484375 32.71875 
Q 44.484375 40.625 41.703125 44.40625 
Q 38.921875 48.1875 33.109375 48.1875 
Q 26.21875 48.1875 22.15625 43.53125 
Q 18.109375 38.875 18.109375 30.90625 
L 18.109375 0 
L 9.078125 0 
L 9.078125 54.6875 
L 18.109375 54.6875 
L 18.109375 46.1875 
Q 21.1875 51.21875 25.484375 53.609375 
Q 29.78125 56 35.6875 56 
Q 41.65625 56 45.828125 52.96875 
Q 50 49.953125 52 44.1875 
z
" id="DejaVuSans-109"/>
     </defs>
     <g transform="translate(793.686937 232.716562)scale(0.1 -0.1)">
      <use xlink:href="#DejaVuSans-104"/>
      <use x="63.378906" xlink:href="#DejaVuSans-116"/>
      <use x="102.587891" xlink:href="#DejaVuSans-109"/>
      <use x="200" xlink:href="#DejaVuSans-95"/>
      <use x="250" xlink:href="#DejaVuSans-52"/>
      <use x="313.623047" xlink:href="#DejaVuSans-95"/>
      <use x="363.623047" xlink:href="#DejaVuSans-49"/>
      <use x="427.246094" xlink:href="#DejaVuSans-103"/>
     </g>
    </g>
   </g>
  </g>
 </g>
 <defs>
  <clipPath id="p42797142af">
   <rect height="377.96" width="687.355" x="36.925" y="26.16"/>
  </clipPath>
 </defs>
</svg>
