<?xml version="1.0" encoding="utf-8" standalone="no"?>
<!DOCTYPE svg PUBLIC "-//W3C//DTD SVG 1.1//EN"
  "http://www.w3.org/Graphics/SVG/1.1/DTD/svg11.dtd">
<!-- Created with matplotlib (https://matplotlib.org/) -->
<svg height="432pt" version="1.1" viewBox="0 0 864 432" width="864pt" xmlns="http://www.w3.org/2000/svg" xmlns:xlink="http://www.w3.org/1999/xlink">
 <defs>
  <style type="text/css">
*{stroke-linecap:butt;stroke-linejoin:round;}
  </style>
 </defs>
 <g id="figure_1">
  <g id="patch_1">
   <path d="M 0 432 
L 864 432 
L 864 0 
L 0 0 
z
" style="fill:#ffffff;"/>
  </g>
  <g id="axes_1">
   <g id="patch_2">
    <path d="M 36.925 404.12 
L 724.28 404.12 
L 724.28 26.16 
L 36.925 26.16 
z
" style="fill:#ffffff;"/>
   </g>
   <g id="matplotlib.axis_1">
    <g id="xtick_1">
     <g id="line2d_1">
      <defs>
       <path d="M 0 0 
L 0 3.5 
" id="m31843e90d5" style="stroke:#000000;stroke-width:0.8;"/>
      </defs>
      <g>
       <use style="stroke:#000000;stroke-width:0.8;" x="36.925" xlink:href="#m31843e90d5" y="404.12"/>
      </g>
     </g>
     <g id="text_1">
      <!-- 0 -->
      <defs>
       <path d="M 31.78125 66.40625 
Q 24.171875 66.40625 20.328125 58.90625 
Q 16.5 51.421875 16.5 36.375 
Q 16.5 21.390625 20.328125 13.890625 
Q 24.171875 6.390625 31.78125 6.390625 
Q 39.453125 6.390625 43.28125 13.890625 
Q 47.125 21.390625 47.125 36.375 
Q 47.125 51.421875 43.28125 58.90625 
Q 39.453125 66.40625 31.78125 66.40625 
z
M 31.78125 74.21875 
Q 44.046875 74.21875 50.515625 64.515625 
Q 56.984375 54.828125 56.984375 36.375 
Q 56.984375 17.96875 50.515625 8.265625 
Q 44.046875 -1.421875 31.78125 -1.421875 
Q 19.53125 -1.421875 13.0625 8.265625 
Q 6.59375 17.96875 6.59375 36.375 
Q 6.59375 54.828125 13.0625 64.515625 
Q 19.53125 74.21875 31.78125 74.21875 
z
" id="DejaVuSans-48"/>
      </defs>
      <g transform="translate(33.74375 418.718437)scale(0.1 -0.1)">
       <use xlink:href="#DejaVuSans-48"/>
      </g>
     </g>
    </g>
    <g id="xtick_2">
     <g id="line2d_2">
      <g>
       <use style="stroke:#000000;stroke-width:0.8;" x="122.898108" xlink:href="#m31843e90d5" y="404.12"/>
      </g>
     </g>
     <g id="text_2">
      <!-- 200 -->
      <defs>
       <path d="M 19.1875 8.296875 
L 53.609375 8.296875 
L 53.609375 0 
L 7.328125 0 
L 7.328125 8.296875 
Q 12.9375 14.109375 22.625 23.890625 
Q 32.328125 33.6875 34.8125 36.53125 
Q 39.546875 41.84375 41.421875 45.53125 
Q 43.3125 49.21875 43.3125 52.78125 
Q 43.3125 58.59375 39.234375 62.25 
Q 35.15625 65.921875 28.609375 65.921875 
Q 23.96875 65.921875 18.8125 64.3125 
Q 13.671875 62.703125 7.8125 59.421875 
L 7.8125 69.390625 
Q 13.765625 71.78125 18.9375 73 
Q 24.125 74.21875 28.421875 74.21875 
Q 39.75 74.21875 46.484375 68.546875 
Q 53.21875 62.890625 53.21875 53.421875 
Q 53.21875 48.921875 51.53125 44.890625 
Q 49.859375 40.875 45.40625 35.40625 
Q 44.1875 33.984375 37.640625 27.21875 
Q 31.109375 20.453125 19.1875 8.296875 
z
" id="DejaVuSans-50"/>
      </defs>
      <g transform="translate(113.354358 418.718437)scale(0.1 -0.1)">
       <use xlink:href="#DejaVuSans-50"/>
       <use x="63.623047" xlink:href="#DejaVuSans-48"/>
       <use x="127.246094" xlink:href="#DejaVuSans-48"/>
      </g>
     </g>
    </g>
    <g id="xtick_3">
     <g id="line2d_3">
      <g>
       <use style="stroke:#000000;stroke-width:0.8;" x="208.871216" xlink:href="#m31843e90d5" y="404.12"/>
      </g>
     </g>
     <g id="text_3">
      <!-- 400 -->
      <defs>
       <path d="M 37.796875 64.3125 
L 12.890625 25.390625 
L 37.796875 25.390625 
z
M 35.203125 72.90625 
L 47.609375 72.90625 
L 47.609375 25.390625 
L 58.015625 25.390625 
L 58.015625 17.1875 
L 47.609375 17.1875 
L 47.609375 0 
L 37.796875 0 
L 37.796875 17.1875 
L 4.890625 17.1875 
L 4.890625 26.703125 
z
" id="DejaVuSans-52"/>
      </defs>
      <g transform="translate(199.327466 418.718437)scale(0.1 -0.1)">
       <use xlink:href="#DejaVuSans-52"/>
       <use x="63.623047" xlink:href="#DejaVuSans-48"/>
       <use x="127.246094" xlink:href="#DejaVuSans-48"/>
      </g>
     </g>
    </g>
    <g id="xtick_4">
     <g id="line2d_4">
      <g>
       <use style="stroke:#000000;stroke-width:0.8;" x="294.844325" xlink:href="#m31843e90d5" y="404.12"/>
      </g>
     </g>
     <g id="text_4">
      <!-- 600 -->
      <defs>
       <path d="M 33.015625 40.375 
Q 26.375 40.375 22.484375 35.828125 
Q 18.609375 31.296875 18.609375 23.390625 
Q 18.609375 15.53125 22.484375 10.953125 
Q 26.375 6.390625 33.015625 6.390625 
Q 39.65625 6.390625 43.53125 10.953125 
Q 47.40625 15.53125 47.40625 23.390625 
Q 47.40625 31.296875 43.53125 35.828125 
Q 39.65625 40.375 33.015625 40.375 
z
M 52.59375 71.296875 
L 52.59375 62.3125 
Q 48.875 64.0625 45.09375 64.984375 
Q 41.3125 65.921875 37.59375 65.921875 
Q 27.828125 65.921875 22.671875 59.328125 
Q 17.53125 52.734375 16.796875 39.40625 
Q 19.671875 43.65625 24.015625 45.921875 
Q 28.375 48.1875 33.59375 48.1875 
Q 44.578125 48.1875 50.953125 41.515625 
Q 57.328125 34.859375 57.328125 23.390625 
Q 57.328125 12.15625 50.6875 5.359375 
Q 44.046875 -1.421875 33.015625 -1.421875 
Q 20.359375 -1.421875 13.671875 8.265625 
Q 6.984375 17.96875 6.984375 36.375 
Q 6.984375 53.65625 15.1875 63.9375 
Q 23.390625 74.21875 37.203125 74.21875 
Q 40.921875 74.21875 44.703125 73.484375 
Q 48.484375 72.75 52.59375 71.296875 
z
" id="DejaVuSans-54"/>
      </defs>
      <g transform="translate(285.300575 418.718437)scale(0.1 -0.1)">
       <use xlink:href="#DejaVuSans-54"/>
       <use x="63.623047" xlink:href="#DejaVuSans-48"/>
       <use x="127.246094" xlink:href="#DejaVuSans-48"/>
      </g>
     </g>
    </g>
    <g id="xtick_5">
     <g id="line2d_5">
      <g>
       <use style="stroke:#000000;stroke-width:0.8;" x="380.817433" xlink:href="#m31843e90d5" y="404.12"/>
      </g>
     </g>
     <g id="text_5">
      <!-- 800 -->
      <defs>
       <path d="M 31.78125 34.625 
Q 24.75 34.625 20.71875 30.859375 
Q 16.703125 27.09375 16.703125 20.515625 
Q 16.703125 13.921875 20.71875 10.15625 
Q 24.75 6.390625 31.78125 6.390625 
Q 38.8125 6.390625 42.859375 10.171875 
Q 46.921875 13.96875 46.921875 20.515625 
Q 46.921875 27.09375 42.890625 30.859375 
Q 38.875 34.625 31.78125 34.625 
z
M 21.921875 38.8125 
Q 15.578125 40.375 12.03125 44.71875 
Q 8.5 49.078125 8.5 55.328125 
Q 8.5 64.0625 14.71875 69.140625 
Q 20.953125 74.21875 31.78125 74.21875 
Q 42.671875 74.21875 48.875 69.140625 
Q 55.078125 64.0625 55.078125 55.328125 
Q 55.078125 49.078125 51.53125 44.71875 
Q 48 40.375 41.703125 38.8125 
Q 48.828125 37.15625 52.796875 32.3125 
Q 56.78125 27.484375 56.78125 20.515625 
Q 56.78125 9.90625 50.3125 4.234375 
Q 43.84375 -1.421875 31.78125 -1.421875 
Q 19.734375 -1.421875 13.25 4.234375 
Q 6.78125 9.90625 6.78125 20.515625 
Q 6.78125 27.484375 10.78125 32.3125 
Q 14.796875 37.15625 21.921875 38.8125 
z
M 18.3125 54.390625 
Q 18.3125 48.734375 21.84375 45.5625 
Q 25.390625 42.390625 31.78125 42.390625 
Q 38.140625 42.390625 41.71875 45.5625 
Q 45.3125 48.734375 45.3125 54.390625 
Q 45.3125 60.0625 41.71875 63.234375 
Q 38.140625 66.40625 31.78125 66.40625 
Q 25.390625 66.40625 21.84375 63.234375 
Q 18.3125 60.0625 18.3125 54.390625 
z
" id="DejaVuSans-56"/>
      </defs>
      <g transform="translate(371.273683 418.718437)scale(0.1 -0.1)">
       <use xlink:href="#DejaVuSans-56"/>
       <use x="63.623047" xlink:href="#DejaVuSans-48"/>
       <use x="127.246094" xlink:href="#DejaVuSans-48"/>
      </g>
     </g>
    </g>
    <g id="xtick_6">
     <g id="line2d_6">
      <g>
       <use style="stroke:#000000;stroke-width:0.8;" x="466.790541" xlink:href="#m31843e90d5" y="404.12"/>
      </g>
     </g>
     <g id="text_6">
      <!-- 1000 -->
      <defs>
       <path d="M 12.40625 8.296875 
L 28.515625 8.296875 
L 28.515625 63.921875 
L 10.984375 60.40625 
L 10.984375 69.390625 
L 28.421875 72.90625 
L 38.28125 72.90625 
L 38.28125 8.296875 
L 54.390625 8.296875 
L 54.390625 0 
L 12.40625 0 
z
" id="DejaVuSans-49"/>
      </defs>
      <g transform="translate(454.065541 418.718437)scale(0.1 -0.1)">
       <use xlink:href="#DejaVuSans-49"/>
       <use x="63.623047" xlink:href="#DejaVuSans-48"/>
       <use x="127.246094" xlink:href="#DejaVuSans-48"/>
       <use x="190.869141" xlink:href="#DejaVuSans-48"/>
      </g>
     </g>
    </g>
    <g id="xtick_7">
     <g id="line2d_7">
      <g>
       <use style="stroke:#000000;stroke-width:0.8;" x="552.763649" xlink:href="#m31843e90d5" y="404.12"/>
      </g>
     </g>
     <g id="text_7">
      <!-- 1200 -->
      <g transform="translate(540.038649 418.718437)scale(0.1 -0.1)">
       <use xlink:href="#DejaVuSans-49"/>
       <use x="63.623047" xlink:href="#DejaVuSans-50"/>
       <use x="127.246094" xlink:href="#DejaVuSans-48"/>
       <use x="190.869141" xlink:href="#DejaVuSans-48"/>
      </g>
     </g>
    </g>
    <g id="xtick_8">
     <g id="line2d_8">
      <g>
       <use style="stroke:#000000;stroke-width:0.8;" x="638.736757" xlink:href="#m31843e90d5" y="404.12"/>
      </g>
     </g>
     <g id="text_8">
      <!-- 1400 -->
      <g transform="translate(626.011757 418.718437)scale(0.1 -0.1)">
       <use xlink:href="#DejaVuSans-49"/>
       <use x="63.623047" xlink:href="#DejaVuSans-52"/>
       <use x="127.246094" xlink:href="#DejaVuSans-48"/>
       <use x="190.869141" xlink:href="#DejaVuSans-48"/>
      </g>
     </g>
    </g>
   </g>
   <g id="matplotlib.axis_2">
    <g id="ytick_1">
     <g id="line2d_9">
      <defs>
       <path d="M 0 0 
L -3.5 0 
" id="m4f1286b4c9" style="stroke:#000000;stroke-width:0.8;"/>
      </defs>
      <g>
       <use style="stroke:#000000;stroke-width:0.8;" x="36.925" xlink:href="#m4f1286b4c9" y="391.948746"/>
      </g>
     </g>
     <g id="text_9">
      <!-- 0 -->
      <g transform="translate(23.5625 395.747965)scale(0.1 -0.1)">
       <use xlink:href="#DejaVuSans-48"/>
      </g>
     </g>
    </g>
    <g id="ytick_2">
     <g id="line2d_10">
      <g>
       <use style="stroke:#000000;stroke-width:0.8;" x="36.925" xlink:href="#m4f1286b4c9" y="349.76983"/>
      </g>
     </g>
     <g id="text_10">
      <!-- 20 -->
      <g transform="translate(17.2 353.569048)scale(0.1 -0.1)">
       <use xlink:href="#DejaVuSans-50"/>
       <use x="63.623047" xlink:href="#DejaVuSans-48"/>
      </g>
     </g>
    </g>
    <g id="ytick_3">
     <g id="line2d_11">
      <g>
       <use style="stroke:#000000;stroke-width:0.8;" x="36.925" xlink:href="#m4f1286b4c9" y="307.590913"/>
      </g>
     </g>
     <g id="text_11">
      <!-- 40 -->
      <g transform="translate(17.2 311.390132)scale(0.1 -0.1)">
       <use xlink:href="#DejaVuSans-52"/>
       <use x="63.623047" xlink:href="#DejaVuSans-48"/>
      </g>
     </g>
    </g>
    <g id="ytick_4">
     <g id="line2d_12">
      <g>
       <use style="stroke:#000000;stroke-width:0.8;" x="36.925" xlink:href="#m4f1286b4c9" y="265.411996"/>
      </g>
     </g>
     <g id="text_12">
      <!-- 60 -->
      <g transform="translate(17.2 269.211215)scale(0.1 -0.1)">
       <use xlink:href="#DejaVuSans-54"/>
       <use x="63.623047" xlink:href="#DejaVuSans-48"/>
      </g>
     </g>
    </g>
    <g id="ytick_5">
     <g id="line2d_13">
      <g>
       <use style="stroke:#000000;stroke-width:0.8;" x="36.925" xlink:href="#m4f1286b4c9" y="223.23308"/>
      </g>
     </g>
     <g id="text_13">
      <!-- 80 -->
      <g transform="translate(17.2 227.032298)scale(0.1 -0.1)">
       <use xlink:href="#DejaVuSans-56"/>
       <use x="63.623047" xlink:href="#DejaVuSans-48"/>
      </g>
     </g>
    </g>
    <g id="ytick_6">
     <g id="line2d_14">
      <g>
       <use style="stroke:#000000;stroke-width:0.8;" x="36.925" xlink:href="#m4f1286b4c9" y="181.054163"/>
      </g>
     </g>
     <g id="text_14">
      <!-- 100 -->
      <g transform="translate(10.8375 184.853382)scale(0.1 -0.1)">
       <use xlink:href="#DejaVuSans-49"/>
       <use x="63.623047" xlink:href="#DejaVuSans-48"/>
       <use x="127.246094" xlink:href="#DejaVuSans-48"/>
      </g>
     </g>
    </g>
    <g id="ytick_7">
     <g id="line2d_15">
      <g>
       <use style="stroke:#000000;stroke-width:0.8;" x="36.925" xlink:href="#m4f1286b4c9" y="138.875246"/>
      </g>
     </g>
     <g id="text_15">
      <!-- 120 -->
      <g transform="translate(10.8375 142.674465)scale(0.1 -0.1)">
       <use xlink:href="#DejaVuSans-49"/>
       <use x="63.623047" xlink:href="#DejaVuSans-50"/>
       <use x="127.246094" xlink:href="#DejaVuSans-48"/>
      </g>
     </g>
    </g>
    <g id="ytick_8">
     <g id="line2d_16">
      <g>
       <use style="stroke:#000000;stroke-width:0.8;" x="36.925" xlink:href="#m4f1286b4c9" y="96.69633"/>
      </g>
     </g>
     <g id="text_16">
      <!-- 140 -->
      <g transform="translate(10.8375 100.495548)scale(0.1 -0.1)">
       <use xlink:href="#DejaVuSans-49"/>
       <use x="63.623047" xlink:href="#DejaVuSans-52"/>
       <use x="127.246094" xlink:href="#DejaVuSans-48"/>
      </g>
     </g>
    </g>
    <g id="ytick_9">
     <g id="line2d_17">
      <g>
       <use style="stroke:#000000;stroke-width:0.8;" x="36.925" xlink:href="#m4f1286b4c9" y="54.517413"/>
      </g>
     </g>
     <g id="text_17">
      <!-- 160 -->
      <g transform="translate(10.8375 58.316632)scale(0.1 -0.1)">
       <use xlink:href="#DejaVuSans-49"/>
       <use x="63.623047" xlink:href="#DejaVuSans-54"/>
       <use x="127.246094" xlink:href="#DejaVuSans-48"/>
      </g>
     </g>
    </g>
   </g>
   <g id="line2d_18">
    <path clip-path="url(#peefc0c668c)" d="M 53.689756 320.666377 
L 54.119622 316.07942 
L 54.549487 315.868525 
L 54.979353 314.33954 
L 55.839084 316.07942 
L 56.268949 311.703357 
L 56.698815 320.824548 
L 57.12868 317.344787 
L 57.558546 309.541688 
L 57.988412 320.033693 
L 58.418277 318.979221 
L 58.848143 322.458981 
L 59.278008 323.249836 
L 59.707874 315.973973 
L 60.137739 320.666377 
L 60.567605 317.977471 
L 60.99747 320.877272 
L 61.427336 321.299061 
L 61.857201 321.351785 
L 62.287067 312.652383 
L 62.716932 312.705107 
L 63.146798 312.441488 
L 63.576664 306.167375 
L 64.006529 306.747335 
L 64.436395 306.272822 
L 65.725991 306.167375 
L 66.155857 307.380018 
L 66.585722 307.749084 
L 67.445453 305.798309 
L 68.305184 299.102406 
L 69.164916 300.842286 
L 69.594781 291.562925 
L 70.884378 285.605153 
L 71.314243 293.67187 
L 71.744109 293.777318 
L 72.173974 295.042685 
L 72.60384 288.6104 
L 73.033705 288.6104 
L 73.463571 293.09191 
L 73.893437 294.462725 
L 74.323302 297.784315 
L 74.753168 295.095409 
L 75.183033 294.831791 
L 75.612899 295.886264 
L 76.042764 295.938987 
L 76.47263 297.257078 
L 76.902495 304.427494 
L 77.332361 306.53644 
L 77.762226 309.225346 
L 78.192092 301.844036 
L 78.621957 301.791312 
L 79.051823 299.787813 
L 79.481689 299.787813 
L 79.911554 299.102406 
L 80.34142 298.996959 
L 80.771285 300.525944 
L 81.201151 299.260577 
L 81.631016 289.243084 
L 82.060882 290.403004 
L 82.490747 290.403004 
L 82.920613 292.881016 
L 83.350478 292.142885 
L 83.780344 291.721096 
L 84.21021 285.236087 
L 84.640075 281.123643 
L 85.069941 275.745831 
L 85.499806 272.107899 
L 86.359537 255.974464 
L 87.219268 260.40325 
L 87.649134 254.972714 
L 88.078999 256.238082 
L 88.508865 247.696851 
L 88.93873 247.749575 
L 89.368596 248.013193 
L 89.798462 249.858521 
L 90.228327 249.70035 
L 90.658193 243.637131 
L 91.088058 240.790054 
L 91.517924 232.828783 
L 91.947789 240.948225 
L 92.377655 230.719837 
L 93.237386 230.719837 
L 93.667251 220.280555 
L 94.097117 219.91149 
L 94.956848 219.858766 
L 95.386714 219.436977 
L 95.816579 213.584652 
L 96.246445 216.168111 
L 96.67631 226.660117 
L 97.106176 226.554669 
L 97.536041 226.923735 
L 97.965907 233.619638 
L 98.395772 226.501946 
L 98.825638 236.730333 
L 99.255503 235.570413 
L 99.685369 229.665364 
L 100.115235 228.663615 
L 100.974966 229.876259 
L 101.404831 230.245325 
L 101.834697 234.410493 
L 102.694428 253.338281 
L 103.124293 251.862019 
L 103.984024 267.890008 
L 104.41389 268.153626 
L 104.843755 277.274817 
L 105.273621 278.118395 
L 105.703487 287.028691 
L 106.133352 280.543683 
L 106.563218 280.543683 
L 106.993083 285.13064 
L 107.422949 284.497956 
L 107.852814 280.121894 
L 108.28268 279.541933 
L 108.712545 283.917996 
L 109.142411 281.123643 
L 109.572276 281.123643 
L 110.002142 270.631637 
L 110.432008 269.471717 
L 110.861873 269.471717 
L 111.291739 262.933985 
L 111.721604 262.986709 
L 112.15147 261.56317 
L 112.581335 271.053426 
L 113.011201 276.853027 
L 113.441066 276.800304 
L 113.870932 267.837284 
L 114.300797 268.628139 
L 114.730663 268.575415 
L 115.160528 269.36627 
L 115.590394 278.012948 
L 116.450125 264.621142 
L 116.879991 263.408498 
L 117.309856 264.3048 
L 117.739722 264.093905 
L 118.169587 257.292555 
L 118.599453 253.918242 
L 119.029318 254.76182 
L 119.459184 244.533433 
L 119.889049 244.586156 
L 120.318915 254.18186 
L 120.74878 253.496452 
L 121.178646 253.232834 
L 121.608512 253.812794 
L 122.038377 253.812794 
L 122.468243 243.320789 
L 122.898108 242.529934 
L 123.327974 248.962219 
L 123.757839 248.804048 
L 124.187705 247.327786 
L 124.61757 247.749575 
L 125.047436 258.08341 
L 125.907167 265.095654 
L 126.337033 270.262572 
L 127.196764 290.19211 
L 127.626629 291.035688 
L 128.056495 300.31505 
L 128.48636 306.694611 
L 128.916226 306.589164 
L 129.346091 308.012702 
L 129.775957 308.329044 
L 130.205822 307.69636 
L 130.635688 307.643637 
L 131.065553 316.606656 
L 131.925285 316.712104 
L 132.35515 316.922998 
L 132.785016 316.922998 
L 134.074612 337.274326 
L 134.504478 337.116155 
L 134.934343 332.950987 
L 135.364209 338.539693 
L 135.794074 348.504462 
L 136.22394 348.609909 
L 136.653806 358.785573 
L 137.083671 358.732849 
L 138.373268 360.683624 
L 138.803133 360.683624 
L 139.232999 360.314559 
L 139.662864 370.384775 
L 140.09273 371.228354 
L 140.952461 371.491972 
L 141.382326 372.704616 
L 141.812192 373.020957 
L 142.671923 373.337299 
L 143.101789 373.073681 
L 143.531654 373.020957 
L 143.96152 371.017459 
L 144.391385 372.071932 
L 144.821251 372.33555 
L 145.251116 373.548194 
L 145.680982 374.07543 
L 146.110847 374.180878 
L 146.970578 374.128154 
L 147.400444 374.813561 
L 148.260175 374.919009 
L 149.549772 374.760838 
L 149.979637 376.342547 
L 150.409503 376.289824 
L 150.839368 373.284576 
L 151.269234 374.549943 
L 151.699099 374.708114 
L 152.128965 379.1369 
L 152.558831 380.296821 
L 152.988696 380.824057 
L 153.418562 380.771333 
L 153.848427 381.034952 
L 154.278293 381.034952 
L 154.708158 381.29857 
L 155.567889 381.29857 
L 155.997755 381.140399 
L 156.857486 381.614912 
L 157.287351 381.351294 
L 157.717217 381.404017 
L 158.576948 380.71861 
L 159.436679 378.55694 
L 159.866545 378.398769 
L 160.29641 378.609664 
L 160.726276 378.082427 
L 161.156141 380.085926 
L 161.586007 379.980479 
L 162.015872 380.033202 
L 162.445738 378.504217 
L 162.875604 378.609664 
L 163.305469 378.55694 
L 163.735335 378.240598 
L 165.024931 378.135151 
L 165.454797 377.818809 
L 165.884662 377.660638 
L 166.314528 377.713362 
L 166.744393 376.289824 
L 167.174259 376.447994 
L 167.604124 376.184376 
L 168.03399 378.873282 
L 168.463856 379.031453 
L 168.893721 379.347795 
L 169.323587 374.971732 
L 170.183318 374.919009 
L 170.613183 373.969983 
L 171.043049 371.966485 
L 171.472914 372.019208 
L 171.90278 371.544695 
L 172.332645 370.490222 
L 172.762511 370.490222 
L 173.192376 369.804815 
L 173.622242 370.01571 
L 174.052108 367.484975 
L 174.481973 367.379527 
L 174.911839 365.850542 
L 175.77157 366.69412 
L 176.201435 366.11416 
L 176.631301 367.115909 
L 177.491032 367.326804 
L 177.920897 367.85404 
L 179.210494 367.695869 
L 179.64036 369.119408 
L 180.500091 369.066684 
L 180.929956 367.379527 
L 181.359822 367.221356 
L 181.789687 366.905015 
L 182.649418 365.112411 
L 183.079284 365.428752 
L 183.509149 365.376029 
L 183.939015 365.5342 
L 184.798746 363.477978 
L 185.228612 363.847043 
L 185.658477 363.214359 
L 186.088343 355.516707 
L 186.518208 359.89277 
L 186.948074 359.945493 
L 187.377939 355.253089 
L 188.667536 347.713607 
L 189.097402 348.082673 
L 189.527267 348.715357 
L 189.957133 348.715357 
L 190.386998 348.926251 
L 190.816864 345.973727 
L 191.246729 348.18812 
L 191.676595 347.291818 
L 192.10646 348.820804 
L 192.536326 348.609909 
L 192.966191 348.662633 
L 193.396057 347.344542 
L 195.545385 347.344542 
L 196.405116 347.555437 
L 196.834981 345.973727 
L 197.264847 339.225101 
L 197.694712 338.697864 
L 198.124578 340.701363 
L 198.554443 340.490468 
L 198.984309 340.490468 
L 199.84404 342.441243 
L 200.273906 340.385021 
L 200.703771 340.437744 
L 201.133637 341.281323 
L 201.563502 341.597665 
L 201.993368 342.968479 
L 202.423233 341.861283 
L 202.853099 341.96673 
L 203.282964 349.76983 
L 204.142695 349.664382 
L 205.002427 357.309311 
L 205.432292 360.841795 
L 205.862158 363.214359 
L 206.292023 362.79257 
L 206.721889 363.108912 
L 207.151754 363.056188 
L 207.58162 362.054439 
L 208.011485 364.163385 
L 208.441351 364.37428 
L 208.871216 365.639647 
L 209.301082 365.217858 
L 209.730947 364.479727 
L 210.160813 364.216109 
L 210.590679 367.27408 
L 211.880275 367.221356 
L 212.310141 366.166884 
L 213.169872 366.061436 
L 213.599737 365.586923 
L 214.029603 367.168633 
L 214.459468 373.864536 
L 214.889334 374.444496 
L 216.178931 374.655391 
L 216.608796 374.866285 
L 217.038662 374.708114 
L 217.468527 376.711613 
L 217.898393 376.711613 
L 218.328258 377.080678 
L 218.758124 377.871533 
L 219.187989 377.871533 
L 219.617855 378.978729 
L 220.04772 379.505966 
L 221.337317 379.347795 
L 221.767183 379.664137 
L 222.197048 379.769584 
L 223.056779 380.982228 
L 223.91651 381.140399 
L 224.346376 381.034952 
L 224.776241 382.669385 
L 225.206107 383.512963 
L 225.635972 383.671134 
L 226.065838 383.61841 
L 226.495704 383.934752 
L 226.925569 384.936501 
L 227.355435 385.147396 
L 228.215166 385.147396 
L 229.074897 385.147396 
L 229.504762 386.149145 
L 229.934628 386.254593 
L 230.364493 386.149145 
L 230.794359 386.570934 
L 231.224225 386.307316 
L 232.083956 386.412764 
L 232.513821 386.412764 
L 232.943687 386.834553 
L 233.803418 386.729105 
L 234.233283 386.94 
L 234.663149 386.94 
L 235.093014 386.412764 
L 235.52288 386.465487 
L 235.952745 385.832803 
L 236.812477 385.885527 
L 237.672208 385.674632 
L 238.102073 385.885527 
L 238.531939 385.78008 
L 238.961804 385.516462 
L 240.251401 385.463738 
L 240.681266 385.832803 
L 241.111132 385.832803 
L 241.540997 385.990974 
L 242.400729 385.938251 
L 243.690325 386.149145 
L 244.979922 386.096422 
L 245.839653 385.938251 
L 247.12925 385.938251 
L 247.559115 385.463738 
L 249.278577 385.411014 
L 250.138308 384.778331 
L 250.568174 384.989225 
L 251.427905 384.778331 
L 251.85777 384.19837 
L 252.287636 384.19837 
L 252.717502 383.987476 
L 253.147367 384.567436 
L 253.577233 384.514712 
L 254.436964 383.61841 
L 255.72656 383.143897 
L 256.156426 383.565687 
L 260.455081 383.091174 
L 260.884947 382.300319 
L 261.744678 382.142148 
L 262.174543 382.300319 
L 262.604409 381.245846 
L 263.034275 381.087675 
L 263.46414 381.140399 
L 263.894006 380.771333 
L 264.323871 380.771333 
L 264.753737 381.351294 
L 265.183602 381.140399 
L 265.613468 378.873282 
L 266.043333 378.873282 
L 267.33293 379.295071 
L 267.762795 378.767835 
L 268.622527 379.031453 
L 269.912123 380.296821 
L 270.771854 380.349544 
L 271.631585 381.140399 
L 272.061451 381.034952 
L 272.921182 381.29857 
L 273.351048 381.193123 
L 273.780913 380.085926 
L 274.210779 379.769584 
L 274.640644 379.295071 
L 275.07051 379.400519 
L 276.789972 379.295071 
L 277.649703 379.400519 
L 278.079568 379.875031 
L 278.509434 379.716861 
L 278.9393 379.822308 
L 279.369165 379.769584 
L 279.799031 380.929504 
L 280.228896 381.140399 
L 280.658762 381.087675 
L 281.088627 381.509464 
L 281.948358 381.456741 
L 282.378224 380.929504 
L 282.808089 383.03845 
L 283.237955 382.827556 
L 283.667821 382.827556 
L 284.097686 383.091174 
L 284.527552 383.196621 
L 284.957417 383.61841 
L 285.387283 383.61841 
L 286.247014 383.302068 
L 287.53661 382.827556 
L 287.966476 380.982228 
L 288.396341 381.087675 
L 288.826207 381.034952 
L 289.256073 381.351294 
L 289.685938 380.71861 
L 290.115804 380.296821 
L 290.545669 378.504217 
L 290.975535 379.664137 
L 291.4054 379.927755 
L 291.835266 380.349544 
L 292.265131 379.980479 
L 294.844325 379.55869 
L 295.27419 375.129903 
L 296.133921 375.235351 
L 296.563787 375.024456 
L 296.993652 374.022707 
L 297.423518 372.230103 
L 298.283249 371.597419 
L 298.713114 371.702866 
L 299.572846 367.906764 
L 300.002711 367.85404 
L 300.432577 368.012211 
L 301.292308 368.012211 
L 301.722173 367.063186 
L 302.152039 364.479727 
L 302.581904 364.479727 
L 303.871501 365.059687 
L 304.301366 364.637898 
L 304.731232 364.901516 
L 305.161098 366.588673 
L 305.590963 366.535949 
L 306.450694 366.852291 
L 306.88056 366.746844 
L 307.310425 367.221356 
L 307.740291 367.379527 
L 309.029887 367.432251 
L 309.459753 367.168633 
L 309.889619 366.641396 
L 310.319484 366.69412 
L 310.74935 366.430502 
L 311.179215 365.481476 
L 311.609081 359.629151 
L 312.038946 359.681875 
L 312.468812 364.427003 
L 313.328543 362.318057 
L 313.758408 361.685374 
L 314.188274 361.369032 
L 314.618139 363.161636 
L 315.048005 363.161636 
L 315.477871 363.319807 
L 315.907736 362.423505 
L 316.767467 366.746844 
L 317.627198 366.852291 
L 318.057064 366.535949 
L 318.486929 366.483225 
L 318.916795 367.432251 
L 319.34666 369.488473 
L 319.776526 369.488473 
L 320.206391 367.010462 
L 320.636257 366.957738 
L 321.066123 366.746844 
L 321.495988 366.957738 
L 321.925854 361.105414 
L 322.355719 359.049191 
L 322.785585 359.101915 
L 323.21545 358.89102 
L 323.645316 358.31106 
L 324.075181 353.355038 
L 324.505047 353.24959 
L 324.934912 352.036946 
L 325.364778 351.878776 
L 325.794644 349.295317 
L 326.224509 349.400764 
L 326.654375 350.138895 
L 327.08424 348.240844 
L 327.514106 348.240844 
L 327.943971 346.606411 
L 328.373837 347.713607 
L 328.803702 353.513209 
L 329.233568 353.776827 
L 329.663433 353.565932 
L 330.093299 354.093169 
L 331.382896 357.15114 
L 331.812761 357.203864 
L 332.242627 356.518456 
L 332.672492 356.465733 
L 333.102358 357.362035 
L 333.532223 353.724103 
L 333.962089 353.934998 
L 334.391954 350.982474 
L 334.82182 350.92975 
L 335.251685 351.246092 
L 336.541282 351.246092 
L 336.971148 350.244342 
L 337.401013 352.300565 
L 338.260744 352.142394 
L 338.69061 352.300565 
L 339.120475 357.994718 
L 339.550341 360.156388 
L 339.980206 359.576428 
L 340.839937 359.89277 
L 341.269803 365.112411 
L 341.699669 365.059687 
L 342.129534 366.325054 
L 342.5594 366.483225 
L 342.989265 369.066684 
L 343.419131 368.328553 
L 343.848996 368.328553 
L 344.278862 370.964735 
L 344.708727 370.490222 
L 345.138593 372.440997 
L 345.568458 372.177379 
L 345.998324 372.230103 
L 346.428189 372.019208 
L 346.858055 372.230103 
L 347.287921 372.968234 
L 348.147652 373.073681 
L 348.577517 372.810063 
L 349.007383 372.757339 
L 349.437248 373.706365 
L 349.867114 373.917259 
L 350.296979 373.653641 
L 350.726845 376.2371 
L 351.15671 375.762587 
L 351.586576 379.084177 
L 352.876173 378.873282 
L 353.306038 378.926006 
L 353.735904 378.820559 
L 354.165769 379.769584 
L 354.595635 380.13865 
L 355.0255 379.875031 
L 356.315097 380.349544 
L 356.744962 379.084177 
L 357.174828 379.55869 
L 357.604694 378.55694 
L 358.464425 374.655391 
L 358.89429 374.813561 
L 359.324156 376.500718 
L 359.754021 376.553442 
L 360.183887 375.288074 
L 360.613752 376.026205 
L 361.043618 374.919009 
L 361.473483 374.919009 
L 361.903349 375.129903 
L 362.333215 375.129903 
L 363.192946 375.340798 
L 363.622811 374.971732 
L 364.052677 374.971732 
L 364.482542 374.128154 
L 365.342273 374.128154 
L 365.772139 374.391772 
L 366.202004 374.391772 
L 367.061735 373.073681 
L 367.491601 373.231852 
L 367.921467 374.07543 
L 368.351332 374.549943 
L 369.211063 374.391772 
L 369.640929 374.444496 
L 370.50066 374.339049 
L 370.930525 372.282826 
L 372.220122 372.388274 
L 372.649987 372.493721 
L 373.079853 370.753841 
L 373.509719 370.648393 
L 373.939584 371.913761 
L 374.36945 371.966485 
L 374.799315 372.230103 
L 375.659046 377.133402 
L 376.518777 376.711613 
L 376.948643 376.658889 
L 377.378508 375.340798 
L 377.808374 375.340798 
L 378.23824 375.920758 
L 378.668105 375.815311 
L 379.097971 375.973482 
L 379.527836 375.815311 
L 380.387567 375.868034 
L 380.817433 376.395271 
L 381.247298 375.920758 
L 381.677164 376.711613 
L 382.107029 376.764336 
L 382.536895 376.500718 
L 383.396626 376.500718 
L 383.826492 369.857539 
L 384.256357 369.224855 
L 384.686223 367.432251 
L 385.116088 367.484975 
L 385.545954 367.115909 
L 385.975819 366.219607 
L 386.405685 363.899767 
L 386.83555 363.847043 
L 387.265416 363.214359 
L 387.695281 363.161636 
L 388.125147 355.41126 
L 388.555013 355.305812 
L 388.984878 346.711858 
L 389.414744 346.606411 
L 389.844609 337.274326 
L 390.274475 338.750588 
L 390.70434 335.798064 
L 391.134206 335.798064 
L 391.564071 335.059932 
L 392.423802 334.58542 
L 392.853668 333.847289 
L 393.713399 334.269078 
L 394.143265 333.952736 
L 394.57313 336.588918 
L 395.002996 336.483471 
L 395.432861 337.010707 
L 396.292592 337.063431 
L 396.722458 335.376274 
L 397.152323 335.376274 
L 397.582189 334.954485 
L 398.012054 334.954485 
L 398.44192 330.314804 
L 398.871785 329.787568 
L 399.301651 329.734844 
L 399.731517 329.471226 
L 400.161382 329.471226 
L 400.591248 327.098662 
L 401.021113 331.738343 
L 401.880844 334.321801 
L 402.31071 334.374525 
L 402.740575 333.530947 
L 403.170441 330.631146 
L 403.600306 332.898263 
L 404.030172 332.898263 
L 404.460038 333.636394 
L 404.889903 333.478223 
L 405.319769 343.021203 
L 405.749634 342.810308 
L 406.1795 351.193368 
L 406.609365 348.820804 
L 407.039231 358.152889 
L 407.469096 358.31106 
L 407.898962 361.369032 
L 408.328827 361.421755 
L 408.758693 357.994718 
L 409.188558 357.625653 
L 409.618424 357.045693 
L 410.04829 352.880525 
L 410.478155 352.247841 
L 410.908021 350.771579 
L 411.337886 350.718855 
L 412.197617 350.138895 
L 413.057348 350.086172 
L 413.487214 350.138895 
L 413.917079 351.193368 
L 414.346945 351.140644 
L 414.776811 351.298815 
L 415.206676 351.298815 
L 415.636542 356.413009 
L 416.066407 355.674878 
L 416.496273 355.622154 
L 416.926138 355.99122 
L 417.356004 352.458736 
L 417.785869 346.026451 
L 418.215735 348.240844 
L 418.6456 347.186371 
L 419.075466 345.341043 
L 419.505331 345.130149 
L 419.935197 346.342793 
L 420.365063 349.348041 
L 420.794928 349.611659 
L 421.224794 349.664382 
L 421.654659 342.810308 
L 422.084525 343.021203 
L 422.51439 343.917505 
L 422.944256 344.233847 
L 423.374121 344.392018 
L 423.803987 346.975476 
L 424.233852 345.551938 
L 424.663718 345.024702 
L 425.093583 344.761083 
L 425.523449 344.075676 
L 425.953315 347.766331 
L 426.38318 348.978975 
L 426.813046 349.822553 
L 427.242911 354.778576 
L 427.672777 355.305812 
L 428.102642 356.676627 
L 428.532508 356.940246 
L 429.822104 356.834798 
L 430.25197 356.413009 
L 430.681836 355.305812 
L 431.111701 356.096667 
L 431.541567 355.780325 
L 431.971432 348.293568 
L 432.831163 348.346291 
L 433.261029 349.400764 
L 433.690894 349.506211 
L 434.12076 348.926251 
L 434.550625 352.247841 
L 434.980491 359.840046 
L 435.410356 359.945493 
L 435.840222 360.683624 
L 436.270088 363.161636 
L 436.699953 363.530701 
L 437.129819 363.530701 
L 437.559684 363.267083 
L 437.98955 362.159886 
L 438.419415 361.63265 
L 438.849281 368.434 
L 439.279146 368.434 
L 439.709012 367.748593 
L 440.138877 367.748593 
L 440.568743 367.484975 
L 440.998609 367.379527 
L 441.428474 365.745094 
L 442.288205 366.325054 
L 442.718071 366.957738 
L 443.147936 367.27408 
L 443.577802 367.432251 
L 444.007667 367.432251 
L 444.437533 365.903265 
L 444.867398 365.850542 
L 445.297264 364.901516 
L 446.156995 364.848792 
L 446.586861 365.376029 
L 447.446592 362.001716 
L 447.876457 363.108912 
L 448.306323 363.108912 
L 448.736188 362.634399 
L 449.166054 370.332052 
L 450.025785 370.279328 
L 450.45565 370.542946 
L 450.885516 370.490222 
L 451.315381 371.070183 
L 452.604978 371.597419 
L 453.034844 371.966485 
L 454.32444 371.913761 
L 454.754306 372.704616 
L 455.184171 373.759089 
L 455.614037 374.339049 
L 456.043902 372.071932 
L 456.473768 370.912012 
L 456.903634 371.122906 
L 457.333499 370.59567 
L 457.763365 370.859288 
L 458.19323 370.59567 
L 458.623096 373.231852 
L 459.052961 373.390023 
L 459.482827 372.757339 
L 459.912692 372.440997 
L 460.342558 372.546445 
L 460.772423 372.388274 
L 461.202289 372.388274 
L 461.632154 373.284576 
L 462.06202 373.442747 
L 462.491886 374.444496 
L 462.921751 374.549943 
L 463.351617 371.702866 
L 463.781482 370.701117 
L 464.211348 371.75559 
L 464.641213 373.442747 
L 465.071079 373.020957 
L 465.500944 373.020957 
L 465.93081 373.653641 
L 466.360675 373.706365 
L 466.790541 371.017459 
L 467.220407 370.490222 
L 467.650272 370.279328 
L 468.080138 359.840046 
L 468.510003 357.203864 
L 468.939869 356.202114 
L 469.369734 356.202114 
L 469.7996 354.145892 
L 470.229465 353.987721 
L 470.659331 353.987721 
L 471.089196 352.142394 
L 471.519062 351.298815 
L 471.948927 351.351539 
L 472.808659 349.717106 
L 473.238524 349.76983 
L 473.66839 348.978975 
L 474.098255 343.179374 
L 474.528121 341.017704 
L 474.957986 340.912257 
L 475.387852 341.492217 
L 476.247583 341.38677 
L 476.677448 339.06693 
L 477.107314 339.383271 
L 477.967045 339.488719 
L 478.396911 337.274326 
L 478.826776 337.907009 
L 479.256642 337.327049 
L 480.116373 337.379773 
L 480.546238 337.801562 
L 480.976104 337.168878 
L 481.405969 337.168878 
L 481.835835 336.641642 
L 482.2657 334.743591 
L 482.695566 334.743591 
L 483.125432 333.214605 
L 483.555297 332.845539 
L 483.985163 335.112656 
L 484.415028 335.639893 
L 484.844894 335.74534 
L 485.274759 345.604662 
L 485.704625 345.973727 
L 486.564356 348.18812 
L 486.994221 350.138895 
L 487.424087 346.975476 
L 487.853952 346.659135 
L 488.283818 348.504462 
L 488.713684 344.550189 
L 489.143549 344.1284 
L 489.573415 345.130149 
L 490.00328 344.339294 
L 490.863011 348.609909 
L 491.292877 354.25134 
L 491.722742 354.145892 
L 492.152608 352.036946 
L 492.582473 350.718855 
L 493.012339 351.140644 
L 493.442205 351.246092 
L 493.87207 353.091419 
L 494.301936 352.616907 
L 494.731801 350.34979 
L 495.161667 349.611659 
L 495.591532 350.34979 
L 496.021398 346.290069 
L 496.451263 346.659135 
L 497.310994 346.659135 
L 498.170725 349.822553 
L 498.600591 350.244342 
L 499.030457 351.404263 
L 499.460322 353.355038 
L 499.890188 353.355038 
L 500.320053 351.667881 
L 501.179784 352.406012 
L 502.039515 349.558935 
L 502.469381 350.191619 
L 502.899246 352.195117 
L 503.329112 351.984223 
L 503.758977 352.036946 
L 504.188843 351.562434 
L 504.618709 354.8313 
L 505.47844 350.982474 
L 505.908305 354.620405 
L 506.338171 355.094918 
L 506.768036 353.460485 
L 507.627767 352.511459 
L 508.057633 352.406012 
L 508.487498 343.970229 
L 509.34723 348.451739 
L 510.206961 341.96673 
L 510.636826 340.068679 
L 511.066692 340.701363 
L 511.496557 340.964981 
L 511.926423 339.64689 
L 512.356288 340.385021 
L 512.786154 341.861283 
L 513.216019 345.921004 
L 513.645885 344.761083 
L 514.07575 344.813807 
L 514.505616 341.123152 
L 514.935482 341.070428 
L 515.365347 339.805061 
L 516.225078 339.752337 
L 516.654944 340.174126 
L 517.084809 340.174126 
L 517.514675 343.601163 
L 518.374406 343.548439 
L 518.804271 344.761083 
L 519.234137 344.286571 
L 519.664003 344.286571 
L 520.093868 343.759334 
L 520.953599 343.442992 
L 521.383465 343.970229 
L 521.81333 344.022952 
L 522.243196 346.553687 
L 522.673061 347.924502 
L 523.102927 348.715357 
L 523.532792 345.393767 
L 524.392523 348.715357 
L 524.822389 348.715357 
L 525.252255 348.082673 
L 525.68212 357.203864 
L 526.111986 357.625653 
L 526.541851 355.99122 
L 526.971717 360.736348 
L 527.401582 363.636149 
L 527.831448 365.428752 
L 528.261313 365.850542 
L 528.691179 366.008713 
L 529.121044 368.012211 
L 529.55091 368.117658 
L 530.410641 368.012211 
L 530.840507 369.383026 
L 531.270372 368.275829 
L 531.700238 371.913761 
L 532.559969 374.07543 
L 532.989834 373.442747 
L 533.4197 373.231852 
L 533.849565 373.231852 
L 534.709296 371.597419 
L 535.569028 371.597419 
L 535.998893 371.281077 
L 536.428759 372.282826 
L 536.858624 372.282826 
L 537.28849 373.231852 
L 537.718355 372.440997 
L 538.148221 369.593921 
L 538.578086 368.803066 
L 539.007952 368.803066 
L 539.437817 368.275829 
L 539.867683 365.903265 
L 540.297548 366.272331 
L 540.727414 369.804815 
L 541.15728 369.962986 
L 541.587145 369.699368 
L 542.446876 370.806564 
L 542.876742 369.910262 
L 543.306607 370.01571 
L 543.736473 371.597419 
L 544.166338 371.544695 
L 545.026069 372.019208 
L 545.455935 371.861037 
L 545.885801 371.966485 
L 546.315666 373.390023 
L 546.745532 373.390023 
L 547.175397 372.440997 
L 548.035128 372.493721 
L 548.464994 369.330302 
L 548.894859 368.381277 
L 549.324725 368.117658 
L 549.75459 367.643146 
L 550.184456 368.328553 
L 550.614321 367.379527 
L 551.044187 367.326804 
L 551.474053 368.117658 
L 551.903918 367.748593 
L 552.333784 367.801317 
L 552.763649 357.414758 
L 553.193515 354.778576 
L 553.62338 355.780325 
L 554.053246 350.877026 
L 554.483111 348.18812 
L 554.912977 349.348041 
L 555.342842 341.861283 
L 555.772708 339.435995 
L 556.202573 333.320052 
L 556.632439 333.847289 
L 557.062305 336.114405 
L 557.922036 336.219853 
L 558.351901 328.680371 
L 559.211632 323.355283 
L 559.641498 323.513454 
L 560.071363 324.198861 
L 560.501229 323.935243 
L 560.931094 323.987967 
L 561.36096 323.197112 
L 561.790826 323.197112 
L 562.220691 320.824548 
L 562.650557 320.929995 
L 563.080422 320.455483 
L 563.510288 318.768326 
L 563.940153 318.768326 
L 564.370019 319.190115 
L 564.799884 318.346537 
L 565.22975 318.346537 
L 565.659615 322.195363 
L 566.089481 323.144389 
L 566.519346 321.088166 
L 566.949212 316.026696 
L 567.379078 315.815802 
L 567.808943 311.281568 
L 568.238809 309.805306 
L 568.668674 309.225346 
L 569.09854 307.959979 
L 569.528405 307.959979 
L 569.958271 316.975722 
L 570.388136 317.924748 
L 570.818002 317.555682 
L 571.247867 322.406257 
L 571.677733 316.606656 
L 572.107598 313.970474 
L 572.537464 321.826297 
L 572.96733 324.884269 
L 573.397195 329.471226 
L 573.827061 329.154884 
L 574.256926 327.204109 
L 574.686792 323.935243 
L 575.116657 323.88252 
L 575.546523 331.316554 
L 575.976388 331.632896 
L 576.406254 323.408007 
L 576.836119 323.408007 
L 577.695851 322.406257 
L 578.125716 322.195363 
L 578.555582 322.986218 
L 579.415313 317.397511 
L 579.845178 317.397511 
L 580.275044 313.970474 
L 580.704909 314.814052 
L 581.134775 312.968725 
L 581.56464 313.33779 
L 581.994506 310.807055 
L 582.424371 309.752582 
L 582.854237 308.27632 
L 583.284103 308.065426 
L 583.713968 305.745585 
L 584.143834 309.172622 
L 584.573699 309.383517 
L 585.003565 314.972223 
L 585.43343 315.394013 
L 585.863296 314.075921 
L 586.293161 316.026696 
L 586.723027 316.026696 
L 587.152892 315.394013 
L 587.582758 317.344787 
L 588.012624 317.713853 
L 588.442489 314.761329 
L 588.872355 322.933494 
L 589.30222 325.358782 
L 589.732086 325.516953 
L 590.161951 324.46248 
L 591.021682 325.147887 
L 591.451548 325.6224 
L 591.881413 327.36228 
L 592.741144 327.520451 
L 593.17101 326.835044 
L 593.600876 332.42375 
L 594.030741 327.151386 
L 594.460607 327.467727 
L 594.890472 328.311306 
L 595.320338 328.5222 
L 595.750203 326.993215 
L 596.180069 328.680371 
L 596.609934 333.741841 
L 597.0398 333.741841 
L 597.469665 337.063431 
L 597.899531 338.06518 
L 598.329396 339.805061 
L 598.759262 339.330548 
L 599.189128 342.54669 
L 599.618993 342.968479 
L 600.048859 343.864781 
L 600.478724 343.970229 
L 600.90859 347.924502 
L 601.338455 350.455237 
L 601.768321 348.873528 
L 602.198186 346.44824 
L 602.628052 346.500964 
L 603.057917 347.555437 
L 603.487783 348.029949 
L 603.917649 347.871778 
L 604.347514 349.875277 
L 604.77738 347.502713 
L 605.207245 347.449989 
L 605.637111 350.402513 
L 606.066976 350.244342 
L 606.496842 350.455237 
L 606.926707 352.880525 
L 607.786438 355.253089 
L 608.216304 353.460485 
L 608.646169 355.358536 
L 609.076035 351.50971 
L 609.505901 349.980724 
L 609.935766 349.928001 
L 610.365632 353.618656 
L 610.795497 358.521955 
L 611.225363 361.158137 
L 611.655228 361.579926 
L 612.085094 361.474479 
L 612.944825 355.41126 
L 613.37469 356.149391 
L 613.804556 355.200365 
L 614.234422 354.567681 
L 614.664287 351.193368 
L 615.094153 351.246092 
L 615.524018 350.718855 
L 615.953884 351.087921 
L 616.383749 351.246092 
L 616.813615 348.557186 
L 617.24348 349.453488 
L 617.673346 345.86828 
L 618.103211 343.232098 
L 618.533077 343.179374 
L 618.962942 343.390269 
L 619.392808 343.864781 
L 620.252539 345.762833 
L 620.682405 345.815556 
L 621.542136 345.446491 
L 621.972001 346.922753 
L 622.401867 346.395516 
L 622.831732 345.28832 
L 623.261598 345.551938 
L 623.691463 345.446491 
L 624.121329 343.653887 
L 624.98106 343.70661 
L 625.410926 345.446491 
L 625.840791 343.812058 
L 626.270657 349.031699 
L 626.700522 350.560684 
L 627.130388 350.560684 
L 627.560253 349.822553 
L 627.990119 349.717106 
L 628.419984 351.246092 
L 628.84985 350.824303 
L 629.279715 350.877026 
L 630.139447 355.674878 
L 630.569312 355.147642 
L 631.429043 356.57118 
L 631.858909 360.314559 
L 632.288774 359.470981 
L 632.71864 360.050941 
L 633.578371 360.103664 
L 634.008236 363.37253 
L 634.438102 363.003465 
L 635.297833 369.962986 
L 635.727699 369.857539 
L 636.157564 371.17563 
L 636.58743 373.231852 
L 638.306892 372.91551 
L 638.736757 367.168633 
L 639.166623 365.165134 
L 639.596488 365.745094 
L 640.026354 366.746844 
L 640.886085 367.115909 
L 641.315951 358.416508 
L 641.745816 358.258337 
L 642.175682 347.766331 
L 642.605547 347.819055 
L 643.035413 342.599414 
L 643.465278 341.175875 
L 643.895144 341.175875 
L 644.325009 336.694366 
L 644.754875 337.063431 
L 645.18474 337.116155 
L 645.614606 335.74534 
L 646.044472 335.587169 
L 646.474337 335.639893 
L 646.904203 333.372776 
L 647.763934 335.218103 
L 648.623665 335.428998 
L 649.05353 326.518702 
L 649.483396 327.36228 
L 649.913261 327.151386 
L 650.343127 327.415004 
L 650.772992 319.40101 
L 651.202858 317.397511 
L 651.632724 316.184867 
L 652.062589 316.237591 
L 652.92232 312.072423 
L 653.352186 312.019699 
L 653.782051 304.691112 
L 654.211917 304.79656 
L 654.641782 298.206104 
L 655.071648 298.15338 
L 655.501513 298.680617 
L 655.931379 304.743836 
L 656.361245 307.063677 
L 656.79111 305.37652 
L 657.220976 302.371272 
L 657.650841 302.107654 
L 658.080707 302.107654 
L 658.510572 303.952981 
L 658.940438 303.79481 
L 659.370303 314.128645 
L 659.800169 312.916001 
L 660.230034 315.815802 
L 660.6599 307.380018 
L 661.519631 299.471472 
L 661.949497 289.401255 
L 662.379362 287.397757 
L 662.809228 289.717597 
L 663.239093 290.297557 
L 663.668959 287.503204 
L 664.098824 290.297557 
L 664.52869 287.661375 
L 664.958555 283.496207 
L 665.388421 283.285312 
L 665.818286 281.176366 
L 666.248152 290.244834 
L 666.678018 290.19211 
L 667.967614 283.179865 
L 668.827345 286.923244 
L 669.257211 279.963723 
L 669.687076 276.74758 
L 670.116942 275.534936 
L 670.546807 274.796805 
L 670.976673 282.178116 
L 671.406538 281.914497 
L 671.836404 285.446982 
L 672.696135 285.394258 
L 673.126001 284.761574 
L 673.555866 285.605153 
L 673.985732 287.239586 
L 674.415597 287.503204 
L 674.845463 277.274817 
L 675.275328 274.954976 
L 675.705194 283.443483 
L 676.564925 274.902253 
L 676.99479 274.111398 
L 677.424656 278.012948 
L 677.854522 285.025193 
L 678.284387 287.081415 
L 678.714253 284.867022 
L 679.144118 292.459227 
L 679.573984 292.195608 
L 680.003849 292.301056 
L 680.433715 290.350281 
L 680.86358 282.652629 
L 681.293446 282.863523 
L 681.723311 280.807301 
L 682.153177 282.125392 
L 682.583043 280.174617 
L 683.012908 282.230839 
L 683.442774 279.278315 
L 683.872639 278.961973 
L 684.73237 283.54893 
L 685.162236 292.459227 
L 685.592101 292.037437 
L 686.021967 291.984714 
L 686.881698 303.425745 
L 687.311563 307.010953 
L 687.741429 307.274571 
L 688.171295 306.53644 
L 688.60116 304.269323 
L 689.031026 306.009204 
L 689.890757 305.37652 
L 690.320622 305.798309 
L 690.750488 305.745585 
L 691.180353 305.37652 
L 691.610219 302.002207 
L 692.040084 311.387015 
L 692.46995 312.546936 
L 692.899816 312.652383 
L 693.329681 317.397511 
L 693.759547 320.666377 
L 694.189412 322.353534 
L 694.619278 319.40101 
L 695.049143 319.348286 
L 695.479009 321.246337 
L 695.908874 331.738343 
L 696.768605 336.90526 
L 697.198471 336.799813 
L 697.628336 338.750588 
L 698.058202 348.609909 
L 698.488068 348.557186 
L 698.917933 354.304063 
L 699.347799 355.780325 
L 699.777664 350.771579 
L 700.20753 350.560684 
L 700.637395 353.302314 
L 701.067261 344.813807 
L 701.497126 344.550189 
L 701.926992 344.550189 
L 702.356857 346.026451 
L 702.786723 346.290069 
L 703.216588 346.184622 
L 703.646454 346.764582 
L 704.07632 344.497465 
L 704.506185 344.497465 
L 704.936051 345.024702 
L 705.365916 335.270827 
L 705.795782 336.061682 
L 706.225647 333.952736 
L 706.655513 333.847289 
L 707.085378 334.163631 
L 707.515244 334.321801 
L 707.945109 334.163631 
L 708.374975 329.102161 
L 708.804841 335.218103 
L 709.664572 337.221602 
L 710.094437 337.116155 
L 710.524303 332.792816 
L 710.954168 333.847289 
L 711.384034 333.478223 
L 711.813899 334.058183 
L 712.243765 336.852536 
L 713.103496 336.799813 
L 713.533361 333.636394 
L 714.822958 331.632896 
L 715.252824 331.527448 
L 715.682689 329.787568 
L 716.112555 329.313055 
L 716.54242 330.578423 
L 716.972286 334.321801 
L 717.402151 334.321801 
L 717.832017 334.532696 
L 718.261882 343.12665 
L 718.691748 340.80681 
L 719.121614 340.80681 
L 719.551479 340.543192 
L 719.981345 332.792816 
L 720.41121 332.950987 
L 720.841076 332.581921 
L 721.270941 334.638143 
L 721.700807 334.690867 
L 722.130672 334.058183 
L 722.560538 344.497465 
L 722.990403 345.551938 
L 723.420269 348.399015 
L 723.850134 348.76808 
L 724.28 344.602912 
L 724.28 344.602912 
" style="fill:none;stroke:#1f77b4;stroke-linecap:square;stroke-width:1.5;"/>
   </g>
   <g id="line2d_19">
    <path clip-path="url(#peefc0c668c)" d="M 53.689756 320.666377 
L 54.119622 316.07942 
L 54.549487 315.868525 
L 54.979353 314.33954 
L 55.839084 316.07942 
L 56.268949 311.703357 
L 56.698815 320.824548 
L 57.12868 317.344787 
L 57.558546 309.541688 
L 57.988412 320.033693 
L 58.418277 318.979221 
L 58.848143 322.458981 
L 59.278008 323.249836 
L 59.707874 315.973973 
L 60.137739 320.666377 
L 60.567605 317.977471 
L 60.99747 320.877272 
L 61.427336 321.299061 
L 61.857201 321.351785 
L 62.287067 312.652383 
L 62.716932 312.705107 
L 63.146798 312.441488 
L 63.576664 306.167375 
L 64.006529 306.747335 
L 64.436395 306.272822 
L 65.725991 306.167375 
L 66.155857 307.380018 
L 66.585722 307.749084 
L 67.445453 305.798309 
L 68.305184 299.102406 
L 69.164916 300.842286 
L 69.594781 291.562925 
L 70.884378 285.605153 
L 71.314243 293.67187 
L 71.744109 293.777318 
L 72.173974 295.042685 
L 72.60384 288.6104 
L 73.033705 288.6104 
L 73.463571 293.09191 
L 73.893437 294.462725 
L 74.323302 297.784315 
L 74.753168 295.095409 
L 75.183033 294.831791 
L 75.612899 295.886264 
L 76.042764 295.938987 
L 76.47263 297.257078 
L 76.902495 304.427494 
L 77.332361 306.53644 
L 77.762226 309.225346 
L 78.192092 301.844036 
L 78.621957 301.791312 
L 79.051823 299.787813 
L 79.481689 299.787813 
L 79.911554 299.102406 
L 80.34142 298.996959 
L 80.771285 300.473221 
L 81.201151 292.090161 
L 81.631016 288.715848 
L 82.060882 289.875768 
L 82.490747 289.875768 
L 82.920613 292.564674 
L 83.780344 289.823044 
L 84.640075 280.754577 
L 85.069941 285.288811 
L 85.499806 279.910999 
L 85.929672 279.647381 
L 86.359537 273.215096 
L 86.789403 275.271318 
L 87.649134 271.791557 
L 88.078999 273.689609 
L 88.508865 266.730087 
L 88.93873 266.308298 
L 89.368596 266.571917 
L 89.798462 263.461221 
L 90.228327 262.195854 
L 90.658193 259.085159 
L 91.517924 248.856772 
L 91.947789 253.02194 
L 92.377655 250.385757 
L 93.237386 250.385757 
L 93.667251 242.371763 
L 94.097117 241.791803 
L 94.526982 241.580908 
L 94.956848 241.580908 
L 95.386714 249.384008 
L 95.816579 238.944726 
L 96.246445 241.528185 
L 96.67631 252.02019 
L 97.106176 252.652874 
L 97.536041 253.02194 
L 97.965907 260.139632 
L 98.395772 260.350526 
L 98.825638 264.146629 
L 99.255503 254.234583 
L 99.685369 248.276811 
L 100.115235 246.167866 
L 100.974966 248.962219 
L 101.404831 244.375262 
L 101.834697 249.278561 
L 102.264562 249.647626 
L 102.694428 260.086908 
L 103.124293 259.928737 
L 103.554159 267.731837 
L 103.984024 269.735335 
L 104.41389 265.728338 
L 104.843755 271.211597 
L 105.273621 271.422492 
L 105.703487 278.751079 
L 106.563218 259.665119 
L 106.993083 269.208099 
L 107.422949 269.629888 
L 107.852814 270.684361 
L 108.28268 265.781062 
L 109.142411 271.633387 
L 109.572276 269.313546 
L 110.002142 258.821541 
L 110.432008 258.557922 
L 110.861873 264.88476 
L 111.291739 255.078162 
L 111.721604 255.289056 
L 112.15147 244.797051 
L 112.581335 240.051923 
L 113.011201 250.385757 
L 113.441066 250.333034 
L 113.870932 249.067666 
L 114.300797 248.804048 
L 114.730663 248.751324 
L 115.160528 249.278561 
L 115.590394 250.649375 
L 116.02026 248.329535 
L 116.450125 251.598401 
L 116.879991 257.028937 
L 117.309856 258.768817 
L 117.739722 258.505199 
L 118.169587 251.545677 
L 118.599453 254.867267 
L 119.029318 254.76182 
L 119.459184 247.855022 
L 119.889049 247.907746 
L 120.74878 227.71459 
L 121.178646 233.250572 
L 121.608512 241.844527 
L 122.038377 241.844527 
L 122.468243 241.159119 
L 122.898108 240.842777 
L 123.757839 260.350526 
L 124.187705 260.139632 
L 125.047436 261.510447 
L 125.477301 271.68611 
L 125.907167 273.162372 
L 126.337033 276.958475 
L 126.766898 282.178116 
L 127.196764 292.301056 
L 127.626629 292.301056 
L 128.056495 293.460976 
L 128.48636 303.79481 
L 128.916226 303.531192 
L 129.346091 313.91775 
L 129.775957 320.244588 
L 130.205822 320.244588 
L 130.635688 319.98097 
L 131.065553 321.246337 
L 131.495419 321.615403 
L 132.35515 321.773574 
L 132.785016 330.420252 
L 133.214881 332.634645 
L 133.644747 339.014206 
L 134.074612 339.172377 
L 134.504478 337.168878 
L 134.934343 336.852536 
L 135.794074 350.086172 
L 136.22394 350.34979 
L 136.653806 356.465733 
L 137.083671 356.307562 
L 137.943402 377.027955 
L 138.373268 377.39702 
L 138.803133 377.39702 
L 139.232999 377.238849 
L 140.09273 378.135151 
L 140.522595 378.187875 
L 141.382326 377.924257 
L 141.812192 378.082427 
L 142.242058 379.453242 
L 142.671923 379.769584 
L 143.101789 379.1369 
L 143.96152 378.662388 
L 144.391385 379.031453 
L 144.821251 379.084177 
L 145.251116 379.664137 
L 145.680982 379.611413 
L 146.110847 379.875031 
L 147.400444 380.033202 
L 147.83031 380.349544 
L 148.260175 380.349544 
L 149.549772 379.980479 
L 149.979637 379.347795 
L 150.409503 379.400519 
L 150.839368 379.189624 
L 151.269234 378.715111 
L 151.699099 380.771333 
L 152.128965 381.404017 
L 152.988696 382.089425 
L 153.418562 381.87853 
L 153.848427 379.55869 
L 154.708158 379.611413 
L 155.138024 379.822308 
L 155.567889 379.611413 
L 155.997755 378.293322 
L 156.42762 377.924257 
L 156.857486 376.606165 
L 157.287351 376.447994 
L 157.717217 376.606165 
L 158.147083 376.395271 
L 159.006814 376.395271 
L 159.436679 376.131653 
L 159.866545 376.026205 
L 160.29641 376.606165 
L 160.726276 376.658889 
L 161.156141 376.869784 
L 161.586007 376.764336 
L 162.015872 376.975231 
L 162.445738 376.500718 
L 162.875604 376.711613 
L 163.735335 376.289824 
L 164.1652 376.289824 
L 165.024931 375.868034 
L 165.454797 375.07718 
L 165.884662 374.022707 
L 166.314528 374.07543 
L 166.744393 373.706365 
L 167.174259 374.444496 
L 168.03399 374.444496 
L 168.463856 375.235351 
L 168.893721 375.498969 
L 169.323587 374.022707 
L 170.183318 373.442747 
L 171.043049 371.333801 
L 171.472914 371.491972 
L 171.90278 371.17563 
L 172.332645 371.017459 
L 172.762511 371.17563 
L 173.622242 372.282826 
L 174.052108 372.33555 
L 174.481973 372.230103 
L 174.911839 370.59567 
L 175.77157 370.912012 
L 176.201435 370.753841 
L 177.920897 371.070183 
L 179.210494 370.648393 
L 179.64036 370.701117 
L 180.070225 370.490222 
L 180.500091 370.59567 
L 180.929956 369.488473 
L 181.359822 369.277579 
L 182.219553 369.488473 
L 182.649418 370.068433 
L 183.079284 371.386524 
L 183.509149 371.333801 
L 183.939015 370.859288 
L 184.798746 370.806564 
L 185.228612 371.122906 
L 185.658477 369.752091 
L 186.088343 369.646644 
L 186.518208 371.122906 
L 186.948074 371.650143 
L 187.377939 370.59567 
L 187.807805 371.75559 
L 188.23767 374.866285 
L 188.667536 372.282826 
L 189.097402 372.177379 
L 189.527267 371.386524 
L 189.957133 371.281077 
L 190.386998 370.01571 
L 190.816864 369.541197 
L 191.246729 368.855789 
L 191.676595 366.483225 
L 192.10646 368.117658 
L 192.966191 368.223106 
L 193.396057 366.588673 
L 194.255788 366.588673 
L 194.685654 364.848792 
L 195.115519 364.848792 
L 196.834981 365.586923 
L 197.264847 364.690621 
L 197.694712 364.690621 
L 198.124578 365.850542 
L 198.984309 365.745094 
L 199.414174 365.692371 
L 199.84404 365.270582 
L 200.273906 363.636149 
L 200.703771 363.688872 
L 201.133637 364.216109 
L 201.563502 363.95249 
L 201.993368 363.477978 
L 202.423233 363.267083 
L 202.853099 364.479727 
L 203.282964 364.743345 
L 204.142695 364.637898 
L 204.572561 365.5342 
L 205.002427 365.006963 
L 205.432292 365.797818 
L 205.862158 366.852291 
L 206.292023 366.69412 
L 206.721889 367.379527 
L 207.151754 367.27408 
L 207.58162 367.85404 
L 208.011485 362.21261 
L 208.441351 364.216109 
L 208.871216 366.852291 
L 209.301082 366.799567 
L 210.160813 366.11416 
L 210.590679 367.959487 
L 211.020544 368.064935 
L 211.45041 368.012211 
L 211.880275 369.699368 
L 212.310141 369.172131 
L 212.740006 369.066684 
L 213.169872 368.592171 
L 213.599737 358.100166 
L 214.029603 358.205613 
L 214.459468 359.207362 
L 216.608796 359.998217 
L 217.038662 360.367282 
L 217.468527 351.50971 
L 217.898393 351.615157 
L 218.328258 351.878776 
L 219.617855 353.24959 
L 220.04772 353.407761 
L 221.337317 353.196867 
L 221.767183 353.460485 
L 222.197048 354.198616 
L 222.626914 354.673129 
L 223.056779 356.202114 
L 224.346376 356.887522 
L 224.776241 358.363784 
L 225.206107 364.479727 
L 225.635972 364.479727 
L 226.065838 364.163385 
L 226.495704 364.110661 
L 227.355435 365.059687 
L 228.215166 365.059687 
L 229.074897 365.059687 
L 229.504762 365.586923 
L 229.934628 365.692371 
L 230.364493 366.061436 
L 230.794359 376.500718 
L 231.224225 376.342547 
L 232.083956 376.447994 
L 232.943687 376.500718 
L 233.373552 376.184376 
L 233.803418 376.131653 
L 234.233283 376.395271 
L 235.52288 376.395271 
L 235.952745 376.184376 
L 236.812477 376.2371 
L 237.672208 376.131653 
L 238.102073 376.395271 
L 238.531939 376.342547 
L 239.39167 355.516707 
L 240.681266 355.780325 
L 241.111132 345.341043 
L 242.830594 345.393767 
L 243.26046 345.657385 
L 244.120191 345.762833 
L 245.409787 344.761083 
L 247.12925 344.655636 
L 247.559115 344.655636 
L 247.988981 334.216354 
L 248.418846 334.374525 
L 249.278577 334.269078 
L 250.138308 334.058183 
L 250.568174 334.479972 
L 251.427905 334.427249 
L 251.85777 344.813807 
L 252.287636 334.427249 
L 252.717502 334.216354 
L 253.147367 334.374525 
L 254.436964 334.269078 
L 254.866829 334.321801 
L 255.72656 334.163631 
L 256.586291 354.989471 
L 257.016157 354.884023 
L 257.875888 354.936747 
L 258.305754 365.112411 
L 259.59535 365.112411 
L 260.025216 364.95424 
L 260.884947 364.848792 
L 261.314812 364.796069 
L 261.744678 364.95424 
L 262.174543 365.323305 
L 262.604409 365.5342 
L 263.034275 365.059687 
L 264.753737 365.323305 
L 265.183602 375.604416 
L 266.043333 375.498969 
L 266.473199 375.604416 
L 266.903064 375.182627 
L 267.33293 375.129903 
L 267.762795 364.637898 
L 269.052392 364.796069 
L 269.482258 375.288074 
L 269.912123 375.498969 
L 271.20172 375.446245 
L 271.631585 365.059687 
L 272.061451 365.006963 
L 272.491316 354.620405 
L 272.921182 354.673129 
L 273.351048 354.567681 
L 273.780913 354.145892 
L 275.07051 354.093169 
L 275.500375 343.917505 
L 276.789972 343.864781 
L 277.649703 343.970229 
L 278.079568 343.970229 
L 278.509434 333.530947 
L 278.9393 333.689118 
L 279.369165 333.636394 
L 279.799031 333.741841 
L 280.228896 334.269078 
L 281.088627 334.269078 
L 281.518493 323.829796 
L 282.378224 323.88252 
L 282.808089 323.987967 
L 283.667821 323.88252 
L 284.097686 324.357032 
L 284.527552 324.567927 
L 284.957417 334.954485 
L 285.387283 334.954485 
L 285.817148 324.46248 
L 286.676879 324.093414 
L 287.966476 323.88252 
L 288.396341 324.093414 
L 288.826207 334.532696 
L 289.256073 334.479972 
L 289.685938 344.919254 
L 290.115804 334.479972 
L 290.545669 334.532696 
L 290.975535 335.059932 
L 292.265131 335.007209 
L 292.694997 345.393767 
L 293.554728 345.393767 
L 293.984593 334.954485 
L 294.414459 334.954485 
L 295.27419 314.128645 
L 295.704056 314.128645 
L 298.283249 251.387507 
L 298.713114 261.826788 
L 300.002711 230.61439 
L 301.292308 230.667114 
L 301.722173 230.245325 
L 302.152039 219.858766 
L 302.581904 219.858766 
L 303.01177 230.350772 
L 303.441635 220.122385 
L 303.871501 220.175108 
L 305.161098 188.96271 
L 306.020829 188.96271 
L 306.450694 189.068157 
L 306.88056 188.751815 
L 307.310425 199.138373 
L 309.889619 136.660853 
L 310.319484 136.713577 
L 310.74935 136.397235 
L 311.179215 146.520175 
L 311.609081 136.080893 
L 312.898677 166.871502 
L 313.328543 166.871502 
L 313.758408 176.361758 
L 314.618139 176.361758 
L 315.048005 186.80104 
L 315.477871 186.80104 
L 315.907736 176.361758 
L 317.197333 206.572408 
L 317.627198 206.625131 
L 318.486929 185.64112 
L 318.916795 186.062909 
L 319.34666 187.750066 
L 319.776526 187.750066 
L 320.206391 187.539171 
L 320.636257 197.92573 
L 321.925854 197.873006 
L 322.785585 197.92573 
L 323.21545 187.433724 
L 323.645316 186.80104 
L 324.075181 185.113884 
L 324.505047 185.113884 
L 326.224509 224.709342 
L 326.654375 235.201347 
L 327.514106 235.201347 
L 327.943971 225.078407 
L 328.373837 225.447473 
L 328.803702 235.254071 
L 329.233568 235.834031 
L 329.663433 225.342025 
L 330.093299 224.762065 
L 330.523164 235.201347 
L 330.95303 236.150373 
L 331.812761 257.134384 
L 332.242627 246.695102 
L 332.672492 246.695102 
L 333.102358 257.187108 
L 333.532223 246.747826 
L 333.962089 247.802299 
L 334.391954 246.37876 
L 334.82182 246.326037 
L 335.681551 267.257324 
L 336.111417 267.2046 
L 336.541282 272.002452 
L 337.401013 251.229336 
L 338.260744 251.334783 
L 339.550341 282.38901 
L 339.980206 280.174617 
L 340.410072 290.455728 
L 340.839937 291.088412 
L 341.269803 293.039187 
L 341.699669 292.933739 
L 342.129534 293.935489 
L 342.5594 294.040936 
L 342.989265 295.042685 
L 343.419131 294.831791 
L 343.848996 294.831791 
L 344.278862 305.323796 
L 344.708727 303.056679 
L 345.138593 313.548685 
L 345.568458 313.390514 
L 345.998324 313.812303 
L 346.428189 313.75958 
L 346.858055 324.146138 
L 347.287921 324.726098 
L 348.147652 324.673374 
L 348.577517 324.198861 
L 349.007383 324.146138 
L 349.867114 345.024702 
L 350.296979 344.1284 
L 350.726845 353.091419 
L 351.15671 353.038696 
L 351.586576 354.462234 
L 352.016442 354.145892 
L 353.306038 353.882274 
L 353.735904 356.043944 
L 354.595635 376.922507 
L 355.0255 375.340798 
L 355.455366 374.549943 
L 355.885231 374.444496 
L 356.315097 374.602667 
L 356.744962 372.757339 
L 357.174828 374.866285 
L 357.604694 373.49547 
L 358.464425 372.968234 
L 359.324156 373.126405 
L 359.754021 373.073681 
L 360.183887 371.597419 
L 360.613752 371.702866 
L 361.043618 368.223106 
L 361.473483 368.117658 
L 361.903349 370.121157 
L 362.76308 370.121157 
L 363.192946 370.384775 
L 363.622811 369.962986 
L 364.052677 369.962986 
L 364.482542 369.752091 
L 364.912408 369.804815 
L 365.342273 369.646644 
L 365.772139 370.01571 
L 366.202004 370.01571 
L 366.63187 368.275829 
L 367.061735 368.012211 
L 367.491601 368.381277 
L 367.921467 369.277579 
L 368.351332 369.330302 
L 368.781198 367.643146 
L 369.640929 367.643146 
L 370.070794 367.484975 
L 370.50066 367.484975 
L 370.930525 368.908513 
L 371.790256 368.855789 
L 372.220122 370.437499 
L 372.649987 371.281077 
L 373.079853 371.17563 
L 373.509719 370.912012 
L 373.939584 372.651892 
L 374.36945 372.704616 
L 374.799315 371.386524 
L 375.659046 371.913761 
L 376.948643 371.808314 
L 377.378508 372.33555 
L 377.808374 372.440997 
L 378.23824 375.604416 
L 378.668105 374.549943 
L 379.527836 374.07543 
L 380.387567 374.180878 
L 380.817433 373.179128 
L 381.247298 373.179128 
L 381.677164 373.337299 
L 383.396626 373.231852 
L 383.826492 372.91551 
L 384.256357 372.019208 
L 384.686223 371.75559 
L 385.116088 372.177379 
L 385.545954 371.386524 
L 385.975819 372.546445 
L 386.405685 371.017459 
L 386.83555 370.964735 
L 387.265416 371.333801 
L 387.695281 371.17563 
L 388.984878 370.121157 
L 389.414744 369.910262 
L 389.844609 367.85404 
L 390.274475 362.79257 
L 390.70434 360.841795 
L 391.134206 360.947243 
L 391.564071 360.789072 
L 391.993937 363.425254 
L 392.423802 363.425254 
L 392.853668 359.523704 
L 393.713399 359.470981 
L 394.143265 359.154639 
L 394.57313 360.156388 
L 395.002996 360.050941 
L 395.432861 360.261835 
L 395.862727 361.263584 
L 396.292592 361.421755 
L 396.722458 361.210861 
L 397.152323 361.210861 
L 397.582189 360.789072 
L 398.012054 362.107163 
L 398.44192 351.720605 
L 398.871785 351.193368 
L 399.301651 350.297066 
L 400.161382 350.191619 
L 400.591248 339.752337 
L 401.021113 339.805061 
L 401.450979 340.964981 
L 401.880844 341.544941 
L 402.31071 341.38677 
L 402.740575 342.019454 
L 403.170441 337.907009 
L 403.600306 339.64689 
L 404.030172 339.330548 
L 404.460038 339.225101 
L 404.889903 339.277824 
L 405.749634 339.910508 
L 406.1795 339.64689 
L 406.609365 339.225101 
L 407.039231 341.175875 
L 407.469096 346.500964 
L 407.898962 348.609909 
L 408.328827 348.557186 
L 409.188558 348.029949 
L 409.618424 347.660884 
L 410.04829 351.404263 
L 410.478155 350.244342 
L 410.908021 349.611659 
L 411.337886 349.76983 
L 412.627483 349.506211 
L 413.057348 349.611659 
L 413.487214 349.928001 
L 413.917079 349.822553 
L 414.346945 349.137146 
L 414.776811 349.348041 
L 415.206676 349.348041 
L 415.636542 359.734599 
L 416.066407 360.314559 
L 416.496273 361.210861 
L 416.926138 361.316308 
L 417.356004 359.840046 
L 417.785869 369.646644 
L 418.215735 371.439248 
L 418.6456 371.281077 
L 419.075466 371.386524 
L 419.505331 371.650143 
L 419.935197 371.702866 
L 420.365063 375.551692 
L 420.794928 375.551692 
L 421.224794 375.920758 
L 421.654659 375.446245 
L 422.51439 375.498969 
L 422.944256 375.65714 
L 423.374121 376.2371 
L 423.803987 376.131653 
L 424.233852 375.446245 
L 425.523449 374.549943 
L 426.38318 374.708114 
L 426.813046 375.182627 
L 427.242911 375.393522 
L 427.672777 374.760838 
L 428.102642 375.393522 
L 428.532508 375.498969 
L 429.392239 374.602667 
L 429.822104 374.760838 
L 430.25197 374.339049 
L 430.681836 374.180878 
L 431.541567 375.182627 
L 431.971432 374.760838 
L 432.831163 375.024456 
L 433.261029 373.706365 
L 433.690894 373.811812 
L 434.12076 373.759089 
L 434.550625 375.07718 
L 434.980491 375.498969 
L 435.410356 375.340798 
L 435.840222 375.340798 
L 436.270088 375.182627 
L 437.559684 375.551692 
L 437.98955 375.024456 
L 438.419415 374.971732 
L 438.849281 375.393522 
L 439.709012 375.498969 
L 440.568743 375.129903 
L 440.998609 375.709863 
L 441.428474 375.709863 
L 442.288205 376.2371 
L 443.147936 376.711613 
L 443.577802 377.238849 
L 444.007667 377.238849 
L 444.437533 377.080678 
L 444.867398 378.873282 
L 445.727129 378.135151 
L 446.156995 378.451493 
L 446.586861 379.031453 
L 447.016726 378.609664 
L 447.446592 378.820559 
L 448.306323 378.767835 
L 448.736188 378.082427 
L 449.166054 378.662388 
L 450.025785 378.609664 
L 450.45565 380.033202 
L 450.885516 379.55869 
L 451.745247 379.927755 
L 452.175113 379.769584 
L 452.604978 380.191373 
L 453.034844 380.402268 
L 453.464709 380.402268 
L 453.894575 380.13865 
L 454.32444 380.13865 
L 455.184171 381.034952 
L 455.614037 381.245846 
L 456.043902 380.613162 
L 456.473768 379.347795 
L 456.903634 378.978729 
L 457.763365 378.978729 
L 458.19323 378.662388 
L 458.623096 378.820559 
L 459.052961 378.820559 
L 459.482827 378.504217 
L 459.912692 376.975231 
L 460.342558 376.869784 
L 460.772423 376.606165 
L 461.202289 376.606165 
L 461.632154 376.395271 
L 462.06202 376.606165 
L 462.491886 376.975231 
L 463.351617 377.133402 
L 463.781482 376.2371 
L 464.211348 376.500718 
L 465.071079 376.026205 
L 465.500944 376.026205 
L 465.93081 376.711613 
L 466.360675 376.764336 
L 466.790541 367.484975 
L 467.220407 366.219607 
L 467.650272 364.110661 
L 468.080138 361.158137 
L 468.510003 360.261835 
L 468.939869 359.945493 
L 469.369734 357.362035 
L 469.7996 352.880525 
L 470.229465 352.722354 
L 470.659331 352.722354 
L 471.089196 352.511459 
L 471.519062 351.667881 
L 471.948927 350.244342 
L 472.378793 348.135397 
L 473.238524 347.344542 
L 473.66839 345.657385 
L 474.098255 345.815556 
L 474.528121 345.446491 
L 474.957986 335.218103 
L 475.387852 334.532696 
L 475.817717 332.476474 
L 476.247583 325.04244 
L 476.677448 324.304309 
L 477.107314 323.249836 
L 477.537179 323.408007 
L 477.967045 322.722599 
L 478.396911 321.351785 
L 478.826776 321.72085 
L 479.256642 319.40101 
L 479.686507 319.453733 
L 480.116373 319.875522 
L 480.546238 316.237591 
L 480.976104 316.65938 
L 481.405969 315.604907 
L 481.835835 309.383517 
L 482.2657 309.541688 
L 482.695566 309.541688 
L 483.125432 308.961728 
L 483.555297 306.325545 
L 483.985163 311.334292 
L 484.844894 313.548685 
L 485.274759 316.395762 
L 485.704625 314.392263 
L 486.13449 314.761329 
L 486.564356 313.970474 
L 486.994221 314.655882 
L 487.424087 313.179619 
L 487.853952 312.336041 
L 488.283818 312.75783 
L 488.713684 309.436241 
L 489.143549 308.539939 
L 489.573415 310.912503 
L 490.00328 307.485466 
L 490.433146 308.645386 
L 490.863011 311.59791 
L 491.292877 310.543437 
L 491.722742 308.85628 
L 492.152608 317.555682 
L 492.582473 316.501209 
L 493.012339 319.190115 
L 493.442205 325.516953 
L 493.87207 325.358782 
L 494.301936 326.20236 
L 495.591532 316.922998 
L 496.021398 316.395762 
L 496.451263 311.756081 
L 497.310994 311.756081 
L 497.74086 315.077671 
L 498.170725 311.387015 
L 498.600591 311.59791 
L 499.030457 318.293813 
L 499.460322 317.450235 
L 499.890188 317.450235 
L 500.320053 316.975722 
L 501.179784 322.458981 
L 501.60965 321.035443 
L 502.039515 317.608406 
L 502.469381 318.188366 
L 502.899246 320.719101 
L 503.329112 318.39926 
L 503.758977 322.195363 
L 504.188843 322.828047 
L 504.618709 324.409756 
L 505.048574 321.088166 
L 505.47844 319.190115 
L 506.338171 320.297312 
L 506.768036 318.504708 
L 507.197902 321.404508 
L 507.627767 319.506457 
L 508.057633 319.40101 
L 508.487498 320.508206 
L 509.34723 323.987967 
L 509.777095 315.815802 
L 510.206961 313.654132 
L 511.066692 315.815802 
L 511.496557 317.8193 
L 511.926423 320.455483 
L 512.356288 324.198861 
L 512.786154 329.049437 
L 513.216019 329.576673 
L 513.645885 336.219853 
L 514.07575 336.272576 
L 514.505616 334.269078 
L 514.935482 334.216354 
L 515.365347 337.274326 
L 515.795213 338.223351 
L 516.225078 338.170628 
L 516.654944 339.383271 
L 517.084809 339.383271 
L 517.514675 340.648639 
L 517.94454 336.90526 
L 518.374406 337.907009 
L 518.804271 339.225101 
L 519.234137 343.495716 
L 519.664003 343.390269 
L 520.093868 343.759334 
L 520.523734 345.921004 
L 520.953599 345.815556 
L 521.383465 348.76808 
L 521.81333 348.820804 
L 522.243196 353.091419 
L 522.673061 354.884023 
L 523.102927 358.469231 
L 523.532792 357.836547 
L 523.962658 359.576428 
L 524.392523 360.525453 
L 524.822389 362.21261 
L 525.252255 362.159886 
L 526.111986 363.108912 
L 526.541851 362.370781 
L 526.971717 372.862787 
L 527.401582 374.180878 
L 527.831448 374.07543 
L 528.261313 374.128154 
L 528.691179 374.022707 
L 529.121044 373.653641 
L 529.55091 371.966485 
L 529.980775 371.702866 
L 530.410641 371.650143 
L 530.840507 371.966485 
L 531.270372 370.912012 
L 531.700238 371.491972 
L 532.130103 371.333801 
L 532.559969 368.961237 
L 532.989834 367.959487 
L 533.849565 367.959487 
L 534.279431 367.801317 
L 534.709296 367.326804 
L 535.139162 370.912012 
L 535.569028 371.17563 
L 535.998893 370.542946 
L 536.428759 370.226604 
L 536.858624 370.226604 
L 537.28849 370.384775 
L 537.718355 367.906764 
L 539.437817 367.906764 
L 539.867683 367.643146 
L 540.297548 367.643146 
L 540.727414 370.173881 
L 541.587145 370.068433 
L 542.017011 370.173881 
L 542.446876 369.172131 
L 542.876742 368.803066 
L 543.306607 362.634399 
L 543.736473 363.319807 
L 544.166338 363.161636 
L 544.596204 361.369032 
L 545.026069 361.738097 
L 545.455935 361.105414 
L 546.315666 361.369032 
L 546.745532 363.161636 
L 548.035128 363.108912 
L 548.464994 361.369032 
L 548.894859 362.687123 
L 549.324725 363.267083 
L 549.75459 366.535949 
L 550.184456 367.484975 
L 550.614321 365.903265 
L 551.474053 365.850542 
L 551.903918 365.376029 
L 552.333784 365.5342 
L 552.763649 365.112411 
L 553.193515 364.532451 
L 553.62338 365.165134 
L 555.772708 315.710354 
L 556.202573 315.657631 
L 556.632439 315.446736 
L 557.062305 305.37652 
L 557.922036 305.534691 
L 559.211632 274.375016 
L 559.641498 275.534936 
L 560.071363 265.411996 
L 560.501229 261.246828 
L 560.931094 261.299552 
L 562.220691 232.617889 
L 563.510288 202.354516 
L 563.940153 202.354516 
L 564.799884 181.634123 
L 565.22975 181.73957 
L 565.659615 174.041918 
L 566.089481 174.094642 
L 569.09854 104.07764 
L 569.528405 104.07764 
L 570.818002 74.552398 
L 571.247867 84.833509 
L 572.96733 84.833509 
L 573.827061 64.324011 
L 574.256926 64.324011 
L 575.116657 43.34 
L 575.976388 62.847749 
L 576.406254 70.703572 
L 577.265985 70.703572 
L 577.695851 79.192079 
L 578.125716 78.77029 
L 578.555582 89.209572 
L 578.985447 90.316768 
L 579.415313 97.434461 
L 579.845178 107.768295 
L 580.275044 114.622369 
L 580.704909 114.622369 
L 581.134775 104.130364 
L 581.56464 114.516922 
L 581.994506 114.516922 
L 582.424371 112.091634 
L 582.854237 112.091634 
L 583.284103 101.652352 
L 584.143834 101.652352 
L 584.573699 112.144358 
L 585.43343 112.144358 
L 585.863296 121.107378 
L 586.723027 121.107378 
L 587.152892 128.80503 
L 587.582758 128.80503 
L 588.012624 139.297035 
L 588.442489 129.015925 
L 590.161951 129.015925 
L 590.591817 136.660853 
L 591.021682 147.152859 
L 591.881413 147.152859 
L 592.311279 157.644864 
L 592.741144 157.855759 
L 593.17101 152.003434 
L 593.600876 152.056158 
L 594.030741 149.736317 
L 594.460607 149.736317 
L 594.890472 151.739816 
L 595.320338 152.161605 
L 595.750203 150.685343 
L 596.180069 159.701086 
L 596.609934 163.0754 
L 597.0398 162.600887 
L 597.469665 165.9752 
L 597.899531 176.203588 
L 598.329396 176.203588 
L 598.759262 165.817029 
L 599.189128 165.817029 
L 599.618993 157.750311 
L 600.478724 177.732573 
L 600.90859 177.732573 
L 601.338455 188.224579 
L 601.768321 177.732573 
L 602.198186 182.108636 
L 602.628052 191.651616 
L 603.057917 191.967958 
L 603.487783 201.194596 
L 603.917649 200.930977 
L 604.347514 203.56716 
L 604.77738 210.579405 
L 605.207245 210.526681 
L 607.356573 261.299552 
L 607.786438 261.299552 
L 608.216304 260.614145 
L 609.076035 281.387261 
L 609.505901 280.385512 
L 609.935766 280.227341 
L 610.365632 285.7106 
L 611.225363 290.350281 
L 611.655228 300.842286 
L 612.085094 300.525944 
L 612.944825 299.418748 
L 613.37469 299.73509 
L 613.804556 298.73334 
L 614.234422 298.73334 
L 614.664287 295.622645 
L 615.094153 295.886264 
L 616.383749 324.093414 
L 616.813615 333.00371 
L 617.24348 333.689118 
L 617.673346 324.989716 
L 618.103211 334.374525 
L 618.533077 333.900012 
L 618.962942 343.759334 
L 619.392808 349.400764 
L 619.822674 347.397266 
L 620.682405 349.875277 
L 621.11227 346.237345 
L 621.542136 346.184622 
L 621.972001 347.60816 
L 622.401867 347.344542 
L 622.831732 346.44824 
L 623.261598 345.921004 
L 623.691463 346.870029 
L 624.121329 344.813807 
L 624.551194 344.971978 
L 624.98106 347.819055 
L 625.410926 346.711858 
L 625.840791 343.601163 
L 626.270657 342.652137 
L 626.700522 343.653887 
L 627.130388 343.759334 
L 627.560253 344.813807 
L 627.990119 338.856035 
L 628.419984 338.434246 
L 628.84985 338.328799 
L 629.279715 338.592417 
L 629.709581 338.328799 
L 630.139447 339.225101 
L 630.569312 338.486969 
L 630.999178 333.58367 
L 631.429043 334.058183 
L 631.858909 335.903511 
L 632.288774 330.736594 
L 632.71864 331.052935 
L 633.148505 333.530947 
L 633.578371 333.530947 
L 634.008236 334.638143 
L 634.438102 333.952736 
L 634.867967 341.070428 
L 635.297833 340.754086 
L 635.727699 339.225101 
L 636.157564 339.699613 
L 636.58743 337.379773 
L 637.017295 339.805061 
L 637.877026 339.752337 
L 638.306892 343.232098 
L 639.596488 314.33954 
L 640.026354 304.902007 
L 640.45622 305.587414 
L 640.886085 305.323796 
L 641.315951 305.95648 
L 641.745816 305.798309 
L 642.175682 304.005705 
L 642.605547 305.587414 
L 643.035413 308.381768 
L 643.465278 309.172622 
L 643.895144 308.961728 
L 644.325009 307.010953 
L 644.754875 298.047933 
L 645.18474 303.952981 
L 645.614606 299.945984 
L 646.044472 292.722845 
L 646.474337 292.775569 
L 646.904203 292.301056 
L 647.334068 290.455728 
L 647.763934 291.035688 
L 648.193799 296.888013 
L 648.623665 296.940737 
L 649.05353 291.93199 
L 649.483396 296.835289 
L 649.913261 288.083164 
L 650.343127 288.135888 
L 650.772992 284.656127 
L 651.202858 284.603403 
L 651.632724 284.234338 
L 652.062589 285.816047 
L 652.492455 281.22909 
L 652.92232 280.860025 
L 653.352186 280.912748 
L 653.782051 274.638634 
L 654.211917 275.0077 
L 654.641782 271.580663 
L 655.071648 271.527939 
L 655.501513 271.844281 
L 656.79111 300.684115 
L 657.220976 307.959979 
L 657.650841 308.065426 
L 658.080707 308.381768 
L 658.940438 303.003956 
L 659.370303 294.304554 
L 659.800169 293.144634 
L 660.230034 292.51195 
L 661.089765 275.324042 
L 661.519631 273.900503 
L 661.949497 276.009449 
L 662.379362 270.104401 
L 662.809228 274.744082 
L 663.239093 281.80905 
L 663.668959 280.860025 
L 664.098824 281.967221 
L 664.52869 280.912748 
L 664.958555 279.383762 
L 665.388421 279.278315 
L 665.818286 271.633387 
L 666.248152 278.118395 
L 666.678018 278.32929 
L 667.107883 281.018195 
L 667.537749 280.490959 
L 668.39748 281.176366 
L 668.827345 282.336287 
L 669.257211 272.055176 
L 670.116942 262.564919 
L 670.546807 261.088657 
L 670.976673 269.94623 
L 671.406538 270.051677 
L 671.836404 269.049928 
L 673.126001 268.997204 
L 673.555866 270.420743 
L 674.415597 272.107899 
L 674.845463 268.417244 
L 675.275328 266.993706 
L 676.135059 256.238082 
L 676.564925 264.568418 
L 676.99479 264.199352 
L 677.424656 265.095654 
L 677.854522 270.578914 
L 678.284387 270.737085 
L 678.714253 267.415495 
L 679.144118 271.949728 
L 679.573984 274.691358 
L 680.003849 274.691358 
L 680.433715 265.939233 
L 680.86358 261.088657 
L 681.293446 261.246828 
L 681.723311 265.253825 
L 682.153177 266.940982 
L 682.583043 256.607147 
L 683.012908 264.3048 
L 683.442774 262.72309 
L 683.872639 262.72309 
L 684.302505 268.417244 
L 684.73237 269.260822 
L 685.162236 272.318794 
L 685.592101 263.883011 
L 686.021967 263.830287 
L 686.451832 267.837284 
L 686.881698 278.276566 
L 687.311563 285.446982 
L 687.741429 286.448731 
L 688.171295 285.341534 
L 688.60116 285.341534 
L 689.031026 286.079665 
L 689.460891 286.079665 
L 689.890757 285.921495 
L 690.750488 286.132389 
L 691.180353 285.341534 
L 691.610219 286.396007 
L 692.040084 286.923244 
L 692.46995 285.394258 
L 693.329681 303.109403 
L 694.189412 306.641887 
L 694.619278 305.271073 
L 695.049143 307.643637 
L 695.908874 321.879021 
L 696.768605 327.94224 
L 697.198471 327.94224 
L 697.628336 336.957984 
L 698.058202 342.599414 
L 698.917933 342.441243 
L 699.347799 341.334046 
L 699.777664 342.335796 
L 700.637395 342.335796 
L 701.067261 341.492217 
L 701.497126 339.435995 
L 701.926992 338.856035 
L 702.356857 337.168878 
L 702.786723 343.917505 
L 703.216588 343.12665 
L 703.646454 349.611659 
L 704.506185 349.295317 
L 704.936051 349.76983 
L 705.365916 344.1284 
L 705.795782 344.022952 
L 706.225647 346.870029 
L 706.655513 346.606411 
L 707.945109 346.342793 
L 708.374975 340.701363 
L 708.804841 341.755836 
L 709.664572 347.713607 
L 710.094437 342.441243 
L 710.524303 338.803311 
L 710.954168 339.119653 
L 711.384034 328.680371 
L 711.813899 327.94224 
L 712.243765 329.629397 
L 712.67363 325.675124 
L 713.103496 325.6224 
L 713.533361 315.183118 
L 713.963227 314.603158 
L 714.393093 306.641887 
L 714.822958 306.430993 
L 715.252824 306.378269 
L 715.682689 300.947734 
L 716.112555 300.262326 
L 716.54242 301.264075 
L 716.972286 306.589164 
L 717.402151 305.745585 
L 717.832017 307.327295 
L 718.261882 307.69636 
L 718.691748 309.647135 
L 719.121614 310.227095 
L 719.551479 309.699859 
L 719.981345 308.85628 
L 720.41121 309.699859 
L 720.841076 309.383517 
L 721.270941 309.541688 
L 721.700807 309.85803 
L 722.130672 309.752582 
L 722.560538 316.553933 
L 722.990403 316.65938 
L 723.420269 317.450235 
L 723.850134 309.647135 
L 724.28 307.538189 
L 724.28 307.538189 
" style="fill:none;stroke:#ff7f0e;stroke-linecap:square;stroke-width:1.5;"/>
   </g>
   <g id="patch_3">
    <path d="M 36.925 404.12 
L 36.925 26.16 
" style="fill:none;stroke:#000000;stroke-linecap:square;stroke-linejoin:miter;stroke-width:0.8;"/>
   </g>
   <g id="patch_4">
    <path d="M 724.28 404.12 
L 724.28 26.16 
" style="fill:none;stroke:#000000;stroke-linecap:square;stroke-linejoin:miter;stroke-width:0.8;"/>
   </g>
   <g id="patch_5">
    <path d="M 36.925 404.12 
L 724.28 404.12 
" style="fill:none;stroke:#000000;stroke-linecap:square;stroke-linejoin:miter;stroke-width:0.8;"/>
   </g>
   <g id="patch_6">
    <path d="M 36.925 26.16 
L 724.28 26.16 
" style="fill:none;stroke:#000000;stroke-linecap:square;stroke-linejoin:miter;stroke-width:0.8;"/>
   </g>
   <g id="text_18">
    <!-- gridworld_5x5_100_2_8_42__2: episode duration, steps, MA=40 -->
    <defs>
     <path d="M 45.40625 27.984375 
Q 45.40625 37.75 41.375 43.109375 
Q 37.359375 48.484375 30.078125 48.484375 
Q 22.859375 48.484375 18.828125 43.109375 
Q 14.796875 37.75 14.796875 27.984375 
Q 14.796875 18.265625 18.828125 12.890625 
Q 22.859375 7.515625 30.078125 7.515625 
Q 37.359375 7.515625 41.375 12.890625 
Q 45.40625 18.265625 45.40625 27.984375 
z
M 54.390625 6.78125 
Q 54.390625 -7.171875 48.1875 -13.984375 
Q 42 -20.796875 29.203125 -20.796875 
Q 24.46875 -20.796875 20.265625 -20.09375 
Q 16.0625 -19.390625 12.109375 -17.921875 
L 12.109375 -9.1875 
Q 16.0625 -11.328125 19.921875 -12.34375 
Q 23.78125 -13.375 27.78125 -13.375 
Q 36.625 -13.375 41.015625 -8.765625 
Q 45.40625 -4.15625 45.40625 5.171875 
L 45.40625 9.625 
Q 42.625 4.78125 38.28125 2.390625 
Q 33.9375 0 27.875 0 
Q 17.828125 0 11.671875 7.65625 
Q 5.515625 15.328125 5.515625 27.984375 
Q 5.515625 40.671875 11.671875 48.328125 
Q 17.828125 56 27.875 56 
Q 33.9375 56 38.28125 53.609375 
Q 42.625 51.21875 45.40625 46.390625 
L 45.40625 54.6875 
L 54.390625 54.6875 
z
" id="DejaVuSans-103"/>
     <path d="M 41.109375 46.296875 
Q 39.59375 47.171875 37.8125 47.578125 
Q 36.03125 48 33.890625 48 
Q 26.265625 48 22.1875 43.046875 
Q 18.109375 38.09375 18.109375 28.8125 
L 18.109375 0 
L 9.078125 0 
L 9.078125 54.6875 
L 18.109375 54.6875 
L 18.109375 46.1875 
Q 20.953125 51.171875 25.484375 53.578125 
Q 30.03125 56 36.53125 56 
Q 37.453125 56 38.578125 55.875 
Q 39.703125 55.765625 41.0625 55.515625 
z
" id="DejaVuSans-114"/>
     <path d="M 9.421875 54.6875 
L 18.40625 54.6875 
L 18.40625 0 
L 9.421875 0 
z
M 9.421875 75.984375 
L 18.40625 75.984375 
L 18.40625 64.59375 
L 9.421875 64.59375 
z
" id="DejaVuSans-105"/>
     <path d="M 45.40625 46.390625 
L 45.40625 75.984375 
L 54.390625 75.984375 
L 54.390625 0 
L 45.40625 0 
L 45.40625 8.203125 
Q 42.578125 3.328125 38.25 0.953125 
Q 33.9375 -1.421875 27.875 -1.421875 
Q 17.96875 -1.421875 11.734375 6.484375 
Q 5.515625 14.40625 5.515625 27.296875 
Q 5.515625 40.1875 11.734375 48.09375 
Q 17.96875 56 27.875 56 
Q 33.9375 56 38.25 53.625 
Q 42.578125 51.265625 45.40625 46.390625 
z
M 14.796875 27.296875 
Q 14.796875 17.390625 18.875 11.75 
Q 22.953125 6.109375 30.078125 6.109375 
Q 37.203125 6.109375 41.296875 11.75 
Q 45.40625 17.390625 45.40625 27.296875 
Q 45.40625 37.203125 41.296875 42.84375 
Q 37.203125 48.484375 30.078125 48.484375 
Q 22.953125 48.484375 18.875 42.84375 
Q 14.796875 37.203125 14.796875 27.296875 
z
" id="DejaVuSans-100"/>
     <path d="M 4.203125 54.6875 
L 13.1875 54.6875 
L 24.421875 12.015625 
L 35.59375 54.6875 
L 46.1875 54.6875 
L 57.421875 12.015625 
L 68.609375 54.6875 
L 77.59375 54.6875 
L 63.28125 0 
L 52.6875 0 
L 40.921875 44.828125 
L 29.109375 0 
L 18.5 0 
z
" id="DejaVuSans-119"/>
     <path d="M 30.609375 48.390625 
Q 23.390625 48.390625 19.1875 42.75 
Q 14.984375 37.109375 14.984375 27.296875 
Q 14.984375 17.484375 19.15625 11.84375 
Q 23.34375 6.203125 30.609375 6.203125 
Q 37.796875 6.203125 41.984375 11.859375 
Q 46.1875 17.53125 46.1875 27.296875 
Q 46.1875 37.015625 41.984375 42.703125 
Q 37.796875 48.390625 30.609375 48.390625 
z
M 30.609375 56 
Q 42.328125 56 49.015625 48.375 
Q 55.71875 40.765625 55.71875 27.296875 
Q 55.71875 13.875 49.015625 6.21875 
Q 42.328125 -1.421875 30.609375 -1.421875 
Q 18.84375 -1.421875 12.171875 6.21875 
Q 5.515625 13.875 5.515625 27.296875 
Q 5.515625 40.765625 12.171875 48.375 
Q 18.84375 56 30.609375 56 
z
" id="DejaVuSans-111"/>
     <path d="M 9.421875 75.984375 
L 18.40625 75.984375 
L 18.40625 0 
L 9.421875 0 
z
" id="DejaVuSans-108"/>
     <path d="M 50.984375 -16.609375 
L 50.984375 -23.578125 
L -0.984375 -23.578125 
L -0.984375 -16.609375 
z
" id="DejaVuSans-95"/>
     <path d="M 10.796875 72.90625 
L 49.515625 72.90625 
L 49.515625 64.59375 
L 19.828125 64.59375 
L 19.828125 46.734375 
Q 21.96875 47.46875 24.109375 47.828125 
Q 26.265625 48.1875 28.421875 48.1875 
Q 40.625 48.1875 47.75 41.5 
Q 54.890625 34.8125 54.890625 23.390625 
Q 54.890625 11.625 47.5625 5.09375 
Q 40.234375 -1.421875 26.90625 -1.421875 
Q 22.3125 -1.421875 17.546875 -0.640625 
Q 12.796875 0.140625 7.71875 1.703125 
L 7.71875 11.625 
Q 12.109375 9.234375 16.796875 8.0625 
Q 21.484375 6.890625 26.703125 6.890625 
Q 35.15625 6.890625 40.078125 11.328125 
Q 45.015625 15.765625 45.015625 23.390625 
Q 45.015625 31 40.078125 35.4375 
Q 35.15625 39.890625 26.703125 39.890625 
Q 22.75 39.890625 18.8125 39.015625 
Q 14.890625 38.140625 10.796875 36.28125 
z
" id="DejaVuSans-53"/>
     <path d="M 54.890625 54.6875 
L 35.109375 28.078125 
L 55.90625 0 
L 45.3125 0 
L 29.390625 21.484375 
L 13.484375 0 
L 2.875 0 
L 24.125 28.609375 
L 4.6875 54.6875 
L 15.28125 54.6875 
L 29.78125 35.203125 
L 44.28125 54.6875 
z
" id="DejaVuSans-120"/>
     <path d="M 11.71875 12.40625 
L 22.015625 12.40625 
L 22.015625 0 
L 11.71875 0 
z
M 11.71875 51.703125 
L 22.015625 51.703125 
L 22.015625 39.3125 
L 11.71875 39.3125 
z
" id="DejaVuSans-58"/>
     <path id="DejaVuSans-32"/>
     <path d="M 56.203125 29.59375 
L 56.203125 25.203125 
L 14.890625 25.203125 
Q 15.484375 15.921875 20.484375 11.0625 
Q 25.484375 6.203125 34.421875 6.203125 
Q 39.59375 6.203125 44.453125 7.46875 
Q 49.3125 8.734375 54.109375 11.28125 
L 54.109375 2.78125 
Q 49.265625 0.734375 44.1875 -0.34375 
Q 39.109375 -1.421875 33.890625 -1.421875 
Q 20.796875 -1.421875 13.15625 6.1875 
Q 5.515625 13.8125 5.515625 26.8125 
Q 5.515625 40.234375 12.765625 48.109375 
Q 20.015625 56 32.328125 56 
Q 43.359375 56 49.78125 48.890625 
Q 56.203125 41.796875 56.203125 29.59375 
z
M 47.21875 32.234375 
Q 47.125 39.59375 43.09375 43.984375 
Q 39.0625 48.390625 32.421875 48.390625 
Q 24.90625 48.390625 20.390625 44.140625 
Q 15.875 39.890625 15.1875 32.171875 
z
" id="DejaVuSans-101"/>
     <path d="M 18.109375 8.203125 
L 18.109375 -20.796875 
L 9.078125 -20.796875 
L 9.078125 54.6875 
L 18.109375 54.6875 
L 18.109375 46.390625 
Q 20.953125 51.265625 25.265625 53.625 
Q 29.59375 56 35.59375 56 
Q 45.5625 56 51.78125 48.09375 
Q 58.015625 40.1875 58.015625 27.296875 
Q 58.015625 14.40625 51.78125 6.484375 
Q 45.5625 -1.421875 35.59375 -1.421875 
Q 29.59375 -1.421875 25.265625 0.953125 
Q 20.953125 3.328125 18.109375 8.203125 
z
M 48.6875 27.296875 
Q 48.6875 37.203125 44.609375 42.84375 
Q 40.53125 48.484375 33.40625 48.484375 
Q 26.265625 48.484375 22.1875 42.84375 
Q 18.109375 37.203125 18.109375 27.296875 
Q 18.109375 17.390625 22.1875 11.75 
Q 26.265625 6.109375 33.40625 6.109375 
Q 40.53125 6.109375 44.609375 11.75 
Q 48.6875 17.390625 48.6875 27.296875 
z
" id="DejaVuSans-112"/>
     <path d="M 44.28125 53.078125 
L 44.28125 44.578125 
Q 40.484375 46.53125 36.375 47.5 
Q 32.28125 48.484375 27.875 48.484375 
Q 21.1875 48.484375 17.84375 46.4375 
Q 14.5 44.390625 14.5 40.28125 
Q 14.5 37.15625 16.890625 35.375 
Q 19.28125 33.59375 26.515625 31.984375 
L 29.59375 31.296875 
Q 39.15625 29.25 43.1875 25.515625 
Q 47.21875 21.78125 47.21875 15.09375 
Q 47.21875 7.46875 41.1875 3.015625 
Q 35.15625 -1.421875 24.609375 -1.421875 
Q 20.21875 -1.421875 15.453125 -0.5625 
Q 10.6875 0.296875 5.421875 2 
L 5.421875 11.28125 
Q 10.40625 8.6875 15.234375 7.390625 
Q 20.0625 6.109375 24.8125 6.109375 
Q 31.15625 6.109375 34.5625 8.28125 
Q 37.984375 10.453125 37.984375 14.40625 
Q 37.984375 18.0625 35.515625 20.015625 
Q 33.0625 21.96875 24.703125 23.78125 
L 21.578125 24.515625 
Q 13.234375 26.265625 9.515625 29.90625 
Q 5.8125 33.546875 5.8125 39.890625 
Q 5.8125 47.609375 11.28125 51.796875 
Q 16.75 56 26.8125 56 
Q 31.78125 56 36.171875 55.265625 
Q 40.578125 54.546875 44.28125 53.078125 
z
" id="DejaVuSans-115"/>
     <path d="M 8.5 21.578125 
L 8.5 54.6875 
L 17.484375 54.6875 
L 17.484375 21.921875 
Q 17.484375 14.15625 20.5 10.265625 
Q 23.53125 6.390625 29.59375 6.390625 
Q 36.859375 6.390625 41.078125 11.03125 
Q 45.3125 15.671875 45.3125 23.6875 
L 45.3125 54.6875 
L 54.296875 54.6875 
L 54.296875 0 
L 45.3125 0 
L 45.3125 8.40625 
Q 42.046875 3.421875 37.71875 1 
Q 33.40625 -1.421875 27.6875 -1.421875 
Q 18.265625 -1.421875 13.375 4.4375 
Q 8.5 10.296875 8.5 21.578125 
z
M 31.109375 56 
z
" id="DejaVuSans-117"/>
     <path d="M 34.28125 27.484375 
Q 23.390625 27.484375 19.1875 25 
Q 14.984375 22.515625 14.984375 16.5 
Q 14.984375 11.71875 18.140625 8.90625 
Q 21.296875 6.109375 26.703125 6.109375 
Q 34.1875 6.109375 38.703125 11.40625 
Q 43.21875 16.703125 43.21875 25.484375 
L 43.21875 27.484375 
z
M 52.203125 31.203125 
L 52.203125 0 
L 43.21875 0 
L 43.21875 8.296875 
Q 40.140625 3.328125 35.546875 0.953125 
Q 30.953125 -1.421875 24.3125 -1.421875 
Q 15.921875 -1.421875 10.953125 3.296875 
Q 6 8.015625 6 15.921875 
Q 6 25.140625 12.171875 29.828125 
Q 18.359375 34.515625 30.609375 34.515625 
L 43.21875 34.515625 
L 43.21875 35.40625 
Q 43.21875 41.609375 39.140625 45 
Q 35.0625 48.390625 27.6875 48.390625 
Q 23 48.390625 18.546875 47.265625 
Q 14.109375 46.140625 10.015625 43.890625 
L 10.015625 52.203125 
Q 14.9375 54.109375 19.578125 55.046875 
Q 24.21875 56 28.609375 56 
Q 40.484375 56 46.34375 49.84375 
Q 52.203125 43.703125 52.203125 31.203125 
z
" id="DejaVuSans-97"/>
     <path d="M 18.3125 70.21875 
L 18.3125 54.6875 
L 36.8125 54.6875 
L 36.8125 47.703125 
L 18.3125 47.703125 
L 18.3125 18.015625 
Q 18.3125 11.328125 20.140625 9.421875 
Q 21.96875 7.515625 27.59375 7.515625 
L 36.8125 7.515625 
L 36.8125 0 
L 27.59375 0 
Q 17.1875 0 13.234375 3.875 
Q 9.28125 7.765625 9.28125 18.015625 
L 9.28125 47.703125 
L 2.6875 47.703125 
L 2.6875 54.6875 
L 9.28125 54.6875 
L 9.28125 70.21875 
z
" id="DejaVuSans-116"/>
     <path d="M 54.890625 33.015625 
L 54.890625 0 
L 45.90625 0 
L 45.90625 32.71875 
Q 45.90625 40.484375 42.875 44.328125 
Q 39.84375 48.1875 33.796875 48.1875 
Q 26.515625 48.1875 22.3125 43.546875 
Q 18.109375 38.921875 18.109375 30.90625 
L 18.109375 0 
L 9.078125 0 
L 9.078125 54.6875 
L 18.109375 54.6875 
L 18.109375 46.1875 
Q 21.34375 51.125 25.703125 53.5625 
Q 30.078125 56 35.796875 56 
Q 45.21875 56 50.046875 50.171875 
Q 54.890625 44.34375 54.890625 33.015625 
z
" id="DejaVuSans-110"/>
     <path d="M 11.71875 12.40625 
L 22.015625 12.40625 
L 22.015625 4 
L 14.015625 -11.625 
L 7.71875 -11.625 
L 11.71875 4 
z
" id="DejaVuSans-44"/>
     <path d="M 9.8125 72.90625 
L 24.515625 72.90625 
L 43.109375 23.296875 
L 61.8125 72.90625 
L 76.515625 72.90625 
L 76.515625 0 
L 66.890625 0 
L 66.890625 64.015625 
L 48.09375 14.015625 
L 38.1875 14.015625 
L 19.390625 64.015625 
L 19.390625 0 
L 9.8125 0 
z
" id="DejaVuSans-77"/>
     <path d="M 34.1875 63.1875 
L 20.796875 26.90625 
L 47.609375 26.90625 
z
M 28.609375 72.90625 
L 39.796875 72.90625 
L 67.578125 0 
L 57.328125 0 
L 50.6875 18.703125 
L 17.828125 18.703125 
L 11.1875 0 
L 0.78125 0 
z
" id="DejaVuSans-65"/>
     <path d="M 10.59375 45.40625 
L 73.1875 45.40625 
L 73.1875 37.203125 
L 10.59375 37.203125 
z
M 10.59375 25.484375 
L 73.1875 25.484375 
L 73.1875 17.1875 
L 10.59375 17.1875 
z
" id="DejaVuSans-61"/>
    </defs>
    <g transform="translate(189.379687 20.16)scale(0.12 -0.12)">
     <use xlink:href="#DejaVuSans-103"/>
     <use x="63.476562" xlink:href="#DejaVuSans-114"/>
     <use x="104.589844" xlink:href="#DejaVuSans-105"/>
     <use x="132.373047" xlink:href="#DejaVuSans-100"/>
     <use x="195.849609" xlink:href="#DejaVuSans-119"/>
     <use x="277.636719" xlink:href="#DejaVuSans-111"/>
     <use x="338.818359" xlink:href="#DejaVuSans-114"/>
     <use x="379.931641" xlink:href="#DejaVuSans-108"/>
     <use x="407.714844" xlink:href="#DejaVuSans-100"/>
     <use x="471.191406" xlink:href="#DejaVuSans-95"/>
     <use x="521.191406" xlink:href="#DejaVuSans-53"/>
     <use x="584.814453" xlink:href="#DejaVuSans-120"/>
     <use x="643.994141" xlink:href="#DejaVuSans-53"/>
     <use x="707.617188" xlink:href="#DejaVuSans-95"/>
     <use x="757.617188" xlink:href="#DejaVuSans-49"/>
     <use x="821.240234" xlink:href="#DejaVuSans-48"/>
     <use x="884.863281" xlink:href="#DejaVuSans-48"/>
     <use x="948.486328" xlink:href="#DejaVuSans-95"/>
     <use x="998.486328" xlink:href="#DejaVuSans-50"/>
     <use x="1062.109375" xlink:href="#DejaVuSans-95"/>
     <use x="1112.109375" xlink:href="#DejaVuSans-56"/>
     <use x="1175.732422" xlink:href="#DejaVuSans-95"/>
     <use x="1225.732422" xlink:href="#DejaVuSans-52"/>
     <use x="1289.355469" xlink:href="#DejaVuSans-50"/>
     <use x="1352.978516" xlink:href="#DejaVuSans-95"/>
     <use x="1402.978516" xlink:href="#DejaVuSans-95"/>
     <use x="1452.978516" xlink:href="#DejaVuSans-50"/>
     <use x="1516.601562" xlink:href="#DejaVuSans-58"/>
     <use x="1550.292969" xlink:href="#DejaVuSans-32"/>
     <use x="1582.080078" xlink:href="#DejaVuSans-101"/>
     <use x="1643.603516" xlink:href="#DejaVuSans-112"/>
     <use x="1707.080078" xlink:href="#DejaVuSans-105"/>
     <use x="1734.863281" xlink:href="#DejaVuSans-115"/>
     <use x="1786.962891" xlink:href="#DejaVuSans-111"/>
     <use x="1848.144531" xlink:href="#DejaVuSans-100"/>
     <use x="1911.621094" xlink:href="#DejaVuSans-101"/>
     <use x="1973.144531" xlink:href="#DejaVuSans-32"/>
     <use x="2004.931641" xlink:href="#DejaVuSans-100"/>
     <use x="2068.408203" xlink:href="#DejaVuSans-117"/>
     <use x="2131.787109" xlink:href="#DejaVuSans-114"/>
     <use x="2172.900391" xlink:href="#DejaVuSans-97"/>
     <use x="2234.179688" xlink:href="#DejaVuSans-116"/>
     <use x="2273.388672" xlink:href="#DejaVuSans-105"/>
     <use x="2301.171875" xlink:href="#DejaVuSans-111"/>
     <use x="2362.353516" xlink:href="#DejaVuSans-110"/>
     <use x="2425.732422" xlink:href="#DejaVuSans-44"/>
     <use x="2457.519531" xlink:href="#DejaVuSans-32"/>
     <use x="2489.306641" xlink:href="#DejaVuSans-115"/>
     <use x="2541.40625" xlink:href="#DejaVuSans-116"/>
     <use x="2580.615234" xlink:href="#DejaVuSans-101"/>
     <use x="2642.138672" xlink:href="#DejaVuSans-112"/>
     <use x="2705.615234" xlink:href="#DejaVuSans-115"/>
     <use x="2757.714844" xlink:href="#DejaVuSans-44"/>
     <use x="2789.501953" xlink:href="#DejaVuSans-32"/>
     <use x="2821.289062" xlink:href="#DejaVuSans-77"/>
     <use x="2907.568359" xlink:href="#DejaVuSans-65"/>
     <use x="2975.976562" xlink:href="#DejaVuSans-61"/>
     <use x="3059.765625" xlink:href="#DejaVuSans-52"/>
     <use x="3123.388672" xlink:href="#DejaVuSans-48"/>
    </g>
   </g>
   <g id="legend_1">
    <g id="patch_7">
     <path d="M 773.679125 231.59625 
L 854.751 231.59625 
Q 856.751 231.59625 856.751 229.59625 
L 856.751 200.68375 
Q 856.751 198.68375 854.751 198.68375 
L 773.679125 198.68375 
Q 771.679125 198.68375 771.679125 200.68375 
L 771.679125 229.59625 
Q 771.679125 231.59625 773.679125 231.59625 
z
" style="fill:#ffffff;opacity:0.8;stroke:#cccccc;stroke-linejoin:miter;"/>
    </g>
    <g id="line2d_20">
     <path d="M 775.679125 206.782187 
L 795.679125 206.782187 
" style="fill:none;stroke:#1f77b4;stroke-linecap:square;stroke-width:1.5;"/>
    </g>
    <g id="line2d_21"/>
    <g id="text_19">
     <!-- htm_2_1g -->
     <defs>
      <path d="M 54.890625 33.015625 
L 54.890625 0 
L 45.90625 0 
L 45.90625 32.71875 
Q 45.90625 40.484375 42.875 44.328125 
Q 39.84375 48.1875 33.796875 48.1875 
Q 26.515625 48.1875 22.3125 43.546875 
Q 18.109375 38.921875 18.109375 30.90625 
L 18.109375 0 
L 9.078125 0 
L 9.078125 75.984375 
L 18.109375 75.984375 
L 18.109375 46.1875 
Q 21.34375 51.125 25.703125 53.5625 
Q 30.078125 56 35.796875 56 
Q 45.21875 56 50.046875 50.171875 
Q 54.890625 44.34375 54.890625 33.015625 
z
" id="DejaVuSans-104"/>
      <path d="M 52 44.1875 
Q 55.375 50.25 60.0625 53.125 
Q 64.75 56 71.09375 56 
Q 79.640625 56 84.28125 50.015625 
Q 88.921875 44.046875 88.921875 33.015625 
L 88.921875 0 
L 79.890625 0 
L 79.890625 32.71875 
Q 79.890625 40.578125 77.09375 44.375 
Q 74.3125 48.1875 68.609375 48.1875 
Q 61.625 48.1875 57.5625 43.546875 
Q 53.515625 38.921875 53.515625 30.90625 
L 53.515625 0 
L 44.484375 0 
L 44.484375 32.71875 
Q 44.484375 40.625 41.703125 44.40625 
Q 38.921875 48.1875 33.109375 48.1875 
Q 26.21875 48.1875 22.15625 43.53125 
Q 18.109375 38.875 18.109375 30.90625 
L 18.109375 0 
L 9.078125 0 
L 9.078125 54.6875 
L 18.109375 54.6875 
L 18.109375 46.1875 
Q 21.1875 51.21875 25.484375 53.609375 
Q 29.78125 56 35.6875 56 
Q 41.65625 56 45.828125 52.96875 
Q 50 49.953125 52 44.1875 
z
" id="DejaVuSans-109"/>
     </defs>
     <g transform="translate(803.679125 210.282187)scale(0.1 -0.1)">
      <use xlink:href="#DejaVuSans-104"/>
      <use x="63.378906" xlink:href="#DejaVuSans-116"/>
      <use x="102.587891" xlink:href="#DejaVuSans-109"/>
      <use x="200" xlink:href="#DejaVuSans-95"/>
      <use x="250" xlink:href="#DejaVuSans-50"/>
      <use x="313.623047" xlink:href="#DejaVuSans-95"/>
      <use x="363.623047" xlink:href="#DejaVuSans-49"/>
      <use x="427.246094" xlink:href="#DejaVuSans-103"/>
     </g>
    </g>
    <g id="line2d_22">
     <path d="M 775.679125 221.738437 
L 795.679125 221.738437 
" style="fill:none;stroke:#ff7f0e;stroke-linecap:square;stroke-width:1.5;"/>
    </g>
    <g id="line2d_23"/>
    <g id="text_20">
     <!-- htm_2_4g -->
     <g transform="translate(803.679125 225.238437)scale(0.1 -0.1)">
      <use xlink:href="#DejaVuSans-104"/>
      <use x="63.378906" xlink:href="#DejaVuSans-116"/>
      <use x="102.587891" xlink:href="#DejaVuSans-109"/>
      <use x="200" xlink:href="#DejaVuSans-95"/>
      <use x="250" xlink:href="#DejaVuSans-50"/>
      <use x="313.623047" xlink:href="#DejaVuSans-95"/>
      <use x="363.623047" xlink:href="#DejaVuSans-52"/>
      <use x="427.246094" xlink:href="#DejaVuSans-103"/>
     </g>
    </g>
   </g>
  </g>
 </g>
 <defs>
  <clipPath id="peefc0c668c">
   <rect height="377.96" width="687.355" x="36.925" y="26.16"/>
  </clipPath>
 </defs>
</svg>
