<?xml version="1.0" encoding="utf-8" standalone="no"?>
<!DOCTYPE svg PUBLIC "-//W3C//DTD SVG 1.1//EN"
  "http://www.w3.org/Graphics/SVG/1.1/DTD/svg11.dtd">
<!-- Created with matplotlib (https://matplotlib.org/) -->
<svg height="432pt" version="1.1" viewBox="0 0 864 432" width="864pt" xmlns="http://www.w3.org/2000/svg" xmlns:xlink="http://www.w3.org/1999/xlink">
 <defs>
  <style type="text/css">
*{stroke-linecap:butt;stroke-linejoin:round;}
  </style>
 </defs>
 <g id="figure_1">
  <g id="patch_1">
   <path d="M 0 432 
L 864 432 
L 864 0 
L 0 0 
z
" style="fill:#ffffff;"/>
  </g>
  <g id="axes_1">
   <g id="patch_2">
    <path d="M 36.925 404.12 
L 724.28 404.12 
L 724.28 26.16 
L 36.925 26.16 
z
" style="fill:#ffffff;"/>
   </g>
   <g id="matplotlib.axis_1">
    <g id="xtick_1">
     <g id="line2d_1">
      <defs>
       <path d="M 0 0 
L 0 3.5 
" id="mb0df038e0c" style="stroke:#000000;stroke-width:0.8;"/>
      </defs>
      <g>
       <use style="stroke:#000000;stroke-width:0.8;" x="36.925" xlink:href="#mb0df038e0c" y="404.12"/>
      </g>
     </g>
     <g id="text_1">
      <!-- 0 -->
      <defs>
       <path d="M 31.78125 66.40625 
Q 24.171875 66.40625 20.328125 58.90625 
Q 16.5 51.421875 16.5 36.375 
Q 16.5 21.390625 20.328125 13.890625 
Q 24.171875 6.390625 31.78125 6.390625 
Q 39.453125 6.390625 43.28125 13.890625 
Q 47.125 21.390625 47.125 36.375 
Q 47.125 51.421875 43.28125 58.90625 
Q 39.453125 66.40625 31.78125 66.40625 
z
M 31.78125 74.21875 
Q 44.046875 74.21875 50.515625 64.515625 
Q 56.984375 54.828125 56.984375 36.375 
Q 56.984375 17.96875 50.515625 8.265625 
Q 44.046875 -1.421875 31.78125 -1.421875 
Q 19.53125 -1.421875 13.0625 8.265625 
Q 6.59375 17.96875 6.59375 36.375 
Q 6.59375 54.828125 13.0625 64.515625 
Q 19.53125 74.21875 31.78125 74.21875 
z
" id="DejaVuSans-48"/>
      </defs>
      <g transform="translate(33.74375 418.718437)scale(0.1 -0.1)">
       <use xlink:href="#DejaVuSans-48"/>
      </g>
     </g>
    </g>
    <g id="xtick_2">
     <g id="line2d_2">
      <g>
       <use style="stroke:#000000;stroke-width:0.8;" x="122.951909" xlink:href="#mb0df038e0c" y="404.12"/>
      </g>
     </g>
     <g id="text_2">
      <!-- 100 -->
      <defs>
       <path d="M 12.40625 8.296875 
L 28.515625 8.296875 
L 28.515625 63.921875 
L 10.984375 60.40625 
L 10.984375 69.390625 
L 28.421875 72.90625 
L 38.28125 72.90625 
L 38.28125 8.296875 
L 54.390625 8.296875 
L 54.390625 0 
L 12.40625 0 
z
" id="DejaVuSans-49"/>
      </defs>
      <g transform="translate(113.408159 418.718437)scale(0.1 -0.1)">
       <use xlink:href="#DejaVuSans-49"/>
       <use x="63.623047" xlink:href="#DejaVuSans-48"/>
       <use x="127.246094" xlink:href="#DejaVuSans-48"/>
      </g>
     </g>
    </g>
    <g id="xtick_3">
     <g id="line2d_3">
      <g>
       <use style="stroke:#000000;stroke-width:0.8;" x="208.978817" xlink:href="#mb0df038e0c" y="404.12"/>
      </g>
     </g>
     <g id="text_3">
      <!-- 200 -->
      <defs>
       <path d="M 19.1875 8.296875 
L 53.609375 8.296875 
L 53.609375 0 
L 7.328125 0 
L 7.328125 8.296875 
Q 12.9375 14.109375 22.625 23.890625 
Q 32.328125 33.6875 34.8125 36.53125 
Q 39.546875 41.84375 41.421875 45.53125 
Q 43.3125 49.21875 43.3125 52.78125 
Q 43.3125 58.59375 39.234375 62.25 
Q 35.15625 65.921875 28.609375 65.921875 
Q 23.96875 65.921875 18.8125 64.3125 
Q 13.671875 62.703125 7.8125 59.421875 
L 7.8125 69.390625 
Q 13.765625 71.78125 18.9375 73 
Q 24.125 74.21875 28.421875 74.21875 
Q 39.75 74.21875 46.484375 68.546875 
Q 53.21875 62.890625 53.21875 53.421875 
Q 53.21875 48.921875 51.53125 44.890625 
Q 49.859375 40.875 45.40625 35.40625 
Q 44.1875 33.984375 37.640625 27.21875 
Q 31.109375 20.453125 19.1875 8.296875 
z
" id="DejaVuSans-50"/>
      </defs>
      <g transform="translate(199.435067 418.718437)scale(0.1 -0.1)">
       <use xlink:href="#DejaVuSans-50"/>
       <use x="63.623047" xlink:href="#DejaVuSans-48"/>
       <use x="127.246094" xlink:href="#DejaVuSans-48"/>
      </g>
     </g>
    </g>
    <g id="xtick_4">
     <g id="line2d_4">
      <g>
       <use style="stroke:#000000;stroke-width:0.8;" x="295.005726" xlink:href="#mb0df038e0c" y="404.12"/>
      </g>
     </g>
     <g id="text_4">
      <!-- 300 -->
      <defs>
       <path d="M 40.578125 39.3125 
Q 47.65625 37.796875 51.625 33 
Q 55.609375 28.21875 55.609375 21.1875 
Q 55.609375 10.40625 48.1875 4.484375 
Q 40.765625 -1.421875 27.09375 -1.421875 
Q 22.515625 -1.421875 17.65625 -0.515625 
Q 12.796875 0.390625 7.625 2.203125 
L 7.625 11.71875 
Q 11.71875 9.328125 16.59375 8.109375 
Q 21.484375 6.890625 26.8125 6.890625 
Q 36.078125 6.890625 40.9375 10.546875 
Q 45.796875 14.203125 45.796875 21.1875 
Q 45.796875 27.640625 41.28125 31.265625 
Q 36.765625 34.90625 28.71875 34.90625 
L 20.21875 34.90625 
L 20.21875 43.015625 
L 29.109375 43.015625 
Q 36.375 43.015625 40.234375 45.921875 
Q 44.09375 48.828125 44.09375 54.296875 
Q 44.09375 59.90625 40.109375 62.90625 
Q 36.140625 65.921875 28.71875 65.921875 
Q 24.65625 65.921875 20.015625 65.03125 
Q 15.375 64.15625 9.8125 62.3125 
L 9.8125 71.09375 
Q 15.4375 72.65625 20.34375 73.4375 
Q 25.25 74.21875 29.59375 74.21875 
Q 40.828125 74.21875 47.359375 69.109375 
Q 53.90625 64.015625 53.90625 55.328125 
Q 53.90625 49.265625 50.4375 45.09375 
Q 46.96875 40.921875 40.578125 39.3125 
z
" id="DejaVuSans-51"/>
      </defs>
      <g transform="translate(285.461976 418.718437)scale(0.1 -0.1)">
       <use xlink:href="#DejaVuSans-51"/>
       <use x="63.623047" xlink:href="#DejaVuSans-48"/>
       <use x="127.246094" xlink:href="#DejaVuSans-48"/>
      </g>
     </g>
    </g>
    <g id="xtick_5">
     <g id="line2d_5">
      <g>
       <use style="stroke:#000000;stroke-width:0.8;" x="381.032635" xlink:href="#mb0df038e0c" y="404.12"/>
      </g>
     </g>
     <g id="text_5">
      <!-- 400 -->
      <defs>
       <path d="M 37.796875 64.3125 
L 12.890625 25.390625 
L 37.796875 25.390625 
z
M 35.203125 72.90625 
L 47.609375 72.90625 
L 47.609375 25.390625 
L 58.015625 25.390625 
L 58.015625 17.1875 
L 47.609375 17.1875 
L 47.609375 0 
L 37.796875 0 
L 37.796875 17.1875 
L 4.890625 17.1875 
L 4.890625 26.703125 
z
" id="DejaVuSans-52"/>
      </defs>
      <g transform="translate(371.488885 418.718437)scale(0.1 -0.1)">
       <use xlink:href="#DejaVuSans-52"/>
       <use x="63.623047" xlink:href="#DejaVuSans-48"/>
       <use x="127.246094" xlink:href="#DejaVuSans-48"/>
      </g>
     </g>
    </g>
    <g id="xtick_6">
     <g id="line2d_6">
      <g>
       <use style="stroke:#000000;stroke-width:0.8;" x="467.059543" xlink:href="#mb0df038e0c" y="404.12"/>
      </g>
     </g>
     <g id="text_6">
      <!-- 500 -->
      <defs>
       <path d="M 10.796875 72.90625 
L 49.515625 72.90625 
L 49.515625 64.59375 
L 19.828125 64.59375 
L 19.828125 46.734375 
Q 21.96875 47.46875 24.109375 47.828125 
Q 26.265625 48.1875 28.421875 48.1875 
Q 40.625 48.1875 47.75 41.5 
Q 54.890625 34.8125 54.890625 23.390625 
Q 54.890625 11.625 47.5625 5.09375 
Q 40.234375 -1.421875 26.90625 -1.421875 
Q 22.3125 -1.421875 17.546875 -0.640625 
Q 12.796875 0.140625 7.71875 1.703125 
L 7.71875 11.625 
Q 12.109375 9.234375 16.796875 8.0625 
Q 21.484375 6.890625 26.703125 6.890625 
Q 35.15625 6.890625 40.078125 11.328125 
Q 45.015625 15.765625 45.015625 23.390625 
Q 45.015625 31 40.078125 35.4375 
Q 35.15625 39.890625 26.703125 39.890625 
Q 22.75 39.890625 18.8125 39.015625 
Q 14.890625 38.140625 10.796875 36.28125 
z
" id="DejaVuSans-53"/>
      </defs>
      <g transform="translate(457.515793 418.718437)scale(0.1 -0.1)">
       <use xlink:href="#DejaVuSans-53"/>
       <use x="63.623047" xlink:href="#DejaVuSans-48"/>
       <use x="127.246094" xlink:href="#DejaVuSans-48"/>
      </g>
     </g>
    </g>
    <g id="xtick_7">
     <g id="line2d_7">
      <g>
       <use style="stroke:#000000;stroke-width:0.8;" x="553.086452" xlink:href="#mb0df038e0c" y="404.12"/>
      </g>
     </g>
     <g id="text_7">
      <!-- 600 -->
      <defs>
       <path d="M 33.015625 40.375 
Q 26.375 40.375 22.484375 35.828125 
Q 18.609375 31.296875 18.609375 23.390625 
Q 18.609375 15.53125 22.484375 10.953125 
Q 26.375 6.390625 33.015625 6.390625 
Q 39.65625 6.390625 43.53125 10.953125 
Q 47.40625 15.53125 47.40625 23.390625 
Q 47.40625 31.296875 43.53125 35.828125 
Q 39.65625 40.375 33.015625 40.375 
z
M 52.59375 71.296875 
L 52.59375 62.3125 
Q 48.875 64.0625 45.09375 64.984375 
Q 41.3125 65.921875 37.59375 65.921875 
Q 27.828125 65.921875 22.671875 59.328125 
Q 17.53125 52.734375 16.796875 39.40625 
Q 19.671875 43.65625 24.015625 45.921875 
Q 28.375 48.1875 33.59375 48.1875 
Q 44.578125 48.1875 50.953125 41.515625 
Q 57.328125 34.859375 57.328125 23.390625 
Q 57.328125 12.15625 50.6875 5.359375 
Q 44.046875 -1.421875 33.015625 -1.421875 
Q 20.359375 -1.421875 13.671875 8.265625 
Q 6.984375 17.96875 6.984375 36.375 
Q 6.984375 53.65625 15.1875 63.9375 
Q 23.390625 74.21875 37.203125 74.21875 
Q 40.921875 74.21875 44.703125 73.484375 
Q 48.484375 72.75 52.59375 71.296875 
z
" id="DejaVuSans-54"/>
      </defs>
      <g transform="translate(543.542702 418.718437)scale(0.1 -0.1)">
       <use xlink:href="#DejaVuSans-54"/>
       <use x="63.623047" xlink:href="#DejaVuSans-48"/>
       <use x="127.246094" xlink:href="#DejaVuSans-48"/>
      </g>
     </g>
    </g>
    <g id="xtick_8">
     <g id="line2d_8">
      <g>
       <use style="stroke:#000000;stroke-width:0.8;" x="639.11336" xlink:href="#mb0df038e0c" y="404.12"/>
      </g>
     </g>
     <g id="text_8">
      <!-- 700 -->
      <defs>
       <path d="M 8.203125 72.90625 
L 55.078125 72.90625 
L 55.078125 68.703125 
L 28.609375 0 
L 18.3125 0 
L 43.21875 64.59375 
L 8.203125 64.59375 
z
" id="DejaVuSans-55"/>
      </defs>
      <g transform="translate(629.56961 418.718437)scale(0.1 -0.1)">
       <use xlink:href="#DejaVuSans-55"/>
       <use x="63.623047" xlink:href="#DejaVuSans-48"/>
       <use x="127.246094" xlink:href="#DejaVuSans-48"/>
      </g>
     </g>
    </g>
   </g>
   <g id="matplotlib.axis_2">
    <g id="ytick_1">
     <g id="line2d_9">
      <defs>
       <path d="M 0 0 
L -3.5 0 
" id="mdfbe4aacfa" style="stroke:#000000;stroke-width:0.8;"/>
      </defs>
      <g>
       <use style="stroke:#000000;stroke-width:0.8;" x="36.925" xlink:href="#mdfbe4aacfa" y="393.837797"/>
      </g>
     </g>
     <g id="text_9">
      <!-- 0 -->
      <g transform="translate(23.5625 397.637015)scale(0.1 -0.1)">
       <use xlink:href="#DejaVuSans-48"/>
      </g>
     </g>
    </g>
    <g id="ytick_2">
     <g id="line2d_10">
      <g>
       <use style="stroke:#000000;stroke-width:0.8;" x="36.925" xlink:href="#mdfbe4aacfa" y="348.974079"/>
      </g>
     </g>
     <g id="text_10">
      <!-- 20 -->
      <g transform="translate(17.2 352.773297)scale(0.1 -0.1)">
       <use xlink:href="#DejaVuSans-50"/>
       <use x="63.623047" xlink:href="#DejaVuSans-48"/>
      </g>
     </g>
    </g>
    <g id="ytick_3">
     <g id="line2d_11">
      <g>
       <use style="stroke:#000000;stroke-width:0.8;" x="36.925" xlink:href="#mdfbe4aacfa" y="304.110361"/>
      </g>
     </g>
     <g id="text_11">
      <!-- 40 -->
      <g transform="translate(17.2 307.909579)scale(0.1 -0.1)">
       <use xlink:href="#DejaVuSans-52"/>
       <use x="63.623047" xlink:href="#DejaVuSans-48"/>
      </g>
     </g>
    </g>
    <g id="ytick_4">
     <g id="line2d_12">
      <g>
       <use style="stroke:#000000;stroke-width:0.8;" x="36.925" xlink:href="#mdfbe4aacfa" y="259.246643"/>
      </g>
     </g>
     <g id="text_12">
      <!-- 60 -->
      <g transform="translate(17.2 263.045861)scale(0.1 -0.1)">
       <use xlink:href="#DejaVuSans-54"/>
       <use x="63.623047" xlink:href="#DejaVuSans-48"/>
      </g>
     </g>
    </g>
    <g id="ytick_5">
     <g id="line2d_13">
      <g>
       <use style="stroke:#000000;stroke-width:0.8;" x="36.925" xlink:href="#mdfbe4aacfa" y="214.382925"/>
      </g>
     </g>
     <g id="text_13">
      <!-- 80 -->
      <defs>
       <path d="M 31.78125 34.625 
Q 24.75 34.625 20.71875 30.859375 
Q 16.703125 27.09375 16.703125 20.515625 
Q 16.703125 13.921875 20.71875 10.15625 
Q 24.75 6.390625 31.78125 6.390625 
Q 38.8125 6.390625 42.859375 10.171875 
Q 46.921875 13.96875 46.921875 20.515625 
Q 46.921875 27.09375 42.890625 30.859375 
Q 38.875 34.625 31.78125 34.625 
z
M 21.921875 38.8125 
Q 15.578125 40.375 12.03125 44.71875 
Q 8.5 49.078125 8.5 55.328125 
Q 8.5 64.0625 14.71875 69.140625 
Q 20.953125 74.21875 31.78125 74.21875 
Q 42.671875 74.21875 48.875 69.140625 
Q 55.078125 64.0625 55.078125 55.328125 
Q 55.078125 49.078125 51.53125 44.71875 
Q 48 40.375 41.703125 38.8125 
Q 48.828125 37.15625 52.796875 32.3125 
Q 56.78125 27.484375 56.78125 20.515625 
Q 56.78125 9.90625 50.3125 4.234375 
Q 43.84375 -1.421875 31.78125 -1.421875 
Q 19.734375 -1.421875 13.25 4.234375 
Q 6.78125 9.90625 6.78125 20.515625 
Q 6.78125 27.484375 10.78125 32.3125 
Q 14.796875 37.15625 21.921875 38.8125 
z
M 18.3125 54.390625 
Q 18.3125 48.734375 21.84375 45.5625 
Q 25.390625 42.390625 31.78125 42.390625 
Q 38.140625 42.390625 41.71875 45.5625 
Q 45.3125 48.734375 45.3125 54.390625 
Q 45.3125 60.0625 41.71875 63.234375 
Q 38.140625 66.40625 31.78125 66.40625 
Q 25.390625 66.40625 21.84375 63.234375 
Q 18.3125 60.0625 18.3125 54.390625 
z
" id="DejaVuSans-56"/>
      </defs>
      <g transform="translate(17.2 218.182144)scale(0.1 -0.1)">
       <use xlink:href="#DejaVuSans-56"/>
       <use x="63.623047" xlink:href="#DejaVuSans-48"/>
      </g>
     </g>
    </g>
    <g id="ytick_6">
     <g id="line2d_14">
      <g>
       <use style="stroke:#000000;stroke-width:0.8;" x="36.925" xlink:href="#mdfbe4aacfa" y="169.519207"/>
      </g>
     </g>
     <g id="text_14">
      <!-- 100 -->
      <g transform="translate(10.8375 173.318426)scale(0.1 -0.1)">
       <use xlink:href="#DejaVuSans-49"/>
       <use x="63.623047" xlink:href="#DejaVuSans-48"/>
       <use x="127.246094" xlink:href="#DejaVuSans-48"/>
      </g>
     </g>
    </g>
    <g id="ytick_7">
     <g id="line2d_15">
      <g>
       <use style="stroke:#000000;stroke-width:0.8;" x="36.925" xlink:href="#mdfbe4aacfa" y="124.655489"/>
      </g>
     </g>
     <g id="text_15">
      <!-- 120 -->
      <g transform="translate(10.8375 128.454708)scale(0.1 -0.1)">
       <use xlink:href="#DejaVuSans-49"/>
       <use x="63.623047" xlink:href="#DejaVuSans-50"/>
       <use x="127.246094" xlink:href="#DejaVuSans-48"/>
      </g>
     </g>
    </g>
    <g id="ytick_8">
     <g id="line2d_16">
      <g>
       <use style="stroke:#000000;stroke-width:0.8;" x="36.925" xlink:href="#mdfbe4aacfa" y="79.791771"/>
      </g>
     </g>
     <g id="text_16">
      <!-- 140 -->
      <g transform="translate(10.8375 83.59099)scale(0.1 -0.1)">
       <use xlink:href="#DejaVuSans-49"/>
       <use x="63.623047" xlink:href="#DejaVuSans-52"/>
       <use x="127.246094" xlink:href="#DejaVuSans-48"/>
      </g>
     </g>
    </g>
    <g id="ytick_9">
     <g id="line2d_17">
      <g>
       <use style="stroke:#000000;stroke-width:0.8;" x="36.925" xlink:href="#mdfbe4aacfa" y="34.928053"/>
      </g>
     </g>
     <g id="text_17">
      <!-- 160 -->
      <g transform="translate(10.8375 38.727272)scale(0.1 -0.1)">
       <use xlink:href="#DejaVuSans-49"/>
       <use x="63.623047" xlink:href="#DejaVuSans-54"/>
       <use x="127.246094" xlink:href="#DejaVuSans-48"/>
      </g>
     </g>
    </g>
   </g>
   <g id="line2d_18">
    <path clip-path="url(#pdbaa996442)" d="M 70.475494 371.910654 
L 71.335763 375.724071 
L 72.196033 376.340947 
L 73.056302 379.088849 
L 73.916571 380.715159 
L 74.77684 380.659079 
L 75.637109 380.378681 
L 76.497378 380.659079 
L 77.357647 380.603 
L 78.217916 381.163796 
L 79.078185 379.930044 
L 80.798723 380.715159 
L 81.658992 380.603 
L 82.519262 381.051637 
L 83.379531 382.790106 
L 84.2398 382.677947 
L 85.100069 381.836752 
L 85.960338 381.444195 
L 89.401414 381.219876 
L 90.261683 382.061071 
L 91.121952 382.341469 
L 91.982222 383.182664 
L 92.842491 382.565787 
L 93.70276 381.780672 
L 94.563029 380.715159 
L 97.143836 379.761805 
L 98.004105 379.817885 
L 98.864374 379.257088 
L 100.584912 379.313168 
L 101.445181 378.864531 
L 103.16572 378.640212 
L 104.025989 379.03277 
L 104.886258 378.752371 
L 106.606796 378.640212 
L 107.467065 378.191575 
L 108.327334 378.191575 
L 109.187603 378.528053 
L 110.047872 378.359814 
L 111.768411 378.359814 
L 112.62868 378.191575 
L 113.488949 379.537487 
L 114.349218 379.593566 
L 116.069756 380.266522 
L 116.930025 379.930044 
L 117.790294 379.817885 
L 118.650563 379.930044 
L 119.510832 380.715159 
L 120.371101 381.107717 
L 122.09164 381.275956 
L 122.951909 370.172185 
L 123.812178 369.891787 
L 124.672447 369.835708 
L 125.532716 368.153318 
L 126.392985 366.807407 
L 128.113523 367.985079 
L 128.973792 369.050592 
L 129.834061 369.44315 
L 130.69433 369.162752 
L 131.554599 369.835708 
L 132.414869 368.882354 
L 133.275138 369.38707 
L 134.135407 369.44315 
L 134.995676 369.218831 
L 135.855945 367.480362 
L 136.716214 365.181097 
L 138.436752 364.6203 
L 139.297021 364.339902 
L 140.15729 363.386548 
L 141.877829 363.05007 
L 142.738098 363.218309 
L 143.598367 361.984557 
L 144.458636 362.208875 
L 145.318905 361.031203 
L 146.179174 360.806884 
L 147.039443 360.975123 
L 147.899712 360.919044 
L 148.759981 359.517052 
L 149.62025 359.90961 
L 150.480519 359.741371 
L 151.340788 359.292734 
L 152.201058 359.292734 
L 153.061327 359.124495 
L 153.921596 358.619778 
L 154.781865 358.507619 
L 156.502403 358.507619 
L 157.362672 369.667469 
L 158.222941 369.555309 
L 159.08321 369.611389 
L 159.943479 370.845141 
L 160.803748 371.798495 
L 161.664018 371.405938 
L 162.524287 371.966734 
L 163.384556 371.686336 
L 164.244825 371.686336 
L 165.105094 372.191053 
L 165.965363 365.797973 
L 166.825632 366.751327 
L 167.685901 366.863486 
L 168.54617 366.639168 
L 169.406439 366.975646 
L 171.126977 371.06946 
L 171.987247 371.405938 
L 172.847516 371.462017 
L 173.707785 371.854575 
L 174.568054 371.686336 
L 175.428323 371.798495 
L 176.288592 372.415371 
L 177.148861 372.191053 
L 178.00913 372.527531 
L 178.869399 372.022814 
L 179.729668 372.864008 
L 180.589937 373.032247 
L 181.450207 372.63969 
L 182.310476 372.63969 
L 183.170745 374.378159 
L 184.031014 374.266 
L 184.891283 374.490318 
L 185.751552 375.275433 
L 186.611821 374.714637 
L 187.47209 374.546398 
L 188.332359 375.331513 
L 189.192628 375.443672 
L 190.913166 374.938955 
L 191.773436 374.938955 
L 192.633705 374.490318 
L 193.493974 373.480885 
L 195.214512 373.761283 
L 196.074781 374.266 
L 196.93505 374.20992 
L 197.795319 374.490318 
L 198.655588 374.097761 
L 199.515857 374.15384 
L 200.376126 380.378681 
L 201.236395 379.986124 
L 202.096665 379.930044 
L 202.956934 380.042203 
L 203.817203 379.930044 
L 204.677472 379.986124 
L 205.537741 380.603 
L 206.39801 379.369248 
L 207.258279 379.369248 
L 208.118548 379.03277 
L 208.978817 379.986124 
L 209.839086 378.528053 
L 210.699355 378.471973 
L 211.559625 376.453106 
L 212.419894 376.789584 
L 213.280163 376.509186 
L 214.140432 376.565265 
L 215.000701 376.453106 
L 215.86097 376.789584 
L 216.721239 376.845663 
L 217.581508 376.733504 
L 218.441777 376.509186 
L 220.162315 376.397026 
L 221.022584 376.116628 
L 221.882854 376.116628 
L 222.743123 375.555832 
L 223.603392 375.219354 
L 224.463661 375.499752 
L 225.32393 375.611911 
L 226.184199 375.331513 
L 227.044468 376.116628 
L 228.765006 375.892309 
L 229.625275 376.172708 
L 230.485544 376.228787 
L 233.926621 376.789584 
L 234.78689 375.667991 
L 235.647159 375.892309 
L 236.507428 375.948389 
L 237.367697 375.83623 
L 238.227966 375.892309 
L 239.088235 375.83623 
L 239.948504 375.555832 
L 240.808773 376.789584 
L 242.529312 377.126062 
L 243.389581 376.677425 
L 244.24985 377.40646 
L 245.110119 377.40646 
L 245.970388 379.593566 
L 246.830657 379.313168 
L 247.690926 379.537487 
L 248.551195 379.481407 
L 249.411464 379.705725 
L 250.271733 379.593566 
L 251.132003 379.593566 
L 251.992272 379.425327 
L 252.852541 379.761805 
L 253.71281 379.593566 
L 254.573079 378.92061 
L 255.433348 379.817885 
L 256.293617 380.098283 
L 257.153886 379.705725 
L 258.014155 379.873964 
L 258.874424 379.537487 
L 259.734693 379.537487 
L 260.594962 379.705725 
L 261.455232 379.705725 
L 262.315501 380.827318 
L 263.17577 381.163796 
L 264.036039 381.107717 
L 265.756577 380.54692 
L 266.616846 380.434761 
L 268.337384 380.434761 
L 269.197653 381.724593 
L 270.057922 381.388115 
L 270.918191 381.332035 
L 271.778461 381.444195 
L 272.63873 381.388115 
L 273.498999 381.444195 
L 274.359268 381.332035 
L 276.079806 381.388115 
L 276.940075 381.275956 
L 278.660613 382.22931 
L 280.381151 382.004991 
L 281.241421 382.958345 
L 282.10169 383.68738 
L 282.961959 384.136018 
L 283.822228 383.575221 
L 284.682497 383.575221 
L 285.542766 383.350903 
L 286.403035 383.631301 
L 287.263304 383.519142 
L 288.123573 383.855619 
L 288.983842 384.528575 
L 289.844111 383.855619 
L 290.70438 383.855619 
L 291.56465 384.752894 
L 292.424919 384.696814 
L 293.285188 384.752894 
L 294.145457 384.977212 
L 295.005726 384.865053 
L 296.726264 384.248177 
L 298.446802 384.192097 
L 300.16734 384.696814 
L 301.02761 384.416416 
L 301.887879 384.416416 
L 303.608417 383.406982 
L 304.468686 383.631301 
L 305.328955 383.182664 
L 306.189224 383.070504 
L 307.049493 382.790106 
L 307.909762 382.790106 
L 309.6303 382.11715 
L 310.490569 382.11715 
L 311.350839 382.285389 
L 312.211108 382.17323 
L 313.071377 382.509708 
L 313.931646 382.621867 
L 314.791915 382.621867 
L 315.652184 382.397549 
L 316.512453 381.836752 
L 317.372722 381.780672 
L 318.232991 382.285389 
L 319.09326 382.17323 
L 319.953529 382.285389 
L 320.813798 382.17323 
L 321.674068 381.668513 
L 322.534337 381.388115 
L 323.394606 381.275956 
L 324.254875 382.004991 
L 325.115144 381.948911 
L 326.835682 382.22931 
L 327.695951 382.17323 
L 328.55622 382.004991 
L 329.416489 381.612433 
L 331.997297 382.11715 
L 334.578104 382.004991 
L 335.438373 382.341469 
L 336.298642 382.22931 
L 337.158911 382.453628 
L 338.01918 382.846186 
L 338.879449 382.846186 
L 339.739718 383.182664 
L 340.599987 382.958345 
L 341.460257 383.294823 
L 342.320526 383.182664 
L 343.180795 383.911699 
L 344.041064 384.023858 
L 344.901333 384.023858 
L 345.761602 384.136018 
L 347.48214 383.911699 
L 348.342409 383.631301 
L 349.202678 383.519142 
L 350.062947 383.74346 
L 350.923217 384.304257 
L 352.643755 384.304257 
L 354.364293 384.640734 
L 355.224562 384.696814 
L 356.084831 385.31369 
L 356.9451 385.257611 
L 357.805369 385.36977 
L 358.665638 385.36977 
L 360.386176 384.416416 
L 361.246446 384.248177 
L 364.687522 384.696814 
L 367.268329 384.640734 
L 368.128598 383.631301 
L 368.988867 383.575221 
L 369.849136 383.406982 
L 372.429944 383.68738 
L 373.290213 383.967779 
L 374.150482 384.079938 
L 375.010751 384.472496 
L 376.731289 384.416416 
L 377.591558 384.360336 
L 378.451827 384.584655 
L 379.312096 384.416416 
L 380.172365 384.472496 
L 381.032635 384.752894 
L 381.892904 384.248177 
L 383.613442 384.696814 
L 384.473711 384.696814 
L 386.194249 384.136018 
L 389.635325 383.74346 
L 390.495594 383.74346 
L 392.216133 361.816318 
L 393.076402 361.367681 
L 393.936671 350.824707 
L 394.79694 350.207831 
L 395.657209 350.37607 
L 396.517478 349.815273 
L 397.377747 349.871353 
L 398.238016 350.31999 
L 399.098285 350.43215 
L 399.958554 339.440539 
L 401.679093 339.21622 
L 402.539362 340.113494 
L 403.399631 340.001335 
L 404.2599 340.281733 
L 405.120169 340.113494 
L 405.980438 340.225654 
L 406.840707 340.113494 
L 407.700976 339.889176 
L 408.561245 338.823662 
L 410.281783 316.616122 
L 411.142053 316.223565 
L 412.862591 294.016024 
L 413.72286 294.184263 
L 414.583129 294.184263 
L 415.443398 294.296422 
L 416.303667 294.857219 
L 417.163936 295.025458 
L 418.024205 293.903865 
L 418.884474 293.791706 
L 421.465282 294.464661 
L 422.325551 294.352502 
L 424.046089 272.313201 
L 424.906358 271.808484 
L 426.626896 293.735626 
L 427.487165 283.080493 
L 428.347434 293.791706 
L 429.207703 294.857219 
L 430.067972 294.913299 
L 430.928242 284.594643 
L 431.788511 284.482484 
L 432.64878 273.322634 
L 434.369318 273.266555 
L 435.229587 262.331023 
L 436.089856 262.331023 
L 437.810394 262.779661 
L 439.530932 240.684279 
L 440.391202 240.684279 
L 441.251471 229.692669 
L 442.11174 229.748748 
L 442.972009 230.870341 
L 443.832278 230.870341 
L 444.692547 241.469394 
L 445.552816 230.870341 
L 447.273354 230.870341 
L 448.133623 230.646023 
L 450.714431 229.41227 
L 451.5747 218.25242 
L 452.434969 219.149695 
L 453.295238 219.317934 
L 456.736314 175.071092 
L 457.596583 175.071092 
L 458.456852 186.230942 
L 459.317121 186.56742 
L 461.03766 164.640277 
L 461.897929 175.744048 
L 462.758198 176.136605 
L 463.618467 164.976755 
L 464.478736 164.584198 
L 465.339005 175.519729 
L 466.199274 175.35149 
L 467.059543 184.716791 
L 467.919812 184.716791 
L 469.64035 206.643933 
L 470.50062 206.812172 
L 471.360889 203.615632 
L 472.221158 203.223075 
L 473.941696 223.860385 
L 474.801965 222.177996 
L 475.662234 232.889208 
L 476.522503 232.720969 
L 477.382772 231.03858 
L 478.243041 241.861952 
L 479.10331 241.637633 
L 481.684118 273.883431 
L 482.544387 273.266555 
L 484.264925 273.434794 
L 485.125194 273.99559 
L 485.985463 284.426404 
L 486.845732 284.202086 
L 487.706001 281.454183 
L 488.56627 291.54852 
L 489.426539 298.614555 
L 492.007347 330.467795 
L 492.867616 329.458361 
L 493.727885 329.6266 
L 494.588154 340.78645 
L 495.448423 349.759194 
L 496.308692 349.703114 
L 497.168961 348.132884 
L 498.02923 359.012336 
L 498.889499 359.404893 
L 499.749768 359.629212 
L 500.610038 356.881309 
L 501.470307 356.376592 
L 502.330576 356.432672 
L 503.190845 355.759716 
L 504.051114 354.582043 
L 504.911383 354.357725 
L 505.771652 348.974079 
L 506.631921 349.198397 
L 507.49219 349.759194 
L 508.352459 350.824707 
L 509.212728 350.712548 
L 510.072997 347.17953 
L 510.933267 346.338335 
L 511.793536 347.908565 
L 512.653805 347.908565 
L 513.514074 346.282256 
L 514.374343 345.777539 
L 515.234612 346.450495 
L 516.094881 346.170096 
L 516.95515 344.992424 
L 517.815419 345.384981 
L 518.675688 345.6093 
L 519.535957 345.665379 
L 520.396227 346.338335 
L 521.256496 346.562654 
L 522.116765 349.142318 
L 522.977034 348.637601 
L 523.837303 350.37607 
L 524.697572 351.329424 
L 525.557841 351.273344 
L 526.41811 351.385504 
L 527.278379 350.151751 
L 528.138648 349.534875 
L 528.998917 349.254477 
L 529.859186 351.273344 
L 530.719456 350.936866 
L 531.579725 352.507096 
L 532.439994 352.619256 
L 534.160532 352.619256 
L 535.020801 355.423238 
L 535.88107 357.722504 
L 536.741339 357.554265 
L 537.601608 357.666424 
L 538.461877 359.124495 
L 539.322146 359.180575 
L 540.182416 367.704681 
L 541.042685 367.87292 
L 541.902954 367.592522 
L 542.763223 367.536442 
L 543.623492 369.106672 
L 544.483761 372.976168 
L 545.34403 374.097761 
L 546.204299 372.751849 
L 547.064568 372.807929 
L 547.924837 374.938955 
L 548.785106 375.331513 
L 549.645375 375.331513 
L 550.505645 374.938955 
L 551.365914 376.901743 
L 552.226183 376.845663 
L 553.086452 375.219354 
L 553.946721 374.995035 
L 554.80699 374.995035 
L 556.527528 375.331513 
L 557.387797 376.901743 
L 558.248066 379.088849 
L 559.108335 378.640212 
L 560.828874 378.808451 
L 561.689143 380.939478 
L 562.549412 381.444195 
L 563.409681 381.612433 
L 564.26995 380.939478 
L 565.130219 381.332035 
L 565.990488 381.332035 
L 566.850757 381.163796 
L 567.711026 380.715159 
L 568.571295 380.659079 
L 569.431564 380.827318 
L 570.291834 380.827318 
L 571.152103 380.715159 
L 572.012372 381.219876 
L 572.872641 381.275956 
L 573.73291 381.219876 
L 574.593179 381.275956 
L 575.453448 381.219876 
L 578.894524 381.668513 
L 579.754793 381.668513 
L 580.615063 382.958345 
L 582.335601 383.294823 
L 583.19587 383.182664 
L 584.056139 382.902265 
L 584.916408 383.967779 
L 586.636946 383.631301 
L 587.497215 385.033292 
L 588.357484 385.31369 
L 589.217753 385.201531 
L 590.078023 384.752894 
L 591.798561 384.640734 
L 592.65883 384.360336 
L 593.519099 384.696814 
L 594.379368 384.808973 
L 595.239637 384.752894 
L 596.099906 384.865053 
L 596.960175 384.865053 
L 597.820444 384.977212 
L 598.680713 385.201531 
L 600.401252 384.977212 
L 601.261521 385.31369 
L 602.12179 385.481929 
L 602.982059 385.36977 
L 604.702597 385.31369 
L 605.562866 385.538009 
L 606.423135 385.42585 
L 607.283404 385.201531 
L 608.143673 385.145451 
L 609.864212 384.808973 
L 610.724481 384.696814 
L 611.58475 384.304257 
L 614.165557 383.911699 
L 615.886095 383.967779 
L 616.746364 383.575221 
L 617.606633 383.68738 
L 618.466902 384.136018 
L 619.327171 384.079938 
L 620.187441 384.248177 
L 621.04771 384.136018 
L 621.907979 384.192097 
L 622.768248 383.911699 
L 625.349055 384.416416 
L 626.209324 384.023858 
L 627.069593 384.304257 
L 627.929862 384.416416 
L 628.790131 384.416416 
L 629.650401 383.967779 
L 630.51067 383.855619 
L 631.370939 383.911699 
L 632.231208 383.74346 
L 633.091477 384.192097 
L 633.951746 384.079938 
L 634.812015 384.136018 
L 635.672284 383.911699 
L 636.532553 384.023858 
L 637.392822 383.575221 
L 638.253091 383.575221 
L 639.11336 382.902265 
L 640.833899 382.509708 
L 642.554437 382.846186 
L 645.135244 383.406982 
L 645.995513 382.509708 
L 648.57632 382.790106 
L 650.296859 382.734026 
L 651.157128 383.238743 
L 652.017397 382.902265 
L 652.877666 382.790106 
L 653.737935 382.846186 
L 654.598204 382.677947 
L 655.458473 382.846186 
L 656.318742 382.621867 
L 657.179011 382.734026 
L 658.03928 382.621867 
L 658.899549 382.846186 
L 659.759819 382.734026 
L 660.620088 383.182664 
L 661.480357 383.350903 
L 662.340626 382.621867 
L 663.200895 382.846186 
L 664.061164 383.238743 
L 664.921433 383.238743 
L 665.781702 383.126584 
L 667.50224 383.070504 
L 668.362509 383.294823 
L 669.222778 383.350903 
L 670.083048 383.014425 
L 670.943317 383.014425 
L 671.803586 382.902265 
L 672.663855 382.902265 
L 673.524124 383.575221 
L 674.384393 383.070504 
L 675.244662 383.350903 
L 676.104931 383.350903 
L 676.9652 383.519142 
L 678.685738 383.575221 
L 679.546008 383.406982 
L 680.406277 384.136018 
L 681.266546 383.182664 
L 682.126815 382.453628 
L 683.847353 382.677947 
L 684.707622 382.004991 
L 686.42816 381.836752 
L 687.288429 381.948911 
L 688.148698 381.836752 
L 689.869237 382.11715 
L 690.729506 382.397549 
L 692.450044 382.621867 
L 693.310313 382.453628 
L 694.170582 382.565787 
L 695.89112 382.285389 
L 698.471927 382.285389 
L 701.052735 382.621867 
L 701.913004 382.509708 
L 702.773273 382.621867 
L 703.633542 382.397549 
L 704.493811 382.565787 
L 705.35408 382.453628 
L 706.214349 383.126584 
L 707.074618 383.070504 
L 707.934887 383.126584 
L 708.795156 383.911699 
L 710.515695 383.238743 
L 712.236233 383.070504 
L 713.096502 382.902265 
L 713.956771 382.565787 
L 714.81704 382.846186 
L 715.677309 383.79954 
L 716.537578 384.360336 
L 717.397847 383.967779 
L 718.258116 383.911699 
L 719.118385 384.192097 
L 719.978655 383.68738 
L 720.838924 384.023858 
L 721.699193 384.023858 
L 723.419731 384.248177 
L 724.28 384.079938 
L 724.28 384.079938 
" style="fill:none;stroke:#1f77b4;stroke-linecap:square;stroke-width:1.5;"/>
   </g>
   <g id="line2d_19">
    <path clip-path="url(#pdbaa996442)" d="M 70.475494 371.910654 
L 71.335763 375.724071 
L 72.196033 376.340947 
L 73.056302 379.088849 
L 73.916571 380.715159 
L 74.77684 380.659079 
L 75.637109 380.378681 
L 76.497378 380.659079 
L 77.357647 380.603 
L 78.217916 381.163796 
L 79.078185 379.930044 
L 79.938454 380.378681 
L 82.519262 381.332035 
L 83.379531 382.958345 
L 84.2398 382.734026 
L 85.100069 382.677947 
L 86.820607 382.22931 
L 88.541145 381.836752 
L 89.401414 381.836752 
L 90.261683 382.677947 
L 91.121952 382.846186 
L 91.982222 383.68738 
L 92.842491 383.519142 
L 93.70276 383.911699 
L 94.563029 383.79954 
L 95.423298 383.79954 
L 96.283567 383.631301 
L 98.004105 383.74346 
L 99.724643 383.519142 
L 100.584912 383.575221 
L 101.445181 382.565787 
L 102.305451 380.939478 
L 103.16572 380.715159 
L 104.025989 381.107717 
L 104.886258 380.54692 
L 108.327334 380.378681 
L 109.187603 380.715159 
L 110.047872 380.154363 
L 111.768411 380.098283 
L 112.62868 379.201009 
L 113.488949 380.54692 
L 114.349218 380.659079 
L 115.209487 381.388115 
L 116.069756 381.163796 
L 116.930025 380.54692 
L 117.790294 380.603 
L 119.510832 380.939478 
L 120.371101 381.107717 
L 121.23137 381.444195 
L 122.09164 381.500274 
L 122.951909 370.508663 
L 123.812178 370.508663 
L 125.532716 368.938433 
L 126.392985 368.658035 
L 127.253254 368.097238 
L 128.973792 367.256044 
L 131.554599 367.648601 
L 132.414869 367.256044 
L 133.275138 367.256044 
L 134.135407 367.424283 
L 134.995676 367.199964 
L 135.855945 368.209398 
L 136.716214 368.601955 
L 138.436752 368.041159 
L 139.297021 368.433716 
L 140.15729 367.592522 
L 141.017559 367.031725 
L 141.877829 366.919566 
L 142.738098 367.087805 
L 143.598367 366.919566 
L 144.458636 367.368203 
L 145.318905 367.199964 
L 146.179174 366.863486 
L 147.039443 367.760761 
L 148.759981 367.368203 
L 149.62025 367.480362 
L 150.480519 366.863486 
L 151.340788 366.751327 
L 153.061327 366.078371 
L 153.921596 365.461495 
L 154.781865 364.227743 
L 156.502403 363.274389 
L 157.362672 374.434239 
L 158.222941 373.480885 
L 159.08321 374.20992 
L 159.943479 374.490318 
L 160.803748 374.041681 
L 161.664018 374.434239 
L 162.524287 373.985601 
L 163.384556 373.985601 
L 164.244825 373.761283 
L 165.105094 373.761283 
L 165.965363 362.601433 
L 166.825632 362.545353 
L 167.685901 362.713592 
L 168.54617 362.096716 
L 169.406439 362.433194 
L 170.266708 362.208875 
L 171.126977 362.825752 
L 171.987247 362.713592 
L 172.847516 362.713592 
L 173.707785 362.489274 
L 174.568054 362.601433 
L 175.428323 362.489274 
L 176.288592 362.657513 
L 177.148861 362.208875 
L 178.869399 362.321035 
L 180.589937 362.657513 
L 181.450207 362.433194 
L 182.310476 362.601433 
L 183.170745 363.05007 
L 184.031014 362.825752 
L 185.751552 364.283822 
L 186.611821 364.227743 
L 187.47209 364.452061 
L 188.332359 365.237176 
L 189.192628 366.470929 
L 190.913166 367.087805 
L 191.773436 367.087805 
L 192.633705 367.760761 
L 193.493974 367.256044 
L 194.354243 367.592522 
L 197.795319 369.667469 
L 199.515857 369.891787 
L 200.376126 380.771239 
L 201.236395 380.490841 
L 202.096665 380.434761 
L 202.956934 380.827318 
L 203.817203 380.603 
L 204.677472 380.883398 
L 205.537741 381.556354 
L 206.39801 382.004991 
L 207.258279 382.061071 
L 208.118548 381.948911 
L 210.699355 350.039592 
L 212.419894 349.983512 
L 213.280163 350.095672 
L 215.000701 350.039592 
L 216.721239 350.263911 
L 217.581508 350.151751 
L 218.441777 349.871353 
L 219.302046 349.927433 
L 220.162315 338.767583 
L 221.022584 338.879742 
L 222.743123 338.823662 
L 223.603392 338.711503 
L 225.32393 339.16014 
L 226.184199 338.431105 
L 231.345814 339.664857 
L 232.206083 339.720937 
L 233.066352 328.729326 
L 233.926621 328.673246 
L 234.78689 317.793795 
L 235.647159 318.242432 
L 236.507428 318.298512 
L 237.367697 307.36298 
L 238.227966 307.531219 
L 239.088235 307.47514 
L 239.948504 306.970423 
L 242.529312 307.587299 
L 243.389581 318.634989 
L 244.24985 318.634989 
L 245.110119 329.68268 
L 245.970388 330.131317 
L 247.690926 330.075237 
L 249.411464 330.467795 
L 250.271733 330.355636 
L 251.132003 330.355636 
L 251.992272 330.187397 
L 252.852541 330.692114 
L 253.71281 330.748193 
L 254.573079 341.851963 
L 256.293617 342.188441 
L 257.153886 342.244521 
L 258.014155 341.964123 
L 258.874424 330.860353 
L 259.734693 330.916432 
L 260.594962 331.589388 
L 261.455232 331.589388 
L 263.17577 331.869786 
L 264.036039 331.813707 
L 264.896308 320.653857 
L 265.756577 319.868742 
L 266.616846 319.980901 
L 267.477115 331.084671 
L 268.337384 331.084671 
L 269.197653 342.244521 
L 270.918191 342.132362 
L 271.778461 353.236132 
L 272.63873 353.180052 
L 273.498999 353.236132 
L 274.359268 353.684769 
L 276.079806 353.740849 
L 276.940075 353.292212 
L 277.800344 353.236132 
L 278.660613 364.115583 
L 279.520882 364.003424 
L 280.381151 364.003424 
L 282.10169 364.452061 
L 282.961959 364.508141 
L 284.682497 364.283822 
L 285.542766 364.059504 
L 286.403035 364.339902 
L 287.263304 364.227743 
L 288.123573 364.339902 
L 291.56465 364.283822 
L 292.424919 364.003424 
L 293.285188 374.938955 
L 294.145457 374.995035 
L 295.005726 374.826796 
L 295.865995 363.723026 
L 298.446802 363.723026 
L 299.307071 374.826796 
L 300.16734 375.611911 
L 301.02761 375.443672 
L 301.887879 375.443672 
L 302.748148 375.275433 
L 303.608417 374.882876 
L 304.468686 364.059504 
L 305.328955 363.442628 
L 306.189224 352.338858 
L 308.770031 352.282778 
L 309.6303 351.834141 
L 310.490569 351.834141 
L 311.350839 352.394937 
L 312.211108 341.403326 
L 313.071377 341.627645 
L 313.931646 330.692114 
L 314.791915 330.636034 
L 316.512453 330.355636 
L 317.372722 330.299556 
L 318.232991 330.355636 
L 320.813798 297.380803 
L 323.394606 296.820007 
L 324.254875 296.932166 
L 325.115144 296.876086 
L 325.975413 296.932166 
L 326.835682 297.549042 
L 327.695951 296.932166 
L 328.55622 296.651768 
L 329.416489 296.820007 
L 330.276758 307.867697 
L 331.137028 307.755538 
L 331.997297 307.811617 
L 332.857566 307.531219 
L 336.298642 307.587299 
L 337.158911 307.643378 
L 338.01918 307.867697 
L 338.879449 307.867697 
L 339.739718 308.484573 
L 340.599987 319.588343 
L 341.460257 319.644423 
L 342.320526 319.532264 
L 343.180795 319.644423 
L 344.041064 319.924821 
L 345.761602 319.868742 
L 346.621871 330.692114 
L 347.48214 330.355636 
L 348.342409 341.459406 
L 349.202678 341.515486 
L 350.923217 341.795884 
L 352.643755 341.795884 
L 355.224562 375.163274 
L 356.084831 375.499752 
L 356.9451 375.331513 
L 357.805369 375.555832 
L 359.525907 375.499752 
L 360.386176 375.387593 
L 361.246446 375.387593 
L 362.106715 375.78015 
L 362.966984 376.004469 
L 363.827253 375.892309 
L 364.687522 375.892309 
L 365.547791 375.555832 
L 366.40806 375.499752 
L 367.268329 375.724071 
L 368.128598 375.667991 
L 368.988867 364.6203 
L 370.709406 364.6203 
L 372.429944 364.844619 
L 373.290213 376.004469 
L 374.150482 376.004469 
L 375.010751 364.900699 
L 377.591558 364.844619 
L 378.451827 365.012858 
L 379.312096 364.900699 
L 380.172365 365.012858 
L 381.892904 365.349336 
L 382.753173 365.237176 
L 383.613442 354.133406 
L 384.473711 354.133406 
L 385.33398 353.909088 
L 386.194249 342.805317 
L 387.054518 342.693158 
L 388.775056 320.429538 
L 389.635325 320.261299 
L 391.355864 320.20522 
L 392.216133 320.09306 
L 393.936671 297.997679 
L 395.657209 297.941599 
L 397.377747 276.126617 
L 398.238016 276.294856 
L 399.098285 265.247165 
L 399.958554 265.303245 
L 402.539362 265.135006 
L 403.399631 276.126617 
L 404.2599 276.238776 
L 405.120169 276.126617 
L 405.980438 265.022846 
L 406.840707 264.966767 
L 407.700976 264.798528 
L 408.561245 253.694758 
L 409.421514 253.694758 
L 411.142053 231.543297 
L 412.002322 231.431138 
L 414.583129 198.175907 
L 415.443398 198.288066 
L 416.303667 197.783349 
L 417.163936 197.951588 
L 418.024205 208.326323 
L 418.884474 197.222553 
L 419.744743 197.334712 
L 420.605013 208.438482 
L 421.465282 208.606721 
L 423.18582 208.606721 
L 424.046089 208.494562 
L 424.906358 197.334712 
L 425.766627 197.67119 
L 426.626896 186.679579 
L 428.347434 186.679579 
L 430.067972 186.903898 
L 431.788511 208.943199 
L 432.64878 208.887119 
L 433.509049 219.99089 
L 434.369318 220.271288 
L 435.229587 220.215208 
L 437.810394 220.607766 
L 438.670663 220.439527 
L 439.530932 220.439527 
L 440.391202 231.543297 
L 441.251471 231.543297 
L 442.11174 231.318978 
L 445.552816 275.453661 
L 447.273354 275.453661 
L 448.133623 286.333112 
L 448.993892 286.333112 
L 449.854161 286.220953 
L 450.714431 286.893909 
L 451.5747 275.734059 
L 452.434969 276.294856 
L 453.295238 287.454705 
L 454.155507 287.510785 
L 455.876045 287.398626 
L 457.596583 309.325768 
L 458.456852 309.662246 
L 459.317121 320.709936 
L 460.17739 320.485618 
L 462.758198 353.46045 
L 463.618467 342.300601 
L 464.478736 342.188441 
L 465.339005 342.300601 
L 466.199274 342.300601 
L 467.059543 339.608778 
L 467.919812 338.543264 
L 468.780081 338.711503 
L 469.64035 335.234565 
L 470.50062 335.346724 
L 471.360889 334.617689 
L 472.221158 333.327857 
L 473.081427 333.159618 
L 473.941696 331.757627 
L 474.801965 330.972512 
L 475.662234 330.748193 
L 476.522503 330.748193 
L 477.382772 330.299556 
L 478.243041 330.187397 
L 479.10331 330.187397 
L 479.963579 330.299556 
L 480.823849 329.68268 
L 481.684118 338.655424 
L 482.544387 338.543264 
L 483.404656 348.974079 
L 484.264925 347.628167 
L 485.125194 347.572087 
L 485.985463 356.040114 
L 486.845732 355.479318 
L 487.706001 355.08676 
L 488.56627 354.862442 
L 490.286809 354.189486 
L 491.147078 354.077327 
L 492.007347 354.077327 
L 492.867616 353.740849 
L 493.727885 353.853008 
L 494.588154 354.077327 
L 495.448423 351.217265 
L 496.308692 351.217265 
L 497.168961 350.992946 
L 498.02923 361.53592 
L 499.749768 361.704159 
L 500.610038 361.311601 
L 501.470307 360.302167 
L 502.330576 361.42376 
L 503.190845 359.629212 
L 504.051114 361.648079 
L 504.911383 361.087283 
L 505.771652 361.311601 
L 506.631921 362.489274 
L 507.49219 362.825752 
L 508.352459 364.283822 
L 509.212728 363.723026 
L 510.072997 361.760238 
L 510.933267 361.816318 
L 511.793536 362.152796 
L 512.653805 362.208875 
L 513.514074 362.096716 
L 514.374343 360.694725 
L 515.234612 360.975123 
L 516.094881 363.10615 
L 516.95515 362.601433 
L 517.815419 363.330468 
L 518.675688 364.788539 
L 519.535957 364.67638 
L 520.396227 367.087805 
L 521.256496 367.368203 
L 522.116765 367.480362 
L 522.977034 366.695247 
L 523.837303 366.414849 
L 524.697572 366.751327 
L 526.41811 365.517575 
L 527.278379 365.685814 
L 528.138648 365.461495 
L 528.998917 365.068937 
L 529.859186 367.424283 
L 530.719456 367.368203 
L 531.579725 367.592522 
L 532.439994 368.041159 
L 534.160532 368.041159 
L 535.020801 368.321557 
L 535.88107 372.078893 
L 536.741339 371.910654 
L 538.461877 374.714637 
L 539.322146 374.546398 
L 541.042685 374.882876 
L 542.763223 374.602478 
L 543.623492 375.499752 
L 544.483761 377.574699 
L 545.34403 377.574699 
L 547.064568 377.35038 
L 547.924837 377.518619 
L 548.785106 377.967256 
L 549.645375 378.247655 
L 550.505645 378.023336 
L 551.365914 378.696292 
L 552.226183 378.640212 
L 556.527528 324.186874 
L 558.248066 303.773883 
L 559.968605 282.407537 
L 562.549412 250.10566 
L 569.431564 162.67749 
L 572.872641 118.823205 
L 575.453448 86.35309 
L 578.894524 43.676478 
L 579.754793 43.956876 
L 580.615063 43.452159 
L 581.475332 43.620398 
L 582.335601 43.564319 
L 584.056139 43.34 
L 584.916408 43.620398 
L 586.636946 43.620398 
L 594.379368 140.638188 
L 603.842328 261.714147 
L 607.283404 305.624511 
L 608.143673 315.045892 
L 613.305288 379.425327 
L 614.165557 379.201009 
L 615.025826 379.593566 
L 615.886095 379.649646 
L 616.746364 379.313168 
L 617.606633 379.873964 
L 618.466902 380.154363 
L 620.187441 379.986124 
L 621.04771 379.761805 
L 621.907979 379.930044 
L 622.768248 379.593566 
L 623.628517 379.873964 
L 624.488786 379.649646 
L 625.349055 379.817885 
L 626.209324 379.537487 
L 627.069593 380.266522 
L 627.929862 380.603 
L 628.790131 381.219876 
L 629.650401 381.051637 
L 630.51067 380.715159 
L 632.231208 380.54692 
L 633.091477 380.883398 
L 633.951746 380.939478 
L 634.812015 381.107717 
L 636.532553 380.715159 
L 638.253091 380.771239 
L 639.11336 380.434761 
L 639.97363 380.322602 
L 640.833899 380.490841 
L 641.694168 380.434761 
L 642.554437 382.004991 
L 643.414706 382.397549 
L 644.274975 382.509708 
L 645.135244 382.790106 
L 645.995513 382.790106 
L 649.436589 383.68738 
L 650.296859 383.631301 
L 651.157128 384.192097 
L 652.017397 384.472496 
L 652.877666 384.360336 
L 654.598204 384.528575 
L 655.458473 384.640734 
L 656.318742 384.192097 
L 657.179011 384.192097 
L 658.03928 384.079938 
L 658.899549 384.416416 
L 659.759819 384.304257 
L 661.480357 385.089372 
L 662.340626 384.752894 
L 664.061164 385.42585 
L 664.921433 385.650168 
L 670.943317 386.042726 
L 672.663855 385.986646 
L 673.524124 386.323124 
L 676.104931 386.379204 
L 676.9652 386.547442 
L 678.685738 386.603522 
L 680.406277 386.267044 
L 681.266546 386.379204 
L 682.126815 385.930566 
L 684.707622 386.042726 
L 685.567891 385.818407 
L 686.42816 385.818407 
L 687.288429 385.930566 
L 688.148698 385.650168 
L 689.869237 385.930566 
L 691.589775 386.603522 
L 692.450044 386.715681 
L 693.310313 386.547442 
L 694.170582 386.659602 
L 695.89112 386.379204 
L 696.751389 386.435283 
L 698.471927 386.379204 
L 699.332196 386.491363 
L 700.192466 386.491363 
L 701.052735 386.603522 
L 701.913004 386.379204 
L 702.773273 386.491363 
L 703.633542 386.435283 
L 704.493811 386.491363 
L 705.35408 386.267044 
L 706.214349 386.379204 
L 707.074618 386.323124 
L 708.795156 386.659602 
L 713.096502 386.379204 
L 713.956771 385.986646 
L 714.81704 386.042726 
L 715.677309 385.986646 
L 716.537578 386.379204 
L 717.397847 386.210965 
L 719.118385 386.210965 
L 721.699193 386.491363 
L 722.559462 386.771761 
L 723.419731 386.88392 
L 724.28 386.715681 
L 724.28 386.715681 
" style="fill:none;stroke:#ff7f0e;stroke-linecap:square;stroke-width:1.5;"/>
   </g>
   <g id="line2d_20">
    <path clip-path="url(#pdbaa996442)" d="M 70.475494 371.910654 
L 71.335763 375.724071 
L 72.196033 376.340947 
L 73.056302 379.088849 
L 73.916571 380.715159 
L 74.77684 380.659079 
L 75.637109 380.378681 
L 76.497378 380.659079 
L 77.357647 380.603 
L 78.217916 381.163796 
L 79.078185 379.930044 
L 79.938454 380.378681 
L 82.519262 381.332035 
L 83.379531 382.958345 
L 84.2398 382.734026 
L 85.100069 382.677947 
L 86.820607 382.22931 
L 88.541145 381.836752 
L 89.401414 381.836752 
L 90.261683 382.677947 
L 91.121952 382.846186 
L 91.982222 383.68738 
L 92.842491 383.519142 
L 93.70276 383.911699 
L 94.563029 383.79954 
L 95.423298 383.79954 
L 96.283567 383.631301 
L 98.004105 383.74346 
L 99.724643 383.519142 
L 100.584912 383.575221 
L 101.445181 382.565787 
L 102.305451 380.939478 
L 103.16572 380.715159 
L 104.025989 381.107717 
L 104.886258 380.54692 
L 108.327334 380.378681 
L 109.187603 380.715159 
L 110.047872 380.154363 
L 111.768411 380.098283 
L 112.62868 379.201009 
L 113.488949 380.54692 
L 114.349218 380.659079 
L 115.209487 381.388115 
L 116.069756 381.163796 
L 116.930025 380.54692 
L 117.790294 380.603 
L 119.510832 380.939478 
L 120.371101 381.107717 
L 121.23137 381.444195 
L 122.09164 381.500274 
L 122.951909 370.508663 
L 123.812178 370.508663 
L 125.532716 368.938433 
L 126.392985 368.658035 
L 127.253254 368.097238 
L 128.973792 367.256044 
L 131.554599 367.648601 
L 132.414869 367.256044 
L 133.275138 367.256044 
L 134.135407 367.424283 
L 134.995676 367.199964 
L 135.855945 368.209398 
L 136.716214 368.601955 
L 138.436752 368.041159 
L 139.297021 368.433716 
L 140.15729 367.592522 
L 141.017559 367.031725 
L 141.877829 366.919566 
L 142.738098 367.087805 
L 143.598367 366.919566 
L 144.458636 367.368203 
L 145.318905 367.199964 
L 146.179174 366.863486 
L 147.039443 367.760761 
L 148.759981 367.368203 
L 149.62025 367.480362 
L 150.480519 366.863486 
L 151.340788 366.751327 
L 153.061327 366.078371 
L 153.921596 365.461495 
L 154.781865 364.227743 
L 156.502403 363.274389 
L 157.362672 374.434239 
L 158.222941 373.480885 
L 159.08321 374.20992 
L 159.943479 374.490318 
L 160.803748 374.041681 
L 161.664018 374.434239 
L 162.524287 373.985601 
L 163.384556 373.985601 
L 164.244825 373.761283 
L 165.105094 373.761283 
L 165.965363 362.601433 
L 166.825632 362.545353 
L 167.685901 362.713592 
L 168.54617 362.096716 
L 169.406439 362.433194 
L 170.266708 362.208875 
L 171.126977 362.825752 
L 171.987247 362.713592 
L 172.847516 362.713592 
L 173.707785 362.489274 
L 174.568054 362.601433 
L 175.428323 362.489274 
L 176.288592 362.657513 
L 177.148861 362.208875 
L 178.869399 362.321035 
L 180.589937 362.657513 
L 181.450207 362.433194 
L 182.310476 362.601433 
L 183.170745 363.05007 
L 184.031014 362.825752 
L 185.751552 364.283822 
L 186.611821 364.227743 
L 187.47209 364.452061 
L 188.332359 365.237176 
L 189.192628 366.470929 
L 190.913166 367.087805 
L 191.773436 367.087805 
L 192.633705 367.760761 
L 193.493974 367.256044 
L 194.354243 367.592522 
L 197.795319 369.667469 
L 199.515857 369.891787 
L 200.376126 380.771239 
L 201.236395 380.490841 
L 202.096665 380.434761 
L 202.956934 380.827318 
L 203.817203 380.603 
L 204.677472 380.883398 
L 205.537741 381.556354 
L 206.39801 382.004991 
L 207.258279 382.061071 
L 208.118548 381.948911 
L 210.699355 350.039592 
L 212.419894 349.983512 
L 213.280163 350.095672 
L 215.000701 350.039592 
L 216.721239 350.263911 
L 217.581508 350.151751 
L 218.441777 349.871353 
L 219.302046 349.927433 
L 220.162315 338.767583 
L 221.022584 338.879742 
L 221.882854 327.888131 
L 222.743123 327.832052 
L 223.603392 316.672202 
L 225.32393 317.120839 
L 226.184199 316.167485 
L 227.904737 316.672202 
L 230.485544 283.865608 
L 231.345814 284.089927 
L 233.066352 262.162784 
L 233.926621 262.106705 
L 234.78689 261.489829 
L 235.647159 261.938466 
L 236.507428 261.826307 
L 237.367697 250.890775 
L 238.227966 251.059014 
L 239.088235 251.002935 
L 239.948504 250.722536 
L 241.669043 251.059014 
L 245.110119 251.059014 
L 245.970388 251.507651 
L 247.690926 251.563731 
L 249.411464 251.844129 
L 251.132003 251.619811 
L 251.992272 251.339412 
L 252.852541 251.73197 
L 253.71281 251.78805 
L 254.573079 262.89182 
L 255.433348 252.068448 
L 256.293617 263.172218 
L 257.153886 263.228298 
L 258.014155 273.827351 
L 258.874424 262.723581 
L 259.734693 262.779661 
L 260.594962 263.676935 
L 261.455232 263.508696 
L 262.315501 252.573165 
L 264.036039 274.780705 
L 264.896308 274.780705 
L 265.756577 274.556386 
L 267.477115 296.763927 
L 268.337384 296.763927 
L 269.197653 297.549042 
L 270.057922 297.492962 
L 270.918191 297.605122 
L 271.778461 308.708892 
L 273.498999 308.596732 
L 274.359268 308.821051 
L 276.940075 309.04537 
L 279.520882 341.851963 
L 280.381151 341.851963 
L 281.241421 342.076282 
L 284.682497 342.020202 
L 285.542766 341.908043 
L 286.403035 342.188441 
L 288.983842 342.188441 
L 289.844111 353.067893 
L 291.56465 353.067893 
L 292.424919 353.292212 
L 293.285188 364.003424 
L 294.145457 364.059504 
L 295.005726 363.891265 
L 295.865995 352.955734 
L 296.726264 364.059504 
L 298.446802 364.059504 
L 299.307071 375.163274 
L 300.16734 375.387593 
L 301.02761 374.434239 
L 301.887879 374.434239 
L 302.748148 374.266 
L 303.608417 363.218309 
L 304.468686 363.386548 
L 305.328955 363.274389 
L 307.049493 341.122928 
L 308.770031 341.066848 
L 310.490569 340.78645 
L 311.350839 341.010769 
L 312.211108 330.019158 
L 313.071377 330.243476 
L 313.931646 319.307945 
L 314.791915 319.251866 
L 315.652184 318.57891 
L 317.372722 318.634989 
L 318.232991 318.691069 
L 320.813798 285.716236 
L 321.674068 285.547997 
L 322.534337 274.500307 
L 323.394606 274.163829 
L 324.254875 274.388148 
L 325.115144 263.284377 
L 325.975413 263.340457 
L 326.835682 263.620855 
L 327.695951 263.620855 
L 328.55622 263.396537 
L 329.416489 263.564776 
L 330.276758 274.612466 
L 331.997297 274.388148 
L 334.578104 274.275988 
L 335.438373 275.173263 
L 336.298642 275.173263 
L 337.158911 275.061103 
L 338.01918 275.061103 
L 339.739718 253.077882 
L 341.460257 275.285422 
L 343.180795 275.285422 
L 344.041064 274.892864 
L 344.901333 275.005024 
L 345.761602 274.948944 
L 346.621871 285.884475 
L 347.48214 285.716236 
L 348.342409 296.820007 
L 349.202678 296.876086 
L 350.062947 297.549042 
L 350.923217 297.661201 
L 352.643755 297.661201 
L 355.224562 331.028591 
L 356.084831 331.30899 
L 356.9451 342.020202 
L 357.805369 342.35668 
L 358.665638 342.35668 
L 359.525907 353.348291 
L 360.386176 353.236132 
L 361.246446 353.236132 
L 362.966984 353.51653 
L 363.827253 353.404371 
L 364.687522 353.404371 
L 365.547791 342.46884 
L 367.268329 342.524919 
L 368.128598 342.244521 
L 368.988867 331.19683 
L 370.709406 331.19683 
L 371.569675 331.477229 
L 374.150482 364.73246 
L 375.010751 364.6203 
L 375.87102 353.51653 
L 376.731289 353.51653 
L 377.591558 342.46884 
L 378.451827 343.029636 
L 379.312096 331.869786 
L 380.172365 331.981945 
L 381.892904 332.318423 
L 382.753173 332.206264 
L 385.33398 332.150184 
L 386.194249 332.094105 
L 387.054518 320.990335 
L 390.495594 320.766016 
L 392.216133 298.951033 
L 393.076402 298.894953 
L 394.79694 276.855652 
L 395.657209 276.855652 
L 396.517478 266.03228 
L 397.377747 266.08836 
L 399.098285 266.368758 
L 399.958554 277.304289 
L 401.679093 277.19213 
L 402.539362 277.416449 
L 403.399631 288.408059 
L 404.2599 288.520219 
L 405.120169 288.408059 
L 406.840707 288.35198 
L 407.700976 288.2959 
L 408.561245 287.959422 
L 409.421514 276.967811 
L 411.142053 276.911732 
L 412.002322 287.903343 
L 412.862591 276.799572 
L 413.72286 287.959422 
L 415.443398 287.903343 
L 416.303667 287.903343 
L 417.163936 288.071582 
L 418.024205 287.735104 
L 418.884474 287.622944 
L 420.605013 287.679024 
L 421.465282 298.838874 
L 422.325551 287.791183 
L 423.18582 287.679024 
L 424.046089 287.735104 
L 424.906358 287.679024 
L 426.626896 308.93321 
L 427.487165 308.93321 
L 429.207703 330.804273 
L 430.067972 330.860353 
L 430.928242 341.459406 
L 431.788511 341.347247 
L 432.64878 341.066848 
L 433.509049 341.010769 
L 434.369318 341.066848 
L 435.229587 341.010769 
L 436.950125 341.179008 
L 437.810394 341.347247 
L 438.670663 341.179008 
L 441.251471 341.179008 
L 442.11174 341.291167 
L 442.972009 341.683724 
L 444.692547 363.330468 
L 446.413085 363.386548 
L 447.273354 363.386548 
L 448.133623 363.218309 
L 448.993892 352.170619 
L 449.854161 352.058459 
L 450.714431 352.058459 
L 452.434969 330.131317 
L 453.295238 330.299556 
L 455.015776 330.243476 
L 455.876045 330.187397 
L 456.736314 341.235087 
L 458.456852 341.347247 
L 459.317121 341.291167 
L 460.17739 342.188441 
L 461.03766 341.964123 
L 463.618467 342.132362 
L 464.478736 342.020202 
L 465.339005 342.524919 
L 466.199274 342.524919 
L 467.919812 320.541697 
L 468.780081 320.541697 
L 469.64035 309.550087 
L 470.50062 309.662246 
L 471.360889 298.502396 
L 472.221158 297.380803 
L 478.243041 219.93481 
L 479.10331 219.93481 
L 479.963579 220.046969 
L 480.823849 219.766571 
L 481.684118 219.766571 
L 482.544387 219.430093 
L 483.404656 230.029146 
L 484.264925 229.41227 
L 485.125194 218.36458 
L 486.845732 218.36458 
L 492.867616 140.806427 
L 494.588154 141.030746 
L 498.02923 97.064302 
L 499.749768 97.232541 
L 500.610038 86.184851 
L 501.470307 86.184851 
L 502.330576 97.344701 
L 503.190845 86.35309 
L 504.051114 86.35309 
L 504.911383 75.19324 
L 505.771652 75.19324 
L 506.631921 65.154983 
L 507.49219 76.314833 
L 508.352459 76.314833 
L 509.212728 86.465249 
L 510.072997 86.465249 
L 511.793536 107.270798 
L 512.653805 107.270798 
L 515.234612 74.800682 
L 516.094881 85.736213 
L 516.95515 75.08108 
L 517.815419 75.641877 
L 518.675688 76.370912 
L 520.396227 76.370912 
L 522.977034 108.50455 
L 523.837303 118.09417 
L 526.41811 150.171728 
L 527.278379 160.939021 
L 528.138648 160.490384 
L 528.998917 149.330534 
L 530.719456 149.330534 
L 532.439994 170.809039 
L 535.88107 170.809039 
L 536.741339 159.649189 
L 537.601608 159.649189 
L 539.322146 179.445304 
L 541.042685 201.035969 
L 541.902954 200.75557 
L 542.763223 211.186385 
L 543.623492 211.578942 
L 544.483761 222.177996 
L 545.34403 223.243509 
L 546.204299 222.907031 
L 548.785106 254.031236 
L 549.645375 264.910687 
L 550.505645 264.742448 
L 551.365914 275.846218 
L 552.226183 274.724625 
L 553.086452 263.564776 
L 555.667259 263.564776 
L 557.387797 264.125572 
L 558.248066 265.415404 
L 559.108335 265.247165 
L 560.828874 244.329457 
L 562.549412 244.946333 
L 564.26995 266.873475 
L 565.130219 266.873475 
L 565.990488 255.769705 
L 566.850757 255.713625 
L 567.711026 254.760271 
L 568.571295 254.143395 
L 571.152103 286.389192 
L 572.012372 286.389192 
L 572.872641 287.791183 
L 573.73291 277.360369 
L 574.593179 277.752926 
L 576.313717 277.696847 
L 577.173986 278.369803 
L 578.034255 278.874519 
L 578.894524 268.275466 
L 579.754793 267.938988 
L 580.615063 257.283855 
L 581.475332 258.293289 
L 584.056139 226.383969 
L 584.916408 226.776527 
L 585.776677 226.608288 
L 586.636946 227.617722 
L 588.357484 249.713103 
L 589.217753 249.713103 
L 590.078023 249.544864 
L 592.65883 216.79435 
L 593.519099 216.121394 
L 595.239637 216.121394 
L 596.960175 194.026013 
L 597.820444 194.138172 
L 598.680713 183.25872 
L 600.401252 183.25872 
L 601.261521 184.099915 
L 602.982059 163.350446 
L 603.842328 163.967322 
L 606.423135 164.24772 
L 607.283404 153.480428 
L 608.143673 153.480428 
L 609.003942 148.096781 
L 609.864212 147.984622 
L 610.724481 147.087348 
L 611.58475 147.031268 
L 612.445019 146.638711 
L 613.305288 157.406003 
L 614.165557 157.518162 
L 615.025826 168.509773 
L 615.886095 168.565853 
L 618.466902 201.652845 
L 619.327171 201.596765 
L 620.187441 201.765004 
L 621.04771 201.652845 
L 622.768248 201.316367 
L 623.628517 212.476217 
L 624.488786 212.756615 
L 626.209324 233.954722 
L 627.069593 244.609855 
L 627.929862 245.451049 
L 631.370939 288.071582 
L 632.231208 287.959422 
L 634.812015 320.14914 
L 635.672284 318.915388 
L 637.392822 340.225654 
L 638.253091 340.001335 
L 639.11336 339.328379 
L 639.97363 339.104061 
L 642.554437 372.134973 
L 643.414706 377.799017 
L 644.274975 377.911177 
L 645.135244 379.088849 
L 645.995513 378.752371 
L 646.855782 378.808451 
L 647.716051 379.201009 
L 648.57632 379.369248 
L 649.436589 379.088849 
L 650.296859 379.03277 
L 651.157128 379.257088 
L 652.017397 379.088849 
L 652.877666 378.471973 
L 653.737935 378.528053 
L 654.598204 378.135495 
L 658.03928 377.294301 
L 658.899549 377.518619 
L 659.759819 377.40646 
L 660.620088 378.471973 
L 661.480357 378.97669 
L 662.340626 378.584133 
L 663.200895 379.144929 
L 664.061164 379.257088 
L 664.921433 379.649646 
L 665.781702 379.873964 
L 666.641971 379.257088 
L 667.50224 379.873964 
L 668.362509 379.761805 
L 669.222778 380.098283 
L 670.083048 379.930044 
L 670.943317 380.322602 
L 671.803586 380.154363 
L 672.663855 380.378681 
L 673.524124 381.107717 
L 674.384393 380.827318 
L 676.104931 380.771239 
L 676.9652 380.939478 
L 678.685738 380.995557 
L 679.546008 380.827318 
L 680.406277 380.883398 
L 681.266546 380.771239 
L 682.126815 379.873964 
L 683.847353 380.54692 
L 684.707622 379.986124 
L 686.42816 379.088849 
L 687.288429 379.705725 
L 688.148698 379.313168 
L 689.869237 380.098283 
L 690.729506 380.54692 
L 692.450044 381.107717 
L 693.310313 379.705725 
L 694.170582 379.817885 
L 695.89112 378.864531 
L 696.751389 379.088849 
L 697.611658 379.03277 
L 700.192466 379.257088 
L 701.052735 379.986124 
L 701.913004 379.873964 
L 702.773273 380.266522 
L 703.633542 380.210442 
L 704.493811 380.995557 
L 705.35408 381.163796 
L 706.214349 381.500274 
L 707.074618 381.444195 
L 707.934887 381.612433 
L 708.795156 382.17323 
L 709.655426 381.780672 
L 710.515695 381.556354 
L 711.375964 381.500274 
L 712.236233 381.219876 
L 713.956771 380.378681 
L 714.81704 380.434761 
L 715.677309 380.603 
L 716.537578 381.444195 
L 717.397847 380.771239 
L 718.258116 380.771239 
L 719.978655 381.219876 
L 720.838924 381.892832 
L 721.699193 381.892832 
L 722.559462 382.285389 
L 723.419731 382.397549 
L 724.28 382.22931 
L 724.28 382.22931 
" style="fill:none;stroke:#2ca02c;stroke-linecap:square;stroke-width:1.5;"/>
   </g>
   <g id="line2d_21">
    <path clip-path="url(#pdbaa996442)" d="M 70.475494 375.219354 
L 71.335763 379.03277 
L 73.056302 380.322602 
L 74.77684 380.659079 
L 75.637109 381.275956 
L 76.497378 381.332035 
L 77.357647 381.275956 
L 78.217916 381.500274 
L 79.078185 381.107717 
L 79.938454 379.257088 
L 80.798723 379.425327 
L 81.658992 379.03277 
L 82.519262 380.266522 
L 83.379531 380.54692 
L 84.2398 380.434761 
L 85.960338 379.425327 
L 88.541145 379.144929 
L 89.401414 379.257088 
L 90.261683 379.593566 
L 91.121952 379.537487 
L 91.982222 380.154363 
L 93.70276 380.54692 
L 94.563029 380.490841 
L 95.423298 380.995557 
L 96.283567 380.939478 
L 97.143836 380.771239 
L 98.004105 380.939478 
L 98.864374 380.827318 
L 99.724643 380.827318 
L 100.584912 381.332035 
L 101.445181 381.051637 
L 103.16572 380.827318 
L 104.025989 381.275956 
L 104.886258 380.827318 
L 107.467065 380.322602 
L 108.327334 380.378681 
L 109.187603 380.603 
L 110.047872 380.54692 
L 111.768411 380.603 
L 112.62868 380.378681 
L 113.488949 380.883398 
L 114.349218 383.294823 
L 115.209487 383.294823 
L 116.069756 383.68738 
L 117.790294 383.014425 
L 118.650563 383.126584 
L 120.371101 384.023858 
L 121.23137 384.079938 
L 122.09164 384.248177 
L 122.951909 380.490841 
L 123.812178 380.490841 
L 124.672447 380.322602 
L 125.532716 379.649646 
L 126.392985 379.425327 
L 127.253254 379.817885 
L 128.113523 379.593566 
L 128.973792 379.705725 
L 129.834061 379.705725 
L 131.554599 380.154363 
L 132.414869 379.817885 
L 135.855945 380.098283 
L 136.716214 379.873964 
L 137.576483 379.873964 
L 140.15729 379.144929 
L 141.017559 378.752371 
L 141.877829 379.088849 
L 142.738098 379.257088 
L 144.458636 379.201009 
L 146.179174 378.864531 
L 147.039443 379.088849 
L 147.899712 378.696292 
L 148.759981 378.640212 
L 149.62025 378.864531 
L 150.480519 378.808451 
L 151.340788 378.584133 
L 152.201058 377.911177 
L 153.061327 377.46254 
L 153.921596 377.46254 
L 154.781865 377.294301 
L 156.502403 377.35038 
L 157.362672 381.163796 
L 158.222941 380.715159 
L 159.08321 380.883398 
L 159.943479 381.612433 
L 160.803748 381.612433 
L 161.664018 381.444195 
L 162.524287 381.612433 
L 163.384556 381.388115 
L 165.105094 381.444195 
L 165.965363 376.565265 
L 166.825632 376.901743 
L 167.685901 377.013902 
L 168.54617 375.83623 
L 169.406439 376.060548 
L 170.266708 376.116628 
L 171.126977 376.453106 
L 171.987247 376.397026 
L 172.847516 376.509186 
L 173.707785 377.126062 
L 174.568054 377.294301 
L 175.428323 377.630779 
L 176.288592 377.686858 
L 177.148861 376.733504 
L 178.00913 376.957823 
L 179.729668 376.901743 
L 180.589937 376.789584 
L 181.450207 376.228787 
L 183.170745 376.845663 
L 184.031014 376.340947 
L 184.891283 376.116628 
L 185.751552 376.621345 
L 186.611821 377.46254 
L 187.47209 377.518619 
L 189.192628 377.967256 
L 190.052897 377.630779 
L 191.773436 377.574699 
L 193.493974 376.957823 
L 194.354243 377.126062 
L 195.214512 377.126062 
L 196.074781 377.238221 
L 196.93505 376.957823 
L 197.795319 376.957823 
L 198.655588 376.733504 
L 199.515857 376.789584 
L 200.376126 381.500274 
L 202.096665 381.388115 
L 202.956934 382.453628 
L 203.817203 382.341469 
L 205.537741 382.621867 
L 207.258279 382.397549 
L 208.118548 382.453628 
L 208.978817 382.285389 
L 209.839086 380.54692 
L 210.699355 379.930044 
L 211.559625 380.266522 
L 213.280163 379.986124 
L 216.721239 380.210442 
L 217.581508 380.098283 
L 219.302046 380.490841 
L 220.162315 380.434761 
L 221.022584 380.54692 
L 221.882854 378.471973 
L 223.603392 378.247655 
L 224.463661 378.696292 
L 225.32393 378.696292 
L 226.184199 378.247655 
L 227.044468 378.97669 
L 228.765006 379.03277 
L 230.485544 379.481407 
L 231.345814 379.873964 
L 232.206083 379.817885 
L 233.066352 379.930044 
L 234.78689 379.873964 
L 235.647159 379.369248 
L 236.507428 379.425327 
L 237.367697 379.369248 
L 238.227966 379.425327 
L 239.088235 379.369248 
L 239.948504 379.201009 
L 241.669043 379.761805 
L 242.529312 379.649646 
L 243.389581 379.817885 
L 244.24985 381.444195 
L 245.970388 382.565787 
L 246.830657 382.677947 
L 247.690926 382.285389 
L 248.551195 382.22931 
L 250.271733 382.790106 
L 251.132003 382.790106 
L 251.992272 382.621867 
L 253.71281 383.070504 
L 254.573079 383.070504 
L 255.433348 382.958345 
L 256.293617 385.36977 
L 257.153886 385.481929 
L 258.874424 385.089372 
L 259.734693 385.145451 
L 260.594962 385.538009 
L 261.455232 385.538009 
L 262.315501 385.706248 
L 263.17577 385.36977 
L 264.036039 385.31369 
L 264.896308 385.089372 
L 265.756577 384.696814 
L 266.616846 385.033292 
L 267.477115 385.145451 
L 268.337384 385.145451 
L 269.197653 385.31369 
L 270.057922 385.650168 
L 270.918191 385.36977 
L 271.778461 385.481929 
L 272.63873 385.257611 
L 276.079806 385.481929 
L 276.940075 385.089372 
L 279.520882 384.640734 
L 280.381151 384.023858 
L 281.241421 384.136018 
L 282.10169 384.752894 
L 282.961959 385.089372 
L 283.822228 384.416416 
L 284.682497 384.360336 
L 285.542766 384.136018 
L 286.403035 384.416416 
L 287.263304 384.192097 
L 288.123573 384.304257 
L 288.983842 384.304257 
L 289.844111 383.967779 
L 290.70438 383.855619 
L 294.145457 383.911699 
L 295.005726 383.74346 
L 295.865995 383.294823 
L 296.726264 383.238743 
L 297.586533 383.519142 
L 298.446802 383.519142 
L 299.307071 383.68738 
L 300.16734 384.079938 
L 301.02761 383.575221 
L 301.887879 383.575221 
L 303.608417 383.182664 
L 304.468686 382.453628 
L 306.189224 382.285389 
L 307.049493 382.453628 
L 307.909762 382.453628 
L 310.490569 382.17323 
L 311.350839 382.677947 
L 313.931646 383.350903 
L 314.791915 383.911699 
L 315.652184 383.74346 
L 316.512453 383.182664 
L 317.372722 383.126584 
L 318.232991 383.74346 
L 319.953529 383.967779 
L 320.813798 383.855619 
L 321.674068 383.911699 
L 322.534337 383.68738 
L 323.394606 383.294823 
L 324.254875 383.855619 
L 325.975413 383.967779 
L 326.835682 384.304257 
L 327.695951 384.248177 
L 328.55622 384.079938 
L 329.416489 384.192097 
L 330.276758 384.584655 
L 331.137028 384.304257 
L 331.997297 384.528575 
L 332.857566 383.967779 
L 333.717835 383.967779 
L 334.578104 383.79954 
L 335.438373 384.023858 
L 336.298642 383.68738 
L 337.158911 383.631301 
L 338.01918 383.74346 
L 338.879449 384.472496 
L 339.739718 384.752894 
L 341.460257 384.921133 
L 342.320526 384.304257 
L 343.180795 384.472496 
L 344.901333 384.472496 
L 345.761602 384.360336 
L 347.48214 383.911699 
L 349.202678 384.023858 
L 350.062947 384.192097 
L 350.923217 384.752894 
L 353.504024 384.808973 
L 356.084831 385.145451 
L 356.9451 385.089372 
L 357.805369 385.481929 
L 358.665638 385.481929 
L 359.525907 385.145451 
L 361.246446 384.977212 
L 362.106715 384.977212 
L 362.966984 385.089372 
L 364.687522 384.752894 
L 366.40806 384.640734 
L 367.268329 384.977212 
L 368.128598 384.865053 
L 368.988867 384.921133 
L 371.569675 385.594088 
L 372.429944 385.650168 
L 373.290213 385.874487 
L 375.87102 385.874487 
L 376.731289 386.379204 
L 377.591558 386.323124 
L 378.451827 386.491363 
L 379.312096 386.379204 
L 380.172365 386.547442 
L 381.032635 386.94 
L 383.613442 353.796928 
L 384.473711 353.46045 
L 385.33398 352.899654 
L 386.194249 341.795884 
L 387.054518 340.169574 
L 389.635325 306.802184 
L 390.495594 306.802184 
L 391.355864 295.922732 
L 392.216133 295.642334 
L 393.076402 295.586254 
L 393.936671 284.875042 
L 394.79694 284.706803 
L 395.657209 284.762882 
L 396.517478 273.827351 
L 397.377747 273.883431 
L 399.098285 274.444227 
L 399.958554 263.733015 
L 401.679093 263.172218 
L 402.539362 252.180607 
L 403.399631 251.283333 
L 404.2599 251.395492 
L 405.120169 251.171173 
L 405.980438 251.283333 
L 406.840707 251.227253 
L 407.700976 250.946855 
L 408.561245 250.049581 
L 409.421514 238.94581 
L 411.142053 238.048536 
L 412.862591 215.840996 
L 413.72286 215.953155 
L 415.443398 215.897075 
L 417.163936 237.599899 
L 418.024205 237.599899 
L 418.884474 237.712058 
L 419.744743 237.992456 
L 420.605013 249.096227 
L 421.465282 250.778616 
L 422.325551 261.433749 
L 423.18582 261.433749 
L 424.046089 272.537519 
L 424.906358 272.48144 
L 425.766627 283.641289 
L 426.626896 283.921688 
L 427.487165 283.641289 
L 428.347434 294.408582 
L 429.207703 294.68898 
L 430.928242 294.74506 
L 433.509049 294.296422 
L 434.369318 294.296422 
L 435.229587 283.52913 
L 436.089856 283.865608 
L 436.950125 295.025458 
L 437.810394 296.090971 
L 439.530932 274.05167 
L 440.391202 274.05167 
L 441.251471 263.003979 
L 442.11174 262.218864 
L 442.972009 263.172218 
L 443.832278 263.172218 
L 445.552816 241.918032 
L 447.273354 241.918032 
L 448.133623 241.637633 
L 449.854161 219.430093 
L 450.714431 219.87873 
L 451.5747 208.71888 
L 452.434969 208.71888 
L 453.295238 208.999279 
L 454.155507 198.175907 
L 455.015776 198.063747 
L 455.876045 186.903898 
L 456.736314 187.128216 
L 459.317121 187.128216 
L 460.17739 186.903898 
L 461.03766 175.800127 
L 461.897929 176.136605 
L 463.618467 154.209463 
L 464.478736 153.704746 
L 465.339005 164.24772 
L 466.199274 153.256109 
L 467.059543 148.825817 
L 467.919812 148.769737 
L 469.64035 170.921198 
L 470.50062 171.089437 
L 471.360889 170.809039 
L 472.221158 170.752959 
L 473.941696 192.343623 
L 474.801965 192.119305 
L 475.662234 203.054836 
L 476.522503 203.727792 
L 477.382772 203.391314 
L 479.963579 235.412793 
L 481.684118 257.059536 
L 482.544387 256.666979 
L 484.264925 278.76236 
L 485.125194 278.874519 
L 486.845732 299.848307 
L 487.706001 299.231431 
L 488.56627 310.054803 
L 489.426539 309.886564 
L 490.286809 320.766016 
L 491.147078 320.653857 
L 492.007347 331.757627 
L 492.867616 330.972512 
L 493.727885 331.084671 
L 494.588154 331.30899 
L 495.448423 341.908043 
L 496.308692 341.739804 
L 498.02923 363.386548 
L 499.749768 364.508141 
L 500.610038 375.387593 
L 501.470307 379.761805 
L 502.330576 379.930044 
L 504.051114 378.97669 
L 504.911383 378.752371 
L 506.631921 378.696292 
L 507.49219 379.201009 
L 508.352459 379.144929 
L 511.793536 377.911177 
L 512.653805 378.528053 
L 514.374343 377.911177 
L 517.815419 378.528053 
L 519.535957 378.584133 
L 520.396227 379.425327 
L 522.116765 380.154363 
L 523.837303 379.873964 
L 524.697572 380.154363 
L 526.41811 379.873964 
L 527.278379 380.378681 
L 528.998917 379.873964 
L 529.859186 380.266522 
L 530.719456 380.322602 
L 532.439994 380.771239 
L 534.160532 380.771239 
L 535.020801 380.54692 
L 535.88107 380.771239 
L 537.601608 380.434761 
L 538.461877 380.995557 
L 539.322146 380.995557 
L 541.042685 381.332035 
L 541.902954 380.715159 
L 542.763223 380.827318 
L 543.623492 380.827318 
L 544.483761 381.163796 
L 545.34403 381.948911 
L 546.204299 381.892832 
L 547.064568 381.668513 
L 547.924837 382.17323 
L 548.785106 382.341469 
L 550.505645 382.17323 
L 551.365914 382.397549 
L 552.226183 382.341469 
L 553.086452 381.500274 
L 553.946721 381.388115 
L 555.667259 381.444195 
L 556.527528 381.500274 
L 557.387797 381.948911 
L 559.108335 381.612433 
L 559.968605 381.780672 
L 560.828874 381.612433 
L 561.689143 381.612433 
L 563.409681 381.892832 
L 565.130219 381.556354 
L 565.990488 381.219876 
L 566.850757 381.275956 
L 567.711026 381.051637 
L 568.571295 380.995557 
L 569.431564 381.444195 
L 571.152103 381.388115 
L 572.012372 381.948911 
L 575.453448 382.11715 
L 576.313717 382.397549 
L 577.173986 382.509708 
L 578.034255 383.014425 
L 578.894524 383.126584 
L 579.754793 383.126584 
L 581.475332 383.575221 
L 582.335601 383.855619 
L 583.19587 383.631301 
L 584.056139 383.238743 
L 584.916408 383.519142 
L 586.636946 383.575221 
L 587.497215 384.192097 
L 588.357484 384.360336 
L 589.217753 384.136018 
L 590.078023 384.079938 
L 590.938292 384.136018 
L 591.798561 384.079938 
L 593.519099 384.192097 
L 596.099906 384.696814 
L 596.960175 384.696814 
L 597.820444 384.808973 
L 598.680713 384.752894 
L 599.540982 384.808973 
L 600.401252 385.089372 
L 602.12179 385.31369 
L 602.982059 385.089372 
L 603.842328 385.089372 
L 604.702597 384.921133 
L 605.562866 385.089372 
L 606.423135 384.977212 
L 607.283404 384.640734 
L 608.143673 383.631301 
L 610.724481 382.902265 
L 611.58475 382.846186 
L 614.165557 382.341469 
L 615.025826 382.677947 
L 615.886095 382.846186 
L 616.746364 382.677947 
L 617.606633 382.902265 
L 618.466902 383.575221 
L 619.327171 383.519142 
L 620.187441 383.68738 
L 621.04771 383.575221 
L 621.907979 383.74346 
L 622.768248 383.463062 
L 623.628517 383.74346 
L 626.209324 383.014425 
L 627.069593 383.575221 
L 627.929862 383.68738 
L 628.790131 383.519142 
L 629.650401 383.519142 
L 630.51067 383.294823 
L 631.370939 383.350903 
L 632.231208 382.958345 
L 633.951746 383.238743 
L 634.812015 383.294823 
L 635.672284 382.790106 
L 636.532553 382.846186 
L 637.392822 383.014425 
L 638.253091 383.014425 
L 639.11336 380.995557 
L 639.97363 380.378681 
L 640.833899 380.434761 
L 641.694168 380.771239 
L 642.554437 381.836752 
L 644.274975 382.341469 
L 645.135244 382.846186 
L 645.995513 382.621867 
L 646.855782 382.677947 
L 648.57632 383.014425 
L 650.296859 382.790106 
L 651.157128 383.070504 
L 652.017397 383.126584 
L 652.877666 383.014425 
L 653.737935 383.070504 
L 654.598204 382.902265 
L 657.179011 382.958345 
L 658.03928 382.621867 
L 658.899549 382.958345 
L 659.759819 382.734026 
L 660.620088 383.126584 
L 661.480357 383.182664 
L 662.340626 382.453628 
L 663.200895 382.846186 
L 664.061164 382.677947 
L 664.921433 382.790106 
L 665.781702 382.621867 
L 666.641971 382.790106 
L 667.50224 382.397549 
L 670.083048 382.397549 
L 672.663855 382.11715 
L 673.524124 383.519142 
L 674.384393 383.967779 
L 676.9652 384.079938 
L 677.825469 383.967779 
L 678.685738 384.023858 
L 679.546008 383.68738 
L 680.406277 383.631301 
L 681.266546 383.74346 
L 682.126815 383.238743 
L 682.987084 383.294823 
L 683.847353 383.463062 
L 685.567891 383.238743 
L 686.42816 383.126584 
L 687.288429 383.238743 
L 688.148698 383.126584 
L 689.008967 383.126584 
L 689.869237 383.294823 
L 691.589775 383.294823 
L 692.450044 383.631301 
L 693.310313 382.734026 
L 694.170582 383.182664 
L 695.030851 382.790106 
L 695.89112 382.677947 
L 696.751389 383.238743 
L 697.611658 383.182664 
L 698.471927 383.463062 
L 700.192466 383.68738 
L 702.773273 384.360336 
L 703.633542 384.304257 
L 704.493811 384.696814 
L 705.35408 384.584655 
L 706.214349 384.696814 
L 707.074618 384.640734 
L 707.934887 385.42585 
L 708.795156 385.650168 
L 710.515695 385.36977 
L 711.375964 385.31369 
L 712.236233 385.36977 
L 713.096502 385.257611 
L 713.956771 384.696814 
L 714.81704 384.752894 
L 715.677309 384.696814 
L 716.537578 385.145451 
L 717.397847 384.921133 
L 719.118385 384.921133 
L 719.978655 384.752894 
L 720.838924 384.416416 
L 721.699193 384.416416 
L 722.559462 384.528575 
L 723.419731 384.752894 
L 724.28 384.584655 
L 724.28 384.584655 
" style="fill:none;stroke:#d62728;stroke-linecap:square;stroke-width:1.5;"/>
   </g>
   <g id="patch_3">
    <path d="M 36.925 404.12 
L 36.925 26.16 
" style="fill:none;stroke:#000000;stroke-linecap:square;stroke-linejoin:miter;stroke-width:0.8;"/>
   </g>
   <g id="patch_4">
    <path d="M 724.28 404.12 
L 724.28 26.16 
" style="fill:none;stroke:#000000;stroke-linecap:square;stroke-linejoin:miter;stroke-width:0.8;"/>
   </g>
   <g id="patch_5">
    <path d="M 36.925 404.12 
L 724.28 404.12 
" style="fill:none;stroke:#000000;stroke-linecap:square;stroke-linejoin:miter;stroke-width:0.8;"/>
   </g>
   <g id="patch_6">
    <path d="M 36.925 26.16 
L 724.28 26.16 
" style="fill:none;stroke:#000000;stroke-linecap:square;stroke-linejoin:miter;stroke-width:0.8;"/>
   </g>
   <g id="text_18">
    <!-- gridworld_5x5_50_4_4_1337__4-8: episode duration, steps, MA=40 -->
    <defs>
     <path d="M 45.40625 27.984375 
Q 45.40625 37.75 41.375 43.109375 
Q 37.359375 48.484375 30.078125 48.484375 
Q 22.859375 48.484375 18.828125 43.109375 
Q 14.796875 37.75 14.796875 27.984375 
Q 14.796875 18.265625 18.828125 12.890625 
Q 22.859375 7.515625 30.078125 7.515625 
Q 37.359375 7.515625 41.375 12.890625 
Q 45.40625 18.265625 45.40625 27.984375 
z
M 54.390625 6.78125 
Q 54.390625 -7.171875 48.1875 -13.984375 
Q 42 -20.796875 29.203125 -20.796875 
Q 24.46875 -20.796875 20.265625 -20.09375 
Q 16.0625 -19.390625 12.109375 -17.921875 
L 12.109375 -9.1875 
Q 16.0625 -11.328125 19.921875 -12.34375 
Q 23.78125 -13.375 27.78125 -13.375 
Q 36.625 -13.375 41.015625 -8.765625 
Q 45.40625 -4.15625 45.40625 5.171875 
L 45.40625 9.625 
Q 42.625 4.78125 38.28125 2.390625 
Q 33.9375 0 27.875 0 
Q 17.828125 0 11.671875 7.65625 
Q 5.515625 15.328125 5.515625 27.984375 
Q 5.515625 40.671875 11.671875 48.328125 
Q 17.828125 56 27.875 56 
Q 33.9375 56 38.28125 53.609375 
Q 42.625 51.21875 45.40625 46.390625 
L 45.40625 54.6875 
L 54.390625 54.6875 
z
" id="DejaVuSans-103"/>
     <path d="M 41.109375 46.296875 
Q 39.59375 47.171875 37.8125 47.578125 
Q 36.03125 48 33.890625 48 
Q 26.265625 48 22.1875 43.046875 
Q 18.109375 38.09375 18.109375 28.8125 
L 18.109375 0 
L 9.078125 0 
L 9.078125 54.6875 
L 18.109375 54.6875 
L 18.109375 46.1875 
Q 20.953125 51.171875 25.484375 53.578125 
Q 30.03125 56 36.53125 56 
Q 37.453125 56 38.578125 55.875 
Q 39.703125 55.765625 41.0625 55.515625 
z
" id="DejaVuSans-114"/>
     <path d="M 9.421875 54.6875 
L 18.40625 54.6875 
L 18.40625 0 
L 9.421875 0 
z
M 9.421875 75.984375 
L 18.40625 75.984375 
L 18.40625 64.59375 
L 9.421875 64.59375 
z
" id="DejaVuSans-105"/>
     <path d="M 45.40625 46.390625 
L 45.40625 75.984375 
L 54.390625 75.984375 
L 54.390625 0 
L 45.40625 0 
L 45.40625 8.203125 
Q 42.578125 3.328125 38.25 0.953125 
Q 33.9375 -1.421875 27.875 -1.421875 
Q 17.96875 -1.421875 11.734375 6.484375 
Q 5.515625 14.40625 5.515625 27.296875 
Q 5.515625 40.1875 11.734375 48.09375 
Q 17.96875 56 27.875 56 
Q 33.9375 56 38.25 53.625 
Q 42.578125 51.265625 45.40625 46.390625 
z
M 14.796875 27.296875 
Q 14.796875 17.390625 18.875 11.75 
Q 22.953125 6.109375 30.078125 6.109375 
Q 37.203125 6.109375 41.296875 11.75 
Q 45.40625 17.390625 45.40625 27.296875 
Q 45.40625 37.203125 41.296875 42.84375 
Q 37.203125 48.484375 30.078125 48.484375 
Q 22.953125 48.484375 18.875 42.84375 
Q 14.796875 37.203125 14.796875 27.296875 
z
" id="DejaVuSans-100"/>
     <path d="M 4.203125 54.6875 
L 13.1875 54.6875 
L 24.421875 12.015625 
L 35.59375 54.6875 
L 46.1875 54.6875 
L 57.421875 12.015625 
L 68.609375 54.6875 
L 77.59375 54.6875 
L 63.28125 0 
L 52.6875 0 
L 40.921875 44.828125 
L 29.109375 0 
L 18.5 0 
z
" id="DejaVuSans-119"/>
     <path d="M 30.609375 48.390625 
Q 23.390625 48.390625 19.1875 42.75 
Q 14.984375 37.109375 14.984375 27.296875 
Q 14.984375 17.484375 19.15625 11.84375 
Q 23.34375 6.203125 30.609375 6.203125 
Q 37.796875 6.203125 41.984375 11.859375 
Q 46.1875 17.53125 46.1875 27.296875 
Q 46.1875 37.015625 41.984375 42.703125 
Q 37.796875 48.390625 30.609375 48.390625 
z
M 30.609375 56 
Q 42.328125 56 49.015625 48.375 
Q 55.71875 40.765625 55.71875 27.296875 
Q 55.71875 13.875 49.015625 6.21875 
Q 42.328125 -1.421875 30.609375 -1.421875 
Q 18.84375 -1.421875 12.171875 6.21875 
Q 5.515625 13.875 5.515625 27.296875 
Q 5.515625 40.765625 12.171875 48.375 
Q 18.84375 56 30.609375 56 
z
" id="DejaVuSans-111"/>
     <path d="M 9.421875 75.984375 
L 18.40625 75.984375 
L 18.40625 0 
L 9.421875 0 
z
" id="DejaVuSans-108"/>
     <path d="M 50.984375 -16.609375 
L 50.984375 -23.578125 
L -0.984375 -23.578125 
L -0.984375 -16.609375 
z
" id="DejaVuSans-95"/>
     <path d="M 54.890625 54.6875 
L 35.109375 28.078125 
L 55.90625 0 
L 45.3125 0 
L 29.390625 21.484375 
L 13.484375 0 
L 2.875 0 
L 24.125 28.609375 
L 4.6875 54.6875 
L 15.28125 54.6875 
L 29.78125 35.203125 
L 44.28125 54.6875 
z
" id="DejaVuSans-120"/>
     <path d="M 4.890625 31.390625 
L 31.203125 31.390625 
L 31.203125 23.390625 
L 4.890625 23.390625 
z
" id="DejaVuSans-45"/>
     <path d="M 11.71875 12.40625 
L 22.015625 12.40625 
L 22.015625 0 
L 11.71875 0 
z
M 11.71875 51.703125 
L 22.015625 51.703125 
L 22.015625 39.3125 
L 11.71875 39.3125 
z
" id="DejaVuSans-58"/>
     <path id="DejaVuSans-32"/>
     <path d="M 56.203125 29.59375 
L 56.203125 25.203125 
L 14.890625 25.203125 
Q 15.484375 15.921875 20.484375 11.0625 
Q 25.484375 6.203125 34.421875 6.203125 
Q 39.59375 6.203125 44.453125 7.46875 
Q 49.3125 8.734375 54.109375 11.28125 
L 54.109375 2.78125 
Q 49.265625 0.734375 44.1875 -0.34375 
Q 39.109375 -1.421875 33.890625 -1.421875 
Q 20.796875 -1.421875 13.15625 6.1875 
Q 5.515625 13.8125 5.515625 26.8125 
Q 5.515625 40.234375 12.765625 48.109375 
Q 20.015625 56 32.328125 56 
Q 43.359375 56 49.78125 48.890625 
Q 56.203125 41.796875 56.203125 29.59375 
z
M 47.21875 32.234375 
Q 47.125 39.59375 43.09375 43.984375 
Q 39.0625 48.390625 32.421875 48.390625 
Q 24.90625 48.390625 20.390625 44.140625 
Q 15.875 39.890625 15.1875 32.171875 
z
" id="DejaVuSans-101"/>
     <path d="M 18.109375 8.203125 
L 18.109375 -20.796875 
L 9.078125 -20.796875 
L 9.078125 54.6875 
L 18.109375 54.6875 
L 18.109375 46.390625 
Q 20.953125 51.265625 25.265625 53.625 
Q 29.59375 56 35.59375 56 
Q 45.5625 56 51.78125 48.09375 
Q 58.015625 40.1875 58.015625 27.296875 
Q 58.015625 14.40625 51.78125 6.484375 
Q 45.5625 -1.421875 35.59375 -1.421875 
Q 29.59375 -1.421875 25.265625 0.953125 
Q 20.953125 3.328125 18.109375 8.203125 
z
M 48.6875 27.296875 
Q 48.6875 37.203125 44.609375 42.84375 
Q 40.53125 48.484375 33.40625 48.484375 
Q 26.265625 48.484375 22.1875 42.84375 
Q 18.109375 37.203125 18.109375 27.296875 
Q 18.109375 17.390625 22.1875 11.75 
Q 26.265625 6.109375 33.40625 6.109375 
Q 40.53125 6.109375 44.609375 11.75 
Q 48.6875 17.390625 48.6875 27.296875 
z
" id="DejaVuSans-112"/>
     <path d="M 44.28125 53.078125 
L 44.28125 44.578125 
Q 40.484375 46.53125 36.375 47.5 
Q 32.28125 48.484375 27.875 48.484375 
Q 21.1875 48.484375 17.84375 46.4375 
Q 14.5 44.390625 14.5 40.28125 
Q 14.5 37.15625 16.890625 35.375 
Q 19.28125 33.59375 26.515625 31.984375 
L 29.59375 31.296875 
Q 39.15625 29.25 43.1875 25.515625 
Q 47.21875 21.78125 47.21875 15.09375 
Q 47.21875 7.46875 41.1875 3.015625 
Q 35.15625 -1.421875 24.609375 -1.421875 
Q 20.21875 -1.421875 15.453125 -0.5625 
Q 10.6875 0.296875 5.421875 2 
L 5.421875 11.28125 
Q 10.40625 8.6875 15.234375 7.390625 
Q 20.0625 6.109375 24.8125 6.109375 
Q 31.15625 6.109375 34.5625 8.28125 
Q 37.984375 10.453125 37.984375 14.40625 
Q 37.984375 18.0625 35.515625 20.015625 
Q 33.0625 21.96875 24.703125 23.78125 
L 21.578125 24.515625 
Q 13.234375 26.265625 9.515625 29.90625 
Q 5.8125 33.546875 5.8125 39.890625 
Q 5.8125 47.609375 11.28125 51.796875 
Q 16.75 56 26.8125 56 
Q 31.78125 56 36.171875 55.265625 
Q 40.578125 54.546875 44.28125 53.078125 
z
" id="DejaVuSans-115"/>
     <path d="M 8.5 21.578125 
L 8.5 54.6875 
L 17.484375 54.6875 
L 17.484375 21.921875 
Q 17.484375 14.15625 20.5 10.265625 
Q 23.53125 6.390625 29.59375 6.390625 
Q 36.859375 6.390625 41.078125 11.03125 
Q 45.3125 15.671875 45.3125 23.6875 
L 45.3125 54.6875 
L 54.296875 54.6875 
L 54.296875 0 
L 45.3125 0 
L 45.3125 8.40625 
Q 42.046875 3.421875 37.71875 1 
Q 33.40625 -1.421875 27.6875 -1.421875 
Q 18.265625 -1.421875 13.375 4.4375 
Q 8.5 10.296875 8.5 21.578125 
z
M 31.109375 56 
z
" id="DejaVuSans-117"/>
     <path d="M 34.28125 27.484375 
Q 23.390625 27.484375 19.1875 25 
Q 14.984375 22.515625 14.984375 16.5 
Q 14.984375 11.71875 18.140625 8.90625 
Q 21.296875 6.109375 26.703125 6.109375 
Q 34.1875 6.109375 38.703125 11.40625 
Q 43.21875 16.703125 43.21875 25.484375 
L 43.21875 27.484375 
z
M 52.203125 31.203125 
L 52.203125 0 
L 43.21875 0 
L 43.21875 8.296875 
Q 40.140625 3.328125 35.546875 0.953125 
Q 30.953125 -1.421875 24.3125 -1.421875 
Q 15.921875 -1.421875 10.953125 3.296875 
Q 6 8.015625 6 15.921875 
Q 6 25.140625 12.171875 29.828125 
Q 18.359375 34.515625 30.609375 34.515625 
L 43.21875 34.515625 
L 43.21875 35.40625 
Q 43.21875 41.609375 39.140625 45 
Q 35.0625 48.390625 27.6875 48.390625 
Q 23 48.390625 18.546875 47.265625 
Q 14.109375 46.140625 10.015625 43.890625 
L 10.015625 52.203125 
Q 14.9375 54.109375 19.578125 55.046875 
Q 24.21875 56 28.609375 56 
Q 40.484375 56 46.34375 49.84375 
Q 52.203125 43.703125 52.203125 31.203125 
z
" id="DejaVuSans-97"/>
     <path d="M 18.3125 70.21875 
L 18.3125 54.6875 
L 36.8125 54.6875 
L 36.8125 47.703125 
L 18.3125 47.703125 
L 18.3125 18.015625 
Q 18.3125 11.328125 20.140625 9.421875 
Q 21.96875 7.515625 27.59375 7.515625 
L 36.8125 7.515625 
L 36.8125 0 
L 27.59375 0 
Q 17.1875 0 13.234375 3.875 
Q 9.28125 7.765625 9.28125 18.015625 
L 9.28125 47.703125 
L 2.6875 47.703125 
L 2.6875 54.6875 
L 9.28125 54.6875 
L 9.28125 70.21875 
z
" id="DejaVuSans-116"/>
     <path d="M 54.890625 33.015625 
L 54.890625 0 
L 45.90625 0 
L 45.90625 32.71875 
Q 45.90625 40.484375 42.875 44.328125 
Q 39.84375 48.1875 33.796875 48.1875 
Q 26.515625 48.1875 22.3125 43.546875 
Q 18.109375 38.921875 18.109375 30.90625 
L 18.109375 0 
L 9.078125 0 
L 9.078125 54.6875 
L 18.109375 54.6875 
L 18.109375 46.1875 
Q 21.34375 51.125 25.703125 53.5625 
Q 30.078125 56 35.796875 56 
Q 45.21875 56 50.046875 50.171875 
Q 54.890625 44.34375 54.890625 33.015625 
z
" id="DejaVuSans-110"/>
     <path d="M 11.71875 12.40625 
L 22.015625 12.40625 
L 22.015625 4 
L 14.015625 -11.625 
L 7.71875 -11.625 
L 11.71875 4 
z
" id="DejaVuSans-44"/>
     <path d="M 9.8125 72.90625 
L 24.515625 72.90625 
L 43.109375 23.296875 
L 61.8125 72.90625 
L 76.515625 72.90625 
L 76.515625 0 
L 66.890625 0 
L 66.890625 64.015625 
L 48.09375 14.015625 
L 38.1875 14.015625 
L 19.390625 64.015625 
L 19.390625 0 
L 9.8125 0 
z
" id="DejaVuSans-77"/>
     <path d="M 34.1875 63.1875 
L 20.796875 26.90625 
L 47.609375 26.90625 
z
M 28.609375 72.90625 
L 39.796875 72.90625 
L 67.578125 0 
L 57.328125 0 
L 50.6875 18.703125 
L 17.828125 18.703125 
L 11.1875 0 
L 0.78125 0 
z
" id="DejaVuSans-65"/>
     <path d="M 10.59375 45.40625 
L 73.1875 45.40625 
L 73.1875 37.203125 
L 10.59375 37.203125 
z
M 10.59375 25.484375 
L 73.1875 25.484375 
L 73.1875 17.1875 
L 10.59375 17.1875 
z
" id="DejaVuSans-61"/>
    </defs>
    <g transform="translate(179.58 20.16)scale(0.12 -0.12)">
     <use xlink:href="#DejaVuSans-103"/>
     <use x="63.476562" xlink:href="#DejaVuSans-114"/>
     <use x="104.589844" xlink:href="#DejaVuSans-105"/>
     <use x="132.373047" xlink:href="#DejaVuSans-100"/>
     <use x="195.849609" xlink:href="#DejaVuSans-119"/>
     <use x="277.636719" xlink:href="#DejaVuSans-111"/>
     <use x="338.818359" xlink:href="#DejaVuSans-114"/>
     <use x="379.931641" xlink:href="#DejaVuSans-108"/>
     <use x="407.714844" xlink:href="#DejaVuSans-100"/>
     <use x="471.191406" xlink:href="#DejaVuSans-95"/>
     <use x="521.191406" xlink:href="#DejaVuSans-53"/>
     <use x="584.814453" xlink:href="#DejaVuSans-120"/>
     <use x="643.994141" xlink:href="#DejaVuSans-53"/>
     <use x="707.617188" xlink:href="#DejaVuSans-95"/>
     <use x="757.617188" xlink:href="#DejaVuSans-53"/>
     <use x="821.240234" xlink:href="#DejaVuSans-48"/>
     <use x="884.863281" xlink:href="#DejaVuSans-95"/>
     <use x="934.863281" xlink:href="#DejaVuSans-52"/>
     <use x="998.486328" xlink:href="#DejaVuSans-95"/>
     <use x="1048.486328" xlink:href="#DejaVuSans-52"/>
     <use x="1112.109375" xlink:href="#DejaVuSans-95"/>
     <use x="1162.109375" xlink:href="#DejaVuSans-49"/>
     <use x="1225.732422" xlink:href="#DejaVuSans-51"/>
     <use x="1289.355469" xlink:href="#DejaVuSans-51"/>
     <use x="1352.978516" xlink:href="#DejaVuSans-55"/>
     <use x="1416.601562" xlink:href="#DejaVuSans-95"/>
     <use x="1466.601562" xlink:href="#DejaVuSans-95"/>
     <use x="1516.601562" xlink:href="#DejaVuSans-52"/>
     <use x="1580.224609" xlink:href="#DejaVuSans-45"/>
     <use x="1616.308594" xlink:href="#DejaVuSans-56"/>
     <use x="1679.931641" xlink:href="#DejaVuSans-58"/>
     <use x="1713.623047" xlink:href="#DejaVuSans-32"/>
     <use x="1745.410156" xlink:href="#DejaVuSans-101"/>
     <use x="1806.933594" xlink:href="#DejaVuSans-112"/>
     <use x="1870.410156" xlink:href="#DejaVuSans-105"/>
     <use x="1898.193359" xlink:href="#DejaVuSans-115"/>
     <use x="1950.292969" xlink:href="#DejaVuSans-111"/>
     <use x="2011.474609" xlink:href="#DejaVuSans-100"/>
     <use x="2074.951172" xlink:href="#DejaVuSans-101"/>
     <use x="2136.474609" xlink:href="#DejaVuSans-32"/>
     <use x="2168.261719" xlink:href="#DejaVuSans-100"/>
     <use x="2231.738281" xlink:href="#DejaVuSans-117"/>
     <use x="2295.117188" xlink:href="#DejaVuSans-114"/>
     <use x="2336.230469" xlink:href="#DejaVuSans-97"/>
     <use x="2397.509766" xlink:href="#DejaVuSans-116"/>
     <use x="2436.71875" xlink:href="#DejaVuSans-105"/>
     <use x="2464.501953" xlink:href="#DejaVuSans-111"/>
     <use x="2525.683594" xlink:href="#DejaVuSans-110"/>
     <use x="2589.0625" xlink:href="#DejaVuSans-44"/>
     <use x="2620.849609" xlink:href="#DejaVuSans-32"/>
     <use x="2652.636719" xlink:href="#DejaVuSans-115"/>
     <use x="2704.736328" xlink:href="#DejaVuSans-116"/>
     <use x="2743.945312" xlink:href="#DejaVuSans-101"/>
     <use x="2805.46875" xlink:href="#DejaVuSans-112"/>
     <use x="2868.945312" xlink:href="#DejaVuSans-115"/>
     <use x="2921.044922" xlink:href="#DejaVuSans-44"/>
     <use x="2952.832031" xlink:href="#DejaVuSans-32"/>
     <use x="2984.619141" xlink:href="#DejaVuSans-77"/>
     <use x="3070.898438" xlink:href="#DejaVuSans-65"/>
     <use x="3139.306641" xlink:href="#DejaVuSans-61"/>
     <use x="3223.095703" xlink:href="#DejaVuSans-52"/>
     <use x="3286.71875" xlink:href="#DejaVuSans-48"/>
    </g>
   </g>
   <g id="legend_1">
    <g id="patch_7">
     <path d="M 773.679125 246.5525 
L 854.751 246.5525 
Q 856.751 246.5525 856.751 244.5525 
L 856.751 185.7275 
Q 856.751 183.7275 854.751 183.7275 
L 773.679125 183.7275 
Q 771.679125 183.7275 771.679125 185.7275 
L 771.679125 244.5525 
Q 771.679125 246.5525 773.679125 246.5525 
z
" style="fill:#ffffff;opacity:0.8;stroke:#cccccc;stroke-linejoin:miter;"/>
    </g>
    <g id="line2d_22">
     <path d="M 775.679125 191.825937 
L 795.679125 191.825937 
" style="fill:none;stroke:#1f77b4;stroke-linecap:square;stroke-width:1.5;"/>
    </g>
    <g id="line2d_23"/>
    <g id="text_19">
     <!-- htm_4_1g -->
     <defs>
      <path d="M 54.890625 33.015625 
L 54.890625 0 
L 45.90625 0 
L 45.90625 32.71875 
Q 45.90625 40.484375 42.875 44.328125 
Q 39.84375 48.1875 33.796875 48.1875 
Q 26.515625 48.1875 22.3125 43.546875 
Q 18.109375 38.921875 18.109375 30.90625 
L 18.109375 0 
L 9.078125 0 
L 9.078125 75.984375 
L 18.109375 75.984375 
L 18.109375 46.1875 
Q 21.34375 51.125 25.703125 53.5625 
Q 30.078125 56 35.796875 56 
Q 45.21875 56 50.046875 50.171875 
Q 54.890625 44.34375 54.890625 33.015625 
z
" id="DejaVuSans-104"/>
      <path d="M 52 44.1875 
Q 55.375 50.25 60.0625 53.125 
Q 64.75 56 71.09375 56 
Q 79.640625 56 84.28125 50.015625 
Q 88.921875 44.046875 88.921875 33.015625 
L 88.921875 0 
L 79.890625 0 
L 79.890625 32.71875 
Q 79.890625 40.578125 77.09375 44.375 
Q 74.3125 48.1875 68.609375 48.1875 
Q 61.625 48.1875 57.5625 43.546875 
Q 53.515625 38.921875 53.515625 30.90625 
L 53.515625 0 
L 44.484375 0 
L 44.484375 32.71875 
Q 44.484375 40.625 41.703125 44.40625 
Q 38.921875 48.1875 33.109375 48.1875 
Q 26.21875 48.1875 22.15625 43.53125 
Q 18.109375 38.875 18.109375 30.90625 
L 18.109375 0 
L 9.078125 0 
L 9.078125 54.6875 
L 18.109375 54.6875 
L 18.109375 46.1875 
Q 21.1875 51.21875 25.484375 53.609375 
Q 29.78125 56 35.6875 56 
Q 41.65625 56 45.828125 52.96875 
Q 50 49.953125 52 44.1875 
z
" id="DejaVuSans-109"/>
     </defs>
     <g transform="translate(803.679125 195.325937)scale(0.1 -0.1)">
      <use xlink:href="#DejaVuSans-104"/>
      <use x="63.378906" xlink:href="#DejaVuSans-116"/>
      <use x="102.587891" xlink:href="#DejaVuSans-109"/>
      <use x="200" xlink:href="#DejaVuSans-95"/>
      <use x="250" xlink:href="#DejaVuSans-52"/>
      <use x="313.623047" xlink:href="#DejaVuSans-95"/>
      <use x="363.623047" xlink:href="#DejaVuSans-49"/>
      <use x="427.246094" xlink:href="#DejaVuSans-103"/>
     </g>
    </g>
    <g id="line2d_24">
     <path d="M 775.679125 206.782187 
L 795.679125 206.782187 
" style="fill:none;stroke:#ff7f0e;stroke-linecap:square;stroke-width:1.5;"/>
    </g>
    <g id="line2d_25"/>
    <g id="text_20">
     <!-- htm_4_4g -->
     <g transform="translate(803.679125 210.282187)scale(0.1 -0.1)">
      <use xlink:href="#DejaVuSans-104"/>
      <use x="63.378906" xlink:href="#DejaVuSans-116"/>
      <use x="102.587891" xlink:href="#DejaVuSans-109"/>
      <use x="200" xlink:href="#DejaVuSans-95"/>
      <use x="250" xlink:href="#DejaVuSans-52"/>
      <use x="313.623047" xlink:href="#DejaVuSans-95"/>
      <use x="363.623047" xlink:href="#DejaVuSans-52"/>
      <use x="427.246094" xlink:href="#DejaVuSans-103"/>
     </g>
    </g>
    <g id="line2d_26">
     <path d="M 775.679125 221.738437 
L 795.679125 221.738437 
" style="fill:none;stroke:#2ca02c;stroke-linecap:square;stroke-width:1.5;"/>
    </g>
    <g id="line2d_27"/>
    <g id="text_21">
     <!-- htm_4_8g -->
     <g transform="translate(803.679125 225.238437)scale(0.1 -0.1)">
      <use xlink:href="#DejaVuSans-104"/>
      <use x="63.378906" xlink:href="#DejaVuSans-116"/>
      <use x="102.587891" xlink:href="#DejaVuSans-109"/>
      <use x="200" xlink:href="#DejaVuSans-95"/>
      <use x="250" xlink:href="#DejaVuSans-52"/>
      <use x="313.623047" xlink:href="#DejaVuSans-95"/>
      <use x="363.623047" xlink:href="#DejaVuSans-56"/>
      <use x="427.246094" xlink:href="#DejaVuSans-103"/>
     </g>
    </g>
    <g id="line2d_28">
     <path d="M 775.679125 236.694687 
L 795.679125 236.694687 
" style="fill:none;stroke:#d62728;stroke-linecap:square;stroke-width:1.5;"/>
    </g>
    <g id="line2d_29"/>
    <g id="text_22">
     <!-- htm_8_1g -->
     <g transform="translate(803.679125 240.194687)scale(0.1 -0.1)">
      <use xlink:href="#DejaVuSans-104"/>
      <use x="63.378906" xlink:href="#DejaVuSans-116"/>
      <use x="102.587891" xlink:href="#DejaVuSans-109"/>
      <use x="200" xlink:href="#DejaVuSans-95"/>
      <use x="250" xlink:href="#DejaVuSans-56"/>
      <use x="313.623047" xlink:href="#DejaVuSans-95"/>
      <use x="363.623047" xlink:href="#DejaVuSans-49"/>
      <use x="427.246094" xlink:href="#DejaVuSans-103"/>
     </g>
    </g>
   </g>
  </g>
 </g>
 <defs>
  <clipPath id="pdbaa996442">
   <rect height="377.96" width="687.355" x="36.925" y="26.16"/>
  </clipPath>
 </defs>
</svg>
