<?xml version="1.0" encoding="utf-8" standalone="no"?>
<!DOCTYPE svg PUBLIC "-//W3C//DTD SVG 1.1//EN"
  "http://www.w3.org/Graphics/SVG/1.1/DTD/svg11.dtd">
<!-- Created with matplotlib (https://matplotlib.org/) -->
<svg height="432pt" version="1.1" viewBox="0 0 864 432" width="864pt" xmlns="http://www.w3.org/2000/svg" xmlns:xlink="http://www.w3.org/1999/xlink">
 <defs>
  <style type="text/css">
*{stroke-linecap:butt;stroke-linejoin:round;}
  </style>
 </defs>
 <g id="figure_1">
  <g id="patch_1">
   <path d="M 0 432 
L 864 432 
L 864 0 
L 0 0 
z
" style="fill:#ffffff;"/>
  </g>
  <g id="axes_1">
   <g id="patch_2">
    <path d="M 48.49 404.12 
L 724.28 404.12 
L 724.28 26.52 
L 48.49 26.52 
z
" style="fill:#ffffff;"/>
   </g>
   <g id="matplotlib.axis_1">
    <g id="xtick_1">
     <g id="line2d_1">
      <defs>
       <path d="M 0 0 
L 0 3.5 
" id="mdd559a0c8a" style="stroke:#000000;stroke-width:0.8;"/>
      </defs>
      <g>
       <use style="stroke:#000000;stroke-width:0.8;" x="48.49" xlink:href="#mdd559a0c8a" y="404.12"/>
      </g>
     </g>
     <g id="text_1">
      <!-- 0 -->
      <defs>
       <path d="M 31.78125 66.40625 
Q 24.171875 66.40625 20.328125 58.90625 
Q 16.5 51.421875 16.5 36.375 
Q 16.5 21.390625 20.328125 13.890625 
Q 24.171875 6.390625 31.78125 6.390625 
Q 39.453125 6.390625 43.28125 13.890625 
Q 47.125 21.390625 47.125 36.375 
Q 47.125 51.421875 43.28125 58.90625 
Q 39.453125 66.40625 31.78125 66.40625 
z
M 31.78125 74.21875 
Q 44.046875 74.21875 50.515625 64.515625 
Q 56.984375 54.828125 56.984375 36.375 
Q 56.984375 17.96875 50.515625 8.265625 
Q 44.046875 -1.421875 31.78125 -1.421875 
Q 19.53125 -1.421875 13.0625 8.265625 
Q 6.59375 17.96875 6.59375 36.375 
Q 6.59375 54.828125 13.0625 64.515625 
Q 19.53125 74.21875 31.78125 74.21875 
z
" id="DejaVuSans-48"/>
      </defs>
      <g transform="translate(45.30875 418.718437)scale(0.1 -0.1)">
       <use xlink:href="#DejaVuSans-48"/>
      </g>
     </g>
    </g>
    <g id="xtick_2">
     <g id="line2d_2">
      <g>
       <use style="stroke:#000000;stroke-width:0.8;" x="133.069474" xlink:href="#mdd559a0c8a" y="404.12"/>
      </g>
     </g>
     <g id="text_2">
      <!-- 100 -->
      <defs>
       <path d="M 12.40625 8.296875 
L 28.515625 8.296875 
L 28.515625 63.921875 
L 10.984375 60.40625 
L 10.984375 69.390625 
L 28.421875 72.90625 
L 38.28125 72.90625 
L 38.28125 8.296875 
L 54.390625 8.296875 
L 54.390625 0 
L 12.40625 0 
z
" id="DejaVuSans-49"/>
      </defs>
      <g transform="translate(123.525724 418.718437)scale(0.1 -0.1)">
       <use xlink:href="#DejaVuSans-49"/>
       <use x="63.623047" xlink:href="#DejaVuSans-48"/>
       <use x="127.246094" xlink:href="#DejaVuSans-48"/>
      </g>
     </g>
    </g>
    <g id="xtick_3">
     <g id="line2d_3">
      <g>
       <use style="stroke:#000000;stroke-width:0.8;" x="217.648949" xlink:href="#mdd559a0c8a" y="404.12"/>
      </g>
     </g>
     <g id="text_3">
      <!-- 200 -->
      <defs>
       <path d="M 19.1875 8.296875 
L 53.609375 8.296875 
L 53.609375 0 
L 7.328125 0 
L 7.328125 8.296875 
Q 12.9375 14.109375 22.625 23.890625 
Q 32.328125 33.6875 34.8125 36.53125 
Q 39.546875 41.84375 41.421875 45.53125 
Q 43.3125 49.21875 43.3125 52.78125 
Q 43.3125 58.59375 39.234375 62.25 
Q 35.15625 65.921875 28.609375 65.921875 
Q 23.96875 65.921875 18.8125 64.3125 
Q 13.671875 62.703125 7.8125 59.421875 
L 7.8125 69.390625 
Q 13.765625 71.78125 18.9375 73 
Q 24.125 74.21875 28.421875 74.21875 
Q 39.75 74.21875 46.484375 68.546875 
Q 53.21875 62.890625 53.21875 53.421875 
Q 53.21875 48.921875 51.53125 44.890625 
Q 49.859375 40.875 45.40625 35.40625 
Q 44.1875 33.984375 37.640625 27.21875 
Q 31.109375 20.453125 19.1875 8.296875 
z
" id="DejaVuSans-50"/>
      </defs>
      <g transform="translate(208.105199 418.718437)scale(0.1 -0.1)">
       <use xlink:href="#DejaVuSans-50"/>
       <use x="63.623047" xlink:href="#DejaVuSans-48"/>
       <use x="127.246094" xlink:href="#DejaVuSans-48"/>
      </g>
     </g>
    </g>
    <g id="xtick_4">
     <g id="line2d_4">
      <g>
       <use style="stroke:#000000;stroke-width:0.8;" x="302.228423" xlink:href="#mdd559a0c8a" y="404.12"/>
      </g>
     </g>
     <g id="text_4">
      <!-- 300 -->
      <defs>
       <path d="M 40.578125 39.3125 
Q 47.65625 37.796875 51.625 33 
Q 55.609375 28.21875 55.609375 21.1875 
Q 55.609375 10.40625 48.1875 4.484375 
Q 40.765625 -1.421875 27.09375 -1.421875 
Q 22.515625 -1.421875 17.65625 -0.515625 
Q 12.796875 0.390625 7.625 2.203125 
L 7.625 11.71875 
Q 11.71875 9.328125 16.59375 8.109375 
Q 21.484375 6.890625 26.8125 6.890625 
Q 36.078125 6.890625 40.9375 10.546875 
Q 45.796875 14.203125 45.796875 21.1875 
Q 45.796875 27.640625 41.28125 31.265625 
Q 36.765625 34.90625 28.71875 34.90625 
L 20.21875 34.90625 
L 20.21875 43.015625 
L 29.109375 43.015625 
Q 36.375 43.015625 40.234375 45.921875 
Q 44.09375 48.828125 44.09375 54.296875 
Q 44.09375 59.90625 40.109375 62.90625 
Q 36.140625 65.921875 28.71875 65.921875 
Q 24.65625 65.921875 20.015625 65.03125 
Q 15.375 64.15625 9.8125 62.3125 
L 9.8125 71.09375 
Q 15.4375 72.65625 20.34375 73.4375 
Q 25.25 74.21875 29.59375 74.21875 
Q 40.828125 74.21875 47.359375 69.109375 
Q 53.90625 64.015625 53.90625 55.328125 
Q 53.90625 49.265625 50.4375 45.09375 
Q 46.96875 40.921875 40.578125 39.3125 
z
" id="DejaVuSans-51"/>
      </defs>
      <g transform="translate(292.684673 418.718437)scale(0.1 -0.1)">
       <use xlink:href="#DejaVuSans-51"/>
       <use x="63.623047" xlink:href="#DejaVuSans-48"/>
       <use x="127.246094" xlink:href="#DejaVuSans-48"/>
      </g>
     </g>
    </g>
    <g id="xtick_5">
     <g id="line2d_5">
      <g>
       <use style="stroke:#000000;stroke-width:0.8;" x="386.807897" xlink:href="#mdd559a0c8a" y="404.12"/>
      </g>
     </g>
     <g id="text_5">
      <!-- 400 -->
      <defs>
       <path d="M 37.796875 64.3125 
L 12.890625 25.390625 
L 37.796875 25.390625 
z
M 35.203125 72.90625 
L 47.609375 72.90625 
L 47.609375 25.390625 
L 58.015625 25.390625 
L 58.015625 17.1875 
L 47.609375 17.1875 
L 47.609375 0 
L 37.796875 0 
L 37.796875 17.1875 
L 4.890625 17.1875 
L 4.890625 26.703125 
z
" id="DejaVuSans-52"/>
      </defs>
      <g transform="translate(377.264147 418.718437)scale(0.1 -0.1)">
       <use xlink:href="#DejaVuSans-52"/>
       <use x="63.623047" xlink:href="#DejaVuSans-48"/>
       <use x="127.246094" xlink:href="#DejaVuSans-48"/>
      </g>
     </g>
    </g>
    <g id="xtick_6">
     <g id="line2d_6">
      <g>
       <use style="stroke:#000000;stroke-width:0.8;" x="471.387372" xlink:href="#mdd559a0c8a" y="404.12"/>
      </g>
     </g>
     <g id="text_6">
      <!-- 500 -->
      <defs>
       <path d="M 10.796875 72.90625 
L 49.515625 72.90625 
L 49.515625 64.59375 
L 19.828125 64.59375 
L 19.828125 46.734375 
Q 21.96875 47.46875 24.109375 47.828125 
Q 26.265625 48.1875 28.421875 48.1875 
Q 40.625 48.1875 47.75 41.5 
Q 54.890625 34.8125 54.890625 23.390625 
Q 54.890625 11.625 47.5625 5.09375 
Q 40.234375 -1.421875 26.90625 -1.421875 
Q 22.3125 -1.421875 17.546875 -0.640625 
Q 12.796875 0.140625 7.71875 1.703125 
L 7.71875 11.625 
Q 12.109375 9.234375 16.796875 8.0625 
Q 21.484375 6.890625 26.703125 6.890625 
Q 35.15625 6.890625 40.078125 11.328125 
Q 45.015625 15.765625 45.015625 23.390625 
Q 45.015625 31 40.078125 35.4375 
Q 35.15625 39.890625 26.703125 39.890625 
Q 22.75 39.890625 18.8125 39.015625 
Q 14.890625 38.140625 10.796875 36.28125 
z
" id="DejaVuSans-53"/>
      </defs>
      <g transform="translate(461.843622 418.718437)scale(0.1 -0.1)">
       <use xlink:href="#DejaVuSans-53"/>
       <use x="63.623047" xlink:href="#DejaVuSans-48"/>
       <use x="127.246094" xlink:href="#DejaVuSans-48"/>
      </g>
     </g>
    </g>
    <g id="xtick_7">
     <g id="line2d_7">
      <g>
       <use style="stroke:#000000;stroke-width:0.8;" x="555.966846" xlink:href="#mdd559a0c8a" y="404.12"/>
      </g>
     </g>
     <g id="text_7">
      <!-- 600 -->
      <defs>
       <path d="M 33.015625 40.375 
Q 26.375 40.375 22.484375 35.828125 
Q 18.609375 31.296875 18.609375 23.390625 
Q 18.609375 15.53125 22.484375 10.953125 
Q 26.375 6.390625 33.015625 6.390625 
Q 39.65625 6.390625 43.53125 10.953125 
Q 47.40625 15.53125 47.40625 23.390625 
Q 47.40625 31.296875 43.53125 35.828125 
Q 39.65625 40.375 33.015625 40.375 
z
M 52.59375 71.296875 
L 52.59375 62.3125 
Q 48.875 64.0625 45.09375 64.984375 
Q 41.3125 65.921875 37.59375 65.921875 
Q 27.828125 65.921875 22.671875 59.328125 
Q 17.53125 52.734375 16.796875 39.40625 
Q 19.671875 43.65625 24.015625 45.921875 
Q 28.375 48.1875 33.59375 48.1875 
Q 44.578125 48.1875 50.953125 41.515625 
Q 57.328125 34.859375 57.328125 23.390625 
Q 57.328125 12.15625 50.6875 5.359375 
Q 44.046875 -1.421875 33.015625 -1.421875 
Q 20.359375 -1.421875 13.671875 8.265625 
Q 6.984375 17.96875 6.984375 36.375 
Q 6.984375 53.65625 15.1875 63.9375 
Q 23.390625 74.21875 37.203125 74.21875 
Q 40.921875 74.21875 44.703125 73.484375 
Q 48.484375 72.75 52.59375 71.296875 
z
" id="DejaVuSans-54"/>
      </defs>
      <g transform="translate(546.423096 418.718437)scale(0.1 -0.1)">
       <use xlink:href="#DejaVuSans-54"/>
       <use x="63.623047" xlink:href="#DejaVuSans-48"/>
       <use x="127.246094" xlink:href="#DejaVuSans-48"/>
      </g>
     </g>
    </g>
    <g id="xtick_8">
     <g id="line2d_8">
      <g>
       <use style="stroke:#000000;stroke-width:0.8;" x="640.54632" xlink:href="#mdd559a0c8a" y="404.12"/>
      </g>
     </g>
     <g id="text_8">
      <!-- 700 -->
      <defs>
       <path d="M 8.203125 72.90625 
L 55.078125 72.90625 
L 55.078125 68.703125 
L 28.609375 0 
L 18.3125 0 
L 43.21875 64.59375 
L 8.203125 64.59375 
z
" id="DejaVuSans-55"/>
      </defs>
      <g transform="translate(631.00257 418.718437)scale(0.1 -0.1)">
       <use xlink:href="#DejaVuSans-55"/>
       <use x="63.623047" xlink:href="#DejaVuSans-48"/>
       <use x="127.246094" xlink:href="#DejaVuSans-48"/>
      </g>
     </g>
    </g>
   </g>
   <g id="matplotlib.axis_2">
    <g id="ytick_1">
     <g id="line2d_9">
      <defs>
       <path d="M 0 0 
L -3.5 0 
" id="medfc0709c9" style="stroke:#000000;stroke-width:0.8;"/>
      </defs>
      <g>
       <use style="stroke:#000000;stroke-width:0.8;" x="48.49" xlink:href="#medfc0709c9" y="401.243682"/>
      </g>
     </g>
     <g id="text_9">
      <!-- −1.00 -->
      <defs>
       <path d="M 10.59375 35.5 
L 73.1875 35.5 
L 73.1875 27.203125 
L 10.59375 27.203125 
z
" id="DejaVuSans-8722"/>
       <path d="M 10.6875 12.40625 
L 21 12.40625 
L 21 0 
L 10.6875 0 
z
" id="DejaVuSans-46"/>
      </defs>
      <g transform="translate(10.844687 405.0429)scale(0.1 -0.1)">
       <use xlink:href="#DejaVuSans-8722"/>
       <use x="83.789062" xlink:href="#DejaVuSans-49"/>
       <use x="147.412109" xlink:href="#DejaVuSans-46"/>
       <use x="179.199219" xlink:href="#DejaVuSans-48"/>
       <use x="242.822266" xlink:href="#DejaVuSans-48"/>
      </g>
     </g>
    </g>
    <g id="ytick_2">
     <g id="line2d_10">
      <g>
       <use style="stroke:#000000;stroke-width:0.8;" x="48.49" xlink:href="#medfc0709c9" y="353.374628"/>
      </g>
     </g>
     <g id="text_10">
      <!-- −0.75 -->
      <g transform="translate(10.844687 357.173847)scale(0.1 -0.1)">
       <use xlink:href="#DejaVuSans-8722"/>
       <use x="83.789062" xlink:href="#DejaVuSans-48"/>
       <use x="147.412109" xlink:href="#DejaVuSans-46"/>
       <use x="179.199219" xlink:href="#DejaVuSans-55"/>
       <use x="242.822266" xlink:href="#DejaVuSans-53"/>
      </g>
     </g>
    </g>
    <g id="ytick_3">
     <g id="line2d_11">
      <g>
       <use style="stroke:#000000;stroke-width:0.8;" x="48.49" xlink:href="#medfc0709c9" y="305.505574"/>
      </g>
     </g>
     <g id="text_11">
      <!-- −0.50 -->
      <g transform="translate(10.844687 309.304793)scale(0.1 -0.1)">
       <use xlink:href="#DejaVuSans-8722"/>
       <use x="83.789062" xlink:href="#DejaVuSans-48"/>
       <use x="147.412109" xlink:href="#DejaVuSans-46"/>
       <use x="179.199219" xlink:href="#DejaVuSans-53"/>
       <use x="242.822266" xlink:href="#DejaVuSans-48"/>
      </g>
     </g>
    </g>
    <g id="ytick_4">
     <g id="line2d_12">
      <g>
       <use style="stroke:#000000;stroke-width:0.8;" x="48.49" xlink:href="#medfc0709c9" y="257.636521"/>
      </g>
     </g>
     <g id="text_12">
      <!-- −0.25 -->
      <g transform="translate(10.844687 261.43574)scale(0.1 -0.1)">
       <use xlink:href="#DejaVuSans-8722"/>
       <use x="83.789062" xlink:href="#DejaVuSans-48"/>
       <use x="147.412109" xlink:href="#DejaVuSans-46"/>
       <use x="179.199219" xlink:href="#DejaVuSans-50"/>
       <use x="242.822266" xlink:href="#DejaVuSans-53"/>
      </g>
     </g>
    </g>
    <g id="ytick_5">
     <g id="line2d_13">
      <g>
       <use style="stroke:#000000;stroke-width:0.8;" x="48.49" xlink:href="#medfc0709c9" y="209.767467"/>
      </g>
     </g>
     <g id="text_13">
      <!-- 0.00 -->
      <g transform="translate(19.224375 213.566686)scale(0.1 -0.1)">
       <use xlink:href="#DejaVuSans-48"/>
       <use x="63.623047" xlink:href="#DejaVuSans-46"/>
       <use x="95.410156" xlink:href="#DejaVuSans-48"/>
       <use x="159.033203" xlink:href="#DejaVuSans-48"/>
      </g>
     </g>
    </g>
    <g id="ytick_6">
     <g id="line2d_14">
      <g>
       <use style="stroke:#000000;stroke-width:0.8;" x="48.49" xlink:href="#medfc0709c9" y="161.898414"/>
      </g>
     </g>
     <g id="text_14">
      <!-- 0.25 -->
      <g transform="translate(19.224375 165.697633)scale(0.1 -0.1)">
       <use xlink:href="#DejaVuSans-48"/>
       <use x="63.623047" xlink:href="#DejaVuSans-46"/>
       <use x="95.410156" xlink:href="#DejaVuSans-50"/>
       <use x="159.033203" xlink:href="#DejaVuSans-53"/>
      </g>
     </g>
    </g>
    <g id="ytick_7">
     <g id="line2d_15">
      <g>
       <use style="stroke:#000000;stroke-width:0.8;" x="48.49" xlink:href="#medfc0709c9" y="114.02936"/>
      </g>
     </g>
     <g id="text_15">
      <!-- 0.50 -->
      <g transform="translate(19.224375 117.828579)scale(0.1 -0.1)">
       <use xlink:href="#DejaVuSans-48"/>
       <use x="63.623047" xlink:href="#DejaVuSans-46"/>
       <use x="95.410156" xlink:href="#DejaVuSans-53"/>
       <use x="159.033203" xlink:href="#DejaVuSans-48"/>
      </g>
     </g>
    </g>
    <g id="ytick_8">
     <g id="line2d_16">
      <g>
       <use style="stroke:#000000;stroke-width:0.8;" x="48.49" xlink:href="#medfc0709c9" y="66.160307"/>
      </g>
     </g>
     <g id="text_16">
      <!-- 0.75 -->
      <g transform="translate(19.224375 69.959525)scale(0.1 -0.1)">
       <use xlink:href="#DejaVuSans-48"/>
       <use x="63.623047" xlink:href="#DejaVuSans-46"/>
       <use x="95.410156" xlink:href="#DejaVuSans-55"/>
       <use x="159.033203" xlink:href="#DejaVuSans-53"/>
      </g>
     </g>
    </g>
   </g>
   <g id="line2d_17">
    <path clip-path="url(#p496b3efbb0)" d="M 81.475995 209.767467 
L 724.28 209.767467 
L 724.28 209.767467 
" style="fill:none;stroke:#1f77b4;stroke-linecap:square;stroke-width:1.5;"/>
   </g>
   <g id="line2d_18">
    <path clip-path="url(#p496b3efbb0)" d="M 81.475995 209.767467 
L 90.779737 209.767467 
L 91.625532 215.849051 
L 92.471327 212.531021 
L 94.162916 212.531021 
L 95.008711 221.612355 
L 95.854506 222.766775 
L 96.7003 217.507822 
L 97.546095 216.769917 
L 98.39189 204.370554 
L 99.237685 214.471944 
L 100.929274 214.471944 
L 101.775069 210.41601 
L 102.620864 210.41601 
L 103.466658 208.166147 
L 104.312453 216.469518 
L 105.158248 215.315098 
L 106.004043 217.8717 
L 106.849837 213.350652 
L 107.695632 210.032622 
L 108.541427 210.032622 
L 109.387222 206.876876 
L 110.233016 216.678987 
L 111.078811 224.383214 
L 111.924606 226.090584 
L 112.770401 223.046166 
L 113.616195 216.176552 
L 114.46199 216.176552 
L 115.307785 219.261028 
L 116.153579 219.261028 
L 116.999374 218.388272 
L 117.845169 210.684045 
L 118.690964 214.489299 
L 119.536758 206.047167 
L 120.382553 195.529261 
L 121.228348 190.270308 
L 122.074143 186.54751 
L 122.919937 182.161313 
L 123.765732 182.161313 
L 124.611527 182.617554 
L 125.457322 180.53901 
L 126.303116 184.273555 
L 127.148911 179.951613 
L 127.994706 184.880303 
L 128.840501 175.79897 
L 129.686295 172.48094 
L 130.53209 177.739893 
L 131.377885 177.100691 
L 132.22368 188.936238 
L 133.069474 177.719049 
L 134.761064 177.719049 
L 135.606859 181.774984 
L 136.452653 181.516169 
L 137.298448 179.192089 
L 138.144243 154.175505 
L 138.990038 144.63793 
L 139.835832 148.078185 
L 140.681627 150.15396 
L 141.527422 153.47199 
L 142.373217 156.012057 
L 143.219011 161.613077 
L 144.910601 141.161903 
L 145.756395 126.491354 
L 146.60219 125.630856 
L 147.447985 139.08842 
L 148.29378 136.274741 
L 149.139574 129.606227 
L 149.985369 125.90504 
L 150.831164 129.357922 
L 151.676959 131.533439 
L 152.522753 127.728185 
L 153.368548 144.513746 
L 154.214343 158.988884 
L 155.060138 159.04835 
L 155.905932 164.848849 
L 156.751727 169.235046 
L 158.443317 140.743421 
L 159.289111 136.740381 
L 160.134906 133.347903 
L 160.980701 126.191348 
L 161.826496 123.666124 
L 162.67229 122.024479 
L 163.518085 127.10698 
L 164.36388 138.921538 
L 165.209675 144.294743 
L 166.055469 145.177804 
L 166.901264 146.293603 
L 167.747059 144.170646 
L 168.592854 144.170646 
L 169.438648 143.93323 
L 170.284443 143.861783 
L 171.130238 152.821922 
L 171.976033 170.098952 
L 172.821827 181.663702 
L 173.667622 180.335895 
L 174.513417 177.852478 
L 175.359212 188.767159 
L 177.050801 183.781818 
L 177.896596 178.979106 
L 178.74239 181.923942 
L 179.588185 181.923942 
L 180.43398 183.037391 
L 182.125569 175.452722 
L 182.971364 187.049926 
L 183.817159 190.533489 
L 184.662954 190.398638 
L 185.508748 195.927347 
L 186.354543 197.130365 
L 187.200338 185.468906 
L 188.046133 182.472266 
L 188.891927 183.77278 
L 190.583517 174.99501 
L 191.429312 195.366225 
L 192.275106 208.289347 
L 193.120901 219.116193 
L 193.966696 213.931688 
L 194.812491 225.410186 
L 195.658285 228.770023 
L 196.50408 239.081603 
L 197.349875 236.162713 
L 198.19567 224.348154 
L 199.041464 225.901214 
L 199.887259 229.86059 
L 200.733054 229.86059 
L 201.578849 239.002763 
L 202.424643 234.160325 
L 203.270438 223.29636 
L 204.116233 233.500258 
L 204.962028 241.572891 
L 206.653617 234.13946 
L 207.499412 223.079887 
L 208.345207 228.008577 
L 209.191001 213.014438 
L 210.036796 209.696408 
L 210.882591 224.270249 
L 211.728385 235.709021 
L 212.57418 231.013884 
L 213.419975 243.977064 
L 214.26577 246.768531 
L 215.111564 240.870375 
L 215.957359 253.588019 
L 216.803154 255.072701 
L 217.648949 248.557557 
L 218.494743 231.267646 
L 220.186333 203.324977 
L 221.032128 190.59535 
L 222.723717 185.915758 
L 223.569512 190.106544 
L 224.415307 209.378808 
L 225.261101 204.119855 
L 226.106896 215.880016 
L 226.952691 212.176455 
L 227.798486 228.913905 
L 228.64428 227.536798 
L 229.490075 222.841662 
L 230.33587 212.464357 
L 232.027459 220.477524 
L 232.873254 232.14836 
L 233.719049 236.446721 
L 234.564844 244.150948 
L 235.410638 237.131731 
L 236.256433 242.846925 
L 237.102228 259.207259 
L 237.948023 244.07467 
L 238.793817 226.356888 
L 239.639612 239.320068 
L 240.485407 237.612699 
L 241.331202 236.968023 
L 242.176996 243.604083 
L 243.022791 247.68354 
L 243.868586 260.484437 
L 244.71438 240.651643 
L 245.560175 225.243189 
L 246.40597 235.935184 
L 247.251765 249.497508 
L 248.097559 247.939742 
L 248.943354 251.257772 
L 249.789149 244.930652 
L 250.634944 240.511096 
L 251.480738 256.558752 
L 252.326533 261.991794 
L 253.172328 280.718278 
L 254.018123 295.058565 
L 254.863917 317.103078 
L 255.709712 311.991426 
L 256.555507 320.025916 
L 257.401302 313.116244 
L 258.247096 300.449255 
L 259.092891 295.190302 
L 259.938686 292.806796 
L 260.784481 280.424559 
L 261.630275 286.716088 
L 262.47607 290.034118 
L 263.321865 295.985168 
L 264.16766 301.010567 
L 265.013454 297.053335 
L 265.859249 288.941466 
L 266.705044 259.631048 
L 267.550839 255.440262 
L 268.396633 249.676959 
L 269.242428 246.358929 
L 270.088223 231.602127 
L 270.934018 229.661203 
L 271.779812 243.49714 
L 272.625607 228.652502 
L 273.471402 218.092788 
L 274.317196 224.419909 
L 276.008786 244.256005 
L 277.700375 233.761622 
L 278.54617 247.597558 
L 279.391965 258.310875 
L 280.23776 264.20903 
L 281.083554 245.387753 
L 281.929349 246.945519 
L 283.620939 246.945519 
L 284.466733 244.312499 
L 285.312528 240.256565 
L 286.158323 249.668161 
L 287.004118 243.448616 
L 287.849912 245.89389 
L 288.695707 247.601259 
L 289.541502 265.49313 
L 290.387297 258.293254 
L 291.233091 268.247344 
L 292.078886 268.342137 
L 292.924681 277.037321 
L 293.770476 262.401713 
L 294.61627 261.897362 
L 295.462065 241.769897 
L 296.30786 252.287803 
L 297.153655 251.31776 
L 297.999449 247.99973 
L 298.845244 263.687112 
L 299.691039 271.870429 
L 300.536834 287.842699 
L 301.382628 283.456502 
L 302.228423 286.997219 
L 303.074218 274.267593 
L 303.920013 290.092562 
L 304.765807 299.233361 
L 305.611602 298.816846 
L 306.457397 332.621521 
L 307.303191 346.499265 
L 308.148986 346.946965 
L 308.994781 353.274085 
L 309.840576 339.600433 
L 310.68637 350.341026 
L 311.532165 350.667532 
L 312.37796 348.481073 
L 313.223755 331.695512 
L 314.915344 331.695512 
L 315.761139 336.269455 
L 316.606934 344.455453 
L 317.452728 339.1965 
L 318.298523 336.751226 
L 319.144318 318.762647 
L 319.990113 318.762647 
L 320.835907 300.492404 
L 321.681702 309.148511 
L 322.527497 297.058087 
L 323.373292 286.870443 
L 324.219086 292.129396 
L 325.064881 287.434259 
L 325.910676 272.494829 
L 326.756471 253.010941 
L 327.602265 239.54341 
L 328.44806 245.306714 
L 329.293855 255.408105 
L 330.985444 243.031811 
L 331.831239 241.090888 
L 332.677034 225.403506 
L 333.522829 224.594154 
L 334.368623 220.985919 
L 335.214418 224.625339 
L 336.060213 219.143699 
L 336.906008 241.4109 
L 337.751802 232.833917 
L 338.597597 215.116134 
L 339.443392 205.961717 
L 340.289186 203.282889 
L 341.134981 190.319709 
L 341.980776 193.190038 
L 342.826571 185.485811 
L 343.672365 191.27299 
L 344.51816 191.554654 
L 345.363955 174.251085 
L 346.20975 145.816048 
L 347.055544 169.975573 
L 347.901339 165.784787 
L 348.747134 179.347111 
L 349.592929 169.514215 
L 350.438723 169.9052 
L 351.284518 175.164153 
L 352.130313 171.846123 
L 352.976108 184.192593 
L 353.821902 184.86162 
L 354.667697 220.373664 
L 355.513492 209.272283 
L 356.359287 213.65848 
L 357.205081 226.426249 
L 358.050876 231.685202 
L 358.896671 235.003232 
L 360.58826 265.391175 
L 361.434055 284.117659 
L 362.27985 284.117659 
L 363.125645 279.041667 
L 363.971439 274.850881 
L 364.817234 286.542165 
L 365.663029 286.542165 
L 366.508824 287.919272 
L 367.354618 284.601242 
L 368.200413 296.696982 
L 369.046208 293.057563 
L 369.892003 302.090787 
L 370.737797 298.316516 
L 371.583592 310.211529 
L 372.429387 315.470482 
L 373.275181 326.982338 
L 374.120976 309.963223 
L 374.966771 289.859632 
L 375.812566 284.600679 
L 376.65836 282.659756 
L 377.504155 280.424161 
L 378.34995 274.660858 
L 379.195745 282.131531 
L 380.041539 311.375921 
L 381.733129 265.628122 
L 382.578924 259.770025 
L 383.424718 242.984464 
L 384.270513 240.404339 
L 385.116308 239.336172 
L 385.962103 245.972232 
L 386.807897 237.040501 
L 387.653692 245.790429 
L 388.499487 234.572761 
L 389.345282 235.949868 
L 390.191076 237.890791 
L 391.036871 212.453609 
L 391.882666 220.050261 
L 392.728461 213.414201 
L 393.574255 218.109338 
L 394.42005 215.295658 
L 395.265845 220.554611 
L 396.11164 220.554611 
L 396.957434 228.535713 
L 397.803229 222.782827 
L 399.494819 227.500177 
L 400.340613 227.254641 
L 401.186408 243.119335 
L 402.032203 241.831706 
L 402.877997 241.831706 
L 403.723792 232.798482 
L 404.569587 230.353208 
L 405.415382 230.952352 
L 406.261176 236.406716 
L 407.106971 228.103345 
L 407.952766 244.876924 
L 408.798561 266.921438 
L 409.644355 266.921438 
L 410.49015 262.535241 
L 411.335945 264.698851 
L 412.18174 283.61308 
L 413.027534 292.190063 
L 413.873329 285.737714 
L 415.564919 322.883636 
L 416.410713 334.184821 
L 417.256508 368.383162 
L 418.102303 374.19184 
L 418.948098 375.260007 
L 419.793892 375.764358 
L 420.639687 385.079245 
L 421.485482 372.96629 
L 422.331277 368.775504 
L 423.177071 366.096676 
L 424.022866 375.17801 
L 424.868661 380.622286 
L 425.714456 373.025634 
L 426.56025 376.343664 
L 427.406045 368.000235 
L 428.25184 369.064493 
L 429.097635 372.382523 
L 429.943429 386.956364 
L 430.789224 367.730318 
L 431.635019 363.381814 
L 432.480814 353.011209 
L 433.326608 353.944286 
L 434.172403 352.812716 
L 435.018198 336.948021 
L 435.863992 328.446424 
L 436.709787 323.872481 
L 437.555582 335.962905 
L 439.247171 324.10795 
L 440.092966 332.327238 
L 440.938761 318.634206 
L 441.784556 307.857485 
L 442.63035 305.916562 
L 443.476145 316.299617 
L 444.32194 320.685814 
L 445.167735 312.525346 
L 446.013529 310.720552 
L 446.859324 299.242055 
L 447.705119 298.494528 
L 448.550914 293.264675 
L 449.396708 293.297425 
L 450.242503 286.924931 
L 451.088298 279.423308 
L 451.934093 263.015588 
L 452.779887 272.191715 
L 453.625682 267.330267 
L 455.317272 280.542173 
L 456.163066 282.249543 
L 457.008861 283.251985 
L 457.854656 272.229728 
L 458.700451 280.831971 
L 459.546245 291.349878 
L 460.39204 297.985937 
L 461.237835 289.044244 
L 462.08363 297.429725 
L 463.775219 279.537855 
L 464.621014 293.961188 
L 465.466809 311.48886 
L 466.312603 307.714589 
L 467.158398 306.458676 
L 468.004193 307.419268 
L 468.849987 300.524393 
L 469.695782 290.240041 
L 470.541577 308.908735 
L 471.387372 295.251973 
L 472.233166 298.494617 
L 473.078961 298.494617 
L 473.924756 288.138995 
L 474.770551 299.617493 
L 475.616345 300.229419 
L 476.46214 285.432891 
L 477.307935 277.09597 
L 478.15373 283.610836 
L 479.845319 272.412269 
L 480.691114 283.671002 
L 481.536909 287.057909 
L 482.382703 273.955618 
L 483.228498 268.725512 
L 484.074293 261.351548 
L 484.920088 260.174335 
L 485.765882 272.005853 
L 486.611677 266.680183 
L 487.457472 269.329911 
L 488.303267 247.897323 
L 489.149061 232.68428 
L 489.994856 231.402694 
L 490.840651 240.052046 
L 491.686446 254.658341 
L 492.53224 255.114581 
L 493.378035 233.574418 
L 494.22383 219.738482 
L 495.069625 230.944069 
L 495.915419 216.82419 
L 496.761214 222.490786 
L 497.607009 217.231833 
L 498.452804 214.286997 
L 499.298598 217.197963 
L 500.144393 213.755591 
L 500.990188 222.971776 
L 501.835982 234.778953 
L 503.527572 249.378055 
L 504.373367 239.84048 
L 505.219161 233.581397 
L 506.064956 236.33561 
L 506.910751 237.00153 
L 507.756546 235.729634 
L 508.60234 229.597925 
L 509.448135 234.137377 
L 510.29393 250.268079 
L 511.139725 248.221945 
L 511.985519 243.648002 
L 512.831314 250.160923 
L 513.677109 233.670645 
L 514.522904 235.181264 
L 515.368698 228.476327 
L 516.214493 244.823564 
L 517.060288 243.293267 
L 518.751877 260.282953 
L 519.597672 254.994542 
L 520.443467 256.907389 
L 521.289262 255.296728 
L 522.980851 284.387735 
L 523.826646 283.607204 
L 525.518235 253.45096 
L 526.36403 264.016976 
L 527.209825 267.383116 
L 528.901414 281.591934 
L 529.747209 292.393783 
L 530.593004 287.190799 
L 532.284593 304.012127 
L 533.130388 276.981146 
L 533.976183 286.107698 
L 534.821977 279.141376 
L 535.667772 276.729229 
L 537.359362 276.729229 
L 538.205156 275.277297 
L 539.050951 283.102718 
L 539.896746 283.666534 
L 540.742541 283.994564 
L 541.588335 271.088456 
L 542.43413 267.575016 
L 543.279925 251.401381 
L 544.12572 250.067206 
L 544.971514 261.91769 
L 545.817309 265.570605 
L 546.663104 255.929437 
L 547.508899 265.419017 
L 548.354693 260.810133 
L 549.200488 261.387568 
L 550.046283 250.70564 
L 550.892078 244.869252 
L 551.737872 246.367621 
L 552.583667 233.560755 
L 553.429462 235.786133 
L 554.275257 226.704799 
L 555.121051 215.226301 
L 555.966846 212.781027 
L 556.812641 205.371335 
L 557.658436 192.258552 
L 558.50423 185.717285 
L 559.350025 168.058968 
L 560.19582 154.591437 
L 561.041615 162.985459 
L 561.887409 152.196756 
L 563.578999 119.085784 
L 564.424793 98.518583 
L 565.270588 75.218156 
L 566.116383 67.356967 
L 566.962178 81.041612 
L 567.807972 75.944318 
L 568.653767 78.953408 
L 569.499562 68.597785 
L 570.345357 70.921865 
L 571.191151 70.921865 
L 572.036946 75.016498 
L 572.882741 75.016498 
L 573.728536 76.48144 
L 574.57433 53.442976 
L 575.420125 64.30295 
L 576.26592 70.282681 
L 577.111715 81.304938 
L 578.803304 62.327662 
L 579.649099 56.733824 
L 580.494894 68.454749 
L 581.340688 57.55805 
L 582.186483 56.180943 
L 583.032278 51.798254 
L 583.878073 63.736095 
L 584.723867 77.955188 
L 585.569662 56.608853 
L 586.415457 55.097923 
L 587.261252 50.931623 
L 588.107046 43.683636 
L 588.952841 58.480164 
L 589.798636 64.981373 
L 590.644431 69.427783 
L 591.490225 89.531374 
L 592.33602 113.226606 
L 593.181815 133.42499 
L 594.02761 133.42499 
L 594.873404 115.901525 
L 595.719199 135.151858 
L 596.564994 148.75424 
L 598.256583 187.584315 
L 599.102378 207.687906 
L 599.948173 207.687906 
L 600.793967 188.652482 
L 601.639762 196.83799 
L 602.485557 181.624947 
L 603.331352 181.624947 
L 605.022941 156.617152 
L 605.868736 157.121502 
L 606.714531 144.722139 
L 607.560325 158.196627 
L 608.40612 181.669999 
L 609.251915 192.971183 
L 610.09771 178.978286 
L 610.943504 167.710492 
L 612.635094 185.486347 
L 613.480889 185.486347 
L 614.326683 168.639019 
L 615.172478 164.207448 
L 616.864068 178.349949 
L 617.709862 174.648762 
L 618.555657 176.465343 
L 619.401452 191.28472 
L 620.247247 193.963548 
L 621.093041 198.349745 
L 621.938836 206.974838 
L 622.784631 203.98707 
L 624.47622 180.605507 
L 625.322015 173.969447 
L 626.16781 168.710494 
L 627.013605 159.534367 
L 627.859399 146.449993 
L 628.705194 159.917524 
L 629.550989 151.455894 
L 630.396783 152.055038 
L 631.242578 133.328554 
L 632.088373 131.128816 
L 632.934168 103.320999 
L 633.779962 108.579952 
L 634.625757 132.930979 
L 635.471552 118.161727 
L 636.317347 115.031443 
L 638.008936 122.084018 
L 638.854731 127.881393 
L 639.700526 128.754149 
L 640.54632 126.579672 
L 641.392115 111.66331 
L 642.23791 117.938679 
L 643.083705 108.578418 
L 643.929499 133.436611 
L 644.775294 154.349554 
L 645.621089 166.244567 
L 646.466884 155.595504 
L 647.312678 157.919584 
L 648.158473 179.507857 
L 649.004268 190.29656 
L 649.850063 177.280486 
L 650.695857 184.299703 
L 651.541652 189.558656 
L 652.387447 185.417995 
L 653.233242 180.243768 
L 654.079036 180.243768 
L 654.924831 175.857571 
L 655.770626 188.955602 
L 656.616421 193.405203 
L 657.462215 213.384969 
L 658.30801 238.243162 
L 659.153805 243.502115 
L 659.999599 236.866055 
L 660.845394 245.443038 
L 661.691189 258.527412 
L 662.536984 256.586489 
L 663.382778 253.009644 
L 664.228573 247.151547 
L 665.074368 267.362713 
L 665.920163 272.37613 
L 666.765957 305.280617 
L 667.611752 304.008721 
L 668.457547 301.702208 
L 669.303342 312.958019 
L 670.149136 326.042393 
L 670.994931 324.171353 
L 671.840726 324.5328 
L 672.686521 339.67363 
L 673.532315 331.096647 
L 674.37811 338.470611 
L 675.223905 335.942803 
L 676.0697 324.920546 
L 676.915494 326.297653 
L 678.607084 311.393549 
L 679.452879 299.498536 
L 680.298673 307.871791 
L 681.144468 303.190272 
L 681.990263 300.181182 
L 682.836058 309.052837 
L 683.681852 316.426802 
L 684.527647 315.404443 
L 685.373442 310.14549 
L 686.219237 310.14549 
L 687.065031 320.698724 
L 687.910826 320.698724 
L 688.756621 321.337926 
L 689.602416 322.813735 
L 690.44821 318.033872 
L 691.294005 310.743674 
L 692.1398 298.284845 
L 692.985594 293.025892 
L 693.831389 294.966815 
L 694.677184 293.025892 
L 695.522979 295.22563 
L 696.368773 291.169695 
L 697.214568 299.706214 
L 698.060363 303.024244 
L 698.906158 304.536202 
L 699.751952 301.722523 
L 700.597747 283.488585 
L 701.443542 279.501528 
L 702.289337 274.881777 
L 703.135131 269.622824 
L 703.980926 269.622824 
L 704.826721 270.621108 
L 705.672516 274.229342 
L 706.51831 266.020764 
L 707.364105 271.279717 
L 708.2099 278.479593 
L 709.055695 280.420516 
L 709.901489 285.902156 
L 710.747284 289.016458 
L 711.593079 290.957381 
L 712.438874 294.275411 
L 713.284668 290.957381 
L 714.130463 283.961233 
L 714.976258 290.617033 
L 715.822053 294.498879 
L 717.513642 289.967613 
L 718.359437 287.288786 
L 719.205232 295.27194 
L 720.051026 288.63588 
L 720.896821 288.774641 
L 721.742616 288.774641 
L 722.588411 288.135439 
L 723.434205 275.502521 
L 724.28 273.252658 
L 724.28 273.252658 
" style="fill:none;stroke:#ff7f0e;stroke-linecap:square;stroke-width:1.5;"/>
   </g>
   <g id="patch_3">
    <path d="M 48.49 404.12 
L 48.49 26.52 
" style="fill:none;stroke:#000000;stroke-linecap:square;stroke-linejoin:miter;stroke-width:0.8;"/>
   </g>
   <g id="patch_4">
    <path d="M 724.28 404.12 
L 724.28 26.52 
" style="fill:none;stroke:#000000;stroke-linecap:square;stroke-linejoin:miter;stroke-width:0.8;"/>
   </g>
   <g id="patch_5">
    <path d="M 48.49 404.12 
L 724.28 404.12 
" style="fill:none;stroke:#000000;stroke-linecap:square;stroke-linejoin:miter;stroke-width:0.8;"/>
   </g>
   <g id="patch_6">
    <path d="M 48.49 26.52 
L 724.28 26.52 
" style="fill:none;stroke:#000000;stroke-linecap:square;stroke-linejoin:miter;stroke-width:0.8;"/>
   </g>
   <g id="text_17">
    <!-- gridworld_5x5_50_4_4_1337__1: episode duration in steps log-relative to `htm_1_1g`, MA=40 -->
    <defs>
     <path d="M 45.40625 27.984375 
Q 45.40625 37.75 41.375 43.109375 
Q 37.359375 48.484375 30.078125 48.484375 
Q 22.859375 48.484375 18.828125 43.109375 
Q 14.796875 37.75 14.796875 27.984375 
Q 14.796875 18.265625 18.828125 12.890625 
Q 22.859375 7.515625 30.078125 7.515625 
Q 37.359375 7.515625 41.375 12.890625 
Q 45.40625 18.265625 45.40625 27.984375 
z
M 54.390625 6.78125 
Q 54.390625 -7.171875 48.1875 -13.984375 
Q 42 -20.796875 29.203125 -20.796875 
Q 24.46875 -20.796875 20.265625 -20.09375 
Q 16.0625 -19.390625 12.109375 -17.921875 
L 12.109375 -9.1875 
Q 16.0625 -11.328125 19.921875 -12.34375 
Q 23.78125 -13.375 27.78125 -13.375 
Q 36.625 -13.375 41.015625 -8.765625 
Q 45.40625 -4.15625 45.40625 5.171875 
L 45.40625 9.625 
Q 42.625 4.78125 38.28125 2.390625 
Q 33.9375 0 27.875 0 
Q 17.828125 0 11.671875 7.65625 
Q 5.515625 15.328125 5.515625 27.984375 
Q 5.515625 40.671875 11.671875 48.328125 
Q 17.828125 56 27.875 56 
Q 33.9375 56 38.28125 53.609375 
Q 42.625 51.21875 45.40625 46.390625 
L 45.40625 54.6875 
L 54.390625 54.6875 
z
" id="DejaVuSans-103"/>
     <path d="M 41.109375 46.296875 
Q 39.59375 47.171875 37.8125 47.578125 
Q 36.03125 48 33.890625 48 
Q 26.265625 48 22.1875 43.046875 
Q 18.109375 38.09375 18.109375 28.8125 
L 18.109375 0 
L 9.078125 0 
L 9.078125 54.6875 
L 18.109375 54.6875 
L 18.109375 46.1875 
Q 20.953125 51.171875 25.484375 53.578125 
Q 30.03125 56 36.53125 56 
Q 37.453125 56 38.578125 55.875 
Q 39.703125 55.765625 41.0625 55.515625 
z
" id="DejaVuSans-114"/>
     <path d="M 9.421875 54.6875 
L 18.40625 54.6875 
L 18.40625 0 
L 9.421875 0 
z
M 9.421875 75.984375 
L 18.40625 75.984375 
L 18.40625 64.59375 
L 9.421875 64.59375 
z
" id="DejaVuSans-105"/>
     <path d="M 45.40625 46.390625 
L 45.40625 75.984375 
L 54.390625 75.984375 
L 54.390625 0 
L 45.40625 0 
L 45.40625 8.203125 
Q 42.578125 3.328125 38.25 0.953125 
Q 33.9375 -1.421875 27.875 -1.421875 
Q 17.96875 -1.421875 11.734375 6.484375 
Q 5.515625 14.40625 5.515625 27.296875 
Q 5.515625 40.1875 11.734375 48.09375 
Q 17.96875 56 27.875 56 
Q 33.9375 56 38.25 53.625 
Q 42.578125 51.265625 45.40625 46.390625 
z
M 14.796875 27.296875 
Q 14.796875 17.390625 18.875 11.75 
Q 22.953125 6.109375 30.078125 6.109375 
Q 37.203125 6.109375 41.296875 11.75 
Q 45.40625 17.390625 45.40625 27.296875 
Q 45.40625 37.203125 41.296875 42.84375 
Q 37.203125 48.484375 30.078125 48.484375 
Q 22.953125 48.484375 18.875 42.84375 
Q 14.796875 37.203125 14.796875 27.296875 
z
" id="DejaVuSans-100"/>
     <path d="M 4.203125 54.6875 
L 13.1875 54.6875 
L 24.421875 12.015625 
L 35.59375 54.6875 
L 46.1875 54.6875 
L 57.421875 12.015625 
L 68.609375 54.6875 
L 77.59375 54.6875 
L 63.28125 0 
L 52.6875 0 
L 40.921875 44.828125 
L 29.109375 0 
L 18.5 0 
z
" id="DejaVuSans-119"/>
     <path d="M 30.609375 48.390625 
Q 23.390625 48.390625 19.1875 42.75 
Q 14.984375 37.109375 14.984375 27.296875 
Q 14.984375 17.484375 19.15625 11.84375 
Q 23.34375 6.203125 30.609375 6.203125 
Q 37.796875 6.203125 41.984375 11.859375 
Q 46.1875 17.53125 46.1875 27.296875 
Q 46.1875 37.015625 41.984375 42.703125 
Q 37.796875 48.390625 30.609375 48.390625 
z
M 30.609375 56 
Q 42.328125 56 49.015625 48.375 
Q 55.71875 40.765625 55.71875 27.296875 
Q 55.71875 13.875 49.015625 6.21875 
Q 42.328125 -1.421875 30.609375 -1.421875 
Q 18.84375 -1.421875 12.171875 6.21875 
Q 5.515625 13.875 5.515625 27.296875 
Q 5.515625 40.765625 12.171875 48.375 
Q 18.84375 56 30.609375 56 
z
" id="DejaVuSans-111"/>
     <path d="M 9.421875 75.984375 
L 18.40625 75.984375 
L 18.40625 0 
L 9.421875 0 
z
" id="DejaVuSans-108"/>
     <path d="M 50.984375 -16.609375 
L 50.984375 -23.578125 
L -0.984375 -23.578125 
L -0.984375 -16.609375 
z
" id="DejaVuSans-95"/>
     <path d="M 54.890625 54.6875 
L 35.109375 28.078125 
L 55.90625 0 
L 45.3125 0 
L 29.390625 21.484375 
L 13.484375 0 
L 2.875 0 
L 24.125 28.609375 
L 4.6875 54.6875 
L 15.28125 54.6875 
L 29.78125 35.203125 
L 44.28125 54.6875 
z
" id="DejaVuSans-120"/>
     <path d="M 11.71875 12.40625 
L 22.015625 12.40625 
L 22.015625 0 
L 11.71875 0 
z
M 11.71875 51.703125 
L 22.015625 51.703125 
L 22.015625 39.3125 
L 11.71875 39.3125 
z
" id="DejaVuSans-58"/>
     <path id="DejaVuSans-32"/>
     <path d="M 56.203125 29.59375 
L 56.203125 25.203125 
L 14.890625 25.203125 
Q 15.484375 15.921875 20.484375 11.0625 
Q 25.484375 6.203125 34.421875 6.203125 
Q 39.59375 6.203125 44.453125 7.46875 
Q 49.3125 8.734375 54.109375 11.28125 
L 54.109375 2.78125 
Q 49.265625 0.734375 44.1875 -0.34375 
Q 39.109375 -1.421875 33.890625 -1.421875 
Q 20.796875 -1.421875 13.15625 6.1875 
Q 5.515625 13.8125 5.515625 26.8125 
Q 5.515625 40.234375 12.765625 48.109375 
Q 20.015625 56 32.328125 56 
Q 43.359375 56 49.78125 48.890625 
Q 56.203125 41.796875 56.203125 29.59375 
z
M 47.21875 32.234375 
Q 47.125 39.59375 43.09375 43.984375 
Q 39.0625 48.390625 32.421875 48.390625 
Q 24.90625 48.390625 20.390625 44.140625 
Q 15.875 39.890625 15.1875 32.171875 
z
" id="DejaVuSans-101"/>
     <path d="M 18.109375 8.203125 
L 18.109375 -20.796875 
L 9.078125 -20.796875 
L 9.078125 54.6875 
L 18.109375 54.6875 
L 18.109375 46.390625 
Q 20.953125 51.265625 25.265625 53.625 
Q 29.59375 56 35.59375 56 
Q 45.5625 56 51.78125 48.09375 
Q 58.015625 40.1875 58.015625 27.296875 
Q 58.015625 14.40625 51.78125 6.484375 
Q 45.5625 -1.421875 35.59375 -1.421875 
Q 29.59375 -1.421875 25.265625 0.953125 
Q 20.953125 3.328125 18.109375 8.203125 
z
M 48.6875 27.296875 
Q 48.6875 37.203125 44.609375 42.84375 
Q 40.53125 48.484375 33.40625 48.484375 
Q 26.265625 48.484375 22.1875 42.84375 
Q 18.109375 37.203125 18.109375 27.296875 
Q 18.109375 17.390625 22.1875 11.75 
Q 26.265625 6.109375 33.40625 6.109375 
Q 40.53125 6.109375 44.609375 11.75 
Q 48.6875 17.390625 48.6875 27.296875 
z
" id="DejaVuSans-112"/>
     <path d="M 44.28125 53.078125 
L 44.28125 44.578125 
Q 40.484375 46.53125 36.375 47.5 
Q 32.28125 48.484375 27.875 48.484375 
Q 21.1875 48.484375 17.84375 46.4375 
Q 14.5 44.390625 14.5 40.28125 
Q 14.5 37.15625 16.890625 35.375 
Q 19.28125 33.59375 26.515625 31.984375 
L 29.59375 31.296875 
Q 39.15625 29.25 43.1875 25.515625 
Q 47.21875 21.78125 47.21875 15.09375 
Q 47.21875 7.46875 41.1875 3.015625 
Q 35.15625 -1.421875 24.609375 -1.421875 
Q 20.21875 -1.421875 15.453125 -0.5625 
Q 10.6875 0.296875 5.421875 2 
L 5.421875 11.28125 
Q 10.40625 8.6875 15.234375 7.390625 
Q 20.0625 6.109375 24.8125 6.109375 
Q 31.15625 6.109375 34.5625 8.28125 
Q 37.984375 10.453125 37.984375 14.40625 
Q 37.984375 18.0625 35.515625 20.015625 
Q 33.0625 21.96875 24.703125 23.78125 
L 21.578125 24.515625 
Q 13.234375 26.265625 9.515625 29.90625 
Q 5.8125 33.546875 5.8125 39.890625 
Q 5.8125 47.609375 11.28125 51.796875 
Q 16.75 56 26.8125 56 
Q 31.78125 56 36.171875 55.265625 
Q 40.578125 54.546875 44.28125 53.078125 
z
" id="DejaVuSans-115"/>
     <path d="M 8.5 21.578125 
L 8.5 54.6875 
L 17.484375 54.6875 
L 17.484375 21.921875 
Q 17.484375 14.15625 20.5 10.265625 
Q 23.53125 6.390625 29.59375 6.390625 
Q 36.859375 6.390625 41.078125 11.03125 
Q 45.3125 15.671875 45.3125 23.6875 
L 45.3125 54.6875 
L 54.296875 54.6875 
L 54.296875 0 
L 45.3125 0 
L 45.3125 8.40625 
Q 42.046875 3.421875 37.71875 1 
Q 33.40625 -1.421875 27.6875 -1.421875 
Q 18.265625 -1.421875 13.375 4.4375 
Q 8.5 10.296875 8.5 21.578125 
z
M 31.109375 56 
z
" id="DejaVuSans-117"/>
     <path d="M 34.28125 27.484375 
Q 23.390625 27.484375 19.1875 25 
Q 14.984375 22.515625 14.984375 16.5 
Q 14.984375 11.71875 18.140625 8.90625 
Q 21.296875 6.109375 26.703125 6.109375 
Q 34.1875 6.109375 38.703125 11.40625 
Q 43.21875 16.703125 43.21875 25.484375 
L 43.21875 27.484375 
z
M 52.203125 31.203125 
L 52.203125 0 
L 43.21875 0 
L 43.21875 8.296875 
Q 40.140625 3.328125 35.546875 0.953125 
Q 30.953125 -1.421875 24.3125 -1.421875 
Q 15.921875 -1.421875 10.953125 3.296875 
Q 6 8.015625 6 15.921875 
Q 6 25.140625 12.171875 29.828125 
Q 18.359375 34.515625 30.609375 34.515625 
L 43.21875 34.515625 
L 43.21875 35.40625 
Q 43.21875 41.609375 39.140625 45 
Q 35.0625 48.390625 27.6875 48.390625 
Q 23 48.390625 18.546875 47.265625 
Q 14.109375 46.140625 10.015625 43.890625 
L 10.015625 52.203125 
Q 14.9375 54.109375 19.578125 55.046875 
Q 24.21875 56 28.609375 56 
Q 40.484375 56 46.34375 49.84375 
Q 52.203125 43.703125 52.203125 31.203125 
z
" id="DejaVuSans-97"/>
     <path d="M 18.3125 70.21875 
L 18.3125 54.6875 
L 36.8125 54.6875 
L 36.8125 47.703125 
L 18.3125 47.703125 
L 18.3125 18.015625 
Q 18.3125 11.328125 20.140625 9.421875 
Q 21.96875 7.515625 27.59375 7.515625 
L 36.8125 7.515625 
L 36.8125 0 
L 27.59375 0 
Q 17.1875 0 13.234375 3.875 
Q 9.28125 7.765625 9.28125 18.015625 
L 9.28125 47.703125 
L 2.6875 47.703125 
L 2.6875 54.6875 
L 9.28125 54.6875 
L 9.28125 70.21875 
z
" id="DejaVuSans-116"/>
     <path d="M 54.890625 33.015625 
L 54.890625 0 
L 45.90625 0 
L 45.90625 32.71875 
Q 45.90625 40.484375 42.875 44.328125 
Q 39.84375 48.1875 33.796875 48.1875 
Q 26.515625 48.1875 22.3125 43.546875 
Q 18.109375 38.921875 18.109375 30.90625 
L 18.109375 0 
L 9.078125 0 
L 9.078125 54.6875 
L 18.109375 54.6875 
L 18.109375 46.1875 
Q 21.34375 51.125 25.703125 53.5625 
Q 30.078125 56 35.796875 56 
Q 45.21875 56 50.046875 50.171875 
Q 54.890625 44.34375 54.890625 33.015625 
z
" id="DejaVuSans-110"/>
     <path d="M 4.890625 31.390625 
L 31.203125 31.390625 
L 31.203125 23.390625 
L 4.890625 23.390625 
z
" id="DejaVuSans-45"/>
     <path d="M 2.984375 54.6875 
L 12.5 54.6875 
L 29.59375 8.796875 
L 46.6875 54.6875 
L 56.203125 54.6875 
L 35.6875 0 
L 23.484375 0 
z
" id="DejaVuSans-118"/>
     <path d="M 17.921875 79.984375 
L 31.6875 61.71875 
L 24.21875 61.71875 
L 8.296875 79.984375 
z
" id="DejaVuSans-96"/>
     <path d="M 54.890625 33.015625 
L 54.890625 0 
L 45.90625 0 
L 45.90625 32.71875 
Q 45.90625 40.484375 42.875 44.328125 
Q 39.84375 48.1875 33.796875 48.1875 
Q 26.515625 48.1875 22.3125 43.546875 
Q 18.109375 38.921875 18.109375 30.90625 
L 18.109375 0 
L 9.078125 0 
L 9.078125 75.984375 
L 18.109375 75.984375 
L 18.109375 46.1875 
Q 21.34375 51.125 25.703125 53.5625 
Q 30.078125 56 35.796875 56 
Q 45.21875 56 50.046875 50.171875 
Q 54.890625 44.34375 54.890625 33.015625 
z
" id="DejaVuSans-104"/>
     <path d="M 52 44.1875 
Q 55.375 50.25 60.0625 53.125 
Q 64.75 56 71.09375 56 
Q 79.640625 56 84.28125 50.015625 
Q 88.921875 44.046875 88.921875 33.015625 
L 88.921875 0 
L 79.890625 0 
L 79.890625 32.71875 
Q 79.890625 40.578125 77.09375 44.375 
Q 74.3125 48.1875 68.609375 48.1875 
Q 61.625 48.1875 57.5625 43.546875 
Q 53.515625 38.921875 53.515625 30.90625 
L 53.515625 0 
L 44.484375 0 
L 44.484375 32.71875 
Q 44.484375 40.625 41.703125 44.40625 
Q 38.921875 48.1875 33.109375 48.1875 
Q 26.21875 48.1875 22.15625 43.53125 
Q 18.109375 38.875 18.109375 30.90625 
L 18.109375 0 
L 9.078125 0 
L 9.078125 54.6875 
L 18.109375 54.6875 
L 18.109375 46.1875 
Q 21.1875 51.21875 25.484375 53.609375 
Q 29.78125 56 35.6875 56 
Q 41.65625 56 45.828125 52.96875 
Q 50 49.953125 52 44.1875 
z
" id="DejaVuSans-109"/>
     <path d="M 11.71875 12.40625 
L 22.015625 12.40625 
L 22.015625 4 
L 14.015625 -11.625 
L 7.71875 -11.625 
L 11.71875 4 
z
" id="DejaVuSans-44"/>
     <path d="M 9.8125 72.90625 
L 24.515625 72.90625 
L 43.109375 23.296875 
L 61.8125 72.90625 
L 76.515625 72.90625 
L 76.515625 0 
L 66.890625 0 
L 66.890625 64.015625 
L 48.09375 14.015625 
L 38.1875 14.015625 
L 19.390625 64.015625 
L 19.390625 0 
L 9.8125 0 
z
" id="DejaVuSans-77"/>
     <path d="M 34.1875 63.1875 
L 20.796875 26.90625 
L 47.609375 26.90625 
z
M 28.609375 72.90625 
L 39.796875 72.90625 
L 67.578125 0 
L 57.328125 0 
L 50.6875 18.703125 
L 17.828125 18.703125 
L 11.1875 0 
L 0.78125 0 
z
" id="DejaVuSans-65"/>
     <path d="M 10.59375 45.40625 
L 73.1875 45.40625 
L 73.1875 37.203125 
L 10.59375 37.203125 
z
M 10.59375 25.484375 
L 73.1875 25.484375 
L 73.1875 17.1875 
L 10.59375 17.1875 
z
" id="DejaVuSans-61"/>
    </defs>
    <g transform="translate(104.61375 20.52)scale(0.12 -0.12)">
     <use xlink:href="#DejaVuSans-103"/>
     <use x="63.476562" xlink:href="#DejaVuSans-114"/>
     <use x="104.589844" xlink:href="#DejaVuSans-105"/>
     <use x="132.373047" xlink:href="#DejaVuSans-100"/>
     <use x="195.849609" xlink:href="#DejaVuSans-119"/>
     <use x="277.636719" xlink:href="#DejaVuSans-111"/>
     <use x="338.818359" xlink:href="#DejaVuSans-114"/>
     <use x="379.931641" xlink:href="#DejaVuSans-108"/>
     <use x="407.714844" xlink:href="#DejaVuSans-100"/>
     <use x="471.191406" xlink:href="#DejaVuSans-95"/>
     <use x="521.191406" xlink:href="#DejaVuSans-53"/>
     <use x="584.814453" xlink:href="#DejaVuSans-120"/>
     <use x="643.994141" xlink:href="#DejaVuSans-53"/>
     <use x="707.617188" xlink:href="#DejaVuSans-95"/>
     <use x="757.617188" xlink:href="#DejaVuSans-53"/>
     <use x="821.240234" xlink:href="#DejaVuSans-48"/>
     <use x="884.863281" xlink:href="#DejaVuSans-95"/>
     <use x="934.863281" xlink:href="#DejaVuSans-52"/>
     <use x="998.486328" xlink:href="#DejaVuSans-95"/>
     <use x="1048.486328" xlink:href="#DejaVuSans-52"/>
     <use x="1112.109375" xlink:href="#DejaVuSans-95"/>
     <use x="1162.109375" xlink:href="#DejaVuSans-49"/>
     <use x="1225.732422" xlink:href="#DejaVuSans-51"/>
     <use x="1289.355469" xlink:href="#DejaVuSans-51"/>
     <use x="1352.978516" xlink:href="#DejaVuSans-55"/>
     <use x="1416.601562" xlink:href="#DejaVuSans-95"/>
     <use x="1466.601562" xlink:href="#DejaVuSans-95"/>
     <use x="1516.601562" xlink:href="#DejaVuSans-49"/>
     <use x="1580.224609" xlink:href="#DejaVuSans-58"/>
     <use x="1613.916016" xlink:href="#DejaVuSans-32"/>
     <use x="1645.703125" xlink:href="#DejaVuSans-101"/>
     <use x="1707.226562" xlink:href="#DejaVuSans-112"/>
     <use x="1770.703125" xlink:href="#DejaVuSans-105"/>
     <use x="1798.486328" xlink:href="#DejaVuSans-115"/>
     <use x="1850.585938" xlink:href="#DejaVuSans-111"/>
     <use x="1911.767578" xlink:href="#DejaVuSans-100"/>
     <use x="1975.244141" xlink:href="#DejaVuSans-101"/>
     <use x="2036.767578" xlink:href="#DejaVuSans-32"/>
     <use x="2068.554688" xlink:href="#DejaVuSans-100"/>
     <use x="2132.03125" xlink:href="#DejaVuSans-117"/>
     <use x="2195.410156" xlink:href="#DejaVuSans-114"/>
     <use x="2236.523438" xlink:href="#DejaVuSans-97"/>
     <use x="2297.802734" xlink:href="#DejaVuSans-116"/>
     <use x="2337.011719" xlink:href="#DejaVuSans-105"/>
     <use x="2364.794922" xlink:href="#DejaVuSans-111"/>
     <use x="2425.976562" xlink:href="#DejaVuSans-110"/>
     <use x="2489.355469" xlink:href="#DejaVuSans-32"/>
     <use x="2521.142578" xlink:href="#DejaVuSans-105"/>
     <use x="2548.925781" xlink:href="#DejaVuSans-110"/>
     <use x="2612.304688" xlink:href="#DejaVuSans-32"/>
     <use x="2644.091797" xlink:href="#DejaVuSans-115"/>
     <use x="2696.191406" xlink:href="#DejaVuSans-116"/>
     <use x="2735.400391" xlink:href="#DejaVuSans-101"/>
     <use x="2796.923828" xlink:href="#DejaVuSans-112"/>
     <use x="2860.400391" xlink:href="#DejaVuSans-115"/>
     <use x="2912.5" xlink:href="#DejaVuSans-32"/>
     <use x="2944.287109" xlink:href="#DejaVuSans-108"/>
     <use x="2972.070312" xlink:href="#DejaVuSans-111"/>
     <use x="3033.251953" xlink:href="#DejaVuSans-103"/>
     <use x="3096.728516" xlink:href="#DejaVuSans-45"/>
     <use x="3132.8125" xlink:href="#DejaVuSans-114"/>
     <use x="3173.894531" xlink:href="#DejaVuSans-101"/>
     <use x="3235.417969" xlink:href="#DejaVuSans-108"/>
     <use x="3263.201172" xlink:href="#DejaVuSans-97"/>
     <use x="3324.480469" xlink:href="#DejaVuSans-116"/>
     <use x="3363.689453" xlink:href="#DejaVuSans-105"/>
     <use x="3391.472656" xlink:href="#DejaVuSans-118"/>
     <use x="3450.652344" xlink:href="#DejaVuSans-101"/>
     <use x="3512.175781" xlink:href="#DejaVuSans-32"/>
     <use x="3543.962891" xlink:href="#DejaVuSans-116"/>
     <use x="3583.171875" xlink:href="#DejaVuSans-111"/>
     <use x="3644.353516" xlink:href="#DejaVuSans-32"/>
     <use x="3676.140625" xlink:href="#DejaVuSans-96"/>
     <use x="3726.140625" xlink:href="#DejaVuSans-104"/>
     <use x="3789.519531" xlink:href="#DejaVuSans-116"/>
     <use x="3828.728516" xlink:href="#DejaVuSans-109"/>
     <use x="3926.140625" xlink:href="#DejaVuSans-95"/>
     <use x="3976.140625" xlink:href="#DejaVuSans-49"/>
     <use x="4039.763672" xlink:href="#DejaVuSans-95"/>
     <use x="4089.763672" xlink:href="#DejaVuSans-49"/>
     <use x="4153.386719" xlink:href="#DejaVuSans-103"/>
     <use x="4216.863281" xlink:href="#DejaVuSans-96"/>
     <use x="4266.863281" xlink:href="#DejaVuSans-44"/>
     <use x="4298.650391" xlink:href="#DejaVuSans-32"/>
     <use x="4330.4375" xlink:href="#DejaVuSans-77"/>
     <use x="4416.716797" xlink:href="#DejaVuSans-65"/>
     <use x="4485.125" xlink:href="#DejaVuSans-61"/>
     <use x="4568.914062" xlink:href="#DejaVuSans-52"/>
     <use x="4632.537109" xlink:href="#DejaVuSans-48"/>
    </g>
   </g>
   <g id="legend_1">
    <g id="patch_7">
     <path d="M 771.366125 231.77625 
L 852.438 231.77625 
Q 854.438 231.77625 854.438 229.77625 
L 854.438 200.86375 
Q 854.438 198.86375 852.438 198.86375 
L 771.366125 198.86375 
Q 769.366125 198.86375 769.366125 200.86375 
L 769.366125 229.77625 
Q 769.366125 231.77625 771.366125 231.77625 
z
" style="fill:#ffffff;opacity:0.8;stroke:#cccccc;stroke-linejoin:miter;"/>
    </g>
    <g id="line2d_19">
     <path d="M 773.366125 206.962187 
L 793.366125 206.962187 
" style="fill:none;stroke:#1f77b4;stroke-linecap:square;stroke-width:1.5;"/>
    </g>
    <g id="line2d_20"/>
    <g id="text_18">
     <!-- htm_1_1g -->
     <g transform="translate(801.366125 210.462187)scale(0.1 -0.1)">
      <use xlink:href="#DejaVuSans-104"/>
      <use x="63.378906" xlink:href="#DejaVuSans-116"/>
      <use x="102.587891" xlink:href="#DejaVuSans-109"/>
      <use x="200" xlink:href="#DejaVuSans-95"/>
      <use x="250" xlink:href="#DejaVuSans-49"/>
      <use x="313.623047" xlink:href="#DejaVuSans-95"/>
      <use x="363.623047" xlink:href="#DejaVuSans-49"/>
      <use x="427.246094" xlink:href="#DejaVuSans-103"/>
     </g>
    </g>
    <g id="line2d_21">
     <path d="M 773.366125 221.918437 
L 793.366125 221.918437 
" style="fill:none;stroke:#ff7f0e;stroke-linecap:square;stroke-width:1.5;"/>
    </g>
    <g id="line2d_22"/>
    <g id="text_19">
     <!-- htm_1_4g -->
     <g transform="translate(801.366125 225.418437)scale(0.1 -0.1)">
      <use xlink:href="#DejaVuSans-104"/>
      <use x="63.378906" xlink:href="#DejaVuSans-116"/>
      <use x="102.587891" xlink:href="#DejaVuSans-109"/>
      <use x="200" xlink:href="#DejaVuSans-95"/>
      <use x="250" xlink:href="#DejaVuSans-49"/>
      <use x="313.623047" xlink:href="#DejaVuSans-95"/>
      <use x="363.623047" xlink:href="#DejaVuSans-52"/>
      <use x="427.246094" xlink:href="#DejaVuSans-103"/>
     </g>
    </g>
   </g>
  </g>
 </g>
 <defs>
  <clipPath id="p496b3efbb0">
   <rect height="377.6" width="675.79" x="48.49" y="26.52"/>
  </clipPath>
 </defs>
</svg>
