<?xml version="1.0" encoding="utf-8" standalone="no"?>
<!DOCTYPE svg PUBLIC "-//W3C//DTD SVG 1.1//EN"
  "http://www.w3.org/Graphics/SVG/1.1/DTD/svg11.dtd">
<!-- Created with matplotlib (https://matplotlib.org/) -->
<svg height="432pt" version="1.1" viewBox="0 0 864 432" width="864pt" xmlns="http://www.w3.org/2000/svg" xmlns:xlink="http://www.w3.org/1999/xlink">
 <defs>
  <style type="text/css">
*{stroke-linecap:butt;stroke-linejoin:round;}
  </style>
 </defs>
 <g id="figure_1">
  <g id="patch_1">
   <path d="M 0 432 
L 864 432 
L 864 0 
L 0 0 
z
" style="fill:#ffffff;"/>
  </g>
  <g id="axes_1">
   <g id="patch_2">
    <path d="M 32.515 404.12 
L 724.28 404.12 
L 724.28 26.52 
L 32.515 26.52 
z
" style="fill:#ffffff;"/>
   </g>
   <g id="matplotlib.axis_1">
    <g id="xtick_1">
     <g id="line2d_1">
      <defs>
       <path d="M 0 0 
L 0 3.5 
" id="m4d3e7a31e2" style="stroke:#000000;stroke-width:0.8;"/>
      </defs>
      <g>
       <use style="stroke:#000000;stroke-width:0.8;" x="32.515" xlink:href="#m4d3e7a31e2" y="404.12"/>
      </g>
     </g>
     <g id="text_1">
      <!-- 0 -->
      <defs>
       <path d="M 31.78125 66.40625 
Q 24.171875 66.40625 20.328125 58.90625 
Q 16.5 51.421875 16.5 36.375 
Q 16.5 21.390625 20.328125 13.890625 
Q 24.171875 6.390625 31.78125 6.390625 
Q 39.453125 6.390625 43.28125 13.890625 
Q 47.125 21.390625 47.125 36.375 
Q 47.125 51.421875 43.28125 58.90625 
Q 39.453125 66.40625 31.78125 66.40625 
z
M 31.78125 74.21875 
Q 44.046875 74.21875 50.515625 64.515625 
Q 56.984375 54.828125 56.984375 36.375 
Q 56.984375 17.96875 50.515625 8.265625 
Q 44.046875 -1.421875 31.78125 -1.421875 
Q 19.53125 -1.421875 13.0625 8.265625 
Q 6.59375 17.96875 6.59375 36.375 
Q 6.59375 54.828125 13.0625 64.515625 
Q 19.53125 74.21875 31.78125 74.21875 
z
" id="DejaVuSans-48"/>
      </defs>
      <g transform="translate(29.33375 418.718437)scale(0.1 -0.1)">
       <use xlink:href="#DejaVuSans-48"/>
      </g>
     </g>
    </g>
    <g id="xtick_2">
     <g id="line2d_2">
      <g>
       <use style="stroke:#000000;stroke-width:0.8;" x="119.202343" xlink:href="#m4d3e7a31e2" y="404.12"/>
      </g>
     </g>
     <g id="text_2">
      <!-- 50 -->
      <defs>
       <path d="M 10.796875 72.90625 
L 49.515625 72.90625 
L 49.515625 64.59375 
L 19.828125 64.59375 
L 19.828125 46.734375 
Q 21.96875 47.46875 24.109375 47.828125 
Q 26.265625 48.1875 28.421875 48.1875 
Q 40.625 48.1875 47.75 41.5 
Q 54.890625 34.8125 54.890625 23.390625 
Q 54.890625 11.625 47.5625 5.09375 
Q 40.234375 -1.421875 26.90625 -1.421875 
Q 22.3125 -1.421875 17.546875 -0.640625 
Q 12.796875 0.140625 7.71875 1.703125 
L 7.71875 11.625 
Q 12.109375 9.234375 16.796875 8.0625 
Q 21.484375 6.890625 26.703125 6.890625 
Q 35.15625 6.890625 40.078125 11.328125 
Q 45.015625 15.765625 45.015625 23.390625 
Q 45.015625 31 40.078125 35.4375 
Q 35.15625 39.890625 26.703125 39.890625 
Q 22.75 39.890625 18.8125 39.015625 
Q 14.890625 38.140625 10.796875 36.28125 
z
" id="DejaVuSans-53"/>
      </defs>
      <g transform="translate(112.839843 418.718437)scale(0.1 -0.1)">
       <use xlink:href="#DejaVuSans-53"/>
       <use x="63.623047" xlink:href="#DejaVuSans-48"/>
      </g>
     </g>
    </g>
    <g id="xtick_3">
     <g id="line2d_3">
      <g>
       <use style="stroke:#000000;stroke-width:0.8;" x="205.889687" xlink:href="#m4d3e7a31e2" y="404.12"/>
      </g>
     </g>
     <g id="text_3">
      <!-- 100 -->
      <defs>
       <path d="M 12.40625 8.296875 
L 28.515625 8.296875 
L 28.515625 63.921875 
L 10.984375 60.40625 
L 10.984375 69.390625 
L 28.421875 72.90625 
L 38.28125 72.90625 
L 38.28125 8.296875 
L 54.390625 8.296875 
L 54.390625 0 
L 12.40625 0 
z
" id="DejaVuSans-49"/>
      </defs>
      <g transform="translate(196.345937 418.718437)scale(0.1 -0.1)">
       <use xlink:href="#DejaVuSans-49"/>
       <use x="63.623047" xlink:href="#DejaVuSans-48"/>
       <use x="127.246094" xlink:href="#DejaVuSans-48"/>
      </g>
     </g>
    </g>
    <g id="xtick_4">
     <g id="line2d_4">
      <g>
       <use style="stroke:#000000;stroke-width:0.8;" x="292.57703" xlink:href="#m4d3e7a31e2" y="404.12"/>
      </g>
     </g>
     <g id="text_4">
      <!-- 150 -->
      <g transform="translate(283.03328 418.718437)scale(0.1 -0.1)">
       <use xlink:href="#DejaVuSans-49"/>
       <use x="63.623047" xlink:href="#DejaVuSans-53"/>
       <use x="127.246094" xlink:href="#DejaVuSans-48"/>
      </g>
     </g>
    </g>
    <g id="xtick_5">
     <g id="line2d_5">
      <g>
       <use style="stroke:#000000;stroke-width:0.8;" x="379.264373" xlink:href="#m4d3e7a31e2" y="404.12"/>
      </g>
     </g>
     <g id="text_5">
      <!-- 200 -->
      <defs>
       <path d="M 19.1875 8.296875 
L 53.609375 8.296875 
L 53.609375 0 
L 7.328125 0 
L 7.328125 8.296875 
Q 12.9375 14.109375 22.625 23.890625 
Q 32.328125 33.6875 34.8125 36.53125 
Q 39.546875 41.84375 41.421875 45.53125 
Q 43.3125 49.21875 43.3125 52.78125 
Q 43.3125 58.59375 39.234375 62.25 
Q 35.15625 65.921875 28.609375 65.921875 
Q 23.96875 65.921875 18.8125 64.3125 
Q 13.671875 62.703125 7.8125 59.421875 
L 7.8125 69.390625 
Q 13.765625 71.78125 18.9375 73 
Q 24.125 74.21875 28.421875 74.21875 
Q 39.75 74.21875 46.484375 68.546875 
Q 53.21875 62.890625 53.21875 53.421875 
Q 53.21875 48.921875 51.53125 44.890625 
Q 49.859375 40.875 45.40625 35.40625 
Q 44.1875 33.984375 37.640625 27.21875 
Q 31.109375 20.453125 19.1875 8.296875 
z
" id="DejaVuSans-50"/>
      </defs>
      <g transform="translate(369.720623 418.718437)scale(0.1 -0.1)">
       <use xlink:href="#DejaVuSans-50"/>
       <use x="63.623047" xlink:href="#DejaVuSans-48"/>
       <use x="127.246094" xlink:href="#DejaVuSans-48"/>
      </g>
     </g>
    </g>
    <g id="xtick_6">
     <g id="line2d_6">
      <g>
       <use style="stroke:#000000;stroke-width:0.8;" x="465.951717" xlink:href="#m4d3e7a31e2" y="404.12"/>
      </g>
     </g>
     <g id="text_6">
      <!-- 250 -->
      <g transform="translate(456.407967 418.718437)scale(0.1 -0.1)">
       <use xlink:href="#DejaVuSans-50"/>
       <use x="63.623047" xlink:href="#DejaVuSans-53"/>
       <use x="127.246094" xlink:href="#DejaVuSans-48"/>
      </g>
     </g>
    </g>
    <g id="xtick_7">
     <g id="line2d_7">
      <g>
       <use style="stroke:#000000;stroke-width:0.8;" x="552.63906" xlink:href="#m4d3e7a31e2" y="404.12"/>
      </g>
     </g>
     <g id="text_7">
      <!-- 300 -->
      <defs>
       <path d="M 40.578125 39.3125 
Q 47.65625 37.796875 51.625 33 
Q 55.609375 28.21875 55.609375 21.1875 
Q 55.609375 10.40625 48.1875 4.484375 
Q 40.765625 -1.421875 27.09375 -1.421875 
Q 22.515625 -1.421875 17.65625 -0.515625 
Q 12.796875 0.390625 7.625 2.203125 
L 7.625 11.71875 
Q 11.71875 9.328125 16.59375 8.109375 
Q 21.484375 6.890625 26.8125 6.890625 
Q 36.078125 6.890625 40.9375 10.546875 
Q 45.796875 14.203125 45.796875 21.1875 
Q 45.796875 27.640625 41.28125 31.265625 
Q 36.765625 34.90625 28.71875 34.90625 
L 20.21875 34.90625 
L 20.21875 43.015625 
L 29.109375 43.015625 
Q 36.375 43.015625 40.234375 45.921875 
Q 44.09375 48.828125 44.09375 54.296875 
Q 44.09375 59.90625 40.109375 62.90625 
Q 36.140625 65.921875 28.71875 65.921875 
Q 24.65625 65.921875 20.015625 65.03125 
Q 15.375 64.15625 9.8125 62.3125 
L 9.8125 71.09375 
Q 15.4375 72.65625 20.34375 73.4375 
Q 25.25 74.21875 29.59375 74.21875 
Q 40.828125 74.21875 47.359375 69.109375 
Q 53.90625 64.015625 53.90625 55.328125 
Q 53.90625 49.265625 50.4375 45.09375 
Q 46.96875 40.921875 40.578125 39.3125 
z
" id="DejaVuSans-51"/>
      </defs>
      <g transform="translate(543.09531 418.718437)scale(0.1 -0.1)">
       <use xlink:href="#DejaVuSans-51"/>
       <use x="63.623047" xlink:href="#DejaVuSans-48"/>
       <use x="127.246094" xlink:href="#DejaVuSans-48"/>
      </g>
     </g>
    </g>
    <g id="xtick_8">
     <g id="line2d_8">
      <g>
       <use style="stroke:#000000;stroke-width:0.8;" x="639.326404" xlink:href="#m4d3e7a31e2" y="404.12"/>
      </g>
     </g>
     <g id="text_8">
      <!-- 350 -->
      <g transform="translate(629.782654 418.718437)scale(0.1 -0.1)">
       <use xlink:href="#DejaVuSans-51"/>
       <use x="63.623047" xlink:href="#DejaVuSans-53"/>
       <use x="127.246094" xlink:href="#DejaVuSans-48"/>
      </g>
     </g>
    </g>
   </g>
   <g id="matplotlib.axis_2">
    <g id="ytick_1">
     <g id="line2d_9">
      <defs>
       <path d="M 0 0 
L -3.5 0 
" id="m5e1c536ffb" style="stroke:#000000;stroke-width:0.8;"/>
      </defs>
      <g>
       <use style="stroke:#000000;stroke-width:0.8;" x="32.515" xlink:href="#m5e1c536ffb" y="397.934167"/>
      </g>
     </g>
     <g id="text_9">
      <!-- −1 -->
      <defs>
       <path d="M 10.59375 35.5 
L 73.1875 35.5 
L 73.1875 27.203125 
L 10.59375 27.203125 
z
" id="DejaVuSans-8722"/>
      </defs>
      <g transform="translate(10.772812 401.733386)scale(0.1 -0.1)">
       <use xlink:href="#DejaVuSans-8722"/>
       <use x="83.789062" xlink:href="#DejaVuSans-49"/>
      </g>
     </g>
    </g>
    <g id="ytick_2">
     <g id="line2d_10">
      <g>
       <use style="stroke:#000000;stroke-width:0.8;" x="32.515" xlink:href="#m5e1c536ffb" y="315.801917"/>
      </g>
     </g>
     <g id="text_10">
      <!-- 0 -->
      <g transform="translate(19.1525 319.601135)scale(0.1 -0.1)">
       <use xlink:href="#DejaVuSans-48"/>
      </g>
     </g>
    </g>
    <g id="ytick_3">
     <g id="line2d_11">
      <g>
       <use style="stroke:#000000;stroke-width:0.8;" x="32.515" xlink:href="#m5e1c536ffb" y="233.669666"/>
      </g>
     </g>
     <g id="text_11">
      <!-- 1 -->
      <g transform="translate(19.1525 237.468885)scale(0.1 -0.1)">
       <use xlink:href="#DejaVuSans-49"/>
      </g>
     </g>
    </g>
    <g id="ytick_4">
     <g id="line2d_12">
      <g>
       <use style="stroke:#000000;stroke-width:0.8;" x="32.515" xlink:href="#m5e1c536ffb" y="151.537415"/>
      </g>
     </g>
     <g id="text_12">
      <!-- 2 -->
      <g transform="translate(19.1525 155.336634)scale(0.1 -0.1)">
       <use xlink:href="#DejaVuSans-50"/>
      </g>
     </g>
    </g>
    <g id="ytick_5">
     <g id="line2d_13">
      <g>
       <use style="stroke:#000000;stroke-width:0.8;" x="32.515" xlink:href="#m5e1c536ffb" y="69.405165"/>
      </g>
     </g>
     <g id="text_13">
      <!-- 3 -->
      <g transform="translate(19.1525 73.204384)scale(0.1 -0.1)">
       <use xlink:href="#DejaVuSans-51"/>
      </g>
     </g>
    </g>
   </g>
   <g id="line2d_14">
    <path clip-path="url(#p1db26bc251)" d="M 100.131128 315.801917 
L 724.28 315.801917 
L 724.28 315.801917 
" style="fill:none;stroke:#1f77b4;stroke-linecap:square;stroke-width:1.5;"/>
   </g>
   <g id="line2d_15">
    <path clip-path="url(#p1db26bc251)" d="M 100.131128 226.604101 
L 101.864875 235.549758 
L 103.598622 227.833696 
L 105.332368 220.849996 
L 107.066115 218.96857 
L 108.799862 208.680201 
L 110.533609 200.273258 
L 114.001103 184.524614 
L 117.468596 165.612964 
L 119.202343 159.461808 
L 120.93609 159.461808 
L 122.669837 154.001533 
L 124.403584 146.801496 
L 129.604825 146.801496 
L 131.338571 136.513127 
L 134.806065 136.513127 
L 136.539812 145.968952 
L 138.273559 145.968952 
L 140.007306 156.257321 
L 141.741053 154.001533 
L 143.474799 155.050415 
L 145.208546 155.050415 
L 146.942293 155.366933 
L 148.67604 160.027518 
L 150.409787 163.870901 
L 152.143534 166.126689 
L 153.877281 170.309031 
L 155.611028 180.854398 
L 157.344774 189.719523 
L 159.078521 190.410404 
L 160.812268 195.97086 
L 162.546015 203.170898 
L 164.279762 210.886961 
L 166.013509 219.651905 
L 167.747256 229.940274 
L 169.481003 236.549612 
L 171.214749 230.015764 
L 172.948496 237.731827 
L 174.682243 244.648199 
L 176.41599 246.071442 
L 178.149737 256.359811 
L 179.883484 265.008599 
L 183.350977 280.757243 
L 185.084724 291.26195 
L 186.818471 300.717775 
L 188.552218 306.627086 
L 190.285965 306.627086 
L 192.019712 312.087361 
L 193.753459 315.841066 
L 195.487206 316.67361 
L 198.954699 317.780335 
L 200.688446 327.377823 
L 202.422193 322.275549 
L 204.15594 326.065596 
L 205.889687 313.109401 
L 207.623434 314.532645 
L 209.35718 301.988489 
L 211.090927 304.244276 
L 212.824674 304.618638 
L 214.558421 295.162813 
L 216.292168 295.537175 
L 218.025915 295.537175 
L 219.759662 303.779766 
L 221.493409 314.658835 
L 223.227155 310.476492 
L 224.960902 300.763669 
L 226.694649 289.052057 
L 228.428396 286.041218 
L 231.89589 286.041218 
L 233.629637 286.873762 
L 235.363383 287.564642 
L 237.09713 286.515761 
L 238.830877 287.939004 
L 240.564624 293.243257 
L 242.298371 303.531626 
L 244.032118 311.631535 
L 245.765865 312.089717 
L 247.499612 309.517411 
L 249.233358 300.410441 
L 250.967105 292.694378 
L 252.700852 283.829253 
L 254.434599 281.573465 
L 256.168346 269.861853 
L 257.902093 271.526941 
L 261.369586 270.245361 
L 263.103333 273.691694 
L 264.83708 264.452206 
L 268.304574 263.345481 
L 270.038321 261.189875 
L 271.772068 258.850267 
L 273.505815 244.771851 
L 275.239561 248.272221 
L 276.973308 252.035072 
L 280.440802 256.546647 
L 282.174549 244.835035 
L 283.908296 246.258278 
L 285.642043 245.567398 
L 287.375789 245.567398 
L 290.843283 242.640379 
L 292.57703 237.366896 
L 294.310777 242.763 
L 296.044524 251.760643 
L 297.778271 253.938938 
L 299.512018 253.938938 
L 301.245764 250.860848 
L 304.713258 233.588779 
L 306.447005 234.63766 
L 308.180752 226.921598 
L 309.914499 218.587274 
L 311.648246 199.43378 
L 313.381992 185.108379 
L 315.115739 173.396767 
L 316.849486 169.817917 
L 318.583233 171.895043 
L 320.31698 172.411069 
L 322.050727 175.257556 
L 323.784474 167.599336 
L 325.518221 169.02258 
L 327.251967 166.176093 
L 328.985714 164.853031 
L 330.719461 156.578605 
L 332.453208 154.697179 
L 334.186955 165.950609 
L 335.920702 165.950609 
L 337.654449 157.085484 
L 339.388195 159.931971 
L 341.121942 167.373853 
L 342.855689 176.61334 
L 344.589436 174.161852 
L 346.323183 162.740781 
L 348.05693 168.419446 
L 349.790677 168.319265 
L 351.524424 178.940207 
L 353.25817 193.526628 
L 354.991917 188.798715 
L 356.725664 191.300816 
L 358.459411 193.084113 
L 360.193158 196.172444 
L 361.926905 192.812405 
L 363.660652 194.400001 
L 365.394398 189.913933 
L 367.128145 190.636941 
L 368.861892 191.227641 
L 370.595639 194.305731 
L 372.329386 196.677675 
L 374.063133 198.368591 
L 375.79688 201.67326 
L 377.530627 209.389323 
L 379.264373 210.007584 
L 380.99812 229.161078 
L 382.731867 235.453897 
L 384.465614 247.16551 
L 386.199361 263.605034 
L 389.666855 287.594465 
L 391.400602 293.613104 
L 393.134348 294.071286 
L 394.868095 304.359655 
L 396.601842 303.901473 
L 398.335589 305.915416 
L 400.069336 314.780541 
L 401.803083 316.661967 
L 403.53683 313.81548 
L 405.270576 313.299454 
L 407.004323 323.313642 
L 410.471817 323.313642 
L 412.205564 316.920642 
L 413.939311 319.37213 
L 415.673058 326.619429 
L 417.406805 321.989646 
L 419.140551 322.680526 
L 420.874298 317.161859 
L 422.608045 304.942242 
L 424.341792 307.414367 
L 426.075539 308.216935 
L 427.809286 300.579352 
L 429.543033 295.751259 
L 431.276779 304.38478 
L 433.010526 299.140843 
L 434.744273 304.085092 
L 436.47802 307.873659 
L 438.211767 305.859716 
L 439.945514 304.556117 
L 441.679261 305.347178 
L 443.413008 309.490899 
L 445.146754 312.380921 
L 446.880501 312.380921 
L 448.614248 318.758655 
L 450.347995 308.470286 
L 453.815489 308.470286 
L 455.549236 295.33543 
L 457.282982 290.061948 
L 459.016729 285.334036 
L 460.750476 283.078248 
L 462.484223 291.485192 
L 464.21797 291.485192 
L 465.951717 287.431799 
L 467.685464 284.859493 
L 469.419211 283.194404 
L 472.886704 283.194404 
L 474.620451 283.71043 
L 476.354198 282.561367 
L 478.087945 282.935729 
L 479.821692 282.103185 
L 481.555439 289.545067 
L 483.289185 284.675491 
L 485.022932 276.463131 
L 486.756679 271.693736 
L 488.490426 262.828611 
L 490.224173 257.726336 
L 491.95792 253.103745 
L 493.691667 246.494407 
L 495.425414 234.782795 
L 497.15916 233.733913 
L 498.892907 229.322519 
L 500.626654 219.03415 
L 502.360401 218.423802 
L 504.094148 210.391221 
L 505.827895 200.818032 
L 507.561642 194.799394 
L 509.295388 188.070412 
L 511.029135 185.498106 
L 512.762882 182.051773 
L 514.496629 166.991957 
L 516.230376 157.536133 
L 517.964123 145.167322 
L 519.69787 148.013808 
L 521.431617 148.013808 
L 523.165363 149.632753 
L 526.632857 155.147066 
L 528.366604 155.737765 
L 530.100351 157.993553 
L 531.834098 158.584252 
L 533.567845 158.584252 
L 535.301591 165.10977 
L 537.035338 167.682076 
L 538.769085 169.937863 
L 540.502832 169.721526 
L 542.236579 170.312225 
L 543.970326 170.312225 
L 545.704073 170.902925 
L 547.43782 172.666987 
L 549.171566 171.243743 
L 550.905313 170.869381 
L 552.63906 172.059926 
L 554.372807 176.212293 
L 556.106554 174.267029 
L 557.840301 180.285667 
L 559.574048 193.146342 
L 561.307794 193.978886 
L 563.041541 198.183427 
L 564.775288 200.571732 
L 566.509035 200.88825 
L 569.976529 213.241263 
L 571.710276 212.989523 
L 573.444023 222.445348 
L 575.177769 228.339506 
L 576.911516 235.781387 
L 578.645263 253.269794 
L 580.37901 272.423288 
L 582.112757 280.323352 
L 583.846504 289.188477 
L 585.580251 310.355914 
L 587.313997 316.346991 
L 589.047744 319.218985 
L 590.781491 319.218985 
L 592.515238 316.55116 
L 594.248985 316.55116 
L 595.982732 313.05079 
L 597.716479 313.388154 
L 599.450226 313.978853 
L 601.183972 313.388154 
L 602.917719 313.388154 
L 604.651466 311.374211 
L 606.385213 308.902086 
L 608.11896 309.276448 
L 609.852707 311.157874 
L 611.586454 311.990418 
L 613.320201 311.990418 
L 615.053947 311.399718 
L 616.787694 312.394756 
L 618.521441 316.073787 
L 620.255188 316.448149 
L 621.988935 315.829888 
L 623.722682 313.317102 
L 625.456429 315.67821 
L 627.190175 315.67821 
L 628.923922 313.105904 
L 630.657669 322.561729 
L 632.391416 327.222314 
L 634.125163 332.78277 
L 635.85891 339.07559 
L 637.592657 339.07559 
L 639.326404 343.162101 
L 641.06015 348.788445 
L 642.793897 349.246627 
L 644.527644 346.137659 
L 646.261391 346.137659 
L 649.728885 315.254507 
L 651.462632 312.914899 
L 653.196378 317.590826 
L 654.930125 305.879214 
L 656.663872 306.711758 
L 658.397619 299.711697 
L 660.131366 299.711697 
L 661.865113 303.923584 
L 663.59886 306.453552 
L 665.332607 303.435858 
L 667.066353 299.203125 
L 668.8001 298.612425 
L 672.267594 298.612425 
L 674.001341 299.157995 
L 675.735088 300.838237 
L 677.468835 299.873176 
L 679.202581 301.512756 
L 680.936328 300.726356 
L 682.670075 301.100718 
L 684.403822 301.100718 
L 686.137569 297.509075 
L 687.871316 294.662588 
L 689.605063 294.662588 
L 691.33881 297.707297 
L 693.072556 298.914203 
L 694.806303 293.353747 
L 696.54005 283.897922 
L 698.273797 275.490978 
L 700.007544 270.304884 
L 701.741291 266.695463 
L 703.475038 266.188584 
L 705.208784 264.448822 
L 706.942531 264.448822 
L 710.410025 244.351767 
L 712.143772 239.307336 
L 713.877519 242.416304 
L 715.611266 240.993061 
L 717.345013 247.438046 
L 719.078759 248.452988 
L 720.812506 248.91117 
L 722.546253 241.662937 
L 724.28 239.781511 
L 724.28 239.781511 
" style="fill:none;stroke:#ff7f0e;stroke-linecap:square;stroke-width:1.5;"/>
   </g>
   <g id="line2d_16">
    <path clip-path="url(#p1db26bc251)" d="M 100.131128 226.604101 
L 101.864875 235.549758 
L 103.598622 227.833696 
L 105.332368 220.849996 
L 107.066115 218.96857 
L 108.799862 208.680201 
L 110.533609 200.273258 
L 114.001103 184.524614 
L 117.468596 165.612964 
L 119.202343 159.461808 
L 120.93609 159.461808 
L 122.669837 154.001533 
L 124.403584 146.801496 
L 129.604825 146.801496 
L 131.338571 136.513127 
L 134.806065 136.513127 
L 136.539812 145.968952 
L 138.273559 145.968952 
L 140.007306 156.257321 
L 141.741053 154.001533 
L 143.474799 155.050415 
L 145.208546 155.050415 
L 146.942293 155.366933 
L 148.67604 160.027518 
L 150.409787 163.870901 
L 152.143534 166.126689 
L 153.877281 170.309031 
L 155.611028 180.854398 
L 157.344774 189.719523 
L 159.078521 190.410404 
L 160.812268 195.97086 
L 162.546015 203.170898 
L 164.279762 210.886961 
L 166.013509 219.651905 
L 167.747256 229.940274 
L 169.481003 236.549612 
L 171.214749 230.015764 
L 172.948496 237.731827 
L 174.682243 244.648199 
L 176.41599 246.071442 
L 178.149737 256.359811 
L 179.883484 265.008599 
L 183.350977 280.757243 
L 186.818471 299.668893 
L 188.552218 306.09423 
L 190.285965 306.09423 
L 192.019712 302.68938 
L 193.753459 306.443085 
L 195.487206 299.243047 
L 197.220952 297.819804 
L 198.954699 297.603466 
L 200.688446 299.484892 
L 202.422193 294.382617 
L 204.15594 297.123784 
L 205.889687 287.667959 
L 207.623434 289.091202 
L 209.35718 278.802833 
L 211.090927 281.058621 
L 212.824674 279.177195 
L 214.558421 269.721371 
L 216.292168 270.553915 
L 218.025915 268.298127 
L 219.759662 276.540718 
L 221.493409 287.419786 
L 223.227155 283.237444 
L 224.960902 273.524621 
L 226.694649 261.813009 
L 231.89589 261.813009 
L 233.629637 262.645553 
L 235.363383 263.336433 
L 237.09713 260.325594 
L 238.830877 261.748838 
L 240.564624 271.04864 
L 242.298371 271.04864 
L 244.032118 279.981093 
L 245.765865 280.439275 
L 247.499612 270.150906 
L 249.233358 261.043936 
L 250.967105 253.327873 
L 252.700852 244.462748 
L 254.434599 244.462748 
L 256.168346 232.751136 
L 257.902093 229.717856 
L 259.63584 221.310913 
L 261.369586 220.720213 
L 263.103333 213.878177 
L 264.83708 212.671271 
L 266.570827 203.806145 
L 268.304574 193.734114 
L 270.038321 191.852688 
L 271.772068 189.513081 
L 273.505815 176.483546 
L 275.239561 176.483546 
L 276.973308 175.060302 
L 278.707055 175.060302 
L 280.440802 177.31609 
L 282.174549 178.148634 
L 283.908296 179.571877 
L 285.642043 178.422815 
L 287.375789 180.678602 
L 289.109536 180.171723 
L 290.843283 178.74848 
L 292.57703 173.474997 
L 294.310777 180.458697 
L 296.044524 189.914522 
L 297.778271 179.626153 
L 299.512018 180.084335 
L 301.245764 177.006244 
L 304.713258 159.734176 
L 306.447005 162.745015 
L 308.180752 155.028952 
L 309.914499 142.699079 
L 311.648246 133.833953 
L 313.381992 118.676009 
L 315.115739 106.964396 
L 316.849486 111.101609 
L 318.583233 113.178736 
L 320.31698 113.694761 
L 322.050727 116.541248 
L 323.784474 107.676123 
L 325.518221 109.099366 
L 327.251967 109.602678 
L 328.985714 118.009621 
L 330.719461 118.60032 
L 332.453208 118.60032 
L 334.186955 120.988625 
L 339.388195 152.444431 
L 341.121942 159.886313 
L 342.855689 160.718857 
L 344.589436 155.990945 
L 346.323183 147.958364 
L 348.05693 146.436991 
L 349.790677 138.620747 
L 351.524424 136.503884 
L 353.25817 141.63448 
L 354.991917 134.434443 
L 356.725664 133.888873 
L 358.459411 128.656635 
L 360.193158 121.456597 
L 361.926905 117.274255 
L 363.660652 106.985886 
L 365.394398 102.041636 
L 367.128145 109.42802 
L 368.861892 100.104713 
L 370.595639 92.894434 
L 372.329386 93.485134 
L 374.063133 92.436252 
L 375.79688 85.452552 
L 377.530627 82.880246 
L 379.264373 83.498507 
L 380.99812 92.363633 
L 382.731867 98.656452 
L 384.465614 110.368064 
L 386.199361 116.51922 
L 387.933108 123.307219 
L 389.666855 136.658412 
L 391.400602 139.830564 
L 393.134348 146.182903 
L 394.868095 153.166603 
L 396.601842 145.134022 
L 398.335589 135.678197 
L 400.069336 132.83171 
L 401.803083 140.031748 
L 403.53683 142.745717 
L 405.270576 144.485479 
L 407.004323 144.211298 
L 408.73807 140.906629 
L 410.471817 138.650842 
L 412.205564 147.648485 
L 413.939311 152.376397 
L 415.673058 159.206175 
L 417.406805 152.320604 
L 420.874298 145.946704 
L 422.608045 143.182912 
L 424.341792 140.927124 
L 426.075539 133.065751 
L 427.809286 131.446806 
L 429.543033 129.191019 
L 431.276779 129.781718 
L 434.744273 139.770399 
L 436.47802 134.639803 
L 438.211767 133.216559 
L 439.945514 142.201329 
L 441.679261 144.773635 
L 443.413008 145.364334 
L 445.146754 150.826662 
L 446.880501 161.115031 
L 448.614248 166.443883 
L 450.347995 156.155514 
L 452.081742 157.304577 
L 453.815489 157.304577 
L 455.549236 155.423152 
L 457.282982 156.472033 
L 459.016729 150.320877 
L 460.750476 153.167364 
L 462.484223 155.68015 
L 464.21797 158.984819 
L 467.685464 176.473225 
L 469.419211 187.035775 
L 471.152957 187.868319 
L 472.886704 179.461375 
L 474.620451 175.465826 
L 476.354198 172.89352 
L 478.087945 175.607489 
L 479.821692 168.998151 
L 481.555439 159.167965 
L 483.289185 154.298389 
L 485.022932 148.301155 
L 486.756679 152.987585 
L 488.490426 155.834072 
L 490.224173 150.731798 
L 491.95792 146.109206 
L 493.691667 146.699905 
L 495.425414 146.699905 
L 497.15916 145.651024 
L 498.892907 148.955693 
L 500.626654 147.532449 
L 502.360401 146.922101 
L 504.094148 138.88952 
L 505.827895 141.027943 
L 507.561642 143.87443 
L 509.295388 137.145448 
L 511.029135 134.573142 
L 512.762882 137.419629 
L 514.496629 130.075876 
L 516.230376 120.620051 
L 517.964123 111.98653 
L 519.69787 125.121386 
L 521.431617 123.972323 
L 524.89911 127.68903 
L 526.632857 129.307975 
L 528.366604 126.735669 
L 530.100351 126.735669 
L 531.834098 126.277487 
L 533.567845 126.277487 
L 535.301591 128.291429 
L 537.035338 129.123973 
L 538.769085 129.814854 
L 540.502832 132.586667 
L 542.236579 143.840097 
L 543.970326 146.095885 
L 545.704073 147.89349 
L 547.43782 150.031914 
L 549.171566 156.641252 
L 550.905313 165.964559 
L 552.63906 170.834135 
L 554.372807 174.986502 
L 556.106554 173.041238 
L 557.840301 179.059876 
L 559.574048 190.497308 
L 561.307794 191.329852 
L 563.041541 195.534392 
L 564.775288 197.922697 
L 566.509035 198.239216 
L 569.976529 210.592229 
L 571.710276 210.340489 
L 573.444023 219.205614 
L 575.177769 225.099772 
L 576.911516 232.541654 
L 580.37901 266.927767 
L 582.112757 273.404587 
L 583.846504 282.269713 
L 585.580251 301.181362 
L 587.313997 306.721388 
L 589.047744 310.642263 
L 590.781491 310.642263 
L 592.515238 308.806981 
L 594.248985 307.383738 
L 595.982732 305.306611 
L 597.716479 310.546743 
L 599.450226 313.39323 
L 601.183972 313.851412 
L 602.917719 313.851412 
L 604.651466 313.718895 
L 606.385213 313.718895 
L 608.11896 315.142138 
L 609.852707 316.291201 
L 611.586454 318.172627 
L 613.320201 318.172627 
L 615.053947 318.630809 
L 616.787694 320.674727 
L 618.521441 325.777002 
L 620.255188 326.742063 
L 621.988935 322.444771 
L 623.722682 325.296741 
L 625.456429 329.813455 
L 627.190175 320.94833 
L 628.923922 319.799267 
L 630.657669 329.255092 
L 632.391416 330.072294 
L 635.85891 342.383752 
L 637.592657 342.383752 
L 639.326404 343.623776 
L 641.06015 351.442724 
L 642.793897 352.491605 
L 644.527644 356.582675 
L 646.261391 356.582675 
L 647.995138 347.881901 
L 649.728885 335.155347 
L 651.462632 325.83204 
L 653.196378 321.642842 
L 654.930125 303.321892 
L 656.663872 293.886498 
L 658.397619 280.96798 
L 660.131366 270.679611 
L 665.332607 258.438789 
L 668.8001 234.603526 
L 670.533847 227.403489 
L 672.267594 227.403489 
L 674.001341 220.794151 
L 675.735088 214.899994 
L 677.468835 213.934932 
L 682.670075 190.511708 
L 684.403822 181.646582 
L 687.871316 157.478202 
L 689.605063 148.022377 
L 691.33881 159.474029 
L 693.072556 163.348761 
L 694.806303 163.07458 
L 696.54005 162.483881 
L 698.273797 154.076937 
L 700.007544 148.890843 
L 701.741291 144.327283 
L 703.475038 135.920339 
L 706.942531 135.920339 
L 708.676278 128.478457 
L 710.410025 116.477168 
L 712.143772 113.172499 
L 713.877519 100.216304 
L 715.611266 89.927935 
L 717.345013 89.172883 
L 720.812506 89.138944 
L 722.546253 93.328142 
L 724.28 91.904898 
L 724.28 91.904898 
" style="fill:none;stroke:#2ca02c;stroke-linecap:square;stroke-width:1.5;"/>
   </g>
   <g id="line2d_17">
    <path clip-path="url(#p1db26bc251)" d="M 100.131128 351.179521 
L 101.864875 354.966646 
L 103.598622 347.250583 
L 105.332368 337.886615 
L 107.066115 324.93042 
L 108.799862 325.52112 
L 110.533609 331.988794 
L 112.267356 322.849488 
L 114.001103 322.258788 
L 115.73485 311.184019 
L 117.468596 301.728194 
L 119.202343 303.851464 
L 120.93609 301.869858 
L 122.669837 302.24422 
L 124.403584 305.835863 
L 127.871078 318.258992 
L 129.604825 323.661424 
L 131.338571 323.661424 
L 133.072318 330.449423 
L 134.806065 332.70521 
L 136.539812 324.989148 
L 138.273559 319.528872 
L 140.007306 310.663747 
L 141.741053 294.082559 
L 145.208546 264.239137 
L 146.942293 258.262836 
L 148.67604 247.448958 
L 150.409787 243.850459 
L 152.143534 240.832764 
L 155.611028 228.158061 
L 157.344774 219.851298 
L 159.078521 209.104748 
L 160.812268 200.556141 
L 162.546015 189.060866 
L 164.279762 179.879222 
L 167.747256 164.621096 
L 169.481003 152.909484 
L 171.214749 147.291635 
L 172.948496 147.291635 
L 174.682243 149.547423 
L 176.41599 150.970666 
L 178.149737 139.259054 
L 179.883484 131.010135 
L 181.617231 128.437829 
L 183.350977 120.163403 
L 185.084724 121.212284 
L 186.818471 118.956497 
L 190.285965 98.970459 
L 192.019712 88.581909 
L 193.753459 83.470488 
L 195.487206 66.814626 
L 197.220952 60.66347 
L 198.954699 56.551764 
L 200.688446 53.810598 
L 202.422193 48.071481 
L 204.15594 48.698523 
L 205.889687 43.683636 
L 207.623434 45.10688 
L 209.35718 45.10688 
L 214.558421 76.346348 
L 216.292168 83.330048 
L 218.025915 92.195174 
L 219.759662 99.014521 
L 221.493409 109.89359 
L 223.227155 115.167072 
L 224.960902 121.698073 
L 226.694649 128.89811 
L 228.428396 137.763235 
L 230.162143 148.884148 
L 231.89589 159.172517 
L 233.629637 168.628342 
L 235.363383 177.035285 
L 238.830877 197.612023 
L 242.298371 220.603351 
L 244.032118 233.047326 
L 245.765865 248.357437 
L 247.499612 256.980718 
L 249.233358 264.180755 
L 250.967105 273.736761 
L 252.700852 280.936799 
L 254.434599 290.392623 
L 257.902093 307.664692 
L 259.63584 317.953061 
L 261.369586 325.769305 
L 263.103333 329.215637 
L 264.83708 336.041313 
L 266.570827 334.618069 
L 268.304574 330.380675 
L 270.038321 331.698598 
L 271.772068 329.817172 
L 273.505815 326.934343 
L 275.239561 336.481441 
L 276.973308 341.667535 
L 278.707055 350.53266 
L 280.440802 352.788448 
L 282.174549 351.365204 
L 283.908296 352.330266 
L 285.642043 353.062629 
L 289.109536 352.982097 
L 290.843283 351.558853 
L 292.57703 351.650126 
L 294.310777 350.796946 
L 297.778271 350.796946 
L 299.512018 350.422584 
L 301.245764 352.617976 
L 304.713258 351.336396 
L 306.447005 351.336396 
L 308.180752 352.485458 
L 309.914499 344.883497 
L 311.648246 340.894781 
L 313.381992 334.91848 
L 315.115739 328.473494 
L 316.849486 331.703489 
L 318.583233 333.780616 
L 320.31698 335.029004 
L 322.050727 339.082397 
L 323.784474 338.624215 
L 325.518221 341.928884 
L 327.251967 340.505641 
L 328.985714 340.505641 
L 330.719461 341.554522 
L 332.453208 340.131279 
L 334.186955 342.893945 
L 335.920702 344.317189 
L 337.654449 346.056951 
L 339.388195 347.480194 
L 341.121942 348.312738 
L 342.855689 348.828764 
L 344.589436 340.105302 
L 346.323183 332.905265 
L 348.05693 322.518767 
L 349.790677 322.144405 
L 351.524424 320.027541 
L 353.25817 326.207019 
L 354.991917 327.872107 
L 356.725664 333.477693 
L 358.459411 336.442389 
L 360.193158 336.958414 
L 361.926905 336.867141 
L 363.660652 337.083478 
L 365.394398 332.139229 
L 367.128145 334.7977 
L 368.861892 332.916275 
L 370.595639 328.148577 
L 374.063133 329.430157 
L 375.79688 332.734826 
L 377.530627 331.585763 
L 379.264373 329.731899 
L 380.99812 340.020268 
L 382.731867 347.736331 
L 384.465614 357.192155 
L 386.199361 367.338861 
L 387.933108 372.049733 
L 389.666855 376.26162 
L 391.400602 373.873315 
L 393.134348 372.07571 
L 394.868095 367.347797 
L 396.601842 365.09201 
L 398.335589 363.352248 
L 400.069336 360.047579 
L 401.803083 361.470822 
L 403.53683 355.777849 
L 405.270576 356.468729 
L 407.004323 357.992154 
L 410.471817 357.992154 
L 412.205564 362.578403 
L 413.939311 369.359142 
L 415.673058 376.779619 
L 417.406805 379.349873 
L 420.874298 381.187215 
L 422.608045 375.951298 
L 424.341792 371.275371 
L 426.075539 368.974454 
L 427.809286 365.715929 
L 429.543033 365.199903 
L 431.276779 366.623147 
L 433.010526 369.41179 
L 434.744273 374.35604 
L 436.47802 375.3766 
L 438.211767 376.799843 
L 439.945514 383.845343 
L 441.679261 386.417649 
L 443.413008 384.340523 
L 445.146754 386.956364 
L 446.880501 386.956364 
L 448.614248 386.073367 
L 450.347995 374.361755 
L 452.081742 366.645692 
L 453.815489 357.189867 
L 455.549236 343.59683 
L 457.282982 337.857712 
L 459.016729 333.1298 
L 460.750476 333.1298 
L 462.484223 334.336706 
L 464.21797 339.064618 
L 465.951717 338.232074 
L 467.685464 338.548593 
L 469.419211 343.276505 
L 471.152957 343.276505 
L 472.886704 343.734687 
L 476.354198 342.352926 
L 478.087945 343.776169 
L 479.821692 343.776169 
L 481.555439 338.357377 
L 483.289185 335.309706 
L 485.022932 329.312472 
L 486.756679 330.437235 
L 488.490426 327.864929 
L 490.224173 329.109511 
L 491.95792 327.791589 
L 493.691667 326.959045 
L 495.425414 322.963495 
L 497.15916 323.142156 
L 498.892907 320.753851 
L 500.626654 319.330608 
L 502.360401 318.503922 
L 504.094148 317.455041 
L 505.827895 318.170221 
L 507.561642 321.016708 
L 509.295388 314.955918 
L 511.029135 311.234549 
L 512.762882 315.0091 
L 514.496629 307.665347 
L 516.230376 305.409559 
L 517.964123 296.004187 
L 519.69787 288.562305 
L 521.431617 275.110931 
L 523.165363 276.191161 
L 524.89911 279.49583 
L 526.632857 283.370562 
L 528.366604 283.961261 
L 530.100351 283.961261 
L 531.834098 284.551961 
L 533.567845 284.551961 
L 535.301591 290.486779 
L 537.035338 291.910022 
L 538.769085 291.077478 
L 540.502832 291.910022 
L 542.236579 295.347209 
L 543.970326 295.347209 
L 545.704073 295.937908 
L 547.43782 297.027451 
L 549.171566 297.027451 
L 550.905313 298.392851 
L 552.63906 298.851033 
L 554.372807 297.634086 
L 556.106554 295.813303 
L 557.840301 295.539122 
L 559.574048 295.855641 
L 561.307794 292.550972 
L 563.041541 297.007252 
L 564.775288 298.663194 
L 566.509035 299.633596 
L 568.242782 302.021901 
L 569.976529 305.651452 
L 571.710276 306.132075 
L 573.444023 306.348412 
L 575.177769 310.361144 
L 576.911516 307.514657 
L 578.645263 316.30229 
L 580.37901 326.907178 
L 582.112757 327.091179 
L 583.846504 328.514422 
L 585.580251 340.226035 
L 587.313997 357.498103 
L 589.047744 372.08171 
L 590.781491 383.793322 
L 592.515238 381.66421 
L 594.248985 382.713092 
L 595.982732 378.380178 
L 597.716479 378.201517 
L 599.450226 379.898941 
L 601.183972 379.308242 
L 602.917719 379.308242 
L 604.651466 376.919937 
L 606.385213 375.871055 
L 608.11896 375.554537 
L 609.852707 375.554537 
L 611.586454 373.376242 
L 613.320201 367.330407 
L 615.053947 364.48392 
L 616.787694 364.730233 
L 618.521441 364.413715 
L 620.255188 365.620621 
L 621.988935 361.323329 
L 623.722682 356.147275 
L 628.923922 328.29182 
L 630.657669 322.140664 
L 632.391416 311.239397 
L 634.125163 301.40921 
L 635.85891 300.260148 
L 637.592657 300.260148 
L 639.326404 286.342228 
L 641.06015 279.657113 
L 642.793897 282.371083 
L 644.527644 270.855172 
L 646.261391 269.431928 
L 647.995138 261.681063 
L 649.728885 256.98709 
L 651.462632 254.647483 
L 653.196378 258.490866 
L 654.930125 248.202497 
L 656.663872 234.903289 
L 658.397619 228.699429 
L 660.131366 227.866885 
L 661.865113 232.594798 
L 663.59886 233.147821 
L 665.332607 237.113826 
L 667.066353 236.701787 
L 668.8001 233.58112 
L 670.533847 232.399721 
L 672.267594 232.399721 
L 674.001341 233.232265 
L 675.735088 234.679808 
L 677.468835 234.405627 
L 679.202581 236.877752 
L 680.936328 240.346773 
L 682.670075 247.225152 
L 684.403822 247.815852 
L 686.137569 244.598571 
L 687.871316 244.456907 
L 689.605063 244.456907 
L 691.33881 250.348103 
L 693.072556 257.847828 
L 694.806303 264.457166 
L 696.54005 273.322292 
L 698.273797 280.265331 
L 700.007544 290.82788 
L 703.475038 310.065195 
L 705.208784 309.016313 
L 706.942531 309.016313 
L 708.676278 317.048895 
L 710.410025 320.242547 
L 712.143772 317.770422 
L 713.877519 320.87939 
L 715.611266 322.302633 
L 717.345013 322.853462 
L 719.078759 315.835822 
L 720.812506 315.46146 
L 722.546253 310.194833 
L 724.28 311.027377 
L 724.28 311.027377 
" style="fill:none;stroke:#d62728;stroke-linecap:square;stroke-width:1.5;"/>
   </g>
   <g id="patch_3">
    <path d="M 32.515 404.12 
L 32.515 26.52 
" style="fill:none;stroke:#000000;stroke-linecap:square;stroke-linejoin:miter;stroke-width:0.8;"/>
   </g>
   <g id="patch_4">
    <path d="M 724.28 404.12 
L 724.28 26.52 
" style="fill:none;stroke:#000000;stroke-linecap:square;stroke-linejoin:miter;stroke-width:0.8;"/>
   </g>
   <g id="patch_5">
    <path d="M 32.515 404.12 
L 724.28 404.12 
" style="fill:none;stroke:#000000;stroke-linecap:square;stroke-linejoin:miter;stroke-width:0.8;"/>
   </g>
   <g id="patch_6">
    <path d="M 32.515 26.52 
L 724.28 26.52 
" style="fill:none;stroke:#000000;stroke-linecap:square;stroke-linejoin:miter;stroke-width:0.8;"/>
   </g>
   <g id="text_14">
    <!-- gridworld_5x5_20_1_20_1337__4-8: episode duration in steps log-relative to `htm_4_1g`, MA=40 -->
    <defs>
     <path d="M 45.40625 27.984375 
Q 45.40625 37.75 41.375 43.109375 
Q 37.359375 48.484375 30.078125 48.484375 
Q 22.859375 48.484375 18.828125 43.109375 
Q 14.796875 37.75 14.796875 27.984375 
Q 14.796875 18.265625 18.828125 12.890625 
Q 22.859375 7.515625 30.078125 7.515625 
Q 37.359375 7.515625 41.375 12.890625 
Q 45.40625 18.265625 45.40625 27.984375 
z
M 54.390625 6.78125 
Q 54.390625 -7.171875 48.1875 -13.984375 
Q 42 -20.796875 29.203125 -20.796875 
Q 24.46875 -20.796875 20.265625 -20.09375 
Q 16.0625 -19.390625 12.109375 -17.921875 
L 12.109375 -9.1875 
Q 16.0625 -11.328125 19.921875 -12.34375 
Q 23.78125 -13.375 27.78125 -13.375 
Q 36.625 -13.375 41.015625 -8.765625 
Q 45.40625 -4.15625 45.40625 5.171875 
L 45.40625 9.625 
Q 42.625 4.78125 38.28125 2.390625 
Q 33.9375 0 27.875 0 
Q 17.828125 0 11.671875 7.65625 
Q 5.515625 15.328125 5.515625 27.984375 
Q 5.515625 40.671875 11.671875 48.328125 
Q 17.828125 56 27.875 56 
Q 33.9375 56 38.28125 53.609375 
Q 42.625 51.21875 45.40625 46.390625 
L 45.40625 54.6875 
L 54.390625 54.6875 
z
" id="DejaVuSans-103"/>
     <path d="M 41.109375 46.296875 
Q 39.59375 47.171875 37.8125 47.578125 
Q 36.03125 48 33.890625 48 
Q 26.265625 48 22.1875 43.046875 
Q 18.109375 38.09375 18.109375 28.8125 
L 18.109375 0 
L 9.078125 0 
L 9.078125 54.6875 
L 18.109375 54.6875 
L 18.109375 46.1875 
Q 20.953125 51.171875 25.484375 53.578125 
Q 30.03125 56 36.53125 56 
Q 37.453125 56 38.578125 55.875 
Q 39.703125 55.765625 41.0625 55.515625 
z
" id="DejaVuSans-114"/>
     <path d="M 9.421875 54.6875 
L 18.40625 54.6875 
L 18.40625 0 
L 9.421875 0 
z
M 9.421875 75.984375 
L 18.40625 75.984375 
L 18.40625 64.59375 
L 9.421875 64.59375 
z
" id="DejaVuSans-105"/>
     <path d="M 45.40625 46.390625 
L 45.40625 75.984375 
L 54.390625 75.984375 
L 54.390625 0 
L 45.40625 0 
L 45.40625 8.203125 
Q 42.578125 3.328125 38.25 0.953125 
Q 33.9375 -1.421875 27.875 -1.421875 
Q 17.96875 -1.421875 11.734375 6.484375 
Q 5.515625 14.40625 5.515625 27.296875 
Q 5.515625 40.1875 11.734375 48.09375 
Q 17.96875 56 27.875 56 
Q 33.9375 56 38.25 53.625 
Q 42.578125 51.265625 45.40625 46.390625 
z
M 14.796875 27.296875 
Q 14.796875 17.390625 18.875 11.75 
Q 22.953125 6.109375 30.078125 6.109375 
Q 37.203125 6.109375 41.296875 11.75 
Q 45.40625 17.390625 45.40625 27.296875 
Q 45.40625 37.203125 41.296875 42.84375 
Q 37.203125 48.484375 30.078125 48.484375 
Q 22.953125 48.484375 18.875 42.84375 
Q 14.796875 37.203125 14.796875 27.296875 
z
" id="DejaVuSans-100"/>
     <path d="M 4.203125 54.6875 
L 13.1875 54.6875 
L 24.421875 12.015625 
L 35.59375 54.6875 
L 46.1875 54.6875 
L 57.421875 12.015625 
L 68.609375 54.6875 
L 77.59375 54.6875 
L 63.28125 0 
L 52.6875 0 
L 40.921875 44.828125 
L 29.109375 0 
L 18.5 0 
z
" id="DejaVuSans-119"/>
     <path d="M 30.609375 48.390625 
Q 23.390625 48.390625 19.1875 42.75 
Q 14.984375 37.109375 14.984375 27.296875 
Q 14.984375 17.484375 19.15625 11.84375 
Q 23.34375 6.203125 30.609375 6.203125 
Q 37.796875 6.203125 41.984375 11.859375 
Q 46.1875 17.53125 46.1875 27.296875 
Q 46.1875 37.015625 41.984375 42.703125 
Q 37.796875 48.390625 30.609375 48.390625 
z
M 30.609375 56 
Q 42.328125 56 49.015625 48.375 
Q 55.71875 40.765625 55.71875 27.296875 
Q 55.71875 13.875 49.015625 6.21875 
Q 42.328125 -1.421875 30.609375 -1.421875 
Q 18.84375 -1.421875 12.171875 6.21875 
Q 5.515625 13.875 5.515625 27.296875 
Q 5.515625 40.765625 12.171875 48.375 
Q 18.84375 56 30.609375 56 
z
" id="DejaVuSans-111"/>
     <path d="M 9.421875 75.984375 
L 18.40625 75.984375 
L 18.40625 0 
L 9.421875 0 
z
" id="DejaVuSans-108"/>
     <path d="M 50.984375 -16.609375 
L 50.984375 -23.578125 
L -0.984375 -23.578125 
L -0.984375 -16.609375 
z
" id="DejaVuSans-95"/>
     <path d="M 54.890625 54.6875 
L 35.109375 28.078125 
L 55.90625 0 
L 45.3125 0 
L 29.390625 21.484375 
L 13.484375 0 
L 2.875 0 
L 24.125 28.609375 
L 4.6875 54.6875 
L 15.28125 54.6875 
L 29.78125 35.203125 
L 44.28125 54.6875 
z
" id="DejaVuSans-120"/>
     <path d="M 8.203125 72.90625 
L 55.078125 72.90625 
L 55.078125 68.703125 
L 28.609375 0 
L 18.3125 0 
L 43.21875 64.59375 
L 8.203125 64.59375 
z
" id="DejaVuSans-55"/>
     <path d="M 37.796875 64.3125 
L 12.890625 25.390625 
L 37.796875 25.390625 
z
M 35.203125 72.90625 
L 47.609375 72.90625 
L 47.609375 25.390625 
L 58.015625 25.390625 
L 58.015625 17.1875 
L 47.609375 17.1875 
L 47.609375 0 
L 37.796875 0 
L 37.796875 17.1875 
L 4.890625 17.1875 
L 4.890625 26.703125 
z
" id="DejaVuSans-52"/>
     <path d="M 4.890625 31.390625 
L 31.203125 31.390625 
L 31.203125 23.390625 
L 4.890625 23.390625 
z
" id="DejaVuSans-45"/>
     <path d="M 31.78125 34.625 
Q 24.75 34.625 20.71875 30.859375 
Q 16.703125 27.09375 16.703125 20.515625 
Q 16.703125 13.921875 20.71875 10.15625 
Q 24.75 6.390625 31.78125 6.390625 
Q 38.8125 6.390625 42.859375 10.171875 
Q 46.921875 13.96875 46.921875 20.515625 
Q 46.921875 27.09375 42.890625 30.859375 
Q 38.875 34.625 31.78125 34.625 
z
M 21.921875 38.8125 
Q 15.578125 40.375 12.03125 44.71875 
Q 8.5 49.078125 8.5 55.328125 
Q 8.5 64.0625 14.71875 69.140625 
Q 20.953125 74.21875 31.78125 74.21875 
Q 42.671875 74.21875 48.875 69.140625 
Q 55.078125 64.0625 55.078125 55.328125 
Q 55.078125 49.078125 51.53125 44.71875 
Q 48 40.375 41.703125 38.8125 
Q 48.828125 37.15625 52.796875 32.3125 
Q 56.78125 27.484375 56.78125 20.515625 
Q 56.78125 9.90625 50.3125 4.234375 
Q 43.84375 -1.421875 31.78125 -1.421875 
Q 19.734375 -1.421875 13.25 4.234375 
Q 6.78125 9.90625 6.78125 20.515625 
Q 6.78125 27.484375 10.78125 32.3125 
Q 14.796875 37.15625 21.921875 38.8125 
z
M 18.3125 54.390625 
Q 18.3125 48.734375 21.84375 45.5625 
Q 25.390625 42.390625 31.78125 42.390625 
Q 38.140625 42.390625 41.71875 45.5625 
Q 45.3125 48.734375 45.3125 54.390625 
Q 45.3125 60.0625 41.71875 63.234375 
Q 38.140625 66.40625 31.78125 66.40625 
Q 25.390625 66.40625 21.84375 63.234375 
Q 18.3125 60.0625 18.3125 54.390625 
z
" id="DejaVuSans-56"/>
     <path d="M 11.71875 12.40625 
L 22.015625 12.40625 
L 22.015625 0 
L 11.71875 0 
z
M 11.71875 51.703125 
L 22.015625 51.703125 
L 22.015625 39.3125 
L 11.71875 39.3125 
z
" id="DejaVuSans-58"/>
     <path id="DejaVuSans-32"/>
     <path d="M 56.203125 29.59375 
L 56.203125 25.203125 
L 14.890625 25.203125 
Q 15.484375 15.921875 20.484375 11.0625 
Q 25.484375 6.203125 34.421875 6.203125 
Q 39.59375 6.203125 44.453125 7.46875 
Q 49.3125 8.734375 54.109375 11.28125 
L 54.109375 2.78125 
Q 49.265625 0.734375 44.1875 -0.34375 
Q 39.109375 -1.421875 33.890625 -1.421875 
Q 20.796875 -1.421875 13.15625 6.1875 
Q 5.515625 13.8125 5.515625 26.8125 
Q 5.515625 40.234375 12.765625 48.109375 
Q 20.015625 56 32.328125 56 
Q 43.359375 56 49.78125 48.890625 
Q 56.203125 41.796875 56.203125 29.59375 
z
M 47.21875 32.234375 
Q 47.125 39.59375 43.09375 43.984375 
Q 39.0625 48.390625 32.421875 48.390625 
Q 24.90625 48.390625 20.390625 44.140625 
Q 15.875 39.890625 15.1875 32.171875 
z
" id="DejaVuSans-101"/>
     <path d="M 18.109375 8.203125 
L 18.109375 -20.796875 
L 9.078125 -20.796875 
L 9.078125 54.6875 
L 18.109375 54.6875 
L 18.109375 46.390625 
Q 20.953125 51.265625 25.265625 53.625 
Q 29.59375 56 35.59375 56 
Q 45.5625 56 51.78125 48.09375 
Q 58.015625 40.1875 58.015625 27.296875 
Q 58.015625 14.40625 51.78125 6.484375 
Q 45.5625 -1.421875 35.59375 -1.421875 
Q 29.59375 -1.421875 25.265625 0.953125 
Q 20.953125 3.328125 18.109375 8.203125 
z
M 48.6875 27.296875 
Q 48.6875 37.203125 44.609375 42.84375 
Q 40.53125 48.484375 33.40625 48.484375 
Q 26.265625 48.484375 22.1875 42.84375 
Q 18.109375 37.203125 18.109375 27.296875 
Q 18.109375 17.390625 22.1875 11.75 
Q 26.265625 6.109375 33.40625 6.109375 
Q 40.53125 6.109375 44.609375 11.75 
Q 48.6875 17.390625 48.6875 27.296875 
z
" id="DejaVuSans-112"/>
     <path d="M 44.28125 53.078125 
L 44.28125 44.578125 
Q 40.484375 46.53125 36.375 47.5 
Q 32.28125 48.484375 27.875 48.484375 
Q 21.1875 48.484375 17.84375 46.4375 
Q 14.5 44.390625 14.5 40.28125 
Q 14.5 37.15625 16.890625 35.375 
Q 19.28125 33.59375 26.515625 31.984375 
L 29.59375 31.296875 
Q 39.15625 29.25 43.1875 25.515625 
Q 47.21875 21.78125 47.21875 15.09375 
Q 47.21875 7.46875 41.1875 3.015625 
Q 35.15625 -1.421875 24.609375 -1.421875 
Q 20.21875 -1.421875 15.453125 -0.5625 
Q 10.6875 0.296875 5.421875 2 
L 5.421875 11.28125 
Q 10.40625 8.6875 15.234375 7.390625 
Q 20.0625 6.109375 24.8125 6.109375 
Q 31.15625 6.109375 34.5625 8.28125 
Q 37.984375 10.453125 37.984375 14.40625 
Q 37.984375 18.0625 35.515625 20.015625 
Q 33.0625 21.96875 24.703125 23.78125 
L 21.578125 24.515625 
Q 13.234375 26.265625 9.515625 29.90625 
Q 5.8125 33.546875 5.8125 39.890625 
Q 5.8125 47.609375 11.28125 51.796875 
Q 16.75 56 26.8125 56 
Q 31.78125 56 36.171875 55.265625 
Q 40.578125 54.546875 44.28125 53.078125 
z
" id="DejaVuSans-115"/>
     <path d="M 8.5 21.578125 
L 8.5 54.6875 
L 17.484375 54.6875 
L 17.484375 21.921875 
Q 17.484375 14.15625 20.5 10.265625 
Q 23.53125 6.390625 29.59375 6.390625 
Q 36.859375 6.390625 41.078125 11.03125 
Q 45.3125 15.671875 45.3125 23.6875 
L 45.3125 54.6875 
L 54.296875 54.6875 
L 54.296875 0 
L 45.3125 0 
L 45.3125 8.40625 
Q 42.046875 3.421875 37.71875 1 
Q 33.40625 -1.421875 27.6875 -1.421875 
Q 18.265625 -1.421875 13.375 4.4375 
Q 8.5 10.296875 8.5 21.578125 
z
M 31.109375 56 
z
" id="DejaVuSans-117"/>
     <path d="M 34.28125 27.484375 
Q 23.390625 27.484375 19.1875 25 
Q 14.984375 22.515625 14.984375 16.5 
Q 14.984375 11.71875 18.140625 8.90625 
Q 21.296875 6.109375 26.703125 6.109375 
Q 34.1875 6.109375 38.703125 11.40625 
Q 43.21875 16.703125 43.21875 25.484375 
L 43.21875 27.484375 
z
M 52.203125 31.203125 
L 52.203125 0 
L 43.21875 0 
L 43.21875 8.296875 
Q 40.140625 3.328125 35.546875 0.953125 
Q 30.953125 -1.421875 24.3125 -1.421875 
Q 15.921875 -1.421875 10.953125 3.296875 
Q 6 8.015625 6 15.921875 
Q 6 25.140625 12.171875 29.828125 
Q 18.359375 34.515625 30.609375 34.515625 
L 43.21875 34.515625 
L 43.21875 35.40625 
Q 43.21875 41.609375 39.140625 45 
Q 35.0625 48.390625 27.6875 48.390625 
Q 23 48.390625 18.546875 47.265625 
Q 14.109375 46.140625 10.015625 43.890625 
L 10.015625 52.203125 
Q 14.9375 54.109375 19.578125 55.046875 
Q 24.21875 56 28.609375 56 
Q 40.484375 56 46.34375 49.84375 
Q 52.203125 43.703125 52.203125 31.203125 
z
" id="DejaVuSans-97"/>
     <path d="M 18.3125 70.21875 
L 18.3125 54.6875 
L 36.8125 54.6875 
L 36.8125 47.703125 
L 18.3125 47.703125 
L 18.3125 18.015625 
Q 18.3125 11.328125 20.140625 9.421875 
Q 21.96875 7.515625 27.59375 7.515625 
L 36.8125 7.515625 
L 36.8125 0 
L 27.59375 0 
Q 17.1875 0 13.234375 3.875 
Q 9.28125 7.765625 9.28125 18.015625 
L 9.28125 47.703125 
L 2.6875 47.703125 
L 2.6875 54.6875 
L 9.28125 54.6875 
L 9.28125 70.21875 
z
" id="DejaVuSans-116"/>
     <path d="M 54.890625 33.015625 
L 54.890625 0 
L 45.90625 0 
L 45.90625 32.71875 
Q 45.90625 40.484375 42.875 44.328125 
Q 39.84375 48.1875 33.796875 48.1875 
Q 26.515625 48.1875 22.3125 43.546875 
Q 18.109375 38.921875 18.109375 30.90625 
L 18.109375 0 
L 9.078125 0 
L 9.078125 54.6875 
L 18.109375 54.6875 
L 18.109375 46.1875 
Q 21.34375 51.125 25.703125 53.5625 
Q 30.078125 56 35.796875 56 
Q 45.21875 56 50.046875 50.171875 
Q 54.890625 44.34375 54.890625 33.015625 
z
" id="DejaVuSans-110"/>
     <path d="M 2.984375 54.6875 
L 12.5 54.6875 
L 29.59375 8.796875 
L 46.6875 54.6875 
L 56.203125 54.6875 
L 35.6875 0 
L 23.484375 0 
z
" id="DejaVuSans-118"/>
     <path d="M 17.921875 79.984375 
L 31.6875 61.71875 
L 24.21875 61.71875 
L 8.296875 79.984375 
z
" id="DejaVuSans-96"/>
     <path d="M 54.890625 33.015625 
L 54.890625 0 
L 45.90625 0 
L 45.90625 32.71875 
Q 45.90625 40.484375 42.875 44.328125 
Q 39.84375 48.1875 33.796875 48.1875 
Q 26.515625 48.1875 22.3125 43.546875 
Q 18.109375 38.921875 18.109375 30.90625 
L 18.109375 0 
L 9.078125 0 
L 9.078125 75.984375 
L 18.109375 75.984375 
L 18.109375 46.1875 
Q 21.34375 51.125 25.703125 53.5625 
Q 30.078125 56 35.796875 56 
Q 45.21875 56 50.046875 50.171875 
Q 54.890625 44.34375 54.890625 33.015625 
z
" id="DejaVuSans-104"/>
     <path d="M 52 44.1875 
Q 55.375 50.25 60.0625 53.125 
Q 64.75 56 71.09375 56 
Q 79.640625 56 84.28125 50.015625 
Q 88.921875 44.046875 88.921875 33.015625 
L 88.921875 0 
L 79.890625 0 
L 79.890625 32.71875 
Q 79.890625 40.578125 77.09375 44.375 
Q 74.3125 48.1875 68.609375 48.1875 
Q 61.625 48.1875 57.5625 43.546875 
Q 53.515625 38.921875 53.515625 30.90625 
L 53.515625 0 
L 44.484375 0 
L 44.484375 32.71875 
Q 44.484375 40.625 41.703125 44.40625 
Q 38.921875 48.1875 33.109375 48.1875 
Q 26.21875 48.1875 22.15625 43.53125 
Q 18.109375 38.875 18.109375 30.90625 
L 18.109375 0 
L 9.078125 0 
L 9.078125 54.6875 
L 18.109375 54.6875 
L 18.109375 46.1875 
Q 21.1875 51.21875 25.484375 53.609375 
Q 29.78125 56 35.6875 56 
Q 41.65625 56 45.828125 52.96875 
Q 50 49.953125 52 44.1875 
z
" id="DejaVuSans-109"/>
     <path d="M 11.71875 12.40625 
L 22.015625 12.40625 
L 22.015625 4 
L 14.015625 -11.625 
L 7.71875 -11.625 
L 11.71875 4 
z
" id="DejaVuSans-44"/>
     <path d="M 9.8125 72.90625 
L 24.515625 72.90625 
L 43.109375 23.296875 
L 61.8125 72.90625 
L 76.515625 72.90625 
L 76.515625 0 
L 66.890625 0 
L 66.890625 64.015625 
L 48.09375 14.015625 
L 38.1875 14.015625 
L 19.390625 64.015625 
L 19.390625 0 
L 9.8125 0 
z
" id="DejaVuSans-77"/>
     <path d="M 34.1875 63.1875 
L 20.796875 26.90625 
L 47.609375 26.90625 
z
M 28.609375 72.90625 
L 39.796875 72.90625 
L 67.578125 0 
L 57.328125 0 
L 50.6875 18.703125 
L 17.828125 18.703125 
L 11.1875 0 
L 0.78125 0 
z
" id="DejaVuSans-65"/>
     <path d="M 10.59375 45.40625 
L 73.1875 45.40625 
L 73.1875 37.203125 
L 10.59375 37.203125 
z
M 10.59375 25.484375 
L 73.1875 25.484375 
L 73.1875 17.1875 
L 10.59375 17.1875 
z
" id="DejaVuSans-61"/>
    </defs>
    <g transform="translate(86.826562 20.52)scale(0.12 -0.12)">
     <use xlink:href="#DejaVuSans-103"/>
     <use x="63.476562" xlink:href="#DejaVuSans-114"/>
     <use x="104.589844" xlink:href="#DejaVuSans-105"/>
     <use x="132.373047" xlink:href="#DejaVuSans-100"/>
     <use x="195.849609" xlink:href="#DejaVuSans-119"/>
     <use x="277.636719" xlink:href="#DejaVuSans-111"/>
     <use x="338.818359" xlink:href="#DejaVuSans-114"/>
     <use x="379.931641" xlink:href="#DejaVuSans-108"/>
     <use x="407.714844" xlink:href="#DejaVuSans-100"/>
     <use x="471.191406" xlink:href="#DejaVuSans-95"/>
     <use x="521.191406" xlink:href="#DejaVuSans-53"/>
     <use x="584.814453" xlink:href="#DejaVuSans-120"/>
     <use x="643.994141" xlink:href="#DejaVuSans-53"/>
     <use x="707.617188" xlink:href="#DejaVuSans-95"/>
     <use x="757.617188" xlink:href="#DejaVuSans-50"/>
     <use x="821.240234" xlink:href="#DejaVuSans-48"/>
     <use x="884.863281" xlink:href="#DejaVuSans-95"/>
     <use x="934.863281" xlink:href="#DejaVuSans-49"/>
     <use x="998.486328" xlink:href="#DejaVuSans-95"/>
     <use x="1048.486328" xlink:href="#DejaVuSans-50"/>
     <use x="1112.109375" xlink:href="#DejaVuSans-48"/>
     <use x="1175.732422" xlink:href="#DejaVuSans-95"/>
     <use x="1225.732422" xlink:href="#DejaVuSans-49"/>
     <use x="1289.355469" xlink:href="#DejaVuSans-51"/>
     <use x="1352.978516" xlink:href="#DejaVuSans-51"/>
     <use x="1416.601562" xlink:href="#DejaVuSans-55"/>
     <use x="1480.224609" xlink:href="#DejaVuSans-95"/>
     <use x="1530.224609" xlink:href="#DejaVuSans-95"/>
     <use x="1580.224609" xlink:href="#DejaVuSans-52"/>
     <use x="1643.847656" xlink:href="#DejaVuSans-45"/>
     <use x="1679.931641" xlink:href="#DejaVuSans-56"/>
     <use x="1743.554688" xlink:href="#DejaVuSans-58"/>
     <use x="1777.246094" xlink:href="#DejaVuSans-32"/>
     <use x="1809.033203" xlink:href="#DejaVuSans-101"/>
     <use x="1870.556641" xlink:href="#DejaVuSans-112"/>
     <use x="1934.033203" xlink:href="#DejaVuSans-105"/>
     <use x="1961.816406" xlink:href="#DejaVuSans-115"/>
     <use x="2013.916016" xlink:href="#DejaVuSans-111"/>
     <use x="2075.097656" xlink:href="#DejaVuSans-100"/>
     <use x="2138.574219" xlink:href="#DejaVuSans-101"/>
     <use x="2200.097656" xlink:href="#DejaVuSans-32"/>
     <use x="2231.884766" xlink:href="#DejaVuSans-100"/>
     <use x="2295.361328" xlink:href="#DejaVuSans-117"/>
     <use x="2358.740234" xlink:href="#DejaVuSans-114"/>
     <use x="2399.853516" xlink:href="#DejaVuSans-97"/>
     <use x="2461.132812" xlink:href="#DejaVuSans-116"/>
     <use x="2500.341797" xlink:href="#DejaVuSans-105"/>
     <use x="2528.125" xlink:href="#DejaVuSans-111"/>
     <use x="2589.306641" xlink:href="#DejaVuSans-110"/>
     <use x="2652.685547" xlink:href="#DejaVuSans-32"/>
     <use x="2684.472656" xlink:href="#DejaVuSans-105"/>
     <use x="2712.255859" xlink:href="#DejaVuSans-110"/>
     <use x="2775.634766" xlink:href="#DejaVuSans-32"/>
     <use x="2807.421875" xlink:href="#DejaVuSans-115"/>
     <use x="2859.521484" xlink:href="#DejaVuSans-116"/>
     <use x="2898.730469" xlink:href="#DejaVuSans-101"/>
     <use x="2960.253906" xlink:href="#DejaVuSans-112"/>
     <use x="3023.730469" xlink:href="#DejaVuSans-115"/>
     <use x="3075.830078" xlink:href="#DejaVuSans-32"/>
     <use x="3107.617188" xlink:href="#DejaVuSans-108"/>
     <use x="3135.400391" xlink:href="#DejaVuSans-111"/>
     <use x="3196.582031" xlink:href="#DejaVuSans-103"/>
     <use x="3260.058594" xlink:href="#DejaVuSans-45"/>
     <use x="3296.142578" xlink:href="#DejaVuSans-114"/>
     <use x="3337.224609" xlink:href="#DejaVuSans-101"/>
     <use x="3398.748047" xlink:href="#DejaVuSans-108"/>
     <use x="3426.53125" xlink:href="#DejaVuSans-97"/>
     <use x="3487.810547" xlink:href="#DejaVuSans-116"/>
     <use x="3527.019531" xlink:href="#DejaVuSans-105"/>
     <use x="3554.802734" xlink:href="#DejaVuSans-118"/>
     <use x="3613.982422" xlink:href="#DejaVuSans-101"/>
     <use x="3675.505859" xlink:href="#DejaVuSans-32"/>
     <use x="3707.292969" xlink:href="#DejaVuSans-116"/>
     <use x="3746.501953" xlink:href="#DejaVuSans-111"/>
     <use x="3807.683594" xlink:href="#DejaVuSans-32"/>
     <use x="3839.470703" xlink:href="#DejaVuSans-96"/>
     <use x="3889.470703" xlink:href="#DejaVuSans-104"/>
     <use x="3952.849609" xlink:href="#DejaVuSans-116"/>
     <use x="3992.058594" xlink:href="#DejaVuSans-109"/>
     <use x="4089.470703" xlink:href="#DejaVuSans-95"/>
     <use x="4139.470703" xlink:href="#DejaVuSans-52"/>
     <use x="4203.09375" xlink:href="#DejaVuSans-95"/>
     <use x="4253.09375" xlink:href="#DejaVuSans-49"/>
     <use x="4316.716797" xlink:href="#DejaVuSans-103"/>
     <use x="4380.193359" xlink:href="#DejaVuSans-96"/>
     <use x="4430.193359" xlink:href="#DejaVuSans-44"/>
     <use x="4461.980469" xlink:href="#DejaVuSans-32"/>
     <use x="4493.767578" xlink:href="#DejaVuSans-77"/>
     <use x="4580.046875" xlink:href="#DejaVuSans-65"/>
     <use x="4648.455078" xlink:href="#DejaVuSans-61"/>
     <use x="4732.244141" xlink:href="#DejaVuSans-52"/>
     <use x="4795.867188" xlink:href="#DejaVuSans-48"/>
    </g>
   </g>
   <g id="legend_1">
    <g id="patch_7">
     <path d="M 768.198625 246.7325 
L 855.633 246.7325 
Q 857.633 246.7325 857.633 244.7325 
L 857.633 185.9075 
Q 857.633 183.9075 855.633 183.9075 
L 768.198625 183.9075 
Q 766.198625 183.9075 766.198625 185.9075 
L 766.198625 244.7325 
Q 766.198625 246.7325 768.198625 246.7325 
z
" style="fill:#ffffff;opacity:0.8;stroke:#cccccc;stroke-linejoin:miter;"/>
    </g>
    <g id="line2d_18">
     <path d="M 770.198625 192.005937 
L 790.198625 192.005937 
" style="fill:none;stroke:#1f77b4;stroke-linecap:square;stroke-width:1.5;"/>
    </g>
    <g id="line2d_19"/>
    <g id="text_15">
     <!-- htm_4_1g -->
     <g transform="translate(798.198625 195.505937)scale(0.1 -0.1)">
      <use xlink:href="#DejaVuSans-104"/>
      <use x="63.378906" xlink:href="#DejaVuSans-116"/>
      <use x="102.587891" xlink:href="#DejaVuSans-109"/>
      <use x="200" xlink:href="#DejaVuSans-95"/>
      <use x="250" xlink:href="#DejaVuSans-52"/>
      <use x="313.623047" xlink:href="#DejaVuSans-95"/>
      <use x="363.623047" xlink:href="#DejaVuSans-49"/>
      <use x="427.246094" xlink:href="#DejaVuSans-103"/>
     </g>
    </g>
    <g id="line2d_20">
     <path d="M 770.198625 206.962187 
L 790.198625 206.962187 
" style="fill:none;stroke:#ff7f0e;stroke-linecap:square;stroke-width:1.5;"/>
    </g>
    <g id="line2d_21"/>
    <g id="text_16">
     <!-- htm_4_4g -->
     <g transform="translate(798.198625 210.462187)scale(0.1 -0.1)">
      <use xlink:href="#DejaVuSans-104"/>
      <use x="63.378906" xlink:href="#DejaVuSans-116"/>
      <use x="102.587891" xlink:href="#DejaVuSans-109"/>
      <use x="200" xlink:href="#DejaVuSans-95"/>
      <use x="250" xlink:href="#DejaVuSans-52"/>
      <use x="313.623047" xlink:href="#DejaVuSans-95"/>
      <use x="363.623047" xlink:href="#DejaVuSans-52"/>
      <use x="427.246094" xlink:href="#DejaVuSans-103"/>
     </g>
    </g>
    <g id="line2d_22">
     <path d="M 770.198625 221.918437 
L 790.198625 221.918437 
" style="fill:none;stroke:#2ca02c;stroke-linecap:square;stroke-width:1.5;"/>
    </g>
    <g id="line2d_23"/>
    <g id="text_17">
     <!-- htm_4_16g -->
     <defs>
      <path d="M 33.015625 40.375 
Q 26.375 40.375 22.484375 35.828125 
Q 18.609375 31.296875 18.609375 23.390625 
Q 18.609375 15.53125 22.484375 10.953125 
Q 26.375 6.390625 33.015625 6.390625 
Q 39.65625 6.390625 43.53125 10.953125 
Q 47.40625 15.53125 47.40625 23.390625 
Q 47.40625 31.296875 43.53125 35.828125 
Q 39.65625 40.375 33.015625 40.375 
z
M 52.59375 71.296875 
L 52.59375 62.3125 
Q 48.875 64.0625 45.09375 64.984375 
Q 41.3125 65.921875 37.59375 65.921875 
Q 27.828125 65.921875 22.671875 59.328125 
Q 17.53125 52.734375 16.796875 39.40625 
Q 19.671875 43.65625 24.015625 45.921875 
Q 28.375 48.1875 33.59375 48.1875 
Q 44.578125 48.1875 50.953125 41.515625 
Q 57.328125 34.859375 57.328125 23.390625 
Q 57.328125 12.15625 50.6875 5.359375 
Q 44.046875 -1.421875 33.015625 -1.421875 
Q 20.359375 -1.421875 13.671875 8.265625 
Q 6.984375 17.96875 6.984375 36.375 
Q 6.984375 53.65625 15.1875 63.9375 
Q 23.390625 74.21875 37.203125 74.21875 
Q 40.921875 74.21875 44.703125 73.484375 
Q 48.484375 72.75 52.59375 71.296875 
z
" id="DejaVuSans-54"/>
     </defs>
     <g transform="translate(798.198625 225.418437)scale(0.1 -0.1)">
      <use xlink:href="#DejaVuSans-104"/>
      <use x="63.378906" xlink:href="#DejaVuSans-116"/>
      <use x="102.587891" xlink:href="#DejaVuSans-109"/>
      <use x="200" xlink:href="#DejaVuSans-95"/>
      <use x="250" xlink:href="#DejaVuSans-52"/>
      <use x="313.623047" xlink:href="#DejaVuSans-95"/>
      <use x="363.623047" xlink:href="#DejaVuSans-49"/>
      <use x="427.246094" xlink:href="#DejaVuSans-54"/>
      <use x="490.869141" xlink:href="#DejaVuSans-103"/>
     </g>
    </g>
    <g id="line2d_24">
     <path d="M 770.198625 236.874687 
L 790.198625 236.874687 
" style="fill:none;stroke:#d62728;stroke-linecap:square;stroke-width:1.5;"/>
    </g>
    <g id="line2d_25"/>
    <g id="text_18">
     <!-- htm_8_1g -->
     <g transform="translate(798.198625 240.374687)scale(0.1 -0.1)">
      <use xlink:href="#DejaVuSans-104"/>
      <use x="63.378906" xlink:href="#DejaVuSans-116"/>
      <use x="102.587891" xlink:href="#DejaVuSans-109"/>
      <use x="200" xlink:href="#DejaVuSans-95"/>
      <use x="250" xlink:href="#DejaVuSans-56"/>
      <use x="313.623047" xlink:href="#DejaVuSans-95"/>
      <use x="363.623047" xlink:href="#DejaVuSans-49"/>
      <use x="427.246094" xlink:href="#DejaVuSans-103"/>
     </g>
    </g>
   </g>
  </g>
 </g>
 <defs>
  <clipPath id="p1db26bc251">
   <rect height="377.6" width="691.765" x="32.515" y="26.52"/>
  </clipPath>
 </defs>
</svg>
