<?xml version="1.0" encoding="utf-8" standalone="no"?>
<!DOCTYPE svg PUBLIC "-//W3C//DTD SVG 1.1//EN"
  "http://www.w3.org/Graphics/SVG/1.1/DTD/svg11.dtd">
<!-- Created with matplotlib (https://matplotlib.org/) -->
<svg height="432pt" version="1.1" viewBox="0 0 864 432" width="864pt" xmlns="http://www.w3.org/2000/svg" xmlns:xlink="http://www.w3.org/1999/xlink">
 <defs>
  <style type="text/css">
*{stroke-linecap:butt;stroke-linejoin:round;}
  </style>
 </defs>
 <g id="figure_1">
  <g id="patch_1">
   <path d="M 0 432 
L 864 432 
L 864 0 
L 0 0 
z
" style="fill:#ffffff;"/>
  </g>
  <g id="axes_1">
   <g id="patch_2">
    <path d="M 42.1 404.12 
L 724.28 404.12 
L 724.28 26.52 
L 42.1 26.52 
z
" style="fill:#ffffff;"/>
   </g>
   <g id="matplotlib.axis_1">
    <g id="xtick_1">
     <g id="line2d_1">
      <defs>
       <path d="M 0 0 
L 0 3.5 
" id="m89c412cfde" style="stroke:#000000;stroke-width:0.8;"/>
      </defs>
      <g>
       <use style="stroke:#000000;stroke-width:0.8;" x="42.1" xlink:href="#m89c412cfde" y="404.12"/>
      </g>
     </g>
     <g id="text_1">
      <!-- 0 -->
      <defs>
       <path d="M 31.78125 66.40625 
Q 24.171875 66.40625 20.328125 58.90625 
Q 16.5 51.421875 16.5 36.375 
Q 16.5 21.390625 20.328125 13.890625 
Q 24.171875 6.390625 31.78125 6.390625 
Q 39.453125 6.390625 43.28125 13.890625 
Q 47.125 21.390625 47.125 36.375 
Q 47.125 51.421875 43.28125 58.90625 
Q 39.453125 66.40625 31.78125 66.40625 
z
M 31.78125 74.21875 
Q 44.046875 74.21875 50.515625 64.515625 
Q 56.984375 54.828125 56.984375 36.375 
Q 56.984375 17.96875 50.515625 8.265625 
Q 44.046875 -1.421875 31.78125 -1.421875 
Q 19.53125 -1.421875 13.0625 8.265625 
Q 6.59375 17.96875 6.59375 36.375 
Q 6.59375 54.828125 13.0625 64.515625 
Q 19.53125 74.21875 31.78125 74.21875 
z
" id="DejaVuSans-48"/>
      </defs>
      <g transform="translate(38.91875 418.718437)scale(0.1 -0.1)">
       <use xlink:href="#DejaVuSans-48"/>
      </g>
     </g>
    </g>
    <g id="xtick_2">
     <g id="line2d_2">
      <g>
       <use style="stroke:#000000;stroke-width:0.8;" x="127.425829" xlink:href="#m89c412cfde" y="404.12"/>
      </g>
     </g>
     <g id="text_2">
      <!-- 200 -->
      <defs>
       <path d="M 19.1875 8.296875 
L 53.609375 8.296875 
L 53.609375 0 
L 7.328125 0 
L 7.328125 8.296875 
Q 12.9375 14.109375 22.625 23.890625 
Q 32.328125 33.6875 34.8125 36.53125 
Q 39.546875 41.84375 41.421875 45.53125 
Q 43.3125 49.21875 43.3125 52.78125 
Q 43.3125 58.59375 39.234375 62.25 
Q 35.15625 65.921875 28.609375 65.921875 
Q 23.96875 65.921875 18.8125 64.3125 
Q 13.671875 62.703125 7.8125 59.421875 
L 7.8125 69.390625 
Q 13.765625 71.78125 18.9375 73 
Q 24.125 74.21875 28.421875 74.21875 
Q 39.75 74.21875 46.484375 68.546875 
Q 53.21875 62.890625 53.21875 53.421875 
Q 53.21875 48.921875 51.53125 44.890625 
Q 49.859375 40.875 45.40625 35.40625 
Q 44.1875 33.984375 37.640625 27.21875 
Q 31.109375 20.453125 19.1875 8.296875 
z
" id="DejaVuSans-50"/>
      </defs>
      <g transform="translate(117.882079 418.718437)scale(0.1 -0.1)">
       <use xlink:href="#DejaVuSans-50"/>
       <use x="63.623047" xlink:href="#DejaVuSans-48"/>
       <use x="127.246094" xlink:href="#DejaVuSans-48"/>
      </g>
     </g>
    </g>
    <g id="xtick_3">
     <g id="line2d_3">
      <g>
       <use style="stroke:#000000;stroke-width:0.8;" x="212.751657" xlink:href="#m89c412cfde" y="404.12"/>
      </g>
     </g>
     <g id="text_3">
      <!-- 400 -->
      <defs>
       <path d="M 37.796875 64.3125 
L 12.890625 25.390625 
L 37.796875 25.390625 
z
M 35.203125 72.90625 
L 47.609375 72.90625 
L 47.609375 25.390625 
L 58.015625 25.390625 
L 58.015625 17.1875 
L 47.609375 17.1875 
L 47.609375 0 
L 37.796875 0 
L 37.796875 17.1875 
L 4.890625 17.1875 
L 4.890625 26.703125 
z
" id="DejaVuSans-52"/>
      </defs>
      <g transform="translate(203.207907 418.718437)scale(0.1 -0.1)">
       <use xlink:href="#DejaVuSans-52"/>
       <use x="63.623047" xlink:href="#DejaVuSans-48"/>
       <use x="127.246094" xlink:href="#DejaVuSans-48"/>
      </g>
     </g>
    </g>
    <g id="xtick_4">
     <g id="line2d_4">
      <g>
       <use style="stroke:#000000;stroke-width:0.8;" x="298.077486" xlink:href="#m89c412cfde" y="404.12"/>
      </g>
     </g>
     <g id="text_4">
      <!-- 600 -->
      <defs>
       <path d="M 33.015625 40.375 
Q 26.375 40.375 22.484375 35.828125 
Q 18.609375 31.296875 18.609375 23.390625 
Q 18.609375 15.53125 22.484375 10.953125 
Q 26.375 6.390625 33.015625 6.390625 
Q 39.65625 6.390625 43.53125 10.953125 
Q 47.40625 15.53125 47.40625 23.390625 
Q 47.40625 31.296875 43.53125 35.828125 
Q 39.65625 40.375 33.015625 40.375 
z
M 52.59375 71.296875 
L 52.59375 62.3125 
Q 48.875 64.0625 45.09375 64.984375 
Q 41.3125 65.921875 37.59375 65.921875 
Q 27.828125 65.921875 22.671875 59.328125 
Q 17.53125 52.734375 16.796875 39.40625 
Q 19.671875 43.65625 24.015625 45.921875 
Q 28.375 48.1875 33.59375 48.1875 
Q 44.578125 48.1875 50.953125 41.515625 
Q 57.328125 34.859375 57.328125 23.390625 
Q 57.328125 12.15625 50.6875 5.359375 
Q 44.046875 -1.421875 33.015625 -1.421875 
Q 20.359375 -1.421875 13.671875 8.265625 
Q 6.984375 17.96875 6.984375 36.375 
Q 6.984375 53.65625 15.1875 63.9375 
Q 23.390625 74.21875 37.203125 74.21875 
Q 40.921875 74.21875 44.703125 73.484375 
Q 48.484375 72.75 52.59375 71.296875 
z
" id="DejaVuSans-54"/>
      </defs>
      <g transform="translate(288.533736 418.718437)scale(0.1 -0.1)">
       <use xlink:href="#DejaVuSans-54"/>
       <use x="63.623047" xlink:href="#DejaVuSans-48"/>
       <use x="127.246094" xlink:href="#DejaVuSans-48"/>
      </g>
     </g>
    </g>
    <g id="xtick_5">
     <g id="line2d_5">
      <g>
       <use style="stroke:#000000;stroke-width:0.8;" x="383.403315" xlink:href="#m89c412cfde" y="404.12"/>
      </g>
     </g>
     <g id="text_5">
      <!-- 800 -->
      <defs>
       <path d="M 31.78125 34.625 
Q 24.75 34.625 20.71875 30.859375 
Q 16.703125 27.09375 16.703125 20.515625 
Q 16.703125 13.921875 20.71875 10.15625 
Q 24.75 6.390625 31.78125 6.390625 
Q 38.8125 6.390625 42.859375 10.171875 
Q 46.921875 13.96875 46.921875 20.515625 
Q 46.921875 27.09375 42.890625 30.859375 
Q 38.875 34.625 31.78125 34.625 
z
M 21.921875 38.8125 
Q 15.578125 40.375 12.03125 44.71875 
Q 8.5 49.078125 8.5 55.328125 
Q 8.5 64.0625 14.71875 69.140625 
Q 20.953125 74.21875 31.78125 74.21875 
Q 42.671875 74.21875 48.875 69.140625 
Q 55.078125 64.0625 55.078125 55.328125 
Q 55.078125 49.078125 51.53125 44.71875 
Q 48 40.375 41.703125 38.8125 
Q 48.828125 37.15625 52.796875 32.3125 
Q 56.78125 27.484375 56.78125 20.515625 
Q 56.78125 9.90625 50.3125 4.234375 
Q 43.84375 -1.421875 31.78125 -1.421875 
Q 19.734375 -1.421875 13.25 4.234375 
Q 6.78125 9.90625 6.78125 20.515625 
Q 6.78125 27.484375 10.78125 32.3125 
Q 14.796875 37.15625 21.921875 38.8125 
z
M 18.3125 54.390625 
Q 18.3125 48.734375 21.84375 45.5625 
Q 25.390625 42.390625 31.78125 42.390625 
Q 38.140625 42.390625 41.71875 45.5625 
Q 45.3125 48.734375 45.3125 54.390625 
Q 45.3125 60.0625 41.71875 63.234375 
Q 38.140625 66.40625 31.78125 66.40625 
Q 25.390625 66.40625 21.84375 63.234375 
Q 18.3125 60.0625 18.3125 54.390625 
z
" id="DejaVuSans-56"/>
      </defs>
      <g transform="translate(373.859565 418.718437)scale(0.1 -0.1)">
       <use xlink:href="#DejaVuSans-56"/>
       <use x="63.623047" xlink:href="#DejaVuSans-48"/>
       <use x="127.246094" xlink:href="#DejaVuSans-48"/>
      </g>
     </g>
    </g>
    <g id="xtick_6">
     <g id="line2d_6">
      <g>
       <use style="stroke:#000000;stroke-width:0.8;" x="468.729143" xlink:href="#m89c412cfde" y="404.12"/>
      </g>
     </g>
     <g id="text_6">
      <!-- 1000 -->
      <defs>
       <path d="M 12.40625 8.296875 
L 28.515625 8.296875 
L 28.515625 63.921875 
L 10.984375 60.40625 
L 10.984375 69.390625 
L 28.421875 72.90625 
L 38.28125 72.90625 
L 38.28125 8.296875 
L 54.390625 8.296875 
L 54.390625 0 
L 12.40625 0 
z
" id="DejaVuSans-49"/>
      </defs>
      <g transform="translate(456.004143 418.718437)scale(0.1 -0.1)">
       <use xlink:href="#DejaVuSans-49"/>
       <use x="63.623047" xlink:href="#DejaVuSans-48"/>
       <use x="127.246094" xlink:href="#DejaVuSans-48"/>
       <use x="190.869141" xlink:href="#DejaVuSans-48"/>
      </g>
     </g>
    </g>
    <g id="xtick_7">
     <g id="line2d_7">
      <g>
       <use style="stroke:#000000;stroke-width:0.8;" x="554.054972" xlink:href="#m89c412cfde" y="404.12"/>
      </g>
     </g>
     <g id="text_7">
      <!-- 1200 -->
      <g transform="translate(541.329972 418.718437)scale(0.1 -0.1)">
       <use xlink:href="#DejaVuSans-49"/>
       <use x="63.623047" xlink:href="#DejaVuSans-50"/>
       <use x="127.246094" xlink:href="#DejaVuSans-48"/>
       <use x="190.869141" xlink:href="#DejaVuSans-48"/>
      </g>
     </g>
    </g>
    <g id="xtick_8">
     <g id="line2d_8">
      <g>
       <use style="stroke:#000000;stroke-width:0.8;" x="639.380801" xlink:href="#m89c412cfde" y="404.12"/>
      </g>
     </g>
     <g id="text_8">
      <!-- 1400 -->
      <g transform="translate(626.655801 418.718437)scale(0.1 -0.1)">
       <use xlink:href="#DejaVuSans-49"/>
       <use x="63.623047" xlink:href="#DejaVuSans-52"/>
       <use x="127.246094" xlink:href="#DejaVuSans-48"/>
       <use x="190.869141" xlink:href="#DejaVuSans-48"/>
      </g>
     </g>
    </g>
   </g>
   <g id="matplotlib.axis_2">
    <g id="ytick_1">
     <g id="line2d_9">
      <defs>
       <path d="M 0 0 
L -3.5 0 
" id="m977873e257" style="stroke:#000000;stroke-width:0.8;"/>
      </defs>
      <g>
       <use style="stroke:#000000;stroke-width:0.8;" x="42.1" xlink:href="#m977873e257" y="394.97854"/>
      </g>
     </g>
     <g id="text_9">
      <!-- −1.0 -->
      <defs>
       <path d="M 10.59375 35.5 
L 73.1875 35.5 
L 73.1875 27.203125 
L 10.59375 27.203125 
z
" id="DejaVuSans-8722"/>
       <path d="M 10.6875 12.40625 
L 21 12.40625 
L 21 0 
L 10.6875 0 
z
" id="DejaVuSans-46"/>
      </defs>
      <g transform="translate(10.817188 398.777758)scale(0.1 -0.1)">
       <use xlink:href="#DejaVuSans-8722"/>
       <use x="83.789062" xlink:href="#DejaVuSans-49"/>
       <use x="147.412109" xlink:href="#DejaVuSans-46"/>
       <use x="179.199219" xlink:href="#DejaVuSans-48"/>
      </g>
     </g>
    </g>
    <g id="ytick_2">
     <g id="line2d_10">
      <g>
       <use style="stroke:#000000;stroke-width:0.8;" x="42.1" xlink:href="#m977873e257" y="332.942032"/>
      </g>
     </g>
     <g id="text_10">
      <!-- −0.5 -->
      <defs>
       <path d="M 10.796875 72.90625 
L 49.515625 72.90625 
L 49.515625 64.59375 
L 19.828125 64.59375 
L 19.828125 46.734375 
Q 21.96875 47.46875 24.109375 47.828125 
Q 26.265625 48.1875 28.421875 48.1875 
Q 40.625 48.1875 47.75 41.5 
Q 54.890625 34.8125 54.890625 23.390625 
Q 54.890625 11.625 47.5625 5.09375 
Q 40.234375 -1.421875 26.90625 -1.421875 
Q 22.3125 -1.421875 17.546875 -0.640625 
Q 12.796875 0.140625 7.71875 1.703125 
L 7.71875 11.625 
Q 12.109375 9.234375 16.796875 8.0625 
Q 21.484375 6.890625 26.703125 6.890625 
Q 35.15625 6.890625 40.078125 11.328125 
Q 45.015625 15.765625 45.015625 23.390625 
Q 45.015625 31 40.078125 35.4375 
Q 35.15625 39.890625 26.703125 39.890625 
Q 22.75 39.890625 18.8125 39.015625 
Q 14.890625 38.140625 10.796875 36.28125 
z
" id="DejaVuSans-53"/>
      </defs>
      <g transform="translate(10.817188 336.741251)scale(0.1 -0.1)">
       <use xlink:href="#DejaVuSans-8722"/>
       <use x="83.789062" xlink:href="#DejaVuSans-48"/>
       <use x="147.412109" xlink:href="#DejaVuSans-46"/>
       <use x="179.199219" xlink:href="#DejaVuSans-53"/>
      </g>
     </g>
    </g>
    <g id="ytick_3">
     <g id="line2d_11">
      <g>
       <use style="stroke:#000000;stroke-width:0.8;" x="42.1" xlink:href="#m977873e257" y="270.905525"/>
      </g>
     </g>
     <g id="text_11">
      <!-- 0.0 -->
      <g transform="translate(19.196875 274.704744)scale(0.1 -0.1)">
       <use xlink:href="#DejaVuSans-48"/>
       <use x="63.623047" xlink:href="#DejaVuSans-46"/>
       <use x="95.410156" xlink:href="#DejaVuSans-48"/>
      </g>
     </g>
    </g>
    <g id="ytick_4">
     <g id="line2d_12">
      <g>
       <use style="stroke:#000000;stroke-width:0.8;" x="42.1" xlink:href="#m977873e257" y="208.869018"/>
      </g>
     </g>
     <g id="text_12">
      <!-- 0.5 -->
      <g transform="translate(19.196875 212.668237)scale(0.1 -0.1)">
       <use xlink:href="#DejaVuSans-48"/>
       <use x="63.623047" xlink:href="#DejaVuSans-46"/>
       <use x="95.410156" xlink:href="#DejaVuSans-53"/>
      </g>
     </g>
    </g>
    <g id="ytick_5">
     <g id="line2d_13">
      <g>
       <use style="stroke:#000000;stroke-width:0.8;" x="42.1" xlink:href="#m977873e257" y="146.832511"/>
      </g>
     </g>
     <g id="text_13">
      <!-- 1.0 -->
      <g transform="translate(19.196875 150.63173)scale(0.1 -0.1)">
       <use xlink:href="#DejaVuSans-49"/>
       <use x="63.623047" xlink:href="#DejaVuSans-46"/>
       <use x="95.410156" xlink:href="#DejaVuSans-48"/>
      </g>
     </g>
    </g>
    <g id="ytick_6">
     <g id="line2d_14">
      <g>
       <use style="stroke:#000000;stroke-width:0.8;" x="42.1" xlink:href="#m977873e257" y="84.796004"/>
      </g>
     </g>
     <g id="text_14">
      <!-- 1.5 -->
      <g transform="translate(19.196875 88.595223)scale(0.1 -0.1)">
       <use xlink:href="#DejaVuSans-49"/>
       <use x="63.623047" xlink:href="#DejaVuSans-46"/>
       <use x="95.410156" xlink:href="#DejaVuSans-53"/>
      </g>
     </g>
    </g>
   </g>
   <g id="line2d_15">
    <path clip-path="url(#p4a6816f537)" d="M 58.738537 270.905525 
L 724.28 270.905525 
L 724.28 270.905525 
" style="fill:none;stroke:#1f77b4;stroke-linecap:square;stroke-width:1.5;"/>
   </g>
   <g id="line2d_16">
    <path clip-path="url(#p4a6816f537)" d="M 58.738537 270.905525 
L 133.398637 270.905525 
L 133.825266 260.506944 
L 134.251895 263.022307 
L 134.678524 254.987751 
L 135.105153 251.94539 
L 135.531782 251.94539 
L 135.958412 248.100085 
L 136.81167 248.100085 
L 137.238299 241.253504 
L 138.091557 241.253504 
L 138.944816 214.428231 
L 139.371445 209.762846 
L 139.798074 196.736094 
L 140.224703 195.956561 
L 140.651332 200.601606 
L 141.077961 200.601606 
L 141.50459 201.951887 
L 141.93122 201.951887 
L 142.357849 200.694205 
L 142.784478 194.056094 
L 143.211107 195.513963 
L 143.637736 195.513963 
L 144.064365 192.354538 
L 144.917624 178.339998 
L 145.344253 170.091438 
L 145.770882 166.205586 
L 146.197511 167.143209 
L 146.62414 164.768861 
L 147.050769 169.999776 
L 147.477398 169.999776 
L 147.904028 164.783255 
L 148.330657 164.783255 
L 148.757286 163.95909 
L 149.183915 163.95909 
L 149.610544 161.56079 
L 150.463802 137.984118 
L 150.890432 137.505969 
L 151.317061 130.773283 
L 151.74369 133.675688 
L 152.170319 141.710244 
L 152.596948 142.967926 
L 153.023577 146.813231 
L 153.876836 137.734997 
L 154.303465 144.103429 
L 154.730094 129.818996 
L 155.156723 132.782825 
L 156.009981 158.817467 
L 156.43661 165.632874 
L 156.86324 169.472544 
L 157.289869 170.252077 
L 158.143127 154.342067 
L 158.569756 158.97177 
L 158.996385 159.803878 
L 159.423014 161.06156 
L 159.849644 171.107375 
L 160.276273 169.649505 
L 160.702902 169.649505 
L 161.55616 183.471657 
L 161.982789 195.601293 
L 162.409418 201.00768 
L 162.836048 190.609098 
L 163.689306 195.453526 
L 164.115935 190.222611 
L 164.542564 189.895802 
L 164.969193 197.262344 
L 165.395822 201.325492 
L 165.822452 202.149657 
L 166.249081 198.663422 
L 166.67571 201.061722 
L 167.955597 235.24523 
L 168.382226 238.204871 
L 168.808856 236.073149 
L 169.235485 227.050805 
L 169.662114 225.793123 
L 170.088743 232.721336 
L 170.942001 229.258731 
L 171.36863 221.48832 
L 171.79526 233.622732 
L 172.221889 236.543437 
L 172.648518 237.334068 
L 173.075147 238.965917 
L 173.501776 222.531462 
L 173.928405 229.690178 
L 174.355034 220.07113 
L 174.781664 226.017089 
L 175.208293 236.57376 
L 175.634922 236.57376 
L 176.061551 229.291587 
L 176.48818 229.291587 
L 176.914809 221.897423 
L 177.341438 220.554754 
L 177.768068 220.554754 
L 178.194697 220.084673 
L 178.621326 217.042312 
L 179.047955 203.385099 
L 179.474584 206.849719 
L 179.901213 221.652325 
L 180.327842 218.72277 
L 181.181101 204.846112 
L 181.60773 205.172922 
L 182.460988 197.375261 
L 182.887617 200.927262 
L 183.314246 201.332603 
L 183.740876 193.298047 
L 184.167505 192.254369 
L 184.594134 181.082003 
L 185.020763 173.435681 
L 185.447392 174.693363 
L 185.874021 168.930484 
L 186.30065 172.358394 
L 186.72728 173.942886 
L 187.153909 158.828778 
L 187.580538 167.069574 
L 188.007167 171.16943 
L 188.860425 188.018076 
L 189.287054 176.327538 
L 189.713684 186.053293 
L 190.140313 184.421444 
L 190.566942 185.679126 
L 190.993571 182.973932 
L 191.4202 192.59298 
L 191.846829 190.442959 
L 192.273458 191.328548 
L 192.700088 178.357686 
L 193.126717 173.931021 
L 193.553346 171.643118 
L 193.979975 175.629578 
L 194.406604 171.297458 
L 194.833233 171.297458 
L 195.259862 165.476578 
L 195.686492 170.122637 
L 196.113121 176.504527 
L 196.53975 175.882081 
L 196.966379 161.079475 
L 197.393008 158.451305 
L 197.819637 163.352178 
L 198.246266 170.060878 
L 199.099525 151.954549 
L 199.526154 151.954549 
L 199.952783 141.825862 
L 200.379412 144.906755 
L 200.806041 153.054118 
L 201.23267 149.67113 
L 201.6593 154.586733 
L 202.085929 157.282496 
L 202.512558 154.318666 
L 202.939187 160.498837 
L 203.365816 160.758795 
L 203.792445 161.324324 
L 204.219074 174.024266 
L 204.645704 168.170905 
L 205.072333 164.99488 
L 205.498962 166.252562 
L 205.925591 159.324349 
L 206.35222 166.953564 
L 206.778849 154.599639 
L 207.205478 161.176326 
L 207.632108 176.353099 
L 208.485366 186.166236 
L 208.911995 186.166236 
L 209.338624 177.527617 
L 209.765253 179.85311 
L 210.191882 185.442009 
L 210.618512 187.03776 
L 211.045141 189.879934 
L 211.47177 191.668871 
L 211.898399 197.094583 
L 212.325028 205.583658 
L 212.751657 219.936266 
L 213.178286 223.777487 
L 213.604916 223.985741 
L 214.031545 239.672154 
L 214.458174 244.664349 
L 214.884803 251.709626 
L 215.311432 253.808376 
L 215.738061 264.420962 
L 216.16469 278.905583 
L 216.59132 279.568052 
L 217.017949 286.303842 
L 217.444578 286.303842 
L 217.871207 281.17077 
L 218.297836 282.687087 
L 218.724465 300.027809 
L 219.151094 302.330992 
L 219.577724 307.859034 
L 220.004353 324.431371 
L 220.430982 324.773651 
L 220.857611 322.62363 
L 221.28424 318.109583 
L 221.710869 322.705261 
L 222.137498 330.302986 
L 222.564128 330.302986 
L 222.990757 334.88099 
L 223.417386 340.850512 
L 223.844015 337.920957 
L 224.270644 331.344269 
L 224.697273 328.221337 
L 225.123902 335.627698 
L 225.550532 333.843019 
L 225.977161 332.585337 
L 226.40379 339.400744 
L 226.830419 341.253639 
L 227.257048 351.958178 
L 227.683677 352.8802 
L 228.110306 355.144412 
L 228.536936 369.291434 
L 228.963565 363.865722 
L 229.390194 362.089867 
L 229.816823 345.655412 
L 230.243452 352.018096 
L 230.670081 351.809841 
L 231.09671 355.400058 
L 231.52334 357.297302 
L 231.949969 354.820471 
L 232.376598 348.056335 
L 232.803227 345.692309 
L 233.229856 344.590779 
L 233.656485 343.928309 
L 234.083114 343.769206 
L 234.509744 344.661546 
L 234.936373 347.196131 
L 235.363002 355.250013 
L 235.789631 343.488708 
L 236.21626 344.878402 
L 236.642889 343.571872 
L 237.069518 337.752998 
L 237.496148 344.498698 
L 237.922777 344.498698 
L 238.349406 351.93655 
L 238.776035 351.640915 
L 239.202664 352.450131 
L 239.629293 352.195043 
L 240.055922 348.095187 
L 240.482552 340.302454 
L 240.909181 337.555728 
L 241.33581 343.113453 
L 241.762439 344.086364 
L 242.615697 318.667154 
L 243.042326 319.924836 
L 243.468956 322.88221 
L 243.895585 321.446791 
L 244.322214 317.287765 
L 244.748843 317.057895 
L 245.175472 313.353488 
L 245.602101 301.859957 
L 246.02873 301.730695 
L 246.45536 297.700547 
L 246.881989 300.109203 
L 247.308618 293.74652 
L 247.735247 299.534115 
L 248.161876 300.024898 
L 248.588505 297.221498 
L 249.015134 290.620094 
L 249.441764 295.28548 
L 250.295022 291.194628 
L 250.721651 293.568975 
L 251.14828 288.57678 
L 251.574909 295.833187 
L 252.001538 300.360043 
L 252.428168 293.185043 
L 252.854797 301.060497 
L 253.281426 302.318179 
L 254.134684 294.767899 
L 254.987942 291.466611 
L 255.414572 290.66687 
L 255.841201 287.372289 
L 256.26783 285.657578 
L 257.121088 296.777697 
L 257.547717 296.01737 
L 257.974346 302.482241 
L 258.400976 291.891236 
L 258.827605 285.075829 
L 259.254234 290.960364 
L 259.680863 299.79378 
L 260.107492 297.643758 
L 260.534121 286.500489 
L 260.96075 295.175065 
L 261.38738 295.067165 
L 261.814009 286.599091 
L 262.240638 285.197112 
L 262.667267 278.243578 
L 263.093896 276.980274 
L 263.520525 285.079762 
L 263.947154 284.134671 
L 264.373784 278.298985 
L 264.800413 276.611246 
L 265.227042 278.502815 
L 265.653671 282.60267 
L 266.0803 277.176958 
L 266.506929 277.176958 
L 266.933558 278.130722 
L 267.360188 279.715214 
L 268.213446 263.922233 
L 268.640075 259.0571 
L 269.066704 260.090972 
L 269.493333 264.898613 
L 269.919962 260.485764 
L 270.346592 254.167712 
L 270.773221 260.957453 
L 271.19985 265.53079 
L 271.626479 260.538594 
L 272.053108 260.580417 
L 272.479737 261.673462 
L 272.906366 263.462083 
L 273.332996 261.403748 
L 273.759625 254.963473 
L 274.186254 233.07645 
L 275.039512 235.30735 
L 275.466141 241.370851 
L 275.89277 254.671372 
L 276.3194 257.840355 
L 276.746029 258.502825 
L 277.172658 260.652846 
L 277.599287 268.895657 
L 278.025916 254.825227 
L 278.452545 252.783106 
L 278.879174 266.394714 
L 279.732433 263.830501 
L 280.159062 258.08085 
L 280.585691 248.840744 
L 281.01232 247.377178 
L 281.438949 249.741204 
L 281.865578 248.519801 
L 282.292208 235.49208 
L 282.718837 228.890677 
L 283.145466 236.266223 
L 283.572095 235.04569 
L 283.998724 236.241947 
L 284.425353 233.507114 
L 284.851982 240.042165 
L 285.278612 251.917942 
L 285.705241 238.44975 
L 286.13187 221.249373 
L 286.558499 219.435244 
L 286.985128 210.947964 
L 287.411757 213.628443 
L 287.838386 204.559033 
L 288.265016 204.943234 
L 288.691645 192.269249 
L 289.118274 196.40338 
L 289.544903 191.592928 
L 289.971532 193.250227 
L 290.398161 185.812375 
L 290.82479 187.110081 
L 291.25142 201.458472 
L 291.678049 194.659521 
L 292.104678 195.442718 
L 292.531307 188.445556 
L 292.957936 193.243599 
L 293.384565 177.940203 
L 293.811194 177.441026 
L 294.237824 168.84094 
L 294.664453 174.254368 
L 295.091082 194.680383 
L 295.517711 197.170671 
L 295.94434 189.787201 
L 296.370969 177.852977 
L 296.797598 176.922104 
L 297.224228 192.020346 
L 297.650857 191.010943 
L 298.077486 188.982577 
L 298.504115 180.797974 
L 298.930744 175.577573 
L 299.357373 166.946313 
L 299.784003 162.31946 
L 300.210632 148.235214 
L 301.490519 118.868238 
L 301.917148 113.371937 
L 302.770407 126.722396 
L 303.197036 140.847726 
L 304.050294 123.92684 
L 304.476923 123.325795 
L 304.903552 133.443749 
L 305.330181 132.00672 
L 305.756811 139.184405 
L 306.18344 131.788365 
L 306.610069 128.86766 
L 307.036698 130.835169 
L 307.463327 133.432164 
L 307.889956 117.620155 
L 308.316585 113.37781 
L 308.743215 119.76257 
L 309.169844 115.876719 
L 309.596473 114.997078 
L 310.023102 103.713921 
L 310.449731 106.556095 
L 310.87636 92.10837 
L 311.302989 99.664778 
L 311.729619 100.14609 
L 312.582877 83.06933 
L 313.009506 79.90288 
L 313.436135 82.896392 
L 313.862764 93.119502 
L 314.289393 77.329108 
L 314.716023 82.442959 
L 315.142652 76.825003 
L 315.569281 87.223585 
L 315.99591 77.431121 
L 316.422539 80.838824 
L 316.849168 78.196837 
L 317.275797 94.631293 
L 317.702427 98.206703 
L 318.129056 103.677047 
L 318.555685 104.664835 
L 318.982314 108.011114 
L 319.408943 101.11072 
L 319.835572 105.659042 
L 320.262201 105.659042 
L 321.11546 122.767608 
L 321.542089 122.184037 
L 321.968718 116.731468 
L 322.395347 106.352768 
L 322.821976 114.22896 
L 323.248605 118.996829 
L 323.675235 114.004634 
L 324.101864 116.134708 
L 324.528493 121.372081 
L 324.955122 132.855977 
L 325.381751 140.384088 
L 325.80838 135.461599 
L 326.235009 142.541151 
L 326.661639 145.901497 
L 327.088268 148.265523 
L 327.514897 156.099892 
L 327.941526 170.384325 
L 328.368155 166.838461 
L 328.794784 162.144487 
L 329.221413 159.994466 
L 329.648043 167.733387 
L 330.074672 171.08235 
L 330.501301 181.480932 
L 330.92793 187.516805 
L 331.354559 191.051132 
L 331.781188 192.187158 
L 332.207817 189.61037 
L 332.634447 188.082793 
L 333.061076 200.217206 
L 333.914334 218.840924 
L 334.340963 211.474381 
L 336.04748 229.287088 
L 336.474109 227.591805 
L 336.900738 222.351331 
L 337.327367 213.624623 
L 337.753996 212.040131 
L 338.180625 213.454617 
L 338.607255 212.52636 
L 339.033884 213.784042 
L 339.460513 220.642233 
L 339.887142 220.707999 
L 340.313771 217.865825 
L 340.7404 224.385596 
L 341.167029 221.289201 
L 341.593659 216.344362 
L 342.020288 216.994879 
L 342.446917 212.387473 
L 342.873546 227.807749 
L 343.300175 223.72171 
L 343.726804 227.207945 
L 344.153433 224.51711 
L 344.580063 231.26281 
L 345.006692 231.26281 
L 345.85995 229.796531 
L 346.286579 221.196445 
L 346.713208 216.418254 
L 347.139837 213.810291 
L 347.566467 219.694826 
L 347.993096 213.658952 
L 348.419725 215.15353 
L 348.846354 209.07136 
L 349.272983 222.702174 
L 349.699612 227.919632 
L 350.126241 225.404268 
L 350.552871 227.96848 
L 350.9795 226.749331 
L 351.406129 234.115874 
L 351.832758 236.958048 
L 352.259387 232.179856 
L 352.686016 238.517115 
L 353.112645 234.053448 
L 353.539275 234.49105 
L 353.965904 236.997564 
L 354.392533 241.175951 
L 354.819162 242.068291 
L 355.67242 253.503085 
L 356.099049 248.104463 
L 356.525679 247.212123 
L 356.952308 243.722788 
L 357.378937 244.414941 
L 357.805566 242.473174 
L 358.232195 242.659962 
L 358.658824 243.085536 
L 359.085453 243.977875 
L 359.512083 247.385579 
L 359.938712 237.780131 
L 360.365341 238.67247 
L 361.218599 247.185175 
L 361.645228 241.897344 
L 362.071857 239.055171 
L 362.498487 245.856761 
L 362.925116 248.153353 
L 363.778374 259.558904 
L 364.205003 267.631993 
L 364.631632 263.601844 
L 365.058261 263.601844 
L 365.484891 271.399505 
L 365.91152 273.381819 
L 366.764778 266.284234 
L 367.191407 274.639501 
L 367.618036 274.639501 
L 368.044665 269.081776 
L 368.471295 268.851906 
L 368.897924 263.564075 
L 369.324553 270.63017 
L 369.751182 270.241936 
L 370.177811 272.133322 
L 371.031069 276.568837 
L 371.457699 273.974942 
L 371.884328 273.830645 
L 372.310957 273.138493 
L 373.164215 282.422967 
L 373.590844 291.271331 
L 374.017473 294.679035 
L 374.444103 293.094543 
L 374.870732 293.508734 
L 375.297361 292.465056 
L 376.150619 299.747228 
L 376.577248 299.533225 
L 377.003877 298.640885 
L 377.430507 294.844947 
L 377.857136 294.001456 
L 378.283765 292.798675 
L 378.710394 300.84291 
L 379.137023 311.758173 
L 379.563652 312.815667 
L 379.990281 305.485404 
L 380.416911 309.585259 
L 380.84354 307.623285 
L 381.270169 304.215581 
L 381.696798 302.361195 
L 382.123427 302.361195 
L 382.550056 297.369 
L 383.403315 297.369 
L 383.829944 299.663318 
L 384.256573 291.293102 
L 385.109831 299.000849 
L 385.53646 308.404402 
L 385.963089 309.806381 
L 386.389719 303.418622 
L 386.816348 299.258534 
L 387.242977 298.693005 
L 387.669606 302.235592 
L 388.096235 296.947761 
L 388.522864 293.213247 
L 388.949493 291.489027 
L 389.376123 296.838896 
L 389.802752 282.403124 
L 390.229381 277.951743 
L 390.65601 267.937382 
L 391.082639 261.990182 
L 391.509268 265.724696 
L 391.935897 271.282421 
L 392.362527 279.041438 
L 392.789156 279.041438 
L 393.215785 277.139695 
L 393.642414 278.741183 
L 394.069043 277.848844 
L 394.922301 257.515155 
L 396.628818 218.906117 
L 397.055447 227.732782 
L 397.482076 228.883289 
L 397.908705 220.871624 
L 398.335335 208.737212 
L 398.761964 200.010504 
L 399.615222 193.341585 
L 400.46848 183.671371 
L 400.895109 180.6849 
L 401.321739 181.265379 
L 401.748368 177.857675 
L 402.174997 182.635867 
L 402.601626 175.612205 
L 403.028255 179.498057 
L 403.454884 174.80978 
L 403.881513 179.358102 
L 404.308143 185.584917 
L 404.734772 173.138326 
L 405.161401 184.205535 
L 405.58803 185.790027 
L 406.014659 180.505463 
L 406.441288 163.713334 
L 407.294547 190.849048 
L 407.721176 192.907383 
L 408.147805 193.364358 
L 408.574434 190.483167 
L 409.001063 177.624123 
L 409.854321 162.899154 
L 410.280951 150.764742 
L 410.70758 143.387566 
L 411.134209 140.745579 
L 411.987467 178.204634 
L 412.414096 185.642487 
L 412.840725 175.658096 
L 413.267355 168.350637 
L 413.693984 166.643297 
L 414.120613 162.906959 
L 414.547242 161.064301 
L 414.973871 169.720026 
L 415.827129 189.781406 
L 416.680388 178.104568 
L 417.107017 174.696864 
L 417.533646 177.14633 
L 417.960275 177.511672 
L 418.386904 179.461506 
L 418.813533 170.464904 
L 419.240163 173.394459 
L 419.666792 171.244437 
L 420.093421 171.244437 
L 420.52005 182.320473 
L 420.946679 182.320473 
L 421.373308 172.510483 
L 421.799937 180.794057 
L 422.226567 181.264556 
L 422.653196 190.556794 
L 423.079825 196.817536 
L 423.506454 211.667499 
L 423.933083 211.453495 
L 424.359712 204.311278 
L 424.786341 204.311278 
L 425.212971 207.437478 
L 425.6396 201.59196 
L 426.066229 218.185518 
L 426.492858 212.277548 
L 426.919487 218.823061 
L 427.346116 230.957473 
L 427.772745 247.227191 
L 428.199375 252.19467 
L 428.626004 247.160513 
L 429.052633 238.673233 
L 429.479262 242.125568 
L 430.33252 264.820222 
L 430.759149 262.931812 
L 431.185779 263.143382 
L 431.612408 273.343431 
L 432.039037 280.368584 
L 432.465666 290.920936 
L 432.892295 290.920936 
L 433.318924 300.539984 
L 434.172183 332.80024 
L 434.598812 335.507949 
L 435.025441 335.834759 
L 435.45207 330.94772 
L 435.878699 336.058471 
L 436.305328 328.350724 
L 436.731957 329.543102 
L 437.158587 329.543102 
L 437.585216 330.393008 
L 438.438474 348.213675 
L 438.865103 350.806832 
L 439.291732 350.860778 
L 439.718361 355.90033 
L 440.144991 369.569204 
L 440.57162 362.505518 
L 440.998249 357.927514 
L 441.424878 357.927514 
L 441.851507 368.326096 
L 442.278136 369.870303 
L 442.704765 382.667185 
L 443.131395 375.524968 
L 443.558024 386.956364 
L 443.984653 384.150898 
L 444.411282 385.40858 
L 444.837911 367.508189 
L 445.26454 373.058149 
L 445.691169 367.75639 
L 446.117799 364.505775 
L 446.544428 364.24714 
L 446.971057 365.094848 
L 447.397686 367.777919 
L 447.824315 382.062352 
L 448.250944 383.586613 
L 448.677573 382.678803 
L 449.104203 380.369678 
L 449.530832 372.150288 
L 450.38409 384.85023 
L 451.237348 364.704438 
L 451.663977 368.085327 
L 452.090607 368.777479 
L 452.517236 368.950284 
L 452.943865 369.872306 
L 453.370494 371.456798 
L 453.797123 369.068162 
L 454.223752 378.360401 
L 455.077011 363.582348 
L 455.50364 365.069485 
L 455.930269 364.543369 
L 456.356898 348.620497 
L 456.783527 350.430627 
L 457.210156 336.761753 
L 458.063415 343.892409 
L 458.490044 342.851831 
L 458.916673 328.941796 
L 459.343302 324.404076 
L 459.769931 322.069733 
L 460.19656 329.53876 
L 460.623189 327.692139 
L 461.049819 337.639821 
L 461.476448 339.345968 
L 461.903077 349.411991 
L 462.329706 337.763491 
L 463.182964 348.857326 
L 463.609593 351.6995 
L 464.036223 358.056673 
L 464.462852 351.152091 
L 464.889481 347.081918 
L 465.31611 344.251621 
L 465.742739 348.473132 
L 466.169368 342.7477 
L 466.595997 342.87111 
L 467.022627 332.062555 
L 467.449256 326.621894 
L 467.875885 323.884876 
L 468.302514 328.648741 
L 468.729143 324.710165 
L 469.155772 328.683398 
L 469.582402 343.2554 
L 470.862289 352.854657 
L 471.288918 345.442546 
L 471.715547 354.750255 
L 472.142176 355.529789 
L 472.568806 355.529789 
L 472.995435 352.825496 
L 473.422064 357.064115 
L 473.848693 344.291366 
L 474.275322 351.520964 
L 474.701951 356.224409 
L 475.12858 351.291866 
L 475.55521 352.332444 
L 475.981839 355.843897 
L 476.408468 366.545156 
L 477.261726 362.949295 
L 477.688355 366.986485 
L 478.114984 359.844268 
L 478.541614 349.172692 
L 478.968243 354.302769 
L 479.394872 357.383663 
L 479.821501 355.463511 
L 480.674759 347.381366 
L 481.101388 340.5225 
L 481.528018 346.201881 
L 481.954647 345.079671 
L 482.381276 338.588786 
L 482.807905 325.075036 
L 483.234534 330.481422 
L 483.661163 329.205083 
L 484.087792 332.984228 
L 484.514422 334.124846 
L 484.941051 339.904224 
L 485.36768 337.988414 
L 485.794309 337.988414 
L 486.220938 332.313625 
L 486.647567 331.722138 
L 487.074196 325.577418 
L 487.500826 325.577418 
L 487.927455 324.885265 
L 488.354084 327.553459 
L 488.780713 320.645454 
L 489.207342 319.86592 
L 489.633971 309.516187 
L 490.0606 304.765815 
L 490.48723 311.403926 
L 490.913859 323.965105 
L 491.340488 310.15882 
L 491.767117 305.455375 
L 492.193746 310.582454 
L 492.620375 304.473593 
L 493.047004 296.143401 
L 493.473634 285.593481 
L 493.900263 290.269964 
L 494.753521 274.091721 
L 495.18015 272.507229 
L 495.606779 278.064954 
L 496.033408 270.48922 
L 496.460038 267.647047 
L 496.886667 267.469751 
L 497.313296 266.893689 
L 497.739925 265.054109 
L 498.593183 262.383841 
L 499.019812 266.073723 
L 499.446442 273.056837 
L 499.873071 273.056837 
L 500.2997 267.65045 
L 500.726329 271.311567 
L 501.152958 277.931004 
L 501.579587 275.780983 
L 502.006216 274.444769 
L 502.432846 271.3273 
L 502.859475 266.549108 
L 503.286104 273.718475 
L 503.712733 263.311575 
L 504.139362 275.747258 
L 504.565991 267.12647 
L 504.99262 263.637135 
L 505.41925 267.784347 
L 505.845879 277.906129 
L 506.272508 277.906129 
L 507.125766 288.462505 
L 507.552395 287.204823 
L 507.979024 280.566711 
L 508.832283 293.179272 
L 509.258912 290.497851 
L 509.685541 296.606711 
L 510.11217 308.344607 
L 510.538799 313.406509 
L 511.392058 311.633624 
L 511.818687 312.759293 
L 512.671945 324.409384 
L 513.098574 324.258045 
L 513.525203 331.312881 
L 513.951832 325.764744 
L 514.378462 325.829764 
L 514.805091 325.264235 
L 515.23172 319.799108 
L 515.658349 319.799108 
L 516.084978 319.643553 
L 516.511607 310.151127 
L 516.938236 313.772834 
L 517.364866 316.356373 
L 518.218124 310.129003 
L 518.644753 311.898734 
L 519.071382 311.695087 
L 519.498011 319.738247 
L 519.92464 324.516439 
L 520.35127 318.356476 
L 521.204528 318.69415 
L 521.631157 322.027107 
L 522.057786 324.472765 
L 522.911044 310.04809 
L 523.337674 310.04809 
L 523.764303 306.430641 
L 524.190932 307.418428 
L 524.617561 305.772512 
L 525.04419 301.920935 
L 525.470819 301.920935 
L 525.897448 289.635184 
L 526.324078 287.189527 
L 526.750707 277.770666 
L 527.177336 274.362963 
L 527.603965 269.993213 
L 528.030594 274.32728 
L 528.457223 275.219619 
L 528.883852 275.219619 
L 529.310482 270.486059 
L 529.737111 267.304043 
L 530.16374 267.455381 
L 530.590369 266.977233 
L 531.016998 267.988431 
L 531.443627 266.579321 
L 531.870256 267.144851 
L 532.723515 276.462831 
L 533.150144 271.986535 
L 533.576773 276.231677 
L 534.430031 271.649455 
L 534.85666 270.472345 
L 535.28329 267.995513 
L 535.709919 266.225783 
L 536.136548 266.873304 
L 536.563177 251.559998 
L 537.416435 248.408789 
L 537.843064 253.026818 
L 538.269694 241.689715 
L 538.696323 243.935185 
L 539.122952 243.935185 
L 539.549581 243.790888 
L 539.97621 241.640866 
L 540.402839 243.225358 
L 541.256098 241.138991 
L 541.682727 241.607797 
L 542.109356 247.082398 
L 542.535985 247.082398 
L 542.962614 243.60652 
L 543.389243 244.49886 
L 543.815872 252.515742 
L 544.242502 252.515742 
L 544.669131 255.053997 
L 545.09576 246.923993 
L 545.522389 247.489522 
L 545.949018 244.213831 
L 546.375647 244.213831 
L 546.802276 245.354449 
L 547.228906 250.019835 
L 547.655535 253.427538 
L 548.508793 256.868224 
L 548.935422 256.868224 
L 549.362051 258.125906 
L 549.78868 246.95354 
L 550.21531 247.89551 
L 550.641939 256.652206 
L 551.068568 255.394524 
L 551.495197 255.029181 
L 551.921826 255.691651 
L 552.348455 255.691651 
L 552.775084 259.878888 
L 553.201714 260.771227 
L 553.628343 270.359101 
L 554.054972 261.280867 
L 554.481601 269.797262 
L 554.90823 260.583555 
L 555.334859 257.636225 
L 555.761488 260.678586 
L 556.188118 264.564438 
L 557.041376 249.6833 
L 557.468005 249.35649 
L 557.894634 246.481836 
L 558.321263 242.451687 
L 558.747892 244.32095 
L 559.174522 229.671174 
L 559.601151 230.928856 
L 560.02778 228.520199 
L 560.454409 231.283842 
L 560.881038 232.120291 
L 561.307667 221.243561 
L 561.734296 218.705305 
L 562.160926 223.993136 
L 562.587555 211.293194 
L 563.014184 216.718906 
L 563.440813 218.303398 
L 563.867442 213.529975 
L 564.294071 197.42233 
L 564.7207 185.98007 
L 565.573959 180.120251 
L 566.000588 171.393542 
L 566.427217 170.13586 
L 566.853846 185.112446 
L 567.280475 175.128056 
L 567.707104 175.414582 
L 568.133734 163.28017 
L 568.560363 166.322531 
L 568.986992 154.217801 
L 569.413621 146.973876 
L 569.84025 142.786639 
L 570.266879 151.081381 
L 570.693508 138.05463 
L 571.120138 148.804737 
L 571.546767 136.999808 
L 571.973396 142.557533 
L 572.400025 150.391902 
L 572.826654 128.669616 
L 573.253283 113.341504 
L 573.679912 119.288704 
L 574.106542 116.44653 
L 574.533171 117.33887 
L 575.386429 101.20005 
L 575.813058 93.661317 
L 576.239687 106.688068 
L 576.666316 105.430386 
L 577.092946 112.4135 
L 577.519575 108.757518 
L 577.946204 111.47307 
L 578.372833 130.184169 
L 578.799462 124.687868 
L 579.226091 111.151477 
L 579.65272 119.446219 
L 580.07935 108.003959 
L 580.932608 99.175542 
L 581.359237 110.617802 
L 581.785866 103.475585 
L 582.212495 102.840349 
L 582.639124 89.248068 
L 583.065754 97.974776 
L 583.919012 80.848169 
L 584.345641 90.832559 
L 584.77227 75.889997 
L 585.198899 80.19004 
L 585.625528 80.341379 
L 586.052158 98.233703 
L 586.478787 97.831306 
L 586.905416 95.681285 
L 587.332045 87.386543 
L 587.758674 92.164734 
L 588.185303 75.730279 
L 588.611932 80.498148 
L 589.038562 78.618021 
L 589.465191 75.210317 
L 589.89182 75.210317 
L 590.318449 95.252663 
L 590.745078 79.861886 
L 591.171707 85.960425 
L 591.598336 85.068085 
L 592.024966 92.331958 
L 592.451595 105.35871 
L 592.878224 111.639761 
L 593.731482 96.336366 
L 594.158111 95.704837 
L 594.58474 87.456277 
L 595.01137 85.306255 
L 595.437999 67.073305 
L 595.864628 71.311923 
L 596.291257 79.560483 
L 596.717886 75.931127 
L 597.144515 77.754338 
L 597.571144 75.755655 
L 597.997774 66.790227 
L 598.424403 54.655815 
L 598.851032 57.698176 
L 599.277661 52.410345 
L 599.70429 52.410345 
L 600.130919 43.683636 
L 600.557548 52.975875 
L 600.984178 46.52581 
L 601.410807 50.411662 
L 602.264065 62.639412 
L 602.690694 59.445712 
L 603.117323 61.343413 
L 603.543952 69.444474 
L 603.970582 67.046174 
L 604.397211 67.046174 
L 604.82384 70.302539 
L 605.250469 93.313681 
L 605.677098 93.313681 
L 606.103727 95.193809 
L 606.530356 94.301469 
L 606.956986 101.947791 
L 607.383615 90.305344 
L 607.810244 106.739799 
L 608.236873 113.555206 
L 608.663502 108.889821 
L 609.090131 114.32589 
L 609.51676 114.32589 
L 609.94339 116.094201 
L 610.370019 118.370845 
L 611.223277 130.930546 
L 611.649906 142.221467 
L 612.076535 141.991597 
L 612.503164 150.240157 
L 612.929794 153.647861 
L 613.356423 153.647861 
L 614.209681 169.843596 
L 614.63631 171.974292 
L 615.062939 192.14326 
L 615.489568 203.233994 
L 615.916198 211.068363 
L 616.769456 244.868146 
L 617.196085 252.902702 
L 617.622714 248.602659 
L 618.049343 250.752681 
L 618.475972 247.759168 
L 618.902602 254.415472 
L 619.329231 252.035581 
L 619.75586 252.035581 
L 620.182489 243.687815 
L 620.609118 242.485034 
L 621.035747 248.291037 
L 621.462376 244.683147 
L 621.889006 249.675342 
L 622.315635 242.954358 
L 622.742264 242.954358 
L 624.022151 266.88809 
L 624.44878 269.930451 
L 624.87541 269.930451 
L 625.302039 267.000896 
L 625.728668 273.816303 
L 626.155297 272.558621 
L 626.581926 272.558621 
L 627.008555 266.363644 
L 627.435184 271.35584 
L 627.861814 272.047992 
L 628.288443 271.155652 
L 628.715072 271.935186 
L 629.141701 273.102678 
L 629.56833 275.2527 
L 630.848218 271.366848 
L 631.274847 271.145195 
L 631.701476 275.678568 
L 632.128105 271.944054 
L 632.554734 272.573541 
L 632.981363 274.723563 
L 633.407992 269.492648 
L 633.834622 267.342626 
L 634.261251 268.034779 
L 634.68788 277.977533 
L 635.114509 283.091384 
L 635.541138 276.64132 
L 635.967767 273.925769 
L 636.821026 283.537053 
L 637.247655 279.683015 
L 637.674284 280.431057 
L 638.100913 279.173375 
L 638.527542 282.781266 
L 638.954171 282.781266 
L 639.380801 282.925563 
L 639.80743 282.925563 
L 640.234059 275.487711 
L 640.660688 288.514462 
L 642.367205 288.514462 
L 642.793834 276.628329 
L 643.220463 276.628329 
L 643.647092 275.120429 
L 644.073721 275.041898 
L 644.50035 267.773058 
L 644.926979 263.473015 
L 645.780238 248.876099 
L 646.206867 246.897898 
L 646.633496 234.763486 
L 647.060125 236.021168 
L 647.486754 232.764803 
L 647.913383 223.472565 
L 648.340013 223.694218 
L 648.766642 216.446845 
L 649.6199 208.249763 
L 651.326417 185.823476 
L 651.753046 174.684464 
L 652.179675 173.870656 
L 652.606304 179.428381 
L 653.032933 163.886265 
L 653.459562 155.93909 
L 653.886191 141.813759 
L 654.312821 144.471539 
L 654.73945 143.320565 
L 655.166079 136.329686 
L 655.592708 126.345296 
L 656.019337 123.176312 
L 656.445966 117.942294 
L 656.872595 114.407967 
L 657.299225 103.531237 
L 657.725854 83.463977 
L 658.152483 78.837124 
L 658.579112 71.694907 
L 659.005741 71.694907 
L 659.43237 60.252647 
L 659.858999 66.076951 
L 660.285629 66.076951 
L 660.712258 56.70812 
L 661.138887 56.372461 
L 661.565516 63.209334 
L 661.992145 67.509377 
L 662.418774 75.543933 
L 662.845403 72.468038 
L 663.272033 65.47406 
L 663.698662 77.173108 
L 664.125291 75.982134 
L 664.55192 76.970095 
L 665.405178 86.888468 
L 665.831807 95.475618 
L 666.258437 101.744943 
L 666.685066 98.767886 
L 667.538324 106.567173 
L 667.964953 119.559267 
L 668.391582 113.109203 
L 668.818211 117.046753 
L 669.244841 109.012196 
L 669.67147 112.785242 
L 671.377986 143.920855 
L 671.804615 133.62957 
L 672.231245 136.734597 
L 672.657874 146.718987 
L 673.084503 145.525263 
L 673.511132 157.209346 
L 673.937761 160.743672 
L 674.36439 165.837575 
L 674.791019 168.012511 
L 675.217649 177.561853 
L 675.644278 174.719679 
L 676.070907 175.681725 
L 678.204053 200.013988 
L 678.630682 201.011484 
L 679.057311 193.177115 
L 679.48394 198.010208 
L 679.910569 197.676223 
L 680.337198 201.85461 
L 680.763827 201.344153 
L 681.190457 199.000801 
L 681.617086 198.032287 
L 682.043715 193.544527 
L 682.470344 190.415274 
L 682.896973 182.260091 
L 683.323602 176.941086 
L 683.750231 180.110069 
L 684.176861 181.983312 
L 684.60349 181.983312 
L 685.030119 180.433477 
L 685.456748 186.59344 
L 685.883377 188.152191 
L 686.310006 186.567699 
L 686.736635 176.910118 
L 687.163265 174.681565 
L 687.589894 176.466244 
L 688.016523 177.509922 
L 688.443152 174.350497 
L 688.869781 179.084058 
L 689.29641 173.350861 
L 689.723039 173.350861 
L 690.149669 173.979056 
L 691.002927 159.947669 
L 691.429556 165.730496 
L 691.856185 162.888322 
L 692.282814 156.222239 
L 692.709443 162.313013 
L 693.136073 155.666619 
L 693.562702 160.756142 
L 693.989331 157.76263 
L 694.41596 153.39288 
L 694.842589 167.743079 
L 695.269218 164.822374 
L 695.695847 164.822374 
L 696.122477 171.24811 
L 696.549106 154.280606 
L 696.975735 161.32329 
L 697.828993 148.53985 
L 698.682251 138.821738 
L 699.108881 141.185763 
L 699.53551 137.381543 
L 699.962139 142.939268 
L 700.388768 140.325425 
L 700.815397 144.625468 
L 701.242026 144.99081 
L 701.668655 145.761494 
L 702.095285 130.911531 
L 702.521914 128.700085 
L 702.948543 128.700085 
L 703.375172 139.362811 
L 703.801801 145.247346 
L 704.22843 153.974055 
L 704.655059 152.548666 
L 705.081689 153.655009 
L 705.508318 146.064327 
L 705.934947 150.623005 
L 706.361576 162.392075 
L 706.788205 154.745752 
L 707.214834 157.957861 
L 707.641463 154.892323 
L 708.068093 159.40637 
L 708.921351 148.237104 
L 709.34798 148.547545 
L 709.774609 147.207143 
L 710.201238 152.891491 
L 710.627867 154.300124 
L 711.054497 151.496482 
L 711.481126 144.202927 
L 711.907755 124.630663 
L 712.334384 126.293686 
L 712.761013 124.143664 
L 713.187642 120.48157 
L 714.040901 124.367422 
L 714.894159 144.581022 
L 715.320788 152.456476 
L 715.747417 153.962436 
L 716.174046 159.846971 
L 716.600675 149.366758 
L 717.027305 150.62444 
L 717.453934 156.407266 
L 717.880563 154.874045 
L 718.307192 162.638708 
L 718.733821 162.638708 
L 719.16045 178.111116 
L 719.587079 185.548969 
L 720.013709 183.20702 
L 720.866967 180.774187 
L 721.293596 179.794739 
L 721.720225 182.892001 
L 722.146854 175.335593 
L 722.573483 183.04334 
L 723.000113 182.681872 
L 723.426742 180.531851 
L 723.853371 188.178173 
L 724.28 188.700578 
L 724.28 188.700578 
" style="fill:none;stroke:#ff7f0e;stroke-linecap:square;stroke-width:1.5;"/>
   </g>
   <g id="patch_3">
    <path d="M 42.1 404.12 
L 42.1 26.52 
" style="fill:none;stroke:#000000;stroke-linecap:square;stroke-linejoin:miter;stroke-width:0.8;"/>
   </g>
   <g id="patch_4">
    <path d="M 724.28 404.12 
L 724.28 26.52 
" style="fill:none;stroke:#000000;stroke-linecap:square;stroke-linejoin:miter;stroke-width:0.8;"/>
   </g>
   <g id="patch_5">
    <path d="M 42.1 404.12 
L 724.28 404.12 
" style="fill:none;stroke:#000000;stroke-linecap:square;stroke-linejoin:miter;stroke-width:0.8;"/>
   </g>
   <g id="patch_6">
    <path d="M 42.1 26.52 
L 724.28 26.52 
" style="fill:none;stroke:#000000;stroke-linecap:square;stroke-linejoin:miter;stroke-width:0.8;"/>
   </g>
   <g id="text_15">
    <!-- gridworld_5x5_100_2_8_1337__1: episode duration in steps log-relative to `htm_1_1g`, MA=40 -->
    <defs>
     <path d="M 45.40625 27.984375 
Q 45.40625 37.75 41.375 43.109375 
Q 37.359375 48.484375 30.078125 48.484375 
Q 22.859375 48.484375 18.828125 43.109375 
Q 14.796875 37.75 14.796875 27.984375 
Q 14.796875 18.265625 18.828125 12.890625 
Q 22.859375 7.515625 30.078125 7.515625 
Q 37.359375 7.515625 41.375 12.890625 
Q 45.40625 18.265625 45.40625 27.984375 
z
M 54.390625 6.78125 
Q 54.390625 -7.171875 48.1875 -13.984375 
Q 42 -20.796875 29.203125 -20.796875 
Q 24.46875 -20.796875 20.265625 -20.09375 
Q 16.0625 -19.390625 12.109375 -17.921875 
L 12.109375 -9.1875 
Q 16.0625 -11.328125 19.921875 -12.34375 
Q 23.78125 -13.375 27.78125 -13.375 
Q 36.625 -13.375 41.015625 -8.765625 
Q 45.40625 -4.15625 45.40625 5.171875 
L 45.40625 9.625 
Q 42.625 4.78125 38.28125 2.390625 
Q 33.9375 0 27.875 0 
Q 17.828125 0 11.671875 7.65625 
Q 5.515625 15.328125 5.515625 27.984375 
Q 5.515625 40.671875 11.671875 48.328125 
Q 17.828125 56 27.875 56 
Q 33.9375 56 38.28125 53.609375 
Q 42.625 51.21875 45.40625 46.390625 
L 45.40625 54.6875 
L 54.390625 54.6875 
z
" id="DejaVuSans-103"/>
     <path d="M 41.109375 46.296875 
Q 39.59375 47.171875 37.8125 47.578125 
Q 36.03125 48 33.890625 48 
Q 26.265625 48 22.1875 43.046875 
Q 18.109375 38.09375 18.109375 28.8125 
L 18.109375 0 
L 9.078125 0 
L 9.078125 54.6875 
L 18.109375 54.6875 
L 18.109375 46.1875 
Q 20.953125 51.171875 25.484375 53.578125 
Q 30.03125 56 36.53125 56 
Q 37.453125 56 38.578125 55.875 
Q 39.703125 55.765625 41.0625 55.515625 
z
" id="DejaVuSans-114"/>
     <path d="M 9.421875 54.6875 
L 18.40625 54.6875 
L 18.40625 0 
L 9.421875 0 
z
M 9.421875 75.984375 
L 18.40625 75.984375 
L 18.40625 64.59375 
L 9.421875 64.59375 
z
" id="DejaVuSans-105"/>
     <path d="M 45.40625 46.390625 
L 45.40625 75.984375 
L 54.390625 75.984375 
L 54.390625 0 
L 45.40625 0 
L 45.40625 8.203125 
Q 42.578125 3.328125 38.25 0.953125 
Q 33.9375 -1.421875 27.875 -1.421875 
Q 17.96875 -1.421875 11.734375 6.484375 
Q 5.515625 14.40625 5.515625 27.296875 
Q 5.515625 40.1875 11.734375 48.09375 
Q 17.96875 56 27.875 56 
Q 33.9375 56 38.25 53.625 
Q 42.578125 51.265625 45.40625 46.390625 
z
M 14.796875 27.296875 
Q 14.796875 17.390625 18.875 11.75 
Q 22.953125 6.109375 30.078125 6.109375 
Q 37.203125 6.109375 41.296875 11.75 
Q 45.40625 17.390625 45.40625 27.296875 
Q 45.40625 37.203125 41.296875 42.84375 
Q 37.203125 48.484375 30.078125 48.484375 
Q 22.953125 48.484375 18.875 42.84375 
Q 14.796875 37.203125 14.796875 27.296875 
z
" id="DejaVuSans-100"/>
     <path d="M 4.203125 54.6875 
L 13.1875 54.6875 
L 24.421875 12.015625 
L 35.59375 54.6875 
L 46.1875 54.6875 
L 57.421875 12.015625 
L 68.609375 54.6875 
L 77.59375 54.6875 
L 63.28125 0 
L 52.6875 0 
L 40.921875 44.828125 
L 29.109375 0 
L 18.5 0 
z
" id="DejaVuSans-119"/>
     <path d="M 30.609375 48.390625 
Q 23.390625 48.390625 19.1875 42.75 
Q 14.984375 37.109375 14.984375 27.296875 
Q 14.984375 17.484375 19.15625 11.84375 
Q 23.34375 6.203125 30.609375 6.203125 
Q 37.796875 6.203125 41.984375 11.859375 
Q 46.1875 17.53125 46.1875 27.296875 
Q 46.1875 37.015625 41.984375 42.703125 
Q 37.796875 48.390625 30.609375 48.390625 
z
M 30.609375 56 
Q 42.328125 56 49.015625 48.375 
Q 55.71875 40.765625 55.71875 27.296875 
Q 55.71875 13.875 49.015625 6.21875 
Q 42.328125 -1.421875 30.609375 -1.421875 
Q 18.84375 -1.421875 12.171875 6.21875 
Q 5.515625 13.875 5.515625 27.296875 
Q 5.515625 40.765625 12.171875 48.375 
Q 18.84375 56 30.609375 56 
z
" id="DejaVuSans-111"/>
     <path d="M 9.421875 75.984375 
L 18.40625 75.984375 
L 18.40625 0 
L 9.421875 0 
z
" id="DejaVuSans-108"/>
     <path d="M 50.984375 -16.609375 
L 50.984375 -23.578125 
L -0.984375 -23.578125 
L -0.984375 -16.609375 
z
" id="DejaVuSans-95"/>
     <path d="M 54.890625 54.6875 
L 35.109375 28.078125 
L 55.90625 0 
L 45.3125 0 
L 29.390625 21.484375 
L 13.484375 0 
L 2.875 0 
L 24.125 28.609375 
L 4.6875 54.6875 
L 15.28125 54.6875 
L 29.78125 35.203125 
L 44.28125 54.6875 
z
" id="DejaVuSans-120"/>
     <path d="M 40.578125 39.3125 
Q 47.65625 37.796875 51.625 33 
Q 55.609375 28.21875 55.609375 21.1875 
Q 55.609375 10.40625 48.1875 4.484375 
Q 40.765625 -1.421875 27.09375 -1.421875 
Q 22.515625 -1.421875 17.65625 -0.515625 
Q 12.796875 0.390625 7.625 2.203125 
L 7.625 11.71875 
Q 11.71875 9.328125 16.59375 8.109375 
Q 21.484375 6.890625 26.8125 6.890625 
Q 36.078125 6.890625 40.9375 10.546875 
Q 45.796875 14.203125 45.796875 21.1875 
Q 45.796875 27.640625 41.28125 31.265625 
Q 36.765625 34.90625 28.71875 34.90625 
L 20.21875 34.90625 
L 20.21875 43.015625 
L 29.109375 43.015625 
Q 36.375 43.015625 40.234375 45.921875 
Q 44.09375 48.828125 44.09375 54.296875 
Q 44.09375 59.90625 40.109375 62.90625 
Q 36.140625 65.921875 28.71875 65.921875 
Q 24.65625 65.921875 20.015625 65.03125 
Q 15.375 64.15625 9.8125 62.3125 
L 9.8125 71.09375 
Q 15.4375 72.65625 20.34375 73.4375 
Q 25.25 74.21875 29.59375 74.21875 
Q 40.828125 74.21875 47.359375 69.109375 
Q 53.90625 64.015625 53.90625 55.328125 
Q 53.90625 49.265625 50.4375 45.09375 
Q 46.96875 40.921875 40.578125 39.3125 
z
" id="DejaVuSans-51"/>
     <path d="M 8.203125 72.90625 
L 55.078125 72.90625 
L 55.078125 68.703125 
L 28.609375 0 
L 18.3125 0 
L 43.21875 64.59375 
L 8.203125 64.59375 
z
" id="DejaVuSans-55"/>
     <path d="M 11.71875 12.40625 
L 22.015625 12.40625 
L 22.015625 0 
L 11.71875 0 
z
M 11.71875 51.703125 
L 22.015625 51.703125 
L 22.015625 39.3125 
L 11.71875 39.3125 
z
" id="DejaVuSans-58"/>
     <path id="DejaVuSans-32"/>
     <path d="M 56.203125 29.59375 
L 56.203125 25.203125 
L 14.890625 25.203125 
Q 15.484375 15.921875 20.484375 11.0625 
Q 25.484375 6.203125 34.421875 6.203125 
Q 39.59375 6.203125 44.453125 7.46875 
Q 49.3125 8.734375 54.109375 11.28125 
L 54.109375 2.78125 
Q 49.265625 0.734375 44.1875 -0.34375 
Q 39.109375 -1.421875 33.890625 -1.421875 
Q 20.796875 -1.421875 13.15625 6.1875 
Q 5.515625 13.8125 5.515625 26.8125 
Q 5.515625 40.234375 12.765625 48.109375 
Q 20.015625 56 32.328125 56 
Q 43.359375 56 49.78125 48.890625 
Q 56.203125 41.796875 56.203125 29.59375 
z
M 47.21875 32.234375 
Q 47.125 39.59375 43.09375 43.984375 
Q 39.0625 48.390625 32.421875 48.390625 
Q 24.90625 48.390625 20.390625 44.140625 
Q 15.875 39.890625 15.1875 32.171875 
z
" id="DejaVuSans-101"/>
     <path d="M 18.109375 8.203125 
L 18.109375 -20.796875 
L 9.078125 -20.796875 
L 9.078125 54.6875 
L 18.109375 54.6875 
L 18.109375 46.390625 
Q 20.953125 51.265625 25.265625 53.625 
Q 29.59375 56 35.59375 56 
Q 45.5625 56 51.78125 48.09375 
Q 58.015625 40.1875 58.015625 27.296875 
Q 58.015625 14.40625 51.78125 6.484375 
Q 45.5625 -1.421875 35.59375 -1.421875 
Q 29.59375 -1.421875 25.265625 0.953125 
Q 20.953125 3.328125 18.109375 8.203125 
z
M 48.6875 27.296875 
Q 48.6875 37.203125 44.609375 42.84375 
Q 40.53125 48.484375 33.40625 48.484375 
Q 26.265625 48.484375 22.1875 42.84375 
Q 18.109375 37.203125 18.109375 27.296875 
Q 18.109375 17.390625 22.1875 11.75 
Q 26.265625 6.109375 33.40625 6.109375 
Q 40.53125 6.109375 44.609375 11.75 
Q 48.6875 17.390625 48.6875 27.296875 
z
" id="DejaVuSans-112"/>
     <path d="M 44.28125 53.078125 
L 44.28125 44.578125 
Q 40.484375 46.53125 36.375 47.5 
Q 32.28125 48.484375 27.875 48.484375 
Q 21.1875 48.484375 17.84375 46.4375 
Q 14.5 44.390625 14.5 40.28125 
Q 14.5 37.15625 16.890625 35.375 
Q 19.28125 33.59375 26.515625 31.984375 
L 29.59375 31.296875 
Q 39.15625 29.25 43.1875 25.515625 
Q 47.21875 21.78125 47.21875 15.09375 
Q 47.21875 7.46875 41.1875 3.015625 
Q 35.15625 -1.421875 24.609375 -1.421875 
Q 20.21875 -1.421875 15.453125 -0.5625 
Q 10.6875 0.296875 5.421875 2 
L 5.421875 11.28125 
Q 10.40625 8.6875 15.234375 7.390625 
Q 20.0625 6.109375 24.8125 6.109375 
Q 31.15625 6.109375 34.5625 8.28125 
Q 37.984375 10.453125 37.984375 14.40625 
Q 37.984375 18.0625 35.515625 20.015625 
Q 33.0625 21.96875 24.703125 23.78125 
L 21.578125 24.515625 
Q 13.234375 26.265625 9.515625 29.90625 
Q 5.8125 33.546875 5.8125 39.890625 
Q 5.8125 47.609375 11.28125 51.796875 
Q 16.75 56 26.8125 56 
Q 31.78125 56 36.171875 55.265625 
Q 40.578125 54.546875 44.28125 53.078125 
z
" id="DejaVuSans-115"/>
     <path d="M 8.5 21.578125 
L 8.5 54.6875 
L 17.484375 54.6875 
L 17.484375 21.921875 
Q 17.484375 14.15625 20.5 10.265625 
Q 23.53125 6.390625 29.59375 6.390625 
Q 36.859375 6.390625 41.078125 11.03125 
Q 45.3125 15.671875 45.3125 23.6875 
L 45.3125 54.6875 
L 54.296875 54.6875 
L 54.296875 0 
L 45.3125 0 
L 45.3125 8.40625 
Q 42.046875 3.421875 37.71875 1 
Q 33.40625 -1.421875 27.6875 -1.421875 
Q 18.265625 -1.421875 13.375 4.4375 
Q 8.5 10.296875 8.5 21.578125 
z
M 31.109375 56 
z
" id="DejaVuSans-117"/>
     <path d="M 34.28125 27.484375 
Q 23.390625 27.484375 19.1875 25 
Q 14.984375 22.515625 14.984375 16.5 
Q 14.984375 11.71875 18.140625 8.90625 
Q 21.296875 6.109375 26.703125 6.109375 
Q 34.1875 6.109375 38.703125 11.40625 
Q 43.21875 16.703125 43.21875 25.484375 
L 43.21875 27.484375 
z
M 52.203125 31.203125 
L 52.203125 0 
L 43.21875 0 
L 43.21875 8.296875 
Q 40.140625 3.328125 35.546875 0.953125 
Q 30.953125 -1.421875 24.3125 -1.421875 
Q 15.921875 -1.421875 10.953125 3.296875 
Q 6 8.015625 6 15.921875 
Q 6 25.140625 12.171875 29.828125 
Q 18.359375 34.515625 30.609375 34.515625 
L 43.21875 34.515625 
L 43.21875 35.40625 
Q 43.21875 41.609375 39.140625 45 
Q 35.0625 48.390625 27.6875 48.390625 
Q 23 48.390625 18.546875 47.265625 
Q 14.109375 46.140625 10.015625 43.890625 
L 10.015625 52.203125 
Q 14.9375 54.109375 19.578125 55.046875 
Q 24.21875 56 28.609375 56 
Q 40.484375 56 46.34375 49.84375 
Q 52.203125 43.703125 52.203125 31.203125 
z
" id="DejaVuSans-97"/>
     <path d="M 18.3125 70.21875 
L 18.3125 54.6875 
L 36.8125 54.6875 
L 36.8125 47.703125 
L 18.3125 47.703125 
L 18.3125 18.015625 
Q 18.3125 11.328125 20.140625 9.421875 
Q 21.96875 7.515625 27.59375 7.515625 
L 36.8125 7.515625 
L 36.8125 0 
L 27.59375 0 
Q 17.1875 0 13.234375 3.875 
Q 9.28125 7.765625 9.28125 18.015625 
L 9.28125 47.703125 
L 2.6875 47.703125 
L 2.6875 54.6875 
L 9.28125 54.6875 
L 9.28125 70.21875 
z
" id="DejaVuSans-116"/>
     <path d="M 54.890625 33.015625 
L 54.890625 0 
L 45.90625 0 
L 45.90625 32.71875 
Q 45.90625 40.484375 42.875 44.328125 
Q 39.84375 48.1875 33.796875 48.1875 
Q 26.515625 48.1875 22.3125 43.546875 
Q 18.109375 38.921875 18.109375 30.90625 
L 18.109375 0 
L 9.078125 0 
L 9.078125 54.6875 
L 18.109375 54.6875 
L 18.109375 46.1875 
Q 21.34375 51.125 25.703125 53.5625 
Q 30.078125 56 35.796875 56 
Q 45.21875 56 50.046875 50.171875 
Q 54.890625 44.34375 54.890625 33.015625 
z
" id="DejaVuSans-110"/>
     <path d="M 4.890625 31.390625 
L 31.203125 31.390625 
L 31.203125 23.390625 
L 4.890625 23.390625 
z
" id="DejaVuSans-45"/>
     <path d="M 2.984375 54.6875 
L 12.5 54.6875 
L 29.59375 8.796875 
L 46.6875 54.6875 
L 56.203125 54.6875 
L 35.6875 0 
L 23.484375 0 
z
" id="DejaVuSans-118"/>
     <path d="M 17.921875 79.984375 
L 31.6875 61.71875 
L 24.21875 61.71875 
L 8.296875 79.984375 
z
" id="DejaVuSans-96"/>
     <path d="M 54.890625 33.015625 
L 54.890625 0 
L 45.90625 0 
L 45.90625 32.71875 
Q 45.90625 40.484375 42.875 44.328125 
Q 39.84375 48.1875 33.796875 48.1875 
Q 26.515625 48.1875 22.3125 43.546875 
Q 18.109375 38.921875 18.109375 30.90625 
L 18.109375 0 
L 9.078125 0 
L 9.078125 75.984375 
L 18.109375 75.984375 
L 18.109375 46.1875 
Q 21.34375 51.125 25.703125 53.5625 
Q 30.078125 56 35.796875 56 
Q 45.21875 56 50.046875 50.171875 
Q 54.890625 44.34375 54.890625 33.015625 
z
" id="DejaVuSans-104"/>
     <path d="M 52 44.1875 
Q 55.375 50.25 60.0625 53.125 
Q 64.75 56 71.09375 56 
Q 79.640625 56 84.28125 50.015625 
Q 88.921875 44.046875 88.921875 33.015625 
L 88.921875 0 
L 79.890625 0 
L 79.890625 32.71875 
Q 79.890625 40.578125 77.09375 44.375 
Q 74.3125 48.1875 68.609375 48.1875 
Q 61.625 48.1875 57.5625 43.546875 
Q 53.515625 38.921875 53.515625 30.90625 
L 53.515625 0 
L 44.484375 0 
L 44.484375 32.71875 
Q 44.484375 40.625 41.703125 44.40625 
Q 38.921875 48.1875 33.109375 48.1875 
Q 26.21875 48.1875 22.15625 43.53125 
Q 18.109375 38.875 18.109375 30.90625 
L 18.109375 0 
L 9.078125 0 
L 9.078125 54.6875 
L 18.109375 54.6875 
L 18.109375 46.1875 
Q 21.1875 51.21875 25.484375 53.609375 
Q 29.78125 56 35.6875 56 
Q 41.65625 56 45.828125 52.96875 
Q 50 49.953125 52 44.1875 
z
" id="DejaVuSans-109"/>
     <path d="M 11.71875 12.40625 
L 22.015625 12.40625 
L 22.015625 4 
L 14.015625 -11.625 
L 7.71875 -11.625 
L 11.71875 4 
z
" id="DejaVuSans-44"/>
     <path d="M 9.8125 72.90625 
L 24.515625 72.90625 
L 43.109375 23.296875 
L 61.8125 72.90625 
L 76.515625 72.90625 
L 76.515625 0 
L 66.890625 0 
L 66.890625 64.015625 
L 48.09375 14.015625 
L 38.1875 14.015625 
L 19.390625 64.015625 
L 19.390625 0 
L 9.8125 0 
z
" id="DejaVuSans-77"/>
     <path d="M 34.1875 63.1875 
L 20.796875 26.90625 
L 47.609375 26.90625 
z
M 28.609375 72.90625 
L 39.796875 72.90625 
L 67.578125 0 
L 57.328125 0 
L 50.6875 18.703125 
L 17.828125 18.703125 
L 11.1875 0 
L 0.78125 0 
z
" id="DejaVuSans-65"/>
     <path d="M 10.59375 45.40625 
L 73.1875 45.40625 
L 73.1875 37.203125 
L 10.59375 37.203125 
z
M 10.59375 25.484375 
L 73.1875 25.484375 
L 73.1875 17.1875 
L 10.59375 17.1875 
z
" id="DejaVuSans-61"/>
    </defs>
    <g transform="translate(97.60125 20.52)scale(0.12 -0.12)">
     <use xlink:href="#DejaVuSans-103"/>
     <use x="63.476562" xlink:href="#DejaVuSans-114"/>
     <use x="104.589844" xlink:href="#DejaVuSans-105"/>
     <use x="132.373047" xlink:href="#DejaVuSans-100"/>
     <use x="195.849609" xlink:href="#DejaVuSans-119"/>
     <use x="277.636719" xlink:href="#DejaVuSans-111"/>
     <use x="338.818359" xlink:href="#DejaVuSans-114"/>
     <use x="379.931641" xlink:href="#DejaVuSans-108"/>
     <use x="407.714844" xlink:href="#DejaVuSans-100"/>
     <use x="471.191406" xlink:href="#DejaVuSans-95"/>
     <use x="521.191406" xlink:href="#DejaVuSans-53"/>
     <use x="584.814453" xlink:href="#DejaVuSans-120"/>
     <use x="643.994141" xlink:href="#DejaVuSans-53"/>
     <use x="707.617188" xlink:href="#DejaVuSans-95"/>
     <use x="757.617188" xlink:href="#DejaVuSans-49"/>
     <use x="821.240234" xlink:href="#DejaVuSans-48"/>
     <use x="884.863281" xlink:href="#DejaVuSans-48"/>
     <use x="948.486328" xlink:href="#DejaVuSans-95"/>
     <use x="998.486328" xlink:href="#DejaVuSans-50"/>
     <use x="1062.109375" xlink:href="#DejaVuSans-95"/>
     <use x="1112.109375" xlink:href="#DejaVuSans-56"/>
     <use x="1175.732422" xlink:href="#DejaVuSans-95"/>
     <use x="1225.732422" xlink:href="#DejaVuSans-49"/>
     <use x="1289.355469" xlink:href="#DejaVuSans-51"/>
     <use x="1352.978516" xlink:href="#DejaVuSans-51"/>
     <use x="1416.601562" xlink:href="#DejaVuSans-55"/>
     <use x="1480.224609" xlink:href="#DejaVuSans-95"/>
     <use x="1530.224609" xlink:href="#DejaVuSans-95"/>
     <use x="1580.224609" xlink:href="#DejaVuSans-49"/>
     <use x="1643.847656" xlink:href="#DejaVuSans-58"/>
     <use x="1677.539062" xlink:href="#DejaVuSans-32"/>
     <use x="1709.326172" xlink:href="#DejaVuSans-101"/>
     <use x="1770.849609" xlink:href="#DejaVuSans-112"/>
     <use x="1834.326172" xlink:href="#DejaVuSans-105"/>
     <use x="1862.109375" xlink:href="#DejaVuSans-115"/>
     <use x="1914.208984" xlink:href="#DejaVuSans-111"/>
     <use x="1975.390625" xlink:href="#DejaVuSans-100"/>
     <use x="2038.867188" xlink:href="#DejaVuSans-101"/>
     <use x="2100.390625" xlink:href="#DejaVuSans-32"/>
     <use x="2132.177734" xlink:href="#DejaVuSans-100"/>
     <use x="2195.654297" xlink:href="#DejaVuSans-117"/>
     <use x="2259.033203" xlink:href="#DejaVuSans-114"/>
     <use x="2300.146484" xlink:href="#DejaVuSans-97"/>
     <use x="2361.425781" xlink:href="#DejaVuSans-116"/>
     <use x="2400.634766" xlink:href="#DejaVuSans-105"/>
     <use x="2428.417969" xlink:href="#DejaVuSans-111"/>
     <use x="2489.599609" xlink:href="#DejaVuSans-110"/>
     <use x="2552.978516" xlink:href="#DejaVuSans-32"/>
     <use x="2584.765625" xlink:href="#DejaVuSans-105"/>
     <use x="2612.548828" xlink:href="#DejaVuSans-110"/>
     <use x="2675.927734" xlink:href="#DejaVuSans-32"/>
     <use x="2707.714844" xlink:href="#DejaVuSans-115"/>
     <use x="2759.814453" xlink:href="#DejaVuSans-116"/>
     <use x="2799.023438" xlink:href="#DejaVuSans-101"/>
     <use x="2860.546875" xlink:href="#DejaVuSans-112"/>
     <use x="2924.023438" xlink:href="#DejaVuSans-115"/>
     <use x="2976.123047" xlink:href="#DejaVuSans-32"/>
     <use x="3007.910156" xlink:href="#DejaVuSans-108"/>
     <use x="3035.693359" xlink:href="#DejaVuSans-111"/>
     <use x="3096.875" xlink:href="#DejaVuSans-103"/>
     <use x="3160.351562" xlink:href="#DejaVuSans-45"/>
     <use x="3196.435547" xlink:href="#DejaVuSans-114"/>
     <use x="3237.517578" xlink:href="#DejaVuSans-101"/>
     <use x="3299.041016" xlink:href="#DejaVuSans-108"/>
     <use x="3326.824219" xlink:href="#DejaVuSans-97"/>
     <use x="3388.103516" xlink:href="#DejaVuSans-116"/>
     <use x="3427.3125" xlink:href="#DejaVuSans-105"/>
     <use x="3455.095703" xlink:href="#DejaVuSans-118"/>
     <use x="3514.275391" xlink:href="#DejaVuSans-101"/>
     <use x="3575.798828" xlink:href="#DejaVuSans-32"/>
     <use x="3607.585938" xlink:href="#DejaVuSans-116"/>
     <use x="3646.794922" xlink:href="#DejaVuSans-111"/>
     <use x="3707.976562" xlink:href="#DejaVuSans-32"/>
     <use x="3739.763672" xlink:href="#DejaVuSans-96"/>
     <use x="3789.763672" xlink:href="#DejaVuSans-104"/>
     <use x="3853.142578" xlink:href="#DejaVuSans-116"/>
     <use x="3892.351562" xlink:href="#DejaVuSans-109"/>
     <use x="3989.763672" xlink:href="#DejaVuSans-95"/>
     <use x="4039.763672" xlink:href="#DejaVuSans-49"/>
     <use x="4103.386719" xlink:href="#DejaVuSans-95"/>
     <use x="4153.386719" xlink:href="#DejaVuSans-49"/>
     <use x="4217.009766" xlink:href="#DejaVuSans-103"/>
     <use x="4280.486328" xlink:href="#DejaVuSans-96"/>
     <use x="4330.486328" xlink:href="#DejaVuSans-44"/>
     <use x="4362.273438" xlink:href="#DejaVuSans-32"/>
     <use x="4394.060547" xlink:href="#DejaVuSans-77"/>
     <use x="4480.339844" xlink:href="#DejaVuSans-65"/>
     <use x="4548.748047" xlink:href="#DejaVuSans-61"/>
     <use x="4632.537109" xlink:href="#DejaVuSans-52"/>
     <use x="4696.160156" xlink:href="#DejaVuSans-48"/>
    </g>
   </g>
   <g id="legend_1">
    <g id="patch_7">
     <path d="M 772.644125 231.77625 
L 853.716 231.77625 
Q 855.716 231.77625 855.716 229.77625 
L 855.716 200.86375 
Q 855.716 198.86375 853.716 198.86375 
L 772.644125 198.86375 
Q 770.644125 198.86375 770.644125 200.86375 
L 770.644125 229.77625 
Q 770.644125 231.77625 772.644125 231.77625 
z
" style="fill:#ffffff;opacity:0.8;stroke:#cccccc;stroke-linejoin:miter;"/>
    </g>
    <g id="line2d_17">
     <path d="M 774.644125 206.962187 
L 794.644125 206.962187 
" style="fill:none;stroke:#1f77b4;stroke-linecap:square;stroke-width:1.5;"/>
    </g>
    <g id="line2d_18"/>
    <g id="text_16">
     <!-- htm_1_1g -->
     <g transform="translate(802.644125 210.462187)scale(0.1 -0.1)">
      <use xlink:href="#DejaVuSans-104"/>
      <use x="63.378906" xlink:href="#DejaVuSans-116"/>
      <use x="102.587891" xlink:href="#DejaVuSans-109"/>
      <use x="200" xlink:href="#DejaVuSans-95"/>
      <use x="250" xlink:href="#DejaVuSans-49"/>
      <use x="313.623047" xlink:href="#DejaVuSans-95"/>
      <use x="363.623047" xlink:href="#DejaVuSans-49"/>
      <use x="427.246094" xlink:href="#DejaVuSans-103"/>
     </g>
    </g>
    <g id="line2d_19">
     <path d="M 774.644125 221.918437 
L 794.644125 221.918437 
" style="fill:none;stroke:#ff7f0e;stroke-linecap:square;stroke-width:1.5;"/>
    </g>
    <g id="line2d_20"/>
    <g id="text_17">
     <!-- htm_1_4g -->
     <g transform="translate(802.644125 225.418437)scale(0.1 -0.1)">
      <use xlink:href="#DejaVuSans-104"/>
      <use x="63.378906" xlink:href="#DejaVuSans-116"/>
      <use x="102.587891" xlink:href="#DejaVuSans-109"/>
      <use x="200" xlink:href="#DejaVuSans-95"/>
      <use x="250" xlink:href="#DejaVuSans-49"/>
      <use x="313.623047" xlink:href="#DejaVuSans-95"/>
      <use x="363.623047" xlink:href="#DejaVuSans-52"/>
      <use x="427.246094" xlink:href="#DejaVuSans-103"/>
     </g>
    </g>
   </g>
  </g>
 </g>
 <defs>
  <clipPath id="p4a6816f537">
   <rect height="377.6" width="682.18" x="42.1" y="26.52"/>
  </clipPath>
 </defs>
</svg>
