<?xml version="1.0" encoding="utf-8" standalone="no"?>
<!DOCTYPE svg PUBLIC "-//W3C//DTD SVG 1.1//EN"
  "http://www.w3.org/Graphics/SVG/1.1/DTD/svg11.dtd">
<!-- Created with matplotlib (https://matplotlib.org/) -->
<svg height="432pt" version="1.1" viewBox="0 0 864 432" width="864pt" xmlns="http://www.w3.org/2000/svg" xmlns:xlink="http://www.w3.org/1999/xlink">
 <defs>
  <style type="text/css">
*{stroke-linecap:butt;stroke-linejoin:round;}
  </style>
 </defs>
 <g id="figure_1">
  <g id="patch_1">
   <path d="M 0 432 
L 864 432 
L 864 0 
L 0 0 
z
" style="fill:#ffffff;"/>
  </g>
  <g id="axes_1">
   <g id="patch_2">
    <path d="M 42.1 404.12 
L 724.28 404.12 
L 724.28 26.16 
L 42.1 26.16 
z
" style="fill:#ffffff;"/>
   </g>
   <g id="matplotlib.axis_1">
    <g id="xtick_1">
     <g id="line2d_1">
      <defs>
       <path d="M 0 0 
L 0 3.5 
" id="m4842515c91" style="stroke:#000000;stroke-width:0.8;"/>
      </defs>
      <g>
       <use style="stroke:#000000;stroke-width:0.8;" x="42.1" xlink:href="#m4842515c91" y="404.12"/>
      </g>
     </g>
     <g id="text_1">
      <!-- 0 -->
      <defs>
       <path d="M 31.78125 66.40625 
Q 24.171875 66.40625 20.328125 58.90625 
Q 16.5 51.421875 16.5 36.375 
Q 16.5 21.390625 20.328125 13.890625 
Q 24.171875 6.390625 31.78125 6.390625 
Q 39.453125 6.390625 43.28125 13.890625 
Q 47.125 21.390625 47.125 36.375 
Q 47.125 51.421875 43.28125 58.90625 
Q 39.453125 66.40625 31.78125 66.40625 
z
M 31.78125 74.21875 
Q 44.046875 74.21875 50.515625 64.515625 
Q 56.984375 54.828125 56.984375 36.375 
Q 56.984375 17.96875 50.515625 8.265625 
Q 44.046875 -1.421875 31.78125 -1.421875 
Q 19.53125 -1.421875 13.0625 8.265625 
Q 6.59375 17.96875 6.59375 36.375 
Q 6.59375 54.828125 13.0625 64.515625 
Q 19.53125 74.21875 31.78125 74.21875 
z
" id="DejaVuSans-48"/>
      </defs>
      <g transform="translate(38.91875 418.718437)scale(0.1 -0.1)">
       <use xlink:href="#DejaVuSans-48"/>
      </g>
     </g>
    </g>
    <g id="xtick_2">
     <g id="line2d_2">
      <g>
       <use style="stroke:#000000;stroke-width:0.8;" x="127.801005" xlink:href="#m4842515c91" y="404.12"/>
      </g>
     </g>
     <g id="text_2">
      <!-- 25 -->
      <defs>
       <path d="M 19.1875 8.296875 
L 53.609375 8.296875 
L 53.609375 0 
L 7.328125 0 
L 7.328125 8.296875 
Q 12.9375 14.109375 22.625 23.890625 
Q 32.328125 33.6875 34.8125 36.53125 
Q 39.546875 41.84375 41.421875 45.53125 
Q 43.3125 49.21875 43.3125 52.78125 
Q 43.3125 58.59375 39.234375 62.25 
Q 35.15625 65.921875 28.609375 65.921875 
Q 23.96875 65.921875 18.8125 64.3125 
Q 13.671875 62.703125 7.8125 59.421875 
L 7.8125 69.390625 
Q 13.765625 71.78125 18.9375 73 
Q 24.125 74.21875 28.421875 74.21875 
Q 39.75 74.21875 46.484375 68.546875 
Q 53.21875 62.890625 53.21875 53.421875 
Q 53.21875 48.921875 51.53125 44.890625 
Q 49.859375 40.875 45.40625 35.40625 
Q 44.1875 33.984375 37.640625 27.21875 
Q 31.109375 20.453125 19.1875 8.296875 
z
" id="DejaVuSans-50"/>
       <path d="M 10.796875 72.90625 
L 49.515625 72.90625 
L 49.515625 64.59375 
L 19.828125 64.59375 
L 19.828125 46.734375 
Q 21.96875 47.46875 24.109375 47.828125 
Q 26.265625 48.1875 28.421875 48.1875 
Q 40.625 48.1875 47.75 41.5 
Q 54.890625 34.8125 54.890625 23.390625 
Q 54.890625 11.625 47.5625 5.09375 
Q 40.234375 -1.421875 26.90625 -1.421875 
Q 22.3125 -1.421875 17.546875 -0.640625 
Q 12.796875 0.140625 7.71875 1.703125 
L 7.71875 11.625 
Q 12.109375 9.234375 16.796875 8.0625 
Q 21.484375 6.890625 26.703125 6.890625 
Q 35.15625 6.890625 40.078125 11.328125 
Q 45.015625 15.765625 45.015625 23.390625 
Q 45.015625 31 40.078125 35.4375 
Q 35.15625 39.890625 26.703125 39.890625 
Q 22.75 39.890625 18.8125 39.015625 
Q 14.890625 38.140625 10.796875 36.28125 
z
" id="DejaVuSans-53"/>
      </defs>
      <g transform="translate(121.438505 418.718437)scale(0.1 -0.1)">
       <use xlink:href="#DejaVuSans-50"/>
       <use x="63.623047" xlink:href="#DejaVuSans-53"/>
      </g>
     </g>
    </g>
    <g id="xtick_3">
     <g id="line2d_3">
      <g>
       <use style="stroke:#000000;stroke-width:0.8;" x="213.50201" xlink:href="#m4842515c91" y="404.12"/>
      </g>
     </g>
     <g id="text_3">
      <!-- 50 -->
      <g transform="translate(207.13951 418.718437)scale(0.1 -0.1)">
       <use xlink:href="#DejaVuSans-53"/>
       <use x="63.623047" xlink:href="#DejaVuSans-48"/>
      </g>
     </g>
    </g>
    <g id="xtick_4">
     <g id="line2d_4">
      <g>
       <use style="stroke:#000000;stroke-width:0.8;" x="299.203015" xlink:href="#m4842515c91" y="404.12"/>
      </g>
     </g>
     <g id="text_4">
      <!-- 75 -->
      <defs>
       <path d="M 8.203125 72.90625 
L 55.078125 72.90625 
L 55.078125 68.703125 
L 28.609375 0 
L 18.3125 0 
L 43.21875 64.59375 
L 8.203125 64.59375 
z
" id="DejaVuSans-55"/>
      </defs>
      <g transform="translate(292.840515 418.718437)scale(0.1 -0.1)">
       <use xlink:href="#DejaVuSans-55"/>
       <use x="63.623047" xlink:href="#DejaVuSans-53"/>
      </g>
     </g>
    </g>
    <g id="xtick_5">
     <g id="line2d_5">
      <g>
       <use style="stroke:#000000;stroke-width:0.8;" x="384.90402" xlink:href="#m4842515c91" y="404.12"/>
      </g>
     </g>
     <g id="text_5">
      <!-- 100 -->
      <defs>
       <path d="M 12.40625 8.296875 
L 28.515625 8.296875 
L 28.515625 63.921875 
L 10.984375 60.40625 
L 10.984375 69.390625 
L 28.421875 72.90625 
L 38.28125 72.90625 
L 38.28125 8.296875 
L 54.390625 8.296875 
L 54.390625 0 
L 12.40625 0 
z
" id="DejaVuSans-49"/>
      </defs>
      <g transform="translate(375.36027 418.718437)scale(0.1 -0.1)">
       <use xlink:href="#DejaVuSans-49"/>
       <use x="63.623047" xlink:href="#DejaVuSans-48"/>
       <use x="127.246094" xlink:href="#DejaVuSans-48"/>
      </g>
     </g>
    </g>
    <g id="xtick_6">
     <g id="line2d_6">
      <g>
       <use style="stroke:#000000;stroke-width:0.8;" x="470.605025" xlink:href="#m4842515c91" y="404.12"/>
      </g>
     </g>
     <g id="text_6">
      <!-- 125 -->
      <g transform="translate(461.061275 418.718437)scale(0.1 -0.1)">
       <use xlink:href="#DejaVuSans-49"/>
       <use x="63.623047" xlink:href="#DejaVuSans-50"/>
       <use x="127.246094" xlink:href="#DejaVuSans-53"/>
      </g>
     </g>
    </g>
    <g id="xtick_7">
     <g id="line2d_7">
      <g>
       <use style="stroke:#000000;stroke-width:0.8;" x="556.30603" xlink:href="#m4842515c91" y="404.12"/>
      </g>
     </g>
     <g id="text_7">
      <!-- 150 -->
      <g transform="translate(546.76228 418.718437)scale(0.1 -0.1)">
       <use xlink:href="#DejaVuSans-49"/>
       <use x="63.623047" xlink:href="#DejaVuSans-53"/>
       <use x="127.246094" xlink:href="#DejaVuSans-48"/>
      </g>
     </g>
    </g>
    <g id="xtick_8">
     <g id="line2d_8">
      <g>
       <use style="stroke:#000000;stroke-width:0.8;" x="642.007035" xlink:href="#m4842515c91" y="404.12"/>
      </g>
     </g>
     <g id="text_8">
      <!-- 175 -->
      <g transform="translate(632.463285 418.718437)scale(0.1 -0.1)">
       <use xlink:href="#DejaVuSans-49"/>
       <use x="63.623047" xlink:href="#DejaVuSans-55"/>
       <use x="127.246094" xlink:href="#DejaVuSans-53"/>
      </g>
     </g>
    </g>
   </g>
   <g id="matplotlib.axis_2">
    <g id="ytick_1">
     <g id="line2d_9">
      <defs>
       <path d="M 0 0 
L -3.5 0 
" id="m184272578c" style="stroke:#000000;stroke-width:0.8;"/>
      </defs>
      <g>
       <use style="stroke:#000000;stroke-width:0.8;" x="42.1" xlink:href="#m184272578c" y="376.097287"/>
      </g>
     </g>
     <g id="text_9">
      <!-- −2.5 -->
      <defs>
       <path d="M 10.59375 35.5 
L 73.1875 35.5 
L 73.1875 27.203125 
L 10.59375 27.203125 
z
" id="DejaVuSans-8722"/>
       <path d="M 10.6875 12.40625 
L 21 12.40625 
L 21 0 
L 10.6875 0 
z
" id="DejaVuSans-46"/>
      </defs>
      <g transform="translate(10.817188 379.896506)scale(0.1 -0.1)">
       <use xlink:href="#DejaVuSans-8722"/>
       <use x="83.789062" xlink:href="#DejaVuSans-50"/>
       <use x="147.412109" xlink:href="#DejaVuSans-46"/>
       <use x="179.199219" xlink:href="#DejaVuSans-53"/>
      </g>
     </g>
    </g>
    <g id="ytick_2">
     <g id="line2d_10">
      <g>
       <use style="stroke:#000000;stroke-width:0.8;" x="42.1" xlink:href="#m184272578c" y="323.076687"/>
      </g>
     </g>
     <g id="text_10">
      <!-- −2.0 -->
      <g transform="translate(10.817188 326.875906)scale(0.1 -0.1)">
       <use xlink:href="#DejaVuSans-8722"/>
       <use x="83.789062" xlink:href="#DejaVuSans-50"/>
       <use x="147.412109" xlink:href="#DejaVuSans-46"/>
       <use x="179.199219" xlink:href="#DejaVuSans-48"/>
      </g>
     </g>
    </g>
    <g id="ytick_3">
     <g id="line2d_11">
      <g>
       <use style="stroke:#000000;stroke-width:0.8;" x="42.1" xlink:href="#m184272578c" y="270.056087"/>
      </g>
     </g>
     <g id="text_11">
      <!-- −1.5 -->
      <g transform="translate(10.817188 273.855305)scale(0.1 -0.1)">
       <use xlink:href="#DejaVuSans-8722"/>
       <use x="83.789062" xlink:href="#DejaVuSans-49"/>
       <use x="147.412109" xlink:href="#DejaVuSans-46"/>
       <use x="179.199219" xlink:href="#DejaVuSans-53"/>
      </g>
     </g>
    </g>
    <g id="ytick_4">
     <g id="line2d_12">
      <g>
       <use style="stroke:#000000;stroke-width:0.8;" x="42.1" xlink:href="#m184272578c" y="217.035486"/>
      </g>
     </g>
     <g id="text_12">
      <!-- −1.0 -->
      <g transform="translate(10.817188 220.834705)scale(0.1 -0.1)">
       <use xlink:href="#DejaVuSans-8722"/>
       <use x="83.789062" xlink:href="#DejaVuSans-49"/>
       <use x="147.412109" xlink:href="#DejaVuSans-46"/>
       <use x="179.199219" xlink:href="#DejaVuSans-48"/>
      </g>
     </g>
    </g>
    <g id="ytick_5">
     <g id="line2d_13">
      <g>
       <use style="stroke:#000000;stroke-width:0.8;" x="42.1" xlink:href="#m184272578c" y="164.014886"/>
      </g>
     </g>
     <g id="text_13">
      <!-- −0.5 -->
      <g transform="translate(10.817188 167.814105)scale(0.1 -0.1)">
       <use xlink:href="#DejaVuSans-8722"/>
       <use x="83.789062" xlink:href="#DejaVuSans-48"/>
       <use x="147.412109" xlink:href="#DejaVuSans-46"/>
       <use x="179.199219" xlink:href="#DejaVuSans-53"/>
      </g>
     </g>
    </g>
    <g id="ytick_6">
     <g id="line2d_14">
      <g>
       <use style="stroke:#000000;stroke-width:0.8;" x="42.1" xlink:href="#m184272578c" y="110.994286"/>
      </g>
     </g>
     <g id="text_14">
      <!-- 0.0 -->
      <g transform="translate(19.196875 114.793505)scale(0.1 -0.1)">
       <use xlink:href="#DejaVuSans-48"/>
       <use x="63.623047" xlink:href="#DejaVuSans-46"/>
       <use x="95.410156" xlink:href="#DejaVuSans-48"/>
      </g>
     </g>
    </g>
    <g id="ytick_7">
     <g id="line2d_15">
      <g>
       <use style="stroke:#000000;stroke-width:0.8;" x="42.1" xlink:href="#m184272578c" y="57.973686"/>
      </g>
     </g>
     <g id="text_15">
      <!-- 0.5 -->
      <g transform="translate(19.196875 61.772904)scale(0.1 -0.1)">
       <use xlink:href="#DejaVuSans-48"/>
       <use x="63.623047" xlink:href="#DejaVuSans-46"/>
       <use x="95.410156" xlink:href="#DejaVuSans-53"/>
      </g>
     </g>
    </g>
   </g>
   <g id="line2d_16">
    <path clip-path="url(#pe4d58a024f)" d="M 175.793568 45.248742 
L 179.221608 48.854142 
L 186.077688 48.138364 
L 189.505729 49.331328 
L 199.789849 49.702472 
L 203.217889 46.86587 
L 206.64593 43.605103 
L 210.07397 43.34 
L 216.93005 49.092735 
L 220.35809 48.244406 
L 223.786131 46.600767 
L 230.642211 46.521236 
L 234.070251 49.941065 
L 237.498291 48.111854 
L 240.926332 47.316545 
L 244.354372 46.998421 
L 247.782412 47.130973 
L 251.210452 46.653788 
L 254.638492 47.528627 
L 258.066533 47.79373 
L 261.494573 48.748101 
L 264.922613 47.237014 
L 268.350653 47.183994 
L 271.778693 57.576031 
L 275.206734 57.629052 
L 278.634774 59.643835 
L 282.062814 57.841134 
L 285.490854 59.908938 
L 288.918894 59.643835 
L 292.346935 60.863308 
L 295.774975 59.617324 
L 299.203015 59.670345 
L 302.631055 59.988468 
L 309.487136 57.416969 
L 312.915176 58.34483 
L 316.343216 53.06928 
L 319.771256 53.652507 
L 323.199296 54.447816 
L 326.627337 52.16793 
L 330.055377 55.74682 
L 333.483417 66.032817 
L 336.911457 67.252291 
L 340.339497 66.775105 
L 343.767538 67.437863 
L 347.195578 67.596925 
L 350.623618 64.49522 
L 354.051658 59.378732 
L 357.479698 57.655562 
L 364.335779 57.682072 
L 367.763819 58.079727 
L 371.191859 54.712919 
L 374.619899 58.689464 
L 378.04794 59.140139 
L 381.47598 59.166649 
L 384.90402 63.779441 
L 388.33206 64.415689 
L 391.760101 63.434807 
L 395.188141 63.222725 
L 398.616181 65.104956 
L 402.044221 75.709076 
L 405.472261 75.921159 
L 408.900302 65.953286 
L 412.328342 68.763378 
L 415.756382 72.978516 
L 419.184422 73.800335 
L 422.612462 73.588252 
L 426.040503 82.840347 
L 429.468543 83.317533 
L 432.896583 81.726915 
L 436.324623 83.715187 
L 439.752663 84.139352 
L 443.180704 84.324924 
L 446.608744 84.722579 
L 450.036784 83.874249 
L 453.464824 84.245393 
L 456.892864 87.135016 
L 460.320905 86.843403 
L 463.748945 86.949444 
L 467.176985 83.10545 
L 470.605025 72.554351 
L 474.033065 71.414408 
L 477.461106 71.838573 
L 480.889146 73.243619 
L 484.317186 74.887257 
L 487.745226 77.564797 
L 494.601307 77.538287 
L 498.029347 78.280576 
L 501.457387 85.040702 
L 504.885427 84.722579 
L 508.313467 86.445748 
L 511.741508 82.734306 
L 515.169548 83.158471 
L 518.597588 82.071548 
L 522.025628 80.348379 
L 525.453668 90.289742 
L 528.881709 90.713906 
L 532.309749 90.979009 
L 535.737789 91.03203 
L 539.165829 80.984626 
L 542.593869 80.852075 
L 546.02191 83.025919 
L 549.44995 80.189317 
L 552.87799 80.4014 
L 556.30603 80.242338 
L 559.73407 81.594363 
L 563.162111 71.043264 
L 566.590151 70.990243 
L 570.018191 71.122795 
L 573.446231 70.407016 
L 576.874271 71.361387 
L 580.302312 71.016753 
L 583.730352 70.353996 
L 587.158392 70.009362 
L 590.586432 70.857692 
L 594.014472 66.987188 
L 597.442513 66.059327 
L 600.870553 67.17276 
L 604.298593 68.153641 
L 607.726633 70.062383 
L 611.154673 70.990243 
L 614.582714 72.050655 
L 618.010754 70.274465 
L 621.438794 71.546959 
L 624.866834 69.929831 
L 631.722915 70.009362 
L 635.150955 73.323149 
L 638.578995 70.460037 
L 642.007035 70.460037 
L 645.435075 68.789888 
L 648.863116 69.770769 
L 652.291156 68.869419 
L 655.719196 70.247955 
L 659.147236 67.331822 
L 662.575276 59.325711 
L 666.003317 58.212278 
L 669.431357 58.37134 
L 672.859397 66.085838 
L 679.715477 65.767714 
L 683.143518 64.362668 
L 686.571558 64.362668 
L 689.999598 58.079727 
L 693.427638 60.545185 
L 696.855678 56.913274 
L 700.283719 59.723365 
L 703.711759 64.336158 
L 707.139799 64.256627 
L 710.567839 65.741204 
L 713.995879 65.290529 
L 717.42392 65.42308 
L 724.28 65.953286 
L 724.28 65.953286 
" style="fill:none;stroke:#1f77b4;stroke-linecap:square;stroke-width:1.5;"/>
   </g>
   <g id="line2d_17">
    <path clip-path="url(#pe4d58a024f)" d="M 175.793568 354.995088 
L 182.649648 354.995088 
L 186.077688 365.599208 
L 196.361809 365.599208 
L 199.789849 376.203328 
L 203.217889 365.625719 
L 210.07397 365.625719 
L 213.50201 376.176818 
L 220.35809 376.176818 
L 223.786131 365.572698 
L 227.214171 365.572698 
L 230.642211 376.176818 
L 254.638492 376.176818 
L 258.066533 365.625719 
L 264.922613 365.625719 
L 268.350653 376.176818 
L 271.778693 376.176818 
L 275.206734 365.652229 
L 278.634774 376.256349 
L 285.490854 376.256349 
L 288.918894 386.860469 
L 295.774975 386.860469 
L 299.203015 376.256349 
L 316.343216 376.256349 
L 319.771256 365.73176 
L 323.199296 365.73176 
L 326.627337 355.12764 
L 343.767538 355.15415 
L 347.195578 344.57654 
L 354.051658 344.57654 
L 357.479698 333.97242 
L 360.907739 344.57654 
L 408.900302 344.52352 
L 412.328342 355.048109 
L 422.612462 355.048109 
L 426.040503 344.470499 
L 429.468543 344.470499 
L 432.896583 333.9194 
L 436.324623 344.52352 
L 453.464824 344.52352 
L 456.892864 355.048109 
L 460.320905 355.048109 
L 463.748945 365.652229 
L 474.033065 365.652229 
L 477.461106 376.203328 
L 480.889146 376.203328 
L 484.317186 386.780938 
L 487.745226 386.780938 
L 491.173266 376.256349 
L 494.601307 386.860469 
L 501.457387 386.860469 
L 504.885427 376.30937 
L 511.741508 376.30937 
L 515.169548 365.78478 
L 528.881709 365.78478 
L 532.309749 376.388901 
L 539.165829 376.388901 
L 542.593869 365.811291 
L 559.73407 365.811291 
L 563.162111 376.388901 
L 566.590151 376.388901 
L 570.018191 386.94 
L 576.874271 386.94 
L 580.302312 376.33588 
L 583.730352 376.33588 
L 590.586432 355.207171 
L 594.014472 355.207171 
L 597.442513 344.603051 
L 624.866834 344.603051 
L 628.294874 355.12764 
L 631.722915 344.52352 
L 638.578995 344.52352 
L 642.007035 355.074619 
L 662.575276 354.995088 
L 666.003317 344.390968 
L 683.143518 344.364458 
L 686.571558 333.760338 
L 696.855678 333.760338 
L 700.283719 323.31528 
L 713.995879 323.31528 
L 717.42392 333.9194 
L 724.28 333.9194 
L 724.28 333.9194 
" style="fill:none;stroke:#ff7f0e;stroke-linecap:square;stroke-width:1.5;"/>
   </g>
   <g id="line2d_18">
    <path clip-path="url(#pe4d58a024f)" d="M 175.793568 110.278508 
L 179.221608 111.471471 
L 182.649648 111.577513 
L 186.077688 112.028188 
L 189.505729 112.028188 
L 192.933769 113.062089 
L 196.361809 112.319801 
L 199.789849 110.755693 
L 203.217889 100.78782 
L 206.64593 90.210211 
L 210.07397 89.573963 
L 213.50201 80.348379 
L 216.93005 84.987682 
L 220.35809 90.210211 
L 227.214171 90.979009 
L 230.642211 90.952499 
L 234.070251 89.998128 
L 237.498291 87.294078 
L 240.926332 86.710851 
L 244.354372 89.30886 
L 247.782412 89.812556 
L 251.210452 89.865577 
L 254.638492 100.469697 
L 258.066533 100.549228 
L 264.922613 101.052923 
L 268.350653 90.581355 
L 271.778693 101.052923 
L 275.206734 101.927763 
L 278.634774 111.418451 
L 282.062814 109.350647 
L 285.490854 109.509709 
L 288.918894 120.087319 
L 292.346935 121.412834 
L 302.631055 121.465854 
L 306.059095 110.888245 
L 309.487136 111.816105 
L 312.915176 112.107719 
L 316.343216 109.112055 
L 319.771256 118.576232 
L 323.199296 119.477582 
L 326.627337 112.452352 
L 330.055377 111.444961 
L 333.483417 121.730957 
L 336.911457 122.049081 
L 340.339497 121.492365 
L 343.767538 123.162514 
L 347.195578 123.480637 
L 350.623618 122.473246 
L 354.051658 122.473246 
L 357.479698 111.948657 
L 360.907739 111.869126 
L 364.335779 111.33892 
L 371.191859 115.209424 
L 374.619899 120.776587 
L 378.04794 120.591015 
L 381.47598 119.477582 
L 384.90402 120.087319 
L 388.33206 130.558887 
L 391.760101 120.723566 
L 395.188141 120.856118 
L 398.616181 121.147731 
L 402.044221 123.295065 
L 405.472261 123.586678 
L 408.900302 114.467135 
L 412.328342 118.867845 
L 415.756382 118.867845 
L 419.184422 118.735294 
L 422.612462 119.053417 
L 426.040503 112.531883 
L 429.468543 112.21376 
L 432.896583 112.21376 
L 439.752663 133.024345 
L 443.180704 133.050856 
L 446.608744 132.202526 
L 450.036784 133.077366 
L 453.464824 135.118659 
L 456.892864 124.753132 
L 460.320905 123.189024 
L 463.748945 119.742685 
L 467.176985 121.306793 
L 470.605025 121.306793 
L 474.033065 123.480637 
L 477.461106 124.222926 
L 480.889146 123.851781 
L 487.745226 129.392434 
L 491.173266 119.530603 
L 498.029347 119.34503 
L 501.457387 122.685328 
L 504.885427 121.518875 
L 508.313467 119.742685 
L 511.741508 124.56756 
L 515.169548 135.118659 
L 518.597588 133.130387 
L 522.025628 137.451565 
L 525.453668 137.451565 
L 528.881709 137.84922 
L 532.309749 148.241258 
L 535.737789 149.169118 
L 539.165829 157.30778 
L 542.593869 158.474233 
L 546.02191 157.069188 
L 549.44995 151.97921 
L 552.87799 142.090868 
L 556.30603 151.899679 
L 559.73407 156.830595 
L 563.162111 153.172173 
L 566.590151 152.641967 
L 570.018191 142.24993 
L 573.446231 132.971325 
L 576.874271 122.897411 
L 580.302312 122.84439 
L 583.730352 123.507148 
L 587.158392 122.261163 
L 590.586432 121.306793 
L 594.014472 122.685328 
L 600.870553 122.685328 
L 604.298593 123.533658 
L 607.726633 113.0886 
L 611.154673 111.285899 
L 614.582714 112.690945 
L 618.010754 111.471471 
L 621.438794 111.100327 
L 624.866834 108.767421 
L 628.294874 108.157684 
L 631.722915 108.68789 
L 635.150955 110.278508 
L 638.578995 117.489309 
L 642.007035 116.800042 
L 645.435075 116.587959 
L 652.291156 95.724353 
L 655.719196 106.169411 
L 659.147236 101.397557 
L 662.575276 91.747808 
L 666.003317 90.660886 
L 669.431357 80.666503 
L 672.859397 84.88164 
L 676.287437 84.88164 
L 679.715477 83.529615 
L 683.143518 84.351434 
L 686.571558 84.059821 
L 693.427638 83.95378 
L 696.855678 79.022864 
L 700.283719 79.738642 
L 703.711759 80.825564 
L 707.139799 81.461812 
L 710.567839 81.912487 
L 713.995879 91.986401 
L 717.42392 97.288461 
L 724.28 96.837786 
L 724.28 96.837786 
" style="fill:none;stroke:#2ca02c;stroke-linecap:square;stroke-width:1.5;"/>
   </g>
   <g id="line2d_19">
    <path clip-path="url(#pe4d58a024f)" d="M 175.793568 101.715681 
L 179.221608 100.469697 
L 182.649648 110.039915 
L 186.077688 109.324137 
L 189.505729 109.324137 
L 192.933769 112.107719 
L 196.361809 112.028188 
L 199.789849 112.081208 
L 203.217889 101.503598 
L 206.64593 99.753919 
L 210.07397 109.642261 
L 213.50201 101.63615 
L 216.93005 105.533164 
L 220.35809 110.755693 
L 223.786131 112.505373 
L 230.642211 133.528041 
L 234.070251 133.634082 
L 237.498291 131.327686 
L 240.926332 131.195135 
L 244.354372 141.136497 
L 247.782412 143.045239 
L 251.210452 143.707996 
L 254.638492 150.070468 
L 261.494573 171.278708 
L 264.922613 171.172667 
L 268.350653 160.886671 
L 275.206734 181.856318 
L 278.634774 182.386524 
L 282.062814 179.443881 
L 285.490854 179.655963 
L 288.918894 179.682474 
L 292.346935 180.133149 
L 299.203015 180.159659 
L 302.631055 183.712039 
L 306.059095 182.91673 
L 309.487136 183.128813 
L 312.915176 173.081409 
L 316.343216 172.869326 
L 323.199296 172.895837 
L 326.627337 170.191786 
L 330.055377 166.95753 
L 333.483417 177.535139 
L 340.339497 177.508629 
L 343.767538 176.527748 
L 347.195578 176.527748 
L 350.623618 177.800242 
L 354.051658 177.800242 
L 357.479698 167.302163 
L 360.907739 164.492072 
L 364.335779 164.492072 
L 367.763819 154.259096 
L 371.191859 155.027894 
L 374.619899 165.022278 
L 378.04794 165.605504 
L 381.47598 160.727609 
L 384.90402 159.322563 
L 388.33206 169.184395 
L 391.760101 163.670252 
L 395.188141 153.066132 
L 398.616181 144.185182 
L 402.044221 145.749289 
L 405.472261 145.457676 
L 412.328342 125.336358 
L 415.756382 134.29684 
L 419.184422 136.04652 
L 422.612462 136.815318 
L 426.040503 136.788808 
L 429.468543 146.862722 
L 432.896583 136.497195 
L 436.324623 147.074804 
L 439.752663 144.582836 
L 443.180704 144.90096 
L 446.608744 155.080915 
L 450.036784 155.292997 
L 453.464824 155.637631 
L 456.892864 155.637631 
L 460.320905 158.103089 
L 463.748945 150.22953 
L 467.176985 150.22953 
L 470.605025 139.65192 
L 474.033065 150.20302 
L 477.461106 151.342963 
L 480.889146 161.735 
L 484.317186 161.735 
L 487.745226 168.468617 
L 491.173266 158.871888 
L 501.457387 158.951419 
L 504.885427 169.184395 
L 508.313467 167.567266 
L 511.741508 167.567266 
L 515.169548 176.898892 
L 518.597588 174.539475 
L 522.025628 174.725047 
L 525.453668 174.725047 
L 528.881709 184.480838 
L 532.309749 185.329168 
L 535.737789 183.79157 
L 539.165829 184.083183 
L 542.593869 184.162714 
L 546.02191 184.507348 
L 549.44995 183.977142 
L 552.87799 173.691146 
L 556.30603 177.270036 
L 559.73407 179.629453 
L 563.162111 180.027107 
L 566.590151 169.979704 
L 570.018191 169.953193 
L 573.446231 160.674588 
L 576.874271 160.064851 
L 580.302312 159.640687 
L 583.730352 149.964427 
L 587.158392 149.460731 
L 590.586432 149.858386 
L 594.014472 140.871394 
L 597.442513 138.352916 
L 600.870553 138.72406 
L 604.298593 141.507641 
L 607.726633 141.640193 
L 611.154673 131.725341 
L 614.582714 132.812263 
L 618.010754 122.314184 
L 621.438794 114.493646 
L 624.866834 104.658324 
L 628.294874 103.783484 
L 631.722915 104.181139 
L 635.150955 106.9117 
L 638.578995 106.9117 
L 642.007035 96.33409 
L 645.435075 96.122008 
L 652.291156 75.258401 
L 655.719196 72.739923 
L 659.147236 72.44831 
L 662.575276 72.44831 
L 666.003317 61.8707 
L 669.431357 61.128411 
L 672.859397 67.809007 
L 676.287437 66.722085 
L 679.715477 66.616044 
L 683.143518 76.504385 
L 686.571558 76.795999 
L 689.999598 76.504385 
L 693.427638 81.726915 
L 696.855678 78.466148 
L 700.283719 79.897704 
L 703.711759 81.011136 
L 707.139799 81.647384 
L 710.567839 82.098059 
L 713.995879 92.171973 
L 717.42392 97.474033 
L 724.28 97.049868 
L 724.28 97.049868 
" style="fill:none;stroke:#d62728;stroke-linecap:square;stroke-width:1.5;"/>
   </g>
   <g id="line2d_20">
    <path clip-path="url(#pe4d58a024f)" d="M 175.793568 121.96955 
L 179.221608 130.77097 
L 182.649648 130.505867 
L 186.077688 130.002171 
L 189.505729 119.848726 
L 192.933769 130.426336 
L 196.361809 130.717949 
L 199.789849 130.717949 
L 203.217889 120.140339 
L 206.64593 118.761804 
L 210.07397 117.56884 
L 213.50201 117.56884 
L 216.93005 110.994286 
L 220.35809 120.935648 
L 223.786131 127.642754 
L 227.214171 138.140833 
L 230.642211 138.140833 
L 234.070251 138.962653 
L 237.498291 137.212973 
L 240.926332 138.087813 
L 244.354372 140.155616 
L 247.782412 142.700605 
L 251.210452 142.965708 
L 254.638492 153.569828 
L 258.066533 155.5581 
L 261.494573 165.791076 
L 264.922613 165.738056 
L 268.350653 163.643742 
L 271.778693 163.643742 
L 275.206734 174.247862 
L 278.634774 174.698537 
L 282.062814 174.619006 
L 285.490854 172.975368 
L 288.918894 172.975368 
L 292.346935 175.043171 
L 295.774975 175.043171 
L 299.203015 174.592496 
L 302.631055 175.308274 
L 306.059095 165.101809 
L 309.487136 164.863216 
L 316.343216 164.863216 
L 319.771256 164.995767 
L 323.199296 164.916236 
L 326.627337 164.465561 
L 330.055377 154.153055 
L 333.483417 164.200458 
L 336.911457 174.804578 
L 340.339497 174.831089 
L 343.767538 175.149212 
L 347.195578 183.924122 
L 350.623618 173.532084 
L 354.051658 183.712039 
L 357.479698 173.107919 
L 360.907739 163.45817 
L 364.335779 153.013112 
L 367.763819 163.617232 
L 371.191859 172.763285 
L 374.619899 179.099247 
L 378.04794 177.508629 
L 384.90402 173.876718 
L 391.760101 173.876718 
L 395.188141 172.25959 
L 398.616181 172.25959 
L 402.044221 172.710265 
L 405.472261 172.789796 
L 408.900302 164.439051 
L 412.328342 153.940972 
L 415.756382 163.908845 
L 419.184422 164.412541 
L 422.612462 166.400813 
L 426.040503 155.823203 
L 429.468543 164.35952 
L 432.896583 154.921853 
L 436.324623 159.773238 
L 439.752663 158.951419 
L 443.180704 169.157884 
L 446.608744 175.732439 
L 450.036784 165.23436 
L 453.464824 165.23436 
L 456.892864 165.844097 
L 460.320905 176.289155 
L 467.176985 177.084464 
L 470.605025 177.084464 
L 474.033065 166.665916 
L 477.461106 166.665916 
L 480.889146 167.540756 
L 484.317186 157.413821 
L 487.745226 167.805859 
L 494.601307 167.805859 
L 498.029347 167.275653 
L 501.457387 169.263926 
L 504.885427 159.163501 
L 508.313467 159.163501 
L 511.741508 153.78191 
L 515.169548 164.253479 
L 518.597588 163.193067 
L 522.025628 173.081409 
L 525.453668 173.903228 
L 528.881709 163.723273 
L 532.309749 173.929738 
L 535.737789 164.253479 
L 539.165829 174.406924 
L 542.593869 175.228743 
L 546.02191 173.240471 
L 552.87799 173.240471 
L 556.30603 174.512965 
L 559.73407 173.346512 
L 563.162111 177.482119 
L 566.590151 167.991431 
L 570.018191 166.931019 
L 573.446231 163.272598 
L 576.874271 163.405149 
L 580.302312 153.066132 
L 583.730352 147.684541 
L 587.158392 148.930525 
L 590.586432 139.068694 
L 594.014472 137.690158 
L 597.442513 127.165569 
L 600.870553 127.21859 
L 604.298593 128.676656 
L 607.726633 119.053417 
L 611.154673 119.530603 
L 614.582714 120.829607 
L 618.010754 129.684048 
L 621.438794 129.498475 
L 624.866834 119.610133 
L 628.294874 109.218096 
L 631.722915 109.377158 
L 635.150955 111.179858 
L 638.578995 109.350647 
L 642.007035 108.846952 
L 645.435075 108.846952 
L 648.863116 108.131174 
L 652.291156 98.720017 
L 655.719196 108.422787 
L 659.147236 108.422787 
L 662.575276 107.256334 
L 666.003317 117.436289 
L 669.431357 117.436289 
L 672.859397 127.112548 
L 676.287437 116.747021 
L 679.715477 115.554058 
L 683.143518 116.561449 
L 686.571558 116.587959 
L 689.999598 106.142901 
L 693.427638 114.970831 
L 696.855678 114.785259 
L 700.283719 112.452352 
L 703.711759 112.160739 
L 707.139799 122.658818 
L 710.567839 132.069975 
L 717.42392 152.82754 
L 720.85196 162.159165 
L 724.28 160.80714 
L 724.28 160.80714 
" style="fill:none;stroke:#9467bd;stroke-linecap:square;stroke-width:1.5;"/>
   </g>
   <g id="line2d_21">
    <path clip-path="url(#pe4d58a024f)" d="M 175.793568 141.931806 
L 179.221608 150.733226 
L 186.077688 130.479357 
L 189.505729 141.003946 
L 192.933769 143.442893 
L 199.789849 143.522424 
L 203.217889 143.522424 
L 206.64593 153.278215 
L 210.07397 151.9527 
L 213.50201 151.9527 
L 216.93005 141.958316 
L 220.35809 151.316452 
L 223.786131 151.024839 
L 227.214171 151.342963 
L 230.642211 151.342963 
L 234.070251 153.039622 
L 237.498291 152.694988 
L 240.926332 152.482906 
L 244.354372 155.213467 
L 247.782412 157.30778 
L 251.210452 156.724554 
L 254.638492 167.328674 
L 258.066533 167.355184 
L 261.494573 177.58816 
L 264.922613 174.486455 
L 268.350653 184.878492 
L 275.206734 184.878492 
L 285.490854 185.56776 
L 288.918894 196.17188 
L 292.346935 196.436983 
L 295.774975 186.283538 
L 299.203015 175.705929 
L 302.631055 176.262645 
L 306.059095 166.08269 
L 309.487136 164.598113 
L 312.915176 164.598113 
L 316.343216 154.020503 
L 319.771256 164.041396 
L 323.199296 165.950138 
L 326.627337 155.346018 
L 330.055377 153.092643 
L 333.483417 163.590721 
L 336.911457 163.590721 
L 343.767538 142.408992 
L 347.195578 148.771464 
L 350.623618 138.432447 
L 354.051658 148.42683 
L 357.479698 138.167344 
L 360.907739 138.167344 
L 364.335779 137.981771 
L 367.763819 148.585892 
L 371.191859 156.300389 
L 374.619899 159.349073 
L 378.04794 158.633295 
L 381.47598 159.004439 
L 384.90402 157.440332 
L 388.33206 167.222633 
L 395.188141 167.196122 
L 398.616181 159.190012 
L 402.044221 160.091362 
L 405.472261 149.646304 
L 408.900302 149.646304 
L 412.328342 160.117872 
L 415.756382 160.754119 
L 419.184422 160.78063 
L 422.612462 162.768902 
L 426.040503 152.191292 
L 432.896583 172.630734 
L 436.324623 173.293491 
L 439.752663 172.922347 
L 443.180704 183.102302 
L 446.608744 183.552977 
L 450.036784 172.975368 
L 453.464824 173.320002 
L 456.892864 173.320002 
L 460.320905 172.020997 
L 463.748945 172.074017 
L 470.605025 171.994487 
L 474.033065 161.788021 
L 477.461106 162.026614 
L 480.889146 172.604223 
L 484.317186 172.604223 
L 487.745226 182.94324 
L 491.173266 172.975368 
L 494.601307 172.710265 
L 498.029347 172.975368 
L 504.885427 173.054899 
L 508.313467 162.55682 
L 511.741508 159.614176 
L 515.169548 170.032724 
L 518.597588 177.243526 
L 522.025628 177.667691 
L 528.881709 177.667691 
L 532.309749 183.526467 
L 535.737789 181.007989 
L 539.165829 181.405643 
L 542.593869 191.850701 
L 546.02191 191.850701 
L 549.44995 181.485174 
L 552.87799 191.134923 
L 556.30603 193.123196 
L 559.73407 192.6195 
L 563.162111 192.964134 
L 566.590151 182.86371 
L 570.018191 172.31261 
L 573.446231 174.247862 
L 576.874271 174.804578 
L 580.302312 164.253479 
L 583.730352 167.646797 
L 587.158392 167.964921 
L 590.586432 167.9119 
L 594.014472 157.360801 
L 597.442513 156.37992 
L 604.298593 177.376077 
L 607.726633 168.150493 
L 611.154673 169.237415 
L 614.582714 179.602943 
L 618.010754 168.998823 
L 621.438794 168.998823 
L 624.866834 158.792357 
L 628.294874 158.20913 
L 631.722915 158.1296 
L 635.150955 168.468617 
L 638.578995 169.104864 
L 642.007035 158.500744 
L 645.435075 168.998823 
L 648.863116 172.392141 
L 655.719196 151.236922 
L 659.147236 151.449004 
L 666.003317 130.452846 
L 669.431357 124.832663 
L 672.859397 135.357252 
L 676.287437 135.595844 
L 679.715477 125.150786 
L 683.143518 115.129893 
L 686.571558 114.91781 
L 689.999598 104.340201 
L 696.855678 101.291516 
L 703.711759 102.086825 
L 707.139799 102.192866 
L 710.567839 103.279789 
L 713.995879 113.14162 
L 717.42392 113.194641 
L 720.85196 119.689664 
L 724.28 125.283338 
L 724.28 125.283338 
" style="fill:none;stroke:#8c564b;stroke-linecap:square;stroke-width:1.5;"/>
   </g>
   <g id="patch_3">
    <path d="M 42.1 404.12 
L 42.1 26.16 
" style="fill:none;stroke:#000000;stroke-linecap:square;stroke-linejoin:miter;stroke-width:0.8;"/>
   </g>
   <g id="patch_4">
    <path d="M 724.28 404.12 
L 724.28 26.16 
" style="fill:none;stroke:#000000;stroke-linecap:square;stroke-linejoin:miter;stroke-width:0.8;"/>
   </g>
   <g id="patch_5">
    <path d="M 42.1 404.12 
L 724.28 404.12 
" style="fill:none;stroke:#000000;stroke-linecap:square;stroke-linejoin:miter;stroke-width:0.8;"/>
   </g>
   <g id="patch_6">
    <path d="M 42.1 26.16 
L 724.28 26.16 
" style="fill:none;stroke:#000000;stroke-linecap:square;stroke-linejoin:miter;stroke-width:0.8;"/>
   </g>
   <g id="text_16">
    <!-- gridworld_5x5_1_1_200_1337: episode reward, MA=40 -->
    <defs>
     <path d="M 45.40625 27.984375 
Q 45.40625 37.75 41.375 43.109375 
Q 37.359375 48.484375 30.078125 48.484375 
Q 22.859375 48.484375 18.828125 43.109375 
Q 14.796875 37.75 14.796875 27.984375 
Q 14.796875 18.265625 18.828125 12.890625 
Q 22.859375 7.515625 30.078125 7.515625 
Q 37.359375 7.515625 41.375 12.890625 
Q 45.40625 18.265625 45.40625 27.984375 
z
M 54.390625 6.78125 
Q 54.390625 -7.171875 48.1875 -13.984375 
Q 42 -20.796875 29.203125 -20.796875 
Q 24.46875 -20.796875 20.265625 -20.09375 
Q 16.0625 -19.390625 12.109375 -17.921875 
L 12.109375 -9.1875 
Q 16.0625 -11.328125 19.921875 -12.34375 
Q 23.78125 -13.375 27.78125 -13.375 
Q 36.625 -13.375 41.015625 -8.765625 
Q 45.40625 -4.15625 45.40625 5.171875 
L 45.40625 9.625 
Q 42.625 4.78125 38.28125 2.390625 
Q 33.9375 0 27.875 0 
Q 17.828125 0 11.671875 7.65625 
Q 5.515625 15.328125 5.515625 27.984375 
Q 5.515625 40.671875 11.671875 48.328125 
Q 17.828125 56 27.875 56 
Q 33.9375 56 38.28125 53.609375 
Q 42.625 51.21875 45.40625 46.390625 
L 45.40625 54.6875 
L 54.390625 54.6875 
z
" id="DejaVuSans-103"/>
     <path d="M 41.109375 46.296875 
Q 39.59375 47.171875 37.8125 47.578125 
Q 36.03125 48 33.890625 48 
Q 26.265625 48 22.1875 43.046875 
Q 18.109375 38.09375 18.109375 28.8125 
L 18.109375 0 
L 9.078125 0 
L 9.078125 54.6875 
L 18.109375 54.6875 
L 18.109375 46.1875 
Q 20.953125 51.171875 25.484375 53.578125 
Q 30.03125 56 36.53125 56 
Q 37.453125 56 38.578125 55.875 
Q 39.703125 55.765625 41.0625 55.515625 
z
" id="DejaVuSans-114"/>
     <path d="M 9.421875 54.6875 
L 18.40625 54.6875 
L 18.40625 0 
L 9.421875 0 
z
M 9.421875 75.984375 
L 18.40625 75.984375 
L 18.40625 64.59375 
L 9.421875 64.59375 
z
" id="DejaVuSans-105"/>
     <path d="M 45.40625 46.390625 
L 45.40625 75.984375 
L 54.390625 75.984375 
L 54.390625 0 
L 45.40625 0 
L 45.40625 8.203125 
Q 42.578125 3.328125 38.25 0.953125 
Q 33.9375 -1.421875 27.875 -1.421875 
Q 17.96875 -1.421875 11.734375 6.484375 
Q 5.515625 14.40625 5.515625 27.296875 
Q 5.515625 40.1875 11.734375 48.09375 
Q 17.96875 56 27.875 56 
Q 33.9375 56 38.25 53.625 
Q 42.578125 51.265625 45.40625 46.390625 
z
M 14.796875 27.296875 
Q 14.796875 17.390625 18.875 11.75 
Q 22.953125 6.109375 30.078125 6.109375 
Q 37.203125 6.109375 41.296875 11.75 
Q 45.40625 17.390625 45.40625 27.296875 
Q 45.40625 37.203125 41.296875 42.84375 
Q 37.203125 48.484375 30.078125 48.484375 
Q 22.953125 48.484375 18.875 42.84375 
Q 14.796875 37.203125 14.796875 27.296875 
z
" id="DejaVuSans-100"/>
     <path d="M 4.203125 54.6875 
L 13.1875 54.6875 
L 24.421875 12.015625 
L 35.59375 54.6875 
L 46.1875 54.6875 
L 57.421875 12.015625 
L 68.609375 54.6875 
L 77.59375 54.6875 
L 63.28125 0 
L 52.6875 0 
L 40.921875 44.828125 
L 29.109375 0 
L 18.5 0 
z
" id="DejaVuSans-119"/>
     <path d="M 30.609375 48.390625 
Q 23.390625 48.390625 19.1875 42.75 
Q 14.984375 37.109375 14.984375 27.296875 
Q 14.984375 17.484375 19.15625 11.84375 
Q 23.34375 6.203125 30.609375 6.203125 
Q 37.796875 6.203125 41.984375 11.859375 
Q 46.1875 17.53125 46.1875 27.296875 
Q 46.1875 37.015625 41.984375 42.703125 
Q 37.796875 48.390625 30.609375 48.390625 
z
M 30.609375 56 
Q 42.328125 56 49.015625 48.375 
Q 55.71875 40.765625 55.71875 27.296875 
Q 55.71875 13.875 49.015625 6.21875 
Q 42.328125 -1.421875 30.609375 -1.421875 
Q 18.84375 -1.421875 12.171875 6.21875 
Q 5.515625 13.875 5.515625 27.296875 
Q 5.515625 40.765625 12.171875 48.375 
Q 18.84375 56 30.609375 56 
z
" id="DejaVuSans-111"/>
     <path d="M 9.421875 75.984375 
L 18.40625 75.984375 
L 18.40625 0 
L 9.421875 0 
z
" id="DejaVuSans-108"/>
     <path d="M 50.984375 -16.609375 
L 50.984375 -23.578125 
L -0.984375 -23.578125 
L -0.984375 -16.609375 
z
" id="DejaVuSans-95"/>
     <path d="M 54.890625 54.6875 
L 35.109375 28.078125 
L 55.90625 0 
L 45.3125 0 
L 29.390625 21.484375 
L 13.484375 0 
L 2.875 0 
L 24.125 28.609375 
L 4.6875 54.6875 
L 15.28125 54.6875 
L 29.78125 35.203125 
L 44.28125 54.6875 
z
" id="DejaVuSans-120"/>
     <path d="M 40.578125 39.3125 
Q 47.65625 37.796875 51.625 33 
Q 55.609375 28.21875 55.609375 21.1875 
Q 55.609375 10.40625 48.1875 4.484375 
Q 40.765625 -1.421875 27.09375 -1.421875 
Q 22.515625 -1.421875 17.65625 -0.515625 
Q 12.796875 0.390625 7.625 2.203125 
L 7.625 11.71875 
Q 11.71875 9.328125 16.59375 8.109375 
Q 21.484375 6.890625 26.8125 6.890625 
Q 36.078125 6.890625 40.9375 10.546875 
Q 45.796875 14.203125 45.796875 21.1875 
Q 45.796875 27.640625 41.28125 31.265625 
Q 36.765625 34.90625 28.71875 34.90625 
L 20.21875 34.90625 
L 20.21875 43.015625 
L 29.109375 43.015625 
Q 36.375 43.015625 40.234375 45.921875 
Q 44.09375 48.828125 44.09375 54.296875 
Q 44.09375 59.90625 40.109375 62.90625 
Q 36.140625 65.921875 28.71875 65.921875 
Q 24.65625 65.921875 20.015625 65.03125 
Q 15.375 64.15625 9.8125 62.3125 
L 9.8125 71.09375 
Q 15.4375 72.65625 20.34375 73.4375 
Q 25.25 74.21875 29.59375 74.21875 
Q 40.828125 74.21875 47.359375 69.109375 
Q 53.90625 64.015625 53.90625 55.328125 
Q 53.90625 49.265625 50.4375 45.09375 
Q 46.96875 40.921875 40.578125 39.3125 
z
" id="DejaVuSans-51"/>
     <path d="M 11.71875 12.40625 
L 22.015625 12.40625 
L 22.015625 0 
L 11.71875 0 
z
M 11.71875 51.703125 
L 22.015625 51.703125 
L 22.015625 39.3125 
L 11.71875 39.3125 
z
" id="DejaVuSans-58"/>
     <path id="DejaVuSans-32"/>
     <path d="M 56.203125 29.59375 
L 56.203125 25.203125 
L 14.890625 25.203125 
Q 15.484375 15.921875 20.484375 11.0625 
Q 25.484375 6.203125 34.421875 6.203125 
Q 39.59375 6.203125 44.453125 7.46875 
Q 49.3125 8.734375 54.109375 11.28125 
L 54.109375 2.78125 
Q 49.265625 0.734375 44.1875 -0.34375 
Q 39.109375 -1.421875 33.890625 -1.421875 
Q 20.796875 -1.421875 13.15625 6.1875 
Q 5.515625 13.8125 5.515625 26.8125 
Q 5.515625 40.234375 12.765625 48.109375 
Q 20.015625 56 32.328125 56 
Q 43.359375 56 49.78125 48.890625 
Q 56.203125 41.796875 56.203125 29.59375 
z
M 47.21875 32.234375 
Q 47.125 39.59375 43.09375 43.984375 
Q 39.0625 48.390625 32.421875 48.390625 
Q 24.90625 48.390625 20.390625 44.140625 
Q 15.875 39.890625 15.1875 32.171875 
z
" id="DejaVuSans-101"/>
     <path d="M 18.109375 8.203125 
L 18.109375 -20.796875 
L 9.078125 -20.796875 
L 9.078125 54.6875 
L 18.109375 54.6875 
L 18.109375 46.390625 
Q 20.953125 51.265625 25.265625 53.625 
Q 29.59375 56 35.59375 56 
Q 45.5625 56 51.78125 48.09375 
Q 58.015625 40.1875 58.015625 27.296875 
Q 58.015625 14.40625 51.78125 6.484375 
Q 45.5625 -1.421875 35.59375 -1.421875 
Q 29.59375 -1.421875 25.265625 0.953125 
Q 20.953125 3.328125 18.109375 8.203125 
z
M 48.6875 27.296875 
Q 48.6875 37.203125 44.609375 42.84375 
Q 40.53125 48.484375 33.40625 48.484375 
Q 26.265625 48.484375 22.1875 42.84375 
Q 18.109375 37.203125 18.109375 27.296875 
Q 18.109375 17.390625 22.1875 11.75 
Q 26.265625 6.109375 33.40625 6.109375 
Q 40.53125 6.109375 44.609375 11.75 
Q 48.6875 17.390625 48.6875 27.296875 
z
" id="DejaVuSans-112"/>
     <path d="M 44.28125 53.078125 
L 44.28125 44.578125 
Q 40.484375 46.53125 36.375 47.5 
Q 32.28125 48.484375 27.875 48.484375 
Q 21.1875 48.484375 17.84375 46.4375 
Q 14.5 44.390625 14.5 40.28125 
Q 14.5 37.15625 16.890625 35.375 
Q 19.28125 33.59375 26.515625 31.984375 
L 29.59375 31.296875 
Q 39.15625 29.25 43.1875 25.515625 
Q 47.21875 21.78125 47.21875 15.09375 
Q 47.21875 7.46875 41.1875 3.015625 
Q 35.15625 -1.421875 24.609375 -1.421875 
Q 20.21875 -1.421875 15.453125 -0.5625 
Q 10.6875 0.296875 5.421875 2 
L 5.421875 11.28125 
Q 10.40625 8.6875 15.234375 7.390625 
Q 20.0625 6.109375 24.8125 6.109375 
Q 31.15625 6.109375 34.5625 8.28125 
Q 37.984375 10.453125 37.984375 14.40625 
Q 37.984375 18.0625 35.515625 20.015625 
Q 33.0625 21.96875 24.703125 23.78125 
L 21.578125 24.515625 
Q 13.234375 26.265625 9.515625 29.90625 
Q 5.8125 33.546875 5.8125 39.890625 
Q 5.8125 47.609375 11.28125 51.796875 
Q 16.75 56 26.8125 56 
Q 31.78125 56 36.171875 55.265625 
Q 40.578125 54.546875 44.28125 53.078125 
z
" id="DejaVuSans-115"/>
     <path d="M 34.28125 27.484375 
Q 23.390625 27.484375 19.1875 25 
Q 14.984375 22.515625 14.984375 16.5 
Q 14.984375 11.71875 18.140625 8.90625 
Q 21.296875 6.109375 26.703125 6.109375 
Q 34.1875 6.109375 38.703125 11.40625 
Q 43.21875 16.703125 43.21875 25.484375 
L 43.21875 27.484375 
z
M 52.203125 31.203125 
L 52.203125 0 
L 43.21875 0 
L 43.21875 8.296875 
Q 40.140625 3.328125 35.546875 0.953125 
Q 30.953125 -1.421875 24.3125 -1.421875 
Q 15.921875 -1.421875 10.953125 3.296875 
Q 6 8.015625 6 15.921875 
Q 6 25.140625 12.171875 29.828125 
Q 18.359375 34.515625 30.609375 34.515625 
L 43.21875 34.515625 
L 43.21875 35.40625 
Q 43.21875 41.609375 39.140625 45 
Q 35.0625 48.390625 27.6875 48.390625 
Q 23 48.390625 18.546875 47.265625 
Q 14.109375 46.140625 10.015625 43.890625 
L 10.015625 52.203125 
Q 14.9375 54.109375 19.578125 55.046875 
Q 24.21875 56 28.609375 56 
Q 40.484375 56 46.34375 49.84375 
Q 52.203125 43.703125 52.203125 31.203125 
z
" id="DejaVuSans-97"/>
     <path d="M 11.71875 12.40625 
L 22.015625 12.40625 
L 22.015625 4 
L 14.015625 -11.625 
L 7.71875 -11.625 
L 11.71875 4 
z
" id="DejaVuSans-44"/>
     <path d="M 9.8125 72.90625 
L 24.515625 72.90625 
L 43.109375 23.296875 
L 61.8125 72.90625 
L 76.515625 72.90625 
L 76.515625 0 
L 66.890625 0 
L 66.890625 64.015625 
L 48.09375 14.015625 
L 38.1875 14.015625 
L 19.390625 64.015625 
L 19.390625 0 
L 9.8125 0 
z
" id="DejaVuSans-77"/>
     <path d="M 34.1875 63.1875 
L 20.796875 26.90625 
L 47.609375 26.90625 
z
M 28.609375 72.90625 
L 39.796875 72.90625 
L 67.578125 0 
L 57.328125 0 
L 50.6875 18.703125 
L 17.828125 18.703125 
L 11.1875 0 
L 0.78125 0 
z
" id="DejaVuSans-65"/>
     <path d="M 10.59375 45.40625 
L 73.1875 45.40625 
L 73.1875 37.203125 
L 10.59375 37.203125 
z
M 10.59375 25.484375 
L 73.1875 25.484375 
L 73.1875 17.1875 
L 10.59375 17.1875 
z
" id="DejaVuSans-61"/>
     <path d="M 37.796875 64.3125 
L 12.890625 25.390625 
L 37.796875 25.390625 
z
M 35.203125 72.90625 
L 47.609375 72.90625 
L 47.609375 25.390625 
L 58.015625 25.390625 
L 58.015625 17.1875 
L 47.609375 17.1875 
L 47.609375 0 
L 37.796875 0 
L 37.796875 17.1875 
L 4.890625 17.1875 
L 4.890625 26.703125 
z
" id="DejaVuSans-52"/>
    </defs>
    <g transform="translate(218.300625 20.16)scale(0.12 -0.12)">
     <use xlink:href="#DejaVuSans-103"/>
     <use x="63.476562" xlink:href="#DejaVuSans-114"/>
     <use x="104.589844" xlink:href="#DejaVuSans-105"/>
     <use x="132.373047" xlink:href="#DejaVuSans-100"/>
     <use x="195.849609" xlink:href="#DejaVuSans-119"/>
     <use x="277.636719" xlink:href="#DejaVuSans-111"/>
     <use x="338.818359" xlink:href="#DejaVuSans-114"/>
     <use x="379.931641" xlink:href="#DejaVuSans-108"/>
     <use x="407.714844" xlink:href="#DejaVuSans-100"/>
     <use x="471.191406" xlink:href="#DejaVuSans-95"/>
     <use x="521.191406" xlink:href="#DejaVuSans-53"/>
     <use x="584.814453" xlink:href="#DejaVuSans-120"/>
     <use x="643.994141" xlink:href="#DejaVuSans-53"/>
     <use x="707.617188" xlink:href="#DejaVuSans-95"/>
     <use x="757.617188" xlink:href="#DejaVuSans-49"/>
     <use x="821.240234" xlink:href="#DejaVuSans-95"/>
     <use x="871.240234" xlink:href="#DejaVuSans-49"/>
     <use x="934.863281" xlink:href="#DejaVuSans-95"/>
     <use x="984.863281" xlink:href="#DejaVuSans-50"/>
     <use x="1048.486328" xlink:href="#DejaVuSans-48"/>
     <use x="1112.109375" xlink:href="#DejaVuSans-48"/>
     <use x="1175.732422" xlink:href="#DejaVuSans-95"/>
     <use x="1225.732422" xlink:href="#DejaVuSans-49"/>
     <use x="1289.355469" xlink:href="#DejaVuSans-51"/>
     <use x="1352.978516" xlink:href="#DejaVuSans-51"/>
     <use x="1416.601562" xlink:href="#DejaVuSans-55"/>
     <use x="1480.224609" xlink:href="#DejaVuSans-58"/>
     <use x="1513.916016" xlink:href="#DejaVuSans-32"/>
     <use x="1545.703125" xlink:href="#DejaVuSans-101"/>
     <use x="1607.226562" xlink:href="#DejaVuSans-112"/>
     <use x="1670.703125" xlink:href="#DejaVuSans-105"/>
     <use x="1698.486328" xlink:href="#DejaVuSans-115"/>
     <use x="1750.585938" xlink:href="#DejaVuSans-111"/>
     <use x="1811.767578" xlink:href="#DejaVuSans-100"/>
     <use x="1875.244141" xlink:href="#DejaVuSans-101"/>
     <use x="1936.767578" xlink:href="#DejaVuSans-32"/>
     <use x="1968.554688" xlink:href="#DejaVuSans-114"/>
     <use x="2009.636719" xlink:href="#DejaVuSans-101"/>
     <use x="2071.160156" xlink:href="#DejaVuSans-119"/>
     <use x="2152.947266" xlink:href="#DejaVuSans-97"/>
     <use x="2214.226562" xlink:href="#DejaVuSans-114"/>
     <use x="2255.324219" xlink:href="#DejaVuSans-100"/>
     <use x="2318.800781" xlink:href="#DejaVuSans-44"/>
     <use x="2350.587891" xlink:href="#DejaVuSans-32"/>
     <use x="2382.375" xlink:href="#DejaVuSans-77"/>
     <use x="2468.654297" xlink:href="#DejaVuSans-65"/>
     <use x="2537.0625" xlink:href="#DejaVuSans-61"/>
     <use x="2620.851562" xlink:href="#DejaVuSans-52"/>
     <use x="2684.474609" xlink:href="#DejaVuSans-48"/>
    </g>
   </g>
   <g id="legend_1">
    <g id="patch_7">
     <path d="M 762.651937 261.50875 
L 853.716 261.50875 
Q 855.716 261.50875 855.716 259.50875 
L 855.716 170.77125 
Q 855.716 168.77125 853.716 168.77125 
L 762.651937 168.77125 
Q 760.651937 168.77125 760.651937 170.77125 
L 760.651937 259.50875 
Q 760.651937 261.50875 762.651937 261.50875 
z
" style="fill:#ffffff;opacity:0.8;stroke:#cccccc;stroke-linejoin:miter;"/>
    </g>
    <g id="line2d_22">
     <path d="M 764.651937 176.869687 
L 784.651937 176.869687 
" style="fill:none;stroke:#1f77b4;stroke-linecap:square;stroke-width:1.5;"/>
    </g>
    <g id="line2d_23"/>
    <g id="text_17">
     <!-- htm_0 -->
     <defs>
      <path d="M 54.890625 33.015625 
L 54.890625 0 
L 45.90625 0 
L 45.90625 32.71875 
Q 45.90625 40.484375 42.875 44.328125 
Q 39.84375 48.1875 33.796875 48.1875 
Q 26.515625 48.1875 22.3125 43.546875 
Q 18.109375 38.921875 18.109375 30.90625 
L 18.109375 0 
L 9.078125 0 
L 9.078125 75.984375 
L 18.109375 75.984375 
L 18.109375 46.1875 
Q 21.34375 51.125 25.703125 53.5625 
Q 30.078125 56 35.796875 56 
Q 45.21875 56 50.046875 50.171875 
Q 54.890625 44.34375 54.890625 33.015625 
z
" id="DejaVuSans-104"/>
      <path d="M 18.3125 70.21875 
L 18.3125 54.6875 
L 36.8125 54.6875 
L 36.8125 47.703125 
L 18.3125 47.703125 
L 18.3125 18.015625 
Q 18.3125 11.328125 20.140625 9.421875 
Q 21.96875 7.515625 27.59375 7.515625 
L 36.8125 7.515625 
L 36.8125 0 
L 27.59375 0 
Q 17.1875 0 13.234375 3.875 
Q 9.28125 7.765625 9.28125 18.015625 
L 9.28125 47.703125 
L 2.6875 47.703125 
L 2.6875 54.6875 
L 9.28125 54.6875 
L 9.28125 70.21875 
z
" id="DejaVuSans-116"/>
      <path d="M 52 44.1875 
Q 55.375 50.25 60.0625 53.125 
Q 64.75 56 71.09375 56 
Q 79.640625 56 84.28125 50.015625 
Q 88.921875 44.046875 88.921875 33.015625 
L 88.921875 0 
L 79.890625 0 
L 79.890625 32.71875 
Q 79.890625 40.578125 77.09375 44.375 
Q 74.3125 48.1875 68.609375 48.1875 
Q 61.625 48.1875 57.5625 43.546875 
Q 53.515625 38.921875 53.515625 30.90625 
L 53.515625 0 
L 44.484375 0 
L 44.484375 32.71875 
Q 44.484375 40.625 41.703125 44.40625 
Q 38.921875 48.1875 33.109375 48.1875 
Q 26.21875 48.1875 22.15625 43.53125 
Q 18.109375 38.875 18.109375 30.90625 
L 18.109375 0 
L 9.078125 0 
L 9.078125 54.6875 
L 18.109375 54.6875 
L 18.109375 46.1875 
Q 21.1875 51.21875 25.484375 53.609375 
Q 29.78125 56 35.6875 56 
Q 41.65625 56 45.828125 52.96875 
Q 50 49.953125 52 44.1875 
z
" id="DejaVuSans-109"/>
     </defs>
     <g transform="translate(792.651937 180.369687)scale(0.1 -0.1)">
      <use xlink:href="#DejaVuSans-104"/>
      <use x="63.378906" xlink:href="#DejaVuSans-116"/>
      <use x="102.587891" xlink:href="#DejaVuSans-109"/>
      <use x="200" xlink:href="#DejaVuSans-95"/>
      <use x="250" xlink:href="#DejaVuSans-48"/>
     </g>
    </g>
    <g id="line2d_24">
     <path d="M 764.651937 191.825938 
L 784.651937 191.825938 
" style="fill:none;stroke:#ff7f0e;stroke-linecap:square;stroke-width:1.5;"/>
    </g>
    <g id="line2d_25"/>
    <g id="text_18">
     <!-- dqn_greedy -->
     <defs>
      <path d="M 14.796875 27.296875 
Q 14.796875 17.390625 18.875 11.75 
Q 22.953125 6.109375 30.078125 6.109375 
Q 37.203125 6.109375 41.296875 11.75 
Q 45.40625 17.390625 45.40625 27.296875 
Q 45.40625 37.203125 41.296875 42.84375 
Q 37.203125 48.484375 30.078125 48.484375 
Q 22.953125 48.484375 18.875 42.84375 
Q 14.796875 37.203125 14.796875 27.296875 
z
M 45.40625 8.203125 
Q 42.578125 3.328125 38.25 0.953125 
Q 33.9375 -1.421875 27.875 -1.421875 
Q 17.96875 -1.421875 11.734375 6.484375 
Q 5.515625 14.40625 5.515625 27.296875 
Q 5.515625 40.1875 11.734375 48.09375 
Q 17.96875 56 27.875 56 
Q 33.9375 56 38.25 53.625 
Q 42.578125 51.265625 45.40625 46.390625 
L 45.40625 54.6875 
L 54.390625 54.6875 
L 54.390625 -20.796875 
L 45.40625 -20.796875 
z
" id="DejaVuSans-113"/>
      <path d="M 54.890625 33.015625 
L 54.890625 0 
L 45.90625 0 
L 45.90625 32.71875 
Q 45.90625 40.484375 42.875 44.328125 
Q 39.84375 48.1875 33.796875 48.1875 
Q 26.515625 48.1875 22.3125 43.546875 
Q 18.109375 38.921875 18.109375 30.90625 
L 18.109375 0 
L 9.078125 0 
L 9.078125 54.6875 
L 18.109375 54.6875 
L 18.109375 46.1875 
Q 21.34375 51.125 25.703125 53.5625 
Q 30.078125 56 35.796875 56 
Q 45.21875 56 50.046875 50.171875 
Q 54.890625 44.34375 54.890625 33.015625 
z
" id="DejaVuSans-110"/>
      <path d="M 32.171875 -5.078125 
Q 28.375 -14.84375 24.75 -17.8125 
Q 21.140625 -20.796875 15.09375 -20.796875 
L 7.90625 -20.796875 
L 7.90625 -13.28125 
L 13.1875 -13.28125 
Q 16.890625 -13.28125 18.9375 -11.515625 
Q 21 -9.765625 23.484375 -3.21875 
L 25.09375 0.875 
L 2.984375 54.6875 
L 12.5 54.6875 
L 29.59375 11.921875 
L 46.6875 54.6875 
L 56.203125 54.6875 
z
" id="DejaVuSans-121"/>
     </defs>
     <g transform="translate(792.651937 195.325938)scale(0.1 -0.1)">
      <use xlink:href="#DejaVuSans-100"/>
      <use x="63.476562" xlink:href="#DejaVuSans-113"/>
      <use x="126.953125" xlink:href="#DejaVuSans-110"/>
      <use x="190.332031" xlink:href="#DejaVuSans-95"/>
      <use x="240.332031" xlink:href="#DejaVuSans-103"/>
      <use x="303.808594" xlink:href="#DejaVuSans-114"/>
      <use x="344.890625" xlink:href="#DejaVuSans-101"/>
      <use x="406.414062" xlink:href="#DejaVuSans-101"/>
      <use x="467.9375" xlink:href="#DejaVuSans-100"/>
      <use x="531.414062" xlink:href="#DejaVuSans-121"/>
     </g>
    </g>
    <g id="line2d_26">
     <path d="M 764.651937 206.782187 
L 784.651937 206.782187 
" style="fill:none;stroke:#2ca02c;stroke-linecap:square;stroke-width:1.5;"/>
    </g>
    <g id="line2d_27"/>
    <g id="text_19">
     <!-- htm_1_1g -->
     <g transform="translate(792.651937 210.282187)scale(0.1 -0.1)">
      <use xlink:href="#DejaVuSans-104"/>
      <use x="63.378906" xlink:href="#DejaVuSans-116"/>
      <use x="102.587891" xlink:href="#DejaVuSans-109"/>
      <use x="200" xlink:href="#DejaVuSans-95"/>
      <use x="250" xlink:href="#DejaVuSans-49"/>
      <use x="313.623047" xlink:href="#DejaVuSans-95"/>
      <use x="363.623047" xlink:href="#DejaVuSans-49"/>
      <use x="427.246094" xlink:href="#DejaVuSans-103"/>
     </g>
    </g>
    <g id="line2d_28">
     <path d="M 764.651937 221.738438 
L 784.651937 221.738438 
" style="fill:none;stroke:#d62728;stroke-linecap:square;stroke-width:1.5;"/>
    </g>
    <g id="line2d_29"/>
    <g id="text_20">
     <!-- htm_2_1g -->
     <g transform="translate(792.651937 225.238438)scale(0.1 -0.1)">
      <use xlink:href="#DejaVuSans-104"/>
      <use x="63.378906" xlink:href="#DejaVuSans-116"/>
      <use x="102.587891" xlink:href="#DejaVuSans-109"/>
      <use x="200" xlink:href="#DejaVuSans-95"/>
      <use x="250" xlink:href="#DejaVuSans-50"/>
      <use x="313.623047" xlink:href="#DejaVuSans-95"/>
      <use x="363.623047" xlink:href="#DejaVuSans-49"/>
      <use x="427.246094" xlink:href="#DejaVuSans-103"/>
     </g>
    </g>
    <g id="line2d_30">
     <path d="M 764.651937 236.694687 
L 784.651937 236.694687 
" style="fill:none;stroke:#9467bd;stroke-linecap:square;stroke-width:1.5;"/>
    </g>
    <g id="line2d_31"/>
    <g id="text_21">
     <!-- htm_4_1g -->
     <g transform="translate(792.651937 240.194687)scale(0.1 -0.1)">
      <use xlink:href="#DejaVuSans-104"/>
      <use x="63.378906" xlink:href="#DejaVuSans-116"/>
      <use x="102.587891" xlink:href="#DejaVuSans-109"/>
      <use x="200" xlink:href="#DejaVuSans-95"/>
      <use x="250" xlink:href="#DejaVuSans-52"/>
      <use x="313.623047" xlink:href="#DejaVuSans-95"/>
      <use x="363.623047" xlink:href="#DejaVuSans-49"/>
      <use x="427.246094" xlink:href="#DejaVuSans-103"/>
     </g>
    </g>
    <g id="line2d_32">
     <path d="M 764.651937 251.650937 
L 784.651937 251.650937 
" style="fill:none;stroke:#8c564b;stroke-linecap:square;stroke-width:1.5;"/>
    </g>
    <g id="line2d_33"/>
    <g id="text_22">
     <!-- htm_8_1g -->
     <defs>
      <path d="M 31.78125 34.625 
Q 24.75 34.625 20.71875 30.859375 
Q 16.703125 27.09375 16.703125 20.515625 
Q 16.703125 13.921875 20.71875 10.15625 
Q 24.75 6.390625 31.78125 6.390625 
Q 38.8125 6.390625 42.859375 10.171875 
Q 46.921875 13.96875 46.921875 20.515625 
Q 46.921875 27.09375 42.890625 30.859375 
Q 38.875 34.625 31.78125 34.625 
z
M 21.921875 38.8125 
Q 15.578125 40.375 12.03125 44.71875 
Q 8.5 49.078125 8.5 55.328125 
Q 8.5 64.0625 14.71875 69.140625 
Q 20.953125 74.21875 31.78125 74.21875 
Q 42.671875 74.21875 48.875 69.140625 
Q 55.078125 64.0625 55.078125 55.328125 
Q 55.078125 49.078125 51.53125 44.71875 
Q 48 40.375 41.703125 38.8125 
Q 48.828125 37.15625 52.796875 32.3125 
Q 56.78125 27.484375 56.78125 20.515625 
Q 56.78125 9.90625 50.3125 4.234375 
Q 43.84375 -1.421875 31.78125 -1.421875 
Q 19.734375 -1.421875 13.25 4.234375 
Q 6.78125 9.90625 6.78125 20.515625 
Q 6.78125 27.484375 10.78125 32.3125 
Q 14.796875 37.15625 21.921875 38.8125 
z
M 18.3125 54.390625 
Q 18.3125 48.734375 21.84375 45.5625 
Q 25.390625 42.390625 31.78125 42.390625 
Q 38.140625 42.390625 41.71875 45.5625 
Q 45.3125 48.734375 45.3125 54.390625 
Q 45.3125 60.0625 41.71875 63.234375 
Q 38.140625 66.40625 31.78125 66.40625 
Q 25.390625 66.40625 21.84375 63.234375 
Q 18.3125 60.0625 18.3125 54.390625 
z
" id="DejaVuSans-56"/>
     </defs>
     <g transform="translate(792.651937 255.150937)scale(0.1 -0.1)">
      <use xlink:href="#DejaVuSans-104"/>
      <use x="63.378906" xlink:href="#DejaVuSans-116"/>
      <use x="102.587891" xlink:href="#DejaVuSans-109"/>
      <use x="200" xlink:href="#DejaVuSans-95"/>
      <use x="250" xlink:href="#DejaVuSans-56"/>
      <use x="313.623047" xlink:href="#DejaVuSans-95"/>
      <use x="363.623047" xlink:href="#DejaVuSans-49"/>
      <use x="427.246094" xlink:href="#DejaVuSans-103"/>
     </g>
    </g>
   </g>
  </g>
 </g>
 <defs>
  <clipPath id="pe4d58a024f">
   <rect height="377.96" width="682.18" x="42.1" y="26.16"/>
  </clipPath>
 </defs>
</svg>
