<?xml version="1.0" encoding="utf-8" standalone="no"?>
<!DOCTYPE svg PUBLIC "-//W3C//DTD SVG 1.1//EN"
  "http://www.w3.org/Graphics/SVG/1.1/DTD/svg11.dtd">
<!-- Created with matplotlib (https://matplotlib.org/) -->
<svg height="432pt" version="1.1" viewBox="0 0 864 432" width="864pt" xmlns="http://www.w3.org/2000/svg" xmlns:xlink="http://www.w3.org/1999/xlink">
 <defs>
  <style type="text/css">
*{stroke-linecap:butt;stroke-linejoin:round;}
  </style>
 </defs>
 <g id="figure_1">
  <g id="patch_1">
   <path d="M 0 432 
L 864 432 
L 864 0 
L 0 0 
z
" style="fill:#ffffff;"/>
  </g>
  <g id="axes_1">
   <g id="patch_2">
    <path d="M 40.165 404.12 
L 724.28 404.12 
L 724.28 26.16 
L 40.165 26.16 
z
" style="fill:#ffffff;"/>
   </g>
   <g id="matplotlib.axis_1">
    <g id="xtick_1">
     <g id="line2d_1">
      <defs>
       <path d="M 0 0 
L 0 3.5 
" id="m56dd123f85" style="stroke:#000000;stroke-width:0.8;"/>
      </defs>
      <g>
       <use style="stroke:#000000;stroke-width:0.8;" x="40.165" xlink:href="#m56dd123f85" y="404.12"/>
      </g>
     </g>
     <g id="text_1">
      <!-- 0 -->
      <defs>
       <path d="M 31.78125 66.40625 
Q 24.171875 66.40625 20.328125 58.90625 
Q 16.5 51.421875 16.5 36.375 
Q 16.5 21.390625 20.328125 13.890625 
Q 24.171875 6.390625 31.78125 6.390625 
Q 39.453125 6.390625 43.28125 13.890625 
Q 47.125 21.390625 47.125 36.375 
Q 47.125 51.421875 43.28125 58.90625 
Q 39.453125 66.40625 31.78125 66.40625 
z
M 31.78125 74.21875 
Q 44.046875 74.21875 50.515625 64.515625 
Q 56.984375 54.828125 56.984375 36.375 
Q 56.984375 17.96875 50.515625 8.265625 
Q 44.046875 -1.421875 31.78125 -1.421875 
Q 19.53125 -1.421875 13.0625 8.265625 
Q 6.59375 17.96875 6.59375 36.375 
Q 6.59375 54.828125 13.0625 64.515625 
Q 19.53125 74.21875 31.78125 74.21875 
z
" id="DejaVuSans-48"/>
      </defs>
      <g transform="translate(36.98375 418.718437)scale(0.1 -0.1)">
       <use xlink:href="#DejaVuSans-48"/>
      </g>
     </g>
    </g>
    <g id="xtick_2">
     <g id="line2d_2">
      <g>
       <use style="stroke:#000000;stroke-width:0.8;" x="126.109095" xlink:href="#m56dd123f85" y="404.12"/>
      </g>
     </g>
     <g id="text_2">
      <!-- 25 -->
      <defs>
       <path d="M 19.1875 8.296875 
L 53.609375 8.296875 
L 53.609375 0 
L 7.328125 0 
L 7.328125 8.296875 
Q 12.9375 14.109375 22.625 23.890625 
Q 32.328125 33.6875 34.8125 36.53125 
Q 39.546875 41.84375 41.421875 45.53125 
Q 43.3125 49.21875 43.3125 52.78125 
Q 43.3125 58.59375 39.234375 62.25 
Q 35.15625 65.921875 28.609375 65.921875 
Q 23.96875 65.921875 18.8125 64.3125 
Q 13.671875 62.703125 7.8125 59.421875 
L 7.8125 69.390625 
Q 13.765625 71.78125 18.9375 73 
Q 24.125 74.21875 28.421875 74.21875 
Q 39.75 74.21875 46.484375 68.546875 
Q 53.21875 62.890625 53.21875 53.421875 
Q 53.21875 48.921875 51.53125 44.890625 
Q 49.859375 40.875 45.40625 35.40625 
Q 44.1875 33.984375 37.640625 27.21875 
Q 31.109375 20.453125 19.1875 8.296875 
z
" id="DejaVuSans-50"/>
       <path d="M 10.796875 72.90625 
L 49.515625 72.90625 
L 49.515625 64.59375 
L 19.828125 64.59375 
L 19.828125 46.734375 
Q 21.96875 47.46875 24.109375 47.828125 
Q 26.265625 48.1875 28.421875 48.1875 
Q 40.625 48.1875 47.75 41.5 
Q 54.890625 34.8125 54.890625 23.390625 
Q 54.890625 11.625 47.5625 5.09375 
Q 40.234375 -1.421875 26.90625 -1.421875 
Q 22.3125 -1.421875 17.546875 -0.640625 
Q 12.796875 0.140625 7.71875 1.703125 
L 7.71875 11.625 
Q 12.109375 9.234375 16.796875 8.0625 
Q 21.484375 6.890625 26.703125 6.890625 
Q 35.15625 6.890625 40.078125 11.328125 
Q 45.015625 15.765625 45.015625 23.390625 
Q 45.015625 31 40.078125 35.4375 
Q 35.15625 39.890625 26.703125 39.890625 
Q 22.75 39.890625 18.8125 39.015625 
Q 14.890625 38.140625 10.796875 36.28125 
z
" id="DejaVuSans-53"/>
      </defs>
      <g transform="translate(119.746595 418.718437)scale(0.1 -0.1)">
       <use xlink:href="#DejaVuSans-50"/>
       <use x="63.623047" xlink:href="#DejaVuSans-53"/>
      </g>
     </g>
    </g>
    <g id="xtick_3">
     <g id="line2d_3">
      <g>
       <use style="stroke:#000000;stroke-width:0.8;" x="212.053191" xlink:href="#m56dd123f85" y="404.12"/>
      </g>
     </g>
     <g id="text_3">
      <!-- 50 -->
      <g transform="translate(205.690691 418.718437)scale(0.1 -0.1)">
       <use xlink:href="#DejaVuSans-53"/>
       <use x="63.623047" xlink:href="#DejaVuSans-48"/>
      </g>
     </g>
    </g>
    <g id="xtick_4">
     <g id="line2d_4">
      <g>
       <use style="stroke:#000000;stroke-width:0.8;" x="297.997286" xlink:href="#m56dd123f85" y="404.12"/>
      </g>
     </g>
     <g id="text_4">
      <!-- 75 -->
      <defs>
       <path d="M 8.203125 72.90625 
L 55.078125 72.90625 
L 55.078125 68.703125 
L 28.609375 0 
L 18.3125 0 
L 43.21875 64.59375 
L 8.203125 64.59375 
z
" id="DejaVuSans-55"/>
      </defs>
      <g transform="translate(291.634786 418.718437)scale(0.1 -0.1)">
       <use xlink:href="#DejaVuSans-55"/>
       <use x="63.623047" xlink:href="#DejaVuSans-53"/>
      </g>
     </g>
    </g>
    <g id="xtick_5">
     <g id="line2d_5">
      <g>
       <use style="stroke:#000000;stroke-width:0.8;" x="383.941382" xlink:href="#m56dd123f85" y="404.12"/>
      </g>
     </g>
     <g id="text_5">
      <!-- 100 -->
      <defs>
       <path d="M 12.40625 8.296875 
L 28.515625 8.296875 
L 28.515625 63.921875 
L 10.984375 60.40625 
L 10.984375 69.390625 
L 28.421875 72.90625 
L 38.28125 72.90625 
L 38.28125 8.296875 
L 54.390625 8.296875 
L 54.390625 0 
L 12.40625 0 
z
" id="DejaVuSans-49"/>
      </defs>
      <g transform="translate(374.397632 418.718437)scale(0.1 -0.1)">
       <use xlink:href="#DejaVuSans-49"/>
       <use x="63.623047" xlink:href="#DejaVuSans-48"/>
       <use x="127.246094" xlink:href="#DejaVuSans-48"/>
      </g>
     </g>
    </g>
    <g id="xtick_6">
     <g id="line2d_6">
      <g>
       <use style="stroke:#000000;stroke-width:0.8;" x="469.885477" xlink:href="#m56dd123f85" y="404.12"/>
      </g>
     </g>
     <g id="text_6">
      <!-- 125 -->
      <g transform="translate(460.341727 418.718437)scale(0.1 -0.1)">
       <use xlink:href="#DejaVuSans-49"/>
       <use x="63.623047" xlink:href="#DejaVuSans-50"/>
       <use x="127.246094" xlink:href="#DejaVuSans-53"/>
      </g>
     </g>
    </g>
    <g id="xtick_7">
     <g id="line2d_7">
      <g>
       <use style="stroke:#000000;stroke-width:0.8;" x="555.829573" xlink:href="#m56dd123f85" y="404.12"/>
      </g>
     </g>
     <g id="text_7">
      <!-- 150 -->
      <g transform="translate(546.285823 418.718437)scale(0.1 -0.1)">
       <use xlink:href="#DejaVuSans-49"/>
       <use x="63.623047" xlink:href="#DejaVuSans-53"/>
       <use x="127.246094" xlink:href="#DejaVuSans-48"/>
      </g>
     </g>
    </g>
    <g id="xtick_8">
     <g id="line2d_8">
      <g>
       <use style="stroke:#000000;stroke-width:0.8;" x="641.773668" xlink:href="#m56dd123f85" y="404.12"/>
      </g>
     </g>
     <g id="text_8">
      <!-- 175 -->
      <g transform="translate(632.229918 418.718437)scale(0.1 -0.1)">
       <use xlink:href="#DejaVuSans-49"/>
       <use x="63.623047" xlink:href="#DejaVuSans-55"/>
       <use x="127.246094" xlink:href="#DejaVuSans-53"/>
      </g>
     </g>
    </g>
   </g>
   <g id="matplotlib.axis_2">
    <g id="ytick_1">
     <g id="line2d_9">
      <defs>
       <path d="M 0 0 
L -3.5 0 
" id="m4fde77bb62" style="stroke:#000000;stroke-width:0.8;"/>
      </defs>
      <g>
       <use style="stroke:#000000;stroke-width:0.8;" x="40.165" xlink:href="#m4fde77bb62" y="388.302924"/>
      </g>
     </g>
     <g id="text_9">
      <!-- 0.00 -->
      <defs>
       <path d="M 10.6875 12.40625 
L 21 12.40625 
L 21 0 
L 10.6875 0 
z
" id="DejaVuSans-46"/>
      </defs>
      <g transform="translate(10.899375 392.102142)scale(0.1 -0.1)">
       <use xlink:href="#DejaVuSans-48"/>
       <use x="63.623047" xlink:href="#DejaVuSans-46"/>
       <use x="95.410156" xlink:href="#DejaVuSans-48"/>
       <use x="159.033203" xlink:href="#DejaVuSans-48"/>
      </g>
     </g>
    </g>
    <g id="ytick_2">
     <g id="line2d_10">
      <g>
       <use style="stroke:#000000;stroke-width:0.8;" x="40.165" xlink:href="#m4fde77bb62" y="338.053154"/>
      </g>
     </g>
     <g id="text_10">
      <!-- 0.25 -->
      <g transform="translate(10.899375 341.852372)scale(0.1 -0.1)">
       <use xlink:href="#DejaVuSans-48"/>
       <use x="63.623047" xlink:href="#DejaVuSans-46"/>
       <use x="95.410156" xlink:href="#DejaVuSans-50"/>
       <use x="159.033203" xlink:href="#DejaVuSans-53"/>
      </g>
     </g>
    </g>
    <g id="ytick_3">
     <g id="line2d_11">
      <g>
       <use style="stroke:#000000;stroke-width:0.8;" x="40.165" xlink:href="#m4fde77bb62" y="287.803384"/>
      </g>
     </g>
     <g id="text_11">
      <!-- 0.50 -->
      <g transform="translate(10.899375 291.602603)scale(0.1 -0.1)">
       <use xlink:href="#DejaVuSans-48"/>
       <use x="63.623047" xlink:href="#DejaVuSans-46"/>
       <use x="95.410156" xlink:href="#DejaVuSans-53"/>
       <use x="159.033203" xlink:href="#DejaVuSans-48"/>
      </g>
     </g>
    </g>
    <g id="ytick_4">
     <g id="line2d_12">
      <g>
       <use style="stroke:#000000;stroke-width:0.8;" x="40.165" xlink:href="#m4fde77bb62" y="237.553614"/>
      </g>
     </g>
     <g id="text_12">
      <!-- 0.75 -->
      <g transform="translate(10.899375 241.352833)scale(0.1 -0.1)">
       <use xlink:href="#DejaVuSans-48"/>
       <use x="63.623047" xlink:href="#DejaVuSans-46"/>
       <use x="95.410156" xlink:href="#DejaVuSans-55"/>
       <use x="159.033203" xlink:href="#DejaVuSans-53"/>
      </g>
     </g>
    </g>
    <g id="ytick_5">
     <g id="line2d_13">
      <g>
       <use style="stroke:#000000;stroke-width:0.8;" x="40.165" xlink:href="#m4fde77bb62" y="187.303844"/>
      </g>
     </g>
     <g id="text_13">
      <!-- 1.00 -->
      <g transform="translate(10.899375 191.103063)scale(0.1 -0.1)">
       <use xlink:href="#DejaVuSans-49"/>
       <use x="63.623047" xlink:href="#DejaVuSans-46"/>
       <use x="95.410156" xlink:href="#DejaVuSans-48"/>
       <use x="159.033203" xlink:href="#DejaVuSans-48"/>
      </g>
     </g>
    </g>
    <g id="ytick_6">
     <g id="line2d_14">
      <g>
       <use style="stroke:#000000;stroke-width:0.8;" x="40.165" xlink:href="#m4fde77bb62" y="137.054074"/>
      </g>
     </g>
     <g id="text_14">
      <!-- 1.25 -->
      <g transform="translate(10.899375 140.853293)scale(0.1 -0.1)">
       <use xlink:href="#DejaVuSans-49"/>
       <use x="63.623047" xlink:href="#DejaVuSans-46"/>
       <use x="95.410156" xlink:href="#DejaVuSans-50"/>
       <use x="159.033203" xlink:href="#DejaVuSans-53"/>
      </g>
     </g>
    </g>
    <g id="ytick_7">
     <g id="line2d_15">
      <g>
       <use style="stroke:#000000;stroke-width:0.8;" x="40.165" xlink:href="#m4fde77bb62" y="86.804304"/>
      </g>
     </g>
     <g id="text_15">
      <!-- 1.50 -->
      <g transform="translate(10.899375 90.603523)scale(0.1 -0.1)">
       <use xlink:href="#DejaVuSans-49"/>
       <use x="63.623047" xlink:href="#DejaVuSans-46"/>
       <use x="95.410156" xlink:href="#DejaVuSans-53"/>
       <use x="159.033203" xlink:href="#DejaVuSans-48"/>
      </g>
     </g>
    </g>
    <g id="ytick_8">
     <g id="line2d_16">
      <g>
       <use style="stroke:#000000;stroke-width:0.8;" x="40.165" xlink:href="#m4fde77bb62" y="36.554534"/>
      </g>
     </g>
     <g id="text_16">
      <!-- 1.75 -->
      <g transform="translate(10.899375 40.353753)scale(0.1 -0.1)">
       <use xlink:href="#DejaVuSans-49"/>
       <use x="63.623047" xlink:href="#DejaVuSans-46"/>
       <use x="95.410156" xlink:href="#DejaVuSans-55"/>
       <use x="159.033203" xlink:href="#DejaVuSans-53"/>
      </g>
     </g>
    </g>
   </g>
   <g id="line2d_17">
    <path clip-path="url(#pb980f29ccb)" d="M 174.237789 386.807952 
L 181.113317 386.73574 
L 229.24201 386.841007 
L 232.679774 386.728241 
L 242.993065 386.828828 
L 267.057412 386.822189 
L 270.495176 386.572139 
L 311.748342 386.548687 
L 315.186106 386.718411 
L 328.937161 386.625573 
L 332.374925 386.380799 
L 342.688216 386.337061 
L 349.563744 386.429766 
L 353.001508 386.598885 
L 363.314799 386.652499 
L 366.752563 386.6383 
L 370.190327 386.747537 
L 373.62809 386.613634 
L 380.503618 386.594467 
L 383.941382 386.441607 
L 397.692437 386.396361 
L 401.130201 386.124083 
L 404.567965 386.115926 
L 408.005729 386.353426 
L 418.31902 386.102857 
L 421.756784 386.108023 
L 425.194548 385.864513 
L 463.00995 385.730029 
L 466.447714 385.853601 
L 469.885477 386.107625 
L 476.761005 386.131341 
L 497.387588 385.921428 
L 500.825352 385.704627 
L 521.451935 385.870519 
L 524.889698 385.639312 
L 535.20299 385.616389 
L 538.640754 385.869232 
L 559.267337 385.847886 
L 562.705101 386.135101 
L 590.207211 386.147321 
L 597.082739 386.308871 
L 621.147085 386.124972 
L 631.460377 386.174255 
L 634.898141 386.063283 
L 641.773668 386.152359 
L 652.08696 386.203033 
L 655.524724 386.158284 
L 669.275779 386.444931 
L 672.713543 386.281616 
L 686.464598 386.337614 
L 689.902362 386.535717 
L 693.340126 386.455523 
L 696.777889 386.577461 
L 710.528945 386.29104 
L 724.28 386.280589 
L 724.28 386.280589 
" style="fill:none;stroke:#1f77b4;stroke-linecap:square;stroke-width:1.5;"/>
   </g>
   <g id="line2d_18">
    <path clip-path="url(#pb980f29ccb)" d="M 174.237789 382.639613 
L 181.113317 382.627512 
L 184.55108 382.429661 
L 194.864372 382.419745 
L 198.302136 382.248611 
L 201.739899 382.415663 
L 208.615427 382.412024 
L 212.053191 382.243247 
L 218.928719 382.234143 
L 222.366482 382.401718 
L 225.804246 382.406468 
L 229.24201 382.23848 
L 253.306357 382.251443 
L 256.744121 382.413245 
L 263.619648 382.459397 
L 267.057412 382.292255 
L 270.495176 382.287735 
L 273.93294 382.452171 
L 277.370704 382.285443 
L 284.246231 382.271956 
L 287.683995 382.104295 
L 294.559523 382.103892 
L 297.997286 382.278042 
L 315.186106 382.289255 
L 318.623869 382.458295 
L 322.061633 382.48597 
L 325.499397 382.654161 
L 353.001508 382.752449 
L 356.439271 382.935925 
L 359.877035 382.766552 
L 421.756784 382.624997 
L 425.194548 382.792135 
L 428.632312 382.789683 
L 432.070075 382.959319 
L 435.507839 382.790956 
L 452.696658 382.78766 
L 456.134422 382.610458 
L 459.572186 382.613321 
L 463.00995 382.44706 
L 480.198769 382.350615 
L 483.636533 382.177905 
L 487.074296 382.174035 
L 490.51206 382.348182 
L 493.949824 382.18025 
L 500.825352 382.182892 
L 504.263116 382.349456 
L 511.138643 382.350402 
L 514.576407 382.518003 
L 528.327462 382.524674 
L 531.765226 382.354451 
L 538.640754 382.356851 
L 542.078518 382.523903 
L 559.267337 382.513315 
L 562.705101 382.343845 
L 566.142864 382.341313 
L 569.580628 382.174821 
L 576.456156 382.178829 
L 579.89392 382.346024 
L 583.331683 382.345116 
L 590.207211 382.679847 
L 593.644975 382.693035 
L 597.082739 382.860298 
L 624.584849 382.863144 
L 628.022613 382.696108 
L 631.460377 382.863982 
L 638.335905 382.860547 
L 641.773668 382.696234 
L 662.400251 382.693993 
L 665.838015 382.865367 
L 683.026834 382.86905 
L 686.464598 383.036393 
L 696.777889 383.039088 
L 700.215653 383.20552 
L 713.966709 383.208846 
L 717.404472 383.039744 
L 724.28 383.0374 
L 724.28 383.0374 
" style="fill:none;stroke:#ff7f0e;stroke-linecap:square;stroke-width:1.5;"/>
   </g>
   <g id="line2d_19">
    <path clip-path="url(#pb980f29ccb)" d="M 174.237789 249.416648 
L 177.675553 246.510514 
L 181.113317 245.48504 
L 184.55108 245.439559 
L 187.988844 238.667985 
L 191.426608 238.607517 
L 194.864372 238.430037 
L 198.302136 240.996151 
L 201.739899 253.834573 
L 205.177663 267.925671 
L 208.615427 269.003752 
L 212.053191 281.535343 
L 215.490955 274.754675 
L 218.928719 262.087723 
L 222.366482 262.676444 
L 225.804246 261.758888 
L 229.24201 261.811136 
L 232.679774 262.0587 
L 236.117538 267.336298 
L 239.555302 267.348488 
L 242.993065 266.6631 
L 246.430829 266.645274 
L 249.868593 266.464737 
L 253.306357 248.560755 
L 256.744121 248.545065 
L 260.181884 247.906938 
L 263.619648 247.438386 
L 267.057412 262.468947 
L 270.495176 244.266142 
L 273.93294 242.320123 
L 277.370704 228.109209 
L 280.808467 228.190156 
L 284.246231 228.489202 
L 287.683995 209.256783 
L 291.121759 206.063105 
L 294.559523 204.774362 
L 297.997286 204.756719 
L 301.43505 204.53827 
L 304.872814 220.865203 
L 308.310578 218.279858 
L 311.748342 217.549256 
L 315.186106 220.464739 
L 318.623869 204.855701 
L 322.061633 201.184418 
L 325.499397 217.941803 
L 328.937161 217.916746 
L 332.374925 200.744808 
L 335.812688 200.068204 
L 339.250452 201.251869 
L 342.688216 201.238469 
L 346.12598 200.524768 
L 349.563744 202.539723 
L 353.001508 202.559817 
L 356.439271 219.241707 
L 359.877035 215.401212 
L 363.314799 216.530839 
L 366.752563 212.230599 
L 370.190327 211.027907 
L 373.62809 197.505981 
L 377.065854 197.498142 
L 380.503618 194.785848 
L 383.941382 192.775442 
L 387.379146 173.235208 
L 390.81691 189.306043 
L 394.254673 188.797125 
L 401.130201 189.901157 
L 404.567965 189.791918 
L 408.005729 204.620226 
L 411.443492 193.022094 
L 414.881256 189.619067 
L 418.31902 187.700649 
L 421.756784 187.691574 
L 425.194548 196.620658 
L 428.632312 197.34491 
L 432.070075 193.740989 
L 438.945603 154.142809 
L 442.383367 154.051563 
L 445.821131 156.091835 
L 449.258894 153.551028 
L 452.696658 153.345636 
L 456.134422 170.605612 
L 459.572186 172.958648 
L 463.00995 173.08536 
L 466.447714 172.635106 
L 469.885477 169.264018 
L 473.323241 169.574677 
L 476.761005 168.083011 
L 480.198769 164.710644 
L 483.636533 165.363508 
L 487.074296 158.563383 
L 490.51206 175.287645 
L 493.949824 175.469113 
L 497.387588 174.946481 
L 500.825352 174.2814 
L 504.263116 176.628826 
L 507.700879 177.180233 
L 511.138643 169.975959 
L 514.576407 149.754964 
L 518.014171 154.441381 
L 521.451935 155.943678 
L 524.889698 154.204081 
L 528.327462 152.942839 
L 531.765226 131.490393 
L 535.20299 131.507957 
L 538.640754 109.183306 
L 542.078518 105.056195 
L 545.516281 108.447872 
L 548.954045 121.325073 
L 552.391809 139.063945 
L 555.829573 139.417687 
L 559.267337 136.403895 
L 562.705101 146.707678 
L 566.142864 149.131197 
L 573.018392 189.36263 
L 576.456156 208.026171 
L 579.89392 208.148771 
L 583.331683 208.795473 
L 586.769447 212.696529 
L 590.207211 209.618261 
L 593.644975 210.070319 
L 600.520503 209.707504 
L 603.958266 204.329281 
L 607.39603 225.468148 
L 610.833794 225.177386 
L 614.271558 220.244639 
L 617.709322 223.367862 
L 621.147085 215.28576 
L 624.584849 222.859252 
L 628.022613 224.430242 
L 631.460377 222.868738 
L 634.898141 217.493255 
L 638.335905 194.7339 
L 641.773668 196.585324 
L 645.211432 197.104451 
L 648.649196 218.079132 
L 652.08696 238.284348 
L 655.524724 215.21436 
L 658.962487 213.74402 
L 662.400251 232.345144 
L 665.838015 235.183035 
L 669.275779 255.29629 
L 672.713543 240.582177 
L 676.151307 239.080532 
L 679.58907 242.841399 
L 683.026834 240.300976 
L 686.464598 241.15035 
L 689.902362 241.33449 
L 693.340126 242.417562 
L 696.777889 245.413072 
L 700.215653 244.268227 
L 703.653417 242.807573 
L 707.091181 240.739662 
L 710.528945 240.404559 
L 713.966709 217.153776 
L 717.404472 216.963774 
L 720.842236 214.62282 
L 724.28 214.625495 
L 724.28 214.625495 
" style="fill:none;stroke:#2ca02c;stroke-linecap:square;stroke-width:1.5;"/>
   </g>
   <g id="line2d_20">
    <path clip-path="url(#pb980f29ccb)" d="M 174.237789 245.695111 
L 177.675553 244.286085 
L 181.113317 228.60921 
L 184.55108 228.552649 
L 187.988844 223.032902 
L 191.426608 223.725431 
L 194.864372 223.827277 
L 198.302136 223.686241 
L 201.739899 233.991203 
L 205.177663 237.748538 
L 208.615427 237.973166 
L 212.053191 243.013314 
L 215.490955 247.749081 
L 218.928719 238.076927 
L 222.366482 236.91471 
L 225.804246 225.826272 
L 229.24201 208.708533 
L 232.679774 209.199544 
L 236.117538 217.319505 
L 239.555302 216.612375 
L 242.993065 204.878293 
L 246.430829 199.058339 
L 249.868593 198.834206 
L 253.306357 177.197739 
L 256.744121 162.240945 
L 260.181884 145.575139 
L 263.619648 145.840236 
L 267.057412 163.74963 
L 270.495176 147.300781 
L 273.93294 133.691171 
L 277.370704 136.665867 
L 280.808467 136.753278 
L 284.246231 137.169171 
L 287.683995 137.025972 
L 291.121759 135.358872 
L 294.559523 131.845971 
L 297.997286 131.799003 
L 301.43505 117.512156 
L 304.872814 119.683916 
L 308.310578 118.876062 
L 311.748342 129.496213 
L 315.186106 130.858784 
L 318.623869 127.684432 
L 322.061633 127.682734 
L 325.499397 142.812698 
L 328.937161 142.780321 
L 332.374925 124.938222 
L 339.250452 124.90911 
L 342.688216 128.691096 
L 346.12598 115.857441 
L 349.563744 123.784536 
L 353.001508 122.325479 
L 356.439271 138.604502 
L 359.877035 138.333113 
L 363.314799 131.444548 
L 366.752563 148.664582 
L 370.190327 148.018546 
L 373.62809 128.449905 
L 377.065854 129.071487 
L 380.503618 134.021275 
L 383.941382 138.395137 
L 387.379146 110.887267 
L 390.81691 129.871917 
L 394.254673 144.81384 
L 397.692437 161.348912 
L 401.130201 161.278031 
L 404.567965 162.172889 
L 408.005729 177.903335 
L 411.443492 189.49293 
L 414.881256 169.884326 
L 418.31902 163.8677 
L 421.756784 163.837021 
L 425.194548 163.961444 
L 428.632312 144.801986 
L 432.070075 161.842574 
L 435.507839 161.394599 
L 438.945603 172.780818 
L 442.383367 171.445673 
L 445.821131 140.034696 
L 449.258894 138.866002 
L 452.696658 137.333112 
L 456.134422 136.113362 
L 459.572186 136.054062 
L 463.00995 137.151675 
L 466.447714 137.19698 
L 469.885477 155.011111 
L 473.323241 133.484432 
L 476.761005 133.473191 
L 480.198769 117.899885 
L 483.636533 111.49675 
L 487.074296 80.815454 
L 490.51206 99.196976 
L 493.949824 98.968499 
L 497.387588 99.393482 
L 500.825352 117.645385 
L 504.263116 94.140324 
L 507.700879 94.797904 
L 511.138643 92.395954 
L 514.576407 70.533956 
L 518.014171 79.257425 
L 521.451935 80.260426 
L 524.889698 76.86102 
L 528.327462 57.016823 
L 531.765226 56.137807 
L 535.20299 55.723244 
L 538.640754 49.08153 
L 542.078518 48.836422 
L 545.516281 49.072879 
L 548.954045 50.844004 
L 552.391809 69.502736 
L 555.829573 72.250126 
L 559.267337 71.663879 
L 562.705101 71.685304 
L 566.142864 92.467656 
L 569.580628 92.660045 
L 573.018392 93.092433 
L 576.456156 94.072039 
L 579.89392 95.573797 
L 583.331683 127.400888 
L 586.769447 130.151835 
L 590.207211 127.267433 
L 593.644975 149.377286 
L 597.082739 149.449362 
L 600.520503 148.588696 
L 603.958266 139.543327 
L 607.39603 139.589283 
L 610.833794 160.462444 
L 614.271558 151.623002 
L 617.709322 166.864661 
L 621.147085 177.051088 
L 624.584849 208.122297 
L 628.022613 208.061242 
L 631.460377 206.495202 
L 634.898141 194.474349 
L 638.335905 169.277151 
L 641.773668 192.681487 
L 645.211432 192.297631 
L 652.08696 236.103491 
L 655.524724 232.86744 
L 658.962487 233.260328 
L 662.400251 240.230724 
L 665.838015 262.621878 
L 669.275779 263.222511 
L 672.713543 238.640374 
L 676.151307 242.951005 
L 679.58907 243.210912 
L 683.026834 227.879538 
L 686.464598 227.877604 
L 689.902362 228.747678 
L 693.340126 230.35424 
L 696.777889 230.95462 
L 700.215653 229.977561 
L 703.653417 229.155209 
L 707.091181 226.486616 
L 710.528945 226.115693 
L 713.966709 201.993379 
L 717.404472 201.809109 
L 720.842236 199.628414 
L 724.28 199.6299 
L 724.28 199.6299 
" style="fill:none;stroke:#d62728;stroke-linecap:square;stroke-width:1.5;"/>
   </g>
   <g id="line2d_21">
    <path clip-path="url(#pb980f29ccb)" d="M 174.237789 150.990403 
L 177.675553 135.92837 
L 181.113317 137.331307 
L 184.55108 137.313361 
L 187.988844 144.216104 
L 191.426608 136.566031 
L 194.864372 134.39929 
L 198.302136 134.371194 
L 201.739899 146.785971 
L 205.177663 151.473015 
L 208.615427 151.403712 
L 212.053191 151.128014 
L 215.490955 208.263962 
L 218.928719 197.670894 
L 222.366482 182.323938 
L 225.804246 165.025027 
L 232.679774 165.01491 
L 236.117538 175.876561 
L 239.555302 175.755811 
L 242.993065 175.453272 
L 249.868593 175.427916 
L 253.306357 161.364678 
L 256.744121 161.324363 
L 260.181884 145.596959 
L 263.619648 145.634267 
L 267.057412 164.091932 
L 270.495176 162.355104 
L 273.93294 145.532967 
L 277.370704 145.887699 
L 280.808467 145.862808 
L 284.246231 146.283438 
L 287.683995 137.438592 
L 291.121759 118.752381 
L 294.559523 119.510382 
L 297.997286 122.136962 
L 301.43505 117.923352 
L 304.872814 142.719813 
L 308.310578 142.852799 
L 311.748342 141.456737 
L 315.186106 138.899203 
L 318.623869 138.896443 
L 322.061633 138.08806 
L 325.499397 139.157445 
L 328.937161 145.757019 
L 332.374925 103.025897 
L 335.812688 84.851531 
L 339.250452 84.778278 
L 342.688216 87.003964 
L 346.12598 69.799294 
L 349.563744 83.649358 
L 353.001508 66.692037 
L 359.877035 92.652004 
L 363.314799 109.563719 
L 366.752563 91.585715 
L 370.190327 74.395299 
L 373.62809 73.78132 
L 377.065854 73.910404 
L 380.503618 69.519733 
L 383.941382 66.550416 
L 387.379146 64.846383 
L 390.81691 52.67231 
L 394.254673 50.224362 
L 397.692437 53.207181 
L 401.130201 51.558301 
L 404.567965 51.985106 
L 408.005729 57.614788 
L 411.443492 73.95768 
L 414.881256 56.869305 
L 418.31902 54.39391 
L 421.756784 54.32129 
L 425.194548 74.064923 
L 428.632312 72.444365 
L 432.070075 83.458531 
L 435.507839 83.075392 
L 438.945603 87.776264 
L 442.383367 69.662765 
L 445.821131 69.564256 
L 449.258894 81.917461 
L 452.696658 97.068453 
L 456.134422 100.481294 
L 459.572186 79.422701 
L 463.00995 79.31922 
L 466.447714 79.585659 
L 469.885477 105.335103 
L 473.323241 122.932117 
L 476.761005 122.825632 
L 480.198769 115.348119 
L 483.636533 132.676852 
L 487.074296 127.443763 
L 490.51206 123.915191 
L 493.949824 123.897729 
L 497.387588 126.054081 
L 500.825352 126.566248 
L 504.263116 140.600316 
L 507.700879 135.616484 
L 511.138643 127.316955 
L 514.576407 112.183525 
L 518.014171 115.458998 
L 521.451935 103.177955 
L 524.889698 98.664573 
L 528.327462 122.361798 
L 531.765226 107.878648 
L 535.20299 120.437876 
L 538.640754 101.074063 
L 542.078518 95.699582 
L 545.516281 107.97297 
L 548.954045 107.888538 
L 552.391809 102.82715 
L 555.829573 105.246271 
L 559.267337 104.359176 
L 562.705101 104.033997 
L 566.142864 122.058365 
L 569.580628 131.566323 
L 573.018392 131.504075 
L 576.456156 131.102519 
L 579.89392 149.108675 
L 583.331683 149.271292 
L 586.769447 149.552626 
L 590.207211 149.138463 
L 593.644975 149.651294 
L 597.082739 171.11701 
L 600.520503 170.796082 
L 603.958266 154.936631 
L 607.39603 172.919451 
L 610.833794 173.06534 
L 614.271558 170.348611 
L 617.709322 159.874439 
L 621.147085 159.883136 
L 624.584849 165.181524 
L 628.022613 186.463782 
L 631.460377 185.956282 
L 634.898141 173.646237 
L 638.335905 172.307407 
L 641.773668 176.202543 
L 645.211432 176.335505 
L 648.649196 184.961936 
L 652.08696 200.051919 
L 655.524724 180.703711 
L 658.962487 173.58599 
L 662.400251 179.824849 
L 665.838015 163.080311 
L 669.275779 156.953838 
L 672.713543 135.662157 
L 676.151307 156.615055 
L 679.58907 162.612964 
L 683.026834 157.187648 
L 686.464598 156.565988 
L 689.902362 178.234837 
L 693.340126 177.870665 
L 696.777889 178.77708 
L 700.215653 178.319454 
L 703.653417 179.794164 
L 707.091181 155.083296 
L 710.528945 136.876636 
L 713.966709 114.478664 
L 717.404472 93.220647 
L 720.842236 69.523607 
L 724.28 69.563388 
L 724.28 69.563388 
" style="fill:none;stroke:#9467bd;stroke-linecap:square;stroke-width:1.5;"/>
   </g>
   <g id="line2d_22">
    <path clip-path="url(#pb980f29ccb)" d="M 174.237789 163.489796 
L 177.675553 147.530006 
L 181.113317 163.533841 
L 184.55108 175.677129 
L 187.988844 155.455885 
L 191.426608 155.387949 
L 194.864372 155.653926 
L 198.302136 154.57553 
L 201.739899 165.653658 
L 205.177663 151.532433 
L 208.615427 151.954106 
L 212.053191 151.422145 
L 215.490955 171.816674 
L 218.928719 155.414547 
L 222.366482 155.420307 
L 225.804246 152.798181 
L 229.24201 152.786574 
L 232.679774 151.853167 
L 236.117538 153.359222 
L 239.555302 152.609563 
L 246.430829 152.742792 
L 249.868593 173.350286 
L 253.306357 157.955963 
L 256.744121 158.129441 
L 260.181884 145.676695 
L 263.619648 145.921692 
L 267.057412 132.969313 
L 270.495176 136.068015 
L 273.93294 137.062006 
L 280.808467 136.202547 
L 284.246231 136.313578 
L 287.683995 116.287915 
L 291.121759 114.774155 
L 294.559523 128.297378 
L 297.997286 144.040029 
L 301.43505 141.458482 
L 304.872814 165.454907 
L 308.310578 165.101216 
L 311.748342 169.805845 
L 315.186106 185.759289 
L 318.623869 166.571321 
L 322.061633 166.469825 
L 325.499397 186.432763 
L 328.937161 183.789466 
L 332.374925 174.804323 
L 335.812688 174.729707 
L 339.250452 183.838032 
L 342.688216 197.567297 
L 346.12598 180.868054 
L 349.563744 192.923268 
L 353.001508 176.246315 
L 356.439271 192.157974 
L 359.877035 192.063538 
L 363.314799 194.171091 
L 366.752563 173.99156 
L 370.190327 157.419645 
L 373.62809 156.759626 
L 377.065854 157.526109 
L 380.503618 154.57978 
L 383.941382 153.036198 
L 387.379146 133.21862 
L 390.81691 135.803727 
L 394.254673 135.804713 
L 397.692437 149.076261 
L 401.130201 149.088939 
L 404.567965 164.026062 
L 408.005729 157.844178 
L 411.443492 146.223674 
L 414.881256 146.819903 
L 421.756784 146.634293 
L 425.194548 166.607339 
L 428.632312 150.075988 
L 432.070075 122.837073 
L 435.507839 122.514733 
L 438.945603 124.397119 
L 442.383367 107.112078 
L 445.821131 107.299748 
L 449.258894 121.481732 
L 452.696658 120.852101 
L 456.134422 121.926883 
L 463.00995 122.065079 
L 466.447714 124.445479 
L 469.885477 115.828254 
L 473.323241 129.250952 
L 476.761005 128.991843 
L 480.198769 117.407687 
L 483.636533 116.441797 
L 487.074296 96.900091 
L 490.51206 114.764121 
L 493.949824 115.261783 
L 497.387588 111.270708 
L 500.825352 111.789763 
L 504.263116 118.865801 
L 507.700879 135.899577 
L 511.138643 135.854378 
L 514.576407 116.139271 
L 518.014171 93.796545 
L 521.451935 94.790377 
L 524.889698 83.187789 
L 528.327462 78.161935 
L 531.765226 61.988982 
L 535.20299 61.51283 
L 538.640754 55.674603 
L 542.078518 43.34 
L 545.516281 54.851094 
L 548.954045 64.982633 
L 552.391809 45.133968 
L 555.829573 45.591426 
L 559.267337 45.146084 
L 562.705101 45.167787 
L 566.142864 62.274905 
L 569.580628 91.159527 
L 573.018392 91.678473 
L 576.456156 89.517824 
L 579.89392 107.571924 
L 583.331683 106.879738 
L 586.769447 106.332226 
L 590.207211 105.535499 
L 593.644975 123.809328 
L 597.082739 123.796584 
L 600.520503 111.080837 
L 603.958266 90.068056 
L 607.39603 107.918358 
L 610.833794 107.072358 
L 614.271558 70.287635 
L 617.709322 82.340087 
L 621.147085 82.338142 
L 624.584849 102.025033 
L 628.022613 101.882304 
L 631.460377 102.397544 
L 634.898141 88.637428 
L 638.335905 87.911322 
L 641.773668 100.963749 
L 645.211432 80.540888 
L 648.649196 80.821634 
L 652.08696 100.533316 
L 655.524724 126.247122 
L 658.962487 126.816008 
L 662.400251 158.355557 
L 665.838015 174.500342 
L 669.275779 189.064113 
L 672.713543 167.050087 
L 676.151307 172.792492 
L 679.58907 185.098561 
L 683.026834 195.52397 
L 686.464598 196.994006 
L 689.902362 216.810163 
L 693.340126 216.347778 
L 700.215653 215.976013 
L 703.653417 215.462348 
L 707.091181 215.153748 
L 710.528945 211.86694 
L 713.966709 193.604347 
L 717.404472 193.722002 
L 720.842236 174.698135 
L 724.28 174.574304 
L 724.28 174.574304 
" style="fill:none;stroke:#8c564b;stroke-linecap:square;stroke-width:1.5;"/>
   </g>
   <g id="patch_3">
    <path d="M 40.165 404.12 
L 40.165 26.16 
" style="fill:none;stroke:#000000;stroke-linecap:square;stroke-linejoin:miter;stroke-width:0.8;"/>
   </g>
   <g id="patch_4">
    <path d="M 724.28 404.12 
L 724.28 26.16 
" style="fill:none;stroke:#000000;stroke-linecap:square;stroke-linejoin:miter;stroke-width:0.8;"/>
   </g>
   <g id="patch_5">
    <path d="M 40.165 404.12 
L 724.28 404.12 
" style="fill:none;stroke:#000000;stroke-linecap:square;stroke-linejoin:miter;stroke-width:0.8;"/>
   </g>
   <g id="patch_6">
    <path d="M 40.165 26.16 
L 724.28 26.16 
" style="fill:none;stroke:#000000;stroke-linecap:square;stroke-linejoin:miter;stroke-width:0.8;"/>
   </g>
   <g id="text_17">
    <!-- gridworld_5x5_1_1_200_1337: episode execution time, sec, MA=40 -->
    <defs>
     <path d="M 45.40625 27.984375 
Q 45.40625 37.75 41.375 43.109375 
Q 37.359375 48.484375 30.078125 48.484375 
Q 22.859375 48.484375 18.828125 43.109375 
Q 14.796875 37.75 14.796875 27.984375 
Q 14.796875 18.265625 18.828125 12.890625 
Q 22.859375 7.515625 30.078125 7.515625 
Q 37.359375 7.515625 41.375 12.890625 
Q 45.40625 18.265625 45.40625 27.984375 
z
M 54.390625 6.78125 
Q 54.390625 -7.171875 48.1875 -13.984375 
Q 42 -20.796875 29.203125 -20.796875 
Q 24.46875 -20.796875 20.265625 -20.09375 
Q 16.0625 -19.390625 12.109375 -17.921875 
L 12.109375 -9.1875 
Q 16.0625 -11.328125 19.921875 -12.34375 
Q 23.78125 -13.375 27.78125 -13.375 
Q 36.625 -13.375 41.015625 -8.765625 
Q 45.40625 -4.15625 45.40625 5.171875 
L 45.40625 9.625 
Q 42.625 4.78125 38.28125 2.390625 
Q 33.9375 0 27.875 0 
Q 17.828125 0 11.671875 7.65625 
Q 5.515625 15.328125 5.515625 27.984375 
Q 5.515625 40.671875 11.671875 48.328125 
Q 17.828125 56 27.875 56 
Q 33.9375 56 38.28125 53.609375 
Q 42.625 51.21875 45.40625 46.390625 
L 45.40625 54.6875 
L 54.390625 54.6875 
z
" id="DejaVuSans-103"/>
     <path d="M 41.109375 46.296875 
Q 39.59375 47.171875 37.8125 47.578125 
Q 36.03125 48 33.890625 48 
Q 26.265625 48 22.1875 43.046875 
Q 18.109375 38.09375 18.109375 28.8125 
L 18.109375 0 
L 9.078125 0 
L 9.078125 54.6875 
L 18.109375 54.6875 
L 18.109375 46.1875 
Q 20.953125 51.171875 25.484375 53.578125 
Q 30.03125 56 36.53125 56 
Q 37.453125 56 38.578125 55.875 
Q 39.703125 55.765625 41.0625 55.515625 
z
" id="DejaVuSans-114"/>
     <path d="M 9.421875 54.6875 
L 18.40625 54.6875 
L 18.40625 0 
L 9.421875 0 
z
M 9.421875 75.984375 
L 18.40625 75.984375 
L 18.40625 64.59375 
L 9.421875 64.59375 
z
" id="DejaVuSans-105"/>
     <path d="M 45.40625 46.390625 
L 45.40625 75.984375 
L 54.390625 75.984375 
L 54.390625 0 
L 45.40625 0 
L 45.40625 8.203125 
Q 42.578125 3.328125 38.25 0.953125 
Q 33.9375 -1.421875 27.875 -1.421875 
Q 17.96875 -1.421875 11.734375 6.484375 
Q 5.515625 14.40625 5.515625 27.296875 
Q 5.515625 40.1875 11.734375 48.09375 
Q 17.96875 56 27.875 56 
Q 33.9375 56 38.25 53.625 
Q 42.578125 51.265625 45.40625 46.390625 
z
M 14.796875 27.296875 
Q 14.796875 17.390625 18.875 11.75 
Q 22.953125 6.109375 30.078125 6.109375 
Q 37.203125 6.109375 41.296875 11.75 
Q 45.40625 17.390625 45.40625 27.296875 
Q 45.40625 37.203125 41.296875 42.84375 
Q 37.203125 48.484375 30.078125 48.484375 
Q 22.953125 48.484375 18.875 42.84375 
Q 14.796875 37.203125 14.796875 27.296875 
z
" id="DejaVuSans-100"/>
     <path d="M 4.203125 54.6875 
L 13.1875 54.6875 
L 24.421875 12.015625 
L 35.59375 54.6875 
L 46.1875 54.6875 
L 57.421875 12.015625 
L 68.609375 54.6875 
L 77.59375 54.6875 
L 63.28125 0 
L 52.6875 0 
L 40.921875 44.828125 
L 29.109375 0 
L 18.5 0 
z
" id="DejaVuSans-119"/>
     <path d="M 30.609375 48.390625 
Q 23.390625 48.390625 19.1875 42.75 
Q 14.984375 37.109375 14.984375 27.296875 
Q 14.984375 17.484375 19.15625 11.84375 
Q 23.34375 6.203125 30.609375 6.203125 
Q 37.796875 6.203125 41.984375 11.859375 
Q 46.1875 17.53125 46.1875 27.296875 
Q 46.1875 37.015625 41.984375 42.703125 
Q 37.796875 48.390625 30.609375 48.390625 
z
M 30.609375 56 
Q 42.328125 56 49.015625 48.375 
Q 55.71875 40.765625 55.71875 27.296875 
Q 55.71875 13.875 49.015625 6.21875 
Q 42.328125 -1.421875 30.609375 -1.421875 
Q 18.84375 -1.421875 12.171875 6.21875 
Q 5.515625 13.875 5.515625 27.296875 
Q 5.515625 40.765625 12.171875 48.375 
Q 18.84375 56 30.609375 56 
z
" id="DejaVuSans-111"/>
     <path d="M 9.421875 75.984375 
L 18.40625 75.984375 
L 18.40625 0 
L 9.421875 0 
z
" id="DejaVuSans-108"/>
     <path d="M 50.984375 -16.609375 
L 50.984375 -23.578125 
L -0.984375 -23.578125 
L -0.984375 -16.609375 
z
" id="DejaVuSans-95"/>
     <path d="M 54.890625 54.6875 
L 35.109375 28.078125 
L 55.90625 0 
L 45.3125 0 
L 29.390625 21.484375 
L 13.484375 0 
L 2.875 0 
L 24.125 28.609375 
L 4.6875 54.6875 
L 15.28125 54.6875 
L 29.78125 35.203125 
L 44.28125 54.6875 
z
" id="DejaVuSans-120"/>
     <path d="M 40.578125 39.3125 
Q 47.65625 37.796875 51.625 33 
Q 55.609375 28.21875 55.609375 21.1875 
Q 55.609375 10.40625 48.1875 4.484375 
Q 40.765625 -1.421875 27.09375 -1.421875 
Q 22.515625 -1.421875 17.65625 -0.515625 
Q 12.796875 0.390625 7.625 2.203125 
L 7.625 11.71875 
Q 11.71875 9.328125 16.59375 8.109375 
Q 21.484375 6.890625 26.8125 6.890625 
Q 36.078125 6.890625 40.9375 10.546875 
Q 45.796875 14.203125 45.796875 21.1875 
Q 45.796875 27.640625 41.28125 31.265625 
Q 36.765625 34.90625 28.71875 34.90625 
L 20.21875 34.90625 
L 20.21875 43.015625 
L 29.109375 43.015625 
Q 36.375 43.015625 40.234375 45.921875 
Q 44.09375 48.828125 44.09375 54.296875 
Q 44.09375 59.90625 40.109375 62.90625 
Q 36.140625 65.921875 28.71875 65.921875 
Q 24.65625 65.921875 20.015625 65.03125 
Q 15.375 64.15625 9.8125 62.3125 
L 9.8125 71.09375 
Q 15.4375 72.65625 20.34375 73.4375 
Q 25.25 74.21875 29.59375 74.21875 
Q 40.828125 74.21875 47.359375 69.109375 
Q 53.90625 64.015625 53.90625 55.328125 
Q 53.90625 49.265625 50.4375 45.09375 
Q 46.96875 40.921875 40.578125 39.3125 
z
" id="DejaVuSans-51"/>
     <path d="M 11.71875 12.40625 
L 22.015625 12.40625 
L 22.015625 0 
L 11.71875 0 
z
M 11.71875 51.703125 
L 22.015625 51.703125 
L 22.015625 39.3125 
L 11.71875 39.3125 
z
" id="DejaVuSans-58"/>
     <path id="DejaVuSans-32"/>
     <path d="M 56.203125 29.59375 
L 56.203125 25.203125 
L 14.890625 25.203125 
Q 15.484375 15.921875 20.484375 11.0625 
Q 25.484375 6.203125 34.421875 6.203125 
Q 39.59375 6.203125 44.453125 7.46875 
Q 49.3125 8.734375 54.109375 11.28125 
L 54.109375 2.78125 
Q 49.265625 0.734375 44.1875 -0.34375 
Q 39.109375 -1.421875 33.890625 -1.421875 
Q 20.796875 -1.421875 13.15625 6.1875 
Q 5.515625 13.8125 5.515625 26.8125 
Q 5.515625 40.234375 12.765625 48.109375 
Q 20.015625 56 32.328125 56 
Q 43.359375 56 49.78125 48.890625 
Q 56.203125 41.796875 56.203125 29.59375 
z
M 47.21875 32.234375 
Q 47.125 39.59375 43.09375 43.984375 
Q 39.0625 48.390625 32.421875 48.390625 
Q 24.90625 48.390625 20.390625 44.140625 
Q 15.875 39.890625 15.1875 32.171875 
z
" id="DejaVuSans-101"/>
     <path d="M 18.109375 8.203125 
L 18.109375 -20.796875 
L 9.078125 -20.796875 
L 9.078125 54.6875 
L 18.109375 54.6875 
L 18.109375 46.390625 
Q 20.953125 51.265625 25.265625 53.625 
Q 29.59375 56 35.59375 56 
Q 45.5625 56 51.78125 48.09375 
Q 58.015625 40.1875 58.015625 27.296875 
Q 58.015625 14.40625 51.78125 6.484375 
Q 45.5625 -1.421875 35.59375 -1.421875 
Q 29.59375 -1.421875 25.265625 0.953125 
Q 20.953125 3.328125 18.109375 8.203125 
z
M 48.6875 27.296875 
Q 48.6875 37.203125 44.609375 42.84375 
Q 40.53125 48.484375 33.40625 48.484375 
Q 26.265625 48.484375 22.1875 42.84375 
Q 18.109375 37.203125 18.109375 27.296875 
Q 18.109375 17.390625 22.1875 11.75 
Q 26.265625 6.109375 33.40625 6.109375 
Q 40.53125 6.109375 44.609375 11.75 
Q 48.6875 17.390625 48.6875 27.296875 
z
" id="DejaVuSans-112"/>
     <path d="M 44.28125 53.078125 
L 44.28125 44.578125 
Q 40.484375 46.53125 36.375 47.5 
Q 32.28125 48.484375 27.875 48.484375 
Q 21.1875 48.484375 17.84375 46.4375 
Q 14.5 44.390625 14.5 40.28125 
Q 14.5 37.15625 16.890625 35.375 
Q 19.28125 33.59375 26.515625 31.984375 
L 29.59375 31.296875 
Q 39.15625 29.25 43.1875 25.515625 
Q 47.21875 21.78125 47.21875 15.09375 
Q 47.21875 7.46875 41.1875 3.015625 
Q 35.15625 -1.421875 24.609375 -1.421875 
Q 20.21875 -1.421875 15.453125 -0.5625 
Q 10.6875 0.296875 5.421875 2 
L 5.421875 11.28125 
Q 10.40625 8.6875 15.234375 7.390625 
Q 20.0625 6.109375 24.8125 6.109375 
Q 31.15625 6.109375 34.5625 8.28125 
Q 37.984375 10.453125 37.984375 14.40625 
Q 37.984375 18.0625 35.515625 20.015625 
Q 33.0625 21.96875 24.703125 23.78125 
L 21.578125 24.515625 
Q 13.234375 26.265625 9.515625 29.90625 
Q 5.8125 33.546875 5.8125 39.890625 
Q 5.8125 47.609375 11.28125 51.796875 
Q 16.75 56 26.8125 56 
Q 31.78125 56 36.171875 55.265625 
Q 40.578125 54.546875 44.28125 53.078125 
z
" id="DejaVuSans-115"/>
     <path d="M 48.78125 52.59375 
L 48.78125 44.1875 
Q 44.96875 46.296875 41.140625 47.34375 
Q 37.3125 48.390625 33.40625 48.390625 
Q 24.65625 48.390625 19.8125 42.84375 
Q 14.984375 37.3125 14.984375 27.296875 
Q 14.984375 17.28125 19.8125 11.734375 
Q 24.65625 6.203125 33.40625 6.203125 
Q 37.3125 6.203125 41.140625 7.25 
Q 44.96875 8.296875 48.78125 10.40625 
L 48.78125 2.09375 
Q 45.015625 0.34375 40.984375 -0.53125 
Q 36.96875 -1.421875 32.421875 -1.421875 
Q 20.0625 -1.421875 12.78125 6.34375 
Q 5.515625 14.109375 5.515625 27.296875 
Q 5.515625 40.671875 12.859375 48.328125 
Q 20.21875 56 33.015625 56 
Q 37.15625 56 41.109375 55.140625 
Q 45.0625 54.296875 48.78125 52.59375 
z
" id="DejaVuSans-99"/>
     <path d="M 8.5 21.578125 
L 8.5 54.6875 
L 17.484375 54.6875 
L 17.484375 21.921875 
Q 17.484375 14.15625 20.5 10.265625 
Q 23.53125 6.390625 29.59375 6.390625 
Q 36.859375 6.390625 41.078125 11.03125 
Q 45.3125 15.671875 45.3125 23.6875 
L 45.3125 54.6875 
L 54.296875 54.6875 
L 54.296875 0 
L 45.3125 0 
L 45.3125 8.40625 
Q 42.046875 3.421875 37.71875 1 
Q 33.40625 -1.421875 27.6875 -1.421875 
Q 18.265625 -1.421875 13.375 4.4375 
Q 8.5 10.296875 8.5 21.578125 
z
M 31.109375 56 
z
" id="DejaVuSans-117"/>
     <path d="M 18.3125 70.21875 
L 18.3125 54.6875 
L 36.8125 54.6875 
L 36.8125 47.703125 
L 18.3125 47.703125 
L 18.3125 18.015625 
Q 18.3125 11.328125 20.140625 9.421875 
Q 21.96875 7.515625 27.59375 7.515625 
L 36.8125 7.515625 
L 36.8125 0 
L 27.59375 0 
Q 17.1875 0 13.234375 3.875 
Q 9.28125 7.765625 9.28125 18.015625 
L 9.28125 47.703125 
L 2.6875 47.703125 
L 2.6875 54.6875 
L 9.28125 54.6875 
L 9.28125 70.21875 
z
" id="DejaVuSans-116"/>
     <path d="M 54.890625 33.015625 
L 54.890625 0 
L 45.90625 0 
L 45.90625 32.71875 
Q 45.90625 40.484375 42.875 44.328125 
Q 39.84375 48.1875 33.796875 48.1875 
Q 26.515625 48.1875 22.3125 43.546875 
Q 18.109375 38.921875 18.109375 30.90625 
L 18.109375 0 
L 9.078125 0 
L 9.078125 54.6875 
L 18.109375 54.6875 
L 18.109375 46.1875 
Q 21.34375 51.125 25.703125 53.5625 
Q 30.078125 56 35.796875 56 
Q 45.21875 56 50.046875 50.171875 
Q 54.890625 44.34375 54.890625 33.015625 
z
" id="DejaVuSans-110"/>
     <path d="M 52 44.1875 
Q 55.375 50.25 60.0625 53.125 
Q 64.75 56 71.09375 56 
Q 79.640625 56 84.28125 50.015625 
Q 88.921875 44.046875 88.921875 33.015625 
L 88.921875 0 
L 79.890625 0 
L 79.890625 32.71875 
Q 79.890625 40.578125 77.09375 44.375 
Q 74.3125 48.1875 68.609375 48.1875 
Q 61.625 48.1875 57.5625 43.546875 
Q 53.515625 38.921875 53.515625 30.90625 
L 53.515625 0 
L 44.484375 0 
L 44.484375 32.71875 
Q 44.484375 40.625 41.703125 44.40625 
Q 38.921875 48.1875 33.109375 48.1875 
Q 26.21875 48.1875 22.15625 43.53125 
Q 18.109375 38.875 18.109375 30.90625 
L 18.109375 0 
L 9.078125 0 
L 9.078125 54.6875 
L 18.109375 54.6875 
L 18.109375 46.1875 
Q 21.1875 51.21875 25.484375 53.609375 
Q 29.78125 56 35.6875 56 
Q 41.65625 56 45.828125 52.96875 
Q 50 49.953125 52 44.1875 
z
" id="DejaVuSans-109"/>
     <path d="M 11.71875 12.40625 
L 22.015625 12.40625 
L 22.015625 4 
L 14.015625 -11.625 
L 7.71875 -11.625 
L 11.71875 4 
z
" id="DejaVuSans-44"/>
     <path d="M 9.8125 72.90625 
L 24.515625 72.90625 
L 43.109375 23.296875 
L 61.8125 72.90625 
L 76.515625 72.90625 
L 76.515625 0 
L 66.890625 0 
L 66.890625 64.015625 
L 48.09375 14.015625 
L 38.1875 14.015625 
L 19.390625 64.015625 
L 19.390625 0 
L 9.8125 0 
z
" id="DejaVuSans-77"/>
     <path d="M 34.1875 63.1875 
L 20.796875 26.90625 
L 47.609375 26.90625 
z
M 28.609375 72.90625 
L 39.796875 72.90625 
L 67.578125 0 
L 57.328125 0 
L 50.6875 18.703125 
L 17.828125 18.703125 
L 11.1875 0 
L 0.78125 0 
z
" id="DejaVuSans-65"/>
     <path d="M 10.59375 45.40625 
L 73.1875 45.40625 
L 73.1875 37.203125 
L 10.59375 37.203125 
z
M 10.59375 25.484375 
L 73.1875 25.484375 
L 73.1875 17.1875 
L 10.59375 17.1875 
z
" id="DejaVuSans-61"/>
     <path d="M 37.796875 64.3125 
L 12.890625 25.390625 
L 37.796875 25.390625 
z
M 35.203125 72.90625 
L 47.609375 72.90625 
L 47.609375 25.390625 
L 58.015625 25.390625 
L 58.015625 17.1875 
L 47.609375 17.1875 
L 47.609375 0 
L 37.796875 0 
L 37.796875 17.1875 
L 4.890625 17.1875 
L 4.890625 26.703125 
z
" id="DejaVuSans-52"/>
    </defs>
    <g transform="translate(179.43 20.16)scale(0.12 -0.12)">
     <use xlink:href="#DejaVuSans-103"/>
     <use x="63.476562" xlink:href="#DejaVuSans-114"/>
     <use x="104.589844" xlink:href="#DejaVuSans-105"/>
     <use x="132.373047" xlink:href="#DejaVuSans-100"/>
     <use x="195.849609" xlink:href="#DejaVuSans-119"/>
     <use x="277.636719" xlink:href="#DejaVuSans-111"/>
     <use x="338.818359" xlink:href="#DejaVuSans-114"/>
     <use x="379.931641" xlink:href="#DejaVuSans-108"/>
     <use x="407.714844" xlink:href="#DejaVuSans-100"/>
     <use x="471.191406" xlink:href="#DejaVuSans-95"/>
     <use x="521.191406" xlink:href="#DejaVuSans-53"/>
     <use x="584.814453" xlink:href="#DejaVuSans-120"/>
     <use x="643.994141" xlink:href="#DejaVuSans-53"/>
     <use x="707.617188" xlink:href="#DejaVuSans-95"/>
     <use x="757.617188" xlink:href="#DejaVuSans-49"/>
     <use x="821.240234" xlink:href="#DejaVuSans-95"/>
     <use x="871.240234" xlink:href="#DejaVuSans-49"/>
     <use x="934.863281" xlink:href="#DejaVuSans-95"/>
     <use x="984.863281" xlink:href="#DejaVuSans-50"/>
     <use x="1048.486328" xlink:href="#DejaVuSans-48"/>
     <use x="1112.109375" xlink:href="#DejaVuSans-48"/>
     <use x="1175.732422" xlink:href="#DejaVuSans-95"/>
     <use x="1225.732422" xlink:href="#DejaVuSans-49"/>
     <use x="1289.355469" xlink:href="#DejaVuSans-51"/>
     <use x="1352.978516" xlink:href="#DejaVuSans-51"/>
     <use x="1416.601562" xlink:href="#DejaVuSans-55"/>
     <use x="1480.224609" xlink:href="#DejaVuSans-58"/>
     <use x="1513.916016" xlink:href="#DejaVuSans-32"/>
     <use x="1545.703125" xlink:href="#DejaVuSans-101"/>
     <use x="1607.226562" xlink:href="#DejaVuSans-112"/>
     <use x="1670.703125" xlink:href="#DejaVuSans-105"/>
     <use x="1698.486328" xlink:href="#DejaVuSans-115"/>
     <use x="1750.585938" xlink:href="#DejaVuSans-111"/>
     <use x="1811.767578" xlink:href="#DejaVuSans-100"/>
     <use x="1875.244141" xlink:href="#DejaVuSans-101"/>
     <use x="1936.767578" xlink:href="#DejaVuSans-32"/>
     <use x="1968.554688" xlink:href="#DejaVuSans-101"/>
     <use x="2030.0625" xlink:href="#DejaVuSans-120"/>
     <use x="2089.195312" xlink:href="#DejaVuSans-101"/>
     <use x="2150.71875" xlink:href="#DejaVuSans-99"/>
     <use x="2205.699219" xlink:href="#DejaVuSans-117"/>
     <use x="2269.078125" xlink:href="#DejaVuSans-116"/>
     <use x="2308.287109" xlink:href="#DejaVuSans-105"/>
     <use x="2336.070312" xlink:href="#DejaVuSans-111"/>
     <use x="2397.251953" xlink:href="#DejaVuSans-110"/>
     <use x="2460.630859" xlink:href="#DejaVuSans-32"/>
     <use x="2492.417969" xlink:href="#DejaVuSans-116"/>
     <use x="2531.626953" xlink:href="#DejaVuSans-105"/>
     <use x="2559.410156" xlink:href="#DejaVuSans-109"/>
     <use x="2656.822266" xlink:href="#DejaVuSans-101"/>
     <use x="2718.345703" xlink:href="#DejaVuSans-44"/>
     <use x="2750.132812" xlink:href="#DejaVuSans-32"/>
     <use x="2781.919922" xlink:href="#DejaVuSans-115"/>
     <use x="2834.019531" xlink:href="#DejaVuSans-101"/>
     <use x="2895.542969" xlink:href="#DejaVuSans-99"/>
     <use x="2950.523438" xlink:href="#DejaVuSans-44"/>
     <use x="2982.310547" xlink:href="#DejaVuSans-32"/>
     <use x="3014.097656" xlink:href="#DejaVuSans-77"/>
     <use x="3100.376953" xlink:href="#DejaVuSans-65"/>
     <use x="3168.785156" xlink:href="#DejaVuSans-61"/>
     <use x="3252.574219" xlink:href="#DejaVuSans-52"/>
     <use x="3316.197266" xlink:href="#DejaVuSans-48"/>
    </g>
   </g>
   <g id="legend_1">
    <g id="patch_7">
     <path d="M 763.038937 261.50875 
L 854.103 261.50875 
Q 856.103 261.50875 856.103 259.50875 
L 856.103 170.77125 
Q 856.103 168.77125 854.103 168.77125 
L 763.038937 168.77125 
Q 761.038937 168.77125 761.038937 170.77125 
L 761.038937 259.50875 
Q 761.038937 261.50875 763.038937 261.50875 
z
" style="fill:#ffffff;opacity:0.8;stroke:#cccccc;stroke-linejoin:miter;"/>
    </g>
    <g id="line2d_23">
     <path d="M 765.038937 176.869687 
L 785.038937 176.869687 
" style="fill:none;stroke:#1f77b4;stroke-linecap:square;stroke-width:1.5;"/>
    </g>
    <g id="line2d_24"/>
    <g id="text_18">
     <!-- htm_0 -->
     <defs>
      <path d="M 54.890625 33.015625 
L 54.890625 0 
L 45.90625 0 
L 45.90625 32.71875 
Q 45.90625 40.484375 42.875 44.328125 
Q 39.84375 48.1875 33.796875 48.1875 
Q 26.515625 48.1875 22.3125 43.546875 
Q 18.109375 38.921875 18.109375 30.90625 
L 18.109375 0 
L 9.078125 0 
L 9.078125 75.984375 
L 18.109375 75.984375 
L 18.109375 46.1875 
Q 21.34375 51.125 25.703125 53.5625 
Q 30.078125 56 35.796875 56 
Q 45.21875 56 50.046875 50.171875 
Q 54.890625 44.34375 54.890625 33.015625 
z
" id="DejaVuSans-104"/>
     </defs>
     <g transform="translate(793.038937 180.369687)scale(0.1 -0.1)">
      <use xlink:href="#DejaVuSans-104"/>
      <use x="63.378906" xlink:href="#DejaVuSans-116"/>
      <use x="102.587891" xlink:href="#DejaVuSans-109"/>
      <use x="200" xlink:href="#DejaVuSans-95"/>
      <use x="250" xlink:href="#DejaVuSans-48"/>
     </g>
    </g>
    <g id="line2d_25">
     <path d="M 765.038937 191.825938 
L 785.038937 191.825938 
" style="fill:none;stroke:#ff7f0e;stroke-linecap:square;stroke-width:1.5;"/>
    </g>
    <g id="line2d_26"/>
    <g id="text_19">
     <!-- dqn_greedy -->
     <defs>
      <path d="M 14.796875 27.296875 
Q 14.796875 17.390625 18.875 11.75 
Q 22.953125 6.109375 30.078125 6.109375 
Q 37.203125 6.109375 41.296875 11.75 
Q 45.40625 17.390625 45.40625 27.296875 
Q 45.40625 37.203125 41.296875 42.84375 
Q 37.203125 48.484375 30.078125 48.484375 
Q 22.953125 48.484375 18.875 42.84375 
Q 14.796875 37.203125 14.796875 27.296875 
z
M 45.40625 8.203125 
Q 42.578125 3.328125 38.25 0.953125 
Q 33.9375 -1.421875 27.875 -1.421875 
Q 17.96875 -1.421875 11.734375 6.484375 
Q 5.515625 14.40625 5.515625 27.296875 
Q 5.515625 40.1875 11.734375 48.09375 
Q 17.96875 56 27.875 56 
Q 33.9375 56 38.25 53.625 
Q 42.578125 51.265625 45.40625 46.390625 
L 45.40625 54.6875 
L 54.390625 54.6875 
L 54.390625 -20.796875 
L 45.40625 -20.796875 
z
" id="DejaVuSans-113"/>
      <path d="M 32.171875 -5.078125 
Q 28.375 -14.84375 24.75 -17.8125 
Q 21.140625 -20.796875 15.09375 -20.796875 
L 7.90625 -20.796875 
L 7.90625 -13.28125 
L 13.1875 -13.28125 
Q 16.890625 -13.28125 18.9375 -11.515625 
Q 21 -9.765625 23.484375 -3.21875 
L 25.09375 0.875 
L 2.984375 54.6875 
L 12.5 54.6875 
L 29.59375 11.921875 
L 46.6875 54.6875 
L 56.203125 54.6875 
z
" id="DejaVuSans-121"/>
     </defs>
     <g transform="translate(793.038937 195.325938)scale(0.1 -0.1)">
      <use xlink:href="#DejaVuSans-100"/>
      <use x="63.476562" xlink:href="#DejaVuSans-113"/>
      <use x="126.953125" xlink:href="#DejaVuSans-110"/>
      <use x="190.332031" xlink:href="#DejaVuSans-95"/>
      <use x="240.332031" xlink:href="#DejaVuSans-103"/>
      <use x="303.808594" xlink:href="#DejaVuSans-114"/>
      <use x="344.890625" xlink:href="#DejaVuSans-101"/>
      <use x="406.414062" xlink:href="#DejaVuSans-101"/>
      <use x="467.9375" xlink:href="#DejaVuSans-100"/>
      <use x="531.414062" xlink:href="#DejaVuSans-121"/>
     </g>
    </g>
    <g id="line2d_27">
     <path d="M 765.038937 206.782187 
L 785.038937 206.782187 
" style="fill:none;stroke:#2ca02c;stroke-linecap:square;stroke-width:1.5;"/>
    </g>
    <g id="line2d_28"/>
    <g id="text_20">
     <!-- htm_1_1g -->
     <g transform="translate(793.038937 210.282187)scale(0.1 -0.1)">
      <use xlink:href="#DejaVuSans-104"/>
      <use x="63.378906" xlink:href="#DejaVuSans-116"/>
      <use x="102.587891" xlink:href="#DejaVuSans-109"/>
      <use x="200" xlink:href="#DejaVuSans-95"/>
      <use x="250" xlink:href="#DejaVuSans-49"/>
      <use x="313.623047" xlink:href="#DejaVuSans-95"/>
      <use x="363.623047" xlink:href="#DejaVuSans-49"/>
      <use x="427.246094" xlink:href="#DejaVuSans-103"/>
     </g>
    </g>
    <g id="line2d_29">
     <path d="M 765.038937 221.738438 
L 785.038937 221.738438 
" style="fill:none;stroke:#d62728;stroke-linecap:square;stroke-width:1.5;"/>
    </g>
    <g id="line2d_30"/>
    <g id="text_21">
     <!-- htm_2_1g -->
     <g transform="translate(793.038937 225.238438)scale(0.1 -0.1)">
      <use xlink:href="#DejaVuSans-104"/>
      <use x="63.378906" xlink:href="#DejaVuSans-116"/>
      <use x="102.587891" xlink:href="#DejaVuSans-109"/>
      <use x="200" xlink:href="#DejaVuSans-95"/>
      <use x="250" xlink:href="#DejaVuSans-50"/>
      <use x="313.623047" xlink:href="#DejaVuSans-95"/>
      <use x="363.623047" xlink:href="#DejaVuSans-49"/>
      <use x="427.246094" xlink:href="#DejaVuSans-103"/>
     </g>
    </g>
    <g id="line2d_31">
     <path d="M 765.038937 236.694687 
L 785.038937 236.694687 
" style="fill:none;stroke:#9467bd;stroke-linecap:square;stroke-width:1.5;"/>
    </g>
    <g id="line2d_32"/>
    <g id="text_22">
     <!-- htm_4_1g -->
     <g transform="translate(793.038937 240.194687)scale(0.1 -0.1)">
      <use xlink:href="#DejaVuSans-104"/>
      <use x="63.378906" xlink:href="#DejaVuSans-116"/>
      <use x="102.587891" xlink:href="#DejaVuSans-109"/>
      <use x="200" xlink:href="#DejaVuSans-95"/>
      <use x="250" xlink:href="#DejaVuSans-52"/>
      <use x="313.623047" xlink:href="#DejaVuSans-95"/>
      <use x="363.623047" xlink:href="#DejaVuSans-49"/>
      <use x="427.246094" xlink:href="#DejaVuSans-103"/>
     </g>
    </g>
    <g id="line2d_33">
     <path d="M 765.038937 251.650937 
L 785.038937 251.650937 
" style="fill:none;stroke:#8c564b;stroke-linecap:square;stroke-width:1.5;"/>
    </g>
    <g id="line2d_34"/>
    <g id="text_23">
     <!-- htm_8_1g -->
     <defs>
      <path d="M 31.78125 34.625 
Q 24.75 34.625 20.71875 30.859375 
Q 16.703125 27.09375 16.703125 20.515625 
Q 16.703125 13.921875 20.71875 10.15625 
Q 24.75 6.390625 31.78125 6.390625 
Q 38.8125 6.390625 42.859375 10.171875 
Q 46.921875 13.96875 46.921875 20.515625 
Q 46.921875 27.09375 42.890625 30.859375 
Q 38.875 34.625 31.78125 34.625 
z
M 21.921875 38.8125 
Q 15.578125 40.375 12.03125 44.71875 
Q 8.5 49.078125 8.5 55.328125 
Q 8.5 64.0625 14.71875 69.140625 
Q 20.953125 74.21875 31.78125 74.21875 
Q 42.671875 74.21875 48.875 69.140625 
Q 55.078125 64.0625 55.078125 55.328125 
Q 55.078125 49.078125 51.53125 44.71875 
Q 48 40.375 41.703125 38.8125 
Q 48.828125 37.15625 52.796875 32.3125 
Q 56.78125 27.484375 56.78125 20.515625 
Q 56.78125 9.90625 50.3125 4.234375 
Q 43.84375 -1.421875 31.78125 -1.421875 
Q 19.734375 -1.421875 13.25 4.234375 
Q 6.78125 9.90625 6.78125 20.515625 
Q 6.78125 27.484375 10.78125 32.3125 
Q 14.796875 37.15625 21.921875 38.8125 
z
M 18.3125 54.390625 
Q 18.3125 48.734375 21.84375 45.5625 
Q 25.390625 42.390625 31.78125 42.390625 
Q 38.140625 42.390625 41.71875 45.5625 
Q 45.3125 48.734375 45.3125 54.390625 
Q 45.3125 60.0625 41.71875 63.234375 
Q 38.140625 66.40625 31.78125 66.40625 
Q 25.390625 66.40625 21.84375 63.234375 
Q 18.3125 60.0625 18.3125 54.390625 
z
" id="DejaVuSans-56"/>
     </defs>
     <g transform="translate(793.038937 255.150937)scale(0.1 -0.1)">
      <use xlink:href="#DejaVuSans-104"/>
      <use x="63.378906" xlink:href="#DejaVuSans-116"/>
      <use x="102.587891" xlink:href="#DejaVuSans-109"/>
      <use x="200" xlink:href="#DejaVuSans-95"/>
      <use x="250" xlink:href="#DejaVuSans-56"/>
      <use x="313.623047" xlink:href="#DejaVuSans-95"/>
      <use x="363.623047" xlink:href="#DejaVuSans-49"/>
      <use x="427.246094" xlink:href="#DejaVuSans-103"/>
     </g>
    </g>
   </g>
  </g>
 </g>
 <defs>
  <clipPath id="pb980f29ccb">
   <rect height="377.96" width="684.115" x="40.165" y="26.16"/>
  </clipPath>
 </defs>
</svg>
