<?xml version="1.0" encoding="utf-8" standalone="no"?>
<!DOCTYPE svg PUBLIC "-//W3C//DTD SVG 1.1//EN"
  "http://www.w3.org/Graphics/SVG/1.1/DTD/svg11.dtd">
<!-- Created with matplotlib (https://matplotlib.org/) -->
<svg height="432pt" version="1.1" viewBox="0 0 864 432" width="864pt" xmlns="http://www.w3.org/2000/svg" xmlns:xlink="http://www.w3.org/1999/xlink">
 <defs>
  <style type="text/css">
*{stroke-linecap:butt;stroke-linejoin:round;}
  </style>
 </defs>
 <g id="figure_1">
  <g id="patch_1">
   <path d="M 0 432 
L 864 432 
L 864 0 
L 0 0 
z
" style="fill:#ffffff;"/>
  </g>
  <g id="axes_1">
   <g id="patch_2">
    <path d="M 32.515 404.12 
L 724.28 404.12 
L 724.28 26.52 
L 32.515 26.52 
z
" style="fill:#ffffff;"/>
   </g>
   <g id="matplotlib.axis_1">
    <g id="xtick_1">
     <g id="line2d_1">
      <defs>
       <path d="M 0 0 
L 0 3.5 
" id="m4c19c28b55" style="stroke:#000000;stroke-width:0.8;"/>
      </defs>
      <g>
       <use style="stroke:#000000;stroke-width:0.8;" x="32.515" xlink:href="#m4c19c28b55" y="404.12"/>
      </g>
     </g>
     <g id="text_1">
      <!-- 0 -->
      <defs>
       <path d="M 31.78125 66.40625 
Q 24.171875 66.40625 20.328125 58.90625 
Q 16.5 51.421875 16.5 36.375 
Q 16.5 21.390625 20.328125 13.890625 
Q 24.171875 6.390625 31.78125 6.390625 
Q 39.453125 6.390625 43.28125 13.890625 
Q 47.125 21.390625 47.125 36.375 
Q 47.125 51.421875 43.28125 58.90625 
Q 39.453125 66.40625 31.78125 66.40625 
z
M 31.78125 74.21875 
Q 44.046875 74.21875 50.515625 64.515625 
Q 56.984375 54.828125 56.984375 36.375 
Q 56.984375 17.96875 50.515625 8.265625 
Q 44.046875 -1.421875 31.78125 -1.421875 
Q 19.53125 -1.421875 13.0625 8.265625 
Q 6.59375 17.96875 6.59375 36.375 
Q 6.59375 54.828125 13.0625 64.515625 
Q 19.53125 74.21875 31.78125 74.21875 
z
" id="DejaVuSans-48"/>
      </defs>
      <g transform="translate(29.33375 418.718437)scale(0.1 -0.1)">
       <use xlink:href="#DejaVuSans-48"/>
      </g>
     </g>
    </g>
    <g id="xtick_2">
     <g id="line2d_2">
      <g>
       <use style="stroke:#000000;stroke-width:0.8;" x="119.093849" xlink:href="#m4c19c28b55" y="404.12"/>
      </g>
     </g>
     <g id="text_2">
      <!-- 100 -->
      <defs>
       <path d="M 12.40625 8.296875 
L 28.515625 8.296875 
L 28.515625 63.921875 
L 10.984375 60.40625 
L 10.984375 69.390625 
L 28.421875 72.90625 
L 38.28125 72.90625 
L 38.28125 8.296875 
L 54.390625 8.296875 
L 54.390625 0 
L 12.40625 0 
z
" id="DejaVuSans-49"/>
      </defs>
      <g transform="translate(109.550099 418.718437)scale(0.1 -0.1)">
       <use xlink:href="#DejaVuSans-49"/>
       <use x="63.623047" xlink:href="#DejaVuSans-48"/>
       <use x="127.246094" xlink:href="#DejaVuSans-48"/>
      </g>
     </g>
    </g>
    <g id="xtick_3">
     <g id="line2d_3">
      <g>
       <use style="stroke:#000000;stroke-width:0.8;" x="205.672697" xlink:href="#m4c19c28b55" y="404.12"/>
      </g>
     </g>
     <g id="text_3">
      <!-- 200 -->
      <defs>
       <path d="M 19.1875 8.296875 
L 53.609375 8.296875 
L 53.609375 0 
L 7.328125 0 
L 7.328125 8.296875 
Q 12.9375 14.109375 22.625 23.890625 
Q 32.328125 33.6875 34.8125 36.53125 
Q 39.546875 41.84375 41.421875 45.53125 
Q 43.3125 49.21875 43.3125 52.78125 
Q 43.3125 58.59375 39.234375 62.25 
Q 35.15625 65.921875 28.609375 65.921875 
Q 23.96875 65.921875 18.8125 64.3125 
Q 13.671875 62.703125 7.8125 59.421875 
L 7.8125 69.390625 
Q 13.765625 71.78125 18.9375 73 
Q 24.125 74.21875 28.421875 74.21875 
Q 39.75 74.21875 46.484375 68.546875 
Q 53.21875 62.890625 53.21875 53.421875 
Q 53.21875 48.921875 51.53125 44.890625 
Q 49.859375 40.875 45.40625 35.40625 
Q 44.1875 33.984375 37.640625 27.21875 
Q 31.109375 20.453125 19.1875 8.296875 
z
" id="DejaVuSans-50"/>
      </defs>
      <g transform="translate(196.128947 418.718437)scale(0.1 -0.1)">
       <use xlink:href="#DejaVuSans-50"/>
       <use x="63.623047" xlink:href="#DejaVuSans-48"/>
       <use x="127.246094" xlink:href="#DejaVuSans-48"/>
      </g>
     </g>
    </g>
    <g id="xtick_4">
     <g id="line2d_4">
      <g>
       <use style="stroke:#000000;stroke-width:0.8;" x="292.251546" xlink:href="#m4c19c28b55" y="404.12"/>
      </g>
     </g>
     <g id="text_4">
      <!-- 300 -->
      <defs>
       <path d="M 40.578125 39.3125 
Q 47.65625 37.796875 51.625 33 
Q 55.609375 28.21875 55.609375 21.1875 
Q 55.609375 10.40625 48.1875 4.484375 
Q 40.765625 -1.421875 27.09375 -1.421875 
Q 22.515625 -1.421875 17.65625 -0.515625 
Q 12.796875 0.390625 7.625 2.203125 
L 7.625 11.71875 
Q 11.71875 9.328125 16.59375 8.109375 
Q 21.484375 6.890625 26.8125 6.890625 
Q 36.078125 6.890625 40.9375 10.546875 
Q 45.796875 14.203125 45.796875 21.1875 
Q 45.796875 27.640625 41.28125 31.265625 
Q 36.765625 34.90625 28.71875 34.90625 
L 20.21875 34.90625 
L 20.21875 43.015625 
L 29.109375 43.015625 
Q 36.375 43.015625 40.234375 45.921875 
Q 44.09375 48.828125 44.09375 54.296875 
Q 44.09375 59.90625 40.109375 62.90625 
Q 36.140625 65.921875 28.71875 65.921875 
Q 24.65625 65.921875 20.015625 65.03125 
Q 15.375 64.15625 9.8125 62.3125 
L 9.8125 71.09375 
Q 15.4375 72.65625 20.34375 73.4375 
Q 25.25 74.21875 29.59375 74.21875 
Q 40.828125 74.21875 47.359375 69.109375 
Q 53.90625 64.015625 53.90625 55.328125 
Q 53.90625 49.265625 50.4375 45.09375 
Q 46.96875 40.921875 40.578125 39.3125 
z
" id="DejaVuSans-51"/>
      </defs>
      <g transform="translate(282.707796 418.718437)scale(0.1 -0.1)">
       <use xlink:href="#DejaVuSans-51"/>
       <use x="63.623047" xlink:href="#DejaVuSans-48"/>
       <use x="127.246094" xlink:href="#DejaVuSans-48"/>
      </g>
     </g>
    </g>
    <g id="xtick_5">
     <g id="line2d_5">
      <g>
       <use style="stroke:#000000;stroke-width:0.8;" x="378.830394" xlink:href="#m4c19c28b55" y="404.12"/>
      </g>
     </g>
     <g id="text_5">
      <!-- 400 -->
      <defs>
       <path d="M 37.796875 64.3125 
L 12.890625 25.390625 
L 37.796875 25.390625 
z
M 35.203125 72.90625 
L 47.609375 72.90625 
L 47.609375 25.390625 
L 58.015625 25.390625 
L 58.015625 17.1875 
L 47.609375 17.1875 
L 47.609375 0 
L 37.796875 0 
L 37.796875 17.1875 
L 4.890625 17.1875 
L 4.890625 26.703125 
z
" id="DejaVuSans-52"/>
      </defs>
      <g transform="translate(369.286644 418.718437)scale(0.1 -0.1)">
       <use xlink:href="#DejaVuSans-52"/>
       <use x="63.623047" xlink:href="#DejaVuSans-48"/>
       <use x="127.246094" xlink:href="#DejaVuSans-48"/>
      </g>
     </g>
    </g>
    <g id="xtick_6">
     <g id="line2d_6">
      <g>
       <use style="stroke:#000000;stroke-width:0.8;" x="465.409243" xlink:href="#m4c19c28b55" y="404.12"/>
      </g>
     </g>
     <g id="text_6">
      <!-- 500 -->
      <defs>
       <path d="M 10.796875 72.90625 
L 49.515625 72.90625 
L 49.515625 64.59375 
L 19.828125 64.59375 
L 19.828125 46.734375 
Q 21.96875 47.46875 24.109375 47.828125 
Q 26.265625 48.1875 28.421875 48.1875 
Q 40.625 48.1875 47.75 41.5 
Q 54.890625 34.8125 54.890625 23.390625 
Q 54.890625 11.625 47.5625 5.09375 
Q 40.234375 -1.421875 26.90625 -1.421875 
Q 22.3125 -1.421875 17.546875 -0.640625 
Q 12.796875 0.140625 7.71875 1.703125 
L 7.71875 11.625 
Q 12.109375 9.234375 16.796875 8.0625 
Q 21.484375 6.890625 26.703125 6.890625 
Q 35.15625 6.890625 40.078125 11.328125 
Q 45.015625 15.765625 45.015625 23.390625 
Q 45.015625 31 40.078125 35.4375 
Q 35.15625 39.890625 26.703125 39.890625 
Q 22.75 39.890625 18.8125 39.015625 
Q 14.890625 38.140625 10.796875 36.28125 
z
" id="DejaVuSans-53"/>
      </defs>
      <g transform="translate(455.865493 418.718437)scale(0.1 -0.1)">
       <use xlink:href="#DejaVuSans-53"/>
       <use x="63.623047" xlink:href="#DejaVuSans-48"/>
       <use x="127.246094" xlink:href="#DejaVuSans-48"/>
      </g>
     </g>
    </g>
    <g id="xtick_7">
     <g id="line2d_7">
      <g>
       <use style="stroke:#000000;stroke-width:0.8;" x="551.988091" xlink:href="#m4c19c28b55" y="404.12"/>
      </g>
     </g>
     <g id="text_7">
      <!-- 600 -->
      <defs>
       <path d="M 33.015625 40.375 
Q 26.375 40.375 22.484375 35.828125 
Q 18.609375 31.296875 18.609375 23.390625 
Q 18.609375 15.53125 22.484375 10.953125 
Q 26.375 6.390625 33.015625 6.390625 
Q 39.65625 6.390625 43.53125 10.953125 
Q 47.40625 15.53125 47.40625 23.390625 
Q 47.40625 31.296875 43.53125 35.828125 
Q 39.65625 40.375 33.015625 40.375 
z
M 52.59375 71.296875 
L 52.59375 62.3125 
Q 48.875 64.0625 45.09375 64.984375 
Q 41.3125 65.921875 37.59375 65.921875 
Q 27.828125 65.921875 22.671875 59.328125 
Q 17.53125 52.734375 16.796875 39.40625 
Q 19.671875 43.65625 24.015625 45.921875 
Q 28.375 48.1875 33.59375 48.1875 
Q 44.578125 48.1875 50.953125 41.515625 
Q 57.328125 34.859375 57.328125 23.390625 
Q 57.328125 12.15625 50.6875 5.359375 
Q 44.046875 -1.421875 33.015625 -1.421875 
Q 20.359375 -1.421875 13.671875 8.265625 
Q 6.984375 17.96875 6.984375 36.375 
Q 6.984375 53.65625 15.1875 63.9375 
Q 23.390625 74.21875 37.203125 74.21875 
Q 40.921875 74.21875 44.703125 73.484375 
Q 48.484375 72.75 52.59375 71.296875 
z
" id="DejaVuSans-54"/>
      </defs>
      <g transform="translate(542.444341 418.718437)scale(0.1 -0.1)">
       <use xlink:href="#DejaVuSans-54"/>
       <use x="63.623047" xlink:href="#DejaVuSans-48"/>
       <use x="127.246094" xlink:href="#DejaVuSans-48"/>
      </g>
     </g>
    </g>
    <g id="xtick_8">
     <g id="line2d_8">
      <g>
       <use style="stroke:#000000;stroke-width:0.8;" x="638.56694" xlink:href="#m4c19c28b55" y="404.12"/>
      </g>
     </g>
     <g id="text_8">
      <!-- 700 -->
      <defs>
       <path d="M 8.203125 72.90625 
L 55.078125 72.90625 
L 55.078125 68.703125 
L 28.609375 0 
L 18.3125 0 
L 43.21875 64.59375 
L 8.203125 64.59375 
z
" id="DejaVuSans-55"/>
      </defs>
      <g transform="translate(629.02319 418.718437)scale(0.1 -0.1)">
       <use xlink:href="#DejaVuSans-55"/>
       <use x="63.623047" xlink:href="#DejaVuSans-48"/>
       <use x="127.246094" xlink:href="#DejaVuSans-48"/>
      </g>
     </g>
    </g>
   </g>
   <g id="matplotlib.axis_2">
    <g id="ytick_1">
     <g id="line2d_9">
      <defs>
       <path d="M 0 0 
L -3.5 0 
" id="m863e9d9e4e" style="stroke:#000000;stroke-width:0.8;"/>
      </defs>
      <g>
       <use style="stroke:#000000;stroke-width:0.8;" x="32.515" xlink:href="#m863e9d9e4e" y="336.70353"/>
      </g>
     </g>
     <g id="text_9">
      <!-- −1 -->
      <defs>
       <path d="M 10.59375 35.5 
L 73.1875 35.5 
L 73.1875 27.203125 
L 10.59375 27.203125 
z
" id="DejaVuSans-8722"/>
      </defs>
      <g transform="translate(10.772812 340.502748)scale(0.1 -0.1)">
       <use xlink:href="#DejaVuSans-8722"/>
       <use x="83.789062" xlink:href="#DejaVuSans-49"/>
      </g>
     </g>
    </g>
    <g id="ytick_2">
     <g id="line2d_10">
      <g>
       <use style="stroke:#000000;stroke-width:0.8;" x="32.515" xlink:href="#m863e9d9e4e" y="268.403143"/>
      </g>
     </g>
     <g id="text_10">
      <!-- 0 -->
      <g transform="translate(19.1525 272.202362)scale(0.1 -0.1)">
       <use xlink:href="#DejaVuSans-48"/>
      </g>
     </g>
    </g>
    <g id="ytick_3">
     <g id="line2d_11">
      <g>
       <use style="stroke:#000000;stroke-width:0.8;" x="32.515" xlink:href="#m863e9d9e4e" y="200.102756"/>
      </g>
     </g>
     <g id="text_11">
      <!-- 1 -->
      <g transform="translate(19.1525 203.901975)scale(0.1 -0.1)">
       <use xlink:href="#DejaVuSans-49"/>
      </g>
     </g>
    </g>
    <g id="ytick_4">
     <g id="line2d_12">
      <g>
       <use style="stroke:#000000;stroke-width:0.8;" x="32.515" xlink:href="#m863e9d9e4e" y="131.802369"/>
      </g>
     </g>
     <g id="text_12">
      <!-- 2 -->
      <g transform="translate(19.1525 135.601588)scale(0.1 -0.1)">
       <use xlink:href="#DejaVuSans-50"/>
      </g>
     </g>
    </g>
    <g id="ytick_5">
     <g id="line2d_13">
      <g>
       <use style="stroke:#000000;stroke-width:0.8;" x="32.515" xlink:href="#m863e9d9e4e" y="63.501983"/>
      </g>
     </g>
     <g id="text_13">
      <!-- 3 -->
      <g transform="translate(19.1525 67.301201)scale(0.1 -0.1)">
       <use xlink:href="#DejaVuSans-51"/>
      </g>
     </g>
    </g>
   </g>
   <g id="line2d_14">
    <path clip-path="url(#pd637a76226)" d="M 66.280751 268.403143 
L 724.28 268.403143 
L 724.28 268.403143 
" style="fill:none;stroke:#1f77b4;stroke-linecap:square;stroke-width:1.5;"/>
   </g>
   <g id="line2d_15">
    <path clip-path="url(#pd637a76226)" d="M 66.280751 268.403143 
L 76.670213 268.292943 
L 77.536001 270.168834 
L 78.40179 270.168834 
L 79.267578 268.985278 
L 80.133367 268.113039 
L 80.999155 269.98893 
L 81.864944 271.172485 
L 84.462309 268.113039 
L 86.193886 268.113039 
L 87.059675 266.929483 
L 87.925463 266.929483 
L 88.791252 268.230845 
L 89.65704 271.781511 
L 90.522829 274.311365 
L 91.388617 275.696036 
L 92.254406 276.388372 
L 93.120194 278.019917 
L 93.985982 278.019917 
L 94.851771 279.895808 
L 95.717559 278.712253 
L 96.583348 278.712253 
L 97.449136 277.528697 
L 98.314925 274.413262 
L 99.180713 273.229706 
L 100.046502 273.229706 
L 100.91229 272.194723 
L 102.643867 272.194723 
L 103.509656 274.250518 
L 105.241233 274.250518 
L 106.107021 273.268079 
L 106.97281 272.776859 
L 107.838598 272.776859 
L 108.704387 270.306231 
L 109.570175 270.306231 
L 110.435964 270.569444 
L 111.301752 272.35442 
L 112.167541 269.522979 
L 113.033329 268.602638 
L 113.899118 270.277413 
L 114.764906 271.149653 
L 116.496483 268.664736 
L 117.362272 269.668387 
L 118.22806 269.357071 
L 119.093849 270.540627 
L 119.959637 273.600074 
L 120.825426 270.277413 
L 121.691214 272.351088 
L 122.557003 274.787903 
L 123.422791 271.015913 
L 124.288579 268.039777 
L 125.154368 263.006138 
L 126.020156 261.621467 
L 126.885945 263.147669 
L 127.751733 261.516124 
L 128.617522 262.900795 
L 129.48331 260.533684 
L 130.349099 261.71724 
L 131.214887 261.71724 
L 132.080676 268.0582 
L 132.946464 272.28452 
L 133.812253 272.976856 
L 134.678041 272.976856 
L 135.54383 275.739157 
L 136.409618 275.929076 
L 137.275407 274.434204 
L 138.141195 274.009954 
L 139.006984 274.009954 
L 139.872772 276.250525 
L 140.738561 276.430429 
L 141.604349 279.025546 
L 142.470138 278.534327 
L 143.335926 281.004955 
L 144.201715 279.440379 
L 145.067503 281.343161 
L 145.933292 279.668386 
L 146.79908 279.011258 
L 147.664869 280.049405 
L 148.530657 278.37463 
L 149.396446 277.191074 
L 150.262234 276.616545 
L 151.128023 273.138549 
L 151.993811 270.771438 
L 152.859599 268.895547 
L 153.725388 268.895547 
L 154.591176 264.451429 
L 155.456965 267.77409 
L 156.322753 266.30944 
L 157.188542 262.917076 
L 158.05433 265.550447 
L 158.920119 262.407691 
L 159.785907 264.082466 
L 160.651696 262.206575 
L 161.517484 259.295702 
L 162.383273 258.350791 
L 163.249061 253.214337 
L 164.11485 253.705557 
L 164.980638 252.210686 
L 165.846427 252.210686 
L 166.712215 245.17739 
L 167.578004 243.929832 
L 168.443792 241.790727 
L 169.309581 241.409707 
L 170.175369 238.498834 
L 171.041158 238.962878 
L 171.906946 237.827424 
L 172.772735 236.195879 
L 173.638523 235.192228 
L 174.504312 235.007452 
L 175.3701 236.993543 
L 176.235889 236.274317 
L 177.101677 235.893297 
L 177.967466 236.695833 
L 178.833254 238.260408 
L 179.699043 236.094413 
L 180.564831 235.222173 
L 181.43062 235.962611 
L 182.296408 235.844805 
L 184.027985 239.921899 
L 184.893773 239.921899 
L 185.759562 243.399895 
L 186.62535 245.767006 
L 187.491139 249.089666 
L 188.356927 249.089666 
L 189.222716 252.149113 
L 190.088504 253.245084 
L 190.954293 253.591608 
L 191.820081 254.858473 
L 192.68587 254.69573 
L 193.551658 256.952641 
L 194.417447 256.909411 
L 195.283235 260.169973 
L 196.149024 260.862308 
L 197.014812 261.114883 
L 197.880601 263.911116 
L 198.746389 263.911116 
L 199.612178 264.533748 
L 200.477966 263.661508 
L 201.343755 265.537399 
L 202.209543 265.674073 
L 203.075332 270.741213 
L 203.94112 271.122233 
L 204.806909 272.305788 
L 205.672697 265.353028 
L 206.538486 264.686115 
L 207.404274 257.515078 
L 208.270063 260.928003 
L 209.135851 260.318977 
L 210.00164 261.414949 
L 210.867428 260.832813 
L 211.733217 261.705053 
L 212.599005 260.902517 
L 214.330582 260.902517 
L 215.19637 261.165731 
L 216.062159 262.037971 
L 216.927947 254.174598 
L 217.793736 255.125162 
L 218.659524 255.125162 
L 219.525313 257.492273 
L 220.391101 258.939042 
L 221.25689 258.939042 
L 222.122678 259.548068 
L 222.988467 258.101299 
L 223.854255 256.426524 
L 225.585832 259.271968 
L 226.451621 258.960652 
L 227.317409 258.960652 
L 228.183198 259.271968 
L 229.048986 258.960652 
L 229.914775 249.712608 
L 230.780563 249.712608 
L 231.646352 246.784573 
L 232.51214 247.047787 
L 233.377929 247.047787 
L 234.243717 241.621229 
L 235.109506 242.493469 
L 235.975294 242.493469 
L 236.841083 241.621229 
L 237.706871 239.184414 
L 238.57266 239.184414 
L 239.438448 239.758944 
L 240.304237 248.561526 
L 241.170025 247.546058 
L 242.035814 254.717095 
L 242.901602 252.307821 
L 243.76739 252.829263 
L 244.633179 252.114311 
L 245.498967 253.880002 
L 248.962121 253.880002 
L 249.82791 254.489028 
L 250.693698 255.935797 
L 251.559487 267.12183 
L 252.425275 265.416833 
L 253.291064 264.461283 
L 254.156852 265.938275 
L 255.022641 263.30795 
L 255.888429 257.811688 
L 256.754218 258.504024 
L 257.620006 260.643129 
L 258.485795 260.643129 
L 259.351583 258.113275 
L 260.217372 256.929719 
L 261.08316 256.929719 
L 261.948949 250.942238 
L 262.814737 249.530676 
L 263.680526 251.897787 
L 264.546314 259.76116 
L 265.412103 259.76116 
L 266.277891 263.38153 
L 267.14368 264.682892 
L 268.009468 264.682892 
L 268.875257 271.674025 
L 270.606834 271.674025 
L 271.472622 274.913375 
L 273.204199 274.913375 
L 274.069987 273.710952 
L 274.935776 271.207167 
L 275.801564 276.011093 
L 276.667353 276.011093 
L 277.533141 277.194649 
L 278.39893 275.226437 
L 279.264718 273.661862 
L 280.130507 271.093635 
L 280.996295 273.312174 
L 281.862084 272.619838 
L 284.459449 272.619838 
L 285.325238 271.173069 
L 286.191026 267.850408 
L 287.056815 270.107319 
L 287.922603 270.107319 
L 288.788392 266.955552 
L 289.65418 266.507563 
L 290.519969 272.578354 
L 291.385757 271.013779 
L 292.251546 270.321443 
L 293.117334 264.597175 
L 293.983123 266.964286 
L 294.848911 267.656622 
L 295.7147 267.656622 
L 296.580488 273.644104 
L 297.446277 275.055665 
L 298.312065 274.875761 
L 299.177854 274.875761 
L 300.043642 276.370632 
L 300.909431 276.571748 
L 301.775219 269.975241 
L 302.641008 269.527251 
L 303.506796 262.536118 
L 304.372584 264.210894 
L 305.238373 264.210894 
L 306.104161 264.474108 
L 306.96995 264.093088 
L 307.835738 264.093088 
L 308.701527 265.904537 
L 309.567315 259.917055 
L 310.433104 259.425835 
L 311.298892 252.254798 
L 312.164681 251.562463 
L 313.030469 251.873779 
L 313.896258 253.74967 
L 314.762046 253.74967 
L 315.627835 251.531131 
L 316.493623 246.235986 
L 318.2252 231.893911 
L 319.090989 232.814253 
L 319.956777 233.997809 
L 320.822566 233.305473 
L 321.688354 231.048562 
L 322.554143 231.048562 
L 323.419931 230.356227 
L 324.28572 231.987772 
L 325.151508 230.229687 
L 326.017297 229.537351 
L 326.883085 232.596798 
L 327.748874 238.812285 
L 328.614662 236.445174 
L 329.480451 235.752839 
L 330.346239 234.306069 
L 332.077816 234.306069 
L 332.943605 233.302418 
L 333.809393 234.485973 
L 334.675181 234.174658 
L 335.54097 232.789986 
L 336.406758 232.789986 
L 337.272547 234.421532 
L 338.138335 243.288556 
L 339.004124 241.61378 
L 339.869912 241.61378 
L 340.735701 238.983455 
L 341.601489 239.675791 
L 342.467278 239.675791 
L 343.333066 238.492235 
L 344.198855 244.707723 
L 345.064643 243.524168 
L 345.930432 253.062316 
L 346.79622 254.446987 
L 347.662009 254.135671 
L 348.527797 252.25978 
L 350.259374 252.25978 
L 351.125163 258.247261 
L 352.85674 272.589335 
L 354.588317 270.748652 
L 355.454105 271.440988 
L 356.319894 271.440988 
L 358.051471 275.19277 
L 358.917259 276.757345 
L 359.783048 277.248565 
L 360.648836 277.940901 
L 361.514625 276.266125 
L 362.380413 275.774905 
L 363.246202 274.21033 
L 364.11199 274.21033 
L 364.977778 275.657099 
L 365.843567 278.89645 
L 366.709355 272.216633 
L 367.575144 273.400188 
L 368.440932 272.216633 
L 369.306721 272.597653 
L 370.172509 273.781208 
L 371.038298 279.76869 
L 371.904086 278.585134 
L 372.769875 268.153535 
L 373.635663 268.153535 
L 374.501452 268.644755 
L 375.36724 268.644755 
L 376.233029 268.333439 
L 377.098817 268.824659 
L 377.964606 269.516994 
L 378.830394 269.288988 
L 379.696183 271.792773 
L 380.561971 269.425662 
L 381.42776 259.686398 
L 382.293548 259.686398 
L 383.159337 259.949612 
L 384.025125 254.225344 
L 384.890914 254.225344 
L 386.622491 239.88327 
L 387.488279 239.50225 
L 388.354068 239.50225 
L 389.219856 244.963304 
L 390.085645 251.643121 
L 390.951433 246.52788 
L 391.817222 244.651989 
L 392.68301 245.524228 
L 393.548798 243.959653 
L 394.414587 240.339282 
L 395.280375 231.292354 
L 396.146164 229.907683 
L 397.011952 220.860755 
L 397.877741 227.720476 
L 398.743529 228.592716 
L 399.609318 228.211696 
L 400.475106 225.463565 
L 401.340895 232.835718 
L 402.206683 231.652163 
L 403.072472 232.033182 
L 403.93826 223.29757 
L 405.669837 224.16981 
L 406.535626 220.321433 
L 407.401414 228.184806 
L 408.267203 228.184806 
L 409.132991 222.741087 
L 409.99878 229.420904 
L 410.864568 229.420904 
L 411.730357 219.882756 
L 412.596145 212.019383 
L 413.461934 212.019383 
L 414.327722 207.951023 
L 415.193511 207.951023 
L 416.059299 216.468359 
L 416.925088 209.788542 
L 417.790876 209.034108 
L 418.656665 214.758376 
L 419.522453 214.758376 
L 420.388242 215.630616 
L 421.25403 222.801653 
L 422.119819 228.90694 
L 422.985607 223.791698 
L 423.851395 220.815561 
L 424.717184 207.455927 
L 425.582972 212.571169 
L 426.448761 207.276023 
L 427.314549 204.527892 
L 428.180338 204.527892 
L 429.046126 215.520415 
L 429.911915 224.567344 
L 430.777703 232.430716 
L 431.643492 241.477644 
L 432.50928 242.862316 
L 433.375069 248.669893 
L 434.240857 249.542133 
L 435.106646 249.050913 
L 435.972434 248.358577 
L 439.435588 275.880381 
L 440.301377 274.315806 
L 441.167165 278.164183 
L 442.032954 285.33522 
L 442.898742 286.370202 
L 443.764531 298.493738 
L 445.496108 298.493738 
L 446.361896 307.229351 
L 447.227685 309.285146 
L 448.093473 310.468701 
L 448.959262 315.720617 
L 449.82505 315.720617 
L 450.690839 315.37797 
L 451.556627 322.057787 
L 454.153992 344.754453 
L 455.019781 357.352048 
L 455.885569 364.031865 
L 456.751358 358.307597 
L 457.617146 363.914059 
L 458.482935 367.464726 
L 459.348723 379.868811 
L 460.214512 379.176475 
L 461.0803 384.471621 
L 461.946089 384.471621 
L 462.811877 386.146396 
L 463.677666 381.031154 
L 464.543454 382.21471 
L 465.409243 373.641841 
L 466.275031 369.626845 
L 467.14082 362.947028 
L 468.006608 352.664001 
L 468.872397 352.172781 
L 469.738185 354.599811 
L 470.603974 352.72392 
L 471.469762 346.815872 
L 472.335551 339.584916 
L 473.201339 340.128679 
L 474.067128 333.386764 
L 474.932916 334.342313 
L 475.798705 336.454097 
L 476.664493 329.85759 
L 477.530282 330.387182 
L 479.261859 316.646528 
L 480.127647 313.898397 
L 480.993436 315.393269 
L 481.859224 319.552961 
L 482.725013 315.489863 
L 483.590801 312.494858 
L 484.456589 310.355754 
L 485.322378 309.352102 
L 486.188166 312.481253 
L 487.053955 307.102797 
L 487.919743 303.349307 
L 490.517109 285.040339 
L 491.382897 286.745336 
L 492.248686 286.254116 
L 493.980263 273.596603 
L 494.846051 274.288938 
L 495.71184 277.037069 
L 496.577628 275.853514 
L 498.309205 272.614163 
L 499.174994 274.341481 
L 500.040782 274.228235 
L 500.906571 278.243231 
L 501.772359 276.652586 
L 502.638148 280.197908 
L 503.503936 278.85161 
L 505.235513 283.46065 
L 506.101302 282.688881 
L 506.96709 282.547684 
L 507.832879 281.819146 
L 508.698667 282.310365 
L 509.564456 284.493696 
L 510.430244 282.381912 
L 511.296033 282.762932 
L 512.161821 284.10923 
L 513.893398 280.80291 
L 514.759186 286.747161 
L 515.624975 286.891543 
L 516.490763 287.847093 
L 517.356552 290.726635 
L 518.22234 289.341964 
L 519.088129 289.605178 
L 519.953917 289.425274 
L 520.819706 285.603788 
L 521.685494 284.362345 
L 524.28286 279.718823 
L 525.148648 276.769577 
L 526.014437 279.038428 
L 526.880225 280.5333 
L 527.746014 280.04208 
L 528.611802 278.309417 
L 529.477591 279.694088 
L 530.343379 276.945957 
L 531.209168 278.129513 
L 532.940745 278.129513 
L 533.806533 275.218639 
L 534.672322 276.041382 
L 535.53811 276.041382 
L 536.403899 278.17579 
L 538.135476 276.568631 
L 539.001264 270.023781 
L 539.867053 269.532561 
L 540.732841 270.224897 
L 541.59863 270.044992 
L 542.464418 268.928407 
L 543.330207 267.135825 
L 544.195995 263.041396 
L 545.061783 265.609623 
L 545.927572 264.965389 
L 546.79336 262.365831 
L 547.659149 260.937929 
L 548.524937 262.121485 
L 549.390726 260.98116 
L 550.256514 258.088646 
L 551.122303 258.088646 
L 551.988091 254.849296 
L 552.85388 250.737705 
L 553.719668 244.750224 
L 555.451245 230.588054 
L 557.182822 212.511906 
L 558.048611 207.21676 
L 559.780188 197.761922 
L 560.645976 186.617036 
L 561.511765 177.951127 
L 562.377553 171.27131 
L 563.243342 169.325715 
L 564.10913 160.077671 
L 564.974919 152.214299 
L 566.706496 141.194885 
L 568.438073 125.46814 
L 569.303861 116.421212 
L 570.16965 110.43373 
L 571.035438 102.026595 
L 571.901227 95.035462 
L 572.767015 90.875769 
L 577.961746 48.05805 
L 578.827534 50.197155 
L 579.693323 45.372018 
L 580.559111 45.060702 
L 581.4249 44.05705 
L 582.290688 44.666076 
L 583.156477 45.739432 
L 584.022265 43.683636 
L 585.753842 46.812787 
L 586.619631 50.052138 
L 587.485419 56.039619 
L 588.351208 63.210656 
L 589.216996 73.129824 
L 590.082785 80.120957 
L 590.948573 89.167885 
L 591.814362 94.3215 
L 593.545939 101.614617 
L 595.277516 115.264355 
L 597.009093 129.606429 
L 597.874881 134.230451 
L 599.606458 149.084957 
L 600.472247 154.809224 
L 601.338035 161.287926 
L 603.935401 184.878044 
L 604.801189 190.865525 
L 605.666977 198.036562 
L 606.532766 206.211251 
L 607.398554 209.651717 
L 609.130131 225.558366 
L 609.99592 232.238183 
L 610.861708 241.977447 
L 612.593285 255.494066 
L 613.459074 254.80173 
L 614.324862 255.875085 
L 615.190651 255.875085 
L 616.056439 256.418848 
L 616.922228 256.650731 
L 617.788016 255.958395 
L 618.653805 255.958395 
L 619.519593 253.81929 
L 620.385382 252.517929 
L 621.25117 253.701484 
L 622.116959 253.43827 
L 622.982747 254.130606 
L 623.848536 251.500281 
L 624.714324 252.372521 
L 625.580113 252.801643 
L 626.445901 252.943174 
L 628.177478 255.866935 
L 629.043267 257.05049 
L 629.909055 255.603721 
L 630.774844 254.420166 
L 631.640632 254.911386 
L 632.506421 254.60007 
L 634.237997 256.427859 
L 635.103786 256.427859 
L 635.969574 254.551968 
L 636.835363 256.919079 
L 637.701151 256.919079 
L 638.56694 258.677164 
L 639.432728 259.369499 
L 640.298517 261.508604 
L 641.164305 259.321397 
L 642.030094 262.179728 
L 642.895882 263.18338 
L 644.627459 263.18338 
L 645.493248 264.927859 
L 646.359036 265.239175 
L 647.224825 265.931511 
L 648.956402 268.298622 
L 649.82219 268.298622 
L 650.687979 268.447194 
L 651.553767 271.358068 
L 653.285344 271.358068 
L 654.151133 273.497173 
L 655.016921 273.233959 
L 655.88271 271.669384 
L 656.748498 270.977048 
L 657.614287 270.977048 
L 658.480075 271.551578 
L 659.345864 271.551578 
L 660.211652 271.122456 
L 661.943229 273.690683 
L 662.809018 274.493219 
L 663.674806 274.383018 
L 664.540594 275.829788 
L 665.406383 277.504563 
L 666.272171 277.504563 
L 667.13796 279.069138 
L 668.003748 278.113589 
L 668.869537 278.113589 
L 669.735325 279.459888 
L 670.601114 280.152223 
L 671.466902 279.924217 
L 672.332691 279.924217 
L 673.198479 278.166132 
L 674.064268 279.730707 
L 674.930056 277.100383 
L 675.795845 277.792718 
L 679.258999 277.792718 
L 680.124787 275.355903 
L 680.990576 279.059583 
L 681.856364 279.814017 
L 682.722153 279.322797 
L 683.587941 279.322797 
L 684.45373 281.953122 
L 685.319518 280.769566 
L 686.185307 281.112214 
L 687.051095 281.112214 
L 687.916884 279.928658 
L 689.648461 279.928658 
L 690.514249 280.309678 
L 691.380038 281.265227 
L 695.70898 281.265227 
L 696.574768 281.528441 
L 697.440557 281.528441 
L 698.306345 281.147421 
L 699.172134 281.147421 
L 700.903711 280.164981 
L 701.769499 278.86362 
L 702.635288 278.86362 
L 703.501076 280.428195 
L 704.366865 280.265452 
L 705.232653 279.774232 
L 706.098442 277.635127 
L 706.96423 277.635127 
L 707.830019 278.818683 
L 708.695807 276.561772 
L 709.561596 278.547863 
L 710.427384 280.914974 
L 711.293173 280.914974 
L 713.02475 281.897414 
L 713.890538 281.734671 
L 714.756327 281.125645 
L 715.622115 277.802985 
L 716.487904 278.232106 
L 717.353692 279.235758 
L 718.219481 279.928093 
L 719.085269 279.17366 
L 719.951058 282.233106 
L 720.816846 282.070363 
L 721.682635 282.070363 
L 722.548423 283.253919 
L 724.28 283.253919 
L 724.28 283.253919 
" style="fill:none;stroke:#ff7f0e;stroke-linecap:square;stroke-width:1.5;"/>
   </g>
   <g id="line2d_16">
    <path clip-path="url(#pd637a76226)" d="M 66.280751 268.403143 
L 76.670213 268.292943 
L 77.536001 270.168834 
L 78.40179 270.168834 
L 79.267578 268.985278 
L 80.133367 268.113039 
L 80.999155 269.98893 
L 81.864944 271.172485 
L 84.462309 268.113039 
L 86.193886 268.113039 
L 87.059675 266.929483 
L 87.925463 266.929483 
L 88.791252 268.230845 
L 89.65704 271.781511 
L 90.522829 274.311365 
L 91.388617 275.696036 
L 92.254406 276.388372 
L 93.120194 278.019917 
L 93.985982 278.019917 
L 94.851771 279.895808 
L 95.717559 278.712253 
L 96.583348 278.712253 
L 97.449136 277.528697 
L 98.314925 274.413262 
L 99.180713 273.229706 
L 100.046502 273.229706 
L 100.91229 272.194723 
L 102.643867 272.194723 
L 103.509656 274.250518 
L 105.241233 274.250518 
L 106.107021 273.268079 
L 106.97281 272.776859 
L 107.838598 272.776859 
L 108.704387 270.306231 
L 109.570175 270.306231 
L 110.435964 270.569444 
L 111.301752 272.35442 
L 112.167541 269.522979 
L 113.033329 268.602638 
L 113.899118 270.277413 
L 114.764906 271.149653 
L 116.496483 268.664736 
L 117.362272 269.668387 
L 118.22806 269.357071 
L 119.093849 270.540627 
L 119.959637 273.600074 
L 120.825426 270.277413 
L 121.691214 272.351088 
L 122.557003 274.787903 
L 123.422791 271.015913 
L 124.288579 268.039777 
L 125.154368 263.006138 
L 126.020156 261.621467 
L 126.885945 263.147669 
L 127.751733 261.516124 
L 128.617522 262.900795 
L 129.48331 260.533684 
L 130.349099 261.71724 
L 131.214887 261.71724 
L 132.080676 268.0582 
L 132.946464 272.28452 
L 133.812253 272.976856 
L 134.678041 272.976856 
L 135.54383 275.739157 
L 136.409618 275.929076 
L 137.275407 274.434204 
L 138.141195 274.009954 
L 139.006984 274.009954 
L 139.872772 276.250525 
L 140.738561 276.430429 
L 141.604349 279.025546 
L 142.470138 278.534327 
L 143.335926 281.004955 
L 144.201715 279.440379 
L 145.067503 281.343161 
L 145.933292 279.668386 
L 146.79908 279.011258 
L 147.664869 280.049405 
L 148.530657 278.37463 
L 149.396446 277.191074 
L 150.262234 276.616545 
L 151.128023 273.138549 
L 151.993811 270.771438 
L 152.859599 268.895547 
L 153.725388 268.895547 
L 154.591176 264.451429 
L 155.456965 267.77409 
L 156.322753 266.30944 
L 157.188542 262.917076 
L 158.05433 265.550447 
L 158.920119 262.407691 
L 159.785907 264.082466 
L 160.651696 262.206575 
L 161.517484 259.295702 
L 162.383273 258.350791 
L 163.249061 253.214337 
L 164.11485 253.705557 
L 164.980638 252.210686 
L 165.846427 252.210686 
L 166.712215 245.17739 
L 167.578004 243.929832 
L 168.443792 241.790727 
L 169.309581 241.409707 
L 170.175369 238.498834 
L 171.041158 238.962878 
L 171.906946 237.827424 
L 172.772735 236.195879 
L 173.638523 235.192228 
L 174.504312 235.007452 
L 175.3701 236.993543 
L 176.235889 236.274317 
L 177.101677 235.893297 
L 177.967466 236.695833 
L 178.833254 238.260408 
L 179.699043 236.094413 
L 180.564831 235.222173 
L 181.43062 235.962611 
L 182.296408 235.844805 
L 184.027985 239.921899 
L 184.893773 239.921899 
L 185.759562 243.399895 
L 186.62535 245.767006 
L 187.491139 249.089666 
L 188.356927 249.089666 
L 189.222716 252.149113 
L 190.088504 253.245084 
L 190.954293 253.591608 
L 191.820081 254.858473 
L 192.68587 254.69573 
L 193.551658 256.952641 
L 194.417447 256.909411 
L 195.283235 260.169973 
L 196.149024 260.862308 
L 197.014812 261.114883 
L 197.880601 263.911116 
L 198.746389 263.911116 
L 199.612178 264.533748 
L 200.477966 263.661508 
L 201.343755 265.537399 
L 202.209543 265.674073 
L 203.075332 270.741213 
L 203.94112 271.122233 
L 204.806909 272.305788 
L 205.672697 265.353028 
L 206.538486 264.686115 
L 207.404274 257.515078 
L 208.270063 260.928003 
L 209.135851 260.318977 
L 210.00164 261.414949 
L 210.867428 260.832813 
L 211.733217 261.705053 
L 212.599005 260.902517 
L 214.330582 260.902517 
L 215.19637 261.165731 
L 216.062159 262.037971 
L 216.927947 254.174598 
L 217.793736 255.125162 
L 218.659524 248.445345 
L 219.525313 250.812456 
L 220.391101 245.088188 
L 221.25689 245.088188 
L 222.122678 245.697214 
L 223.854255 242.146548 
L 224.720044 243.58043 
L 225.585832 238.312175 
L 227.317409 219.907002 
L 228.183198 220.218318 
L 229.048986 213.227185 
L 229.914775 203.979142 
L 230.780563 203.979142 
L 231.646352 205.260296 
L 232.51214 205.523509 
L 233.377929 203.156398 
L 234.243717 197.729841 
L 235.109506 198.60208 
L 236.841083 198.60208 
L 237.706871 196.165265 
L 238.57266 196.165265 
L 239.438448 195.556239 
L 240.304237 197.187785 
L 241.170025 196.172316 
L 242.035814 196.172316 
L 242.901602 193.763042 
L 243.76739 194.284485 
L 244.633179 194.261868 
L 245.498967 196.027559 
L 246.364756 194.151668 
L 247.230544 194.151668 
L 248.096333 192.275777 
L 248.962121 191.784557 
L 249.82791 190.517692 
L 250.693698 191.964461 
L 251.559487 203.150494 
L 252.425275 194.27446 
L 253.291064 199.998727 
L 254.156852 201.475719 
L 255.022641 205.472668 
L 255.888429 199.976407 
L 256.754218 200.668742 
L 257.620006 203.236969 
L 258.485795 201.672394 
L 259.351583 191.279167 
L 260.217372 196.775428 
L 261.08316 205.822357 
L 261.948949 208.881803 
L 262.814737 209.145017 
L 263.680526 218.191945 
L 264.546314 226.055318 
L 265.412103 226.055318 
L 266.277891 223.590608 
L 267.14368 224.89197 
L 268.009468 227.259081 
L 268.875257 234.250214 
L 269.741045 234.250214 
L 270.606834 232.374323 
L 271.472622 234.741434 
L 273.204199 234.741434 
L 274.069987 235.779581 
L 275.801564 245.25076 
L 276.667353 252.421797 
L 277.533141 253.605352 
L 278.39893 251.637141 
L 279.264718 248.196674 
L 280.130507 243.752557 
L 280.996295 247.846986 
L 281.862084 247.846986 
L 282.727872 249.722877 
L 283.593661 248.338206 
L 284.459449 250.214097 
L 286.191026 243.568776 
L 287.056815 252.304388 
L 287.922603 252.304388 
L 288.788392 249.152622 
L 289.65418 250.30541 
L 290.519969 255.37255 
L 291.385757 253.807975 
L 292.251546 253.115639 
L 293.117334 248.955947 
L 293.983123 259.18643 
L 294.848911 259.878766 
L 295.7147 259.878766 
L 296.580488 265.866247 
L 297.446277 265.603034 
L 298.312065 263.143602 
L 299.177854 263.143602 
L 300.043642 264.638474 
L 300.909431 261.219219 
L 301.775219 261.302529 
L 302.641008 262.867104 
L 303.506796 255.875971 
L 304.372584 250.379709 
L 305.238373 250.379709 
L 306.104161 250.642923 
L 306.96995 251.445459 
L 307.835738 249.569568 
L 308.701527 250.324001 
L 309.567315 244.33652 
L 310.433104 243.8453 
L 311.298892 236.674263 
L 312.164681 235.981927 
L 313.030469 234.535158 
L 313.896258 237.594605 
L 314.762046 239.470496 
L 315.627835 237.251958 
L 316.493623 231.264476 
L 317.359412 224.093439 
L 318.2252 218.798293 
L 319.090989 219.981849 
L 319.956777 215.870258 
L 320.822566 214.686703 
L 321.688354 213.122127 
L 322.554143 205.95109 
L 323.419931 205.258755 
L 324.28572 205.833284 
L 325.151508 206.06129 
L 326.017297 205.680271 
L 326.883085 208.739717 
L 327.748874 214.955205 
L 329.480451 209.638848 
L 332.077816 209.638848 
L 333.809393 212.098279 
L 334.675181 210.831414 
L 335.54097 208.263187 
L 336.406758 201.58337 
L 337.272547 193.338977 
L 338.138335 202.206001 
L 339.004124 207.702263 
L 339.869912 209.578154 
L 340.735701 205.071938 
L 341.601489 203.085847 
L 342.467278 204.961738 
L 343.333066 203.778183 
L 344.198855 210.5682 
L 345.064643 210.18718 
L 345.930432 219.725328 
L 347.662009 222.556769 
L 348.527797 220.680878 
L 350.259374 220.680878 
L 351.125163 226.668359 
L 352.85674 241.010433 
L 353.722528 239.826878 
L 354.588317 245.385237 
L 355.454105 246.568793 
L 356.319894 246.568793 
L 357.185682 255.615721 
L 358.051471 257.491612 
L 358.917259 259.056187 
L 359.783048 258.994089 
L 360.648836 259.375109 
L 361.514625 257.700334 
L 362.380413 257.209114 
L 363.246202 250.910316 
L 364.11199 252.786207 
L 364.977778 252.786207 
L 365.843567 254.578789 
L 366.709355 247.898972 
L 367.575144 249.082527 
L 368.440932 247.898972 
L 369.306721 249.235541 
L 370.172509 257.098913 
L 371.038298 261.210504 
L 371.904086 267.890321 
L 372.769875 264.138539 
L 373.635663 256.275166 
L 374.501452 256.766386 
L 375.36724 250.778905 
L 376.233029 251.96246 
L 377.098817 245.282643 
L 377.964606 245.974979 
L 378.830394 247.048334 
L 379.696183 249.933138 
L 380.561971 247.566027 
L 381.42776 245.690136 
L 382.293548 245.690136 
L 384.025125 248.583675 
L 384.890914 241.903858 
L 386.622491 241.903858 
L 387.488279 242.395078 
L 388.354068 242.395078 
L 389.219856 242.8242 
L 390.085645 242.8242 
L 390.951433 244.879995 
L 391.817222 243.004104 
L 392.68301 237.196526 
L 393.548798 235.631951 
L 394.414587 231.582459 
L 395.280375 231.582459 
L 396.146164 230.197787 
L 397.011952 230.197787 
L 397.877741 243.176402 
L 398.743529 244.048642 
L 399.609318 244.048642 
L 400.475106 242.74728 
L 401.340895 250.119433 
L 402.206683 248.935877 
L 403.072472 249.316897 
L 403.93826 248.444657 
L 404.804049 248.935877 
L 405.669837 251.192788 
L 406.535626 252.840673 
L 407.401414 254.024229 
L 408.267203 261.887601 
L 409.132991 263.1237 
L 409.99878 277.666889 
L 410.864568 277.666889 
L 411.730357 284.346706 
L 412.596145 283.654371 
L 413.461934 281.77848 
L 414.327722 279.274695 
L 415.193511 279.274695 
L 416.059299 281.002013 
L 416.925088 281.002013 
L 418.656665 278.108475 
L 419.522453 284.788292 
L 420.388242 278.489495 
L 421.25403 284.788292 
L 422.119819 292.160445 
L 422.985607 294.908575 
L 423.851395 292.629048 
L 424.717184 293.812604 
L 425.582972 298.927845 
L 426.448761 300.803737 
L 427.314549 301.412763 
L 428.180338 301.412763 
L 429.046126 310.677967 
L 429.911915 310.677967 
L 430.777703 316.665449 
L 431.643492 316.665449 
L 432.50928 317.046469 
L 433.375069 322.854046 
L 434.240857 323.345266 
L 435.106646 322.854046 
L 435.972434 322.16171 
L 437.704011 335.140325 
L 438.5698 335.140325 
L 439.435588 341.820142 
L 440.301377 342.622678 
L 441.167165 340.974793 
L 442.032954 348.14583 
L 442.898742 348.14583 
L 443.764531 353.589549 
L 445.496108 353.589549 
L 446.361896 353.970568 
L 447.227685 348.855326 
L 448.093473 350.038882 
L 448.959262 352.542667 
L 449.82505 352.542667 
L 450.690839 344.827867 
L 451.556627 344.827867 
L 454.153992 367.033314 
L 455.019781 380.503148 
L 455.885569 380.884168 
L 456.751358 373.020795 
L 457.617146 370.763884 
L 458.482935 380.214448 
L 459.348723 385.018374 
L 460.214512 377.847337 
L 461.0803 375.971446 
L 461.946089 385.281588 
L 462.811877 386.956364 
L 463.677666 383.56844 
L 464.543454 384.751996 
L 465.409243 375.687906 
L 466.275031 367.824534 
L 467.14082 358.777606 
L 468.006608 346.601527 
L 468.872397 346.110307 
L 469.738185 343.996625 
L 470.603974 342.34874 
L 472.335551 320.18823 
L 473.201339 316.419287 
L 474.067128 303.953104 
L 474.932916 297.045281 
L 475.798705 293.861919 
L 476.664493 280.966614 
L 477.530282 281.496207 
L 478.39607 274.32517 
L 480.127647 263.131531 
L 480.993436 263.553047 
L 481.859224 268.124526 
L 482.725013 265.182885 
L 483.590801 255.508063 
L 484.456589 250.967351 
L 485.322378 251.839591 
L 486.188166 249.47248 
L 487.053955 238.369756 
L 487.919743 229.501024 
L 490.517109 192.191464 
L 491.382897 188.172194 
L 492.248686 187.680974 
L 493.114474 180.509937 
L 493.980263 171.774324 
L 494.846051 164.603287 
L 495.71184 161.363937 
L 496.577628 149.388974 
L 498.309205 146.149623 
L 499.174994 142.761699 
L 500.040782 143.173486 
L 500.906571 151.036859 
L 501.772359 148.736717 
L 502.638148 150.935741 
L 503.503936 144.636944 
L 504.369725 146.304343 
L 505.235513 141.272411 
L 506.101302 146.22491 
L 506.96709 142.209914 
L 507.832879 146.329655 
L 508.698667 149.880321 
L 509.564456 155.386312 
L 510.430244 158.078454 
L 511.296033 158.078454 
L 512.161821 154.963474 
L 513.02761 149.848232 
L 513.893398 142.185975 
L 514.759186 149.313782 
L 515.624975 145.629995 
L 516.490763 146.173758 
L 517.356552 147.931843 
L 518.22234 147.239507 
L 519.088129 143.916847 
L 519.953917 148.768875 
L 520.819706 149.751315 
L 521.685494 155.338262 
L 522.551283 157.708553 
L 523.417071 161.820143 
L 524.28286 169.192296 
L 525.148648 172.120331 
L 526.014437 178.929895 
L 526.880225 179.421114 
L 527.746014 173.433633 
L 528.611802 169.501947 
L 529.477591 171.377838 
L 530.343379 174.617188 
L 531.209168 178.347759 
L 532.940745 178.347759 
L 533.806533 174.25333 
L 535.53811 161.191406 
L 536.403899 160.906159 
L 537.269687 160.108968 
L 538.135476 164.26866 
L 539.001264 161.392283 
L 539.867053 168.0721 
L 540.732841 168.0721 
L 541.59863 173.305148 
L 542.464418 171.341673 
L 543.330207 170.867614 
L 544.195995 169.209999 
L 545.061783 171.397206 
L 545.927572 175.065679 
L 546.79336 176.958731 
L 547.659149 179.215642 
L 548.524937 185.203123 
L 549.390726 185.136154 
L 550.256514 188.017405 
L 551.122303 184.002409 
L 551.988091 180.763058 
L 552.85388 182.638949 
L 553.719668 182.638949 
L 554.585457 180.763058 
L 555.451245 181.455393 
L 556.317034 176.477472 
L 557.182822 175.112541 
L 558.048611 176.497212 
L 558.914399 168.897054 
L 559.780188 164.785463 
L 560.645976 161.99517 
L 561.511765 161.50395 
L 562.377553 167.491431 
L 563.243342 175.846024 
L 564.10913 173.277797 
L 564.974919 165.414424 
L 565.840707 166.259774 
L 566.706496 165.076218 
L 567.572284 162.016771 
L 568.438073 165.119448 
L 569.303861 170.843716 
L 570.16965 177.834849 
L 571.035438 174.923975 
L 571.901227 176.651294 
L 572.767015 172.491601 
L 574.498592 172.491601 
L 575.36438 171.799266 
L 576.230169 174.42959 
L 577.095957 175.349932 
L 577.961746 169.705098 
L 578.827534 168.521542 
L 579.693323 160.145738 
L 580.559111 162.201533 
L 581.4249 156.214052 
L 582.290688 152.773585 
L 583.156477 148.170775 
L 584.022265 146.6062 
L 584.888054 146.6062 
L 585.753842 151.493435 
L 586.619631 154.732786 
L 587.485419 160.720268 
L 588.351208 161.903823 
L 589.216996 164.042928 
L 590.082785 157.564227 
L 592.68015 144.177702 
L 593.545939 143.603172 
L 594.411727 144.094392 
L 595.277516 135.047464 
L 596.143304 127.876427 
L 597.009093 127.876427 
L 597.874881 121.397726 
L 598.74067 122.962301 
L 599.606458 123.654637 
L 600.472247 125.066198 
L 601.338035 120.262272 
L 602.203824 116.641902 
L 603.069612 119.838022 
L 603.935401 121.596107 
L 604.801189 121.284791 
L 605.666977 122.468347 
L 606.532766 118.847976 
L 607.398554 119.159292 
L 608.264343 117.316239 
L 609.130131 117.316239 
L 609.99592 115.790036 
L 610.861708 117.665927 
L 611.727497 116.793688 
L 612.593285 123.473505 
L 613.459074 124.968376 
L 614.324862 131.648193 
L 615.190651 131.648193 
L 616.056439 139.362993 
L 616.922228 145.66179 
L 617.788016 150.956936 
L 619.519593 150.956936 
L 620.385382 150.659226 
L 621.25117 149.274555 
L 622.116959 150.45811 
L 622.982747 157.137928 
L 623.848536 157.137928 
L 625.580113 170.808878 
L 626.445901 174.539448 
L 627.31169 177.397779 
L 628.177478 182.350278 
L 629.909055 196.94157 
L 630.774844 201.05316 
L 631.640632 201.54438 
L 632.506421 204.335741 
L 633.372209 210.897752 
L 634.237997 215.929685 
L 635.103786 213.323929 
L 635.969574 217.054499 
L 636.835363 225.229188 
L 637.701151 223.353297 
L 638.56694 224.586349 
L 639.432728 224.586349 
L 640.298517 232.712935 
L 641.164305 237.516861 
L 642.030094 243.504343 
L 642.895882 248.670056 
L 643.761671 248.670056 
L 644.627459 250.888595 
L 645.493248 250.757183 
L 646.359036 250.244751 
L 647.224825 251.428307 
L 648.090613 252.037333 
L 648.956402 250.652662 
L 649.82219 250.652662 
L 650.687979 249.617679 
L 651.553767 250.310014 
L 652.419556 247.942903 
L 653.285344 247.942903 
L 654.151133 246.939252 
L 655.016921 244.980051 
L 655.88271 245.82096 
L 656.748498 243.681855 
L 657.614287 242.498299 
L 659.345864 242.498299 
L 661.943229 246.381883 
L 662.809018 247.728182 
L 663.674806 246.80784 
L 665.406383 250.739527 
L 666.272171 248.109202 
L 667.13796 251.686342 
L 668.003748 249.748353 
L 668.869537 251.887458 
L 670.601114 254.097767 
L 671.466902 253.558445 
L 672.332691 255.434336 
L 673.198479 254.582304 
L 674.064268 255.111896 
L 674.930056 252.481571 
L 679.258999 252.481571 
L 680.124787 251.429428 
L 680.990576 253.918221 
L 681.856364 253.586698 
L 682.722153 254.542247 
L 683.587941 255.926918 
L 684.45373 256.190132 
L 685.319518 254.314241 
L 686.185307 253.092313 
L 687.051095 255.459424 
L 687.916884 253.784648 
L 688.782672 254.7883 
L 689.648461 256.172971 
L 690.514249 256.716734 
L 691.380038 257.672283 
L 692.245826 258.855839 
L 693.111615 255.659718 
L 693.977403 255.659718 
L 694.843191 254.275047 
L 695.70898 252.219252 
L 696.574768 253.402807 
L 699.172134 253.402807 
L 700.037922 253.139594 
L 700.903711 255.278699 
L 701.769499 254.669673 
L 703.501076 257.909023 
L 704.366865 258.68549 
L 705.232653 260.180361 
L 706.098442 259.224812 
L 706.96423 259.224812 
L 707.830019 260.408367 
L 708.695807 259.878775 
L 709.561596 260.518567 
L 710.427384 261.702123 
L 711.293173 261.702123 
L 712.158961 260.746574 
L 713.02475 259.361902 
L 713.890538 259.199159 
L 714.756327 258.506824 
L 715.622115 256.219146 
L 716.487904 257.734225 
L 717.353692 256.979791 
L 718.219481 257.672127 
L 719.085269 257.408913 
L 719.951058 261.160695 
L 720.816846 262.562527 
L 721.682635 262.562527 
L 722.548423 264.237303 
L 724.28 264.237303 
L 724.28 264.237303 
" style="fill:none;stroke:#2ca02c;stroke-linecap:square;stroke-width:1.5;"/>
   </g>
   <g id="line2d_17">
    <path clip-path="url(#pd637a76226)" d="M 66.280751 261.531953 
L 68.012328 261.531953 
L 68.878116 258.368989 
L 69.743905 255.769431 
L 70.609693 256.260651 
L 71.475482 261.950423 
L 72.34127 260.766867 
L 73.207059 260.766867 
L 74.072847 259.420568 
L 74.938636 260.985144 
L 75.804424 257.815497 
L 76.670213 258.043503 
L 77.536001 256.745307 
L 78.40179 258.347411 
L 79.267578 255.699751 
L 80.133367 255.699751 
L 80.999155 256.080771 
L 82.730732 255.388435 
L 83.596521 256.392087 
L 84.462309 256.392087 
L 85.328098 258.267978 
L 86.193886 256.856416 
L 87.059675 254.489305 
L 87.925463 253.998085 
L 89.65704 259.608423 
L 90.522829 262.629497 
L 91.388617 266.925042 
L 92.254406 269.721275 
L 93.120194 269.476929 
L 93.985982 270.660484 
L 94.851771 272.536376 
L 95.717559 272.536376 
L 96.583348 273.803241 
L 97.449136 274.412267 
L 98.314925 275.284506 
L 99.180713 275.284506 
L 100.046502 275.485622 
L 100.91229 274.793286 
L 101.778079 273.609731 
L 102.643867 273.609731 
L 103.509656 274.973191 
L 104.375444 275.35421 
L 105.241233 274.661875 
L 106.107021 274.86299 
L 106.97281 275.555326 
L 107.838598 275.555326 
L 108.704387 275.174306 
L 109.570175 273.609731 
L 110.435964 277.243707 
L 111.301752 276.170352 
L 113.033329 276.776213 
L 113.899118 275.391542 
L 114.764906 275.391542 
L 115.630695 274.699206 
L 116.496483 275.080226 
L 117.362272 274.519302 
L 118.22806 275.391542 
L 119.093849 277.208692 
L 119.959637 280.268138 
L 120.825426 279.084583 
L 122.557003 285.002361 
L 123.422791 284.472768 
L 125.154368 279.575803 
L 126.020156 277.007576 
L 126.885945 279.489328 
L 127.751733 277.857783 
L 128.617522 279.470461 
L 129.48331 277.594569 
L 130.349099 277.594569 
L 131.214887 279.041339 
L 132.080676 282.406162 
L 132.946464 285.323234 
L 133.812253 287.199125 
L 134.678041 287.199125 
L 135.54383 287.361868 
L 136.409618 290.250421 
L 137.275407 289.24677 
L 138.141195 291.57065 
L 139.006984 291.57065 
L 139.872772 294.503557 
L 140.738561 293.499905 
L 141.604349 295.174681 
L 142.470138 295.867016 
L 143.335926 296.248036 
L 144.201715 293.880925 
L 145.067503 296.164726 
L 145.933292 295.362191 
L 146.79908 295.93672 
L 147.664869 296.365842 
L 149.396446 293.534402 
L 150.262234 294.945963 
L 151.128023 294.454743 
L 151.993811 294.835763 
L 152.859599 294.835763 
L 153.725388 293.018613 
L 154.591176 289.758051 
L 155.456965 290.941606 
L 156.322753 290.748096 
L 157.188542 288.802501 
L 158.05433 289.57427 
L 158.920119 288.390715 
L 159.785907 288.618721 
L 160.651696 288.618721 
L 161.517484 286.400183 
L 162.383273 286.857104 
L 163.249061 285.244427 
L 164.11485 285.244427 
L 164.980638 282.714573 
L 165.846427 282.140043 
L 166.712215 277.473858 
L 167.578004 276.743994 
L 168.443792 274.604889 
L 170.175369 275.625701 
L 171.041158 276.831577 
L 171.906946 277.835229 
L 173.638523 273.144237 
L 174.504312 274.143017 
L 175.3701 275.901102 
L 177.101677 272.087222 
L 177.967466 271.543459 
L 178.833254 273.91057 
L 179.699043 271.052239 
L 180.564831 268.996444 
L 181.43062 266.546023 
L 182.296408 265.853687 
L 183.162196 270.131897 
L 184.027985 271.288562 
L 184.893773 269.877001 
L 185.759562 270.36822 
L 186.62535 270.250414 
L 187.491139 271.697184 
L 188.356927 271.697184 
L 189.222716 272.0085 
L 190.088504 273.976711 
L 190.954293 274.323234 
L 191.820081 273.832015 
L 192.68587 271.49567 
L 193.551658 270.492019 
L 194.417447 268.817243 
L 195.283235 269.509579 
L 196.149024 269.509579 
L 197.014812 269.052657 
L 197.880601 271.419768 
L 198.746389 271.419768 
L 199.612178 273.949623 
L 200.477966 273.949623 
L 201.343755 274.641958 
L 202.209543 272.766067 
L 203.075332 275.957316 
L 203.94112 275.085076 
L 204.806909 277.140871 
L 205.672697 273.655468 
L 206.538486 273.383863 
L 207.404274 270.880079 
L 208.270063 275.165244 
L 209.135851 273.372662 
L 210.00164 273.201769 
L 210.867428 273.263867 
L 211.733217 274.136106 
L 212.599005 272.111643 
L 214.330582 272.111643 
L 215.19637 274.430652 
L 216.062159 275.614207 
L 216.927947 275.614207 
L 217.793736 276.827985 
L 218.659524 273.878738 
L 219.525313 275.754629 
L 220.391101 277.201399 
L 221.25689 277.810425 
L 222.988467 276.543559 
L 223.854255 276.433359 
L 224.720044 276.995002 
L 225.585832 277.223008 
L 226.451621 276.911692 
L 227.317409 278.476268 
L 228.183198 279.479919 
L 229.048986 278.559577 
L 229.914775 276.683686 
L 230.780563 276.683686 
L 231.646352 279.743133 
L 232.51214 275.648703 
L 233.377929 275.648703 
L 234.243717 276.029723 
L 235.975294 276.029723 
L 236.841083 276.722059 
L 237.706871 274.977579 
L 238.57266 275.358599 
L 239.438448 273.877334 
L 241.170025 278.722124 
L 242.035814 281.225908 
L 242.901602 279.12795 
L 243.76739 280.341728 
L 244.633179 278.617863 
L 245.498967 278.555765 
L 246.364756 278.86708 
L 247.230544 281.435307 
L 248.962121 281.435307 
L 249.82791 281.172093 
L 250.693698 283.311198 
L 251.559487 286.633859 
L 252.425275 282.789756 
L 253.291064 285.967009 
L 254.156852 287.93522 
L 255.022641 285.532901 
L 256.754218 287.027773 
L 257.620006 288.412444 
L 258.485795 288.412444 
L 259.351583 285.88259 
L 260.217372 281.950904 
L 261.08316 281.950904 
L 261.948949 282.262219 
L 262.814737 281.833098 
L 263.680526 285.383764 
L 264.546314 286.56732 
L 265.412103 286.56732 
L 266.277891 283.507873 
L 267.14368 286.418747 
L 268.009468 284.542856 
L 268.875257 284.854172 
L 269.741045 283.670616 
L 270.606834 283.670616 
L 271.472622 285.345392 
L 273.204199 285.345392 
L 274.069987 284.279642 
L 274.935776 281.311528 
L 275.801564 279.553443 
L 276.667353 279.242127 
L 277.533141 277.229562 
L 278.39893 274.569015 
L 279.264718 274.324669 
L 280.130507 273.895547 
L 281.862084 273.229281 
L 283.593661 273.229281 
L 284.459449 272.357041 
L 285.325238 270.910272 
L 286.191026 267.587612 
L 287.056815 269.152187 
L 287.922603 267.968631 
L 288.788392 264.816864 
L 290.519969 265.122892 
L 291.385757 263.558316 
L 293.117334 262.256955 
L 294.848911 265.807621 
L 295.7147 265.807621 
L 296.580488 265.496306 
L 297.446277 265.925427 
L 298.312065 264.399225 
L 299.177854 264.399225 
L 300.043642 265.894096 
L 300.909431 266.897748 
L 301.775219 263.838301 
L 302.641008 266.323218 
L 303.506796 266.011902 
L 304.372584 268.870233 
L 305.238373 268.870233 
L 306.104161 268.642227 
L 306.96995 269.444763 
L 307.835738 269.444763 
L 308.701527 271.119538 
L 309.567315 273.258643 
L 310.433104 273.030637 
L 311.298892 273.341953 
L 312.164681 275.845737 
L 313.030469 276.157053 
L 314.762046 276.157053 
L 315.627835 276.4423 
L 316.493623 278.006875 
L 318.2252 278.006875 
L 319.090989 280.755006 
L 319.956777 281.066322 
L 320.822566 279.68165 
L 321.688354 279.300631 
L 322.554143 280.484186 
L 323.419931 279.791851 
L 324.28572 280.594386 
L 325.151508 280.441373 
L 326.017297 280.441373 
L 326.883085 282.808484 
L 327.748874 283.90873 
L 328.614662 281.050399 
L 329.480451 281.922638 
L 330.346239 279.555527 
L 331.212028 279.555527 
L 332.077816 278.683288 
L 334.675181 275.391958 
L 335.54097 273.695971 
L 336.406758 275.883178 
L 337.272547 276.457708 
L 338.138335 278.644915 
L 339.004124 276.970139 
L 340.735701 272.463924 
L 341.601489 271.972704 
L 342.467278 271.972704 
L 343.333066 270.408128 
L 344.198855 269.224573 
L 345.064643 268.843553 
L 345.930432 271.210664 
L 346.79622 272.595335 
L 347.662009 272.284019 
L 350.259374 272.284019 
L 351.125163 271.100464 
L 352.85674 271.100464 
L 353.722528 269.224573 
L 354.588317 269.176471 
L 355.454105 270.561142 
L 356.319894 270.561142 
L 357.185682 271.052362 
L 358.051471 272.928253 
L 358.917259 273.800493 
L 359.783048 273.309273 
L 360.648836 273.309273 
L 361.514625 271.371284 
L 362.380413 270.007824 
L 363.246202 269.806708 
L 364.11199 269.806708 
L 364.977778 270.990264 
L 365.843567 273.738395 
L 366.709355 274.610634 
L 367.575144 277.240959 
L 368.440932 278.424515 
L 369.306721 278.314314 
L 370.172509 279.00665 
L 371.038298 278.695334 
L 371.904086 277.511779 
L 372.769875 274.943552 
L 373.635663 274.943552 
L 374.501452 277.801883 
L 375.36724 277.801883 
L 376.233029 277.490567 
L 377.098817 277.981787 
L 377.964606 279.055142 
L 378.830394 280.931034 
L 379.696183 276.644801 
L 381.42776 257.858609 
L 382.293548 255.491498 
L 383.159337 254.571156 
L 384.025125 248.846889 
L 384.890914 245.350433 
L 387.488279 224.328542 
L 388.354068 224.328542 
L 389.219856 224.065328 
L 390.085645 229.789596 
L 390.951433 231.845391 
L 391.817222 231.354171 
L 392.68301 231.534076 
L 393.548798 230.661836 
L 394.414587 226.037814 
L 395.280375 226.037814 
L 396.146164 225.608692 
L 397.011952 226.480932 
L 397.877741 227.865603 
L 398.743529 227.063067 
L 399.609318 226.682047 
L 400.475106 217.2541 
L 401.340895 215.198304 
L 402.206683 214.014749 
L 403.072472 213.703433 
L 403.93826 214.014749 
L 404.804049 214.505969 
L 405.669837 214.194653 
L 406.535626 214.457867 
L 407.401414 214.457867 
L 408.267203 219.410365 
L 409.132991 219.081889 
L 410.864568 219.081889 
L 411.730357 218.590669 
L 412.596145 217.898333 
L 413.461934 216.022442 
L 414.327722 218.322583 
L 415.193511 225.0024 
L 416.059299 229.09683 
L 416.925088 230.771605 
L 417.790876 230.245178 
L 418.656665 235.969445 
L 419.522453 239.465901 
L 420.388242 245.453382 
L 421.25403 252.624419 
L 422.119819 267.167609 
L 423.851395 272.663871 
L 424.717184 268.123158 
L 425.582972 271.563625 
L 426.448761 271.76474 
L 427.314549 269.708945 
L 428.180338 269.708945 
L 429.046126 274.021651 
L 429.911915 273.530431 
L 430.777703 280.210248 
L 431.643492 279.517913 
L 432.50928 279.517913 
L 433.375069 280.320449 
L 434.240857 281.885024 
L 435.106646 288.564841 
L 435.972434 290.620636 
L 436.838223 290.620636 
L 437.704011 290.931952 
L 438.5698 290.931952 
L 439.435588 290.440732 
L 440.301377 288.003917 
L 441.167165 287.740703 
L 442.032954 287.740703 
L 442.898742 277.835706 
L 443.764531 277.672963 
L 445.496108 277.672963 
L 446.361896 277.361647 
L 447.227685 272.246405 
L 448.093473 266.258924 
L 448.959262 270.638599 
L 449.82505 270.638599 
L 450.690839 268.420061 
L 451.556627 269.112397 
L 452.422416 270.559166 
L 453.288204 277.238983 
L 454.153992 277.238983 
L 455.019781 284.41002 
L 455.885569 284.41002 
L 456.751358 276.546648 
L 457.617146 274.289737 
L 458.482935 277.840403 
L 459.348723 276.656848 
L 460.214512 271.160586 
L 461.0803 263.096098 
L 461.946089 263.096098 
L 462.811877 262.715078 
L 463.677666 261.220207 
L 464.543454 255.723945 
L 465.409243 247.469235 
L 466.275031 246.978016 
L 467.14082 246.978016 
L 468.006608 248.161571 
L 468.872397 248.161571 
L 469.738185 252.03537 
L 470.603974 254.402481 
L 471.469762 254.565224 
L 473.201339 259.234183 
L 474.067128 260.237835 
L 475.798705 265.298865 
L 476.664493 263.887304 
L 477.530282 269.220822 
L 478.39607 269.220822 
L 479.261859 270.404378 
L 480.127647 270.895597 
L 480.993436 271.56146 
L 481.859224 277.860257 
L 482.725013 285.412314 
L 483.590801 284.092084 
L 484.456589 283.760561 
L 485.322378 289.927947 
L 486.188166 292.364762 
L 487.053955 294.157343 
L 487.919743 291.504098 
L 488.785532 293.37999 
L 489.65132 287.392508 
L 490.517109 289.268399 
L 491.382897 289.672035 
L 492.248686 289.180815 
L 493.114474 282.882018 
L 493.980263 285.086386 
L 494.846051 284.214146 
L 495.71184 294.562436 
L 496.577628 294.299222 
L 497.443417 294.680242 
L 498.309205 296.175113 
L 499.174994 305.945708 
L 500.040782 311.154577 
L 500.906571 312.338133 
L 501.772359 312.966026 
L 502.638148 313.152485 
L 503.503936 313.152485 
L 504.369725 314.819885 
L 505.235513 312.943994 
L 506.101302 312.781251 
L 506.96709 308.454939 
L 507.832879 307.371854 
L 508.698667 309.738965 
L 509.564456 310.510734 
L 510.430244 305.914033 
L 511.296033 307.900124 
L 512.161821 309.045307 
L 513.02761 309.917547 
L 513.893398 308.352971 
L 514.759186 309.874316 
L 515.624975 311.753761 
L 516.490763 310.570205 
L 517.356552 309.00563 
L 518.22234 308.313295 
L 519.088129 308.644818 
L 519.953917 309.648469 
L 520.819706 306.830634 
L 521.685494 307.035961 
L 522.551283 305.499988 
L 523.417071 303.624097 
L 524.28286 303.28145 
L 525.148648 301.405559 
L 526.014437 304.283436 
L 526.880225 305.466992 
L 527.746014 305.778307 
L 528.611802 303.573939 
L 529.477591 305.83085 
L 530.343379 303.345933 
L 531.209168 303.609147 
L 532.940745 303.609147 
L 533.806533 298.642478 
L 534.672322 295.008502 
L 535.53811 295.008502 
L 536.403899 294.232035 
L 537.269687 292.862021 
L 538.135476 292.481001 
L 539.001264 286.939803 
L 539.867053 286.448583 
L 540.732841 285.265027 
L 541.59863 286.649698 
L 542.464418 283.901568 
L 543.330207 280.039585 
L 544.195995 279.495822 
L 545.061783 283.084861 
L 545.927572 281.817996 
L 546.79336 279.599458 
L 547.659149 278.727218 
L 548.524937 278.415903 
L 549.390726 278.459133 
L 550.256514 274.349251 
L 551.122303 274.349251 
L 551.988091 275.422606 
L 552.85388 276.114942 
L 553.719668 276.114942 
L 554.585457 274.931386 
L 555.451245 274.128851 
L 556.317034 272.130943 
L 557.182822 267.627779 
L 558.048611 269.01245 
L 558.914399 269.127091 
L 559.780188 267.680321 
L 560.645976 263.215252 
L 561.511765 262.031697 
L 562.377553 261.720381 
L 563.243342 263.131943 
L 564.10913 259.608167 
L 564.974919 257.241056 
L 565.840707 258.687825 
L 566.706496 259.691476 
L 567.572284 259.691476 
L 568.438073 260.875032 
L 569.303861 260.875032 
L 570.16965 261.186348 
L 571.035438 261.33492 
L 571.901227 261.33492 
L 572.767015 262.58818 
L 574.498592 262.58818 
L 575.36438 262.816186 
L 576.230169 263.307406 
L 577.095957 264.227748 
L 577.961746 264.718968 
L 578.827534 264.718968 
L 579.693323 262.002168 
L 580.559111 261.510948 
L 581.4249 262.203284 
L 582.290688 261.628754 
L 583.156477 261.693196 
L 584.022265 259.637401 
L 584.888054 261.513292 
L 585.753842 263.077867 
L 586.619631 262.004512 
L 588.351208 260.619841 
L 589.216996 262.675636 
L 590.082785 263.859192 
L 590.948573 263.859192 
L 591.814362 265.380536 
L 592.68015 263.995865 
L 593.545939 264.223871 
L 594.411727 264.978305 
L 595.277516 266.161861 
L 597.009093 266.161861 
L 597.874881 265.442634 
L 598.74067 267.270424 
L 599.606458 269.637535 
L 600.472247 268.190765 
L 601.338035 268.370669 
L 602.203824 267.678334 
L 603.069612 267.678334 
L 603.935401 266.494778 
L 604.801189 266.183462 
L 605.666977 266.183462 
L 606.532766 265.692243 
L 607.398554 262.680898 
L 608.264343 262.369582 
L 609.130131 261.414033 
L 609.99592 261.497342 
L 610.861708 263.373234 
L 611.727497 263.373234 
L 613.459074 262.611194 
L 614.324862 264.978305 
L 615.190651 266.161861 
L 616.056439 266.93363 
L 617.788016 268.136053 
L 619.519593 268.136053 
L 620.385382 267.527027 
L 621.25117 268.710582 
L 622.116959 268.710582 
L 622.982747 269.402918 
L 623.848536 266.772593 
L 624.714324 264.896702 
L 625.580113 265.097818 
L 626.445901 266.772593 
L 627.31169 266.772593 
L 628.177478 265.970057 
L 629.043267 267.845948 
L 629.909055 266.973709 
L 630.774844 266.973709 
L 632.506421 264.716798 
L 633.372209 265.983663 
L 634.237997 265.983663 
L 635.103786 264.800108 
L 635.969574 264.800108 
L 636.835363 267.859554 
L 637.701151 267.859554 
L 638.56694 267.250528 
L 639.432728 265.930299 
L 640.298517 267.377068 
L 641.164305 267.868288 
L 642.030094 271.190949 
L 642.895882 271.502265 
L 644.627459 273.330054 
L 645.493248 273.627764 
L 646.359036 273.246744 
L 647.224825 273.627764 
L 648.090613 274.500003 
L 648.956402 272.935428 
L 649.82219 272.935428 
L 650.687979 272.163659 
L 651.553767 274.731886 
L 654.151133 274.731886 
L 655.016921 273.776336 
L 655.88271 274.267556 
L 656.748498 274.267556 
L 657.614287 272.820787 
L 658.480075 273.395317 
L 659.345864 273.706632 
L 660.211652 273.505517 
L 661.077441 272.321961 
L 661.943229 272.321961 
L 662.809018 273.124497 
L 663.674806 270.93729 
L 664.540594 271.80953 
L 665.406383 271.42851 
L 666.272171 272.231046 
L 667.13796 271.117194 
L 668.003748 269.670425 
L 668.869537 269.670425 
L 669.735325 270.85398 
L 670.601114 269.670425 
L 671.466902 268.750083 
L 672.332691 268.750083 
L 673.198479 267.102198 
L 674.064268 270.298319 
L 674.930056 268.851549 
L 675.795845 268.851549 
L 677.527422 266.484438 
L 678.39321 266.484438 
L 679.258999 265.528889 
L 680.124787 264.047623 
L 680.990576 267.751303 
L 681.856364 268.325833 
L 682.722153 267.834613 
L 683.587941 268.215633 
L 684.45373 269.973718 
L 685.319518 269.973718 
L 686.185307 269.13281 
L 687.916884 269.13281 
L 688.782672 268.26057 
L 689.648461 268.26057 
L 690.514249 266.585794 
L 691.380038 265.402239 
L 692.245826 266.849008 
L 693.111615 264.37838 
L 693.977403 265.942955 
L 694.843191 264.7594 
L 695.70898 264.7594 
L 696.574768 266.898505 
L 697.440557 266.898505 
L 698.306345 267.902156 
L 699.172134 267.902156 
L 700.903711 268.664196 
L 701.769499 270.159067 
L 702.635288 270.650287 
L 703.501076 272.214862 
L 704.366865 273.398418 
L 705.232653 273.398418 
L 706.098442 270.768093 
L 706.96423 270.768093 
L 707.830019 274.208559 
L 708.695807 272.332668 
L 709.561596 273.135204 
L 710.427384 274.31876 
L 711.293173 274.31876 
L 712.158961 275.993535 
L 713.02475 276.484755 
L 713.890538 276.534251 
L 714.756327 275.841916 
L 715.622115 272.519255 
L 717.353692 273.820617 
L 718.219481 274.512952 
L 719.085269 273.758519 
L 719.951058 274.942074 
L 720.816846 272.0312 
L 722.548423 272.0312 
L 723.414212 272.90344 
L 724.28 272.90344 
L 724.28 272.90344 
" style="fill:none;stroke:#d62728;stroke-linecap:square;stroke-width:1.5;"/>
   </g>
   <g id="patch_3">
    <path d="M 32.515 404.12 
L 32.515 26.52 
" style="fill:none;stroke:#000000;stroke-linecap:square;stroke-linejoin:miter;stroke-width:0.8;"/>
   </g>
   <g id="patch_4">
    <path d="M 724.28 404.12 
L 724.28 26.52 
" style="fill:none;stroke:#000000;stroke-linecap:square;stroke-linejoin:miter;stroke-width:0.8;"/>
   </g>
   <g id="patch_5">
    <path d="M 32.515 404.12 
L 724.28 404.12 
" style="fill:none;stroke:#000000;stroke-linecap:square;stroke-linejoin:miter;stroke-width:0.8;"/>
   </g>
   <g id="patch_6">
    <path d="M 32.515 26.52 
L 724.28 26.52 
" style="fill:none;stroke:#000000;stroke-linecap:square;stroke-linejoin:miter;stroke-width:0.8;"/>
   </g>
   <g id="text_14">
    <!-- gridworld_5x5_50_4_4_1337__4-8: episode duration in steps log-relative to `htm_4_1g`, MA=40 -->
    <defs>
     <path d="M 45.40625 27.984375 
Q 45.40625 37.75 41.375 43.109375 
Q 37.359375 48.484375 30.078125 48.484375 
Q 22.859375 48.484375 18.828125 43.109375 
Q 14.796875 37.75 14.796875 27.984375 
Q 14.796875 18.265625 18.828125 12.890625 
Q 22.859375 7.515625 30.078125 7.515625 
Q 37.359375 7.515625 41.375 12.890625 
Q 45.40625 18.265625 45.40625 27.984375 
z
M 54.390625 6.78125 
Q 54.390625 -7.171875 48.1875 -13.984375 
Q 42 -20.796875 29.203125 -20.796875 
Q 24.46875 -20.796875 20.265625 -20.09375 
Q 16.0625 -19.390625 12.109375 -17.921875 
L 12.109375 -9.1875 
Q 16.0625 -11.328125 19.921875 -12.34375 
Q 23.78125 -13.375 27.78125 -13.375 
Q 36.625 -13.375 41.015625 -8.765625 
Q 45.40625 -4.15625 45.40625 5.171875 
L 45.40625 9.625 
Q 42.625 4.78125 38.28125 2.390625 
Q 33.9375 0 27.875 0 
Q 17.828125 0 11.671875 7.65625 
Q 5.515625 15.328125 5.515625 27.984375 
Q 5.515625 40.671875 11.671875 48.328125 
Q 17.828125 56 27.875 56 
Q 33.9375 56 38.28125 53.609375 
Q 42.625 51.21875 45.40625 46.390625 
L 45.40625 54.6875 
L 54.390625 54.6875 
z
" id="DejaVuSans-103"/>
     <path d="M 41.109375 46.296875 
Q 39.59375 47.171875 37.8125 47.578125 
Q 36.03125 48 33.890625 48 
Q 26.265625 48 22.1875 43.046875 
Q 18.109375 38.09375 18.109375 28.8125 
L 18.109375 0 
L 9.078125 0 
L 9.078125 54.6875 
L 18.109375 54.6875 
L 18.109375 46.1875 
Q 20.953125 51.171875 25.484375 53.578125 
Q 30.03125 56 36.53125 56 
Q 37.453125 56 38.578125 55.875 
Q 39.703125 55.765625 41.0625 55.515625 
z
" id="DejaVuSans-114"/>
     <path d="M 9.421875 54.6875 
L 18.40625 54.6875 
L 18.40625 0 
L 9.421875 0 
z
M 9.421875 75.984375 
L 18.40625 75.984375 
L 18.40625 64.59375 
L 9.421875 64.59375 
z
" id="DejaVuSans-105"/>
     <path d="M 45.40625 46.390625 
L 45.40625 75.984375 
L 54.390625 75.984375 
L 54.390625 0 
L 45.40625 0 
L 45.40625 8.203125 
Q 42.578125 3.328125 38.25 0.953125 
Q 33.9375 -1.421875 27.875 -1.421875 
Q 17.96875 -1.421875 11.734375 6.484375 
Q 5.515625 14.40625 5.515625 27.296875 
Q 5.515625 40.1875 11.734375 48.09375 
Q 17.96875 56 27.875 56 
Q 33.9375 56 38.25 53.625 
Q 42.578125 51.265625 45.40625 46.390625 
z
M 14.796875 27.296875 
Q 14.796875 17.390625 18.875 11.75 
Q 22.953125 6.109375 30.078125 6.109375 
Q 37.203125 6.109375 41.296875 11.75 
Q 45.40625 17.390625 45.40625 27.296875 
Q 45.40625 37.203125 41.296875 42.84375 
Q 37.203125 48.484375 30.078125 48.484375 
Q 22.953125 48.484375 18.875 42.84375 
Q 14.796875 37.203125 14.796875 27.296875 
z
" id="DejaVuSans-100"/>
     <path d="M 4.203125 54.6875 
L 13.1875 54.6875 
L 24.421875 12.015625 
L 35.59375 54.6875 
L 46.1875 54.6875 
L 57.421875 12.015625 
L 68.609375 54.6875 
L 77.59375 54.6875 
L 63.28125 0 
L 52.6875 0 
L 40.921875 44.828125 
L 29.109375 0 
L 18.5 0 
z
" id="DejaVuSans-119"/>
     <path d="M 30.609375 48.390625 
Q 23.390625 48.390625 19.1875 42.75 
Q 14.984375 37.109375 14.984375 27.296875 
Q 14.984375 17.484375 19.15625 11.84375 
Q 23.34375 6.203125 30.609375 6.203125 
Q 37.796875 6.203125 41.984375 11.859375 
Q 46.1875 17.53125 46.1875 27.296875 
Q 46.1875 37.015625 41.984375 42.703125 
Q 37.796875 48.390625 30.609375 48.390625 
z
M 30.609375 56 
Q 42.328125 56 49.015625 48.375 
Q 55.71875 40.765625 55.71875 27.296875 
Q 55.71875 13.875 49.015625 6.21875 
Q 42.328125 -1.421875 30.609375 -1.421875 
Q 18.84375 -1.421875 12.171875 6.21875 
Q 5.515625 13.875 5.515625 27.296875 
Q 5.515625 40.765625 12.171875 48.375 
Q 18.84375 56 30.609375 56 
z
" id="DejaVuSans-111"/>
     <path d="M 9.421875 75.984375 
L 18.40625 75.984375 
L 18.40625 0 
L 9.421875 0 
z
" id="DejaVuSans-108"/>
     <path d="M 50.984375 -16.609375 
L 50.984375 -23.578125 
L -0.984375 -23.578125 
L -0.984375 -16.609375 
z
" id="DejaVuSans-95"/>
     <path d="M 54.890625 54.6875 
L 35.109375 28.078125 
L 55.90625 0 
L 45.3125 0 
L 29.390625 21.484375 
L 13.484375 0 
L 2.875 0 
L 24.125 28.609375 
L 4.6875 54.6875 
L 15.28125 54.6875 
L 29.78125 35.203125 
L 44.28125 54.6875 
z
" id="DejaVuSans-120"/>
     <path d="M 4.890625 31.390625 
L 31.203125 31.390625 
L 31.203125 23.390625 
L 4.890625 23.390625 
z
" id="DejaVuSans-45"/>
     <path d="M 31.78125 34.625 
Q 24.75 34.625 20.71875 30.859375 
Q 16.703125 27.09375 16.703125 20.515625 
Q 16.703125 13.921875 20.71875 10.15625 
Q 24.75 6.390625 31.78125 6.390625 
Q 38.8125 6.390625 42.859375 10.171875 
Q 46.921875 13.96875 46.921875 20.515625 
Q 46.921875 27.09375 42.890625 30.859375 
Q 38.875 34.625 31.78125 34.625 
z
M 21.921875 38.8125 
Q 15.578125 40.375 12.03125 44.71875 
Q 8.5 49.078125 8.5 55.328125 
Q 8.5 64.0625 14.71875 69.140625 
Q 20.953125 74.21875 31.78125 74.21875 
Q 42.671875 74.21875 48.875 69.140625 
Q 55.078125 64.0625 55.078125 55.328125 
Q 55.078125 49.078125 51.53125 44.71875 
Q 48 40.375 41.703125 38.8125 
Q 48.828125 37.15625 52.796875 32.3125 
Q 56.78125 27.484375 56.78125 20.515625 
Q 56.78125 9.90625 50.3125 4.234375 
Q 43.84375 -1.421875 31.78125 -1.421875 
Q 19.734375 -1.421875 13.25 4.234375 
Q 6.78125 9.90625 6.78125 20.515625 
Q 6.78125 27.484375 10.78125 32.3125 
Q 14.796875 37.15625 21.921875 38.8125 
z
M 18.3125 54.390625 
Q 18.3125 48.734375 21.84375 45.5625 
Q 25.390625 42.390625 31.78125 42.390625 
Q 38.140625 42.390625 41.71875 45.5625 
Q 45.3125 48.734375 45.3125 54.390625 
Q 45.3125 60.0625 41.71875 63.234375 
Q 38.140625 66.40625 31.78125 66.40625 
Q 25.390625 66.40625 21.84375 63.234375 
Q 18.3125 60.0625 18.3125 54.390625 
z
" id="DejaVuSans-56"/>
     <path d="M 11.71875 12.40625 
L 22.015625 12.40625 
L 22.015625 0 
L 11.71875 0 
z
M 11.71875 51.703125 
L 22.015625 51.703125 
L 22.015625 39.3125 
L 11.71875 39.3125 
z
" id="DejaVuSans-58"/>
     <path id="DejaVuSans-32"/>
     <path d="M 56.203125 29.59375 
L 56.203125 25.203125 
L 14.890625 25.203125 
Q 15.484375 15.921875 20.484375 11.0625 
Q 25.484375 6.203125 34.421875 6.203125 
Q 39.59375 6.203125 44.453125 7.46875 
Q 49.3125 8.734375 54.109375 11.28125 
L 54.109375 2.78125 
Q 49.265625 0.734375 44.1875 -0.34375 
Q 39.109375 -1.421875 33.890625 -1.421875 
Q 20.796875 -1.421875 13.15625 6.1875 
Q 5.515625 13.8125 5.515625 26.8125 
Q 5.515625 40.234375 12.765625 48.109375 
Q 20.015625 56 32.328125 56 
Q 43.359375 56 49.78125 48.890625 
Q 56.203125 41.796875 56.203125 29.59375 
z
M 47.21875 32.234375 
Q 47.125 39.59375 43.09375 43.984375 
Q 39.0625 48.390625 32.421875 48.390625 
Q 24.90625 48.390625 20.390625 44.140625 
Q 15.875 39.890625 15.1875 32.171875 
z
" id="DejaVuSans-101"/>
     <path d="M 18.109375 8.203125 
L 18.109375 -20.796875 
L 9.078125 -20.796875 
L 9.078125 54.6875 
L 18.109375 54.6875 
L 18.109375 46.390625 
Q 20.953125 51.265625 25.265625 53.625 
Q 29.59375 56 35.59375 56 
Q 45.5625 56 51.78125 48.09375 
Q 58.015625 40.1875 58.015625 27.296875 
Q 58.015625 14.40625 51.78125 6.484375 
Q 45.5625 -1.421875 35.59375 -1.421875 
Q 29.59375 -1.421875 25.265625 0.953125 
Q 20.953125 3.328125 18.109375 8.203125 
z
M 48.6875 27.296875 
Q 48.6875 37.203125 44.609375 42.84375 
Q 40.53125 48.484375 33.40625 48.484375 
Q 26.265625 48.484375 22.1875 42.84375 
Q 18.109375 37.203125 18.109375 27.296875 
Q 18.109375 17.390625 22.1875 11.75 
Q 26.265625 6.109375 33.40625 6.109375 
Q 40.53125 6.109375 44.609375 11.75 
Q 48.6875 17.390625 48.6875 27.296875 
z
" id="DejaVuSans-112"/>
     <path d="M 44.28125 53.078125 
L 44.28125 44.578125 
Q 40.484375 46.53125 36.375 47.5 
Q 32.28125 48.484375 27.875 48.484375 
Q 21.1875 48.484375 17.84375 46.4375 
Q 14.5 44.390625 14.5 40.28125 
Q 14.5 37.15625 16.890625 35.375 
Q 19.28125 33.59375 26.515625 31.984375 
L 29.59375 31.296875 
Q 39.15625 29.25 43.1875 25.515625 
Q 47.21875 21.78125 47.21875 15.09375 
Q 47.21875 7.46875 41.1875 3.015625 
Q 35.15625 -1.421875 24.609375 -1.421875 
Q 20.21875 -1.421875 15.453125 -0.5625 
Q 10.6875 0.296875 5.421875 2 
L 5.421875 11.28125 
Q 10.40625 8.6875 15.234375 7.390625 
Q 20.0625 6.109375 24.8125 6.109375 
Q 31.15625 6.109375 34.5625 8.28125 
Q 37.984375 10.453125 37.984375 14.40625 
Q 37.984375 18.0625 35.515625 20.015625 
Q 33.0625 21.96875 24.703125 23.78125 
L 21.578125 24.515625 
Q 13.234375 26.265625 9.515625 29.90625 
Q 5.8125 33.546875 5.8125 39.890625 
Q 5.8125 47.609375 11.28125 51.796875 
Q 16.75 56 26.8125 56 
Q 31.78125 56 36.171875 55.265625 
Q 40.578125 54.546875 44.28125 53.078125 
z
" id="DejaVuSans-115"/>
     <path d="M 8.5 21.578125 
L 8.5 54.6875 
L 17.484375 54.6875 
L 17.484375 21.921875 
Q 17.484375 14.15625 20.5 10.265625 
Q 23.53125 6.390625 29.59375 6.390625 
Q 36.859375 6.390625 41.078125 11.03125 
Q 45.3125 15.671875 45.3125 23.6875 
L 45.3125 54.6875 
L 54.296875 54.6875 
L 54.296875 0 
L 45.3125 0 
L 45.3125 8.40625 
Q 42.046875 3.421875 37.71875 1 
Q 33.40625 -1.421875 27.6875 -1.421875 
Q 18.265625 -1.421875 13.375 4.4375 
Q 8.5 10.296875 8.5 21.578125 
z
M 31.109375 56 
z
" id="DejaVuSans-117"/>
     <path d="M 34.28125 27.484375 
Q 23.390625 27.484375 19.1875 25 
Q 14.984375 22.515625 14.984375 16.5 
Q 14.984375 11.71875 18.140625 8.90625 
Q 21.296875 6.109375 26.703125 6.109375 
Q 34.1875 6.109375 38.703125 11.40625 
Q 43.21875 16.703125 43.21875 25.484375 
L 43.21875 27.484375 
z
M 52.203125 31.203125 
L 52.203125 0 
L 43.21875 0 
L 43.21875 8.296875 
Q 40.140625 3.328125 35.546875 0.953125 
Q 30.953125 -1.421875 24.3125 -1.421875 
Q 15.921875 -1.421875 10.953125 3.296875 
Q 6 8.015625 6 15.921875 
Q 6 25.140625 12.171875 29.828125 
Q 18.359375 34.515625 30.609375 34.515625 
L 43.21875 34.515625 
L 43.21875 35.40625 
Q 43.21875 41.609375 39.140625 45 
Q 35.0625 48.390625 27.6875 48.390625 
Q 23 48.390625 18.546875 47.265625 
Q 14.109375 46.140625 10.015625 43.890625 
L 10.015625 52.203125 
Q 14.9375 54.109375 19.578125 55.046875 
Q 24.21875 56 28.609375 56 
Q 40.484375 56 46.34375 49.84375 
Q 52.203125 43.703125 52.203125 31.203125 
z
" id="DejaVuSans-97"/>
     <path d="M 18.3125 70.21875 
L 18.3125 54.6875 
L 36.8125 54.6875 
L 36.8125 47.703125 
L 18.3125 47.703125 
L 18.3125 18.015625 
Q 18.3125 11.328125 20.140625 9.421875 
Q 21.96875 7.515625 27.59375 7.515625 
L 36.8125 7.515625 
L 36.8125 0 
L 27.59375 0 
Q 17.1875 0 13.234375 3.875 
Q 9.28125 7.765625 9.28125 18.015625 
L 9.28125 47.703125 
L 2.6875 47.703125 
L 2.6875 54.6875 
L 9.28125 54.6875 
L 9.28125 70.21875 
z
" id="DejaVuSans-116"/>
     <path d="M 54.890625 33.015625 
L 54.890625 0 
L 45.90625 0 
L 45.90625 32.71875 
Q 45.90625 40.484375 42.875 44.328125 
Q 39.84375 48.1875 33.796875 48.1875 
Q 26.515625 48.1875 22.3125 43.546875 
Q 18.109375 38.921875 18.109375 30.90625 
L 18.109375 0 
L 9.078125 0 
L 9.078125 54.6875 
L 18.109375 54.6875 
L 18.109375 46.1875 
Q 21.34375 51.125 25.703125 53.5625 
Q 30.078125 56 35.796875 56 
Q 45.21875 56 50.046875 50.171875 
Q 54.890625 44.34375 54.890625 33.015625 
z
" id="DejaVuSans-110"/>
     <path d="M 2.984375 54.6875 
L 12.5 54.6875 
L 29.59375 8.796875 
L 46.6875 54.6875 
L 56.203125 54.6875 
L 35.6875 0 
L 23.484375 0 
z
" id="DejaVuSans-118"/>
     <path d="M 17.921875 79.984375 
L 31.6875 61.71875 
L 24.21875 61.71875 
L 8.296875 79.984375 
z
" id="DejaVuSans-96"/>
     <path d="M 54.890625 33.015625 
L 54.890625 0 
L 45.90625 0 
L 45.90625 32.71875 
Q 45.90625 40.484375 42.875 44.328125 
Q 39.84375 48.1875 33.796875 48.1875 
Q 26.515625 48.1875 22.3125 43.546875 
Q 18.109375 38.921875 18.109375 30.90625 
L 18.109375 0 
L 9.078125 0 
L 9.078125 75.984375 
L 18.109375 75.984375 
L 18.109375 46.1875 
Q 21.34375 51.125 25.703125 53.5625 
Q 30.078125 56 35.796875 56 
Q 45.21875 56 50.046875 50.171875 
Q 54.890625 44.34375 54.890625 33.015625 
z
" id="DejaVuSans-104"/>
     <path d="M 52 44.1875 
Q 55.375 50.25 60.0625 53.125 
Q 64.75 56 71.09375 56 
Q 79.640625 56 84.28125 50.015625 
Q 88.921875 44.046875 88.921875 33.015625 
L 88.921875 0 
L 79.890625 0 
L 79.890625 32.71875 
Q 79.890625 40.578125 77.09375 44.375 
Q 74.3125 48.1875 68.609375 48.1875 
Q 61.625 48.1875 57.5625 43.546875 
Q 53.515625 38.921875 53.515625 30.90625 
L 53.515625 0 
L 44.484375 0 
L 44.484375 32.71875 
Q 44.484375 40.625 41.703125 44.40625 
Q 38.921875 48.1875 33.109375 48.1875 
Q 26.21875 48.1875 22.15625 43.53125 
Q 18.109375 38.875 18.109375 30.90625 
L 18.109375 0 
L 9.078125 0 
L 9.078125 54.6875 
L 18.109375 54.6875 
L 18.109375 46.1875 
Q 21.1875 51.21875 25.484375 53.609375 
Q 29.78125 56 35.6875 56 
Q 41.65625 56 45.828125 52.96875 
Q 50 49.953125 52 44.1875 
z
" id="DejaVuSans-109"/>
     <path d="M 11.71875 12.40625 
L 22.015625 12.40625 
L 22.015625 4 
L 14.015625 -11.625 
L 7.71875 -11.625 
L 11.71875 4 
z
" id="DejaVuSans-44"/>
     <path d="M 9.8125 72.90625 
L 24.515625 72.90625 
L 43.109375 23.296875 
L 61.8125 72.90625 
L 76.515625 72.90625 
L 76.515625 0 
L 66.890625 0 
L 66.890625 64.015625 
L 48.09375 14.015625 
L 38.1875 14.015625 
L 19.390625 64.015625 
L 19.390625 0 
L 9.8125 0 
z
" id="DejaVuSans-77"/>
     <path d="M 34.1875 63.1875 
L 20.796875 26.90625 
L 47.609375 26.90625 
z
M 28.609375 72.90625 
L 39.796875 72.90625 
L 67.578125 0 
L 57.328125 0 
L 50.6875 18.703125 
L 17.828125 18.703125 
L 11.1875 0 
L 0.78125 0 
z
" id="DejaVuSans-65"/>
     <path d="M 10.59375 45.40625 
L 73.1875 45.40625 
L 73.1875 37.203125 
L 10.59375 37.203125 
z
M 10.59375 25.484375 
L 73.1875 25.484375 
L 73.1875 17.1875 
L 10.59375 17.1875 
z
" id="DejaVuSans-61"/>
    </defs>
    <g transform="translate(90.644062 20.52)scale(0.12 -0.12)">
     <use xlink:href="#DejaVuSans-103"/>
     <use x="63.476562" xlink:href="#DejaVuSans-114"/>
     <use x="104.589844" xlink:href="#DejaVuSans-105"/>
     <use x="132.373047" xlink:href="#DejaVuSans-100"/>
     <use x="195.849609" xlink:href="#DejaVuSans-119"/>
     <use x="277.636719" xlink:href="#DejaVuSans-111"/>
     <use x="338.818359" xlink:href="#DejaVuSans-114"/>
     <use x="379.931641" xlink:href="#DejaVuSans-108"/>
     <use x="407.714844" xlink:href="#DejaVuSans-100"/>
     <use x="471.191406" xlink:href="#DejaVuSans-95"/>
     <use x="521.191406" xlink:href="#DejaVuSans-53"/>
     <use x="584.814453" xlink:href="#DejaVuSans-120"/>
     <use x="643.994141" xlink:href="#DejaVuSans-53"/>
     <use x="707.617188" xlink:href="#DejaVuSans-95"/>
     <use x="757.617188" xlink:href="#DejaVuSans-53"/>
     <use x="821.240234" xlink:href="#DejaVuSans-48"/>
     <use x="884.863281" xlink:href="#DejaVuSans-95"/>
     <use x="934.863281" xlink:href="#DejaVuSans-52"/>
     <use x="998.486328" xlink:href="#DejaVuSans-95"/>
     <use x="1048.486328" xlink:href="#DejaVuSans-52"/>
     <use x="1112.109375" xlink:href="#DejaVuSans-95"/>
     <use x="1162.109375" xlink:href="#DejaVuSans-49"/>
     <use x="1225.732422" xlink:href="#DejaVuSans-51"/>
     <use x="1289.355469" xlink:href="#DejaVuSans-51"/>
     <use x="1352.978516" xlink:href="#DejaVuSans-55"/>
     <use x="1416.601562" xlink:href="#DejaVuSans-95"/>
     <use x="1466.601562" xlink:href="#DejaVuSans-95"/>
     <use x="1516.601562" xlink:href="#DejaVuSans-52"/>
     <use x="1580.224609" xlink:href="#DejaVuSans-45"/>
     <use x="1616.308594" xlink:href="#DejaVuSans-56"/>
     <use x="1679.931641" xlink:href="#DejaVuSans-58"/>
     <use x="1713.623047" xlink:href="#DejaVuSans-32"/>
     <use x="1745.410156" xlink:href="#DejaVuSans-101"/>
     <use x="1806.933594" xlink:href="#DejaVuSans-112"/>
     <use x="1870.410156" xlink:href="#DejaVuSans-105"/>
     <use x="1898.193359" xlink:href="#DejaVuSans-115"/>
     <use x="1950.292969" xlink:href="#DejaVuSans-111"/>
     <use x="2011.474609" xlink:href="#DejaVuSans-100"/>
     <use x="2074.951172" xlink:href="#DejaVuSans-101"/>
     <use x="2136.474609" xlink:href="#DejaVuSans-32"/>
     <use x="2168.261719" xlink:href="#DejaVuSans-100"/>
     <use x="2231.738281" xlink:href="#DejaVuSans-117"/>
     <use x="2295.117188" xlink:href="#DejaVuSans-114"/>
     <use x="2336.230469" xlink:href="#DejaVuSans-97"/>
     <use x="2397.509766" xlink:href="#DejaVuSans-116"/>
     <use x="2436.71875" xlink:href="#DejaVuSans-105"/>
     <use x="2464.501953" xlink:href="#DejaVuSans-111"/>
     <use x="2525.683594" xlink:href="#DejaVuSans-110"/>
     <use x="2589.0625" xlink:href="#DejaVuSans-32"/>
     <use x="2620.849609" xlink:href="#DejaVuSans-105"/>
     <use x="2648.632812" xlink:href="#DejaVuSans-110"/>
     <use x="2712.011719" xlink:href="#DejaVuSans-32"/>
     <use x="2743.798828" xlink:href="#DejaVuSans-115"/>
     <use x="2795.898438" xlink:href="#DejaVuSans-116"/>
     <use x="2835.107422" xlink:href="#DejaVuSans-101"/>
     <use x="2896.630859" xlink:href="#DejaVuSans-112"/>
     <use x="2960.107422" xlink:href="#DejaVuSans-115"/>
     <use x="3012.207031" xlink:href="#DejaVuSans-32"/>
     <use x="3043.994141" xlink:href="#DejaVuSans-108"/>
     <use x="3071.777344" xlink:href="#DejaVuSans-111"/>
     <use x="3132.958984" xlink:href="#DejaVuSans-103"/>
     <use x="3196.435547" xlink:href="#DejaVuSans-45"/>
     <use x="3232.519531" xlink:href="#DejaVuSans-114"/>
     <use x="3273.601562" xlink:href="#DejaVuSans-101"/>
     <use x="3335.125" xlink:href="#DejaVuSans-108"/>
     <use x="3362.908203" xlink:href="#DejaVuSans-97"/>
     <use x="3424.1875" xlink:href="#DejaVuSans-116"/>
     <use x="3463.396484" xlink:href="#DejaVuSans-105"/>
     <use x="3491.179688" xlink:href="#DejaVuSans-118"/>
     <use x="3550.359375" xlink:href="#DejaVuSans-101"/>
     <use x="3611.882812" xlink:href="#DejaVuSans-32"/>
     <use x="3643.669922" xlink:href="#DejaVuSans-116"/>
     <use x="3682.878906" xlink:href="#DejaVuSans-111"/>
     <use x="3744.060547" xlink:href="#DejaVuSans-32"/>
     <use x="3775.847656" xlink:href="#DejaVuSans-96"/>
     <use x="3825.847656" xlink:href="#DejaVuSans-104"/>
     <use x="3889.226562" xlink:href="#DejaVuSans-116"/>
     <use x="3928.435547" xlink:href="#DejaVuSans-109"/>
     <use x="4025.847656" xlink:href="#DejaVuSans-95"/>
     <use x="4075.847656" xlink:href="#DejaVuSans-52"/>
     <use x="4139.470703" xlink:href="#DejaVuSans-95"/>
     <use x="4189.470703" xlink:href="#DejaVuSans-49"/>
     <use x="4253.09375" xlink:href="#DejaVuSans-103"/>
     <use x="4316.570312" xlink:href="#DejaVuSans-96"/>
     <use x="4366.570312" xlink:href="#DejaVuSans-44"/>
     <use x="4398.357422" xlink:href="#DejaVuSans-32"/>
     <use x="4430.144531" xlink:href="#DejaVuSans-77"/>
     <use x="4516.423828" xlink:href="#DejaVuSans-65"/>
     <use x="4584.832031" xlink:href="#DejaVuSans-61"/>
     <use x="4668.621094" xlink:href="#DejaVuSans-52"/>
     <use x="4732.244141" xlink:href="#DejaVuSans-48"/>
    </g>
   </g>
   <g id="legend_1">
    <g id="patch_7">
     <path d="M 774.561125 246.7325 
L 855.633 246.7325 
Q 857.633 246.7325 857.633 244.7325 
L 857.633 185.9075 
Q 857.633 183.9075 855.633 183.9075 
L 774.561125 183.9075 
Q 772.561125 183.9075 772.561125 185.9075 
L 772.561125 244.7325 
Q 772.561125 246.7325 774.561125 246.7325 
z
" style="fill:#ffffff;opacity:0.8;stroke:#cccccc;stroke-linejoin:miter;"/>
    </g>
    <g id="line2d_18">
     <path d="M 776.561125 192.005937 
L 796.561125 192.005937 
" style="fill:none;stroke:#1f77b4;stroke-linecap:square;stroke-width:1.5;"/>
    </g>
    <g id="line2d_19"/>
    <g id="text_15">
     <!-- htm_4_1g -->
     <g transform="translate(804.561125 195.505937)scale(0.1 -0.1)">
      <use xlink:href="#DejaVuSans-104"/>
      <use x="63.378906" xlink:href="#DejaVuSans-116"/>
      <use x="102.587891" xlink:href="#DejaVuSans-109"/>
      <use x="200" xlink:href="#DejaVuSans-95"/>
      <use x="250" xlink:href="#DejaVuSans-52"/>
      <use x="313.623047" xlink:href="#DejaVuSans-95"/>
      <use x="363.623047" xlink:href="#DejaVuSans-49"/>
      <use x="427.246094" xlink:href="#DejaVuSans-103"/>
     </g>
    </g>
    <g id="line2d_20">
     <path d="M 776.561125 206.962187 
L 796.561125 206.962187 
" style="fill:none;stroke:#ff7f0e;stroke-linecap:square;stroke-width:1.5;"/>
    </g>
    <g id="line2d_21"/>
    <g id="text_16">
     <!-- htm_4_4g -->
     <g transform="translate(804.561125 210.462187)scale(0.1 -0.1)">
      <use xlink:href="#DejaVuSans-104"/>
      <use x="63.378906" xlink:href="#DejaVuSans-116"/>
      <use x="102.587891" xlink:href="#DejaVuSans-109"/>
      <use x="200" xlink:href="#DejaVuSans-95"/>
      <use x="250" xlink:href="#DejaVuSans-52"/>
      <use x="313.623047" xlink:href="#DejaVuSans-95"/>
      <use x="363.623047" xlink:href="#DejaVuSans-52"/>
      <use x="427.246094" xlink:href="#DejaVuSans-103"/>
     </g>
    </g>
    <g id="line2d_22">
     <path d="M 776.561125 221.918437 
L 796.561125 221.918437 
" style="fill:none;stroke:#2ca02c;stroke-linecap:square;stroke-width:1.5;"/>
    </g>
    <g id="line2d_23"/>
    <g id="text_17">
     <!-- htm_4_8g -->
     <g transform="translate(804.561125 225.418437)scale(0.1 -0.1)">
      <use xlink:href="#DejaVuSans-104"/>
      <use x="63.378906" xlink:href="#DejaVuSans-116"/>
      <use x="102.587891" xlink:href="#DejaVuSans-109"/>
      <use x="200" xlink:href="#DejaVuSans-95"/>
      <use x="250" xlink:href="#DejaVuSans-52"/>
      <use x="313.623047" xlink:href="#DejaVuSans-95"/>
      <use x="363.623047" xlink:href="#DejaVuSans-56"/>
      <use x="427.246094" xlink:href="#DejaVuSans-103"/>
     </g>
    </g>
    <g id="line2d_24">
     <path d="M 776.561125 236.874687 
L 796.561125 236.874687 
" style="fill:none;stroke:#d62728;stroke-linecap:square;stroke-width:1.5;"/>
    </g>
    <g id="line2d_25"/>
    <g id="text_18">
     <!-- htm_8_1g -->
     <g transform="translate(804.561125 240.374687)scale(0.1 -0.1)">
      <use xlink:href="#DejaVuSans-104"/>
      <use x="63.378906" xlink:href="#DejaVuSans-116"/>
      <use x="102.587891" xlink:href="#DejaVuSans-109"/>
      <use x="200" xlink:href="#DejaVuSans-95"/>
      <use x="250" xlink:href="#DejaVuSans-56"/>
      <use x="313.623047" xlink:href="#DejaVuSans-95"/>
      <use x="363.623047" xlink:href="#DejaVuSans-49"/>
      <use x="427.246094" xlink:href="#DejaVuSans-103"/>
     </g>
    </g>
   </g>
  </g>
 </g>
 <defs>
  <clipPath id="pd637a76226">
   <rect height="377.6" width="691.765" x="32.515" y="26.52"/>
  </clipPath>
 </defs>
</svg>
