<?xml version="1.0" encoding="utf-8" standalone="no"?>
<!DOCTYPE svg PUBLIC "-//W3C//DTD SVG 1.1//EN"
  "http://www.w3.org/Graphics/SVG/1.1/DTD/svg11.dtd">
<!-- Created with matplotlib (https://matplotlib.org/) -->
<svg height="432pt" version="1.1" viewBox="0 0 864 432" width="864pt" xmlns="http://www.w3.org/2000/svg" xmlns:xlink="http://www.w3.org/1999/xlink">
 <defs>
  <style type="text/css">
*{stroke-linecap:butt;stroke-linejoin:round;}
  </style>
 </defs>
 <g id="figure_1">
  <g id="patch_1">
   <path d="M 0 432 
L 864 432 
L 864 0 
L 0 0 
z
" style="fill:#ffffff;"/>
  </g>
  <g id="axes_1">
   <g id="patch_2">
    <path d="M 36.925 404.12 
L 724.28 404.12 
L 724.28 26.16 
L 36.925 26.16 
z
" style="fill:#ffffff;"/>
   </g>
   <g id="matplotlib.axis_1">
    <g id="xtick_1">
     <g id="line2d_1">
      <defs>
       <path d="M 0 0 
L 0 3.5 
" id="m310d021921" style="stroke:#000000;stroke-width:0.8;"/>
      </defs>
      <g>
       <use style="stroke:#000000;stroke-width:0.8;" x="36.925" xlink:href="#m310d021921" y="404.12"/>
      </g>
     </g>
     <g id="text_1">
      <!-- 0 -->
      <defs>
       <path d="M 31.78125 66.40625 
Q 24.171875 66.40625 20.328125 58.90625 
Q 16.5 51.421875 16.5 36.375 
Q 16.5 21.390625 20.328125 13.890625 
Q 24.171875 6.390625 31.78125 6.390625 
Q 39.453125 6.390625 43.28125 13.890625 
Q 47.125 21.390625 47.125 36.375 
Q 47.125 51.421875 43.28125 58.90625 
Q 39.453125 66.40625 31.78125 66.40625 
z
M 31.78125 74.21875 
Q 44.046875 74.21875 50.515625 64.515625 
Q 56.984375 54.828125 56.984375 36.375 
Q 56.984375 17.96875 50.515625 8.265625 
Q 44.046875 -1.421875 31.78125 -1.421875 
Q 19.53125 -1.421875 13.0625 8.265625 
Q 6.59375 17.96875 6.59375 36.375 
Q 6.59375 54.828125 13.0625 64.515625 
Q 19.53125 74.21875 31.78125 74.21875 
z
" id="DejaVuSans-48"/>
      </defs>
      <g transform="translate(33.74375 418.718437)scale(0.1 -0.1)">
       <use xlink:href="#DejaVuSans-48"/>
      </g>
     </g>
    </g>
    <g id="xtick_2">
     <g id="line2d_2">
      <g>
       <use style="stroke:#000000;stroke-width:0.8;" x="123.059712" xlink:href="#m310d021921" y="404.12"/>
      </g>
     </g>
     <g id="text_2">
      <!-- 50 -->
      <defs>
       <path d="M 10.796875 72.90625 
L 49.515625 72.90625 
L 49.515625 64.59375 
L 19.828125 64.59375 
L 19.828125 46.734375 
Q 21.96875 47.46875 24.109375 47.828125 
Q 26.265625 48.1875 28.421875 48.1875 
Q 40.625 48.1875 47.75 41.5 
Q 54.890625 34.8125 54.890625 23.390625 
Q 54.890625 11.625 47.5625 5.09375 
Q 40.234375 -1.421875 26.90625 -1.421875 
Q 22.3125 -1.421875 17.546875 -0.640625 
Q 12.796875 0.140625 7.71875 1.703125 
L 7.71875 11.625 
Q 12.109375 9.234375 16.796875 8.0625 
Q 21.484375 6.890625 26.703125 6.890625 
Q 35.15625 6.890625 40.078125 11.328125 
Q 45.015625 15.765625 45.015625 23.390625 
Q 45.015625 31 40.078125 35.4375 
Q 35.15625 39.890625 26.703125 39.890625 
Q 22.75 39.890625 18.8125 39.015625 
Q 14.890625 38.140625 10.796875 36.28125 
z
" id="DejaVuSans-53"/>
      </defs>
      <g transform="translate(116.697212 418.718437)scale(0.1 -0.1)">
       <use xlink:href="#DejaVuSans-53"/>
       <use x="63.623047" xlink:href="#DejaVuSans-48"/>
      </g>
     </g>
    </g>
    <g id="xtick_3">
     <g id="line2d_3">
      <g>
       <use style="stroke:#000000;stroke-width:0.8;" x="209.194424" xlink:href="#m310d021921" y="404.12"/>
      </g>
     </g>
     <g id="text_3">
      <!-- 100 -->
      <defs>
       <path d="M 12.40625 8.296875 
L 28.515625 8.296875 
L 28.515625 63.921875 
L 10.984375 60.40625 
L 10.984375 69.390625 
L 28.421875 72.90625 
L 38.28125 72.90625 
L 38.28125 8.296875 
L 54.390625 8.296875 
L 54.390625 0 
L 12.40625 0 
z
" id="DejaVuSans-49"/>
      </defs>
      <g transform="translate(199.650674 418.718437)scale(0.1 -0.1)">
       <use xlink:href="#DejaVuSans-49"/>
       <use x="63.623047" xlink:href="#DejaVuSans-48"/>
       <use x="127.246094" xlink:href="#DejaVuSans-48"/>
      </g>
     </g>
    </g>
    <g id="xtick_4">
     <g id="line2d_4">
      <g>
       <use style="stroke:#000000;stroke-width:0.8;" x="295.329135" xlink:href="#m310d021921" y="404.12"/>
      </g>
     </g>
     <g id="text_4">
      <!-- 150 -->
      <g transform="translate(285.785385 418.718437)scale(0.1 -0.1)">
       <use xlink:href="#DejaVuSans-49"/>
       <use x="63.623047" xlink:href="#DejaVuSans-53"/>
       <use x="127.246094" xlink:href="#DejaVuSans-48"/>
      </g>
     </g>
    </g>
    <g id="xtick_5">
     <g id="line2d_5">
      <g>
       <use style="stroke:#000000;stroke-width:0.8;" x="381.463847" xlink:href="#m310d021921" y="404.12"/>
      </g>
     </g>
     <g id="text_5">
      <!-- 200 -->
      <defs>
       <path d="M 19.1875 8.296875 
L 53.609375 8.296875 
L 53.609375 0 
L 7.328125 0 
L 7.328125 8.296875 
Q 12.9375 14.109375 22.625 23.890625 
Q 32.328125 33.6875 34.8125 36.53125 
Q 39.546875 41.84375 41.421875 45.53125 
Q 43.3125 49.21875 43.3125 52.78125 
Q 43.3125 58.59375 39.234375 62.25 
Q 35.15625 65.921875 28.609375 65.921875 
Q 23.96875 65.921875 18.8125 64.3125 
Q 13.671875 62.703125 7.8125 59.421875 
L 7.8125 69.390625 
Q 13.765625 71.78125 18.9375 73 
Q 24.125 74.21875 28.421875 74.21875 
Q 39.75 74.21875 46.484375 68.546875 
Q 53.21875 62.890625 53.21875 53.421875 
Q 53.21875 48.921875 51.53125 44.890625 
Q 49.859375 40.875 45.40625 35.40625 
Q 44.1875 33.984375 37.640625 27.21875 
Q 31.109375 20.453125 19.1875 8.296875 
z
" id="DejaVuSans-50"/>
      </defs>
      <g transform="translate(371.920097 418.718437)scale(0.1 -0.1)">
       <use xlink:href="#DejaVuSans-50"/>
       <use x="63.623047" xlink:href="#DejaVuSans-48"/>
       <use x="127.246094" xlink:href="#DejaVuSans-48"/>
      </g>
     </g>
    </g>
    <g id="xtick_6">
     <g id="line2d_6">
      <g>
       <use style="stroke:#000000;stroke-width:0.8;" x="467.598559" xlink:href="#m310d021921" y="404.12"/>
      </g>
     </g>
     <g id="text_6">
      <!-- 250 -->
      <g transform="translate(458.054809 418.718437)scale(0.1 -0.1)">
       <use xlink:href="#DejaVuSans-50"/>
       <use x="63.623047" xlink:href="#DejaVuSans-53"/>
       <use x="127.246094" xlink:href="#DejaVuSans-48"/>
      </g>
     </g>
    </g>
    <g id="xtick_7">
     <g id="line2d_7">
      <g>
       <use style="stroke:#000000;stroke-width:0.8;" x="553.733271" xlink:href="#m310d021921" y="404.12"/>
      </g>
     </g>
     <g id="text_7">
      <!-- 300 -->
      <defs>
       <path d="M 40.578125 39.3125 
Q 47.65625 37.796875 51.625 33 
Q 55.609375 28.21875 55.609375 21.1875 
Q 55.609375 10.40625 48.1875 4.484375 
Q 40.765625 -1.421875 27.09375 -1.421875 
Q 22.515625 -1.421875 17.65625 -0.515625 
Q 12.796875 0.390625 7.625 2.203125 
L 7.625 11.71875 
Q 11.71875 9.328125 16.59375 8.109375 
Q 21.484375 6.890625 26.8125 6.890625 
Q 36.078125 6.890625 40.9375 10.546875 
Q 45.796875 14.203125 45.796875 21.1875 
Q 45.796875 27.640625 41.28125 31.265625 
Q 36.765625 34.90625 28.71875 34.90625 
L 20.21875 34.90625 
L 20.21875 43.015625 
L 29.109375 43.015625 
Q 36.375 43.015625 40.234375 45.921875 
Q 44.09375 48.828125 44.09375 54.296875 
Q 44.09375 59.90625 40.109375 62.90625 
Q 36.140625 65.921875 28.71875 65.921875 
Q 24.65625 65.921875 20.015625 65.03125 
Q 15.375 64.15625 9.8125 62.3125 
L 9.8125 71.09375 
Q 15.4375 72.65625 20.34375 73.4375 
Q 25.25 74.21875 29.59375 74.21875 
Q 40.828125 74.21875 47.359375 69.109375 
Q 53.90625 64.015625 53.90625 55.328125 
Q 53.90625 49.265625 50.4375 45.09375 
Q 46.96875 40.921875 40.578125 39.3125 
z
" id="DejaVuSans-51"/>
      </defs>
      <g transform="translate(544.189521 418.718437)scale(0.1 -0.1)">
       <use xlink:href="#DejaVuSans-51"/>
       <use x="63.623047" xlink:href="#DejaVuSans-48"/>
       <use x="127.246094" xlink:href="#DejaVuSans-48"/>
      </g>
     </g>
    </g>
    <g id="xtick_8">
     <g id="line2d_8">
      <g>
       <use style="stroke:#000000;stroke-width:0.8;" x="639.867982" xlink:href="#m310d021921" y="404.12"/>
      </g>
     </g>
     <g id="text_8">
      <!-- 350 -->
      <g transform="translate(630.324232 418.718437)scale(0.1 -0.1)">
       <use xlink:href="#DejaVuSans-51"/>
       <use x="63.623047" xlink:href="#DejaVuSans-53"/>
       <use x="127.246094" xlink:href="#DejaVuSans-48"/>
      </g>
     </g>
    </g>
   </g>
   <g id="matplotlib.axis_2">
    <g id="ytick_1">
     <g id="line2d_9">
      <defs>
       <path d="M 0 0 
L -3.5 0 
" id="m0fd0a85d89" style="stroke:#000000;stroke-width:0.8;"/>
      </defs>
      <g>
       <use style="stroke:#000000;stroke-width:0.8;" x="36.925" xlink:href="#m0fd0a85d89" y="399.506994"/>
      </g>
     </g>
     <g id="text_9">
      <!-- 0 -->
      <g transform="translate(23.5625 403.306213)scale(0.1 -0.1)">
       <use xlink:href="#DejaVuSans-48"/>
      </g>
     </g>
    </g>
    <g id="ytick_2">
     <g id="line2d_10">
      <g>
       <use style="stroke:#000000;stroke-width:0.8;" x="36.925" xlink:href="#m0fd0a85d89" y="355.719559"/>
      </g>
     </g>
     <g id="text_10">
      <!-- 25 -->
      <g transform="translate(17.2 359.518778)scale(0.1 -0.1)">
       <use xlink:href="#DejaVuSans-50"/>
       <use x="63.623047" xlink:href="#DejaVuSans-53"/>
      </g>
     </g>
    </g>
    <g id="ytick_3">
     <g id="line2d_11">
      <g>
       <use style="stroke:#000000;stroke-width:0.8;" x="36.925" xlink:href="#m0fd0a85d89" y="311.932124"/>
      </g>
     </g>
     <g id="text_11">
      <!-- 50 -->
      <g transform="translate(17.2 315.731343)scale(0.1 -0.1)">
       <use xlink:href="#DejaVuSans-53"/>
       <use x="63.623047" xlink:href="#DejaVuSans-48"/>
      </g>
     </g>
    </g>
    <g id="ytick_4">
     <g id="line2d_12">
      <g>
       <use style="stroke:#000000;stroke-width:0.8;" x="36.925" xlink:href="#m0fd0a85d89" y="268.14469"/>
      </g>
     </g>
     <g id="text_12">
      <!-- 75 -->
      <defs>
       <path d="M 8.203125 72.90625 
L 55.078125 72.90625 
L 55.078125 68.703125 
L 28.609375 0 
L 18.3125 0 
L 43.21875 64.59375 
L 8.203125 64.59375 
z
" id="DejaVuSans-55"/>
      </defs>
      <g transform="translate(17.2 271.943908)scale(0.1 -0.1)">
       <use xlink:href="#DejaVuSans-55"/>
       <use x="63.623047" xlink:href="#DejaVuSans-53"/>
      </g>
     </g>
    </g>
    <g id="ytick_5">
     <g id="line2d_13">
      <g>
       <use style="stroke:#000000;stroke-width:0.8;" x="36.925" xlink:href="#m0fd0a85d89" y="224.357255"/>
      </g>
     </g>
     <g id="text_13">
      <!-- 100 -->
      <g transform="translate(10.8375 228.156474)scale(0.1 -0.1)">
       <use xlink:href="#DejaVuSans-49"/>
       <use x="63.623047" xlink:href="#DejaVuSans-48"/>
       <use x="127.246094" xlink:href="#DejaVuSans-48"/>
      </g>
     </g>
    </g>
    <g id="ytick_6">
     <g id="line2d_14">
      <g>
       <use style="stroke:#000000;stroke-width:0.8;" x="36.925" xlink:href="#m0fd0a85d89" y="180.56982"/>
      </g>
     </g>
     <g id="text_14">
      <!-- 125 -->
      <g transform="translate(10.8375 184.369039)scale(0.1 -0.1)">
       <use xlink:href="#DejaVuSans-49"/>
       <use x="63.623047" xlink:href="#DejaVuSans-50"/>
       <use x="127.246094" xlink:href="#DejaVuSans-53"/>
      </g>
     </g>
    </g>
    <g id="ytick_7">
     <g id="line2d_15">
      <g>
       <use style="stroke:#000000;stroke-width:0.8;" x="36.925" xlink:href="#m0fd0a85d89" y="136.782386"/>
      </g>
     </g>
     <g id="text_15">
      <!-- 150 -->
      <g transform="translate(10.8375 140.581604)scale(0.1 -0.1)">
       <use xlink:href="#DejaVuSans-49"/>
       <use x="63.623047" xlink:href="#DejaVuSans-53"/>
       <use x="127.246094" xlink:href="#DejaVuSans-48"/>
      </g>
     </g>
    </g>
    <g id="ytick_8">
     <g id="line2d_16">
      <g>
       <use style="stroke:#000000;stroke-width:0.8;" x="36.925" xlink:href="#m0fd0a85d89" y="92.994951"/>
      </g>
     </g>
     <g id="text_16">
      <!-- 175 -->
      <g transform="translate(10.8375 96.79417)scale(0.1 -0.1)">
       <use xlink:href="#DejaVuSans-49"/>
       <use x="63.623047" xlink:href="#DejaVuSans-55"/>
       <use x="127.246094" xlink:href="#DejaVuSans-53"/>
      </g>
     </g>
    </g>
    <g id="ytick_9">
     <g id="line2d_17">
      <g>
       <use style="stroke:#000000;stroke-width:0.8;" x="36.925" xlink:href="#m0fd0a85d89" y="49.207516"/>
      </g>
     </g>
     <g id="text_17">
      <!-- 200 -->
      <g transform="translate(10.8375 53.006735)scale(0.1 -0.1)">
       <use xlink:href="#DejaVuSans-50"/>
       <use x="63.623047" xlink:href="#DejaVuSans-48"/>
       <use x="127.246094" xlink:href="#DejaVuSans-48"/>
      </g>
     </g>
    </g>
   </g>
   <g id="line2d_18">
    <path clip-path="url(#pa174fe9bc9)" d="M 104.110075 263.415647 
L 105.832769 276.50809 
L 107.555464 263.415647 
L 109.278158 263.415647 
L 112.723546 263.634584 
L 114.446241 250.542141 
L 116.168935 250.585928 
L 117.891629 250.454566 
L 124.782406 250.848653 
L 126.5051 237.843785 
L 129.950489 238.062722 
L 131.673183 224.970279 
L 135.118571 224.838917 
L 136.841266 211.834049 
L 147.177431 211.834049 
L 148.900125 224.926492 
L 155.790902 173.125956 
L 157.513596 186.130825 
L 160.958985 186.437337 
L 164.404373 186.481124 
L 166.127068 199.52978 
L 173.017845 199.573567 
L 174.740539 186.481124 
L 176.463233 199.485992 
L 178.185927 199.485992 
L 179.908622 186.437337 
L 181.631316 186.481124 
L 183.35401 199.442205 
L 185.076704 186.437337 
L 186.799398 186.437337 
L 188.522093 173.432468 
L 190.244787 173.520043 
L 193.690175 147.422732 
L 195.41287 160.383813 
L 197.135564 160.340025 
L 198.858258 147.335157 
L 200.580952 160.340025 
L 202.303647 147.378945 
L 204.026341 147.247583 
L 210.917118 147.160008 
L 216.085201 186.393549 
L 217.807895 186.305974 
L 224.698672 238.281659 
L 231.589449 238.413022 
L 233.312143 238.325447 
L 236.757531 238.413022 
L 238.480226 238.588171 
L 241.925614 238.588171 
L 243.648308 251.680614 
L 245.371003 238.675746 
L 247.093697 251.724402 
L 248.816391 251.724402 
L 250.539085 238.631959 
L 253.984474 238.544384 
L 255.707168 225.583303 
L 257.429862 238.588171 
L 259.152556 225.495728 
L 260.875251 238.500596 
L 262.597945 238.500596 
L 264.320639 225.539516 
L 266.043333 225.670878 
L 272.93411 225.670878 
L 274.656805 238.719534 
L 279.824887 238.763321 
L 281.547581 225.670878 
L 283.270276 225.670878 
L 284.99297 212.622223 
L 286.715664 212.578435 
L 290.161053 212.753585 
L 291.883747 199.836292 
L 293.606441 199.880079 
L 295.329135 199.704929 
L 297.05183 186.656274 
L 300.497218 186.656274 
L 302.219912 186.656274 
L 307.387995 186.262187 
L 309.110689 186.349762 
L 310.833383 186.218399 
L 312.556078 173.125956 
L 314.278772 173.125956 
L 316.001466 160.077301 
L 319.446855 160.077301 
L 321.169549 147.203795 
L 324.614937 147.203795 
L 326.337632 134.198927 
L 328.060326 147.247583 
L 329.78302 134.242714 
L 331.505714 147.247583 
L 333.228409 147.247583 
L 334.951103 134.198927 
L 336.673797 134.198927 
L 338.396491 121.237846 
L 340.119185 134.242714 
L 343.564574 134.374077 
L 348.732657 134.330289 
L 350.455351 134.330289 
L 352.178045 121.237846 
L 357.346128 121.150271 
L 359.068822 108.057828 
L 360.791516 108.057828 
L 362.514211 94.965385 
L 364.236905 95.096748 
L 365.959599 108.145403 
L 369.404987 82.135667 
L 372.850376 82.267029 
L 374.57307 69.349736 
L 376.295764 69.393524 
L 379.741153 43.34 
L 386.63193 43.34 
L 391.800013 81.697793 
L 395.245401 81.697793 
L 396.968095 68.649137 
L 400.413484 68.692925 
L 405.581566 107.926466 
L 412.472343 107.926466 
L 414.195038 94.921598 
L 422.808509 94.921598 
L 424.531203 81.91673 
L 429.699286 81.960517 
L 431.42198 94.965385 
L 434.867368 68.911862 
L 436.590063 82.004305 
L 438.312757 82.004305 
L 441.758145 55.950781 
L 443.48084 68.7805 
L 446.926228 68.736712 
L 448.648922 81.829155 
L 452.094311 81.829155 
L 455.539699 107.926466 
L 457.262393 95.05296 
L 460.707782 95.665984 
L 462.430476 95.665984 
L 467.598559 134.636801 
L 469.321253 134.461652 
L 472.766642 134.330289 
L 474.489336 121.237846 
L 476.21203 134.198927 
L 477.934724 134.15514 
L 481.380113 133.80484 
L 483.102807 146.853496 
L 489.993584 146.853496 
L 491.716278 159.902151 
L 496.884361 159.858364 
L 498.607055 172.819444 
L 500.329749 172.73187 
L 503.775138 198.654031 
L 505.497832 185.561588 
L 510.665915 224.61998 
L 512.388609 211.790261 
L 514.111303 211.702686 
L 515.833997 224.663767 
L 521.00208 224.61998 
L 524.447469 198.522669 
L 526.170163 211.615112 
L 529.615551 185.5178 
L 534.783634 185.605375 
L 536.506328 172.644295 
L 538.229023 172.775657 
L 541.674411 172.688082 
L 543.397105 185.69295 
L 550.287882 185.911887 
L 552.010576 185.780525 
L 558.901353 185.780525 
L 560.624048 172.73187 
L 562.346742 185.736738 
L 564.069436 172.775657 
L 565.79213 172.775657 
L 567.514825 159.814576 
L 569.237519 159.989726 
L 570.960213 159.814576 
L 572.682907 159.902151 
L 574.405602 172.863232 
L 576.128296 172.73187 
L 579.573684 172.819444 
L 581.296378 185.911887 
L 583.019073 173.038382 
L 584.741767 173.169744 
L 586.464461 173.038382 
L 593.355238 173.038382 
L 595.077932 159.945939 
L 598.523321 185.780525 
L 605.414098 185.736738 
L 608.859486 185.561588 
L 615.750263 185.649163 
L 617.472957 172.73187 
L 619.195652 172.644295 
L 620.918346 172.775657 
L 631.254511 172.775657 
L 636.422594 211.834049 
L 638.145288 211.790261 
L 639.867982 211.965411 
L 641.590677 199.00433 
L 645.036065 199.091905 
L 648.481454 198.829181 
L 650.204148 198.697818 
L 651.926842 211.702686 
L 653.649536 211.571324 
L 658.817619 211.615112 
L 663.985702 211.615112 
L 667.43109 185.780525 
L 669.153784 185.780525 
L 670.876479 172.688082 
L 672.599173 172.819444 
L 674.321867 172.819444 
L 676.044561 159.902151 
L 677.767256 160.077301 
L 684.658033 108.057828 
L 686.380727 121.018909 
L 688.103421 108.101616 
L 693.271504 108.057828 
L 696.716892 108.057828 
L 698.439586 120.843759 
L 701.884975 94.790236 
L 707.053058 94.746448 
L 708.775752 94.746448 
L 710.498446 107.751316 
L 713.943835 107.751316 
L 715.666529 107.795104 
L 717.389223 108.057828 
L 719.111917 95.096748 
L 724.28 95.05296 
L 724.28 95.05296 
" style="fill:none;stroke:#1f77b4;stroke-linecap:square;stroke-width:1.5;"/>
   </g>
   <g id="line2d_19">
    <path clip-path="url(#pa174fe9bc9)" d="M 104.110075 319.419776 
L 105.832769 324.061244 
L 107.555464 321.171273 
L 109.278158 322.047022 
L 112.723546 322.309746 
L 114.446241 319.594925 
L 116.168935 320.339312 
L 117.891629 319.945225 
L 123.059712 320.164162 
L 124.782406 320.426887 
L 126.5051 318.237515 
L 128.227794 317.712066 
L 129.950489 317.843428 
L 131.673183 317.624491 
L 133.395877 317.536916 
L 135.118571 317.580703 
L 136.841266 317.405554 
L 145.454737 317.405554 
L 147.177431 317.624491 
L 148.900125 320.470674 
L 150.62282 319.945225 
L 152.345514 320.076587 
L 154.068208 313.333322 
L 155.790902 311.362888 
L 159.236291 313.37711 
L 160.958985 313.420897 
L 162.681679 308.560492 
L 164.404373 308.648067 
L 166.127068 309.830328 
L 167.849762 309.830328 
L 169.572456 312.939235 
L 171.29515 312.939235 
L 173.017845 313.114385 
L 174.740539 306.020821 
L 176.463233 308.779429 
L 178.185927 306.677632 
L 179.908622 301.59829 
L 181.631316 301.642077 
L 183.35401 299.71543 
L 185.076704 297.438483 
L 186.799398 297.701208 
L 188.522093 292.446716 
L 190.244787 292.534291 
L 191.967481 286.141325 
L 193.690175 284.52119 
L 195.41287 279.835935 
L 197.135564 280.492746 
L 198.858258 280.361384 
L 200.580952 280.492746 
L 202.303647 276.902177 
L 204.026341 276.50809 
L 205.749035 275.938853 
L 207.471729 275.763703 
L 209.194424 283.951954 
L 214.362506 322.528684 
L 216.085201 325.681379 
L 217.807895 324.936992 
L 219.530589 326.557128 
L 221.253283 326.644702 
L 222.975977 333.125243 
L 224.698672 335.05189 
L 229.866754 335.314615 
L 231.589449 340.218807 
L 235.034837 340.043657 
L 241.925614 340.131232 
L 243.648308 334.132354 
L 245.371003 323.316857 
L 247.093697 325.199717 
L 248.816391 330.497997 
L 250.539085 330.016335 
L 252.261779 334.614016 
L 253.984474 335.796276 
L 255.707168 335.533552 
L 257.429862 340.788044 
L 259.152556 340.612894 
L 260.875251 347.049647 
L 262.597945 345.692237 
L 264.320639 352.435501 
L 266.043333 352.566864 
L 267.766028 351.997627 
L 269.488722 351.866265 
L 271.211416 354.84381 
L 272.93411 355.150322 
L 274.656805 355.938496 
L 276.379499 356.069859 
L 278.102193 353.004738 
L 281.547581 327.520451 
L 283.270276 327.520451 
L 284.99297 314.471796 
L 286.715664 309.348666 
L 290.161053 309.523815 
L 291.883747 308.691854 
L 293.606441 308.735642 
L 295.329135 306.896569 
L 297.05183 306.283545 
L 298.774524 304.66341 
L 300.497218 304.532048 
L 302.219912 304.575835 
L 307.387995 304.269323 
L 309.110689 304.356898 
L 312.556078 304.313111 
L 314.278772 302.167526 
L 316.001466 289.425383 
L 317.72416 289.81947 
L 324.614937 239.901794 
L 326.337632 234.822452 
L 328.060326 233.815341 
L 329.78302 232.589293 
L 331.505714 235.085177 
L 333.228409 235.172751 
L 334.951103 231.976269 
L 336.673797 232.45793 
L 338.396491 232.676868 
L 340.119185 233.333679 
L 341.84188 233.421254 
L 343.564574 232.414143 
L 345.287268 225.408153 
L 347.009962 220.285024 
L 348.732657 220.285024 
L 350.455351 225.408153 
L 352.178045 225.014067 
L 353.900739 225.014067 
L 355.623434 230.969158 
L 357.346128 230.794008 
L 359.068822 220.372598 
L 360.791516 208.418629 
L 362.514211 208.155904 
L 364.236905 209.994976 
L 365.959599 210.608001 
L 367.682293 209.819827 
L 369.404987 207.674242 
L 376.295764 207.805605 
L 378.018459 207.36773 
L 379.741153 206.667131 
L 384.909236 206.667131 
L 386.63193 202.813837 
L 388.354624 213.979633 
L 391.800013 233.377467 
L 393.522707 246.250972 
L 395.245401 250.323204 
L 396.968095 248.265194 
L 398.690789 247.082934 
L 402.136178 247.389446 
L 403.858872 250.585928 
L 405.581566 250.89244 
L 407.304261 250.235629 
L 409.026955 250.060479 
L 410.749649 250.104267 
L 412.472343 251.023803 
L 414.195038 257.72328 
L 415.917732 257.72328 
L 417.640426 268.801501 
L 419.36312 275.063104 
L 421.085815 275.282042 
L 422.808509 275.282042 
L 424.531203 265.167144 
L 426.253897 264.597907 
L 427.976591 273.618119 
L 429.699286 273.618119 
L 431.42198 273.26782 
L 433.144674 273.09267 
L 434.867368 271.341172 
L 436.590063 273.880844 
L 438.312757 272.129346 
L 440.035451 272.085559 
L 441.758145 267.225154 
L 443.48084 265.473656 
L 445.203534 265.342294 
L 446.926228 264.422758 
L 448.648922 265.254719 
L 450.371617 269.808612 
L 453.817005 294.285788 
L 455.539699 298.18287 
L 457.262393 299.934367 
L 458.985088 303.524937 
L 460.707782 306.633845 
L 462.430476 294.373363 
L 464.15317 295.380474 
L 465.875865 298.533169 
L 467.598559 294.154426 
L 469.321253 294.242001 
L 471.043947 294.198213 
L 472.766642 294.023064 
L 474.489336 293.541402 
L 476.21203 293.891701 
L 477.934724 293.191102 
L 481.380113 292.840803 
L 483.102807 293.147315 
L 484.825501 293.147315 
L 486.548195 293.366252 
L 488.27089 291.264455 
L 489.993584 286.535412 
L 491.716278 299.584068 
L 493.438972 310.224414 
L 495.161667 310.662289 
L 496.884361 310.13684 
L 498.607055 322.835196 
L 500.329749 319.200839 
L 502.052444 319.463563 
L 503.775138 320.470674 
L 505.497832 317.887215 
L 507.220526 320.645824 
L 508.943221 320.733399 
L 510.665915 325.506229 
L 512.388609 327.082577 
L 514.111303 327.082577 
L 515.833997 327.914538 
L 517.556692 327.213939 
L 519.279386 335.489764 
L 521.00208 335.971426 
L 522.724774 335.445977 
L 524.447469 334.70159 
L 526.170163 333.694479 
L 527.892857 330.27906 
L 529.615551 329.447098 
L 531.338246 341.050768 
L 533.06094 341.050768 
L 534.783634 340.393957 
L 536.506328 346.83071 
L 538.229023 346.962072 
L 539.951717 346.874497 
L 541.674411 346.918285 
L 545.119799 347.443734 
L 546.842494 348.231908 
L 548.565188 348.18812 
L 550.287882 348.319483 
L 552.010576 348.100545 
L 553.733271 357.821356 
L 555.455965 352.435501 
L 557.178659 354.011849 
L 558.901353 353.179888 
L 560.624048 350.508854 
L 562.346742 350.815366 
L 564.069436 350.727792 
L 565.79213 350.508854 
L 567.514825 350.552642 
L 569.237519 354.800023 
L 570.960213 354.537298 
L 572.682907 355.106535 
L 574.405602 357.558631 
L 576.128296 358.740892 
L 579.573684 358.828467 
L 581.296378 358.653317 
L 583.019073 353.048526 
L 584.741767 353.573975 
L 586.464461 352.698226 
L 588.187155 339.868508 
L 589.90985 330.147697 
L 591.632544 329.096799 
L 593.355238 325.287292 
L 595.077932 325.856529 
L 596.800627 325.812741 
L 598.523321 326.469553 
L 600.246015 326.68849 
L 601.968709 326.776065 
L 603.691404 325.550017 
L 605.414098 325.812741 
L 607.136792 324.280181 
L 610.58218 324.236394 
L 615.750263 324.411543 
L 619.195652 323.360645 
L 620.918346 323.360645 
L 622.64104 321.215061 
L 624.363734 327.739388 
L 626.086429 328.483775 
L 627.809123 329.75361 
L 629.531817 331.767832 
L 631.254511 331.680257 
L 632.977206 331.986769 
L 634.6999 334.000991 
L 636.422594 334.307504 
L 638.145288 334.263716 
L 639.867982 334.526441 
L 641.590677 333.782054 
L 643.313371 333.869629 
L 645.036065 333.125243 
L 646.758759 333.037668 
L 648.481454 332.687368 
L 650.204148 333.16903 
L 651.926842 338.905184 
L 653.649536 338.773822 
L 655.372231 340.218807 
L 657.094925 340.218807 
L 658.817619 336.847175 
L 660.540313 326.557128 
L 662.263008 319.594925 
L 663.985702 308.735642 
L 665.708396 307.772318 
L 667.43109 294.855025 
L 669.153784 287.411161 
L 670.876479 281.63122 
L 672.599173 283.601654 
L 674.321867 273.486757 
L 676.044561 262.014449 
L 677.767256 262.189599 
L 679.48995 257.767068 
L 681.212644 256.103145 
L 682.935338 255.884208 
L 684.658033 254.920884 
L 686.380727 252.249851 
L 688.103421 252.60015 
L 689.826115 252.7753 
L 691.54881 256.584807 
L 693.271504 244.149175 
L 694.994198 238.894683 
L 696.716892 242.091166 
L 698.439586 242.397678 
L 700.162281 242.091166 
L 701.884975 241.916016 
L 703.607669 241.084055 
L 707.053058 241.084055 
L 710.498446 241.084055 
L 712.22114 240.164519 
L 713.943835 240.689968 
L 715.666529 240.733756 
L 717.389223 241.17163 
L 719.111917 240.952693 
L 724.28 240.865118 
L 724.28 240.865118 
" style="fill:none;stroke:#ff7f0e;stroke-linecap:square;stroke-width:1.5;"/>
   </g>
   <g id="line2d_20">
    <path clip-path="url(#pa174fe9bc9)" d="M 104.110075 315.391332 
L 105.832769 308.166405 
L 107.555464 308.385342 
L 109.278158 310.180627 
L 111.000852 311.538037 
L 112.723546 311.84455 
L 114.446241 311.6694 
L 116.168935 311.713187 
L 117.891629 311.49425 
L 119.614323 311.84455 
L 123.059712 311.888337 
L 124.782406 312.764086 
L 126.5051 312.151062 
L 128.227794 312.151062 
L 129.950489 300.459816 
L 133.395877 274.493868 
L 135.118571 274.45008 
L 136.841266 261.489 
L 143.732043 261.489 
L 147.177431 287.454948 
L 148.900125 288.243122 
L 150.62282 288.330697 
L 152.345514 289.512958 
L 154.068208 289.031296 
L 155.790902 288.943721 
L 157.513596 288.155547 
L 159.236291 287.849035 
L 162.681679 288.024185 
L 164.404373 288.067972 
L 166.127068 288.374485 
L 167.849762 288.549634 
L 171.29515 288.462059 
L 173.017845 288.637209 
L 174.740539 293.497614 
L 176.463233 293.497614 
L 178.185927 292.621866 
L 179.908622 292.534291 
L 181.631316 292.578078 
L 183.35401 292.402929 
L 185.076704 292.621866 
L 186.799398 292.709441 
L 188.522093 292.621866 
L 190.244787 292.709441 
L 191.967481 293.015953 
L 193.690175 292.972165 
L 195.41287 293.716552 
L 197.135564 291.658542 
L 202.303647 330.10391 
L 204.026341 329.972547 
L 205.749035 342.014092 
L 207.471729 341.225918 
L 212.639812 380.328097 
L 216.085201 380.415672 
L 219.530589 380.328097 
L 222.975977 380.45946 
L 224.698672 380.415672 
L 226.421366 381.335208 
L 228.14406 381.422783 
L 229.866754 381.685508 
L 231.589449 381.729295 
L 233.312143 381.554146 
L 241.925614 381.773083 
L 243.648308 374.022707 
L 245.371003 361.192988 
L 247.093697 349.370381 
L 248.816391 336.4093 
L 250.539085 336.365513 
L 252.261779 336.58445 
L 253.984474 336.365513 
L 264.320639 336.365513 
L 266.043333 338.730034 
L 272.93411 339.430633 
L 276.379499 340.919406 
L 281.547581 301.817227 
L 283.270276 301.729652 
L 284.99297 301.817227 
L 286.715664 301.685865 
L 288.438358 301.948589 
L 290.161053 301.992377 
L 291.883747 301.861014 
L 293.606441 301.992377 
L 295.329135 301.072841 
L 297.05183 301.335565 
L 300.497218 301.335565 
L 302.219912 301.379353 
L 303.942607 298.489382 
L 307.387995 298.18287 
L 309.110689 298.270445 
L 310.833383 298.00772 
L 312.556078 301.42314 
L 317.72416 339.99987 
L 319.446855 339.430633 
L 321.169549 339.124121 
L 322.892243 339.036546 
L 324.614937 338.511097 
L 329.78302 338.730034 
L 331.505714 338.817609 
L 334.951103 338.773822 
L 336.673797 338.29216 
L 338.396491 338.335947 
L 341.84188 338.248373 
L 343.564574 338.554885 
L 345.287268 338.511097 
L 347.009962 350.333705 
L 348.732657 363.20721 
L 350.455351 370.081838 
L 352.178045 369.337451 
L 353.900739 364.739771 
L 355.623434 361.806012 
L 357.346128 361.455713 
L 359.068822 351.42839 
L 360.791516 350.158555 
L 362.514211 349.808255 
L 364.236905 350.684004 
L 365.959599 350.946729 
L 367.682293 349.939618 
L 369.404987 346.83071 
L 371.127682 346.874497 
L 372.850376 349.720681 
L 374.57307 349.633106 
L 376.295764 349.720681 
L 378.018459 349.326594 
L 379.741153 349.545531 
L 381.463847 346.130111 
L 388.354624 295.073962 
L 390.077318 282.419393 
L 391.800013 281.061983 
L 393.522707 281.675007 
L 398.690789 281.63122 
L 400.413484 281.63122 
L 402.136178 281.762582 
L 403.858872 281.762582 
L 405.581566 282.419393 
L 407.304261 282.156669 
L 409.026955 282.025306 
L 412.472343 282.025306 
L 414.195038 281.806369 
L 415.917732 269.983762 
L 417.640426 262.933985 
L 419.36312 268.976651 
L 421.085815 269.67725 
L 422.808509 273.311607 
L 424.531203 275.676128 
L 426.253897 275.938853 
L 427.976591 285.791026 
L 429.699286 286.841924 
L 431.42198 287.104649 
L 433.144674 287.060861 
L 434.867368 285.659664 
L 436.590063 286.798137 
L 438.312757 289.731895 
L 440.035451 289.81947 
L 441.758145 282.944843 
L 443.48084 282.069094 
L 445.203534 282.025306 
L 446.926228 276.201578 
L 448.648922 276.245365 
L 450.371617 286.447837 
L 458.985088 351.384603 
L 460.707782 353.092313 
L 462.430476 353.092313 
L 464.15317 353.267463 
L 469.321253 353.223675 
L 471.043947 353.092313 
L 474.489336 353.092313 
L 477.934724 353.530187 
L 479.657419 353.31125 
L 481.380113 353.223675 
L 483.102807 353.4864 
L 484.825501 365.396582 
L 486.548195 372.314997 
L 488.27089 370.38835 
L 489.993584 369.8629 
L 491.716278 370.826224 
L 493.438972 371.57061 
L 496.884361 371.526823 
L 498.607055 371.877122 
L 500.329749 371.351673 
L 502.052444 371.439248 
L 503.775138 371.833335 
L 505.497832 371.614398 
L 507.220526 371.132736 
L 508.943221 370.870011 
L 510.665915 377.569489 
L 512.388609 378.445238 
L 514.111303 377.919788 
L 515.833997 384.006242 
L 517.556692 383.918667 
L 519.279386 386.76485 
L 521.00208 386.677275 
L 522.724774 386.94 
L 524.447469 386.020464 
L 526.170163 386.064251 
L 527.892857 385.801527 
L 529.615551 385.670164 
L 531.338246 385.670164 
L 533.06094 385.538802 
L 539.951717 385.58259 
L 541.674411 385.276077 
L 543.397105 385.144715 
L 545.119799 385.188503 
L 546.842494 385.100928 
L 548.565188 384.619266 
L 550.287882 384.750628 
L 552.010576 384.619266 
L 553.733271 385.801527 
L 555.455965 383.218068 
L 557.178659 384.531691 
L 558.901353 385.188503 
L 560.624048 384.969565 
L 562.346742 384.925778 
L 564.069436 383.743517 
L 565.79213 383.261855 
L 567.514825 383.174281 
L 569.237519 383.787305 
L 570.960213 382.079595 
L 572.682907 382.210957 
L 574.405602 382.210957 
L 576.128296 369.819113 
L 577.85099 370.125625 
L 581.296378 344.466188 
L 583.019073 344.94785 
L 584.741767 345.079212 
L 588.187155 319.025689 
L 589.90985 315.654056 
L 591.632544 315.654056 
L 593.355238 316.486018 
L 595.077932 316.310868 
L 596.800627 316.61738 
L 598.523321 316.310868 
L 600.246015 315.697844 
L 601.968709 315.829206 
L 605.414098 315.654056 
L 614.027569 315.259969 
L 615.750263 315.303757 
L 617.472957 315.041032 
L 619.195652 314.55937 
L 620.918346 314.690733 
L 622.64104 313.114385 
L 624.363734 315.216182 
L 626.086429 315.872994 
L 627.809123 315.741631 
L 629.531817 315.916781 
L 631.254511 315.916781 
L 632.977206 317.186617 
L 636.422594 318.237515 
L 638.145288 318.193728 
L 639.867982 319.901437 
L 641.590677 319.244626 
L 643.313371 319.288413 
L 645.036065 329.534673 
L 646.758759 329.447098 
L 648.481454 342.014092 
L 650.204148 352.479289 
L 651.926842 352.523076 
L 653.649536 350.859154 
L 657.094925 376.562378 
L 658.817619 379.452349 
L 660.540313 379.408561 
L 662.263008 377.700851 
L 663.985702 376.86889 
L 665.708396 375.029818 
L 667.43109 375.380117 
L 669.153784 375.905566 
L 670.876479 375.555267 
L 672.599173 375.686629 
L 674.321867 375.248755 
L 676.044561 374.635731 
L 677.767256 374.942243 
L 679.48995 374.679518 
L 681.212644 374.285431 
L 682.935338 374.110282 
L 684.658033 374.066494 
L 686.380727 374.898455 
L 688.103421 375.248755 
L 689.826115 375.204968 
L 691.54881 369.687751 
L 693.271504 368.987152 
L 698.439586 368.943364 
L 700.162281 368.023828 
L 703.607669 367.848678 
L 707.053058 367.848678 
L 708.775752 367.848678 
L 710.498446 369.381239 
L 712.22114 369.468814 
L 713.943835 372.183635 
L 715.666529 372.227422 
L 717.389223 372.752871 
L 719.111917 375.380117 
L 720.834612 375.380117 
L 722.557306 377.000252 
L 724.28 377.087827 
L 724.28 377.087827 
" style="fill:none;stroke:#2ca02c;stroke-linecap:square;stroke-width:1.5;"/>
   </g>
   <g id="patch_3">
    <path d="M 36.925 404.12 
L 36.925 26.16 
" style="fill:none;stroke:#000000;stroke-linecap:square;stroke-linejoin:miter;stroke-width:0.8;"/>
   </g>
   <g id="patch_4">
    <path d="M 724.28 404.12 
L 724.28 26.16 
" style="fill:none;stroke:#000000;stroke-linecap:square;stroke-linejoin:miter;stroke-width:0.8;"/>
   </g>
   <g id="patch_5">
    <path d="M 36.925 404.12 
L 724.28 404.12 
" style="fill:none;stroke:#000000;stroke-linecap:square;stroke-linejoin:miter;stroke-width:0.8;"/>
   </g>
   <g id="patch_6">
    <path d="M 36.925 26.16 
L 724.28 26.16 
" style="fill:none;stroke:#000000;stroke-linecap:square;stroke-linejoin:miter;stroke-width:0.8;"/>
   </g>
   <g id="text_18">
    <!-- gridworld_5x5_20_1_20_1337__dqn: episode duration, steps, MA=40 -->
    <defs>
     <path d="M 45.40625 27.984375 
Q 45.40625 37.75 41.375 43.109375 
Q 37.359375 48.484375 30.078125 48.484375 
Q 22.859375 48.484375 18.828125 43.109375 
Q 14.796875 37.75 14.796875 27.984375 
Q 14.796875 18.265625 18.828125 12.890625 
Q 22.859375 7.515625 30.078125 7.515625 
Q 37.359375 7.515625 41.375 12.890625 
Q 45.40625 18.265625 45.40625 27.984375 
z
M 54.390625 6.78125 
Q 54.390625 -7.171875 48.1875 -13.984375 
Q 42 -20.796875 29.203125 -20.796875 
Q 24.46875 -20.796875 20.265625 -20.09375 
Q 16.0625 -19.390625 12.109375 -17.921875 
L 12.109375 -9.1875 
Q 16.0625 -11.328125 19.921875 -12.34375 
Q 23.78125 -13.375 27.78125 -13.375 
Q 36.625 -13.375 41.015625 -8.765625 
Q 45.40625 -4.15625 45.40625 5.171875 
L 45.40625 9.625 
Q 42.625 4.78125 38.28125 2.390625 
Q 33.9375 0 27.875 0 
Q 17.828125 0 11.671875 7.65625 
Q 5.515625 15.328125 5.515625 27.984375 
Q 5.515625 40.671875 11.671875 48.328125 
Q 17.828125 56 27.875 56 
Q 33.9375 56 38.28125 53.609375 
Q 42.625 51.21875 45.40625 46.390625 
L 45.40625 54.6875 
L 54.390625 54.6875 
z
" id="DejaVuSans-103"/>
     <path d="M 41.109375 46.296875 
Q 39.59375 47.171875 37.8125 47.578125 
Q 36.03125 48 33.890625 48 
Q 26.265625 48 22.1875 43.046875 
Q 18.109375 38.09375 18.109375 28.8125 
L 18.109375 0 
L 9.078125 0 
L 9.078125 54.6875 
L 18.109375 54.6875 
L 18.109375 46.1875 
Q 20.953125 51.171875 25.484375 53.578125 
Q 30.03125 56 36.53125 56 
Q 37.453125 56 38.578125 55.875 
Q 39.703125 55.765625 41.0625 55.515625 
z
" id="DejaVuSans-114"/>
     <path d="M 9.421875 54.6875 
L 18.40625 54.6875 
L 18.40625 0 
L 9.421875 0 
z
M 9.421875 75.984375 
L 18.40625 75.984375 
L 18.40625 64.59375 
L 9.421875 64.59375 
z
" id="DejaVuSans-105"/>
     <path d="M 45.40625 46.390625 
L 45.40625 75.984375 
L 54.390625 75.984375 
L 54.390625 0 
L 45.40625 0 
L 45.40625 8.203125 
Q 42.578125 3.328125 38.25 0.953125 
Q 33.9375 -1.421875 27.875 -1.421875 
Q 17.96875 -1.421875 11.734375 6.484375 
Q 5.515625 14.40625 5.515625 27.296875 
Q 5.515625 40.1875 11.734375 48.09375 
Q 17.96875 56 27.875 56 
Q 33.9375 56 38.25 53.625 
Q 42.578125 51.265625 45.40625 46.390625 
z
M 14.796875 27.296875 
Q 14.796875 17.390625 18.875 11.75 
Q 22.953125 6.109375 30.078125 6.109375 
Q 37.203125 6.109375 41.296875 11.75 
Q 45.40625 17.390625 45.40625 27.296875 
Q 45.40625 37.203125 41.296875 42.84375 
Q 37.203125 48.484375 30.078125 48.484375 
Q 22.953125 48.484375 18.875 42.84375 
Q 14.796875 37.203125 14.796875 27.296875 
z
" id="DejaVuSans-100"/>
     <path d="M 4.203125 54.6875 
L 13.1875 54.6875 
L 24.421875 12.015625 
L 35.59375 54.6875 
L 46.1875 54.6875 
L 57.421875 12.015625 
L 68.609375 54.6875 
L 77.59375 54.6875 
L 63.28125 0 
L 52.6875 0 
L 40.921875 44.828125 
L 29.109375 0 
L 18.5 0 
z
" id="DejaVuSans-119"/>
     <path d="M 30.609375 48.390625 
Q 23.390625 48.390625 19.1875 42.75 
Q 14.984375 37.109375 14.984375 27.296875 
Q 14.984375 17.484375 19.15625 11.84375 
Q 23.34375 6.203125 30.609375 6.203125 
Q 37.796875 6.203125 41.984375 11.859375 
Q 46.1875 17.53125 46.1875 27.296875 
Q 46.1875 37.015625 41.984375 42.703125 
Q 37.796875 48.390625 30.609375 48.390625 
z
M 30.609375 56 
Q 42.328125 56 49.015625 48.375 
Q 55.71875 40.765625 55.71875 27.296875 
Q 55.71875 13.875 49.015625 6.21875 
Q 42.328125 -1.421875 30.609375 -1.421875 
Q 18.84375 -1.421875 12.171875 6.21875 
Q 5.515625 13.875 5.515625 27.296875 
Q 5.515625 40.765625 12.171875 48.375 
Q 18.84375 56 30.609375 56 
z
" id="DejaVuSans-111"/>
     <path d="M 9.421875 75.984375 
L 18.40625 75.984375 
L 18.40625 0 
L 9.421875 0 
z
" id="DejaVuSans-108"/>
     <path d="M 50.984375 -16.609375 
L 50.984375 -23.578125 
L -0.984375 -23.578125 
L -0.984375 -16.609375 
z
" id="DejaVuSans-95"/>
     <path d="M 54.890625 54.6875 
L 35.109375 28.078125 
L 55.90625 0 
L 45.3125 0 
L 29.390625 21.484375 
L 13.484375 0 
L 2.875 0 
L 24.125 28.609375 
L 4.6875 54.6875 
L 15.28125 54.6875 
L 29.78125 35.203125 
L 44.28125 54.6875 
z
" id="DejaVuSans-120"/>
     <path d="M 14.796875 27.296875 
Q 14.796875 17.390625 18.875 11.75 
Q 22.953125 6.109375 30.078125 6.109375 
Q 37.203125 6.109375 41.296875 11.75 
Q 45.40625 17.390625 45.40625 27.296875 
Q 45.40625 37.203125 41.296875 42.84375 
Q 37.203125 48.484375 30.078125 48.484375 
Q 22.953125 48.484375 18.875 42.84375 
Q 14.796875 37.203125 14.796875 27.296875 
z
M 45.40625 8.203125 
Q 42.578125 3.328125 38.25 0.953125 
Q 33.9375 -1.421875 27.875 -1.421875 
Q 17.96875 -1.421875 11.734375 6.484375 
Q 5.515625 14.40625 5.515625 27.296875 
Q 5.515625 40.1875 11.734375 48.09375 
Q 17.96875 56 27.875 56 
Q 33.9375 56 38.25 53.625 
Q 42.578125 51.265625 45.40625 46.390625 
L 45.40625 54.6875 
L 54.390625 54.6875 
L 54.390625 -20.796875 
L 45.40625 -20.796875 
z
" id="DejaVuSans-113"/>
     <path d="M 54.890625 33.015625 
L 54.890625 0 
L 45.90625 0 
L 45.90625 32.71875 
Q 45.90625 40.484375 42.875 44.328125 
Q 39.84375 48.1875 33.796875 48.1875 
Q 26.515625 48.1875 22.3125 43.546875 
Q 18.109375 38.921875 18.109375 30.90625 
L 18.109375 0 
L 9.078125 0 
L 9.078125 54.6875 
L 18.109375 54.6875 
L 18.109375 46.1875 
Q 21.34375 51.125 25.703125 53.5625 
Q 30.078125 56 35.796875 56 
Q 45.21875 56 50.046875 50.171875 
Q 54.890625 44.34375 54.890625 33.015625 
z
" id="DejaVuSans-110"/>
     <path d="M 11.71875 12.40625 
L 22.015625 12.40625 
L 22.015625 0 
L 11.71875 0 
z
M 11.71875 51.703125 
L 22.015625 51.703125 
L 22.015625 39.3125 
L 11.71875 39.3125 
z
" id="DejaVuSans-58"/>
     <path id="DejaVuSans-32"/>
     <path d="M 56.203125 29.59375 
L 56.203125 25.203125 
L 14.890625 25.203125 
Q 15.484375 15.921875 20.484375 11.0625 
Q 25.484375 6.203125 34.421875 6.203125 
Q 39.59375 6.203125 44.453125 7.46875 
Q 49.3125 8.734375 54.109375 11.28125 
L 54.109375 2.78125 
Q 49.265625 0.734375 44.1875 -0.34375 
Q 39.109375 -1.421875 33.890625 -1.421875 
Q 20.796875 -1.421875 13.15625 6.1875 
Q 5.515625 13.8125 5.515625 26.8125 
Q 5.515625 40.234375 12.765625 48.109375 
Q 20.015625 56 32.328125 56 
Q 43.359375 56 49.78125 48.890625 
Q 56.203125 41.796875 56.203125 29.59375 
z
M 47.21875 32.234375 
Q 47.125 39.59375 43.09375 43.984375 
Q 39.0625 48.390625 32.421875 48.390625 
Q 24.90625 48.390625 20.390625 44.140625 
Q 15.875 39.890625 15.1875 32.171875 
z
" id="DejaVuSans-101"/>
     <path d="M 18.109375 8.203125 
L 18.109375 -20.796875 
L 9.078125 -20.796875 
L 9.078125 54.6875 
L 18.109375 54.6875 
L 18.109375 46.390625 
Q 20.953125 51.265625 25.265625 53.625 
Q 29.59375 56 35.59375 56 
Q 45.5625 56 51.78125 48.09375 
Q 58.015625 40.1875 58.015625 27.296875 
Q 58.015625 14.40625 51.78125 6.484375 
Q 45.5625 -1.421875 35.59375 -1.421875 
Q 29.59375 -1.421875 25.265625 0.953125 
Q 20.953125 3.328125 18.109375 8.203125 
z
M 48.6875 27.296875 
Q 48.6875 37.203125 44.609375 42.84375 
Q 40.53125 48.484375 33.40625 48.484375 
Q 26.265625 48.484375 22.1875 42.84375 
Q 18.109375 37.203125 18.109375 27.296875 
Q 18.109375 17.390625 22.1875 11.75 
Q 26.265625 6.109375 33.40625 6.109375 
Q 40.53125 6.109375 44.609375 11.75 
Q 48.6875 17.390625 48.6875 27.296875 
z
" id="DejaVuSans-112"/>
     <path d="M 44.28125 53.078125 
L 44.28125 44.578125 
Q 40.484375 46.53125 36.375 47.5 
Q 32.28125 48.484375 27.875 48.484375 
Q 21.1875 48.484375 17.84375 46.4375 
Q 14.5 44.390625 14.5 40.28125 
Q 14.5 37.15625 16.890625 35.375 
Q 19.28125 33.59375 26.515625 31.984375 
L 29.59375 31.296875 
Q 39.15625 29.25 43.1875 25.515625 
Q 47.21875 21.78125 47.21875 15.09375 
Q 47.21875 7.46875 41.1875 3.015625 
Q 35.15625 -1.421875 24.609375 -1.421875 
Q 20.21875 -1.421875 15.453125 -0.5625 
Q 10.6875 0.296875 5.421875 2 
L 5.421875 11.28125 
Q 10.40625 8.6875 15.234375 7.390625 
Q 20.0625 6.109375 24.8125 6.109375 
Q 31.15625 6.109375 34.5625 8.28125 
Q 37.984375 10.453125 37.984375 14.40625 
Q 37.984375 18.0625 35.515625 20.015625 
Q 33.0625 21.96875 24.703125 23.78125 
L 21.578125 24.515625 
Q 13.234375 26.265625 9.515625 29.90625 
Q 5.8125 33.546875 5.8125 39.890625 
Q 5.8125 47.609375 11.28125 51.796875 
Q 16.75 56 26.8125 56 
Q 31.78125 56 36.171875 55.265625 
Q 40.578125 54.546875 44.28125 53.078125 
z
" id="DejaVuSans-115"/>
     <path d="M 8.5 21.578125 
L 8.5 54.6875 
L 17.484375 54.6875 
L 17.484375 21.921875 
Q 17.484375 14.15625 20.5 10.265625 
Q 23.53125 6.390625 29.59375 6.390625 
Q 36.859375 6.390625 41.078125 11.03125 
Q 45.3125 15.671875 45.3125 23.6875 
L 45.3125 54.6875 
L 54.296875 54.6875 
L 54.296875 0 
L 45.3125 0 
L 45.3125 8.40625 
Q 42.046875 3.421875 37.71875 1 
Q 33.40625 -1.421875 27.6875 -1.421875 
Q 18.265625 -1.421875 13.375 4.4375 
Q 8.5 10.296875 8.5 21.578125 
z
M 31.109375 56 
z
" id="DejaVuSans-117"/>
     <path d="M 34.28125 27.484375 
Q 23.390625 27.484375 19.1875 25 
Q 14.984375 22.515625 14.984375 16.5 
Q 14.984375 11.71875 18.140625 8.90625 
Q 21.296875 6.109375 26.703125 6.109375 
Q 34.1875 6.109375 38.703125 11.40625 
Q 43.21875 16.703125 43.21875 25.484375 
L 43.21875 27.484375 
z
M 52.203125 31.203125 
L 52.203125 0 
L 43.21875 0 
L 43.21875 8.296875 
Q 40.140625 3.328125 35.546875 0.953125 
Q 30.953125 -1.421875 24.3125 -1.421875 
Q 15.921875 -1.421875 10.953125 3.296875 
Q 6 8.015625 6 15.921875 
Q 6 25.140625 12.171875 29.828125 
Q 18.359375 34.515625 30.609375 34.515625 
L 43.21875 34.515625 
L 43.21875 35.40625 
Q 43.21875 41.609375 39.140625 45 
Q 35.0625 48.390625 27.6875 48.390625 
Q 23 48.390625 18.546875 47.265625 
Q 14.109375 46.140625 10.015625 43.890625 
L 10.015625 52.203125 
Q 14.9375 54.109375 19.578125 55.046875 
Q 24.21875 56 28.609375 56 
Q 40.484375 56 46.34375 49.84375 
Q 52.203125 43.703125 52.203125 31.203125 
z
" id="DejaVuSans-97"/>
     <path d="M 18.3125 70.21875 
L 18.3125 54.6875 
L 36.8125 54.6875 
L 36.8125 47.703125 
L 18.3125 47.703125 
L 18.3125 18.015625 
Q 18.3125 11.328125 20.140625 9.421875 
Q 21.96875 7.515625 27.59375 7.515625 
L 36.8125 7.515625 
L 36.8125 0 
L 27.59375 0 
Q 17.1875 0 13.234375 3.875 
Q 9.28125 7.765625 9.28125 18.015625 
L 9.28125 47.703125 
L 2.6875 47.703125 
L 2.6875 54.6875 
L 9.28125 54.6875 
L 9.28125 70.21875 
z
" id="DejaVuSans-116"/>
     <path d="M 11.71875 12.40625 
L 22.015625 12.40625 
L 22.015625 4 
L 14.015625 -11.625 
L 7.71875 -11.625 
L 11.71875 4 
z
" id="DejaVuSans-44"/>
     <path d="M 9.8125 72.90625 
L 24.515625 72.90625 
L 43.109375 23.296875 
L 61.8125 72.90625 
L 76.515625 72.90625 
L 76.515625 0 
L 66.890625 0 
L 66.890625 64.015625 
L 48.09375 14.015625 
L 38.1875 14.015625 
L 19.390625 64.015625 
L 19.390625 0 
L 9.8125 0 
z
" id="DejaVuSans-77"/>
     <path d="M 34.1875 63.1875 
L 20.796875 26.90625 
L 47.609375 26.90625 
z
M 28.609375 72.90625 
L 39.796875 72.90625 
L 67.578125 0 
L 57.328125 0 
L 50.6875 18.703125 
L 17.828125 18.703125 
L 11.1875 0 
L 0.78125 0 
z
" id="DejaVuSans-65"/>
     <path d="M 10.59375 45.40625 
L 73.1875 45.40625 
L 73.1875 37.203125 
L 10.59375 37.203125 
z
M 10.59375 25.484375 
L 73.1875 25.484375 
L 73.1875 17.1875 
L 10.59375 17.1875 
z
" id="DejaVuSans-61"/>
     <path d="M 37.796875 64.3125 
L 12.890625 25.390625 
L 37.796875 25.390625 
z
M 35.203125 72.90625 
L 47.609375 72.90625 
L 47.609375 25.390625 
L 58.015625 25.390625 
L 58.015625 17.1875 
L 47.609375 17.1875 
L 47.609375 0 
L 37.796875 0 
L 37.796875 17.1875 
L 4.890625 17.1875 
L 4.890625 26.703125 
z
" id="DejaVuSans-52"/>
    </defs>
    <g transform="translate(174.141562 20.16)scale(0.12 -0.12)">
     <use xlink:href="#DejaVuSans-103"/>
     <use x="63.476562" xlink:href="#DejaVuSans-114"/>
     <use x="104.589844" xlink:href="#DejaVuSans-105"/>
     <use x="132.373047" xlink:href="#DejaVuSans-100"/>
     <use x="195.849609" xlink:href="#DejaVuSans-119"/>
     <use x="277.636719" xlink:href="#DejaVuSans-111"/>
     <use x="338.818359" xlink:href="#DejaVuSans-114"/>
     <use x="379.931641" xlink:href="#DejaVuSans-108"/>
     <use x="407.714844" xlink:href="#DejaVuSans-100"/>
     <use x="471.191406" xlink:href="#DejaVuSans-95"/>
     <use x="521.191406" xlink:href="#DejaVuSans-53"/>
     <use x="584.814453" xlink:href="#DejaVuSans-120"/>
     <use x="643.994141" xlink:href="#DejaVuSans-53"/>
     <use x="707.617188" xlink:href="#DejaVuSans-95"/>
     <use x="757.617188" xlink:href="#DejaVuSans-50"/>
     <use x="821.240234" xlink:href="#DejaVuSans-48"/>
     <use x="884.863281" xlink:href="#DejaVuSans-95"/>
     <use x="934.863281" xlink:href="#DejaVuSans-49"/>
     <use x="998.486328" xlink:href="#DejaVuSans-95"/>
     <use x="1048.486328" xlink:href="#DejaVuSans-50"/>
     <use x="1112.109375" xlink:href="#DejaVuSans-48"/>
     <use x="1175.732422" xlink:href="#DejaVuSans-95"/>
     <use x="1225.732422" xlink:href="#DejaVuSans-49"/>
     <use x="1289.355469" xlink:href="#DejaVuSans-51"/>
     <use x="1352.978516" xlink:href="#DejaVuSans-51"/>
     <use x="1416.601562" xlink:href="#DejaVuSans-55"/>
     <use x="1480.224609" xlink:href="#DejaVuSans-95"/>
     <use x="1530.224609" xlink:href="#DejaVuSans-95"/>
     <use x="1580.224609" xlink:href="#DejaVuSans-100"/>
     <use x="1643.701172" xlink:href="#DejaVuSans-113"/>
     <use x="1707.177734" xlink:href="#DejaVuSans-110"/>
     <use x="1770.556641" xlink:href="#DejaVuSans-58"/>
     <use x="1804.248047" xlink:href="#DejaVuSans-32"/>
     <use x="1836.035156" xlink:href="#DejaVuSans-101"/>
     <use x="1897.558594" xlink:href="#DejaVuSans-112"/>
     <use x="1961.035156" xlink:href="#DejaVuSans-105"/>
     <use x="1988.818359" xlink:href="#DejaVuSans-115"/>
     <use x="2040.917969" xlink:href="#DejaVuSans-111"/>
     <use x="2102.099609" xlink:href="#DejaVuSans-100"/>
     <use x="2165.576172" xlink:href="#DejaVuSans-101"/>
     <use x="2227.099609" xlink:href="#DejaVuSans-32"/>
     <use x="2258.886719" xlink:href="#DejaVuSans-100"/>
     <use x="2322.363281" xlink:href="#DejaVuSans-117"/>
     <use x="2385.742188" xlink:href="#DejaVuSans-114"/>
     <use x="2426.855469" xlink:href="#DejaVuSans-97"/>
     <use x="2488.134766" xlink:href="#DejaVuSans-116"/>
     <use x="2527.34375" xlink:href="#DejaVuSans-105"/>
     <use x="2555.126953" xlink:href="#DejaVuSans-111"/>
     <use x="2616.308594" xlink:href="#DejaVuSans-110"/>
     <use x="2679.6875" xlink:href="#DejaVuSans-44"/>
     <use x="2711.474609" xlink:href="#DejaVuSans-32"/>
     <use x="2743.261719" xlink:href="#DejaVuSans-115"/>
     <use x="2795.361328" xlink:href="#DejaVuSans-116"/>
     <use x="2834.570312" xlink:href="#DejaVuSans-101"/>
     <use x="2896.09375" xlink:href="#DejaVuSans-112"/>
     <use x="2959.570312" xlink:href="#DejaVuSans-115"/>
     <use x="3011.669922" xlink:href="#DejaVuSans-44"/>
     <use x="3043.457031" xlink:href="#DejaVuSans-32"/>
     <use x="3075.244141" xlink:href="#DejaVuSans-77"/>
     <use x="3161.523438" xlink:href="#DejaVuSans-65"/>
     <use x="3229.931641" xlink:href="#DejaVuSans-61"/>
     <use x="3313.720703" xlink:href="#DejaVuSans-52"/>
     <use x="3377.34375" xlink:href="#DejaVuSans-48"/>
    </g>
   </g>
   <g id="legend_1">
    <g id="patch_7">
     <path d="M 763.686937 239.074375 
L 854.751 239.074375 
Q 856.751 239.074375 856.751 237.074375 
L 856.751 193.205625 
Q 856.751 191.205625 854.751 191.205625 
L 763.686937 191.205625 
Q 761.686937 191.205625 761.686937 193.205625 
L 761.686937 237.074375 
Q 761.686937 239.074375 763.686937 239.074375 
z
" style="fill:#ffffff;opacity:0.8;stroke:#cccccc;stroke-linejoin:miter;"/>
    </g>
    <g id="line2d_21">
     <path d="M 765.686937 199.304062 
L 785.686937 199.304062 
" style="fill:none;stroke:#1f77b4;stroke-linecap:square;stroke-width:1.5;"/>
    </g>
    <g id="line2d_22"/>
    <g id="text_19">
     <!-- dqn_greedy -->
     <defs>
      <path d="M 32.171875 -5.078125 
Q 28.375 -14.84375 24.75 -17.8125 
Q 21.140625 -20.796875 15.09375 -20.796875 
L 7.90625 -20.796875 
L 7.90625 -13.28125 
L 13.1875 -13.28125 
Q 16.890625 -13.28125 18.9375 -11.515625 
Q 21 -9.765625 23.484375 -3.21875 
L 25.09375 0.875 
L 2.984375 54.6875 
L 12.5 54.6875 
L 29.59375 11.921875 
L 46.6875 54.6875 
L 56.203125 54.6875 
z
" id="DejaVuSans-121"/>
     </defs>
     <g transform="translate(793.686937 202.804062)scale(0.1 -0.1)">
      <use xlink:href="#DejaVuSans-100"/>
      <use x="63.476562" xlink:href="#DejaVuSans-113"/>
      <use x="126.953125" xlink:href="#DejaVuSans-110"/>
      <use x="190.332031" xlink:href="#DejaVuSans-95"/>
      <use x="240.332031" xlink:href="#DejaVuSans-103"/>
      <use x="303.808594" xlink:href="#DejaVuSans-114"/>
      <use x="344.890625" xlink:href="#DejaVuSans-101"/>
      <use x="406.414062" xlink:href="#DejaVuSans-101"/>
      <use x="467.9375" xlink:href="#DejaVuSans-100"/>
      <use x="531.414062" xlink:href="#DejaVuSans-121"/>
     </g>
    </g>
    <g id="line2d_23">
     <path d="M 765.686937 214.260312 
L 785.686937 214.260312 
" style="fill:none;stroke:#ff7f0e;stroke-linecap:square;stroke-width:1.5;"/>
    </g>
    <g id="line2d_24"/>
    <g id="text_20">
     <!-- dqn_eps -->
     <g transform="translate(793.686937 217.760312)scale(0.1 -0.1)">
      <use xlink:href="#DejaVuSans-100"/>
      <use x="63.476562" xlink:href="#DejaVuSans-113"/>
      <use x="126.953125" xlink:href="#DejaVuSans-110"/>
      <use x="190.332031" xlink:href="#DejaVuSans-95"/>
      <use x="240.332031" xlink:href="#DejaVuSans-101"/>
      <use x="301.855469" xlink:href="#DejaVuSans-112"/>
      <use x="365.332031" xlink:href="#DejaVuSans-115"/>
     </g>
    </g>
    <g id="line2d_25">
     <path d="M 765.686937 229.216562 
L 785.686937 229.216562 
" style="fill:none;stroke:#2ca02c;stroke-linecap:square;stroke-width:1.5;"/>
    </g>
    <g id="line2d_26"/>
    <g id="text_21">
     <!-- htm_4_1g -->
     <defs>
      <path d="M 54.890625 33.015625 
L 54.890625 0 
L 45.90625 0 
L 45.90625 32.71875 
Q 45.90625 40.484375 42.875 44.328125 
Q 39.84375 48.1875 33.796875 48.1875 
Q 26.515625 48.1875 22.3125 43.546875 
Q 18.109375 38.921875 18.109375 30.90625 
L 18.109375 0 
L 9.078125 0 
L 9.078125 75.984375 
L 18.109375 75.984375 
L 18.109375 46.1875 
Q 21.34375 51.125 25.703125 53.5625 
Q 30.078125 56 35.796875 56 
Q 45.21875 56 50.046875 50.171875 
Q 54.890625 44.34375 54.890625 33.015625 
z
" id="DejaVuSans-104"/>
      <path d="M 52 44.1875 
Q 55.375 50.25 60.0625 53.125 
Q 64.75 56 71.09375 56 
Q 79.640625 56 84.28125 50.015625 
Q 88.921875 44.046875 88.921875 33.015625 
L 88.921875 0 
L 79.890625 0 
L 79.890625 32.71875 
Q 79.890625 40.578125 77.09375 44.375 
Q 74.3125 48.1875 68.609375 48.1875 
Q 61.625 48.1875 57.5625 43.546875 
Q 53.515625 38.921875 53.515625 30.90625 
L 53.515625 0 
L 44.484375 0 
L 44.484375 32.71875 
Q 44.484375 40.625 41.703125 44.40625 
Q 38.921875 48.1875 33.109375 48.1875 
Q 26.21875 48.1875 22.15625 43.53125 
Q 18.109375 38.875 18.109375 30.90625 
L 18.109375 0 
L 9.078125 0 
L 9.078125 54.6875 
L 18.109375 54.6875 
L 18.109375 46.1875 
Q 21.1875 51.21875 25.484375 53.609375 
Q 29.78125 56 35.6875 56 
Q 41.65625 56 45.828125 52.96875 
Q 50 49.953125 52 44.1875 
z
" id="DejaVuSans-109"/>
     </defs>
     <g transform="translate(793.686937 232.716562)scale(0.1 -0.1)">
      <use xlink:href="#DejaVuSans-104"/>
      <use x="63.378906" xlink:href="#DejaVuSans-116"/>
      <use x="102.587891" xlink:href="#DejaVuSans-109"/>
      <use x="200" xlink:href="#DejaVuSans-95"/>
      <use x="250" xlink:href="#DejaVuSans-52"/>
      <use x="313.623047" xlink:href="#DejaVuSans-95"/>
      <use x="363.623047" xlink:href="#DejaVuSans-49"/>
      <use x="427.246094" xlink:href="#DejaVuSans-103"/>
     </g>
    </g>
   </g>
  </g>
 </g>
 <defs>
  <clipPath id="pa174fe9bc9">
   <rect height="377.96" width="687.355" x="36.925" y="26.16"/>
  </clipPath>
 </defs>
</svg>
