<?xml version="1.0" encoding="utf-8" standalone="no"?>
<!DOCTYPE svg PUBLIC "-//W3C//DTD SVG 1.1//EN"
  "http://www.w3.org/Graphics/SVG/1.1/DTD/svg11.dtd">
<!-- Created with matplotlib (https://matplotlib.org/) -->
<svg height="432pt" version="1.1" viewBox="0 0 864 432" width="864pt" xmlns="http://www.w3.org/2000/svg" xmlns:xlink="http://www.w3.org/1999/xlink">
 <defs>
  <style type="text/css">
*{stroke-linecap:butt;stroke-linejoin:round;}
  </style>
 </defs>
 <g id="figure_1">
  <g id="patch_1">
   <path d="M 0 432 
L 864 432 
L 864 0 
L 0 0 
z
" style="fill:#ffffff;"/>
  </g>
  <g id="axes_1">
   <g id="patch_2">
    <path d="M 42.1 404.12 
L 724.28 404.12 
L 724.28 26.52 
L 42.1 26.52 
z
" style="fill:#ffffff;"/>
   </g>
   <g id="matplotlib.axis_1">
    <g id="xtick_1">
     <g id="line2d_1">
      <defs>
       <path d="M 0 0 
L 0 3.5 
" id="m84fd463818" style="stroke:#000000;stroke-width:0.8;"/>
      </defs>
      <g>
       <use style="stroke:#000000;stroke-width:0.8;" x="42.1" xlink:href="#m84fd463818" y="404.12"/>
      </g>
     </g>
     <g id="text_1">
      <!-- 0 -->
      <defs>
       <path d="M 31.78125 66.40625 
Q 24.171875 66.40625 20.328125 58.90625 
Q 16.5 51.421875 16.5 36.375 
Q 16.5 21.390625 20.328125 13.890625 
Q 24.171875 6.390625 31.78125 6.390625 
Q 39.453125 6.390625 43.28125 13.890625 
Q 47.125 21.390625 47.125 36.375 
Q 47.125 51.421875 43.28125 58.90625 
Q 39.453125 66.40625 31.78125 66.40625 
z
M 31.78125 74.21875 
Q 44.046875 74.21875 50.515625 64.515625 
Q 56.984375 54.828125 56.984375 36.375 
Q 56.984375 17.96875 50.515625 8.265625 
Q 44.046875 -1.421875 31.78125 -1.421875 
Q 19.53125 -1.421875 13.0625 8.265625 
Q 6.59375 17.96875 6.59375 36.375 
Q 6.59375 54.828125 13.0625 64.515625 
Q 19.53125 74.21875 31.78125 74.21875 
z
" id="DejaVuSans-48"/>
      </defs>
      <g transform="translate(38.91875 418.718437)scale(0.1 -0.1)">
       <use xlink:href="#DejaVuSans-48"/>
      </g>
     </g>
    </g>
    <g id="xtick_2">
     <g id="line2d_2">
      <g>
       <use style="stroke:#000000;stroke-width:0.8;" x="127.425829" xlink:href="#m84fd463818" y="404.12"/>
      </g>
     </g>
     <g id="text_2">
      <!-- 200 -->
      <defs>
       <path d="M 19.1875 8.296875 
L 53.609375 8.296875 
L 53.609375 0 
L 7.328125 0 
L 7.328125 8.296875 
Q 12.9375 14.109375 22.625 23.890625 
Q 32.328125 33.6875 34.8125 36.53125 
Q 39.546875 41.84375 41.421875 45.53125 
Q 43.3125 49.21875 43.3125 52.78125 
Q 43.3125 58.59375 39.234375 62.25 
Q 35.15625 65.921875 28.609375 65.921875 
Q 23.96875 65.921875 18.8125 64.3125 
Q 13.671875 62.703125 7.8125 59.421875 
L 7.8125 69.390625 
Q 13.765625 71.78125 18.9375 73 
Q 24.125 74.21875 28.421875 74.21875 
Q 39.75 74.21875 46.484375 68.546875 
Q 53.21875 62.890625 53.21875 53.421875 
Q 53.21875 48.921875 51.53125 44.890625 
Q 49.859375 40.875 45.40625 35.40625 
Q 44.1875 33.984375 37.640625 27.21875 
Q 31.109375 20.453125 19.1875 8.296875 
z
" id="DejaVuSans-50"/>
      </defs>
      <g transform="translate(117.882079 418.718437)scale(0.1 -0.1)">
       <use xlink:href="#DejaVuSans-50"/>
       <use x="63.623047" xlink:href="#DejaVuSans-48"/>
       <use x="127.246094" xlink:href="#DejaVuSans-48"/>
      </g>
     </g>
    </g>
    <g id="xtick_3">
     <g id="line2d_3">
      <g>
       <use style="stroke:#000000;stroke-width:0.8;" x="212.751657" xlink:href="#m84fd463818" y="404.12"/>
      </g>
     </g>
     <g id="text_3">
      <!-- 400 -->
      <defs>
       <path d="M 37.796875 64.3125 
L 12.890625 25.390625 
L 37.796875 25.390625 
z
M 35.203125 72.90625 
L 47.609375 72.90625 
L 47.609375 25.390625 
L 58.015625 25.390625 
L 58.015625 17.1875 
L 47.609375 17.1875 
L 47.609375 0 
L 37.796875 0 
L 37.796875 17.1875 
L 4.890625 17.1875 
L 4.890625 26.703125 
z
" id="DejaVuSans-52"/>
      </defs>
      <g transform="translate(203.207907 418.718437)scale(0.1 -0.1)">
       <use xlink:href="#DejaVuSans-52"/>
       <use x="63.623047" xlink:href="#DejaVuSans-48"/>
       <use x="127.246094" xlink:href="#DejaVuSans-48"/>
      </g>
     </g>
    </g>
    <g id="xtick_4">
     <g id="line2d_4">
      <g>
       <use style="stroke:#000000;stroke-width:0.8;" x="298.077486" xlink:href="#m84fd463818" y="404.12"/>
      </g>
     </g>
     <g id="text_4">
      <!-- 600 -->
      <defs>
       <path d="M 33.015625 40.375 
Q 26.375 40.375 22.484375 35.828125 
Q 18.609375 31.296875 18.609375 23.390625 
Q 18.609375 15.53125 22.484375 10.953125 
Q 26.375 6.390625 33.015625 6.390625 
Q 39.65625 6.390625 43.53125 10.953125 
Q 47.40625 15.53125 47.40625 23.390625 
Q 47.40625 31.296875 43.53125 35.828125 
Q 39.65625 40.375 33.015625 40.375 
z
M 52.59375 71.296875 
L 52.59375 62.3125 
Q 48.875 64.0625 45.09375 64.984375 
Q 41.3125 65.921875 37.59375 65.921875 
Q 27.828125 65.921875 22.671875 59.328125 
Q 17.53125 52.734375 16.796875 39.40625 
Q 19.671875 43.65625 24.015625 45.921875 
Q 28.375 48.1875 33.59375 48.1875 
Q 44.578125 48.1875 50.953125 41.515625 
Q 57.328125 34.859375 57.328125 23.390625 
Q 57.328125 12.15625 50.6875 5.359375 
Q 44.046875 -1.421875 33.015625 -1.421875 
Q 20.359375 -1.421875 13.671875 8.265625 
Q 6.984375 17.96875 6.984375 36.375 
Q 6.984375 53.65625 15.1875 63.9375 
Q 23.390625 74.21875 37.203125 74.21875 
Q 40.921875 74.21875 44.703125 73.484375 
Q 48.484375 72.75 52.59375 71.296875 
z
" id="DejaVuSans-54"/>
      </defs>
      <g transform="translate(288.533736 418.718437)scale(0.1 -0.1)">
       <use xlink:href="#DejaVuSans-54"/>
       <use x="63.623047" xlink:href="#DejaVuSans-48"/>
       <use x="127.246094" xlink:href="#DejaVuSans-48"/>
      </g>
     </g>
    </g>
    <g id="xtick_5">
     <g id="line2d_5">
      <g>
       <use style="stroke:#000000;stroke-width:0.8;" x="383.403315" xlink:href="#m84fd463818" y="404.12"/>
      </g>
     </g>
     <g id="text_5">
      <!-- 800 -->
      <defs>
       <path d="M 31.78125 34.625 
Q 24.75 34.625 20.71875 30.859375 
Q 16.703125 27.09375 16.703125 20.515625 
Q 16.703125 13.921875 20.71875 10.15625 
Q 24.75 6.390625 31.78125 6.390625 
Q 38.8125 6.390625 42.859375 10.171875 
Q 46.921875 13.96875 46.921875 20.515625 
Q 46.921875 27.09375 42.890625 30.859375 
Q 38.875 34.625 31.78125 34.625 
z
M 21.921875 38.8125 
Q 15.578125 40.375 12.03125 44.71875 
Q 8.5 49.078125 8.5 55.328125 
Q 8.5 64.0625 14.71875 69.140625 
Q 20.953125 74.21875 31.78125 74.21875 
Q 42.671875 74.21875 48.875 69.140625 
Q 55.078125 64.0625 55.078125 55.328125 
Q 55.078125 49.078125 51.53125 44.71875 
Q 48 40.375 41.703125 38.8125 
Q 48.828125 37.15625 52.796875 32.3125 
Q 56.78125 27.484375 56.78125 20.515625 
Q 56.78125 9.90625 50.3125 4.234375 
Q 43.84375 -1.421875 31.78125 -1.421875 
Q 19.734375 -1.421875 13.25 4.234375 
Q 6.78125 9.90625 6.78125 20.515625 
Q 6.78125 27.484375 10.78125 32.3125 
Q 14.796875 37.15625 21.921875 38.8125 
z
M 18.3125 54.390625 
Q 18.3125 48.734375 21.84375 45.5625 
Q 25.390625 42.390625 31.78125 42.390625 
Q 38.140625 42.390625 41.71875 45.5625 
Q 45.3125 48.734375 45.3125 54.390625 
Q 45.3125 60.0625 41.71875 63.234375 
Q 38.140625 66.40625 31.78125 66.40625 
Q 25.390625 66.40625 21.84375 63.234375 
Q 18.3125 60.0625 18.3125 54.390625 
z
" id="DejaVuSans-56"/>
      </defs>
      <g transform="translate(373.859565 418.718437)scale(0.1 -0.1)">
       <use xlink:href="#DejaVuSans-56"/>
       <use x="63.623047" xlink:href="#DejaVuSans-48"/>
       <use x="127.246094" xlink:href="#DejaVuSans-48"/>
      </g>
     </g>
    </g>
    <g id="xtick_6">
     <g id="line2d_6">
      <g>
       <use style="stroke:#000000;stroke-width:0.8;" x="468.729143" xlink:href="#m84fd463818" y="404.12"/>
      </g>
     </g>
     <g id="text_6">
      <!-- 1000 -->
      <defs>
       <path d="M 12.40625 8.296875 
L 28.515625 8.296875 
L 28.515625 63.921875 
L 10.984375 60.40625 
L 10.984375 69.390625 
L 28.421875 72.90625 
L 38.28125 72.90625 
L 38.28125 8.296875 
L 54.390625 8.296875 
L 54.390625 0 
L 12.40625 0 
z
" id="DejaVuSans-49"/>
      </defs>
      <g transform="translate(456.004143 418.718437)scale(0.1 -0.1)">
       <use xlink:href="#DejaVuSans-49"/>
       <use x="63.623047" xlink:href="#DejaVuSans-48"/>
       <use x="127.246094" xlink:href="#DejaVuSans-48"/>
       <use x="190.869141" xlink:href="#DejaVuSans-48"/>
      </g>
     </g>
    </g>
    <g id="xtick_7">
     <g id="line2d_7">
      <g>
       <use style="stroke:#000000;stroke-width:0.8;" x="554.054972" xlink:href="#m84fd463818" y="404.12"/>
      </g>
     </g>
     <g id="text_7">
      <!-- 1200 -->
      <g transform="translate(541.329972 418.718437)scale(0.1 -0.1)">
       <use xlink:href="#DejaVuSans-49"/>
       <use x="63.623047" xlink:href="#DejaVuSans-50"/>
       <use x="127.246094" xlink:href="#DejaVuSans-48"/>
       <use x="190.869141" xlink:href="#DejaVuSans-48"/>
      </g>
     </g>
    </g>
    <g id="xtick_8">
     <g id="line2d_8">
      <g>
       <use style="stroke:#000000;stroke-width:0.8;" x="639.380801" xlink:href="#m84fd463818" y="404.12"/>
      </g>
     </g>
     <g id="text_8">
      <!-- 1400 -->
      <g transform="translate(626.655801 418.718437)scale(0.1 -0.1)">
       <use xlink:href="#DejaVuSans-49"/>
       <use x="63.623047" xlink:href="#DejaVuSans-52"/>
       <use x="127.246094" xlink:href="#DejaVuSans-48"/>
       <use x="190.869141" xlink:href="#DejaVuSans-48"/>
      </g>
     </g>
    </g>
   </g>
   <g id="matplotlib.axis_2">
    <g id="ytick_1">
     <g id="line2d_9">
      <defs>
       <path d="M 0 0 
L -3.5 0 
" id="m348ca66154" style="stroke:#000000;stroke-width:0.8;"/>
      </defs>
      <g>
       <use style="stroke:#000000;stroke-width:0.8;" x="42.1" xlink:href="#m348ca66154" y="363.277778"/>
      </g>
     </g>
     <g id="text_9">
      <!-- −0.5 -->
      <defs>
       <path d="M 10.59375 35.5 
L 73.1875 35.5 
L 73.1875 27.203125 
L 10.59375 27.203125 
z
" id="DejaVuSans-8722"/>
       <path d="M 10.6875 12.40625 
L 21 12.40625 
L 21 0 
L 10.6875 0 
z
" id="DejaVuSans-46"/>
       <path d="M 10.796875 72.90625 
L 49.515625 72.90625 
L 49.515625 64.59375 
L 19.828125 64.59375 
L 19.828125 46.734375 
Q 21.96875 47.46875 24.109375 47.828125 
Q 26.265625 48.1875 28.421875 48.1875 
Q 40.625 48.1875 47.75 41.5 
Q 54.890625 34.8125 54.890625 23.390625 
Q 54.890625 11.625 47.5625 5.09375 
Q 40.234375 -1.421875 26.90625 -1.421875 
Q 22.3125 -1.421875 17.546875 -0.640625 
Q 12.796875 0.140625 7.71875 1.703125 
L 7.71875 11.625 
Q 12.109375 9.234375 16.796875 8.0625 
Q 21.484375 6.890625 26.703125 6.890625 
Q 35.15625 6.890625 40.078125 11.328125 
Q 45.015625 15.765625 45.015625 23.390625 
Q 45.015625 31 40.078125 35.4375 
Q 35.15625 39.890625 26.703125 39.890625 
Q 22.75 39.890625 18.8125 39.015625 
Q 14.890625 38.140625 10.796875 36.28125 
z
" id="DejaVuSans-53"/>
      </defs>
      <g transform="translate(10.817188 367.076996)scale(0.1 -0.1)">
       <use xlink:href="#DejaVuSans-8722"/>
       <use x="83.789062" xlink:href="#DejaVuSans-48"/>
       <use x="147.412109" xlink:href="#DejaVuSans-46"/>
       <use x="179.199219" xlink:href="#DejaVuSans-53"/>
      </g>
     </g>
    </g>
    <g id="ytick_2">
     <g id="line2d_10">
      <g>
       <use style="stroke:#000000;stroke-width:0.8;" x="42.1" xlink:href="#m348ca66154" y="304.085637"/>
      </g>
     </g>
     <g id="text_10">
      <!-- 0.0 -->
      <g transform="translate(19.196875 307.884856)scale(0.1 -0.1)">
       <use xlink:href="#DejaVuSans-48"/>
       <use x="63.623047" xlink:href="#DejaVuSans-46"/>
       <use x="95.410156" xlink:href="#DejaVuSans-48"/>
      </g>
     </g>
    </g>
    <g id="ytick_3">
     <g id="line2d_11">
      <g>
       <use style="stroke:#000000;stroke-width:0.8;" x="42.1" xlink:href="#m348ca66154" y="244.893496"/>
      </g>
     </g>
     <g id="text_11">
      <!-- 0.5 -->
      <g transform="translate(19.196875 248.692715)scale(0.1 -0.1)">
       <use xlink:href="#DejaVuSans-48"/>
       <use x="63.623047" xlink:href="#DejaVuSans-46"/>
       <use x="95.410156" xlink:href="#DejaVuSans-53"/>
      </g>
     </g>
    </g>
    <g id="ytick_4">
     <g id="line2d_12">
      <g>
       <use style="stroke:#000000;stroke-width:0.8;" x="42.1" xlink:href="#m348ca66154" y="185.701355"/>
      </g>
     </g>
     <g id="text_12">
      <!-- 1.0 -->
      <g transform="translate(19.196875 189.500574)scale(0.1 -0.1)">
       <use xlink:href="#DejaVuSans-49"/>
       <use x="63.623047" xlink:href="#DejaVuSans-46"/>
       <use x="95.410156" xlink:href="#DejaVuSans-48"/>
      </g>
     </g>
    </g>
    <g id="ytick_5">
     <g id="line2d_13">
      <g>
       <use style="stroke:#000000;stroke-width:0.8;" x="42.1" xlink:href="#m348ca66154" y="126.509215"/>
      </g>
     </g>
     <g id="text_13">
      <!-- 1.5 -->
      <g transform="translate(19.196875 130.308433)scale(0.1 -0.1)">
       <use xlink:href="#DejaVuSans-49"/>
       <use x="63.623047" xlink:href="#DejaVuSans-46"/>
       <use x="95.410156" xlink:href="#DejaVuSans-53"/>
      </g>
     </g>
    </g>
    <g id="ytick_6">
     <g id="line2d_14">
      <g>
       <use style="stroke:#000000;stroke-width:0.8;" x="42.1" xlink:href="#m348ca66154" y="67.317074"/>
      </g>
     </g>
     <g id="text_14">
      <!-- 2.0 -->
      <g transform="translate(19.196875 71.116292)scale(0.1 -0.1)">
       <use xlink:href="#DejaVuSans-50"/>
       <use x="63.623047" xlink:href="#DejaVuSans-46"/>
       <use x="95.410156" xlink:href="#DejaVuSans-48"/>
      </g>
     </g>
    </g>
   </g>
   <g id="line2d_15">
    <path clip-path="url(#pfff44f78d3)" d="M 58.738537 304.085637 
L 724.28 304.085637 
L 724.28 304.085637 
" style="fill:none;stroke:#1f77b4;stroke-linecap:square;stroke-width:1.5;"/>
   </g>
   <g id="line2d_16">
    <path clip-path="url(#pfff44f78d3)" d="M 58.738537 304.085637 
L 133.398637 304.085637 
L 133.825266 292.507586 
L 134.251895 286.610776 
L 134.678524 274.181299 
L 135.105153 268.6415 
L 135.531782 267.790074 
L 135.958412 270.381118 
L 136.385041 271.581135 
L 136.81167 270.190109 
L 137.238299 261.012093 
L 138.091557 261.012093 
L 138.518186 259.812076 
L 138.944816 265.775397 
L 139.798074 265.775397 
L 140.224703 264.575379 
L 140.651332 262.392376 
L 142.357849 262.392376 
L 142.784478 261.192359 
L 143.211107 266.951488 
L 143.637736 266.951488 
L 144.064365 266.573152 
L 144.490994 257.706961 
L 144.917624 252.404058 
L 145.344253 242.026024 
L 145.770882 250.231797 
L 146.197511 252.712922 
L 146.62414 246.128911 
L 148.330657 246.128911 
L 148.757286 245.468493 
L 149.610544 245.468493 
L 150.037173 247.519937 
L 150.463802 237.141903 
L 150.890432 235.09046 
L 151.317061 243.699131 
L 151.74369 254.980974 
L 152.170319 259.860356 
L 152.596948 257.460321 
L 153.023577 261.203032 
L 153.450206 260.003015 
L 153.876836 261.394041 
L 154.303465 258.994006 
L 154.730094 245.364512 
L 155.156723 249.976008 
L 155.583352 257.072836 
L 156.009981 246.06413 
L 156.86324 246.06413 
L 157.716498 248.247133 
L 158.569756 228.022222 
L 158.996385 225.119353 
L 159.423014 225.119353 
L 159.849644 226.319371 
L 160.276273 220.560241 
L 160.702902 220.560241 
L 161.129531 219.013094 
L 161.55616 227.879284 
L 161.982789 233.182188 
L 162.409418 243.560222 
L 163.262677 210.91724 
L 163.689306 214.24979 
L 164.115935 214.24979 
L 164.542564 213.69323 
L 165.395822 213.69323 
L 165.822452 214.353647 
L 166.67571 214.353647 
L 167.102339 212.302204 
L 167.528968 222.680237 
L 167.955597 236.309731 
L 168.382226 233.597871 
L 168.808856 234.745504 
L 169.235485 235.405921 
L 169.662114 238.657382 
L 170.088743 232.323627 
L 171.36863 232.323627 
L 171.79526 245.953121 
L 172.648518 208.185827 
L 173.075147 212.031194 
L 173.501776 204.365021 
L 173.928405 202.79457 
L 174.355034 190.365093 
L 174.781664 189.513667 
L 175.634922 209.6225 
L 176.061551 204.435674 
L 176.914809 204.435674 
L 177.341438 202.061044 
L 177.768068 202.061044 
L 178.194697 203.986527 
L 178.621326 204.646945 
L 179.474584 204.646945 
L 179.901213 212.973535 
L 180.327842 226.603029 
L 180.754472 229.85449 
L 181.181101 219.476456 
L 181.60773 220.033017 
L 182.034359 225.720827 
L 182.460988 220.587089 
L 182.887617 219.735664 
L 183.314246 219.254671 
L 183.740876 211.958932 
L 184.167505 211.21514 
L 184.594134 210.015123 
L 185.020763 199.637089 
L 185.447392 199.637089 
L 185.874021 186.007595 
L 186.72728 189.08989 
L 187.153909 191.80175 
L 187.580538 185.191195 
L 188.007167 191.610741 
L 188.433796 203.188792 
L 188.860425 200.423604 
L 189.713684 225.631149 
L 190.140313 219.560194 
L 190.566942 217.304559 
L 190.993571 220.492564 
L 191.846829 229.27538 
L 192.273458 229.391458 
L 192.700088 220.807348 
L 193.126717 215.267549 
L 193.553346 213.078425 
L 193.979975 213.078425 
L 194.406604 222.267803 
L 194.833233 222.267803 
L 195.259862 227.570706 
L 195.686492 226.058863 
L 196.113121 230.510341 
L 196.53975 230.510341 
L 196.966379 218.932291 
L 197.393008 218.932291 
L 197.819637 223.603099 
L 198.246266 232.781115 
L 198.672896 219.151621 
L 199.099525 199.834317 
L 199.526154 204.968054 
L 199.952783 192.189986 
L 200.379412 192.670978 
L 200.806041 197.063848 
L 201.23267 196.607623 
L 201.6593 201.910527 
L 202.512558 215.459288 
L 202.939187 215.459288 
L 203.365816 217.495113 
L 203.792445 215.772854 
L 204.219074 214.631444 
L 204.645704 223.749668 
L 205.072333 212.945154 
L 205.498962 212.945154 
L 205.925591 206.844152 
L 206.35222 202.69538 
L 206.778849 206.578936 
L 207.632108 228.223194 
L 208.058737 227.00084 
L 208.485366 235.206613 
L 208.911995 232.698944 
L 209.338624 232.698944 
L 210.191882 259.015435 
L 210.618512 258.30169 
L 211.045141 258.30169 
L 211.47177 251.486943 
L 211.898399 252.998786 
L 212.751657 240.220718 
L 213.178286 232.357761 
L 213.604916 237.972491 
L 214.031545 246.838681 
L 214.458174 246.838681 
L 214.884803 242.167873 
L 215.311432 232.989857 
L 215.738061 237.092743 
L 216.16469 238.29276 
L 216.59132 228.370952 
L 217.017949 235.1857 
L 217.444578 235.1857 
L 217.871207 233.469665 
L 218.297836 227.003509 
L 218.724465 210.471146 
L 219.151094 213.796182 
L 219.577724 208.403171 
L 220.004353 234.100574 
L 220.430982 225.089984 
L 220.857611 225.089984 
L 221.28424 223.519532 
L 221.710869 221.011864 
L 222.137498 223.720523 
L 222.564128 223.720523 
L 222.990757 234.242956 
L 223.417386 248.49064 
L 224.270644 242.207049 
L 224.697273 241.007032 
L 225.123902 238.560388 
L 225.977161 255.654619 
L 226.40379 261.61794 
L 226.830419 252.508357 
L 227.257048 250.145088 
L 227.683677 251.50933 
L 228.110306 253.872599 
L 228.536936 260.750096 
L 228.963565 259.238253 
L 229.390194 259.550079 
L 229.816823 267.216252 
L 230.243452 270.62773 
L 230.670081 265.013001 
L 231.09671 272.625846 
L 231.52334 278.14353 
L 232.376598 271.898129 
L 232.803227 281.424736 
L 233.656485 305.011064 
L 234.509744 320.211009 
L 235.363002 335.398955 
L 235.789631 351.931318 
L 236.21626 352.595759 
L 236.642889 351.223766 
L 237.069518 338.760657 
L 237.496148 333.997354 
L 237.922777 333.997354 
L 238.349406 344.865245 
L 239.202664 329.348772 
L 240.055922 330.190349 
L 240.482552 320.091438 
L 240.909181 314.758789 
L 241.33581 307.944042 
L 241.762439 307.944042 
L 242.189068 300.073677 
L 242.615697 295.581377 
L 243.042326 287.933759 
L 243.468956 284.964379 
L 243.895585 287.798815 
L 244.322214 276.53259 
L 244.748843 278.071217 
L 245.602101 254.106138 
L 246.02873 251.933878 
L 246.45536 252.28247 
L 246.881989 245.155897 
L 247.308618 250.458801 
L 247.735247 248.989543 
L 248.161876 240.423457 
L 248.588505 235.207009 
L 249.015134 231.668284 
L 249.441764 245.297778 
L 249.868393 247.586116 
L 250.295022 247.406691 
L 250.721651 250.058759 
L 251.14828 242.188395 
L 251.574909 240.048598 
L 252.001538 236.254576 
L 252.428168 236.370654 
L 252.854797 219.838291 
L 253.281426 219.443091 
L 253.708055 223.488507 
L 254.134684 223.883708 
L 254.561313 229.059173 
L 254.987942 236.156 
L 255.414572 225.827709 
L 255.841201 234.154299 
L 256.26783 252.613984 
L 256.694459 258.915844 
L 257.121088 267.335658 
L 257.547717 263.924179 
L 257.974346 256.827351 
L 258.400976 272.226208 
L 258.827605 266.467079 
L 259.254234 276.388887 
L 259.680863 271.434574 
L 260.107492 260.516941 
L 260.534121 241.842062 
L 260.96075 238.770027 
L 261.38738 252.964969 
L 261.814009 255.867838 
L 262.240638 265.789646 
L 262.667267 265.828847 
L 263.093896 276.588175 
L 263.520525 274.848557 
L 263.947154 281.297849 
L 264.373784 278.502614 
L 264.800413 283.817239 
L 265.227042 292.390044 
L 265.653671 292.088807 
L 266.0803 288.458221 
L 266.506929 288.458221 
L 266.933558 275.482984 
L 267.360188 279.822766 
L 267.786817 276.775497 
L 268.213446 268.964924 
L 268.640075 256.049175 
L 269.066704 256.553743 
L 269.493333 254.729039 
L 269.919962 269.986454 
L 270.346592 277.214841 
L 271.19985 257.336679 
L 271.626479 262.539248 
L 272.053108 247.11583 
L 272.479737 252.976198 
L 272.906366 257.079085 
L 273.332996 247.485591 
L 273.759625 247.947302 
L 274.186254 232.173141 
L 274.612883 239.292305 
L 275.039512 257.261581 
L 275.466141 254.519975 
L 275.89277 254.56404 
L 276.3194 247.088875 
L 276.746029 244.692538 
L 277.172658 255.610171 
L 277.599287 270.339348 
L 278.025916 264.005593 
L 278.452545 254.262128 
L 278.879174 254.718354 
L 279.305804 256.532902 
L 279.732433 253.485633 
L 280.159062 235.492775 
L 280.585691 240.135262 
L 281.01232 240.812543 
L 281.438949 239.682166 
L 281.865578 239.62786 
L 282.292208 241.223078 
L 282.718837 249.334887 
L 283.145466 262.377045 
L 283.572095 259.665184 
L 283.998724 270.352082 
L 284.425353 267.903726 
L 284.851982 274.209864 
L 285.278612 294.936186 
L 285.705241 296.84323 
L 286.13187 289.875467 
L 286.558499 300.400541 
L 286.985128 296.932667 
L 287.411757 276.074786 
L 287.838386 269.411847 
L 288.265016 275.491246 
L 288.691645 266.625056 
L 289.118274 266.625056 
L 289.544903 260.587942 
L 289.971532 263.379438 
L 290.398161 258.076534 
L 290.82479 248.306534 
L 291.25142 253.512393 
L 292.104678 243.822353 
L 292.531307 243.113586 
L 292.957936 248.828651 
L 293.811194 262.231786 
L 294.237824 257.352404 
L 294.664453 268.652454 
L 295.517711 300.736493 
L 296.370969 286.180642 
L 296.797598 287.836885 
L 297.224228 302.122057 
L 297.650857 294.173804 
L 298.077486 289.82414 
L 298.504115 280.780675 
L 299.784003 232.404035 
L 300.210632 229.52513 
L 300.637261 238.265361 
L 301.06389 242.876857 
L 301.490519 235.910302 
L 301.917148 220.617156 
L 302.343777 214.059929 
L 303.197036 225.121962 
L 303.623665 206.383706 
L 304.050294 193.394148 
L 304.476923 193.394148 
L 304.903552 208.223659 
L 305.756811 197.380956 
L 306.18344 194.129496 
L 306.610069 193.766641 
L 307.036698 179.745686 
L 307.463327 171.419095 
L 307.889956 183.995613 
L 308.316585 175.766068 
L 308.743215 177.408641 
L 309.169844 175.357197 
L 309.596473 161.89687 
L 310.023102 161.89687 
L 310.449731 154.026505 
L 310.87636 136.865378 
L 311.302989 139.032899 
L 311.729619 118.306578 
L 312.156248 115.403708 
L 312.582877 104.867369 
L 313.009506 101.615909 
L 313.436135 105.785306 
L 313.862764 111.939636 
L 314.289393 107.279585 
L 314.716023 100.746918 
L 315.142652 112.055729 
L 315.569281 119.721902 
L 315.99591 134.788308 
L 316.422539 135.639734 
L 316.849168 133.018945 
L 317.275797 138.982267 
L 317.702427 127.795392 
L 318.129056 126.086766 
L 318.555685 119.583844 
L 318.982314 119.583844 
L 319.408943 121.095687 
L 319.835572 124.01174 
L 320.262201 126.063183 
L 320.688831 123.555514 
L 321.11546 125.606958 
L 321.542089 126.806975 
L 321.968718 125.606958 
L 322.395347 125.462558 
L 323.248605 151.977754 
L 323.675235 151.977754 
L 324.101864 159.104327 
L 324.528493 176.267362 
L 324.955122 163.455662 
L 325.381751 173.219164 
L 326.235009 184.356128 
L 326.661639 188.400407 
L 327.088268 186.348964 
L 327.514897 193.558911 
L 327.941526 206.648805 
L 328.368155 208.90444 
L 328.794784 225.436803 
L 329.221413 223.38536 
L 329.648043 224.039059 
L 330.074672 224.903668 
L 330.501301 225.497574 
L 330.92793 225.497574 
L 331.354559 218.049856 
L 331.781188 233.473274 
L 332.207817 224.462684 
L 332.634447 219.851188 
L 333.061076 218.414276 
L 333.487705 220.953683 
L 333.914334 229.537793 
L 334.340963 226.500373 
L 334.767592 228.947017 
L 335.194221 226.044148 
L 336.04748 248.744024 
L 336.474109 250.513386 
L 336.900738 243.889648 
L 337.327367 241.838205 
L 337.753996 251.27374 
L 338.607255 277.332711 
L 339.033884 274.429842 
L 339.460513 283.440432 
L 339.887142 282.527981 
L 340.313771 278.425094 
L 340.7404 277.681303 
L 341.167029 281.070444 
L 341.593659 276.685477 
L 342.020288 277.429269 
L 343.300175 270.158296 
L 343.726804 274.440608 
L 344.153433 274.980208 
L 344.580063 274.698127 
L 345.006692 275.237728 
L 345.433321 274.098735 
L 345.85995 265.116467 
L 346.286579 264.576867 
L 347.139837 271.840142 
L 347.566467 272.78264 
L 347.993096 272.78264 
L 348.419725 275.804284 
L 348.846354 269.558883 
L 349.272983 271.070726 
L 349.699612 275.021804 
L 350.126241 275.561404 
L 350.552871 282.548604 
L 350.9795 280.754681 
L 351.406129 277.828779 
L 351.832758 280.54064 
L 352.686016 281.657283 
L 353.112645 274.963353 
L 353.539275 273.19399 
L 353.965904 278.733789 
L 354.392533 286.025826 
L 354.819162 286.307907 
L 355.245791 284.256464 
L 355.67242 284.256464 
L 356.099049 284.568289 
L 356.525679 283.177263 
L 356.952308 285.873506 
L 357.378937 292.027836 
L 357.805566 292.232028 
L 358.232195 288.994694 
L 358.658824 287.794676 
L 359.085453 285.394642 
L 359.512083 286.594659 
L 359.938712 290.157945 
L 360.365341 288.957928 
L 360.79197 290.614171 
L 361.218599 295.119955 
L 362.071857 285.714165 
L 362.498487 282.546079 
L 362.925116 281.271131 
L 363.351745 279.09887 
L 363.778374 274.335567 
L 364.205003 279.842662 
L 364.631632 276.188304 
L 365.058261 276.188304 
L 365.484891 275.631743 
L 365.91152 278.031778 
L 366.764778 279.231795 
L 367.191407 278.692195 
L 368.044665 278.746501 
L 368.471295 273.443597 
L 369.324553 266.280259 
L 369.751182 267.131685 
L 370.177811 269.183128 
L 370.60444 272.594606 
L 371.031069 269.766668 
L 371.457699 262.869831 
L 371.884328 266.637309 
L 372.310957 266.637309 
L 372.737586 272.971064 
L 373.164215 275.562108 
L 373.590844 276.953134 
L 374.017473 272.205448 
L 374.444103 270.154005 
L 374.870732 270.693605 
L 375.297361 270.541797 
L 375.72399 272.59324 
L 376.150619 275.5679 
L 376.577248 270.576822 
L 377.003877 261.710632 
L 377.430507 263.488686 
L 377.857136 260.092826 
L 378.283765 262.786695 
L 378.710394 267.549999 
L 379.563652 273.969545 
L 379.990281 278.072432 
L 380.416911 286.504733 
L 380.84354 288.016577 
L 381.270169 282.713673 
L 381.696798 287.933202 
L 382.123427 287.933202 
L 382.550056 292.696506 
L 383.403315 292.696506 
L 383.829944 280.267029 
L 384.256573 278.063778 
L 384.683202 282.827081 
L 385.109831 284.566699 
L 385.53646 295.910813 
L 385.963089 299.162274 
L 386.389719 293.235718 
L 386.816348 295.378234 
L 387.242977 296.76926 
L 387.669606 295.151705 
L 388.096235 295.151705 
L 388.522864 299.353806 
L 388.949493 301.786543 
L 389.802752 291.899351 
L 390.229381 291.047925 
L 390.65601 291.047925 
L 391.082639 291.605965 
L 391.509268 298.517757 
L 391.935897 298.517757 
L 392.362527 296.77814 
L 392.789156 296.77814 
L 393.215785 298.254958 
L 393.642414 302.716123 
L 394.069043 293.849933 
L 394.922301 290.24821 
L 395.348931 279.218295 
L 395.77556 280.351802 
L 396.202189 277.430492 
L 396.628818 269.452494 
L 397.055447 268.870309 
L 397.482076 269.113189 
L 398.335335 277.749339 
L 398.761964 263.663619 
L 399.188593 264.27815 
L 400.041851 254.305166 
L 400.46848 255.849713 
L 400.895109 268.760181 
L 401.321739 268.675094 
L 402.174997 259.148487 
L 402.601626 249.399591 
L 403.028255 249.399591 
L 403.454884 253.274703 
L 403.881513 250.280762 
L 404.308143 251.480779 
L 404.734772 246.220614 
L 405.161401 246.147533 
L 405.58803 238.526546 
L 406.014659 244.900207 
L 406.441288 239.527662 
L 406.867917 244.759246 
L 407.294547 239.647351 
L 407.721176 239.647351 
L 408.147805 237.231188 
L 408.574434 223.35284 
L 409.001063 213.826233 
L 409.427692 218.156894 
L 409.854321 220.922082 
L 410.280951 221.510602 
L 410.70758 226.143401 
L 411.134209 242.63318 
L 411.560838 238.925494 
L 411.987467 242.48878 
L 412.414096 247.830885 
L 412.840725 238.964694 
L 413.267355 240.578352 
L 413.693984 249.756368 
L 414.120613 253.36224 
L 414.547242 247.398918 
L 414.973871 247.652541 
L 415.4005 246.543596 
L 415.827129 254.191213 
L 416.253759 244.398666 
L 416.680388 244.903651 
L 417.107017 240.800764 
L 417.533646 239.256218 
L 418.386904 243.654607 
L 418.813533 237.939542 
L 419.240163 243.902863 
L 419.666792 236.032499 
L 420.946679 236.032499 
L 421.373308 230.213577 
L 421.799937 230.931192 
L 422.226567 234.129774 
L 422.653196 239.204903 
L 423.079825 229.342887 
L 423.506454 245.767617 
L 423.933083 239.935407 
L 424.359712 245.898728 
L 424.786341 245.898728 
L 425.212971 249.413094 
L 425.6396 256.379649 
L 426.066229 266.926849 
L 426.492858 267.156621 
L 426.919487 264.885847 
L 427.346116 264.297327 
L 427.772745 260.19444 
L 428.199375 249.463791 
L 428.626004 253.171478 
L 429.052633 253.171478 
L 429.479262 259.728705 
L 429.905891 274.870042 
L 430.33252 277.772911 
L 430.759149 288.86997 
L 431.185779 285.120818 
L 431.612408 286.860435 
L 432.039037 293.704927 
L 432.892295 301.995767 
L 433.318924 311.173783 
L 433.745553 312.194375 
L 434.598812 324.904121 
L 435.025441 322.313078 
L 435.45207 322.313078 
L 435.878699 327.367725 
L 436.305328 326.167708 
L 436.731957 338.107327 
L 437.158587 338.107327 
L 437.585216 342.66052 
L 438.011845 340.404885 
L 438.438474 345.49834 
L 438.865103 356.961349 
L 439.291732 351.284005 
L 439.718361 351.944422 
L 440.144991 351.944422 
L 440.57162 347.94917 
L 440.998249 348.944995 
L 441.424878 348.944995 
L 442.278136 353.48177 
L 442.704765 354.550228 
L 443.131395 354.729653 
L 443.558024 355.754205 
L 443.984653 357.593314 
L 444.411282 358.793332 
L 444.837911 353.263448 
L 445.26454 358.421952 
L 445.691169 361.048021 
L 446.117799 358.996577 
L 446.544428 353.548295 
L 447.397686 358.406973 
L 447.824315 354.761306 
L 448.677573 362.30152 
L 449.104203 362.036592 
L 449.530832 354.250995 
L 449.957461 354.250995 
L 450.38409 344.285122 
L 450.810719 346.312983 
L 451.237348 354.795378 
L 451.663977 352.367919 
L 452.090607 351.167902 
L 452.517236 353.567937 
L 452.943865 348.92545 
L 453.370494 348.92545 
L 453.797123 356.596529 
L 454.223752 353.84744 
L 454.650381 354.55517 
L 455.077011 356.810806 
L 455.930269 349.302882 
L 456.356898 355.320966 
L 456.783527 356.711992 
L 457.636785 351.301454 
L 458.063415 356.185575 
L 458.490044 358.650658 
L 458.916673 364.22816 
L 459.343302 359.030967 
L 459.769931 358.622927 
L 460.19656 360.986196 
L 460.623189 355.628986 
L 461.049819 359.297984 
L 461.476448 359.093792 
L 461.903077 367.670945 
L 462.329706 367.670945 
L 462.756335 364.389702 
L 463.182964 372.128955 
L 463.609593 371.02001 
L 464.036223 355.280464 
L 464.462852 352.880429 
L 464.889481 351.961704 
L 465.31611 352.297112 
L 465.742739 346.454608 
L 466.169368 338.135426 
L 466.595997 348.219243 
L 467.022627 349.731086 
L 467.449256 367.969242 
L 467.875885 367.812405 
L 468.302514 368.343562 
L 468.729143 360.328359 
L 469.582402 350.413959 
L 470.009031 355.716863 
L 470.43566 358.428723 
L 470.862289 354.430923 
L 471.288918 362.620596 
L 471.715547 362.662577 
L 472.568806 374.786932 
L 472.995435 369.628428 
L 473.422064 370.613664 
L 474.275322 366.419706 
L 474.701951 373.926982 
L 475.12858 367.651835 
L 475.55521 367.238194 
L 475.981839 359.60925 
L 476.408468 369.30831 
L 477.261726 367.796467 
L 477.688355 376.899553 
L 478.114984 370.897031 
L 478.541614 372.073466 
L 478.968243 369.026197 
L 479.394872 375.985343 
L 479.821501 376.640518 
L 480.24813 370.952708 
L 480.674759 370.593527 
L 481.101388 382.539332 
L 481.528018 384.961209 
L 481.954647 378.428543 
L 482.381276 380.372352 
L 482.807905 380.372352 
L 483.234534 386.956364 
L 483.661163 382.6067 
L 484.087792 379.438614 
L 484.514422 371.16633 
L 484.941051 372.318993 
L 485.36768 368.24416 
L 485.794309 372.561087 
L 486.220938 384.201371 
L 486.647567 385.052797 
L 487.074196 384.657596 
L 488.354084 370.02366 
L 488.780713 371.618878 
L 489.207342 365.683879 
L 489.633971 356.469097 
L 490.0606 360.077569 
L 490.48723 355.626091 
L 490.913859 358.337952 
L 491.340488 363.383336 
L 491.767117 355.87606 
L 492.193746 356.931678 
L 493.047004 352.828791 
L 493.473634 341.738705 
L 493.900263 334.732949 
L 494.753521 329.072333 
L 495.18015 333.631445 
L 495.606779 331.459184 
L 496.033408 331.459184 
L 496.460038 333.302119 
L 496.886667 332.906918 
L 497.313296 330.855475 
L 497.739925 331.214655 
L 498.166554 330.630605 
L 498.593183 328.208728 
L 499.019812 322.449598 
L 499.446442 307.080487 
L 499.873071 307.080487 
L 500.2997 300.496475 
L 500.726329 300.746732 
L 501.152958 306.342906 
L 501.579587 306.342906 
L 502.432846 304.518512 
L 502.859475 304.867103 
L 503.286104 296.986889 
L 503.712733 297.283097 
L 504.139362 298.620796 
L 504.565991 303.575108 
L 504.99262 302.317621 
L 505.41925 302.712821 
L 505.845879 296.870317 
L 506.272508 296.870317 
L 506.699137 303.751575 
L 507.125766 301.34312 
L 507.552395 301.34312 
L 507.979024 298.63126 
L 508.832283 298.63126 
L 509.258912 298.031867 
L 509.685541 298.031867 
L 510.11217 297.492267 
L 510.538799 307.893883 
L 510.965428 313.903813 
L 511.392058 315.012759 
L 512.245316 316.04361 
L 512.671945 317.381308 
L 513.098574 319.364711 
L 513.525203 308.945076 
L 513.951832 302.155096 
L 514.378462 300.858033 
L 514.805091 302.514276 
L 515.23172 292.399148 
L 515.658349 292.399148 
L 516.084978 294.906817 
L 516.511607 311.248172 
L 516.938236 307.759816 
L 517.364866 302.25272 
L 517.791495 300.946846 
L 518.218124 298.037766 
L 518.644753 296.190514 
L 519.071382 298.333029 
L 519.498011 295.16736 
L 519.92464 294.818769 
L 520.35127 295.670195 
L 520.777899 297.56983 
L 521.204528 297.82735 
L 521.631157 294.92448 
L 522.057786 296.181968 
L 522.484415 303.585235 
L 522.911044 306.441495 
L 523.337674 303.190035 
L 523.764303 304.011716 
L 524.190932 304.011716 
L 524.617561 298.708812 
L 525.04419 296.227687 
L 525.470819 296.227687 
L 525.897448 294.176243 
L 526.324078 303.362703 
L 527.177336 308.209382 
L 527.603965 296.865268 
L 528.030594 294.609633 
L 528.457223 293.500687 
L 529.310482 283.268238 
L 529.737111 281.930539 
L 530.16374 283.198597 
L 530.590369 289.974656 
L 531.443627 295.014429 
L 531.870256 293.358187 
L 532.296886 299.117316 
L 532.723515 299.968742 
L 533.150144 305.271646 
L 533.576773 296.596464 
L 534.430031 304.200889 
L 535.28329 302.174213 
L 535.709919 304.021464 
L 536.136548 305.329116 
L 536.563177 303.277672 
L 537.416435 312.272562 
L 537.843064 315.379623 
L 538.269694 320.333935 
L 538.696323 321.724961 
L 539.122952 321.724961 
L 539.549581 306.822947 
L 540.402839 309.41399 
L 540.829468 312.496284 
L 541.256098 311.296267 
L 541.682727 318.028222 
L 542.109356 320.290017 
L 542.535985 320.290017 
L 542.962614 315.382313 
L 543.389243 304.995836 
L 543.815872 301.540184 
L 544.242502 301.540184 
L 544.669131 308.097411 
L 545.09576 311.348872 
L 545.522389 317.851793 
L 545.949018 322.410905 
L 546.375647 322.410905 
L 547.228906 327.45629 
L 547.655535 324.857838 
L 548.082164 334.059437 
L 548.508793 327.328064 
L 549.362051 327.328064 
L 550.21531 322.631271 
L 550.641939 329.489225 
L 551.068568 320.914379 
L 551.495197 322.965822 
L 551.921826 322.396477 
L 552.348455 322.396477 
L 552.775084 321.453979 
L 553.201714 318.94631 
L 553.628343 320.997753 
L 554.054972 315.445333 
L 554.481601 312.338273 
L 554.90823 308.235386 
L 555.334859 296.563371 
L 555.761488 293.120902 
L 556.188118 279.491408 
L 556.614747 282.440892 
L 557.041376 272.914284 
L 557.468005 277.017171 
L 557.894634 266.97573 
L 558.321263 266.97573 
L 558.747892 266.398104 
L 559.174522 258.52774 
L 559.601151 265.486886 
L 560.02778 260.867982 
L 560.454409 257.904088 
L 560.881038 263.555584 
L 561.307667 261.50414 
L 561.734296 266.655236 
L 562.160926 266.655236 
L 562.587555 258.100872 
L 563.014184 253.54176 
L 563.440813 256.444629 
L 563.867442 254.111105 
L 564.294071 248.147784 
L 564.7207 235.665923 
L 565.14733 219.840586 
L 565.573959 223.860098 
L 566.000588 215.770403 
L 566.427217 213.718959 
L 566.853846 215.512883 
L 567.280475 215.512883 
L 567.707104 213.418233 
L 568.133734 212.154646 
L 568.560363 207.391343 
L 568.986992 199.376578 
L 569.413621 186.947101 
L 569.84025 187.889599 
L 570.693508 169.845393 
L 571.120138 170.50581 
L 571.546767 159.983377 
L 571.973396 159.983377 
L 572.400025 165.501062 
L 572.826654 162.789201 
L 573.253283 177.930538 
L 573.679912 184.531245 
L 574.106542 185.191662 
L 574.533171 183.140219 
L 575.386429 185.060551 
L 575.813058 184.209125 
L 576.239687 192.29882 
L 576.666316 185.339673 
L 577.092946 186.00009 
L 577.519575 189.707777 
L 577.946204 187.307742 
L 578.372833 193.462072 
L 578.799462 184.747689 
L 579.226091 186.259532 
L 579.65272 179.984385 
L 580.07935 177.081516 
L 580.505979 170.927186 
L 580.932608 161.74917 
L 581.359237 161.74917 
L 581.785866 171.670978 
L 582.212495 175.773865 
L 582.639124 175.773865 
L 583.065754 183.86356 
L 583.492383 174.99737 
L 584.345641 174.99737 
L 584.77227 179.006293 
L 585.198899 178.262501 
L 585.625528 173.103997 
L 586.052158 179.636663 
L 586.478787 181.148506 
L 586.905416 184.993873 
L 587.332045 194.171889 
L 587.758674 206.28954 
L 588.185303 203.038079 
L 588.611932 214.61613 
L 589.038562 217.867591 
L 589.465191 214.61613 
L 589.89182 216.127973 
L 590.318449 207.945783 
L 590.745078 202.642879 
L 591.171707 216.272373 
L 591.598336 216.272373 
L 592.024966 220.962596 
L 592.451595 220.111171 
L 593.304853 220.111171 
L 593.731482 209.193537 
L 594.158111 210.189363 
L 594.58474 210.189363 
L 595.01137 208.137919 
L 595.437999 204.886459 
L 595.864628 206.937902 
L 596.291257 205.426059 
L 596.717886 210.426258 
L 597.144515 208.283742 
L 597.571144 211.535203 
L 597.997774 220.713219 
L 598.424403 220.713219 
L 598.851032 222.369462 
L 599.277661 234.60793 
L 599.70429 237.859391 
L 600.130919 235.807947 
L 600.557548 246.725581 
L 600.984178 246.725581 
L 601.410807 248.381824 
L 601.837436 240.270014 
L 602.690694 260.11363 
L 603.117323 261.725809 
L 603.543952 275.151111 
L 603.970582 271.966161 
L 604.397211 271.966161 
L 604.82384 270.766144 
L 605.250469 279.914415 
L 605.677098 279.914415 
L 606.103727 276.662954 
L 606.956986 283.165875 
L 607.383615 292.548083 
L 607.810244 295.799544 
L 608.236873 293.087683 
L 608.663502 293.087683 
L 609.090131 290.375823 
L 609.51676 290.375823 
L 609.94339 287.381882 
L 610.370019 287.381882 
L 610.796648 301.92141 
L 611.223277 311.843218 
L 611.649906 309.791774 
L 612.076535 308.400748 
L 612.503164 307.549322 
L 613.356423 307.549322 
L 614.209681 317.121116 
L 614.63631 314.878664 
L 615.062939 314.878664 
L 615.489568 313.366821 
L 615.916198 312.45437 
L 616.342827 309.742509 
L 616.769456 309.742509 
L 617.196085 311.793953 
L 617.622714 310.282109 
L 618.475972 313.184979 
L 619.329231 321.739343 
L 619.75586 321.739343 
L 620.182489 322.178608 
L 620.609118 320.565572 
L 621.035747 322.617015 
L 621.462376 326.028494 
L 621.889006 326.028494 
L 622.315635 324.23457 
L 624.022151 324.23457 
L 624.44878 321.522709 
L 624.87541 321.522709 
L 625.302039 319.471266 
L 625.728668 318.271249 
L 626.155297 320.131683 
L 626.581926 320.131683 
L 627.008555 321.074181 
L 627.435184 319.417938 
L 627.861814 315.796044 
L 628.288443 314.596027 
L 628.715072 315.135627 
L 629.141701 315.01481 
L 629.56833 315.01481 
L 629.994959 311.763349 
L 630.421588 312.614775 
L 630.848218 311.414758 
L 631.274847 312.266183 
L 631.701476 314.508635 
L 632.128105 314.508635 
L 632.554734 319.728165 
L 632.981363 318.984373 
L 633.407992 316.932929 
L 633.834622 321.272711 
L 634.261251 321.272711 
L 634.68788 328.627058 
L 635.114509 330.947742 
L 635.541138 328.044873 
L 635.967767 326.844856 
L 636.394396 321.890543 
L 636.821026 319.8391 
L 637.247655 319.8391 
L 637.674284 318.944467 
L 638.527542 312.821128 
L 638.954171 312.821128 
L 639.380801 308.718242 
L 640.234059 308.718242 
L 640.660688 324.399179 
L 641.513946 324.399179 
L 641.940575 330.553509 
L 642.367205 330.553509 
L 642.793834 324.626954 
L 643.220463 325.47838 
L 643.647092 319.86365 
L 644.073721 315.760763 
L 644.50035 307.890399 
L 644.926979 297.512365 
L 645.780238 286.52738 
L 646.206867 280.168858 
L 646.633496 272.079163 
L 647.060125 275.330624 
L 647.913383 263.084052 
L 648.340013 262.232626 
L 648.766642 254.142931 
L 649.6199 246.383703 
L 650.046529 241.620399 
L 650.899787 223.135106 
L 651.326417 219.808715 
L 652.179675 198.003321 
L 652.606304 198.003321 
L 653.032933 183.17381 
L 653.886191 161.529551 
L 654.312821 156.766248 
L 654.73945 150.0959 
L 655.166079 147.193031 
L 655.592708 141.675346 
L 656.019337 128.045852 
L 656.445966 119.956157 
L 656.872595 119.956157 
L 657.299225 111.089967 
L 657.725854 88.876363 
L 658.579112 64.868836 
L 659.005741 58.714506 
L 659.43237 57.076703 
L 659.858999 56.728111 
L 660.285629 56.728111 
L 661.138887 48.05293 
L 661.565516 53.416859 
L 661.992145 63.794892 
L 662.418774 65.646736 
L 662.845403 63.415867 
L 663.272033 64.159659 
L 663.698662 70.786432 
L 664.125291 66.237169 
L 664.55192 63.360843 
L 664.978549 62.286785 
L 665.405178 57.805562 
L 665.831807 57.029067 
L 666.258437 57.082395 
L 666.685066 43.683636 
L 667.111695 44.097277 
L 667.964953 51.63726 
L 668.391582 48.809322 
L 668.818211 52.201743 
L 669.244841 47.068005 
L 669.67147 46.332657 
L 670.098099 56.031718 
L 670.524728 60.416685 
L 670.951357 74.046179 
L 671.377986 71.68291 
L 671.804615 68.43145 
L 672.231245 57.704825 
L 672.657874 63.222509 
L 673.084503 66.47397 
L 673.511132 71.814576 
L 673.937761 71.814576 
L 674.791019 84.062715 
L 675.217649 97.692209 
L 675.644278 99.980547 
L 676.070907 96.213069 
L 676.497536 89.761176 
L 676.924165 93.623312 
L 677.350794 86.656757 
L 677.777423 92.946665 
L 678.204053 103.864298 
L 678.630682 108.026977 
L 679.057311 100.156612 
L 679.48394 101.092847 
L 679.910569 98.189977 
L 680.337198 93.350707 
L 680.763827 98.146181 
L 681.190457 92.317411 
L 681.617086 106.267174 
L 682.043715 103.820531 
L 682.470344 96.723703 
L 682.896973 104.389876 
L 683.323602 100.68219 
L 684.176861 110.190357 
L 684.60349 108.641748 
L 685.030119 109.320721 
L 685.456748 115.475051 
L 685.883377 116.772853 
L 686.310006 119.280522 
L 686.736635 116.596983 
L 687.163265 116.596983 
L 687.589894 121.617807 
L 688.443152 128.462299 
L 689.29641 140.687206 
L 689.723039 140.687206 
L 690.149669 150.802334 
L 690.576298 152.0885 
L 691.002927 151.483062 
L 691.429556 151.204304 
L 691.856185 151.898893 
L 692.282814 150.484095 
L 692.709443 156.580955 
L 693.136073 157.884829 
L 693.562702 163.442089 
L 693.989331 167.055118 
L 694.41596 174.021673 
L 694.842589 175.206929 
L 695.269218 174.794768 
L 695.695847 174.794768 
L 696.122477 181.672265 
L 696.549106 183.321333 
L 696.975735 195.75081 
L 697.402364 203.23543 
L 697.828993 199.902879 
L 698.255622 212.02053 
L 698.682251 199.540024 
L 699.53551 220.026246 
L 699.962139 221.226264 
L 700.815397 235.9724 
L 701.242026 237.484244 
L 701.668655 242.056539 
L 702.095285 244.107982 
L 702.521914 242.470179 
L 702.948543 242.470179 
L 703.375172 250.340544 
L 703.801801 253.759431 
L 704.655059 264.15602 
L 705.081689 260.592733 
L 705.508318 260.774479 
L 705.934947 263.267386 
L 706.361576 272.868924 
L 706.788205 269.587719 
L 707.214834 265.01239 
L 707.641463 266.080112 
L 708.068093 265.294524 
L 708.494722 261.299272 
L 708.921351 261.063635 
L 709.34798 257.319929 
L 709.774609 256.745303 
L 710.627867 261.741343 
L 711.054497 258.717657 
L 711.481126 254.470371 
L 711.907755 255.487261 
L 712.334384 253.391753 
L 712.761013 246.425198 
L 713.187642 237.040032 
L 713.614271 237.287958 
L 714.040901 239.753042 
L 714.46753 244.234265 
L 714.894159 243.573848 
L 715.320788 237.284967 
L 715.747417 232.76844 
L 716.174046 235.671309 
L 716.600675 235.484929 
L 717.027305 237.536372 
L 717.453934 237.536372 
L 717.880563 232.335283 
L 718.307192 228.771996 
L 718.733821 231.674866 
L 719.16045 228.111579 
L 719.587079 229.749382 
L 720.440338 219.776398 
L 720.866967 209.85459 
L 721.293596 206.830904 
L 722.573483 202.726538 
L 723.000113 203.174901 
L 723.426742 201.663058 
L 723.853371 204.944263 
L 724.28 209.782498 
L 724.28 209.782498 
" style="fill:none;stroke:#ff7f0e;stroke-linecap:square;stroke-width:1.5;"/>
   </g>
   <g id="patch_3">
    <path d="M 42.1 404.12 
L 42.1 26.52 
" style="fill:none;stroke:#000000;stroke-linecap:square;stroke-linejoin:miter;stroke-width:0.8;"/>
   </g>
   <g id="patch_4">
    <path d="M 724.28 404.12 
L 724.28 26.52 
" style="fill:none;stroke:#000000;stroke-linecap:square;stroke-linejoin:miter;stroke-width:0.8;"/>
   </g>
   <g id="patch_5">
    <path d="M 42.1 404.12 
L 724.28 404.12 
" style="fill:none;stroke:#000000;stroke-linecap:square;stroke-linejoin:miter;stroke-width:0.8;"/>
   </g>
   <g id="patch_6">
    <path d="M 42.1 26.52 
L 724.28 26.52 
" style="fill:none;stroke:#000000;stroke-linecap:square;stroke-linejoin:miter;stroke-width:0.8;"/>
   </g>
   <g id="text_15">
    <!-- gridworld_5x5_100_2_8_1337__2: episode duration in steps log-relative to `htm_2_1g`, MA=40 -->
    <defs>
     <path d="M 45.40625 27.984375 
Q 45.40625 37.75 41.375 43.109375 
Q 37.359375 48.484375 30.078125 48.484375 
Q 22.859375 48.484375 18.828125 43.109375 
Q 14.796875 37.75 14.796875 27.984375 
Q 14.796875 18.265625 18.828125 12.890625 
Q 22.859375 7.515625 30.078125 7.515625 
Q 37.359375 7.515625 41.375 12.890625 
Q 45.40625 18.265625 45.40625 27.984375 
z
M 54.390625 6.78125 
Q 54.390625 -7.171875 48.1875 -13.984375 
Q 42 -20.796875 29.203125 -20.796875 
Q 24.46875 -20.796875 20.265625 -20.09375 
Q 16.0625 -19.390625 12.109375 -17.921875 
L 12.109375 -9.1875 
Q 16.0625 -11.328125 19.921875 -12.34375 
Q 23.78125 -13.375 27.78125 -13.375 
Q 36.625 -13.375 41.015625 -8.765625 
Q 45.40625 -4.15625 45.40625 5.171875 
L 45.40625 9.625 
Q 42.625 4.78125 38.28125 2.390625 
Q 33.9375 0 27.875 0 
Q 17.828125 0 11.671875 7.65625 
Q 5.515625 15.328125 5.515625 27.984375 
Q 5.515625 40.671875 11.671875 48.328125 
Q 17.828125 56 27.875 56 
Q 33.9375 56 38.28125 53.609375 
Q 42.625 51.21875 45.40625 46.390625 
L 45.40625 54.6875 
L 54.390625 54.6875 
z
" id="DejaVuSans-103"/>
     <path d="M 41.109375 46.296875 
Q 39.59375 47.171875 37.8125 47.578125 
Q 36.03125 48 33.890625 48 
Q 26.265625 48 22.1875 43.046875 
Q 18.109375 38.09375 18.109375 28.8125 
L 18.109375 0 
L 9.078125 0 
L 9.078125 54.6875 
L 18.109375 54.6875 
L 18.109375 46.1875 
Q 20.953125 51.171875 25.484375 53.578125 
Q 30.03125 56 36.53125 56 
Q 37.453125 56 38.578125 55.875 
Q 39.703125 55.765625 41.0625 55.515625 
z
" id="DejaVuSans-114"/>
     <path d="M 9.421875 54.6875 
L 18.40625 54.6875 
L 18.40625 0 
L 9.421875 0 
z
M 9.421875 75.984375 
L 18.40625 75.984375 
L 18.40625 64.59375 
L 9.421875 64.59375 
z
" id="DejaVuSans-105"/>
     <path d="M 45.40625 46.390625 
L 45.40625 75.984375 
L 54.390625 75.984375 
L 54.390625 0 
L 45.40625 0 
L 45.40625 8.203125 
Q 42.578125 3.328125 38.25 0.953125 
Q 33.9375 -1.421875 27.875 -1.421875 
Q 17.96875 -1.421875 11.734375 6.484375 
Q 5.515625 14.40625 5.515625 27.296875 
Q 5.515625 40.1875 11.734375 48.09375 
Q 17.96875 56 27.875 56 
Q 33.9375 56 38.25 53.625 
Q 42.578125 51.265625 45.40625 46.390625 
z
M 14.796875 27.296875 
Q 14.796875 17.390625 18.875 11.75 
Q 22.953125 6.109375 30.078125 6.109375 
Q 37.203125 6.109375 41.296875 11.75 
Q 45.40625 17.390625 45.40625 27.296875 
Q 45.40625 37.203125 41.296875 42.84375 
Q 37.203125 48.484375 30.078125 48.484375 
Q 22.953125 48.484375 18.875 42.84375 
Q 14.796875 37.203125 14.796875 27.296875 
z
" id="DejaVuSans-100"/>
     <path d="M 4.203125 54.6875 
L 13.1875 54.6875 
L 24.421875 12.015625 
L 35.59375 54.6875 
L 46.1875 54.6875 
L 57.421875 12.015625 
L 68.609375 54.6875 
L 77.59375 54.6875 
L 63.28125 0 
L 52.6875 0 
L 40.921875 44.828125 
L 29.109375 0 
L 18.5 0 
z
" id="DejaVuSans-119"/>
     <path d="M 30.609375 48.390625 
Q 23.390625 48.390625 19.1875 42.75 
Q 14.984375 37.109375 14.984375 27.296875 
Q 14.984375 17.484375 19.15625 11.84375 
Q 23.34375 6.203125 30.609375 6.203125 
Q 37.796875 6.203125 41.984375 11.859375 
Q 46.1875 17.53125 46.1875 27.296875 
Q 46.1875 37.015625 41.984375 42.703125 
Q 37.796875 48.390625 30.609375 48.390625 
z
M 30.609375 56 
Q 42.328125 56 49.015625 48.375 
Q 55.71875 40.765625 55.71875 27.296875 
Q 55.71875 13.875 49.015625 6.21875 
Q 42.328125 -1.421875 30.609375 -1.421875 
Q 18.84375 -1.421875 12.171875 6.21875 
Q 5.515625 13.875 5.515625 27.296875 
Q 5.515625 40.765625 12.171875 48.375 
Q 18.84375 56 30.609375 56 
z
" id="DejaVuSans-111"/>
     <path d="M 9.421875 75.984375 
L 18.40625 75.984375 
L 18.40625 0 
L 9.421875 0 
z
" id="DejaVuSans-108"/>
     <path d="M 50.984375 -16.609375 
L 50.984375 -23.578125 
L -0.984375 -23.578125 
L -0.984375 -16.609375 
z
" id="DejaVuSans-95"/>
     <path d="M 54.890625 54.6875 
L 35.109375 28.078125 
L 55.90625 0 
L 45.3125 0 
L 29.390625 21.484375 
L 13.484375 0 
L 2.875 0 
L 24.125 28.609375 
L 4.6875 54.6875 
L 15.28125 54.6875 
L 29.78125 35.203125 
L 44.28125 54.6875 
z
" id="DejaVuSans-120"/>
     <path d="M 40.578125 39.3125 
Q 47.65625 37.796875 51.625 33 
Q 55.609375 28.21875 55.609375 21.1875 
Q 55.609375 10.40625 48.1875 4.484375 
Q 40.765625 -1.421875 27.09375 -1.421875 
Q 22.515625 -1.421875 17.65625 -0.515625 
Q 12.796875 0.390625 7.625 2.203125 
L 7.625 11.71875 
Q 11.71875 9.328125 16.59375 8.109375 
Q 21.484375 6.890625 26.8125 6.890625 
Q 36.078125 6.890625 40.9375 10.546875 
Q 45.796875 14.203125 45.796875 21.1875 
Q 45.796875 27.640625 41.28125 31.265625 
Q 36.765625 34.90625 28.71875 34.90625 
L 20.21875 34.90625 
L 20.21875 43.015625 
L 29.109375 43.015625 
Q 36.375 43.015625 40.234375 45.921875 
Q 44.09375 48.828125 44.09375 54.296875 
Q 44.09375 59.90625 40.109375 62.90625 
Q 36.140625 65.921875 28.71875 65.921875 
Q 24.65625 65.921875 20.015625 65.03125 
Q 15.375 64.15625 9.8125 62.3125 
L 9.8125 71.09375 
Q 15.4375 72.65625 20.34375 73.4375 
Q 25.25 74.21875 29.59375 74.21875 
Q 40.828125 74.21875 47.359375 69.109375 
Q 53.90625 64.015625 53.90625 55.328125 
Q 53.90625 49.265625 50.4375 45.09375 
Q 46.96875 40.921875 40.578125 39.3125 
z
" id="DejaVuSans-51"/>
     <path d="M 8.203125 72.90625 
L 55.078125 72.90625 
L 55.078125 68.703125 
L 28.609375 0 
L 18.3125 0 
L 43.21875 64.59375 
L 8.203125 64.59375 
z
" id="DejaVuSans-55"/>
     <path d="M 11.71875 12.40625 
L 22.015625 12.40625 
L 22.015625 0 
L 11.71875 0 
z
M 11.71875 51.703125 
L 22.015625 51.703125 
L 22.015625 39.3125 
L 11.71875 39.3125 
z
" id="DejaVuSans-58"/>
     <path id="DejaVuSans-32"/>
     <path d="M 56.203125 29.59375 
L 56.203125 25.203125 
L 14.890625 25.203125 
Q 15.484375 15.921875 20.484375 11.0625 
Q 25.484375 6.203125 34.421875 6.203125 
Q 39.59375 6.203125 44.453125 7.46875 
Q 49.3125 8.734375 54.109375 11.28125 
L 54.109375 2.78125 
Q 49.265625 0.734375 44.1875 -0.34375 
Q 39.109375 -1.421875 33.890625 -1.421875 
Q 20.796875 -1.421875 13.15625 6.1875 
Q 5.515625 13.8125 5.515625 26.8125 
Q 5.515625 40.234375 12.765625 48.109375 
Q 20.015625 56 32.328125 56 
Q 43.359375 56 49.78125 48.890625 
Q 56.203125 41.796875 56.203125 29.59375 
z
M 47.21875 32.234375 
Q 47.125 39.59375 43.09375 43.984375 
Q 39.0625 48.390625 32.421875 48.390625 
Q 24.90625 48.390625 20.390625 44.140625 
Q 15.875 39.890625 15.1875 32.171875 
z
" id="DejaVuSans-101"/>
     <path d="M 18.109375 8.203125 
L 18.109375 -20.796875 
L 9.078125 -20.796875 
L 9.078125 54.6875 
L 18.109375 54.6875 
L 18.109375 46.390625 
Q 20.953125 51.265625 25.265625 53.625 
Q 29.59375 56 35.59375 56 
Q 45.5625 56 51.78125 48.09375 
Q 58.015625 40.1875 58.015625 27.296875 
Q 58.015625 14.40625 51.78125 6.484375 
Q 45.5625 -1.421875 35.59375 -1.421875 
Q 29.59375 -1.421875 25.265625 0.953125 
Q 20.953125 3.328125 18.109375 8.203125 
z
M 48.6875 27.296875 
Q 48.6875 37.203125 44.609375 42.84375 
Q 40.53125 48.484375 33.40625 48.484375 
Q 26.265625 48.484375 22.1875 42.84375 
Q 18.109375 37.203125 18.109375 27.296875 
Q 18.109375 17.390625 22.1875 11.75 
Q 26.265625 6.109375 33.40625 6.109375 
Q 40.53125 6.109375 44.609375 11.75 
Q 48.6875 17.390625 48.6875 27.296875 
z
" id="DejaVuSans-112"/>
     <path d="M 44.28125 53.078125 
L 44.28125 44.578125 
Q 40.484375 46.53125 36.375 47.5 
Q 32.28125 48.484375 27.875 48.484375 
Q 21.1875 48.484375 17.84375 46.4375 
Q 14.5 44.390625 14.5 40.28125 
Q 14.5 37.15625 16.890625 35.375 
Q 19.28125 33.59375 26.515625 31.984375 
L 29.59375 31.296875 
Q 39.15625 29.25 43.1875 25.515625 
Q 47.21875 21.78125 47.21875 15.09375 
Q 47.21875 7.46875 41.1875 3.015625 
Q 35.15625 -1.421875 24.609375 -1.421875 
Q 20.21875 -1.421875 15.453125 -0.5625 
Q 10.6875 0.296875 5.421875 2 
L 5.421875 11.28125 
Q 10.40625 8.6875 15.234375 7.390625 
Q 20.0625 6.109375 24.8125 6.109375 
Q 31.15625 6.109375 34.5625 8.28125 
Q 37.984375 10.453125 37.984375 14.40625 
Q 37.984375 18.0625 35.515625 20.015625 
Q 33.0625 21.96875 24.703125 23.78125 
L 21.578125 24.515625 
Q 13.234375 26.265625 9.515625 29.90625 
Q 5.8125 33.546875 5.8125 39.890625 
Q 5.8125 47.609375 11.28125 51.796875 
Q 16.75 56 26.8125 56 
Q 31.78125 56 36.171875 55.265625 
Q 40.578125 54.546875 44.28125 53.078125 
z
" id="DejaVuSans-115"/>
     <path d="M 8.5 21.578125 
L 8.5 54.6875 
L 17.484375 54.6875 
L 17.484375 21.921875 
Q 17.484375 14.15625 20.5 10.265625 
Q 23.53125 6.390625 29.59375 6.390625 
Q 36.859375 6.390625 41.078125 11.03125 
Q 45.3125 15.671875 45.3125 23.6875 
L 45.3125 54.6875 
L 54.296875 54.6875 
L 54.296875 0 
L 45.3125 0 
L 45.3125 8.40625 
Q 42.046875 3.421875 37.71875 1 
Q 33.40625 -1.421875 27.6875 -1.421875 
Q 18.265625 -1.421875 13.375 4.4375 
Q 8.5 10.296875 8.5 21.578125 
z
M 31.109375 56 
z
" id="DejaVuSans-117"/>
     <path d="M 34.28125 27.484375 
Q 23.390625 27.484375 19.1875 25 
Q 14.984375 22.515625 14.984375 16.5 
Q 14.984375 11.71875 18.140625 8.90625 
Q 21.296875 6.109375 26.703125 6.109375 
Q 34.1875 6.109375 38.703125 11.40625 
Q 43.21875 16.703125 43.21875 25.484375 
L 43.21875 27.484375 
z
M 52.203125 31.203125 
L 52.203125 0 
L 43.21875 0 
L 43.21875 8.296875 
Q 40.140625 3.328125 35.546875 0.953125 
Q 30.953125 -1.421875 24.3125 -1.421875 
Q 15.921875 -1.421875 10.953125 3.296875 
Q 6 8.015625 6 15.921875 
Q 6 25.140625 12.171875 29.828125 
Q 18.359375 34.515625 30.609375 34.515625 
L 43.21875 34.515625 
L 43.21875 35.40625 
Q 43.21875 41.609375 39.140625 45 
Q 35.0625 48.390625 27.6875 48.390625 
Q 23 48.390625 18.546875 47.265625 
Q 14.109375 46.140625 10.015625 43.890625 
L 10.015625 52.203125 
Q 14.9375 54.109375 19.578125 55.046875 
Q 24.21875 56 28.609375 56 
Q 40.484375 56 46.34375 49.84375 
Q 52.203125 43.703125 52.203125 31.203125 
z
" id="DejaVuSans-97"/>
     <path d="M 18.3125 70.21875 
L 18.3125 54.6875 
L 36.8125 54.6875 
L 36.8125 47.703125 
L 18.3125 47.703125 
L 18.3125 18.015625 
Q 18.3125 11.328125 20.140625 9.421875 
Q 21.96875 7.515625 27.59375 7.515625 
L 36.8125 7.515625 
L 36.8125 0 
L 27.59375 0 
Q 17.1875 0 13.234375 3.875 
Q 9.28125 7.765625 9.28125 18.015625 
L 9.28125 47.703125 
L 2.6875 47.703125 
L 2.6875 54.6875 
L 9.28125 54.6875 
L 9.28125 70.21875 
z
" id="DejaVuSans-116"/>
     <path d="M 54.890625 33.015625 
L 54.890625 0 
L 45.90625 0 
L 45.90625 32.71875 
Q 45.90625 40.484375 42.875 44.328125 
Q 39.84375 48.1875 33.796875 48.1875 
Q 26.515625 48.1875 22.3125 43.546875 
Q 18.109375 38.921875 18.109375 30.90625 
L 18.109375 0 
L 9.078125 0 
L 9.078125 54.6875 
L 18.109375 54.6875 
L 18.109375 46.1875 
Q 21.34375 51.125 25.703125 53.5625 
Q 30.078125 56 35.796875 56 
Q 45.21875 56 50.046875 50.171875 
Q 54.890625 44.34375 54.890625 33.015625 
z
" id="DejaVuSans-110"/>
     <path d="M 4.890625 31.390625 
L 31.203125 31.390625 
L 31.203125 23.390625 
L 4.890625 23.390625 
z
" id="DejaVuSans-45"/>
     <path d="M 2.984375 54.6875 
L 12.5 54.6875 
L 29.59375 8.796875 
L 46.6875 54.6875 
L 56.203125 54.6875 
L 35.6875 0 
L 23.484375 0 
z
" id="DejaVuSans-118"/>
     <path d="M 17.921875 79.984375 
L 31.6875 61.71875 
L 24.21875 61.71875 
L 8.296875 79.984375 
z
" id="DejaVuSans-96"/>
     <path d="M 54.890625 33.015625 
L 54.890625 0 
L 45.90625 0 
L 45.90625 32.71875 
Q 45.90625 40.484375 42.875 44.328125 
Q 39.84375 48.1875 33.796875 48.1875 
Q 26.515625 48.1875 22.3125 43.546875 
Q 18.109375 38.921875 18.109375 30.90625 
L 18.109375 0 
L 9.078125 0 
L 9.078125 75.984375 
L 18.109375 75.984375 
L 18.109375 46.1875 
Q 21.34375 51.125 25.703125 53.5625 
Q 30.078125 56 35.796875 56 
Q 45.21875 56 50.046875 50.171875 
Q 54.890625 44.34375 54.890625 33.015625 
z
" id="DejaVuSans-104"/>
     <path d="M 52 44.1875 
Q 55.375 50.25 60.0625 53.125 
Q 64.75 56 71.09375 56 
Q 79.640625 56 84.28125 50.015625 
Q 88.921875 44.046875 88.921875 33.015625 
L 88.921875 0 
L 79.890625 0 
L 79.890625 32.71875 
Q 79.890625 40.578125 77.09375 44.375 
Q 74.3125 48.1875 68.609375 48.1875 
Q 61.625 48.1875 57.5625 43.546875 
Q 53.515625 38.921875 53.515625 30.90625 
L 53.515625 0 
L 44.484375 0 
L 44.484375 32.71875 
Q 44.484375 40.625 41.703125 44.40625 
Q 38.921875 48.1875 33.109375 48.1875 
Q 26.21875 48.1875 22.15625 43.53125 
Q 18.109375 38.875 18.109375 30.90625 
L 18.109375 0 
L 9.078125 0 
L 9.078125 54.6875 
L 18.109375 54.6875 
L 18.109375 46.1875 
Q 21.1875 51.21875 25.484375 53.609375 
Q 29.78125 56 35.6875 56 
Q 41.65625 56 45.828125 52.96875 
Q 50 49.953125 52 44.1875 
z
" id="DejaVuSans-109"/>
     <path d="M 11.71875 12.40625 
L 22.015625 12.40625 
L 22.015625 4 
L 14.015625 -11.625 
L 7.71875 -11.625 
L 11.71875 4 
z
" id="DejaVuSans-44"/>
     <path d="M 9.8125 72.90625 
L 24.515625 72.90625 
L 43.109375 23.296875 
L 61.8125 72.90625 
L 76.515625 72.90625 
L 76.515625 0 
L 66.890625 0 
L 66.890625 64.015625 
L 48.09375 14.015625 
L 38.1875 14.015625 
L 19.390625 64.015625 
L 19.390625 0 
L 9.8125 0 
z
" id="DejaVuSans-77"/>
     <path d="M 34.1875 63.1875 
L 20.796875 26.90625 
L 47.609375 26.90625 
z
M 28.609375 72.90625 
L 39.796875 72.90625 
L 67.578125 0 
L 57.328125 0 
L 50.6875 18.703125 
L 17.828125 18.703125 
L 11.1875 0 
L 0.78125 0 
z
" id="DejaVuSans-65"/>
     <path d="M 10.59375 45.40625 
L 73.1875 45.40625 
L 73.1875 37.203125 
L 10.59375 37.203125 
z
M 10.59375 25.484375 
L 73.1875 25.484375 
L 73.1875 17.1875 
L 10.59375 17.1875 
z
" id="DejaVuSans-61"/>
    </defs>
    <g transform="translate(97.60125 20.52)scale(0.12 -0.12)">
     <use xlink:href="#DejaVuSans-103"/>
     <use x="63.476562" xlink:href="#DejaVuSans-114"/>
     <use x="104.589844" xlink:href="#DejaVuSans-105"/>
     <use x="132.373047" xlink:href="#DejaVuSans-100"/>
     <use x="195.849609" xlink:href="#DejaVuSans-119"/>
     <use x="277.636719" xlink:href="#DejaVuSans-111"/>
     <use x="338.818359" xlink:href="#DejaVuSans-114"/>
     <use x="379.931641" xlink:href="#DejaVuSans-108"/>
     <use x="407.714844" xlink:href="#DejaVuSans-100"/>
     <use x="471.191406" xlink:href="#DejaVuSans-95"/>
     <use x="521.191406" xlink:href="#DejaVuSans-53"/>
     <use x="584.814453" xlink:href="#DejaVuSans-120"/>
     <use x="643.994141" xlink:href="#DejaVuSans-53"/>
     <use x="707.617188" xlink:href="#DejaVuSans-95"/>
     <use x="757.617188" xlink:href="#DejaVuSans-49"/>
     <use x="821.240234" xlink:href="#DejaVuSans-48"/>
     <use x="884.863281" xlink:href="#DejaVuSans-48"/>
     <use x="948.486328" xlink:href="#DejaVuSans-95"/>
     <use x="998.486328" xlink:href="#DejaVuSans-50"/>
     <use x="1062.109375" xlink:href="#DejaVuSans-95"/>
     <use x="1112.109375" xlink:href="#DejaVuSans-56"/>
     <use x="1175.732422" xlink:href="#DejaVuSans-95"/>
     <use x="1225.732422" xlink:href="#DejaVuSans-49"/>
     <use x="1289.355469" xlink:href="#DejaVuSans-51"/>
     <use x="1352.978516" xlink:href="#DejaVuSans-51"/>
     <use x="1416.601562" xlink:href="#DejaVuSans-55"/>
     <use x="1480.224609" xlink:href="#DejaVuSans-95"/>
     <use x="1530.224609" xlink:href="#DejaVuSans-95"/>
     <use x="1580.224609" xlink:href="#DejaVuSans-50"/>
     <use x="1643.847656" xlink:href="#DejaVuSans-58"/>
     <use x="1677.539062" xlink:href="#DejaVuSans-32"/>
     <use x="1709.326172" xlink:href="#DejaVuSans-101"/>
     <use x="1770.849609" xlink:href="#DejaVuSans-112"/>
     <use x="1834.326172" xlink:href="#DejaVuSans-105"/>
     <use x="1862.109375" xlink:href="#DejaVuSans-115"/>
     <use x="1914.208984" xlink:href="#DejaVuSans-111"/>
     <use x="1975.390625" xlink:href="#DejaVuSans-100"/>
     <use x="2038.867188" xlink:href="#DejaVuSans-101"/>
     <use x="2100.390625" xlink:href="#DejaVuSans-32"/>
     <use x="2132.177734" xlink:href="#DejaVuSans-100"/>
     <use x="2195.654297" xlink:href="#DejaVuSans-117"/>
     <use x="2259.033203" xlink:href="#DejaVuSans-114"/>
     <use x="2300.146484" xlink:href="#DejaVuSans-97"/>
     <use x="2361.425781" xlink:href="#DejaVuSans-116"/>
     <use x="2400.634766" xlink:href="#DejaVuSans-105"/>
     <use x="2428.417969" xlink:href="#DejaVuSans-111"/>
     <use x="2489.599609" xlink:href="#DejaVuSans-110"/>
     <use x="2552.978516" xlink:href="#DejaVuSans-32"/>
     <use x="2584.765625" xlink:href="#DejaVuSans-105"/>
     <use x="2612.548828" xlink:href="#DejaVuSans-110"/>
     <use x="2675.927734" xlink:href="#DejaVuSans-32"/>
     <use x="2707.714844" xlink:href="#DejaVuSans-115"/>
     <use x="2759.814453" xlink:href="#DejaVuSans-116"/>
     <use x="2799.023438" xlink:href="#DejaVuSans-101"/>
     <use x="2860.546875" xlink:href="#DejaVuSans-112"/>
     <use x="2924.023438" xlink:href="#DejaVuSans-115"/>
     <use x="2976.123047" xlink:href="#DejaVuSans-32"/>
     <use x="3007.910156" xlink:href="#DejaVuSans-108"/>
     <use x="3035.693359" xlink:href="#DejaVuSans-111"/>
     <use x="3096.875" xlink:href="#DejaVuSans-103"/>
     <use x="3160.351562" xlink:href="#DejaVuSans-45"/>
     <use x="3196.435547" xlink:href="#DejaVuSans-114"/>
     <use x="3237.517578" xlink:href="#DejaVuSans-101"/>
     <use x="3299.041016" xlink:href="#DejaVuSans-108"/>
     <use x="3326.824219" xlink:href="#DejaVuSans-97"/>
     <use x="3388.103516" xlink:href="#DejaVuSans-116"/>
     <use x="3427.3125" xlink:href="#DejaVuSans-105"/>
     <use x="3455.095703" xlink:href="#DejaVuSans-118"/>
     <use x="3514.275391" xlink:href="#DejaVuSans-101"/>
     <use x="3575.798828" xlink:href="#DejaVuSans-32"/>
     <use x="3607.585938" xlink:href="#DejaVuSans-116"/>
     <use x="3646.794922" xlink:href="#DejaVuSans-111"/>
     <use x="3707.976562" xlink:href="#DejaVuSans-32"/>
     <use x="3739.763672" xlink:href="#DejaVuSans-96"/>
     <use x="3789.763672" xlink:href="#DejaVuSans-104"/>
     <use x="3853.142578" xlink:href="#DejaVuSans-116"/>
     <use x="3892.351562" xlink:href="#DejaVuSans-109"/>
     <use x="3989.763672" xlink:href="#DejaVuSans-95"/>
     <use x="4039.763672" xlink:href="#DejaVuSans-50"/>
     <use x="4103.386719" xlink:href="#DejaVuSans-95"/>
     <use x="4153.386719" xlink:href="#DejaVuSans-49"/>
     <use x="4217.009766" xlink:href="#DejaVuSans-103"/>
     <use x="4280.486328" xlink:href="#DejaVuSans-96"/>
     <use x="4330.486328" xlink:href="#DejaVuSans-44"/>
     <use x="4362.273438" xlink:href="#DejaVuSans-32"/>
     <use x="4394.060547" xlink:href="#DejaVuSans-77"/>
     <use x="4480.339844" xlink:href="#DejaVuSans-65"/>
     <use x="4548.748047" xlink:href="#DejaVuSans-61"/>
     <use x="4632.537109" xlink:href="#DejaVuSans-52"/>
     <use x="4696.160156" xlink:href="#DejaVuSans-48"/>
    </g>
   </g>
   <g id="legend_1">
    <g id="patch_7">
     <path d="M 772.644125 231.77625 
L 853.716 231.77625 
Q 855.716 231.77625 855.716 229.77625 
L 855.716 200.86375 
Q 855.716 198.86375 853.716 198.86375 
L 772.644125 198.86375 
Q 770.644125 198.86375 770.644125 200.86375 
L 770.644125 229.77625 
Q 770.644125 231.77625 772.644125 231.77625 
z
" style="fill:#ffffff;opacity:0.8;stroke:#cccccc;stroke-linejoin:miter;"/>
    </g>
    <g id="line2d_17">
     <path d="M 774.644125 206.962187 
L 794.644125 206.962187 
" style="fill:none;stroke:#1f77b4;stroke-linecap:square;stroke-width:1.5;"/>
    </g>
    <g id="line2d_18"/>
    <g id="text_16">
     <!-- htm_2_1g -->
     <g transform="translate(802.644125 210.462187)scale(0.1 -0.1)">
      <use xlink:href="#DejaVuSans-104"/>
      <use x="63.378906" xlink:href="#DejaVuSans-116"/>
      <use x="102.587891" xlink:href="#DejaVuSans-109"/>
      <use x="200" xlink:href="#DejaVuSans-95"/>
      <use x="250" xlink:href="#DejaVuSans-50"/>
      <use x="313.623047" xlink:href="#DejaVuSans-95"/>
      <use x="363.623047" xlink:href="#DejaVuSans-49"/>
      <use x="427.246094" xlink:href="#DejaVuSans-103"/>
     </g>
    </g>
    <g id="line2d_19">
     <path d="M 774.644125 221.918437 
L 794.644125 221.918437 
" style="fill:none;stroke:#ff7f0e;stroke-linecap:square;stroke-width:1.5;"/>
    </g>
    <g id="line2d_20"/>
    <g id="text_17">
     <!-- htm_2_4g -->
     <g transform="translate(802.644125 225.418437)scale(0.1 -0.1)">
      <use xlink:href="#DejaVuSans-104"/>
      <use x="63.378906" xlink:href="#DejaVuSans-116"/>
      <use x="102.587891" xlink:href="#DejaVuSans-109"/>
      <use x="200" xlink:href="#DejaVuSans-95"/>
      <use x="250" xlink:href="#DejaVuSans-50"/>
      <use x="313.623047" xlink:href="#DejaVuSans-95"/>
      <use x="363.623047" xlink:href="#DejaVuSans-52"/>
      <use x="427.246094" xlink:href="#DejaVuSans-103"/>
     </g>
    </g>
   </g>
  </g>
 </g>
 <defs>
  <clipPath id="pfff44f78d3">
   <rect height="377.6" width="682.18" x="42.1" y="26.52"/>
  </clipPath>
 </defs>
</svg>
