<?xml version="1.0" encoding="utf-8" standalone="no"?>
<!DOCTYPE svg PUBLIC "-//W3C//DTD SVG 1.1//EN"
  "http://www.w3.org/Graphics/SVG/1.1/DTD/svg11.dtd">
<!-- Created with matplotlib (https://matplotlib.org/) -->
<svg height="432pt" version="1.1" viewBox="0 0 864 432" width="864pt" xmlns="http://www.w3.org/2000/svg" xmlns:xlink="http://www.w3.org/1999/xlink">
 <defs>
  <style type="text/css">
*{stroke-linecap:butt;stroke-linejoin:round;}
  </style>
 </defs>
 <g id="figure_1">
  <g id="patch_1">
   <path d="M 0 432 
L 864 432 
L 864 0 
L 0 0 
z
" style="fill:#ffffff;"/>
  </g>
  <g id="axes_1">
   <g id="patch_2">
    <path d="M 36.925 404.12 
L 724.28 404.12 
L 724.28 26.16 
L 36.925 26.16 
z
" style="fill:#ffffff;"/>
   </g>
   <g id="matplotlib.axis_1">
    <g id="xtick_1">
     <g id="line2d_1">
      <defs>
       <path d="M 0 0 
L 0 3.5 
" id="mf17349fafe" style="stroke:#000000;stroke-width:0.8;"/>
      </defs>
      <g>
       <use style="stroke:#000000;stroke-width:0.8;" x="36.925" xlink:href="#mf17349fafe" y="404.12"/>
      </g>
     </g>
     <g id="text_1">
      <!-- 0 -->
      <defs>
       <path d="M 31.78125 66.40625 
Q 24.171875 66.40625 20.328125 58.90625 
Q 16.5 51.421875 16.5 36.375 
Q 16.5 21.390625 20.328125 13.890625 
Q 24.171875 6.390625 31.78125 6.390625 
Q 39.453125 6.390625 43.28125 13.890625 
Q 47.125 21.390625 47.125 36.375 
Q 47.125 51.421875 43.28125 58.90625 
Q 39.453125 66.40625 31.78125 66.40625 
z
M 31.78125 74.21875 
Q 44.046875 74.21875 50.515625 64.515625 
Q 56.984375 54.828125 56.984375 36.375 
Q 56.984375 17.96875 50.515625 8.265625 
Q 44.046875 -1.421875 31.78125 -1.421875 
Q 19.53125 -1.421875 13.0625 8.265625 
Q 6.59375 17.96875 6.59375 36.375 
Q 6.59375 54.828125 13.0625 64.515625 
Q 19.53125 74.21875 31.78125 74.21875 
z
" id="DejaVuSans-48"/>
      </defs>
      <g transform="translate(33.74375 418.718437)scale(0.1 -0.1)">
       <use xlink:href="#DejaVuSans-48"/>
      </g>
     </g>
    </g>
    <g id="xtick_2">
     <g id="line2d_2">
      <g>
       <use style="stroke:#000000;stroke-width:0.8;" x="175.784596" xlink:href="#mf17349fafe" y="404.12"/>
      </g>
     </g>
     <g id="text_2">
      <!-- 20 -->
      <defs>
       <path d="M 19.1875 8.296875 
L 53.609375 8.296875 
L 53.609375 0 
L 7.328125 0 
L 7.328125 8.296875 
Q 12.9375 14.109375 22.625 23.890625 
Q 32.328125 33.6875 34.8125 36.53125 
Q 39.546875 41.84375 41.421875 45.53125 
Q 43.3125 49.21875 43.3125 52.78125 
Q 43.3125 58.59375 39.234375 62.25 
Q 35.15625 65.921875 28.609375 65.921875 
Q 23.96875 65.921875 18.8125 64.3125 
Q 13.671875 62.703125 7.8125 59.421875 
L 7.8125 69.390625 
Q 13.765625 71.78125 18.9375 73 
Q 24.125 74.21875 28.421875 74.21875 
Q 39.75 74.21875 46.484375 68.546875 
Q 53.21875 62.890625 53.21875 53.421875 
Q 53.21875 48.921875 51.53125 44.890625 
Q 49.859375 40.875 45.40625 35.40625 
Q 44.1875 33.984375 37.640625 27.21875 
Q 31.109375 20.453125 19.1875 8.296875 
z
" id="DejaVuSans-50"/>
      </defs>
      <g transform="translate(169.422096 418.718437)scale(0.1 -0.1)">
       <use xlink:href="#DejaVuSans-50"/>
       <use x="63.623047" xlink:href="#DejaVuSans-48"/>
      </g>
     </g>
    </g>
    <g id="xtick_3">
     <g id="line2d_3">
      <g>
       <use style="stroke:#000000;stroke-width:0.8;" x="314.644192" xlink:href="#mf17349fafe" y="404.12"/>
      </g>
     </g>
     <g id="text_3">
      <!-- 40 -->
      <defs>
       <path d="M 37.796875 64.3125 
L 12.890625 25.390625 
L 37.796875 25.390625 
z
M 35.203125 72.90625 
L 47.609375 72.90625 
L 47.609375 25.390625 
L 58.015625 25.390625 
L 58.015625 17.1875 
L 47.609375 17.1875 
L 47.609375 0 
L 37.796875 0 
L 37.796875 17.1875 
L 4.890625 17.1875 
L 4.890625 26.703125 
z
" id="DejaVuSans-52"/>
      </defs>
      <g transform="translate(308.281692 418.718437)scale(0.1 -0.1)">
       <use xlink:href="#DejaVuSans-52"/>
       <use x="63.623047" xlink:href="#DejaVuSans-48"/>
      </g>
     </g>
    </g>
    <g id="xtick_4">
     <g id="line2d_4">
      <g>
       <use style="stroke:#000000;stroke-width:0.8;" x="453.503788" xlink:href="#mf17349fafe" y="404.12"/>
      </g>
     </g>
     <g id="text_4">
      <!-- 60 -->
      <defs>
       <path d="M 33.015625 40.375 
Q 26.375 40.375 22.484375 35.828125 
Q 18.609375 31.296875 18.609375 23.390625 
Q 18.609375 15.53125 22.484375 10.953125 
Q 26.375 6.390625 33.015625 6.390625 
Q 39.65625 6.390625 43.53125 10.953125 
Q 47.40625 15.53125 47.40625 23.390625 
Q 47.40625 31.296875 43.53125 35.828125 
Q 39.65625 40.375 33.015625 40.375 
z
M 52.59375 71.296875 
L 52.59375 62.3125 
Q 48.875 64.0625 45.09375 64.984375 
Q 41.3125 65.921875 37.59375 65.921875 
Q 27.828125 65.921875 22.671875 59.328125 
Q 17.53125 52.734375 16.796875 39.40625 
Q 19.671875 43.65625 24.015625 45.921875 
Q 28.375 48.1875 33.59375 48.1875 
Q 44.578125 48.1875 50.953125 41.515625 
Q 57.328125 34.859375 57.328125 23.390625 
Q 57.328125 12.15625 50.6875 5.359375 
Q 44.046875 -1.421875 33.015625 -1.421875 
Q 20.359375 -1.421875 13.671875 8.265625 
Q 6.984375 17.96875 6.984375 36.375 
Q 6.984375 53.65625 15.1875 63.9375 
Q 23.390625 74.21875 37.203125 74.21875 
Q 40.921875 74.21875 44.703125 73.484375 
Q 48.484375 72.75 52.59375 71.296875 
z
" id="DejaVuSans-54"/>
      </defs>
      <g transform="translate(447.141288 418.718437)scale(0.1 -0.1)">
       <use xlink:href="#DejaVuSans-54"/>
       <use x="63.623047" xlink:href="#DejaVuSans-48"/>
      </g>
     </g>
    </g>
    <g id="xtick_5">
     <g id="line2d_5">
      <g>
       <use style="stroke:#000000;stroke-width:0.8;" x="592.363384" xlink:href="#mf17349fafe" y="404.12"/>
      </g>
     </g>
     <g id="text_5">
      <!-- 80 -->
      <defs>
       <path d="M 31.78125 34.625 
Q 24.75 34.625 20.71875 30.859375 
Q 16.703125 27.09375 16.703125 20.515625 
Q 16.703125 13.921875 20.71875 10.15625 
Q 24.75 6.390625 31.78125 6.390625 
Q 38.8125 6.390625 42.859375 10.171875 
Q 46.921875 13.96875 46.921875 20.515625 
Q 46.921875 27.09375 42.890625 30.859375 
Q 38.875 34.625 31.78125 34.625 
z
M 21.921875 38.8125 
Q 15.578125 40.375 12.03125 44.71875 
Q 8.5 49.078125 8.5 55.328125 
Q 8.5 64.0625 14.71875 69.140625 
Q 20.953125 74.21875 31.78125 74.21875 
Q 42.671875 74.21875 48.875 69.140625 
Q 55.078125 64.0625 55.078125 55.328125 
Q 55.078125 49.078125 51.53125 44.71875 
Q 48 40.375 41.703125 38.8125 
Q 48.828125 37.15625 52.796875 32.3125 
Q 56.78125 27.484375 56.78125 20.515625 
Q 56.78125 9.90625 50.3125 4.234375 
Q 43.84375 -1.421875 31.78125 -1.421875 
Q 19.734375 -1.421875 13.25 4.234375 
Q 6.78125 9.90625 6.78125 20.515625 
Q 6.78125 27.484375 10.78125 32.3125 
Q 14.796875 37.15625 21.921875 38.8125 
z
M 18.3125 54.390625 
Q 18.3125 48.734375 21.84375 45.5625 
Q 25.390625 42.390625 31.78125 42.390625 
Q 38.140625 42.390625 41.71875 45.5625 
Q 45.3125 48.734375 45.3125 54.390625 
Q 45.3125 60.0625 41.71875 63.234375 
Q 38.140625 66.40625 31.78125 66.40625 
Q 25.390625 66.40625 21.84375 63.234375 
Q 18.3125 60.0625 18.3125 54.390625 
z
" id="DejaVuSans-56"/>
      </defs>
      <g transform="translate(586.000884 418.718437)scale(0.1 -0.1)">
       <use xlink:href="#DejaVuSans-56"/>
       <use x="63.623047" xlink:href="#DejaVuSans-48"/>
      </g>
     </g>
    </g>
   </g>
   <g id="matplotlib.axis_2">
    <g id="ytick_1">
     <g id="line2d_6">
      <defs>
       <path d="M 0 0 
L -3.5 0 
" id="md76248f316" style="stroke:#000000;stroke-width:0.8;"/>
      </defs>
      <g>
       <use style="stroke:#000000;stroke-width:0.8;" x="36.925" xlink:href="#md76248f316" y="399.665926"/>
      </g>
     </g>
     <g id="text_6">
      <!-- 0 -->
      <g transform="translate(23.5625 403.465145)scale(0.1 -0.1)">
       <use xlink:href="#DejaVuSans-48"/>
      </g>
     </g>
    </g>
    <g id="ytick_2">
     <g id="line2d_7">
      <g>
       <use style="stroke:#000000;stroke-width:0.8;" x="36.925" xlink:href="#md76248f316" y="348.762222"/>
      </g>
     </g>
     <g id="text_7">
      <!-- 20 -->
      <g transform="translate(17.2 352.561441)scale(0.1 -0.1)">
       <use xlink:href="#DejaVuSans-50"/>
       <use x="63.623047" xlink:href="#DejaVuSans-48"/>
      </g>
     </g>
    </g>
    <g id="ytick_3">
     <g id="line2d_8">
      <g>
       <use style="stroke:#000000;stroke-width:0.8;" x="36.925" xlink:href="#md76248f316" y="297.858519"/>
      </g>
     </g>
     <g id="text_8">
      <!-- 40 -->
      <g transform="translate(17.2 301.657737)scale(0.1 -0.1)">
       <use xlink:href="#DejaVuSans-52"/>
       <use x="63.623047" xlink:href="#DejaVuSans-48"/>
      </g>
     </g>
    </g>
    <g id="ytick_4">
     <g id="line2d_9">
      <g>
       <use style="stroke:#000000;stroke-width:0.8;" x="36.925" xlink:href="#md76248f316" y="246.954815"/>
      </g>
     </g>
     <g id="text_9">
      <!-- 60 -->
      <g transform="translate(17.2 250.754034)scale(0.1 -0.1)">
       <use xlink:href="#DejaVuSans-54"/>
       <use x="63.623047" xlink:href="#DejaVuSans-48"/>
      </g>
     </g>
    </g>
    <g id="ytick_5">
     <g id="line2d_10">
      <g>
       <use style="stroke:#000000;stroke-width:0.8;" x="36.925" xlink:href="#md76248f316" y="196.051111"/>
      </g>
     </g>
     <g id="text_10">
      <!-- 80 -->
      <g transform="translate(17.2 199.85033)scale(0.1 -0.1)">
       <use xlink:href="#DejaVuSans-56"/>
       <use x="63.623047" xlink:href="#DejaVuSans-48"/>
      </g>
     </g>
    </g>
    <g id="ytick_6">
     <g id="line2d_11">
      <g>
       <use style="stroke:#000000;stroke-width:0.8;" x="36.925" xlink:href="#md76248f316" y="145.147407"/>
      </g>
     </g>
     <g id="text_11">
      <!-- 100 -->
      <defs>
       <path d="M 12.40625 8.296875 
L 28.515625 8.296875 
L 28.515625 63.921875 
L 10.984375 60.40625 
L 10.984375 69.390625 
L 28.421875 72.90625 
L 38.28125 72.90625 
L 38.28125 8.296875 
L 54.390625 8.296875 
L 54.390625 0 
L 12.40625 0 
z
" id="DejaVuSans-49"/>
      </defs>
      <g transform="translate(10.8375 148.946626)scale(0.1 -0.1)">
       <use xlink:href="#DejaVuSans-49"/>
       <use x="63.623047" xlink:href="#DejaVuSans-48"/>
       <use x="127.246094" xlink:href="#DejaVuSans-48"/>
      </g>
     </g>
    </g>
    <g id="ytick_7">
     <g id="line2d_12">
      <g>
       <use style="stroke:#000000;stroke-width:0.8;" x="36.925" xlink:href="#md76248f316" y="94.243704"/>
      </g>
     </g>
     <g id="text_12">
      <!-- 120 -->
      <g transform="translate(10.8375 98.042922)scale(0.1 -0.1)">
       <use xlink:href="#DejaVuSans-49"/>
       <use x="63.623047" xlink:href="#DejaVuSans-50"/>
       <use x="127.246094" xlink:href="#DejaVuSans-48"/>
      </g>
     </g>
    </g>
    <g id="ytick_8">
     <g id="line2d_13">
      <g>
       <use style="stroke:#000000;stroke-width:0.8;" x="36.925" xlink:href="#md76248f316" y="43.34"/>
      </g>
     </g>
     <g id="text_13">
      <!-- 140 -->
      <g transform="translate(10.8375 47.139219)scale(0.1 -0.1)">
       <use xlink:href="#DejaVuSans-49"/>
       <use x="63.623047" xlink:href="#DejaVuSans-52"/>
       <use x="127.246094" xlink:href="#DejaVuSans-48"/>
      </g>
     </g>
    </g>
   </g>
   <g id="line2d_14">
    <path clip-path="url(#pb9a218945a)" d="M 57.753939 112.696296 
L 64.696919 112.696296 
L 71.639899 188.415556 
L 78.582879 188.415556 
L 85.525859 119.059259 
L 92.468838 119.059259 
L 99.411818 43.34 
L 106.354798 129.24 
L 113.297778 129.24 
L 120.240758 129.24 
L 127.183737 129.24 
L 134.126717 81.517778 
L 141.069697 164.872593 
L 148.012677 164.872593 
L 154.955657 164.872593 
L 161.898636 162.963704 
L 168.841616 79.608889 
L 175.784596 164.236296 
L 182.727576 250.136296 
L 189.670556 213.867407 
L 196.613535 297.222222 
L 203.556515 297.222222 
L 210.499495 297.222222 
L 217.442475 297.222222 
L 224.385455 299.767407 
L 231.328434 301.04 
L 238.271414 253.317778 
L 245.214394 253.317778 
L 252.157374 253.317778 
L 259.100354 250.772593 
L 266.043333 294.677037 
L 272.986313 380.577037 
L 279.929293 380.577037 
L 286.872273 380.577037 
L 293.815253 384.394815 
L 300.758232 384.394815 
L 307.701212 384.394815 
L 314.644192 386.94 
L 321.587172 386.94 
L 328.530152 386.94 
L 335.473131 386.94 
L 342.416111 386.94 
L 349.359091 386.94 
L 356.302071 386.94 
L 363.245051 386.94 
L 370.18803 385.667407 
L 377.13101 385.667407 
L 384.07399 385.667407 
L 391.01697 385.667407 
L 397.959949 301.04 
L 404.902929 301.04 
L 411.845909 299.767407 
L 418.788889 299.767407 
L 425.731869 384.394815 
L 432.674848 381.84963 
L 439.617828 383.122222 
L 446.560808 381.84963 
L 453.503788 381.84963 
L 460.446768 384.394815 
L 467.389747 384.394815 
L 474.332727 384.394815 
L 481.275707 383.122222 
L 488.218687 381.84963 
L 495.161667 380.577037 
L 502.104646 381.84963 
L 509.047626 381.84963 
L 515.990606 383.122222 
L 522.933586 384.394815 
L 529.876566 384.394815 
L 536.819545 386.94 
L 543.762525 301.04 
L 550.705505 301.04 
L 557.648485 298.494815 
L 564.591465 298.494815 
L 571.534444 383.122222 
L 578.477424 380.577037 
L 585.420404 383.122222 
L 592.363384 381.84963 
L 599.306364 383.122222 
L 606.249343 299.767407 
L 613.192323 299.767407 
L 620.135303 295.94963 
L 627.078283 210.04963 
L 634.021263 295.94963 
L 640.964242 295.94963 
L 647.907222 301.04 
L 654.850202 385.667407 
L 661.793182 384.394815 
L 668.736162 384.394815 
L 675.679141 298.494815 
L 682.622121 213.867407 
L 689.565101 213.867407 
L 696.508081 212.594815 
L 703.451061 297.222222 
L 710.39404 383.122222 
L 717.33702 384.394815 
L 724.28 302.948889 
" style="fill:none;stroke:#1f77b4;stroke-linecap:square;stroke-width:1.5;"/>
   </g>
   <g id="line2d_15">
    <path clip-path="url(#pb9a218945a)" d="M 57.753939 43.34 
L 64.696919 43.34 
L 71.639899 43.34 
L 78.582879 43.34 
L 85.525859 43.34 
L 92.468838 43.34 
L 99.411818 43.34 
L 106.354798 43.34 
L 113.297778 43.34 
L 120.240758 43.34 
L 127.183737 43.34 
L 134.126717 129.24 
L 141.069697 129.24 
L 148.012677 215.14 
L 154.955657 301.04 
L 161.898636 215.14 
L 168.841616 301.04 
L 175.784596 301.04 
L 182.727576 301.04 
L 189.670556 386.94 
L 196.613535 386.94 
L 203.556515 386.94 
L 210.499495 386.94 
L 217.442475 386.94 
L 224.385455 386.94 
L 231.328434 386.94 
L 238.271414 386.94 
L 245.214394 386.94 
L 252.157374 386.94 
L 259.100354 386.94 
L 266.043333 386.94 
L 272.986313 386.94 
L 279.929293 386.94 
L 286.872273 386.94 
L 293.815253 386.94 
L 300.758232 386.94 
L 307.701212 386.94 
L 314.644192 386.94 
L 321.587172 386.94 
L 328.530152 386.94 
L 335.473131 386.94 
L 342.416111 386.94 
L 349.359091 386.94 
L 356.302071 386.94 
L 363.245051 386.94 
L 370.18803 386.94 
L 377.13101 386.94 
L 384.07399 386.94 
L 391.01697 386.94 
L 397.959949 386.94 
L 404.902929 386.94 
L 411.845909 386.94 
L 418.788889 386.94 
L 425.731869 386.94 
L 432.674848 386.94 
L 439.617828 386.94 
L 446.560808 386.94 
L 453.503788 386.94 
L 460.446768 386.94 
L 467.389747 386.94 
L 474.332727 386.94 
L 481.275707 386.94 
L 488.218687 386.94 
L 495.161667 386.94 
L 502.104646 386.94 
L 509.047626 386.94 
L 515.990606 386.94 
L 522.933586 386.94 
L 529.876566 386.94 
L 536.819545 386.94 
L 543.762525 386.94 
L 550.705505 386.94 
L 557.648485 386.94 
L 564.591465 386.94 
L 571.534444 386.94 
L 578.477424 386.94 
L 585.420404 386.94 
L 592.363384 386.94 
L 599.306364 386.94 
L 606.249343 386.94 
L 613.192323 386.94 
L 620.135303 386.94 
L 627.078283 386.94 
L 634.021263 386.94 
L 640.964242 386.94 
L 647.907222 386.94 
L 654.850202 386.94 
L 661.793182 386.94 
L 668.736162 386.94 
L 675.679141 386.94 
L 682.622121 386.94 
L 689.565101 386.94 
L 696.508081 386.94 
L 703.451061 386.94 
L 710.39404 386.94 
L 717.33702 386.94 
L 724.28 386.94 
" style="fill:none;stroke:#ff7f0e;stroke-linecap:square;stroke-width:1.5;"/>
   </g>
   <g id="line2d_16">
    <path clip-path="url(#pb9a218945a)" d="M 57.753939 217.685185 
L 64.696919 301.04 
L 71.639899 334.127407 
L 78.582879 369.123704 
L 85.525859 376.759259 
L 92.468838 376.759259 
L 99.411818 379.304444 
L 106.354798 381.84963 
L 113.297778 384.394815 
L 120.240758 386.94 
L 127.183737 386.94 
L 134.126717 386.94 
L 141.069697 386.94 
L 148.012677 386.94 
L 154.955657 386.94 
L 161.898636 386.94 
L 168.841616 386.94 
L 175.784596 386.94 
L 182.727576 386.94 
L 189.670556 386.94 
L 196.613535 386.94 
L 203.556515 386.94 
L 210.499495 386.94 
L 217.442475 386.94 
L 224.385455 386.94 
L 231.328434 386.94 
L 238.271414 386.94 
L 245.214394 386.94 
L 252.157374 386.94 
L 259.100354 386.94 
L 266.043333 386.94 
L 272.986313 386.94 
L 279.929293 386.94 
L 286.872273 386.94 
L 293.815253 386.94 
L 300.758232 386.94 
L 307.701212 386.94 
L 314.644192 386.94 
L 321.587172 386.94 
L 328.530152 386.94 
L 335.473131 386.94 
L 342.416111 386.94 
L 349.359091 386.94 
L 356.302071 386.94 
L 363.245051 386.94 
L 370.18803 386.94 
L 377.13101 386.94 
L 384.07399 386.94 
L 391.01697 386.94 
L 397.959949 386.94 
L 404.902929 386.94 
L 411.845909 386.94 
L 418.788889 386.94 
L 425.731869 386.94 
L 432.674848 386.94 
L 439.617828 386.94 
L 446.560808 386.94 
L 453.503788 386.94 
L 460.446768 386.94 
L 467.389747 386.94 
L 474.332727 386.94 
L 481.275707 386.94 
L 488.218687 386.94 
L 495.161667 386.94 
L 502.104646 386.94 
L 509.047626 386.94 
L 515.990606 383.122222 
L 522.933586 383.122222 
L 529.876566 383.122222 
L 536.819545 379.304444 
L 543.762525 383.122222 
L 550.705505 383.122222 
L 557.648485 374.214074 
L 564.591465 361.488148 
L 571.534444 361.488148 
L 578.477424 327.128148 
L 585.420404 323.31037 
L 592.363384 338.581481 
L 599.306364 336.036296 
L 606.249343 367.851111 
L 613.192323 378.031852 
L 620.135303 376.759259 
L 627.078283 376.759259 
L 634.021263 376.759259 
L 640.964242 376.759259 
L 647.907222 376.759259 
L 654.850202 376.759259 
L 661.793182 376.759259 
L 668.736162 376.759259 
L 675.679141 376.759259 
L 682.622121 376.759259 
L 689.565101 376.122963 
L 696.508081 375.486667 
L 703.451061 374.85037 
L 710.39404 374.214074 
L 717.33702 376.122963 
L 724.28 378.031852 
" style="fill:none;stroke:#2ca02c;stroke-linecap:square;stroke-width:1.5;"/>
   </g>
   <g id="line2d_17">
    <path clip-path="url(#pb9a218945a)" d="M 57.753939 112.696296 
L 64.696919 112.696296 
L 71.639899 188.415556 
L 78.582879 188.415556 
L 85.525859 119.059259 
L 92.468838 119.059259 
L 99.411818 43.34 
L 106.354798 129.24 
L 113.297778 129.24 
L 120.240758 129.24 
L 127.183737 129.24 
L 134.126717 81.517778 
L 141.069697 164.872593 
L 148.012677 164.872593 
L 154.955657 164.872593 
L 161.898636 162.963704 
L 168.841616 79.608889 
L 175.784596 164.236296 
L 182.727576 250.136296 
L 189.670556 213.867407 
L 196.613535 297.222222 
L 203.556515 297.222222 
L 210.499495 297.222222 
L 217.442475 297.222222 
L 224.385455 299.767407 
L 231.328434 301.04 
L 238.271414 253.317778 
L 245.214394 253.317778 
L 252.157374 253.317778 
L 259.100354 250.772593 
L 266.043333 294.677037 
L 272.986313 380.577037 
L 279.929293 380.577037 
L 286.872273 380.577037 
L 293.815253 384.394815 
L 300.758232 384.394815 
L 307.701212 384.394815 
L 314.644192 386.94 
L 321.587172 386.94 
L 328.530152 386.94 
L 335.473131 386.94 
L 342.416111 386.94 
L 349.359091 386.94 
L 356.302071 386.94 
L 363.245051 386.94 
L 370.18803 385.667407 
L 377.13101 385.667407 
L 384.07399 385.667407 
L 391.01697 385.667407 
L 397.959949 301.04 
L 404.902929 301.04 
L 411.845909 299.767407 
L 418.788889 299.767407 
L 425.731869 384.394815 
L 432.674848 381.84963 
L 439.617828 383.122222 
L 446.560808 381.84963 
L 453.503788 381.84963 
L 460.446768 384.394815 
L 467.389747 384.394815 
L 474.332727 384.394815 
L 481.275707 383.122222 
L 488.218687 381.84963 
L 495.161667 380.577037 
L 502.104646 381.84963 
L 509.047626 381.84963 
L 515.990606 383.122222 
L 522.933586 384.394815 
L 529.876566 384.394815 
L 536.819545 386.94 
L 543.762525 301.04 
L 550.705505 301.04 
L 557.648485 298.494815 
L 564.591465 298.494815 
L 571.534444 383.122222 
L 578.477424 380.577037 
L 585.420404 383.122222 
L 592.363384 381.84963 
L 599.306364 383.122222 
L 606.249343 299.767407 
L 613.192323 299.767407 
L 620.135303 295.94963 
L 627.078283 210.04963 
L 634.021263 295.94963 
L 640.964242 295.94963 
L 647.907222 301.04 
L 654.850202 385.667407 
L 661.793182 384.394815 
L 668.736162 384.394815 
L 675.679141 298.494815 
L 682.622121 213.867407 
L 689.565101 213.867407 
L 696.508081 212.594815 
L 703.451061 297.222222 
L 710.39404 383.122222 
L 717.33702 384.394815 
L 724.28 302.948889 
" style="fill:none;stroke:#d62728;stroke-linecap:square;stroke-width:1.5;"/>
   </g>
   <g id="line2d_18">
    <path clip-path="url(#pb9a218945a)" d="M 57.753939 43.34 
L 64.696919 43.34 
L 71.639899 43.34 
L 78.582879 43.34 
L 85.525859 43.34 
L 92.468838 43.34 
L 99.411818 43.34 
L 106.354798 43.34 
L 113.297778 43.34 
L 120.240758 43.34 
L 127.183737 43.34 
L 134.126717 129.24 
L 141.069697 129.24 
L 148.012677 215.14 
L 154.955657 301.04 
L 161.898636 215.14 
L 168.841616 301.04 
L 175.784596 301.04 
L 182.727576 301.04 
L 189.670556 386.94 
L 196.613535 386.94 
L 203.556515 386.94 
L 210.499495 386.94 
L 217.442475 386.94 
L 224.385455 386.94 
L 231.328434 386.94 
L 238.271414 386.94 
L 245.214394 386.94 
L 252.157374 386.94 
L 259.100354 386.94 
L 266.043333 386.94 
L 272.986313 386.94 
L 279.929293 386.94 
L 286.872273 386.94 
L 293.815253 386.94 
L 300.758232 386.94 
L 307.701212 386.94 
L 314.644192 386.94 
L 321.587172 386.94 
L 328.530152 386.94 
L 335.473131 386.94 
L 342.416111 386.94 
L 349.359091 386.94 
L 356.302071 386.94 
L 363.245051 386.94 
L 370.18803 386.94 
L 377.13101 386.94 
L 384.07399 386.94 
L 391.01697 386.94 
L 397.959949 386.94 
L 404.902929 386.94 
L 411.845909 386.94 
L 418.788889 386.94 
L 425.731869 386.94 
L 432.674848 386.94 
L 439.617828 386.94 
L 446.560808 386.94 
L 453.503788 386.94 
L 460.446768 386.94 
L 467.389747 386.94 
L 474.332727 386.94 
L 481.275707 386.94 
L 488.218687 386.94 
L 495.161667 386.94 
L 502.104646 386.94 
L 509.047626 386.94 
L 515.990606 386.94 
L 522.933586 386.94 
L 529.876566 386.94 
L 536.819545 386.94 
L 543.762525 386.94 
L 550.705505 386.94 
L 557.648485 386.94 
L 564.591465 386.94 
L 571.534444 386.94 
L 578.477424 386.94 
L 585.420404 386.94 
L 592.363384 386.94 
L 599.306364 386.94 
L 606.249343 386.94 
L 613.192323 386.94 
L 620.135303 386.94 
L 627.078283 386.94 
L 634.021263 386.94 
L 640.964242 386.94 
L 647.907222 386.94 
L 654.850202 386.94 
L 661.793182 386.94 
L 668.736162 386.94 
L 675.679141 386.94 
L 682.622121 386.94 
L 689.565101 386.94 
L 696.508081 386.94 
L 703.451061 386.94 
L 710.39404 386.94 
L 717.33702 386.94 
L 724.28 386.94 
" style="fill:none;stroke:#9467bd;stroke-linecap:square;stroke-width:1.5;"/>
   </g>
   <g id="line2d_19">
    <path clip-path="url(#pb9a218945a)" d="M 57.753939 171.871852 
L 64.696919 250.136296 
L 71.639899 252.681481 
L 78.582879 259.044444 
L 85.525859 344.944444 
L 92.468838 352.58 
L 99.411818 385.667407 
L 106.354798 381.84963 
L 113.297778 381.84963 
L 120.240758 381.84963 
L 127.183737 369.123704 
L 134.126717 372.941481 
L 141.069697 370.396296 
L 148.012677 306.766667 
L 154.955657 319.492593 
L 161.898636 320.765185 
L 168.841616 322.037778 
L 175.784596 384.394815 
L 182.727576 383.122222 
L 189.670556 381.84963 
L 196.613535 374.214074 
L 203.556515 365.305926 
L 210.499495 353.216296 
L 217.442475 337.945185 
L 224.385455 337.308889 
L 231.328434 347.48963 
L 238.271414 344.308148 
L 245.214394 342.399259 
L 252.157374 349.398519 
L 259.100354 346.853333 
L 266.043333 332.218519 
L 272.986313 349.398519 
L 279.929293 350.671111 
L 286.872273 348.125926 
L 293.815253 371.668889 
L 300.758232 367.851111 
L 307.701212 360.215556 
L 314.644192 358.942963 
L 321.587172 364.033333 
L 328.530152 365.305926 
L 335.473131 361.488148 
L 342.416111 365.305926 
L 349.359091 365.305926 
L 356.302071 362.760741 
L 363.245051 369.123704 
L 370.18803 362.760741 
L 377.13101 362.760741 
L 384.07399 343.035556 
L 391.01697 337.945185 
L 397.959949 332.854815 
L 404.902929 335.4 
L 411.845909 360.215556 
L 418.788889 355.125185 
L 425.731869 359.579259 
L 432.674848 354.488889 
L 439.617828 350.671111 
L 446.560808 358.306667 
L 453.503788 367.851111 
L 460.446768 367.851111 
L 467.389747 338.581481 
L 474.332727 341.126667 
L 481.275707 333.491111 
L 488.218687 338.581481 
L 495.161667 372.941481 
L 502.104646 374.214074 
L 509.047626 379.304444 
L 515.990606 372.941481 
L 522.933586 372.941481 
L 529.876566 378.031852 
L 536.819545 380.577037 
L 543.762525 378.031852 
L 550.705505 367.851111 
L 557.648485 361.488148 
L 564.591465 334.763704 
L 571.534444 341.126667 
L 578.477424 351.307407 
L 585.420404 344.944444 
L 592.363384 365.305926 
L 599.306364 366.578519 
L 606.249343 361.488148 
L 613.192323 362.124444 
L 620.135303 368.487407 
L 627.078283 338.581481 
L 634.021263 341.126667 
L 640.964242 343.671852 
L 647.907222 343.671852 
L 654.850202 371.032593 
L 661.793182 373.577778 
L 668.736162 383.122222 
L 675.679141 383.122222 
L 682.622121 369.76 
L 689.565101 349.398519 
L 696.508081 334.763704 
L 703.451061 334.763704 
L 710.39404 350.671111 
L 717.33702 371.032593 
L 724.28 364.033333 
" style="fill:none;stroke:#8c564b;stroke-linecap:square;stroke-width:1.5;"/>
   </g>
   <g id="patch_3">
    <path d="M 36.925 404.12 
L 36.925 26.16 
" style="fill:none;stroke:#000000;stroke-linecap:square;stroke-linejoin:miter;stroke-width:0.8;"/>
   </g>
   <g id="patch_4">
    <path d="M 724.28 404.12 
L 724.28 26.16 
" style="fill:none;stroke:#000000;stroke-linecap:square;stroke-linejoin:miter;stroke-width:0.8;"/>
   </g>
   <g id="patch_5">
    <path d="M 36.925 404.12 
L 724.28 404.12 
" style="fill:none;stroke:#000000;stroke-linecap:square;stroke-linejoin:miter;stroke-width:0.8;"/>
   </g>
   <g id="patch_6">
    <path d="M 36.925 26.16 
L 724.28 26.16 
" style="fill:none;stroke:#000000;stroke-linecap:square;stroke-linejoin:miter;stroke-width:0.8;"/>
   </g>
   <g id="text_14">
    <!-- gridworld_12x12: episode duration, steps, MA=4 -->
    <defs>
     <path d="M 45.40625 27.984375 
Q 45.40625 37.75 41.375 43.109375 
Q 37.359375 48.484375 30.078125 48.484375 
Q 22.859375 48.484375 18.828125 43.109375 
Q 14.796875 37.75 14.796875 27.984375 
Q 14.796875 18.265625 18.828125 12.890625 
Q 22.859375 7.515625 30.078125 7.515625 
Q 37.359375 7.515625 41.375 12.890625 
Q 45.40625 18.265625 45.40625 27.984375 
z
M 54.390625 6.78125 
Q 54.390625 -7.171875 48.1875 -13.984375 
Q 42 -20.796875 29.203125 -20.796875 
Q 24.46875 -20.796875 20.265625 -20.09375 
Q 16.0625 -19.390625 12.109375 -17.921875 
L 12.109375 -9.1875 
Q 16.0625 -11.328125 19.921875 -12.34375 
Q 23.78125 -13.375 27.78125 -13.375 
Q 36.625 -13.375 41.015625 -8.765625 
Q 45.40625 -4.15625 45.40625 5.171875 
L 45.40625 9.625 
Q 42.625 4.78125 38.28125 2.390625 
Q 33.9375 0 27.875 0 
Q 17.828125 0 11.671875 7.65625 
Q 5.515625 15.328125 5.515625 27.984375 
Q 5.515625 40.671875 11.671875 48.328125 
Q 17.828125 56 27.875 56 
Q 33.9375 56 38.28125 53.609375 
Q 42.625 51.21875 45.40625 46.390625 
L 45.40625 54.6875 
L 54.390625 54.6875 
z
" id="DejaVuSans-103"/>
     <path d="M 41.109375 46.296875 
Q 39.59375 47.171875 37.8125 47.578125 
Q 36.03125 48 33.890625 48 
Q 26.265625 48 22.1875 43.046875 
Q 18.109375 38.09375 18.109375 28.8125 
L 18.109375 0 
L 9.078125 0 
L 9.078125 54.6875 
L 18.109375 54.6875 
L 18.109375 46.1875 
Q 20.953125 51.171875 25.484375 53.578125 
Q 30.03125 56 36.53125 56 
Q 37.453125 56 38.578125 55.875 
Q 39.703125 55.765625 41.0625 55.515625 
z
" id="DejaVuSans-114"/>
     <path d="M 9.421875 54.6875 
L 18.40625 54.6875 
L 18.40625 0 
L 9.421875 0 
z
M 9.421875 75.984375 
L 18.40625 75.984375 
L 18.40625 64.59375 
L 9.421875 64.59375 
z
" id="DejaVuSans-105"/>
     <path d="M 45.40625 46.390625 
L 45.40625 75.984375 
L 54.390625 75.984375 
L 54.390625 0 
L 45.40625 0 
L 45.40625 8.203125 
Q 42.578125 3.328125 38.25 0.953125 
Q 33.9375 -1.421875 27.875 -1.421875 
Q 17.96875 -1.421875 11.734375 6.484375 
Q 5.515625 14.40625 5.515625 27.296875 
Q 5.515625 40.1875 11.734375 48.09375 
Q 17.96875 56 27.875 56 
Q 33.9375 56 38.25 53.625 
Q 42.578125 51.265625 45.40625 46.390625 
z
M 14.796875 27.296875 
Q 14.796875 17.390625 18.875 11.75 
Q 22.953125 6.109375 30.078125 6.109375 
Q 37.203125 6.109375 41.296875 11.75 
Q 45.40625 17.390625 45.40625 27.296875 
Q 45.40625 37.203125 41.296875 42.84375 
Q 37.203125 48.484375 30.078125 48.484375 
Q 22.953125 48.484375 18.875 42.84375 
Q 14.796875 37.203125 14.796875 27.296875 
z
" id="DejaVuSans-100"/>
     <path d="M 4.203125 54.6875 
L 13.1875 54.6875 
L 24.421875 12.015625 
L 35.59375 54.6875 
L 46.1875 54.6875 
L 57.421875 12.015625 
L 68.609375 54.6875 
L 77.59375 54.6875 
L 63.28125 0 
L 52.6875 0 
L 40.921875 44.828125 
L 29.109375 0 
L 18.5 0 
z
" id="DejaVuSans-119"/>
     <path d="M 30.609375 48.390625 
Q 23.390625 48.390625 19.1875 42.75 
Q 14.984375 37.109375 14.984375 27.296875 
Q 14.984375 17.484375 19.15625 11.84375 
Q 23.34375 6.203125 30.609375 6.203125 
Q 37.796875 6.203125 41.984375 11.859375 
Q 46.1875 17.53125 46.1875 27.296875 
Q 46.1875 37.015625 41.984375 42.703125 
Q 37.796875 48.390625 30.609375 48.390625 
z
M 30.609375 56 
Q 42.328125 56 49.015625 48.375 
Q 55.71875 40.765625 55.71875 27.296875 
Q 55.71875 13.875 49.015625 6.21875 
Q 42.328125 -1.421875 30.609375 -1.421875 
Q 18.84375 -1.421875 12.171875 6.21875 
Q 5.515625 13.875 5.515625 27.296875 
Q 5.515625 40.765625 12.171875 48.375 
Q 18.84375 56 30.609375 56 
z
" id="DejaVuSans-111"/>
     <path d="M 9.421875 75.984375 
L 18.40625 75.984375 
L 18.40625 0 
L 9.421875 0 
z
" id="DejaVuSans-108"/>
     <path d="M 50.984375 -16.609375 
L 50.984375 -23.578125 
L -0.984375 -23.578125 
L -0.984375 -16.609375 
z
" id="DejaVuSans-95"/>
     <path d="M 54.890625 54.6875 
L 35.109375 28.078125 
L 55.90625 0 
L 45.3125 0 
L 29.390625 21.484375 
L 13.484375 0 
L 2.875 0 
L 24.125 28.609375 
L 4.6875 54.6875 
L 15.28125 54.6875 
L 29.78125 35.203125 
L 44.28125 54.6875 
z
" id="DejaVuSans-120"/>
     <path d="M 11.71875 12.40625 
L 22.015625 12.40625 
L 22.015625 0 
L 11.71875 0 
z
M 11.71875 51.703125 
L 22.015625 51.703125 
L 22.015625 39.3125 
L 11.71875 39.3125 
z
" id="DejaVuSans-58"/>
     <path id="DejaVuSans-32"/>
     <path d="M 56.203125 29.59375 
L 56.203125 25.203125 
L 14.890625 25.203125 
Q 15.484375 15.921875 20.484375 11.0625 
Q 25.484375 6.203125 34.421875 6.203125 
Q 39.59375 6.203125 44.453125 7.46875 
Q 49.3125 8.734375 54.109375 11.28125 
L 54.109375 2.78125 
Q 49.265625 0.734375 44.1875 -0.34375 
Q 39.109375 -1.421875 33.890625 -1.421875 
Q 20.796875 -1.421875 13.15625 6.1875 
Q 5.515625 13.8125 5.515625 26.8125 
Q 5.515625 40.234375 12.765625 48.109375 
Q 20.015625 56 32.328125 56 
Q 43.359375 56 49.78125 48.890625 
Q 56.203125 41.796875 56.203125 29.59375 
z
M 47.21875 32.234375 
Q 47.125 39.59375 43.09375 43.984375 
Q 39.0625 48.390625 32.421875 48.390625 
Q 24.90625 48.390625 20.390625 44.140625 
Q 15.875 39.890625 15.1875 32.171875 
z
" id="DejaVuSans-101"/>
     <path d="M 18.109375 8.203125 
L 18.109375 -20.796875 
L 9.078125 -20.796875 
L 9.078125 54.6875 
L 18.109375 54.6875 
L 18.109375 46.390625 
Q 20.953125 51.265625 25.265625 53.625 
Q 29.59375 56 35.59375 56 
Q 45.5625 56 51.78125 48.09375 
Q 58.015625 40.1875 58.015625 27.296875 
Q 58.015625 14.40625 51.78125 6.484375 
Q 45.5625 -1.421875 35.59375 -1.421875 
Q 29.59375 -1.421875 25.265625 0.953125 
Q 20.953125 3.328125 18.109375 8.203125 
z
M 48.6875 27.296875 
Q 48.6875 37.203125 44.609375 42.84375 
Q 40.53125 48.484375 33.40625 48.484375 
Q 26.265625 48.484375 22.1875 42.84375 
Q 18.109375 37.203125 18.109375 27.296875 
Q 18.109375 17.390625 22.1875 11.75 
Q 26.265625 6.109375 33.40625 6.109375 
Q 40.53125 6.109375 44.609375 11.75 
Q 48.6875 17.390625 48.6875 27.296875 
z
" id="DejaVuSans-112"/>
     <path d="M 44.28125 53.078125 
L 44.28125 44.578125 
Q 40.484375 46.53125 36.375 47.5 
Q 32.28125 48.484375 27.875 48.484375 
Q 21.1875 48.484375 17.84375 46.4375 
Q 14.5 44.390625 14.5 40.28125 
Q 14.5 37.15625 16.890625 35.375 
Q 19.28125 33.59375 26.515625 31.984375 
L 29.59375 31.296875 
Q 39.15625 29.25 43.1875 25.515625 
Q 47.21875 21.78125 47.21875 15.09375 
Q 47.21875 7.46875 41.1875 3.015625 
Q 35.15625 -1.421875 24.609375 -1.421875 
Q 20.21875 -1.421875 15.453125 -0.5625 
Q 10.6875 0.296875 5.421875 2 
L 5.421875 11.28125 
Q 10.40625 8.6875 15.234375 7.390625 
Q 20.0625 6.109375 24.8125 6.109375 
Q 31.15625 6.109375 34.5625 8.28125 
Q 37.984375 10.453125 37.984375 14.40625 
Q 37.984375 18.0625 35.515625 20.015625 
Q 33.0625 21.96875 24.703125 23.78125 
L 21.578125 24.515625 
Q 13.234375 26.265625 9.515625 29.90625 
Q 5.8125 33.546875 5.8125 39.890625 
Q 5.8125 47.609375 11.28125 51.796875 
Q 16.75 56 26.8125 56 
Q 31.78125 56 36.171875 55.265625 
Q 40.578125 54.546875 44.28125 53.078125 
z
" id="DejaVuSans-115"/>
     <path d="M 8.5 21.578125 
L 8.5 54.6875 
L 17.484375 54.6875 
L 17.484375 21.921875 
Q 17.484375 14.15625 20.5 10.265625 
Q 23.53125 6.390625 29.59375 6.390625 
Q 36.859375 6.390625 41.078125 11.03125 
Q 45.3125 15.671875 45.3125 23.6875 
L 45.3125 54.6875 
L 54.296875 54.6875 
L 54.296875 0 
L 45.3125 0 
L 45.3125 8.40625 
Q 42.046875 3.421875 37.71875 1 
Q 33.40625 -1.421875 27.6875 -1.421875 
Q 18.265625 -1.421875 13.375 4.4375 
Q 8.5 10.296875 8.5 21.578125 
z
M 31.109375 56 
z
" id="DejaVuSans-117"/>
     <path d="M 34.28125 27.484375 
Q 23.390625 27.484375 19.1875 25 
Q 14.984375 22.515625 14.984375 16.5 
Q 14.984375 11.71875 18.140625 8.90625 
Q 21.296875 6.109375 26.703125 6.109375 
Q 34.1875 6.109375 38.703125 11.40625 
Q 43.21875 16.703125 43.21875 25.484375 
L 43.21875 27.484375 
z
M 52.203125 31.203125 
L 52.203125 0 
L 43.21875 0 
L 43.21875 8.296875 
Q 40.140625 3.328125 35.546875 0.953125 
Q 30.953125 -1.421875 24.3125 -1.421875 
Q 15.921875 -1.421875 10.953125 3.296875 
Q 6 8.015625 6 15.921875 
Q 6 25.140625 12.171875 29.828125 
Q 18.359375 34.515625 30.609375 34.515625 
L 43.21875 34.515625 
L 43.21875 35.40625 
Q 43.21875 41.609375 39.140625 45 
Q 35.0625 48.390625 27.6875 48.390625 
Q 23 48.390625 18.546875 47.265625 
Q 14.109375 46.140625 10.015625 43.890625 
L 10.015625 52.203125 
Q 14.9375 54.109375 19.578125 55.046875 
Q 24.21875 56 28.609375 56 
Q 40.484375 56 46.34375 49.84375 
Q 52.203125 43.703125 52.203125 31.203125 
z
" id="DejaVuSans-97"/>
     <path d="M 18.3125 70.21875 
L 18.3125 54.6875 
L 36.8125 54.6875 
L 36.8125 47.703125 
L 18.3125 47.703125 
L 18.3125 18.015625 
Q 18.3125 11.328125 20.140625 9.421875 
Q 21.96875 7.515625 27.59375 7.515625 
L 36.8125 7.515625 
L 36.8125 0 
L 27.59375 0 
Q 17.1875 0 13.234375 3.875 
Q 9.28125 7.765625 9.28125 18.015625 
L 9.28125 47.703125 
L 2.6875 47.703125 
L 2.6875 54.6875 
L 9.28125 54.6875 
L 9.28125 70.21875 
z
" id="DejaVuSans-116"/>
     <path d="M 54.890625 33.015625 
L 54.890625 0 
L 45.90625 0 
L 45.90625 32.71875 
Q 45.90625 40.484375 42.875 44.328125 
Q 39.84375 48.1875 33.796875 48.1875 
Q 26.515625 48.1875 22.3125 43.546875 
Q 18.109375 38.921875 18.109375 30.90625 
L 18.109375 0 
L 9.078125 0 
L 9.078125 54.6875 
L 18.109375 54.6875 
L 18.109375 46.1875 
Q 21.34375 51.125 25.703125 53.5625 
Q 30.078125 56 35.796875 56 
Q 45.21875 56 50.046875 50.171875 
Q 54.890625 44.34375 54.890625 33.015625 
z
" id="DejaVuSans-110"/>
     <path d="M 11.71875 12.40625 
L 22.015625 12.40625 
L 22.015625 4 
L 14.015625 -11.625 
L 7.71875 -11.625 
L 11.71875 4 
z
" id="DejaVuSans-44"/>
     <path d="M 9.8125 72.90625 
L 24.515625 72.90625 
L 43.109375 23.296875 
L 61.8125 72.90625 
L 76.515625 72.90625 
L 76.515625 0 
L 66.890625 0 
L 66.890625 64.015625 
L 48.09375 14.015625 
L 38.1875 14.015625 
L 19.390625 64.015625 
L 19.390625 0 
L 9.8125 0 
z
" id="DejaVuSans-77"/>
     <path d="M 34.1875 63.1875 
L 20.796875 26.90625 
L 47.609375 26.90625 
z
M 28.609375 72.90625 
L 39.796875 72.90625 
L 67.578125 0 
L 57.328125 0 
L 50.6875 18.703125 
L 17.828125 18.703125 
L 11.1875 0 
L 0.78125 0 
z
" id="DejaVuSans-65"/>
     <path d="M 10.59375 45.40625 
L 73.1875 45.40625 
L 73.1875 37.203125 
L 10.59375 37.203125 
z
M 10.59375 25.484375 
L 73.1875 25.484375 
L 73.1875 17.1875 
L 10.59375 17.1875 
z
" id="DejaVuSans-61"/>
    </defs>
    <g transform="translate(234.102187 20.16)scale(0.12 -0.12)">
     <use xlink:href="#DejaVuSans-103"/>
     <use x="63.476562" xlink:href="#DejaVuSans-114"/>
     <use x="104.589844" xlink:href="#DejaVuSans-105"/>
     <use x="132.373047" xlink:href="#DejaVuSans-100"/>
     <use x="195.849609" xlink:href="#DejaVuSans-119"/>
     <use x="277.636719" xlink:href="#DejaVuSans-111"/>
     <use x="338.818359" xlink:href="#DejaVuSans-114"/>
     <use x="379.931641" xlink:href="#DejaVuSans-108"/>
     <use x="407.714844" xlink:href="#DejaVuSans-100"/>
     <use x="471.191406" xlink:href="#DejaVuSans-95"/>
     <use x="521.191406" xlink:href="#DejaVuSans-49"/>
     <use x="584.814453" xlink:href="#DejaVuSans-50"/>
     <use x="648.4375" xlink:href="#DejaVuSans-120"/>
     <use x="707.617188" xlink:href="#DejaVuSans-49"/>
     <use x="771.240234" xlink:href="#DejaVuSans-50"/>
     <use x="834.863281" xlink:href="#DejaVuSans-58"/>
     <use x="868.554688" xlink:href="#DejaVuSans-32"/>
     <use x="900.341797" xlink:href="#DejaVuSans-101"/>
     <use x="961.865234" xlink:href="#DejaVuSans-112"/>
     <use x="1025.341797" xlink:href="#DejaVuSans-105"/>
     <use x="1053.125" xlink:href="#DejaVuSans-115"/>
     <use x="1105.224609" xlink:href="#DejaVuSans-111"/>
     <use x="1166.40625" xlink:href="#DejaVuSans-100"/>
     <use x="1229.882812" xlink:href="#DejaVuSans-101"/>
     <use x="1291.40625" xlink:href="#DejaVuSans-32"/>
     <use x="1323.193359" xlink:href="#DejaVuSans-100"/>
     <use x="1386.669922" xlink:href="#DejaVuSans-117"/>
     <use x="1450.048828" xlink:href="#DejaVuSans-114"/>
     <use x="1491.162109" xlink:href="#DejaVuSans-97"/>
     <use x="1552.441406" xlink:href="#DejaVuSans-116"/>
     <use x="1591.650391" xlink:href="#DejaVuSans-105"/>
     <use x="1619.433594" xlink:href="#DejaVuSans-111"/>
     <use x="1680.615234" xlink:href="#DejaVuSans-110"/>
     <use x="1743.994141" xlink:href="#DejaVuSans-44"/>
     <use x="1775.78125" xlink:href="#DejaVuSans-32"/>
     <use x="1807.568359" xlink:href="#DejaVuSans-115"/>
     <use x="1859.667969" xlink:href="#DejaVuSans-116"/>
     <use x="1898.876953" xlink:href="#DejaVuSans-101"/>
     <use x="1960.400391" xlink:href="#DejaVuSans-112"/>
     <use x="2023.876953" xlink:href="#DejaVuSans-115"/>
     <use x="2075.976562" xlink:href="#DejaVuSans-44"/>
     <use x="2107.763672" xlink:href="#DejaVuSans-32"/>
     <use x="2139.550781" xlink:href="#DejaVuSans-77"/>
     <use x="2225.830078" xlink:href="#DejaVuSans-65"/>
     <use x="2294.238281" xlink:href="#DejaVuSans-61"/>
     <use x="2378.027344" xlink:href="#DejaVuSans-52"/>
    </g>
   </g>
   <g id="legend_1">
    <g id="patch_7">
     <path d="M 746.230687 261.369687 
L 854.751 261.369687 
Q 856.751 261.369687 856.751 259.369687 
L 856.751 170.910313 
Q 856.751 168.910313 854.751 168.910313 
L 746.230687 168.910313 
Q 744.230687 168.910313 744.230687 170.910313 
L 744.230687 259.369687 
Q 744.230687 261.369687 746.230687 261.369687 
z
" style="fill:#ffffff;opacity:0.8;stroke:#cccccc;stroke-linejoin:miter;"/>
    </g>
    <g id="line2d_20">
     <path d="M 748.230687 177.00875 
L 768.230687 177.00875 
" style="fill:none;stroke:#1f77b4;stroke-linecap:square;stroke-width:1.5;"/>
    </g>
    <g id="line2d_21"/>
    <g id="text_15">
     <!-- dqn_eps -->
     <defs>
      <path d="M 14.796875 27.296875 
Q 14.796875 17.390625 18.875 11.75 
Q 22.953125 6.109375 30.078125 6.109375 
Q 37.203125 6.109375 41.296875 11.75 
Q 45.40625 17.390625 45.40625 27.296875 
Q 45.40625 37.203125 41.296875 42.84375 
Q 37.203125 48.484375 30.078125 48.484375 
Q 22.953125 48.484375 18.875 42.84375 
Q 14.796875 37.203125 14.796875 27.296875 
z
M 45.40625 8.203125 
Q 42.578125 3.328125 38.25 0.953125 
Q 33.9375 -1.421875 27.875 -1.421875 
Q 17.96875 -1.421875 11.734375 6.484375 
Q 5.515625 14.40625 5.515625 27.296875 
Q 5.515625 40.1875 11.734375 48.09375 
Q 17.96875 56 27.875 56 
Q 33.9375 56 38.25 53.625 
Q 42.578125 51.265625 45.40625 46.390625 
L 45.40625 54.6875 
L 54.390625 54.6875 
L 54.390625 -20.796875 
L 45.40625 -20.796875 
z
" id="DejaVuSans-113"/>
     </defs>
     <g transform="translate(776.230687 180.50875)scale(0.1 -0.1)">
      <use xlink:href="#DejaVuSans-100"/>
      <use x="63.476562" xlink:href="#DejaVuSans-113"/>
      <use x="126.953125" xlink:href="#DejaVuSans-110"/>
      <use x="190.332031" xlink:href="#DejaVuSans-95"/>
      <use x="240.332031" xlink:href="#DejaVuSans-101"/>
      <use x="301.855469" xlink:href="#DejaVuSans-112"/>
      <use x="365.332031" xlink:href="#DejaVuSans-115"/>
     </g>
    </g>
    <g id="line2d_22">
     <path d="M 748.230687 191.965 
L 768.230687 191.965 
" style="fill:none;stroke:#ff7f0e;stroke-linecap:square;stroke-width:1.5;"/>
    </g>
    <g id="line2d_23"/>
    <g id="text_16">
     <!-- dqn_greedy -->
     <defs>
      <path d="M 32.171875 -5.078125 
Q 28.375 -14.84375 24.75 -17.8125 
Q 21.140625 -20.796875 15.09375 -20.796875 
L 7.90625 -20.796875 
L 7.90625 -13.28125 
L 13.1875 -13.28125 
Q 16.890625 -13.28125 18.9375 -11.515625 
Q 21 -9.765625 23.484375 -3.21875 
L 25.09375 0.875 
L 2.984375 54.6875 
L 12.5 54.6875 
L 29.59375 11.921875 
L 46.6875 54.6875 
L 56.203125 54.6875 
z
" id="DejaVuSans-121"/>
     </defs>
     <g transform="translate(776.230687 195.465)scale(0.1 -0.1)">
      <use xlink:href="#DejaVuSans-100"/>
      <use x="63.476562" xlink:href="#DejaVuSans-113"/>
      <use x="126.953125" xlink:href="#DejaVuSans-110"/>
      <use x="190.332031" xlink:href="#DejaVuSans-95"/>
      <use x="240.332031" xlink:href="#DejaVuSans-103"/>
      <use x="303.808594" xlink:href="#DejaVuSans-114"/>
      <use x="344.890625" xlink:href="#DejaVuSans-101"/>
      <use x="406.414062" xlink:href="#DejaVuSans-101"/>
      <use x="467.9375" xlink:href="#DejaVuSans-100"/>
      <use x="531.414062" xlink:href="#DejaVuSans-121"/>
     </g>
    </g>
    <g id="line2d_24">
     <path d="M 748.230687 206.92125 
L 768.230687 206.92125 
" style="fill:none;stroke:#2ca02c;stroke-linecap:square;stroke-width:1.5;"/>
    </g>
    <g id="line2d_25"/>
    <g id="text_17">
     <!-- mcts -->
     <defs>
      <path d="M 52 44.1875 
Q 55.375 50.25 60.0625 53.125 
Q 64.75 56 71.09375 56 
Q 79.640625 56 84.28125 50.015625 
Q 88.921875 44.046875 88.921875 33.015625 
L 88.921875 0 
L 79.890625 0 
L 79.890625 32.71875 
Q 79.890625 40.578125 77.09375 44.375 
Q 74.3125 48.1875 68.609375 48.1875 
Q 61.625 48.1875 57.5625 43.546875 
Q 53.515625 38.921875 53.515625 30.90625 
L 53.515625 0 
L 44.484375 0 
L 44.484375 32.71875 
Q 44.484375 40.625 41.703125 44.40625 
Q 38.921875 48.1875 33.109375 48.1875 
Q 26.21875 48.1875 22.15625 43.53125 
Q 18.109375 38.875 18.109375 30.90625 
L 18.109375 0 
L 9.078125 0 
L 9.078125 54.6875 
L 18.109375 54.6875 
L 18.109375 46.1875 
Q 21.1875 51.21875 25.484375 53.609375 
Q 29.78125 56 35.6875 56 
Q 41.65625 56 45.828125 52.96875 
Q 50 49.953125 52 44.1875 
z
" id="DejaVuSans-109"/>
      <path d="M 48.78125 52.59375 
L 48.78125 44.1875 
Q 44.96875 46.296875 41.140625 47.34375 
Q 37.3125 48.390625 33.40625 48.390625 
Q 24.65625 48.390625 19.8125 42.84375 
Q 14.984375 37.3125 14.984375 27.296875 
Q 14.984375 17.28125 19.8125 11.734375 
Q 24.65625 6.203125 33.40625 6.203125 
Q 37.3125 6.203125 41.140625 7.25 
Q 44.96875 8.296875 48.78125 10.40625 
L 48.78125 2.09375 
Q 45.015625 0.34375 40.984375 -0.53125 
Q 36.96875 -1.421875 32.421875 -1.421875 
Q 20.0625 -1.421875 12.78125 6.34375 
Q 5.515625 14.109375 5.515625 27.296875 
Q 5.515625 40.671875 12.859375 48.328125 
Q 20.21875 56 33.015625 56 
Q 37.15625 56 41.109375 55.140625 
Q 45.0625 54.296875 48.78125 52.59375 
z
" id="DejaVuSans-99"/>
     </defs>
     <g transform="translate(776.230687 210.42125)scale(0.1 -0.1)">
      <use xlink:href="#DejaVuSans-109"/>
      <use x="97.412109" xlink:href="#DejaVuSans-99"/>
      <use x="152.392578" xlink:href="#DejaVuSans-116"/>
      <use x="191.601562" xlink:href="#DejaVuSans-115"/>
     </g>
    </g>
    <g id="line2d_26">
     <path d="M 748.230687 221.599375 
L 768.230687 221.599375 
" style="fill:none;stroke:#d62728;stroke-linecap:square;stroke-width:1.5;"/>
    </g>
    <g id="line2d_27"/>
    <g id="text_18">
     <!-- no_dqn_eps -->
     <g transform="translate(776.230687 225.099375)scale(0.1 -0.1)">
      <use xlink:href="#DejaVuSans-110"/>
      <use x="63.378906" xlink:href="#DejaVuSans-111"/>
      <use x="124.560547" xlink:href="#DejaVuSans-95"/>
      <use x="174.560547" xlink:href="#DejaVuSans-100"/>
      <use x="238.037109" xlink:href="#DejaVuSans-113"/>
      <use x="301.513672" xlink:href="#DejaVuSans-110"/>
      <use x="364.892578" xlink:href="#DejaVuSans-95"/>
      <use x="414.892578" xlink:href="#DejaVuSans-101"/>
      <use x="476.416016" xlink:href="#DejaVuSans-112"/>
      <use x="539.892578" xlink:href="#DejaVuSans-115"/>
     </g>
    </g>
    <g id="line2d_28">
     <path d="M 748.230687 236.555625 
L 768.230687 236.555625 
" style="fill:none;stroke:#9467bd;stroke-linecap:square;stroke-width:1.5;"/>
    </g>
    <g id="line2d_29"/>
    <g id="text_19">
     <!-- no_dqn_greedy -->
     <g transform="translate(776.230687 240.055625)scale(0.1 -0.1)">
      <use xlink:href="#DejaVuSans-110"/>
      <use x="63.378906" xlink:href="#DejaVuSans-111"/>
      <use x="124.560547" xlink:href="#DejaVuSans-95"/>
      <use x="174.560547" xlink:href="#DejaVuSans-100"/>
      <use x="238.037109" xlink:href="#DejaVuSans-113"/>
      <use x="301.513672" xlink:href="#DejaVuSans-110"/>
      <use x="364.892578" xlink:href="#DejaVuSans-95"/>
      <use x="414.892578" xlink:href="#DejaVuSans-103"/>
      <use x="478.369141" xlink:href="#DejaVuSans-114"/>
      <use x="519.451172" xlink:href="#DejaVuSans-101"/>
      <use x="580.974609" xlink:href="#DejaVuSans-101"/>
      <use x="642.498047" xlink:href="#DejaVuSans-100"/>
      <use x="705.974609" xlink:href="#DejaVuSans-121"/>
     </g>
    </g>
    <g id="line2d_30">
     <path d="M 748.230687 251.511875 
L 768.230687 251.511875 
" style="fill:none;stroke:#8c564b;stroke-linecap:square;stroke-width:1.5;"/>
    </g>
    <g id="line2d_31"/>
    <g id="text_20">
     <!-- no_mcts -->
     <g transform="translate(776.230687 255.011875)scale(0.1 -0.1)">
      <use xlink:href="#DejaVuSans-110"/>
      <use x="63.378906" xlink:href="#DejaVuSans-111"/>
      <use x="124.560547" xlink:href="#DejaVuSans-95"/>
      <use x="174.560547" xlink:href="#DejaVuSans-109"/>
      <use x="271.972656" xlink:href="#DejaVuSans-99"/>
      <use x="326.953125" xlink:href="#DejaVuSans-116"/>
      <use x="366.162109" xlink:href="#DejaVuSans-115"/>
     </g>
    </g>
   </g>
  </g>
 </g>
 <defs>
  <clipPath id="pb9a218945a">
   <rect height="377.96" width="687.355" x="36.925" y="26.16"/>
  </clipPath>
 </defs>
</svg>
