<?xml version="1.0" encoding="utf-8" standalone="no"?>
<!DOCTYPE svg PUBLIC "-//W3C//DTD SVG 1.1//EN"
  "http://www.w3.org/Graphics/SVG/1.1/DTD/svg11.dtd">
<!-- Created with matplotlib (https://matplotlib.org/) -->
<svg height="432pt" version="1.1" viewBox="0 0 864 432" width="864pt" xmlns="http://www.w3.org/2000/svg" xmlns:xlink="http://www.w3.org/1999/xlink">
 <defs>
  <style type="text/css">
*{stroke-linecap:butt;stroke-linejoin:round;}
  </style>
 </defs>
 <g id="figure_1">
  <g id="patch_1">
   <path d="M 0 432 
L 864 432 
L 864 0 
L 0 0 
z
" style="fill:#ffffff;"/>
  </g>
  <g id="axes_1">
   <g id="patch_2">
    <path d="M 30.58 404.12 
L 724.28 404.12 
L 724.28 26.16 
L 30.58 26.16 
z
" style="fill:#ffffff;"/>
   </g>
   <g id="matplotlib.axis_1">
    <g id="xtick_1">
     <g id="line2d_1">
      <defs>
       <path d="M 0 0 
L 0 3.5 
" id="m24c6505255" style="stroke:#000000;stroke-width:0.8;"/>
      </defs>
      <g>
       <use style="stroke:#000000;stroke-width:0.8;" x="30.58" xlink:href="#m24c6505255" y="404.12"/>
      </g>
     </g>
     <g id="text_1">
      <!-- 0 -->
      <defs>
       <path d="M 31.78125 66.40625 
Q 24.171875 66.40625 20.328125 58.90625 
Q 16.5 51.421875 16.5 36.375 
Q 16.5 21.390625 20.328125 13.890625 
Q 24.171875 6.390625 31.78125 6.390625 
Q 39.453125 6.390625 43.28125 13.890625 
Q 47.125 21.390625 47.125 36.375 
Q 47.125 51.421875 43.28125 58.90625 
Q 39.453125 66.40625 31.78125 66.40625 
z
M 31.78125 74.21875 
Q 44.046875 74.21875 50.515625 64.515625 
Q 56.984375 54.828125 56.984375 36.375 
Q 56.984375 17.96875 50.515625 8.265625 
Q 44.046875 -1.421875 31.78125 -1.421875 
Q 19.53125 -1.421875 13.0625 8.265625 
Q 6.59375 17.96875 6.59375 36.375 
Q 6.59375 54.828125 13.0625 64.515625 
Q 19.53125 74.21875 31.78125 74.21875 
z
" id="DejaVuSans-48"/>
      </defs>
      <g transform="translate(27.39875 418.718437)scale(0.1 -0.1)">
       <use xlink:href="#DejaVuSans-48"/>
      </g>
     </g>
    </g>
    <g id="xtick_2">
     <g id="line2d_2">
      <g>
       <use style="stroke:#000000;stroke-width:0.8;" x="117.509825" xlink:href="#m24c6505255" y="404.12"/>
      </g>
     </g>
     <g id="text_2">
      <!-- 50 -->
      <defs>
       <path d="M 10.796875 72.90625 
L 49.515625 72.90625 
L 49.515625 64.59375 
L 19.828125 64.59375 
L 19.828125 46.734375 
Q 21.96875 47.46875 24.109375 47.828125 
Q 26.265625 48.1875 28.421875 48.1875 
Q 40.625 48.1875 47.75 41.5 
Q 54.890625 34.8125 54.890625 23.390625 
Q 54.890625 11.625 47.5625 5.09375 
Q 40.234375 -1.421875 26.90625 -1.421875 
Q 22.3125 -1.421875 17.546875 -0.640625 
Q 12.796875 0.140625 7.71875 1.703125 
L 7.71875 11.625 
Q 12.109375 9.234375 16.796875 8.0625 
Q 21.484375 6.890625 26.703125 6.890625 
Q 35.15625 6.890625 40.078125 11.328125 
Q 45.015625 15.765625 45.015625 23.390625 
Q 45.015625 31 40.078125 35.4375 
Q 35.15625 39.890625 26.703125 39.890625 
Q 22.75 39.890625 18.8125 39.015625 
Q 14.890625 38.140625 10.796875 36.28125 
z
" id="DejaVuSans-53"/>
      </defs>
      <g transform="translate(111.147325 418.718437)scale(0.1 -0.1)">
       <use xlink:href="#DejaVuSans-53"/>
       <use x="63.623047" xlink:href="#DejaVuSans-48"/>
      </g>
     </g>
    </g>
    <g id="xtick_3">
     <g id="line2d_3">
      <g>
       <use style="stroke:#000000;stroke-width:0.8;" x="204.439649" xlink:href="#m24c6505255" y="404.12"/>
      </g>
     </g>
     <g id="text_3">
      <!-- 100 -->
      <defs>
       <path d="M 12.40625 8.296875 
L 28.515625 8.296875 
L 28.515625 63.921875 
L 10.984375 60.40625 
L 10.984375 69.390625 
L 28.421875 72.90625 
L 38.28125 72.90625 
L 38.28125 8.296875 
L 54.390625 8.296875 
L 54.390625 0 
L 12.40625 0 
z
" id="DejaVuSans-49"/>
      </defs>
      <g transform="translate(194.895899 418.718437)scale(0.1 -0.1)">
       <use xlink:href="#DejaVuSans-49"/>
       <use x="63.623047" xlink:href="#DejaVuSans-48"/>
       <use x="127.246094" xlink:href="#DejaVuSans-48"/>
      </g>
     </g>
    </g>
    <g id="xtick_4">
     <g id="line2d_4">
      <g>
       <use style="stroke:#000000;stroke-width:0.8;" x="291.369474" xlink:href="#m24c6505255" y="404.12"/>
      </g>
     </g>
     <g id="text_4">
      <!-- 150 -->
      <g transform="translate(281.825724 418.718437)scale(0.1 -0.1)">
       <use xlink:href="#DejaVuSans-49"/>
       <use x="63.623047" xlink:href="#DejaVuSans-53"/>
       <use x="127.246094" xlink:href="#DejaVuSans-48"/>
      </g>
     </g>
    </g>
    <g id="xtick_5">
     <g id="line2d_5">
      <g>
       <use style="stroke:#000000;stroke-width:0.8;" x="378.299298" xlink:href="#m24c6505255" y="404.12"/>
      </g>
     </g>
     <g id="text_5">
      <!-- 200 -->
      <defs>
       <path d="M 19.1875 8.296875 
L 53.609375 8.296875 
L 53.609375 0 
L 7.328125 0 
L 7.328125 8.296875 
Q 12.9375 14.109375 22.625 23.890625 
Q 32.328125 33.6875 34.8125 36.53125 
Q 39.546875 41.84375 41.421875 45.53125 
Q 43.3125 49.21875 43.3125 52.78125 
Q 43.3125 58.59375 39.234375 62.25 
Q 35.15625 65.921875 28.609375 65.921875 
Q 23.96875 65.921875 18.8125 64.3125 
Q 13.671875 62.703125 7.8125 59.421875 
L 7.8125 69.390625 
Q 13.765625 71.78125 18.9375 73 
Q 24.125 74.21875 28.421875 74.21875 
Q 39.75 74.21875 46.484375 68.546875 
Q 53.21875 62.890625 53.21875 53.421875 
Q 53.21875 48.921875 51.53125 44.890625 
Q 49.859375 40.875 45.40625 35.40625 
Q 44.1875 33.984375 37.640625 27.21875 
Q 31.109375 20.453125 19.1875 8.296875 
z
" id="DejaVuSans-50"/>
      </defs>
      <g transform="translate(368.755548 418.718437)scale(0.1 -0.1)">
       <use xlink:href="#DejaVuSans-50"/>
       <use x="63.623047" xlink:href="#DejaVuSans-48"/>
       <use x="127.246094" xlink:href="#DejaVuSans-48"/>
      </g>
     </g>
    </g>
    <g id="xtick_6">
     <g id="line2d_6">
      <g>
       <use style="stroke:#000000;stroke-width:0.8;" x="465.229123" xlink:href="#m24c6505255" y="404.12"/>
      </g>
     </g>
     <g id="text_6">
      <!-- 250 -->
      <g transform="translate(455.685373 418.718437)scale(0.1 -0.1)">
       <use xlink:href="#DejaVuSans-50"/>
       <use x="63.623047" xlink:href="#DejaVuSans-53"/>
       <use x="127.246094" xlink:href="#DejaVuSans-48"/>
      </g>
     </g>
    </g>
    <g id="xtick_7">
     <g id="line2d_7">
      <g>
       <use style="stroke:#000000;stroke-width:0.8;" x="552.158947" xlink:href="#m24c6505255" y="404.12"/>
      </g>
     </g>
     <g id="text_7">
      <!-- 300 -->
      <defs>
       <path d="M 40.578125 39.3125 
Q 47.65625 37.796875 51.625 33 
Q 55.609375 28.21875 55.609375 21.1875 
Q 55.609375 10.40625 48.1875 4.484375 
Q 40.765625 -1.421875 27.09375 -1.421875 
Q 22.515625 -1.421875 17.65625 -0.515625 
Q 12.796875 0.390625 7.625 2.203125 
L 7.625 11.71875 
Q 11.71875 9.328125 16.59375 8.109375 
Q 21.484375 6.890625 26.8125 6.890625 
Q 36.078125 6.890625 40.9375 10.546875 
Q 45.796875 14.203125 45.796875 21.1875 
Q 45.796875 27.640625 41.28125 31.265625 
Q 36.765625 34.90625 28.71875 34.90625 
L 20.21875 34.90625 
L 20.21875 43.015625 
L 29.109375 43.015625 
Q 36.375 43.015625 40.234375 45.921875 
Q 44.09375 48.828125 44.09375 54.296875 
Q 44.09375 59.90625 40.109375 62.90625 
Q 36.140625 65.921875 28.71875 65.921875 
Q 24.65625 65.921875 20.015625 65.03125 
Q 15.375 64.15625 9.8125 62.3125 
L 9.8125 71.09375 
Q 15.4375 72.65625 20.34375 73.4375 
Q 25.25 74.21875 29.59375 74.21875 
Q 40.828125 74.21875 47.359375 69.109375 
Q 53.90625 64.015625 53.90625 55.328125 
Q 53.90625 49.265625 50.4375 45.09375 
Q 46.96875 40.921875 40.578125 39.3125 
z
" id="DejaVuSans-51"/>
      </defs>
      <g transform="translate(542.615197 418.718437)scale(0.1 -0.1)">
       <use xlink:href="#DejaVuSans-51"/>
       <use x="63.623047" xlink:href="#DejaVuSans-48"/>
       <use x="127.246094" xlink:href="#DejaVuSans-48"/>
      </g>
     </g>
    </g>
    <g id="xtick_8">
     <g id="line2d_8">
      <g>
       <use style="stroke:#000000;stroke-width:0.8;" x="639.088772" xlink:href="#m24c6505255" y="404.12"/>
      </g>
     </g>
     <g id="text_8">
      <!-- 350 -->
      <g transform="translate(629.545022 418.718437)scale(0.1 -0.1)">
       <use xlink:href="#DejaVuSans-51"/>
       <use x="63.623047" xlink:href="#DejaVuSans-53"/>
       <use x="127.246094" xlink:href="#DejaVuSans-48"/>
      </g>
     </g>
    </g>
   </g>
   <g id="matplotlib.axis_2">
    <g id="ytick_1">
     <g id="line2d_9">
      <defs>
       <path d="M 0 0 
L -3.5 0 
" id="ma5fad9204c" style="stroke:#000000;stroke-width:0.8;"/>
      </defs>
      <g>
       <use style="stroke:#000000;stroke-width:0.8;" x="30.58" xlink:href="#ma5fad9204c" y="367.05467"/>
      </g>
     </g>
     <g id="text_9">
      <!-- 10 -->
      <g transform="translate(10.855 370.853889)scale(0.1 -0.1)">
       <use xlink:href="#DejaVuSans-49"/>
       <use x="63.623047" xlink:href="#DejaVuSans-48"/>
      </g>
     </g>
    </g>
    <g id="ytick_2">
     <g id="line2d_10">
      <g>
       <use style="stroke:#000000;stroke-width:0.8;" x="30.58" xlink:href="#ma5fad9204c" y="320.809717"/>
      </g>
     </g>
     <g id="text_10">
      <!-- 20 -->
      <g transform="translate(10.855 324.608936)scale(0.1 -0.1)">
       <use xlink:href="#DejaVuSans-50"/>
       <use x="63.623047" xlink:href="#DejaVuSans-48"/>
      </g>
     </g>
    </g>
    <g id="ytick_3">
     <g id="line2d_11">
      <g>
       <use style="stroke:#000000;stroke-width:0.8;" x="30.58" xlink:href="#ma5fad9204c" y="274.564764"/>
      </g>
     </g>
     <g id="text_11">
      <!-- 30 -->
      <g transform="translate(10.855 278.363983)scale(0.1 -0.1)">
       <use xlink:href="#DejaVuSans-51"/>
       <use x="63.623047" xlink:href="#DejaVuSans-48"/>
      </g>
     </g>
    </g>
    <g id="ytick_4">
     <g id="line2d_12">
      <g>
       <use style="stroke:#000000;stroke-width:0.8;" x="30.58" xlink:href="#ma5fad9204c" y="228.319812"/>
      </g>
     </g>
     <g id="text_12">
      <!-- 40 -->
      <defs>
       <path d="M 37.796875 64.3125 
L 12.890625 25.390625 
L 37.796875 25.390625 
z
M 35.203125 72.90625 
L 47.609375 72.90625 
L 47.609375 25.390625 
L 58.015625 25.390625 
L 58.015625 17.1875 
L 47.609375 17.1875 
L 47.609375 0 
L 37.796875 0 
L 37.796875 17.1875 
L 4.890625 17.1875 
L 4.890625 26.703125 
z
" id="DejaVuSans-52"/>
      </defs>
      <g transform="translate(10.855 232.11903)scale(0.1 -0.1)">
       <use xlink:href="#DejaVuSans-52"/>
       <use x="63.623047" xlink:href="#DejaVuSans-48"/>
      </g>
     </g>
    </g>
    <g id="ytick_5">
     <g id="line2d_13">
      <g>
       <use style="stroke:#000000;stroke-width:0.8;" x="30.58" xlink:href="#ma5fad9204c" y="182.074859"/>
      </g>
     </g>
     <g id="text_13">
      <!-- 50 -->
      <g transform="translate(10.855 185.874077)scale(0.1 -0.1)">
       <use xlink:href="#DejaVuSans-53"/>
       <use x="63.623047" xlink:href="#DejaVuSans-48"/>
      </g>
     </g>
    </g>
    <g id="ytick_6">
     <g id="line2d_14">
      <g>
       <use style="stroke:#000000;stroke-width:0.8;" x="30.58" xlink:href="#ma5fad9204c" y="135.829906"/>
      </g>
     </g>
     <g id="text_14">
      <!-- 60 -->
      <defs>
       <path d="M 33.015625 40.375 
Q 26.375 40.375 22.484375 35.828125 
Q 18.609375 31.296875 18.609375 23.390625 
Q 18.609375 15.53125 22.484375 10.953125 
Q 26.375 6.390625 33.015625 6.390625 
Q 39.65625 6.390625 43.53125 10.953125 
Q 47.40625 15.53125 47.40625 23.390625 
Q 47.40625 31.296875 43.53125 35.828125 
Q 39.65625 40.375 33.015625 40.375 
z
M 52.59375 71.296875 
L 52.59375 62.3125 
Q 48.875 64.0625 45.09375 64.984375 
Q 41.3125 65.921875 37.59375 65.921875 
Q 27.828125 65.921875 22.671875 59.328125 
Q 17.53125 52.734375 16.796875 39.40625 
Q 19.671875 43.65625 24.015625 45.921875 
Q 28.375 48.1875 33.59375 48.1875 
Q 44.578125 48.1875 50.953125 41.515625 
Q 57.328125 34.859375 57.328125 23.390625 
Q 57.328125 12.15625 50.6875 5.359375 
Q 44.046875 -1.421875 33.015625 -1.421875 
Q 20.359375 -1.421875 13.671875 8.265625 
Q 6.984375 17.96875 6.984375 36.375 
Q 6.984375 53.65625 15.1875 63.9375 
Q 23.390625 74.21875 37.203125 74.21875 
Q 40.921875 74.21875 44.703125 73.484375 
Q 48.484375 72.75 52.59375 71.296875 
z
" id="DejaVuSans-54"/>
      </defs>
      <g transform="translate(10.855 139.629125)scale(0.1 -0.1)">
       <use xlink:href="#DejaVuSans-54"/>
       <use x="63.623047" xlink:href="#DejaVuSans-48"/>
      </g>
     </g>
    </g>
    <g id="ytick_7">
     <g id="line2d_15">
      <g>
       <use style="stroke:#000000;stroke-width:0.8;" x="30.58" xlink:href="#ma5fad9204c" y="89.584953"/>
      </g>
     </g>
     <g id="text_15">
      <!-- 70 -->
      <defs>
       <path d="M 8.203125 72.90625 
L 55.078125 72.90625 
L 55.078125 68.703125 
L 28.609375 0 
L 18.3125 0 
L 43.21875 64.59375 
L 8.203125 64.59375 
z
" id="DejaVuSans-55"/>
      </defs>
      <g transform="translate(10.855 93.384172)scale(0.1 -0.1)">
       <use xlink:href="#DejaVuSans-55"/>
       <use x="63.623047" xlink:href="#DejaVuSans-48"/>
      </g>
     </g>
    </g>
    <g id="ytick_8">
     <g id="line2d_16">
      <g>
       <use style="stroke:#000000;stroke-width:0.8;" x="30.58" xlink:href="#ma5fad9204c" y="43.34"/>
      </g>
     </g>
     <g id="text_16">
      <!-- 80 -->
      <defs>
       <path d="M 31.78125 34.625 
Q 24.75 34.625 20.71875 30.859375 
Q 16.703125 27.09375 16.703125 20.515625 
Q 16.703125 13.921875 20.71875 10.15625 
Q 24.75 6.390625 31.78125 6.390625 
Q 38.8125 6.390625 42.859375 10.171875 
Q 46.921875 13.96875 46.921875 20.515625 
Q 46.921875 27.09375 42.890625 30.859375 
Q 38.875 34.625 31.78125 34.625 
z
M 21.921875 38.8125 
Q 15.578125 40.375 12.03125 44.71875 
Q 8.5 49.078125 8.5 55.328125 
Q 8.5 64.0625 14.71875 69.140625 
Q 20.953125 74.21875 31.78125 74.21875 
Q 42.671875 74.21875 48.875 69.140625 
Q 55.078125 64.0625 55.078125 55.328125 
Q 55.078125 49.078125 51.53125 44.71875 
Q 48 40.375 41.703125 38.8125 
Q 48.828125 37.15625 52.796875 32.3125 
Q 56.78125 27.484375 56.78125 20.515625 
Q 56.78125 9.90625 50.3125 4.234375 
Q 43.84375 -1.421875 31.78125 -1.421875 
Q 19.734375 -1.421875 13.25 4.234375 
Q 6.78125 9.90625 6.78125 20.515625 
Q 6.78125 27.484375 10.78125 32.3125 
Q 14.796875 37.15625 21.921875 38.8125 
z
M 18.3125 54.390625 
Q 18.3125 48.734375 21.84375 45.5625 
Q 25.390625 42.390625 31.78125 42.390625 
Q 38.140625 42.390625 41.71875 45.5625 
Q 45.3125 48.734375 45.3125 54.390625 
Q 45.3125 60.0625 41.71875 63.234375 
Q 38.140625 66.40625 31.78125 66.40625 
Q 25.390625 66.40625 21.84375 63.234375 
Q 18.3125 60.0625 18.3125 54.390625 
z
" id="DejaVuSans-56"/>
      </defs>
      <g transform="translate(10.855 47.139219)scale(0.1 -0.1)">
       <use xlink:href="#DejaVuSans-56"/>
       <use x="63.623047" xlink:href="#DejaVuSans-48"/>
      </g>
     </g>
    </g>
   </g>
   <g id="line2d_17">
    <path clip-path="url(#pc6192e76e0)" d="M 46.227368 78.948614 
L 60.13614 78.948614 
L 61.874737 43.34 
L 65.35193 43.34 
L 67.090526 78.486164 
L 77.522105 78.486164 
L 79.260702 112.24498 
L 82.737895 112.24498 
L 84.476491 77.098816 
L 94.90807 77.098816 
L 96.646667 43.34 
L 150.543158 43.34 
L 152.281754 76.636366 
L 157.497544 76.636366 
L 159.23614 112.24498 
L 167.929123 112.24498 
L 169.667719 78.948614 
L 173.144912 78.948614 
L 174.883509 113.169879 
L 176.622105 77.561265 
L 178.360702 109.007833 
L 183.576491 109.007833 
L 185.315088 139.991952 
L 190.530877 139.991952 
L 192.269474 141.84175 
L 194.00807 141.84175 
L 195.746667 110.395182 
L 197.485263 144.616447 
L 199.22386 144.616447 
L 200.962456 178.837712 
L 202.701053 180.225061 
L 204.439649 215.833674 
L 206.178246 215.833674 
L 207.916842 250.054939 
L 209.655439 213.983876 
L 211.394035 248.205141 
L 213.132632 248.205141 
L 214.871228 248.667591 
L 216.609825 281.501507 
L 218.348421 247.280242 
L 220.087018 248.667591 
L 221.825614 213.058977 
L 223.564211 213.058977 
L 225.302807 213.521427 
L 227.041404 245.892894 
L 228.78 211.671629 
L 230.518596 246.817793 
L 232.257193 212.134078 
L 235.734386 212.134078 
L 237.472982 213.983876 
L 240.950175 213.983876 
L 242.688772 179.300162 
L 244.427368 146.928694 
L 246.165965 146.928694 
L 247.904561 111.78253 
L 249.643158 111.78253 
L 251.381754 78.948614 
L 253.120351 78.948614 
L 254.858947 43.34 
L 326.141404 43.34 
L 327.88 75.711467 
L 331.357193 75.711467 
L 334.834386 143.691548 
L 336.572982 143.691548 
L 338.311579 177.912813 
L 343.527368 285.201104 
L 345.265965 286.588452 
L 347.004561 286.588452 
L 348.743158 319.884818 
L 350.481754 285.663553 
L 352.220351 283.813755 
L 353.958947 318.03502 
L 355.697544 317.572571 
L 357.43614 313.872974 
L 359.174737 311.560727 
L 360.913333 308.78603 
L 362.65193 310.173378 
L 364.390526 343.932194 
L 366.129123 344.857093 
L 367.867719 379.540808 
L 369.606316 382.315505 
L 371.344912 379.540808 
L 373.083509 377.22856 
L 374.822105 378.153459 
L 376.560702 374.453863 
L 378.299298 343.007295 
L 381.776491 274.102315 
L 388.730877 139.067052 
L 390.469474 107.620485 
L 392.20807 73.861669 
L 393.946667 43.34 
L 439.150175 43.34 
L 440.888772 75.711467 
L 456.53614 75.711467 
L 458.274737 43.34 
L 465.229123 43.34 
L 466.967719 78.948614 
L 482.615088 78.948614 
L 484.353684 43.34 
L 486.092281 78.948614 
L 494.785263 78.948614 
L 496.52386 115.019677 
L 501.739649 115.019677 
L 503.478246 79.411063 
L 505.216842 115.482127 
L 512.171228 115.482127 
L 513.909825 79.411063 
L 515.648421 79.411063 
L 517.387018 115.019677 
L 520.864211 115.019677 
L 522.602807 78.948614 
L 533.034386 78.948614 
L 534.772982 43.34 
L 592.146667 43.34 
L 593.885263 79.873513 
L 595.62386 112.707429 
L 597.362456 112.707429 
L 599.101053 147.853594 
L 606.055439 147.853594 
L 607.794035 183.924657 
L 609.532632 183.924657 
L 611.271228 147.391144 
L 613.009825 114.557227 
L 614.748421 114.557227 
L 616.487018 79.411063 
L 618.225614 115.482127 
L 621.702807 115.482127 
L 623.441404 151.09074 
L 625.18 115.019677 
L 626.918596 146.003795 
L 630.395789 146.003795 
L 633.872982 215.371225 
L 635.611579 210.746729 
L 639.088772 210.746729 
L 640.827368 175.138116 
L 642.565965 175.138116 
L 644.304561 180.225061 
L 647.781754 251.442288 
L 649.520351 251.442288 
L 651.258947 246.355343 
L 652.997544 248.205141 
L 654.73614 282.888856 
L 659.95193 282.888856 
L 666.906316 140.454401 
L 668.644912 111.320081 
L 672.122105 43.34 
L 713.848421 43.34 
L 715.587018 79.873513 
L 717.325614 79.873513 
L 719.064211 116.407026 
L 724.28 116.407026 
L 724.28 116.407026 
" style="fill:none;stroke:#1f77b4;stroke-linecap:square;stroke-width:1.5;"/>
   </g>
   <g id="line2d_18">
    <path clip-path="url(#pc6192e76e0)" d="M 46.227368 192.248748 
L 49.704561 234.331655 
L 51.443158 244.967995 
L 53.181754 273.177416 
L 54.920351 276.414563 
L 56.658947 275.952113 
L 60.13614 344.857093 
L 61.874737 334.683203 
L 63.613333 339.770148 
L 65.35193 350.868937 
L 67.090526 365.667322 
L 68.829123 362.430175 
L 72.306316 358.730579 
L 74.044912 370.291817 
L 75.783509 366.129771 
L 77.522105 365.667322 
L 79.260702 372.141615 
L 80.999298 367.979569 
L 82.737895 367.979569 
L 84.476491 361.967725 
L 86.215088 363.817524 
L 87.953684 363.817524 
L 89.692281 362.430175 
L 91.430877 357.80568 
L 93.169474 355.955882 
L 94.90807 356.880781 
L 96.646667 358.730579 
L 98.385263 359.193028 
L 100.12386 337.4579 
L 101.862456 339.770148 
L 103.601053 337.92035 
L 105.339649 339.307699 
L 107.078246 341.157497 
L 108.816842 339.770148 
L 110.555439 344.857093 
L 112.294035 344.394643 
L 114.032632 345.781992 
L 115.771228 344.857093 
L 117.509825 370.291817 
L 119.248421 373.528964 
L 120.987018 368.904468 
L 122.725614 368.442019 
L 124.464211 370.291817 
L 126.202807 377.691009 
L 127.941404 376.303661 
L 129.68 376.76611 
L 131.418596 377.691009 
L 133.157193 374.453863 
L 134.895789 371.679166 
L 136.634386 370.291817 
L 138.372982 369.829367 
L 140.111579 368.904468 
L 141.850175 367.05467 
L 143.588772 367.979569 
L 145.327368 369.829367 
L 148.804561 365.204872 
L 150.543158 369.829367 
L 152.281754 367.51712 
L 154.020351 360.580377 
L 155.758947 368.904468 
L 157.497544 373.066514 
L 159.23614 376.303661 
L 160.974737 375.378762 
L 162.713333 371.216716 
L 164.45193 370.754266 
L 166.190526 368.904468 
L 167.929123 368.442019 
L 169.667719 369.829367 
L 171.406316 360.580377 
L 173.144912 361.042826 
L 174.883509 358.268129 
L 176.622105 352.718735 
L 178.360702 342.544845 
L 180.099298 338.845249 
L 181.837895 340.695047 
L 183.576491 342.082396 
L 187.053684 335.608102 
L 188.792281 353.181184 
L 190.530877 349.481588 
L 192.269474 349.481588 
L 194.00807 347.169341 
L 197.485263 359.193028 
L 199.22386 352.718735 
L 200.962456 353.643634 
L 202.701053 356.880781 
L 204.439649 355.493432 
L 206.178246 356.418331 
L 209.655439 339.307699 
L 211.394035 344.857093 
L 213.132632 341.157497 
L 214.871228 342.544845 
L 216.609825 335.145653 
L 218.348421 331.908506 
L 220.087018 332.370956 
L 221.825614 334.220754 
L 223.564211 332.833405 
L 225.302807 344.394643 
L 227.041404 346.244441 
L 228.78 344.394643 
L 230.518596 351.331386 
L 232.257193 348.556689 
L 233.995789 361.505276 
L 235.734386 365.667322 
L 237.472982 368.442019 
L 239.211579 338.382799 
L 240.950175 330.983607 
L 242.688772 331.446057 
L 244.427368 341.157497 
L 246.165965 338.845249 
L 247.904561 332.833405 
L 249.643158 338.382799 
L 251.381754 332.370956 
L 253.120351 319.422369 
L 254.858947 297.224791 
L 256.597544 330.983607 
L 258.33614 325.434213 
L 260.074737 323.584415 
L 261.813333 321.272167 
L 263.55193 326.359112 
L 265.290526 327.74646 
L 267.029123 324.971763 
L 268.767719 333.295855 
L 270.506316 344.857093 
L 272.244912 365.667322 
L 273.983509 342.544845 
L 275.722105 356.418331 
L 277.460702 357.80568 
L 279.199298 356.418331 
L 280.937895 344.857093 
L 282.676491 349.481588 
L 284.415088 349.944038 
L 286.153684 349.481588 
L 287.892281 344.857093 
L 289.630877 344.394643 
L 291.369474 362.430175 
L 293.10807 359.193028 
L 294.846667 349.944038 
L 296.585263 344.394643 
L 298.32386 355.493432 
L 300.062456 355.955882 
L 301.801053 353.643634 
L 303.539649 352.256285 
L 305.278246 346.244441 
L 307.016842 345.319542 
L 308.755439 350.406487 
L 312.232632 349.481588 
L 313.971228 356.418331 
L 315.709825 354.106083 
L 317.448421 353.181184 
L 319.187018 353.181184 
L 320.925614 340.232598 
L 322.664211 347.63179 
L 324.402807 349.019139 
L 326.141404 349.481588 
L 327.88 350.406487 
L 329.618596 359.655478 
L 331.357193 357.80568 
L 333.095789 360.580377 
L 334.834386 360.580377 
L 336.572982 363.355074 
L 338.311579 377.22856 
L 340.050175 383.240404 
L 341.788772 385.552651 
L 343.527368 383.702853 
L 345.265965 385.090202 
L 348.743158 386.94 
L 350.481754 386.94 
L 352.220351 378.615908 
L 353.958947 377.22856 
L 355.697544 376.76611 
L 357.43614 373.066514 
L 359.174737 370.754266 
L 360.913333 369.829367 
L 364.390526 368.904468 
L 366.129123 369.829367 
L 367.867719 369.366918 
L 369.606316 378.615908 
L 371.344912 376.76611 
L 373.083509 372.604065 
L 374.822105 373.528964 
L 376.560702 370.754266 
L 378.299298 361.042826 
L 380.037895 327.74646 
L 381.776491 321.734616 
L 383.515088 292.600296 
L 385.253684 283.351306 
L 386.992281 282.426406 
L 390.469474 287.975801 
L 392.20807 284.276205 
L 393.946667 287.513351 
L 395.685263 297.687241 
L 397.42386 333.758304 
L 399.162456 337.4579 
L 400.901053 365.667322 
L 402.639649 370.291817 
L 404.378246 363.817524 
L 406.116842 363.817524 
L 407.855439 366.129771 
L 409.594035 367.979569 
L 411.332632 345.781992 
L 413.071228 343.932194 
L 414.809825 325.896662 
L 416.548421 330.058708 
L 418.287018 327.284011 
L 420.025614 331.908506 
L 421.764211 334.220754 
L 423.502807 332.833405 
L 425.241404 330.983607 
L 426.98 332.370956 
L 428.718596 341.619946 
L 430.457193 343.469744 
L 432.195789 359.193028 
L 433.934386 355.955882 
L 435.672982 339.307699 
L 437.411579 337.4579 
L 439.150175 341.619946 
L 440.888772 337.4579 
L 442.627368 335.608102 
L 444.365965 330.058708 
L 446.104561 344.394643 
L 447.843158 312.485626 
L 449.581754 303.236635 
L 451.320351 285.201104 
L 453.058947 303.699085 
L 454.797544 301.386837 
L 456.53614 298.14969 
L 458.274737 303.699085 
L 460.013333 307.861131 
L 461.75193 309.710929 
L 463.490526 307.398681 
L 465.229123 342.544845 
L 466.967719 350.868937 
L 468.706316 367.979569 
L 470.444912 364.279973 
L 472.183509 367.979569 
L 473.922105 369.829367 
L 475.660702 368.904468 
L 477.399298 366.592221 
L 479.137895 370.754266 
L 480.876491 372.141615 
L 482.615088 347.63179 
L 484.353684 345.781992 
L 486.092281 346.706891 
L 487.830877 346.244441 
L 489.569474 338.382799 
L 491.30807 326.821561 
L 493.046667 322.659515 
L 494.785263 324.046864 
L 496.52386 326.359112 
L 498.262456 324.046864 
L 500.001053 345.319542 
L 501.739649 349.944038 
L 503.478246 345.319542 
L 505.216842 353.181184 
L 506.955439 361.967725 
L 508.694035 374.453863 
L 510.432632 369.829367 
L 513.909825 368.904468 
L 515.648421 364.279973 
L 517.387018 332.370956 
L 519.125614 296.762342 
L 520.864211 305.086433 
L 522.602807 289.825599 
L 524.341404 281.501507 
L 526.08 263.928425 
L 527.818596 267.628022 
L 529.557193 269.940269 
L 531.295789 263.465976 
L 533.034386 255.141884 
L 534.772982 286.588452 
L 536.511579 311.560727 
L 538.250175 299.999489 
L 539.988772 313.872974 
L 541.727368 318.49747 
L 543.465965 332.833405 
L 545.204561 340.232598 
L 546.943158 340.232598 
L 548.681754 344.394643 
L 550.420351 361.042826 
L 552.158947 343.007295 
L 553.897544 337.92035 
L 555.63614 348.09424 
L 557.374737 334.683203 
L 559.113333 338.382799 
L 560.85193 338.845249 
L 562.590526 330.058708 
L 564.329123 320.347268 
L 566.067719 318.49747 
L 567.806316 315.722773 
L 569.544912 317.110121 
L 571.283509 320.809717 
L 573.022105 314.797873 
L 574.760702 324.509314 
L 576.499298 320.347268 
L 578.237895 323.121965 
L 579.976491 331.446057 
L 581.715088 326.359112 
L 583.453684 323.584415 
L 585.192281 321.734616 
L 586.930877 340.232598 
L 588.669474 335.608102 
L 590.40807 341.157497 
L 592.146667 340.232598 
L 593.885263 336.070552 
L 595.62386 335.608102 
L 597.362456 332.370956 
L 599.101053 343.469744 
L 600.839649 347.169341 
L 602.578246 345.319542 
L 604.316842 341.619946 
L 606.055439 352.718735 
L 607.794035 349.944038 
L 609.532632 355.030983 
L 611.271228 363.355074 
L 613.009825 365.204872 
L 614.748421 366.592221 
L 616.487018 361.505276 
L 618.225614 365.204872 
L 619.964211 369.366918 
L 621.702807 367.51712 
L 623.441404 373.066514 
L 625.18 371.216716 
L 626.918596 365.204872 
L 628.657193 361.042826 
L 630.395789 354.568533 
L 632.134386 356.418331 
L 633.872982 363.355074 
L 635.611579 359.655478 
L 637.350175 359.655478 
L 639.088772 359.193028 
L 640.827368 355.493432 
L 642.565965 357.34323 
L 644.304561 363.355074 
L 646.043158 368.442019 
L 647.781754 375.378762 
L 649.520351 373.528964 
L 651.258947 367.51712 
L 652.997544 368.442019 
L 654.73614 368.904468 
L 656.474737 341.619946 
L 659.95193 278.264361 
L 666.906316 139.529502 
L 668.644912 111.320081 
L 670.383509 113.632328 
L 672.122105 101.608641 
L 673.860702 103.458439 
L 675.599298 138.142153 
L 679.076491 189.936501 
L 680.815088 219.99572 
L 682.553684 243.580646 
L 684.292281 272.252517 
L 686.030877 308.32358 
L 687.769474 306.936231 
L 689.50807 308.32358 
L 691.246667 336.995451 
L 692.985263 336.533001 
L 694.72386 340.695047 
L 696.462456 349.481588 
L 698.201053 350.868937 
L 699.939649 363.817524 
L 701.678246 352.718735 
L 703.416842 348.09424 
L 705.155439 347.63179 
L 706.894035 350.868937 
L 708.632632 348.09424 
L 710.371228 343.932194 
L 712.109825 346.244441 
L 713.848421 341.619946 
L 715.587018 346.706891 
L 717.325614 345.319542 
L 719.064211 364.279973 
L 720.802807 360.117927 
L 722.541404 360.580377 
L 724.28 364.279973 
L 724.28 364.279973 
" style="fill:none;stroke:#ff7f0e;stroke-linecap:square;stroke-width:1.5;"/>
   </g>
   <g id="patch_3">
    <path d="M 30.58 404.12 
L 30.58 26.16 
" style="fill:none;stroke:#000000;stroke-linecap:square;stroke-linejoin:miter;stroke-width:0.8;"/>
   </g>
   <g id="patch_4">
    <path d="M 724.28 404.12 
L 724.28 26.16 
" style="fill:none;stroke:#000000;stroke-linecap:square;stroke-linejoin:miter;stroke-width:0.8;"/>
   </g>
   <g id="patch_5">
    <path d="M 30.58 404.12 
L 724.28 404.12 
" style="fill:none;stroke:#000000;stroke-linecap:square;stroke-linejoin:miter;stroke-width:0.8;"/>
   </g>
   <g id="patch_6">
    <path d="M 30.58 26.16 
L 724.28 26.16 
" style="fill:none;stroke:#000000;stroke-linecap:square;stroke-linejoin:miter;stroke-width:0.8;"/>
   </g>
   <g id="text_17">
    <!-- gridworld_1: episode duration, steps, MA=10 -->
    <defs>
     <path d="M 45.40625 27.984375 
Q 45.40625 37.75 41.375 43.109375 
Q 37.359375 48.484375 30.078125 48.484375 
Q 22.859375 48.484375 18.828125 43.109375 
Q 14.796875 37.75 14.796875 27.984375 
Q 14.796875 18.265625 18.828125 12.890625 
Q 22.859375 7.515625 30.078125 7.515625 
Q 37.359375 7.515625 41.375 12.890625 
Q 45.40625 18.265625 45.40625 27.984375 
z
M 54.390625 6.78125 
Q 54.390625 -7.171875 48.1875 -13.984375 
Q 42 -20.796875 29.203125 -20.796875 
Q 24.46875 -20.796875 20.265625 -20.09375 
Q 16.0625 -19.390625 12.109375 -17.921875 
L 12.109375 -9.1875 
Q 16.0625 -11.328125 19.921875 -12.34375 
Q 23.78125 -13.375 27.78125 -13.375 
Q 36.625 -13.375 41.015625 -8.765625 
Q 45.40625 -4.15625 45.40625 5.171875 
L 45.40625 9.625 
Q 42.625 4.78125 38.28125 2.390625 
Q 33.9375 0 27.875 0 
Q 17.828125 0 11.671875 7.65625 
Q 5.515625 15.328125 5.515625 27.984375 
Q 5.515625 40.671875 11.671875 48.328125 
Q 17.828125 56 27.875 56 
Q 33.9375 56 38.28125 53.609375 
Q 42.625 51.21875 45.40625 46.390625 
L 45.40625 54.6875 
L 54.390625 54.6875 
z
" id="DejaVuSans-103"/>
     <path d="M 41.109375 46.296875 
Q 39.59375 47.171875 37.8125 47.578125 
Q 36.03125 48 33.890625 48 
Q 26.265625 48 22.1875 43.046875 
Q 18.109375 38.09375 18.109375 28.8125 
L 18.109375 0 
L 9.078125 0 
L 9.078125 54.6875 
L 18.109375 54.6875 
L 18.109375 46.1875 
Q 20.953125 51.171875 25.484375 53.578125 
Q 30.03125 56 36.53125 56 
Q 37.453125 56 38.578125 55.875 
Q 39.703125 55.765625 41.0625 55.515625 
z
" id="DejaVuSans-114"/>
     <path d="M 9.421875 54.6875 
L 18.40625 54.6875 
L 18.40625 0 
L 9.421875 0 
z
M 9.421875 75.984375 
L 18.40625 75.984375 
L 18.40625 64.59375 
L 9.421875 64.59375 
z
" id="DejaVuSans-105"/>
     <path d="M 45.40625 46.390625 
L 45.40625 75.984375 
L 54.390625 75.984375 
L 54.390625 0 
L 45.40625 0 
L 45.40625 8.203125 
Q 42.578125 3.328125 38.25 0.953125 
Q 33.9375 -1.421875 27.875 -1.421875 
Q 17.96875 -1.421875 11.734375 6.484375 
Q 5.515625 14.40625 5.515625 27.296875 
Q 5.515625 40.1875 11.734375 48.09375 
Q 17.96875 56 27.875 56 
Q 33.9375 56 38.25 53.625 
Q 42.578125 51.265625 45.40625 46.390625 
z
M 14.796875 27.296875 
Q 14.796875 17.390625 18.875 11.75 
Q 22.953125 6.109375 30.078125 6.109375 
Q 37.203125 6.109375 41.296875 11.75 
Q 45.40625 17.390625 45.40625 27.296875 
Q 45.40625 37.203125 41.296875 42.84375 
Q 37.203125 48.484375 30.078125 48.484375 
Q 22.953125 48.484375 18.875 42.84375 
Q 14.796875 37.203125 14.796875 27.296875 
z
" id="DejaVuSans-100"/>
     <path d="M 4.203125 54.6875 
L 13.1875 54.6875 
L 24.421875 12.015625 
L 35.59375 54.6875 
L 46.1875 54.6875 
L 57.421875 12.015625 
L 68.609375 54.6875 
L 77.59375 54.6875 
L 63.28125 0 
L 52.6875 0 
L 40.921875 44.828125 
L 29.109375 0 
L 18.5 0 
z
" id="DejaVuSans-119"/>
     <path d="M 30.609375 48.390625 
Q 23.390625 48.390625 19.1875 42.75 
Q 14.984375 37.109375 14.984375 27.296875 
Q 14.984375 17.484375 19.15625 11.84375 
Q 23.34375 6.203125 30.609375 6.203125 
Q 37.796875 6.203125 41.984375 11.859375 
Q 46.1875 17.53125 46.1875 27.296875 
Q 46.1875 37.015625 41.984375 42.703125 
Q 37.796875 48.390625 30.609375 48.390625 
z
M 30.609375 56 
Q 42.328125 56 49.015625 48.375 
Q 55.71875 40.765625 55.71875 27.296875 
Q 55.71875 13.875 49.015625 6.21875 
Q 42.328125 -1.421875 30.609375 -1.421875 
Q 18.84375 -1.421875 12.171875 6.21875 
Q 5.515625 13.875 5.515625 27.296875 
Q 5.515625 40.765625 12.171875 48.375 
Q 18.84375 56 30.609375 56 
z
" id="DejaVuSans-111"/>
     <path d="M 9.421875 75.984375 
L 18.40625 75.984375 
L 18.40625 0 
L 9.421875 0 
z
" id="DejaVuSans-108"/>
     <path d="M 50.984375 -16.609375 
L 50.984375 -23.578125 
L -0.984375 -23.578125 
L -0.984375 -16.609375 
z
" id="DejaVuSans-95"/>
     <path d="M 11.71875 12.40625 
L 22.015625 12.40625 
L 22.015625 0 
L 11.71875 0 
z
M 11.71875 51.703125 
L 22.015625 51.703125 
L 22.015625 39.3125 
L 11.71875 39.3125 
z
" id="DejaVuSans-58"/>
     <path id="DejaVuSans-32"/>
     <path d="M 56.203125 29.59375 
L 56.203125 25.203125 
L 14.890625 25.203125 
Q 15.484375 15.921875 20.484375 11.0625 
Q 25.484375 6.203125 34.421875 6.203125 
Q 39.59375 6.203125 44.453125 7.46875 
Q 49.3125 8.734375 54.109375 11.28125 
L 54.109375 2.78125 
Q 49.265625 0.734375 44.1875 -0.34375 
Q 39.109375 -1.421875 33.890625 -1.421875 
Q 20.796875 -1.421875 13.15625 6.1875 
Q 5.515625 13.8125 5.515625 26.8125 
Q 5.515625 40.234375 12.765625 48.109375 
Q 20.015625 56 32.328125 56 
Q 43.359375 56 49.78125 48.890625 
Q 56.203125 41.796875 56.203125 29.59375 
z
M 47.21875 32.234375 
Q 47.125 39.59375 43.09375 43.984375 
Q 39.0625 48.390625 32.421875 48.390625 
Q 24.90625 48.390625 20.390625 44.140625 
Q 15.875 39.890625 15.1875 32.171875 
z
" id="DejaVuSans-101"/>
     <path d="M 18.109375 8.203125 
L 18.109375 -20.796875 
L 9.078125 -20.796875 
L 9.078125 54.6875 
L 18.109375 54.6875 
L 18.109375 46.390625 
Q 20.953125 51.265625 25.265625 53.625 
Q 29.59375 56 35.59375 56 
Q 45.5625 56 51.78125 48.09375 
Q 58.015625 40.1875 58.015625 27.296875 
Q 58.015625 14.40625 51.78125 6.484375 
Q 45.5625 -1.421875 35.59375 -1.421875 
Q 29.59375 -1.421875 25.265625 0.953125 
Q 20.953125 3.328125 18.109375 8.203125 
z
M 48.6875 27.296875 
Q 48.6875 37.203125 44.609375 42.84375 
Q 40.53125 48.484375 33.40625 48.484375 
Q 26.265625 48.484375 22.1875 42.84375 
Q 18.109375 37.203125 18.109375 27.296875 
Q 18.109375 17.390625 22.1875 11.75 
Q 26.265625 6.109375 33.40625 6.109375 
Q 40.53125 6.109375 44.609375 11.75 
Q 48.6875 17.390625 48.6875 27.296875 
z
" id="DejaVuSans-112"/>
     <path d="M 44.28125 53.078125 
L 44.28125 44.578125 
Q 40.484375 46.53125 36.375 47.5 
Q 32.28125 48.484375 27.875 48.484375 
Q 21.1875 48.484375 17.84375 46.4375 
Q 14.5 44.390625 14.5 40.28125 
Q 14.5 37.15625 16.890625 35.375 
Q 19.28125 33.59375 26.515625 31.984375 
L 29.59375 31.296875 
Q 39.15625 29.25 43.1875 25.515625 
Q 47.21875 21.78125 47.21875 15.09375 
Q 47.21875 7.46875 41.1875 3.015625 
Q 35.15625 -1.421875 24.609375 -1.421875 
Q 20.21875 -1.421875 15.453125 -0.5625 
Q 10.6875 0.296875 5.421875 2 
L 5.421875 11.28125 
Q 10.40625 8.6875 15.234375 7.390625 
Q 20.0625 6.109375 24.8125 6.109375 
Q 31.15625 6.109375 34.5625 8.28125 
Q 37.984375 10.453125 37.984375 14.40625 
Q 37.984375 18.0625 35.515625 20.015625 
Q 33.0625 21.96875 24.703125 23.78125 
L 21.578125 24.515625 
Q 13.234375 26.265625 9.515625 29.90625 
Q 5.8125 33.546875 5.8125 39.890625 
Q 5.8125 47.609375 11.28125 51.796875 
Q 16.75 56 26.8125 56 
Q 31.78125 56 36.171875 55.265625 
Q 40.578125 54.546875 44.28125 53.078125 
z
" id="DejaVuSans-115"/>
     <path d="M 8.5 21.578125 
L 8.5 54.6875 
L 17.484375 54.6875 
L 17.484375 21.921875 
Q 17.484375 14.15625 20.5 10.265625 
Q 23.53125 6.390625 29.59375 6.390625 
Q 36.859375 6.390625 41.078125 11.03125 
Q 45.3125 15.671875 45.3125 23.6875 
L 45.3125 54.6875 
L 54.296875 54.6875 
L 54.296875 0 
L 45.3125 0 
L 45.3125 8.40625 
Q 42.046875 3.421875 37.71875 1 
Q 33.40625 -1.421875 27.6875 -1.421875 
Q 18.265625 -1.421875 13.375 4.4375 
Q 8.5 10.296875 8.5 21.578125 
z
M 31.109375 56 
z
" id="DejaVuSans-117"/>
     <path d="M 34.28125 27.484375 
Q 23.390625 27.484375 19.1875 25 
Q 14.984375 22.515625 14.984375 16.5 
Q 14.984375 11.71875 18.140625 8.90625 
Q 21.296875 6.109375 26.703125 6.109375 
Q 34.1875 6.109375 38.703125 11.40625 
Q 43.21875 16.703125 43.21875 25.484375 
L 43.21875 27.484375 
z
M 52.203125 31.203125 
L 52.203125 0 
L 43.21875 0 
L 43.21875 8.296875 
Q 40.140625 3.328125 35.546875 0.953125 
Q 30.953125 -1.421875 24.3125 -1.421875 
Q 15.921875 -1.421875 10.953125 3.296875 
Q 6 8.015625 6 15.921875 
Q 6 25.140625 12.171875 29.828125 
Q 18.359375 34.515625 30.609375 34.515625 
L 43.21875 34.515625 
L 43.21875 35.40625 
Q 43.21875 41.609375 39.140625 45 
Q 35.0625 48.390625 27.6875 48.390625 
Q 23 48.390625 18.546875 47.265625 
Q 14.109375 46.140625 10.015625 43.890625 
L 10.015625 52.203125 
Q 14.9375 54.109375 19.578125 55.046875 
Q 24.21875 56 28.609375 56 
Q 40.484375 56 46.34375 49.84375 
Q 52.203125 43.703125 52.203125 31.203125 
z
" id="DejaVuSans-97"/>
     <path d="M 18.3125 70.21875 
L 18.3125 54.6875 
L 36.8125 54.6875 
L 36.8125 47.703125 
L 18.3125 47.703125 
L 18.3125 18.015625 
Q 18.3125 11.328125 20.140625 9.421875 
Q 21.96875 7.515625 27.59375 7.515625 
L 36.8125 7.515625 
L 36.8125 0 
L 27.59375 0 
Q 17.1875 0 13.234375 3.875 
Q 9.28125 7.765625 9.28125 18.015625 
L 9.28125 47.703125 
L 2.6875 47.703125 
L 2.6875 54.6875 
L 9.28125 54.6875 
L 9.28125 70.21875 
z
" id="DejaVuSans-116"/>
     <path d="M 54.890625 33.015625 
L 54.890625 0 
L 45.90625 0 
L 45.90625 32.71875 
Q 45.90625 40.484375 42.875 44.328125 
Q 39.84375 48.1875 33.796875 48.1875 
Q 26.515625 48.1875 22.3125 43.546875 
Q 18.109375 38.921875 18.109375 30.90625 
L 18.109375 0 
L 9.078125 0 
L 9.078125 54.6875 
L 18.109375 54.6875 
L 18.109375 46.1875 
Q 21.34375 51.125 25.703125 53.5625 
Q 30.078125 56 35.796875 56 
Q 45.21875 56 50.046875 50.171875 
Q 54.890625 44.34375 54.890625 33.015625 
z
" id="DejaVuSans-110"/>
     <path d="M 11.71875 12.40625 
L 22.015625 12.40625 
L 22.015625 4 
L 14.015625 -11.625 
L 7.71875 -11.625 
L 11.71875 4 
z
" id="DejaVuSans-44"/>
     <path d="M 9.8125 72.90625 
L 24.515625 72.90625 
L 43.109375 23.296875 
L 61.8125 72.90625 
L 76.515625 72.90625 
L 76.515625 0 
L 66.890625 0 
L 66.890625 64.015625 
L 48.09375 14.015625 
L 38.1875 14.015625 
L 19.390625 64.015625 
L 19.390625 0 
L 9.8125 0 
z
" id="DejaVuSans-77"/>
     <path d="M 34.1875 63.1875 
L 20.796875 26.90625 
L 47.609375 26.90625 
z
M 28.609375 72.90625 
L 39.796875 72.90625 
L 67.578125 0 
L 57.328125 0 
L 50.6875 18.703125 
L 17.828125 18.703125 
L 11.1875 0 
L 0.78125 0 
z
" id="DejaVuSans-65"/>
     <path d="M 10.59375 45.40625 
L 73.1875 45.40625 
L 73.1875 37.203125 
L 10.59375 37.203125 
z
M 10.59375 25.484375 
L 73.1875 25.484375 
L 73.1875 17.1875 
L 10.59375 17.1875 
z
" id="DejaVuSans-61"/>
    </defs>
    <g transform="translate(242.115937 20.16)scale(0.12 -0.12)">
     <use xlink:href="#DejaVuSans-103"/>
     <use x="63.476562" xlink:href="#DejaVuSans-114"/>
     <use x="104.589844" xlink:href="#DejaVuSans-105"/>
     <use x="132.373047" xlink:href="#DejaVuSans-100"/>
     <use x="195.849609" xlink:href="#DejaVuSans-119"/>
     <use x="277.636719" xlink:href="#DejaVuSans-111"/>
     <use x="338.818359" xlink:href="#DejaVuSans-114"/>
     <use x="379.931641" xlink:href="#DejaVuSans-108"/>
     <use x="407.714844" xlink:href="#DejaVuSans-100"/>
     <use x="471.191406" xlink:href="#DejaVuSans-95"/>
     <use x="521.191406" xlink:href="#DejaVuSans-49"/>
     <use x="584.814453" xlink:href="#DejaVuSans-58"/>
     <use x="618.505859" xlink:href="#DejaVuSans-32"/>
     <use x="650.292969" xlink:href="#DejaVuSans-101"/>
     <use x="711.816406" xlink:href="#DejaVuSans-112"/>
     <use x="775.292969" xlink:href="#DejaVuSans-105"/>
     <use x="803.076172" xlink:href="#DejaVuSans-115"/>
     <use x="855.175781" xlink:href="#DejaVuSans-111"/>
     <use x="916.357422" xlink:href="#DejaVuSans-100"/>
     <use x="979.833984" xlink:href="#DejaVuSans-101"/>
     <use x="1041.357422" xlink:href="#DejaVuSans-32"/>
     <use x="1073.144531" xlink:href="#DejaVuSans-100"/>
     <use x="1136.621094" xlink:href="#DejaVuSans-117"/>
     <use x="1200" xlink:href="#DejaVuSans-114"/>
     <use x="1241.113281" xlink:href="#DejaVuSans-97"/>
     <use x="1302.392578" xlink:href="#DejaVuSans-116"/>
     <use x="1341.601562" xlink:href="#DejaVuSans-105"/>
     <use x="1369.384766" xlink:href="#DejaVuSans-111"/>
     <use x="1430.566406" xlink:href="#DejaVuSans-110"/>
     <use x="1493.945312" xlink:href="#DejaVuSans-44"/>
     <use x="1525.732422" xlink:href="#DejaVuSans-32"/>
     <use x="1557.519531" xlink:href="#DejaVuSans-115"/>
     <use x="1609.619141" xlink:href="#DejaVuSans-116"/>
     <use x="1648.828125" xlink:href="#DejaVuSans-101"/>
     <use x="1710.351562" xlink:href="#DejaVuSans-112"/>
     <use x="1773.828125" xlink:href="#DejaVuSans-115"/>
     <use x="1825.927734" xlink:href="#DejaVuSans-44"/>
     <use x="1857.714844" xlink:href="#DejaVuSans-32"/>
     <use x="1889.501953" xlink:href="#DejaVuSans-77"/>
     <use x="1975.78125" xlink:href="#DejaVuSans-65"/>
     <use x="2044.189453" xlink:href="#DejaVuSans-61"/>
     <use x="2127.978516" xlink:href="#DejaVuSans-49"/>
     <use x="2191.601562" xlink:href="#DejaVuSans-48"/>
    </g>
   </g>
   <g id="legend_1">
    <g id="patch_7">
     <path d="M 764.955937 231.457187 
L 856.02 231.457187 
Q 858.02 231.457187 858.02 229.457187 
L 858.02 200.822812 
Q 858.02 198.822812 856.02 198.822812 
L 764.955937 198.822812 
Q 762.955937 198.822812 762.955937 200.822812 
L 762.955937 229.457187 
Q 762.955937 231.457187 764.955937 231.457187 
z
" style="fill:#ffffff;opacity:0.8;stroke:#cccccc;stroke-linejoin:miter;"/>
    </g>
    <g id="line2d_19">
     <path d="M 766.955937 206.92125 
L 786.955937 206.92125 
" style="fill:none;stroke:#1f77b4;stroke-linecap:square;stroke-width:1.5;"/>
    </g>
    <g id="line2d_20"/>
    <g id="text_18">
     <!-- dqn_greedy -->
     <defs>
      <path d="M 14.796875 27.296875 
Q 14.796875 17.390625 18.875 11.75 
Q 22.953125 6.109375 30.078125 6.109375 
Q 37.203125 6.109375 41.296875 11.75 
Q 45.40625 17.390625 45.40625 27.296875 
Q 45.40625 37.203125 41.296875 42.84375 
Q 37.203125 48.484375 30.078125 48.484375 
Q 22.953125 48.484375 18.875 42.84375 
Q 14.796875 37.203125 14.796875 27.296875 
z
M 45.40625 8.203125 
Q 42.578125 3.328125 38.25 0.953125 
Q 33.9375 -1.421875 27.875 -1.421875 
Q 17.96875 -1.421875 11.734375 6.484375 
Q 5.515625 14.40625 5.515625 27.296875 
Q 5.515625 40.1875 11.734375 48.09375 
Q 17.96875 56 27.875 56 
Q 33.9375 56 38.25 53.625 
Q 42.578125 51.265625 45.40625 46.390625 
L 45.40625 54.6875 
L 54.390625 54.6875 
L 54.390625 -20.796875 
L 45.40625 -20.796875 
z
" id="DejaVuSans-113"/>
      <path d="M 32.171875 -5.078125 
Q 28.375 -14.84375 24.75 -17.8125 
Q 21.140625 -20.796875 15.09375 -20.796875 
L 7.90625 -20.796875 
L 7.90625 -13.28125 
L 13.1875 -13.28125 
Q 16.890625 -13.28125 18.9375 -11.515625 
Q 21 -9.765625 23.484375 -3.21875 
L 25.09375 0.875 
L 2.984375 54.6875 
L 12.5 54.6875 
L 29.59375 11.921875 
L 46.6875 54.6875 
L 56.203125 54.6875 
z
" id="DejaVuSans-121"/>
     </defs>
     <g transform="translate(794.955937 210.42125)scale(0.1 -0.1)">
      <use xlink:href="#DejaVuSans-100"/>
      <use x="63.476562" xlink:href="#DejaVuSans-113"/>
      <use x="126.953125" xlink:href="#DejaVuSans-110"/>
      <use x="190.332031" xlink:href="#DejaVuSans-95"/>
      <use x="240.332031" xlink:href="#DejaVuSans-103"/>
      <use x="303.808594" xlink:href="#DejaVuSans-114"/>
      <use x="344.890625" xlink:href="#DejaVuSans-101"/>
      <use x="406.414062" xlink:href="#DejaVuSans-101"/>
      <use x="467.9375" xlink:href="#DejaVuSans-100"/>
      <use x="531.414062" xlink:href="#DejaVuSans-121"/>
     </g>
    </g>
    <g id="line2d_21">
     <path d="M 766.955937 221.8775 
L 786.955937 221.8775 
" style="fill:none;stroke:#ff7f0e;stroke-linecap:square;stroke-width:1.5;"/>
    </g>
    <g id="line2d_22"/>
    <g id="text_19">
     <!-- mcts -->
     <defs>
      <path d="M 52 44.1875 
Q 55.375 50.25 60.0625 53.125 
Q 64.75 56 71.09375 56 
Q 79.640625 56 84.28125 50.015625 
Q 88.921875 44.046875 88.921875 33.015625 
L 88.921875 0 
L 79.890625 0 
L 79.890625 32.71875 
Q 79.890625 40.578125 77.09375 44.375 
Q 74.3125 48.1875 68.609375 48.1875 
Q 61.625 48.1875 57.5625 43.546875 
Q 53.515625 38.921875 53.515625 30.90625 
L 53.515625 0 
L 44.484375 0 
L 44.484375 32.71875 
Q 44.484375 40.625 41.703125 44.40625 
Q 38.921875 48.1875 33.109375 48.1875 
Q 26.21875 48.1875 22.15625 43.53125 
Q 18.109375 38.875 18.109375 30.90625 
L 18.109375 0 
L 9.078125 0 
L 9.078125 54.6875 
L 18.109375 54.6875 
L 18.109375 46.1875 
Q 21.1875 51.21875 25.484375 53.609375 
Q 29.78125 56 35.6875 56 
Q 41.65625 56 45.828125 52.96875 
Q 50 49.953125 52 44.1875 
z
" id="DejaVuSans-109"/>
      <path d="M 48.78125 52.59375 
L 48.78125 44.1875 
Q 44.96875 46.296875 41.140625 47.34375 
Q 37.3125 48.390625 33.40625 48.390625 
Q 24.65625 48.390625 19.8125 42.84375 
Q 14.984375 37.3125 14.984375 27.296875 
Q 14.984375 17.28125 19.8125 11.734375 
Q 24.65625 6.203125 33.40625 6.203125 
Q 37.3125 6.203125 41.140625 7.25 
Q 44.96875 8.296875 48.78125 10.40625 
L 48.78125 2.09375 
Q 45.015625 0.34375 40.984375 -0.53125 
Q 36.96875 -1.421875 32.421875 -1.421875 
Q 20.0625 -1.421875 12.78125 6.34375 
Q 5.515625 14.109375 5.515625 27.296875 
Q 5.515625 40.671875 12.859375 48.328125 
Q 20.21875 56 33.015625 56 
Q 37.15625 56 41.109375 55.140625 
Q 45.0625 54.296875 48.78125 52.59375 
z
" id="DejaVuSans-99"/>
     </defs>
     <g transform="translate(794.955937 225.3775)scale(0.1 -0.1)">
      <use xlink:href="#DejaVuSans-109"/>
      <use x="97.412109" xlink:href="#DejaVuSans-99"/>
      <use x="152.392578" xlink:href="#DejaVuSans-116"/>
      <use x="191.601562" xlink:href="#DejaVuSans-115"/>
     </g>
    </g>
   </g>
  </g>
 </g>
 <defs>
  <clipPath id="pc6192e76e0">
   <rect height="377.96" width="693.7" x="30.58" y="26.16"/>
  </clipPath>
 </defs>
</svg>
