<?xml version="1.0" encoding="utf-8" standalone="no"?>
<!DOCTYPE svg PUBLIC "-//W3C//DTD SVG 1.1//EN"
  "http://www.w3.org/Graphics/SVG/1.1/DTD/svg11.dtd">
<!-- Created with matplotlib (https://matplotlib.org/) -->
<svg height="432pt" version="1.1" viewBox="0 0 864 432" width="864pt" xmlns="http://www.w3.org/2000/svg" xmlns:xlink="http://www.w3.org/1999/xlink">
 <defs>
  <style type="text/css">
*{stroke-linecap:butt;stroke-linejoin:round;}
  </style>
 </defs>
 <g id="figure_1">
  <g id="patch_1">
   <path d="M 0 432 
L 864 432 
L 864 0 
L 0 0 
z
" style="fill:#ffffff;"/>
  </g>
  <g id="axes_1">
   <g id="patch_2">
    <path d="M 33.775 404.12 
L 724.28 404.12 
L 724.28 26.16 
L 33.775 26.16 
z
" style="fill:#ffffff;"/>
   </g>
   <g id="matplotlib.axis_1">
    <g id="xtick_1">
     <g id="line2d_1">
      <defs>
       <path d="M 0 0 
L 0 3.5 
" id="maecb59f9ba" style="stroke:#000000;stroke-width:0.8;"/>
      </defs>
      <g>
       <use style="stroke:#000000;stroke-width:0.8;" x="33.775" xlink:href="#maecb59f9ba" y="404.12"/>
      </g>
     </g>
     <g id="text_1">
      <!-- 0 -->
      <defs>
       <path d="M 31.78125 66.40625 
Q 24.171875 66.40625 20.328125 58.90625 
Q 16.5 51.421875 16.5 36.375 
Q 16.5 21.390625 20.328125 13.890625 
Q 24.171875 6.390625 31.78125 6.390625 
Q 39.453125 6.390625 43.28125 13.890625 
Q 47.125 21.390625 47.125 36.375 
Q 47.125 51.421875 43.28125 58.90625 
Q 39.453125 66.40625 31.78125 66.40625 
z
M 31.78125 74.21875 
Q 44.046875 74.21875 50.515625 64.515625 
Q 56.984375 54.828125 56.984375 36.375 
Q 56.984375 17.96875 50.515625 8.265625 
Q 44.046875 -1.421875 31.78125 -1.421875 
Q 19.53125 -1.421875 13.0625 8.265625 
Q 6.59375 17.96875 6.59375 36.375 
Q 6.59375 54.828125 13.0625 64.515625 
Q 19.53125 74.21875 31.78125 74.21875 
z
" id="DejaVuSans-48"/>
      </defs>
      <g transform="translate(30.59375 418.718437)scale(0.1 -0.1)">
       <use xlink:href="#DejaVuSans-48"/>
      </g>
     </g>
    </g>
    <g id="xtick_2">
     <g id="line2d_2">
      <g>
       <use style="stroke:#000000;stroke-width:0.8;" x="173.27096" xlink:href="#maecb59f9ba" y="404.12"/>
      </g>
     </g>
     <g id="text_2">
      <!-- 20 -->
      <defs>
       <path d="M 19.1875 8.296875 
L 53.609375 8.296875 
L 53.609375 0 
L 7.328125 0 
L 7.328125 8.296875 
Q 12.9375 14.109375 22.625 23.890625 
Q 32.328125 33.6875 34.8125 36.53125 
Q 39.546875 41.84375 41.421875 45.53125 
Q 43.3125 49.21875 43.3125 52.78125 
Q 43.3125 58.59375 39.234375 62.25 
Q 35.15625 65.921875 28.609375 65.921875 
Q 23.96875 65.921875 18.8125 64.3125 
Q 13.671875 62.703125 7.8125 59.421875 
L 7.8125 69.390625 
Q 13.765625 71.78125 18.9375 73 
Q 24.125 74.21875 28.421875 74.21875 
Q 39.75 74.21875 46.484375 68.546875 
Q 53.21875 62.890625 53.21875 53.421875 
Q 53.21875 48.921875 51.53125 44.890625 
Q 49.859375 40.875 45.40625 35.40625 
Q 44.1875 33.984375 37.640625 27.21875 
Q 31.109375 20.453125 19.1875 8.296875 
z
" id="DejaVuSans-50"/>
      </defs>
      <g transform="translate(166.90846 418.718437)scale(0.1 -0.1)">
       <use xlink:href="#DejaVuSans-50"/>
       <use x="63.623047" xlink:href="#DejaVuSans-48"/>
      </g>
     </g>
    </g>
    <g id="xtick_3">
     <g id="line2d_3">
      <g>
       <use style="stroke:#000000;stroke-width:0.8;" x="312.766919" xlink:href="#maecb59f9ba" y="404.12"/>
      </g>
     </g>
     <g id="text_3">
      <!-- 40 -->
      <defs>
       <path d="M 37.796875 64.3125 
L 12.890625 25.390625 
L 37.796875 25.390625 
z
M 35.203125 72.90625 
L 47.609375 72.90625 
L 47.609375 25.390625 
L 58.015625 25.390625 
L 58.015625 17.1875 
L 47.609375 17.1875 
L 47.609375 0 
L 37.796875 0 
L 37.796875 17.1875 
L 4.890625 17.1875 
L 4.890625 26.703125 
z
" id="DejaVuSans-52"/>
      </defs>
      <g transform="translate(306.404419 418.718437)scale(0.1 -0.1)">
       <use xlink:href="#DejaVuSans-52"/>
       <use x="63.623047" xlink:href="#DejaVuSans-48"/>
      </g>
     </g>
    </g>
    <g id="xtick_4">
     <g id="line2d_4">
      <g>
       <use style="stroke:#000000;stroke-width:0.8;" x="452.262879" xlink:href="#maecb59f9ba" y="404.12"/>
      </g>
     </g>
     <g id="text_4">
      <!-- 60 -->
      <defs>
       <path d="M 33.015625 40.375 
Q 26.375 40.375 22.484375 35.828125 
Q 18.609375 31.296875 18.609375 23.390625 
Q 18.609375 15.53125 22.484375 10.953125 
Q 26.375 6.390625 33.015625 6.390625 
Q 39.65625 6.390625 43.53125 10.953125 
Q 47.40625 15.53125 47.40625 23.390625 
Q 47.40625 31.296875 43.53125 35.828125 
Q 39.65625 40.375 33.015625 40.375 
z
M 52.59375 71.296875 
L 52.59375 62.3125 
Q 48.875 64.0625 45.09375 64.984375 
Q 41.3125 65.921875 37.59375 65.921875 
Q 27.828125 65.921875 22.671875 59.328125 
Q 17.53125 52.734375 16.796875 39.40625 
Q 19.671875 43.65625 24.015625 45.921875 
Q 28.375 48.1875 33.59375 48.1875 
Q 44.578125 48.1875 50.953125 41.515625 
Q 57.328125 34.859375 57.328125 23.390625 
Q 57.328125 12.15625 50.6875 5.359375 
Q 44.046875 -1.421875 33.015625 -1.421875 
Q 20.359375 -1.421875 13.671875 8.265625 
Q 6.984375 17.96875 6.984375 36.375 
Q 6.984375 53.65625 15.1875 63.9375 
Q 23.390625 74.21875 37.203125 74.21875 
Q 40.921875 74.21875 44.703125 73.484375 
Q 48.484375 72.75 52.59375 71.296875 
z
" id="DejaVuSans-54"/>
      </defs>
      <g transform="translate(445.900379 418.718437)scale(0.1 -0.1)">
       <use xlink:href="#DejaVuSans-54"/>
       <use x="63.623047" xlink:href="#DejaVuSans-48"/>
      </g>
     </g>
    </g>
    <g id="xtick_5">
     <g id="line2d_5">
      <g>
       <use style="stroke:#000000;stroke-width:0.8;" x="591.758838" xlink:href="#maecb59f9ba" y="404.12"/>
      </g>
     </g>
     <g id="text_5">
      <!-- 80 -->
      <defs>
       <path d="M 31.78125 34.625 
Q 24.75 34.625 20.71875 30.859375 
Q 16.703125 27.09375 16.703125 20.515625 
Q 16.703125 13.921875 20.71875 10.15625 
Q 24.75 6.390625 31.78125 6.390625 
Q 38.8125 6.390625 42.859375 10.171875 
Q 46.921875 13.96875 46.921875 20.515625 
Q 46.921875 27.09375 42.890625 30.859375 
Q 38.875 34.625 31.78125 34.625 
z
M 21.921875 38.8125 
Q 15.578125 40.375 12.03125 44.71875 
Q 8.5 49.078125 8.5 55.328125 
Q 8.5 64.0625 14.71875 69.140625 
Q 20.953125 74.21875 31.78125 74.21875 
Q 42.671875 74.21875 48.875 69.140625 
Q 55.078125 64.0625 55.078125 55.328125 
Q 55.078125 49.078125 51.53125 44.71875 
Q 48 40.375 41.703125 38.8125 
Q 48.828125 37.15625 52.796875 32.3125 
Q 56.78125 27.484375 56.78125 20.515625 
Q 56.78125 9.90625 50.3125 4.234375 
Q 43.84375 -1.421875 31.78125 -1.421875 
Q 19.734375 -1.421875 13.25 4.234375 
Q 6.78125 9.90625 6.78125 20.515625 
Q 6.78125 27.484375 10.78125 32.3125 
Q 14.796875 37.15625 21.921875 38.8125 
z
M 18.3125 54.390625 
Q 18.3125 48.734375 21.84375 45.5625 
Q 25.390625 42.390625 31.78125 42.390625 
Q 38.140625 42.390625 41.71875 45.5625 
Q 45.3125 48.734375 45.3125 54.390625 
Q 45.3125 60.0625 41.71875 63.234375 
Q 38.140625 66.40625 31.78125 66.40625 
Q 25.390625 66.40625 21.84375 63.234375 
Q 18.3125 60.0625 18.3125 54.390625 
z
" id="DejaVuSans-56"/>
      </defs>
      <g transform="translate(585.396338 418.718437)scale(0.1 -0.1)">
       <use xlink:href="#DejaVuSans-56"/>
       <use x="63.623047" xlink:href="#DejaVuSans-48"/>
      </g>
     </g>
    </g>
   </g>
   <g id="matplotlib.axis_2">
    <g id="ytick_1">
     <g id="line2d_6">
      <defs>
       <path d="M 0 0 
L -3.5 0 
" id="m6cb4c141c5" style="stroke:#000000;stroke-width:0.8;"/>
      </defs>
      <g>
       <use style="stroke:#000000;stroke-width:0.8;" x="33.775" xlink:href="#m6cb4c141c5" y="369.027204"/>
      </g>
     </g>
     <g id="text_6">
      <!-- 0.2 -->
      <defs>
       <path d="M 10.6875 12.40625 
L 21 12.40625 
L 21 0 
L 10.6875 0 
z
" id="DejaVuSans-46"/>
      </defs>
      <g transform="translate(10.871875 372.826423)scale(0.1 -0.1)">
       <use xlink:href="#DejaVuSans-48"/>
       <use x="63.623047" xlink:href="#DejaVuSans-46"/>
       <use x="95.410156" xlink:href="#DejaVuSans-50"/>
      </g>
     </g>
    </g>
    <g id="ytick_2">
     <g id="line2d_7">
      <g>
       <use style="stroke:#000000;stroke-width:0.8;" x="33.775" xlink:href="#m6cb4c141c5" y="287.605403"/>
      </g>
     </g>
     <g id="text_7">
      <!-- 0.4 -->
      <g transform="translate(10.871875 291.404622)scale(0.1 -0.1)">
       <use xlink:href="#DejaVuSans-48"/>
       <use x="63.623047" xlink:href="#DejaVuSans-46"/>
       <use x="95.410156" xlink:href="#DejaVuSans-52"/>
      </g>
     </g>
    </g>
    <g id="ytick_3">
     <g id="line2d_8">
      <g>
       <use style="stroke:#000000;stroke-width:0.8;" x="33.775" xlink:href="#m6cb4c141c5" y="206.183602"/>
      </g>
     </g>
     <g id="text_8">
      <!-- 0.6 -->
      <g transform="translate(10.871875 209.982821)scale(0.1 -0.1)">
       <use xlink:href="#DejaVuSans-48"/>
       <use x="63.623047" xlink:href="#DejaVuSans-46"/>
       <use x="95.410156" xlink:href="#DejaVuSans-54"/>
      </g>
     </g>
    </g>
    <g id="ytick_4">
     <g id="line2d_9">
      <g>
       <use style="stroke:#000000;stroke-width:0.8;" x="33.775" xlink:href="#m6cb4c141c5" y="124.761801"/>
      </g>
     </g>
     <g id="text_9">
      <!-- 0.8 -->
      <g transform="translate(10.871875 128.56102)scale(0.1 -0.1)">
       <use xlink:href="#DejaVuSans-48"/>
       <use x="63.623047" xlink:href="#DejaVuSans-46"/>
       <use x="95.410156" xlink:href="#DejaVuSans-56"/>
      </g>
     </g>
    </g>
    <g id="ytick_5">
     <g id="line2d_10">
      <g>
       <use style="stroke:#000000;stroke-width:0.8;" x="33.775" xlink:href="#m6cb4c141c5" y="43.34"/>
      </g>
     </g>
     <g id="text_10">
      <!-- 1.0 -->
      <defs>
       <path d="M 12.40625 8.296875 
L 28.515625 8.296875 
L 28.515625 63.921875 
L 10.984375 60.40625 
L 10.984375 69.390625 
L 28.421875 72.90625 
L 38.28125 72.90625 
L 38.28125 8.296875 
L 54.390625 8.296875 
L 54.390625 0 
L 12.40625 0 
z
" id="DejaVuSans-49"/>
      </defs>
      <g transform="translate(10.871875 47.139219)scale(0.1 -0.1)">
       <use xlink:href="#DejaVuSans-49"/>
       <use x="63.623047" xlink:href="#DejaVuSans-46"/>
       <use x="95.410156" xlink:href="#DejaVuSans-48"/>
      </g>
     </g>
    </g>
   </g>
   <g id="line2d_11">
    <path clip-path="url(#p62fd1a8f74)" d="M 96.548182 334.422938 
L 103.52298 277.427678 
L 110.497778 275.799242 
L 117.472576 219.21109 
L 124.447374 217.989763 
L 131.422172 161.401611 
L 138.39697 160.587393 
L 145.371768 216.361327 
L 152.346566 272.949479 
L 159.321364 272.949479 
L 166.296162 272.949479 
L 173.27096 273.356588 
L 180.245758 273.763697 
L 187.220556 273.763697 
L 194.195354 273.763697 
L 201.170152 330.351848 
L 208.144949 386.94 
L 215.119747 330.758957 
L 222.094545 274.577915 
L 229.069343 217.582654 
L 236.044141 160.587393 
L 243.018939 160.180284 
L 249.993737 159.773175 
L 256.968535 216.361327 
L 263.943333 215.954218 
L 270.918131 158.958957 
L 277.892929 101.963697 
L 284.867727 101.149479 
L 291.842525 100.335261 
L 298.817323 100.335261 
L 305.792121 100.335261 
L 312.766919 100.74237 
L 319.741717 101.149479 
L 326.716515 44.561327 
L 333.691313 44.968436 
L 340.666111 46.189763 
L 347.640909 47.41109 
L 354.615707 48.632417 
L 361.590505 49.853744 
L 368.565303 106.849005 
L 375.540101 163.844265 
L 382.514899 220.432417 
L 389.489697 277.020569 
L 396.464495 277.427678 
L 403.439293 277.834787 
L 410.414091 277.427678 
L 417.388889 277.020569 
L 424.363687 276.206351 
L 431.338485 275.392133 
L 438.313283 218.803981 
L 445.288081 162.215829 
L 452.262879 105.627678 
L 459.237677 49.039526 
L 466.212475 48.632417 
L 473.187273 48.225308 
L 480.162071 48.225308 
L 487.136869 48.225308 
L 494.111667 48.632417 
L 501.086465 49.039526 
L 508.061263 49.446635 
L 515.036061 49.853744 
L 522.010859 50.260853 
L 528.985657 50.667962 
L 535.960455 51.075071 
L 542.935253 51.48218 
L 549.910051 51.48218 
L 556.884848 51.48218 
L 563.859646 50.667962 
L 570.834444 49.853744 
L 577.809242 49.039526 
L 584.78404 48.225308 
L 591.758838 104.406351 
L 598.733636 160.587393 
L 605.708434 216.768436 
L 612.683232 272.949479 
L 619.65803 329.130521 
L 626.632828 328.723412 
L 633.607626 329.130521 
L 640.582424 329.53763 
L 647.557222 329.944739 
L 654.53202 330.351848 
L 661.506818 273.763697 
L 668.481616 217.175545 
L 675.456414 160.180284 
L 682.431212 103.185024 
L 689.40601 46.189763 
L 696.380808 45.782654 
L 703.355606 102.370806 
L 710.330404 102.370806 
L 717.305202 102.370806 
L 724.28 102.370806 
" style="fill:none;stroke:#1f77b4;stroke-linecap:square;stroke-width:1.5;"/>
   </g>
   <g id="line2d_12">
    <path clip-path="url(#p62fd1a8f74)" d="M 96.548182 314.881706 
L 103.52298 257.886445 
L 110.497778 200.891185 
L 117.472576 192.341896 
L 124.447374 193.563223 
L 131.422172 239.159431 
L 138.39697 224.910616 
L 145.371768 170.358009 
L 152.346566 120.283602 
L 159.321364 128.425782 
L 166.296162 180.128626 
L 173.27096 181.757062 
L 180.245758 190.71346 
L 187.220556 200.891185 
L 194.195354 197.227204 
L 201.170152 143.895924 
L 208.144949 143.895924 
L 215.119747 198.448531 
L 222.094545 248.522938 
L 229.069343 241.194976 
L 236.044141 184.199716 
L 243.018939 187.049479 
L 249.993737 181.757062 
L 256.968535 171.172227 
L 263.943333 227.760379 
L 270.918131 224.096398 
L 277.892929 235.902559 
L 284.867727 178.907299 
L 291.842525 123.540474 
L 298.817323 125.16891 
L 305.792121 125.576019 
L 312.766919 178.093081 
L 319.741717 185.013934 
L 326.716515 242.009194 
L 333.691313 242.009194 
L 340.666111 244.858957 
L 347.640909 239.159431 
L 354.615707 243.63763 
L 361.590505 257.886445 
L 368.565303 259.921991 
L 375.540101 261.550427 
L 382.514899 211.06891 
L 389.489697 257.479336 
L 396.464495 209.440474 
L 403.439293 168.322464 
L 410.414091 178.907299 
L 417.388889 228.981706 
L 424.363687 224.910616 
L 431.338485 266.028626 
L 438.313283 264.40019 
L 445.288081 269.285498 
L 452.262879 319.767014 
L 459.237677 263.178863 
L 466.212475 265.621517 
L 473.187273 250.151374 
L 480.162071 293.712038 
L 487.136869 250.151374 
L 494.111667 257.072227 
L 501.086465 212.697346 
L 508.061263 213.104455 
L 515.036061 263.178863 
L 522.010859 263.178863 
L 528.985657 319.767014 
L 535.960455 317.32436 
L 542.935253 322.209668 
L 549.910051 270.099716 
L 556.884848 263.993081 
L 563.859646 256.665118 
L 570.834444 244.858957 
L 577.809242 241.602085 
L 584.78404 186.235261 
L 591.758838 130.054218 
L 598.733636 73.466066 
L 605.708434 66.138104 
L 612.683232 62.067014 
L 619.65803 114.176967 
L 626.632828 112.548531 
L 633.607626 114.176967 
L 640.582424 115.805403 
L 647.557222 123.540474 
L 654.53202 132.496872 
L 661.506818 132.496872 
L 668.481616 137.789289 
L 675.456414 137.789289 
L 682.431212 140.231943 
L 689.40601 140.231943 
L 696.380808 134.532417 
L 703.355606 189.899242 
L 710.330404 189.492133 
L 717.305202 182.164171 
L 724.28 228.574597 
" style="fill:none;stroke:#ff7f0e;stroke-linecap:square;stroke-width:1.5;"/>
   </g>
   <g id="line2d_13">
    <path clip-path="url(#p62fd1a8f74)" d="M 96.548182 180.128626 
L 103.52298 123.133365 
L 110.497778 66.138104 
L 117.472576 59.62436 
L 124.447374 57.995924 
L 131.422172 60.438578 
L 138.39697 69.394976 
L 145.371768 72.651848 
L 152.346566 80.794028 
L 159.321364 86.086445 
L 166.296162 91.785972 
L 173.27096 92.193081 
L 180.245758 92.60019 
L 187.220556 90.564645 
L 194.195354 89.750427 
L 201.170152 84.458009 
L 208.144949 73.466066 
L 215.119747 72.244739 
L 222.094545 64.509668 
L 229.069343 57.588815 
L 236.044141 51.889289 
L 243.018939 51.48218 
L 249.993737 51.075071 
L 256.968535 50.667962 
L 263.943333 50.260853 
L 270.918131 49.039526 
L 277.892929 47.41109 
L 284.867727 44.968436 
L 291.842525 43.34 
L 298.817323 43.34 
L 305.792121 43.34 
L 312.766919 47.41109 
L 319.741717 53.517725 
L 326.716515 55.960379 
L 333.691313 56.367488 
L 340.666111 61.659905 
L 347.640909 62.881232 
L 354.615707 70.616303 
L 361.590505 82.015355 
L 368.565303 85.679336 
L 375.540101 91.785972 
L 382.514899 89.750427 
L 389.489697 99.521043 
L 396.464495 100.74237 
L 403.439293 101.556588 
L 410.414091 97.078389 
L 417.388889 96.67128 
L 424.363687 145.931469 
L 431.338485 134.939526 
L 438.313283 132.089763 
L 445.288081 141.046161 
L 452.262879 143.895924 
L 459.237677 128.425782 
L 466.212475 128.832891 
L 473.187273 128.018673 
L 480.162071 184.199716 
L 487.136869 184.199716 
L 494.111667 139.824834 
L 501.086465 143.895924 
L 508.061263 200.076967 
L 515.036061 190.306351 
L 522.010859 188.270806 
L 528.985657 189.899242 
L 535.960455 187.863697 
L 542.935253 189.899242 
L 549.910051 189.899242 
L 556.884848 191.934787 
L 563.859646 179.314408 
L 570.834444 174.836209 
L 577.809242 117.840948 
L 584.78404 112.548531 
L 591.758838 109.698768 
L 598.733636 107.663223 
L 605.708434 105.627678 
L 612.683232 103.185024 
L 619.65803 47.41109 
L 626.632828 44.968436 
L 633.607626 47.003981 
L 640.582424 48.225308 
L 647.557222 50.667962 
L 654.53202 51.889289 
L 661.506818 53.924834 
L 668.481616 54.331943 
L 675.456414 54.331943 
L 682.431212 54.331943 
L 689.40601 53.110616 
L 696.380808 52.703507 
L 703.355606 51.075071 
L 710.330404 50.260853 
L 717.305202 48.225308 
L 724.28 47.818199 
" style="fill:none;stroke:#2ca02c;stroke-linecap:square;stroke-width:1.5;"/>
   </g>
   <g id="line2d_14">
    <path clip-path="url(#p62fd1a8f74)" d="M 96.548182 173.614882 
L 103.52298 116.619621 
L 110.497778 59.62436 
L 117.472576 51.075071 
L 124.447374 49.853744 
L 131.422172 49.853744 
L 138.39697 49.853744 
L 145.371768 51.075071 
L 152.346566 56.367488 
L 159.321364 63.69545 
L 166.296162 63.69545 
L 173.27096 64.509668 
L 180.245758 64.916777 
L 187.220556 64.916777 
L 194.195354 63.69545 
L 201.170152 71.83763 
L 208.144949 73.058957 
L 215.119747 72.244739 
L 222.094545 67.359431 
L 229.069343 58.810142 
L 236.044141 57.181706 
L 243.018939 56.367488 
L 249.993737 55.960379 
L 256.968535 55.55327 
L 263.943333 55.146161 
L 270.918131 46.596872 
L 277.892929 44.968436 
L 284.867727 44.154218 
L 291.842525 43.34 
L 298.817323 43.34 
L 305.792121 43.34 
L 312.766919 43.747109 
L 319.741717 44.154218 
L 326.716515 44.561327 
L 333.691313 44.968436 
L 340.666111 55.146161 
L 347.640909 60.845687 
L 354.615707 67.359431 
L 361.590505 70.209194 
L 368.565303 75.501611 
L 375.540101 89.343318 
L 382.514899 90.971754 
L 389.489697 96.264171 
L 396.464495 96.67128 
L 403.439293 97.078389 
L 410.414091 87.714882 
L 417.388889 82.829573 
L 424.363687 76.722938 
L 431.338485 74.280284 
L 438.313283 69.394976 
L 445.288081 55.960379 
L 452.262879 54.331943 
L 459.237677 49.039526 
L 466.212475 48.632417 
L 473.187273 48.225308 
L 480.162071 49.853744 
L 487.136869 51.48218 
L 494.111667 55.55327 
L 501.086465 59.62436 
L 508.061263 61.659905 
L 515.036061 62.067014 
L 522.010859 62.474123 
L 528.985657 62.881232 
L 535.960455 63.288341 
L 542.935253 63.69545 
L 549.910051 64.509668 
L 556.884848 63.288341 
L 563.859646 58.810142 
L 570.834444 54.331943 
L 577.809242 51.889289 
L 584.78404 51.075071 
L 591.758838 50.260853 
L 598.733636 49.446635 
L 605.708434 48.632417 
L 612.683232 47.818199 
L 619.65803 44.968436 
L 626.632828 44.154218 
L 633.607626 44.561327 
L 640.582424 44.968436 
L 647.557222 45.375545 
L 654.53202 46.189763 
L 661.506818 46.596872 
L 668.481616 47.003981 
L 675.456414 47.003981 
L 682.431212 47.003981 
L 689.40601 46.596872 
L 696.380808 46.189763 
L 703.355606 46.189763 
L 710.330404 46.189763 
L 717.305202 46.189763 
L 724.28 45.782654 
" style="fill:none;stroke:#d62728;stroke-linecap:square;stroke-width:1.5;"/>
   </g>
   <g id="line2d_15">
    <path clip-path="url(#p62fd1a8f74)" d="M 96.548182 174.4291 
L 103.52298 119.062275 
L 110.497778 64.102559 
L 117.472576 55.55327 
L 124.447374 53.517725 
L 131.422172 53.517725 
L 138.39697 53.517725 
L 145.371768 55.146161 
L 152.346566 57.181706 
L 159.321364 56.774597 
L 166.296162 56.367488 
L 173.27096 55.960379 
L 180.245758 55.146161 
L 187.220556 55.960379 
L 194.195354 56.774597 
L 201.170152 57.995924 
L 208.144949 58.403033 
L 215.119747 57.181706 
L 222.094545 55.55327 
L 229.069343 53.924834 
L 236.044141 52.296398 
L 243.018939 51.075071 
L 249.993737 49.853744 
L 256.968535 49.446635 
L 263.943333 49.039526 
L 270.918131 48.225308 
L 277.892929 48.225308 
L 284.867727 55.55327 
L 291.842525 54.739052 
L 298.817323 54.739052 
L 305.792121 54.739052 
L 312.766919 55.146161 
L 319.741717 55.55327 
L 326.716515 55.146161 
L 333.691313 54.739052 
L 340.666111 67.359431 
L 347.640909 67.76654 
L 354.615707 60.845687 
L 361.590505 62.067014 
L 368.565303 66.545213 
L 375.540101 79.572701 
L 382.514899 84.0509 
L 389.489697 90.971754 
L 396.464495 92.193081 
L 403.439293 92.60019 
L 410.414091 79.97981 
L 417.388889 79.572701 
L 424.363687 82.422464 
L 431.338485 82.422464 
L 438.313283 79.165592 
L 445.288081 67.359431 
L 452.262879 62.881232 
L 459.237677 55.960379 
L 466.212475 54.739052 
L 473.187273 54.331943 
L 480.162071 55.146161 
L 487.136869 55.960379 
L 494.111667 54.331943 
L 501.086465 54.739052 
L 508.061263 54.739052 
L 515.036061 54.331943 
L 522.010859 54.739052 
L 528.985657 55.146161 
L 535.960455 56.367488 
L 542.935253 57.995924 
L 549.910051 57.995924 
L 556.884848 58.810142 
L 563.859646 56.367488 
L 570.834444 54.739052 
L 577.809242 53.517725 
L 584.78404 52.703507 
L 591.758838 51.889289 
L 598.733636 51.075071 
L 605.708434 49.446635 
L 612.683232 47.41109 
L 619.65803 46.189763 
L 626.632828 44.154218 
L 633.607626 44.561327 
L 640.582424 44.968436 
L 647.557222 45.375545 
L 654.53202 45.782654 
L 661.506818 46.189763 
L 668.481616 46.596872 
L 675.456414 46.596872 
L 682.431212 46.596872 
L 689.40601 46.189763 
L 696.380808 45.782654 
L 703.355606 45.782654 
L 710.330404 45.782654 
L 717.305202 45.782654 
L 724.28 45.782654 
" style="fill:none;stroke:#9467bd;stroke-linecap:square;stroke-width:1.5;"/>
   </g>
   <g id="line2d_16">
    <path clip-path="url(#p62fd1a8f74)" d="M 96.548182 125.983128 
L 103.52298 125.576019 
L 110.497778 68.987867 
L 117.472576 62.881232 
L 124.447374 62.474123 
L 131.422172 58.810142 
L 138.39697 60.438578 
L 145.371768 63.288341 
L 152.346566 62.881232 
L 159.321364 61.659905 
L 166.296162 61.252796 
L 173.27096 67.76654 
L 180.245758 68.173649 
L 187.220556 68.580758 
L 194.195354 66.138104 
L 201.170152 65.730995 
L 208.144949 62.474123 
L 215.119747 58.810142 
L 222.094545 62.067014 
L 229.069343 61.659905 
L 236.044141 61.252796 
L 243.018939 56.367488 
L 249.993737 57.181706 
L 256.968535 56.774597 
L 263.943333 55.146161 
L 270.918131 62.474123 
L 277.892929 62.067014 
L 284.867727 66.138104 
L 291.842525 68.987867 
L 298.817323 71.023412 
L 305.792121 73.466066 
L 312.766919 74.687393 
L 319.741717 75.501611 
L 326.716515 79.165592 
L 333.691313 79.97981 
L 340.666111 74.280284 
L 347.640909 74.280284 
L 354.615707 71.83763 
L 361.590505 68.173649 
L 368.565303 67.76654 
L 375.540101 67.359431 
L 382.514899 65.323886 
L 389.489697 64.102559 
L 396.464495 60.438578 
L 403.439293 58.810142 
L 410.414091 57.588815 
L 417.388889 56.367488 
L 424.363687 56.774597 
L 431.338485 54.331943 
L 438.313283 56.774597 
L 445.288081 61.252796 
L 452.262879 60.845687 
L 459.237677 61.659905 
L 466.212475 62.881232 
L 473.187273 63.288341 
L 480.162071 63.69545 
L 487.136869 68.580758 
L 494.111667 66.545213 
L 501.086465 66.952322 
L 508.061263 65.730995 
L 515.036061 60.031469 
L 522.010859 68.173649 
L 528.985657 66.138104 
L 535.960455 67.359431 
L 542.935253 66.545213 
L 549.910051 65.730995 
L 556.884848 67.359431 
L 563.859646 66.545213 
L 570.834444 65.730995 
L 577.809242 62.881232 
L 584.78404 65.323886 
L 591.758838 57.995924 
L 598.733636 58.810142 
L 605.708434 56.774597 
L 612.683232 56.774597 
L 619.65803 60.438578 
L 626.632828 55.960379 
L 633.607626 61.659905 
L 640.582424 62.474123 
L 647.557222 63.288341 
L 654.53202 60.845687 
L 661.506818 60.438578 
L 668.481616 59.62436 
L 675.456414 58.810142 
L 682.431212 59.62436 
L 689.40601 67.359431 
L 696.380808 64.916777 
L 703.355606 59.217251 
L 710.330404 58.403033 
L 717.305202 58.403033 
L 724.28 58.403033 
" style="fill:none;stroke:#8c564b;stroke-linecap:square;stroke-width:1.5;"/>
   </g>
   <g id="patch_3">
    <path d="M 33.775 404.12 
L 33.775 26.16 
" style="fill:none;stroke:#000000;stroke-linecap:square;stroke-linejoin:miter;stroke-width:0.8;"/>
   </g>
   <g id="patch_4">
    <path d="M 724.28 404.12 
L 724.28 26.16 
" style="fill:none;stroke:#000000;stroke-linecap:square;stroke-linejoin:miter;stroke-width:0.8;"/>
   </g>
   <g id="patch_5">
    <path d="M 33.775 404.12 
L 724.28 404.12 
" style="fill:none;stroke:#000000;stroke-linecap:square;stroke-linejoin:miter;stroke-width:0.8;"/>
   </g>
   <g id="patch_6">
    <path d="M 33.775 26.16 
L 724.28 26.16 
" style="fill:none;stroke:#000000;stroke-linecap:square;stroke-linejoin:miter;stroke-width:0.8;"/>
   </g>
   <g id="text_11">
    <!-- gridworld_0: episode reward, MA=10 -->
    <defs>
     <path d="M 45.40625 27.984375 
Q 45.40625 37.75 41.375 43.109375 
Q 37.359375 48.484375 30.078125 48.484375 
Q 22.859375 48.484375 18.828125 43.109375 
Q 14.796875 37.75 14.796875 27.984375 
Q 14.796875 18.265625 18.828125 12.890625 
Q 22.859375 7.515625 30.078125 7.515625 
Q 37.359375 7.515625 41.375 12.890625 
Q 45.40625 18.265625 45.40625 27.984375 
z
M 54.390625 6.78125 
Q 54.390625 -7.171875 48.1875 -13.984375 
Q 42 -20.796875 29.203125 -20.796875 
Q 24.46875 -20.796875 20.265625 -20.09375 
Q 16.0625 -19.390625 12.109375 -17.921875 
L 12.109375 -9.1875 
Q 16.0625 -11.328125 19.921875 -12.34375 
Q 23.78125 -13.375 27.78125 -13.375 
Q 36.625 -13.375 41.015625 -8.765625 
Q 45.40625 -4.15625 45.40625 5.171875 
L 45.40625 9.625 
Q 42.625 4.78125 38.28125 2.390625 
Q 33.9375 0 27.875 0 
Q 17.828125 0 11.671875 7.65625 
Q 5.515625 15.328125 5.515625 27.984375 
Q 5.515625 40.671875 11.671875 48.328125 
Q 17.828125 56 27.875 56 
Q 33.9375 56 38.28125 53.609375 
Q 42.625 51.21875 45.40625 46.390625 
L 45.40625 54.6875 
L 54.390625 54.6875 
z
" id="DejaVuSans-103"/>
     <path d="M 41.109375 46.296875 
Q 39.59375 47.171875 37.8125 47.578125 
Q 36.03125 48 33.890625 48 
Q 26.265625 48 22.1875 43.046875 
Q 18.109375 38.09375 18.109375 28.8125 
L 18.109375 0 
L 9.078125 0 
L 9.078125 54.6875 
L 18.109375 54.6875 
L 18.109375 46.1875 
Q 20.953125 51.171875 25.484375 53.578125 
Q 30.03125 56 36.53125 56 
Q 37.453125 56 38.578125 55.875 
Q 39.703125 55.765625 41.0625 55.515625 
z
" id="DejaVuSans-114"/>
     <path d="M 9.421875 54.6875 
L 18.40625 54.6875 
L 18.40625 0 
L 9.421875 0 
z
M 9.421875 75.984375 
L 18.40625 75.984375 
L 18.40625 64.59375 
L 9.421875 64.59375 
z
" id="DejaVuSans-105"/>
     <path d="M 45.40625 46.390625 
L 45.40625 75.984375 
L 54.390625 75.984375 
L 54.390625 0 
L 45.40625 0 
L 45.40625 8.203125 
Q 42.578125 3.328125 38.25 0.953125 
Q 33.9375 -1.421875 27.875 -1.421875 
Q 17.96875 -1.421875 11.734375 6.484375 
Q 5.515625 14.40625 5.515625 27.296875 
Q 5.515625 40.1875 11.734375 48.09375 
Q 17.96875 56 27.875 56 
Q 33.9375 56 38.25 53.625 
Q 42.578125 51.265625 45.40625 46.390625 
z
M 14.796875 27.296875 
Q 14.796875 17.390625 18.875 11.75 
Q 22.953125 6.109375 30.078125 6.109375 
Q 37.203125 6.109375 41.296875 11.75 
Q 45.40625 17.390625 45.40625 27.296875 
Q 45.40625 37.203125 41.296875 42.84375 
Q 37.203125 48.484375 30.078125 48.484375 
Q 22.953125 48.484375 18.875 42.84375 
Q 14.796875 37.203125 14.796875 27.296875 
z
" id="DejaVuSans-100"/>
     <path d="M 4.203125 54.6875 
L 13.1875 54.6875 
L 24.421875 12.015625 
L 35.59375 54.6875 
L 46.1875 54.6875 
L 57.421875 12.015625 
L 68.609375 54.6875 
L 77.59375 54.6875 
L 63.28125 0 
L 52.6875 0 
L 40.921875 44.828125 
L 29.109375 0 
L 18.5 0 
z
" id="DejaVuSans-119"/>
     <path d="M 30.609375 48.390625 
Q 23.390625 48.390625 19.1875 42.75 
Q 14.984375 37.109375 14.984375 27.296875 
Q 14.984375 17.484375 19.15625 11.84375 
Q 23.34375 6.203125 30.609375 6.203125 
Q 37.796875 6.203125 41.984375 11.859375 
Q 46.1875 17.53125 46.1875 27.296875 
Q 46.1875 37.015625 41.984375 42.703125 
Q 37.796875 48.390625 30.609375 48.390625 
z
M 30.609375 56 
Q 42.328125 56 49.015625 48.375 
Q 55.71875 40.765625 55.71875 27.296875 
Q 55.71875 13.875 49.015625 6.21875 
Q 42.328125 -1.421875 30.609375 -1.421875 
Q 18.84375 -1.421875 12.171875 6.21875 
Q 5.515625 13.875 5.515625 27.296875 
Q 5.515625 40.765625 12.171875 48.375 
Q 18.84375 56 30.609375 56 
z
" id="DejaVuSans-111"/>
     <path d="M 9.421875 75.984375 
L 18.40625 75.984375 
L 18.40625 0 
L 9.421875 0 
z
" id="DejaVuSans-108"/>
     <path d="M 50.984375 -16.609375 
L 50.984375 -23.578125 
L -0.984375 -23.578125 
L -0.984375 -16.609375 
z
" id="DejaVuSans-95"/>
     <path d="M 11.71875 12.40625 
L 22.015625 12.40625 
L 22.015625 0 
L 11.71875 0 
z
M 11.71875 51.703125 
L 22.015625 51.703125 
L 22.015625 39.3125 
L 11.71875 39.3125 
z
" id="DejaVuSans-58"/>
     <path id="DejaVuSans-32"/>
     <path d="M 56.203125 29.59375 
L 56.203125 25.203125 
L 14.890625 25.203125 
Q 15.484375 15.921875 20.484375 11.0625 
Q 25.484375 6.203125 34.421875 6.203125 
Q 39.59375 6.203125 44.453125 7.46875 
Q 49.3125 8.734375 54.109375 11.28125 
L 54.109375 2.78125 
Q 49.265625 0.734375 44.1875 -0.34375 
Q 39.109375 -1.421875 33.890625 -1.421875 
Q 20.796875 -1.421875 13.15625 6.1875 
Q 5.515625 13.8125 5.515625 26.8125 
Q 5.515625 40.234375 12.765625 48.109375 
Q 20.015625 56 32.328125 56 
Q 43.359375 56 49.78125 48.890625 
Q 56.203125 41.796875 56.203125 29.59375 
z
M 47.21875 32.234375 
Q 47.125 39.59375 43.09375 43.984375 
Q 39.0625 48.390625 32.421875 48.390625 
Q 24.90625 48.390625 20.390625 44.140625 
Q 15.875 39.890625 15.1875 32.171875 
z
" id="DejaVuSans-101"/>
     <path d="M 18.109375 8.203125 
L 18.109375 -20.796875 
L 9.078125 -20.796875 
L 9.078125 54.6875 
L 18.109375 54.6875 
L 18.109375 46.390625 
Q 20.953125 51.265625 25.265625 53.625 
Q 29.59375 56 35.59375 56 
Q 45.5625 56 51.78125 48.09375 
Q 58.015625 40.1875 58.015625 27.296875 
Q 58.015625 14.40625 51.78125 6.484375 
Q 45.5625 -1.421875 35.59375 -1.421875 
Q 29.59375 -1.421875 25.265625 0.953125 
Q 20.953125 3.328125 18.109375 8.203125 
z
M 48.6875 27.296875 
Q 48.6875 37.203125 44.609375 42.84375 
Q 40.53125 48.484375 33.40625 48.484375 
Q 26.265625 48.484375 22.1875 42.84375 
Q 18.109375 37.203125 18.109375 27.296875 
Q 18.109375 17.390625 22.1875 11.75 
Q 26.265625 6.109375 33.40625 6.109375 
Q 40.53125 6.109375 44.609375 11.75 
Q 48.6875 17.390625 48.6875 27.296875 
z
" id="DejaVuSans-112"/>
     <path d="M 44.28125 53.078125 
L 44.28125 44.578125 
Q 40.484375 46.53125 36.375 47.5 
Q 32.28125 48.484375 27.875 48.484375 
Q 21.1875 48.484375 17.84375 46.4375 
Q 14.5 44.390625 14.5 40.28125 
Q 14.5 37.15625 16.890625 35.375 
Q 19.28125 33.59375 26.515625 31.984375 
L 29.59375 31.296875 
Q 39.15625 29.25 43.1875 25.515625 
Q 47.21875 21.78125 47.21875 15.09375 
Q 47.21875 7.46875 41.1875 3.015625 
Q 35.15625 -1.421875 24.609375 -1.421875 
Q 20.21875 -1.421875 15.453125 -0.5625 
Q 10.6875 0.296875 5.421875 2 
L 5.421875 11.28125 
Q 10.40625 8.6875 15.234375 7.390625 
Q 20.0625 6.109375 24.8125 6.109375 
Q 31.15625 6.109375 34.5625 8.28125 
Q 37.984375 10.453125 37.984375 14.40625 
Q 37.984375 18.0625 35.515625 20.015625 
Q 33.0625 21.96875 24.703125 23.78125 
L 21.578125 24.515625 
Q 13.234375 26.265625 9.515625 29.90625 
Q 5.8125 33.546875 5.8125 39.890625 
Q 5.8125 47.609375 11.28125 51.796875 
Q 16.75 56 26.8125 56 
Q 31.78125 56 36.171875 55.265625 
Q 40.578125 54.546875 44.28125 53.078125 
z
" id="DejaVuSans-115"/>
     <path d="M 34.28125 27.484375 
Q 23.390625 27.484375 19.1875 25 
Q 14.984375 22.515625 14.984375 16.5 
Q 14.984375 11.71875 18.140625 8.90625 
Q 21.296875 6.109375 26.703125 6.109375 
Q 34.1875 6.109375 38.703125 11.40625 
Q 43.21875 16.703125 43.21875 25.484375 
L 43.21875 27.484375 
z
M 52.203125 31.203125 
L 52.203125 0 
L 43.21875 0 
L 43.21875 8.296875 
Q 40.140625 3.328125 35.546875 0.953125 
Q 30.953125 -1.421875 24.3125 -1.421875 
Q 15.921875 -1.421875 10.953125 3.296875 
Q 6 8.015625 6 15.921875 
Q 6 25.140625 12.171875 29.828125 
Q 18.359375 34.515625 30.609375 34.515625 
L 43.21875 34.515625 
L 43.21875 35.40625 
Q 43.21875 41.609375 39.140625 45 
Q 35.0625 48.390625 27.6875 48.390625 
Q 23 48.390625 18.546875 47.265625 
Q 14.109375 46.140625 10.015625 43.890625 
L 10.015625 52.203125 
Q 14.9375 54.109375 19.578125 55.046875 
Q 24.21875 56 28.609375 56 
Q 40.484375 56 46.34375 49.84375 
Q 52.203125 43.703125 52.203125 31.203125 
z
" id="DejaVuSans-97"/>
     <path d="M 11.71875 12.40625 
L 22.015625 12.40625 
L 22.015625 4 
L 14.015625 -11.625 
L 7.71875 -11.625 
L 11.71875 4 
z
" id="DejaVuSans-44"/>
     <path d="M 9.8125 72.90625 
L 24.515625 72.90625 
L 43.109375 23.296875 
L 61.8125 72.90625 
L 76.515625 72.90625 
L 76.515625 0 
L 66.890625 0 
L 66.890625 64.015625 
L 48.09375 14.015625 
L 38.1875 14.015625 
L 19.390625 64.015625 
L 19.390625 0 
L 9.8125 0 
z
" id="DejaVuSans-77"/>
     <path d="M 34.1875 63.1875 
L 20.796875 26.90625 
L 47.609375 26.90625 
z
M 28.609375 72.90625 
L 39.796875 72.90625 
L 67.578125 0 
L 57.328125 0 
L 50.6875 18.703125 
L 17.828125 18.703125 
L 11.1875 0 
L 0.78125 0 
z
" id="DejaVuSans-65"/>
     <path d="M 10.59375 45.40625 
L 73.1875 45.40625 
L 73.1875 37.203125 
L 10.59375 37.203125 
z
M 10.59375 25.484375 
L 73.1875 25.484375 
L 73.1875 17.1875 
L 10.59375 17.1875 
z
" id="DejaVuSans-61"/>
    </defs>
    <g transform="translate(267.864375 20.16)scale(0.12 -0.12)">
     <use xlink:href="#DejaVuSans-103"/>
     <use x="63.476562" xlink:href="#DejaVuSans-114"/>
     <use x="104.589844" xlink:href="#DejaVuSans-105"/>
     <use x="132.373047" xlink:href="#DejaVuSans-100"/>
     <use x="195.849609" xlink:href="#DejaVuSans-119"/>
     <use x="277.636719" xlink:href="#DejaVuSans-111"/>
     <use x="338.818359" xlink:href="#DejaVuSans-114"/>
     <use x="379.931641" xlink:href="#DejaVuSans-108"/>
     <use x="407.714844" xlink:href="#DejaVuSans-100"/>
     <use x="471.191406" xlink:href="#DejaVuSans-95"/>
     <use x="521.191406" xlink:href="#DejaVuSans-48"/>
     <use x="584.814453" xlink:href="#DejaVuSans-58"/>
     <use x="618.505859" xlink:href="#DejaVuSans-32"/>
     <use x="650.292969" xlink:href="#DejaVuSans-101"/>
     <use x="711.816406" xlink:href="#DejaVuSans-112"/>
     <use x="775.292969" xlink:href="#DejaVuSans-105"/>
     <use x="803.076172" xlink:href="#DejaVuSans-115"/>
     <use x="855.175781" xlink:href="#DejaVuSans-111"/>
     <use x="916.357422" xlink:href="#DejaVuSans-100"/>
     <use x="979.833984" xlink:href="#DejaVuSans-101"/>
     <use x="1041.357422" xlink:href="#DejaVuSans-32"/>
     <use x="1073.144531" xlink:href="#DejaVuSans-114"/>
     <use x="1114.226562" xlink:href="#DejaVuSans-101"/>
     <use x="1175.75" xlink:href="#DejaVuSans-119"/>
     <use x="1257.537109" xlink:href="#DejaVuSans-97"/>
     <use x="1318.816406" xlink:href="#DejaVuSans-114"/>
     <use x="1359.914062" xlink:href="#DejaVuSans-100"/>
     <use x="1423.390625" xlink:href="#DejaVuSans-44"/>
     <use x="1455.177734" xlink:href="#DejaVuSans-32"/>
     <use x="1486.964844" xlink:href="#DejaVuSans-77"/>
     <use x="1573.244141" xlink:href="#DejaVuSans-65"/>
     <use x="1641.652344" xlink:href="#DejaVuSans-61"/>
     <use x="1725.441406" xlink:href="#DejaVuSans-49"/>
     <use x="1789.064453" xlink:href="#DejaVuSans-48"/>
    </g>
   </g>
   <g id="legend_1">
    <g id="patch_7">
     <path d="M 764.316937 261.369687 
L 855.381 261.369687 
Q 857.381 261.369687 857.381 259.369687 
L 857.381 170.910313 
Q 857.381 168.910313 855.381 168.910313 
L 764.316937 168.910313 
Q 762.316937 168.910313 762.316937 170.910313 
L 762.316937 259.369687 
Q 762.316937 261.369687 764.316937 261.369687 
z
" style="fill:#ffffff;opacity:0.8;stroke:#cccccc;stroke-linejoin:miter;"/>
    </g>
    <g id="line2d_17">
     <path d="M 766.316937 177.00875 
L 786.316937 177.00875 
" style="fill:none;stroke:#1f77b4;stroke-linecap:square;stroke-width:1.5;"/>
    </g>
    <g id="line2d_18"/>
    <g id="text_12">
     <!-- dqn_greedy -->
     <defs>
      <path d="M 14.796875 27.296875 
Q 14.796875 17.390625 18.875 11.75 
Q 22.953125 6.109375 30.078125 6.109375 
Q 37.203125 6.109375 41.296875 11.75 
Q 45.40625 17.390625 45.40625 27.296875 
Q 45.40625 37.203125 41.296875 42.84375 
Q 37.203125 48.484375 30.078125 48.484375 
Q 22.953125 48.484375 18.875 42.84375 
Q 14.796875 37.203125 14.796875 27.296875 
z
M 45.40625 8.203125 
Q 42.578125 3.328125 38.25 0.953125 
Q 33.9375 -1.421875 27.875 -1.421875 
Q 17.96875 -1.421875 11.734375 6.484375 
Q 5.515625 14.40625 5.515625 27.296875 
Q 5.515625 40.1875 11.734375 48.09375 
Q 17.96875 56 27.875 56 
Q 33.9375 56 38.25 53.625 
Q 42.578125 51.265625 45.40625 46.390625 
L 45.40625 54.6875 
L 54.390625 54.6875 
L 54.390625 -20.796875 
L 45.40625 -20.796875 
z
" id="DejaVuSans-113"/>
      <path d="M 54.890625 33.015625 
L 54.890625 0 
L 45.90625 0 
L 45.90625 32.71875 
Q 45.90625 40.484375 42.875 44.328125 
Q 39.84375 48.1875 33.796875 48.1875 
Q 26.515625 48.1875 22.3125 43.546875 
Q 18.109375 38.921875 18.109375 30.90625 
L 18.109375 0 
L 9.078125 0 
L 9.078125 54.6875 
L 18.109375 54.6875 
L 18.109375 46.1875 
Q 21.34375 51.125 25.703125 53.5625 
Q 30.078125 56 35.796875 56 
Q 45.21875 56 50.046875 50.171875 
Q 54.890625 44.34375 54.890625 33.015625 
z
" id="DejaVuSans-110"/>
      <path d="M 32.171875 -5.078125 
Q 28.375 -14.84375 24.75 -17.8125 
Q 21.140625 -20.796875 15.09375 -20.796875 
L 7.90625 -20.796875 
L 7.90625 -13.28125 
L 13.1875 -13.28125 
Q 16.890625 -13.28125 18.9375 -11.515625 
Q 21 -9.765625 23.484375 -3.21875 
L 25.09375 0.875 
L 2.984375 54.6875 
L 12.5 54.6875 
L 29.59375 11.921875 
L 46.6875 54.6875 
L 56.203125 54.6875 
z
" id="DejaVuSans-121"/>
     </defs>
     <g transform="translate(794.316937 180.50875)scale(0.1 -0.1)">
      <use xlink:href="#DejaVuSans-100"/>
      <use x="63.476562" xlink:href="#DejaVuSans-113"/>
      <use x="126.953125" xlink:href="#DejaVuSans-110"/>
      <use x="190.332031" xlink:href="#DejaVuSans-95"/>
      <use x="240.332031" xlink:href="#DejaVuSans-103"/>
      <use x="303.808594" xlink:href="#DejaVuSans-114"/>
      <use x="344.890625" xlink:href="#DejaVuSans-101"/>
      <use x="406.414062" xlink:href="#DejaVuSans-101"/>
      <use x="467.9375" xlink:href="#DejaVuSans-100"/>
      <use x="531.414062" xlink:href="#DejaVuSans-121"/>
     </g>
    </g>
    <g id="line2d_19">
     <path d="M 766.316937 191.965 
L 786.316937 191.965 
" style="fill:none;stroke:#ff7f0e;stroke-linecap:square;stroke-width:1.5;"/>
    </g>
    <g id="line2d_20"/>
    <g id="text_13">
     <!-- htm_0 -->
     <defs>
      <path d="M 54.890625 33.015625 
L 54.890625 0 
L 45.90625 0 
L 45.90625 32.71875 
Q 45.90625 40.484375 42.875 44.328125 
Q 39.84375 48.1875 33.796875 48.1875 
Q 26.515625 48.1875 22.3125 43.546875 
Q 18.109375 38.921875 18.109375 30.90625 
L 18.109375 0 
L 9.078125 0 
L 9.078125 75.984375 
L 18.109375 75.984375 
L 18.109375 46.1875 
Q 21.34375 51.125 25.703125 53.5625 
Q 30.078125 56 35.796875 56 
Q 45.21875 56 50.046875 50.171875 
Q 54.890625 44.34375 54.890625 33.015625 
z
" id="DejaVuSans-104"/>
      <path d="M 18.3125 70.21875 
L 18.3125 54.6875 
L 36.8125 54.6875 
L 36.8125 47.703125 
L 18.3125 47.703125 
L 18.3125 18.015625 
Q 18.3125 11.328125 20.140625 9.421875 
Q 21.96875 7.515625 27.59375 7.515625 
L 36.8125 7.515625 
L 36.8125 0 
L 27.59375 0 
Q 17.1875 0 13.234375 3.875 
Q 9.28125 7.765625 9.28125 18.015625 
L 9.28125 47.703125 
L 2.6875 47.703125 
L 2.6875 54.6875 
L 9.28125 54.6875 
L 9.28125 70.21875 
z
" id="DejaVuSans-116"/>
      <path d="M 52 44.1875 
Q 55.375 50.25 60.0625 53.125 
Q 64.75 56 71.09375 56 
Q 79.640625 56 84.28125 50.015625 
Q 88.921875 44.046875 88.921875 33.015625 
L 88.921875 0 
L 79.890625 0 
L 79.890625 32.71875 
Q 79.890625 40.578125 77.09375 44.375 
Q 74.3125 48.1875 68.609375 48.1875 
Q 61.625 48.1875 57.5625 43.546875 
Q 53.515625 38.921875 53.515625 30.90625 
L 53.515625 0 
L 44.484375 0 
L 44.484375 32.71875 
Q 44.484375 40.625 41.703125 44.40625 
Q 38.921875 48.1875 33.109375 48.1875 
Q 26.21875 48.1875 22.15625 43.53125 
Q 18.109375 38.875 18.109375 30.90625 
L 18.109375 0 
L 9.078125 0 
L 9.078125 54.6875 
L 18.109375 54.6875 
L 18.109375 46.1875 
Q 21.1875 51.21875 25.484375 53.609375 
Q 29.78125 56 35.6875 56 
Q 41.65625 56 45.828125 52.96875 
Q 50 49.953125 52 44.1875 
z
" id="DejaVuSans-109"/>
     </defs>
     <g transform="translate(794.316937 195.465)scale(0.1 -0.1)">
      <use xlink:href="#DejaVuSans-104"/>
      <use x="63.378906" xlink:href="#DejaVuSans-116"/>
      <use x="102.587891" xlink:href="#DejaVuSans-109"/>
      <use x="200" xlink:href="#DejaVuSans-95"/>
      <use x="250" xlink:href="#DejaVuSans-48"/>
     </g>
    </g>
    <g id="line2d_21">
     <path d="M 766.316937 206.92125 
L 786.316937 206.92125 
" style="fill:none;stroke:#2ca02c;stroke-linecap:square;stroke-width:1.5;"/>
    </g>
    <g id="line2d_22"/>
    <g id="text_14">
     <!-- htm_1_1g -->
     <g transform="translate(794.316937 210.42125)scale(0.1 -0.1)">
      <use xlink:href="#DejaVuSans-104"/>
      <use x="63.378906" xlink:href="#DejaVuSans-116"/>
      <use x="102.587891" xlink:href="#DejaVuSans-109"/>
      <use x="200" xlink:href="#DejaVuSans-95"/>
      <use x="250" xlink:href="#DejaVuSans-49"/>
      <use x="313.623047" xlink:href="#DejaVuSans-95"/>
      <use x="363.623047" xlink:href="#DejaVuSans-49"/>
      <use x="427.246094" xlink:href="#DejaVuSans-103"/>
     </g>
    </g>
    <g id="line2d_23">
     <path d="M 766.316937 221.8775 
L 786.316937 221.8775 
" style="fill:none;stroke:#d62728;stroke-linecap:square;stroke-width:1.5;"/>
    </g>
    <g id="line2d_24"/>
    <g id="text_15">
     <!-- htm_2_1g -->
     <g transform="translate(794.316937 225.3775)scale(0.1 -0.1)">
      <use xlink:href="#DejaVuSans-104"/>
      <use x="63.378906" xlink:href="#DejaVuSans-116"/>
      <use x="102.587891" xlink:href="#DejaVuSans-109"/>
      <use x="200" xlink:href="#DejaVuSans-95"/>
      <use x="250" xlink:href="#DejaVuSans-50"/>
      <use x="313.623047" xlink:href="#DejaVuSans-95"/>
      <use x="363.623047" xlink:href="#DejaVuSans-49"/>
      <use x="427.246094" xlink:href="#DejaVuSans-103"/>
     </g>
    </g>
    <g id="line2d_25">
     <path d="M 766.316937 236.83375 
L 786.316937 236.83375 
" style="fill:none;stroke:#9467bd;stroke-linecap:square;stroke-width:1.5;"/>
    </g>
    <g id="line2d_26"/>
    <g id="text_16">
     <!-- htm_4_1g -->
     <g transform="translate(794.316937 240.33375)scale(0.1 -0.1)">
      <use xlink:href="#DejaVuSans-104"/>
      <use x="63.378906" xlink:href="#DejaVuSans-116"/>
      <use x="102.587891" xlink:href="#DejaVuSans-109"/>
      <use x="200" xlink:href="#DejaVuSans-95"/>
      <use x="250" xlink:href="#DejaVuSans-52"/>
      <use x="313.623047" xlink:href="#DejaVuSans-95"/>
      <use x="363.623047" xlink:href="#DejaVuSans-49"/>
      <use x="427.246094" xlink:href="#DejaVuSans-103"/>
     </g>
    </g>
    <g id="line2d_27">
     <path d="M 766.316937 251.79 
L 786.316937 251.79 
" style="fill:none;stroke:#8c564b;stroke-linecap:square;stroke-width:1.5;"/>
    </g>
    <g id="line2d_28"/>
    <g id="text_17">
     <!-- mcts -->
     <defs>
      <path d="M 48.78125 52.59375 
L 48.78125 44.1875 
Q 44.96875 46.296875 41.140625 47.34375 
Q 37.3125 48.390625 33.40625 48.390625 
Q 24.65625 48.390625 19.8125 42.84375 
Q 14.984375 37.3125 14.984375 27.296875 
Q 14.984375 17.28125 19.8125 11.734375 
Q 24.65625 6.203125 33.40625 6.203125 
Q 37.3125 6.203125 41.140625 7.25 
Q 44.96875 8.296875 48.78125 10.40625 
L 48.78125 2.09375 
Q 45.015625 0.34375 40.984375 -0.53125 
Q 36.96875 -1.421875 32.421875 -1.421875 
Q 20.0625 -1.421875 12.78125 6.34375 
Q 5.515625 14.109375 5.515625 27.296875 
Q 5.515625 40.671875 12.859375 48.328125 
Q 20.21875 56 33.015625 56 
Q 37.15625 56 41.109375 55.140625 
Q 45.0625 54.296875 48.78125 52.59375 
z
" id="DejaVuSans-99"/>
     </defs>
     <g transform="translate(794.316937 255.29)scale(0.1 -0.1)">
      <use xlink:href="#DejaVuSans-109"/>
      <use x="97.412109" xlink:href="#DejaVuSans-99"/>
      <use x="152.392578" xlink:href="#DejaVuSans-116"/>
      <use x="191.601562" xlink:href="#DejaVuSans-115"/>
     </g>
    </g>
   </g>
  </g>
 </g>
 <defs>
  <clipPath id="p62fd1a8f74">
   <rect height="377.96" width="690.505" x="33.775" y="26.16"/>
  </clipPath>
 </defs>
</svg>
