<?xml version="1.0" encoding="utf-8" standalone="no"?>
<!DOCTYPE svg PUBLIC "-//W3C//DTD SVG 1.1//EN"
  "http://www.w3.org/Graphics/SVG/1.1/DTD/svg11.dtd">
<!-- Created with matplotlib (https://matplotlib.org/) -->
<svg height="432pt" version="1.1" viewBox="0 0 864 432" width="864pt" xmlns="http://www.w3.org/2000/svg" xmlns:xlink="http://www.w3.org/1999/xlink">
 <defs>
  <style type="text/css">
*{stroke-linecap:butt;stroke-linejoin:round;}
  </style>
 </defs>
 <g id="figure_1">
  <g id="patch_1">
   <path d="M 0 432 
L 864 432 
L 864 0 
L 0 0 
z
" style="fill:#ffffff;"/>
  </g>
  <g id="axes_1">
   <g id="patch_2">
    <path d="M 42.1 404.12 
L 724.28 404.12 
L 724.28 26.52 
L 42.1 26.52 
z
" style="fill:#ffffff;"/>
   </g>
   <g id="matplotlib.axis_1">
    <g id="xtick_1">
     <g id="line2d_1">
      <defs>
       <path d="M 0 0 
L 0 3.5 
" id="m0ce5a76e4d" style="stroke:#000000;stroke-width:0.8;"/>
      </defs>
      <g>
       <use style="stroke:#000000;stroke-width:0.8;" x="42.1" xlink:href="#m0ce5a76e4d" y="404.12"/>
      </g>
     </g>
     <g id="text_1">
      <!-- 0 -->
      <defs>
       <path d="M 31.78125 66.40625 
Q 24.171875 66.40625 20.328125 58.90625 
Q 16.5 51.421875 16.5 36.375 
Q 16.5 21.390625 20.328125 13.890625 
Q 24.171875 6.390625 31.78125 6.390625 
Q 39.453125 6.390625 43.28125 13.890625 
Q 47.125 21.390625 47.125 36.375 
Q 47.125 51.421875 43.28125 58.90625 
Q 39.453125 66.40625 31.78125 66.40625 
z
M 31.78125 74.21875 
Q 44.046875 74.21875 50.515625 64.515625 
Q 56.984375 54.828125 56.984375 36.375 
Q 56.984375 17.96875 50.515625 8.265625 
Q 44.046875 -1.421875 31.78125 -1.421875 
Q 19.53125 -1.421875 13.0625 8.265625 
Q 6.59375 17.96875 6.59375 36.375 
Q 6.59375 54.828125 13.0625 64.515625 
Q 19.53125 74.21875 31.78125 74.21875 
z
" id="DejaVuSans-48"/>
      </defs>
      <g transform="translate(38.91875 418.718437)scale(0.1 -0.1)">
       <use xlink:href="#DejaVuSans-48"/>
      </g>
     </g>
    </g>
    <g id="xtick_2">
     <g id="line2d_2">
      <g>
       <use style="stroke:#000000;stroke-width:0.8;" x="179.914141" xlink:href="#m0ce5a76e4d" y="404.12"/>
      </g>
     </g>
     <g id="text_2">
      <!-- 20 -->
      <defs>
       <path d="M 19.1875 8.296875 
L 53.609375 8.296875 
L 53.609375 0 
L 7.328125 0 
L 7.328125 8.296875 
Q 12.9375 14.109375 22.625 23.890625 
Q 32.328125 33.6875 34.8125 36.53125 
Q 39.546875 41.84375 41.421875 45.53125 
Q 43.3125 49.21875 43.3125 52.78125 
Q 43.3125 58.59375 39.234375 62.25 
Q 35.15625 65.921875 28.609375 65.921875 
Q 23.96875 65.921875 18.8125 64.3125 
Q 13.671875 62.703125 7.8125 59.421875 
L 7.8125 69.390625 
Q 13.765625 71.78125 18.9375 73 
Q 24.125 74.21875 28.421875 74.21875 
Q 39.75 74.21875 46.484375 68.546875 
Q 53.21875 62.890625 53.21875 53.421875 
Q 53.21875 48.921875 51.53125 44.890625 
Q 49.859375 40.875 45.40625 35.40625 
Q 44.1875 33.984375 37.640625 27.21875 
Q 31.109375 20.453125 19.1875 8.296875 
z
" id="DejaVuSans-50"/>
      </defs>
      <g transform="translate(173.551641 418.718437)scale(0.1 -0.1)">
       <use xlink:href="#DejaVuSans-50"/>
       <use x="63.623047" xlink:href="#DejaVuSans-48"/>
      </g>
     </g>
    </g>
    <g id="xtick_3">
     <g id="line2d_3">
      <g>
       <use style="stroke:#000000;stroke-width:0.8;" x="317.728283" xlink:href="#m0ce5a76e4d" y="404.12"/>
      </g>
     </g>
     <g id="text_3">
      <!-- 40 -->
      <defs>
       <path d="M 37.796875 64.3125 
L 12.890625 25.390625 
L 37.796875 25.390625 
z
M 35.203125 72.90625 
L 47.609375 72.90625 
L 47.609375 25.390625 
L 58.015625 25.390625 
L 58.015625 17.1875 
L 47.609375 17.1875 
L 47.609375 0 
L 37.796875 0 
L 37.796875 17.1875 
L 4.890625 17.1875 
L 4.890625 26.703125 
z
" id="DejaVuSans-52"/>
      </defs>
      <g transform="translate(311.365783 418.718437)scale(0.1 -0.1)">
       <use xlink:href="#DejaVuSans-52"/>
       <use x="63.623047" xlink:href="#DejaVuSans-48"/>
      </g>
     </g>
    </g>
    <g id="xtick_4">
     <g id="line2d_4">
      <g>
       <use style="stroke:#000000;stroke-width:0.8;" x="455.542424" xlink:href="#m0ce5a76e4d" y="404.12"/>
      </g>
     </g>
     <g id="text_4">
      <!-- 60 -->
      <defs>
       <path d="M 33.015625 40.375 
Q 26.375 40.375 22.484375 35.828125 
Q 18.609375 31.296875 18.609375 23.390625 
Q 18.609375 15.53125 22.484375 10.953125 
Q 26.375 6.390625 33.015625 6.390625 
Q 39.65625 6.390625 43.53125 10.953125 
Q 47.40625 15.53125 47.40625 23.390625 
Q 47.40625 31.296875 43.53125 35.828125 
Q 39.65625 40.375 33.015625 40.375 
z
M 52.59375 71.296875 
L 52.59375 62.3125 
Q 48.875 64.0625 45.09375 64.984375 
Q 41.3125 65.921875 37.59375 65.921875 
Q 27.828125 65.921875 22.671875 59.328125 
Q 17.53125 52.734375 16.796875 39.40625 
Q 19.671875 43.65625 24.015625 45.921875 
Q 28.375 48.1875 33.59375 48.1875 
Q 44.578125 48.1875 50.953125 41.515625 
Q 57.328125 34.859375 57.328125 23.390625 
Q 57.328125 12.15625 50.6875 5.359375 
Q 44.046875 -1.421875 33.015625 -1.421875 
Q 20.359375 -1.421875 13.671875 8.265625 
Q 6.984375 17.96875 6.984375 36.375 
Q 6.984375 53.65625 15.1875 63.9375 
Q 23.390625 74.21875 37.203125 74.21875 
Q 40.921875 74.21875 44.703125 73.484375 
Q 48.484375 72.75 52.59375 71.296875 
z
" id="DejaVuSans-54"/>
      </defs>
      <g transform="translate(449.179924 418.718437)scale(0.1 -0.1)">
       <use xlink:href="#DejaVuSans-54"/>
       <use x="63.623047" xlink:href="#DejaVuSans-48"/>
      </g>
     </g>
    </g>
    <g id="xtick_5">
     <g id="line2d_5">
      <g>
       <use style="stroke:#000000;stroke-width:0.8;" x="593.356566" xlink:href="#m0ce5a76e4d" y="404.12"/>
      </g>
     </g>
     <g id="text_5">
      <!-- 80 -->
      <defs>
       <path d="M 31.78125 34.625 
Q 24.75 34.625 20.71875 30.859375 
Q 16.703125 27.09375 16.703125 20.515625 
Q 16.703125 13.921875 20.71875 10.15625 
Q 24.75 6.390625 31.78125 6.390625 
Q 38.8125 6.390625 42.859375 10.171875 
Q 46.921875 13.96875 46.921875 20.515625 
Q 46.921875 27.09375 42.890625 30.859375 
Q 38.875 34.625 31.78125 34.625 
z
M 21.921875 38.8125 
Q 15.578125 40.375 12.03125 44.71875 
Q 8.5 49.078125 8.5 55.328125 
Q 8.5 64.0625 14.71875 69.140625 
Q 20.953125 74.21875 31.78125 74.21875 
Q 42.671875 74.21875 48.875 69.140625 
Q 55.078125 64.0625 55.078125 55.328125 
Q 55.078125 49.078125 51.53125 44.71875 
Q 48 40.375 41.703125 38.8125 
Q 48.828125 37.15625 52.796875 32.3125 
Q 56.78125 27.484375 56.78125 20.515625 
Q 56.78125 9.90625 50.3125 4.234375 
Q 43.84375 -1.421875 31.78125 -1.421875 
Q 19.734375 -1.421875 13.25 4.234375 
Q 6.78125 9.90625 6.78125 20.515625 
Q 6.78125 27.484375 10.78125 32.3125 
Q 14.796875 37.15625 21.921875 38.8125 
z
M 18.3125 54.390625 
Q 18.3125 48.734375 21.84375 45.5625 
Q 25.390625 42.390625 31.78125 42.390625 
Q 38.140625 42.390625 41.71875 45.5625 
Q 45.3125 48.734375 45.3125 54.390625 
Q 45.3125 60.0625 41.71875 63.234375 
Q 38.140625 66.40625 31.78125 66.40625 
Q 25.390625 66.40625 21.84375 63.234375 
Q 18.3125 60.0625 18.3125 54.390625 
z
" id="DejaVuSans-56"/>
      </defs>
      <g transform="translate(586.994066 418.718437)scale(0.1 -0.1)">
       <use xlink:href="#DejaVuSans-56"/>
       <use x="63.623047" xlink:href="#DejaVuSans-48"/>
      </g>
     </g>
    </g>
   </g>
   <g id="matplotlib.axis_2">
    <g id="ytick_1">
     <g id="line2d_6">
      <defs>
       <path d="M 0 0 
L -3.5 0 
" id="mb6bd6a7944" style="stroke:#000000;stroke-width:0.8;"/>
      </defs>
      <g>
       <use style="stroke:#000000;stroke-width:0.8;" x="42.1" xlink:href="#mb6bd6a7944" y="365.698651"/>
      </g>
     </g>
     <g id="text_6">
      <!-- −2.0 -->
      <defs>
       <path d="M 10.59375 35.5 
L 73.1875 35.5 
L 73.1875 27.203125 
L 10.59375 27.203125 
z
" id="DejaVuSans-8722"/>
       <path d="M 10.6875 12.40625 
L 21 12.40625 
L 21 0 
L 10.6875 0 
z
" id="DejaVuSans-46"/>
      </defs>
      <g transform="translate(10.817188 369.49787)scale(0.1 -0.1)">
       <use xlink:href="#DejaVuSans-8722"/>
       <use x="83.789062" xlink:href="#DejaVuSans-50"/>
       <use x="147.412109" xlink:href="#DejaVuSans-46"/>
       <use x="179.199219" xlink:href="#DejaVuSans-48"/>
      </g>
     </g>
    </g>
    <g id="ytick_2">
     <g id="line2d_7">
      <g>
       <use style="stroke:#000000;stroke-width:0.8;" x="42.1" xlink:href="#mb6bd6a7944" y="302.34516"/>
      </g>
     </g>
     <g id="text_7">
      <!-- −1.5 -->
      <defs>
       <path d="M 12.40625 8.296875 
L 28.515625 8.296875 
L 28.515625 63.921875 
L 10.984375 60.40625 
L 10.984375 69.390625 
L 28.421875 72.90625 
L 38.28125 72.90625 
L 38.28125 8.296875 
L 54.390625 8.296875 
L 54.390625 0 
L 12.40625 0 
z
" id="DejaVuSans-49"/>
       <path d="M 10.796875 72.90625 
L 49.515625 72.90625 
L 49.515625 64.59375 
L 19.828125 64.59375 
L 19.828125 46.734375 
Q 21.96875 47.46875 24.109375 47.828125 
Q 26.265625 48.1875 28.421875 48.1875 
Q 40.625 48.1875 47.75 41.5 
Q 54.890625 34.8125 54.890625 23.390625 
Q 54.890625 11.625 47.5625 5.09375 
Q 40.234375 -1.421875 26.90625 -1.421875 
Q 22.3125 -1.421875 17.546875 -0.640625 
Q 12.796875 0.140625 7.71875 1.703125 
L 7.71875 11.625 
Q 12.109375 9.234375 16.796875 8.0625 
Q 21.484375 6.890625 26.703125 6.890625 
Q 35.15625 6.890625 40.078125 11.328125 
Q 45.015625 15.765625 45.015625 23.390625 
Q 45.015625 31 40.078125 35.4375 
Q 35.15625 39.890625 26.703125 39.890625 
Q 22.75 39.890625 18.8125 39.015625 
Q 14.890625 38.140625 10.796875 36.28125 
z
" id="DejaVuSans-53"/>
      </defs>
      <g transform="translate(10.817188 306.144379)scale(0.1 -0.1)">
       <use xlink:href="#DejaVuSans-8722"/>
       <use x="83.789062" xlink:href="#DejaVuSans-49"/>
       <use x="147.412109" xlink:href="#DejaVuSans-46"/>
       <use x="179.199219" xlink:href="#DejaVuSans-53"/>
      </g>
     </g>
    </g>
    <g id="ytick_3">
     <g id="line2d_8">
      <g>
       <use style="stroke:#000000;stroke-width:0.8;" x="42.1" xlink:href="#mb6bd6a7944" y="238.991669"/>
      </g>
     </g>
     <g id="text_8">
      <!-- −1.0 -->
      <g transform="translate(10.817188 242.790888)scale(0.1 -0.1)">
       <use xlink:href="#DejaVuSans-8722"/>
       <use x="83.789062" xlink:href="#DejaVuSans-49"/>
       <use x="147.412109" xlink:href="#DejaVuSans-46"/>
       <use x="179.199219" xlink:href="#DejaVuSans-48"/>
      </g>
     </g>
    </g>
    <g id="ytick_4">
     <g id="line2d_9">
      <g>
       <use style="stroke:#000000;stroke-width:0.8;" x="42.1" xlink:href="#mb6bd6a7944" y="175.638178"/>
      </g>
     </g>
     <g id="text_9">
      <!-- −0.5 -->
      <g transform="translate(10.817188 179.437397)scale(0.1 -0.1)">
       <use xlink:href="#DejaVuSans-8722"/>
       <use x="83.789062" xlink:href="#DejaVuSans-48"/>
       <use x="147.412109" xlink:href="#DejaVuSans-46"/>
       <use x="179.199219" xlink:href="#DejaVuSans-53"/>
      </g>
     </g>
    </g>
    <g id="ytick_5">
     <g id="line2d_10">
      <g>
       <use style="stroke:#000000;stroke-width:0.8;" x="42.1" xlink:href="#mb6bd6a7944" y="112.284687"/>
      </g>
     </g>
     <g id="text_10">
      <!-- 0.0 -->
      <g transform="translate(19.196875 116.083906)scale(0.1 -0.1)">
       <use xlink:href="#DejaVuSans-48"/>
       <use x="63.623047" xlink:href="#DejaVuSans-46"/>
       <use x="95.410156" xlink:href="#DejaVuSans-48"/>
      </g>
     </g>
    </g>
    <g id="ytick_6">
     <g id="line2d_11">
      <g>
       <use style="stroke:#000000;stroke-width:0.8;" x="42.1" xlink:href="#mb6bd6a7944" y="48.931196"/>
      </g>
     </g>
     <g id="text_11">
      <!-- 0.5 -->
      <g transform="translate(19.196875 52.730414)scale(0.1 -0.1)">
       <use xlink:href="#DejaVuSans-48"/>
       <use x="63.623047" xlink:href="#DejaVuSans-46"/>
       <use x="95.410156" xlink:href="#DejaVuSans-53"/>
      </g>
     </g>
    </g>
   </g>
   <g id="line2d_12">
    <path clip-path="url(#pd3240ff594)" d="M 104.116364 169.117633 
L 111.007071 169.117633 
L 117.897778 142.769656 
L 124.788485 149.781434 
L 131.679192 165.426508 
L 138.569899 207.459217 
L 145.460606 184.071304 
L 152.351313 132.811305 
L 159.24202 84.735635 
L 166.132727 123.31186 
L 173.023434 136.61384 
L 179.914141 148.223883 
L 186.804848 179.170125 
L 193.695556 212.148021 
L 200.586263 190.547672 
L 207.47697 135.024335 
L 214.367677 97.066315 
L 221.258384 151.971447 
L 228.149091 194.909591 
L 235.039798 216.994229 
L 241.930505 216.994229 
L 248.821212 236.869688 
L 255.711919 235.098806 
L 262.602626 155.380232 
L 269.493333 202.120911 
L 276.38404 219.686228 
L 283.274747 296.420016 
L 290.165455 263.599522 
L 297.056162 251.171731 
L 303.946869 261.907586 
L 310.837576 270.690245 
L 317.728283 277.162762 
L 324.61899 280.965297 
L 331.509697 365.663995 
L 338.400404 356.881336 
L 345.291111 365.663995 
L 352.181818 340.808412 
L 359.072525 354.728597 
L 365.963232 363.511255 
L 372.853939 323.600039 
L 379.744646 290.779546 
L 386.635354 241.979639 
L 393.526061 209.001743 
L 400.416768 196.85244 
L 407.307475 191.714914 
L 414.198182 213.69352 
L 421.088889 227.456303 
L 427.979596 213.536118 
L 434.870303 222.318777 
L 441.76101 255.139271 
L 448.651717 307.017475 
L 455.542424 355.817382 
L 462.433131 355.817382 
L 469.323838 363.891996 
L 476.214545 331.071503 
L 483.105253 333.130731 
L 489.99596 331.071503 
L 496.886667 354.459415 
L 503.777374 346.494505 
L 510.668081 342.849372 
L 517.558788 347.829496 
L 524.449495 342.69197 
L 531.340202 375.512464 
L 538.230909 367.437849 
L 545.121616 386.956364 
L 552.012323 372.715385 
L 558.90303 365.342032 
L 565.793737 341.954119 
L 572.684444 325.881195 
L 579.575152 311.96101 
L 586.465859 299.533219 
L 593.356566 233.892232 
L 600.247273 163.113718 
L 607.13798 110.957026 
L 614.028687 62.263151 
L 620.919394 43.683636 
L 627.810101 45.825952 
L 634.700808 57.435995 
L 641.591515 59.389192 
L 648.482222 88.564552 
L 655.372929 101.149746 
L 662.263636 139.107766 
L 669.154343 202.596013 
L 676.045051 249.336692 
L 682.935758 307.687413 
L 689.826465 354.428092 
L 696.717172 328.897864 
L 703.607879 317.28782 
L 710.498586 315.334624 
L 717.389293 286.159263 
L 724.28 291.139387 
" style="fill:none;stroke:#1f77b4;stroke-linecap:square;stroke-width:1.5;"/>
   </g>
   <g id="line2d_13">
    <path clip-path="url(#pd3240ff594)" d="M 104.116364 112.284687 
L 111.007071 112.284687 
L 117.897778 112.284687 
L 124.788485 112.284687 
L 131.679192 112.284687 
L 138.569899 112.284687 
L 145.460606 112.284687 
L 152.351313 112.284687 
L 159.24202 112.284687 
L 166.132727 112.284687 
L 173.023434 112.284687 
L 179.914141 112.284687 
L 186.804848 112.284687 
L 193.695556 112.284687 
L 200.586263 112.284687 
L 207.47697 112.284687 
L 214.367677 112.284687 
L 221.258384 112.284687 
L 228.149091 112.284687 
L 235.039798 112.284687 
L 241.930505 112.284687 
L 248.821212 112.284687 
L 255.711919 112.284687 
L 262.602626 112.284687 
L 269.493333 112.284687 
L 276.38404 112.284687 
L 283.274747 112.284687 
L 290.165455 112.284687 
L 297.056162 112.284687 
L 303.946869 112.284687 
L 310.837576 112.284687 
L 317.728283 112.284687 
L 324.61899 112.284687 
L 331.509697 112.284687 
L 338.400404 112.284687 
L 345.291111 112.284687 
L 352.181818 112.284687 
L 359.072525 112.284687 
L 365.963232 112.284687 
L 372.853939 112.284687 
L 379.744646 112.284687 
L 386.635354 112.284687 
L 393.526061 112.284687 
L 400.416768 112.284687 
L 407.307475 112.284687 
L 414.198182 112.284687 
L 421.088889 112.284687 
L 427.979596 112.284687 
L 434.870303 112.284687 
L 441.76101 112.284687 
L 448.651717 112.284687 
L 455.542424 112.284687 
L 462.433131 112.284687 
L 469.323838 112.284687 
L 476.214545 112.284687 
L 483.105253 112.284687 
L 489.99596 112.284687 
L 496.886667 112.284687 
L 503.777374 112.284687 
L 510.668081 112.284687 
L 517.558788 112.284687 
L 524.449495 112.284687 
L 531.340202 112.284687 
L 538.230909 112.284687 
L 545.121616 112.284687 
L 552.012323 112.284687 
L 558.90303 112.284687 
L 565.793737 112.284687 
L 572.684444 112.284687 
L 579.575152 112.284687 
L 586.465859 112.284687 
L 593.356566 112.284687 
L 600.247273 112.284687 
L 607.13798 112.284687 
L 614.028687 112.284687 
L 620.919394 112.284687 
L 627.810101 112.284687 
L 634.700808 112.284687 
L 641.591515 112.284687 
L 648.482222 112.284687 
L 655.372929 112.284687 
L 662.263636 112.284687 
L 669.154343 112.284687 
L 676.045051 112.284687 
L 682.935758 112.284687 
L 689.826465 112.284687 
L 696.717172 112.284687 
L 703.607879 112.284687 
L 710.498586 112.284687 
L 717.389293 112.284687 
L 724.28 112.284687 
" style="fill:none;stroke:#ff7f0e;stroke-linecap:square;stroke-width:1.5;"/>
   </g>
   <g id="line2d_14">
    <path clip-path="url(#pd3240ff594)" d="M 104.116364 221.662442 
L 111.007071 221.662442 
L 117.897778 221.662442 
L 124.788485 205.78906 
L 131.679192 218.60675 
L 138.569899 217.165655 
L 145.460606 170.257151 
L 152.351313 127.77981 
L 159.24202 94.959317 
L 166.132727 117.305216 
L 173.023434 96.294308 
L 179.914141 107.904352 
L 186.804848 138.850594 
L 193.695556 187.701871 
L 200.586263 174.884181 
L 207.47697 175.652337 
L 214.367677 199.172929 
L 221.258384 225.776888 
L 228.149091 255.769997 
L 235.039798 267.736985 
L 241.930505 255.309193 
L 248.821212 275.184652 
L 255.711919 273.413771 
L 262.602626 240.435875 
L 269.493333 287.176553 
L 276.38404 275.56651 
L 283.274747 325.952321 
L 290.165455 303.867683 
L 297.056162 297.912409 
L 303.946869 308.648264 
L 310.837576 317.430923 
L 317.728283 302.303092 
L 324.61899 279.75765 
L 331.509697 301.842288 
L 338.400404 293.05963 
L 345.291111 285.968907 
L 352.181818 261.113324 
L 359.072525 254.640807 
L 365.963232 238.322794 
L 372.853939 215.976895 
L 379.744646 194.766445 
L 386.635354 191.604721 
L 393.526061 184.974802 
L 400.416768 173.443704 
L 407.307475 164.661045 
L 414.198182 202.513033 
L 421.088889 216.275816 
L 427.979596 184.790314 
L 434.870303 218.673644 
L 441.76101 228.791294 
L 448.651717 231.751358 
L 455.542424 232.796389 
L 462.433131 232.796389 
L 469.323838 234.525831 
L 476.214545 205.35047 
L 483.105253 174.589205 
L 489.99596 172.529976 
L 496.886667 203.8828 
L 503.777374 178.352572 
L 510.668081 147.024472 
L 517.558788 169.794179 
L 524.449495 175.945902 
L 531.340202 199.983737 
L 538.230909 204.726812 
L 545.121616 213.509471 
L 552.012323 199.268492 
L 558.90303 179.467348 
L 565.793737 186.072544 
L 572.684444 187.564938 
L 579.575152 206.465247 
L 586.465859 213.555969 
L 593.356566 207.083452 
L 600.247273 191.828276 
L 607.13798 195.194921 
L 614.028687 203.977579 
L 620.919394 247.393919 
L 627.810101 261.964026 
L 634.700808 259.653884 
L 641.591515 252.824422 
L 648.482222 266.126402 
L 655.372929 269.928936 
L 662.263636 247.226093 
L 669.154343 263.973662 
L 676.045051 263.973662 
L 682.935758 275.583706 
L 689.826465 293.149023 
L 696.717172 267.618795 
L 703.607879 307.886956 
L 710.498586 314.716418 
L 717.389293 301.414439 
L 724.28 310.039695 
" style="fill:none;stroke:#2ca02c;stroke-linecap:square;stroke-width:1.5;"/>
   </g>
   <g id="line2d_15">
    <path clip-path="url(#pd3240ff594)" d="M 104.116364 254.872834 
L 111.007071 254.872834 
L 117.897778 254.872834 
L 124.788485 254.872834 
L 131.679192 264.863139 
L 138.569899 268.937828 
L 145.460606 236.767256 
L 152.351313 203.072575 
L 159.24202 167.424697 
L 166.132727 184.400573 
L 173.023434 197.702553 
L 179.914141 204.17507 
L 186.804848 235.121312 
L 193.695556 268.099208 
L 200.586263 258.108902 
L 207.47697 210.160578 
L 214.367677 198.550534 
L 221.258384 227.10769 
L 228.149091 257.618042 
L 235.039798 272.127668 
L 241.930505 245.779691 
L 248.821212 270.792676 
L 255.711919 269.021795 
L 262.602626 236.043899 
L 269.493333 282.784578 
L 276.38404 292.774883 
L 283.274747 343.160694 
L 290.165455 310.3402 
L 297.056162 297.912409 
L 303.946869 308.648264 
L 310.837576 317.430923 
L 317.728283 323.903441 
L 324.61899 327.705975 
L 331.509697 365.663995 
L 338.400404 356.881336 
L 345.291111 341.946954 
L 352.181818 300.343802 
L 359.072525 295.930513 
L 365.963232 295.930513 
L 372.853939 269.321276 
L 379.744646 238.192718 
L 386.635354 213.430647 
L 393.526061 192.880542 
L 400.416768 180.731239 
L 407.307475 175.593713 
L 414.198182 221.28936 
L 421.088889 251.799712 
L 427.979596 256.213001 
L 434.870303 273.778319 
L 441.76101 293.296833 
L 448.651717 343.483101 
L 455.542424 368.245173 
L 462.433131 355.817382 
L 469.323838 363.891996 
L 476.214545 331.071503 
L 483.105253 322.394875 
L 489.99596 309.599792 
L 496.886667 315.422387 
L 503.777374 289.892159 
L 510.668081 275.511171 
L 517.558788 280.491295 
L 524.449495 275.353769 
L 531.340202 308.174262 
L 538.230909 300.099648 
L 545.121616 319.618162 
L 552.012323 302.192854 
L 558.90303 301.910224 
L 565.793737 296.087629 
L 572.684444 297.580022 
L 579.575152 294.395693 
L 586.465859 281.967901 
L 593.356566 263.067593 
L 600.247273 239.029758 
L 607.13798 233.613744 
L 614.028687 231.660547 
L 620.919394 264.959237 
L 627.810101 270.746685 
L 634.700808 282.356728 
L 641.591515 284.309925 
L 648.482222 313.485286 
L 655.372929 320.932953 
L 662.263636 312.150294 
L 669.154343 328.897864 
L 676.045051 328.897864 
L 682.935758 340.507907 
L 689.826465 349.290566 
L 696.717172 323.760338 
L 703.607879 350.108314 
L 710.498586 348.155117 
L 717.389293 318.979756 
L 724.28 329.097406 
" style="fill:none;stroke:#d62728;stroke-linecap:square;stroke-width:1.5;"/>
   </g>
   <g id="line2d_16">
    <path clip-path="url(#pd3240ff594)" d="M 104.116364 249.117102 
L 111.007071 228.7244 
L 117.897778 206.021557 
L 124.788485 206.021557 
L 131.679192 225.929969 
L 138.569899 230.004658 
L 145.460606 197.834087 
L 152.351313 161.829264 
L 159.24202 135.838232 
L 166.132727 176.724599 
L 173.023434 192.336719 
L 179.914141 215.556806 
L 186.804848 260.423233 
L 193.695556 284.61847 
L 200.586263 254.235463 
L 207.47697 225.060102 
L 214.367677 219.922576 
L 221.258384 250.789873 
L 228.149091 271.643378 
L 235.039798 267.38004 
L 241.930505 241.032064 
L 248.821212 269.690181 
L 255.711919 276.701959 
L 262.602626 238.586537 
L 269.493333 280.189689 
L 276.38404 257.486846 
L 283.274747 287.479955 
L 290.165455 216.083236 
L 297.056162 203.655445 
L 303.946869 214.3913 
L 310.837576 223.173959 
L 317.728283 229.646476 
L 324.61899 233.449011 
L 331.509697 285.327215 
L 338.400404 290.464742 
L 345.291111 286.051452 
L 352.181818 275.116054 
L 359.072525 327.612464 
L 365.963232 336.395123 
L 372.853939 311.739083 
L 379.744646 281.356075 
L 386.635354 246.797148 
L 393.526061 223.251833 
L 400.416768 204.630012 
L 407.307475 199.492486 
L 414.198182 248.587225 
L 421.088889 262.350008 
L 427.979596 226.829474 
L 434.870303 226.829474 
L 441.76101 235.612133 
L 448.651717 276.270193 
L 455.542424 310.82912 
L 462.433131 301.39654 
L 469.323838 315.943671 
L 476.214545 283.123178 
L 483.105253 278.709889 
L 489.99596 270.178143 
L 496.886667 304.430549 
L 503.777374 298.77578 
L 510.668081 300.268173 
L 517.558788 314.030956 
L 524.449495 308.89343 
L 531.340202 341.713924 
L 538.230909 327.166792 
L 545.121616 337.902647 
L 552.012323 323.661668 
L 558.90303 312.024978 
L 565.793737 299.37292 
L 572.684444 289.772513 
L 579.575152 279.497461 
L 586.465859 267.06967 
L 593.356566 248.169361 
L 600.247273 224.131526 
L 607.13798 225.188029 
L 614.028687 232.017491 
L 620.919394 257.868514 
L 627.810101 270.746685 
L 634.700808 282.356728 
L 641.591515 284.309925 
L 648.482222 313.485286 
L 655.372929 326.070479 
L 662.263636 317.28782 
L 669.154343 334.03539 
L 676.045051 334.03539 
L 682.935758 345.645433 
L 689.826465 354.428092 
L 696.717172 328.897864 
L 703.607879 355.24584 
L 710.498586 353.292643 
L 717.389293 324.117282 
L 724.28 329.097406 
" style="fill:none;stroke:#9467bd;stroke-linecap:square;stroke-width:1.5;"/>
   </g>
   <g id="line2d_17">
    <path clip-path="url(#pd3240ff594)" d="M 104.116364 228.463039 
L 111.007071 186.859887 
L 117.897778 178.077228 
L 124.788485 174.247118 
L 131.679192 179.156337 
L 138.569899 204.831375 
L 145.460606 168.397465 
L 152.351313 135.220027 
L 159.24202 130.239903 
L 166.132727 180.426171 
L 173.023434 198.865676 
L 179.914141 191.418009 
L 186.804848 226.009384 
L 193.695556 253.849754 
L 200.586263 239.340128 
L 207.47697 230.557469 
L 214.367677 241.293324 
L 221.258384 280.94328 
L 228.149091 270.668228 
L 235.039798 254.794846 
L 241.930505 216.836827 
L 248.821212 241.849812 
L 255.711919 224.823754 
L 262.602626 188.200726 
L 269.493333 234.941404 
L 276.38404 168.457946 
L 283.274747 200.761196 
L 290.165455 135.441003 
L 297.056162 102.369597 
L 303.946869 90.402609 
L 310.837576 74.529227 
L 317.728283 84.646877 
L 324.61899 92.968732 
L 331.509697 118.109062 
L 338.400404 112.971536 
L 345.291111 156.234908 
L 352.181818 148.944643 
L 359.072525 188.273804 
L 365.963232 224.172595 
L 372.853939 233.312199 
L 379.744646 249.18558 
L 386.635354 248.618745 
L 393.526061 260.689592 
L 400.416768 275.278163 
L 407.307475 289.198348 
L 414.198182 319.141865 
L 421.088889 340.869559 
L 427.979596 316.474779 
L 434.870303 334.040097 
L 441.76101 318.912265 
L 448.651717 319.636502 
L 455.542424 334.123522 
L 462.433131 291.027976 
L 469.323838 282.355021 
L 476.214545 239.259476 
L 483.105253 236.181178 
L 489.99596 209.465909 
L 496.886667 250.41914 
L 503.777374 242.454229 
L 510.668081 247.981654 
L 517.558788 280.07791 
L 524.449495 254.269194 
L 531.340202 314.930057 
L 538.230909 306.037695 
L 545.121616 344.61392 
L 552.012323 344.293125 
L 558.90303 333.735444 
L 565.793737 310.347531 
L 572.684444 294.274607 
L 579.575152 292.782213 
L 586.465859 252.514052 
L 593.356566 239.029758 
L 600.247273 187.151553 
L 607.13798 180.243146 
L 614.028687 164.369764 
L 620.919394 149.435383 
L 627.810101 158.40716 
L 634.700808 144.486975 
L 641.591515 141.302646 
L 648.482222 165.34048 
L 655.372929 200.628518 
L 662.263636 203.455902 
L 669.154343 242.906315 
L 676.045051 256.8265 
L 682.935758 254.516358 
L 689.826465 241.02573 
L 696.717172 231.368883 
L 703.607879 292.029746 
L 710.498586 303.996734 
L 717.389293 274.821374 
L 724.28 279.801498 
" style="fill:none;stroke:#8c564b;stroke-linecap:square;stroke-width:1.5;"/>
   </g>
   <g id="patch_3">
    <path d="M 42.1 404.12 
L 42.1 26.52 
" style="fill:none;stroke:#000000;stroke-linecap:square;stroke-linejoin:miter;stroke-width:0.8;"/>
   </g>
   <g id="patch_4">
    <path d="M 724.28 404.12 
L 724.28 26.52 
" style="fill:none;stroke:#000000;stroke-linecap:square;stroke-linejoin:miter;stroke-width:0.8;"/>
   </g>
   <g id="patch_5">
    <path d="M 42.1 404.12 
L 724.28 404.12 
" style="fill:none;stroke:#000000;stroke-linecap:square;stroke-linejoin:miter;stroke-width:0.8;"/>
   </g>
   <g id="patch_6">
    <path d="M 42.1 26.52 
L 724.28 26.52 
" style="fill:none;stroke:#000000;stroke-linecap:square;stroke-linejoin:miter;stroke-width:0.8;"/>
   </g>
   <g id="text_12">
    <!-- gridworld_0: episode duration in steps log-relative to `htm_0`, MA=10 -->
    <defs>
     <path d="M 45.40625 27.984375 
Q 45.40625 37.75 41.375 43.109375 
Q 37.359375 48.484375 30.078125 48.484375 
Q 22.859375 48.484375 18.828125 43.109375 
Q 14.796875 37.75 14.796875 27.984375 
Q 14.796875 18.265625 18.828125 12.890625 
Q 22.859375 7.515625 30.078125 7.515625 
Q 37.359375 7.515625 41.375 12.890625 
Q 45.40625 18.265625 45.40625 27.984375 
z
M 54.390625 6.78125 
Q 54.390625 -7.171875 48.1875 -13.984375 
Q 42 -20.796875 29.203125 -20.796875 
Q 24.46875 -20.796875 20.265625 -20.09375 
Q 16.0625 -19.390625 12.109375 -17.921875 
L 12.109375 -9.1875 
Q 16.0625 -11.328125 19.921875 -12.34375 
Q 23.78125 -13.375 27.78125 -13.375 
Q 36.625 -13.375 41.015625 -8.765625 
Q 45.40625 -4.15625 45.40625 5.171875 
L 45.40625 9.625 
Q 42.625 4.78125 38.28125 2.390625 
Q 33.9375 0 27.875 0 
Q 17.828125 0 11.671875 7.65625 
Q 5.515625 15.328125 5.515625 27.984375 
Q 5.515625 40.671875 11.671875 48.328125 
Q 17.828125 56 27.875 56 
Q 33.9375 56 38.28125 53.609375 
Q 42.625 51.21875 45.40625 46.390625 
L 45.40625 54.6875 
L 54.390625 54.6875 
z
" id="DejaVuSans-103"/>
     <path d="M 41.109375 46.296875 
Q 39.59375 47.171875 37.8125 47.578125 
Q 36.03125 48 33.890625 48 
Q 26.265625 48 22.1875 43.046875 
Q 18.109375 38.09375 18.109375 28.8125 
L 18.109375 0 
L 9.078125 0 
L 9.078125 54.6875 
L 18.109375 54.6875 
L 18.109375 46.1875 
Q 20.953125 51.171875 25.484375 53.578125 
Q 30.03125 56 36.53125 56 
Q 37.453125 56 38.578125 55.875 
Q 39.703125 55.765625 41.0625 55.515625 
z
" id="DejaVuSans-114"/>
     <path d="M 9.421875 54.6875 
L 18.40625 54.6875 
L 18.40625 0 
L 9.421875 0 
z
M 9.421875 75.984375 
L 18.40625 75.984375 
L 18.40625 64.59375 
L 9.421875 64.59375 
z
" id="DejaVuSans-105"/>
     <path d="M 45.40625 46.390625 
L 45.40625 75.984375 
L 54.390625 75.984375 
L 54.390625 0 
L 45.40625 0 
L 45.40625 8.203125 
Q 42.578125 3.328125 38.25 0.953125 
Q 33.9375 -1.421875 27.875 -1.421875 
Q 17.96875 -1.421875 11.734375 6.484375 
Q 5.515625 14.40625 5.515625 27.296875 
Q 5.515625 40.1875 11.734375 48.09375 
Q 17.96875 56 27.875 56 
Q 33.9375 56 38.25 53.625 
Q 42.578125 51.265625 45.40625 46.390625 
z
M 14.796875 27.296875 
Q 14.796875 17.390625 18.875 11.75 
Q 22.953125 6.109375 30.078125 6.109375 
Q 37.203125 6.109375 41.296875 11.75 
Q 45.40625 17.390625 45.40625 27.296875 
Q 45.40625 37.203125 41.296875 42.84375 
Q 37.203125 48.484375 30.078125 48.484375 
Q 22.953125 48.484375 18.875 42.84375 
Q 14.796875 37.203125 14.796875 27.296875 
z
" id="DejaVuSans-100"/>
     <path d="M 4.203125 54.6875 
L 13.1875 54.6875 
L 24.421875 12.015625 
L 35.59375 54.6875 
L 46.1875 54.6875 
L 57.421875 12.015625 
L 68.609375 54.6875 
L 77.59375 54.6875 
L 63.28125 0 
L 52.6875 0 
L 40.921875 44.828125 
L 29.109375 0 
L 18.5 0 
z
" id="DejaVuSans-119"/>
     <path d="M 30.609375 48.390625 
Q 23.390625 48.390625 19.1875 42.75 
Q 14.984375 37.109375 14.984375 27.296875 
Q 14.984375 17.484375 19.15625 11.84375 
Q 23.34375 6.203125 30.609375 6.203125 
Q 37.796875 6.203125 41.984375 11.859375 
Q 46.1875 17.53125 46.1875 27.296875 
Q 46.1875 37.015625 41.984375 42.703125 
Q 37.796875 48.390625 30.609375 48.390625 
z
M 30.609375 56 
Q 42.328125 56 49.015625 48.375 
Q 55.71875 40.765625 55.71875 27.296875 
Q 55.71875 13.875 49.015625 6.21875 
Q 42.328125 -1.421875 30.609375 -1.421875 
Q 18.84375 -1.421875 12.171875 6.21875 
Q 5.515625 13.875 5.515625 27.296875 
Q 5.515625 40.765625 12.171875 48.375 
Q 18.84375 56 30.609375 56 
z
" id="DejaVuSans-111"/>
     <path d="M 9.421875 75.984375 
L 18.40625 75.984375 
L 18.40625 0 
L 9.421875 0 
z
" id="DejaVuSans-108"/>
     <path d="M 50.984375 -16.609375 
L 50.984375 -23.578125 
L -0.984375 -23.578125 
L -0.984375 -16.609375 
z
" id="DejaVuSans-95"/>
     <path d="M 11.71875 12.40625 
L 22.015625 12.40625 
L 22.015625 0 
L 11.71875 0 
z
M 11.71875 51.703125 
L 22.015625 51.703125 
L 22.015625 39.3125 
L 11.71875 39.3125 
z
" id="DejaVuSans-58"/>
     <path id="DejaVuSans-32"/>
     <path d="M 56.203125 29.59375 
L 56.203125 25.203125 
L 14.890625 25.203125 
Q 15.484375 15.921875 20.484375 11.0625 
Q 25.484375 6.203125 34.421875 6.203125 
Q 39.59375 6.203125 44.453125 7.46875 
Q 49.3125 8.734375 54.109375 11.28125 
L 54.109375 2.78125 
Q 49.265625 0.734375 44.1875 -0.34375 
Q 39.109375 -1.421875 33.890625 -1.421875 
Q 20.796875 -1.421875 13.15625 6.1875 
Q 5.515625 13.8125 5.515625 26.8125 
Q 5.515625 40.234375 12.765625 48.109375 
Q 20.015625 56 32.328125 56 
Q 43.359375 56 49.78125 48.890625 
Q 56.203125 41.796875 56.203125 29.59375 
z
M 47.21875 32.234375 
Q 47.125 39.59375 43.09375 43.984375 
Q 39.0625 48.390625 32.421875 48.390625 
Q 24.90625 48.390625 20.390625 44.140625 
Q 15.875 39.890625 15.1875 32.171875 
z
" id="DejaVuSans-101"/>
     <path d="M 18.109375 8.203125 
L 18.109375 -20.796875 
L 9.078125 -20.796875 
L 9.078125 54.6875 
L 18.109375 54.6875 
L 18.109375 46.390625 
Q 20.953125 51.265625 25.265625 53.625 
Q 29.59375 56 35.59375 56 
Q 45.5625 56 51.78125 48.09375 
Q 58.015625 40.1875 58.015625 27.296875 
Q 58.015625 14.40625 51.78125 6.484375 
Q 45.5625 -1.421875 35.59375 -1.421875 
Q 29.59375 -1.421875 25.265625 0.953125 
Q 20.953125 3.328125 18.109375 8.203125 
z
M 48.6875 27.296875 
Q 48.6875 37.203125 44.609375 42.84375 
Q 40.53125 48.484375 33.40625 48.484375 
Q 26.265625 48.484375 22.1875 42.84375 
Q 18.109375 37.203125 18.109375 27.296875 
Q 18.109375 17.390625 22.1875 11.75 
Q 26.265625 6.109375 33.40625 6.109375 
Q 40.53125 6.109375 44.609375 11.75 
Q 48.6875 17.390625 48.6875 27.296875 
z
" id="DejaVuSans-112"/>
     <path d="M 44.28125 53.078125 
L 44.28125 44.578125 
Q 40.484375 46.53125 36.375 47.5 
Q 32.28125 48.484375 27.875 48.484375 
Q 21.1875 48.484375 17.84375 46.4375 
Q 14.5 44.390625 14.5 40.28125 
Q 14.5 37.15625 16.890625 35.375 
Q 19.28125 33.59375 26.515625 31.984375 
L 29.59375 31.296875 
Q 39.15625 29.25 43.1875 25.515625 
Q 47.21875 21.78125 47.21875 15.09375 
Q 47.21875 7.46875 41.1875 3.015625 
Q 35.15625 -1.421875 24.609375 -1.421875 
Q 20.21875 -1.421875 15.453125 -0.5625 
Q 10.6875 0.296875 5.421875 2 
L 5.421875 11.28125 
Q 10.40625 8.6875 15.234375 7.390625 
Q 20.0625 6.109375 24.8125 6.109375 
Q 31.15625 6.109375 34.5625 8.28125 
Q 37.984375 10.453125 37.984375 14.40625 
Q 37.984375 18.0625 35.515625 20.015625 
Q 33.0625 21.96875 24.703125 23.78125 
L 21.578125 24.515625 
Q 13.234375 26.265625 9.515625 29.90625 
Q 5.8125 33.546875 5.8125 39.890625 
Q 5.8125 47.609375 11.28125 51.796875 
Q 16.75 56 26.8125 56 
Q 31.78125 56 36.171875 55.265625 
Q 40.578125 54.546875 44.28125 53.078125 
z
" id="DejaVuSans-115"/>
     <path d="M 8.5 21.578125 
L 8.5 54.6875 
L 17.484375 54.6875 
L 17.484375 21.921875 
Q 17.484375 14.15625 20.5 10.265625 
Q 23.53125 6.390625 29.59375 6.390625 
Q 36.859375 6.390625 41.078125 11.03125 
Q 45.3125 15.671875 45.3125 23.6875 
L 45.3125 54.6875 
L 54.296875 54.6875 
L 54.296875 0 
L 45.3125 0 
L 45.3125 8.40625 
Q 42.046875 3.421875 37.71875 1 
Q 33.40625 -1.421875 27.6875 -1.421875 
Q 18.265625 -1.421875 13.375 4.4375 
Q 8.5 10.296875 8.5 21.578125 
z
M 31.109375 56 
z
" id="DejaVuSans-117"/>
     <path d="M 34.28125 27.484375 
Q 23.390625 27.484375 19.1875 25 
Q 14.984375 22.515625 14.984375 16.5 
Q 14.984375 11.71875 18.140625 8.90625 
Q 21.296875 6.109375 26.703125 6.109375 
Q 34.1875 6.109375 38.703125 11.40625 
Q 43.21875 16.703125 43.21875 25.484375 
L 43.21875 27.484375 
z
M 52.203125 31.203125 
L 52.203125 0 
L 43.21875 0 
L 43.21875 8.296875 
Q 40.140625 3.328125 35.546875 0.953125 
Q 30.953125 -1.421875 24.3125 -1.421875 
Q 15.921875 -1.421875 10.953125 3.296875 
Q 6 8.015625 6 15.921875 
Q 6 25.140625 12.171875 29.828125 
Q 18.359375 34.515625 30.609375 34.515625 
L 43.21875 34.515625 
L 43.21875 35.40625 
Q 43.21875 41.609375 39.140625 45 
Q 35.0625 48.390625 27.6875 48.390625 
Q 23 48.390625 18.546875 47.265625 
Q 14.109375 46.140625 10.015625 43.890625 
L 10.015625 52.203125 
Q 14.9375 54.109375 19.578125 55.046875 
Q 24.21875 56 28.609375 56 
Q 40.484375 56 46.34375 49.84375 
Q 52.203125 43.703125 52.203125 31.203125 
z
" id="DejaVuSans-97"/>
     <path d="M 18.3125 70.21875 
L 18.3125 54.6875 
L 36.8125 54.6875 
L 36.8125 47.703125 
L 18.3125 47.703125 
L 18.3125 18.015625 
Q 18.3125 11.328125 20.140625 9.421875 
Q 21.96875 7.515625 27.59375 7.515625 
L 36.8125 7.515625 
L 36.8125 0 
L 27.59375 0 
Q 17.1875 0 13.234375 3.875 
Q 9.28125 7.765625 9.28125 18.015625 
L 9.28125 47.703125 
L 2.6875 47.703125 
L 2.6875 54.6875 
L 9.28125 54.6875 
L 9.28125 70.21875 
z
" id="DejaVuSans-116"/>
     <path d="M 54.890625 33.015625 
L 54.890625 0 
L 45.90625 0 
L 45.90625 32.71875 
Q 45.90625 40.484375 42.875 44.328125 
Q 39.84375 48.1875 33.796875 48.1875 
Q 26.515625 48.1875 22.3125 43.546875 
Q 18.109375 38.921875 18.109375 30.90625 
L 18.109375 0 
L 9.078125 0 
L 9.078125 54.6875 
L 18.109375 54.6875 
L 18.109375 46.1875 
Q 21.34375 51.125 25.703125 53.5625 
Q 30.078125 56 35.796875 56 
Q 45.21875 56 50.046875 50.171875 
Q 54.890625 44.34375 54.890625 33.015625 
z
" id="DejaVuSans-110"/>
     <path d="M 4.890625 31.390625 
L 31.203125 31.390625 
L 31.203125 23.390625 
L 4.890625 23.390625 
z
" id="DejaVuSans-45"/>
     <path d="M 2.984375 54.6875 
L 12.5 54.6875 
L 29.59375 8.796875 
L 46.6875 54.6875 
L 56.203125 54.6875 
L 35.6875 0 
L 23.484375 0 
z
" id="DejaVuSans-118"/>
     <path d="M 17.921875 79.984375 
L 31.6875 61.71875 
L 24.21875 61.71875 
L 8.296875 79.984375 
z
" id="DejaVuSans-96"/>
     <path d="M 54.890625 33.015625 
L 54.890625 0 
L 45.90625 0 
L 45.90625 32.71875 
Q 45.90625 40.484375 42.875 44.328125 
Q 39.84375 48.1875 33.796875 48.1875 
Q 26.515625 48.1875 22.3125 43.546875 
Q 18.109375 38.921875 18.109375 30.90625 
L 18.109375 0 
L 9.078125 0 
L 9.078125 75.984375 
L 18.109375 75.984375 
L 18.109375 46.1875 
Q 21.34375 51.125 25.703125 53.5625 
Q 30.078125 56 35.796875 56 
Q 45.21875 56 50.046875 50.171875 
Q 54.890625 44.34375 54.890625 33.015625 
z
" id="DejaVuSans-104"/>
     <path d="M 52 44.1875 
Q 55.375 50.25 60.0625 53.125 
Q 64.75 56 71.09375 56 
Q 79.640625 56 84.28125 50.015625 
Q 88.921875 44.046875 88.921875 33.015625 
L 88.921875 0 
L 79.890625 0 
L 79.890625 32.71875 
Q 79.890625 40.578125 77.09375 44.375 
Q 74.3125 48.1875 68.609375 48.1875 
Q 61.625 48.1875 57.5625 43.546875 
Q 53.515625 38.921875 53.515625 30.90625 
L 53.515625 0 
L 44.484375 0 
L 44.484375 32.71875 
Q 44.484375 40.625 41.703125 44.40625 
Q 38.921875 48.1875 33.109375 48.1875 
Q 26.21875 48.1875 22.15625 43.53125 
Q 18.109375 38.875 18.109375 30.90625 
L 18.109375 0 
L 9.078125 0 
L 9.078125 54.6875 
L 18.109375 54.6875 
L 18.109375 46.1875 
Q 21.1875 51.21875 25.484375 53.609375 
Q 29.78125 56 35.6875 56 
Q 41.65625 56 45.828125 52.96875 
Q 50 49.953125 52 44.1875 
z
" id="DejaVuSans-109"/>
     <path d="M 11.71875 12.40625 
L 22.015625 12.40625 
L 22.015625 4 
L 14.015625 -11.625 
L 7.71875 -11.625 
L 11.71875 4 
z
" id="DejaVuSans-44"/>
     <path d="M 9.8125 72.90625 
L 24.515625 72.90625 
L 43.109375 23.296875 
L 61.8125 72.90625 
L 76.515625 72.90625 
L 76.515625 0 
L 66.890625 0 
L 66.890625 64.015625 
L 48.09375 14.015625 
L 38.1875 14.015625 
L 19.390625 64.015625 
L 19.390625 0 
L 9.8125 0 
z
" id="DejaVuSans-77"/>
     <path d="M 34.1875 63.1875 
L 20.796875 26.90625 
L 47.609375 26.90625 
z
M 28.609375 72.90625 
L 39.796875 72.90625 
L 67.578125 0 
L 57.328125 0 
L 50.6875 18.703125 
L 17.828125 18.703125 
L 11.1875 0 
L 0.78125 0 
z
" id="DejaVuSans-65"/>
     <path d="M 10.59375 45.40625 
L 73.1875 45.40625 
L 73.1875 37.203125 
L 10.59375 37.203125 
z
M 10.59375 25.484375 
L 73.1875 25.484375 
L 73.1875 17.1875 
L 10.59375 17.1875 
z
" id="DejaVuSans-61"/>
    </defs>
    <g transform="translate(171.771562 20.52)scale(0.12 -0.12)">
     <use xlink:href="#DejaVuSans-103"/>
     <use x="63.476562" xlink:href="#DejaVuSans-114"/>
     <use x="104.589844" xlink:href="#DejaVuSans-105"/>
     <use x="132.373047" xlink:href="#DejaVuSans-100"/>
     <use x="195.849609" xlink:href="#DejaVuSans-119"/>
     <use x="277.636719" xlink:href="#DejaVuSans-111"/>
     <use x="338.818359" xlink:href="#DejaVuSans-114"/>
     <use x="379.931641" xlink:href="#DejaVuSans-108"/>
     <use x="407.714844" xlink:href="#DejaVuSans-100"/>
     <use x="471.191406" xlink:href="#DejaVuSans-95"/>
     <use x="521.191406" xlink:href="#DejaVuSans-48"/>
     <use x="584.814453" xlink:href="#DejaVuSans-58"/>
     <use x="618.505859" xlink:href="#DejaVuSans-32"/>
     <use x="650.292969" xlink:href="#DejaVuSans-101"/>
     <use x="711.816406" xlink:href="#DejaVuSans-112"/>
     <use x="775.292969" xlink:href="#DejaVuSans-105"/>
     <use x="803.076172" xlink:href="#DejaVuSans-115"/>
     <use x="855.175781" xlink:href="#DejaVuSans-111"/>
     <use x="916.357422" xlink:href="#DejaVuSans-100"/>
     <use x="979.833984" xlink:href="#DejaVuSans-101"/>
     <use x="1041.357422" xlink:href="#DejaVuSans-32"/>
     <use x="1073.144531" xlink:href="#DejaVuSans-100"/>
     <use x="1136.621094" xlink:href="#DejaVuSans-117"/>
     <use x="1200" xlink:href="#DejaVuSans-114"/>
     <use x="1241.113281" xlink:href="#DejaVuSans-97"/>
     <use x="1302.392578" xlink:href="#DejaVuSans-116"/>
     <use x="1341.601562" xlink:href="#DejaVuSans-105"/>
     <use x="1369.384766" xlink:href="#DejaVuSans-111"/>
     <use x="1430.566406" xlink:href="#DejaVuSans-110"/>
     <use x="1493.945312" xlink:href="#DejaVuSans-32"/>
     <use x="1525.732422" xlink:href="#DejaVuSans-105"/>
     <use x="1553.515625" xlink:href="#DejaVuSans-110"/>
     <use x="1616.894531" xlink:href="#DejaVuSans-32"/>
     <use x="1648.681641" xlink:href="#DejaVuSans-115"/>
     <use x="1700.78125" xlink:href="#DejaVuSans-116"/>
     <use x="1739.990234" xlink:href="#DejaVuSans-101"/>
     <use x="1801.513672" xlink:href="#DejaVuSans-112"/>
     <use x="1864.990234" xlink:href="#DejaVuSans-115"/>
     <use x="1917.089844" xlink:href="#DejaVuSans-32"/>
     <use x="1948.876953" xlink:href="#DejaVuSans-108"/>
     <use x="1976.660156" xlink:href="#DejaVuSans-111"/>
     <use x="2037.841797" xlink:href="#DejaVuSans-103"/>
     <use x="2101.318359" xlink:href="#DejaVuSans-45"/>
     <use x="2137.402344" xlink:href="#DejaVuSans-114"/>
     <use x="2178.484375" xlink:href="#DejaVuSans-101"/>
     <use x="2240.007812" xlink:href="#DejaVuSans-108"/>
     <use x="2267.791016" xlink:href="#DejaVuSans-97"/>
     <use x="2329.070312" xlink:href="#DejaVuSans-116"/>
     <use x="2368.279297" xlink:href="#DejaVuSans-105"/>
     <use x="2396.0625" xlink:href="#DejaVuSans-118"/>
     <use x="2455.242188" xlink:href="#DejaVuSans-101"/>
     <use x="2516.765625" xlink:href="#DejaVuSans-32"/>
     <use x="2548.552734" xlink:href="#DejaVuSans-116"/>
     <use x="2587.761719" xlink:href="#DejaVuSans-111"/>
     <use x="2648.943359" xlink:href="#DejaVuSans-32"/>
     <use x="2680.730469" xlink:href="#DejaVuSans-96"/>
     <use x="2730.730469" xlink:href="#DejaVuSans-104"/>
     <use x="2794.109375" xlink:href="#DejaVuSans-116"/>
     <use x="2833.318359" xlink:href="#DejaVuSans-109"/>
     <use x="2930.730469" xlink:href="#DejaVuSans-95"/>
     <use x="2980.730469" xlink:href="#DejaVuSans-48"/>
     <use x="3044.353516" xlink:href="#DejaVuSans-96"/>
     <use x="3094.353516" xlink:href="#DejaVuSans-44"/>
     <use x="3126.140625" xlink:href="#DejaVuSans-32"/>
     <use x="3157.927734" xlink:href="#DejaVuSans-77"/>
     <use x="3244.207031" xlink:href="#DejaVuSans-65"/>
     <use x="3312.615234" xlink:href="#DejaVuSans-61"/>
     <use x="3396.404297" xlink:href="#DejaVuSans-49"/>
     <use x="3460.027344" xlink:href="#DejaVuSans-48"/>
    </g>
   </g>
   <g id="legend_1">
    <g id="patch_7">
     <path d="M 762.651937 261.549688 
L 853.716 261.549688 
Q 855.716 261.549688 855.716 259.549688 
L 855.716 171.090312 
Q 855.716 169.090312 853.716 169.090312 
L 762.651937 169.090312 
Q 760.651937 169.090312 760.651937 171.090312 
L 760.651937 259.549688 
Q 760.651937 261.549688 762.651937 261.549688 
z
" style="fill:#ffffff;opacity:0.8;stroke:#cccccc;stroke-linejoin:miter;"/>
    </g>
    <g id="line2d_18">
     <path d="M 764.651937 177.18875 
L 784.651937 177.18875 
" style="fill:none;stroke:#1f77b4;stroke-linecap:square;stroke-width:1.5;"/>
    </g>
    <g id="line2d_19"/>
    <g id="text_13">
     <!-- dqn_greedy -->
     <defs>
      <path d="M 14.796875 27.296875 
Q 14.796875 17.390625 18.875 11.75 
Q 22.953125 6.109375 30.078125 6.109375 
Q 37.203125 6.109375 41.296875 11.75 
Q 45.40625 17.390625 45.40625 27.296875 
Q 45.40625 37.203125 41.296875 42.84375 
Q 37.203125 48.484375 30.078125 48.484375 
Q 22.953125 48.484375 18.875 42.84375 
Q 14.796875 37.203125 14.796875 27.296875 
z
M 45.40625 8.203125 
Q 42.578125 3.328125 38.25 0.953125 
Q 33.9375 -1.421875 27.875 -1.421875 
Q 17.96875 -1.421875 11.734375 6.484375 
Q 5.515625 14.40625 5.515625 27.296875 
Q 5.515625 40.1875 11.734375 48.09375 
Q 17.96875 56 27.875 56 
Q 33.9375 56 38.25 53.625 
Q 42.578125 51.265625 45.40625 46.390625 
L 45.40625 54.6875 
L 54.390625 54.6875 
L 54.390625 -20.796875 
L 45.40625 -20.796875 
z
" id="DejaVuSans-113"/>
      <path d="M 32.171875 -5.078125 
Q 28.375 -14.84375 24.75 -17.8125 
Q 21.140625 -20.796875 15.09375 -20.796875 
L 7.90625 -20.796875 
L 7.90625 -13.28125 
L 13.1875 -13.28125 
Q 16.890625 -13.28125 18.9375 -11.515625 
Q 21 -9.765625 23.484375 -3.21875 
L 25.09375 0.875 
L 2.984375 54.6875 
L 12.5 54.6875 
L 29.59375 11.921875 
L 46.6875 54.6875 
L 56.203125 54.6875 
z
" id="DejaVuSans-121"/>
     </defs>
     <g transform="translate(792.651937 180.68875)scale(0.1 -0.1)">
      <use xlink:href="#DejaVuSans-100"/>
      <use x="63.476562" xlink:href="#DejaVuSans-113"/>
      <use x="126.953125" xlink:href="#DejaVuSans-110"/>
      <use x="190.332031" xlink:href="#DejaVuSans-95"/>
      <use x="240.332031" xlink:href="#DejaVuSans-103"/>
      <use x="303.808594" xlink:href="#DejaVuSans-114"/>
      <use x="344.890625" xlink:href="#DejaVuSans-101"/>
      <use x="406.414062" xlink:href="#DejaVuSans-101"/>
      <use x="467.9375" xlink:href="#DejaVuSans-100"/>
      <use x="531.414062" xlink:href="#DejaVuSans-121"/>
     </g>
    </g>
    <g id="line2d_20">
     <path d="M 764.651937 192.145 
L 784.651937 192.145 
" style="fill:none;stroke:#ff7f0e;stroke-linecap:square;stroke-width:1.5;"/>
    </g>
    <g id="line2d_21"/>
    <g id="text_14">
     <!-- htm_0 -->
     <g transform="translate(792.651937 195.645)scale(0.1 -0.1)">
      <use xlink:href="#DejaVuSans-104"/>
      <use x="63.378906" xlink:href="#DejaVuSans-116"/>
      <use x="102.587891" xlink:href="#DejaVuSans-109"/>
      <use x="200" xlink:href="#DejaVuSans-95"/>
      <use x="250" xlink:href="#DejaVuSans-48"/>
     </g>
    </g>
    <g id="line2d_22">
     <path d="M 764.651937 207.10125 
L 784.651937 207.10125 
" style="fill:none;stroke:#2ca02c;stroke-linecap:square;stroke-width:1.5;"/>
    </g>
    <g id="line2d_23"/>
    <g id="text_15">
     <!-- htm_1_1g -->
     <g transform="translate(792.651937 210.60125)scale(0.1 -0.1)">
      <use xlink:href="#DejaVuSans-104"/>
      <use x="63.378906" xlink:href="#DejaVuSans-116"/>
      <use x="102.587891" xlink:href="#DejaVuSans-109"/>
      <use x="200" xlink:href="#DejaVuSans-95"/>
      <use x="250" xlink:href="#DejaVuSans-49"/>
      <use x="313.623047" xlink:href="#DejaVuSans-95"/>
      <use x="363.623047" xlink:href="#DejaVuSans-49"/>
      <use x="427.246094" xlink:href="#DejaVuSans-103"/>
     </g>
    </g>
    <g id="line2d_24">
     <path d="M 764.651937 222.0575 
L 784.651937 222.0575 
" style="fill:none;stroke:#d62728;stroke-linecap:square;stroke-width:1.5;"/>
    </g>
    <g id="line2d_25"/>
    <g id="text_16">
     <!-- htm_2_1g -->
     <g transform="translate(792.651937 225.5575)scale(0.1 -0.1)">
      <use xlink:href="#DejaVuSans-104"/>
      <use x="63.378906" xlink:href="#DejaVuSans-116"/>
      <use x="102.587891" xlink:href="#DejaVuSans-109"/>
      <use x="200" xlink:href="#DejaVuSans-95"/>
      <use x="250" xlink:href="#DejaVuSans-50"/>
      <use x="313.623047" xlink:href="#DejaVuSans-95"/>
      <use x="363.623047" xlink:href="#DejaVuSans-49"/>
      <use x="427.246094" xlink:href="#DejaVuSans-103"/>
     </g>
    </g>
    <g id="line2d_26">
     <path d="M 764.651937 237.01375 
L 784.651937 237.01375 
" style="fill:none;stroke:#9467bd;stroke-linecap:square;stroke-width:1.5;"/>
    </g>
    <g id="line2d_27"/>
    <g id="text_17">
     <!-- htm_4_1g -->
     <g transform="translate(792.651937 240.51375)scale(0.1 -0.1)">
      <use xlink:href="#DejaVuSans-104"/>
      <use x="63.378906" xlink:href="#DejaVuSans-116"/>
      <use x="102.587891" xlink:href="#DejaVuSans-109"/>
      <use x="200" xlink:href="#DejaVuSans-95"/>
      <use x="250" xlink:href="#DejaVuSans-52"/>
      <use x="313.623047" xlink:href="#DejaVuSans-95"/>
      <use x="363.623047" xlink:href="#DejaVuSans-49"/>
      <use x="427.246094" xlink:href="#DejaVuSans-103"/>
     </g>
    </g>
    <g id="line2d_28">
     <path d="M 764.651937 251.97 
L 784.651937 251.97 
" style="fill:none;stroke:#8c564b;stroke-linecap:square;stroke-width:1.5;"/>
    </g>
    <g id="line2d_29"/>
    <g id="text_18">
     <!-- mcts -->
     <defs>
      <path d="M 48.78125 52.59375 
L 48.78125 44.1875 
Q 44.96875 46.296875 41.140625 47.34375 
Q 37.3125 48.390625 33.40625 48.390625 
Q 24.65625 48.390625 19.8125 42.84375 
Q 14.984375 37.3125 14.984375 27.296875 
Q 14.984375 17.28125 19.8125 11.734375 
Q 24.65625 6.203125 33.40625 6.203125 
Q 37.3125 6.203125 41.140625 7.25 
Q 44.96875 8.296875 48.78125 10.40625 
L 48.78125 2.09375 
Q 45.015625 0.34375 40.984375 -0.53125 
Q 36.96875 -1.421875 32.421875 -1.421875 
Q 20.0625 -1.421875 12.78125 6.34375 
Q 5.515625 14.109375 5.515625 27.296875 
Q 5.515625 40.671875 12.859375 48.328125 
Q 20.21875 56 33.015625 56 
Q 37.15625 56 41.109375 55.140625 
Q 45.0625 54.296875 48.78125 52.59375 
z
" id="DejaVuSans-99"/>
     </defs>
     <g transform="translate(792.651937 255.47)scale(0.1 -0.1)">
      <use xlink:href="#DejaVuSans-109"/>
      <use x="97.412109" xlink:href="#DejaVuSans-99"/>
      <use x="152.392578" xlink:href="#DejaVuSans-116"/>
      <use x="191.601562" xlink:href="#DejaVuSans-115"/>
     </g>
    </g>
   </g>
  </g>
 </g>
 <defs>
  <clipPath id="pd3240ff594">
   <rect height="377.6" width="682.18" x="42.1" y="26.52"/>
  </clipPath>
 </defs>
</svg>
