<?xml version="1.0" encoding="utf-8" standalone="no"?>
<!DOCTYPE svg PUBLIC "-//W3C//DTD SVG 1.1//EN"
  "http://www.w3.org/Graphics/SVG/1.1/DTD/svg11.dtd">
<!-- Created with matplotlib (https://matplotlib.org/) -->
<svg height="432pt" version="1.1" viewBox="0 0 864 432" width="864pt" xmlns="http://www.w3.org/2000/svg" xmlns:xlink="http://www.w3.org/1999/xlink">
 <defs>
  <style type="text/css">
*{stroke-linecap:butt;stroke-linejoin:round;}
  </style>
 </defs>
 <g id="figure_1">
  <g id="patch_1">
   <path d="M 0 432 
L 864 432 
L 864 0 
L 0 0 
z
" style="fill:#ffffff;"/>
  </g>
  <g id="axes_1">
   <g id="patch_2">
    <path d="M 40.165 404.12 
L 724.28 404.12 
L 724.28 26.16 
L 40.165 26.16 
z
" style="fill:#ffffff;"/>
   </g>
   <g id="matplotlib.axis_1">
    <g id="xtick_1">
     <g id="line2d_1">
      <defs>
       <path d="M 0 0 
L 0 3.5 
" id="mad38ffcee9" style="stroke:#000000;stroke-width:0.8;"/>
      </defs>
      <g>
       <use style="stroke:#000000;stroke-width:0.8;" x="40.165" xlink:href="#mad38ffcee9" y="404.12"/>
      </g>
     </g>
     <g id="text_1">
      <!-- 0 -->
      <defs>
       <path d="M 31.78125 66.40625 
Q 24.171875 66.40625 20.328125 58.90625 
Q 16.5 51.421875 16.5 36.375 
Q 16.5 21.390625 20.328125 13.890625 
Q 24.171875 6.390625 31.78125 6.390625 
Q 39.453125 6.390625 43.28125 13.890625 
Q 47.125 21.390625 47.125 36.375 
Q 47.125 51.421875 43.28125 58.90625 
Q 39.453125 66.40625 31.78125 66.40625 
z
M 31.78125 74.21875 
Q 44.046875 74.21875 50.515625 64.515625 
Q 56.984375 54.828125 56.984375 36.375 
Q 56.984375 17.96875 50.515625 8.265625 
Q 44.046875 -1.421875 31.78125 -1.421875 
Q 19.53125 -1.421875 13.0625 8.265625 
Q 6.59375 17.96875 6.59375 36.375 
Q 6.59375 54.828125 13.0625 64.515625 
Q 19.53125 74.21875 31.78125 74.21875 
z
" id="DejaVuSans-48"/>
      </defs>
      <g transform="translate(36.98375 418.718437)scale(0.1 -0.1)">
       <use xlink:href="#DejaVuSans-48"/>
      </g>
     </g>
    </g>
    <g id="xtick_2">
     <g id="line2d_2">
      <g>
       <use style="stroke:#000000;stroke-width:0.8;" x="178.370051" xlink:href="#mad38ffcee9" y="404.12"/>
      </g>
     </g>
     <g id="text_2">
      <!-- 20 -->
      <defs>
       <path d="M 19.1875 8.296875 
L 53.609375 8.296875 
L 53.609375 0 
L 7.328125 0 
L 7.328125 8.296875 
Q 12.9375 14.109375 22.625 23.890625 
Q 32.328125 33.6875 34.8125 36.53125 
Q 39.546875 41.84375 41.421875 45.53125 
Q 43.3125 49.21875 43.3125 52.78125 
Q 43.3125 58.59375 39.234375 62.25 
Q 35.15625 65.921875 28.609375 65.921875 
Q 23.96875 65.921875 18.8125 64.3125 
Q 13.671875 62.703125 7.8125 59.421875 
L 7.8125 69.390625 
Q 13.765625 71.78125 18.9375 73 
Q 24.125 74.21875 28.421875 74.21875 
Q 39.75 74.21875 46.484375 68.546875 
Q 53.21875 62.890625 53.21875 53.421875 
Q 53.21875 48.921875 51.53125 44.890625 
Q 49.859375 40.875 45.40625 35.40625 
Q 44.1875 33.984375 37.640625 27.21875 
Q 31.109375 20.453125 19.1875 8.296875 
z
" id="DejaVuSans-50"/>
      </defs>
      <g transform="translate(172.007551 418.718437)scale(0.1 -0.1)">
       <use xlink:href="#DejaVuSans-50"/>
       <use x="63.623047" xlink:href="#DejaVuSans-48"/>
      </g>
     </g>
    </g>
    <g id="xtick_3">
     <g id="line2d_3">
      <g>
       <use style="stroke:#000000;stroke-width:0.8;" x="316.575101" xlink:href="#mad38ffcee9" y="404.12"/>
      </g>
     </g>
     <g id="text_3">
      <!-- 40 -->
      <defs>
       <path d="M 37.796875 64.3125 
L 12.890625 25.390625 
L 37.796875 25.390625 
z
M 35.203125 72.90625 
L 47.609375 72.90625 
L 47.609375 25.390625 
L 58.015625 25.390625 
L 58.015625 17.1875 
L 47.609375 17.1875 
L 47.609375 0 
L 37.796875 0 
L 37.796875 17.1875 
L 4.890625 17.1875 
L 4.890625 26.703125 
z
" id="DejaVuSans-52"/>
      </defs>
      <g transform="translate(310.212601 418.718437)scale(0.1 -0.1)">
       <use xlink:href="#DejaVuSans-52"/>
       <use x="63.623047" xlink:href="#DejaVuSans-48"/>
      </g>
     </g>
    </g>
    <g id="xtick_4">
     <g id="line2d_4">
      <g>
       <use style="stroke:#000000;stroke-width:0.8;" x="454.780152" xlink:href="#mad38ffcee9" y="404.12"/>
      </g>
     </g>
     <g id="text_4">
      <!-- 60 -->
      <defs>
       <path d="M 33.015625 40.375 
Q 26.375 40.375 22.484375 35.828125 
Q 18.609375 31.296875 18.609375 23.390625 
Q 18.609375 15.53125 22.484375 10.953125 
Q 26.375 6.390625 33.015625 6.390625 
Q 39.65625 6.390625 43.53125 10.953125 
Q 47.40625 15.53125 47.40625 23.390625 
Q 47.40625 31.296875 43.53125 35.828125 
Q 39.65625 40.375 33.015625 40.375 
z
M 52.59375 71.296875 
L 52.59375 62.3125 
Q 48.875 64.0625 45.09375 64.984375 
Q 41.3125 65.921875 37.59375 65.921875 
Q 27.828125 65.921875 22.671875 59.328125 
Q 17.53125 52.734375 16.796875 39.40625 
Q 19.671875 43.65625 24.015625 45.921875 
Q 28.375 48.1875 33.59375 48.1875 
Q 44.578125 48.1875 50.953125 41.515625 
Q 57.328125 34.859375 57.328125 23.390625 
Q 57.328125 12.15625 50.6875 5.359375 
Q 44.046875 -1.421875 33.015625 -1.421875 
Q 20.359375 -1.421875 13.671875 8.265625 
Q 6.984375 17.96875 6.984375 36.375 
Q 6.984375 53.65625 15.1875 63.9375 
Q 23.390625 74.21875 37.203125 74.21875 
Q 40.921875 74.21875 44.703125 73.484375 
Q 48.484375 72.75 52.59375 71.296875 
z
" id="DejaVuSans-54"/>
      </defs>
      <g transform="translate(448.417652 418.718437)scale(0.1 -0.1)">
       <use xlink:href="#DejaVuSans-54"/>
       <use x="63.623047" xlink:href="#DejaVuSans-48"/>
      </g>
     </g>
    </g>
    <g id="xtick_5">
     <g id="line2d_5">
      <g>
       <use style="stroke:#000000;stroke-width:0.8;" x="592.985202" xlink:href="#mad38ffcee9" y="404.12"/>
      </g>
     </g>
     <g id="text_5">
      <!-- 80 -->
      <defs>
       <path d="M 31.78125 34.625 
Q 24.75 34.625 20.71875 30.859375 
Q 16.703125 27.09375 16.703125 20.515625 
Q 16.703125 13.921875 20.71875 10.15625 
Q 24.75 6.390625 31.78125 6.390625 
Q 38.8125 6.390625 42.859375 10.171875 
Q 46.921875 13.96875 46.921875 20.515625 
Q 46.921875 27.09375 42.890625 30.859375 
Q 38.875 34.625 31.78125 34.625 
z
M 21.921875 38.8125 
Q 15.578125 40.375 12.03125 44.71875 
Q 8.5 49.078125 8.5 55.328125 
Q 8.5 64.0625 14.71875 69.140625 
Q 20.953125 74.21875 31.78125 74.21875 
Q 42.671875 74.21875 48.875 69.140625 
Q 55.078125 64.0625 55.078125 55.328125 
Q 55.078125 49.078125 51.53125 44.71875 
Q 48 40.375 41.703125 38.8125 
Q 48.828125 37.15625 52.796875 32.3125 
Q 56.78125 27.484375 56.78125 20.515625 
Q 56.78125 9.90625 50.3125 4.234375 
Q 43.84375 -1.421875 31.78125 -1.421875 
Q 19.734375 -1.421875 13.25 4.234375 
Q 6.78125 9.90625 6.78125 20.515625 
Q 6.78125 27.484375 10.78125 32.3125 
Q 14.796875 37.15625 21.921875 38.8125 
z
M 18.3125 54.390625 
Q 18.3125 48.734375 21.84375 45.5625 
Q 25.390625 42.390625 31.78125 42.390625 
Q 38.140625 42.390625 41.71875 45.5625 
Q 45.3125 48.734375 45.3125 54.390625 
Q 45.3125 60.0625 41.71875 63.234375 
Q 38.140625 66.40625 31.78125 66.40625 
Q 25.390625 66.40625 21.84375 63.234375 
Q 18.3125 60.0625 18.3125 54.390625 
z
" id="DejaVuSans-56"/>
      </defs>
      <g transform="translate(586.622702 418.718437)scale(0.1 -0.1)">
       <use xlink:href="#DejaVuSans-56"/>
       <use x="63.623047" xlink:href="#DejaVuSans-48"/>
      </g>
     </g>
    </g>
   </g>
   <g id="matplotlib.axis_2">
    <g id="ytick_1">
     <g id="line2d_6">
      <defs>
       <path d="M 0 0 
L -3.5 0 
" id="mde3115a3ef" style="stroke:#000000;stroke-width:0.8;"/>
      </defs>
      <g>
       <use style="stroke:#000000;stroke-width:0.8;" x="40.165" xlink:href="#mde3115a3ef" y="387.221412"/>
      </g>
     </g>
     <g id="text_6">
      <!-- 0.00 -->
      <defs>
       <path d="M 10.6875 12.40625 
L 21 12.40625 
L 21 0 
L 10.6875 0 
z
" id="DejaVuSans-46"/>
      </defs>
      <g transform="translate(10.899375 391.020631)scale(0.1 -0.1)">
       <use xlink:href="#DejaVuSans-48"/>
       <use x="63.623047" xlink:href="#DejaVuSans-46"/>
       <use x="95.410156" xlink:href="#DejaVuSans-48"/>
       <use x="159.033203" xlink:href="#DejaVuSans-48"/>
      </g>
     </g>
    </g>
    <g id="ytick_2">
     <g id="line2d_7">
      <g>
       <use style="stroke:#000000;stroke-width:0.8;" x="40.165" xlink:href="#mde3115a3ef" y="332.871256"/>
      </g>
     </g>
     <g id="text_7">
      <!-- 0.05 -->
      <defs>
       <path d="M 10.796875 72.90625 
L 49.515625 72.90625 
L 49.515625 64.59375 
L 19.828125 64.59375 
L 19.828125 46.734375 
Q 21.96875 47.46875 24.109375 47.828125 
Q 26.265625 48.1875 28.421875 48.1875 
Q 40.625 48.1875 47.75 41.5 
Q 54.890625 34.8125 54.890625 23.390625 
Q 54.890625 11.625 47.5625 5.09375 
Q 40.234375 -1.421875 26.90625 -1.421875 
Q 22.3125 -1.421875 17.546875 -0.640625 
Q 12.796875 0.140625 7.71875 1.703125 
L 7.71875 11.625 
Q 12.109375 9.234375 16.796875 8.0625 
Q 21.484375 6.890625 26.703125 6.890625 
Q 35.15625 6.890625 40.078125 11.328125 
Q 45.015625 15.765625 45.015625 23.390625 
Q 45.015625 31 40.078125 35.4375 
Q 35.15625 39.890625 26.703125 39.890625 
Q 22.75 39.890625 18.8125 39.015625 
Q 14.890625 38.140625 10.796875 36.28125 
z
" id="DejaVuSans-53"/>
      </defs>
      <g transform="translate(10.899375 336.670474)scale(0.1 -0.1)">
       <use xlink:href="#DejaVuSans-48"/>
       <use x="63.623047" xlink:href="#DejaVuSans-46"/>
       <use x="95.410156" xlink:href="#DejaVuSans-48"/>
       <use x="159.033203" xlink:href="#DejaVuSans-53"/>
      </g>
     </g>
    </g>
    <g id="ytick_3">
     <g id="line2d_8">
      <g>
       <use style="stroke:#000000;stroke-width:0.8;" x="40.165" xlink:href="#mde3115a3ef" y="278.521099"/>
      </g>
     </g>
     <g id="text_8">
      <!-- 0.10 -->
      <defs>
       <path d="M 12.40625 8.296875 
L 28.515625 8.296875 
L 28.515625 63.921875 
L 10.984375 60.40625 
L 10.984375 69.390625 
L 28.421875 72.90625 
L 38.28125 72.90625 
L 38.28125 8.296875 
L 54.390625 8.296875 
L 54.390625 0 
L 12.40625 0 
z
" id="DejaVuSans-49"/>
      </defs>
      <g transform="translate(10.899375 282.320318)scale(0.1 -0.1)">
       <use xlink:href="#DejaVuSans-48"/>
       <use x="63.623047" xlink:href="#DejaVuSans-46"/>
       <use x="95.410156" xlink:href="#DejaVuSans-49"/>
       <use x="159.033203" xlink:href="#DejaVuSans-48"/>
      </g>
     </g>
    </g>
    <g id="ytick_4">
     <g id="line2d_9">
      <g>
       <use style="stroke:#000000;stroke-width:0.8;" x="40.165" xlink:href="#mde3115a3ef" y="224.170943"/>
      </g>
     </g>
     <g id="text_9">
      <!-- 0.15 -->
      <g transform="translate(10.899375 227.970161)scale(0.1 -0.1)">
       <use xlink:href="#DejaVuSans-48"/>
       <use x="63.623047" xlink:href="#DejaVuSans-46"/>
       <use x="95.410156" xlink:href="#DejaVuSans-49"/>
       <use x="159.033203" xlink:href="#DejaVuSans-53"/>
      </g>
     </g>
    </g>
    <g id="ytick_5">
     <g id="line2d_10">
      <g>
       <use style="stroke:#000000;stroke-width:0.8;" x="40.165" xlink:href="#mde3115a3ef" y="169.820786"/>
      </g>
     </g>
     <g id="text_10">
      <!-- 0.20 -->
      <g transform="translate(10.899375 173.620005)scale(0.1 -0.1)">
       <use xlink:href="#DejaVuSans-48"/>
       <use x="63.623047" xlink:href="#DejaVuSans-46"/>
       <use x="95.410156" xlink:href="#DejaVuSans-50"/>
       <use x="159.033203" xlink:href="#DejaVuSans-48"/>
      </g>
     </g>
    </g>
    <g id="ytick_6">
     <g id="line2d_11">
      <g>
       <use style="stroke:#000000;stroke-width:0.8;" x="40.165" xlink:href="#mde3115a3ef" y="115.47063"/>
      </g>
     </g>
     <g id="text_11">
      <!-- 0.25 -->
      <g transform="translate(10.899375 119.269848)scale(0.1 -0.1)">
       <use xlink:href="#DejaVuSans-48"/>
       <use x="63.623047" xlink:href="#DejaVuSans-46"/>
       <use x="95.410156" xlink:href="#DejaVuSans-50"/>
       <use x="159.033203" xlink:href="#DejaVuSans-53"/>
      </g>
     </g>
    </g>
    <g id="ytick_7">
     <g id="line2d_12">
      <g>
       <use style="stroke:#000000;stroke-width:0.8;" x="40.165" xlink:href="#mde3115a3ef" y="61.120473"/>
      </g>
     </g>
     <g id="text_12">
      <!-- 0.30 -->
      <defs>
       <path d="M 40.578125 39.3125 
Q 47.65625 37.796875 51.625 33 
Q 55.609375 28.21875 55.609375 21.1875 
Q 55.609375 10.40625 48.1875 4.484375 
Q 40.765625 -1.421875 27.09375 -1.421875 
Q 22.515625 -1.421875 17.65625 -0.515625 
Q 12.796875 0.390625 7.625 2.203125 
L 7.625 11.71875 
Q 11.71875 9.328125 16.59375 8.109375 
Q 21.484375 6.890625 26.8125 6.890625 
Q 36.078125 6.890625 40.9375 10.546875 
Q 45.796875 14.203125 45.796875 21.1875 
Q 45.796875 27.640625 41.28125 31.265625 
Q 36.765625 34.90625 28.71875 34.90625 
L 20.21875 34.90625 
L 20.21875 43.015625 
L 29.109375 43.015625 
Q 36.375 43.015625 40.234375 45.921875 
Q 44.09375 48.828125 44.09375 54.296875 
Q 44.09375 59.90625 40.109375 62.90625 
Q 36.140625 65.921875 28.71875 65.921875 
Q 24.65625 65.921875 20.015625 65.03125 
Q 15.375 64.15625 9.8125 62.3125 
L 9.8125 71.09375 
Q 15.4375 72.65625 20.34375 73.4375 
Q 25.25 74.21875 29.59375 74.21875 
Q 40.828125 74.21875 47.359375 69.109375 
Q 53.90625 64.015625 53.90625 55.328125 
Q 53.90625 49.265625 50.4375 45.09375 
Q 46.96875 40.921875 40.578125 39.3125 
z
" id="DejaVuSans-51"/>
      </defs>
      <g transform="translate(10.899375 64.919692)scale(0.1 -0.1)">
       <use xlink:href="#DejaVuSans-48"/>
       <use x="63.623047" xlink:href="#DejaVuSans-46"/>
       <use x="95.410156" xlink:href="#DejaVuSans-51"/>
       <use x="159.033203" xlink:href="#DejaVuSans-48"/>
      </g>
     </g>
    </g>
   </g>
   <g id="line2d_13">
    <path clip-path="url(#p79710f02c5)" d="M 102.357273 384.342406 
L 109.267525 384.836303 
L 116.177778 384.918763 
L 123.08803 385.404698 
L 129.998283 385.472109 
L 136.908535 385.917123 
L 143.818788 385.933269 
L 150.72904 385.50213 
L 157.639293 385.017957 
L 164.549545 384.989318 
L 171.459798 384.968025 
L 178.370051 384.947606 
L 185.280303 384.889918 
L 192.190556 384.877783 
L 199.100808 384.879492 
L 206.011061 384.41107 
L 212.921313 383.962136 
L 219.831566 384.397214 
L 226.741818 384.864669 
L 233.652071 385.352204 
L 240.562323 385.84575 
L 247.472576 385.870825 
L 254.382828 385.930161 
L 261.293081 385.474942 
L 268.203333 385.488415 
L 275.113586 385.974317 
L 282.023838 386.444044 
L 288.934091 386.48032 
L 295.844343 386.511539 
L 302.754596 386.509521 
L 309.664848 386.508686 
L 316.575101 386.492122 
L 323.485354 386.47199 
L 330.395606 386.94 
L 337.305859 386.91793 
L 344.216111 386.882353 
L 351.126364 386.835694 
L 358.036616 386.797425 
L 364.946869 386.75227 
L 371.857121 386.277567 
L 378.767374 385.806355 
L 385.677626 385.343108 
L 392.587879 384.859946 
L 399.498131 384.847863 
L 406.408384 384.845115 
L 413.318636 384.853068 
L 420.228889 384.865603 
L 427.139141 384.891353 
L 434.049394 384.923222 
L 440.959646 385.385037 
L 447.869899 385.844464 
L 454.780152 386.310885 
L 461.690404 386.803137 
L 468.600657 386.804881 
L 475.510909 386.788563 
L 482.421162 386.7852 
L 489.331414 386.793293 
L 496.241667 386.780845 
L 503.151919 386.760321 
L 510.062172 386.742588 
L 516.972424 386.728468 
L 523.882677 386.714883 
L 530.792929 386.693126 
L 537.703182 386.691436 
L 544.613434 386.70746 
L 551.523687 386.715773 
L 558.433939 386.717137 
L 565.344192 386.743473 
L 572.254444 386.776975 
L 579.164697 386.809787 
L 586.074949 386.83702 
L 592.985202 386.406236 
L 599.895455 385.972386 
L 606.805707 385.542046 
L 613.71596 385.104369 
L 620.626212 384.631581 
L 627.536465 384.643231 
L 634.446717 384.628079 
L 641.35697 384.613644 
L 648.267222 384.590614 
L 655.177475 384.576506 
L 662.087727 385.015114 
L 668.99798 385.465389 
L 675.908232 385.922418 
L 682.818485 386.387012 
L 689.728737 386.884596 
L 696.63899 386.8977 
L 703.549242 386.440756 
L 710.459495 386.441935 
L 717.369747 386.451396 
L 724.28 386.45245 
" style="fill:none;stroke:#1f77b4;stroke-linecap:square;stroke-width:1.5;"/>
   </g>
   <g id="line2d_14">
    <path clip-path="url(#p79710f02c5)" d="M 102.357273 380.860404 
L 109.267525 381.707891 
L 116.177778 382.881839 
L 123.08803 383.357939 
L 129.998283 383.389265 
L 136.908535 383.546868 
L 143.818788 384.160197 
L 150.72904 384.857836 
L 157.639293 385.183114 
L 164.549545 384.82689 
L 171.459798 384.385305 
L 178.370051 384.31277 
L 185.280303 383.926142 
L 192.190556 383.457403 
L 199.100808 383.609298 
L 206.011061 384.110993 
L 212.921313 384.053922 
L 219.831566 383.444284 
L 226.741818 383.11339 
L 233.652071 383.437706 
L 240.562323 384.135093 
L 247.472576 383.999306 
L 254.382828 384.224734 
L 261.293081 384.711419 
L 268.203333 384.066875 
L 275.113586 384.248879 
L 282.023838 383.539715 
L 288.934091 384.268602 
L 295.844343 384.925611 
L 302.754596 384.851957 
L 309.664848 384.834455 
L 316.575101 384.322809 
L 323.485354 384.004801 
L 330.395606 383.30041 
L 337.305859 383.27358 
L 344.216111 383.13884 
L 351.126364 383.634603 
L 358.036616 383.432704 
L 364.946869 382.755677 
L 371.857121 382.671702 
L 378.767374 382.594189 
L 385.677626 383.035307 
L 392.587879 382.813539 
L 399.498131 383.108382 
L 406.408384 383.096218 
L 413.318636 382.635312 
L 420.228889 382.178771 
L 427.139141 382.360212 
L 434.049394 382.435114 
L 440.959646 382.499934 
L 447.869899 382.298685 
L 454.780152 381.613552 
L 461.690404 382.291541 
L 468.600657 382.198981 
L 475.510909 382.888068 
L 482.421162 382.759694 
L 489.331414 382.919702 
L 496.241667 382.615581 
L 503.151919 382.74407 
L 510.062172 382.727737 
L 516.972424 382.324286 
L 523.882677 382.595315 
L 530.792929 381.917307 
L 537.703182 382.032661 
L 544.613434 381.819755 
L 551.523687 382.303483 
L 558.433939 382.610312 
L 565.344192 382.935839 
L 572.254444 383.446259 
L 579.164697 383.59397 
L 586.074949 384.223445 
L 592.985202 384.884143 
L 599.895455 385.564202 
L 606.805707 385.883365 
L 613.71596 386.043482 
L 620.626212 385.593039 
L 627.536465 385.619398 
L 634.446717 385.541728 
L 641.35697 385.461933 
L 648.267222 385.119849 
L 655.177475 384.737018 
L 662.087727 384.733975 
L 668.99798 384.50488 
L 675.908232 384.501417 
L 682.818485 384.376996 
L 689.728737 384.15998 
L 696.63899 384.433903 
L 703.549242 383.786192 
L 710.459495 383.811852 
L 717.369747 384.135468 
L 724.28 383.867271 
" style="fill:none;stroke:#ff7f0e;stroke-linecap:square;stroke-width:1.5;"/>
   </g>
   <g id="line2d_15">
    <path clip-path="url(#p79710f02c5)" d="M 102.357273 354.556637 
L 109.267525 354.744333 
L 116.177778 354.711424 
L 123.08803 349.409606 
L 129.998283 353.560837 
L 136.908535 350.37324 
L 143.818788 334.160501 
L 150.72904 328.772901 
L 157.639293 314.121351 
L 164.549545 303.568979 
L 171.459798 293.260745 
L 178.370051 292.976413 
L 185.280303 292.654844 
L 192.190556 297.043574 
L 199.100808 298.383641 
L 206.011061 306.488309 
L 212.921313 327.220911 
L 219.831566 328.563052 
L 226.741818 342.075665 
L 233.652071 354.910228 
L 240.562323 365.305197 
L 247.472576 365.80749 
L 254.382828 366.244073 
L 261.293081 366.939242 
L 268.203333 367.568135 
L 275.113586 369.329316 
L 282.023838 371.827622 
L 288.934091 376.494499 
L 295.844343 379.730811 
L 302.754596 379.700958 
L 309.664848 379.675256 
L 316.575101 372.804013 
L 323.485354 361.310056 
L 330.395606 356.742649 
L 337.305859 356.109795 
L 344.216111 347.442813 
L 351.126364 345.371761 
L 358.036616 330.826847 
L 364.946869 309.889994 
L 371.857121 303.424145 
L 378.767374 292.061005 
L 385.677626 295.021332 
L 392.587879 274.099438 
L 399.498131 272.614656 
L 406.408384 271.220599 
L 413.318636 278.486321 
L 420.228889 279.193941 
L 427.139141 264.175829 
L 434.049394 284.342881 
L 440.959646 289.246718 
L 447.869899 272.225461 
L 454.780152 267.728501 
L 461.690404 299.40792 
L 468.600657 297.722331 
L 475.510909 298.992613 
L 482.421162 267.552117 
L 489.331414 267.504526 
L 496.241667 273.095833 
L 503.151919 264.868152 
L 510.062172 236.889627 
L 516.972424 255.370691 
L 523.882677 258.593536 
L 530.792929 255.351474 
L 537.703182 259.66805 
L 544.613434 255.995547 
L 551.523687 255.37771 
L 558.433939 251.861424 
L 565.344192 275.750173 
L 572.254444 284.641895 
L 579.164697 314.15651 
L 586.074949 323.901093 
L 592.985202 329.145425 
L 599.895455 333.126922 
L 606.805707 336.520309 
L 613.71596 340.951487 
L 620.626212 372.611262 
L 627.536465 376.772772 
L 634.446717 372.402031 
L 641.35697 369.313934 
L 648.267222 365.167603 
L 655.177475 363.111573 
L 662.087727 357.543601 
L 668.99798 356.523762 
L 675.908232 356.51803 
L 682.818485 356.356457 
L 689.728737 358.192061 
L 696.63899 358.910875 
L 703.549242 362.50422 
L 710.459495 364.774271 
L 717.369747 368.203863 
L 724.28 368.893345 
" style="fill:none;stroke:#2ca02c;stroke-linecap:square;stroke-width:1.5;"/>
   </g>
   <g id="line2d_16">
    <path clip-path="url(#p79710f02c5)" d="M 102.357273 363.268252 
L 109.267525 362.654372 
L 116.177778 362.712037 
L 123.08803 362.096907 
L 129.998283 365.804286 
L 136.908535 365.739939 
L 143.818788 365.79387 
L 150.72904 363.60737 
L 157.639293 354.765575 
L 164.549545 326.839087 
L 171.459798 324.145562 
L 178.370051 324.101768 
L 185.280303 323.855901 
L 192.190556 323.941433 
L 199.100808 326.988361 
L 206.011061 301.534628 
L 212.921313 295.69757 
L 219.831566 295.655661 
L 226.741818 302.669836 
L 233.652071 332.404704 
L 240.562323 338.305632 
L 247.472576 339.271315 
L 254.382828 339.633083 
L 261.293081 340.087649 
L 268.203333 340.589115 
L 275.113586 366.94924 
L 282.023838 373.584202 
L 288.934091 376.813989 
L 295.844343 379.537685 
L 302.754596 379.485642 
L 309.664848 379.502113 
L 316.575101 378.863615 
L 323.485354 378.590229 
L 330.395606 378.221005 
L 337.305859 377.831842 
L 344.216111 348.74271 
L 351.126364 327.215834 
L 358.036616 304.49844 
L 364.946869 294.50564 
L 371.857121 276.991311 
L 378.767374 216.266647 
L 385.677626 210.785792 
L 392.587879 192.181307 
L 399.498131 190.974583 
L 406.408384 189.537468 
L 413.318636 216.58832 
L 420.228889 236.150622 
L 427.139141 258.592368 
L 434.049394 268.287731 
L 440.959646 285.516636 
L 447.869899 345.9137 
L 454.780152 351.646594 
L 461.690404 370.161096 
L 468.600657 371.261454 
L 475.510909 372.659062 
L 482.421162 366.284938 
L 489.331414 360.974318 
L 496.241667 345.520499 
L 503.151919 328.73816 
L 510.062172 324.885196 
L 516.972424 323.342323 
L 523.882677 321.842591 
L 530.792929 320.51299 
L 537.703182 319.952431 
L 544.613434 319.276531 
L 551.523687 319.901779 
L 558.433939 324.883274 
L 565.344192 340.496127 
L 572.254444 357.481011 
L 579.164697 361.543513 
L 586.074949 363.245232 
L 592.985202 365.245473 
L 599.895455 367.040702 
L 606.805707 368.078385 
L 613.71596 369.08536 
L 620.626212 376.132224 
L 627.536465 378.228476 
L 634.446717 378.013144 
L 641.35697 377.813817 
L 648.267222 377.188389 
L 655.177475 376.003967 
L 662.087727 375.490549 
L 668.99798 375.056336 
L 675.908232 375.015191 
L 682.818485 374.560058 
L 689.728737 374.820848 
L 696.63899 375.010868 
L 703.549242 375.002666 
L 710.459495 375.006203 
L 717.369747 375.379057 
L 724.28 376.399184 
" style="fill:none;stroke:#d62728;stroke-linecap:square;stroke-width:1.5;"/>
   </g>
   <g id="line2d_17">
    <path clip-path="url(#p79710f02c5)" d="M 102.357273 362.326036 
L 109.267525 360.532041 
L 116.177778 357.592951 
L 123.08803 357.140932 
L 129.998283 365.304599 
L 136.908535 365.848028 
L 143.818788 366.215158 
L 150.72904 362.190145 
L 157.639293 356.864183 
L 164.549545 355.144529 
L 171.459798 353.395657 
L 178.370051 354.757793 
L 185.280303 357.650826 
L 192.190556 357.370491 
L 199.100808 357.204744 
L 206.011061 355.129068 
L 212.921313 354.219838 
L 219.831566 357.576016 
L 226.741818 362.120798 
L 233.652071 366.199802 
L 240.562323 371.043544 
L 247.472576 371.602613 
L 254.382828 372.046137 
L 261.293081 371.832594 
L 268.203333 371.629457 
L 275.113586 373.255997 
L 282.023838 373.796726 
L 288.934091 347.722417 
L 295.844343 349.159406 
L 302.754596 349.184771 
L 309.664848 349.238645 
L 316.575101 348.958055 
L 323.485354 348.649869 
L 330.395606 349.042851 
L 337.305859 349.371848 
L 344.216111 270.536059 
L 351.126364 266.71481 
L 358.036616 289.659174 
L 364.946869 284.968194 
L 371.857121 262.784523 
L 378.767374 154.891843 
L 385.677626 108.481961 
L 392.587879 49.910631 
L 399.498131 44.066091 
L 406.408384 43.34 
L 413.318636 121.67618 
L 420.228889 125.048332 
L 427.139141 118.224106 
L 434.049394 117.746987 
L 440.959646 135.137094 
L 447.869899 238.198653 
L 454.780152 284.494407 
L 461.690404 342.999623 
L 468.600657 348.82912 
L 475.510909 349.528922 
L 482.421162 343.413911 
L 489.331414 337.941314 
L 496.241667 343.834706 
L 503.151919 344.323141 
L 510.062172 347.179792 
L 516.972424 350.98464 
L 523.882677 350.156627 
L 530.792929 349.419539 
L 537.703182 345.60782 
L 544.613434 340.020886 
L 551.523687 343.426299 
L 558.433939 337.544401 
L 565.344192 342.827692 
L 572.254444 347.488142 
L 579.164697 349.375028 
L 586.074949 350.005432 
L 592.985202 351.296841 
L 599.895455 352.457246 
L 606.805707 356.696058 
L 613.71596 362.638434 
L 620.626212 365.704795 
L 627.536465 377.821793 
L 634.446717 377.59132 
L 641.35697 377.225268 
L 648.267222 377.050598 
L 655.177475 377.175648 
L 662.087727 376.753873 
L 668.99798 376.371573 
L 675.908232 376.304226 
L 682.818485 376.204819 
L 689.728737 377.003327 
L 696.63899 377.275925 
L 703.549242 377.253554 
L 710.459495 377.275517 
L 717.369747 377.15531 
L 724.28 377.050769 
" style="fill:none;stroke:#9467bd;stroke-linecap:square;stroke-width:1.5;"/>
   </g>
   <g id="line2d_18">
    <path clip-path="url(#p79710f02c5)" d="M 102.357273 299.416214 
L 109.267525 297.27461 
L 116.177778 314.726551 
L 123.08803 325.282301 
L 129.998283 325.626117 
L 136.908535 334.423782 
L 143.818788 329.826312 
L 150.72904 322.233877 
L 157.639293 323.486394 
L 164.549545 326.617784 
L 171.459798 327.850389 
L 178.370051 311.687009 
L 185.280303 310.288596 
L 192.190556 309.124327 
L 199.100808 314.857046 
L 206.011061 315.793706 
L 212.921313 324.383196 
L 219.831566 333.081203 
L 226.741818 324.260813 
L 233.652071 325.210539 
L 240.562323 326.250722 
L 247.472576 337.961353 
L 254.382828 336.373997 
L 261.293081 337.344759 
L 268.203333 340.962469 
L 275.113586 323.028843 
L 282.023838 324.192013 
L 288.934091 315.01394 
L 295.844343 308.5501 
L 302.754596 303.738677 
L 309.664848 297.453914 
L 316.575101 295.052362 
L 323.485354 292.920729 
L 330.395606 284.026392 
L 337.305859 282.023432 
L 344.216111 295.872824 
L 351.126364 295.589872 
L 358.036616 301.085251 
L 364.946869 309.636384 
L 371.857121 310.254991 
L 378.767374 311.093512 
L 385.677626 315.846842 
L 392.587879 317.274985 
L 399.498131 326.052999 
L 406.408384 330.101927 
L 413.318636 332.911028 
L 420.228889 335.975335 
L 427.139141 334.892372 
L 434.049394 341.174494 
L 440.959646 334.658443 
L 447.869899 323.46734 
L 454.780152 324.279628 
L 461.690404 323.187616 
L 468.600657 319.972667 
L 475.510909 318.992665 
L 482.421162 318.198026 
L 489.331414 306.001206 
L 496.241667 311.314228 
L 503.151919 310.536905 
L 510.062172 313.800281 
L 516.972424 328.458093 
L 523.882677 308.132921 
L 530.792929 314.00991 
L 537.703182 311.042707 
L 544.613434 313.14868 
L 551.523687 315.157272 
L 558.433939 310.7246 
L 565.344192 312.801057 
L 572.254444 314.799639 
L 579.164697 322.181936 
L 586.074949 315.745565 
L 592.985202 333.970666 
L 599.895455 331.833678 
L 606.805707 337.036154 
L 613.71596 336.986678 
L 620.626212 328.008998 
L 627.536465 339.795236 
L 634.446717 325.739843 
L 641.35697 323.843414 
L 648.267222 321.648122 
L 655.177475 327.897523 
L 662.087727 329.073931 
L 668.99798 331.095402 
L 675.908232 333.180559 
L 682.818485 331.017251 
L 689.728737 311.288929 
L 696.63899 317.397297 
L 703.549242 331.397577 
L 710.459495 333.292313 
L 717.369747 333.548659 
L 724.28 333.547809 
" style="fill:none;stroke:#8c564b;stroke-linecap:square;stroke-width:1.5;"/>
   </g>
   <g id="patch_3">
    <path d="M 40.165 404.12 
L 40.165 26.16 
" style="fill:none;stroke:#000000;stroke-linecap:square;stroke-linejoin:miter;stroke-width:0.8;"/>
   </g>
   <g id="patch_4">
    <path d="M 724.28 404.12 
L 724.28 26.16 
" style="fill:none;stroke:#000000;stroke-linecap:square;stroke-linejoin:miter;stroke-width:0.8;"/>
   </g>
   <g id="patch_5">
    <path d="M 40.165 404.12 
L 724.28 404.12 
" style="fill:none;stroke:#000000;stroke-linecap:square;stroke-linejoin:miter;stroke-width:0.8;"/>
   </g>
   <g id="patch_6">
    <path d="M 40.165 26.16 
L 724.28 26.16 
" style="fill:none;stroke:#000000;stroke-linecap:square;stroke-linejoin:miter;stroke-width:0.8;"/>
   </g>
   <g id="text_13">
    <!-- gridworld_0: episode execution time, sec, MA=10 -->
    <defs>
     <path d="M 45.40625 27.984375 
Q 45.40625 37.75 41.375 43.109375 
Q 37.359375 48.484375 30.078125 48.484375 
Q 22.859375 48.484375 18.828125 43.109375 
Q 14.796875 37.75 14.796875 27.984375 
Q 14.796875 18.265625 18.828125 12.890625 
Q 22.859375 7.515625 30.078125 7.515625 
Q 37.359375 7.515625 41.375 12.890625 
Q 45.40625 18.265625 45.40625 27.984375 
z
M 54.390625 6.78125 
Q 54.390625 -7.171875 48.1875 -13.984375 
Q 42 -20.796875 29.203125 -20.796875 
Q 24.46875 -20.796875 20.265625 -20.09375 
Q 16.0625 -19.390625 12.109375 -17.921875 
L 12.109375 -9.1875 
Q 16.0625 -11.328125 19.921875 -12.34375 
Q 23.78125 -13.375 27.78125 -13.375 
Q 36.625 -13.375 41.015625 -8.765625 
Q 45.40625 -4.15625 45.40625 5.171875 
L 45.40625 9.625 
Q 42.625 4.78125 38.28125 2.390625 
Q 33.9375 0 27.875 0 
Q 17.828125 0 11.671875 7.65625 
Q 5.515625 15.328125 5.515625 27.984375 
Q 5.515625 40.671875 11.671875 48.328125 
Q 17.828125 56 27.875 56 
Q 33.9375 56 38.28125 53.609375 
Q 42.625 51.21875 45.40625 46.390625 
L 45.40625 54.6875 
L 54.390625 54.6875 
z
" id="DejaVuSans-103"/>
     <path d="M 41.109375 46.296875 
Q 39.59375 47.171875 37.8125 47.578125 
Q 36.03125 48 33.890625 48 
Q 26.265625 48 22.1875 43.046875 
Q 18.109375 38.09375 18.109375 28.8125 
L 18.109375 0 
L 9.078125 0 
L 9.078125 54.6875 
L 18.109375 54.6875 
L 18.109375 46.1875 
Q 20.953125 51.171875 25.484375 53.578125 
Q 30.03125 56 36.53125 56 
Q 37.453125 56 38.578125 55.875 
Q 39.703125 55.765625 41.0625 55.515625 
z
" id="DejaVuSans-114"/>
     <path d="M 9.421875 54.6875 
L 18.40625 54.6875 
L 18.40625 0 
L 9.421875 0 
z
M 9.421875 75.984375 
L 18.40625 75.984375 
L 18.40625 64.59375 
L 9.421875 64.59375 
z
" id="DejaVuSans-105"/>
     <path d="M 45.40625 46.390625 
L 45.40625 75.984375 
L 54.390625 75.984375 
L 54.390625 0 
L 45.40625 0 
L 45.40625 8.203125 
Q 42.578125 3.328125 38.25 0.953125 
Q 33.9375 -1.421875 27.875 -1.421875 
Q 17.96875 -1.421875 11.734375 6.484375 
Q 5.515625 14.40625 5.515625 27.296875 
Q 5.515625 40.1875 11.734375 48.09375 
Q 17.96875 56 27.875 56 
Q 33.9375 56 38.25 53.625 
Q 42.578125 51.265625 45.40625 46.390625 
z
M 14.796875 27.296875 
Q 14.796875 17.390625 18.875 11.75 
Q 22.953125 6.109375 30.078125 6.109375 
Q 37.203125 6.109375 41.296875 11.75 
Q 45.40625 17.390625 45.40625 27.296875 
Q 45.40625 37.203125 41.296875 42.84375 
Q 37.203125 48.484375 30.078125 48.484375 
Q 22.953125 48.484375 18.875 42.84375 
Q 14.796875 37.203125 14.796875 27.296875 
z
" id="DejaVuSans-100"/>
     <path d="M 4.203125 54.6875 
L 13.1875 54.6875 
L 24.421875 12.015625 
L 35.59375 54.6875 
L 46.1875 54.6875 
L 57.421875 12.015625 
L 68.609375 54.6875 
L 77.59375 54.6875 
L 63.28125 0 
L 52.6875 0 
L 40.921875 44.828125 
L 29.109375 0 
L 18.5 0 
z
" id="DejaVuSans-119"/>
     <path d="M 30.609375 48.390625 
Q 23.390625 48.390625 19.1875 42.75 
Q 14.984375 37.109375 14.984375 27.296875 
Q 14.984375 17.484375 19.15625 11.84375 
Q 23.34375 6.203125 30.609375 6.203125 
Q 37.796875 6.203125 41.984375 11.859375 
Q 46.1875 17.53125 46.1875 27.296875 
Q 46.1875 37.015625 41.984375 42.703125 
Q 37.796875 48.390625 30.609375 48.390625 
z
M 30.609375 56 
Q 42.328125 56 49.015625 48.375 
Q 55.71875 40.765625 55.71875 27.296875 
Q 55.71875 13.875 49.015625 6.21875 
Q 42.328125 -1.421875 30.609375 -1.421875 
Q 18.84375 -1.421875 12.171875 6.21875 
Q 5.515625 13.875 5.515625 27.296875 
Q 5.515625 40.765625 12.171875 48.375 
Q 18.84375 56 30.609375 56 
z
" id="DejaVuSans-111"/>
     <path d="M 9.421875 75.984375 
L 18.40625 75.984375 
L 18.40625 0 
L 9.421875 0 
z
" id="DejaVuSans-108"/>
     <path d="M 50.984375 -16.609375 
L 50.984375 -23.578125 
L -0.984375 -23.578125 
L -0.984375 -16.609375 
z
" id="DejaVuSans-95"/>
     <path d="M 11.71875 12.40625 
L 22.015625 12.40625 
L 22.015625 0 
L 11.71875 0 
z
M 11.71875 51.703125 
L 22.015625 51.703125 
L 22.015625 39.3125 
L 11.71875 39.3125 
z
" id="DejaVuSans-58"/>
     <path id="DejaVuSans-32"/>
     <path d="M 56.203125 29.59375 
L 56.203125 25.203125 
L 14.890625 25.203125 
Q 15.484375 15.921875 20.484375 11.0625 
Q 25.484375 6.203125 34.421875 6.203125 
Q 39.59375 6.203125 44.453125 7.46875 
Q 49.3125 8.734375 54.109375 11.28125 
L 54.109375 2.78125 
Q 49.265625 0.734375 44.1875 -0.34375 
Q 39.109375 -1.421875 33.890625 -1.421875 
Q 20.796875 -1.421875 13.15625 6.1875 
Q 5.515625 13.8125 5.515625 26.8125 
Q 5.515625 40.234375 12.765625 48.109375 
Q 20.015625 56 32.328125 56 
Q 43.359375 56 49.78125 48.890625 
Q 56.203125 41.796875 56.203125 29.59375 
z
M 47.21875 32.234375 
Q 47.125 39.59375 43.09375 43.984375 
Q 39.0625 48.390625 32.421875 48.390625 
Q 24.90625 48.390625 20.390625 44.140625 
Q 15.875 39.890625 15.1875 32.171875 
z
" id="DejaVuSans-101"/>
     <path d="M 18.109375 8.203125 
L 18.109375 -20.796875 
L 9.078125 -20.796875 
L 9.078125 54.6875 
L 18.109375 54.6875 
L 18.109375 46.390625 
Q 20.953125 51.265625 25.265625 53.625 
Q 29.59375 56 35.59375 56 
Q 45.5625 56 51.78125 48.09375 
Q 58.015625 40.1875 58.015625 27.296875 
Q 58.015625 14.40625 51.78125 6.484375 
Q 45.5625 -1.421875 35.59375 -1.421875 
Q 29.59375 -1.421875 25.265625 0.953125 
Q 20.953125 3.328125 18.109375 8.203125 
z
M 48.6875 27.296875 
Q 48.6875 37.203125 44.609375 42.84375 
Q 40.53125 48.484375 33.40625 48.484375 
Q 26.265625 48.484375 22.1875 42.84375 
Q 18.109375 37.203125 18.109375 27.296875 
Q 18.109375 17.390625 22.1875 11.75 
Q 26.265625 6.109375 33.40625 6.109375 
Q 40.53125 6.109375 44.609375 11.75 
Q 48.6875 17.390625 48.6875 27.296875 
z
" id="DejaVuSans-112"/>
     <path d="M 44.28125 53.078125 
L 44.28125 44.578125 
Q 40.484375 46.53125 36.375 47.5 
Q 32.28125 48.484375 27.875 48.484375 
Q 21.1875 48.484375 17.84375 46.4375 
Q 14.5 44.390625 14.5 40.28125 
Q 14.5 37.15625 16.890625 35.375 
Q 19.28125 33.59375 26.515625 31.984375 
L 29.59375 31.296875 
Q 39.15625 29.25 43.1875 25.515625 
Q 47.21875 21.78125 47.21875 15.09375 
Q 47.21875 7.46875 41.1875 3.015625 
Q 35.15625 -1.421875 24.609375 -1.421875 
Q 20.21875 -1.421875 15.453125 -0.5625 
Q 10.6875 0.296875 5.421875 2 
L 5.421875 11.28125 
Q 10.40625 8.6875 15.234375 7.390625 
Q 20.0625 6.109375 24.8125 6.109375 
Q 31.15625 6.109375 34.5625 8.28125 
Q 37.984375 10.453125 37.984375 14.40625 
Q 37.984375 18.0625 35.515625 20.015625 
Q 33.0625 21.96875 24.703125 23.78125 
L 21.578125 24.515625 
Q 13.234375 26.265625 9.515625 29.90625 
Q 5.8125 33.546875 5.8125 39.890625 
Q 5.8125 47.609375 11.28125 51.796875 
Q 16.75 56 26.8125 56 
Q 31.78125 56 36.171875 55.265625 
Q 40.578125 54.546875 44.28125 53.078125 
z
" id="DejaVuSans-115"/>
     <path d="M 54.890625 54.6875 
L 35.109375 28.078125 
L 55.90625 0 
L 45.3125 0 
L 29.390625 21.484375 
L 13.484375 0 
L 2.875 0 
L 24.125 28.609375 
L 4.6875 54.6875 
L 15.28125 54.6875 
L 29.78125 35.203125 
L 44.28125 54.6875 
z
" id="DejaVuSans-120"/>
     <path d="M 48.78125 52.59375 
L 48.78125 44.1875 
Q 44.96875 46.296875 41.140625 47.34375 
Q 37.3125 48.390625 33.40625 48.390625 
Q 24.65625 48.390625 19.8125 42.84375 
Q 14.984375 37.3125 14.984375 27.296875 
Q 14.984375 17.28125 19.8125 11.734375 
Q 24.65625 6.203125 33.40625 6.203125 
Q 37.3125 6.203125 41.140625 7.25 
Q 44.96875 8.296875 48.78125 10.40625 
L 48.78125 2.09375 
Q 45.015625 0.34375 40.984375 -0.53125 
Q 36.96875 -1.421875 32.421875 -1.421875 
Q 20.0625 -1.421875 12.78125 6.34375 
Q 5.515625 14.109375 5.515625 27.296875 
Q 5.515625 40.671875 12.859375 48.328125 
Q 20.21875 56 33.015625 56 
Q 37.15625 56 41.109375 55.140625 
Q 45.0625 54.296875 48.78125 52.59375 
z
" id="DejaVuSans-99"/>
     <path d="M 8.5 21.578125 
L 8.5 54.6875 
L 17.484375 54.6875 
L 17.484375 21.921875 
Q 17.484375 14.15625 20.5 10.265625 
Q 23.53125 6.390625 29.59375 6.390625 
Q 36.859375 6.390625 41.078125 11.03125 
Q 45.3125 15.671875 45.3125 23.6875 
L 45.3125 54.6875 
L 54.296875 54.6875 
L 54.296875 0 
L 45.3125 0 
L 45.3125 8.40625 
Q 42.046875 3.421875 37.71875 1 
Q 33.40625 -1.421875 27.6875 -1.421875 
Q 18.265625 -1.421875 13.375 4.4375 
Q 8.5 10.296875 8.5 21.578125 
z
M 31.109375 56 
z
" id="DejaVuSans-117"/>
     <path d="M 18.3125 70.21875 
L 18.3125 54.6875 
L 36.8125 54.6875 
L 36.8125 47.703125 
L 18.3125 47.703125 
L 18.3125 18.015625 
Q 18.3125 11.328125 20.140625 9.421875 
Q 21.96875 7.515625 27.59375 7.515625 
L 36.8125 7.515625 
L 36.8125 0 
L 27.59375 0 
Q 17.1875 0 13.234375 3.875 
Q 9.28125 7.765625 9.28125 18.015625 
L 9.28125 47.703125 
L 2.6875 47.703125 
L 2.6875 54.6875 
L 9.28125 54.6875 
L 9.28125 70.21875 
z
" id="DejaVuSans-116"/>
     <path d="M 54.890625 33.015625 
L 54.890625 0 
L 45.90625 0 
L 45.90625 32.71875 
Q 45.90625 40.484375 42.875 44.328125 
Q 39.84375 48.1875 33.796875 48.1875 
Q 26.515625 48.1875 22.3125 43.546875 
Q 18.109375 38.921875 18.109375 30.90625 
L 18.109375 0 
L 9.078125 0 
L 9.078125 54.6875 
L 18.109375 54.6875 
L 18.109375 46.1875 
Q 21.34375 51.125 25.703125 53.5625 
Q 30.078125 56 35.796875 56 
Q 45.21875 56 50.046875 50.171875 
Q 54.890625 44.34375 54.890625 33.015625 
z
" id="DejaVuSans-110"/>
     <path d="M 52 44.1875 
Q 55.375 50.25 60.0625 53.125 
Q 64.75 56 71.09375 56 
Q 79.640625 56 84.28125 50.015625 
Q 88.921875 44.046875 88.921875 33.015625 
L 88.921875 0 
L 79.890625 0 
L 79.890625 32.71875 
Q 79.890625 40.578125 77.09375 44.375 
Q 74.3125 48.1875 68.609375 48.1875 
Q 61.625 48.1875 57.5625 43.546875 
Q 53.515625 38.921875 53.515625 30.90625 
L 53.515625 0 
L 44.484375 0 
L 44.484375 32.71875 
Q 44.484375 40.625 41.703125 44.40625 
Q 38.921875 48.1875 33.109375 48.1875 
Q 26.21875 48.1875 22.15625 43.53125 
Q 18.109375 38.875 18.109375 30.90625 
L 18.109375 0 
L 9.078125 0 
L 9.078125 54.6875 
L 18.109375 54.6875 
L 18.109375 46.1875 
Q 21.1875 51.21875 25.484375 53.609375 
Q 29.78125 56 35.6875 56 
Q 41.65625 56 45.828125 52.96875 
Q 50 49.953125 52 44.1875 
z
" id="DejaVuSans-109"/>
     <path d="M 11.71875 12.40625 
L 22.015625 12.40625 
L 22.015625 4 
L 14.015625 -11.625 
L 7.71875 -11.625 
L 11.71875 4 
z
" id="DejaVuSans-44"/>
     <path d="M 9.8125 72.90625 
L 24.515625 72.90625 
L 43.109375 23.296875 
L 61.8125 72.90625 
L 76.515625 72.90625 
L 76.515625 0 
L 66.890625 0 
L 66.890625 64.015625 
L 48.09375 14.015625 
L 38.1875 14.015625 
L 19.390625 64.015625 
L 19.390625 0 
L 9.8125 0 
z
" id="DejaVuSans-77"/>
     <path d="M 34.1875 63.1875 
L 20.796875 26.90625 
L 47.609375 26.90625 
z
M 28.609375 72.90625 
L 39.796875 72.90625 
L 67.578125 0 
L 57.328125 0 
L 50.6875 18.703125 
L 17.828125 18.703125 
L 11.1875 0 
L 0.78125 0 
z
" id="DejaVuSans-65"/>
     <path d="M 10.59375 45.40625 
L 73.1875 45.40625 
L 73.1875 37.203125 
L 10.59375 37.203125 
z
M 10.59375 25.484375 
L 73.1875 25.484375 
L 73.1875 17.1875 
L 10.59375 17.1875 
z
" id="DejaVuSans-61"/>
    </defs>
    <g transform="translate(233.15625 20.16)scale(0.12 -0.12)">
     <use xlink:href="#DejaVuSans-103"/>
     <use x="63.476562" xlink:href="#DejaVuSans-114"/>
     <use x="104.589844" xlink:href="#DejaVuSans-105"/>
     <use x="132.373047" xlink:href="#DejaVuSans-100"/>
     <use x="195.849609" xlink:href="#DejaVuSans-119"/>
     <use x="277.636719" xlink:href="#DejaVuSans-111"/>
     <use x="338.818359" xlink:href="#DejaVuSans-114"/>
     <use x="379.931641" xlink:href="#DejaVuSans-108"/>
     <use x="407.714844" xlink:href="#DejaVuSans-100"/>
     <use x="471.191406" xlink:href="#DejaVuSans-95"/>
     <use x="521.191406" xlink:href="#DejaVuSans-48"/>
     <use x="584.814453" xlink:href="#DejaVuSans-58"/>
     <use x="618.505859" xlink:href="#DejaVuSans-32"/>
     <use x="650.292969" xlink:href="#DejaVuSans-101"/>
     <use x="711.816406" xlink:href="#DejaVuSans-112"/>
     <use x="775.292969" xlink:href="#DejaVuSans-105"/>
     <use x="803.076172" xlink:href="#DejaVuSans-115"/>
     <use x="855.175781" xlink:href="#DejaVuSans-111"/>
     <use x="916.357422" xlink:href="#DejaVuSans-100"/>
     <use x="979.833984" xlink:href="#DejaVuSans-101"/>
     <use x="1041.357422" xlink:href="#DejaVuSans-32"/>
     <use x="1073.144531" xlink:href="#DejaVuSans-101"/>
     <use x="1134.652344" xlink:href="#DejaVuSans-120"/>
     <use x="1193.785156" xlink:href="#DejaVuSans-101"/>
     <use x="1255.308594" xlink:href="#DejaVuSans-99"/>
     <use x="1310.289062" xlink:href="#DejaVuSans-117"/>
     <use x="1373.667969" xlink:href="#DejaVuSans-116"/>
     <use x="1412.876953" xlink:href="#DejaVuSans-105"/>
     <use x="1440.660156" xlink:href="#DejaVuSans-111"/>
     <use x="1501.841797" xlink:href="#DejaVuSans-110"/>
     <use x="1565.220703" xlink:href="#DejaVuSans-32"/>
     <use x="1597.007812" xlink:href="#DejaVuSans-116"/>
     <use x="1636.216797" xlink:href="#DejaVuSans-105"/>
     <use x="1664" xlink:href="#DejaVuSans-109"/>
     <use x="1761.412109" xlink:href="#DejaVuSans-101"/>
     <use x="1822.935547" xlink:href="#DejaVuSans-44"/>
     <use x="1854.722656" xlink:href="#DejaVuSans-32"/>
     <use x="1886.509766" xlink:href="#DejaVuSans-115"/>
     <use x="1938.609375" xlink:href="#DejaVuSans-101"/>
     <use x="2000.132812" xlink:href="#DejaVuSans-99"/>
     <use x="2055.113281" xlink:href="#DejaVuSans-44"/>
     <use x="2086.900391" xlink:href="#DejaVuSans-32"/>
     <use x="2118.6875" xlink:href="#DejaVuSans-77"/>
     <use x="2204.966797" xlink:href="#DejaVuSans-65"/>
     <use x="2273.375" xlink:href="#DejaVuSans-61"/>
     <use x="2357.164062" xlink:href="#DejaVuSans-49"/>
     <use x="2420.787109" xlink:href="#DejaVuSans-48"/>
    </g>
   </g>
   <g id="legend_1">
    <g id="patch_7">
     <path d="M 763.038937 261.369687 
L 854.103 261.369687 
Q 856.103 261.369687 856.103 259.369687 
L 856.103 170.910313 
Q 856.103 168.910313 854.103 168.910313 
L 763.038937 168.910313 
Q 761.038937 168.910313 761.038937 170.910313 
L 761.038937 259.369687 
Q 761.038937 261.369687 763.038937 261.369687 
z
" style="fill:#ffffff;opacity:0.8;stroke:#cccccc;stroke-linejoin:miter;"/>
    </g>
    <g id="line2d_19">
     <path d="M 765.038937 177.00875 
L 785.038937 177.00875 
" style="fill:none;stroke:#1f77b4;stroke-linecap:square;stroke-width:1.5;"/>
    </g>
    <g id="line2d_20"/>
    <g id="text_14">
     <!-- dqn_greedy -->
     <defs>
      <path d="M 14.796875 27.296875 
Q 14.796875 17.390625 18.875 11.75 
Q 22.953125 6.109375 30.078125 6.109375 
Q 37.203125 6.109375 41.296875 11.75 
Q 45.40625 17.390625 45.40625 27.296875 
Q 45.40625 37.203125 41.296875 42.84375 
Q 37.203125 48.484375 30.078125 48.484375 
Q 22.953125 48.484375 18.875 42.84375 
Q 14.796875 37.203125 14.796875 27.296875 
z
M 45.40625 8.203125 
Q 42.578125 3.328125 38.25 0.953125 
Q 33.9375 -1.421875 27.875 -1.421875 
Q 17.96875 -1.421875 11.734375 6.484375 
Q 5.515625 14.40625 5.515625 27.296875 
Q 5.515625 40.1875 11.734375 48.09375 
Q 17.96875 56 27.875 56 
Q 33.9375 56 38.25 53.625 
Q 42.578125 51.265625 45.40625 46.390625 
L 45.40625 54.6875 
L 54.390625 54.6875 
L 54.390625 -20.796875 
L 45.40625 -20.796875 
z
" id="DejaVuSans-113"/>
      <path d="M 32.171875 -5.078125 
Q 28.375 -14.84375 24.75 -17.8125 
Q 21.140625 -20.796875 15.09375 -20.796875 
L 7.90625 -20.796875 
L 7.90625 -13.28125 
L 13.1875 -13.28125 
Q 16.890625 -13.28125 18.9375 -11.515625 
Q 21 -9.765625 23.484375 -3.21875 
L 25.09375 0.875 
L 2.984375 54.6875 
L 12.5 54.6875 
L 29.59375 11.921875 
L 46.6875 54.6875 
L 56.203125 54.6875 
z
" id="DejaVuSans-121"/>
     </defs>
     <g transform="translate(793.038937 180.50875)scale(0.1 -0.1)">
      <use xlink:href="#DejaVuSans-100"/>
      <use x="63.476562" xlink:href="#DejaVuSans-113"/>
      <use x="126.953125" xlink:href="#DejaVuSans-110"/>
      <use x="190.332031" xlink:href="#DejaVuSans-95"/>
      <use x="240.332031" xlink:href="#DejaVuSans-103"/>
      <use x="303.808594" xlink:href="#DejaVuSans-114"/>
      <use x="344.890625" xlink:href="#DejaVuSans-101"/>
      <use x="406.414062" xlink:href="#DejaVuSans-101"/>
      <use x="467.9375" xlink:href="#DejaVuSans-100"/>
      <use x="531.414062" xlink:href="#DejaVuSans-121"/>
     </g>
    </g>
    <g id="line2d_21">
     <path d="M 765.038937 191.965 
L 785.038937 191.965 
" style="fill:none;stroke:#ff7f0e;stroke-linecap:square;stroke-width:1.5;"/>
    </g>
    <g id="line2d_22"/>
    <g id="text_15">
     <!-- htm_0 -->
     <defs>
      <path d="M 54.890625 33.015625 
L 54.890625 0 
L 45.90625 0 
L 45.90625 32.71875 
Q 45.90625 40.484375 42.875 44.328125 
Q 39.84375 48.1875 33.796875 48.1875 
Q 26.515625 48.1875 22.3125 43.546875 
Q 18.109375 38.921875 18.109375 30.90625 
L 18.109375 0 
L 9.078125 0 
L 9.078125 75.984375 
L 18.109375 75.984375 
L 18.109375 46.1875 
Q 21.34375 51.125 25.703125 53.5625 
Q 30.078125 56 35.796875 56 
Q 45.21875 56 50.046875 50.171875 
Q 54.890625 44.34375 54.890625 33.015625 
z
" id="DejaVuSans-104"/>
     </defs>
     <g transform="translate(793.038937 195.465)scale(0.1 -0.1)">
      <use xlink:href="#DejaVuSans-104"/>
      <use x="63.378906" xlink:href="#DejaVuSans-116"/>
      <use x="102.587891" xlink:href="#DejaVuSans-109"/>
      <use x="200" xlink:href="#DejaVuSans-95"/>
      <use x="250" xlink:href="#DejaVuSans-48"/>
     </g>
    </g>
    <g id="line2d_23">
     <path d="M 765.038937 206.92125 
L 785.038937 206.92125 
" style="fill:none;stroke:#2ca02c;stroke-linecap:square;stroke-width:1.5;"/>
    </g>
    <g id="line2d_24"/>
    <g id="text_16">
     <!-- htm_1_1g -->
     <g transform="translate(793.038937 210.42125)scale(0.1 -0.1)">
      <use xlink:href="#DejaVuSans-104"/>
      <use x="63.378906" xlink:href="#DejaVuSans-116"/>
      <use x="102.587891" xlink:href="#DejaVuSans-109"/>
      <use x="200" xlink:href="#DejaVuSans-95"/>
      <use x="250" xlink:href="#DejaVuSans-49"/>
      <use x="313.623047" xlink:href="#DejaVuSans-95"/>
      <use x="363.623047" xlink:href="#DejaVuSans-49"/>
      <use x="427.246094" xlink:href="#DejaVuSans-103"/>
     </g>
    </g>
    <g id="line2d_25">
     <path d="M 765.038937 221.8775 
L 785.038937 221.8775 
" style="fill:none;stroke:#d62728;stroke-linecap:square;stroke-width:1.5;"/>
    </g>
    <g id="line2d_26"/>
    <g id="text_17">
     <!-- htm_2_1g -->
     <g transform="translate(793.038937 225.3775)scale(0.1 -0.1)">
      <use xlink:href="#DejaVuSans-104"/>
      <use x="63.378906" xlink:href="#DejaVuSans-116"/>
      <use x="102.587891" xlink:href="#DejaVuSans-109"/>
      <use x="200" xlink:href="#DejaVuSans-95"/>
      <use x="250" xlink:href="#DejaVuSans-50"/>
      <use x="313.623047" xlink:href="#DejaVuSans-95"/>
      <use x="363.623047" xlink:href="#DejaVuSans-49"/>
      <use x="427.246094" xlink:href="#DejaVuSans-103"/>
     </g>
    </g>
    <g id="line2d_27">
     <path d="M 765.038937 236.83375 
L 785.038937 236.83375 
" style="fill:none;stroke:#9467bd;stroke-linecap:square;stroke-width:1.5;"/>
    </g>
    <g id="line2d_28"/>
    <g id="text_18">
     <!-- htm_4_1g -->
     <g transform="translate(793.038937 240.33375)scale(0.1 -0.1)">
      <use xlink:href="#DejaVuSans-104"/>
      <use x="63.378906" xlink:href="#DejaVuSans-116"/>
      <use x="102.587891" xlink:href="#DejaVuSans-109"/>
      <use x="200" xlink:href="#DejaVuSans-95"/>
      <use x="250" xlink:href="#DejaVuSans-52"/>
      <use x="313.623047" xlink:href="#DejaVuSans-95"/>
      <use x="363.623047" xlink:href="#DejaVuSans-49"/>
      <use x="427.246094" xlink:href="#DejaVuSans-103"/>
     </g>
    </g>
    <g id="line2d_29">
     <path d="M 765.038937 251.79 
L 785.038937 251.79 
" style="fill:none;stroke:#8c564b;stroke-linecap:square;stroke-width:1.5;"/>
    </g>
    <g id="line2d_30"/>
    <g id="text_19">
     <!-- mcts -->
     <g transform="translate(793.038937 255.29)scale(0.1 -0.1)">
      <use xlink:href="#DejaVuSans-109"/>
      <use x="97.412109" xlink:href="#DejaVuSans-99"/>
      <use x="152.392578" xlink:href="#DejaVuSans-116"/>
      <use x="191.601562" xlink:href="#DejaVuSans-115"/>
     </g>
    </g>
   </g>
  </g>
 </g>
 <defs>
  <clipPath id="p79710f02c5">
   <rect height="377.96" width="684.115" x="40.165" y="26.16"/>
  </clipPath>
 </defs>
</svg>
