<?xml version="1.0" encoding="utf-8" standalone="no"?>
<!DOCTYPE svg PUBLIC "-//W3C//DTD SVG 1.1//EN"
  "http://www.w3.org/Graphics/SVG/1.1/DTD/svg11.dtd">
<!-- Created with matplotlib (https://matplotlib.org/) -->
<svg height="432pt" version="1.1" viewBox="0 0 864 432" width="864pt" xmlns="http://www.w3.org/2000/svg" xmlns:xlink="http://www.w3.org/1999/xlink">
 <defs>
  <style type="text/css">
*{stroke-linecap:butt;stroke-linejoin:round;}
  </style>
 </defs>
 <g id="figure_1">
  <g id="patch_1">
   <path d="M 0 432 
L 864 432 
L 864 0 
L 0 0 
z
" style="fill:#ffffff;"/>
  </g>
  <g id="axes_1">
   <g id="patch_2">
    <path d="M 30.58 404.12 
L 724.28 404.12 
L 724.28 26.16 
L 30.58 26.16 
z
" style="fill:#ffffff;"/>
   </g>
   <g id="matplotlib.axis_1">
    <g id="xtick_1">
     <g id="line2d_1">
      <defs>
       <path d="M 0 0 
L 0 3.5 
" id="m131bff68c3" style="stroke:#000000;stroke-width:0.8;"/>
      </defs>
      <g>
       <use style="stroke:#000000;stroke-width:0.8;" x="30.58" xlink:href="#m131bff68c3" y="404.12"/>
      </g>
     </g>
     <g id="text_1">
      <!-- 0 -->
      <defs>
       <path d="M 31.78125 66.40625 
Q 24.171875 66.40625 20.328125 58.90625 
Q 16.5 51.421875 16.5 36.375 
Q 16.5 21.390625 20.328125 13.890625 
Q 24.171875 6.390625 31.78125 6.390625 
Q 39.453125 6.390625 43.28125 13.890625 
Q 47.125 21.390625 47.125 36.375 
Q 47.125 51.421875 43.28125 58.90625 
Q 39.453125 66.40625 31.78125 66.40625 
z
M 31.78125 74.21875 
Q 44.046875 74.21875 50.515625 64.515625 
Q 56.984375 54.828125 56.984375 36.375 
Q 56.984375 17.96875 50.515625 8.265625 
Q 44.046875 -1.421875 31.78125 -1.421875 
Q 19.53125 -1.421875 13.0625 8.265625 
Q 6.59375 17.96875 6.59375 36.375 
Q 6.59375 54.828125 13.0625 64.515625 
Q 19.53125 74.21875 31.78125 74.21875 
z
" id="DejaVuSans-48"/>
      </defs>
      <g transform="translate(27.39875 418.718437)scale(0.1 -0.1)">
       <use xlink:href="#DejaVuSans-48"/>
      </g>
     </g>
    </g>
    <g id="xtick_2">
     <g id="line2d_2">
      <g>
       <use style="stroke:#000000;stroke-width:0.8;" x="169.458879" xlink:href="#m131bff68c3" y="404.12"/>
      </g>
     </g>
     <g id="text_2">
      <!-- 200 -->
      <defs>
       <path d="M 19.1875 8.296875 
L 53.609375 8.296875 
L 53.609375 0 
L 7.328125 0 
L 7.328125 8.296875 
Q 12.9375 14.109375 22.625 23.890625 
Q 32.328125 33.6875 34.8125 36.53125 
Q 39.546875 41.84375 41.421875 45.53125 
Q 43.3125 49.21875 43.3125 52.78125 
Q 43.3125 58.59375 39.234375 62.25 
Q 35.15625 65.921875 28.609375 65.921875 
Q 23.96875 65.921875 18.8125 64.3125 
Q 13.671875 62.703125 7.8125 59.421875 
L 7.8125 69.390625 
Q 13.765625 71.78125 18.9375 73 
Q 24.125 74.21875 28.421875 74.21875 
Q 39.75 74.21875 46.484375 68.546875 
Q 53.21875 62.890625 53.21875 53.421875 
Q 53.21875 48.921875 51.53125 44.890625 
Q 49.859375 40.875 45.40625 35.40625 
Q 44.1875 33.984375 37.640625 27.21875 
Q 31.109375 20.453125 19.1875 8.296875 
z
" id="DejaVuSans-50"/>
      </defs>
      <g transform="translate(159.915129 418.718437)scale(0.1 -0.1)">
       <use xlink:href="#DejaVuSans-50"/>
       <use x="63.623047" xlink:href="#DejaVuSans-48"/>
       <use x="127.246094" xlink:href="#DejaVuSans-48"/>
      </g>
     </g>
    </g>
    <g id="xtick_3">
     <g id="line2d_3">
      <g>
       <use style="stroke:#000000;stroke-width:0.8;" x="308.337758" xlink:href="#m131bff68c3" y="404.12"/>
      </g>
     </g>
     <g id="text_3">
      <!-- 400 -->
      <defs>
       <path d="M 37.796875 64.3125 
L 12.890625 25.390625 
L 37.796875 25.390625 
z
M 35.203125 72.90625 
L 47.609375 72.90625 
L 47.609375 25.390625 
L 58.015625 25.390625 
L 58.015625 17.1875 
L 47.609375 17.1875 
L 47.609375 0 
L 37.796875 0 
L 37.796875 17.1875 
L 4.890625 17.1875 
L 4.890625 26.703125 
z
" id="DejaVuSans-52"/>
      </defs>
      <g transform="translate(298.794008 418.718437)scale(0.1 -0.1)">
       <use xlink:href="#DejaVuSans-52"/>
       <use x="63.623047" xlink:href="#DejaVuSans-48"/>
       <use x="127.246094" xlink:href="#DejaVuSans-48"/>
      </g>
     </g>
    </g>
    <g id="xtick_4">
     <g id="line2d_4">
      <g>
       <use style="stroke:#000000;stroke-width:0.8;" x="447.216637" xlink:href="#m131bff68c3" y="404.12"/>
      </g>
     </g>
     <g id="text_4">
      <!-- 600 -->
      <defs>
       <path d="M 33.015625 40.375 
Q 26.375 40.375 22.484375 35.828125 
Q 18.609375 31.296875 18.609375 23.390625 
Q 18.609375 15.53125 22.484375 10.953125 
Q 26.375 6.390625 33.015625 6.390625 
Q 39.65625 6.390625 43.53125 10.953125 
Q 47.40625 15.53125 47.40625 23.390625 
Q 47.40625 31.296875 43.53125 35.828125 
Q 39.65625 40.375 33.015625 40.375 
z
M 52.59375 71.296875 
L 52.59375 62.3125 
Q 48.875 64.0625 45.09375 64.984375 
Q 41.3125 65.921875 37.59375 65.921875 
Q 27.828125 65.921875 22.671875 59.328125 
Q 17.53125 52.734375 16.796875 39.40625 
Q 19.671875 43.65625 24.015625 45.921875 
Q 28.375 48.1875 33.59375 48.1875 
Q 44.578125 48.1875 50.953125 41.515625 
Q 57.328125 34.859375 57.328125 23.390625 
Q 57.328125 12.15625 50.6875 5.359375 
Q 44.046875 -1.421875 33.015625 -1.421875 
Q 20.359375 -1.421875 13.671875 8.265625 
Q 6.984375 17.96875 6.984375 36.375 
Q 6.984375 53.65625 15.1875 63.9375 
Q 23.390625 74.21875 37.203125 74.21875 
Q 40.921875 74.21875 44.703125 73.484375 
Q 48.484375 72.75 52.59375 71.296875 
z
" id="DejaVuSans-54"/>
      </defs>
      <g transform="translate(437.672887 418.718437)scale(0.1 -0.1)">
       <use xlink:href="#DejaVuSans-54"/>
       <use x="63.623047" xlink:href="#DejaVuSans-48"/>
       <use x="127.246094" xlink:href="#DejaVuSans-48"/>
      </g>
     </g>
    </g>
    <g id="xtick_5">
     <g id="line2d_5">
      <g>
       <use style="stroke:#000000;stroke-width:0.8;" x="586.095516" xlink:href="#m131bff68c3" y="404.12"/>
      </g>
     </g>
     <g id="text_5">
      <!-- 800 -->
      <defs>
       <path d="M 31.78125 34.625 
Q 24.75 34.625 20.71875 30.859375 
Q 16.703125 27.09375 16.703125 20.515625 
Q 16.703125 13.921875 20.71875 10.15625 
Q 24.75 6.390625 31.78125 6.390625 
Q 38.8125 6.390625 42.859375 10.171875 
Q 46.921875 13.96875 46.921875 20.515625 
Q 46.921875 27.09375 42.890625 30.859375 
Q 38.875 34.625 31.78125 34.625 
z
M 21.921875 38.8125 
Q 15.578125 40.375 12.03125 44.71875 
Q 8.5 49.078125 8.5 55.328125 
Q 8.5 64.0625 14.71875 69.140625 
Q 20.953125 74.21875 31.78125 74.21875 
Q 42.671875 74.21875 48.875 69.140625 
Q 55.078125 64.0625 55.078125 55.328125 
Q 55.078125 49.078125 51.53125 44.71875 
Q 48 40.375 41.703125 38.8125 
Q 48.828125 37.15625 52.796875 32.3125 
Q 56.78125 27.484375 56.78125 20.515625 
Q 56.78125 9.90625 50.3125 4.234375 
Q 43.84375 -1.421875 31.78125 -1.421875 
Q 19.734375 -1.421875 13.25 4.234375 
Q 6.78125 9.90625 6.78125 20.515625 
Q 6.78125 27.484375 10.78125 32.3125 
Q 14.796875 37.15625 21.921875 38.8125 
z
M 18.3125 54.390625 
Q 18.3125 48.734375 21.84375 45.5625 
Q 25.390625 42.390625 31.78125 42.390625 
Q 38.140625 42.390625 41.71875 45.5625 
Q 45.3125 48.734375 45.3125 54.390625 
Q 45.3125 60.0625 41.71875 63.234375 
Q 38.140625 66.40625 31.78125 66.40625 
Q 25.390625 66.40625 21.84375 63.234375 
Q 18.3125 60.0625 18.3125 54.390625 
z
" id="DejaVuSans-56"/>
      </defs>
      <g transform="translate(576.551766 418.718437)scale(0.1 -0.1)">
       <use xlink:href="#DejaVuSans-56"/>
       <use x="63.623047" xlink:href="#DejaVuSans-48"/>
       <use x="127.246094" xlink:href="#DejaVuSans-48"/>
      </g>
     </g>
    </g>
   </g>
   <g id="matplotlib.axis_2">
    <g id="ytick_1">
     <g id="line2d_6">
      <defs>
       <path d="M 0 0 
L -3.5 0 
" id="m13b6714901" style="stroke:#000000;stroke-width:0.8;"/>
      </defs>
      <g>
       <use style="stroke:#000000;stroke-width:0.8;" x="30.58" xlink:href="#m13b6714901" y="395.466055"/>
      </g>
     </g>
     <g id="text_6">
      <!-- 0 -->
      <g transform="translate(17.2175 399.265273)scale(0.1 -0.1)">
       <use xlink:href="#DejaVuSans-48"/>
      </g>
     </g>
    </g>
    <g id="ytick_2">
     <g id="line2d_7">
      <g>
       <use style="stroke:#000000;stroke-width:0.8;" x="30.58" xlink:href="#m13b6714901" y="352.835782"/>
      </g>
     </g>
     <g id="text_7">
      <!-- 10 -->
      <defs>
       <path d="M 12.40625 8.296875 
L 28.515625 8.296875 
L 28.515625 63.921875 
L 10.984375 60.40625 
L 10.984375 69.390625 
L 28.421875 72.90625 
L 38.28125 72.90625 
L 38.28125 8.296875 
L 54.390625 8.296875 
L 54.390625 0 
L 12.40625 0 
z
" id="DejaVuSans-49"/>
      </defs>
      <g transform="translate(10.855 356.635)scale(0.1 -0.1)">
       <use xlink:href="#DejaVuSans-49"/>
       <use x="63.623047" xlink:href="#DejaVuSans-48"/>
      </g>
     </g>
    </g>
    <g id="ytick_3">
     <g id="line2d_8">
      <g>
       <use style="stroke:#000000;stroke-width:0.8;" x="30.58" xlink:href="#m13b6714901" y="310.205509"/>
      </g>
     </g>
     <g id="text_8">
      <!-- 20 -->
      <g transform="translate(10.855 314.004727)scale(0.1 -0.1)">
       <use xlink:href="#DejaVuSans-50"/>
       <use x="63.623047" xlink:href="#DejaVuSans-48"/>
      </g>
     </g>
    </g>
    <g id="ytick_4">
     <g id="line2d_9">
      <g>
       <use style="stroke:#000000;stroke-width:0.8;" x="30.58" xlink:href="#m13b6714901" y="267.575236"/>
      </g>
     </g>
     <g id="text_9">
      <!-- 30 -->
      <defs>
       <path d="M 40.578125 39.3125 
Q 47.65625 37.796875 51.625 33 
Q 55.609375 28.21875 55.609375 21.1875 
Q 55.609375 10.40625 48.1875 4.484375 
Q 40.765625 -1.421875 27.09375 -1.421875 
Q 22.515625 -1.421875 17.65625 -0.515625 
Q 12.796875 0.390625 7.625 2.203125 
L 7.625 11.71875 
Q 11.71875 9.328125 16.59375 8.109375 
Q 21.484375 6.890625 26.8125 6.890625 
Q 36.078125 6.890625 40.9375 10.546875 
Q 45.796875 14.203125 45.796875 21.1875 
Q 45.796875 27.640625 41.28125 31.265625 
Q 36.765625 34.90625 28.71875 34.90625 
L 20.21875 34.90625 
L 20.21875 43.015625 
L 29.109375 43.015625 
Q 36.375 43.015625 40.234375 45.921875 
Q 44.09375 48.828125 44.09375 54.296875 
Q 44.09375 59.90625 40.109375 62.90625 
Q 36.140625 65.921875 28.71875 65.921875 
Q 24.65625 65.921875 20.015625 65.03125 
Q 15.375 64.15625 9.8125 62.3125 
L 9.8125 71.09375 
Q 15.4375 72.65625 20.34375 73.4375 
Q 25.25 74.21875 29.59375 74.21875 
Q 40.828125 74.21875 47.359375 69.109375 
Q 53.90625 64.015625 53.90625 55.328125 
Q 53.90625 49.265625 50.4375 45.09375 
Q 46.96875 40.921875 40.578125 39.3125 
z
" id="DejaVuSans-51"/>
      </defs>
      <g transform="translate(10.855 271.374454)scale(0.1 -0.1)">
       <use xlink:href="#DejaVuSans-51"/>
       <use x="63.623047" xlink:href="#DejaVuSans-48"/>
      </g>
     </g>
    </g>
    <g id="ytick_5">
     <g id="line2d_10">
      <g>
       <use style="stroke:#000000;stroke-width:0.8;" x="30.58" xlink:href="#m13b6714901" y="224.944963"/>
      </g>
     </g>
     <g id="text_10">
      <!-- 40 -->
      <g transform="translate(10.855 228.744182)scale(0.1 -0.1)">
       <use xlink:href="#DejaVuSans-52"/>
       <use x="63.623047" xlink:href="#DejaVuSans-48"/>
      </g>
     </g>
    </g>
    <g id="ytick_6">
     <g id="line2d_11">
      <g>
       <use style="stroke:#000000;stroke-width:0.8;" x="30.58" xlink:href="#m13b6714901" y="182.31469"/>
      </g>
     </g>
     <g id="text_11">
      <!-- 50 -->
      <defs>
       <path d="M 10.796875 72.90625 
L 49.515625 72.90625 
L 49.515625 64.59375 
L 19.828125 64.59375 
L 19.828125 46.734375 
Q 21.96875 47.46875 24.109375 47.828125 
Q 26.265625 48.1875 28.421875 48.1875 
Q 40.625 48.1875 47.75 41.5 
Q 54.890625 34.8125 54.890625 23.390625 
Q 54.890625 11.625 47.5625 5.09375 
Q 40.234375 -1.421875 26.90625 -1.421875 
Q 22.3125 -1.421875 17.546875 -0.640625 
Q 12.796875 0.140625 7.71875 1.703125 
L 7.71875 11.625 
Q 12.109375 9.234375 16.796875 8.0625 
Q 21.484375 6.890625 26.703125 6.890625 
Q 35.15625 6.890625 40.078125 11.328125 
Q 45.015625 15.765625 45.015625 23.390625 
Q 45.015625 31 40.078125 35.4375 
Q 35.15625 39.890625 26.703125 39.890625 
Q 22.75 39.890625 18.8125 39.015625 
Q 14.890625 38.140625 10.796875 36.28125 
z
" id="DejaVuSans-53"/>
      </defs>
      <g transform="translate(10.855 186.113909)scale(0.1 -0.1)">
       <use xlink:href="#DejaVuSans-53"/>
       <use x="63.623047" xlink:href="#DejaVuSans-48"/>
      </g>
     </g>
    </g>
    <g id="ytick_7">
     <g id="line2d_12">
      <g>
       <use style="stroke:#000000;stroke-width:0.8;" x="30.58" xlink:href="#m13b6714901" y="139.684417"/>
      </g>
     </g>
     <g id="text_12">
      <!-- 60 -->
      <g transform="translate(10.855 143.483636)scale(0.1 -0.1)">
       <use xlink:href="#DejaVuSans-54"/>
       <use x="63.623047" xlink:href="#DejaVuSans-48"/>
      </g>
     </g>
    </g>
    <g id="ytick_8">
     <g id="line2d_13">
      <g>
       <use style="stroke:#000000;stroke-width:0.8;" x="30.58" xlink:href="#m13b6714901" y="97.054144"/>
      </g>
     </g>
     <g id="text_13">
      <!-- 70 -->
      <defs>
       <path d="M 8.203125 72.90625 
L 55.078125 72.90625 
L 55.078125 68.703125 
L 28.609375 0 
L 18.3125 0 
L 43.21875 64.59375 
L 8.203125 64.59375 
z
" id="DejaVuSans-55"/>
      </defs>
      <g transform="translate(10.855 100.853363)scale(0.1 -0.1)">
       <use xlink:href="#DejaVuSans-55"/>
       <use x="63.623047" xlink:href="#DejaVuSans-48"/>
      </g>
     </g>
    </g>
    <g id="ytick_9">
     <g id="line2d_14">
      <g>
       <use style="stroke:#000000;stroke-width:0.8;" x="30.58" xlink:href="#m13b6714901" y="54.423871"/>
      </g>
     </g>
     <g id="text_14">
      <!-- 80 -->
      <g transform="translate(10.855 58.22309)scale(0.1 -0.1)">
       <use xlink:href="#DejaVuSans-56"/>
       <use x="63.623047" xlink:href="#DejaVuSans-48"/>
      </g>
     </g>
    </g>
   </g>
   <g id="line2d_15">
    <path clip-path="url(#pa8f75d4aab)" d="M 43.773493 372.87201 
L 44.467888 386.300546 
L 45.162282 386.94 
L 168.764484 386.94 
L 169.458879 382.676973 
L 170.153273 382.037519 
L 170.847668 380.75861 
L 172.236456 371.166799 
L 172.930851 370.314194 
L 173.625245 366.903772 
L 174.31964 362.427593 
L 175.014034 354.967295 
L 176.402823 351.343722 
L 177.097217 350.491117 
L 177.791612 347.9333 
L 178.486006 342.817667 
L 179.1804 342.178213 
L 179.874795 340.473002 
L 180.569189 339.194094 
L 181.263584 328.962829 
L 181.957978 321.28938 
L 182.652372 315.747444 
L 183.346767 303.810968 
L 184.041161 297.629578 
L 184.735556 296.776973 
L 185.42995 297.629578 
L 186.124344 295.711216 
L 186.818739 294.645459 
L 187.513133 290.16928 
L 188.207528 291.66134 
L 188.901922 298.269032 
L 189.596316 297.416427 
L 190.290711 297.84273 
L 190.985105 294.432308 
L 191.679499 295.924367 
L 192.373894 292.727097 
L 193.068288 291.021886 
L 193.762683 291.235037 
L 194.457077 290.808734 
L 195.151471 299.121638 
L 195.845866 304.450422 
L 196.54026 305.72933 
L 197.234655 306.368784 
L 197.929049 308.9266 
L 198.623443 309.352903 
L 199.317838 312.337022 
L 200.012232 318.092109 
L 200.706627 318.305261 
L 201.401021 311.271266 
L 202.095415 306.795087 
L 202.78981 305.72933 
L 203.484204 303.384665 
L 204.178599 298.695335 
L 204.872993 299.54794 
L 205.567387 296.137519 
L 206.261782 298.269032 
L 206.956176 299.121638 
L 207.650571 299.54794 
L 208.344965 299.121638 
L 209.039359 300.187395 
L 209.733754 294.006005 
L 210.428148 294.432308 
L 211.122543 304.450422 
L 211.816937 307.860844 
L 212.511331 304.450422 
L 213.205726 304.663573 
L 213.90012 295.711216 
L 214.594515 293.1534 
L 215.288909 306.581935 
L 215.983303 309.566055 
L 216.677698 308.500298 
L 217.372092 312.550174 
L 218.066486 317.878958 
L 219.455275 321.928834 
L 220.14967 313.615931 
L 220.844064 313.615931 
L 221.538458 312.550174 
L 222.232853 310.205509 
L 222.927247 309.352903 
L 223.621642 317.026352 
L 224.316036 315.960596 
L 225.01043 318.731563 
L 225.704825 317.239504 
L 226.399219 318.518412 
L 227.093614 318.518412 
L 227.788008 324.48665 
L 228.482402 322.568288 
L 229.176797 322.781439 
L 229.871191 326.191861 
L 230.565586 324.699801 
L 231.25998 320.863077 
L 231.954374 314.681687 
L 232.648769 315.10799 
L 233.343163 315.321141 
L 234.037558 317.878958 
L 234.731952 307.434541 
L 235.426346 307.860844 
L 236.120741 309.566055 
L 236.815135 306.581935 
L 237.50953 302.745211 
L 238.203924 305.516179 
L 238.898318 298.908486 
L 239.592713 298.908486 
L 240.287107 296.563821 
L 240.981502 291.874491 
L 241.675896 293.1534 
L 242.37029 297.629578 
L 243.064685 296.35067 
L 243.759079 295.498065 
L 244.453473 294.85861 
L 245.147868 298.695335 
L 245.842262 301.04 
L 246.536657 300.613697 
L 247.231051 296.35067 
L 248.61984 317.665806 
L 249.314234 318.092109 
L 250.008629 319.79732 
L 250.703023 323.207742 
L 251.397417 325.97871 
L 252.091812 327.257618 
L 252.786206 335.783672 
L 253.480601 336.423127 
L 254.174995 338.341489 
L 254.869389 342.817667 
L 255.563784 344.096576 
L 256.258178 337.915186 
L 256.952573 339.620397 
L 257.646967 340.686154 
L 258.341361 341.965062 
L 259.035756 341.325608 
L 259.73015 342.604516 
L 260.424545 339.833548 
L 261.118939 345.588635 
L 261.813333 338.55464 
L 262.507728 336.849429 
L 263.202122 336.849429 
L 263.896517 335.570521 
L 264.590911 333.225856 
L 265.285305 331.733797 
L 265.9797 331.520645 
L 266.674094 331.094342 
L 268.062883 330.66804 
L 268.757277 330.028586 
L 269.451672 327.044467 
L 270.146066 333.86531 
L 270.84046 333.225856 
L 271.534855 333.439007 
L 272.229249 331.520645 
L 272.923644 330.241737 
L 273.618038 333.012705 
L 274.312432 334.717916 
L 275.006827 331.946948 
L 275.701221 338.55464 
L 276.395616 340.686154 
L 277.09001 340.259851 
L 277.784404 341.965062 
L 278.478799 343.24397 
L 279.173193 343.030819 
L 279.867588 343.030819 
L 280.561982 323.634045 
L 281.256376 320.010471 
L 281.950771 323.207742 
L 282.645165 314.894839 
L 283.33956 316.173747 
L 284.033954 313.615931 
L 284.728348 310.631811 
L 285.422743 302.958362 
L 286.117137 307.22139 
L 286.811532 306.155633 
L 287.505926 303.171514 
L 288.20032 304.23727 
L 288.894715 306.581935 
L 289.589109 303.810968 
L 290.283504 298.055881 
L 290.977898 293.792854 
L 291.672292 281.856377 
L 292.366687 281.643226 
L 293.061081 283.987891 
L 293.755475 275.248685 
L 294.44987 292.513945 
L 295.144264 295.498065 
L 295.838659 284.414194 
L 296.533053 289.103524 
L 297.921842 290.382432 
L 298.616236 293.1534 
L 299.310631 299.974243 
L 300.005025 299.54794 
L 300.699419 296.137519 
L 301.393814 298.055881 
L 302.088208 296.776973 
L 302.782603 296.137519 
L 303.476997 297.203275 
L 304.171391 294.85861 
L 304.865786 297.84273 
L 305.56018 309.779206 
L 306.254575 308.9266 
L 306.948969 302.958362 
L 307.643363 309.992357 
L 308.337758 310.631811 
L 309.032152 307.22139 
L 309.726547 317.239504 
L 310.420941 322.141985 
L 311.115335 321.076228 
L 311.80973 323.420893 
L 312.504124 323.207742 
L 313.198519 323.420893 
L 313.892913 321.28938 
L 314.587307 326.191861 
L 315.281702 325.765558 
L 315.976096 327.044467 
L 316.67049 326.618164 
L 317.364885 328.749677 
L 318.059279 338.128337 
L 318.753674 340.473002 
L 319.448068 339.194094 
L 320.142462 341.965062 
L 320.836857 345.588635 
L 321.531251 346.228089 
L 322.225646 348.785906 
L 322.92004 352.409479 
L 323.614434 354.540993 
L 324.308829 354.967295 
L 325.003223 357.951414 
L 325.697618 357.525112 
L 326.392012 359.230323 
L 327.086406 357.098809 
L 328.475195 361.574988 
L 329.16959 363.067047 
L 329.863984 361.574988 
L 330.558378 361.788139 
L 331.252773 361.148685 
L 331.947167 358.80402 
L 332.641562 359.017171 
L 333.335956 360.722382 
L 334.03035 361.148685 
L 334.724745 362.00129 
L 335.419139 363.49335 
L 336.113534 361.788139 
L 336.807928 360.722382 
L 337.502322 360.722382 
L 338.196717 359.869777 
L 338.891111 356.672506 
L 339.585506 355.819901 
L 340.2799 355.393598 
L 340.974294 357.951414 
L 341.668689 355.393598 
L 342.363083 355.393598 
L 343.057477 355.819901 
L 343.751872 357.951414 
L 344.446266 357.738263 
L 345.140661 354.754144 
L 345.835055 356.246203 
L 346.529449 355.819901 
L 347.223844 355.819901 
L 347.918238 355.606749 
L 348.612633 354.967295 
L 349.307027 354.754144 
L 350.001421 356.033052 
L 350.695816 358.590868 
L 351.39021 358.377717 
L 352.084605 358.80402 
L 352.778999 361.148685 
L 354.167788 362.00129 
L 354.862182 362.640744 
L 355.556577 365.838015 
L 356.945365 365.411712 
L 357.63976 365.624864 
L 358.334154 366.264318 
L 359.028549 370.314194 
L 359.722943 365.624864 
L 360.417337 366.051166 
L 361.111732 364.559107 
L 361.806126 363.49335 
L 362.500521 365.411712 
L 363.194915 364.559107 
L 363.889309 357.738263 
L 364.583704 356.672506 
L 365.972492 354.967295 
L 367.361281 356.672506 
L 368.055676 354.540993 
L 368.75007 354.540993 
L 369.444464 355.180447 
L 370.138859 350.064814 
L 370.833253 350.277965 
L 371.527648 349.42536 
L 372.222042 348.359603 
L 372.916436 347.506998 
L 373.610831 350.277965 
L 374.305225 350.064814 
L 374.99962 350.704268 
L 375.694014 351.983176 
L 376.388408 352.196328 
L 377.082803 353.475236 
L 377.777197 360.509231 
L 379.86038 363.706501 
L 380.554775 362.853896 
L 381.249169 363.280199 
L 381.943564 362.214442 
L 382.637958 362.214442 
L 383.332352 361.361836 
L 384.026747 366.477469 
L 384.721141 363.919653 
L 385.415536 364.985409 
L 386.10993 367.330074 
L 386.804324 364.985409 
L 387.498719 364.772258 
L 388.887508 363.067047 
L 389.581902 363.067047 
L 390.276296 362.640744 
L 390.970691 361.574988 
L 391.665085 361.788139 
L 392.359479 362.427593 
L 393.053874 362.427593 
L 393.748268 362.640744 
L 394.442663 362.00129 
L 395.137057 360.935533 
L 395.831451 363.067047 
L 397.22024 360.935533 
L 397.914635 360.935533 
L 398.609029 363.067047 
L 399.303423 362.427593 
L 399.997818 362.00129 
L 400.692212 364.559107 
L 401.386607 363.706501 
L 402.081001 360.296079 
L 402.775395 360.722382 
L 403.46979 360.722382 
L 404.164184 358.164566 
L 404.858579 358.377717 
L 406.247367 356.246203 
L 407.636156 352.62263 
L 408.330551 351.556873 
L 409.024945 351.556873 
L 409.719339 352.196328 
L 410.413734 353.262084 
L 411.108128 353.688387 
L 411.802523 353.688387 
L 412.496917 352.196328 
L 413.191311 351.130571 
L 414.5801 352.409479 
L 415.274494 356.246203 
L 415.968889 358.164566 
L 416.663283 359.230323 
L 417.357678 355.819901 
L 418.052072 359.869777 
L 419.440861 361.574988 
L 420.135255 362.640744 
L 420.82965 364.345955 
L 421.524044 364.559107 
L 422.218438 366.903772 
L 422.912833 367.969529 
L 423.607227 364.985409 
L 424.301622 364.985409 
L 424.996016 366.69062 
L 425.69041 363.706501 
L 426.384805 365.411712 
L 427.079199 364.345955 
L 427.773594 364.345955 
L 428.467988 364.132804 
L 429.162382 364.132804 
L 429.856777 365.624864 
L 430.551171 365.838015 
L 431.245566 367.116923 
L 431.93996 366.477469 
L 433.328749 366.903772 
L 434.023143 366.69062 
L 434.717538 366.69062 
L 435.411932 363.919653 
L 436.106326 364.132804 
L 436.800721 364.132804 
L 437.495115 365.624864 
L 438.883904 365.624864 
L 439.578298 366.903772 
L 440.272693 367.116923 
L 440.967087 369.461588 
L 441.661481 368.822134 
L 442.355876 362.00129 
L 443.05027 359.443474 
L 443.744665 360.722382 
L 444.439059 360.509231 
L 445.133453 362.427593 
L 445.827848 362.853896 
L 446.522242 362.853896 
L 447.216637 341.112457 
L 447.911031 330.454888 
L 448.605425 327.044467 
L 449.29982 307.008238 
L 449.994214 280.577469 
L 450.688609 273.756625 
L 451.383003 258.409727 
L 452.077397 250.949429 
L 452.771792 239.439256 
L 453.466186 225.158114 
L 454.160581 217.484665 
L 454.854975 212.795335 
L 455.549369 203.842978 
L 456.243764 202.777221 
L 456.938158 182.954144 
L 457.632553 175.280695 
L 458.326947 163.344218 
L 459.021341 143.734293 
L 459.715736 137.979206 
L 460.41013 129.879454 
L 461.104525 141.389628 
L 461.798919 144.160596 
L 462.493313 138.61866 
L 463.187708 156.310223 
L 463.882102 170.804516 
L 464.576496 171.44397 
L 465.270891 180.183176 
L 465.965285 176.1333 
L 466.65968 174.641241 
L 467.354074 187.217171 
L 468.048468 163.55737 
L 468.742863 161.639007 
L 470.131652 172.93603 
L 470.826046 186.577717 
L 471.52044 187.00402 
L 472.214835 194.038015 
L 472.909229 195.530074 
L 473.603624 188.709231 
L 475.686807 142.455385 
L 476.381201 147.571017 
L 477.075596 147.357866 
L 477.76999 141.176476 
L 478.464384 116.024615 
L 479.158779 103.448685 
L 479.853173 107.711712 
L 480.547568 89.380695 
L 481.241962 61.671017 
L 481.936356 78.723127 
L 482.630751 82.559851 
L 483.325145 83.199305 
L 484.01954 78.509975 
L 484.713934 80.641489 
L 485.408328 79.149429 
L 486.102723 61.671017 
L 486.797117 66.147196 
L 487.491512 66.573499 
L 488.185906 77.017916 
L 488.8803 97.480447 
L 489.574695 98.759355 
L 490.269089 84.904516 
L 490.963483 60.392109 
L 491.657878 58.90005 
L 492.352272 88.741241 
L 493.046667 94.709479 
L 493.741061 96.41469 
L 494.435455 112.401042 
L 495.824244 137.339752 
L 496.518639 137.979206 
L 497.213033 136.700298 
L 497.907427 118.582432 
L 498.601822 107.285409 
L 499.296216 108.351166 
L 499.990611 129.666303 
L 500.685005 141.389628 
L 501.379399 135.42139 
L 502.073794 143.734293 
L 502.768188 132.224119 
L 503.462583 152.047196 
L 504.156977 138.61866 
L 504.851371 156.736526 
L 505.545766 145.013201 
L 506.24016 139.471266 
L 506.934555 151.834045 
L 508.323343 133.076725 
L 509.017738 137.1266 
L 509.712132 131.797816 
L 510.406527 103.022382 
L 511.100921 93.004268 
L 511.795315 108.99062 
L 512.48971 118.36928 
L 513.184104 123.05861 
L 513.878498 115.811464 
L 514.572893 90.020149 
L 515.267287 105.79335 
L 515.961682 104.940744 
L 516.656076 115.385161 
L 517.35047 116.237767 
L 518.044865 132.010968 
L 518.739259 133.92933 
L 519.433654 159.933797 
L 520.128048 135.634541 
L 520.822442 127.74794 
L 521.516837 116.024615 
L 522.211231 125.190124 
L 522.905626 112.187891 
L 523.60002 104.727593 
L 524.294414 126.895335 
L 524.988809 131.797816 
L 525.683203 114.532556 
L 526.377598 103.235533 
L 527.071992 103.448685 
L 527.766386 96.840993 
L 528.460781 121.779702 
L 529.155175 100.464566 
L 529.84957 102.596079 
L 530.543964 103.022382 
L 531.238358 86.396576 
L 531.932753 93.856873 
L 532.627147 85.970273 
L 533.321542 86.822878 
L 534.015936 86.822878 
L 534.71033 93.643722 
L 535.404725 112.827345 
L 536.099119 97.267295 
L 536.793514 117.729826 
L 537.487908 129.453151 
L 538.876697 104.30129 
L 539.571091 126.895335 
L 540.265485 143.734293 
L 540.95988 134.142481 
L 541.654274 147.144715 
L 542.348669 143.734293 
L 543.043063 145.865806 
L 543.737457 143.094839 
L 544.431852 134.355633 
L 545.126246 123.484913 
L 545.820641 126.255881 
L 546.515035 126.255881 
L 547.209429 117.942978 
L 547.903824 123.05861 
L 548.598218 108.138015 
L 549.292613 103.022382 
L 549.987007 130.305757 
L 550.681401 130.092605 
L 551.375796 122.206005 
L 552.07019 127.534789 
L 552.764585 145.865806 
L 553.458979 147.357866 
L 554.153373 136.060844 
L 554.847768 143.30799 
L 555.542162 131.797816 
L 556.236557 106.859107 
L 556.930951 119.435037 
L 557.625345 113.253648 
L 558.31974 110.908983 
L 559.014134 128.174243 
L 559.708529 126.895335 
L 560.402923 141.602779 
L 561.097317 123.05861 
L 561.791712 144.373747 
L 562.486106 156.949677 
L 563.180501 153.112953 
L 563.874895 126.682184 
L 565.263684 90.872754 
L 565.958078 85.757122 
L 566.652472 86.609727 
L 567.346867 74.886402 
L 568.041261 57.834293 
L 568.735656 54.21072 
L 569.43005 63.163077 
L 570.124444 90.446452 
L 570.818839 87.675484 
L 572.207628 105.580199 
L 572.902022 88.314938 
L 573.596416 92.151663 
L 574.290811 73.394342 
L 574.985205 88.528089 
L 575.6796 66.573499 
L 576.373994 70.836526 
L 577.068388 82.773002 
L 577.762783 81.920397 
L 578.457177 76.591613 
L 579.151572 96.627841 
L 579.845966 103.448685 
L 580.54036 80.85464 
L 581.234755 81.707246 
L 581.929149 105.580199 
L 582.623544 99.825112 
L 583.317938 90.2333 
L 584.012332 68.918164 
L 584.706727 69.770769 
L 585.401121 68.918164 
L 586.095516 43.34 
L 586.78991 71.262829 
L 587.484304 72.96804 
L 588.178699 91.72536 
L 588.873093 102.809231 
L 589.567487 128.600546 
L 590.261882 115.811464 
L 590.956276 113.466799 
L 591.650671 124.763821 
L 592.345065 151.407742 
L 593.039459 158.441737 
L 593.733854 168.886154 
L 594.428248 191.69335 
L 595.122643 202.564069 
L 595.817037 202.564069 
L 596.511431 205.335037 
L 597.205826 218.124119 
L 597.90022 239.439256 
L 598.594615 232.618412 
L 599.289009 230.913201 
L 599.983403 258.409727 
L 600.677798 246.260099 
L 601.372192 241.570769 
L 602.066587 243.062829 
L 602.760981 247.325856 
L 603.455375 240.07871 
L 604.14977 250.736278 
L 604.844164 233.044715 
L 605.538559 245.194342 
L 606.232953 245.833797 
L 606.927347 236.028834 
L 607.621742 238.58665 
L 608.316136 237.520893 
L 609.010531 236.668288 
L 609.704925 242.849677 
L 610.399319 251.375732 
L 611.093714 246.686402 
L 611.788108 248.817916 
L 612.482503 263.099057 
L 613.176897 265.870025 
L 613.871291 259.049181 
L 614.565686 272.477717 
L 615.26008 276.953896 
L 615.954474 270.346203 
L 616.648869 262.672754 
L 617.343263 258.83603 
L 618.037658 261.820149 
L 618.732052 278.659107 
L 619.426446 278.872258 
L 620.120841 276.10129 
L 620.815235 276.527593 
L 622.204024 272.90402 
L 622.898418 274.396079 
L 623.592813 266.509479 
L 624.287207 268.427841 
L 625.675996 242.636526 
L 626.37039 244.341737 
L 627.064785 244.76804 
L 627.759179 249.670521 
L 628.453574 237.734045 
L 629.147968 236.668288 
L 630.536757 252.228337 
L 631.231151 262.885906 
L 631.925546 254.786154 
L 632.61994 257.557122 
L 633.314334 256.278213 
L 634.008729 253.507246 
L 634.703123 261.180695 
L 635.397518 263.099057 
L 636.091912 263.099057 
L 636.786306 247.96531 
L 638.175095 243.489132 
L 638.869489 261.820149 
L 639.563884 269.919901 
L 640.258278 270.133052 
L 640.952673 271.198809 
L 641.647067 273.117171 
L 642.341461 285.053648 
L 643.035856 284.627345 
L 643.73025 281.003772 
L 644.424645 280.151166 
L 645.119039 265.017419 
L 645.813433 270.133052 
L 646.507828 268.21469 
L 647.202222 275.035533 
L 647.896617 276.527593 
L 648.591011 278.659107 
L 649.9798 274.822382 
L 650.674194 279.085409 
L 651.368589 287.398313 
L 652.062983 275.248685 
L 652.757377 268.21469 
L 653.451772 272.477717 
L 654.146166 266.509479 
L 654.840561 266.509479 
L 655.534955 268.001538 
L 656.229349 258.196576 
L 656.923744 258.83603 
L 657.618138 256.491365 
L 658.312533 248.178462 
L 659.006927 258.196576 
L 659.701321 257.770273 
L 660.395716 260.328089 
L 661.09011 259.475484 
L 661.784505 263.52536 
L 662.478899 254.999305 
L 663.173293 256.704516 
L 663.867688 257.130819 
L 664.562082 267.148933 
L 665.256476 268.001538 
L 665.950871 280.577469 
L 666.645265 286.758859 
L 667.33966 282.708983 
L 668.728448 276.953896 
L 669.422843 278.232804 
L 670.117237 287.824615 
L 670.811632 285.053648 
L 671.506026 283.135285 
L 672.20042 283.987891 
L 672.894815 282.069529 
L 673.589209 281.643226 
L 674.283604 282.708983 
L 674.977998 264.164814 
L 675.672392 262.672754 
L 676.366787 270.133052 
L 677.061181 261.820149 
L 677.755576 261.393846 
L 678.44997 259.901787 
L 679.144364 259.262333 
L 679.838759 248.391613 
L 680.533153 244.76804 
L 681.227548 246.046948 
L 682.616336 251.162581 
L 683.310731 248.178462 
L 684.005125 247.112705 
L 684.69952 245.833797 
L 685.393914 253.294094 
L 686.088308 249.45737 
L 686.782703 255.425608 
L 687.477097 254.786154 
L 688.171491 251.375732 
L 688.865886 266.296328 
L 689.56028 268.427841 
L 690.254675 267.362084 
L 690.949069 270.559355 
L 691.643463 276.314442 
L 692.337858 276.953896 
L 693.032252 273.756625 
L 693.726647 285.47995 
L 694.421041 288.890372 
L 695.115435 277.167047 
L 695.80983 267.788387 
L 696.504224 264.591117 
L 697.893013 248.178462 
L 698.587407 250.523127 
L 699.281802 246.473251 
L 699.976196 247.752159 
L 700.670591 247.539007 
L 701.364985 250.523127 
L 702.753774 260.328089 
L 704.142563 247.112705 
L 704.836957 243.27598 
L 705.531351 234.749926 
L 706.225746 231.765806 
L 706.92014 231.339504 
L 707.614535 211.303275 
L 708.308929 212.369032 
L 709.003323 217.484665 
L 709.697718 231.339504 
L 710.392112 222.600298 
L 711.086507 220.468784 
L 711.780901 228.355385 
L 712.475295 227.076476 
L 713.16969 225.158114 
L 713.864084 216.845211 
L 714.558478 214.926849 
L 715.252873 216.845211 
L 715.947267 204.695583 
L 716.641662 198.940496 
L 717.336056 191.267047 
L 718.03045 196.169529 
L 718.724845 204.695583 
L 719.419239 211.303275 
L 720.113634 208.319156 
L 720.808028 212.155881 
L 721.502422 230.70005 
L 722.196817 217.484665 
L 722.891211 222.813449 
L 723.585606 207.892854 
L 724.28 218.763573 
L 724.28 218.763573 
" style="fill:none;stroke:#1f77b4;stroke-linecap:square;stroke-width:1.5;"/>
   </g>
   <g id="line2d_16">
    <path clip-path="url(#pa8f75d4aab)" d="M 43.773493 372.87201 
L 44.467888 386.300546 
L 45.162282 386.94 
L 168.764484 386.94 
L 169.458879 382.676973 
L 170.153273 382.037519 
L 170.847668 374.577221 
L 171.542062 373.937767 
L 172.236456 369.461588 
L 172.930851 368.18268 
L 173.625245 364.345955 
L 174.31964 363.706501 
L 175.014034 362.853896 
L 175.708428 360.935533 
L 176.402823 357.951414 
L 177.097217 357.31196 
L 177.791612 350.704268 
L 181.263584 347.506998 
L 181.957978 344.949181 
L 182.652372 344.309727 
L 183.346767 347.9333 
L 184.041161 347.9333 
L 184.735556 353.048933 
L 185.42995 352.409479 
L 186.124344 352.409479 
L 186.818739 353.048933 
L 187.513133 356.033052 
L 188.207528 356.033052 
L 189.596316 355.606749 
L 190.290711 357.951414 
L 190.985105 348.359603 
L 191.679499 346.867543 
L 192.373894 346.014938 
L 193.068288 341.965062 
L 193.762683 341.965062 
L 194.457077 326.405012 
L 195.151471 326.405012 
L 195.845866 322.141985 
L 196.54026 320.223623 
L 197.234655 316.173747 
L 197.929049 316.173747 
L 198.623443 312.123871 
L 199.317838 311.058114 
L 200.012232 307.22139 
L 200.706627 307.008238 
L 201.401021 305.089876 
L 202.095415 304.450422 
L 202.78981 302.53206 
L 203.484204 302.105757 
L 204.178599 298.695335 
L 204.872993 307.434541 
L 205.567387 306.795087 
L 206.261782 307.647692 
L 206.956176 310.205509 
L 207.650571 310.205509 
L 208.344965 324.48665 
L 209.039359 323.207742 
L 209.733754 329.389132 
L 210.428148 330.881191 
L 211.122543 334.504764 
L 211.816937 332.373251 
L 212.511331 337.915186 
L 213.205726 336.209975 
L 213.90012 328.536526 
L 215.288909 327.257618 
L 215.983303 326.405012 
L 217.372092 330.241737 
L 218.066486 333.012705 
L 218.760881 333.225856 
L 219.455275 341.325608 
L 220.14967 341.325608 
L 220.844064 340.899305 
L 221.538458 328.536526 
L 222.232853 329.389132 
L 222.927247 330.454888 
L 223.621642 324.699801 
L 224.316036 323.420893 
L 225.704825 315.321141 
L 226.399219 315.10799 
L 227.093614 318.305261 
L 227.788008 331.946948 
L 228.482402 332.586402 
L 229.176797 331.733797 
L 229.871191 327.257618 
L 231.25998 326.831315 
L 232.648769 328.110223 
L 233.343163 325.765558 
L 234.037558 325.126104 
L 234.731952 327.044467 
L 235.426346 331.520645 
L 236.120741 331.946948 
L 236.815135 330.881191 
L 237.50953 335.996824 
L 238.203924 337.275732 
L 238.898318 341.538759 
L 239.592713 343.030819 
L 240.287107 342.817667 
L 240.981502 338.128337 
L 241.675896 338.980943 
L 242.37029 336.849429 
L 243.064685 340.259851 
L 243.759079 340.259851 
L 244.453473 340.473002 
L 245.842262 339.194094 
L 246.536657 338.341489 
L 247.231051 340.259851 
L 247.925445 340.473002 
L 248.61984 336.209975 
L 249.314234 343.030819 
L 250.008629 341.751911 
L 250.703023 343.030819 
L 251.397417 343.670273 
L 252.091812 343.883424 
L 252.786206 343.883424 
L 253.480601 348.359603 
L 254.174995 348.785906 
L 254.869389 353.688387 
L 255.563784 354.11469 
L 256.258178 355.180447 
L 256.952573 352.835782 
L 257.646967 347.506998 
L 258.341361 347.293846 
L 259.035756 347.9333 
L 259.73015 347.9333 
L 260.424545 347.080695 
L 261.118939 346.654392 
L 261.813333 344.949181 
L 262.507728 347.720149 
L 263.202122 348.146452 
L 263.896517 349.42536 
L 264.590911 347.9333 
L 265.285305 346.014938 
L 266.674094 346.441241 
L 267.368488 344.096576 
L 268.062883 342.604516 
L 268.757277 342.604516 
L 269.451672 339.833548 
L 270.146066 340.259851 
L 270.84046 341.538759 
L 271.534855 351.130571 
L 272.229249 350.704268 
L 272.923644 346.441241 
L 273.618038 346.441241 
L 274.312432 348.146452 
L 275.006827 343.457122 
L 275.701221 341.112457 
L 276.395616 342.604516 
L 277.09001 342.391365 
L 277.784404 337.275732 
L 278.478799 338.55464 
L 279.173193 340.473002 
L 279.867588 340.0467 
L 280.561982 338.980943 
L 281.256376 329.602283 
L 281.950771 330.881191 
L 282.645165 328.962829 
L 283.33956 330.881191 
L 284.033954 331.520645 
L 284.728348 332.373251 
L 285.422743 328.749677 
L 286.117137 329.815434 
L 286.811532 332.586402 
L 287.505926 326.405012 
L 288.20032 326.405012 
L 288.894715 327.897072 
L 289.589109 330.454888 
L 290.283504 329.815434 
L 290.977898 322.568288 
L 291.672292 325.552407 
L 292.366687 325.552407 
L 293.755475 315.10799 
L 294.44987 316.173747 
L 295.144264 327.470769 
L 295.838659 327.897072 
L 296.533053 329.815434 
L 297.227447 330.241737 
L 297.921842 330.454888 
L 298.616236 330.881191 
L 299.310631 333.86531 
L 300.005025 326.831315 
L 300.699419 328.323375 
L 301.393814 335.144218 
L 302.088208 334.931067 
L 302.782603 338.767792 
L 303.476997 337.488883 
L 304.171391 337.915186 
L 304.865786 346.014938 
L 305.56018 347.9333 
L 306.254575 348.146452 
L 307.643363 359.017171 
L 308.337758 330.028586 
L 309.032152 330.454888 
L 309.726547 330.454888 
L 310.420941 327.683921 
L 311.115335 327.897072 
L 311.80973 326.831315 
L 312.504124 325.552407 
L 313.198519 325.97871 
L 313.892913 333.012705 
L 314.587307 328.749677 
L 315.281702 327.044467 
L 315.976096 327.257618 
L 316.67049 327.044467 
L 317.364885 329.815434 
L 318.059279 329.389132 
L 318.753674 329.389132 
L 320.142462 327.683921 
L 321.531251 327.683921 
L 322.225646 356.033052 
L 322.92004 356.033052 
L 323.614434 355.819901 
L 324.308829 358.164566 
L 325.003223 358.80402 
L 325.697618 356.246203 
L 326.392012 357.098809 
L 327.086406 358.80402 
L 327.780801 356.672506 
L 328.475195 359.230323 
L 329.16959 360.082928 
L 329.863984 359.443474 
L 330.558378 357.525112 
L 331.252773 356.459355 
L 331.947167 356.672506 
L 332.641562 354.967295 
L 333.335956 354.967295 
L 334.03035 353.048933 
L 334.724745 351.556873 
L 335.419139 350.704268 
L 336.113534 351.556873 
L 336.807928 350.917419 
L 337.502322 349.851663 
L 338.196717 349.42536 
L 338.891111 349.42536 
L 339.585506 352.196328 
L 340.2799 352.62263 
L 340.974294 351.343722 
L 341.668689 351.770025 
L 342.363083 351.770025 
L 343.057477 352.62263 
L 343.751872 352.62263 
L 344.446266 354.754144 
L 345.140661 356.246203 
L 345.835055 356.459355 
L 346.529449 358.164566 
L 347.223844 359.230323 
L 347.918238 362.00129 
L 348.612633 358.164566 
L 349.307027 358.590868 
L 350.001421 356.885658 
L 350.695816 357.098809 
L 351.39021 357.951414 
L 352.084605 358.164566 
L 352.778999 357.738263 
L 353.473393 358.377717 
L 354.167788 357.738263 
L 354.862182 357.951414 
L 355.556577 358.377717 
L 356.250971 354.540993 
L 356.945365 354.540993 
L 357.63976 354.754144 
L 358.334154 354.11469 
L 359.028549 352.196328 
L 359.722943 351.983176 
L 360.417337 351.983176 
L 361.111732 351.130571 
L 361.806126 350.064814 
L 362.500521 354.11469 
L 363.194915 354.327841 
L 363.889309 356.033052 
L 364.583704 356.459355 
L 365.278098 356.246203 
L 365.972492 356.885658 
L 366.666887 356.246203 
L 367.361281 354.11469 
L 368.055676 353.262084 
L 368.75007 354.540993 
L 369.444464 354.327841 
L 370.138859 359.017171 
L 370.833253 356.672506 
L 371.527648 356.885658 
L 372.222042 357.738263 
L 373.610831 354.967295 
L 374.305225 354.967295 
L 374.99962 355.819901 
L 375.694014 356.885658 
L 376.388408 356.246203 
L 377.082803 356.246203 
L 377.777197 354.11469 
L 378.471592 354.11469 
L 379.165986 351.130571 
L 379.86038 351.130571 
L 380.554775 351.556873 
L 381.249169 351.770025 
L 381.943564 352.409479 
L 382.637958 351.983176 
L 383.332352 353.262084 
L 384.026747 352.196328 
L 385.415536 352.62263 
L 386.10993 352.62263 
L 386.804324 355.606749 
L 387.498719 356.246203 
L 388.193113 356.246203 
L 388.887508 355.606749 
L 389.581902 355.606749 
L 390.276296 356.033052 
L 390.970691 355.819901 
L 391.665085 357.951414 
L 392.359479 357.951414 
L 393.053874 360.722382 
L 393.748268 359.443474 
L 394.442663 360.082928 
L 395.137057 361.788139 
L 395.831451 362.427593 
L 396.525846 362.853896 
L 397.22024 362.853896 
L 397.914635 364.985409 
L 398.609029 366.477469 
L 399.303423 363.706501 
L 399.997818 362.853896 
L 400.692212 357.098809 
L 401.386607 357.31196 
L 402.081001 354.327841 
L 402.775395 353.262084 
L 403.46979 349.851663 
L 404.164184 348.359603 
L 404.858579 348.359603 
L 406.247367 347.9333 
L 406.941762 341.538759 
L 408.330551 341.538759 
L 409.024945 341.751911 
L 409.719339 341.112457 
L 410.413734 341.112457 
L 411.108128 341.325608 
L 411.802523 340.899305 
L 412.496917 341.538759 
L 413.191311 344.309727 
L 413.885706 344.73603 
L 414.5801 350.491117 
L 415.274494 350.917419 
L 415.968889 353.901538 
L 417.357678 356.672506 
L 418.052072 359.656625 
L 418.746466 360.082928 
L 419.440861 355.606749 
L 420.135255 355.393598 
L 420.82965 361.148685 
L 421.524044 362.427593 
L 422.218438 362.427593 
L 422.912833 362.640744 
L 423.607227 363.49335 
L 424.301622 361.788139 
L 425.69041 361.788139 
L 426.384805 360.509231 
L 427.079199 360.509231 
L 427.773594 359.869777 
L 428.467988 359.869777 
L 429.162382 359.443474 
L 429.856777 357.738263 
L 430.551171 357.098809 
L 431.245566 357.951414 
L 431.93996 356.246203 
L 432.634354 356.033052 
L 433.328749 360.722382 
L 434.717538 357.951414 
L 435.411932 357.738263 
L 436.106326 356.885658 
L 436.800721 356.885658 
L 437.495115 355.606749 
L 438.18951 357.31196 
L 438.883904 356.885658 
L 439.578298 357.31196 
L 440.272693 358.377717 
L 440.967087 358.164566 
L 441.661481 359.230323 
L 442.355876 359.017171 
L 443.05027 360.082928 
L 443.744665 360.935533 
L 444.439059 361.574988 
L 445.133453 361.574988 
L 446.522242 356.246203 
L 447.216637 352.196328 
L 447.911031 339.407246 
L 448.605425 339.833548 
L 449.994214 331.733797 
L 450.688609 330.454888 
L 451.383003 328.323375 
L 452.077397 325.552407 
L 452.771792 314.894839 
L 453.466186 313.829082 
L 454.160581 308.287146 
L 455.549369 305.72933 
L 456.243764 302.105757 
L 456.938158 282.922134 
L 457.632553 282.069529 
L 458.326947 280.364318 
L 459.021341 250.736278 
L 459.715736 253.294094 
L 460.41013 254.999305 
L 461.104525 249.244218 
L 461.798919 248.391613 
L 462.493313 246.899553 
L 463.187708 247.752159 
L 463.882102 242.423375 
L 464.576496 241.997072 
L 465.270891 237.307742 
L 465.965285 233.471017 
L 466.65968 243.489132 
L 467.354074 243.27598 
L 468.048468 245.620645 
L 468.742863 229.421141 
L 469.437257 199.793102 
L 470.131652 193.611712 
L 470.826046 204.695583 
L 471.52044 191.480199 
L 472.214835 189.774988 
L 472.909229 218.976725 
L 473.603624 218.976725 
L 474.298018 217.058362 
L 474.992412 224.731811 
L 475.686807 236.241985 
L 476.381201 237.307742 
L 477.075596 238.58665 
L 477.76999 242.849677 
L 478.464384 243.489132 
L 479.158779 246.686402 
L 479.853173 247.112705 
L 480.547568 246.899553 
L 481.241962 246.046948 
L 481.936356 248.391613 
L 482.630751 264.591117 
L 483.325145 291.021886 
L 484.713934 303.384665 
L 485.408328 316.386898 
L 486.102723 317.452655 
L 486.797117 316.813201 
L 487.491512 314.681687 
L 488.185906 316.386898 
L 488.8803 315.960596 
L 489.574695 314.681687 
L 490.269089 315.321141 
L 490.963483 315.321141 
L 491.657878 296.990124 
L 492.352272 295.284913 
L 493.046667 288.677221 
L 494.435455 286.119404 
L 495.12985 285.906253 
L 495.824244 285.266799 
L 496.518639 283.135285 
L 497.907427 289.103524 
L 498.601822 264.804268 
L 499.296216 263.951663 
L 499.990611 263.951663 
L 500.685005 243.489132 
L 501.379399 244.341737 
L 502.073794 241.570769 
L 502.768188 242.636526 
L 503.462583 230.060596 
L 504.156977 230.486898 
L 504.851371 213.861092 
L 505.545766 234.110471 
L 506.24016 223.239752 
L 506.934555 231.765806 
L 507.628949 237.734045 
L 508.323343 235.602531 
L 509.017738 231.765806 
L 509.712132 232.405261 
L 510.406527 226.223871 
L 511.100921 225.584417 
L 511.795315 222.173995 
L 512.48971 246.260099 
L 513.184104 247.325856 
L 513.878498 244.76804 
L 514.572893 249.244218 
L 515.267287 247.325856 
L 515.961682 243.489132 
L 516.656076 243.702283 
L 517.35047 259.901787 
L 518.044865 254.786154 
L 518.739259 271.838263 
L 519.433654 256.491365 
L 520.128048 263.312208 
L 520.822442 262.885906 
L 521.516837 263.312208 
L 522.211231 265.870025 
L 522.905626 270.985658 
L 523.60002 268.427841 
L 524.294414 267.788387 
L 524.988809 268.640993 
L 525.683203 270.772506 
L 526.377598 269.280447 
L 527.071992 269.493598 
L 527.766386 263.099057 
L 528.460781 273.969777 
L 529.155175 275.248685 
L 529.84957 280.577469 
L 530.543964 274.609231 
L 531.238358 271.625112 
L 531.932753 275.888139 
L 532.627147 276.740744 
L 533.321542 294.432308 
L 534.015936 297.203275 
L 534.71033 297.416427 
L 536.099119 286.758859 
L 536.793514 273.969777 
L 537.487908 275.461836 
L 538.182302 284.201042 
L 538.876697 284.201042 
L 539.571091 282.708983 
L 540.265485 255.425608 
L 540.95988 250.523127 
L 541.654274 260.328089 
L 542.348669 265.230571 
L 543.043063 265.870025 
L 543.737457 267.362084 
L 544.431852 271.41196 
L 545.126246 268.854144 
L 545.820641 265.870025 
L 546.515035 259.688635 
L 547.209429 259.049181 
L 547.903824 260.114938 
L 548.598218 261.820149 
L 549.292613 265.443722 
L 549.987007 266.083176 
L 550.681401 278.445955 
L 551.375796 278.445955 
L 552.07019 277.167047 
L 552.764585 277.167047 
L 553.458979 267.575236 
L 554.153373 297.416427 
L 554.847768 280.151166 
L 555.542162 279.724864 
L 556.236557 276.527593 
L 556.930951 262.246452 
L 557.625345 261.180695 
L 558.31974 260.754392 
L 559.014134 246.473251 
L 559.708529 249.031067 
L 560.402923 255.212457 
L 561.097317 255.638759 
L 561.791712 256.278213 
L 562.486106 253.720397 
L 563.180501 254.999305 
L 563.874895 260.114938 
L 564.569289 243.27598 
L 565.263684 239.226104 
L 565.958078 240.505012 
L 566.652472 239.865558 
L 567.346867 226.650174 
L 568.041261 226.223871 
L 568.735656 231.552655 
L 569.43005 231.552655 
L 570.124444 231.978958 
L 570.818839 218.33727 
L 571.513233 189.774988 
L 572.207628 189.988139 
L 572.902022 209.171762 
L 573.596416 198.301042 
L 574.290811 198.087891 
L 574.985205 198.301042 
L 575.6796 199.153648 
L 576.373994 201.498313 
L 577.068388 200.645707 
L 577.762783 201.07201 
L 578.457177 217.271514 
L 579.151572 218.976725 
L 580.54036 219.403027 
L 581.234755 242.210223 
L 581.929149 234.110471 
L 582.623544 248.391613 
L 583.317938 248.604764 
L 584.012332 251.588883 
L 584.706727 281.430074 
L 585.401121 293.1534 
L 586.095516 290.16928 
L 586.78991 286.545707 
L 587.484304 296.563821 
L 588.178699 294.006005 
L 588.873093 294.432308 
L 589.567487 289.742978 
L 590.261882 289.742978 
L 590.956276 289.103524 
L 591.650671 285.47995 
L 592.345065 283.987891 
L 593.039459 286.97201 
L 593.733854 286.97201 
L 594.428248 282.922134 
L 595.122643 283.348437 
L 595.817037 282.495831 
L 596.511431 285.47995 
L 597.205826 285.906253 
L 597.90022 286.545707 
L 598.594615 286.119404 
L 599.289009 302.745211 
L 599.983403 307.647692 
L 600.677798 309.779206 
L 601.372192 308.9266 
L 602.066587 310.844963 
L 602.760981 309.566055 
L 603.455375 312.976476 
L 604.844164 312.123871 
L 605.538559 309.566055 
L 606.232953 311.91072 
L 606.927347 311.91072 
L 607.621742 309.992357 
L 608.316136 313.615931 
L 609.010531 314.468536 
L 609.704925 323.634045 
L 610.399319 323.634045 
L 611.093714 322.141985 
L 611.788108 322.355136 
L 612.482503 321.076228 
L 613.176897 322.141985 
L 613.871291 321.076228 
L 614.565686 322.141985 
L 615.26008 324.699801 
L 615.954474 325.126104 
L 616.648869 323.420893 
L 618.037658 322.994591 
L 618.732052 324.912953 
L 619.426446 329.17598 
L 620.120841 329.389132 
L 620.815235 328.536526 
L 621.50963 329.815434 
L 622.898418 327.470769 
L 623.592813 327.683921 
L 624.287207 325.97871 
L 624.981602 327.044467 
L 625.675996 324.48665 
L 626.37039 324.912953 
L 627.064785 324.699801 
L 627.759179 323.420893 
L 628.453574 324.273499 
L 629.147968 324.912953 
L 629.842362 324.48665 
L 630.536757 327.470769 
L 631.231151 328.749677 
L 631.925546 328.536526 
L 633.314334 324.912953 
L 634.008729 324.912953 
L 634.703123 325.97871 
L 635.397518 326.405012 
L 636.091912 328.323375 
L 636.786306 329.602283 
L 637.480701 328.536526 
L 638.175095 327.044467 
L 638.869489 327.897072 
L 639.563884 329.389132 
L 640.258278 328.536526 
L 640.952673 329.17598 
L 641.647067 330.66804 
L 642.341461 330.454888 
L 643.035856 329.389132 
L 643.73025 330.241737 
L 644.424645 329.389132 
L 645.119039 329.389132 
L 645.813433 328.962829 
L 646.507828 330.454888 
L 647.202222 333.439007 
L 647.896617 331.094342 
L 648.591011 331.307494 
L 649.285405 330.881191 
L 649.9798 330.881191 
L 650.674194 326.405012 
L 651.368589 326.618164 
L 652.062983 329.602283 
L 652.757377 328.749677 
L 654.146166 329.17598 
L 654.840561 328.110223 
L 655.534955 326.405012 
L 656.229349 326.831315 
L 656.923744 326.618164 
L 657.618138 325.765558 
L 658.312533 325.765558 
L 659.006927 322.994591 
L 659.701321 322.355136 
L 660.395716 323.207742 
L 661.09011 322.781439 
L 661.784505 324.699801 
L 662.478899 324.273499 
L 663.173293 321.502531 
L 663.867688 320.649926 
L 664.562082 320.863077 
L 665.256476 321.502531 
L 665.950871 321.28938 
L 666.645265 321.28938 
L 667.33966 320.436774 
L 668.034054 322.141985 
L 668.728448 321.715682 
L 670.117237 322.141985 
L 670.811632 322.568288 
L 671.506026 322.781439 
L 672.20042 321.076228 
L 672.894815 322.355136 
L 673.589209 322.781439 
L 674.283604 320.863077 
L 674.977998 320.436774 
L 675.672392 317.665806 
L 676.366787 317.452655 
L 677.061181 321.28938 
L 677.755576 322.568288 
L 678.44997 327.470769 
L 679.144364 327.044467 
L 679.838759 325.97871 
L 680.533153 325.339256 
L 681.227548 325.765558 
L 681.921942 324.699801 
L 682.616336 325.339256 
L 683.310731 326.618164 
L 684.005125 326.191861 
L 684.69952 325.126104 
L 685.393914 325.765558 
L 686.088308 327.044467 
L 686.782703 327.897072 
L 687.477097 326.831315 
L 688.171491 328.323375 
L 688.865886 329.17598 
L 689.56028 331.307494 
L 690.254675 331.094342 
L 690.949069 330.454888 
L 691.643463 326.831315 
L 692.337858 325.552407 
L 693.032252 325.765558 
L 693.726647 325.765558 
L 694.421041 327.257618 
L 695.115435 328.110223 
L 695.80983 326.618164 
L 696.504224 327.044467 
L 697.198619 326.831315 
L 697.893013 324.912953 
L 698.587407 326.618164 
L 699.281802 322.781439 
L 699.976196 322.994591 
L 700.670591 324.060347 
L 701.364985 325.97871 
L 702.059379 325.97871 
L 702.753774 324.273499 
L 703.448168 324.060347 
L 704.142563 318.092109 
L 704.836957 317.239504 
L 705.531351 320.436774 
L 706.225746 321.715682 
L 706.92014 321.502531 
L 707.614535 322.355136 
L 709.003323 321.076228 
L 709.697718 322.355136 
L 710.392112 322.781439 
L 711.086507 318.518412 
L 711.780901 320.223623 
L 712.475295 319.79732 
L 713.16969 321.715682 
L 713.864084 320.863077 
L 714.558478 319.584169 
L 715.252873 317.026352 
L 715.947267 312.976476 
L 716.641662 314.255385 
L 717.336056 315.10799 
L 718.03045 319.584169 
L 718.724845 320.649926 
L 719.419239 318.944715 
L 720.113634 319.157866 
L 720.808028 317.878958 
L 721.502422 317.665806 
L 722.196817 312.123871 
L 723.585606 312.550174 
L 724.28 309.566055 
L 724.28 309.566055 
" style="fill:none;stroke:#ff7f0e;stroke-linecap:square;stroke-width:1.5;"/>
   </g>
   <g id="patch_3">
    <path d="M 30.58 404.12 
L 30.58 26.16 
" style="fill:none;stroke:#000000;stroke-linecap:square;stroke-linejoin:miter;stroke-width:0.8;"/>
   </g>
   <g id="patch_4">
    <path d="M 724.28 404.12 
L 724.28 26.16 
" style="fill:none;stroke:#000000;stroke-linecap:square;stroke-linejoin:miter;stroke-width:0.8;"/>
   </g>
   <g id="patch_5">
    <path d="M 30.58 404.12 
L 724.28 404.12 
" style="fill:none;stroke:#000000;stroke-linecap:square;stroke-linejoin:miter;stroke-width:0.8;"/>
   </g>
   <g id="patch_6">
    <path d="M 30.58 26.16 
L 724.28 26.16 
" style="fill:none;stroke:#000000;stroke-linecap:square;stroke-linejoin:miter;stroke-width:0.8;"/>
   </g>
   <g id="text_15">
    <!-- multi_way_v1__2: episode duration, steps, MA=20 -->
    <defs>
     <path d="M 52 44.1875 
Q 55.375 50.25 60.0625 53.125 
Q 64.75 56 71.09375 56 
Q 79.640625 56 84.28125 50.015625 
Q 88.921875 44.046875 88.921875 33.015625 
L 88.921875 0 
L 79.890625 0 
L 79.890625 32.71875 
Q 79.890625 40.578125 77.09375 44.375 
Q 74.3125 48.1875 68.609375 48.1875 
Q 61.625 48.1875 57.5625 43.546875 
Q 53.515625 38.921875 53.515625 30.90625 
L 53.515625 0 
L 44.484375 0 
L 44.484375 32.71875 
Q 44.484375 40.625 41.703125 44.40625 
Q 38.921875 48.1875 33.109375 48.1875 
Q 26.21875 48.1875 22.15625 43.53125 
Q 18.109375 38.875 18.109375 30.90625 
L 18.109375 0 
L 9.078125 0 
L 9.078125 54.6875 
L 18.109375 54.6875 
L 18.109375 46.1875 
Q 21.1875 51.21875 25.484375 53.609375 
Q 29.78125 56 35.6875 56 
Q 41.65625 56 45.828125 52.96875 
Q 50 49.953125 52 44.1875 
z
" id="DejaVuSans-109"/>
     <path d="M 8.5 21.578125 
L 8.5 54.6875 
L 17.484375 54.6875 
L 17.484375 21.921875 
Q 17.484375 14.15625 20.5 10.265625 
Q 23.53125 6.390625 29.59375 6.390625 
Q 36.859375 6.390625 41.078125 11.03125 
Q 45.3125 15.671875 45.3125 23.6875 
L 45.3125 54.6875 
L 54.296875 54.6875 
L 54.296875 0 
L 45.3125 0 
L 45.3125 8.40625 
Q 42.046875 3.421875 37.71875 1 
Q 33.40625 -1.421875 27.6875 -1.421875 
Q 18.265625 -1.421875 13.375 4.4375 
Q 8.5 10.296875 8.5 21.578125 
z
M 31.109375 56 
z
" id="DejaVuSans-117"/>
     <path d="M 9.421875 75.984375 
L 18.40625 75.984375 
L 18.40625 0 
L 9.421875 0 
z
" id="DejaVuSans-108"/>
     <path d="M 18.3125 70.21875 
L 18.3125 54.6875 
L 36.8125 54.6875 
L 36.8125 47.703125 
L 18.3125 47.703125 
L 18.3125 18.015625 
Q 18.3125 11.328125 20.140625 9.421875 
Q 21.96875 7.515625 27.59375 7.515625 
L 36.8125 7.515625 
L 36.8125 0 
L 27.59375 0 
Q 17.1875 0 13.234375 3.875 
Q 9.28125 7.765625 9.28125 18.015625 
L 9.28125 47.703125 
L 2.6875 47.703125 
L 2.6875 54.6875 
L 9.28125 54.6875 
L 9.28125 70.21875 
z
" id="DejaVuSans-116"/>
     <path d="M 9.421875 54.6875 
L 18.40625 54.6875 
L 18.40625 0 
L 9.421875 0 
z
M 9.421875 75.984375 
L 18.40625 75.984375 
L 18.40625 64.59375 
L 9.421875 64.59375 
z
" id="DejaVuSans-105"/>
     <path d="M 50.984375 -16.609375 
L 50.984375 -23.578125 
L -0.984375 -23.578125 
L -0.984375 -16.609375 
z
" id="DejaVuSans-95"/>
     <path d="M 4.203125 54.6875 
L 13.1875 54.6875 
L 24.421875 12.015625 
L 35.59375 54.6875 
L 46.1875 54.6875 
L 57.421875 12.015625 
L 68.609375 54.6875 
L 77.59375 54.6875 
L 63.28125 0 
L 52.6875 0 
L 40.921875 44.828125 
L 29.109375 0 
L 18.5 0 
z
" id="DejaVuSans-119"/>
     <path d="M 34.28125 27.484375 
Q 23.390625 27.484375 19.1875 25 
Q 14.984375 22.515625 14.984375 16.5 
Q 14.984375 11.71875 18.140625 8.90625 
Q 21.296875 6.109375 26.703125 6.109375 
Q 34.1875 6.109375 38.703125 11.40625 
Q 43.21875 16.703125 43.21875 25.484375 
L 43.21875 27.484375 
z
M 52.203125 31.203125 
L 52.203125 0 
L 43.21875 0 
L 43.21875 8.296875 
Q 40.140625 3.328125 35.546875 0.953125 
Q 30.953125 -1.421875 24.3125 -1.421875 
Q 15.921875 -1.421875 10.953125 3.296875 
Q 6 8.015625 6 15.921875 
Q 6 25.140625 12.171875 29.828125 
Q 18.359375 34.515625 30.609375 34.515625 
L 43.21875 34.515625 
L 43.21875 35.40625 
Q 43.21875 41.609375 39.140625 45 
Q 35.0625 48.390625 27.6875 48.390625 
Q 23 48.390625 18.546875 47.265625 
Q 14.109375 46.140625 10.015625 43.890625 
L 10.015625 52.203125 
Q 14.9375 54.109375 19.578125 55.046875 
Q 24.21875 56 28.609375 56 
Q 40.484375 56 46.34375 49.84375 
Q 52.203125 43.703125 52.203125 31.203125 
z
" id="DejaVuSans-97"/>
     <path d="M 32.171875 -5.078125 
Q 28.375 -14.84375 24.75 -17.8125 
Q 21.140625 -20.796875 15.09375 -20.796875 
L 7.90625 -20.796875 
L 7.90625 -13.28125 
L 13.1875 -13.28125 
Q 16.890625 -13.28125 18.9375 -11.515625 
Q 21 -9.765625 23.484375 -3.21875 
L 25.09375 0.875 
L 2.984375 54.6875 
L 12.5 54.6875 
L 29.59375 11.921875 
L 46.6875 54.6875 
L 56.203125 54.6875 
z
" id="DejaVuSans-121"/>
     <path d="M 2.984375 54.6875 
L 12.5 54.6875 
L 29.59375 8.796875 
L 46.6875 54.6875 
L 56.203125 54.6875 
L 35.6875 0 
L 23.484375 0 
z
" id="DejaVuSans-118"/>
     <path d="M 11.71875 12.40625 
L 22.015625 12.40625 
L 22.015625 0 
L 11.71875 0 
z
M 11.71875 51.703125 
L 22.015625 51.703125 
L 22.015625 39.3125 
L 11.71875 39.3125 
z
" id="DejaVuSans-58"/>
     <path id="DejaVuSans-32"/>
     <path d="M 56.203125 29.59375 
L 56.203125 25.203125 
L 14.890625 25.203125 
Q 15.484375 15.921875 20.484375 11.0625 
Q 25.484375 6.203125 34.421875 6.203125 
Q 39.59375 6.203125 44.453125 7.46875 
Q 49.3125 8.734375 54.109375 11.28125 
L 54.109375 2.78125 
Q 49.265625 0.734375 44.1875 -0.34375 
Q 39.109375 -1.421875 33.890625 -1.421875 
Q 20.796875 -1.421875 13.15625 6.1875 
Q 5.515625 13.8125 5.515625 26.8125 
Q 5.515625 40.234375 12.765625 48.109375 
Q 20.015625 56 32.328125 56 
Q 43.359375 56 49.78125 48.890625 
Q 56.203125 41.796875 56.203125 29.59375 
z
M 47.21875 32.234375 
Q 47.125 39.59375 43.09375 43.984375 
Q 39.0625 48.390625 32.421875 48.390625 
Q 24.90625 48.390625 20.390625 44.140625 
Q 15.875 39.890625 15.1875 32.171875 
z
" id="DejaVuSans-101"/>
     <path d="M 18.109375 8.203125 
L 18.109375 -20.796875 
L 9.078125 -20.796875 
L 9.078125 54.6875 
L 18.109375 54.6875 
L 18.109375 46.390625 
Q 20.953125 51.265625 25.265625 53.625 
Q 29.59375 56 35.59375 56 
Q 45.5625 56 51.78125 48.09375 
Q 58.015625 40.1875 58.015625 27.296875 
Q 58.015625 14.40625 51.78125 6.484375 
Q 45.5625 -1.421875 35.59375 -1.421875 
Q 29.59375 -1.421875 25.265625 0.953125 
Q 20.953125 3.328125 18.109375 8.203125 
z
M 48.6875 27.296875 
Q 48.6875 37.203125 44.609375 42.84375 
Q 40.53125 48.484375 33.40625 48.484375 
Q 26.265625 48.484375 22.1875 42.84375 
Q 18.109375 37.203125 18.109375 27.296875 
Q 18.109375 17.390625 22.1875 11.75 
Q 26.265625 6.109375 33.40625 6.109375 
Q 40.53125 6.109375 44.609375 11.75 
Q 48.6875 17.390625 48.6875 27.296875 
z
" id="DejaVuSans-112"/>
     <path d="M 44.28125 53.078125 
L 44.28125 44.578125 
Q 40.484375 46.53125 36.375 47.5 
Q 32.28125 48.484375 27.875 48.484375 
Q 21.1875 48.484375 17.84375 46.4375 
Q 14.5 44.390625 14.5 40.28125 
Q 14.5 37.15625 16.890625 35.375 
Q 19.28125 33.59375 26.515625 31.984375 
L 29.59375 31.296875 
Q 39.15625 29.25 43.1875 25.515625 
Q 47.21875 21.78125 47.21875 15.09375 
Q 47.21875 7.46875 41.1875 3.015625 
Q 35.15625 -1.421875 24.609375 -1.421875 
Q 20.21875 -1.421875 15.453125 -0.5625 
Q 10.6875 0.296875 5.421875 2 
L 5.421875 11.28125 
Q 10.40625 8.6875 15.234375 7.390625 
Q 20.0625 6.109375 24.8125 6.109375 
Q 31.15625 6.109375 34.5625 8.28125 
Q 37.984375 10.453125 37.984375 14.40625 
Q 37.984375 18.0625 35.515625 20.015625 
Q 33.0625 21.96875 24.703125 23.78125 
L 21.578125 24.515625 
Q 13.234375 26.265625 9.515625 29.90625 
Q 5.8125 33.546875 5.8125 39.890625 
Q 5.8125 47.609375 11.28125 51.796875 
Q 16.75 56 26.8125 56 
Q 31.78125 56 36.171875 55.265625 
Q 40.578125 54.546875 44.28125 53.078125 
z
" id="DejaVuSans-115"/>
     <path d="M 30.609375 48.390625 
Q 23.390625 48.390625 19.1875 42.75 
Q 14.984375 37.109375 14.984375 27.296875 
Q 14.984375 17.484375 19.15625 11.84375 
Q 23.34375 6.203125 30.609375 6.203125 
Q 37.796875 6.203125 41.984375 11.859375 
Q 46.1875 17.53125 46.1875 27.296875 
Q 46.1875 37.015625 41.984375 42.703125 
Q 37.796875 48.390625 30.609375 48.390625 
z
M 30.609375 56 
Q 42.328125 56 49.015625 48.375 
Q 55.71875 40.765625 55.71875 27.296875 
Q 55.71875 13.875 49.015625 6.21875 
Q 42.328125 -1.421875 30.609375 -1.421875 
Q 18.84375 -1.421875 12.171875 6.21875 
Q 5.515625 13.875 5.515625 27.296875 
Q 5.515625 40.765625 12.171875 48.375 
Q 18.84375 56 30.609375 56 
z
" id="DejaVuSans-111"/>
     <path d="M 45.40625 46.390625 
L 45.40625 75.984375 
L 54.390625 75.984375 
L 54.390625 0 
L 45.40625 0 
L 45.40625 8.203125 
Q 42.578125 3.328125 38.25 0.953125 
Q 33.9375 -1.421875 27.875 -1.421875 
Q 17.96875 -1.421875 11.734375 6.484375 
Q 5.515625 14.40625 5.515625 27.296875 
Q 5.515625 40.1875 11.734375 48.09375 
Q 17.96875 56 27.875 56 
Q 33.9375 56 38.25 53.625 
Q 42.578125 51.265625 45.40625 46.390625 
z
M 14.796875 27.296875 
Q 14.796875 17.390625 18.875 11.75 
Q 22.953125 6.109375 30.078125 6.109375 
Q 37.203125 6.109375 41.296875 11.75 
Q 45.40625 17.390625 45.40625 27.296875 
Q 45.40625 37.203125 41.296875 42.84375 
Q 37.203125 48.484375 30.078125 48.484375 
Q 22.953125 48.484375 18.875 42.84375 
Q 14.796875 37.203125 14.796875 27.296875 
z
" id="DejaVuSans-100"/>
     <path d="M 41.109375 46.296875 
Q 39.59375 47.171875 37.8125 47.578125 
Q 36.03125 48 33.890625 48 
Q 26.265625 48 22.1875 43.046875 
Q 18.109375 38.09375 18.109375 28.8125 
L 18.109375 0 
L 9.078125 0 
L 9.078125 54.6875 
L 18.109375 54.6875 
L 18.109375 46.1875 
Q 20.953125 51.171875 25.484375 53.578125 
Q 30.03125 56 36.53125 56 
Q 37.453125 56 38.578125 55.875 
Q 39.703125 55.765625 41.0625 55.515625 
z
" id="DejaVuSans-114"/>
     <path d="M 54.890625 33.015625 
L 54.890625 0 
L 45.90625 0 
L 45.90625 32.71875 
Q 45.90625 40.484375 42.875 44.328125 
Q 39.84375 48.1875 33.796875 48.1875 
Q 26.515625 48.1875 22.3125 43.546875 
Q 18.109375 38.921875 18.109375 30.90625 
L 18.109375 0 
L 9.078125 0 
L 9.078125 54.6875 
L 18.109375 54.6875 
L 18.109375 46.1875 
Q 21.34375 51.125 25.703125 53.5625 
Q 30.078125 56 35.796875 56 
Q 45.21875 56 50.046875 50.171875 
Q 54.890625 44.34375 54.890625 33.015625 
z
" id="DejaVuSans-110"/>
     <path d="M 11.71875 12.40625 
L 22.015625 12.40625 
L 22.015625 4 
L 14.015625 -11.625 
L 7.71875 -11.625 
L 11.71875 4 
z
" id="DejaVuSans-44"/>
     <path d="M 9.8125 72.90625 
L 24.515625 72.90625 
L 43.109375 23.296875 
L 61.8125 72.90625 
L 76.515625 72.90625 
L 76.515625 0 
L 66.890625 0 
L 66.890625 64.015625 
L 48.09375 14.015625 
L 38.1875 14.015625 
L 19.390625 64.015625 
L 19.390625 0 
L 9.8125 0 
z
" id="DejaVuSans-77"/>
     <path d="M 34.1875 63.1875 
L 20.796875 26.90625 
L 47.609375 26.90625 
z
M 28.609375 72.90625 
L 39.796875 72.90625 
L 67.578125 0 
L 57.328125 0 
L 50.6875 18.703125 
L 17.828125 18.703125 
L 11.1875 0 
L 0.78125 0 
z
" id="DejaVuSans-65"/>
     <path d="M 10.59375 45.40625 
L 73.1875 45.40625 
L 73.1875 37.203125 
L 10.59375 37.203125 
z
M 10.59375 25.484375 
L 73.1875 25.484375 
L 73.1875 17.1875 
L 10.59375 17.1875 
z
" id="DejaVuSans-61"/>
    </defs>
    <g transform="translate(226.551562 20.16)scale(0.12 -0.12)">
     <use xlink:href="#DejaVuSans-109"/>
     <use x="97.412109" xlink:href="#DejaVuSans-117"/>
     <use x="160.791016" xlink:href="#DejaVuSans-108"/>
     <use x="188.574219" xlink:href="#DejaVuSans-116"/>
     <use x="227.783203" xlink:href="#DejaVuSans-105"/>
     <use x="255.566406" xlink:href="#DejaVuSans-95"/>
     <use x="305.566406" xlink:href="#DejaVuSans-119"/>
     <use x="387.353516" xlink:href="#DejaVuSans-97"/>
     <use x="448.632812" xlink:href="#DejaVuSans-121"/>
     <use x="507.8125" xlink:href="#DejaVuSans-95"/>
     <use x="557.8125" xlink:href="#DejaVuSans-118"/>
     <use x="616.992188" xlink:href="#DejaVuSans-49"/>
     <use x="680.615234" xlink:href="#DejaVuSans-95"/>
     <use x="730.615234" xlink:href="#DejaVuSans-95"/>
     <use x="780.615234" xlink:href="#DejaVuSans-50"/>
     <use x="844.238281" xlink:href="#DejaVuSans-58"/>
     <use x="877.929688" xlink:href="#DejaVuSans-32"/>
     <use x="909.716797" xlink:href="#DejaVuSans-101"/>
     <use x="971.240234" xlink:href="#DejaVuSans-112"/>
     <use x="1034.716797" xlink:href="#DejaVuSans-105"/>
     <use x="1062.5" xlink:href="#DejaVuSans-115"/>
     <use x="1114.599609" xlink:href="#DejaVuSans-111"/>
     <use x="1175.78125" xlink:href="#DejaVuSans-100"/>
     <use x="1239.257812" xlink:href="#DejaVuSans-101"/>
     <use x="1300.78125" xlink:href="#DejaVuSans-32"/>
     <use x="1332.568359" xlink:href="#DejaVuSans-100"/>
     <use x="1396.044922" xlink:href="#DejaVuSans-117"/>
     <use x="1459.423828" xlink:href="#DejaVuSans-114"/>
     <use x="1500.537109" xlink:href="#DejaVuSans-97"/>
     <use x="1561.816406" xlink:href="#DejaVuSans-116"/>
     <use x="1601.025391" xlink:href="#DejaVuSans-105"/>
     <use x="1628.808594" xlink:href="#DejaVuSans-111"/>
     <use x="1689.990234" xlink:href="#DejaVuSans-110"/>
     <use x="1753.369141" xlink:href="#DejaVuSans-44"/>
     <use x="1785.15625" xlink:href="#DejaVuSans-32"/>
     <use x="1816.943359" xlink:href="#DejaVuSans-115"/>
     <use x="1869.042969" xlink:href="#DejaVuSans-116"/>
     <use x="1908.251953" xlink:href="#DejaVuSans-101"/>
     <use x="1969.775391" xlink:href="#DejaVuSans-112"/>
     <use x="2033.251953" xlink:href="#DejaVuSans-115"/>
     <use x="2085.351562" xlink:href="#DejaVuSans-44"/>
     <use x="2117.138672" xlink:href="#DejaVuSans-32"/>
     <use x="2148.925781" xlink:href="#DejaVuSans-77"/>
     <use x="2235.205078" xlink:href="#DejaVuSans-65"/>
     <use x="2303.613281" xlink:href="#DejaVuSans-61"/>
     <use x="2387.402344" xlink:href="#DejaVuSans-50"/>
     <use x="2451.025391" xlink:href="#DejaVuSans-48"/>
    </g>
   </g>
   <g id="legend_1">
    <g id="patch_7">
     <path d="M 774.948125 231.59625 
L 856.02 231.59625 
Q 858.02 231.59625 858.02 229.59625 
L 858.02 200.68375 
Q 858.02 198.68375 856.02 198.68375 
L 774.948125 198.68375 
Q 772.948125 198.68375 772.948125 200.68375 
L 772.948125 229.59625 
Q 772.948125 231.59625 774.948125 231.59625 
z
" style="fill:#ffffff;opacity:0.8;stroke:#cccccc;stroke-linejoin:miter;"/>
    </g>
    <g id="line2d_17">
     <path d="M 776.948125 206.782187 
L 796.948125 206.782187 
" style="fill:none;stroke:#1f77b4;stroke-linecap:square;stroke-width:1.5;"/>
    </g>
    <g id="line2d_18"/>
    <g id="text_16">
     <!-- htm_2_1g -->
     <defs>
      <path d="M 54.890625 33.015625 
L 54.890625 0 
L 45.90625 0 
L 45.90625 32.71875 
Q 45.90625 40.484375 42.875 44.328125 
Q 39.84375 48.1875 33.796875 48.1875 
Q 26.515625 48.1875 22.3125 43.546875 
Q 18.109375 38.921875 18.109375 30.90625 
L 18.109375 0 
L 9.078125 0 
L 9.078125 75.984375 
L 18.109375 75.984375 
L 18.109375 46.1875 
Q 21.34375 51.125 25.703125 53.5625 
Q 30.078125 56 35.796875 56 
Q 45.21875 56 50.046875 50.171875 
Q 54.890625 44.34375 54.890625 33.015625 
z
" id="DejaVuSans-104"/>
      <path d="M 45.40625 27.984375 
Q 45.40625 37.75 41.375 43.109375 
Q 37.359375 48.484375 30.078125 48.484375 
Q 22.859375 48.484375 18.828125 43.109375 
Q 14.796875 37.75 14.796875 27.984375 
Q 14.796875 18.265625 18.828125 12.890625 
Q 22.859375 7.515625 30.078125 7.515625 
Q 37.359375 7.515625 41.375 12.890625 
Q 45.40625 18.265625 45.40625 27.984375 
z
M 54.390625 6.78125 
Q 54.390625 -7.171875 48.1875 -13.984375 
Q 42 -20.796875 29.203125 -20.796875 
Q 24.46875 -20.796875 20.265625 -20.09375 
Q 16.0625 -19.390625 12.109375 -17.921875 
L 12.109375 -9.1875 
Q 16.0625 -11.328125 19.921875 -12.34375 
Q 23.78125 -13.375 27.78125 -13.375 
Q 36.625 -13.375 41.015625 -8.765625 
Q 45.40625 -4.15625 45.40625 5.171875 
L 45.40625 9.625 
Q 42.625 4.78125 38.28125 2.390625 
Q 33.9375 0 27.875 0 
Q 17.828125 0 11.671875 7.65625 
Q 5.515625 15.328125 5.515625 27.984375 
Q 5.515625 40.671875 11.671875 48.328125 
Q 17.828125 56 27.875 56 
Q 33.9375 56 38.28125 53.609375 
Q 42.625 51.21875 45.40625 46.390625 
L 45.40625 54.6875 
L 54.390625 54.6875 
z
" id="DejaVuSans-103"/>
     </defs>
     <g transform="translate(804.948125 210.282187)scale(0.1 -0.1)">
      <use xlink:href="#DejaVuSans-104"/>
      <use x="63.378906" xlink:href="#DejaVuSans-116"/>
      <use x="102.587891" xlink:href="#DejaVuSans-109"/>
      <use x="200" xlink:href="#DejaVuSans-95"/>
      <use x="250" xlink:href="#DejaVuSans-50"/>
      <use x="313.623047" xlink:href="#DejaVuSans-95"/>
      <use x="363.623047" xlink:href="#DejaVuSans-49"/>
      <use x="427.246094" xlink:href="#DejaVuSans-103"/>
     </g>
    </g>
    <g id="line2d_19">
     <path d="M 776.948125 221.738437 
L 796.948125 221.738437 
" style="fill:none;stroke:#ff7f0e;stroke-linecap:square;stroke-width:1.5;"/>
    </g>
    <g id="line2d_20"/>
    <g id="text_17">
     <!-- htm_2 -->
     <g transform="translate(804.948125 225.238437)scale(0.1 -0.1)">
      <use xlink:href="#DejaVuSans-104"/>
      <use x="63.378906" xlink:href="#DejaVuSans-116"/>
      <use x="102.587891" xlink:href="#DejaVuSans-109"/>
      <use x="200" xlink:href="#DejaVuSans-95"/>
      <use x="250" xlink:href="#DejaVuSans-50"/>
     </g>
    </g>
   </g>
  </g>
 </g>
 <defs>
  <clipPath id="pa8f75d4aab">
   <rect height="377.96" width="693.7" x="30.58" y="26.16"/>
  </clipPath>
 </defs>
</svg>
