<?xml version="1.0" encoding="utf-8" standalone="no"?>
<!DOCTYPE svg PUBLIC "-//W3C//DTD SVG 1.1//EN"
  "http://www.w3.org/Graphics/SVG/1.1/DTD/svg11.dtd">
<!-- Created with matplotlib (https://matplotlib.org/) -->
<svg height="432pt" version="1.1" viewBox="0 0 864 432" width="864pt" xmlns="http://www.w3.org/2000/svg" xmlns:xlink="http://www.w3.org/1999/xlink">
 <defs>
  <style type="text/css">
*{stroke-linecap:butt;stroke-linejoin:round;}
  </style>
 </defs>
 <g id="figure_1">
  <g id="patch_1">
   <path d="M 0 432 
L 864 432 
L 864 0 
L 0 0 
z
" style="fill:#ffffff;"/>
  </g>
  <g id="axes_1">
   <g id="patch_2">
    <path d="M 36.97 404.12 
L 724.28 404.12 
L 724.28 26.16 
L 36.97 26.16 
z
" style="fill:#ffffff;"/>
   </g>
   <g id="matplotlib.axis_1">
    <g id="xtick_1">
     <g id="line2d_1">
      <defs>
       <path d="M 0 0 
L 0 3.5 
" id="mebcdcff228" style="stroke:#000000;stroke-width:0.8;"/>
      </defs>
      <g>
       <use style="stroke:#000000;stroke-width:0.8;" x="36.97" xlink:href="#mebcdcff228" y="404.12"/>
      </g>
     </g>
     <g id="text_1">
      <!-- 0 -->
      <defs>
       <path d="M 31.78125 66.40625 
Q 24.171875 66.40625 20.328125 58.90625 
Q 16.5 51.421875 16.5 36.375 
Q 16.5 21.390625 20.328125 13.890625 
Q 24.171875 6.390625 31.78125 6.390625 
Q 39.453125 6.390625 43.28125 13.890625 
Q 47.125 21.390625 47.125 36.375 
Q 47.125 51.421875 43.28125 58.90625 
Q 39.453125 66.40625 31.78125 66.40625 
z
M 31.78125 74.21875 
Q 44.046875 74.21875 50.515625 64.515625 
Q 56.984375 54.828125 56.984375 36.375 
Q 56.984375 17.96875 50.515625 8.265625 
Q 44.046875 -1.421875 31.78125 -1.421875 
Q 19.53125 -1.421875 13.0625 8.265625 
Q 6.59375 17.96875 6.59375 36.375 
Q 6.59375 54.828125 13.0625 64.515625 
Q 19.53125 74.21875 31.78125 74.21875 
z
" id="DejaVuSans-48"/>
      </defs>
      <g transform="translate(33.78875 418.718437)scale(0.1 -0.1)">
       <use xlink:href="#DejaVuSans-48"/>
      </g>
     </g>
    </g>
    <g id="xtick_2">
     <g id="line2d_2">
      <g>
       <use style="stroke:#000000;stroke-width:0.8;" x="151.712905" xlink:href="#mebcdcff228" y="404.12"/>
      </g>
     </g>
     <g id="text_2">
      <!-- 100 -->
      <defs>
       <path d="M 12.40625 8.296875 
L 28.515625 8.296875 
L 28.515625 63.921875 
L 10.984375 60.40625 
L 10.984375 69.390625 
L 28.421875 72.90625 
L 38.28125 72.90625 
L 38.28125 8.296875 
L 54.390625 8.296875 
L 54.390625 0 
L 12.40625 0 
z
" id="DejaVuSans-49"/>
      </defs>
      <g transform="translate(142.169155 418.718437)scale(0.1 -0.1)">
       <use xlink:href="#DejaVuSans-49"/>
       <use x="63.623047" xlink:href="#DejaVuSans-48"/>
       <use x="127.246094" xlink:href="#DejaVuSans-48"/>
      </g>
     </g>
    </g>
    <g id="xtick_3">
     <g id="line2d_3">
      <g>
       <use style="stroke:#000000;stroke-width:0.8;" x="266.45581" xlink:href="#mebcdcff228" y="404.12"/>
      </g>
     </g>
     <g id="text_3">
      <!-- 200 -->
      <defs>
       <path d="M 19.1875 8.296875 
L 53.609375 8.296875 
L 53.609375 0 
L 7.328125 0 
L 7.328125 8.296875 
Q 12.9375 14.109375 22.625 23.890625 
Q 32.328125 33.6875 34.8125 36.53125 
Q 39.546875 41.84375 41.421875 45.53125 
Q 43.3125 49.21875 43.3125 52.78125 
Q 43.3125 58.59375 39.234375 62.25 
Q 35.15625 65.921875 28.609375 65.921875 
Q 23.96875 65.921875 18.8125 64.3125 
Q 13.671875 62.703125 7.8125 59.421875 
L 7.8125 69.390625 
Q 13.765625 71.78125 18.9375 73 
Q 24.125 74.21875 28.421875 74.21875 
Q 39.75 74.21875 46.484375 68.546875 
Q 53.21875 62.890625 53.21875 53.421875 
Q 53.21875 48.921875 51.53125 44.890625 
Q 49.859375 40.875 45.40625 35.40625 
Q 44.1875 33.984375 37.640625 27.21875 
Q 31.109375 20.453125 19.1875 8.296875 
z
" id="DejaVuSans-50"/>
      </defs>
      <g transform="translate(256.91206 418.718437)scale(0.1 -0.1)">
       <use xlink:href="#DejaVuSans-50"/>
       <use x="63.623047" xlink:href="#DejaVuSans-48"/>
       <use x="127.246094" xlink:href="#DejaVuSans-48"/>
      </g>
     </g>
    </g>
    <g id="xtick_4">
     <g id="line2d_4">
      <g>
       <use style="stroke:#000000;stroke-width:0.8;" x="381.198715" xlink:href="#mebcdcff228" y="404.12"/>
      </g>
     </g>
     <g id="text_4">
      <!-- 300 -->
      <defs>
       <path d="M 40.578125 39.3125 
Q 47.65625 37.796875 51.625 33 
Q 55.609375 28.21875 55.609375 21.1875 
Q 55.609375 10.40625 48.1875 4.484375 
Q 40.765625 -1.421875 27.09375 -1.421875 
Q 22.515625 -1.421875 17.65625 -0.515625 
Q 12.796875 0.390625 7.625 2.203125 
L 7.625 11.71875 
Q 11.71875 9.328125 16.59375 8.109375 
Q 21.484375 6.890625 26.8125 6.890625 
Q 36.078125 6.890625 40.9375 10.546875 
Q 45.796875 14.203125 45.796875 21.1875 
Q 45.796875 27.640625 41.28125 31.265625 
Q 36.765625 34.90625 28.71875 34.90625 
L 20.21875 34.90625 
L 20.21875 43.015625 
L 29.109375 43.015625 
Q 36.375 43.015625 40.234375 45.921875 
Q 44.09375 48.828125 44.09375 54.296875 
Q 44.09375 59.90625 40.109375 62.90625 
Q 36.140625 65.921875 28.71875 65.921875 
Q 24.65625 65.921875 20.015625 65.03125 
Q 15.375 64.15625 9.8125 62.3125 
L 9.8125 71.09375 
Q 15.4375 72.65625 20.34375 73.4375 
Q 25.25 74.21875 29.59375 74.21875 
Q 40.828125 74.21875 47.359375 69.109375 
Q 53.90625 64.015625 53.90625 55.328125 
Q 53.90625 49.265625 50.4375 45.09375 
Q 46.96875 40.921875 40.578125 39.3125 
z
" id="DejaVuSans-51"/>
      </defs>
      <g transform="translate(371.654965 418.718437)scale(0.1 -0.1)">
       <use xlink:href="#DejaVuSans-51"/>
       <use x="63.623047" xlink:href="#DejaVuSans-48"/>
       <use x="127.246094" xlink:href="#DejaVuSans-48"/>
      </g>
     </g>
    </g>
    <g id="xtick_5">
     <g id="line2d_5">
      <g>
       <use style="stroke:#000000;stroke-width:0.8;" x="495.941619" xlink:href="#mebcdcff228" y="404.12"/>
      </g>
     </g>
     <g id="text_5">
      <!-- 400 -->
      <defs>
       <path d="M 37.796875 64.3125 
L 12.890625 25.390625 
L 37.796875 25.390625 
z
M 35.203125 72.90625 
L 47.609375 72.90625 
L 47.609375 25.390625 
L 58.015625 25.390625 
L 58.015625 17.1875 
L 47.609375 17.1875 
L 47.609375 0 
L 37.796875 0 
L 37.796875 17.1875 
L 4.890625 17.1875 
L 4.890625 26.703125 
z
" id="DejaVuSans-52"/>
      </defs>
      <g transform="translate(486.397869 418.718437)scale(0.1 -0.1)">
       <use xlink:href="#DejaVuSans-52"/>
       <use x="63.623047" xlink:href="#DejaVuSans-48"/>
       <use x="127.246094" xlink:href="#DejaVuSans-48"/>
      </g>
     </g>
    </g>
    <g id="xtick_6">
     <g id="line2d_6">
      <g>
       <use style="stroke:#000000;stroke-width:0.8;" x="610.684524" xlink:href="#mebcdcff228" y="404.12"/>
      </g>
     </g>
     <g id="text_6">
      <!-- 500 -->
      <defs>
       <path d="M 10.796875 72.90625 
L 49.515625 72.90625 
L 49.515625 64.59375 
L 19.828125 64.59375 
L 19.828125 46.734375 
Q 21.96875 47.46875 24.109375 47.828125 
Q 26.265625 48.1875 28.421875 48.1875 
Q 40.625 48.1875 47.75 41.5 
Q 54.890625 34.8125 54.890625 23.390625 
Q 54.890625 11.625 47.5625 5.09375 
Q 40.234375 -1.421875 26.90625 -1.421875 
Q 22.3125 -1.421875 17.546875 -0.640625 
Q 12.796875 0.140625 7.71875 1.703125 
L 7.71875 11.625 
Q 12.109375 9.234375 16.796875 8.0625 
Q 21.484375 6.890625 26.703125 6.890625 
Q 35.15625 6.890625 40.078125 11.328125 
Q 45.015625 15.765625 45.015625 23.390625 
Q 45.015625 31 40.078125 35.4375 
Q 35.15625 39.890625 26.703125 39.890625 
Q 22.75 39.890625 18.8125 39.015625 
Q 14.890625 38.140625 10.796875 36.28125 
z
" id="DejaVuSans-53"/>
      </defs>
      <g transform="translate(601.140774 418.718437)scale(0.1 -0.1)">
       <use xlink:href="#DejaVuSans-53"/>
       <use x="63.623047" xlink:href="#DejaVuSans-48"/>
       <use x="127.246094" xlink:href="#DejaVuSans-48"/>
      </g>
     </g>
    </g>
   </g>
   <g id="matplotlib.axis_2">
    <g id="ytick_1">
     <g id="line2d_7">
      <defs>
       <path d="M 0 0 
L -3.5 0 
" id="m7b4e3b9bd2" style="stroke:#000000;stroke-width:0.8;"/>
      </defs>
      <g>
       <use style="stroke:#000000;stroke-width:0.8;" x="36.97" xlink:href="#m7b4e3b9bd2" y="389.004904"/>
      </g>
     </g>
     <g id="text_7">
      <!-- 0 -->
      <g transform="translate(23.6075 392.804123)scale(0.1 -0.1)">
       <use xlink:href="#DejaVuSans-48"/>
      </g>
     </g>
    </g>
    <g id="ytick_2">
     <g id="line2d_8">
      <g>
       <use style="stroke:#000000;stroke-width:0.8;" x="36.97" xlink:href="#m7b4e3b9bd2" y="337.382308"/>
      </g>
     </g>
     <g id="text_8">
      <!-- 50 -->
      <g transform="translate(17.245 341.181526)scale(0.1 -0.1)">
       <use xlink:href="#DejaVuSans-53"/>
       <use x="63.623047" xlink:href="#DejaVuSans-48"/>
      </g>
     </g>
    </g>
    <g id="ytick_3">
     <g id="line2d_9">
      <g>
       <use style="stroke:#000000;stroke-width:0.8;" x="36.97" xlink:href="#m7b4e3b9bd2" y="285.759712"/>
      </g>
     </g>
     <g id="text_9">
      <!-- 100 -->
      <g transform="translate(10.8825 289.55893)scale(0.1 -0.1)">
       <use xlink:href="#DejaVuSans-49"/>
       <use x="63.623047" xlink:href="#DejaVuSans-48"/>
       <use x="127.246094" xlink:href="#DejaVuSans-48"/>
      </g>
     </g>
    </g>
    <g id="ytick_4">
     <g id="line2d_10">
      <g>
       <use style="stroke:#000000;stroke-width:0.8;" x="36.97" xlink:href="#m7b4e3b9bd2" y="234.137115"/>
      </g>
     </g>
     <g id="text_10">
      <!-- 150 -->
      <g transform="translate(10.8825 237.936334)scale(0.1 -0.1)">
       <use xlink:href="#DejaVuSans-49"/>
       <use x="63.623047" xlink:href="#DejaVuSans-53"/>
       <use x="127.246094" xlink:href="#DejaVuSans-48"/>
      </g>
     </g>
    </g>
    <g id="ytick_5">
     <g id="line2d_11">
      <g>
       <use style="stroke:#000000;stroke-width:0.8;" x="36.97" xlink:href="#m7b4e3b9bd2" y="182.514519"/>
      </g>
     </g>
     <g id="text_11">
      <!-- 200 -->
      <g transform="translate(10.8825 186.313738)scale(0.1 -0.1)">
       <use xlink:href="#DejaVuSans-50"/>
       <use x="63.623047" xlink:href="#DejaVuSans-48"/>
       <use x="127.246094" xlink:href="#DejaVuSans-48"/>
      </g>
     </g>
    </g>
    <g id="ytick_6">
     <g id="line2d_12">
      <g>
       <use style="stroke:#000000;stroke-width:0.8;" x="36.97" xlink:href="#m7b4e3b9bd2" y="130.891923"/>
      </g>
     </g>
     <g id="text_12">
      <!-- 250 -->
      <g transform="translate(10.8825 134.691142)scale(0.1 -0.1)">
       <use xlink:href="#DejaVuSans-50"/>
       <use x="63.623047" xlink:href="#DejaVuSans-53"/>
       <use x="127.246094" xlink:href="#DejaVuSans-48"/>
      </g>
     </g>
    </g>
    <g id="ytick_7">
     <g id="line2d_13">
      <g>
       <use style="stroke:#000000;stroke-width:0.8;" x="36.97" xlink:href="#m7b4e3b9bd2" y="79.269327"/>
      </g>
     </g>
     <g id="text_13">
      <!-- 300 -->
      <g transform="translate(10.8825 83.068546)scale(0.1 -0.1)">
       <use xlink:href="#DejaVuSans-51"/>
       <use x="63.623047" xlink:href="#DejaVuSans-48"/>
       <use x="127.246094" xlink:href="#DejaVuSans-48"/>
      </g>
     </g>
    </g>
    <g id="ytick_8">
     <g id="line2d_14">
      <g>
       <use style="stroke:#000000;stroke-width:0.8;" x="36.97" xlink:href="#m7b4e3b9bd2" y="27.646731"/>
      </g>
     </g>
     <g id="text_14">
      <!-- 350 -->
      <g transform="translate(10.8825 31.44595)scale(0.1 -0.1)">
       <use xlink:href="#DejaVuSans-51"/>
       <use x="63.623047" xlink:href="#DejaVuSans-53"/>
       <use x="127.246094" xlink:href="#DejaVuSans-48"/>
      </g>
     </g>
    </g>
   </g>
   <g id="line2d_15">
    <path clip-path="url(#pff7cee49da)" d="M 58.771152 118.812236 
L 59.918581 118.812236 
L 61.06601 128.620529 
L 62.213439 121.651478 
L 63.360868 123.87125 
L 64.508297 123.87125 
L 65.655726 142.76512 
L 66.803155 139.461274 
L 67.950584 149.372812 
L 69.098013 160.729784 
L 70.245442 141.009952 
L 71.392871 155.051298 
L 72.540301 151.850697 
L 73.68773 170.486454 
L 74.835159 157.167825 
L 75.982588 146.585192 
L 77.130017 145.191382 
L 78.277446 145.191382 
L 79.424875 133.989279 
L 80.572304 144.623534 
L 81.719733 148.804964 
L 82.867162 150.456887 
L 84.014591 155.722392 
L 85.16202 146.94655 
L 86.309449 127.742945 
L 87.456878 127.742945 
L 88.604307 120.412536 
L 89.751736 122.580685 
L 90.899165 132.543846 
L 92.046594 121.186875 
L 93.194023 128.723774 
L 94.341452 131.924375 
L 95.488881 141.319687 
L 96.636311 123.819627 
L 97.78374 133.060072 
L 98.931169 152.470168 
L 100.078598 135.434712 
L 101.226027 137.18988 
L 102.373456 147.772512 
L 103.520885 137.138257 
L 104.668314 122.322572 
L 105.815743 136.725276 
L 106.963172 121.651478 
L 108.110601 137.086635 
L 109.25803 142.76512 
L 110.405459 143.332969 
L 111.552888 131.769507 
L 112.700317 115.766502 
L 113.847746 95.891803 
L 114.995175 95.891803 
L 116.142604 88.354904 
L 117.290033 69.564279 
L 118.437462 64.866623 
L 119.584891 67.499375 
L 120.732321 59.497873 
L 121.87975 43.34 
L 123.027179 43.34 
L 124.174608 56.090781 
L 125.322037 60.117344 
L 126.469466 73.074615 
L 127.616895 91.916863 
L 128.764324 86.238377 
L 129.911753 102.912476 
L 131.059182 94.859351 
L 132.206611 95.582067 
L 133.35404 113.495108 
L 134.501469 115.766502 
L 135.648898 132.956827 
L 136.796327 152.057187 
L 137.943756 156.961334 
L 139.091185 159.387596 
L 140.238614 176.16494 
L 141.386043 171.467284 
L 142.533472 167.595589 
L 143.680902 166.356647 
L 144.828331 166.201779 
L 145.97576 166.201779 
L 147.123189 155.928882 
L 148.270618 139.822632 
L 149.418047 127.278341 
L 150.565476 126.245889 
L 151.712905 121.444988 
L 152.860334 125.26506 
L 155.155192 151.799075 
L 156.302621 136.622031 
L 157.45005 153.812356 
L 158.597479 157.116202 
L 159.744908 157.580805 
L 160.892337 173.170829 
L 162.039766 190.87738 
L 163.187195 177.35226 
L 166.629482 237.389339 
L 167.776912 254.786154 
L 168.924341 274.454363 
L 170.07177 273.267043 
L 171.219199 288.289219 
L 172.366628 308.163918 
L 173.514057 310.848293 
L 174.661486 324.786394 
L 175.808915 316.93976 
L 176.956344 315.339459 
L 178.103773 315.804062 
L 179.251202 332.994387 
L 180.398631 334.026839 
L 181.54606 334.026839 
L 182.693489 333.665481 
L 183.840918 332.994387 
L 184.988347 333.355745 
L 186.135776 350.597692 
L 187.283205 337.02095 
L 188.430634 337.692043 
L 189.578063 336.659591 
L 190.725492 333.200877 
L 191.872922 323.340962 
L 193.020351 340.066683 
L 194.16778 342.492945 
L 195.315209 338.311514 
L 196.462638 338.311514 
L 197.610067 339.292344 
L 198.757496 346.313017 
L 199.904925 347.913317 
L 201.052354 347.861695 
L 202.199783 343.164038 
L 203.347212 339.80857 
L 204.494641 334.904423 
L 205.64207 335.627139 
L 206.789499 332.06518 
L 209.084357 332.06518 
L 210.231786 325.147752 
L 211.379215 325.09613 
L 212.526644 326.386695 
L 213.674073 327.212656 
L 214.821503 333.407368 
L 215.968932 321.740661 
L 217.116361 301.607849 
L 218.26379 305.995769 
L 219.411219 305.789279 
L 220.558648 305.427921 
L 221.706077 305.22143 
L 222.853506 301.452981 
L 224.000935 301.298113 
L 225.148364 305.995769 
L 226.295793 309.144748 
L 227.443222 313.532668 
L 228.590651 313.894026 
L 229.73808 311.312897 
L 230.885509 294.896911 
L 232.032938 294.896911 
L 233.180367 311.7775 
L 234.327796 311.622632 
L 235.475225 309.19637 
L 236.622654 310.641803 
L 237.770083 314.35863 
L 238.917513 326.386695 
L 240.064942 346.77762 
L 241.212371 345.796791 
L 242.3598 346.003281 
L 243.507229 343.78351 
L 244.654658 343.680264 
L 245.802087 347.448714 
L 246.949516 346.880865 
L 248.096945 346.880865 
L 249.244374 346.622752 
L 250.391803 345.641923 
L 251.539232 345.848413 
L 252.686661 350.75256 
L 253.83409 365.465 
L 254.981519 365.361755 
L 256.128948 366.910433 
L 257.276377 365.361755 
L 258.423806 360.973834 
L 259.571235 362.057909 
L 260.718664 362.419267 
L 261.866093 360.715721 
L 263.013523 355.708329 
L 264.160952 355.037236 
L 265.308381 353.178822 
L 266.45581 335.265781 
L 267.603239 328.193486 
L 268.750668 327.986995 
L 269.898097 325.560733 
L 271.045526 320.191983 
L 272.192955 320.553341 
L 273.340384 322.050397 
L 274.487813 322.050397 
L 275.635242 323.960433 
L 276.782671 307.750937 
L 277.9301 298.820228 
L 279.077529 300.627019 
L 280.224958 299.026719 
L 281.372387 303.053281 
L 282.519816 303.053281 
L 283.667245 301.556226 
L 284.814674 303.466262 
L 285.962104 291.48982 
L 287.109533 293.038498 
L 288.256962 289.166803 
L 289.404391 309.351238 
L 290.55182 317.35274 
L 291.699249 309.712596 
L 292.846678 312.96482 
L 293.994107 317.094627 
L 295.141536 297.27155 
L 297.436394 296.548834 
L 298.583823 294.27744 
L 299.731252 308.267163 
L 300.878681 317.301118 
L 302.02611 315.95893 
L 304.320968 317.455986 
L 305.468397 317.559231 
L 306.615826 317.249495 
L 307.763255 317.404363 
L 308.910684 334.233329 
L 310.058114 330.361635 
L 311.205543 335.83363 
L 312.352972 336.143365 
L 313.500401 335.110913 
L 314.64783 340.892644 
L 315.795259 341.047512 
L 316.942688 342.131587 
L 318.090117 362.057909 
L 319.237546 362.470889 
L 320.384975 361.231947 
L 321.532404 357.669988 
L 322.679833 359.115421 
L 323.827262 358.90893 
L 326.12212 361.335192 
L 327.269549 363.296851 
L 328.416978 362.935493 
L 329.564407 363.709832 
L 330.711836 363.503341 
L 331.859265 358.857308 
L 333.006694 360.870589 
L 334.154124 361.128702 
L 335.301553 361.128702 
L 336.448982 360.147873 
L 337.596411 361.231947 
L 338.74384 361.231947 
L 339.891269 357.721611 
L 341.038698 355.966442 
L 342.186127 355.863197 
L 343.333556 352.352861 
L 344.480985 357.050517 
L 346.775843 356.844026 
L 347.923272 356.585913 
L 349.070701 346.57113 
L 350.21813 346.984111 
L 351.365559 346.725998 
L 352.512988 345.641923 
L 353.660417 345.538678 
L 354.807846 349.410373 
L 355.955275 351.372031 
L 357.102705 346.984111 
L 358.250134 346.984111 
L 359.397563 349.203882 
L 360.544992 350.081466 
L 361.692421 350.081466 
L 362.83985 353.746671 
L 363.987279 343.525397 
L 365.134708 343.422151 
L 366.282137 348.481166 
L 367.429566 343.112416 
L 368.576995 345.332187 
L 370.871853 346.158149 
L 372.019282 356.534291 
L 373.166711 352.301238 
L 374.31414 352.920709 
L 375.461569 353.695048 
L 376.608998 354.004784 
L 377.756427 346.158149 
L 378.903856 344.919207 
L 380.051285 342.957548 
L 381.198715 322.463377 
L 382.346144 316.578401 
L 384.641002 312.551839 
L 385.788431 305.169808 
L 386.93586 306.873353 
L 388.083289 302.743546 
L 389.230718 301.194868 
L 390.378147 307.647692 
L 391.525576 302.898413 
L 392.673005 295.67125 
L 393.820434 295.774495 
L 394.967863 284.211034 
L 396.115292 287.463257 
L 397.262721 287.308389 
L 398.41015 268.569387 
L 399.557579 268.517764 
L 400.705008 276.003041 
L 401.852437 265.936635 
L 402.999866 264.491202 
L 404.147295 283.281827 
L 405.294725 284.93375 
L 406.442154 280.132849 
L 407.589583 274.247873 
L 408.737012 279.719868 
L 409.884441 278.326058 
L 411.03187 272.441082 
L 412.179299 273.731647 
L 413.326728 265.523654 
L 414.474157 270.169687 
L 415.621586 275.951418 
L 416.769015 273.215421 
L 417.916444 282.662356 
L 419.063873 277.706587 
L 420.211302 277.809832 
L 421.358731 296.342344 
L 423.653589 291.541442 
L 424.801018 289.063558 
L 425.948447 296.239099 
L 427.095876 282.662356 
L 428.243306 284.314279 
L 430.538164 297.787776 
L 431.685593 292.470649 
L 432.833022 301.504603 
L 433.980451 309.041502 
L 435.12788 305.479543 
L 436.275309 313.17131 
L 437.422738 310.228822 
L 439.717596 313.119687 
L 440.865025 316.165421 
L 442.012454 320.966322 
L 443.159883 318.591683 
L 444.307312 313.3778 
L 445.454741 315.081346 
L 446.60217 317.868966 
L 448.897028 314.668365 
L 450.044457 324.941262 
L 451.191886 327.006166 
L 452.339316 327.006166 
L 453.486745 328.193486 
L 454.634174 335.110913 
L 455.781603 334.801178 
L 456.929032 335.83363 
L 458.076461 338.982608 
L 459.22389 339.240721 
L 460.371319 338.156647 
L 461.518748 332.426538 
L 462.666177 329.535673 
L 463.813606 321.843906 
L 464.961035 321.947151 
L 466.108464 309.093125 
L 467.255893 312.396971 
L 468.403322 306.563618 
L 469.550751 304.034111 
L 470.69818 318.74655 
L 471.845609 320.450096 
L 472.993038 324.734772 
L 474.140467 313.17131 
L 475.287896 313.222933 
L 476.435326 309.19637 
L 477.582755 309.19637 
L 478.730184 308.731767 
L 481.025042 305.686034 
L 482.172471 305.737656 
L 484.467329 308.835012 
L 485.614758 309.712596 
L 486.762187 315.804062 
L 487.909616 302.537055 
L 489.057045 316.217043 
L 490.204474 311.57101 
L 491.351903 312.913197 
L 492.499332 316.371911 
L 493.646761 315.907308 
L 495.941619 316.733269 
L 497.089048 328.864579 
L 498.236477 328.967825 
L 499.383907 333.097632 
L 500.531336 333.45899 
L 502.826194 340.066683 
L 503.973623 342.3897 
L 505.121052 342.699435 
L 506.268481 345.5903 
L 507.41591 349.926599 
L 508.563339 353.282067 
L 509.710768 355.243726 
L 510.858197 369.594808 
L 512.005626 371.246731 
L 513.153055 379.816082 
L 514.300484 385.029964 
L 515.447913 385.236454 
L 516.595342 386.423774 
L 517.742771 386.527019 
L 518.8902 386.94 
L 609.537095 386.94 
L 610.684524 379.764459 
L 611.831953 367.839639 
L 612.979382 347.293846 
L 614.126811 341.150757 
L 615.27424 329.48405 
L 616.421669 316.681647 
L 621.011386 234.498474 
L 622.158815 227.735913 
L 623.306244 222.263918 
L 627.89596 140.080745 
L 629.043389 126.504002 
L 630.190818 115.508389 
L 631.338247 110.862356 
L 632.485676 98.163197 
L 633.633105 87.374075 
L 634.780534 89.025998 
L 635.927963 100.228101 
L 637.075392 88.458149 
L 638.222821 95.220709 
L 639.37025 90.110072 
L 640.517679 109.003942 
L 641.665109 116.695709 
L 642.812538 116.695709 
L 643.959967 135.176599 
L 645.107396 137.809351 
L 646.254825 130.065962 
L 647.402254 130.065962 
L 648.549683 142.094026 
L 649.697112 157.632428 
L 650.844541 161.039519 
L 651.99197 168.473173 
L 653.139399 178.384712 
L 654.286828 162.484952 
L 655.434257 156.754844 
L 656.581686 173.222452 
L 657.729115 162.949555 
L 658.876544 171.054303 
L 660.023973 168.42155 
L 661.171402 156.548353 
L 662.318831 157.116202 
L 663.46626 138.222332 
L 664.613689 145.501118 
L 665.761119 163.0528 
L 666.908548 164.24012 
L 668.055977 164.601478 
L 669.203406 167.543966 
L 670.350835 185.457007 
L 671.498264 191.600096 
L 672.645693 186.437837 
L 673.793122 202.182728 
L 674.940551 195.368546 
L 676.08798 191.651719 
L 677.235409 191.651719 
L 678.382838 203.576538 
L 679.530267 202.492464 
L 680.677696 217.772752 
L 681.825125 198.930505 
L 682.972554 198.930505 
L 684.119983 197.588317 
L 685.267412 195.884772 
L 686.414841 195.884772 
L 687.56227 180.914219 
L 688.709699 175.803582 
L 689.857129 168.886154 
L 691.004558 162.949555 
L 692.151987 172.499736 
L 693.299416 154.586695 
L 694.446845 152.625036 
L 695.594274 142.248894 
L 696.741703 137.964219 
L 697.889132 130.375697 
L 699.036561 132.698714 
L 700.18399 144.262175 
L 701.331419 138.273954 
L 702.478848 120.309291 
L 703.626277 105.029002 
L 704.773706 104.564399 
L 705.921135 113.185373 
L 707.068564 130.891923 
L 708.215993 129.394868 
L 709.363422 129.394868 
L 710.510851 145.862476 
L 711.65828 133.42143 
L 712.80571 136.467163 
L 713.953139 129.601358 
L 715.100568 109.778281 
L 716.247997 113.391863 
L 717.395426 97.182368 
L 718.542855 97.182368 
L 719.690284 97.853462 
L 720.837713 115.92137 
L 721.985142 111.894808 
L 723.132571 105.545228 
L 724.28 97.492103 
L 724.28 97.492103 
" style="fill:none;stroke:#1f77b4;stroke-linecap:square;stroke-width:1.5;"/>
   </g>
   <g id="line2d_16">
    <path clip-path="url(#pff7cee49da)" d="M 58.771152 118.812236 
L 59.918581 118.812236 
L 61.06601 128.620529 
L 62.213439 121.651478 
L 63.360868 123.87125 
L 64.508297 123.87125 
L 65.655726 142.76512 
L 66.803155 139.461274 
L 67.950584 149.372812 
L 69.098013 160.729784 
L 70.245442 141.009952 
L 71.392871 155.051298 
L 72.540301 151.850697 
L 73.68773 170.486454 
L 74.835159 157.167825 
L 75.982588 146.585192 
L 77.130017 145.191382 
L 78.277446 145.191382 
L 79.424875 133.989279 
L 80.572304 144.623534 
L 81.719733 148.804964 
L 82.867162 150.456887 
L 84.014591 155.722392 
L 85.16202 146.94655 
L 86.309449 127.742945 
L 87.456878 127.742945 
L 88.604307 120.412536 
L 89.751736 122.580685 
L 90.899165 132.543846 
L 92.046594 121.186875 
L 93.194023 128.723774 
L 94.341452 131.924375 
L 95.488881 141.319687 
L 96.636311 123.819627 
L 97.78374 133.060072 
L 98.931169 152.470168 
L 100.078598 135.434712 
L 101.226027 137.18988 
L 102.373456 147.772512 
L 103.520885 137.138257 
L 104.668314 122.322572 
L 105.815743 136.725276 
L 106.963172 121.651478 
L 108.110601 137.086635 
L 109.25803 142.76512 
L 110.405459 143.332969 
L 111.552888 131.769507 
L 112.700317 115.766502 
L 113.847746 95.891803 
L 114.995175 95.891803 
L 116.142604 88.354904 
L 117.290033 69.564279 
L 118.437462 64.866623 
L 119.584891 67.499375 
L 120.732321 59.497873 
L 121.87975 43.34 
L 123.027179 43.34 
L 124.174608 56.090781 
L 125.322037 60.117344 
L 126.469466 73.074615 
L 127.616895 91.916863 
L 128.764324 86.238377 
L 129.911753 102.912476 
L 131.059182 94.859351 
L 132.206611 95.582067 
L 133.35404 113.495108 
L 134.501469 115.766502 
L 135.648898 132.956827 
L 136.796327 152.057187 
L 137.943756 156.961334 
L 139.091185 159.387596 
L 140.238614 176.16494 
L 141.386043 171.467284 
L 142.533472 167.595589 
L 143.680902 166.356647 
L 144.828331 166.201779 
L 145.97576 166.201779 
L 147.123189 155.928882 
L 148.270618 139.822632 
L 149.418047 127.278341 
L 150.565476 126.245889 
L 151.712905 121.444988 
L 152.860334 125.26506 
L 155.155192 151.799075 
L 156.302621 136.518786 
L 157.45005 153.709111 
L 158.597479 157.012957 
L 159.744908 157.47756 
L 160.892337 173.067584 
L 162.039766 190.774135 
L 163.187195 177.145769 
L 166.629482 237.182849 
L 167.776912 254.579663 
L 168.924341 274.247873 
L 170.07177 272.957308 
L 171.219199 287.979483 
L 172.366628 307.854183 
L 173.514057 310.538558 
L 174.661486 324.476659 
L 175.808915 313.326178 
L 176.956344 312.138858 
L 178.103773 312.809952 
L 179.251202 330.103522 
L 180.398631 317.455986 
L 181.54606 317.301118 
L 182.693489 316.578401 
L 183.840918 302.22732 
L 184.988347 301.865962 
L 186.135776 318.849796 
L 187.283205 314.461875 
L 188.430634 315.287837 
L 189.578063 315.907308 
L 190.725492 315.081346 
L 191.872922 315.907308 
L 193.020351 333.200877 
L 194.16778 327.728882 
L 195.315209 322.927981 
L 196.462638 322.360132 
L 197.610067 302.846791 
L 198.757496 313.997272 
L 199.904925 314.616743 
L 201.052354 314.616743 
L 202.199783 314.307007 
L 203.347212 327.986995 
L 204.494641 328.141863 
L 205.64207 329.793786 
L 206.789499 344.144868 
L 207.936928 343.835132 
L 209.084357 342.854303 
L 210.231786 347.035733 
L 211.379215 346.261394 
L 212.526644 346.261394 
L 213.674073 344.609471 
L 214.821503 340.118305 
L 217.116361 315.75244 
L 218.26379 320.759832 
L 219.411219 321.32768 
L 220.558648 341.615361 
L 222.853506 340.789399 
L 224.000935 337.02095 
L 227.443222 336.711214 
L 228.590651 336.194988 
L 229.73808 335.988498 
L 230.885509 330.206767 
L 232.032938 315.029724 
L 233.180367 315.236214 
L 234.327796 312.396971 
L 236.622654 311.725877 
L 237.770083 315.029724 
L 238.917513 326.644808 
L 240.064942 346.77762 
L 241.212371 346.674375 
L 242.3598 345.693546 
L 243.507229 345.900036 
L 244.654658 343.577019 
L 245.802087 343.473774 
L 246.949516 347.242224 
L 248.096945 346.674375 
L 249.244374 346.674375 
L 250.391803 346.416262 
L 251.539232 345.435433 
L 252.686661 345.641923 
L 253.83409 350.54607 
L 254.981519 365.361755 
L 256.128948 365.25851 
L 257.276377 366.807187 
L 258.423806 365.25851 
L 259.571235 360.767344 
L 260.718664 361.851418 
L 261.866093 362.212776 
L 263.013523 360.509231 
L 264.160952 355.501839 
L 265.308381 354.830745 
L 266.45581 334.336575 
L 267.603239 326.748053 
L 268.750668 327.67726 
L 269.898097 324.166923 
L 271.045526 319.675757 
L 272.192955 319.572512 
L 273.340384 320.037115 
L 274.487813 321.534171 
L 275.635242 321.534171 
L 276.782671 305.324675 
L 277.9301 297.891022 
L 279.077529 294.019327 
L 280.224958 292.832007 
L 281.372387 294.638798 
L 282.519816 299.904303 
L 283.667245 299.85268 
L 284.814674 283.075337 
L 285.962104 285.036995 
L 287.109533 284.314279 
L 288.256962 285.656466 
L 289.404391 305.944147 
L 290.55182 314.152139 
L 291.699249 313.222933 
L 292.846678 316.371911 
L 293.994107 317.559231 
L 295.141536 317.507608 
L 296.288965 316.268666 
L 297.436394 296.135853 
L 298.583823 295.722873 
L 299.731252 313.532668 
L 300.878681 320.295228 
L 302.02611 320.243606 
L 303.173539 323.495829 
L 304.320968 321.895529 
L 305.468397 321.017945 
L 306.615826 318.694928 
L 307.763255 335.885252 
L 308.910684 333.665481 
L 310.058114 339.498834 
L 311.205543 339.550457 
L 312.352972 335.678762 
L 313.500401 337.485553 
L 314.64783 338.62125 
L 315.795259 337.743666 
L 316.942688 339.860192 
L 318.090117 340.01506 
L 319.237546 341.099135 
L 320.384975 361.231947 
L 321.532404 361.644928 
L 322.679833 360.30274 
L 323.827262 356.740781 
L 324.974691 358.186214 
L 326.12212 357.979724 
L 328.416978 360.509231 
L 329.564407 362.574135 
L 330.711836 360.560853 
L 331.859265 362.67738 
L 333.006694 357.669988 
L 334.154124 355.863197 
L 335.301553 359.941382 
L 336.448982 360.199495 
L 337.596411 357.876478 
L 338.74384 358.031346 
L 339.891269 360.199495 
L 341.038698 356.431046 
L 342.186127 354.7275 
L 343.333556 354.624255 
L 344.480985 349.461995 
L 345.628414 349.874976 
L 346.775843 353.178822 
L 347.923272 355.398594 
L 349.070701 354.985613 
L 350.21813 343.628642 
L 351.365559 345.332187 
L 352.512988 345.125697 
L 353.660417 344.506226 
L 354.807846 344.402981 
L 355.955275 348.377921 
L 357.102705 350.442825 
L 358.250134 345.951659 
L 359.397563 345.951659 
L 360.544992 348.274675 
L 361.692421 336.866082 
L 362.83985 329.845409 
L 363.987279 333.304123 
L 365.134708 335.162536 
L 366.282137 335.110913 
L 367.429566 339.034231 
L 368.576995 335.936875 
L 369.724424 338.569627 
L 370.871853 337.072572 
L 372.019282 337.692043 
L 373.166711 340.324796 
L 375.461569 337.485553 
L 377.756427 334.130084 
L 378.903856 327.935373 
L 380.051285 327.935373 
L 381.198715 311.932368 
L 382.346144 297.581286 
L 383.493573 292.625517 
L 384.641002 300.575397 
L 385.788431 305.944147 
L 386.93586 306.20226 
L 388.083289 303.104904 
L 389.230718 300.523774 
L 390.378147 294.896911 
L 391.525576 299.181587 
L 392.673005 286.172692 
L 393.820434 267.536935 
L 394.967863 265.575276 
L 396.115292 271.718365 
L 397.262721 271.873233 
L 398.41015 265.265541 
L 399.557579 268.569387 
L 400.705008 263.561995 
L 401.852437 264.542825 
L 402.999866 263.407127 
L 404.147295 283.643185 
L 405.294725 292.470649 
L 406.442154 296.342344 
L 407.589583 300.83351 
L 408.737012 295.516382 
L 409.884441 293.554724 
L 411.03187 295.929363 
L 412.179299 287.51488 
L 413.326728 283.952921 
L 414.474157 275.280325 
L 415.621586 287.618125 
L 416.769015 306.718486 
L 417.916444 305.789279 
L 419.063873 305.273053 
L 420.211302 298.097512 
L 421.358731 300.265661 
L 422.50616 287.308389 
L 423.653589 293.657969 
L 424.801018 284.417524 
L 425.948447 282.868846 
L 427.095876 283.023714 
L 428.243306 279.77149 
L 429.390735 278.016322 
L 430.538164 275.177079 
L 431.685593 278.222812 
L 432.833022 275.899796 
L 433.980451 272.079724 
L 435.12788 274.660853 
L 436.275309 283.126959 
L 437.422738 276.261154 
L 439.717596 273.112175 
L 440.865025 269.137236 
L 442.012454 269.963197 
L 443.159883 267.382067 
L 444.307312 273.370288 
L 445.454741 283.53994 
L 446.60217 275.951418 
L 447.749599 274.815721 
L 448.897028 266.814219 
L 450.044457 262.323053 
L 451.191886 270.479423 
L 452.339316 260.206526 
L 453.486745 263.045769 
L 454.634174 263.149014 
L 455.781603 263.097392 
L 456.929032 264.336334 
L 458.076461 269.963197 
L 459.22389 264.594447 
L 460.371319 276.674135 
L 461.518748 276.98387 
L 462.666177 276.261154 
L 463.813606 272.131346 
L 464.961035 273.060553 
L 466.108464 275.280325 
L 467.255893 270.582668 
L 468.403322 274.247873 
L 469.550751 281.991262 
L 470.69818 298.45887 
L 471.845609 303.672752 
L 472.993038 302.330565 
L 474.140467 302.743546 
L 475.287896 310.38369 
L 476.435326 305.479543 
L 478.730184 312.758329 
L 479.877613 311.209651 
L 481.025042 293.657969 
L 482.172471 298.304002 
L 483.3199 301.762716 
L 484.467329 302.485433 
L 485.614758 301.659471 
L 486.762187 311.364519 
L 487.909616 312.138858 
L 489.057045 320.037115 
L 490.204474 323.392584 
L 491.351903 319.004663 
L 492.499332 310.280445 
L 493.646761 308.731767 
L 494.79419 309.970709 
L 495.941619 311.519387 
L 497.089048 311.7775 
L 499.383907 322.30851 
L 500.531336 322.463377 
L 501.678765 323.340962 
L 502.826194 328.245108 
L 503.973623 348.790901 
L 505.121052 351.526899 
L 506.268481 351.630144 
L 507.41591 352.972332 
L 508.563339 357.463498 
L 509.710768 358.805685 
L 512.005626 360.664099 
L 513.153055 362.625757 
L 514.300484 367.220168 
L 515.447913 376.460613 
L 516.595342 378.215781 
L 518.8902 386.94 
L 609.537095 386.94 
L 610.684524 375.737897 
L 614.126811 314.100517 
L 615.27424 303.363017 
L 618.716528 241.725637 
L 619.863957 238.731526 
L 622.158815 197.63994 
L 623.306244 189.380325 
L 624.453673 176.268185 
L 625.601102 171.622151 
L 626.748531 157.529183 
L 627.89596 155.567524 
L 630.190818 118.760613 
L 631.338247 113.546731 
L 632.485676 99.092404 
L 633.633105 106.1647 
L 634.780534 124.748834 
L 635.927963 132.02762 
L 637.075392 132.02762 
L 638.222821 135.692825 
L 640.517679 162.794687 
L 641.665109 162.794687 
L 642.812538 156.548353 
L 643.959967 172.602981 
L 645.107396 174.77113 
L 646.254825 176.474675 
L 647.402254 184.476178 
L 648.549683 179.572031 
L 649.697112 173.119207 
L 650.844541 154.535072 
L 651.99197 161.039519 
L 653.139399 158.819748 
L 654.286828 148.908209 
L 655.434257 145.604363 
L 656.581686 129.188377 
L 657.729115 124.748834 
L 658.876544 136.570409 
L 660.023973 139.925877 
L 661.171402 141.629423 
L 662.318831 137.138257 
L 663.46626 130.220829 
L 664.613689 145.55274 
L 665.761119 134.247392 
L 666.908548 132.182488 
L 668.055977 141.474555 
L 669.203406 127.536454 
L 670.350835 125.110192 
L 671.498264 116.695709 
L 672.645693 122.787175 
L 673.793122 140.596971 
L 674.940551 135.589579 
L 676.08798 135.589579 
L 677.235409 142.661875 
L 678.382838 155.257788 
L 679.530267 158.66488 
L 680.677696 155.928882 
L 681.825125 148.185493 
L 682.972554 144.830024 
L 684.119983 145.449495 
L 685.267412 135.899315 
L 686.414841 143.126478 
L 687.56227 127.794567 
L 688.709699 144.830024 
L 689.857129 141.990781 
L 691.004558 138.273954 
L 692.151987 138.222332 
L 693.299416 125.213437 
L 694.446845 136.776899 
L 695.594274 144.055685 
L 696.741703 126.245889 
L 697.889132 122.68393 
L 699.036561 122.68393 
L 701.331419 123.509892 
L 702.478848 120.773894 
L 703.626277 115.71488 
L 704.773706 104.357909 
L 705.921135 123.355024 
L 707.068564 107.55851 
L 708.215993 107.55851 
L 709.363422 94.188257 
L 710.510851 110.088017 
L 711.65828 110.707488 
L 712.80571 113.288618 
L 713.953139 110.34613 
L 715.100568 110.34613 
L 716.247997 121.496611 
L 717.395426 107.352019 
L 718.542855 105.751719 
L 719.690284 118.141142 
L 720.837713 118.141142 
L 721.985142 135.641202 
L 723.132571 141.629423 
L 724.28 128.981887 
L 724.28 128.981887 
" style="fill:none;stroke:#ff7f0e;stroke-linecap:square;stroke-width:1.5;"/>
   </g>
   <g id="patch_3">
    <path d="M 36.97 404.12 
L 36.97 26.16 
" style="fill:none;stroke:#000000;stroke-linecap:square;stroke-linejoin:miter;stroke-width:0.8;"/>
   </g>
   <g id="patch_4">
    <path d="M 724.28 404.12 
L 724.28 26.16 
" style="fill:none;stroke:#000000;stroke-linecap:square;stroke-linejoin:miter;stroke-width:0.8;"/>
   </g>
   <g id="patch_5">
    <path d="M 36.97 404.12 
L 724.28 404.12 
" style="fill:none;stroke:#000000;stroke-linecap:square;stroke-linejoin:miter;stroke-width:0.8;"/>
   </g>
   <g id="patch_6">
    <path d="M 36.97 26.16 
L 724.28 26.16 
" style="fill:none;stroke:#000000;stroke-linecap:square;stroke-linejoin:miter;stroke-width:0.8;"/>
   </g>
   <g id="text_15">
    <!-- multi_way_v2__2: episode duration, steps, MA=20 -->
    <defs>
     <path d="M 52 44.1875 
Q 55.375 50.25 60.0625 53.125 
Q 64.75 56 71.09375 56 
Q 79.640625 56 84.28125 50.015625 
Q 88.921875 44.046875 88.921875 33.015625 
L 88.921875 0 
L 79.890625 0 
L 79.890625 32.71875 
Q 79.890625 40.578125 77.09375 44.375 
Q 74.3125 48.1875 68.609375 48.1875 
Q 61.625 48.1875 57.5625 43.546875 
Q 53.515625 38.921875 53.515625 30.90625 
L 53.515625 0 
L 44.484375 0 
L 44.484375 32.71875 
Q 44.484375 40.625 41.703125 44.40625 
Q 38.921875 48.1875 33.109375 48.1875 
Q 26.21875 48.1875 22.15625 43.53125 
Q 18.109375 38.875 18.109375 30.90625 
L 18.109375 0 
L 9.078125 0 
L 9.078125 54.6875 
L 18.109375 54.6875 
L 18.109375 46.1875 
Q 21.1875 51.21875 25.484375 53.609375 
Q 29.78125 56 35.6875 56 
Q 41.65625 56 45.828125 52.96875 
Q 50 49.953125 52 44.1875 
z
" id="DejaVuSans-109"/>
     <path d="M 8.5 21.578125 
L 8.5 54.6875 
L 17.484375 54.6875 
L 17.484375 21.921875 
Q 17.484375 14.15625 20.5 10.265625 
Q 23.53125 6.390625 29.59375 6.390625 
Q 36.859375 6.390625 41.078125 11.03125 
Q 45.3125 15.671875 45.3125 23.6875 
L 45.3125 54.6875 
L 54.296875 54.6875 
L 54.296875 0 
L 45.3125 0 
L 45.3125 8.40625 
Q 42.046875 3.421875 37.71875 1 
Q 33.40625 -1.421875 27.6875 -1.421875 
Q 18.265625 -1.421875 13.375 4.4375 
Q 8.5 10.296875 8.5 21.578125 
z
M 31.109375 56 
z
" id="DejaVuSans-117"/>
     <path d="M 9.421875 75.984375 
L 18.40625 75.984375 
L 18.40625 0 
L 9.421875 0 
z
" id="DejaVuSans-108"/>
     <path d="M 18.3125 70.21875 
L 18.3125 54.6875 
L 36.8125 54.6875 
L 36.8125 47.703125 
L 18.3125 47.703125 
L 18.3125 18.015625 
Q 18.3125 11.328125 20.140625 9.421875 
Q 21.96875 7.515625 27.59375 7.515625 
L 36.8125 7.515625 
L 36.8125 0 
L 27.59375 0 
Q 17.1875 0 13.234375 3.875 
Q 9.28125 7.765625 9.28125 18.015625 
L 9.28125 47.703125 
L 2.6875 47.703125 
L 2.6875 54.6875 
L 9.28125 54.6875 
L 9.28125 70.21875 
z
" id="DejaVuSans-116"/>
     <path d="M 9.421875 54.6875 
L 18.40625 54.6875 
L 18.40625 0 
L 9.421875 0 
z
M 9.421875 75.984375 
L 18.40625 75.984375 
L 18.40625 64.59375 
L 9.421875 64.59375 
z
" id="DejaVuSans-105"/>
     <path d="M 50.984375 -16.609375 
L 50.984375 -23.578125 
L -0.984375 -23.578125 
L -0.984375 -16.609375 
z
" id="DejaVuSans-95"/>
     <path d="M 4.203125 54.6875 
L 13.1875 54.6875 
L 24.421875 12.015625 
L 35.59375 54.6875 
L 46.1875 54.6875 
L 57.421875 12.015625 
L 68.609375 54.6875 
L 77.59375 54.6875 
L 63.28125 0 
L 52.6875 0 
L 40.921875 44.828125 
L 29.109375 0 
L 18.5 0 
z
" id="DejaVuSans-119"/>
     <path d="M 34.28125 27.484375 
Q 23.390625 27.484375 19.1875 25 
Q 14.984375 22.515625 14.984375 16.5 
Q 14.984375 11.71875 18.140625 8.90625 
Q 21.296875 6.109375 26.703125 6.109375 
Q 34.1875 6.109375 38.703125 11.40625 
Q 43.21875 16.703125 43.21875 25.484375 
L 43.21875 27.484375 
z
M 52.203125 31.203125 
L 52.203125 0 
L 43.21875 0 
L 43.21875 8.296875 
Q 40.140625 3.328125 35.546875 0.953125 
Q 30.953125 -1.421875 24.3125 -1.421875 
Q 15.921875 -1.421875 10.953125 3.296875 
Q 6 8.015625 6 15.921875 
Q 6 25.140625 12.171875 29.828125 
Q 18.359375 34.515625 30.609375 34.515625 
L 43.21875 34.515625 
L 43.21875 35.40625 
Q 43.21875 41.609375 39.140625 45 
Q 35.0625 48.390625 27.6875 48.390625 
Q 23 48.390625 18.546875 47.265625 
Q 14.109375 46.140625 10.015625 43.890625 
L 10.015625 52.203125 
Q 14.9375 54.109375 19.578125 55.046875 
Q 24.21875 56 28.609375 56 
Q 40.484375 56 46.34375 49.84375 
Q 52.203125 43.703125 52.203125 31.203125 
z
" id="DejaVuSans-97"/>
     <path d="M 32.171875 -5.078125 
Q 28.375 -14.84375 24.75 -17.8125 
Q 21.140625 -20.796875 15.09375 -20.796875 
L 7.90625 -20.796875 
L 7.90625 -13.28125 
L 13.1875 -13.28125 
Q 16.890625 -13.28125 18.9375 -11.515625 
Q 21 -9.765625 23.484375 -3.21875 
L 25.09375 0.875 
L 2.984375 54.6875 
L 12.5 54.6875 
L 29.59375 11.921875 
L 46.6875 54.6875 
L 56.203125 54.6875 
z
" id="DejaVuSans-121"/>
     <path d="M 2.984375 54.6875 
L 12.5 54.6875 
L 29.59375 8.796875 
L 46.6875 54.6875 
L 56.203125 54.6875 
L 35.6875 0 
L 23.484375 0 
z
" id="DejaVuSans-118"/>
     <path d="M 11.71875 12.40625 
L 22.015625 12.40625 
L 22.015625 0 
L 11.71875 0 
z
M 11.71875 51.703125 
L 22.015625 51.703125 
L 22.015625 39.3125 
L 11.71875 39.3125 
z
" id="DejaVuSans-58"/>
     <path id="DejaVuSans-32"/>
     <path d="M 56.203125 29.59375 
L 56.203125 25.203125 
L 14.890625 25.203125 
Q 15.484375 15.921875 20.484375 11.0625 
Q 25.484375 6.203125 34.421875 6.203125 
Q 39.59375 6.203125 44.453125 7.46875 
Q 49.3125 8.734375 54.109375 11.28125 
L 54.109375 2.78125 
Q 49.265625 0.734375 44.1875 -0.34375 
Q 39.109375 -1.421875 33.890625 -1.421875 
Q 20.796875 -1.421875 13.15625 6.1875 
Q 5.515625 13.8125 5.515625 26.8125 
Q 5.515625 40.234375 12.765625 48.109375 
Q 20.015625 56 32.328125 56 
Q 43.359375 56 49.78125 48.890625 
Q 56.203125 41.796875 56.203125 29.59375 
z
M 47.21875 32.234375 
Q 47.125 39.59375 43.09375 43.984375 
Q 39.0625 48.390625 32.421875 48.390625 
Q 24.90625 48.390625 20.390625 44.140625 
Q 15.875 39.890625 15.1875 32.171875 
z
" id="DejaVuSans-101"/>
     <path d="M 18.109375 8.203125 
L 18.109375 -20.796875 
L 9.078125 -20.796875 
L 9.078125 54.6875 
L 18.109375 54.6875 
L 18.109375 46.390625 
Q 20.953125 51.265625 25.265625 53.625 
Q 29.59375 56 35.59375 56 
Q 45.5625 56 51.78125 48.09375 
Q 58.015625 40.1875 58.015625 27.296875 
Q 58.015625 14.40625 51.78125 6.484375 
Q 45.5625 -1.421875 35.59375 -1.421875 
Q 29.59375 -1.421875 25.265625 0.953125 
Q 20.953125 3.328125 18.109375 8.203125 
z
M 48.6875 27.296875 
Q 48.6875 37.203125 44.609375 42.84375 
Q 40.53125 48.484375 33.40625 48.484375 
Q 26.265625 48.484375 22.1875 42.84375 
Q 18.109375 37.203125 18.109375 27.296875 
Q 18.109375 17.390625 22.1875 11.75 
Q 26.265625 6.109375 33.40625 6.109375 
Q 40.53125 6.109375 44.609375 11.75 
Q 48.6875 17.390625 48.6875 27.296875 
z
" id="DejaVuSans-112"/>
     <path d="M 44.28125 53.078125 
L 44.28125 44.578125 
Q 40.484375 46.53125 36.375 47.5 
Q 32.28125 48.484375 27.875 48.484375 
Q 21.1875 48.484375 17.84375 46.4375 
Q 14.5 44.390625 14.5 40.28125 
Q 14.5 37.15625 16.890625 35.375 
Q 19.28125 33.59375 26.515625 31.984375 
L 29.59375 31.296875 
Q 39.15625 29.25 43.1875 25.515625 
Q 47.21875 21.78125 47.21875 15.09375 
Q 47.21875 7.46875 41.1875 3.015625 
Q 35.15625 -1.421875 24.609375 -1.421875 
Q 20.21875 -1.421875 15.453125 -0.5625 
Q 10.6875 0.296875 5.421875 2 
L 5.421875 11.28125 
Q 10.40625 8.6875 15.234375 7.390625 
Q 20.0625 6.109375 24.8125 6.109375 
Q 31.15625 6.109375 34.5625 8.28125 
Q 37.984375 10.453125 37.984375 14.40625 
Q 37.984375 18.0625 35.515625 20.015625 
Q 33.0625 21.96875 24.703125 23.78125 
L 21.578125 24.515625 
Q 13.234375 26.265625 9.515625 29.90625 
Q 5.8125 33.546875 5.8125 39.890625 
Q 5.8125 47.609375 11.28125 51.796875 
Q 16.75 56 26.8125 56 
Q 31.78125 56 36.171875 55.265625 
Q 40.578125 54.546875 44.28125 53.078125 
z
" id="DejaVuSans-115"/>
     <path d="M 30.609375 48.390625 
Q 23.390625 48.390625 19.1875 42.75 
Q 14.984375 37.109375 14.984375 27.296875 
Q 14.984375 17.484375 19.15625 11.84375 
Q 23.34375 6.203125 30.609375 6.203125 
Q 37.796875 6.203125 41.984375 11.859375 
Q 46.1875 17.53125 46.1875 27.296875 
Q 46.1875 37.015625 41.984375 42.703125 
Q 37.796875 48.390625 30.609375 48.390625 
z
M 30.609375 56 
Q 42.328125 56 49.015625 48.375 
Q 55.71875 40.765625 55.71875 27.296875 
Q 55.71875 13.875 49.015625 6.21875 
Q 42.328125 -1.421875 30.609375 -1.421875 
Q 18.84375 -1.421875 12.171875 6.21875 
Q 5.515625 13.875 5.515625 27.296875 
Q 5.515625 40.765625 12.171875 48.375 
Q 18.84375 56 30.609375 56 
z
" id="DejaVuSans-111"/>
     <path d="M 45.40625 46.390625 
L 45.40625 75.984375 
L 54.390625 75.984375 
L 54.390625 0 
L 45.40625 0 
L 45.40625 8.203125 
Q 42.578125 3.328125 38.25 0.953125 
Q 33.9375 -1.421875 27.875 -1.421875 
Q 17.96875 -1.421875 11.734375 6.484375 
Q 5.515625 14.40625 5.515625 27.296875 
Q 5.515625 40.1875 11.734375 48.09375 
Q 17.96875 56 27.875 56 
Q 33.9375 56 38.25 53.625 
Q 42.578125 51.265625 45.40625 46.390625 
z
M 14.796875 27.296875 
Q 14.796875 17.390625 18.875 11.75 
Q 22.953125 6.109375 30.078125 6.109375 
Q 37.203125 6.109375 41.296875 11.75 
Q 45.40625 17.390625 45.40625 27.296875 
Q 45.40625 37.203125 41.296875 42.84375 
Q 37.203125 48.484375 30.078125 48.484375 
Q 22.953125 48.484375 18.875 42.84375 
Q 14.796875 37.203125 14.796875 27.296875 
z
" id="DejaVuSans-100"/>
     <path d="M 41.109375 46.296875 
Q 39.59375 47.171875 37.8125 47.578125 
Q 36.03125 48 33.890625 48 
Q 26.265625 48 22.1875 43.046875 
Q 18.109375 38.09375 18.109375 28.8125 
L 18.109375 0 
L 9.078125 0 
L 9.078125 54.6875 
L 18.109375 54.6875 
L 18.109375 46.1875 
Q 20.953125 51.171875 25.484375 53.578125 
Q 30.03125 56 36.53125 56 
Q 37.453125 56 38.578125 55.875 
Q 39.703125 55.765625 41.0625 55.515625 
z
" id="DejaVuSans-114"/>
     <path d="M 54.890625 33.015625 
L 54.890625 0 
L 45.90625 0 
L 45.90625 32.71875 
Q 45.90625 40.484375 42.875 44.328125 
Q 39.84375 48.1875 33.796875 48.1875 
Q 26.515625 48.1875 22.3125 43.546875 
Q 18.109375 38.921875 18.109375 30.90625 
L 18.109375 0 
L 9.078125 0 
L 9.078125 54.6875 
L 18.109375 54.6875 
L 18.109375 46.1875 
Q 21.34375 51.125 25.703125 53.5625 
Q 30.078125 56 35.796875 56 
Q 45.21875 56 50.046875 50.171875 
Q 54.890625 44.34375 54.890625 33.015625 
z
" id="DejaVuSans-110"/>
     <path d="M 11.71875 12.40625 
L 22.015625 12.40625 
L 22.015625 4 
L 14.015625 -11.625 
L 7.71875 -11.625 
L 11.71875 4 
z
" id="DejaVuSans-44"/>
     <path d="M 9.8125 72.90625 
L 24.515625 72.90625 
L 43.109375 23.296875 
L 61.8125 72.90625 
L 76.515625 72.90625 
L 76.515625 0 
L 66.890625 0 
L 66.890625 64.015625 
L 48.09375 14.015625 
L 38.1875 14.015625 
L 19.390625 64.015625 
L 19.390625 0 
L 9.8125 0 
z
" id="DejaVuSans-77"/>
     <path d="M 34.1875 63.1875 
L 20.796875 26.90625 
L 47.609375 26.90625 
z
M 28.609375 72.90625 
L 39.796875 72.90625 
L 67.578125 0 
L 57.328125 0 
L 50.6875 18.703125 
L 17.828125 18.703125 
L 11.1875 0 
L 0.78125 0 
z
" id="DejaVuSans-65"/>
     <path d="M 10.59375 45.40625 
L 73.1875 45.40625 
L 73.1875 37.203125 
L 10.59375 37.203125 
z
M 10.59375 25.484375 
L 73.1875 25.484375 
L 73.1875 17.1875 
L 10.59375 17.1875 
z
" id="DejaVuSans-61"/>
    </defs>
    <g transform="translate(229.746562 20.16)scale(0.12 -0.12)">
     <use xlink:href="#DejaVuSans-109"/>
     <use x="97.412109" xlink:href="#DejaVuSans-117"/>
     <use x="160.791016" xlink:href="#DejaVuSans-108"/>
     <use x="188.574219" xlink:href="#DejaVuSans-116"/>
     <use x="227.783203" xlink:href="#DejaVuSans-105"/>
     <use x="255.566406" xlink:href="#DejaVuSans-95"/>
     <use x="305.566406" xlink:href="#DejaVuSans-119"/>
     <use x="387.353516" xlink:href="#DejaVuSans-97"/>
     <use x="448.632812" xlink:href="#DejaVuSans-121"/>
     <use x="507.8125" xlink:href="#DejaVuSans-95"/>
     <use x="557.8125" xlink:href="#DejaVuSans-118"/>
     <use x="616.992188" xlink:href="#DejaVuSans-50"/>
     <use x="680.615234" xlink:href="#DejaVuSans-95"/>
     <use x="730.615234" xlink:href="#DejaVuSans-95"/>
     <use x="780.615234" xlink:href="#DejaVuSans-50"/>
     <use x="844.238281" xlink:href="#DejaVuSans-58"/>
     <use x="877.929688" xlink:href="#DejaVuSans-32"/>
     <use x="909.716797" xlink:href="#DejaVuSans-101"/>
     <use x="971.240234" xlink:href="#DejaVuSans-112"/>
     <use x="1034.716797" xlink:href="#DejaVuSans-105"/>
     <use x="1062.5" xlink:href="#DejaVuSans-115"/>
     <use x="1114.599609" xlink:href="#DejaVuSans-111"/>
     <use x="1175.78125" xlink:href="#DejaVuSans-100"/>
     <use x="1239.257812" xlink:href="#DejaVuSans-101"/>
     <use x="1300.78125" xlink:href="#DejaVuSans-32"/>
     <use x="1332.568359" xlink:href="#DejaVuSans-100"/>
     <use x="1396.044922" xlink:href="#DejaVuSans-117"/>
     <use x="1459.423828" xlink:href="#DejaVuSans-114"/>
     <use x="1500.537109" xlink:href="#DejaVuSans-97"/>
     <use x="1561.816406" xlink:href="#DejaVuSans-116"/>
     <use x="1601.025391" xlink:href="#DejaVuSans-105"/>
     <use x="1628.808594" xlink:href="#DejaVuSans-111"/>
     <use x="1689.990234" xlink:href="#DejaVuSans-110"/>
     <use x="1753.369141" xlink:href="#DejaVuSans-44"/>
     <use x="1785.15625" xlink:href="#DejaVuSans-32"/>
     <use x="1816.943359" xlink:href="#DejaVuSans-115"/>
     <use x="1869.042969" xlink:href="#DejaVuSans-116"/>
     <use x="1908.251953" xlink:href="#DejaVuSans-101"/>
     <use x="1969.775391" xlink:href="#DejaVuSans-112"/>
     <use x="2033.251953" xlink:href="#DejaVuSans-115"/>
     <use x="2085.351562" xlink:href="#DejaVuSans-44"/>
     <use x="2117.138672" xlink:href="#DejaVuSans-32"/>
     <use x="2148.925781" xlink:href="#DejaVuSans-77"/>
     <use x="2235.205078" xlink:href="#DejaVuSans-65"/>
     <use x="2303.613281" xlink:href="#DejaVuSans-61"/>
     <use x="2387.402344" xlink:href="#DejaVuSans-50"/>
     <use x="2451.025391" xlink:href="#DejaVuSans-48"/>
    </g>
   </g>
   <g id="legend_1">
    <g id="patch_7">
     <path d="M 773.670125 231.59625 
L 854.742 231.59625 
Q 856.742 231.59625 856.742 229.59625 
L 856.742 200.68375 
Q 856.742 198.68375 854.742 198.68375 
L 773.670125 198.68375 
Q 771.670125 198.68375 771.670125 200.68375 
L 771.670125 229.59625 
Q 771.670125 231.59625 773.670125 231.59625 
z
" style="fill:#ffffff;opacity:0.8;stroke:#cccccc;stroke-linejoin:miter;"/>
    </g>
    <g id="line2d_17">
     <path d="M 775.670125 206.782187 
L 795.670125 206.782187 
" style="fill:none;stroke:#1f77b4;stroke-linecap:square;stroke-width:1.5;"/>
    </g>
    <g id="line2d_18"/>
    <g id="text_16">
     <!-- htm_2_1g -->
     <defs>
      <path d="M 54.890625 33.015625 
L 54.890625 0 
L 45.90625 0 
L 45.90625 32.71875 
Q 45.90625 40.484375 42.875 44.328125 
Q 39.84375 48.1875 33.796875 48.1875 
Q 26.515625 48.1875 22.3125 43.546875 
Q 18.109375 38.921875 18.109375 30.90625 
L 18.109375 0 
L 9.078125 0 
L 9.078125 75.984375 
L 18.109375 75.984375 
L 18.109375 46.1875 
Q 21.34375 51.125 25.703125 53.5625 
Q 30.078125 56 35.796875 56 
Q 45.21875 56 50.046875 50.171875 
Q 54.890625 44.34375 54.890625 33.015625 
z
" id="DejaVuSans-104"/>
      <path d="M 45.40625 27.984375 
Q 45.40625 37.75 41.375 43.109375 
Q 37.359375 48.484375 30.078125 48.484375 
Q 22.859375 48.484375 18.828125 43.109375 
Q 14.796875 37.75 14.796875 27.984375 
Q 14.796875 18.265625 18.828125 12.890625 
Q 22.859375 7.515625 30.078125 7.515625 
Q 37.359375 7.515625 41.375 12.890625 
Q 45.40625 18.265625 45.40625 27.984375 
z
M 54.390625 6.78125 
Q 54.390625 -7.171875 48.1875 -13.984375 
Q 42 -20.796875 29.203125 -20.796875 
Q 24.46875 -20.796875 20.265625 -20.09375 
Q 16.0625 -19.390625 12.109375 -17.921875 
L 12.109375 -9.1875 
Q 16.0625 -11.328125 19.921875 -12.34375 
Q 23.78125 -13.375 27.78125 -13.375 
Q 36.625 -13.375 41.015625 -8.765625 
Q 45.40625 -4.15625 45.40625 5.171875 
L 45.40625 9.625 
Q 42.625 4.78125 38.28125 2.390625 
Q 33.9375 0 27.875 0 
Q 17.828125 0 11.671875 7.65625 
Q 5.515625 15.328125 5.515625 27.984375 
Q 5.515625 40.671875 11.671875 48.328125 
Q 17.828125 56 27.875 56 
Q 33.9375 56 38.28125 53.609375 
Q 42.625 51.21875 45.40625 46.390625 
L 45.40625 54.6875 
L 54.390625 54.6875 
z
" id="DejaVuSans-103"/>
     </defs>
     <g transform="translate(803.670125 210.282187)scale(0.1 -0.1)">
      <use xlink:href="#DejaVuSans-104"/>
      <use x="63.378906" xlink:href="#DejaVuSans-116"/>
      <use x="102.587891" xlink:href="#DejaVuSans-109"/>
      <use x="200" xlink:href="#DejaVuSans-95"/>
      <use x="250" xlink:href="#DejaVuSans-50"/>
      <use x="313.623047" xlink:href="#DejaVuSans-95"/>
      <use x="363.623047" xlink:href="#DejaVuSans-49"/>
      <use x="427.246094" xlink:href="#DejaVuSans-103"/>
     </g>
    </g>
    <g id="line2d_19">
     <path d="M 775.670125 221.738437 
L 795.670125 221.738437 
" style="fill:none;stroke:#ff7f0e;stroke-linecap:square;stroke-width:1.5;"/>
    </g>
    <g id="line2d_20"/>
    <g id="text_17">
     <!-- htm_2 -->
     <g transform="translate(803.670125 225.238437)scale(0.1 -0.1)">
      <use xlink:href="#DejaVuSans-104"/>
      <use x="63.378906" xlink:href="#DejaVuSans-116"/>
      <use x="102.587891" xlink:href="#DejaVuSans-109"/>
      <use x="200" xlink:href="#DejaVuSans-95"/>
      <use x="250" xlink:href="#DejaVuSans-50"/>
     </g>
    </g>
   </g>
  </g>
 </g>
 <defs>
  <clipPath id="pff7cee49da">
   <rect height="377.96" width="687.31" x="36.97" y="26.16"/>
  </clipPath>
 </defs>
</svg>
