<?xml version="1.0" encoding="utf-8" standalone="no"?>
<!DOCTYPE svg PUBLIC "-//W3C//DTD SVG 1.1//EN"
  "http://www.w3.org/Graphics/SVG/1.1/DTD/svg11.dtd">
<!-- Created with matplotlib (https://matplotlib.org/) -->
<svg height="432pt" version="1.1" viewBox="0 0 864 432" width="864pt" xmlns="http://www.w3.org/2000/svg" xmlns:xlink="http://www.w3.org/1999/xlink">
 <defs>
  <style type="text/css">
*{stroke-linecap:butt;stroke-linejoin:round;}
  </style>
 </defs>
 <g id="figure_1">
  <g id="patch_1">
   <path d="M 0 432 
L 864 432 
L 864 0 
L 0 0 
z
" style="fill:#ffffff;"/>
  </g>
  <g id="axes_1">
   <g id="patch_2">
    <path d="M 42.145 404.12 
L 724.28 404.12 
L 724.28 26.52 
L 42.145 26.52 
z
" style="fill:#ffffff;"/>
   </g>
   <g id="matplotlib.axis_1">
    <g id="xtick_1">
     <g id="line2d_1">
      <defs>
       <path d="M 0 0 
L 0 3.5 
" id="mbdf6d4c681" style="stroke:#000000;stroke-width:0.8;"/>
      </defs>
      <g>
       <use style="stroke:#000000;stroke-width:0.8;" x="42.145" xlink:href="#mbdf6d4c681" y="404.12"/>
      </g>
     </g>
     <g id="text_1">
      <!-- 0 -->
      <defs>
       <path d="M 31.78125 66.40625 
Q 24.171875 66.40625 20.328125 58.90625 
Q 16.5 51.421875 16.5 36.375 
Q 16.5 21.390625 20.328125 13.890625 
Q 24.171875 6.390625 31.78125 6.390625 
Q 39.453125 6.390625 43.28125 13.890625 
Q 47.125 21.390625 47.125 36.375 
Q 47.125 51.421875 43.28125 58.90625 
Q 39.453125 66.40625 31.78125 66.40625 
z
M 31.78125 74.21875 
Q 44.046875 74.21875 50.515625 64.515625 
Q 56.984375 54.828125 56.984375 36.375 
Q 56.984375 17.96875 50.515625 8.265625 
Q 44.046875 -1.421875 31.78125 -1.421875 
Q 19.53125 -1.421875 13.0625 8.265625 
Q 6.59375 17.96875 6.59375 36.375 
Q 6.59375 54.828125 13.0625 64.515625 
Q 19.53125 74.21875 31.78125 74.21875 
z
" id="DejaVuSans-48"/>
      </defs>
      <g transform="translate(38.96375 418.718437)scale(0.1 -0.1)">
       <use xlink:href="#DejaVuSans-48"/>
      </g>
     </g>
    </g>
    <g id="xtick_2">
     <g id="line2d_2">
      <g>
       <use style="stroke:#000000;stroke-width:0.8;" x="178.708564" xlink:href="#mbdf6d4c681" y="404.12"/>
      </g>
     </g>
     <g id="text_2">
      <!-- 200 -->
      <defs>
       <path d="M 19.1875 8.296875 
L 53.609375 8.296875 
L 53.609375 0 
L 7.328125 0 
L 7.328125 8.296875 
Q 12.9375 14.109375 22.625 23.890625 
Q 32.328125 33.6875 34.8125 36.53125 
Q 39.546875 41.84375 41.421875 45.53125 
Q 43.3125 49.21875 43.3125 52.78125 
Q 43.3125 58.59375 39.234375 62.25 
Q 35.15625 65.921875 28.609375 65.921875 
Q 23.96875 65.921875 18.8125 64.3125 
Q 13.671875 62.703125 7.8125 59.421875 
L 7.8125 69.390625 
Q 13.765625 71.78125 18.9375 73 
Q 24.125 74.21875 28.421875 74.21875 
Q 39.75 74.21875 46.484375 68.546875 
Q 53.21875 62.890625 53.21875 53.421875 
Q 53.21875 48.921875 51.53125 44.890625 
Q 49.859375 40.875 45.40625 35.40625 
Q 44.1875 33.984375 37.640625 27.21875 
Q 31.109375 20.453125 19.1875 8.296875 
z
" id="DejaVuSans-50"/>
      </defs>
      <g transform="translate(169.164814 418.718437)scale(0.1 -0.1)">
       <use xlink:href="#DejaVuSans-50"/>
       <use x="63.623047" xlink:href="#DejaVuSans-48"/>
       <use x="127.246094" xlink:href="#DejaVuSans-48"/>
      </g>
     </g>
    </g>
    <g id="xtick_3">
     <g id="line2d_3">
      <g>
       <use style="stroke:#000000;stroke-width:0.8;" x="315.272127" xlink:href="#mbdf6d4c681" y="404.12"/>
      </g>
     </g>
     <g id="text_3">
      <!-- 400 -->
      <defs>
       <path d="M 37.796875 64.3125 
L 12.890625 25.390625 
L 37.796875 25.390625 
z
M 35.203125 72.90625 
L 47.609375 72.90625 
L 47.609375 25.390625 
L 58.015625 25.390625 
L 58.015625 17.1875 
L 47.609375 17.1875 
L 47.609375 0 
L 37.796875 0 
L 37.796875 17.1875 
L 4.890625 17.1875 
L 4.890625 26.703125 
z
" id="DejaVuSans-52"/>
      </defs>
      <g transform="translate(305.728377 418.718437)scale(0.1 -0.1)">
       <use xlink:href="#DejaVuSans-52"/>
       <use x="63.623047" xlink:href="#DejaVuSans-48"/>
       <use x="127.246094" xlink:href="#DejaVuSans-48"/>
      </g>
     </g>
    </g>
    <g id="xtick_4">
     <g id="line2d_4">
      <g>
       <use style="stroke:#000000;stroke-width:0.8;" x="451.835691" xlink:href="#mbdf6d4c681" y="404.12"/>
      </g>
     </g>
     <g id="text_4">
      <!-- 600 -->
      <defs>
       <path d="M 33.015625 40.375 
Q 26.375 40.375 22.484375 35.828125 
Q 18.609375 31.296875 18.609375 23.390625 
Q 18.609375 15.53125 22.484375 10.953125 
Q 26.375 6.390625 33.015625 6.390625 
Q 39.65625 6.390625 43.53125 10.953125 
Q 47.40625 15.53125 47.40625 23.390625 
Q 47.40625 31.296875 43.53125 35.828125 
Q 39.65625 40.375 33.015625 40.375 
z
M 52.59375 71.296875 
L 52.59375 62.3125 
Q 48.875 64.0625 45.09375 64.984375 
Q 41.3125 65.921875 37.59375 65.921875 
Q 27.828125 65.921875 22.671875 59.328125 
Q 17.53125 52.734375 16.796875 39.40625 
Q 19.671875 43.65625 24.015625 45.921875 
Q 28.375 48.1875 33.59375 48.1875 
Q 44.578125 48.1875 50.953125 41.515625 
Q 57.328125 34.859375 57.328125 23.390625 
Q 57.328125 12.15625 50.6875 5.359375 
Q 44.046875 -1.421875 33.015625 -1.421875 
Q 20.359375 -1.421875 13.671875 8.265625 
Q 6.984375 17.96875 6.984375 36.375 
Q 6.984375 53.65625 15.1875 63.9375 
Q 23.390625 74.21875 37.203125 74.21875 
Q 40.921875 74.21875 44.703125 73.484375 
Q 48.484375 72.75 52.59375 71.296875 
z
" id="DejaVuSans-54"/>
      </defs>
      <g transform="translate(442.291941 418.718437)scale(0.1 -0.1)">
       <use xlink:href="#DejaVuSans-54"/>
       <use x="63.623047" xlink:href="#DejaVuSans-48"/>
       <use x="127.246094" xlink:href="#DejaVuSans-48"/>
      </g>
     </g>
    </g>
    <g id="xtick_5">
     <g id="line2d_5">
      <g>
       <use style="stroke:#000000;stroke-width:0.8;" x="588.399254" xlink:href="#mbdf6d4c681" y="404.12"/>
      </g>
     </g>
     <g id="text_5">
      <!-- 800 -->
      <defs>
       <path d="M 31.78125 34.625 
Q 24.75 34.625 20.71875 30.859375 
Q 16.703125 27.09375 16.703125 20.515625 
Q 16.703125 13.921875 20.71875 10.15625 
Q 24.75 6.390625 31.78125 6.390625 
Q 38.8125 6.390625 42.859375 10.171875 
Q 46.921875 13.96875 46.921875 20.515625 
Q 46.921875 27.09375 42.890625 30.859375 
Q 38.875 34.625 31.78125 34.625 
z
M 21.921875 38.8125 
Q 15.578125 40.375 12.03125 44.71875 
Q 8.5 49.078125 8.5 55.328125 
Q 8.5 64.0625 14.71875 69.140625 
Q 20.953125 74.21875 31.78125 74.21875 
Q 42.671875 74.21875 48.875 69.140625 
Q 55.078125 64.0625 55.078125 55.328125 
Q 55.078125 49.078125 51.53125 44.71875 
Q 48 40.375 41.703125 38.8125 
Q 48.828125 37.15625 52.796875 32.3125 
Q 56.78125 27.484375 56.78125 20.515625 
Q 56.78125 9.90625 50.3125 4.234375 
Q 43.84375 -1.421875 31.78125 -1.421875 
Q 19.734375 -1.421875 13.25 4.234375 
Q 6.78125 9.90625 6.78125 20.515625 
Q 6.78125 27.484375 10.78125 32.3125 
Q 14.796875 37.15625 21.921875 38.8125 
z
M 18.3125 54.390625 
Q 18.3125 48.734375 21.84375 45.5625 
Q 25.390625 42.390625 31.78125 42.390625 
Q 38.140625 42.390625 41.71875 45.5625 
Q 45.3125 48.734375 45.3125 54.390625 
Q 45.3125 60.0625 41.71875 63.234375 
Q 38.140625 66.40625 31.78125 66.40625 
Q 25.390625 66.40625 21.84375 63.234375 
Q 18.3125 60.0625 18.3125 54.390625 
z
" id="DejaVuSans-56"/>
      </defs>
      <g transform="translate(578.855504 418.718437)scale(0.1 -0.1)">
       <use xlink:href="#DejaVuSans-56"/>
       <use x="63.623047" xlink:href="#DejaVuSans-48"/>
       <use x="127.246094" xlink:href="#DejaVuSans-48"/>
      </g>
     </g>
    </g>
   </g>
   <g id="matplotlib.axis_2">
    <g id="ytick_1">
     <g id="line2d_6">
      <defs>
       <path d="M 0 0 
L -3.5 0 
" id="m830d0fed79" style="stroke:#000000;stroke-width:0.8;"/>
      </defs>
      <g>
       <use style="stroke:#000000;stroke-width:0.8;" x="42.145" xlink:href="#m830d0fed79" y="352.051931"/>
      </g>
     </g>
     <g id="text_6">
      <!-- −0.6 -->
      <defs>
       <path d="M 10.59375 35.5 
L 73.1875 35.5 
L 73.1875 27.203125 
L 10.59375 27.203125 
z
" id="DejaVuSans-8722"/>
       <path d="M 10.6875 12.40625 
L 21 12.40625 
L 21 0 
L 10.6875 0 
z
" id="DejaVuSans-46"/>
      </defs>
      <g transform="translate(10.862188 355.85115)scale(0.1 -0.1)">
       <use xlink:href="#DejaVuSans-8722"/>
       <use x="83.789062" xlink:href="#DejaVuSans-48"/>
       <use x="147.412109" xlink:href="#DejaVuSans-46"/>
       <use x="179.199219" xlink:href="#DejaVuSans-54"/>
      </g>
     </g>
    </g>
    <g id="ytick_2">
     <g id="line2d_7">
      <g>
       <use style="stroke:#000000;stroke-width:0.8;" x="42.145" xlink:href="#m830d0fed79" y="294.740671"/>
      </g>
     </g>
     <g id="text_7">
      <!-- −0.4 -->
      <g transform="translate(10.862188 298.53989)scale(0.1 -0.1)">
       <use xlink:href="#DejaVuSans-8722"/>
       <use x="83.789062" xlink:href="#DejaVuSans-48"/>
       <use x="147.412109" xlink:href="#DejaVuSans-46"/>
       <use x="179.199219" xlink:href="#DejaVuSans-52"/>
      </g>
     </g>
    </g>
    <g id="ytick_3">
     <g id="line2d_8">
      <g>
       <use style="stroke:#000000;stroke-width:0.8;" x="42.145" xlink:href="#m830d0fed79" y="237.429411"/>
      </g>
     </g>
     <g id="text_8">
      <!-- −0.2 -->
      <g transform="translate(10.862188 241.228629)scale(0.1 -0.1)">
       <use xlink:href="#DejaVuSans-8722"/>
       <use x="83.789062" xlink:href="#DejaVuSans-48"/>
       <use x="147.412109" xlink:href="#DejaVuSans-46"/>
       <use x="179.199219" xlink:href="#DejaVuSans-50"/>
      </g>
     </g>
    </g>
    <g id="ytick_4">
     <g id="line2d_9">
      <g>
       <use style="stroke:#000000;stroke-width:0.8;" x="42.145" xlink:href="#m830d0fed79" y="180.11815"/>
      </g>
     </g>
     <g id="text_9">
      <!-- 0.0 -->
      <g transform="translate(19.241875 183.917369)scale(0.1 -0.1)">
       <use xlink:href="#DejaVuSans-48"/>
       <use x="63.623047" xlink:href="#DejaVuSans-46"/>
       <use x="95.410156" xlink:href="#DejaVuSans-48"/>
      </g>
     </g>
    </g>
    <g id="ytick_5">
     <g id="line2d_10">
      <g>
       <use style="stroke:#000000;stroke-width:0.8;" x="42.145" xlink:href="#m830d0fed79" y="122.80689"/>
      </g>
     </g>
     <g id="text_10">
      <!-- 0.2 -->
      <g transform="translate(19.241875 126.606109)scale(0.1 -0.1)">
       <use xlink:href="#DejaVuSans-48"/>
       <use x="63.623047" xlink:href="#DejaVuSans-46"/>
       <use x="95.410156" xlink:href="#DejaVuSans-50"/>
      </g>
     </g>
    </g>
    <g id="ytick_6">
     <g id="line2d_11">
      <g>
       <use style="stroke:#000000;stroke-width:0.8;" x="42.145" xlink:href="#m830d0fed79" y="65.49563"/>
      </g>
     </g>
     <g id="text_11">
      <!-- 0.4 -->
      <g transform="translate(19.241875 69.294848)scale(0.1 -0.1)">
       <use xlink:href="#DejaVuSans-48"/>
       <use x="63.623047" xlink:href="#DejaVuSans-46"/>
       <use x="95.410156" xlink:href="#DejaVuSans-52"/>
      </g>
     </g>
    </g>
   </g>
   <g id="line2d_12">
    <path clip-path="url(#p47a28249ed)" d="M 55.118539 180.11815 
L 724.28 180.11815 
L 724.28 180.11815 
" style="fill:none;stroke:#1f77b4;stroke-linecap:square;stroke-width:1.5;"/>
   </g>
   <g id="line2d_13">
    <path clip-path="url(#p47a28249ed)" d="M 55.118539 180.11815 
L 178.708564 180.11815 
L 180.074199 179.333016 
L 180.757017 177.645442 
L 181.439835 181.767297 
L 182.122653 176.656925 
L 182.80547 179.854084 
L 183.488288 183.613191 
L 184.171106 176.557079 
L 184.853924 175.191492 
L 185.536742 175.191492 
L 186.21956 174.828744 
L 186.902377 207.383343 
L 187.585195 206.554915 
L 188.268013 192.102963 
L 188.950831 218.603389 
L 189.633649 217.828724 
L 190.316466 183.150137 
L 190.999284 188.41883 
L 191.682102 191.874155 
L 192.36492 221.44237 
L 193.047738 242.686023 
L 193.730556 247.899503 
L 194.413373 271.843166 
L 195.096191 259.200457 
L 195.779009 269.064474 
L 196.461827 262.41199 
L 197.144645 242.361031 
L 197.827462 237.572646 
L 198.51028 211.867288 
L 199.193098 227.167111 
L 199.875916 218.417531 
L 200.558734 188.475201 
L 201.241552 211.301552 
L 201.924369 217.068902 
L 202.607187 218.449117 
L 203.290005 220.733368 
L 203.972823 247.87419 
L 204.655641 262.06444 
L 206.021276 211.7906 
L 206.704094 214.795437 
L 207.386912 219.259333 
L 208.06973 174.728797 
L 208.752548 207.443244 
L 209.435365 200.191496 
L 210.118183 204.735533 
L 210.801001 230.958669 
L 211.483819 232.635054 
L 212.166637 276.069758 
L 212.849454 241.947145 
L 213.532272 263.925016 
L 214.21509 272.609618 
L 214.897908 250.611694 
L 215.580726 276.340437 
L 216.263544 238.983401 
L 216.946361 240.430165 
L 217.629179 241.57361 
L 218.311997 236.793577 
L 218.994815 267.090212 
L 219.677633 267.799154 
L 220.36045 272.227498 
L 221.043268 280.745094 
L 221.726086 315.839847 
L 222.408904 288.864422 
L 223.091722 305.309925 
L 223.77454 275.674042 
L 225.822993 215.799962 
L 226.505811 234.622752 
L 227.188629 226.463956 
L 227.871446 213.527834 
L 228.554264 252.447181 
L 229.237082 200.566133 
L 229.9199 200.35617 
L 230.602718 190.080804 
L 231.285536 171.412911 
L 231.968353 185.281174 
L 232.651171 176.212694 
L 233.333989 187.813242 
L 234.016807 167.950673 
L 234.699625 162.34196 
L 235.382442 148.274969 
L 236.06526 141.125516 
L 236.748078 150.237846 
L 237.430896 197.023834 
L 238.113714 211.246536 
L 238.796532 211.421623 
L 239.479349 227.481318 
L 240.162167 231.603173 
L 240.844985 253.343091 
L 241.527803 263.062304 
L 242.210621 215.273479 
L 242.893438 262.753095 
L 244.259074 296.084072 
L 244.941892 337.811694 
L 246.307528 275.574453 
L 246.990345 265.643169 
L 248.355981 239.218351 
L 249.038799 247.673409 
L 249.721617 275.779689 
L 250.404434 268.115409 
L 251.087252 267.276922 
L 251.77007 259.384718 
L 252.452888 310.711948 
L 253.135706 291.171365 
L 253.818524 278.042921 
L 254.501341 249.764685 
L 255.184159 253.824649 
L 255.866977 255.225082 
L 256.549795 235.469517 
L 257.232613 234.854495 
L 257.91543 222.32313 
L 258.598248 197.639648 
L 259.281066 206.150133 
L 259.963884 250.387833 
L 260.646702 265.76271 
L 261.32952 290.188026 
L 262.012337 270.425302 
L 262.695155 259.522799 
L 263.377973 233.979467 
L 264.060791 222.959471 
L 264.743609 185.47443 
L 265.426426 199.176063 
L 266.109244 178.737424 
L 266.792062 171.681311 
L 267.47488 210.256114 
L 268.157698 222.018972 
L 268.840516 199.94776 
L 269.523333 192.375149 
L 270.206151 180.400101 
L 270.888969 144.712783 
L 271.571787 169.573851 
L 272.254605 175.570575 
L 272.937422 168.494067 
L 273.62024 171.577663 
L 274.303058 149.455689 
L 274.985876 122.75984 
L 275.668694 140.168459 
L 276.351512 154.430768 
L 277.034329 158.343779 
L 277.717147 148.399708 
L 278.399965 191.22216 
L 279.082783 178.470785 
L 280.448418 213.009009 
L 281.814054 158.674012 
L 282.496872 203.90693 
L 283.17969 208.576412 
L 283.862508 233.901473 
L 284.545325 247.522814 
L 285.228143 214.531801 
L 285.910961 231.04718 
L 286.593779 251.869292 
L 287.276597 242.985689 
L 287.959414 262.691669 
L 288.642232 277.905769 
L 289.32505 276.516082 
L 290.007868 264.624393 
L 290.690686 301.35446 
L 291.373504 306.92308 
L 292.056321 287.601247 
L 292.739139 304.732643 
L 293.421957 297.0403 
L 294.104775 331.922122 
L 294.787593 339.021717 
L 295.47041 386.956364 
L 296.153228 338.172495 
L 296.836046 336.925812 
L 297.518864 317.560211 
L 298.201682 356.906618 
L 300.250135 330.125046 
L 300.932953 354.074987 
L 301.615771 311.472282 
L 302.298589 314.03933 
L 302.981406 313.830161 
L 303.664224 326.45054 
L 304.347042 301.072959 
L 305.02986 296.773116 
L 305.712678 320.448961 
L 307.761131 301.021528 
L 308.443949 276.172969 
L 309.126767 237.963448 
L 309.809585 260.211462 
L 310.492402 255.811388 
L 311.17522 270.449418 
L 311.858038 262.074163 
L 312.540856 292.87642 
L 313.223674 288.582087 
L 313.906491 269.975852 
L 314.589309 228.734732 
L 315.272127 209.880894 
L 315.954945 215.258629 
L 316.637763 225.657915 
L 317.320581 193.351637 
L 318.003398 185.454476 
L 318.686216 209.213262 
L 319.369034 183.631093 
L 320.73467 151.152286 
L 321.417487 96.29622 
L 322.100305 133.386684 
L 322.783123 145.526611 
L 323.465941 121.629904 
L 324.148759 140.042357 
L 324.831577 112.860772 
L 325.514394 105.817301 
L 326.197212 80.964257 
L 326.88003 75.049088 
L 327.562848 64.849986 
L 328.245666 51.648253 
L 328.928483 130.023803 
L 329.611301 89.272884 
L 330.294119 74.141957 
L 331.659755 74.141957 
L 332.342573 85.175925 
L 333.02539 83.666339 
L 333.708208 92.721925 
L 334.391026 81.735943 
L 335.073844 137.366674 
L 335.756662 100.075818 
L 336.439479 99.376761 
L 337.122297 95.166189 
L 338.487933 119.728613 
L 339.170751 108.550646 
L 339.853569 122.277728 
L 340.536386 114.780725 
L 341.219204 147.449752 
L 341.902022 163.005588 
L 342.58484 118.205941 
L 343.267658 149.365382 
L 343.950475 151.574024 
L 344.633293 146.326542 
L 345.316111 156.257827 
L 345.998929 134.072449 
L 346.681747 97.04941 
L 347.364565 90.109125 
L 348.047382 130.744961 
L 348.7302 125.029485 
L 349.413018 131.90072 
L 350.095836 131.90072 
L 350.778654 149.876633 
L 351.461471 140.424584 
L 352.144289 168.708852 
L 352.827107 174.845899 
L 353.509925 157.424689 
L 354.192743 159.112262 
L 354.875561 164.255161 
L 355.558378 196.070363 
L 356.241196 197.983576 
L 356.924014 164.430616 
L 357.606832 176.275113 
L 358.28965 211.53859 
L 358.972467 225.703232 
L 359.655285 221.517555 
L 360.338103 258.054859 
L 361.020921 260.982038 
L 361.703739 255.494596 
L 362.386557 234.763408 
L 363.069374 257.686028 
L 363.752192 262.248774 
L 364.43501 255.891718 
L 365.117828 238.972712 
L 365.800646 246.291728 
L 366.483463 263.29605 
L 367.166281 263.558953 
L 367.849099 290.074007 
L 368.531917 282.692832 
L 369.214735 266.177454 
L 369.897553 278.317381 
L 370.58037 309.258072 
L 371.263188 300.315304 
L 371.946006 295.181385 
L 372.628824 286.826173 
L 373.311642 301.379288 
L 373.994459 336.221623 
L 374.677277 358.425706 
L 375.360095 365.744721 
L 376.725731 320.644626 
L 377.408549 326.454055 
L 378.091366 300.260988 
L 378.774184 333.813948 
L 380.13982 237.844926 
L 380.822638 243.804386 
L 381.505455 210.456052 
L 382.188273 196.287084 
L 382.871091 186.3558 
L 383.553909 162.371375 
L 384.236727 169.868378 
L 385.602362 155.479533 
L 386.28518 158.055576 
L 386.967998 154.132802 
L 387.650816 117.72588 
L 388.333634 87.932026 
L 389.016451 68.069456 
L 389.699269 71.202795 
L 390.382087 81.866111 
L 391.064905 67.37208 
L 391.747723 108.606805 
L 392.430541 99.360256 
L 393.796176 165.79359 
L 394.478994 180.799383 
L 395.161812 210.692392 
L 395.84463 220.351793 
L 396.527447 213.395527 
L 397.210265 258.320308 
L 397.893083 262.442164 
L 398.575901 254.063171 
L 399.258719 262.529023 
L 399.941537 231.083823 
L 400.624354 219.206799 
L 401.307172 216.694375 
L 401.98999 224.724553 
L 402.672808 207.220657 
L 403.355626 220.349101 
L 404.038443 253.861183 
L 404.721261 275.411326 
L 406.086897 232.345029 
L 406.769715 225.026014 
L 407.452533 223.402261 
L 408.13535 210.858707 
L 408.818168 226.113686 
L 409.500986 206.001931 
L 410.183804 210.475592 
L 411.549439 162.069923 
L 412.232257 176.779413 
L 412.915075 164.191706 
L 413.597893 186.641648 
L 414.963529 216.935476 
L 415.646346 179.877821 
L 416.329164 179.05363 
L 417.011982 174.294878 
L 417.6948 139.680112 
L 418.377618 127.326333 
L 419.060435 141.379473 
L 419.743253 149.717137 
L 420.426071 165.905631 
L 421.108889 128.351872 
L 421.791707 141.158329 
L 422.474525 83.992848 
L 423.157342 73.405213 
L 423.84016 91.965672 
L 424.522978 86.609534 
L 425.205796 113.791118 
L 425.888614 113.791118 
L 426.571431 113.387491 
L 427.254249 85.450106 
L 427.937067 68.021819 
L 428.619885 63.715086 
L 429.302703 121.38958 
L 429.985521 136.520508 
L 430.668338 159.895146 
L 431.351156 164.131168 
L 432.033974 142.794877 
L 432.716792 155.923322 
L 433.39961 195.666008 
L 434.082427 174.046815 
L 434.765245 206.715842 
L 435.448063 215.822276 
L 436.130881 217.42275 
L 436.813699 254.999647 
L 438.179334 229.979025 
L 438.862152 241.787659 
L 439.54497 242.328395 
L 440.227788 257.370052 
L 440.910606 295.848508 
L 441.593423 304.414206 
L 442.276241 311.075043 
L 442.959059 283.893459 
L 443.641877 262.884052 
L 444.324695 260.00888 
L 445.007513 273.426784 
L 445.69033 292.300837 
L 446.373148 246.181379 
L 447.055966 209.625933 
L 447.738784 209.832092 
L 448.421602 230.135552 
L 449.104419 232.101345 
L 449.787237 271.826483 
L 450.470055 261.502631 
L 451.152873 261.595972 
L 451.835691 272.162492 
L 452.518509 245.4321 
L 453.201326 266.441507 
L 453.884144 245.00553 
L 454.566962 236.268922 
L 455.24978 239.427823 
L 455.932598 225.670112 
L 456.615415 234.381271 
L 457.298233 270.312436 
L 457.981051 269.719477 
L 458.663869 228.420931 
L 459.346687 220.890611 
L 460.029505 271.131925 
L 460.712322 269.076077 
L 461.39514 271.688346 
L 462.077958 257.194315 
L 462.760776 268.918914 
L 463.443594 262.492926 
L 464.126411 271.862264 
L 464.809229 270.310599 
L 465.492047 283.67329 
L 466.174865 278.846646 
L 466.857683 266.265828 
L 467.540501 257.645048 
L 468.223318 251.657526 
L 468.906136 230.001642 
L 469.588954 249.900076 
L 470.271772 236.834283 
L 470.95459 214.737508 
L 471.637407 213.266699 
L 472.320225 233.644095 
L 473.003043 247.346593 
L 473.685861 238.340004 
L 474.368679 261.86196 
L 475.051496 261.27707 
L 475.734314 263.176912 
L 476.417132 237.504913 
L 477.09995 240.514993 
L 477.782768 246.435062 
L 478.465586 236.031677 
L 479.148403 238.24427 
L 479.831221 233.423358 
L 480.514039 231.251979 
L 481.196857 236.90317 
L 482.562492 222.639771 
L 483.928128 252.958776 
L 484.610946 279.007844 
L 485.293764 283.798966 
L 485.976582 290.047435 
L 486.659399 277.141132 
L 487.342217 279.817223 
L 488.025035 266.111742 
L 489.390671 304.724017 
L 490.073488 306.787787 
L 491.439124 267.412379 
L 492.121942 302.899175 
L 492.80476 308.937854 
L 493.487578 311.03233 
L 494.170395 344.023343 
L 494.853213 340.806435 
L 495.536031 327.384292 
L 496.218849 356.887661 
L 496.901667 344.80775 
L 497.584484 354.025302 
L 498.267302 322.259635 
L 498.95012 316.335122 
L 499.632938 324.563647 
L 500.315756 313.485525 
L 500.998574 309.233362 
L 501.681391 275.3098 
L 502.364209 256.435748 
L 503.047027 250.256953 
L 503.729845 272.925316 
L 505.09548 245.11627 
L 505.778298 207.924242 
L 506.461116 191.195011 
L 507.143934 195.079526 
L 507.826752 126.843942 
L 508.50957 163.783896 
L 509.192387 168.042861 
L 509.875205 155.839113 
L 510.558023 133.398757 
L 511.240841 115.398743 
L 511.923659 131.250689 
L 512.606476 127.128833 
L 513.289294 126.069096 
L 513.972112 100.907038 
L 514.65493 87.993556 
L 515.337748 121.182198 
L 516.020566 112.264879 
L 516.703383 94.546622 
L 517.386201 62.943255 
L 518.069019 89.088642 
L 518.751837 94.339548 
L 519.434655 108.184707 
L 520.117472 134.667235 
L 520.80029 129.075506 
L 521.483108 175.094417 
L 522.165926 163.726616 
L 522.848744 177.357842 
L 523.531562 174.526519 
L 524.214379 196.018536 
L 524.897197 206.708222 
L 525.580015 208.97243 
L 526.262833 206.36016 
L 526.945651 201.955734 
L 527.628468 217.107999 
L 528.311286 211.810993 
L 528.994104 200.178593 
L 529.676922 222.952328 
L 530.35974 201.574952 
L 531.042558 226.018473 
L 531.725375 226.807633 
L 532.408193 225.845673 
L 533.091011 248.204025 
L 533.773829 209.467404 
L 534.456647 218.743609 
L 535.139464 221.211879 
L 535.822282 233.613239 
L 536.5051 260.695669 
L 537.187918 240.742806 
L 537.870736 213.260635 
L 539.236371 181.688549 
L 539.919189 195.679798 
L 540.602007 178.052429 
L 541.284825 186.59679 
L 541.967643 211.486832 
L 542.65046 220.309334 
L 543.333278 190.095859 
L 544.016096 211.183774 
L 544.698914 196.247858 
L 545.381732 214.401545 
L 546.06455 246.964831 
L 546.747367 233.975817 
L 547.430185 236.536361 
L 548.113003 241.196015 
L 549.478639 223.519567 
L 550.161456 198.49266 
L 550.844274 236.156401 
L 551.527092 259.012895 
L 552.20991 258.554321 
L 552.892728 268.793743 
L 553.575546 263.671973 
L 554.258363 256.834611 
L 554.941181 272.725355 
L 555.623999 249.031549 
L 556.306817 257.999256 
L 556.989635 270.690254 
L 557.672452 280.621538 
L 558.35527 295.043145 
L 559.038088 278.39022 
L 559.720906 254.915163 
L 560.403724 241.727513 
L 561.086542 246.316422 
L 561.769359 235.676196 
L 562.452177 234.997477 
L 563.134995 196.139609 
L 563.817813 212.639076 
L 564.500631 193.886851 
L 565.183448 169.040394 
L 565.866266 192.823279 
L 566.549084 177.302575 
L 567.231902 165.046161 
L 567.91472 191.701248 
L 568.597538 195.673073 
L 569.280355 228.873255 
L 569.963173 228.278923 
L 570.645991 250.164685 
L 571.328809 247.702447 
L 572.011627 237.477749 
L 572.694444 247.608817 
L 573.377262 248.726234 
L 574.742898 226.934135 
L 575.425716 241.490057 
L 576.108534 235.838278 
L 576.791351 239.350347 
L 577.474169 209.399331 
L 578.156987 202.324133 
L 578.839805 200.672893 
L 579.522623 147.523881 
L 580.20544 192.101226 
L 580.888258 184.3622 
L 582.253894 132.582726 
L 582.936712 123.09841 
L 583.61953 108.915606 
L 584.302347 89.392478 
L 584.985165 78.634132 
L 585.667983 78.598799 
L 587.033619 46.84843 
L 587.716436 43.683636 
L 588.399254 67.80517 
L 589.082072 73.83081 
L 589.76489 77.612859 
L 590.447708 106.342911 
L 591.130526 106.038302 
L 591.813343 74.988568 
L 592.496161 65.298092 
L 593.178979 137.690804 
L 593.861797 113.754059 
L 594.544615 104.531715 
L 595.227432 88.010305 
L 595.91025 91.773345 
L 596.593068 97.491996 
L 597.275886 100.863533 
L 597.958704 119.862719 
L 598.641522 109.098879 
L 599.324339 113.768812 
L 600.007157 122.492127 
L 600.689975 127.572866 
L 601.372793 141.028195 
L 602.055611 120.217987 
L 603.421246 102.022759 
L 604.104064 127.026057 
L 604.786882 123.249572 
L 605.4697 170.603768 
L 606.152518 186.975765 
L 606.835335 168.449836 
L 607.518153 187.276208 
L 608.200971 195.484585 
L 608.883789 252.460023 
L 609.566607 270.665088 
L 610.249424 262.966792 
L 610.932242 272.659878 
L 611.61506 263.283839 
L 612.297878 272.630234 
L 612.980696 265.120463 
L 613.663514 247.039052 
L 614.346331 256.449268 
L 615.029149 258.362481 
L 615.711967 248.575196 
L 616.394785 245.589972 
L 617.077603 254.323733 
L 617.76042 254.875472 
L 619.808874 320.64236 
L 620.491692 316.058443 
L 621.17451 289.629962 
L 621.857327 293.631919 
L 622.540145 285.89203 
L 623.222963 267.988917 
L 623.905781 239.663919 
L 624.588599 239.14285 
L 625.271416 234.46823 
L 625.954234 241.160612 
L 626.637052 253.206122 
L 627.31987 254.763388 
L 628.002688 253.491765 
L 628.685506 246.75764 
L 629.368323 271.679924 
L 630.051141 279.139836 
L 630.733959 276.234154 
L 631.416777 242.017795 
L 632.099595 230.283225 
L 632.782412 200.033165 
L 633.46523 210.343181 
L 634.148048 223.406222 
L 634.830866 239.168498 
L 635.513684 276.281367 
L 636.196502 251.030242 
L 636.879319 270.662761 
L 637.562137 294.258988 
L 638.244955 262.462651 
L 638.927773 246.066176 
L 639.610591 249.02135 
L 640.293408 234.292156 
L 640.976226 264.240418 
L 641.659044 268.793765 
L 642.341862 266.279011 
L 643.02468 252.843374 
L 643.707497 255.441484 
L 644.390315 239.912074 
L 645.073133 268.845053 
L 645.755951 261.930377 
L 646.438769 245.958565 
L 647.121587 224.182783 
L 647.804404 190.706034 
L 649.17004 139.440811 
L 649.852858 125.04359 
L 650.535676 124.528067 
L 651.218493 127.236567 
L 651.901311 174.515452 
L 652.584129 213.315895 
L 653.266947 210.501619 
L 653.949765 225.854449 
L 654.632583 211.97629 
L 655.3154 237.132986 
L 655.998218 247.44367 
L 656.681036 237.32261 
L 657.363854 198.810758 
L 658.046672 237.67738 
L 658.729489 211.813059 
L 659.412307 207.077984 
L 660.095125 218.812857 
L 660.777943 190.03584 
L 661.460761 181.728308 
L 662.143579 202.152908 
L 662.826396 192.390187 
L 663.509214 244.078265 
L 664.192032 220.422069 
L 664.87485 219.796417 
L 666.240485 162.542341 
L 666.923303 157.051069 
L 667.606121 157.204309 
L 668.288939 140.916964 
L 668.971757 115.674042 
L 669.654575 126.546004 
L 670.337392 147.193856 
L 671.02021 179.802771 
L 671.703028 139.385685 
L 673.068664 183.790472 
L 673.751481 193.38906 
L 674.434299 231.097144 
L 675.117117 257.643493 
L 675.799935 250.407353 
L 676.482753 268.154959 
L 677.165571 266.789372 
L 677.848388 256.104862 
L 678.531206 256.910363 
L 679.214024 281.759373 
L 679.896842 282.310511 
L 680.57966 285.675249 
L 681.262477 236.828439 
L 682.628113 250.641127 
L 683.310931 226.115153 
L 683.993749 229.558254 
L 684.676567 207.11487 
L 685.359384 238.409352 
L 686.042202 241.879831 
L 686.72502 218.039406 
L 687.407838 221.205197 
L 688.090656 192.388618 
L 688.773473 201.615114 
L 689.456291 203.455039 
L 690.139109 210.982139 
L 690.821927 181.269926 
L 691.504745 212.120787 
L 692.187563 232.950344 
L 692.87038 201.775092 
L 694.236016 230.360521 
L 694.918834 216.793116 
L 695.601652 206.12945 
L 696.284469 204.943304 
L 696.967287 227.682255 
L 697.650105 218.386983 
L 698.332923 232.077374 
L 699.015741 207.198422 
L 699.698559 177.833803 
L 700.381376 173.896695 
L 701.064194 168.763236 
L 701.747012 196.242294 
L 703.112648 181.66904 
L 703.795465 157.839677 
L 704.478283 157.887357 
L 705.161101 171.81276 
L 705.843919 128.305572 
L 706.526737 143.104344 
L 707.209555 147.11736 
L 707.892372 133.611847 
L 708.57519 169.490088 
L 709.258008 180.021578 
L 709.940826 168.744161 
L 710.623644 150.031718 
L 711.306461 149.699746 
L 711.989279 129.252286 
L 712.672097 165.396306 
L 713.354915 190.254248 
L 714.037733 206.297925 
L 714.720551 190.922337 
L 715.403368 191.322501 
L 716.086186 195.824705 
L 716.769004 194.386807 
L 717.451822 189.290935 
L 718.13464 200.672566 
L 718.817457 169.084947 
L 719.500275 192.144676 
L 720.183093 177.003864 
L 720.865911 168.333765 
L 721.548729 167.975914 
L 722.231547 174.333843 
L 722.914364 186.171451 
L 723.597182 205.725883 
L 724.28 217.193311 
L 724.28 217.193311 
" style="fill:none;stroke:#ff7f0e;stroke-linecap:square;stroke-width:1.5;"/>
   </g>
   <g id="patch_3">
    <path d="M 42.145 404.12 
L 42.145 26.52 
" style="fill:none;stroke:#000000;stroke-linecap:square;stroke-linejoin:miter;stroke-width:0.8;"/>
   </g>
   <g id="patch_4">
    <path d="M 724.28 404.12 
L 724.28 26.52 
" style="fill:none;stroke:#000000;stroke-linecap:square;stroke-linejoin:miter;stroke-width:0.8;"/>
   </g>
   <g id="patch_5">
    <path d="M 42.145 404.12 
L 724.28 404.12 
" style="fill:none;stroke:#000000;stroke-linecap:square;stroke-linejoin:miter;stroke-width:0.8;"/>
   </g>
   <g id="patch_6">
    <path d="M 42.145 26.52 
L 724.28 26.52 
" style="fill:none;stroke:#000000;stroke-linecap:square;stroke-linejoin:miter;stroke-width:0.8;"/>
   </g>
   <g id="text_12">
    <!-- multi_way_v1__1: episode duration in steps log-relative to `htm_1_1g`, MA=20 -->
    <defs>
     <path d="M 52 44.1875 
Q 55.375 50.25 60.0625 53.125 
Q 64.75 56 71.09375 56 
Q 79.640625 56 84.28125 50.015625 
Q 88.921875 44.046875 88.921875 33.015625 
L 88.921875 0 
L 79.890625 0 
L 79.890625 32.71875 
Q 79.890625 40.578125 77.09375 44.375 
Q 74.3125 48.1875 68.609375 48.1875 
Q 61.625 48.1875 57.5625 43.546875 
Q 53.515625 38.921875 53.515625 30.90625 
L 53.515625 0 
L 44.484375 0 
L 44.484375 32.71875 
Q 44.484375 40.625 41.703125 44.40625 
Q 38.921875 48.1875 33.109375 48.1875 
Q 26.21875 48.1875 22.15625 43.53125 
Q 18.109375 38.875 18.109375 30.90625 
L 18.109375 0 
L 9.078125 0 
L 9.078125 54.6875 
L 18.109375 54.6875 
L 18.109375 46.1875 
Q 21.1875 51.21875 25.484375 53.609375 
Q 29.78125 56 35.6875 56 
Q 41.65625 56 45.828125 52.96875 
Q 50 49.953125 52 44.1875 
z
" id="DejaVuSans-109"/>
     <path d="M 8.5 21.578125 
L 8.5 54.6875 
L 17.484375 54.6875 
L 17.484375 21.921875 
Q 17.484375 14.15625 20.5 10.265625 
Q 23.53125 6.390625 29.59375 6.390625 
Q 36.859375 6.390625 41.078125 11.03125 
Q 45.3125 15.671875 45.3125 23.6875 
L 45.3125 54.6875 
L 54.296875 54.6875 
L 54.296875 0 
L 45.3125 0 
L 45.3125 8.40625 
Q 42.046875 3.421875 37.71875 1 
Q 33.40625 -1.421875 27.6875 -1.421875 
Q 18.265625 -1.421875 13.375 4.4375 
Q 8.5 10.296875 8.5 21.578125 
z
M 31.109375 56 
z
" id="DejaVuSans-117"/>
     <path d="M 9.421875 75.984375 
L 18.40625 75.984375 
L 18.40625 0 
L 9.421875 0 
z
" id="DejaVuSans-108"/>
     <path d="M 18.3125 70.21875 
L 18.3125 54.6875 
L 36.8125 54.6875 
L 36.8125 47.703125 
L 18.3125 47.703125 
L 18.3125 18.015625 
Q 18.3125 11.328125 20.140625 9.421875 
Q 21.96875 7.515625 27.59375 7.515625 
L 36.8125 7.515625 
L 36.8125 0 
L 27.59375 0 
Q 17.1875 0 13.234375 3.875 
Q 9.28125 7.765625 9.28125 18.015625 
L 9.28125 47.703125 
L 2.6875 47.703125 
L 2.6875 54.6875 
L 9.28125 54.6875 
L 9.28125 70.21875 
z
" id="DejaVuSans-116"/>
     <path d="M 9.421875 54.6875 
L 18.40625 54.6875 
L 18.40625 0 
L 9.421875 0 
z
M 9.421875 75.984375 
L 18.40625 75.984375 
L 18.40625 64.59375 
L 9.421875 64.59375 
z
" id="DejaVuSans-105"/>
     <path d="M 50.984375 -16.609375 
L 50.984375 -23.578125 
L -0.984375 -23.578125 
L -0.984375 -16.609375 
z
" id="DejaVuSans-95"/>
     <path d="M 4.203125 54.6875 
L 13.1875 54.6875 
L 24.421875 12.015625 
L 35.59375 54.6875 
L 46.1875 54.6875 
L 57.421875 12.015625 
L 68.609375 54.6875 
L 77.59375 54.6875 
L 63.28125 0 
L 52.6875 0 
L 40.921875 44.828125 
L 29.109375 0 
L 18.5 0 
z
" id="DejaVuSans-119"/>
     <path d="M 34.28125 27.484375 
Q 23.390625 27.484375 19.1875 25 
Q 14.984375 22.515625 14.984375 16.5 
Q 14.984375 11.71875 18.140625 8.90625 
Q 21.296875 6.109375 26.703125 6.109375 
Q 34.1875 6.109375 38.703125 11.40625 
Q 43.21875 16.703125 43.21875 25.484375 
L 43.21875 27.484375 
z
M 52.203125 31.203125 
L 52.203125 0 
L 43.21875 0 
L 43.21875 8.296875 
Q 40.140625 3.328125 35.546875 0.953125 
Q 30.953125 -1.421875 24.3125 -1.421875 
Q 15.921875 -1.421875 10.953125 3.296875 
Q 6 8.015625 6 15.921875 
Q 6 25.140625 12.171875 29.828125 
Q 18.359375 34.515625 30.609375 34.515625 
L 43.21875 34.515625 
L 43.21875 35.40625 
Q 43.21875 41.609375 39.140625 45 
Q 35.0625 48.390625 27.6875 48.390625 
Q 23 48.390625 18.546875 47.265625 
Q 14.109375 46.140625 10.015625 43.890625 
L 10.015625 52.203125 
Q 14.9375 54.109375 19.578125 55.046875 
Q 24.21875 56 28.609375 56 
Q 40.484375 56 46.34375 49.84375 
Q 52.203125 43.703125 52.203125 31.203125 
z
" id="DejaVuSans-97"/>
     <path d="M 32.171875 -5.078125 
Q 28.375 -14.84375 24.75 -17.8125 
Q 21.140625 -20.796875 15.09375 -20.796875 
L 7.90625 -20.796875 
L 7.90625 -13.28125 
L 13.1875 -13.28125 
Q 16.890625 -13.28125 18.9375 -11.515625 
Q 21 -9.765625 23.484375 -3.21875 
L 25.09375 0.875 
L 2.984375 54.6875 
L 12.5 54.6875 
L 29.59375 11.921875 
L 46.6875 54.6875 
L 56.203125 54.6875 
z
" id="DejaVuSans-121"/>
     <path d="M 2.984375 54.6875 
L 12.5 54.6875 
L 29.59375 8.796875 
L 46.6875 54.6875 
L 56.203125 54.6875 
L 35.6875 0 
L 23.484375 0 
z
" id="DejaVuSans-118"/>
     <path d="M 12.40625 8.296875 
L 28.515625 8.296875 
L 28.515625 63.921875 
L 10.984375 60.40625 
L 10.984375 69.390625 
L 28.421875 72.90625 
L 38.28125 72.90625 
L 38.28125 8.296875 
L 54.390625 8.296875 
L 54.390625 0 
L 12.40625 0 
z
" id="DejaVuSans-49"/>
     <path d="M 11.71875 12.40625 
L 22.015625 12.40625 
L 22.015625 0 
L 11.71875 0 
z
M 11.71875 51.703125 
L 22.015625 51.703125 
L 22.015625 39.3125 
L 11.71875 39.3125 
z
" id="DejaVuSans-58"/>
     <path id="DejaVuSans-32"/>
     <path d="M 56.203125 29.59375 
L 56.203125 25.203125 
L 14.890625 25.203125 
Q 15.484375 15.921875 20.484375 11.0625 
Q 25.484375 6.203125 34.421875 6.203125 
Q 39.59375 6.203125 44.453125 7.46875 
Q 49.3125 8.734375 54.109375 11.28125 
L 54.109375 2.78125 
Q 49.265625 0.734375 44.1875 -0.34375 
Q 39.109375 -1.421875 33.890625 -1.421875 
Q 20.796875 -1.421875 13.15625 6.1875 
Q 5.515625 13.8125 5.515625 26.8125 
Q 5.515625 40.234375 12.765625 48.109375 
Q 20.015625 56 32.328125 56 
Q 43.359375 56 49.78125 48.890625 
Q 56.203125 41.796875 56.203125 29.59375 
z
M 47.21875 32.234375 
Q 47.125 39.59375 43.09375 43.984375 
Q 39.0625 48.390625 32.421875 48.390625 
Q 24.90625 48.390625 20.390625 44.140625 
Q 15.875 39.890625 15.1875 32.171875 
z
" id="DejaVuSans-101"/>
     <path d="M 18.109375 8.203125 
L 18.109375 -20.796875 
L 9.078125 -20.796875 
L 9.078125 54.6875 
L 18.109375 54.6875 
L 18.109375 46.390625 
Q 20.953125 51.265625 25.265625 53.625 
Q 29.59375 56 35.59375 56 
Q 45.5625 56 51.78125 48.09375 
Q 58.015625 40.1875 58.015625 27.296875 
Q 58.015625 14.40625 51.78125 6.484375 
Q 45.5625 -1.421875 35.59375 -1.421875 
Q 29.59375 -1.421875 25.265625 0.953125 
Q 20.953125 3.328125 18.109375 8.203125 
z
M 48.6875 27.296875 
Q 48.6875 37.203125 44.609375 42.84375 
Q 40.53125 48.484375 33.40625 48.484375 
Q 26.265625 48.484375 22.1875 42.84375 
Q 18.109375 37.203125 18.109375 27.296875 
Q 18.109375 17.390625 22.1875 11.75 
Q 26.265625 6.109375 33.40625 6.109375 
Q 40.53125 6.109375 44.609375 11.75 
Q 48.6875 17.390625 48.6875 27.296875 
z
" id="DejaVuSans-112"/>
     <path d="M 44.28125 53.078125 
L 44.28125 44.578125 
Q 40.484375 46.53125 36.375 47.5 
Q 32.28125 48.484375 27.875 48.484375 
Q 21.1875 48.484375 17.84375 46.4375 
Q 14.5 44.390625 14.5 40.28125 
Q 14.5 37.15625 16.890625 35.375 
Q 19.28125 33.59375 26.515625 31.984375 
L 29.59375 31.296875 
Q 39.15625 29.25 43.1875 25.515625 
Q 47.21875 21.78125 47.21875 15.09375 
Q 47.21875 7.46875 41.1875 3.015625 
Q 35.15625 -1.421875 24.609375 -1.421875 
Q 20.21875 -1.421875 15.453125 -0.5625 
Q 10.6875 0.296875 5.421875 2 
L 5.421875 11.28125 
Q 10.40625 8.6875 15.234375 7.390625 
Q 20.0625 6.109375 24.8125 6.109375 
Q 31.15625 6.109375 34.5625 8.28125 
Q 37.984375 10.453125 37.984375 14.40625 
Q 37.984375 18.0625 35.515625 20.015625 
Q 33.0625 21.96875 24.703125 23.78125 
L 21.578125 24.515625 
Q 13.234375 26.265625 9.515625 29.90625 
Q 5.8125 33.546875 5.8125 39.890625 
Q 5.8125 47.609375 11.28125 51.796875 
Q 16.75 56 26.8125 56 
Q 31.78125 56 36.171875 55.265625 
Q 40.578125 54.546875 44.28125 53.078125 
z
" id="DejaVuSans-115"/>
     <path d="M 30.609375 48.390625 
Q 23.390625 48.390625 19.1875 42.75 
Q 14.984375 37.109375 14.984375 27.296875 
Q 14.984375 17.484375 19.15625 11.84375 
Q 23.34375 6.203125 30.609375 6.203125 
Q 37.796875 6.203125 41.984375 11.859375 
Q 46.1875 17.53125 46.1875 27.296875 
Q 46.1875 37.015625 41.984375 42.703125 
Q 37.796875 48.390625 30.609375 48.390625 
z
M 30.609375 56 
Q 42.328125 56 49.015625 48.375 
Q 55.71875 40.765625 55.71875 27.296875 
Q 55.71875 13.875 49.015625 6.21875 
Q 42.328125 -1.421875 30.609375 -1.421875 
Q 18.84375 -1.421875 12.171875 6.21875 
Q 5.515625 13.875 5.515625 27.296875 
Q 5.515625 40.765625 12.171875 48.375 
Q 18.84375 56 30.609375 56 
z
" id="DejaVuSans-111"/>
     <path d="M 45.40625 46.390625 
L 45.40625 75.984375 
L 54.390625 75.984375 
L 54.390625 0 
L 45.40625 0 
L 45.40625 8.203125 
Q 42.578125 3.328125 38.25 0.953125 
Q 33.9375 -1.421875 27.875 -1.421875 
Q 17.96875 -1.421875 11.734375 6.484375 
Q 5.515625 14.40625 5.515625 27.296875 
Q 5.515625 40.1875 11.734375 48.09375 
Q 17.96875 56 27.875 56 
Q 33.9375 56 38.25 53.625 
Q 42.578125 51.265625 45.40625 46.390625 
z
M 14.796875 27.296875 
Q 14.796875 17.390625 18.875 11.75 
Q 22.953125 6.109375 30.078125 6.109375 
Q 37.203125 6.109375 41.296875 11.75 
Q 45.40625 17.390625 45.40625 27.296875 
Q 45.40625 37.203125 41.296875 42.84375 
Q 37.203125 48.484375 30.078125 48.484375 
Q 22.953125 48.484375 18.875 42.84375 
Q 14.796875 37.203125 14.796875 27.296875 
z
" id="DejaVuSans-100"/>
     <path d="M 41.109375 46.296875 
Q 39.59375 47.171875 37.8125 47.578125 
Q 36.03125 48 33.890625 48 
Q 26.265625 48 22.1875 43.046875 
Q 18.109375 38.09375 18.109375 28.8125 
L 18.109375 0 
L 9.078125 0 
L 9.078125 54.6875 
L 18.109375 54.6875 
L 18.109375 46.1875 
Q 20.953125 51.171875 25.484375 53.578125 
Q 30.03125 56 36.53125 56 
Q 37.453125 56 38.578125 55.875 
Q 39.703125 55.765625 41.0625 55.515625 
z
" id="DejaVuSans-114"/>
     <path d="M 54.890625 33.015625 
L 54.890625 0 
L 45.90625 0 
L 45.90625 32.71875 
Q 45.90625 40.484375 42.875 44.328125 
Q 39.84375 48.1875 33.796875 48.1875 
Q 26.515625 48.1875 22.3125 43.546875 
Q 18.109375 38.921875 18.109375 30.90625 
L 18.109375 0 
L 9.078125 0 
L 9.078125 54.6875 
L 18.109375 54.6875 
L 18.109375 46.1875 
Q 21.34375 51.125 25.703125 53.5625 
Q 30.078125 56 35.796875 56 
Q 45.21875 56 50.046875 50.171875 
Q 54.890625 44.34375 54.890625 33.015625 
z
" id="DejaVuSans-110"/>
     <path d="M 45.40625 27.984375 
Q 45.40625 37.75 41.375 43.109375 
Q 37.359375 48.484375 30.078125 48.484375 
Q 22.859375 48.484375 18.828125 43.109375 
Q 14.796875 37.75 14.796875 27.984375 
Q 14.796875 18.265625 18.828125 12.890625 
Q 22.859375 7.515625 30.078125 7.515625 
Q 37.359375 7.515625 41.375 12.890625 
Q 45.40625 18.265625 45.40625 27.984375 
z
M 54.390625 6.78125 
Q 54.390625 -7.171875 48.1875 -13.984375 
Q 42 -20.796875 29.203125 -20.796875 
Q 24.46875 -20.796875 20.265625 -20.09375 
Q 16.0625 -19.390625 12.109375 -17.921875 
L 12.109375 -9.1875 
Q 16.0625 -11.328125 19.921875 -12.34375 
Q 23.78125 -13.375 27.78125 -13.375 
Q 36.625 -13.375 41.015625 -8.765625 
Q 45.40625 -4.15625 45.40625 5.171875 
L 45.40625 9.625 
Q 42.625 4.78125 38.28125 2.390625 
Q 33.9375 0 27.875 0 
Q 17.828125 0 11.671875 7.65625 
Q 5.515625 15.328125 5.515625 27.984375 
Q 5.515625 40.671875 11.671875 48.328125 
Q 17.828125 56 27.875 56 
Q 33.9375 56 38.28125 53.609375 
Q 42.625 51.21875 45.40625 46.390625 
L 45.40625 54.6875 
L 54.390625 54.6875 
z
" id="DejaVuSans-103"/>
     <path d="M 4.890625 31.390625 
L 31.203125 31.390625 
L 31.203125 23.390625 
L 4.890625 23.390625 
z
" id="DejaVuSans-45"/>
     <path d="M 17.921875 79.984375 
L 31.6875 61.71875 
L 24.21875 61.71875 
L 8.296875 79.984375 
z
" id="DejaVuSans-96"/>
     <path d="M 54.890625 33.015625 
L 54.890625 0 
L 45.90625 0 
L 45.90625 32.71875 
Q 45.90625 40.484375 42.875 44.328125 
Q 39.84375 48.1875 33.796875 48.1875 
Q 26.515625 48.1875 22.3125 43.546875 
Q 18.109375 38.921875 18.109375 30.90625 
L 18.109375 0 
L 9.078125 0 
L 9.078125 75.984375 
L 18.109375 75.984375 
L 18.109375 46.1875 
Q 21.34375 51.125 25.703125 53.5625 
Q 30.078125 56 35.796875 56 
Q 45.21875 56 50.046875 50.171875 
Q 54.890625 44.34375 54.890625 33.015625 
z
" id="DejaVuSans-104"/>
     <path d="M 11.71875 12.40625 
L 22.015625 12.40625 
L 22.015625 4 
L 14.015625 -11.625 
L 7.71875 -11.625 
L 11.71875 4 
z
" id="DejaVuSans-44"/>
     <path d="M 9.8125 72.90625 
L 24.515625 72.90625 
L 43.109375 23.296875 
L 61.8125 72.90625 
L 76.515625 72.90625 
L 76.515625 0 
L 66.890625 0 
L 66.890625 64.015625 
L 48.09375 14.015625 
L 38.1875 14.015625 
L 19.390625 64.015625 
L 19.390625 0 
L 9.8125 0 
z
" id="DejaVuSans-77"/>
     <path d="M 34.1875 63.1875 
L 20.796875 26.90625 
L 47.609375 26.90625 
z
M 28.609375 72.90625 
L 39.796875 72.90625 
L 67.578125 0 
L 57.328125 0 
L 50.6875 18.703125 
L 17.828125 18.703125 
L 11.1875 0 
L 0.78125 0 
z
" id="DejaVuSans-65"/>
     <path d="M 10.59375 45.40625 
L 73.1875 45.40625 
L 73.1875 37.203125 
L 10.59375 37.203125 
z
M 10.59375 25.484375 
L 73.1875 25.484375 
L 73.1875 17.1875 
L 10.59375 17.1875 
z
" id="DejaVuSans-61"/>
    </defs>
    <g transform="translate(145.603125 20.52)scale(0.12 -0.12)">
     <use xlink:href="#DejaVuSans-109"/>
     <use x="97.412109" xlink:href="#DejaVuSans-117"/>
     <use x="160.791016" xlink:href="#DejaVuSans-108"/>
     <use x="188.574219" xlink:href="#DejaVuSans-116"/>
     <use x="227.783203" xlink:href="#DejaVuSans-105"/>
     <use x="255.566406" xlink:href="#DejaVuSans-95"/>
     <use x="305.566406" xlink:href="#DejaVuSans-119"/>
     <use x="387.353516" xlink:href="#DejaVuSans-97"/>
     <use x="448.632812" xlink:href="#DejaVuSans-121"/>
     <use x="507.8125" xlink:href="#DejaVuSans-95"/>
     <use x="557.8125" xlink:href="#DejaVuSans-118"/>
     <use x="616.992188" xlink:href="#DejaVuSans-49"/>
     <use x="680.615234" xlink:href="#DejaVuSans-95"/>
     <use x="730.615234" xlink:href="#DejaVuSans-95"/>
     <use x="780.615234" xlink:href="#DejaVuSans-49"/>
     <use x="844.238281" xlink:href="#DejaVuSans-58"/>
     <use x="877.929688" xlink:href="#DejaVuSans-32"/>
     <use x="909.716797" xlink:href="#DejaVuSans-101"/>
     <use x="971.240234" xlink:href="#DejaVuSans-112"/>
     <use x="1034.716797" xlink:href="#DejaVuSans-105"/>
     <use x="1062.5" xlink:href="#DejaVuSans-115"/>
     <use x="1114.599609" xlink:href="#DejaVuSans-111"/>
     <use x="1175.78125" xlink:href="#DejaVuSans-100"/>
     <use x="1239.257812" xlink:href="#DejaVuSans-101"/>
     <use x="1300.78125" xlink:href="#DejaVuSans-32"/>
     <use x="1332.568359" xlink:href="#DejaVuSans-100"/>
     <use x="1396.044922" xlink:href="#DejaVuSans-117"/>
     <use x="1459.423828" xlink:href="#DejaVuSans-114"/>
     <use x="1500.537109" xlink:href="#DejaVuSans-97"/>
     <use x="1561.816406" xlink:href="#DejaVuSans-116"/>
     <use x="1601.025391" xlink:href="#DejaVuSans-105"/>
     <use x="1628.808594" xlink:href="#DejaVuSans-111"/>
     <use x="1689.990234" xlink:href="#DejaVuSans-110"/>
     <use x="1753.369141" xlink:href="#DejaVuSans-32"/>
     <use x="1785.15625" xlink:href="#DejaVuSans-105"/>
     <use x="1812.939453" xlink:href="#DejaVuSans-110"/>
     <use x="1876.318359" xlink:href="#DejaVuSans-32"/>
     <use x="1908.105469" xlink:href="#DejaVuSans-115"/>
     <use x="1960.205078" xlink:href="#DejaVuSans-116"/>
     <use x="1999.414062" xlink:href="#DejaVuSans-101"/>
     <use x="2060.9375" xlink:href="#DejaVuSans-112"/>
     <use x="2124.414062" xlink:href="#DejaVuSans-115"/>
     <use x="2176.513672" xlink:href="#DejaVuSans-32"/>
     <use x="2208.300781" xlink:href="#DejaVuSans-108"/>
     <use x="2236.083984" xlink:href="#DejaVuSans-111"/>
     <use x="2297.265625" xlink:href="#DejaVuSans-103"/>
     <use x="2360.742188" xlink:href="#DejaVuSans-45"/>
     <use x="2396.826172" xlink:href="#DejaVuSans-114"/>
     <use x="2437.908203" xlink:href="#DejaVuSans-101"/>
     <use x="2499.431641" xlink:href="#DejaVuSans-108"/>
     <use x="2527.214844" xlink:href="#DejaVuSans-97"/>
     <use x="2588.494141" xlink:href="#DejaVuSans-116"/>
     <use x="2627.703125" xlink:href="#DejaVuSans-105"/>
     <use x="2655.486328" xlink:href="#DejaVuSans-118"/>
     <use x="2714.666016" xlink:href="#DejaVuSans-101"/>
     <use x="2776.189453" xlink:href="#DejaVuSans-32"/>
     <use x="2807.976562" xlink:href="#DejaVuSans-116"/>
     <use x="2847.185547" xlink:href="#DejaVuSans-111"/>
     <use x="2908.367188" xlink:href="#DejaVuSans-32"/>
     <use x="2940.154297" xlink:href="#DejaVuSans-96"/>
     <use x="2990.154297" xlink:href="#DejaVuSans-104"/>
     <use x="3053.533203" xlink:href="#DejaVuSans-116"/>
     <use x="3092.742188" xlink:href="#DejaVuSans-109"/>
     <use x="3190.154297" xlink:href="#DejaVuSans-95"/>
     <use x="3240.154297" xlink:href="#DejaVuSans-49"/>
     <use x="3303.777344" xlink:href="#DejaVuSans-95"/>
     <use x="3353.777344" xlink:href="#DejaVuSans-49"/>
     <use x="3417.400391" xlink:href="#DejaVuSans-103"/>
     <use x="3480.876953" xlink:href="#DejaVuSans-96"/>
     <use x="3530.876953" xlink:href="#DejaVuSans-44"/>
     <use x="3562.664062" xlink:href="#DejaVuSans-32"/>
     <use x="3594.451172" xlink:href="#DejaVuSans-77"/>
     <use x="3680.730469" xlink:href="#DejaVuSans-65"/>
     <use x="3749.138672" xlink:href="#DejaVuSans-61"/>
     <use x="3832.927734" xlink:href="#DejaVuSans-50"/>
     <use x="3896.550781" xlink:href="#DejaVuSans-48"/>
    </g>
   </g>
   <g id="legend_1">
    <g id="patch_7">
     <path d="M 772.635125 231.77625 
L 853.707 231.77625 
Q 855.707 231.77625 855.707 229.77625 
L 855.707 200.86375 
Q 855.707 198.86375 853.707 198.86375 
L 772.635125 198.86375 
Q 770.635125 198.86375 770.635125 200.86375 
L 770.635125 229.77625 
Q 770.635125 231.77625 772.635125 231.77625 
z
" style="fill:#ffffff;opacity:0.8;stroke:#cccccc;stroke-linejoin:miter;"/>
    </g>
    <g id="line2d_14">
     <path d="M 774.635125 206.962187 
L 794.635125 206.962187 
" style="fill:none;stroke:#1f77b4;stroke-linecap:square;stroke-width:1.5;"/>
    </g>
    <g id="line2d_15"/>
    <g id="text_13">
     <!-- htm_1_1g -->
     <g transform="translate(802.635125 210.462187)scale(0.1 -0.1)">
      <use xlink:href="#DejaVuSans-104"/>
      <use x="63.378906" xlink:href="#DejaVuSans-116"/>
      <use x="102.587891" xlink:href="#DejaVuSans-109"/>
      <use x="200" xlink:href="#DejaVuSans-95"/>
      <use x="250" xlink:href="#DejaVuSans-49"/>
      <use x="313.623047" xlink:href="#DejaVuSans-95"/>
      <use x="363.623047" xlink:href="#DejaVuSans-49"/>
      <use x="427.246094" xlink:href="#DejaVuSans-103"/>
     </g>
    </g>
    <g id="line2d_16">
     <path d="M 774.635125 221.918437 
L 794.635125 221.918437 
" style="fill:none;stroke:#ff7f0e;stroke-linecap:square;stroke-width:1.5;"/>
    </g>
    <g id="line2d_17"/>
    <g id="text_14">
     <!-- htm_1 -->
     <g transform="translate(802.635125 225.418437)scale(0.1 -0.1)">
      <use xlink:href="#DejaVuSans-104"/>
      <use x="63.378906" xlink:href="#DejaVuSans-116"/>
      <use x="102.587891" xlink:href="#DejaVuSans-109"/>
      <use x="200" xlink:href="#DejaVuSans-95"/>
      <use x="250" xlink:href="#DejaVuSans-49"/>
     </g>
    </g>
   </g>
  </g>
 </g>
 <defs>
  <clipPath id="p47a28249ed">
   <rect height="377.6" width="682.135" x="42.145" y="26.52"/>
  </clipPath>
 </defs>
</svg>
