<?xml version="1.0" encoding="utf-8" standalone="no"?>
<!DOCTYPE svg PUBLIC "-//W3C//DTD SVG 1.1//EN"
  "http://www.w3.org/Graphics/SVG/1.1/DTD/svg11.dtd">
<!-- Created with matplotlib (https://matplotlib.org/) -->
<svg height="432pt" version="1.1" viewBox="0 0 864 432" width="864pt" xmlns="http://www.w3.org/2000/svg" xmlns:xlink="http://www.w3.org/1999/xlink">
 <defs>
  <style type="text/css">
*{stroke-linecap:butt;stroke-linejoin:round;}
  </style>
 </defs>
 <g id="figure_1">
  <g id="patch_1">
   <path d="M 0 432 
L 864 432 
L 864 0 
L 0 0 
z
" style="fill:#ffffff;"/>
  </g>
  <g id="axes_1">
   <g id="patch_2">
    <path d="M 32.56 404.12 
L 724.28 404.12 
L 724.28 26.52 
L 32.56 26.52 
z
" style="fill:#ffffff;"/>
   </g>
   <g id="matplotlib.axis_1">
    <g id="xtick_1">
     <g id="line2d_1">
      <defs>
       <path d="M 0 0 
L 0 3.5 
" id="mef44e8dcfb" style="stroke:#000000;stroke-width:0.8;"/>
      </defs>
      <g>
       <use style="stroke:#000000;stroke-width:0.8;" x="32.56" xlink:href="#mef44e8dcfb" y="404.12"/>
      </g>
     </g>
     <g id="text_1">
      <!-- 0 -->
      <defs>
       <path d="M 31.78125 66.40625 
Q 24.171875 66.40625 20.328125 58.90625 
Q 16.5 51.421875 16.5 36.375 
Q 16.5 21.390625 20.328125 13.890625 
Q 24.171875 6.390625 31.78125 6.390625 
Q 39.453125 6.390625 43.28125 13.890625 
Q 47.125 21.390625 47.125 36.375 
Q 47.125 51.421875 43.28125 58.90625 
Q 39.453125 66.40625 31.78125 66.40625 
z
M 31.78125 74.21875 
Q 44.046875 74.21875 50.515625 64.515625 
Q 56.984375 54.828125 56.984375 36.375 
Q 56.984375 17.96875 50.515625 8.265625 
Q 44.046875 -1.421875 31.78125 -1.421875 
Q 19.53125 -1.421875 13.0625 8.265625 
Q 6.59375 17.96875 6.59375 36.375 
Q 6.59375 54.828125 13.0625 64.515625 
Q 19.53125 74.21875 31.78125 74.21875 
z
" id="DejaVuSans-48"/>
      </defs>
      <g transform="translate(29.37875 418.718437)scale(0.1 -0.1)">
       <use xlink:href="#DejaVuSans-48"/>
      </g>
     </g>
    </g>
    <g id="xtick_2">
     <g id="line2d_2">
      <g>
       <use style="stroke:#000000;stroke-width:0.8;" x="148.039132" xlink:href="#mef44e8dcfb" y="404.12"/>
      </g>
     </g>
     <g id="text_2">
      <!-- 100 -->
      <defs>
       <path d="M 12.40625 8.296875 
L 28.515625 8.296875 
L 28.515625 63.921875 
L 10.984375 60.40625 
L 10.984375 69.390625 
L 28.421875 72.90625 
L 38.28125 72.90625 
L 38.28125 8.296875 
L 54.390625 8.296875 
L 54.390625 0 
L 12.40625 0 
z
" id="DejaVuSans-49"/>
      </defs>
      <g transform="translate(138.495382 418.718437)scale(0.1 -0.1)">
       <use xlink:href="#DejaVuSans-49"/>
       <use x="63.623047" xlink:href="#DejaVuSans-48"/>
       <use x="127.246094" xlink:href="#DejaVuSans-48"/>
      </g>
     </g>
    </g>
    <g id="xtick_3">
     <g id="line2d_3">
      <g>
       <use style="stroke:#000000;stroke-width:0.8;" x="263.518264" xlink:href="#mef44e8dcfb" y="404.12"/>
      </g>
     </g>
     <g id="text_3">
      <!-- 200 -->
      <defs>
       <path d="M 19.1875 8.296875 
L 53.609375 8.296875 
L 53.609375 0 
L 7.328125 0 
L 7.328125 8.296875 
Q 12.9375 14.109375 22.625 23.890625 
Q 32.328125 33.6875 34.8125 36.53125 
Q 39.546875 41.84375 41.421875 45.53125 
Q 43.3125 49.21875 43.3125 52.78125 
Q 43.3125 58.59375 39.234375 62.25 
Q 35.15625 65.921875 28.609375 65.921875 
Q 23.96875 65.921875 18.8125 64.3125 
Q 13.671875 62.703125 7.8125 59.421875 
L 7.8125 69.390625 
Q 13.765625 71.78125 18.9375 73 
Q 24.125 74.21875 28.421875 74.21875 
Q 39.75 74.21875 46.484375 68.546875 
Q 53.21875 62.890625 53.21875 53.421875 
Q 53.21875 48.921875 51.53125 44.890625 
Q 49.859375 40.875 45.40625 35.40625 
Q 44.1875 33.984375 37.640625 27.21875 
Q 31.109375 20.453125 19.1875 8.296875 
z
" id="DejaVuSans-50"/>
      </defs>
      <g transform="translate(253.974514 418.718437)scale(0.1 -0.1)">
       <use xlink:href="#DejaVuSans-50"/>
       <use x="63.623047" xlink:href="#DejaVuSans-48"/>
       <use x="127.246094" xlink:href="#DejaVuSans-48"/>
      </g>
     </g>
    </g>
    <g id="xtick_4">
     <g id="line2d_4">
      <g>
       <use style="stroke:#000000;stroke-width:0.8;" x="378.997396" xlink:href="#mef44e8dcfb" y="404.12"/>
      </g>
     </g>
     <g id="text_4">
      <!-- 300 -->
      <defs>
       <path d="M 40.578125 39.3125 
Q 47.65625 37.796875 51.625 33 
Q 55.609375 28.21875 55.609375 21.1875 
Q 55.609375 10.40625 48.1875 4.484375 
Q 40.765625 -1.421875 27.09375 -1.421875 
Q 22.515625 -1.421875 17.65625 -0.515625 
Q 12.796875 0.390625 7.625 2.203125 
L 7.625 11.71875 
Q 11.71875 9.328125 16.59375 8.109375 
Q 21.484375 6.890625 26.8125 6.890625 
Q 36.078125 6.890625 40.9375 10.546875 
Q 45.796875 14.203125 45.796875 21.1875 
Q 45.796875 27.640625 41.28125 31.265625 
Q 36.765625 34.90625 28.71875 34.90625 
L 20.21875 34.90625 
L 20.21875 43.015625 
L 29.109375 43.015625 
Q 36.375 43.015625 40.234375 45.921875 
Q 44.09375 48.828125 44.09375 54.296875 
Q 44.09375 59.90625 40.109375 62.90625 
Q 36.140625 65.921875 28.71875 65.921875 
Q 24.65625 65.921875 20.015625 65.03125 
Q 15.375 64.15625 9.8125 62.3125 
L 9.8125 71.09375 
Q 15.4375 72.65625 20.34375 73.4375 
Q 25.25 74.21875 29.59375 74.21875 
Q 40.828125 74.21875 47.359375 69.109375 
Q 53.90625 64.015625 53.90625 55.328125 
Q 53.90625 49.265625 50.4375 45.09375 
Q 46.96875 40.921875 40.578125 39.3125 
z
" id="DejaVuSans-51"/>
      </defs>
      <g transform="translate(369.453646 418.718437)scale(0.1 -0.1)">
       <use xlink:href="#DejaVuSans-51"/>
       <use x="63.623047" xlink:href="#DejaVuSans-48"/>
       <use x="127.246094" xlink:href="#DejaVuSans-48"/>
      </g>
     </g>
    </g>
    <g id="xtick_5">
     <g id="line2d_5">
      <g>
       <use style="stroke:#000000;stroke-width:0.8;" x="494.476528" xlink:href="#mef44e8dcfb" y="404.12"/>
      </g>
     </g>
     <g id="text_5">
      <!-- 400 -->
      <defs>
       <path d="M 37.796875 64.3125 
L 12.890625 25.390625 
L 37.796875 25.390625 
z
M 35.203125 72.90625 
L 47.609375 72.90625 
L 47.609375 25.390625 
L 58.015625 25.390625 
L 58.015625 17.1875 
L 47.609375 17.1875 
L 47.609375 0 
L 37.796875 0 
L 37.796875 17.1875 
L 4.890625 17.1875 
L 4.890625 26.703125 
z
" id="DejaVuSans-52"/>
      </defs>
      <g transform="translate(484.932778 418.718437)scale(0.1 -0.1)">
       <use xlink:href="#DejaVuSans-52"/>
       <use x="63.623047" xlink:href="#DejaVuSans-48"/>
       <use x="127.246094" xlink:href="#DejaVuSans-48"/>
      </g>
     </g>
    </g>
    <g id="xtick_6">
     <g id="line2d_6">
      <g>
       <use style="stroke:#000000;stroke-width:0.8;" x="609.955659" xlink:href="#mef44e8dcfb" y="404.12"/>
      </g>
     </g>
     <g id="text_6">
      <!-- 500 -->
      <defs>
       <path d="M 10.796875 72.90625 
L 49.515625 72.90625 
L 49.515625 64.59375 
L 19.828125 64.59375 
L 19.828125 46.734375 
Q 21.96875 47.46875 24.109375 47.828125 
Q 26.265625 48.1875 28.421875 48.1875 
Q 40.625 48.1875 47.75 41.5 
Q 54.890625 34.8125 54.890625 23.390625 
Q 54.890625 11.625 47.5625 5.09375 
Q 40.234375 -1.421875 26.90625 -1.421875 
Q 22.3125 -1.421875 17.546875 -0.640625 
Q 12.796875 0.140625 7.71875 1.703125 
L 7.71875 11.625 
Q 12.109375 9.234375 16.796875 8.0625 
Q 21.484375 6.890625 26.703125 6.890625 
Q 35.15625 6.890625 40.078125 11.328125 
Q 45.015625 15.765625 45.015625 23.390625 
Q 45.015625 31 40.078125 35.4375 
Q 35.15625 39.890625 26.703125 39.890625 
Q 22.75 39.890625 18.8125 39.015625 
Q 14.890625 38.140625 10.796875 36.28125 
z
" id="DejaVuSans-53"/>
      </defs>
      <g transform="translate(600.411909 418.718437)scale(0.1 -0.1)">
       <use xlink:href="#DejaVuSans-53"/>
       <use x="63.623047" xlink:href="#DejaVuSans-48"/>
       <use x="127.246094" xlink:href="#DejaVuSans-48"/>
      </g>
     </g>
    </g>
   </g>
   <g id="matplotlib.axis_2">
    <g id="ytick_1">
     <g id="line2d_7">
      <defs>
       <path d="M 0 0 
L -3.5 0 
" id="m3c34045557" style="stroke:#000000;stroke-width:0.8;"/>
      </defs>
      <g>
       <use style="stroke:#000000;stroke-width:0.8;" x="32.56" xlink:href="#m3c34045557" y="386.00432"/>
      </g>
     </g>
     <g id="text_7">
      <!-- −4 -->
      <defs>
       <path d="M 10.59375 35.5 
L 73.1875 35.5 
L 73.1875 27.203125 
L 10.59375 27.203125 
z
" id="DejaVuSans-8722"/>
      </defs>
      <g transform="translate(10.817813 389.803539)scale(0.1 -0.1)">
       <use xlink:href="#DejaVuSans-8722"/>
       <use x="83.789062" xlink:href="#DejaVuSans-52"/>
      </g>
     </g>
    </g>
    <g id="ytick_2">
     <g id="line2d_8">
      <g>
       <use style="stroke:#000000;stroke-width:0.8;" x="32.56" xlink:href="#m3c34045557" y="326.998975"/>
      </g>
     </g>
     <g id="text_8">
      <!-- −3 -->
      <g transform="translate(10.817813 330.798194)scale(0.1 -0.1)">
       <use xlink:href="#DejaVuSans-8722"/>
       <use x="83.789062" xlink:href="#DejaVuSans-51"/>
      </g>
     </g>
    </g>
    <g id="ytick_3">
     <g id="line2d_9">
      <g>
       <use style="stroke:#000000;stroke-width:0.8;" x="32.56" xlink:href="#m3c34045557" y="267.993631"/>
      </g>
     </g>
     <g id="text_9">
      <!-- −2 -->
      <g transform="translate(10.817813 271.792849)scale(0.1 -0.1)">
       <use xlink:href="#DejaVuSans-8722"/>
       <use x="83.789062" xlink:href="#DejaVuSans-50"/>
      </g>
     </g>
    </g>
    <g id="ytick_4">
     <g id="line2d_10">
      <g>
       <use style="stroke:#000000;stroke-width:0.8;" x="32.56" xlink:href="#m3c34045557" y="208.988286"/>
      </g>
     </g>
     <g id="text_10">
      <!-- −1 -->
      <g transform="translate(10.817813 212.787505)scale(0.1 -0.1)">
       <use xlink:href="#DejaVuSans-8722"/>
       <use x="83.789062" xlink:href="#DejaVuSans-49"/>
      </g>
     </g>
    </g>
    <g id="ytick_5">
     <g id="line2d_11">
      <g>
       <use style="stroke:#000000;stroke-width:0.8;" x="32.56" xlink:href="#m3c34045557" y="149.982941"/>
      </g>
     </g>
     <g id="text_11">
      <!-- 0 -->
      <g transform="translate(19.1975 153.78216)scale(0.1 -0.1)">
       <use xlink:href="#DejaVuSans-48"/>
      </g>
     </g>
    </g>
    <g id="ytick_6">
     <g id="line2d_12">
      <g>
       <use style="stroke:#000000;stroke-width:0.8;" x="32.56" xlink:href="#m3c34045557" y="90.977596"/>
      </g>
     </g>
     <g id="text_12">
      <!-- 1 -->
      <g transform="translate(19.1975 94.776815)scale(0.1 -0.1)">
       <use xlink:href="#DejaVuSans-49"/>
      </g>
     </g>
    </g>
    <g id="ytick_7">
     <g id="line2d_13">
      <g>
       <use style="stroke:#000000;stroke-width:0.8;" x="32.56" xlink:href="#m3c34045557" y="31.972251"/>
      </g>
     </g>
     <g id="text_13">
      <!-- 2 -->
      <g transform="translate(19.1975 35.77147)scale(0.1 -0.1)">
       <use xlink:href="#DejaVuSans-50"/>
      </g>
     </g>
    </g>
   </g>
   <g id="line2d_14">
    <path clip-path="url(#p1bdaa6c60b)" d="M 54.501035 149.982941 
L 724.28 149.982941 
L 724.28 149.982941 
" style="fill:none;stroke:#1f77b4;stroke-linecap:square;stroke-width:1.5;"/>
   </g>
   <g id="line2d_15">
    <path clip-path="url(#p1bdaa6c60b)" d="M 54.501035 117.900241 
L 55.655826 117.900241 
L 56.810618 116.816174 
L 57.965409 117.896279 
L 60.274992 113.951408 
L 61.429783 110.833153 
L 62.584574 122.374667 
L 63.739366 122.374667 
L 64.894157 139.152764 
L 66.048948 150.822406 
L 67.20374 153.178217 
L 68.358531 163.623518 
L 69.513322 175.165032 
L 70.668114 189.488062 
L 71.822905 197.825026 
L 72.977696 209.366539 
L 74.132487 209.366539 
L 77.596861 246.371952 
L 78.751653 246.371952 
L 79.906444 258.997532 
L 82.216027 287.17098 
L 83.370818 298.882748 
L 84.525609 316.618773 
L 85.680401 316.618773 
L 86.835192 323.726541 
L 87.989983 329.373138 
L 89.144775 327.049927 
L 90.299566 338.463311 
L 91.454357 342.55325 
L 92.609149 341.753277 
L 93.76394 342.198245 
L 94.918731 345.402795 
L 96.073523 345.402795 
L 97.228314 356.944308 
L 98.383105 359.741278 
L 100.692688 359.741278 
L 101.847479 370.661108 
L 103.00227 370.661108 
L 104.157062 369.44638 
L 105.311853 369.200382 
L 106.466644 371.00863 
L 107.621436 370.22794 
L 108.776227 369.133203 
L 109.931018 372.776631 
L 111.08581 371.908158 
L 112.240601 373.618778 
L 113.395392 367.998567 
L 114.550184 367.536396 
L 115.704975 368.336369 
L 119.169349 368.336369 
L 120.32414 364.333637 
L 121.478932 357.821586 
L 122.633723 355.87811 
L 124.943306 355.785617 
L 126.098097 355.340649 
L 127.252888 356.555377 
L 128.407679 350.355625 
L 129.562471 346.937433 
L 130.717262 342.969851 
L 131.872053 341.416091 
L 133.026845 335.951063 
L 134.181636 334.295093 
L 135.336427 334.907684 
L 136.491219 339.969902 
L 137.64601 340.432072 
L 138.800801 338.026676 
L 139.955593 333.625895 
L 141.110384 332.892868 
L 142.265175 332.892868 
L 143.419967 335.96712 
L 144.574758 338.268796 
L 145.729549 340.212272 
L 146.884341 335.711473 
L 148.039132 311.297652 
L 149.193923 291.644087 
L 150.348715 280.102573 
L 151.503506 269.690989 
L 152.658297 257.10398 
L 153.813088 240.420241 
L 156.122671 203.422409 
L 157.277462 191.222563 
L 158.432254 166.094567 
L 159.587045 154.506148 
L 160.741836 139.209046 
L 161.896628 120.182432 
L 163.051419 104.05216 
L 164.20621 98.720249 
L 165.361002 79.90602 
L 166.515793 77.321536 
L 167.670584 62.967149 
L 168.825376 43.683636 
L 169.980167 48.838044 
L 172.28975 90.49359 
L 173.444541 100.21719 
L 174.599332 118.593373 
L 175.754124 124.086855 
L 176.908915 144.070217 
L 178.063706 158.899392 
L 179.218497 177.424552 
L 180.373289 189.771096 
L 181.52808 211.646068 
L 182.682871 224.013538 
L 183.837663 239.90696 
L 184.992454 258.258526 
L 186.147245 271.750339 
L 187.302037 271.212442 
L 188.456828 288.974385 
L 189.611619 293.025246 
L 191.921202 331.756578 
L 193.075993 332.923242 
L 194.230785 337.133616 
L 195.385576 332.209157 
L 196.540367 334.104714 
L 197.695159 325.134289 
L 198.84995 325.648679 
L 200.004741 323.1231 
L 201.159533 321.736464 
L 202.314324 326.238738 
L 203.469115 329.313894 
L 204.623907 333.340964 
L 205.778698 334.559976 
L 206.933489 328.677486 
L 208.08828 329.245035 
L 209.243072 326.78773 
L 210.397863 329.491033 
L 211.552654 325.136714 
L 212.707446 321.795496 
L 213.862237 315.975334 
L 215.017028 318.005589 
L 216.17182 312.055776 
L 217.326611 309.406608 
L 218.481402 313.589623 
L 219.636194 307.088003 
L 220.790985 312.161832 
L 223.100568 316.751599 
L 224.255359 322.923157 
L 225.41015 326.390621 
L 226.564942 318.241636 
L 227.719733 317.766608 
L 228.874524 318.337937 
L 234.648481 344.539847 
L 235.803272 343.213628 
L 236.958063 346.35965 
L 238.112855 339.9139 
L 239.267646 341.436876 
L 240.422437 335.355127 
L 241.577229 335.567214 
L 242.73202 341.258163 
L 243.886811 337.380565 
L 245.041603 340.709839 
L 246.196394 344.385687 
L 247.351185 349.097309 
L 248.505977 344.865405 
L 249.660768 343.669175 
L 250.815559 338.1997 
L 251.970351 337.165169 
L 253.125142 336.942018 
L 254.279933 336.132356 
L 255.434725 339.373556 
L 256.589516 332.78808 
L 257.744307 329.679712 
L 258.899098 329.430245 
L 260.05389 323.784468 
L 261.208681 326.70266 
L 262.363472 329.229482 
L 263.518264 326.729727 
L 264.673055 316.274412 
L 265.827846 312.355906 
L 266.982638 319.859469 
L 268.137429 324.11804 
L 269.29222 325.046521 
L 270.447012 325.046521 
L 271.601803 330.146898 
L 273.911386 341.460856 
L 275.066177 342.16602 
L 276.220968 342.102113 
L 277.37576 340.037669 
L 278.530551 332.406245 
L 279.685342 335.485745 
L 280.840134 339.738125 
L 281.994925 335.075374 
L 283.149716 343.796562 
L 284.304508 342.719792 
L 285.459299 341.259497 
L 287.768881 364.849313 
L 288.923673 366.431555 
L 290.078464 365.833792 
L 291.233255 365.854209 
L 292.388047 353.463956 
L 293.542838 353.463956 
L 294.697629 347.44476 
L 295.852421 352.302868 
L 297.007212 344.552277 
L 298.162003 339.380032 
L 299.316795 337.088128 
L 300.471586 329.360243 
L 301.626377 330.950427 
L 302.781169 323.660551 
L 303.93596 322.740718 
L 305.090751 334.676185 
L 306.245543 331.600774 
L 307.400334 336.205102 
L 308.555125 335.579733 
L 309.709917 336.011523 
L 310.864708 337.494112 
L 312.019499 329.870629 
L 313.17429 313.55907 
L 314.329082 289.727323 
L 315.483873 281.774501 
L 316.638664 260.689982 
L 317.793456 248.794765 
L 318.948247 235.198465 
L 320.103038 238.439664 
L 321.25783 244.951715 
L 322.412621 240.908238 
L 323.567412 248.370522 
L 324.722204 254.655222 
L 327.031786 259.25595 
L 328.186578 255.962663 
L 329.341369 261.510908 
L 330.49616 258.807606 
L 331.650952 259.191297 
L 332.805743 259.857929 
L 333.960534 257.871383 
L 335.115326 271.457865 
L 336.270117 289.033241 
L 337.424908 314.688187 
L 338.579699 332.558427 
L 339.734491 352.764556 
L 340.889282 362.614803 
L 342.044073 373.594722 
L 343.198865 378.867201 
L 344.353656 370.441325 
L 345.508447 378.240391 
L 346.663239 378.749645 
L 347.81803 376.847228 
L 348.972821 386.956364 
L 350.127613 383.589602 
L 351.282404 384.939412 
L 352.437195 381.261808 
L 353.591987 380.019116 
L 354.746778 381.016934 
L 355.901569 381.523357 
L 357.056361 377.863307 
L 358.211152 373.622039 
L 359.365943 348.624741 
L 360.520735 342.522553 
L 362.830317 342.424892 
L 363.985109 346.543063 
L 365.1399 349.998366 
L 366.294691 351.477865 
L 367.449482 356.587847 
L 368.604274 356.494602 
L 369.759065 354.555642 
L 370.913856 360.343928 
L 372.068648 356.425898 
L 373.223439 351.677626 
L 374.37823 353.334745 
L 375.533022 351.464103 
L 376.687813 346.420558 
L 377.842604 343.586111 
L 378.997396 324.476148 
L 380.152187 310.975901 
L 381.306978 288.391694 
L 382.46177 297.211408 
L 383.616561 286.017386 
L 384.771352 282.983162 
L 385.926144 281.62295 
L 387.080935 281.90414 
L 389.390518 271.380063 
L 390.545309 266.743135 
L 391.7001 266.806729 
L 392.854891 258.985889 
L 394.009683 247.709874 
L 395.164474 247.805714 
L 396.319265 245.886307 
L 397.474057 239.963063 
L 398.628848 239.684289 
L 399.783639 239.872268 
L 400.938431 236.386527 
L 403.248013 273.488403 
L 404.402805 299.137861 
L 405.557596 315.135301 
L 406.712387 329.504715 
L 407.867179 327.799231 
L 409.02197 325.295426 
L 410.176761 328.111491 
L 412.486344 335.100682 
L 413.641135 336.12828 
L 414.795927 335.735745 
L 415.950718 345.757868 
L 417.105509 349.914108 
L 418.260301 348.247897 
L 422.879466 368.540708 
L 424.034257 370.969369 
L 425.189048 368.446291 
L 426.34384 368.446291 
L 428.653422 363.296863 
L 429.808214 366.545448 
L 430.963005 363.035857 
L 432.117796 366.397492 
L 433.272588 356.900948 
L 434.427379 357.985015 
L 435.58217 356.685065 
L 436.736962 358.758817 
L 437.891753 360.029742 
L 439.046544 360.806634 
L 440.201336 357.143248 
L 441.356127 361.536911 
L 443.66571 345.478452 
L 444.820501 333.878516 
L 445.975292 330.014962 
L 447.130083 335.395548 
L 448.284875 338.062201 
L 449.439666 338.062201 
L 450.594457 326.179295 
L 451.749249 323.639671 
L 452.90404 319.636939 
L 454.058831 320.689225 
L 455.213623 313.559818 
L 456.368414 319.22067 
L 457.523205 318.381749 
L 458.677997 319.928556 
L 460.987579 317.087836 
L 462.142371 317.830335 
L 463.297162 325.180325 
L 464.451953 321.923048 
L 465.606745 328.3503 
L 466.761536 331.123573 
L 467.916327 343.05904 
L 469.071119 347.148978 
L 470.22591 344.339242 
L 471.380701 342.844437 
L 472.535492 340.337297 
L 473.690284 351.867822 
L 474.845075 352.049435 
L 475.999866 352.64407 
L 477.154658 352.333228 
L 478.309449 355.326955 
L 479.46424 359.162647 
L 480.619032 360.001568 
L 481.773823 360.274674 
L 482.928614 362.968885 
L 484.083406 362.687694 
L 485.238197 359.734383 
L 486.392988 362.493528 
L 487.54778 358.636014 
L 488.702571 363.017247 
L 489.857362 362.923579 
L 491.012154 356.606122 
L 492.166945 359.028234 
L 493.321736 361.073204 
L 495.631319 318.296504 
L 496.78611 299.098295 
L 497.940902 288.4923 
L 500.250484 260.069945 
L 501.405275 249.494654 
L 502.560067 232.256111 
L 503.714858 226.121203 
L 504.869649 226.662097 
L 506.024441 230.435118 
L 507.179232 231.408581 
L 508.334023 229.68647 
L 509.488815 218.80329 
L 510.643606 227.092856 
L 511.798397 223.851656 
L 512.953189 230.39683 
L 514.10798 228.413973 
L 515.262771 230.458943 
L 516.417563 229.785519 
L 517.572354 254.913515 
L 518.727145 270.763605 
L 519.881937 295.233268 
L 521.036728 313.155688 
L 522.191519 324.068519 
L 523.346311 336.458771 
L 524.501102 346.72322 
L 525.655893 364.202446 
L 526.810684 364.536796 
L 527.965476 361.914732 
L 529.120267 353.535649 
L 530.275058 354.497874 
L 531.42985 361.218265 
L 532.584641 371.98101 
L 533.739432 358.661982 
L 534.894224 351.094695 
L 536.049015 351.342763 
L 537.203806 360.759565 
L 538.358598 354.565054 
L 539.513389 359.38802 
L 540.66818 349.497523 
L 541.822972 352.520084 
L 542.977763 343.963064 
L 544.132554 340.624388 
L 545.287346 344.639632 
L 546.442137 353.536266 
L 547.596928 359.182043 
L 548.75172 359.528023 
L 549.906511 357.686601 
L 551.061302 348.811741 
L 552.216093 353.229825 
L 553.370885 349.456289 
L 554.525676 339.565792 
L 555.680467 326.099745 
L 556.835259 334.51577 
L 557.99005 340.771114 
L 559.144841 339.150867 
L 560.299633 335.612266 
L 561.454424 331.697643 
L 562.609215 322.54859 
L 563.764007 325.335004 
L 564.918798 320.661427 
L 566.073589 320.228907 
L 567.228381 320.553439 
L 568.383172 318.353157 
L 569.537963 315.516737 
L 570.692755 310.898558 
L 571.847546 311.304578 
L 573.002337 314.411651 
L 574.157129 318.311184 
L 575.31192 317.564189 
L 576.466711 316.490394 
L 577.621503 321.442213 
L 578.776294 333.210782 
L 579.931085 331.587998 
L 581.085876 324.136424 
L 582.240668 312.073449 
L 583.395459 302.105309 
L 584.55025 303.376234 
L 585.705042 306.776946 
L 586.859833 312.992689 
L 588.014624 314.847252 
L 589.169416 309.40157 
L 591.478998 315.228589 
L 592.63379 317.629443 
L 593.788581 318.299323 
L 594.943372 314.816703 
L 596.098164 317.028398 
L 597.252955 325.15869 
L 598.407746 318.86982 
L 599.562538 325.213069 
L 600.717329 321.002695 
L 601.87212 317.504788 
L 603.026912 319.549757 
L 604.181703 323.245743 
L 606.491285 339.459825 
L 607.646077 344.645976 
L 608.800868 346.939013 
L 609.955659 329.654052 
L 611.110451 319.275805 
L 612.265242 316.206514 
L 613.420033 300.575061 
L 614.574825 286.559292 
L 618.039199 252.745316 
L 619.19399 236.254298 
L 620.348781 222.179504 
L 621.503573 218.483518 
L 622.658364 203.229208 
L 623.813155 196.746809 
L 624.967947 188.476146 
L 626.122738 178.441705 
L 627.277529 172.914116 
L 628.432321 163.86254 
L 629.587112 150.968896 
L 630.741903 136.192535 
L 631.896694 117.635479 
L 634.206277 119.58871 
L 635.361068 119.265473 
L 636.51586 114.365872 
L 637.670651 114.504734 
L 638.825442 105.810467 
L 639.980234 107.13868 
L 641.135025 104.716568 
L 642.289816 109.944314 
L 644.599399 109.944314 
L 645.75419 109.358831 
L 648.063773 109.358831 
L 649.218564 107.972195 
L 650.373356 107.173346 
L 651.528147 103.283018 
L 652.682938 104.911075 
L 653.83773 106.062555 
L 654.992521 107.425042 
L 656.147312 103.513242 
L 657.302104 107.040799 
L 658.456895 107.264978 
L 659.611686 112.164579 
L 660.766477 109.835026 
L 661.921269 116.301774 
L 663.07606 114.80697 
L 664.230851 112.893145 
L 665.385643 112.614903 
L 666.540434 111.706561 
L 667.695225 107.33838 
L 668.850017 106.465557 
L 670.004808 104.222304 
L 671.159599 104.222304 
L 672.314391 105.60894 
L 673.469182 103.805648 
L 674.623973 107.695976 
L 676.933556 111.052085 
L 678.088347 111.86013 
L 679.243139 115.608334 
L 680.39793 115.608334 
L 681.552721 117.580454 
L 682.707513 117.580454 
L 683.862304 122.365836 
L 685.017095 119.73232 
L 686.171886 121.227125 
L 687.326678 125.563062 
L 688.481469 125.841304 
L 689.63626 125.988113 
L 690.791052 129.928429 
L 691.945843 131.386735 
L 693.100634 133.629989 
L 694.255426 133.629989 
L 695.410217 127.435477 
L 696.565008 131.869222 
L 697.7198 131.869222 
L 698.874591 125.850025 
L 700.029382 124.293367 
L 701.184174 128.474091 
L 702.338965 130.132492 
L 703.493756 123.815035 
L 704.648548 122.677227 
L 706.95813 122.677227 
L 708.112922 123.675379 
L 709.267713 120.313743 
L 711.577295 120.313743 
L 712.732087 121.075276 
L 713.886878 121.503141 
L 715.041669 121.503141 
L 716.196461 117.442558 
L 717.351252 111.423361 
L 718.506043 117.617873 
L 719.660835 117.617873 
L 720.815626 116.010782 
L 721.970417 121.924869 
L 723.125209 120.869009 
L 724.28 120.89866 
L 724.28 120.89866 
" style="fill:none;stroke:#ff7f0e;stroke-linecap:square;stroke-width:1.5;"/>
   </g>
   <g id="line2d_16">
    <path clip-path="url(#p1bdaa6c60b)" d="M 54.501035 160.281655 
L 55.655826 160.281655 
L 56.810618 161.098613 
L 57.965409 159.570085 
L 59.1202 160.385978 
L 60.274992 158.370365 
L 61.429783 162.524826 
L 62.584574 160.567931 
L 63.739366 162.497189 
L 64.894157 170.089584 
L 66.048948 161.06866 
L 67.20374 167.344006 
L 68.358531 165.750914 
L 69.513322 172.759374 
L 70.668114 172.485485 
L 71.822905 167.161271 
L 72.977696 165.72362 
L 74.132487 165.72362 
L 75.287279 162.811286 
L 76.44207 164.946118 
L 77.596861 168.469908 
L 78.751653 168.715906 
L 79.906444 171.761831 
L 81.061235 173.29036 
L 82.216027 167.37409 
L 83.370818 167.544345 
L 84.525609 168.888253 
L 85.680401 170.018182 
L 87.989983 176.632915 
L 89.144775 175.649509 
L 90.299566 178.475921 
L 91.454357 184.356582 
L 92.609149 176.71591 
L 93.76394 178.911276 
L 94.918731 190.41614 
L 96.073523 185.273915 
L 97.228314 185.53599 
L 98.383105 191.368763 
L 99.537896 189.233931 
L 100.692688 185.504567 
L 101.847479 189.07063 
L 103.00227 185.207747 
L 104.157062 188.053603 
L 105.311853 188.756362 
L 106.466644 190.646878 
L 107.621436 187.444076 
L 108.776227 181.948559 
L 109.931018 175.905038 
L 111.08581 175.036564 
L 112.240601 175.407378 
L 113.395392 162.683084 
L 114.550184 161.191724 
L 115.704975 162.42174 
L 116.859766 160.85389 
L 118.014558 153.059198 
L 119.169349 153.059198 
L 120.32414 152.37112 
L 121.478932 149.259781 
L 122.633723 150.229748 
L 123.788514 157.416943 
L 124.943306 154.950463 
L 126.098097 159.36653 
L 127.252888 157.825839 
L 128.407679 151.772067 
L 129.562471 154.920903 
L 130.717262 151.297127 
L 131.872053 155.014822 
L 133.026845 157.191774 
L 134.181636 156.335777 
L 135.336427 157.317141 
L 136.491219 167.318037 
L 137.64601 167.018675 
L 138.800801 164.000687 
L 139.955593 159.417357 
L 141.110384 158.658182 
L 142.265175 158.658182 
L 143.419967 158.832534 
L 144.574758 154.440988 
L 145.729549 153.530624 
L 146.884341 147.696348 
L 148.039132 133.692764 
L 149.193923 135.154899 
L 150.348715 148.284956 
L 151.503506 157.816693 
L 152.658297 150.636288 
L 153.813088 153.576133 
L 154.96788 155.4979 
L 156.122671 149.877381 
L 157.277462 162.854296 
L 158.432254 159.782221 
L 159.587045 155.302259 
L 160.741836 165.981892 
L 161.896628 167.486331 
L 163.051419 172.584522 
L 164.20621 179.821722 
L 165.361002 181.538546 
L 166.515793 177.361406 
L 167.670584 179.886011 
L 168.825376 184.019875 
L 169.980167 196.369151 
L 171.134958 211.676321 
L 172.28975 208.158685 
L 173.444541 196.284557 
L 175.754124 209.150606 
L 176.908915 222.215164 
L 178.063706 222.609117 
L 179.218497 225.850317 
L 180.373289 218.822962 
L 182.682871 244.690746 
L 183.837663 234.424412 
L 184.992454 243.248541 
L 186.147245 241.312449 
L 187.302037 229.974484 
L 188.456828 226.21269 
L 189.611619 237.603355 
L 190.766411 246.887339 
L 191.921202 245.130698 
L 193.075993 244.79029 
L 194.230785 253.371794 
L 195.385576 253.132832 
L 196.540367 262.190895 
L 197.695159 252.826518 
L 198.84995 241.671101 
L 200.004741 228.430975 
L 201.159533 216.758659 
L 202.314324 223.305903 
L 203.469115 221.453928 
L 204.623907 223.973925 
L 205.778698 223.685866 
L 206.933489 215.092689 
L 208.08828 213.698379 
L 209.243072 213.429988 
L 210.397863 216.898918 
L 211.552654 215.044355 
L 212.707446 203.855874 
L 213.862237 187.152532 
L 215.017028 199.150927 
L 216.17182 190.701358 
L 217.326611 184.500149 
L 218.481402 188.1195 
L 219.636194 172.08226 
L 220.790985 176.216564 
L 221.945776 188.705458 
L 223.100568 197.676786 
L 224.255359 209.807937 
L 225.41015 215.32037 
L 226.564942 205.806523 
L 227.719733 191.545401 
L 228.874524 192.11673 
L 230.029316 202.440922 
L 231.184107 206.79524 
L 232.338898 206.505411 
L 233.493689 213.860564 
L 234.648481 224.054518 
L 235.803272 232.141057 
L 236.958063 248.215228 
L 238.112855 235.891277 
L 239.267646 239.914008 
L 240.422437 228.912079 
L 241.577229 228.878167 
L 242.73202 244.104737 
L 243.886811 238.18217 
L 245.041603 241.511444 
L 247.351185 245.651169 
L 248.505977 243.91902 
L 249.660768 246.311481 
L 250.815559 247.296962 
L 251.970351 244.755358 
L 253.125142 246.093664 
L 254.279933 241.194063 
L 255.434725 241.742331 
L 257.744307 238.365407 
L 258.899098 233.812636 
L 260.05389 219.270226 
L 261.208681 220.818592 
L 262.363472 215.778128 
L 263.518264 221.750595 
L 264.673055 205.782055 
L 265.827846 199.363794 
L 266.982638 203.495012 
L 268.137429 197.20869 
L 269.29222 200.720037 
L 270.447012 207.703685 
L 271.601803 212.804061 
L 272.756594 226.290525 
L 273.911386 225.04987 
L 275.066177 215.21566 
L 276.220968 220.11339 
L 277.37576 216.356082 
L 278.530551 211.075855 
L 279.685342 214.155356 
L 280.840134 214.598987 
L 281.994925 215.746613 
L 283.149716 220.968287 
L 284.304508 225.632472 
L 285.459299 221.007612 
L 286.61409 229.910667 
L 287.768881 250.625042 
L 288.923673 243.068787 
L 290.078464 249.6766 
L 291.233255 253.759511 
L 292.388047 228.523378 
L 293.542838 224.690146 
L 294.697629 215.42975 
L 297.007212 208.810932 
L 298.162003 215.685133 
L 300.471586 202.04451 
L 301.626377 204.4226 
L 302.781169 198.639797 
L 303.93596 197.307628 
L 305.090751 211.288064 
L 306.245543 219.222164 
L 307.400334 215.646614 
L 308.555125 222.859388 
L 309.709917 226.532379 
L 310.864708 224.032323 
L 312.019499 220.191746 
L 313.17429 220.360378 
L 314.329082 215.401283 
L 315.483873 236.236636 
L 316.638664 233.420571 
L 317.793456 232.127344 
L 318.948247 230.300868 
L 320.103038 234.83317 
L 321.25783 238.845466 
L 322.412621 238.412453 
L 323.567412 247.399112 
L 324.722204 258.091291 
L 325.876995 256.820366 
L 327.031786 260.304312 
L 328.186578 254.511271 
L 329.341369 252.667545 
L 330.49616 251.936362 
L 331.650952 255.213761 
L 332.805743 255.880394 
L 333.960534 252.321931 
L 335.115326 267.885558 
L 336.270117 271.025712 
L 337.424908 274.833463 
L 338.579699 270.856509 
L 339.734491 275.120344 
L 340.889282 267.235162 
L 342.044073 268.307677 
L 343.198865 273.522867 
L 344.353656 264.044705 
L 345.508447 270.647541 
L 346.663239 265.54248 
L 347.81803 267.473295 
L 348.972821 276.3862 
L 350.127613 271.493393 
L 352.437195 272.700489 
L 353.591987 279.172627 
L 354.746778 270.202305 
L 355.901569 270.708727 
L 357.056361 275.102993 
L 358.211152 275.232854 
L 359.365943 264.670778 
L 360.520735 268.025532 
L 361.675526 262.554366 
L 362.830317 261.481124 
L 363.985109 275.973935 
L 365.1399 274.588036 
L 366.294691 281.24236 
L 367.449482 289.904383 
L 368.604274 292.514442 
L 369.759065 296.869902 
L 370.913856 292.79238 
L 372.068648 293.622622 
L 373.223439 289.878402 
L 374.37823 294.77672 
L 375.533022 286.919126 
L 376.687813 275.393181 
L 377.842604 271.49975 
L 378.997396 252.389787 
L 380.152187 242.516276 
L 381.306978 228.088439 
L 382.46177 228.984982 
L 383.616561 220.76441 
L 384.771352 219.025353 
L 385.926144 211.079212 
L 387.080935 205.13471 
L 388.235726 210.915435 
L 389.390518 199.422478 
L 390.545309 184.233771 
L 391.7001 186.342334 
L 392.854891 172.79227 
L 394.009683 166.3526 
L 395.164474 165.252211 
L 396.319265 157.158294 
L 397.474057 151.235049 
L 398.628848 157.008073 
L 399.783639 151.829048 
L 400.938431 148.600014 
L 402.093222 160.921385 
L 403.248013 166.575685 
L 404.402805 175.193912 
L 405.557596 173.833233 
L 406.712387 178.435955 
L 407.867179 176.360347 
L 409.02197 171.385998 
L 410.176761 178.382786 
L 411.331553 170.827815 
L 412.486344 180.975399 
L 413.641135 186.513535 
L 414.795927 178.282857 
L 415.950718 192.157867 
L 417.105509 191.358714 
L 418.260301 190.888734 
L 419.415092 202.638588 
L 420.569883 200.562891 
L 421.724674 202.386626 
L 422.879466 207.113452 
L 424.034257 216.412997 
L 425.189048 207.644426 
L 426.34384 209.038012 
L 427.498631 216.214785 
L 428.653422 218.824592 
L 429.808214 218.314639 
L 430.963005 219.067411 
L 432.117796 226.25251 
L 433.272588 210.075488 
L 434.427379 218.401554 
L 435.58217 211.72736 
L 436.736962 219.842354 
L 437.891753 223.210467 
L 439.046544 229.953634 
L 440.201336 230.868499 
L 441.356127 227.810588 
L 442.510918 216.222433 
L 443.66571 211.389177 
L 444.820501 203.266587 
L 445.975292 199.082374 
L 447.130083 201.156917 
L 448.284875 207.054919 
L 449.439666 211.201055 
L 450.594457 212.904632 
L 451.749249 215.998669 
L 452.90404 220.155254 
L 454.058831 220.896699 
L 455.213623 215.100769 
L 456.368414 225.39713 
L 457.523205 225.861734 
L 458.677997 226.614539 
L 459.832788 215.347529 
L 460.987579 210.623741 
L 462.142371 202.912631 
L 463.297162 210.508619 
L 464.451953 201.975023 
L 465.606745 210.169835 
L 466.761536 206.78524 
L 467.916327 215.438812 
L 469.071119 228.186374 
L 470.22591 229.104867 
L 471.380701 232.837808 
L 472.535492 221.765715 
L 473.690284 220.368091 
L 474.845075 211.638643 
L 475.999866 212.233278 
L 477.154658 211.510101 
L 478.309449 212.7697 
L 479.46424 213.426305 
L 480.619032 214.612718 
L 481.773823 216.149109 
L 482.928614 219.700623 
L 484.083406 220.086559 
L 485.238197 221.186075 
L 486.392988 216.571631 
L 487.54778 219.128243 
L 488.702571 221.245868 
L 489.857362 221.816257 
L 492.166945 223.976078 
L 493.321736 229.498395 
L 494.476528 223.062151 
L 495.631319 229.547425 
L 496.78611 225.980669 
L 497.940902 239.917186 
L 499.095693 243.643124 
L 500.250484 253.552003 
L 501.405275 266.741581 
L 502.560067 272.403515 
L 503.714858 268.313576 
L 504.869649 276.743924 
L 506.024441 289.56852 
L 507.179232 298.857011 
L 508.334023 303.928142 
L 509.488815 305.579158 
L 510.643606 320.182491 
L 511.798397 327.968415 
L 512.953189 344.097339 
L 514.10798 343.310714 
L 515.262771 350.762288 
L 516.417563 350.088864 
L 517.572354 364.33368 
L 518.727145 364.552318 
L 519.881937 373.390529 
L 521.036728 375.681496 
L 522.191519 370.962876 
L 523.346311 367.721676 
L 524.501102 362.354672 
L 525.655893 364.202446 
L 526.810684 364.536796 
L 527.965476 361.914732 
L 529.120267 353.535649 
L 530.275058 354.497874 
L 531.42985 361.218265 
L 532.584641 371.98101 
L 533.739432 358.661982 
L 534.894224 351.094695 
L 536.049015 351.342763 
L 537.203806 360.759565 
L 538.358598 354.565054 
L 539.513389 359.38802 
L 540.66818 349.497523 
L 541.822972 352.520084 
L 542.977763 343.963064 
L 544.132554 340.624388 
L 545.287346 344.639632 
L 546.442137 353.536266 
L 547.596928 359.182043 
L 548.75172 359.528023 
L 549.906511 357.686601 
L 551.061302 348.811741 
L 552.216093 353.229825 
L 553.370885 349.456289 
L 554.525676 339.565792 
L 555.680467 326.099745 
L 556.835259 334.51577 
L 557.99005 340.771114 
L 559.144841 339.150867 
L 560.299633 335.612266 
L 561.454424 331.697643 
L 562.609215 322.54859 
L 563.764007 325.335004 
L 564.918798 320.661427 
L 566.073589 320.228907 
L 567.228381 320.553439 
L 568.383172 318.353157 
L 569.537963 315.516737 
L 570.692755 310.898558 
L 571.847546 311.304578 
L 573.002337 314.411651 
L 574.157129 318.311184 
L 575.31192 317.564189 
L 576.466711 316.490394 
L 577.621503 321.442213 
L 578.776294 333.210782 
L 579.931085 331.587998 
L 581.085876 324.136424 
L 582.240668 312.073449 
L 583.395459 302.105309 
L 584.55025 303.376234 
L 585.705042 306.776946 
L 586.859833 312.992689 
L 588.014624 314.847252 
L 589.169416 309.40157 
L 591.478998 315.228589 
L 592.63379 317.629443 
L 593.788581 318.299323 
L 594.943372 314.816703 
L 596.098164 317.028398 
L 597.252955 325.15869 
L 598.407746 318.86982 
L 599.562538 325.213069 
L 600.717329 321.002695 
L 601.87212 317.504788 
L 603.026912 319.549757 
L 604.181703 323.245743 
L 606.491285 339.459825 
L 607.646077 344.645976 
L 608.800868 346.939013 
L 609.955659 332.730309 
L 611.110451 323.946463 
L 612.265242 320.877172 
L 614.574825 296.41591 
L 615.729616 286.638176 
L 618.039199 263.98857 
L 619.19399 247.497552 
L 620.348781 233.422757 
L 621.503573 232.975357 
L 622.658364 221.58393 
L 623.813155 215.101531 
L 624.967947 206.830868 
L 626.122738 196.796427 
L 627.277529 191.268837 
L 628.432321 183.431989 
L 630.741903 161.929525 
L 631.896694 144.782803 
L 633.051486 143.147543 
L 634.206277 144.489584 
L 635.361068 146.473391 
L 636.51586 138.448627 
L 637.670651 141.108889 
L 638.825442 131.430381 
L 639.980234 140.03131 
L 641.135025 138.984057 
L 642.289816 144.211803 
L 643.444608 150.8611 
L 644.599399 152.287938 
L 645.75419 149.133278 
L 646.908982 149.133278 
L 649.218564 154.443204 
L 650.373356 154.176358 
L 651.528147 152.59886 
L 652.682938 160.821189 
L 653.83773 157.636732 
L 654.992521 157.907934 
L 656.147312 161.147422 
L 657.302104 162.644725 
L 658.456895 168.626024 
L 659.611686 173.12323 
L 660.766477 167.208368 
L 661.921269 173.769601 
L 663.07606 165.002081 
L 664.230851 165.522145 
L 665.385643 170.840915 
L 666.540434 172.272815 
L 667.695225 168.16789 
L 668.850017 168.031615 
L 671.159599 175.429733 
L 672.314391 174.756537 
L 673.469182 180.163241 
L 674.623973 181.877455 
L 675.778765 179.403467 
L 676.933556 181.048956 
L 678.088347 184.899589 
L 679.243139 187.121748 
L 680.39793 191.095975 
L 681.552721 185.071068 
L 682.707513 185.071068 
L 683.862304 189.630732 
L 685.017095 186.72238 
L 686.171886 188.217185 
L 687.326678 188.744373 
L 688.481469 186.147404 
L 689.63626 180.139959 
L 690.791052 181.337895 
L 691.945843 190.262491 
L 693.100634 186.542744 
L 694.255426 184.822307 
L 695.410217 176.568038 
L 696.565008 177.015372 
L 697.7198 175.663928 
L 698.874591 171.538372 
L 700.029382 172.403827 
L 701.184174 174.681221 
L 702.338965 170.320425 
L 703.493756 160.028741 
L 704.648548 158.823794 
L 705.803339 160.418195 
L 706.95813 170.932603 
L 708.112922 171.70871 
L 709.267713 168.347074 
L 710.422504 173.058696 
L 711.577295 170.336897 
L 712.732087 172.535632 
L 713.886878 171.398001 
L 715.041669 161.901457 
L 716.196461 158.408423 
L 717.351252 147.85432 
L 718.506043 154.048832 
L 719.660835 154.412833 
L 720.815626 158.94065 
L 721.970417 162.081465 
L 723.125209 159.462082 
L 724.28 158.033427 
L 724.28 158.033427 
" style="fill:none;stroke:#2ca02c;stroke-linecap:square;stroke-width:1.5;"/>
   </g>
   <g id="line2d_17">
    <path clip-path="url(#p1bdaa6c60b)" d="M 54.501035 179.424288 
L 55.655826 186.073586 
L 56.810618 188.150682 
L 57.965409 185.434486 
L 59.1202 178.404852 
L 60.274992 173.904574 
L 62.584574 180.859919 
L 63.739366 182.660348 
L 64.894157 192.608093 
L 66.048948 192.631112 
L 67.20374 195.093828 
L 68.358531 189.357956 
L 69.513322 197.725357 
L 70.668114 198.855858 
L 71.822905 198.185269 
L 74.132487 204.155233 
L 75.287279 199.489311 
L 76.44207 200.224564 
L 77.596861 203.821649 
L 78.751653 197.172352 
L 79.906444 202.837255 
L 81.061235 211.101695 
L 82.216027 214.96021 
L 83.370818 219.660099 
L 84.525609 220.626864 
L 85.680401 219.952908 
L 86.835192 213.097051 
L 87.989983 209.247103 
L 90.299566 228.071783 
L 91.454357 238.29663 
L 92.609149 230.885965 
L 93.76394 225.530374 
L 94.918731 229.030197 
L 96.073523 228.124869 
L 97.228314 222.764005 
L 98.383105 225.052145 
L 99.537896 222.979473 
L 100.692688 218.949138 
L 101.847479 221.510231 
L 103.00227 215.769276 
L 104.157062 209.006303 
L 105.311853 207.779805 
L 106.466644 202.346053 
L 107.621436 201.624966 
L 108.776227 197.474822 
L 109.931018 203.033358 
L 111.08581 206.254824 
L 112.240601 198.214652 
L 113.395392 181.89381 
L 114.550184 177.197756 
L 115.704975 182.490603 
L 116.859766 184.308516 
L 118.014558 181.059932 
L 119.169349 182.203139 
L 120.32414 187.189946 
L 122.633723 183.567715 
L 123.788514 181.463142 
L 124.943306 180.782564 
L 126.098097 179.562434 
L 127.252888 185.961837 
L 128.407679 178.813328 
L 129.562471 177.019126 
L 130.717262 169.800327 
L 131.872053 171.120672 
L 133.026845 174.934558 
L 134.181636 170.659071 
L 135.336427 169.48094 
L 136.491219 174.360609 
L 137.64601 172.921754 
L 138.800801 163.795966 
L 139.955593 160.490714 
L 141.110384 165.892595 
L 142.265175 162.599309 
L 143.419967 156.684021 
L 144.574758 154.932869 
L 145.729549 156.58241 
L 146.884341 155.116315 
L 148.039132 149.336266 
L 149.193923 154.433554 
L 150.348715 163.684099 
L 151.503506 179.249251 
L 153.813088 196.76116 
L 154.96788 201.080277 
L 156.122671 197.648671 
L 157.277462 209.955137 
L 158.432254 210.803876 
L 159.587045 225.192193 
L 160.741836 235.871826 
L 163.051419 249.754967 
L 164.20621 251.336733 
L 165.361002 258.499239 
L 166.515793 268.963341 
L 167.670584 275.800306 
L 168.825376 278.841468 
L 169.980167 294.009758 
L 171.134958 306.43666 
L 172.28975 314.557277 
L 173.444541 309.845654 
L 174.599332 313.786616 
L 175.754124 306.351949 
L 176.908915 313.40716 
L 178.063706 313.801114 
L 179.218497 317.891052 
L 180.373289 315.802375 
L 181.52808 324.749196 
L 182.682871 324.188517 
L 183.837663 327.15379 
L 184.992454 332.577206 
L 186.147245 333.14087 
L 187.302037 331.0959 
L 188.456828 334.422621 
L 189.611619 336.966411 
L 190.766411 341.115554 
L 191.921202 346.827299 
L 193.075993 346.486891 
L 194.230785 349.190193 
L 195.385576 342.758661 
L 196.540367 344.654218 
L 197.695159 335.683794 
L 198.84995 334.691111 
L 200.004741 330.658461 
L 201.159533 329.271825 
L 202.314324 333.774098 
L 203.469115 336.849255 
L 204.623907 339.369252 
L 205.778698 339.081192 
L 206.933489 331.691631 
L 208.08828 330.752107 
L 209.243072 326.78773 
L 210.397863 329.491033 
L 211.552654 325.136714 
L 212.707446 321.795496 
L 213.862237 315.975334 
L 215.017028 318.005589 
L 216.17182 312.055776 
L 217.326611 309.406608 
L 218.481402 313.589623 
L 219.636194 307.088003 
L 220.790985 312.161832 
L 223.100568 316.751599 
L 224.255359 322.923157 
L 225.41015 326.390621 
L 226.564942 318.241636 
L 227.719733 317.766608 
L 228.874524 318.337937 
L 234.648481 344.539847 
L 235.803272 343.213628 
L 236.958063 346.35965 
L 238.112855 339.9139 
L 239.267646 341.436876 
L 240.422437 335.355127 
L 241.577229 335.567214 
L 242.73202 341.258163 
L 243.886811 337.380565 
L 245.041603 340.709839 
L 246.196394 344.385687 
L 247.351185 349.097309 
L 248.505977 344.865405 
L 249.660768 343.669175 
L 250.815559 338.1997 
L 251.970351 337.165169 
L 253.125142 336.942018 
L 254.279933 336.132356 
L 255.434725 339.373556 
L 256.589516 332.78808 
L 257.744307 329.679712 
L 258.899098 329.430245 
L 260.05389 323.784468 
L 261.208681 326.70266 
L 262.363472 329.229482 
L 263.518264 327.209201 
L 264.673055 316.753886 
L 265.827846 312.83538 
L 266.982638 320.338943 
L 268.137429 324.597514 
L 269.29222 325.525995 
L 270.447012 325.525995 
L 271.601803 330.626372 
L 273.911386 341.94033 
L 275.066177 342.645494 
L 276.220968 342.581587 
L 277.37576 340.517144 
L 278.530551 332.885719 
L 279.685342 335.96522 
L 280.840134 340.2176 
L 281.994925 335.554849 
L 283.149716 344.276036 
L 284.304508 343.199266 
L 285.459299 341.738972 
L 287.768881 364.849313 
L 288.923673 366.431555 
L 290.078464 365.833792 
L 291.233255 365.854209 
L 292.388047 353.463956 
L 293.542838 353.463956 
L 294.697629 347.44476 
L 295.852421 352.302868 
L 297.007212 344.552277 
L 298.162003 339.380032 
L 299.316795 337.088128 
L 300.471586 329.360243 
L 301.626377 330.950427 
L 302.781169 323.660551 
L 303.93596 322.740718 
L 305.090751 334.676185 
L 306.245543 331.600774 
L 307.400334 336.205102 
L 308.555125 335.579733 
L 309.709917 336.011523 
L 310.864708 337.494112 
L 312.019499 329.870629 
L 313.17429 327.994292 
L 314.329082 318.597766 
L 315.483873 325.080166 
L 316.638664 318.430869 
L 317.793456 320.970874 
L 318.948247 321.809795 
L 320.103038 325.050995 
L 321.25783 331.563046 
L 322.412621 327.519569 
L 323.567412 334.981852 
L 324.722204 341.266552 
L 327.031786 345.86728 
L 328.186578 342.573993 
L 329.341369 348.122238 
L 330.49616 345.418936 
L 331.650952 345.802627 
L 332.805743 346.469259 
L 333.960534 344.482713 
L 335.115326 358.069196 
L 336.270117 361.209349 
L 337.424908 372.429074 
L 338.579699 375.864092 
L 339.734491 381.634999 
L 340.889282 377.050025 
L 342.044073 373.594722 
L 343.198865 378.867201 
L 344.353656 370.441325 
L 345.508447 378.240391 
L 346.663239 378.749645 
L 347.81803 376.847228 
L 348.972821 386.956364 
L 350.127613 383.589602 
L 351.282404 384.939412 
L 352.437195 381.261808 
L 353.591987 380.019116 
L 354.746778 381.016934 
L 355.901569 381.523357 
L 357.056361 377.863307 
L 358.211152 373.622039 
L 359.365943 363.059963 
L 360.520735 356.957775 
L 362.830317 356.860113 
L 363.985109 360.978285 
L 365.1399 364.433587 
L 366.294691 365.913087 
L 367.449482 371.023068 
L 368.604274 370.929824 
L 369.759065 368.990864 
L 370.913856 374.77915 
L 372.068648 370.86112 
L 373.223439 366.112848 
L 374.37823 367.769966 
L 375.533022 365.899325 
L 376.687813 360.85578 
L 377.842604 358.021333 
L 378.997396 340.35761 
L 380.152187 340.443845 
L 381.306978 331.446121 
L 382.46177 339.417096 
L 383.616561 341.809557 
L 384.771352 338.775333 
L 385.926144 337.41512 
L 387.080935 337.696311 
L 389.390518 327.172234 
L 390.545309 322.535306 
L 391.7001 322.598899 
L 392.854891 314.77806 
L 394.009683 303.502044 
L 395.164474 303.597885 
L 396.319265 301.678478 
L 397.474057 295.755233 
L 398.628848 295.47646 
L 399.783639 295.664439 
L 400.938431 292.178698 
L 402.093222 309.536229 
L 403.248013 314.247852 
L 404.402805 326.310826 
L 405.557596 328.721784 
L 406.712387 329.504715 
L 407.867179 327.799231 
L 409.02197 325.295426 
L 410.176761 328.111491 
L 412.486344 335.100682 
L 413.641135 336.12828 
L 414.795927 335.735745 
L 415.950718 345.757868 
L 417.105509 349.914108 
L 418.260301 348.247897 
L 422.879466 368.540708 
L 424.034257 370.969369 
L 425.189048 368.446291 
L 426.34384 368.446291 
L 428.653422 363.296863 
L 429.808214 366.545448 
L 430.963005 363.035857 
L 432.117796 366.397492 
L 433.272588 356.900948 
L 434.427379 357.985015 
L 435.58217 356.685065 
L 436.736962 358.758817 
L 437.891753 360.029742 
L 439.046544 360.806634 
L 440.201336 357.143248 
L 441.356127 361.536911 
L 443.66571 345.478452 
L 444.820501 333.878516 
L 445.975292 330.014962 
L 447.130083 335.395548 
L 448.284875 338.062201 
L 449.439666 338.062201 
L 450.594457 339.765778 
L 451.749249 337.226154 
L 452.90404 333.223421 
L 454.058831 334.275708 
L 455.213623 327.1463 
L 456.368414 332.807153 
L 457.523205 331.968232 
L 458.677997 333.515039 
L 460.987579 330.674319 
L 462.142371 331.416818 
L 463.297162 338.766808 
L 464.451953 335.50953 
L 465.606745 341.936783 
L 466.761536 344.710056 
L 467.916327 356.645522 
L 469.071119 360.735461 
L 470.22591 357.925725 
L 471.380701 356.43092 
L 472.535492 353.92378 
L 473.690284 351.867822 
L 474.845075 352.049435 
L 475.999866 352.64407 
L 477.154658 352.333228 
L 478.309449 355.326955 
L 479.46424 359.162647 
L 480.619032 360.001568 
L 481.773823 360.274674 
L 482.928614 362.968885 
L 484.083406 362.687694 
L 485.238197 359.734383 
L 486.392988 362.493528 
L 487.54778 358.636014 
L 488.702571 363.017247 
L 489.857362 362.923579 
L 491.012154 356.606122 
L 492.166945 359.028234 
L 493.321736 361.073204 
L 494.476528 344.712728 
L 495.631319 339.155702 
L 496.78611 335.588946 
L 497.940902 340.614403 
L 499.095693 341.947879 
L 500.250484 343.454952 
L 501.405275 348.511113 
L 502.560067 346.904023 
L 503.714858 340.769114 
L 504.869649 341.310009 
L 506.024441 345.083029 
L 507.179232 346.056492 
L 508.334023 344.334382 
L 509.488815 333.451201 
L 510.643606 341.740767 
L 511.798397 338.499567 
L 512.953189 345.044741 
L 514.10798 343.061885 
L 515.262771 345.106854 
L 516.417563 344.43343 
L 517.572354 364.33368 
L 518.727145 364.552318 
L 519.881937 373.390529 
L 521.036728 375.681496 
L 522.191519 370.962876 
L 523.346311 367.721676 
L 524.501102 362.354672 
L 525.655893 364.202446 
L 526.810684 364.536796 
L 527.965476 361.914732 
L 529.120267 353.535649 
L 530.275058 354.497874 
L 531.42985 361.218265 
L 532.584641 371.98101 
L 533.739432 358.661982 
L 534.894224 351.094695 
L 536.049015 351.342763 
L 537.203806 360.759565 
L 538.358598 354.565054 
L 539.513389 359.38802 
L 540.66818 349.497523 
L 541.822972 352.520084 
L 542.977763 343.963064 
L 544.132554 340.624388 
L 545.287346 344.639632 
L 546.442137 353.536266 
L 547.596928 359.182043 
L 548.75172 359.528023 
L 549.906511 357.686601 
L 551.061302 348.811741 
L 552.216093 353.229825 
L 553.370885 349.456289 
L 554.525676 339.565792 
L 555.680467 326.099745 
L 556.835259 334.51577 
L 557.99005 340.771114 
L 559.144841 339.150867 
L 560.299633 335.612266 
L 561.454424 331.697643 
L 562.609215 322.54859 
L 563.764007 325.335004 
L 564.918798 320.661427 
L 566.073589 320.228907 
L 567.228381 320.553439 
L 568.383172 318.353157 
L 569.537963 315.516737 
L 570.692755 310.898558 
L 571.847546 311.304578 
L 573.002337 314.411651 
L 574.157129 318.311184 
L 575.31192 317.564189 
L 576.466711 316.490394 
L 577.621503 321.442213 
L 578.776294 333.210782 
L 579.931085 331.587998 
L 581.085876 324.136424 
L 582.240668 312.073449 
L 583.395459 302.105309 
L 584.55025 303.376234 
L 585.705042 306.776946 
L 586.859833 312.992689 
L 588.014624 314.847252 
L 589.169416 309.40157 
L 591.478998 315.228589 
L 592.63379 317.629443 
L 593.788581 318.299323 
L 594.943372 314.816703 
L 596.098164 317.028398 
L 597.252955 325.15869 
L 598.407746 318.86982 
L 599.562538 325.213069 
L 600.717329 321.002695 
L 601.87212 317.504788 
L 603.026912 319.549757 
L 604.181703 323.245743 
L 606.491285 339.459825 
L 607.646077 344.645976 
L 608.800868 346.939013 
L 609.955659 331.699021 
L 611.110451 327.228627 
L 612.265242 329.520199 
L 613.420033 324.23403 
L 614.574825 313.211988 
L 615.729616 310.885828 
L 616.884407 301.069847 
L 618.039199 294.796268 
L 619.19399 279.610414 
L 620.348781 267.206989 
L 621.503573 270.698198 
L 622.658364 263.869764 
L 623.813155 264.574559 
L 624.967947 256.533904 
L 627.277529 246.895064 
L 628.432321 239.554107 
L 629.587112 229.457434 
L 630.741903 222.132646 
L 631.896694 205.605845 
L 633.051486 212.672087 
L 634.206277 208.701709 
L 635.361068 210.97043 
L 636.51586 197.968799 
L 637.670651 195.113934 
L 638.825442 179.872424 
L 639.980234 180.484402 
L 641.135025 182.735868 
L 642.289816 186.65845 
L 643.444608 188.213566 
L 644.599399 183.349582 
L 645.75419 175.138196 
L 646.908982 169.349463 
L 648.063773 171.410423 
L 649.218564 173.221916 
L 650.373356 179.088413 
L 651.528147 177.323158 
L 652.682938 180.214827 
L 653.83773 176.527251 
L 654.992521 178.248258 
L 656.147312 166.272292 
L 657.302104 173.668163 
L 658.456895 167.854627 
L 659.611686 174.879155 
L 660.766477 175.16212 
L 661.921269 183.015505 
L 663.07606 181.214031 
L 664.230851 174.904039 
L 665.385643 181.729881 
L 666.540434 179.87003 
L 667.695225 180.920637 
L 668.850017 179.558683 
L 670.004808 177.011706 
L 671.159599 180.036559 
L 672.314391 184.191341 
L 673.469182 177.270512 
L 674.623973 187.215646 
L 675.778765 193.165996 
L 676.933556 202.800957 
L 678.088347 202.957307 
L 679.243139 214.250752 
L 680.39793 209.821961 
L 681.552721 216.599364 
L 682.707513 219.682758 
L 683.862304 221.855623 
L 685.017095 219.754878 
L 686.171886 229.853192 
L 687.326678 231.561586 
L 688.481469 228.029031 
L 689.63626 230.576286 
L 690.791052 226.774603 
L 691.945843 230.681213 
L 693.100634 238.774299 
L 694.255426 233.664662 
L 695.410217 217.21473 
L 696.565008 220.457508 
L 698.874591 203.189937 
L 700.029382 191.031289 
L 701.184174 193.902798 
L 702.338965 188.015958 
L 703.493756 183.666613 
L 704.648548 176.978942 
L 705.803339 169.527368 
L 706.95813 173.079409 
L 708.112922 172.047997 
L 709.267713 164.387096 
L 710.422504 164.636062 
L 711.577295 161.342775 
L 712.732087 164.974127 
L 713.886878 165.401992 
L 715.041669 168.049452 
L 716.196461 157.044299 
L 717.351252 156.13474 
L 718.506043 167.087679 
L 719.660835 170.215195 
L 720.815626 167.628667 
L 721.970417 168.884919 
L 723.125209 174.408935 
L 724.28 176.1608 
L 724.28 176.1608 
" style="fill:none;stroke:#d62728;stroke-linecap:square;stroke-width:1.5;"/>
   </g>
   <g id="line2d_18">
    <path clip-path="url(#p1bdaa6c60b)" d="M 54.501035 318.347235 
L 56.810618 340.346195 
L 57.965409 348.726545 
L 60.274992 344.781674 
L 61.429783 341.66342 
L 63.739366 341.66342 
L 64.894157 346.900003 
L 66.048948 347.028132 
L 67.20374 349.383943 
L 68.358531 348.287731 
L 69.513322 348.287731 
L 70.668114 351.069249 
L 71.822905 347.864699 
L 74.132487 347.864699 
L 75.287279 348.316314 
L 76.44207 348.316314 
L 77.596861 350.245572 
L 78.751653 350.245572 
L 79.906444 351.329639 
L 81.061235 354.490802 
L 82.216027 356.42006 
L 83.370818 356.590314 
L 84.525609 362.784826 
L 85.680401 362.784826 
L 86.835192 358.351081 
L 87.989983 363.997678 
L 89.144775 361.674467 
L 90.299566 361.546338 
L 91.454357 365.636277 
L 92.609149 364.836304 
L 93.76394 365.281271 
L 94.918731 368.485821 
L 97.228314 368.485821 
L 98.383105 371.282791 
L 100.692688 371.282791 
L 101.847479 370.661108 
L 103.00227 370.661108 
L 104.157062 369.44638 
L 105.311853 369.200382 
L 106.466644 371.00863 
L 107.621436 370.22794 
L 108.776227 369.133203 
L 109.931018 372.776631 
L 111.08581 371.908158 
L 112.240601 373.618778 
L 113.395392 367.998567 
L 114.550184 367.536396 
L 115.704975 368.336369 
L 119.169349 368.336369 
L 120.32414 364.333637 
L 121.478932 357.821586 
L 122.633723 355.87811 
L 124.943306 355.785617 
L 126.098097 355.340649 
L 127.252888 356.555377 
L 128.407679 350.355625 
L 129.562471 346.937433 
L 130.717262 342.969851 
L 131.872053 341.416091 
L 133.026845 335.951063 
L 134.181636 334.295093 
L 135.336427 334.907684 
L 136.491219 339.969902 
L 137.64601 340.432072 
L 138.800801 338.026676 
L 139.955593 333.625895 
L 141.110384 332.892868 
L 142.265175 332.892868 
L 143.419967 335.96712 
L 144.574758 338.268796 
L 145.729549 340.212272 
L 146.884341 335.711473 
L 148.039132 313.284199 
L 149.193923 308.065855 
L 150.348715 310.959563 
L 151.503506 314.983201 
L 152.658297 316.831413 
L 153.813088 314.582896 
L 154.96788 310.234605 
L 156.122671 306.455508 
L 157.277462 308.690883 
L 158.432254 297.998109 
L 159.587045 300.844912 
L 160.741836 299.983031 
L 161.896628 295.391639 
L 163.051419 293.696588 
L 164.20621 289.87175 
L 165.361002 285.492742 
L 166.515793 284.415331 
L 167.670584 284.496165 
L 168.825376 279.647875 
L 169.980167 286.309355 
L 171.134958 306.43666 
L 172.28975 314.557277 
L 173.444541 309.845654 
L 174.599332 313.786616 
L 175.754124 306.351949 
L 176.908915 313.40716 
L 178.063706 313.801114 
L 179.218497 317.891052 
L 180.373289 315.802375 
L 181.52808 324.749196 
L 182.682871 324.188517 
L 183.837663 327.15379 
L 184.992454 332.577206 
L 186.147245 333.14087 
L 187.302037 331.0959 
L 188.456828 334.422621 
L 189.611619 336.966411 
L 190.766411 341.115554 
L 191.921202 346.827299 
L 193.075993 346.486891 
L 194.230785 349.190193 
L 195.385576 342.758661 
L 196.540367 344.654218 
L 197.695159 335.683794 
L 198.84995 334.691111 
L 200.004741 330.658461 
L 201.159533 329.271825 
L 202.314324 333.774098 
L 203.469115 336.849255 
L 204.623907 339.369252 
L 205.778698 339.081192 
L 206.933489 331.691631 
L 208.08828 330.752107 
L 209.243072 326.78773 
L 210.397863 329.491033 
L 211.552654 325.136714 
L 212.707446 321.795496 
L 213.862237 315.975334 
L 215.017028 318.005589 
L 216.17182 312.055776 
L 217.326611 309.406608 
L 218.481402 313.589623 
L 219.636194 307.088003 
L 220.790985 312.161832 
L 223.100568 316.751599 
L 224.255359 322.923157 
L 225.41015 326.390621 
L 226.564942 318.241636 
L 227.719733 317.766608 
L 228.874524 318.337937 
L 234.648481 344.539847 
L 235.803272 343.213628 
L 236.958063 346.35965 
L 238.112855 339.9139 
L 239.267646 341.436876 
L 240.422437 335.355127 
L 241.577229 335.567214 
L 242.73202 341.258163 
L 243.886811 337.380565 
L 245.041603 340.709839 
L 246.196394 344.385687 
L 247.351185 349.097309 
L 248.505977 344.865405 
L 249.660768 343.669175 
L 250.815559 338.1997 
L 251.970351 337.165169 
L 253.125142 336.942018 
L 254.279933 336.132356 
L 255.434725 339.373556 
L 256.589516 332.78808 
L 257.744307 329.679712 
L 258.899098 329.430245 
L 260.05389 323.784468 
L 261.208681 326.70266 
L 262.363472 329.229482 
L 263.518264 330.459091 
L 264.673055 320.003776 
L 265.827846 316.08527 
L 266.982638 323.588833 
L 268.137429 327.847404 
L 269.29222 328.775885 
L 270.447012 328.775885 
L 271.601803 333.876262 
L 273.911386 345.19022 
L 275.066177 345.895384 
L 276.220968 345.831477 
L 277.37576 343.767034 
L 278.530551 336.135609 
L 279.685342 339.21511 
L 280.840134 343.46749 
L 281.994925 338.804739 
L 283.149716 347.525926 
L 284.304508 346.449156 
L 285.459299 344.988862 
L 286.61409 353.403752 
L 287.768881 364.849313 
L 288.923673 366.431555 
L 290.078464 365.833792 
L 291.233255 365.854209 
L 292.388047 353.463956 
L 293.542838 353.463956 
L 294.697629 347.44476 
L 295.852421 352.302868 
L 297.007212 344.552277 
L 298.162003 339.380032 
L 299.316795 337.088128 
L 300.471586 329.360243 
L 301.626377 330.950427 
L 302.781169 323.660551 
L 303.93596 322.740718 
L 305.090751 334.676185 
L 306.245543 331.600774 
L 307.400334 336.205102 
L 308.555125 335.579733 
L 309.709917 336.011523 
L 310.864708 337.494112 
L 312.019499 329.870629 
L 313.17429 327.994292 
L 314.329082 318.597766 
L 315.483873 325.080166 
L 316.638664 318.430869 
L 317.793456 320.970874 
L 318.948247 321.809795 
L 320.103038 325.050995 
L 321.25783 331.563046 
L 322.412621 327.519569 
L 323.567412 334.981852 
L 324.722204 341.266552 
L 327.031786 345.86728 
L 328.186578 342.573993 
L 329.341369 348.122238 
L 330.49616 345.418936 
L 331.650952 345.802627 
L 332.805743 346.469259 
L 333.960534 344.482713 
L 335.115326 358.069196 
L 336.270117 361.209349 
L 337.424908 372.429074 
L 338.579699 375.864092 
L 339.734491 381.634999 
L 340.889282 377.050025 
L 342.044073 373.594722 
L 343.198865 378.867201 
L 344.353656 370.441325 
L 345.508447 378.240391 
L 346.663239 378.749645 
L 347.81803 376.847228 
L 348.972821 386.956364 
L 350.127613 383.589602 
L 351.282404 384.939412 
L 352.437195 381.261808 
L 353.591987 380.019116 
L 354.746778 381.016934 
L 355.901569 381.523357 
L 357.056361 377.863307 
L 358.211152 373.622039 
L 359.365943 363.059963 
L 360.520735 356.957775 
L 362.830317 356.860113 
L 363.985109 360.978285 
L 365.1399 364.433587 
L 366.294691 365.913087 
L 367.449482 371.023068 
L 368.604274 370.929824 
L 369.759065 368.990864 
L 370.913856 374.77915 
L 372.068648 370.86112 
L 373.223439 366.112848 
L 374.37823 367.769966 
L 375.533022 365.899325 
L 376.687813 360.85578 
L 377.842604 358.021333 
L 378.997396 338.986064 
L 380.152187 339.0723 
L 381.306978 330.074576 
L 382.46177 338.045551 
L 383.616561 340.438012 
L 384.771352 337.403788 
L 385.926144 336.043575 
L 387.080935 336.324765 
L 389.390518 325.800689 
L 390.545309 321.163761 
L 391.7001 321.227354 
L 392.854891 313.406515 
L 394.009683 302.130499 
L 395.164474 302.22634 
L 396.319265 300.306932 
L 397.474057 294.383688 
L 398.628848 294.104915 
L 399.783639 294.292893 
L 400.938431 290.807153 
L 402.093222 309.536229 
L 403.248013 314.247852 
L 404.402805 326.310826 
L 405.557596 328.721784 
L 406.712387 329.504715 
L 407.867179 327.799231 
L 409.02197 325.295426 
L 410.176761 328.111491 
L 412.486344 335.100682 
L 413.641135 336.12828 
L 414.795927 335.735745 
L 415.950718 345.757868 
L 417.105509 349.914108 
L 418.260301 348.247897 
L 422.879466 368.540708 
L 424.034257 370.969369 
L 425.189048 368.446291 
L 426.34384 368.446291 
L 428.653422 363.296863 
L 429.808214 366.545448 
L 430.963005 363.035857 
L 432.117796 366.397492 
L 433.272588 356.900948 
L 434.427379 357.985015 
L 435.58217 356.685065 
L 436.736962 358.758817 
L 437.891753 360.029742 
L 439.046544 360.806634 
L 440.201336 357.143248 
L 441.356127 361.536911 
L 443.66571 345.478452 
L 444.820501 333.878516 
L 445.975292 330.014962 
L 447.130083 335.395548 
L 448.284875 338.062201 
L 449.439666 338.062201 
L 450.594457 339.765778 
L 451.749249 337.226154 
L 452.90404 333.223421 
L 454.058831 334.275708 
L 455.213623 327.1463 
L 456.368414 332.807153 
L 457.523205 331.968232 
L 458.677997 333.515039 
L 460.987579 330.674319 
L 462.142371 331.416818 
L 463.297162 338.766808 
L 464.451953 335.50953 
L 465.606745 341.936783 
L 466.761536 344.710056 
L 467.916327 356.645522 
L 469.071119 360.735461 
L 470.22591 357.925725 
L 471.380701 356.43092 
L 472.535492 353.92378 
L 473.690284 351.867822 
L 474.845075 352.049435 
L 475.999866 352.64407 
L 477.154658 352.333228 
L 478.309449 355.326955 
L 479.46424 359.162647 
L 480.619032 360.001568 
L 481.773823 360.274674 
L 482.928614 362.968885 
L 484.083406 362.687694 
L 485.238197 359.734383 
L 486.392988 362.493528 
L 487.54778 358.636014 
L 488.702571 363.017247 
L 489.857362 362.923579 
L 491.012154 356.606122 
L 492.166945 359.028234 
L 493.321736 361.073204 
L 494.476528 343.267031 
L 495.631319 337.710005 
L 496.78611 334.143249 
L 497.940902 339.168705 
L 499.095693 340.502182 
L 500.250484 342.009254 
L 501.405275 347.065416 
L 502.560067 345.458325 
L 503.714858 339.323417 
L 504.869649 339.864311 
L 506.024441 343.637332 
L 507.179232 344.610795 
L 508.334023 342.888684 
L 509.488815 332.005504 
L 510.643606 340.29507 
L 511.798397 337.05387 
L 512.953189 343.599044 
L 514.10798 341.616187 
L 515.262771 343.661157 
L 516.417563 342.987733 
L 517.572354 364.33368 
L 518.727145 364.552318 
L 519.881937 373.390529 
L 521.036728 375.681496 
L 522.191519 370.962876 
L 523.346311 367.721676 
L 524.501102 362.354672 
L 525.655893 364.202446 
L 526.810684 364.536796 
L 527.965476 361.914732 
L 529.120267 353.535649 
L 530.275058 354.497874 
L 531.42985 361.218265 
L 532.584641 371.98101 
L 533.739432 358.661982 
L 534.894224 351.094695 
L 536.049015 351.342763 
L 537.203806 360.759565 
L 538.358598 354.565054 
L 539.513389 359.38802 
L 540.66818 349.497523 
L 541.822972 352.520084 
L 542.977763 343.963064 
L 544.132554 340.624388 
L 545.287346 344.639632 
L 546.442137 353.536266 
L 547.596928 359.182043 
L 548.75172 359.528023 
L 549.906511 357.686601 
L 551.061302 348.811741 
L 552.216093 353.229825 
L 553.370885 349.456289 
L 554.525676 339.565792 
L 555.680467 326.099745 
L 556.835259 334.51577 
L 557.99005 340.771114 
L 559.144841 339.150867 
L 560.299633 335.612266 
L 561.454424 331.697643 
L 562.609215 322.54859 
L 563.764007 325.335004 
L 564.918798 320.661427 
L 566.073589 320.228907 
L 567.228381 320.553439 
L 568.383172 318.353157 
L 569.537963 315.516737 
L 570.692755 310.898558 
L 571.847546 311.304578 
L 573.002337 314.411651 
L 574.157129 318.311184 
L 575.31192 317.564189 
L 576.466711 316.490394 
L 577.621503 321.442213 
L 578.776294 333.210782 
L 579.931085 331.587998 
L 581.085876 324.136424 
L 582.240668 312.073449 
L 583.395459 302.105309 
L 584.55025 303.376234 
L 585.705042 306.776946 
L 586.859833 312.992689 
L 588.014624 314.847252 
L 589.169416 309.40157 
L 591.478998 315.228589 
L 592.63379 317.629443 
L 593.788581 318.299323 
L 594.943372 314.816703 
L 596.098164 317.028398 
L 597.252955 325.15869 
L 598.407746 318.86982 
L 599.562538 325.213069 
L 600.717329 321.002695 
L 601.87212 317.504788 
L 603.026912 319.549757 
L 604.181703 323.245743 
L 606.491285 339.459825 
L 607.646077 344.645976 
L 608.800868 346.939013 
L 609.955659 329.654052 
L 611.110451 319.275805 
L 612.265242 322.523971 
L 613.420033 318.434032 
L 614.574825 315.959776 
L 615.729616 316.336919 
L 616.884407 316.325372 
L 618.039199 316.77034 
L 619.19399 311.820835 
L 620.348781 309.287554 
L 621.503573 317.133082 
L 622.658364 313.420285 
L 623.813155 318.479399 
L 624.967947 321.75025 
L 626.122738 323.257322 
L 627.277529 329.271246 
L 628.432321 331.761183 
L 629.587112 330.409053 
L 630.741903 327.174205 
L 631.896694 320.158663 
L 634.206277 345.194921 
L 635.361068 350.095739 
L 636.51586 345.196138 
L 637.670651 345.335 
L 638.825442 336.640733 
L 639.980234 337.968946 
L 641.135025 335.546834 
L 642.289816 340.774581 
L 644.599399 340.774581 
L 645.75419 340.189097 
L 648.063773 340.189097 
L 649.218564 338.802461 
L 650.373356 338.003612 
L 651.528147 334.113285 
L 652.682938 335.741341 
L 653.83773 336.892821 
L 654.992521 338.255308 
L 656.147312 334.343508 
L 657.302104 337.871066 
L 658.456895 338.095244 
L 659.611686 342.994845 
L 660.766477 340.665292 
L 661.921269 347.132041 
L 663.07606 345.637236 
L 664.230851 343.723411 
L 665.385643 343.445169 
L 666.540434 342.536827 
L 667.695225 338.168646 
L 668.850017 337.295823 
L 670.004808 335.05257 
L 671.159599 335.05257 
L 672.314391 336.439207 
L 673.469182 334.635915 
L 674.623973 338.526242 
L 676.933556 341.882351 
L 678.088347 342.690396 
L 679.243139 346.4386 
L 680.39793 346.4386 
L 681.552721 348.41072 
L 682.707513 348.41072 
L 683.862304 353.196103 
L 685.017095 350.562586 
L 686.171886 352.057391 
L 687.326678 356.393328 
L 688.481469 356.67157 
L 689.63626 356.81838 
L 690.791052 360.758695 
L 691.945843 362.217002 
L 693.100634 364.460255 
L 694.255426 364.460255 
L 695.410217 358.265743 
L 696.565008 362.699488 
L 697.7198 362.699488 
L 698.874591 356.680291 
L 700.029382 355.123634 
L 701.184174 359.304357 
L 702.338965 360.962758 
L 703.493756 354.645301 
L 704.648548 353.507493 
L 706.95813 353.507493 
L 708.112922 354.505645 
L 709.267713 351.144009 
L 711.577295 351.144009 
L 712.732087 351.905542 
L 713.886878 352.333407 
L 715.041669 352.333407 
L 716.196461 348.272824 
L 717.351252 342.253627 
L 718.506043 348.448139 
L 719.660835 348.448139 
L 720.815626 346.841048 
L 721.970417 352.755135 
L 723.125209 351.699275 
L 724.28 351.728926 
L 724.28 351.728926 
" style="fill:none;stroke:#9467bd;stroke-linecap:square;stroke-width:1.5;"/>
   </g>
   <g id="patch_3">
    <path d="M 32.56 404.12 
L 32.56 26.52 
" style="fill:none;stroke:#000000;stroke-linecap:square;stroke-linejoin:miter;stroke-width:0.8;"/>
   </g>
   <g id="patch_4">
    <path d="M 724.28 404.12 
L 724.28 26.52 
" style="fill:none;stroke:#000000;stroke-linecap:square;stroke-linejoin:miter;stroke-width:0.8;"/>
   </g>
   <g id="patch_5">
    <path d="M 32.56 404.12 
L 724.28 404.12 
" style="fill:none;stroke:#000000;stroke-linecap:square;stroke-linejoin:miter;stroke-width:0.8;"/>
   </g>
   <g id="patch_6">
    <path d="M 32.56 26.52 
L 724.28 26.52 
" style="fill:none;stroke:#000000;stroke-linecap:square;stroke-linejoin:miter;stroke-width:0.8;"/>
   </g>
   <g id="text_14">
    <!-- multi_way_v2: episode duration in steps log-relative to `htm_0`, MA=20 -->
    <defs>
     <path d="M 52 44.1875 
Q 55.375 50.25 60.0625 53.125 
Q 64.75 56 71.09375 56 
Q 79.640625 56 84.28125 50.015625 
Q 88.921875 44.046875 88.921875 33.015625 
L 88.921875 0 
L 79.890625 0 
L 79.890625 32.71875 
Q 79.890625 40.578125 77.09375 44.375 
Q 74.3125 48.1875 68.609375 48.1875 
Q 61.625 48.1875 57.5625 43.546875 
Q 53.515625 38.921875 53.515625 30.90625 
L 53.515625 0 
L 44.484375 0 
L 44.484375 32.71875 
Q 44.484375 40.625 41.703125 44.40625 
Q 38.921875 48.1875 33.109375 48.1875 
Q 26.21875 48.1875 22.15625 43.53125 
Q 18.109375 38.875 18.109375 30.90625 
L 18.109375 0 
L 9.078125 0 
L 9.078125 54.6875 
L 18.109375 54.6875 
L 18.109375 46.1875 
Q 21.1875 51.21875 25.484375 53.609375 
Q 29.78125 56 35.6875 56 
Q 41.65625 56 45.828125 52.96875 
Q 50 49.953125 52 44.1875 
z
" id="DejaVuSans-109"/>
     <path d="M 8.5 21.578125 
L 8.5 54.6875 
L 17.484375 54.6875 
L 17.484375 21.921875 
Q 17.484375 14.15625 20.5 10.265625 
Q 23.53125 6.390625 29.59375 6.390625 
Q 36.859375 6.390625 41.078125 11.03125 
Q 45.3125 15.671875 45.3125 23.6875 
L 45.3125 54.6875 
L 54.296875 54.6875 
L 54.296875 0 
L 45.3125 0 
L 45.3125 8.40625 
Q 42.046875 3.421875 37.71875 1 
Q 33.40625 -1.421875 27.6875 -1.421875 
Q 18.265625 -1.421875 13.375 4.4375 
Q 8.5 10.296875 8.5 21.578125 
z
M 31.109375 56 
z
" id="DejaVuSans-117"/>
     <path d="M 9.421875 75.984375 
L 18.40625 75.984375 
L 18.40625 0 
L 9.421875 0 
z
" id="DejaVuSans-108"/>
     <path d="M 18.3125 70.21875 
L 18.3125 54.6875 
L 36.8125 54.6875 
L 36.8125 47.703125 
L 18.3125 47.703125 
L 18.3125 18.015625 
Q 18.3125 11.328125 20.140625 9.421875 
Q 21.96875 7.515625 27.59375 7.515625 
L 36.8125 7.515625 
L 36.8125 0 
L 27.59375 0 
Q 17.1875 0 13.234375 3.875 
Q 9.28125 7.765625 9.28125 18.015625 
L 9.28125 47.703125 
L 2.6875 47.703125 
L 2.6875 54.6875 
L 9.28125 54.6875 
L 9.28125 70.21875 
z
" id="DejaVuSans-116"/>
     <path d="M 9.421875 54.6875 
L 18.40625 54.6875 
L 18.40625 0 
L 9.421875 0 
z
M 9.421875 75.984375 
L 18.40625 75.984375 
L 18.40625 64.59375 
L 9.421875 64.59375 
z
" id="DejaVuSans-105"/>
     <path d="M 50.984375 -16.609375 
L 50.984375 -23.578125 
L -0.984375 -23.578125 
L -0.984375 -16.609375 
z
" id="DejaVuSans-95"/>
     <path d="M 4.203125 54.6875 
L 13.1875 54.6875 
L 24.421875 12.015625 
L 35.59375 54.6875 
L 46.1875 54.6875 
L 57.421875 12.015625 
L 68.609375 54.6875 
L 77.59375 54.6875 
L 63.28125 0 
L 52.6875 0 
L 40.921875 44.828125 
L 29.109375 0 
L 18.5 0 
z
" id="DejaVuSans-119"/>
     <path d="M 34.28125 27.484375 
Q 23.390625 27.484375 19.1875 25 
Q 14.984375 22.515625 14.984375 16.5 
Q 14.984375 11.71875 18.140625 8.90625 
Q 21.296875 6.109375 26.703125 6.109375 
Q 34.1875 6.109375 38.703125 11.40625 
Q 43.21875 16.703125 43.21875 25.484375 
L 43.21875 27.484375 
z
M 52.203125 31.203125 
L 52.203125 0 
L 43.21875 0 
L 43.21875 8.296875 
Q 40.140625 3.328125 35.546875 0.953125 
Q 30.953125 -1.421875 24.3125 -1.421875 
Q 15.921875 -1.421875 10.953125 3.296875 
Q 6 8.015625 6 15.921875 
Q 6 25.140625 12.171875 29.828125 
Q 18.359375 34.515625 30.609375 34.515625 
L 43.21875 34.515625 
L 43.21875 35.40625 
Q 43.21875 41.609375 39.140625 45 
Q 35.0625 48.390625 27.6875 48.390625 
Q 23 48.390625 18.546875 47.265625 
Q 14.109375 46.140625 10.015625 43.890625 
L 10.015625 52.203125 
Q 14.9375 54.109375 19.578125 55.046875 
Q 24.21875 56 28.609375 56 
Q 40.484375 56 46.34375 49.84375 
Q 52.203125 43.703125 52.203125 31.203125 
z
" id="DejaVuSans-97"/>
     <path d="M 32.171875 -5.078125 
Q 28.375 -14.84375 24.75 -17.8125 
Q 21.140625 -20.796875 15.09375 -20.796875 
L 7.90625 -20.796875 
L 7.90625 -13.28125 
L 13.1875 -13.28125 
Q 16.890625 -13.28125 18.9375 -11.515625 
Q 21 -9.765625 23.484375 -3.21875 
L 25.09375 0.875 
L 2.984375 54.6875 
L 12.5 54.6875 
L 29.59375 11.921875 
L 46.6875 54.6875 
L 56.203125 54.6875 
z
" id="DejaVuSans-121"/>
     <path d="M 2.984375 54.6875 
L 12.5 54.6875 
L 29.59375 8.796875 
L 46.6875 54.6875 
L 56.203125 54.6875 
L 35.6875 0 
L 23.484375 0 
z
" id="DejaVuSans-118"/>
     <path d="M 11.71875 12.40625 
L 22.015625 12.40625 
L 22.015625 0 
L 11.71875 0 
z
M 11.71875 51.703125 
L 22.015625 51.703125 
L 22.015625 39.3125 
L 11.71875 39.3125 
z
" id="DejaVuSans-58"/>
     <path id="DejaVuSans-32"/>
     <path d="M 56.203125 29.59375 
L 56.203125 25.203125 
L 14.890625 25.203125 
Q 15.484375 15.921875 20.484375 11.0625 
Q 25.484375 6.203125 34.421875 6.203125 
Q 39.59375 6.203125 44.453125 7.46875 
Q 49.3125 8.734375 54.109375 11.28125 
L 54.109375 2.78125 
Q 49.265625 0.734375 44.1875 -0.34375 
Q 39.109375 -1.421875 33.890625 -1.421875 
Q 20.796875 -1.421875 13.15625 6.1875 
Q 5.515625 13.8125 5.515625 26.8125 
Q 5.515625 40.234375 12.765625 48.109375 
Q 20.015625 56 32.328125 56 
Q 43.359375 56 49.78125 48.890625 
Q 56.203125 41.796875 56.203125 29.59375 
z
M 47.21875 32.234375 
Q 47.125 39.59375 43.09375 43.984375 
Q 39.0625 48.390625 32.421875 48.390625 
Q 24.90625 48.390625 20.390625 44.140625 
Q 15.875 39.890625 15.1875 32.171875 
z
" id="DejaVuSans-101"/>
     <path d="M 18.109375 8.203125 
L 18.109375 -20.796875 
L 9.078125 -20.796875 
L 9.078125 54.6875 
L 18.109375 54.6875 
L 18.109375 46.390625 
Q 20.953125 51.265625 25.265625 53.625 
Q 29.59375 56 35.59375 56 
Q 45.5625 56 51.78125 48.09375 
Q 58.015625 40.1875 58.015625 27.296875 
Q 58.015625 14.40625 51.78125 6.484375 
Q 45.5625 -1.421875 35.59375 -1.421875 
Q 29.59375 -1.421875 25.265625 0.953125 
Q 20.953125 3.328125 18.109375 8.203125 
z
M 48.6875 27.296875 
Q 48.6875 37.203125 44.609375 42.84375 
Q 40.53125 48.484375 33.40625 48.484375 
Q 26.265625 48.484375 22.1875 42.84375 
Q 18.109375 37.203125 18.109375 27.296875 
Q 18.109375 17.390625 22.1875 11.75 
Q 26.265625 6.109375 33.40625 6.109375 
Q 40.53125 6.109375 44.609375 11.75 
Q 48.6875 17.390625 48.6875 27.296875 
z
" id="DejaVuSans-112"/>
     <path d="M 44.28125 53.078125 
L 44.28125 44.578125 
Q 40.484375 46.53125 36.375 47.5 
Q 32.28125 48.484375 27.875 48.484375 
Q 21.1875 48.484375 17.84375 46.4375 
Q 14.5 44.390625 14.5 40.28125 
Q 14.5 37.15625 16.890625 35.375 
Q 19.28125 33.59375 26.515625 31.984375 
L 29.59375 31.296875 
Q 39.15625 29.25 43.1875 25.515625 
Q 47.21875 21.78125 47.21875 15.09375 
Q 47.21875 7.46875 41.1875 3.015625 
Q 35.15625 -1.421875 24.609375 -1.421875 
Q 20.21875 -1.421875 15.453125 -0.5625 
Q 10.6875 0.296875 5.421875 2 
L 5.421875 11.28125 
Q 10.40625 8.6875 15.234375 7.390625 
Q 20.0625 6.109375 24.8125 6.109375 
Q 31.15625 6.109375 34.5625 8.28125 
Q 37.984375 10.453125 37.984375 14.40625 
Q 37.984375 18.0625 35.515625 20.015625 
Q 33.0625 21.96875 24.703125 23.78125 
L 21.578125 24.515625 
Q 13.234375 26.265625 9.515625 29.90625 
Q 5.8125 33.546875 5.8125 39.890625 
Q 5.8125 47.609375 11.28125 51.796875 
Q 16.75 56 26.8125 56 
Q 31.78125 56 36.171875 55.265625 
Q 40.578125 54.546875 44.28125 53.078125 
z
" id="DejaVuSans-115"/>
     <path d="M 30.609375 48.390625 
Q 23.390625 48.390625 19.1875 42.75 
Q 14.984375 37.109375 14.984375 27.296875 
Q 14.984375 17.484375 19.15625 11.84375 
Q 23.34375 6.203125 30.609375 6.203125 
Q 37.796875 6.203125 41.984375 11.859375 
Q 46.1875 17.53125 46.1875 27.296875 
Q 46.1875 37.015625 41.984375 42.703125 
Q 37.796875 48.390625 30.609375 48.390625 
z
M 30.609375 56 
Q 42.328125 56 49.015625 48.375 
Q 55.71875 40.765625 55.71875 27.296875 
Q 55.71875 13.875 49.015625 6.21875 
Q 42.328125 -1.421875 30.609375 -1.421875 
Q 18.84375 -1.421875 12.171875 6.21875 
Q 5.515625 13.875 5.515625 27.296875 
Q 5.515625 40.765625 12.171875 48.375 
Q 18.84375 56 30.609375 56 
z
" id="DejaVuSans-111"/>
     <path d="M 45.40625 46.390625 
L 45.40625 75.984375 
L 54.390625 75.984375 
L 54.390625 0 
L 45.40625 0 
L 45.40625 8.203125 
Q 42.578125 3.328125 38.25 0.953125 
Q 33.9375 -1.421875 27.875 -1.421875 
Q 17.96875 -1.421875 11.734375 6.484375 
Q 5.515625 14.40625 5.515625 27.296875 
Q 5.515625 40.1875 11.734375 48.09375 
Q 17.96875 56 27.875 56 
Q 33.9375 56 38.25 53.625 
Q 42.578125 51.265625 45.40625 46.390625 
z
M 14.796875 27.296875 
Q 14.796875 17.390625 18.875 11.75 
Q 22.953125 6.109375 30.078125 6.109375 
Q 37.203125 6.109375 41.296875 11.75 
Q 45.40625 17.390625 45.40625 27.296875 
Q 45.40625 37.203125 41.296875 42.84375 
Q 37.203125 48.484375 30.078125 48.484375 
Q 22.953125 48.484375 18.875 42.84375 
Q 14.796875 37.203125 14.796875 27.296875 
z
" id="DejaVuSans-100"/>
     <path d="M 41.109375 46.296875 
Q 39.59375 47.171875 37.8125 47.578125 
Q 36.03125 48 33.890625 48 
Q 26.265625 48 22.1875 43.046875 
Q 18.109375 38.09375 18.109375 28.8125 
L 18.109375 0 
L 9.078125 0 
L 9.078125 54.6875 
L 18.109375 54.6875 
L 18.109375 46.1875 
Q 20.953125 51.171875 25.484375 53.578125 
Q 30.03125 56 36.53125 56 
Q 37.453125 56 38.578125 55.875 
Q 39.703125 55.765625 41.0625 55.515625 
z
" id="DejaVuSans-114"/>
     <path d="M 54.890625 33.015625 
L 54.890625 0 
L 45.90625 0 
L 45.90625 32.71875 
Q 45.90625 40.484375 42.875 44.328125 
Q 39.84375 48.1875 33.796875 48.1875 
Q 26.515625 48.1875 22.3125 43.546875 
Q 18.109375 38.921875 18.109375 30.90625 
L 18.109375 0 
L 9.078125 0 
L 9.078125 54.6875 
L 18.109375 54.6875 
L 18.109375 46.1875 
Q 21.34375 51.125 25.703125 53.5625 
Q 30.078125 56 35.796875 56 
Q 45.21875 56 50.046875 50.171875 
Q 54.890625 44.34375 54.890625 33.015625 
z
" id="DejaVuSans-110"/>
     <path d="M 45.40625 27.984375 
Q 45.40625 37.75 41.375 43.109375 
Q 37.359375 48.484375 30.078125 48.484375 
Q 22.859375 48.484375 18.828125 43.109375 
Q 14.796875 37.75 14.796875 27.984375 
Q 14.796875 18.265625 18.828125 12.890625 
Q 22.859375 7.515625 30.078125 7.515625 
Q 37.359375 7.515625 41.375 12.890625 
Q 45.40625 18.265625 45.40625 27.984375 
z
M 54.390625 6.78125 
Q 54.390625 -7.171875 48.1875 -13.984375 
Q 42 -20.796875 29.203125 -20.796875 
Q 24.46875 -20.796875 20.265625 -20.09375 
Q 16.0625 -19.390625 12.109375 -17.921875 
L 12.109375 -9.1875 
Q 16.0625 -11.328125 19.921875 -12.34375 
Q 23.78125 -13.375 27.78125 -13.375 
Q 36.625 -13.375 41.015625 -8.765625 
Q 45.40625 -4.15625 45.40625 5.171875 
L 45.40625 9.625 
Q 42.625 4.78125 38.28125 2.390625 
Q 33.9375 0 27.875 0 
Q 17.828125 0 11.671875 7.65625 
Q 5.515625 15.328125 5.515625 27.984375 
Q 5.515625 40.671875 11.671875 48.328125 
Q 17.828125 56 27.875 56 
Q 33.9375 56 38.28125 53.609375 
Q 42.625 51.21875 45.40625 46.390625 
L 45.40625 54.6875 
L 54.390625 54.6875 
z
" id="DejaVuSans-103"/>
     <path d="M 4.890625 31.390625 
L 31.203125 31.390625 
L 31.203125 23.390625 
L 4.890625 23.390625 
z
" id="DejaVuSans-45"/>
     <path d="M 17.921875 79.984375 
L 31.6875 61.71875 
L 24.21875 61.71875 
L 8.296875 79.984375 
z
" id="DejaVuSans-96"/>
     <path d="M 54.890625 33.015625 
L 54.890625 0 
L 45.90625 0 
L 45.90625 32.71875 
Q 45.90625 40.484375 42.875 44.328125 
Q 39.84375 48.1875 33.796875 48.1875 
Q 26.515625 48.1875 22.3125 43.546875 
Q 18.109375 38.921875 18.109375 30.90625 
L 18.109375 0 
L 9.078125 0 
L 9.078125 75.984375 
L 18.109375 75.984375 
L 18.109375 46.1875 
Q 21.34375 51.125 25.703125 53.5625 
Q 30.078125 56 35.796875 56 
Q 45.21875 56 50.046875 50.171875 
Q 54.890625 44.34375 54.890625 33.015625 
z
" id="DejaVuSans-104"/>
     <path d="M 11.71875 12.40625 
L 22.015625 12.40625 
L 22.015625 4 
L 14.015625 -11.625 
L 7.71875 -11.625 
L 11.71875 4 
z
" id="DejaVuSans-44"/>
     <path d="M 9.8125 72.90625 
L 24.515625 72.90625 
L 43.109375 23.296875 
L 61.8125 72.90625 
L 76.515625 72.90625 
L 76.515625 0 
L 66.890625 0 
L 66.890625 64.015625 
L 48.09375 14.015625 
L 38.1875 14.015625 
L 19.390625 64.015625 
L 19.390625 0 
L 9.8125 0 
z
" id="DejaVuSans-77"/>
     <path d="M 34.1875 63.1875 
L 20.796875 26.90625 
L 47.609375 26.90625 
z
M 28.609375 72.90625 
L 39.796875 72.90625 
L 67.578125 0 
L 57.328125 0 
L 50.6875 18.703125 
L 17.828125 18.703125 
L 11.1875 0 
L 0.78125 0 
z
" id="DejaVuSans-65"/>
     <path d="M 10.59375 45.40625 
L 73.1875 45.40625 
L 73.1875 37.203125 
L 10.59375 37.203125 
z
M 10.59375 25.484375 
L 73.1875 25.484375 
L 73.1875 17.1875 
L 10.59375 17.1875 
z
" id="DejaVuSans-61"/>
    </defs>
    <g transform="translate(161.254687 20.52)scale(0.12 -0.12)">
     <use xlink:href="#DejaVuSans-109"/>
     <use x="97.412109" xlink:href="#DejaVuSans-117"/>
     <use x="160.791016" xlink:href="#DejaVuSans-108"/>
     <use x="188.574219" xlink:href="#DejaVuSans-116"/>
     <use x="227.783203" xlink:href="#DejaVuSans-105"/>
     <use x="255.566406" xlink:href="#DejaVuSans-95"/>
     <use x="305.566406" xlink:href="#DejaVuSans-119"/>
     <use x="387.353516" xlink:href="#DejaVuSans-97"/>
     <use x="448.632812" xlink:href="#DejaVuSans-121"/>
     <use x="507.8125" xlink:href="#DejaVuSans-95"/>
     <use x="557.8125" xlink:href="#DejaVuSans-118"/>
     <use x="616.992188" xlink:href="#DejaVuSans-50"/>
     <use x="680.615234" xlink:href="#DejaVuSans-58"/>
     <use x="714.306641" xlink:href="#DejaVuSans-32"/>
     <use x="746.09375" xlink:href="#DejaVuSans-101"/>
     <use x="807.617188" xlink:href="#DejaVuSans-112"/>
     <use x="871.09375" xlink:href="#DejaVuSans-105"/>
     <use x="898.876953" xlink:href="#DejaVuSans-115"/>
     <use x="950.976562" xlink:href="#DejaVuSans-111"/>
     <use x="1012.158203" xlink:href="#DejaVuSans-100"/>
     <use x="1075.634766" xlink:href="#DejaVuSans-101"/>
     <use x="1137.158203" xlink:href="#DejaVuSans-32"/>
     <use x="1168.945312" xlink:href="#DejaVuSans-100"/>
     <use x="1232.421875" xlink:href="#DejaVuSans-117"/>
     <use x="1295.800781" xlink:href="#DejaVuSans-114"/>
     <use x="1336.914062" xlink:href="#DejaVuSans-97"/>
     <use x="1398.193359" xlink:href="#DejaVuSans-116"/>
     <use x="1437.402344" xlink:href="#DejaVuSans-105"/>
     <use x="1465.185547" xlink:href="#DejaVuSans-111"/>
     <use x="1526.367188" xlink:href="#DejaVuSans-110"/>
     <use x="1589.746094" xlink:href="#DejaVuSans-32"/>
     <use x="1621.533203" xlink:href="#DejaVuSans-105"/>
     <use x="1649.316406" xlink:href="#DejaVuSans-110"/>
     <use x="1712.695312" xlink:href="#DejaVuSans-32"/>
     <use x="1744.482422" xlink:href="#DejaVuSans-115"/>
     <use x="1796.582031" xlink:href="#DejaVuSans-116"/>
     <use x="1835.791016" xlink:href="#DejaVuSans-101"/>
     <use x="1897.314453" xlink:href="#DejaVuSans-112"/>
     <use x="1960.791016" xlink:href="#DejaVuSans-115"/>
     <use x="2012.890625" xlink:href="#DejaVuSans-32"/>
     <use x="2044.677734" xlink:href="#DejaVuSans-108"/>
     <use x="2072.460938" xlink:href="#DejaVuSans-111"/>
     <use x="2133.642578" xlink:href="#DejaVuSans-103"/>
     <use x="2197.119141" xlink:href="#DejaVuSans-45"/>
     <use x="2233.203125" xlink:href="#DejaVuSans-114"/>
     <use x="2274.285156" xlink:href="#DejaVuSans-101"/>
     <use x="2335.808594" xlink:href="#DejaVuSans-108"/>
     <use x="2363.591797" xlink:href="#DejaVuSans-97"/>
     <use x="2424.871094" xlink:href="#DejaVuSans-116"/>
     <use x="2464.080078" xlink:href="#DejaVuSans-105"/>
     <use x="2491.863281" xlink:href="#DejaVuSans-118"/>
     <use x="2551.042969" xlink:href="#DejaVuSans-101"/>
     <use x="2612.566406" xlink:href="#DejaVuSans-32"/>
     <use x="2644.353516" xlink:href="#DejaVuSans-116"/>
     <use x="2683.5625" xlink:href="#DejaVuSans-111"/>
     <use x="2744.744141" xlink:href="#DejaVuSans-32"/>
     <use x="2776.53125" xlink:href="#DejaVuSans-96"/>
     <use x="2826.53125" xlink:href="#DejaVuSans-104"/>
     <use x="2889.910156" xlink:href="#DejaVuSans-116"/>
     <use x="2929.119141" xlink:href="#DejaVuSans-109"/>
     <use x="3026.53125" xlink:href="#DejaVuSans-95"/>
     <use x="3076.53125" xlink:href="#DejaVuSans-48"/>
     <use x="3140.154297" xlink:href="#DejaVuSans-96"/>
     <use x="3190.154297" xlink:href="#DejaVuSans-44"/>
     <use x="3221.941406" xlink:href="#DejaVuSans-32"/>
     <use x="3253.728516" xlink:href="#DejaVuSans-77"/>
     <use x="3340.007812" xlink:href="#DejaVuSans-65"/>
     <use x="3408.416016" xlink:href="#DejaVuSans-61"/>
     <use x="3492.205078" xlink:href="#DejaVuSans-50"/>
     <use x="3555.828125" xlink:href="#DejaVuSans-48"/>
    </g>
   </g>
   <g id="legend_1">
    <g id="patch_7">
     <path d="M 764.559937 254.210625 
L 855.624 254.210625 
Q 857.624 254.210625 857.624 252.210625 
L 857.624 178.429375 
Q 857.624 176.429375 855.624 176.429375 
L 764.559937 176.429375 
Q 762.559937 176.429375 762.559937 178.429375 
L 762.559937 252.210625 
Q 762.559937 254.210625 764.559937 254.210625 
z
" style="fill:#ffffff;opacity:0.8;stroke:#cccccc;stroke-linejoin:miter;"/>
    </g>
    <g id="line2d_19">
     <path d="M 766.559937 184.527812 
L 786.559937 184.527812 
" style="fill:none;stroke:#1f77b4;stroke-linecap:square;stroke-width:1.5;"/>
    </g>
    <g id="line2d_20"/>
    <g id="text_15">
     <!-- htm_0 -->
     <g transform="translate(794.559937 188.027812)scale(0.1 -0.1)">
      <use xlink:href="#DejaVuSans-104"/>
      <use x="63.378906" xlink:href="#DejaVuSans-116"/>
      <use x="102.587891" xlink:href="#DejaVuSans-109"/>
      <use x="200" xlink:href="#DejaVuSans-95"/>
      <use x="250" xlink:href="#DejaVuSans-48"/>
     </g>
    </g>
    <g id="line2d_21">
     <path d="M 766.559937 199.484062 
L 786.559937 199.484062 
" style="fill:none;stroke:#ff7f0e;stroke-linecap:square;stroke-width:1.5;"/>
    </g>
    <g id="line2d_22"/>
    <g id="text_16">
     <!-- dqn_greedy -->
     <defs>
      <path d="M 14.796875 27.296875 
Q 14.796875 17.390625 18.875 11.75 
Q 22.953125 6.109375 30.078125 6.109375 
Q 37.203125 6.109375 41.296875 11.75 
Q 45.40625 17.390625 45.40625 27.296875 
Q 45.40625 37.203125 41.296875 42.84375 
Q 37.203125 48.484375 30.078125 48.484375 
Q 22.953125 48.484375 18.875 42.84375 
Q 14.796875 37.203125 14.796875 27.296875 
z
M 45.40625 8.203125 
Q 42.578125 3.328125 38.25 0.953125 
Q 33.9375 -1.421875 27.875 -1.421875 
Q 17.96875 -1.421875 11.734375 6.484375 
Q 5.515625 14.40625 5.515625 27.296875 
Q 5.515625 40.1875 11.734375 48.09375 
Q 17.96875 56 27.875 56 
Q 33.9375 56 38.25 53.625 
Q 42.578125 51.265625 45.40625 46.390625 
L 45.40625 54.6875 
L 54.390625 54.6875 
L 54.390625 -20.796875 
L 45.40625 -20.796875 
z
" id="DejaVuSans-113"/>
     </defs>
     <g transform="translate(794.559937 202.984062)scale(0.1 -0.1)">
      <use xlink:href="#DejaVuSans-100"/>
      <use x="63.476562" xlink:href="#DejaVuSans-113"/>
      <use x="126.953125" xlink:href="#DejaVuSans-110"/>
      <use x="190.332031" xlink:href="#DejaVuSans-95"/>
      <use x="240.332031" xlink:href="#DejaVuSans-103"/>
      <use x="303.808594" xlink:href="#DejaVuSans-114"/>
      <use x="344.890625" xlink:href="#DejaVuSans-101"/>
      <use x="406.414062" xlink:href="#DejaVuSans-101"/>
      <use x="467.9375" xlink:href="#DejaVuSans-100"/>
      <use x="531.414062" xlink:href="#DejaVuSans-121"/>
     </g>
    </g>
    <g id="line2d_23">
     <path d="M 766.559937 214.440312 
L 786.559937 214.440312 
" style="fill:none;stroke:#2ca02c;stroke-linecap:square;stroke-width:1.5;"/>
    </g>
    <g id="line2d_24"/>
    <g id="text_17">
     <!-- htm_2_1g -->
     <g transform="translate(794.559937 217.940312)scale(0.1 -0.1)">
      <use xlink:href="#DejaVuSans-104"/>
      <use x="63.378906" xlink:href="#DejaVuSans-116"/>
      <use x="102.587891" xlink:href="#DejaVuSans-109"/>
      <use x="200" xlink:href="#DejaVuSans-95"/>
      <use x="250" xlink:href="#DejaVuSans-50"/>
      <use x="313.623047" xlink:href="#DejaVuSans-95"/>
      <use x="363.623047" xlink:href="#DejaVuSans-49"/>
      <use x="427.246094" xlink:href="#DejaVuSans-103"/>
     </g>
    </g>
    <g id="line2d_25">
     <path d="M 766.559937 229.396562 
L 786.559937 229.396562 
" style="fill:none;stroke:#d62728;stroke-linecap:square;stroke-width:1.5;"/>
    </g>
    <g id="line2d_26"/>
    <g id="text_18">
     <!-- htm_4_1g -->
     <g transform="translate(794.559937 232.896562)scale(0.1 -0.1)">
      <use xlink:href="#DejaVuSans-104"/>
      <use x="63.378906" xlink:href="#DejaVuSans-116"/>
      <use x="102.587891" xlink:href="#DejaVuSans-109"/>
      <use x="200" xlink:href="#DejaVuSans-95"/>
      <use x="250" xlink:href="#DejaVuSans-52"/>
      <use x="313.623047" xlink:href="#DejaVuSans-95"/>
      <use x="363.623047" xlink:href="#DejaVuSans-49"/>
      <use x="427.246094" xlink:href="#DejaVuSans-103"/>
     </g>
    </g>
    <g id="line2d_27">
     <path d="M 766.559937 244.352812 
L 786.559937 244.352812 
" style="fill:none;stroke:#9467bd;stroke-linecap:square;stroke-width:1.5;"/>
    </g>
    <g id="line2d_28"/>
    <g id="text_19">
     <!-- htm_8_1g -->
     <defs>
      <path d="M 31.78125 34.625 
Q 24.75 34.625 20.71875 30.859375 
Q 16.703125 27.09375 16.703125 20.515625 
Q 16.703125 13.921875 20.71875 10.15625 
Q 24.75 6.390625 31.78125 6.390625 
Q 38.8125 6.390625 42.859375 10.171875 
Q 46.921875 13.96875 46.921875 20.515625 
Q 46.921875 27.09375 42.890625 30.859375 
Q 38.875 34.625 31.78125 34.625 
z
M 21.921875 38.8125 
Q 15.578125 40.375 12.03125 44.71875 
Q 8.5 49.078125 8.5 55.328125 
Q 8.5 64.0625 14.71875 69.140625 
Q 20.953125 74.21875 31.78125 74.21875 
Q 42.671875 74.21875 48.875 69.140625 
Q 55.078125 64.0625 55.078125 55.328125 
Q 55.078125 49.078125 51.53125 44.71875 
Q 48 40.375 41.703125 38.8125 
Q 48.828125 37.15625 52.796875 32.3125 
Q 56.78125 27.484375 56.78125 20.515625 
Q 56.78125 9.90625 50.3125 4.234375 
Q 43.84375 -1.421875 31.78125 -1.421875 
Q 19.734375 -1.421875 13.25 4.234375 
Q 6.78125 9.90625 6.78125 20.515625 
Q 6.78125 27.484375 10.78125 32.3125 
Q 14.796875 37.15625 21.921875 38.8125 
z
M 18.3125 54.390625 
Q 18.3125 48.734375 21.84375 45.5625 
Q 25.390625 42.390625 31.78125 42.390625 
Q 38.140625 42.390625 41.71875 45.5625 
Q 45.3125 48.734375 45.3125 54.390625 
Q 45.3125 60.0625 41.71875 63.234375 
Q 38.140625 66.40625 31.78125 66.40625 
Q 25.390625 66.40625 21.84375 63.234375 
Q 18.3125 60.0625 18.3125 54.390625 
z
" id="DejaVuSans-56"/>
     </defs>
     <g transform="translate(794.559937 247.852812)scale(0.1 -0.1)">
      <use xlink:href="#DejaVuSans-104"/>
      <use x="63.378906" xlink:href="#DejaVuSans-116"/>
      <use x="102.587891" xlink:href="#DejaVuSans-109"/>
      <use x="200" xlink:href="#DejaVuSans-95"/>
      <use x="250" xlink:href="#DejaVuSans-56"/>
      <use x="313.623047" xlink:href="#DejaVuSans-95"/>
      <use x="363.623047" xlink:href="#DejaVuSans-49"/>
      <use x="427.246094" xlink:href="#DejaVuSans-103"/>
     </g>
    </g>
   </g>
  </g>
 </g>
 <defs>
  <clipPath id="p1bdaa6c60b">
   <rect height="377.6" width="691.72" x="32.56" y="26.52"/>
  </clipPath>
 </defs>
</svg>
