<?xml version="1.0" encoding="utf-8" standalone="no"?>
<!DOCTYPE svg PUBLIC "-//W3C//DTD SVG 1.1//EN"
  "http://www.w3.org/Graphics/SVG/1.1/DTD/svg11.dtd">
<!-- Created with matplotlib (https://matplotlib.org/) -->
<svg height="432pt" version="1.1" viewBox="0 0 864 432" width="864pt" xmlns="http://www.w3.org/2000/svg" xmlns:xlink="http://www.w3.org/1999/xlink">
 <defs>
  <style type="text/css">
*{stroke-linecap:butt;stroke-linejoin:round;}
  </style>
 </defs>
 <g id="figure_1">
  <g id="patch_1">
   <path d="M 0 432 
L 864 432 
L 864 0 
L 0 0 
z
" style="fill:#ffffff;"/>
  </g>
  <g id="axes_1">
   <g id="patch_2">
    <path d="M 36.97 404.12 
L 724.28 404.12 
L 724.28 26.16 
L 36.97 26.16 
z
" style="fill:#ffffff;"/>
   </g>
   <g id="matplotlib.axis_1">
    <g id="xtick_1">
     <g id="line2d_1">
      <defs>
       <path d="M 0 0 
L 0 3.5 
" id="md1bb9e9e3b" style="stroke:#000000;stroke-width:0.8;"/>
      </defs>
      <g>
       <use style="stroke:#000000;stroke-width:0.8;" x="36.97" xlink:href="#md1bb9e9e3b" y="404.12"/>
      </g>
     </g>
     <g id="text_1">
      <!-- 0 -->
      <defs>
       <path d="M 31.78125 66.40625 
Q 24.171875 66.40625 20.328125 58.90625 
Q 16.5 51.421875 16.5 36.375 
Q 16.5 21.390625 20.328125 13.890625 
Q 24.171875 6.390625 31.78125 6.390625 
Q 39.453125 6.390625 43.28125 13.890625 
Q 47.125 21.390625 47.125 36.375 
Q 47.125 51.421875 43.28125 58.90625 
Q 39.453125 66.40625 31.78125 66.40625 
z
M 31.78125 74.21875 
Q 44.046875 74.21875 50.515625 64.515625 
Q 56.984375 54.828125 56.984375 36.375 
Q 56.984375 17.96875 50.515625 8.265625 
Q 44.046875 -1.421875 31.78125 -1.421875 
Q 19.53125 -1.421875 13.0625 8.265625 
Q 6.59375 17.96875 6.59375 36.375 
Q 6.59375 54.828125 13.0625 64.515625 
Q 19.53125 74.21875 31.78125 74.21875 
z
" id="DejaVuSans-48"/>
      </defs>
      <g transform="translate(33.78875 418.718437)scale(0.1 -0.1)">
       <use xlink:href="#DejaVuSans-48"/>
      </g>
     </g>
    </g>
    <g id="xtick_2">
     <g id="line2d_2">
      <g>
       <use style="stroke:#000000;stroke-width:0.8;" x="151.712905" xlink:href="#md1bb9e9e3b" y="404.12"/>
      </g>
     </g>
     <g id="text_2">
      <!-- 100 -->
      <defs>
       <path d="M 12.40625 8.296875 
L 28.515625 8.296875 
L 28.515625 63.921875 
L 10.984375 60.40625 
L 10.984375 69.390625 
L 28.421875 72.90625 
L 38.28125 72.90625 
L 38.28125 8.296875 
L 54.390625 8.296875 
L 54.390625 0 
L 12.40625 0 
z
" id="DejaVuSans-49"/>
      </defs>
      <g transform="translate(142.169155 418.718437)scale(0.1 -0.1)">
       <use xlink:href="#DejaVuSans-49"/>
       <use x="63.623047" xlink:href="#DejaVuSans-48"/>
       <use x="127.246094" xlink:href="#DejaVuSans-48"/>
      </g>
     </g>
    </g>
    <g id="xtick_3">
     <g id="line2d_3">
      <g>
       <use style="stroke:#000000;stroke-width:0.8;" x="266.45581" xlink:href="#md1bb9e9e3b" y="404.12"/>
      </g>
     </g>
     <g id="text_3">
      <!-- 200 -->
      <defs>
       <path d="M 19.1875 8.296875 
L 53.609375 8.296875 
L 53.609375 0 
L 7.328125 0 
L 7.328125 8.296875 
Q 12.9375 14.109375 22.625 23.890625 
Q 32.328125 33.6875 34.8125 36.53125 
Q 39.546875 41.84375 41.421875 45.53125 
Q 43.3125 49.21875 43.3125 52.78125 
Q 43.3125 58.59375 39.234375 62.25 
Q 35.15625 65.921875 28.609375 65.921875 
Q 23.96875 65.921875 18.8125 64.3125 
Q 13.671875 62.703125 7.8125 59.421875 
L 7.8125 69.390625 
Q 13.765625 71.78125 18.9375 73 
Q 24.125 74.21875 28.421875 74.21875 
Q 39.75 74.21875 46.484375 68.546875 
Q 53.21875 62.890625 53.21875 53.421875 
Q 53.21875 48.921875 51.53125 44.890625 
Q 49.859375 40.875 45.40625 35.40625 
Q 44.1875 33.984375 37.640625 27.21875 
Q 31.109375 20.453125 19.1875 8.296875 
z
" id="DejaVuSans-50"/>
      </defs>
      <g transform="translate(256.91206 418.718437)scale(0.1 -0.1)">
       <use xlink:href="#DejaVuSans-50"/>
       <use x="63.623047" xlink:href="#DejaVuSans-48"/>
       <use x="127.246094" xlink:href="#DejaVuSans-48"/>
      </g>
     </g>
    </g>
    <g id="xtick_4">
     <g id="line2d_4">
      <g>
       <use style="stroke:#000000;stroke-width:0.8;" x="381.198715" xlink:href="#md1bb9e9e3b" y="404.12"/>
      </g>
     </g>
     <g id="text_4">
      <!-- 300 -->
      <defs>
       <path d="M 40.578125 39.3125 
Q 47.65625 37.796875 51.625 33 
Q 55.609375 28.21875 55.609375 21.1875 
Q 55.609375 10.40625 48.1875 4.484375 
Q 40.765625 -1.421875 27.09375 -1.421875 
Q 22.515625 -1.421875 17.65625 -0.515625 
Q 12.796875 0.390625 7.625 2.203125 
L 7.625 11.71875 
Q 11.71875 9.328125 16.59375 8.109375 
Q 21.484375 6.890625 26.8125 6.890625 
Q 36.078125 6.890625 40.9375 10.546875 
Q 45.796875 14.203125 45.796875 21.1875 
Q 45.796875 27.640625 41.28125 31.265625 
Q 36.765625 34.90625 28.71875 34.90625 
L 20.21875 34.90625 
L 20.21875 43.015625 
L 29.109375 43.015625 
Q 36.375 43.015625 40.234375 45.921875 
Q 44.09375 48.828125 44.09375 54.296875 
Q 44.09375 59.90625 40.109375 62.90625 
Q 36.140625 65.921875 28.71875 65.921875 
Q 24.65625 65.921875 20.015625 65.03125 
Q 15.375 64.15625 9.8125 62.3125 
L 9.8125 71.09375 
Q 15.4375 72.65625 20.34375 73.4375 
Q 25.25 74.21875 29.59375 74.21875 
Q 40.828125 74.21875 47.359375 69.109375 
Q 53.90625 64.015625 53.90625 55.328125 
Q 53.90625 49.265625 50.4375 45.09375 
Q 46.96875 40.921875 40.578125 39.3125 
z
" id="DejaVuSans-51"/>
      </defs>
      <g transform="translate(371.654965 418.718437)scale(0.1 -0.1)">
       <use xlink:href="#DejaVuSans-51"/>
       <use x="63.623047" xlink:href="#DejaVuSans-48"/>
       <use x="127.246094" xlink:href="#DejaVuSans-48"/>
      </g>
     </g>
    </g>
    <g id="xtick_5">
     <g id="line2d_5">
      <g>
       <use style="stroke:#000000;stroke-width:0.8;" x="495.941619" xlink:href="#md1bb9e9e3b" y="404.12"/>
      </g>
     </g>
     <g id="text_5">
      <!-- 400 -->
      <defs>
       <path d="M 37.796875 64.3125 
L 12.890625 25.390625 
L 37.796875 25.390625 
z
M 35.203125 72.90625 
L 47.609375 72.90625 
L 47.609375 25.390625 
L 58.015625 25.390625 
L 58.015625 17.1875 
L 47.609375 17.1875 
L 47.609375 0 
L 37.796875 0 
L 37.796875 17.1875 
L 4.890625 17.1875 
L 4.890625 26.703125 
z
" id="DejaVuSans-52"/>
      </defs>
      <g transform="translate(486.397869 418.718437)scale(0.1 -0.1)">
       <use xlink:href="#DejaVuSans-52"/>
       <use x="63.623047" xlink:href="#DejaVuSans-48"/>
       <use x="127.246094" xlink:href="#DejaVuSans-48"/>
      </g>
     </g>
    </g>
    <g id="xtick_6">
     <g id="line2d_6">
      <g>
       <use style="stroke:#000000;stroke-width:0.8;" x="610.684524" xlink:href="#md1bb9e9e3b" y="404.12"/>
      </g>
     </g>
     <g id="text_6">
      <!-- 500 -->
      <defs>
       <path d="M 10.796875 72.90625 
L 49.515625 72.90625 
L 49.515625 64.59375 
L 19.828125 64.59375 
L 19.828125 46.734375 
Q 21.96875 47.46875 24.109375 47.828125 
Q 26.265625 48.1875 28.421875 48.1875 
Q 40.625 48.1875 47.75 41.5 
Q 54.890625 34.8125 54.890625 23.390625 
Q 54.890625 11.625 47.5625 5.09375 
Q 40.234375 -1.421875 26.90625 -1.421875 
Q 22.3125 -1.421875 17.546875 -0.640625 
Q 12.796875 0.140625 7.71875 1.703125 
L 7.71875 11.625 
Q 12.109375 9.234375 16.796875 8.0625 
Q 21.484375 6.890625 26.703125 6.890625 
Q 35.15625 6.890625 40.078125 11.328125 
Q 45.015625 15.765625 45.015625 23.390625 
Q 45.015625 31 40.078125 35.4375 
Q 35.15625 39.890625 26.703125 39.890625 
Q 22.75 39.890625 18.8125 39.015625 
Q 14.890625 38.140625 10.796875 36.28125 
z
" id="DejaVuSans-53"/>
      </defs>
      <g transform="translate(601.140774 418.718437)scale(0.1 -0.1)">
       <use xlink:href="#DejaVuSans-53"/>
       <use x="63.623047" xlink:href="#DejaVuSans-48"/>
       <use x="127.246094" xlink:href="#DejaVuSans-48"/>
      </g>
     </g>
    </g>
   </g>
   <g id="matplotlib.axis_2">
    <g id="ytick_1">
     <g id="line2d_7">
      <defs>
       <path d="M 0 0 
L -3.5 0 
" id="maf447b1c06" style="stroke:#000000;stroke-width:0.8;"/>
      </defs>
      <g>
       <use style="stroke:#000000;stroke-width:0.8;" x="36.97" xlink:href="#maf447b1c06" y="388.666633"/>
      </g>
     </g>
     <g id="text_7">
      <!-- 0 -->
      <g transform="translate(23.6075 392.465852)scale(0.1 -0.1)">
       <use xlink:href="#DejaVuSans-48"/>
      </g>
     </g>
    </g>
    <g id="ytick_2">
     <g id="line2d_8">
      <g>
       <use style="stroke:#000000;stroke-width:0.8;" x="36.97" xlink:href="#maf447b1c06" y="345.500804"/>
      </g>
     </g>
     <g id="text_8">
      <!-- 50 -->
      <g transform="translate(17.245 349.300023)scale(0.1 -0.1)">
       <use xlink:href="#DejaVuSans-53"/>
       <use x="63.623047" xlink:href="#DejaVuSans-48"/>
      </g>
     </g>
    </g>
    <g id="ytick_3">
     <g id="line2d_9">
      <g>
       <use style="stroke:#000000;stroke-width:0.8;" x="36.97" xlink:href="#maf447b1c06" y="302.334975"/>
      </g>
     </g>
     <g id="text_9">
      <!-- 100 -->
      <g transform="translate(10.8825 306.134194)scale(0.1 -0.1)">
       <use xlink:href="#DejaVuSans-49"/>
       <use x="63.623047" xlink:href="#DejaVuSans-48"/>
       <use x="127.246094" xlink:href="#DejaVuSans-48"/>
      </g>
     </g>
    </g>
    <g id="ytick_4">
     <g id="line2d_10">
      <g>
       <use style="stroke:#000000;stroke-width:0.8;" x="36.97" xlink:href="#maf447b1c06" y="259.169146"/>
      </g>
     </g>
     <g id="text_10">
      <!-- 150 -->
      <g transform="translate(10.8825 262.968364)scale(0.1 -0.1)">
       <use xlink:href="#DejaVuSans-49"/>
       <use x="63.623047" xlink:href="#DejaVuSans-53"/>
       <use x="127.246094" xlink:href="#DejaVuSans-48"/>
      </g>
     </g>
    </g>
    <g id="ytick_5">
     <g id="line2d_11">
      <g>
       <use style="stroke:#000000;stroke-width:0.8;" x="36.97" xlink:href="#maf447b1c06" y="216.003317"/>
      </g>
     </g>
     <g id="text_11">
      <!-- 200 -->
      <g transform="translate(10.8825 219.802535)scale(0.1 -0.1)">
       <use xlink:href="#DejaVuSans-50"/>
       <use x="63.623047" xlink:href="#DejaVuSans-48"/>
       <use x="127.246094" xlink:href="#DejaVuSans-48"/>
      </g>
     </g>
    </g>
    <g id="ytick_6">
     <g id="line2d_12">
      <g>
       <use style="stroke:#000000;stroke-width:0.8;" x="36.97" xlink:href="#maf447b1c06" y="172.837487"/>
      </g>
     </g>
     <g id="text_12">
      <!-- 250 -->
      <g transform="translate(10.8825 176.636706)scale(0.1 -0.1)">
       <use xlink:href="#DejaVuSans-50"/>
       <use x="63.623047" xlink:href="#DejaVuSans-53"/>
       <use x="127.246094" xlink:href="#DejaVuSans-48"/>
      </g>
     </g>
    </g>
    <g id="ytick_7">
     <g id="line2d_13">
      <g>
       <use style="stroke:#000000;stroke-width:0.8;" x="36.97" xlink:href="#maf447b1c06" y="129.671658"/>
      </g>
     </g>
     <g id="text_13">
      <!-- 300 -->
      <g transform="translate(10.8825 133.470877)scale(0.1 -0.1)">
       <use xlink:href="#DejaVuSans-51"/>
       <use x="63.623047" xlink:href="#DejaVuSans-48"/>
       <use x="127.246094" xlink:href="#DejaVuSans-48"/>
      </g>
     </g>
    </g>
    <g id="ytick_8">
     <g id="line2d_14">
      <g>
       <use style="stroke:#000000;stroke-width:0.8;" x="36.97" xlink:href="#maf447b1c06" y="86.505829"/>
      </g>
     </g>
     <g id="text_14">
      <!-- 350 -->
      <g transform="translate(10.8825 90.305048)scale(0.1 -0.1)">
       <use xlink:href="#DejaVuSans-51"/>
       <use x="63.623047" xlink:href="#DejaVuSans-53"/>
       <use x="127.246094" xlink:href="#DejaVuSans-48"/>
      </g>
     </g>
    </g>
    <g id="ytick_9">
     <g id="line2d_15">
      <g>
       <use style="stroke:#000000;stroke-width:0.8;" x="36.97" xlink:href="#maf447b1c06" y="43.34"/>
      </g>
     </g>
     <g id="text_15">
      <!-- 400 -->
      <g transform="translate(10.8825 47.139219)scale(0.1 -0.1)">
       <use xlink:href="#DejaVuSans-52"/>
       <use x="63.623047" xlink:href="#DejaVuSans-48"/>
       <use x="127.246094" xlink:href="#DejaVuSans-48"/>
      </g>
     </g>
    </g>
   </g>
   <g id="line2d_16">
    <path clip-path="url(#p842317c230)" d="M 58.771152 137.053015 
L 59.918581 137.053015 
L 61.06601 142.362412 
L 62.213439 140.549447 
L 64.508297 157.384121 
L 65.655726 161.355377 
L 67.950584 161.355377 
L 69.098013 159.240251 
L 70.245442 158.506432 
L 71.392871 149.00995 
L 72.540301 150.952412 
L 73.68773 150.952412 
L 74.835159 141.887588 
L 75.982588 153.326533 
L 78.277446 153.326533 
L 79.424875 152.376884 
L 80.572304 152.376884 
L 81.719733 144.089045 
L 82.867162 144.089045 
L 84.014591 138.779648 
L 85.16202 127.427035 
L 86.309449 119.139196 
L 87.456878 118.621206 
L 88.604307 103.47 
L 89.751736 103.47 
L 90.899165 116.894573 
L 92.046594 102.175025 
L 93.194023 111.585176 
L 94.341452 112.318995 
L 95.488881 99.369246 
L 96.636311 103.47 
L 97.78374 101.052714 
L 98.931169 89.613769 
L 101.226027 89.613769 
L 102.373456 79.038141 
L 104.668314 79.038141 
L 105.815743 82.318744 
L 106.963172 82.318744 
L 108.110601 88.146131 
L 109.25803 89.527437 
L 110.405459 81.714422 
L 111.552888 85.728844 
L 112.700317 91.081407 
L 113.847746 81.714422 
L 114.995175 86.117337 
L 116.142604 79.944623 
L 117.290033 94.016683 
L 118.437462 96.520302 
L 119.584891 92.419548 
L 123.027179 92.419548 
L 124.174608 105.239799 
L 125.322037 120.606834 
L 126.469466 128.937839 
L 127.616895 128.937839 
L 128.764324 129.369497 
L 129.911753 131.786784 
L 131.059182 125.959397 
L 132.206611 139.90196 
L 133.35404 151.599899 
L 134.501469 161.398543 
L 135.648898 166.276281 
L 136.796327 177.413065 
L 137.943756 182.938291 
L 139.091185 179.700854 
L 140.238614 168.477739 
L 141.386043 165.974121 
L 142.533472 175.600101 
L 143.680902 188.981508 
L 144.828331 192.780101 
L 145.97576 192.780101 
L 147.123189 184.621759 
L 148.270618 182.377136 
L 149.418047 174.046131 
L 152.860334 214.837839 
L 154.007763 214.837839 
L 155.155192 213.931357 
L 156.302621 215.528492 
L 157.45005 218.377437 
L 158.597479 224.809146 
L 159.744908 226.665276 
L 160.892337 228.132915 
L 162.039766 245.226583 
L 163.187195 245.442412 
L 164.334624 257.874171 
L 165.482053 264.910201 
L 166.629482 267.974975 
L 167.776912 280.061407 
L 168.924341 295.860101 
L 170.07177 305.18392 
L 171.219199 307.730704 
L 172.366628 323.745226 
L 173.514057 314.032915 
L 174.661486 311.874623 
L 175.808915 297.93206 
L 176.956344 311.70196 
L 178.103773 303.716281 
L 179.251202 307.169548 
L 180.398631 301.169497 
L 181.54606 301.083166 
L 182.693489 300.435678 
L 183.840918 303.414121 
L 184.988347 300.00402 
L 186.135776 302.334975 
L 187.283205 293.960804 
L 188.430634 290.766533 
L 189.578063 290.593869 
L 190.725492 291.284523 
L 191.872922 288.219749 
L 194.16778 278.809598 
L 195.315209 271.385075 
L 196.462638 272.852714 
L 197.610067 269.356281 
L 198.757496 282.565025 
L 199.904925 279.41392 
L 201.052354 289.730553 
L 202.199783 289.816884 
L 203.347212 294.737789 
L 204.494641 294.996784 
L 205.64207 291.888844 
L 207.936928 281.744874 
L 209.084357 282.780854 
L 210.231786 294.910452 
L 211.379215 295.946432 
L 212.526644 296.680251 
L 213.674073 295.644271 
L 214.821503 299.140704 
L 217.116361 310.018492 
L 218.26379 301.428492 
L 219.411219 311.831457 
L 220.558648 315.284724 
L 221.706077 310.018492 
L 222.853506 315.932211 
L 224.000935 313.55809 
L 225.148364 313.299095 
L 226.295793 311.356633 
L 227.443222 308.291859 
L 228.590651 299.399698 
L 229.73808 307.083216 
L 230.885509 308.335025 
L 232.032938 306.176734 
L 233.180367 300.737839 
L 234.327796 286.234121 
L 235.475225 285.154975 
L 236.622654 276.82397 
L 237.770083 271.298744 
L 238.917513 272.205226 
L 240.064942 270.478593 
L 241.212371 285.802462 
L 242.3598 284.723317 
L 243.507229 286.795276 
L 244.654658 286.277286 
L 245.802087 281.960704 
L 246.949516 284.075829 
L 248.096945 283.083015 
L 249.244374 274.104523 
L 250.391803 260.334623 
L 251.539232 270.133266 
L 252.686661 270.30593 
L 253.83409 276.349146 
L 254.981519 279.975075 
L 256.128948 280.449899 
L 257.276377 284.593819 
L 258.423806 281.917538 
L 259.571235 290.89603 
L 260.718664 295.169447 
L 261.866093 295.298945 
L 263.013523 297.543568 
L 264.160952 294.262965 
L 265.308381 290.637035 
L 266.45581 273.672864 
L 267.603239 280.924724 
L 268.750668 284.636985 
L 269.898097 275.528995 
L 272.192955 266.118844 
L 273.340384 266.118844 
L 274.487813 251.917286 
L 275.635242 249.758995 
L 276.782671 243.715779 
L 277.9301 241.384824 
L 279.077529 241.514322 
L 280.224958 248.118693 
L 281.372387 251.830955 
L 282.519816 249.845327 
L 283.667245 242.46397 
L 284.814674 243.629447 
L 285.962104 236.550251 
L 287.109533 238.147387 
L 288.256962 240.607839 
L 289.404391 249.931658 
L 290.55182 239.701357 
L 291.699249 238.751709 
L 292.846678 240.564673 
L 293.994107 240.521508 
L 295.141536 257.528844 
L 296.288965 257.528844 
L 297.436394 272.550553 
L 298.583823 262.061256 
L 299.731252 268.708794 
L 300.878681 277.773618 
L 302.02611 280.967889 
L 303.173539 287.011106 
L 304.320968 286.795276 
L 306.615826 292.191005 
L 307.763255 275.226834 
L 308.910684 280.061407 
L 310.058114 266.421005 
L 311.205543 267.154824 
L 312.352972 265.903015 
L 313.500401 259.082814 
L 314.64783 261.19794 
L 315.795259 264.996533 
L 316.942688 270.996583 
L 318.090117 268.924623 
L 319.237546 284.37799 
L 320.384975 281.313216 
L 321.532404 277.039799 
L 322.679833 276.003819 
L 323.827262 260.636784 
L 324.974691 262.665578 
L 326.12212 257.183518 
L 327.269549 253.341759 
L 328.416978 253.039598 
L 329.564407 244.579095 
L 330.711836 256.190704 
L 331.859265 241.557487 
L 333.006694 251.917286 
L 334.154124 251.485628 
L 335.301553 249.154673 
L 336.448982 257.615176 
L 337.596411 240.521508 
L 338.74384 232.406332 
L 339.891269 221.053719 
L 341.038698 215.916985 
L 342.186127 204.909698 
L 343.333556 209.096784 
L 344.480985 221.010553 
L 345.628414 213.283869 
L 346.775843 229.557387 
L 347.923272 220.535729 
L 349.070701 219.413417 
L 350.21813 221.485377 
L 351.365559 204.780201 
L 352.512988 215.355829 
L 353.660417 212.075226 
L 354.807846 224.377487 
L 355.955275 226.751608 
L 357.102705 225.327136 
L 358.250134 223.168844 
L 359.397563 229.427889 
L 361.692421 254.636734 
L 362.83985 264.780704 
L 363.987279 264.823869 
L 365.134708 265.169196 
L 366.282137 261.759095 
L 367.429566 249.845327 
L 368.576995 243.802111 
L 369.724424 239.183367 
L 370.871853 239.485528 
L 372.019282 242.895628 
L 373.166711 228.909899 
L 374.31414 241.600653 
L 375.461569 245.57191 
L 376.608998 238.83804 
L 377.756427 241.168995 
L 378.903856 244.881256 
L 380.051285 247.94603 
L 381.198715 258.823819 
L 382.346144 257.874171 
L 383.493573 261.71593 
L 384.641002 255.197889 
L 385.788431 252.262613 
L 386.93586 256.147538 
L 388.083289 258.133166 
L 389.230718 256.01804 
L 390.378147 269.485779 
L 391.525576 281.313216 
L 392.673005 285.370804 
L 393.820434 281.960704 
L 394.967863 285.284472 
L 396.115292 301.083166 
L 397.262721 299.356533 
L 398.41015 299.658693 
L 399.557579 312.522111 
L 400.705008 311.960955 
L 401.852437 311.615628 
L 402.999866 312.73794 
L 405.294725 285.327638 
L 406.442154 270.133266 
L 407.589583 261.456935 
L 408.737012 260.118794 
L 409.884441 261.672764 
L 411.03187 267.672814 
L 412.179299 257.05402 
L 414.474157 240.521508 
L 415.621586 239.87402 
L 416.769015 241.471156 
L 417.916444 231.499849 
L 419.063873 230.032211 
L 420.211302 232.751658 
L 421.358731 229.643719 
L 422.50616 215.442161 
L 423.653589 203.226231 
L 424.801018 197.355678 
L 425.948447 196.362864 
L 427.095876 205.816181 
L 428.243306 205.816181 
L 430.538164 223.859497 
L 431.685593 212.334221 
L 432.833022 213.715528 
L 433.980451 204.175879 
L 435.12788 220.751558 
L 436.275309 215.442161 
L 437.422738 219.672412 
L 438.570167 217.427789 
L 439.717596 211.384573 
L 440.865025 208.276633 
L 442.012454 209.65794 
L 443.159883 197.355678 
L 444.307312 200.895276 
L 446.60217 231.931508 
L 447.749599 237.068241 
L 448.897028 227.87392 
L 450.044457 217.600452 
L 451.191886 217.600452 
L 452.339316 212.506884 
L 453.486745 216.219146 
L 454.634174 229.039397 
L 455.781603 228.780402 
L 456.929032 241.557487 
L 458.076461 237.543065 
L 459.22389 241.816482 
L 460.371319 236.550251 
L 461.518748 238.190553 
L 462.666177 245.010754 
L 463.813606 241.168995 
L 464.961035 234.953116 
L 466.108464 245.57191 
L 467.255893 243.543116 
L 468.403322 241.859648 
L 469.550751 224.895477 
L 470.69818 219.197588 
L 472.993038 232.794824 
L 474.140467 242.679799 
L 475.287896 248.507186 
L 476.435326 248.334523 
L 477.582755 247.341709 
L 478.730184 247.42804 
L 479.877613 245.226583 
L 481.025042 232.665327 
L 482.172471 228.39191 
L 483.3199 227.140101 
L 484.467329 222.953015 
L 485.614758 223.902663 
L 486.762187 234.823618 
L 487.909616 224.334322 
L 489.057045 228.17608 
L 490.204474 220.363065 
L 491.351903 220.449397 
L 492.499332 235.686935 
L 493.646761 226.017789 
L 494.79419 221.787538 
L 495.941619 231.499849 
L 497.089048 238.32005 
L 498.236477 243.240955 
L 499.383907 238.190553 
L 500.531336 239.35603 
L 501.678765 239.485528 
L 502.826194 233.35598 
L 503.973623 245.615075 
L 505.121052 261.802261 
L 506.268481 267.456985 
L 507.41591 261.888593 
L 508.563339 264.780704 
L 509.710768 269.356281 
L 510.858197 286.406784 
L 512.005626 276.003819 
L 513.153055 284.421156 
L 514.300484 274.795176 
L 515.447913 276.30598 
L 516.595342 276.30598 
L 517.742771 281.399548 
L 518.8902 264.823869 
L 520.037629 264.780704 
L 521.185058 248.377688 
L 522.332487 239.053869 
L 523.479917 242.46397 
L 524.627346 242.895628 
L 525.774775 250.924472 
L 526.922204 246.564724 
L 528.069633 246.435226 
L 529.217062 251.442462 
L 530.364491 263.269899 
L 531.51192 260.723116 
L 532.659349 245.226583 
L 533.806778 237.154573 
L 534.954207 248.852513 
L 536.101636 250.406482 
L 537.249065 249.327337 
L 538.396494 237.240905 
L 539.543923 252.392111 
L 540.691352 238.492714 
L 541.838781 255.154724 
L 542.98621 254.075578 
L 544.133639 270.392261 
L 545.281068 282.090201 
L 546.428497 279.586583 
L 547.575927 275.399497 
L 548.723356 266.421005 
L 549.870785 265.255528 
L 551.018214 265.816683 
L 552.165643 269.140452 
L 553.313072 266.593668 
L 554.460501 273.19804 
L 555.60793 289.86005 
L 556.755359 298.061558 
L 557.902788 295.946432 
L 559.050217 294.996784 
L 560.197646 300.651508 
L 561.345075 309.457337 
L 562.492504 311.011307 
L 563.639933 327.500653 
L 564.787362 326.551005 
L 565.934791 327.889146 
L 567.08222 328.018643 
L 568.229649 327.371156 
L 569.377078 329.140955 
L 570.524508 331.860402 
L 571.671937 340.191407 
L 572.819366 338.637437 
L 573.966795 337.428794 
L 575.114224 336.95397 
L 577.409082 338.464774 
L 578.556511 335.831658 
L 579.70394 331.25608 
L 581.998798 333.198543 
L 583.146227 340.795729 
L 584.293656 344.464824 
L 585.441085 344.162663 
L 586.588514 342.479196 
L 587.735943 331.25608 
L 588.883372 330.95392 
L 590.030801 331.644573 
L 591.17823 320.594121 
L 592.325659 318.047337 
L 593.473088 315.932211 
L 594.620518 315.371055 
L 595.767947 323.745226 
L 596.915376 321.673266 
L 598.062805 312.133618 
L 599.210234 314.378241 
L 600.357663 300.953668 
L 601.505092 303.414121 
L 602.652521 306.651558 
L 603.79995 305.356583 
L 604.947379 305.140754 
L 606.094808 303.414121 
L 607.242237 301.342161 
L 608.389666 297.198241 
L 609.537095 294.306131 
L 610.684524 299.788191 
L 611.831953 296.59392 
L 612.979382 287.572261 
L 614.126811 287.572261 
L 615.27424 284.550653 
L 616.421669 271.082915 
L 617.569098 262.838241 
L 618.716528 249.284171 
L 619.863957 250.276985 
L 621.011386 243.197789 
L 622.158815 226.233618 
L 623.306244 224.161658 
L 625.601102 191.830452 
L 626.748531 177.15407 
L 627.89596 168.175578 
L 629.043389 152.765377 
L 630.190818 149.398442 
L 631.338247 147.714975 
L 632.485676 151.08191 
L 633.633105 147.97397 
L 634.780534 146.592663 
L 635.927963 147.542312 
L 637.075392 161.52804 
L 638.222821 161.182714 
L 639.37025 177.542563 
L 640.517679 171.283518 
L 641.665109 180.952663 
L 642.812538 166.621608 
L 645.107396 166.621608 
L 646.254825 169.729548 
L 648.549683 169.729548 
L 649.697112 176.204422 
L 650.844541 178.405879 
L 651.99197 191.053467 
L 653.139399 186.952714 
L 654.286828 183.758442 
L 655.434257 182.592965 
L 656.581686 190.233317 
L 657.729115 178.19005 
L 658.876544 177.542563 
L 660.023973 163.556834 
L 661.171402 167.657588 
L 662.318831 160.448894 
L 663.46626 167.312261 
L 664.613689 170.938191 
L 665.761119 172.492161 
L 666.908548 177.067739 
L 668.055977 190.40598 
L 669.203406 194.03191 
L 670.350835 203.226231 
L 671.498264 203.226231 
L 672.645693 196.751357 
L 673.793122 199.988794 
L 674.940551 187.341206 
L 677.235409 172.362663 
L 678.382838 171.369849 
L 679.530267 164.290653 
L 680.677696 164.290653 
L 681.825125 155.873317 
L 682.972554 155.873317 
L 684.119983 142.017085 
L 685.267412 146.808492 
L 686.414841 139.945126 
L 687.56227 126.65005 
L 688.709699 125.09608 
L 689.857129 124.448593 
L 691.004558 113.441307 
L 692.151987 106.707437 
L 693.299416 97.513116 
L 694.446845 97.513116 
L 695.594274 112.664322 
L 696.741703 99.239749 
L 697.889132 99.239749 
L 699.036561 114.261457 
L 700.18399 121.340653 
L 701.331419 108.390905 
L 702.478848 100.966382 
L 703.626277 116.20392 
L 704.773706 121.729146 
L 707.068564 121.729146 
L 708.215993 120.391005 
L 709.363422 132.132111 
L 711.65828 132.132111 
L 712.80571 128.20402 
L 713.953139 125.873065 
L 715.100568 125.873065 
L 716.247997 138.779648 
L 717.395426 153.801357 
L 718.542855 138.650151 
L 719.690284 138.650151 
L 720.837713 145.90201 
L 721.985142 131.484623 
L 723.132571 134.549397 
L 724.28 134.376734 
L 724.28 134.376734 
" style="fill:none;stroke:#1f77b4;stroke-linecap:square;stroke-width:1.5;"/>
   </g>
   <g id="line2d_17">
    <path clip-path="url(#p842317c230)" d="M 58.771152 43.34 
L 65.655726 43.34 
L 66.803155 60.261005 
L 67.950584 60.261005 
L 70.245442 94.103015 
L 71.392871 94.103015 
L 77.130017 178.70804 
L 78.277446 178.70804 
L 81.719733 229.471055 
L 82.867162 229.471055 
L 88.604307 314.07608 
L 89.751736 314.07608 
L 90.899165 330.997085 
L 93.194023 330.997085 
L 94.341452 347.91809 
L 100.078598 347.91809 
L 101.226027 364.839095 
L 104.668314 364.839095 
L 105.815743 381.760101 
L 150.565476 381.760101 
L 166.629482 144.86603 
L 167.776912 144.995528 
L 168.924341 128.074523 
L 170.07177 128.20402 
L 172.366628 94.36201 
L 173.514057 94.491508 
L 189.578063 333.630201 
L 190.725492 333.716533 
L 191.872922 350.853367 
L 193.020351 350.939698 
L 195.315209 385.213367 
L 199.904925 385.472362 
L 202.199783 385.558693 
L 204.494641 385.645025 
L 207.936928 385.731357 
L 213.674073 386.076683 
L 265.308381 386.076683 
L 266.45581 368.939849 
L 288.256962 368.939849 
L 289.404391 386.076683 
L 314.64783 386.076683 
L 321.532404 283.255678 
L 337.596411 283.255678 
L 344.480985 386.076683 
L 360.544992 386.076683 
L 361.692421 368.939849 
L 380.051285 368.939849 
L 383.493573 317.529347 
L 384.641002 317.529347 
L 385.788431 300.392513 
L 402.999866 299.745025 
L 408.737012 385.213367 
L 451.191886 385.213367 
L 452.339316 368.119698 
L 474.140467 368.119698 
L 475.287896 385.213367 
L 494.79419 385.213367 
L 503.973623 248.46402 
L 517.742771 249.5 
L 526.922204 386.94 
L 609.537095 386.94 
L 632.485676 43.34 
L 724.28 43.34 
L 724.28 43.34 
" style="fill:none;stroke:#ff7f0e;stroke-linecap:square;stroke-width:1.5;"/>
   </g>
   <g id="line2d_18">
    <path clip-path="url(#p842317c230)" d="M 58.771152 162.736683 
L 59.918581 162.736683 
L 61.06601 170.938191 
L 62.213439 165.110804 
L 63.360868 166.966935 
L 64.508297 166.966935 
L 65.655726 182.765628 
L 66.803155 180.003015 
L 67.950584 188.290854 
L 69.098013 197.787337 
L 70.245442 181.29799 
L 71.392871 193.039095 
L 72.540301 190.362814 
L 73.68773 205.945678 
L 74.835159 194.808894 
L 75.982588 185.959899 
L 77.130017 184.794422 
L 78.277446 184.794422 
L 79.424875 175.427437 
L 80.572304 184.319598 
L 81.719733 187.81603 
L 82.867162 189.197337 
L 84.014591 193.600251 
L 85.16202 186.26206 
L 86.309449 170.204372 
L 87.456878 170.204372 
L 88.604307 164.074824 
L 89.751736 165.887789 
L 90.899165 174.218794 
L 92.046594 164.722312 
L 93.194023 171.024523 
L 94.341452 173.700804 
L 95.488881 181.556985 
L 96.636311 166.923769 
L 97.78374 174.650452 
L 98.931169 190.880804 
L 100.078598 176.63608 
L 101.226027 178.103719 
L 102.373456 186.952714 
L 103.520885 178.060553 
L 104.668314 165.67196 
L 105.815743 177.715226 
L 106.963172 165.110804 
L 108.110601 178.017387 
L 109.25803 182.765628 
L 110.405459 183.240452 
L 111.552888 173.571307 
L 112.700317 160.189899 
L 113.847746 143.571055 
L 114.995175 143.571055 
L 116.142604 137.268844 
L 117.290033 121.556482 
L 118.437462 117.628392 
L 119.584891 119.829849 
L 120.732321 113.139146 
L 121.87975 99.628241 
L 123.027179 99.628241 
L 124.174608 110.290201 
L 125.322037 113.657136 
L 126.469466 124.491759 
L 127.616895 140.247286 
L 128.764324 135.499045 
L 129.911753 149.441608 
L 131.059182 142.707739 
L 132.206611 143.31206 
L 133.35404 158.290603 
L 134.501469 160.189899 
L 135.648898 174.564121 
L 136.796327 190.535477 
L 137.943756 194.636231 
L 139.091185 196.665025 
L 140.238614 210.69392 
L 141.386043 206.765829 
L 142.533472 203.528392 
L 143.680902 202.492412 
L 144.828331 202.362915 
L 145.97576 202.362915 
L 147.123189 193.772915 
L 148.270618 180.305176 
L 149.418047 169.815879 
L 150.565476 168.952563 
L 151.712905 164.938141 
L 152.860334 168.132412 
L 155.155192 190.319648 
L 156.302621 177.628894 
L 157.45005 192.003116 
L 158.597479 194.765729 
L 159.744908 195.154221 
L 160.892337 208.190302 
L 162.039766 222.996181 
L 163.187195 211.686734 
L 166.629482 261.888593 
L 167.776912 276.435477 
L 168.924341 292.881658 
L 170.07177 291.888844 
L 171.219199 304.450101 
L 172.366628 321.068945 
L 173.514057 323.313568 
L 174.661486 334.968342 
L 175.808915 328.407136 
L 176.956344 327.068995 
L 178.103773 327.457487 
L 179.251202 341.831709 
L 180.398631 342.695025 
L 181.54606 342.695025 
L 182.693489 342.392864 
L 183.840918 341.831709 
L 184.988347 342.133869 
L 186.135776 356.551256 
L 187.283205 345.198643 
L 188.430634 345.759799 
L 189.578063 344.896482 
L 190.725492 342.004372 
L 191.872922 333.759698 
L 193.020351 347.745427 
L 194.16778 349.774221 
L 195.315209 346.277789 
L 196.462638 346.277789 
L 197.610067 347.09794 
L 198.757496 352.968492 
L 199.904925 354.306633 
L 201.052354 354.263467 
L 202.199783 350.335377 
L 203.347212 347.529598 
L 204.494641 343.428844 
L 205.64207 344.033166 
L 206.789499 341.054724 
L 209.084357 341.054724 
L 210.231786 335.270503 
L 211.379215 335.227337 
L 212.526644 336.306482 
L 213.674073 336.997136 
L 214.821503 342.177035 
L 215.968932 332.421558 
L 217.116361 315.586884 
L 218.26379 319.25598 
L 219.411219 319.083317 
L 220.558648 318.781156 
L 221.706077 318.608492 
L 222.853506 315.457387 
L 224.000935 315.327889 
L 225.148364 319.25598 
L 226.295793 321.889095 
L 227.443222 325.558191 
L 228.590651 325.860352 
L 229.73808 323.70206 
L 230.885509 309.975327 
L 232.032938 309.975327 
L 233.180367 324.090553 
L 234.327796 323.961055 
L 235.475225 321.932261 
L 236.622654 323.140905 
L 237.770083 326.248844 
L 238.917513 336.306482 
L 240.064942 353.356985 
L 241.212371 352.536834 
L 242.3598 352.709497 
L 243.507229 350.853367 
L 244.654658 350.767035 
L 245.802087 353.918141 
L 246.949516 353.443317 
L 248.096945 353.443317 
L 249.244374 353.227487 
L 250.391803 352.407337 
L 251.539232 352.58 
L 252.686661 356.680754 
L 253.83409 368.983015 
L 254.981519 368.896683 
L 256.128948 370.191658 
L 257.276377 368.896683 
L 258.423806 365.227588 
L 259.571235 366.13407 
L 260.718664 366.436231 
L 261.866093 365.011759 
L 263.013523 360.824673 
L 264.160952 360.263518 
L 265.308381 358.709548 
L 266.45581 343.731005 
L 267.603239 337.817286 
L 268.750668 337.644623 
L 269.898097 335.615829 
L 271.045526 331.126583 
L 272.192955 331.428744 
L 273.340384 332.680553 
L 274.487813 332.680553 
L 275.635242 334.277688 
L 276.782671 320.723618 
L 277.9301 313.25593 
L 279.077529 314.766734 
L 280.224958 313.428593 
L 281.372387 316.795528 
L 282.519816 316.795528 
L 283.667245 315.543719 
L 284.814674 317.140854 
L 285.962104 307.126382 
L 287.109533 308.421357 
L 288.256962 305.18392 
L 289.404391 322.061759 
L 290.55182 328.752462 
L 291.699249 322.36392 
L 292.846678 325.083367 
L 293.994107 328.536633 
L 295.141536 311.960955 
L 297.436394 311.356633 
L 298.583823 309.457337 
L 299.731252 321.155276 
L 300.878681 328.709296 
L 302.02611 327.586985 
L 304.320968 328.838794 
L 305.468397 328.925126 
L 306.615826 328.666131 
L 307.763255 328.795628 
L 308.910684 342.867688 
L 310.058114 339.630251 
L 311.205543 344.205829 
L 312.352972 344.464824 
L 313.500401 343.601508 
L 314.64783 348.43608 
L 315.795259 348.565578 
L 316.942688 349.47206 
L 318.090117 366.13407 
L 319.237546 366.479397 
L 320.384975 365.443417 
L 321.532404 362.464975 
L 322.679833 363.673618 
L 323.827262 363.500955 
L 326.12212 365.529749 
L 327.269549 367.17005 
L 328.416978 366.867889 
L 329.564407 367.515377 
L 330.711836 367.342714 
L 331.859265 363.457789 
L 333.006694 365.141256 
L 334.154124 365.357085 
L 335.301553 365.357085 
L 336.448982 364.536935 
L 337.596411 365.443417 
L 338.74384 365.443417 
L 339.891269 362.508141 
L 341.038698 361.040503 
L 342.186127 360.954171 
L 343.333556 358.018894 
L 344.480985 361.946985 
L 346.775843 361.774322 
L 347.923272 361.558492 
L 349.070701 353.184322 
L 350.21813 353.529648 
L 351.365559 353.313819 
L 352.512988 352.407337 
L 353.660417 352.321005 
L 354.807846 355.558442 
L 355.955275 357.198744 
L 357.102705 353.529648 
L 358.250134 353.529648 
L 359.397563 355.385779 
L 360.544992 356.119598 
L 361.692421 356.119598 
L 362.83985 359.184372 
L 363.987279 350.637538 
L 365.134708 350.551206 
L 366.282137 354.781457 
L 367.429566 350.292211 
L 368.576995 352.148342 
L 370.871853 352.838995 
L 372.019282 361.515327 
L 373.166711 357.975729 
L 374.31414 358.493719 
L 375.461569 359.141206 
L 376.608998 359.400201 
L 377.756427 352.838995 
L 378.903856 351.803015 
L 380.051285 350.162714 
L 381.198715 333.025879 
L 382.346144 328.104975 
L 384.641002 324.73804 
L 385.788431 318.565327 
L 386.93586 319.989799 
L 388.083289 316.536533 
L 389.230718 315.241558 
L 390.378147 320.637286 
L 391.525576 316.66603 
L 392.673005 310.622814 
L 393.820434 310.709146 
L 394.967863 301.04 
L 396.115292 303.759447 
L 397.262721 303.62995 
L 398.41015 287.960754 
L 399.557579 287.917588 
L 400.705008 294.176633 
L 401.852437 285.759296 
L 402.999866 284.550653 
L 404.147295 300.263015 
L 405.294725 301.644322 
L 406.442154 297.629899 
L 407.589583 292.708995 
L 408.737012 297.284573 
L 409.884441 296.119095 
L 411.03187 291.198191 
L 412.179299 292.277337 
L 413.326728 285.41397 
L 414.474157 289.298894 
L 415.621586 294.133467 
L 416.769015 291.845678 
L 417.916444 299.745025 
L 419.063873 295.601106 
L 420.211302 295.687437 
L 421.358731 311.18397 
L 423.653589 307.169548 
L 424.801018 305.097588 
L 425.948447 311.097638 
L 427.095876 299.745025 
L 428.243306 301.126332 
L 430.538164 312.392613 
L 431.685593 307.946533 
L 432.833022 315.500553 
L 433.980451 321.802764 
L 435.12788 318.824322 
L 436.275309 325.25603 
L 437.422738 322.795578 
L 439.717596 325.212864 
L 440.865025 327.759648 
L 442.012454 331.77407 
L 443.159883 329.788442 
L 444.307312 325.428693 
L 445.454741 326.853166 
L 446.60217 329.184121 
L 448.897028 326.507839 
L 450.044457 335.097839 
L 451.191886 336.824472 
L 452.339316 336.824472 
L 453.486745 337.817286 
L 454.634174 343.601508 
L 455.781603 343.342513 
L 456.929032 344.205829 
L 458.076461 346.838945 
L 459.22389 347.054774 
L 460.371319 346.148291 
L 461.518748 341.356884 
L 462.666177 338.939598 
L 463.813606 332.507889 
L 464.961035 332.594221 
L 466.108464 321.84593 
L 467.255893 324.608543 
L 468.403322 319.730804 
L 469.550751 317.615678 
L 470.69818 329.91794 
L 471.845609 331.342412 
L 472.993038 334.925176 
L 474.140467 325.25603 
L 475.287896 325.299196 
L 476.435326 321.932261 
L 477.582755 321.932261 
L 478.730184 321.543769 
L 481.025042 318.996985 
L 482.172471 319.040151 
L 484.467329 321.630101 
L 485.614758 322.36392 
L 486.762187 327.457487 
L 487.909616 316.363869 
L 489.057045 327.802814 
L 490.204474 323.917889 
L 491.351903 325.040201 
L 492.499332 327.932312 
L 493.646761 327.543819 
L 495.941619 328.234472 
L 497.089048 338.378442 
L 498.236477 338.464774 
L 499.383907 341.91804 
L 500.531336 342.220201 
L 502.826194 347.745427 
L 503.973623 349.687889 
L 505.121052 349.946884 
L 506.268481 352.364171 
L 507.41591 355.990101 
L 508.563339 358.795879 
L 509.710768 360.436181 
L 510.858197 372.436281 
L 512.005626 373.817588 
L 513.153055 380.983116 
L 514.300484 385.342864 
L 515.447913 385.515528 
L 516.595342 386.508342 
L 517.742771 386.594673 
L 518.8902 386.94 
L 609.537095 386.94 
L 610.684524 380.93995 
L 611.831953 370.968643 
L 612.979382 353.788643 
L 614.126811 348.65191 
L 616.421669 328.191307 
L 621.011386 259.471307 
L 622.158815 253.816583 
L 623.306244 249.241005 
L 627.89596 180.521005 
L 629.043389 169.168392 
L 630.190818 159.97407 
L 631.338247 156.089146 
L 632.485676 145.470352 
L 633.633105 136.448693 
L 634.780534 137.83 
L 635.927963 147.196985 
L 637.075392 137.355176 
L 638.222821 143.009899 
L 639.37025 138.736482 
L 640.517679 154.535176 
L 641.665109 160.966884 
L 642.812538 160.966884 
L 643.959967 176.420251 
L 645.107396 178.621709 
L 646.254825 172.146834 
L 647.402254 172.146834 
L 648.549683 182.204472 
L 649.697112 195.197387 
L 650.844541 198.046332 
L 651.99197 204.262211 
L 653.139399 212.55005 
L 654.286828 199.254975 
L 655.434257 194.463568 
L 656.581686 208.233467 
L 657.729115 199.643467 
L 658.876544 206.420503 
L 660.023973 204.219045 
L 661.171402 194.290905 
L 662.318831 194.765729 
L 663.46626 178.967035 
L 664.613689 185.053417 
L 665.761119 199.729799 
L 666.908548 200.722613 
L 668.055977 201.024774 
L 669.203406 203.485226 
L 670.350835 218.463769 
L 671.498264 223.600503 
L 672.645693 219.28392 
L 673.793122 232.449497 
L 674.940551 226.751608 
L 676.08798 223.643668 
L 677.235409 223.643668 
L 678.382838 233.614975 
L 679.530267 232.708492 
L 680.677696 245.485578 
L 681.825125 229.73005 
L 682.972554 229.73005 
L 684.119983 228.607739 
L 685.267412 227.183266 
L 686.414841 227.183266 
L 687.56227 214.665176 
L 688.709699 210.391759 
L 689.857129 204.607538 
L 691.004558 199.643467 
L 692.151987 207.629146 
L 693.299416 192.650603 
L 694.446845 191.010302 
L 695.594274 182.33397 
L 696.741703 178.751206 
L 697.889132 172.405829 
L 699.036561 174.348291 
L 700.18399 184.017437 
L 701.331419 179.010201 
L 702.478848 163.988492 
L 703.626277 151.211407 
L 704.773706 150.822915 
L 705.921135 158.031608 
L 707.068564 172.837487 
L 708.215993 171.585678 
L 709.363422 171.585678 
L 710.510851 185.355578 
L 711.65828 174.952613 
L 712.80571 177.499397 
L 713.953139 171.758342 
L 715.100568 155.182663 
L 716.247997 158.204271 
L 717.395426 144.650201 
L 718.542855 144.650201 
L 719.690284 145.211357 
L 720.837713 160.319397 
L 721.985142 156.952462 
L 723.132571 151.643065 
L 724.28 144.909196 
L 724.28 144.909196 
" style="fill:none;stroke:#2ca02c;stroke-linecap:square;stroke-width:1.5;"/>
   </g>
   <g id="line2d_19">
    <path clip-path="url(#p842317c230)" d="M 58.771152 210.089598 
L 59.918581 225.542965 
L 61.06601 236.895578 
L 62.213439 226.147286 
L 63.360868 211.945729 
L 64.508297 210.348593 
L 65.655726 216.521307 
L 66.803155 227.399095 
L 67.950584 233.787638 
L 69.098013 236.507085 
L 70.245442 235.902764 
L 71.392871 236.334422 
L 72.540301 222.650854 
L 73.68773 236.507085 
L 74.835159 235.471106 
L 75.982588 244.104271 
L 77.130017 255.197889 
L 78.277446 259.946131 
L 79.424875 256.924523 
L 80.572304 257.57201 
L 81.719733 259.212312 
L 82.867162 243.758945 
L 84.014591 248.420854 
L 85.16202 260.636784 
L 86.309449 268.924623 
L 87.456878 271.12608 
L 88.604307 267.543317 
L 89.751736 266.291508 
L 90.899165 256.622362 
L 92.046594 240.046683 
L 93.194023 256.967688 
L 94.341452 268.23397 
L 95.488881 283.34201 
L 96.636311 276.090151 
L 97.78374 261.241106 
L 98.931169 261.845427 
L 100.078598 259.64397 
L 101.226027 245.183417 
L 102.373456 244.492764 
L 103.520885 242.161809 
L 104.668314 235.859598 
L 105.815743 247.255377 
L 106.963172 239.744523 
L 108.110601 225.111307 
L 109.25803 221.571709 
L 110.405459 215.14 
L 111.552888 215.226332 
L 112.700317 204.089548 
L 113.847746 212.334221 
L 114.995175 225.28397 
L 116.142604 216.219146 
L 117.290033 200.420452 
L 118.437462 193.51392 
L 119.584891 199.859296 
L 120.732321 207.801809 
L 121.87975 196.276533 
L 123.027179 198.952814 
L 124.174608 215.398995 
L 125.322037 218.895427 
L 126.469466 218.981759 
L 127.616895 210.17593 
L 128.764324 208.880955 
L 129.911753 206.247839 
L 131.059182 220.535729 
L 132.206611 215.787487 
L 133.35404 218.76593 
L 134.501469 210.262261 
L 135.648898 221.010553 
L 136.796327 229.643719 
L 137.943756 223.471005 
L 139.091185 215.614824 
L 140.238614 214.578844 
L 141.386043 206.377337 
L 142.533472 190.880804 
L 143.680902 193.772915 
L 144.828331 208.880955 
L 145.97576 197.269347 
L 147.123189 180.823166 
L 148.270618 178.276382 
L 149.418047 177.801558 
L 150.565476 188.895176 
L 151.712905 195.413216 
L 152.860334 206.679497 
L 154.007763 209.528442 
L 155.155192 226.665276 
L 156.302621 230.593367 
L 157.45005 243.197789 
L 158.597479 249.586332 
L 159.744908 249.845327 
L 160.892337 260.205126 
L 165.482053 328.752462 
L 166.629482 335.054673 
L 167.776912 337.083467 
L 170.07177 371.357136 
L 171.219199 374.637739 
L 172.366628 379.515477 
L 173.514057 385.558693 
L 174.661486 386.076683 
L 265.308381 386.076683 
L 266.45581 371.529799 
L 288.256962 371.529799 
L 289.404391 386.076683 
L 380.051285 386.076683 
L 381.198715 375.630553 
L 402.999866 374.810402 
L 404.147295 385.213367 
L 494.79419 385.213367 
L 495.941619 382.450754 
L 517.742771 384.091055 
L 518.8902 386.94 
L 609.537095 386.94 
L 610.684524 378.393166 
L 611.831953 376.148543 
L 612.979382 373.429095 
L 614.126811 372.997437 
L 615.27424 366.824724 
L 616.421669 366.047739 
L 617.569098 356.551256 
L 618.716528 353.270653 
L 619.863957 342.263367 
L 621.011386 332.551055 
L 622.158815 331.126583 
L 623.306244 330.220101 
L 624.453673 328.795628 
L 625.601102 312.910603 
L 626.748531 310.061658 
L 627.89596 296.507588 
L 629.043389 286.924774 
L 630.190818 280.320402 
L 631.338247 279.025427 
L 632.485676 270.435427 
L 633.633105 277.946281 
L 634.780534 268.104472 
L 635.927963 269.744774 
L 637.075392 262.190754 
L 638.222821 251.183467 
L 639.37025 244.104271 
L 640.517679 241.471156 
L 641.665109 244.147437 
L 642.812538 237.974724 
L 643.959967 241.989146 
L 645.107396 235.643769 
L 646.254825 223.471005 
L 647.402254 214.233518 
L 648.549683 222.262362 
L 649.697112 224.204824 
L 650.844541 236.420754 
L 651.99197 241.384824 
L 653.139399 243.715779 
L 654.286828 237.974724 
L 655.434257 238.967538 
L 656.581686 222.823518 
L 657.729115 231.715678 
L 658.876544 223.859497 
L 660.023973 228.003417 
L 661.171402 238.147387 
L 662.318831 241.125829 
L 663.46626 239.787688 
L 664.613689 237.413568 
L 665.761119 253.12593 
L 666.908548 250.924472 
L 668.055977 257.528844 
L 669.203406 255.154724 
L 670.350835 253.989246 
L 671.498264 259.082814 
L 672.645693 259.687136 
L 673.793122 253.039598 
L 674.940551 257.140352 
L 676.08798 260.464121 
L 677.235409 267.111658 
L 678.382838 265.212362 
L 679.530267 281.140553 
L 680.677696 269.701608 
L 681.825125 276.953467 
L 682.972554 279.500251 
L 684.119983 269.356281 
L 685.267412 270.176432 
L 686.414841 282.996683 
L 688.709699 274.493015 
L 689.857129 278.939095 
L 691.004558 262.924573 
L 692.151987 271.687236 
L 693.299416 281.960704 
L 695.594274 256.53603 
L 696.741703 252.521608 
L 697.889132 240.737337 
L 699.036561 239.485528 
L 700.18399 222.69402 
L 701.331419 217.341457 
L 702.478848 201.413266 
L 703.626277 208.578794 
L 704.773706 198.736985 
L 705.921135 182.85196 
L 707.068564 194.938392 
L 708.215993 190.837638 
L 709.363422 188.420352 
L 710.510851 189.024673 
L 711.65828 177.413065 
L 712.80571 179.614523 
L 713.953139 179.614523 
L 715.100568 183.628945 
L 716.247997 168.002915 
L 717.395426 181.254824 
L 718.542855 191.312462 
L 719.690284 199.211809 
L 720.837713 194.33407 
L 721.985142 185.528241 
L 723.132571 200.938442 
L 724.28 207.542814 
L 724.28 207.542814 
" style="fill:none;stroke:#d62728;stroke-linecap:square;stroke-width:1.5;"/>
   </g>
   <g id="line2d_20">
    <path clip-path="url(#p842317c230)" d="M 58.771152 344.162663 
L 61.06601 378.004673 
L 62.213439 381.760101 
L 150.565476 381.760101 
L 151.712905 373.299598 
L 173.514057 377.400352 
L 174.661486 386.076683 
L 265.308381 386.076683 
L 266.45581 381.328442 
L 288.256962 381.328442 
L 289.404391 386.076683 
L 380.051285 386.076683 
L 381.198715 369.371508 
L 402.999866 368.551357 
L 404.147295 385.213367 
L 494.79419 385.213367 
L 495.941619 380.594623 
L 517.742771 382.234925 
L 518.8902 386.94 
L 609.537095 386.94 
L 611.831953 352.58 
L 612.979382 350.637538 
L 632.485676 346.234623 
L 634.780534 380.076633 
L 635.927963 381.760101 
L 724.28 381.760101 
L 724.28 381.760101 
" style="fill:none;stroke:#9467bd;stroke-linecap:square;stroke-width:1.5;"/>
   </g>
   <g id="patch_3">
    <path d="M 36.97 404.12 
L 36.97 26.16 
" style="fill:none;stroke:#000000;stroke-linecap:square;stroke-linejoin:miter;stroke-width:0.8;"/>
   </g>
   <g id="patch_4">
    <path d="M 724.28 404.12 
L 724.28 26.16 
" style="fill:none;stroke:#000000;stroke-linecap:square;stroke-linejoin:miter;stroke-width:0.8;"/>
   </g>
   <g id="patch_5">
    <path d="M 36.97 404.12 
L 724.28 404.12 
" style="fill:none;stroke:#000000;stroke-linecap:square;stroke-linejoin:miter;stroke-width:0.8;"/>
   </g>
   <g id="patch_6">
    <path d="M 36.97 26.16 
L 724.28 26.16 
" style="fill:none;stroke:#000000;stroke-linecap:square;stroke-linejoin:miter;stroke-width:0.8;"/>
   </g>
   <g id="text_16">
    <!-- multi_way_v2: episode duration, steps, MA=20 -->
    <defs>
     <path d="M 52 44.1875 
Q 55.375 50.25 60.0625 53.125 
Q 64.75 56 71.09375 56 
Q 79.640625 56 84.28125 50.015625 
Q 88.921875 44.046875 88.921875 33.015625 
L 88.921875 0 
L 79.890625 0 
L 79.890625 32.71875 
Q 79.890625 40.578125 77.09375 44.375 
Q 74.3125 48.1875 68.609375 48.1875 
Q 61.625 48.1875 57.5625 43.546875 
Q 53.515625 38.921875 53.515625 30.90625 
L 53.515625 0 
L 44.484375 0 
L 44.484375 32.71875 
Q 44.484375 40.625 41.703125 44.40625 
Q 38.921875 48.1875 33.109375 48.1875 
Q 26.21875 48.1875 22.15625 43.53125 
Q 18.109375 38.875 18.109375 30.90625 
L 18.109375 0 
L 9.078125 0 
L 9.078125 54.6875 
L 18.109375 54.6875 
L 18.109375 46.1875 
Q 21.1875 51.21875 25.484375 53.609375 
Q 29.78125 56 35.6875 56 
Q 41.65625 56 45.828125 52.96875 
Q 50 49.953125 52 44.1875 
z
" id="DejaVuSans-109"/>
     <path d="M 8.5 21.578125 
L 8.5 54.6875 
L 17.484375 54.6875 
L 17.484375 21.921875 
Q 17.484375 14.15625 20.5 10.265625 
Q 23.53125 6.390625 29.59375 6.390625 
Q 36.859375 6.390625 41.078125 11.03125 
Q 45.3125 15.671875 45.3125 23.6875 
L 45.3125 54.6875 
L 54.296875 54.6875 
L 54.296875 0 
L 45.3125 0 
L 45.3125 8.40625 
Q 42.046875 3.421875 37.71875 1 
Q 33.40625 -1.421875 27.6875 -1.421875 
Q 18.265625 -1.421875 13.375 4.4375 
Q 8.5 10.296875 8.5 21.578125 
z
M 31.109375 56 
z
" id="DejaVuSans-117"/>
     <path d="M 9.421875 75.984375 
L 18.40625 75.984375 
L 18.40625 0 
L 9.421875 0 
z
" id="DejaVuSans-108"/>
     <path d="M 18.3125 70.21875 
L 18.3125 54.6875 
L 36.8125 54.6875 
L 36.8125 47.703125 
L 18.3125 47.703125 
L 18.3125 18.015625 
Q 18.3125 11.328125 20.140625 9.421875 
Q 21.96875 7.515625 27.59375 7.515625 
L 36.8125 7.515625 
L 36.8125 0 
L 27.59375 0 
Q 17.1875 0 13.234375 3.875 
Q 9.28125 7.765625 9.28125 18.015625 
L 9.28125 47.703125 
L 2.6875 47.703125 
L 2.6875 54.6875 
L 9.28125 54.6875 
L 9.28125 70.21875 
z
" id="DejaVuSans-116"/>
     <path d="M 9.421875 54.6875 
L 18.40625 54.6875 
L 18.40625 0 
L 9.421875 0 
z
M 9.421875 75.984375 
L 18.40625 75.984375 
L 18.40625 64.59375 
L 9.421875 64.59375 
z
" id="DejaVuSans-105"/>
     <path d="M 50.984375 -16.609375 
L 50.984375 -23.578125 
L -0.984375 -23.578125 
L -0.984375 -16.609375 
z
" id="DejaVuSans-95"/>
     <path d="M 4.203125 54.6875 
L 13.1875 54.6875 
L 24.421875 12.015625 
L 35.59375 54.6875 
L 46.1875 54.6875 
L 57.421875 12.015625 
L 68.609375 54.6875 
L 77.59375 54.6875 
L 63.28125 0 
L 52.6875 0 
L 40.921875 44.828125 
L 29.109375 0 
L 18.5 0 
z
" id="DejaVuSans-119"/>
     <path d="M 34.28125 27.484375 
Q 23.390625 27.484375 19.1875 25 
Q 14.984375 22.515625 14.984375 16.5 
Q 14.984375 11.71875 18.140625 8.90625 
Q 21.296875 6.109375 26.703125 6.109375 
Q 34.1875 6.109375 38.703125 11.40625 
Q 43.21875 16.703125 43.21875 25.484375 
L 43.21875 27.484375 
z
M 52.203125 31.203125 
L 52.203125 0 
L 43.21875 0 
L 43.21875 8.296875 
Q 40.140625 3.328125 35.546875 0.953125 
Q 30.953125 -1.421875 24.3125 -1.421875 
Q 15.921875 -1.421875 10.953125 3.296875 
Q 6 8.015625 6 15.921875 
Q 6 25.140625 12.171875 29.828125 
Q 18.359375 34.515625 30.609375 34.515625 
L 43.21875 34.515625 
L 43.21875 35.40625 
Q 43.21875 41.609375 39.140625 45 
Q 35.0625 48.390625 27.6875 48.390625 
Q 23 48.390625 18.546875 47.265625 
Q 14.109375 46.140625 10.015625 43.890625 
L 10.015625 52.203125 
Q 14.9375 54.109375 19.578125 55.046875 
Q 24.21875 56 28.609375 56 
Q 40.484375 56 46.34375 49.84375 
Q 52.203125 43.703125 52.203125 31.203125 
z
" id="DejaVuSans-97"/>
     <path d="M 32.171875 -5.078125 
Q 28.375 -14.84375 24.75 -17.8125 
Q 21.140625 -20.796875 15.09375 -20.796875 
L 7.90625 -20.796875 
L 7.90625 -13.28125 
L 13.1875 -13.28125 
Q 16.890625 -13.28125 18.9375 -11.515625 
Q 21 -9.765625 23.484375 -3.21875 
L 25.09375 0.875 
L 2.984375 54.6875 
L 12.5 54.6875 
L 29.59375 11.921875 
L 46.6875 54.6875 
L 56.203125 54.6875 
z
" id="DejaVuSans-121"/>
     <path d="M 2.984375 54.6875 
L 12.5 54.6875 
L 29.59375 8.796875 
L 46.6875 54.6875 
L 56.203125 54.6875 
L 35.6875 0 
L 23.484375 0 
z
" id="DejaVuSans-118"/>
     <path d="M 11.71875 12.40625 
L 22.015625 12.40625 
L 22.015625 0 
L 11.71875 0 
z
M 11.71875 51.703125 
L 22.015625 51.703125 
L 22.015625 39.3125 
L 11.71875 39.3125 
z
" id="DejaVuSans-58"/>
     <path id="DejaVuSans-32"/>
     <path d="M 56.203125 29.59375 
L 56.203125 25.203125 
L 14.890625 25.203125 
Q 15.484375 15.921875 20.484375 11.0625 
Q 25.484375 6.203125 34.421875 6.203125 
Q 39.59375 6.203125 44.453125 7.46875 
Q 49.3125 8.734375 54.109375 11.28125 
L 54.109375 2.78125 
Q 49.265625 0.734375 44.1875 -0.34375 
Q 39.109375 -1.421875 33.890625 -1.421875 
Q 20.796875 -1.421875 13.15625 6.1875 
Q 5.515625 13.8125 5.515625 26.8125 
Q 5.515625 40.234375 12.765625 48.109375 
Q 20.015625 56 32.328125 56 
Q 43.359375 56 49.78125 48.890625 
Q 56.203125 41.796875 56.203125 29.59375 
z
M 47.21875 32.234375 
Q 47.125 39.59375 43.09375 43.984375 
Q 39.0625 48.390625 32.421875 48.390625 
Q 24.90625 48.390625 20.390625 44.140625 
Q 15.875 39.890625 15.1875 32.171875 
z
" id="DejaVuSans-101"/>
     <path d="M 18.109375 8.203125 
L 18.109375 -20.796875 
L 9.078125 -20.796875 
L 9.078125 54.6875 
L 18.109375 54.6875 
L 18.109375 46.390625 
Q 20.953125 51.265625 25.265625 53.625 
Q 29.59375 56 35.59375 56 
Q 45.5625 56 51.78125 48.09375 
Q 58.015625 40.1875 58.015625 27.296875 
Q 58.015625 14.40625 51.78125 6.484375 
Q 45.5625 -1.421875 35.59375 -1.421875 
Q 29.59375 -1.421875 25.265625 0.953125 
Q 20.953125 3.328125 18.109375 8.203125 
z
M 48.6875 27.296875 
Q 48.6875 37.203125 44.609375 42.84375 
Q 40.53125 48.484375 33.40625 48.484375 
Q 26.265625 48.484375 22.1875 42.84375 
Q 18.109375 37.203125 18.109375 27.296875 
Q 18.109375 17.390625 22.1875 11.75 
Q 26.265625 6.109375 33.40625 6.109375 
Q 40.53125 6.109375 44.609375 11.75 
Q 48.6875 17.390625 48.6875 27.296875 
z
" id="DejaVuSans-112"/>
     <path d="M 44.28125 53.078125 
L 44.28125 44.578125 
Q 40.484375 46.53125 36.375 47.5 
Q 32.28125 48.484375 27.875 48.484375 
Q 21.1875 48.484375 17.84375 46.4375 
Q 14.5 44.390625 14.5 40.28125 
Q 14.5 37.15625 16.890625 35.375 
Q 19.28125 33.59375 26.515625 31.984375 
L 29.59375 31.296875 
Q 39.15625 29.25 43.1875 25.515625 
Q 47.21875 21.78125 47.21875 15.09375 
Q 47.21875 7.46875 41.1875 3.015625 
Q 35.15625 -1.421875 24.609375 -1.421875 
Q 20.21875 -1.421875 15.453125 -0.5625 
Q 10.6875 0.296875 5.421875 2 
L 5.421875 11.28125 
Q 10.40625 8.6875 15.234375 7.390625 
Q 20.0625 6.109375 24.8125 6.109375 
Q 31.15625 6.109375 34.5625 8.28125 
Q 37.984375 10.453125 37.984375 14.40625 
Q 37.984375 18.0625 35.515625 20.015625 
Q 33.0625 21.96875 24.703125 23.78125 
L 21.578125 24.515625 
Q 13.234375 26.265625 9.515625 29.90625 
Q 5.8125 33.546875 5.8125 39.890625 
Q 5.8125 47.609375 11.28125 51.796875 
Q 16.75 56 26.8125 56 
Q 31.78125 56 36.171875 55.265625 
Q 40.578125 54.546875 44.28125 53.078125 
z
" id="DejaVuSans-115"/>
     <path d="M 30.609375 48.390625 
Q 23.390625 48.390625 19.1875 42.75 
Q 14.984375 37.109375 14.984375 27.296875 
Q 14.984375 17.484375 19.15625 11.84375 
Q 23.34375 6.203125 30.609375 6.203125 
Q 37.796875 6.203125 41.984375 11.859375 
Q 46.1875 17.53125 46.1875 27.296875 
Q 46.1875 37.015625 41.984375 42.703125 
Q 37.796875 48.390625 30.609375 48.390625 
z
M 30.609375 56 
Q 42.328125 56 49.015625 48.375 
Q 55.71875 40.765625 55.71875 27.296875 
Q 55.71875 13.875 49.015625 6.21875 
Q 42.328125 -1.421875 30.609375 -1.421875 
Q 18.84375 -1.421875 12.171875 6.21875 
Q 5.515625 13.875 5.515625 27.296875 
Q 5.515625 40.765625 12.171875 48.375 
Q 18.84375 56 30.609375 56 
z
" id="DejaVuSans-111"/>
     <path d="M 45.40625 46.390625 
L 45.40625 75.984375 
L 54.390625 75.984375 
L 54.390625 0 
L 45.40625 0 
L 45.40625 8.203125 
Q 42.578125 3.328125 38.25 0.953125 
Q 33.9375 -1.421875 27.875 -1.421875 
Q 17.96875 -1.421875 11.734375 6.484375 
Q 5.515625 14.40625 5.515625 27.296875 
Q 5.515625 40.1875 11.734375 48.09375 
Q 17.96875 56 27.875 56 
Q 33.9375 56 38.25 53.625 
Q 42.578125 51.265625 45.40625 46.390625 
z
M 14.796875 27.296875 
Q 14.796875 17.390625 18.875 11.75 
Q 22.953125 6.109375 30.078125 6.109375 
Q 37.203125 6.109375 41.296875 11.75 
Q 45.40625 17.390625 45.40625 27.296875 
Q 45.40625 37.203125 41.296875 42.84375 
Q 37.203125 48.484375 30.078125 48.484375 
Q 22.953125 48.484375 18.875 42.84375 
Q 14.796875 37.203125 14.796875 27.296875 
z
" id="DejaVuSans-100"/>
     <path d="M 41.109375 46.296875 
Q 39.59375 47.171875 37.8125 47.578125 
Q 36.03125 48 33.890625 48 
Q 26.265625 48 22.1875 43.046875 
Q 18.109375 38.09375 18.109375 28.8125 
L 18.109375 0 
L 9.078125 0 
L 9.078125 54.6875 
L 18.109375 54.6875 
L 18.109375 46.1875 
Q 20.953125 51.171875 25.484375 53.578125 
Q 30.03125 56 36.53125 56 
Q 37.453125 56 38.578125 55.875 
Q 39.703125 55.765625 41.0625 55.515625 
z
" id="DejaVuSans-114"/>
     <path d="M 54.890625 33.015625 
L 54.890625 0 
L 45.90625 0 
L 45.90625 32.71875 
Q 45.90625 40.484375 42.875 44.328125 
Q 39.84375 48.1875 33.796875 48.1875 
Q 26.515625 48.1875 22.3125 43.546875 
Q 18.109375 38.921875 18.109375 30.90625 
L 18.109375 0 
L 9.078125 0 
L 9.078125 54.6875 
L 18.109375 54.6875 
L 18.109375 46.1875 
Q 21.34375 51.125 25.703125 53.5625 
Q 30.078125 56 35.796875 56 
Q 45.21875 56 50.046875 50.171875 
Q 54.890625 44.34375 54.890625 33.015625 
z
" id="DejaVuSans-110"/>
     <path d="M 11.71875 12.40625 
L 22.015625 12.40625 
L 22.015625 4 
L 14.015625 -11.625 
L 7.71875 -11.625 
L 11.71875 4 
z
" id="DejaVuSans-44"/>
     <path d="M 9.8125 72.90625 
L 24.515625 72.90625 
L 43.109375 23.296875 
L 61.8125 72.90625 
L 76.515625 72.90625 
L 76.515625 0 
L 66.890625 0 
L 66.890625 64.015625 
L 48.09375 14.015625 
L 38.1875 14.015625 
L 19.390625 64.015625 
L 19.390625 0 
L 9.8125 0 
z
" id="DejaVuSans-77"/>
     <path d="M 34.1875 63.1875 
L 20.796875 26.90625 
L 47.609375 26.90625 
z
M 28.609375 72.90625 
L 39.796875 72.90625 
L 67.578125 0 
L 57.328125 0 
L 50.6875 18.703125 
L 17.828125 18.703125 
L 11.1875 0 
L 0.78125 0 
z
" id="DejaVuSans-65"/>
     <path d="M 10.59375 45.40625 
L 73.1875 45.40625 
L 73.1875 37.203125 
L 10.59375 37.203125 
z
M 10.59375 25.484375 
L 73.1875 25.484375 
L 73.1875 17.1875 
L 10.59375 17.1875 
z
" id="DejaVuSans-61"/>
    </defs>
    <g transform="translate(239.564062 20.16)scale(0.12 -0.12)">
     <use xlink:href="#DejaVuSans-109"/>
     <use x="97.412109" xlink:href="#DejaVuSans-117"/>
     <use x="160.791016" xlink:href="#DejaVuSans-108"/>
     <use x="188.574219" xlink:href="#DejaVuSans-116"/>
     <use x="227.783203" xlink:href="#DejaVuSans-105"/>
     <use x="255.566406" xlink:href="#DejaVuSans-95"/>
     <use x="305.566406" xlink:href="#DejaVuSans-119"/>
     <use x="387.353516" xlink:href="#DejaVuSans-97"/>
     <use x="448.632812" xlink:href="#DejaVuSans-121"/>
     <use x="507.8125" xlink:href="#DejaVuSans-95"/>
     <use x="557.8125" xlink:href="#DejaVuSans-118"/>
     <use x="616.992188" xlink:href="#DejaVuSans-50"/>
     <use x="680.615234" xlink:href="#DejaVuSans-58"/>
     <use x="714.306641" xlink:href="#DejaVuSans-32"/>
     <use x="746.09375" xlink:href="#DejaVuSans-101"/>
     <use x="807.617188" xlink:href="#DejaVuSans-112"/>
     <use x="871.09375" xlink:href="#DejaVuSans-105"/>
     <use x="898.876953" xlink:href="#DejaVuSans-115"/>
     <use x="950.976562" xlink:href="#DejaVuSans-111"/>
     <use x="1012.158203" xlink:href="#DejaVuSans-100"/>
     <use x="1075.634766" xlink:href="#DejaVuSans-101"/>
     <use x="1137.158203" xlink:href="#DejaVuSans-32"/>
     <use x="1168.945312" xlink:href="#DejaVuSans-100"/>
     <use x="1232.421875" xlink:href="#DejaVuSans-117"/>
     <use x="1295.800781" xlink:href="#DejaVuSans-114"/>
     <use x="1336.914062" xlink:href="#DejaVuSans-97"/>
     <use x="1398.193359" xlink:href="#DejaVuSans-116"/>
     <use x="1437.402344" xlink:href="#DejaVuSans-105"/>
     <use x="1465.185547" xlink:href="#DejaVuSans-111"/>
     <use x="1526.367188" xlink:href="#DejaVuSans-110"/>
     <use x="1589.746094" xlink:href="#DejaVuSans-44"/>
     <use x="1621.533203" xlink:href="#DejaVuSans-32"/>
     <use x="1653.320312" xlink:href="#DejaVuSans-115"/>
     <use x="1705.419922" xlink:href="#DejaVuSans-116"/>
     <use x="1744.628906" xlink:href="#DejaVuSans-101"/>
     <use x="1806.152344" xlink:href="#DejaVuSans-112"/>
     <use x="1869.628906" xlink:href="#DejaVuSans-115"/>
     <use x="1921.728516" xlink:href="#DejaVuSans-44"/>
     <use x="1953.515625" xlink:href="#DejaVuSans-32"/>
     <use x="1985.302734" xlink:href="#DejaVuSans-77"/>
     <use x="2071.582031" xlink:href="#DejaVuSans-65"/>
     <use x="2139.990234" xlink:href="#DejaVuSans-61"/>
     <use x="2223.779297" xlink:href="#DejaVuSans-50"/>
     <use x="2287.402344" xlink:href="#DejaVuSans-48"/>
    </g>
   </g>
   <g id="legend_1">
    <g id="patch_7">
     <path d="M 763.677937 254.030625 
L 854.742 254.030625 
Q 856.742 254.030625 856.742 252.030625 
L 856.742 178.249375 
Q 856.742 176.249375 854.742 176.249375 
L 763.677937 176.249375 
Q 761.677937 176.249375 761.677937 178.249375 
L 761.677937 252.030625 
Q 761.677937 254.030625 763.677937 254.030625 
z
" style="fill:#ffffff;opacity:0.8;stroke:#cccccc;stroke-linejoin:miter;"/>
    </g>
    <g id="line2d_21">
     <path d="M 765.677937 184.347812 
L 785.677937 184.347812 
" style="fill:none;stroke:#1f77b4;stroke-linecap:square;stroke-width:1.5;"/>
    </g>
    <g id="line2d_22"/>
    <g id="text_17">
     <!-- htm_0 -->
     <defs>
      <path d="M 54.890625 33.015625 
L 54.890625 0 
L 45.90625 0 
L 45.90625 32.71875 
Q 45.90625 40.484375 42.875 44.328125 
Q 39.84375 48.1875 33.796875 48.1875 
Q 26.515625 48.1875 22.3125 43.546875 
Q 18.109375 38.921875 18.109375 30.90625 
L 18.109375 0 
L 9.078125 0 
L 9.078125 75.984375 
L 18.109375 75.984375 
L 18.109375 46.1875 
Q 21.34375 51.125 25.703125 53.5625 
Q 30.078125 56 35.796875 56 
Q 45.21875 56 50.046875 50.171875 
Q 54.890625 44.34375 54.890625 33.015625 
z
" id="DejaVuSans-104"/>
     </defs>
     <g transform="translate(793.677937 187.847812)scale(0.1 -0.1)">
      <use xlink:href="#DejaVuSans-104"/>
      <use x="63.378906" xlink:href="#DejaVuSans-116"/>
      <use x="102.587891" xlink:href="#DejaVuSans-109"/>
      <use x="200" xlink:href="#DejaVuSans-95"/>
      <use x="250" xlink:href="#DejaVuSans-48"/>
     </g>
    </g>
    <g id="line2d_23">
     <path d="M 765.677937 199.304062 
L 785.677937 199.304062 
" style="fill:none;stroke:#ff7f0e;stroke-linecap:square;stroke-width:1.5;"/>
    </g>
    <g id="line2d_24"/>
    <g id="text_18">
     <!-- dqn_greedy -->
     <defs>
      <path d="M 14.796875 27.296875 
Q 14.796875 17.390625 18.875 11.75 
Q 22.953125 6.109375 30.078125 6.109375 
Q 37.203125 6.109375 41.296875 11.75 
Q 45.40625 17.390625 45.40625 27.296875 
Q 45.40625 37.203125 41.296875 42.84375 
Q 37.203125 48.484375 30.078125 48.484375 
Q 22.953125 48.484375 18.875 42.84375 
Q 14.796875 37.203125 14.796875 27.296875 
z
M 45.40625 8.203125 
Q 42.578125 3.328125 38.25 0.953125 
Q 33.9375 -1.421875 27.875 -1.421875 
Q 17.96875 -1.421875 11.734375 6.484375 
Q 5.515625 14.40625 5.515625 27.296875 
Q 5.515625 40.1875 11.734375 48.09375 
Q 17.96875 56 27.875 56 
Q 33.9375 56 38.25 53.625 
Q 42.578125 51.265625 45.40625 46.390625 
L 45.40625 54.6875 
L 54.390625 54.6875 
L 54.390625 -20.796875 
L 45.40625 -20.796875 
z
" id="DejaVuSans-113"/>
      <path d="M 45.40625 27.984375 
Q 45.40625 37.75 41.375 43.109375 
Q 37.359375 48.484375 30.078125 48.484375 
Q 22.859375 48.484375 18.828125 43.109375 
Q 14.796875 37.75 14.796875 27.984375 
Q 14.796875 18.265625 18.828125 12.890625 
Q 22.859375 7.515625 30.078125 7.515625 
Q 37.359375 7.515625 41.375 12.890625 
Q 45.40625 18.265625 45.40625 27.984375 
z
M 54.390625 6.78125 
Q 54.390625 -7.171875 48.1875 -13.984375 
Q 42 -20.796875 29.203125 -20.796875 
Q 24.46875 -20.796875 20.265625 -20.09375 
Q 16.0625 -19.390625 12.109375 -17.921875 
L 12.109375 -9.1875 
Q 16.0625 -11.328125 19.921875 -12.34375 
Q 23.78125 -13.375 27.78125 -13.375 
Q 36.625 -13.375 41.015625 -8.765625 
Q 45.40625 -4.15625 45.40625 5.171875 
L 45.40625 9.625 
Q 42.625 4.78125 38.28125 2.390625 
Q 33.9375 0 27.875 0 
Q 17.828125 0 11.671875 7.65625 
Q 5.515625 15.328125 5.515625 27.984375 
Q 5.515625 40.671875 11.671875 48.328125 
Q 17.828125 56 27.875 56 
Q 33.9375 56 38.28125 53.609375 
Q 42.625 51.21875 45.40625 46.390625 
L 45.40625 54.6875 
L 54.390625 54.6875 
z
" id="DejaVuSans-103"/>
     </defs>
     <g transform="translate(793.677937 202.804062)scale(0.1 -0.1)">
      <use xlink:href="#DejaVuSans-100"/>
      <use x="63.476562" xlink:href="#DejaVuSans-113"/>
      <use x="126.953125" xlink:href="#DejaVuSans-110"/>
      <use x="190.332031" xlink:href="#DejaVuSans-95"/>
      <use x="240.332031" xlink:href="#DejaVuSans-103"/>
      <use x="303.808594" xlink:href="#DejaVuSans-114"/>
      <use x="344.890625" xlink:href="#DejaVuSans-101"/>
      <use x="406.414062" xlink:href="#DejaVuSans-101"/>
      <use x="467.9375" xlink:href="#DejaVuSans-100"/>
      <use x="531.414062" xlink:href="#DejaVuSans-121"/>
     </g>
    </g>
    <g id="line2d_25">
     <path d="M 765.677937 214.260312 
L 785.677937 214.260312 
" style="fill:none;stroke:#2ca02c;stroke-linecap:square;stroke-width:1.5;"/>
    </g>
    <g id="line2d_26"/>
    <g id="text_19">
     <!-- htm_2_1g -->
     <g transform="translate(793.677937 217.760312)scale(0.1 -0.1)">
      <use xlink:href="#DejaVuSans-104"/>
      <use x="63.378906" xlink:href="#DejaVuSans-116"/>
      <use x="102.587891" xlink:href="#DejaVuSans-109"/>
      <use x="200" xlink:href="#DejaVuSans-95"/>
      <use x="250" xlink:href="#DejaVuSans-50"/>
      <use x="313.623047" xlink:href="#DejaVuSans-95"/>
      <use x="363.623047" xlink:href="#DejaVuSans-49"/>
      <use x="427.246094" xlink:href="#DejaVuSans-103"/>
     </g>
    </g>
    <g id="line2d_27">
     <path d="M 765.677937 229.216562 
L 785.677937 229.216562 
" style="fill:none;stroke:#d62728;stroke-linecap:square;stroke-width:1.5;"/>
    </g>
    <g id="line2d_28"/>
    <g id="text_20">
     <!-- htm_4_1g -->
     <g transform="translate(793.677937 232.716562)scale(0.1 -0.1)">
      <use xlink:href="#DejaVuSans-104"/>
      <use x="63.378906" xlink:href="#DejaVuSans-116"/>
      <use x="102.587891" xlink:href="#DejaVuSans-109"/>
      <use x="200" xlink:href="#DejaVuSans-95"/>
      <use x="250" xlink:href="#DejaVuSans-52"/>
      <use x="313.623047" xlink:href="#DejaVuSans-95"/>
      <use x="363.623047" xlink:href="#DejaVuSans-49"/>
      <use x="427.246094" xlink:href="#DejaVuSans-103"/>
     </g>
    </g>
    <g id="line2d_29">
     <path d="M 765.677937 244.172812 
L 785.677937 244.172812 
" style="fill:none;stroke:#9467bd;stroke-linecap:square;stroke-width:1.5;"/>
    </g>
    <g id="line2d_30"/>
    <g id="text_21">
     <!-- htm_8_1g -->
     <defs>
      <path d="M 31.78125 34.625 
Q 24.75 34.625 20.71875 30.859375 
Q 16.703125 27.09375 16.703125 20.515625 
Q 16.703125 13.921875 20.71875 10.15625 
Q 24.75 6.390625 31.78125 6.390625 
Q 38.8125 6.390625 42.859375 10.171875 
Q 46.921875 13.96875 46.921875 20.515625 
Q 46.921875 27.09375 42.890625 30.859375 
Q 38.875 34.625 31.78125 34.625 
z
M 21.921875 38.8125 
Q 15.578125 40.375 12.03125 44.71875 
Q 8.5 49.078125 8.5 55.328125 
Q 8.5 64.0625 14.71875 69.140625 
Q 20.953125 74.21875 31.78125 74.21875 
Q 42.671875 74.21875 48.875 69.140625 
Q 55.078125 64.0625 55.078125 55.328125 
Q 55.078125 49.078125 51.53125 44.71875 
Q 48 40.375 41.703125 38.8125 
Q 48.828125 37.15625 52.796875 32.3125 
Q 56.78125 27.484375 56.78125 20.515625 
Q 56.78125 9.90625 50.3125 4.234375 
Q 43.84375 -1.421875 31.78125 -1.421875 
Q 19.734375 -1.421875 13.25 4.234375 
Q 6.78125 9.90625 6.78125 20.515625 
Q 6.78125 27.484375 10.78125 32.3125 
Q 14.796875 37.15625 21.921875 38.8125 
z
M 18.3125 54.390625 
Q 18.3125 48.734375 21.84375 45.5625 
Q 25.390625 42.390625 31.78125 42.390625 
Q 38.140625 42.390625 41.71875 45.5625 
Q 45.3125 48.734375 45.3125 54.390625 
Q 45.3125 60.0625 41.71875 63.234375 
Q 38.140625 66.40625 31.78125 66.40625 
Q 25.390625 66.40625 21.84375 63.234375 
Q 18.3125 60.0625 18.3125 54.390625 
z
" id="DejaVuSans-56"/>
     </defs>
     <g transform="translate(793.677937 247.672812)scale(0.1 -0.1)">
      <use xlink:href="#DejaVuSans-104"/>
      <use x="63.378906" xlink:href="#DejaVuSans-116"/>
      <use x="102.587891" xlink:href="#DejaVuSans-109"/>
      <use x="200" xlink:href="#DejaVuSans-95"/>
      <use x="250" xlink:href="#DejaVuSans-56"/>
      <use x="313.623047" xlink:href="#DejaVuSans-95"/>
      <use x="363.623047" xlink:href="#DejaVuSans-49"/>
      <use x="427.246094" xlink:href="#DejaVuSans-103"/>
     </g>
    </g>
   </g>
  </g>
 </g>
 <defs>
  <clipPath id="p842317c230">
   <rect height="377.96" width="687.31" x="36.97" y="26.16"/>
  </clipPath>
 </defs>
</svg>
