<?xml version="1.0" encoding="utf-8" standalone="no"?>
<!DOCTYPE svg PUBLIC "-//W3C//DTD SVG 1.1//EN"
  "http://www.w3.org/Graphics/SVG/1.1/DTD/svg11.dtd">
<!-- Created with matplotlib (https://matplotlib.org/) -->
<svg height="432pt" version="1.1" viewBox="0 0 864 432" width="864pt" xmlns="http://www.w3.org/2000/svg" xmlns:xlink="http://www.w3.org/1999/xlink">
 <defs>
  <style type="text/css">
*{stroke-linecap:butt;stroke-linejoin:round;}
  </style>
 </defs>
 <g id="figure_1">
  <g id="patch_1">
   <path d="M 0 432 
L 864 432 
L 864 0 
L 0 0 
z
" style="fill:#ffffff;"/>
  </g>
  <g id="axes_1">
   <g id="patch_2">
    <path d="M 32.56 404.12 
L 724.28 404.12 
L 724.28 26.16 
L 32.56 26.16 
z
" style="fill:#ffffff;"/>
   </g>
   <g id="matplotlib.axis_1">
    <g id="xtick_1">
     <g id="line2d_1">
      <defs>
       <path d="M 0 0 
L 0 3.5 
" id="m9f690c64d2" style="stroke:#000000;stroke-width:0.8;"/>
      </defs>
      <g>
       <use style="stroke:#000000;stroke-width:0.8;" x="32.56" xlink:href="#m9f690c64d2" y="404.12"/>
      </g>
     </g>
     <g id="text_1">
      <!-- 0 -->
      <defs>
       <path d="M 31.78125 66.40625 
Q 24.171875 66.40625 20.328125 58.90625 
Q 16.5 51.421875 16.5 36.375 
Q 16.5 21.390625 20.328125 13.890625 
Q 24.171875 6.390625 31.78125 6.390625 
Q 39.453125 6.390625 43.28125 13.890625 
Q 47.125 21.390625 47.125 36.375 
Q 47.125 51.421875 43.28125 58.90625 
Q 39.453125 66.40625 31.78125 66.40625 
z
M 31.78125 74.21875 
Q 44.046875 74.21875 50.515625 64.515625 
Q 56.984375 54.828125 56.984375 36.375 
Q 56.984375 17.96875 50.515625 8.265625 
Q 44.046875 -1.421875 31.78125 -1.421875 
Q 19.53125 -1.421875 13.0625 8.265625 
Q 6.59375 17.96875 6.59375 36.375 
Q 6.59375 54.828125 13.0625 64.515625 
Q 19.53125 74.21875 31.78125 74.21875 
z
" id="DejaVuSans-48"/>
      </defs>
      <g transform="translate(29.37875 418.718437)scale(0.1 -0.1)">
       <use xlink:href="#DejaVuSans-48"/>
      </g>
     </g>
    </g>
    <g id="xtick_2">
     <g id="line2d_2">
      <g>
       <use style="stroke:#000000;stroke-width:0.8;" x="148.039132" xlink:href="#m9f690c64d2" y="404.12"/>
      </g>
     </g>
     <g id="text_2">
      <!-- 100 -->
      <defs>
       <path d="M 12.40625 8.296875 
L 28.515625 8.296875 
L 28.515625 63.921875 
L 10.984375 60.40625 
L 10.984375 69.390625 
L 28.421875 72.90625 
L 38.28125 72.90625 
L 38.28125 8.296875 
L 54.390625 8.296875 
L 54.390625 0 
L 12.40625 0 
z
" id="DejaVuSans-49"/>
      </defs>
      <g transform="translate(138.495382 418.718437)scale(0.1 -0.1)">
       <use xlink:href="#DejaVuSans-49"/>
       <use x="63.623047" xlink:href="#DejaVuSans-48"/>
       <use x="127.246094" xlink:href="#DejaVuSans-48"/>
      </g>
     </g>
    </g>
    <g id="xtick_3">
     <g id="line2d_3">
      <g>
       <use style="stroke:#000000;stroke-width:0.8;" x="263.518264" xlink:href="#m9f690c64d2" y="404.12"/>
      </g>
     </g>
     <g id="text_3">
      <!-- 200 -->
      <defs>
       <path d="M 19.1875 8.296875 
L 53.609375 8.296875 
L 53.609375 0 
L 7.328125 0 
L 7.328125 8.296875 
Q 12.9375 14.109375 22.625 23.890625 
Q 32.328125 33.6875 34.8125 36.53125 
Q 39.546875 41.84375 41.421875 45.53125 
Q 43.3125 49.21875 43.3125 52.78125 
Q 43.3125 58.59375 39.234375 62.25 
Q 35.15625 65.921875 28.609375 65.921875 
Q 23.96875 65.921875 18.8125 64.3125 
Q 13.671875 62.703125 7.8125 59.421875 
L 7.8125 69.390625 
Q 13.765625 71.78125 18.9375 73 
Q 24.125 74.21875 28.421875 74.21875 
Q 39.75 74.21875 46.484375 68.546875 
Q 53.21875 62.890625 53.21875 53.421875 
Q 53.21875 48.921875 51.53125 44.890625 
Q 49.859375 40.875 45.40625 35.40625 
Q 44.1875 33.984375 37.640625 27.21875 
Q 31.109375 20.453125 19.1875 8.296875 
z
" id="DejaVuSans-50"/>
      </defs>
      <g transform="translate(253.974514 418.718437)scale(0.1 -0.1)">
       <use xlink:href="#DejaVuSans-50"/>
       <use x="63.623047" xlink:href="#DejaVuSans-48"/>
       <use x="127.246094" xlink:href="#DejaVuSans-48"/>
      </g>
     </g>
    </g>
    <g id="xtick_4">
     <g id="line2d_4">
      <g>
       <use style="stroke:#000000;stroke-width:0.8;" x="378.997396" xlink:href="#m9f690c64d2" y="404.12"/>
      </g>
     </g>
     <g id="text_4">
      <!-- 300 -->
      <defs>
       <path d="M 40.578125 39.3125 
Q 47.65625 37.796875 51.625 33 
Q 55.609375 28.21875 55.609375 21.1875 
Q 55.609375 10.40625 48.1875 4.484375 
Q 40.765625 -1.421875 27.09375 -1.421875 
Q 22.515625 -1.421875 17.65625 -0.515625 
Q 12.796875 0.390625 7.625 2.203125 
L 7.625 11.71875 
Q 11.71875 9.328125 16.59375 8.109375 
Q 21.484375 6.890625 26.8125 6.890625 
Q 36.078125 6.890625 40.9375 10.546875 
Q 45.796875 14.203125 45.796875 21.1875 
Q 45.796875 27.640625 41.28125 31.265625 
Q 36.765625 34.90625 28.71875 34.90625 
L 20.21875 34.90625 
L 20.21875 43.015625 
L 29.109375 43.015625 
Q 36.375 43.015625 40.234375 45.921875 
Q 44.09375 48.828125 44.09375 54.296875 
Q 44.09375 59.90625 40.109375 62.90625 
Q 36.140625 65.921875 28.71875 65.921875 
Q 24.65625 65.921875 20.015625 65.03125 
Q 15.375 64.15625 9.8125 62.3125 
L 9.8125 71.09375 
Q 15.4375 72.65625 20.34375 73.4375 
Q 25.25 74.21875 29.59375 74.21875 
Q 40.828125 74.21875 47.359375 69.109375 
Q 53.90625 64.015625 53.90625 55.328125 
Q 53.90625 49.265625 50.4375 45.09375 
Q 46.96875 40.921875 40.578125 39.3125 
z
" id="DejaVuSans-51"/>
      </defs>
      <g transform="translate(369.453646 418.718437)scale(0.1 -0.1)">
       <use xlink:href="#DejaVuSans-51"/>
       <use x="63.623047" xlink:href="#DejaVuSans-48"/>
       <use x="127.246094" xlink:href="#DejaVuSans-48"/>
      </g>
     </g>
    </g>
    <g id="xtick_5">
     <g id="line2d_5">
      <g>
       <use style="stroke:#000000;stroke-width:0.8;" x="494.476528" xlink:href="#m9f690c64d2" y="404.12"/>
      </g>
     </g>
     <g id="text_5">
      <!-- 400 -->
      <defs>
       <path d="M 37.796875 64.3125 
L 12.890625 25.390625 
L 37.796875 25.390625 
z
M 35.203125 72.90625 
L 47.609375 72.90625 
L 47.609375 25.390625 
L 58.015625 25.390625 
L 58.015625 17.1875 
L 47.609375 17.1875 
L 47.609375 0 
L 37.796875 0 
L 37.796875 17.1875 
L 4.890625 17.1875 
L 4.890625 26.703125 
z
" id="DejaVuSans-52"/>
      </defs>
      <g transform="translate(484.932778 418.718437)scale(0.1 -0.1)">
       <use xlink:href="#DejaVuSans-52"/>
       <use x="63.623047" xlink:href="#DejaVuSans-48"/>
       <use x="127.246094" xlink:href="#DejaVuSans-48"/>
      </g>
     </g>
    </g>
    <g id="xtick_6">
     <g id="line2d_6">
      <g>
       <use style="stroke:#000000;stroke-width:0.8;" x="609.955659" xlink:href="#m9f690c64d2" y="404.12"/>
      </g>
     </g>
     <g id="text_6">
      <!-- 500 -->
      <defs>
       <path d="M 10.796875 72.90625 
L 49.515625 72.90625 
L 49.515625 64.59375 
L 19.828125 64.59375 
L 19.828125 46.734375 
Q 21.96875 47.46875 24.109375 47.828125 
Q 26.265625 48.1875 28.421875 48.1875 
Q 40.625 48.1875 47.75 41.5 
Q 54.890625 34.8125 54.890625 23.390625 
Q 54.890625 11.625 47.5625 5.09375 
Q 40.234375 -1.421875 26.90625 -1.421875 
Q 22.3125 -1.421875 17.546875 -0.640625 
Q 12.796875 0.140625 7.71875 1.703125 
L 7.71875 11.625 
Q 12.109375 9.234375 16.796875 8.0625 
Q 21.484375 6.890625 26.703125 6.890625 
Q 35.15625 6.890625 40.078125 11.328125 
Q 45.015625 15.765625 45.015625 23.390625 
Q 45.015625 31 40.078125 35.4375 
Q 35.15625 39.890625 26.703125 39.890625 
Q 22.75 39.890625 18.8125 39.015625 
Q 14.890625 38.140625 10.796875 36.28125 
z
" id="DejaVuSans-53"/>
      </defs>
      <g transform="translate(600.411909 418.718437)scale(0.1 -0.1)">
       <use xlink:href="#DejaVuSans-53"/>
       <use x="63.623047" xlink:href="#DejaVuSans-48"/>
       <use x="127.246094" xlink:href="#DejaVuSans-48"/>
      </g>
     </g>
    </g>
   </g>
   <g id="matplotlib.axis_2">
    <g id="ytick_1">
     <g id="line2d_7">
      <defs>
       <path d="M 0 0 
L -3.5 0 
" id="m6e3425a0b0" style="stroke:#000000;stroke-width:0.8;"/>
      </defs>
      <g>
       <use style="stroke:#000000;stroke-width:0.8;" x="32.56" xlink:href="#m6e3425a0b0" y="386.94"/>
      </g>
     </g>
     <g id="text_7">
      <!-- −4 -->
      <defs>
       <path d="M 10.59375 35.5 
L 73.1875 35.5 
L 73.1875 27.203125 
L 10.59375 27.203125 
z
" id="DejaVuSans-8722"/>
      </defs>
      <g transform="translate(10.817813 390.739219)scale(0.1 -0.1)">
       <use xlink:href="#DejaVuSans-8722"/>
       <use x="83.789062" xlink:href="#DejaVuSans-52"/>
      </g>
     </g>
    </g>
    <g id="ytick_2">
     <g id="line2d_8">
      <g>
       <use style="stroke:#000000;stroke-width:0.8;" x="32.56" xlink:href="#m6e3425a0b0" y="318.082285"/>
      </g>
     </g>
     <g id="text_8">
      <!-- −3 -->
      <g transform="translate(10.817813 321.881503)scale(0.1 -0.1)">
       <use xlink:href="#DejaVuSans-8722"/>
       <use x="83.789062" xlink:href="#DejaVuSans-51"/>
      </g>
     </g>
    </g>
    <g id="ytick_3">
     <g id="line2d_9">
      <g>
       <use style="stroke:#000000;stroke-width:0.8;" x="32.56" xlink:href="#m6e3425a0b0" y="249.224569"/>
      </g>
     </g>
     <g id="text_9">
      <!-- −2 -->
      <g transform="translate(10.817813 253.023788)scale(0.1 -0.1)">
       <use xlink:href="#DejaVuSans-8722"/>
       <use x="83.789062" xlink:href="#DejaVuSans-50"/>
      </g>
     </g>
    </g>
    <g id="ytick_4">
     <g id="line2d_10">
      <g>
       <use style="stroke:#000000;stroke-width:0.8;" x="32.56" xlink:href="#m6e3425a0b0" y="180.366854"/>
      </g>
     </g>
     <g id="text_10">
      <!-- −1 -->
      <g transform="translate(10.817813 184.166072)scale(0.1 -0.1)">
       <use xlink:href="#DejaVuSans-8722"/>
       <use x="83.789062" xlink:href="#DejaVuSans-49"/>
      </g>
     </g>
    </g>
    <g id="ytick_5">
     <g id="line2d_11">
      <g>
       <use style="stroke:#000000;stroke-width:0.8;" x="32.56" xlink:href="#m6e3425a0b0" y="111.509138"/>
      </g>
     </g>
     <g id="text_11">
      <!-- 0 -->
      <g transform="translate(19.1975 115.308357)scale(0.1 -0.1)">
       <use xlink:href="#DejaVuSans-48"/>
      </g>
     </g>
    </g>
    <g id="ytick_6">
     <g id="line2d_12">
      <g>
       <use style="stroke:#000000;stroke-width:0.8;" x="32.56" xlink:href="#m6e3425a0b0" y="42.651423"/>
      </g>
     </g>
     <g id="text_12">
      <!-- 1 -->
      <g transform="translate(19.1975 46.450642)scale(0.1 -0.1)">
       <use xlink:href="#DejaVuSans-49"/>
      </g>
     </g>
    </g>
   </g>
   <g id="line2d_13">
    <path clip-path="url(#pbf44687ca6)" d="M 54.501035 280.899118 
L 55.655826 280.899118 
L 56.810618 273.187054 
L 57.965409 274.633066 
L 60.274992 254.251182 
L 61.429783 251.083727 
L 63.739366 251.083727 
L 64.894157 252.770741 
L 66.048948 256.833347 
L 67.20374 267.88501 
L 68.358531 266.335711 
L 69.513322 266.335711 
L 70.668114 273.565772 
L 71.822905 260.96481 
L 74.132487 260.96481 
L 75.287279 261.722244 
L 76.44207 261.722244 
L 77.596861 271.8099 
L 78.751653 271.8099 
L 79.906444 279.521964 
L 81.061235 292.054068 
L 82.216027 302.141723 
L 83.370818 302.55487 
L 84.525609 318.116713 
L 85.680401 318.116713 
L 86.835192 303.932024 
L 87.989983 319.149579 
L 89.144775 308.166774 
L 90.299566 304.104168 
L 91.454357 317.91014 
L 92.609149 311.162084 
L 93.76394 316.567415 
L 94.918731 329.168377 
L 97.228314 329.168377 
L 98.383105 341.080762 
L 100.692688 341.080762 
L 101.847479 334.986854 
L 103.00227 334.986854 
L 104.157062 326.861643 
L 105.311853 322.282605 
L 106.466644 328.514228 
L 107.621436 321.83503 
L 108.776227 314.088537 
L 109.931018 321.559599 
L 111.08581 314.570541 
L 112.240601 319.493868 
L 113.395392 308.27006 
L 114.550184 302.795872 
L 115.704975 309.543928 
L 119.169349 309.543928 
L 120.32414 295.841242 
L 121.478932 280.107255 
L 122.633723 269.98517 
L 123.788514 269.98517 
L 124.943306 269.640882 
L 126.098097 264.235551 
L 127.252888 272.360762 
L 128.407679 261.24024 
L 129.562471 251.91002 
L 130.717262 244.094669 
L 131.872053 240.204208 
L 133.026845 231.321563 
L 134.181636 226.914669 
L 135.336427 232.974148 
L 136.491219 241.925651 
L 137.64601 247.39984 
L 138.800801 236.24489 
L 139.955593 222.094629 
L 141.110384 215.587575 
L 142.265175 215.587575 
L 143.419967 222.094629 
L 144.574758 223.88493 
L 145.729549 234.007014 
L 146.884341 219.753467 
L 149.193923 197.994429 
L 150.348715 197.994429 
L 151.503506 198.717435 
L 152.658297 197.443567 
L 153.813088 195.171263 
L 154.96788 190.041363 
L 156.122671 188.560922 
L 157.277462 187.390341 
L 158.432254 170.279198 
L 159.587045 170.107054 
L 160.741836 156.714228 
L 161.896628 151.102325 
L 163.051419 148.657876 
L 164.20621 139.017796 
L 165.361002 122.939519 
L 166.515793 115.502886 
L 167.670584 113.471583 
L 168.825376 97.221162 
L 169.980167 104.967655 
L 171.134958 106.689098 
L 172.28975 117.809619 
L 173.444541 103.349499 
L 174.599332 109.718838 
L 175.754124 106.964529 
L 176.908915 111.75014 
L 178.063706 111.818998 
L 179.218497 112.335431 
L 180.373289 109.95984 
L 181.52808 112.679719 
L 182.682871 110.820561 
L 183.837663 117.49976 
L 184.992454 120.047495 
L 186.147245 120.18521 
L 187.302037 119.634349 
L 188.456828 122.078798 
L 190.766411 129.584289 
L 191.921202 135.506052 
L 193.075993 134.335471 
L 194.230785 137.124208 
L 195.385576 126.588978 
L 196.540367 129.102285 
L 197.695159 120.873788 
L 198.84995 120.80493 
L 200.004741 116.88004 
L 201.159533 116.673467 
L 202.314324 119.152345 
L 204.623907 127.243126 
L 205.778698 126.416834 
L 206.933489 116.742325 
L 208.08828 115.916032 
L 209.243072 115.330741 
L 210.397863 116.157034 
L 211.552654 113.368297 
L 213.862237 104.692224 
L 215.017028 115.020882 
L 216.17182 106.723527 
L 217.326611 103.969218 
L 218.481402 108.169539 
L 219.636194 103.452786 
L 220.790985 105.346373 
L 221.945776 105.552946 
L 223.100568 107.102244 
L 224.255359 109.546693 
L 225.41015 116.639038 
L 226.564942 110.510701 
L 227.719733 109.512265 
L 228.874524 111.233707 
L 230.029316 115.571743 
L 231.184107 130.617154 
L 232.338898 131.477876 
L 233.493689 138.122645 
L 234.648481 142.529539 
L 235.803272 141.806533 
L 236.958063 143.183687 
L 238.112855 127.484128 
L 239.267646 128.34485 
L 240.422437 126.692265 
L 241.577229 127.105411 
L 242.73202 130.548297 
L 243.886811 128.861283 
L 245.041603 129.653146 
L 246.196394 136.814349 
L 247.351185 151.274469 
L 248.505977 143.459118 
L 249.660768 143.321403 
L 250.815559 138.501363 
L 251.970351 135.609339 
L 253.125142 135.230621 
L 254.279933 128.448136 
L 255.434725 130.582725 
L 256.589516 123.421523 
L 257.744307 120.013066 
L 258.899098 119.90978 
L 260.05389 118.119479 
L 261.208681 120.736072 
L 262.363472 123.628096 
L 263.518264 140.635952 
L 264.673055 134.851904 
L 265.827846 131.891022 
L 266.982638 139.155511 
L 268.137429 142.942685 
L 269.29222 150.138317 
L 270.447012 150.138317 
L 271.601803 164.942725 
L 272.756594 166.664168 
L 273.911386 171.484208 
L 275.066177 173.343367 
L 276.220968 173.24008 
L 277.37576 167.972465 
L 278.530551 165.011583 
L 279.685342 166.595311 
L 280.840134 172.482645 
L 281.994925 171.553066 
L 283.149716 177.199399 
L 284.304508 175.925531 
L 285.459299 173.963086 
L 286.61409 163.049138 
L 287.768881 171.208778 
L 288.923673 171.966212 
L 290.078464 170.5202 
L 291.233255 170.554629 
L 292.388047 153.512345 
L 293.542838 153.512345 
L 294.697629 138.053788 
L 295.852421 146.42 
L 297.007212 141.117956 
L 298.162003 133.887896 
L 299.316795 131.34016 
L 300.471586 126.52012 
L 301.626377 126.692265 
L 303.93596 122.388657 
L 305.090751 139.396513 
L 306.245543 135.540481 
L 307.400334 149.897315 
L 308.555125 149.312024 
L 309.709917 150.310461 
L 310.864708 159.227535 
L 312.019499 157.540521 
L 313.17429 154.510782 
L 314.329082 149.72517 
L 315.483873 151.377756 
L 316.638664 135.57491 
L 317.793456 138.019359 
L 318.948247 144.90513 
L 320.103038 145.731423 
L 321.25783 161.465411 
L 322.412621 159.847255 
L 323.567412 164.219719 
L 324.722204 167.283888 
L 325.876995 167.52489 
L 327.031786 174.272946 
L 328.186578 161.534269 
L 329.341369 176.682966 
L 330.49616 164.942725 
L 331.650952 165.287014 
L 332.805743 167.146172 
L 333.960534 156.920802 
L 335.115326 174.031944 
L 336.270117 180.504569 
L 337.424908 189.559359 
L 338.579699 193.656393 
L 339.734491 202.435752 
L 340.889282 199.096152 
L 342.044073 186.116473 
L 343.198865 192.279238 
L 344.353656 175.822244 
L 345.508447 183.017876 
L 346.663239 183.913026 
L 347.81803 182.260441 
L 348.972821 199.061723 
L 350.127613 190.626653 
L 351.282404 193.243246 
L 352.437195 179.953707 
L 353.591987 178.06012 
L 354.746778 179.196273 
L 355.901569 180.917715 
L 357.056361 175.925531 
L 358.211152 161.947415 
L 359.365943 152.341764 
L 360.520735 144.250982 
L 361.675526 144.216553 
L 362.830317 143.941122 
L 363.985109 146.661002 
L 365.1399 159.640681 
L 366.294691 164.460721 
L 367.449482 168.144609 
L 368.604274 167.903607 
L 369.759065 165.183727 
L 370.913856 176.338677 
L 372.068648 162.739279 
L 373.223439 159.571824 
L 374.37823 164.942725 
L 375.533022 163.083567 
L 376.687813 160.122685 
L 377.842604 157.678236 
L 378.997396 149.002164 
L 380.152187 149.759599 
L 381.306978 146.695431 
L 382.46177 151.894188 
L 383.616561 154.235351 
L 384.771352 151.136754 
L 385.926144 149.553026 
L 387.080935 151.24004 
L 388.235726 137.020922 
L 389.390518 127.587415 
L 390.545309 124.351102 
L 391.7001 127.070982 
L 392.854891 124.41996 
L 394.009683 111.818998 
L 395.164474 113.196152 
L 396.319265 112.95515 
L 397.474057 102.695351 
L 398.628848 103.142926 
L 399.783639 103.418357 
L 400.938431 102.523206 
L 402.093222 113.402725 
L 403.248013 127.862846 
L 404.402805 139.981804 
L 405.557596 146.902004 
L 406.712387 147.969299 
L 407.867179 146.72986 
L 409.02197 141.944248 
L 410.176761 153.891062 
L 412.486344 167.077315 
L 413.641135 167.593747 
L 414.795927 166.31988 
L 415.950718 174.272946 
L 417.105509 175.443527 
L 418.260301 173.274509 
L 419.415092 175.753387 
L 420.569883 187.080481 
L 421.724674 196.823848 
L 422.879466 201.506172 
L 424.034257 202.298036 
L 425.189048 194.758116 
L 426.34384 194.758116 
L 428.653422 180.366854 
L 429.808214 193.036673 
L 430.963005 191.93495 
L 432.117796 199.543727 
L 433.272588 182.845731 
L 434.427379 190.557796 
L 435.58217 187.183768 
L 436.736962 188.974068 
L 437.891753 197.271423 
L 439.046544 199.750301 
L 440.201336 198.648577 
L 441.356127 208.460802 
L 442.510918 205.637635 
L 444.820501 180.883287 
L 445.975292 176.786253 
L 447.130083 184.119599 
L 448.284875 195.790982 
L 449.439666 195.790982 
L 450.594457 199.853587 
L 451.749249 196.892705 
L 452.90404 183.19002 
L 454.058831 183.396593 
L 455.213623 173.205651 
L 456.368414 176.407535 
L 457.523205 169.521764 
L 458.677997 173.722084 
L 459.832788 172.413788 
L 460.987579 163.496713 
L 462.142371 170.038196 
L 463.297162 174.995952 
L 464.451953 166.526453 
L 465.606745 168.144609 
L 466.761536 169.487335 
L 467.916327 186.49519 
L 469.071119 191.0398 
L 470.22591 185.668898 
L 471.380701 176.717395 
L 472.535492 165.355872 
L 473.690284 160.707976 
L 474.845075 160.845691 
L 475.999866 161.637555 
L 477.154658 161.568697 
L 478.309449 163.324569 
L 479.46424 173.343367 
L 480.619032 180.229138 
L 481.773823 181.227575 
L 482.928614 184.567174 
L 484.083406 183.809739 
L 485.238197 171.621924 
L 486.392988 183.465451 
L 487.54778 180.401283 
L 488.702571 186.632906 
L 489.857362 186.564048 
L 491.012154 170.933347 
L 492.166945 182.122725 
L 493.321736 185.496754 
L 494.476528 177.750261 
L 495.631319 172.310501 
L 496.78611 168.385611 
L 497.940902 172.413788 
L 499.095693 171.484208 
L 500.250484 171.380922 
L 501.405275 176.26982 
L 502.560067 166.492024 
L 503.714858 150.103888 
L 504.869649 145.593707 
L 506.024441 150.03503 
L 507.179232 147.728297 
L 508.334023 144.078838 
L 509.488815 127.002124 
L 510.643606 135.299479 
L 511.798397 128.585852 
L 512.953189 136.263487 
L 514.10798 135.058477 
L 515.262771 135.058477 
L 516.417563 130.995872 
L 517.572354 147.693868 
L 518.727145 147.728297 
L 519.881937 164.288577 
L 521.036728 175.202525 
L 522.191519 172.482645 
L 523.346311 172.138357 
L 524.501102 165.734589 
L 525.655893 169.211904 
L 526.810684 169.31519 
L 527.965476 165.321443 
L 529.120267 155.887936 
L 530.275058 157.919238 
L 531.42985 173.756513 
L 532.584641 180.194709 
L 533.739432 170.864489 
L 534.894224 169.62505 
L 536.049015 170.485772 
L 537.203806 180.125852 
L 538.358598 164.564008 
L 539.513389 179.127415 
L 540.66818 162.360561 
L 541.822972 163.221283 
L 542.977763 146.72986 
L 544.132554 133.922325 
L 545.287346 135.919198 
L 546.442137 139.258798 
L 547.596928 146.42 
L 548.75172 147.349579 
L 549.906511 146.902004 
L 551.061302 144.250982 
L 552.216093 146.282285 
L 553.370885 141.014669 
L 554.525676 124.247816 
L 555.680467 117.706333 
L 556.835259 119.393347 
L 557.99005 120.150782 
L 559.144841 115.640601 
L 560.299633 108.617114 
L 561.454424 107.377675 
L 562.609215 90.748537 
L 563.764007 91.505972 
L 564.918798 90.438677 
L 566.073589 90.335391 
L 567.228381 90.851824 
L 568.383172 89.44024 
L 569.537963 87.271222 
L 570.692755 80.626453 
L 571.847546 81.865892 
L 573.002337 82.8299 
L 574.157129 83.208617 
L 576.466711 82.003607 
L 577.621503 84.103768 
L 578.776294 87.753226 
L 581.085876 86.203928 
L 582.240668 80.144449 
L 583.395459 77.217996 
L 584.55025 77.458998 
L 585.705042 78.801723 
L 586.859833 87.753226 
L 588.014624 87.994228 
L 589.169416 87.443367 
L 590.324207 99.734469 
L 591.478998 101.765772 
L 592.63379 103.452786 
L 593.788581 103.900361 
L 594.943372 97.221162 
L 596.098164 98.873747 
L 597.252955 106.482525 
L 598.407746 104.692224 
L 599.562538 115.399599 
L 600.717329 113.437154 
L 601.87212 110.85499 
L 603.026912 111.887856 
L 604.181703 112.06 
L 605.336494 113.437154 
L 606.491285 115.089739 
L 607.646077 118.39491 
L 608.800868 120.701643 
L 609.955659 116.329178 
L 611.110451 118.876914 
L 612.265242 126.072545 
L 613.420033 126.072545 
L 614.574825 128.482565 
L 615.729616 142.701683 
L 616.884407 149.277595 
L 618.039199 163.565571 
L 619.19399 162.773707 
L 620.348781 171.897355 
L 621.503573 188.90521 
L 622.658364 194.03511 
L 624.967947 226.776954 
L 626.122738 241.96008 
L 627.277529 249.121283 
L 628.432321 264.889699 
L 629.587112 267.57515 
L 630.741903 268.917876 
L 631.896694 266.232425 
L 633.051486 268.711303 
L 634.206277 269.813026 
L 635.361068 269.055591 
L 636.51586 254.423327 
L 637.670651 254.698758 
L 638.825442 238.172906 
L 639.980234 246.642405 
L 641.135025 235.453026 
L 642.289816 250.360721 
L 644.599399 250.360721 
L 645.75419 244.404529 
L 648.063773 244.404529 
L 649.218564 235.762886 
L 650.373356 234.007014 
L 651.528147 220.442044 
L 652.682938 223.712786 
L 653.83773 226.260521 
L 654.992521 227.1901 
L 656.147312 221.096192 
L 657.302104 234.179158 
L 658.456895 234.695591 
L 659.611686 249.327856 
L 660.766477 246.057114 
L 661.921269 251.806733 
L 663.07606 242.85523 
L 664.230851 239.963206 
L 665.385643 235.246453 
L 666.540434 228.119679 
L 667.695225 214.003848 
L 668.850017 211.111824 
L 670.004808 200.301162 
L 671.159599 200.301162 
L 672.314391 208.942806 
L 673.469182 206.360641 
L 674.623973 219.925611 
L 676.933556 238.827054 
L 678.088347 239.618918 
L 679.243139 245.265251 
L 680.39793 245.265251 
L 681.552721 255.456192 
L 682.707513 255.456192 
L 683.862304 269.98517 
L 685.017095 266.163567 
L 686.171886 275.11507 
L 687.326678 289.196473 
L 688.481469 293.913226 
L 689.63626 294.429659 
L 691.945843 312.057234 
L 693.100634 322.867896 
L 694.255426 322.867896 
L 695.410217 307.306052 
L 696.565008 321.490741 
L 697.7198 321.490741 
L 698.874591 306.032184 
L 700.029382 296.908537 
L 702.338965 316.636273 
L 703.493756 301.005571 
L 704.648548 293.121363 
L 706.95813 293.121363 
L 708.112922 294.188657 
L 709.267713 281.346693 
L 711.577295 281.346693 
L 712.732087 287.957034 
L 713.886878 293.293507 
L 715.041669 293.293507 
L 716.196461 279.521964 
L 717.351252 264.063407 
L 718.506043 279.625251 
L 719.660835 279.625251 
L 720.815626 270.363888 
L 721.970417 281.863126 
L 723.125209 279.418677 
L 724.28 283.033707 
L 724.28 283.033707 
" style="fill:none;stroke:#1f77b4;stroke-linecap:square;stroke-width:1.5;"/>
   </g>
   <g id="line2d_14">
    <path clip-path="url(#pbf44687ca6)" d="M 54.501035 386.94 
L 61.429783 386.94 
L 62.584574 369.966573 
L 63.739366 369.966573 
L 66.048948 336.019719 
L 67.20374 336.019719 
L 72.977696 251.152585 
L 74.132487 251.152585 
L 77.596861 200.232305 
L 78.751653 200.232305 
L 84.525609 115.36517 
L 85.680401 115.36517 
L 86.835192 98.391743 
L 89.144775 98.391743 
L 90.299566 81.418317 
L 96.073523 81.418317 
L 97.228314 64.44489 
L 100.692688 64.44489 
L 101.847479 47.471463 
L 146.884341 47.471463 
L 163.051419 285.099439 
L 164.20621 284.996152 
L 165.361002 301.969579 
L 166.515793 301.866293 
L 168.825376 335.813146 
L 169.980167 335.70986 
L 186.147245 96.291583 
L 187.302037 96.222725 
L 188.456828 79.077154 
L 189.611619 79.008297 
L 191.921202 44.717154 
L 196.540367 44.510581 
L 198.84995 44.441723 
L 201.159533 44.372866 
L 204.623907 44.304008 
L 210.397863 44.028577 
L 262.363472 44.028577 
L 263.518264 61.174148 
L 285.459299 61.174148 
L 286.61409 44.028577 
L 312.019499 44.028577 
L 318.948247 146.902004 
L 335.115326 146.902004 
L 342.044073 44.028577 
L 358.211152 44.028577 
L 359.365943 61.174148 
L 377.842604 61.174148 
L 381.306978 112.610862 
L 382.46177 112.610862 
L 383.616561 129.756433 
L 400.938431 130.272866 
L 406.712387 44.717154 
L 449.439666 44.717154 
L 450.594457 61.828297 
L 472.535492 61.828297 
L 473.690284 44.717154 
L 493.321736 44.717154 
L 502.560067 181.606293 
L 516.417563 180.78 
L 525.655893 43.34 
L 608.800868 43.34 
L 631.896694 386.94 
L 724.28 386.94 
L 724.28 386.94 
" style="fill:none;stroke:#ff7f0e;stroke-linecap:square;stroke-width:1.5;"/>
   </g>
   <g id="line2d_15">
    <path clip-path="url(#pbf44687ca6)" d="M 54.501035 249.982004 
L 55.655826 249.982004 
L 56.810618 239.963206 
L 57.965409 244.611102 
L 59.1202 243.130661 
L 60.274992 243.130661 
L 61.429783 227.052385 
L 62.584574 229.255832 
L 64.894157 208.116513 
L 66.048948 224.745651 
L 67.20374 215.381002 
L 68.358531 220.992906 
L 69.513322 208.564088 
L 70.668114 220.924048 
L 71.822905 231.459279 
L 72.977696 232.388858 
L 74.132487 232.388858 
L 75.287279 239.85992 
L 76.44207 229.290261 
L 77.596861 226.501523 
L 78.751653 221.922485 
L 79.906444 218.410741 
L 81.061235 227.740962 
L 82.216027 244.025812 
L 83.370818 244.025812 
L 84.525609 248.914709 
L 85.680401 247.468697 
L 86.835192 240.823928 
L 87.989983 251.875591 
L 89.144775 243.371663 
L 90.299566 241.237074 
L 91.454357 231.493707 
L 92.609149 243.16509 
L 93.76394 233.52501 
L 94.918731 217.102445 
L 96.073523 231.941283 
L 97.228314 227.293387 
L 98.383105 220.235471 
L 99.537896 230.80513 
L 100.692688 244.163527 
L 101.847479 234.557876 
L 103.00227 248.088417 
L 104.157062 234.316874 
L 105.311853 227.052385 
L 106.466644 223.196353 
L 107.621436 234.385731 
L 108.776227 248.535992 
L 109.931018 265.268417 
L 111.08581 265.268417 
L 112.240601 273.772345 
L 113.395392 289.781764 
L 114.550184 292.91479 
L 115.704975 291.158918 
L 116.859766 296.495391 
L 118.014558 307.271623 
L 119.169349 307.271623 
L 120.32414 298.767695 
L 121.478932 296.082244 
L 122.633723 283.963287 
L 123.788514 267.919439 
L 124.943306 271.706613 
L 126.098097 257.108778 
L 127.252888 262.479679 
L 128.407679 261.997675 
L 129.562471 250.050862 
L 130.717262 245.058677 
L 133.026845 213.900561 
L 134.181636 207.152505 
L 135.336427 202.057034 
L 136.491219 187.390341 
L 138.800801 200.06016 
L 139.955593 204.363768 
L 142.265175 204.467054 
L 143.419967 211.318397 
L 144.574758 222.0602 
L 145.729549 230.426413 
L 146.884341 231.11499 
L 148.039132 234.316874 
L 149.193923 231.769138 
L 151.503506 214.072705 
L 152.658297 224.19479 
L 153.813088 212.72998 
L 154.96788 210.526533 
L 156.122671 210.216673 
L 157.277462 199.819158 
L 158.432254 188.01006 
L 159.587045 197.030421 
L 163.051419 146.557715 
L 164.20621 134.95519 
L 165.361002 118.360481 
L 166.515793 119.152345 
L 167.670584 109.133547 
L 168.825376 95.878437 
L 169.980167 94.088136 
L 171.134958 84.792345 
L 172.28975 90.025531 
L 173.444541 91.092826 
L 174.599332 90.782966 
L 175.754124 79.318156 
L 176.908915 78.629579 
L 178.063706 78.629579 
L 179.218497 78.870581 
L 180.373289 79.318156 
L 181.52808 79.077154 
L 182.682871 67.577916 
L 183.837663 76.632705 
L 184.992454 76.18513 
L 186.147245 76.873707 
L 187.302037 79.180441 
L 188.456828 85.756353 
L 189.611619 74.601403 
L 190.766411 72.983246 
L 191.921202 75.771984 
L 193.075993 75.771984 
L 194.230785 75.117836 
L 195.385576 70.435511 
L 196.540367 69.368216 
L 197.695159 69.402645 
L 198.84995 72.535671 
L 200.004741 74.773547 
L 201.159533 78.044289 
L 202.314324 77.562285 
L 203.469115 79.937876 
L 205.778698 79.937876 
L 206.933489 88.028657 
L 208.08828 88.063086 
L 209.243072 87.202365 
L 210.397863 86.651503 
L 211.552654 82.52004 
L 212.707446 90.300962 
L 213.862237 107.205531 
L 215.017028 104.279078 
L 218.481402 104.795511 
L 219.636194 107.308818 
L 220.790985 107.412104 
L 221.945776 104.279078 
L 223.100568 102.178918 
L 224.255359 99.252465 
L 225.41015 99.011463 
L 226.564942 100.732906 
L 227.719733 111.681283 
L 228.874524 111.681283 
L 230.029316 96.945731 
L 231.184107 97.049018 
L 232.338898 98.667174 
L 233.493689 97.703166 
L 234.648481 95.224289 
L 235.803272 87.202365 
L 236.958063 70.125651 
L 238.112855 70.7798 
L 239.267646 70.642084 
L 240.422437 72.122525 
L 241.577229 72.191383 
L 242.73202 69.678076 
L 243.886811 70.056794 
L 245.041603 70.056794 
L 246.196394 70.228938 
L 247.351185 70.883086 
L 248.505977 70.745371 
L 249.660768 67.474629 
L 250.815559 57.662405 
L 251.970351 57.731263 
L 253.125142 56.698397 
L 254.279933 57.731263 
L 255.434725 60.657715 
L 256.589516 59.934709 
L 257.744307 59.693707 
L 258.899098 60.82986 
L 260.05389 64.169459 
L 261.208681 64.617034 
L 262.363472 65.856473 
L 263.518264 81.280601 
L 264.673055 85.997355 
L 265.827846 86.13507 
L 266.982638 87.753226 
L 268.137429 91.333828 
L 269.29222 91.092826 
L 270.447012 90.094389 
L 271.601803 90.094389 
L 272.756594 88.820521 
L 273.911386 99.631182 
L 275.066177 105.587375 
L 276.220968 104.382365 
L 277.37576 105.449659 
L 278.530551 102.764208 
L 279.685342 102.764208 
L 280.840134 103.762645 
L 281.994925 102.488778 
L 283.149716 110.476273 
L 284.304508 109.443407 
L 285.459299 112.025571 
L 286.61409 95.086573 
L 287.768881 89.7501 
L 288.923673 94.845571 
L 290.078464 92.676553 
L 291.233255 89.922244 
L 292.388047 103.142926 
L 294.697629 103.62493 
L 295.852421 105.1398 
L 297.007212 95.809579 
L 298.162003 89.784529 
L 299.316795 90.679679 
L 301.626377 89.681242 
L 302.781169 89.612385 
L 303.93596 89.818958 
L 305.090751 89.715671 
L 306.245543 78.491864 
L 307.400334 81.074028 
L 308.555125 77.424569 
L 309.709917 77.217996 
L 310.864708 77.906573 
L 312.019499 74.050541 
L 313.17429 73.947255 
L 314.329082 73.224248 
L 315.483873 59.934709 
L 316.638664 59.659279 
L 317.793456 60.485571 
L 318.948247 62.861162 
L 320.103038 61.897154 
L 321.25783 62.03487 
L 323.567412 60.416713 
L 324.722204 59.108417 
L 325.876995 59.349419 
L 327.031786 58.832986 
L 328.186578 58.970701 
L 329.341369 62.069299 
L 330.49616 60.726573 
L 331.650952 60.554429 
L 332.805743 60.554429 
L 333.960534 61.208577 
L 335.115326 60.485571 
L 336.270117 60.485571 
L 337.424908 62.826733 
L 338.579699 63.997315 
L 339.734491 64.066172 
L 340.889282 66.407335 
L 342.044073 63.274309 
L 344.353656 63.412024 
L 345.508447 63.584168 
L 346.663239 70.263367 
L 347.81803 69.987936 
L 348.972821 70.16008 
L 350.127613 70.883086 
L 351.282404 70.951944 
L 352.437195 68.36978 
L 353.591987 67.061483 
L 354.746778 69.987936 
L 355.901569 69.987936 
L 357.056361 68.507495 
L 358.211152 67.922204 
L 359.365943 67.922204 
L 360.520735 65.477756 
L 361.675526 72.294669 
L 362.830317 72.363527 
L 363.985109 68.989499 
L 365.1399 72.5701 
L 366.294691 71.089659 
L 368.604274 70.538798 
L 369.759065 63.618597 
L 370.913856 66.441764 
L 374.37823 65.305611 
L 375.533022 70.538798 
L 376.687813 71.36509 
L 377.842604 72.673387 
L 378.997396 89.818958 
L 380.152187 93.743848 
L 382.46177 96.429299 
L 383.616561 101.352625 
L 384.771352 100.216473 
L 385.926144 102.970782 
L 387.080935 104.003647 
L 388.235726 99.70004 
L 389.390518 102.867495 
L 390.545309 107.687535 
L 391.7001 107.618677 
L 392.854891 115.330741 
L 394.009683 113.161723 
L 395.164474 113.26501 
L 396.319265 129.24 
L 397.474057 129.274429 
L 398.628848 124.282244 
L 399.783639 130.995872 
L 400.938431 131.95988 
L 402.093222 115.950461 
L 403.248013 114.848737 
L 404.402805 118.050621 
L 405.557596 121.975511 
L 406.712387 118.326052 
L 407.867179 119.255631 
L 409.02197 123.180521 
L 410.176761 122.3198 
L 411.331553 127.793988 
L 412.486344 124.695391 
L 413.641135 120.839359 
L 414.795927 122.664088 
L 415.950718 116.363607 
L 417.105509 119.668778 
L 418.260301 119.59992 
L 419.415092 103.762645 
L 421.724674 106.964529 
L 422.879466 108.617114 
L 424.034257 103.831503 
L 425.189048 112.886293 
L 426.34384 111.784569 
L 428.653422 102.798637 
L 429.808214 106.34481 
L 430.963005 100.31976 
L 432.117796 95.293146 
L 433.272588 97.668737 
L 434.427379 92.538838 
L 435.58217 94.501283 
L 437.891753 92.573267 
L 439.046544 90.541964 
L 440.201336 87.34008 
L 441.356127 88.923808 
L 442.510918 92.401122 
L 443.66571 91.26497 
L 444.820501 89.405812 
L 447.130083 91.540401 
L 448.284875 84.689058 
L 449.439666 83.311904 
L 450.594457 83.311904 
L 451.749249 82.52004 
L 452.90404 77.906573 
L 454.058831 78.113146 
L 455.213623 77.424569 
L 456.368414 75.324409 
L 457.523205 75.152265 
L 458.677997 75.875271 
L 459.832788 79.696874 
L 460.987579 81.62489 
L 462.142371 86.75479 
L 463.297162 86.685932 
L 464.451953 95.258717 
L 465.606745 93.055271 
L 466.761536 96.945731 
L 467.916327 98.632745 
L 469.071119 88.820521 
L 470.22591 87.684369 
L 471.380701 84.826774 
L 472.535492 92.538838 
L 473.690284 92.504409 
L 474.845075 95.18986 
L 475.999866 95.18986 
L 477.154658 95.499719 
L 479.46424 97.531022 
L 480.619032 97.496593 
L 482.928614 95.430862 
L 484.083406 94.845571 
L 485.238197 90.782966 
L 486.392988 99.631182 
L 487.54778 90.507535 
L 488.702571 93.606132 
L 489.857362 92.710982 
L 491.012154 90.404248 
L 492.166945 90.714108 
L 494.476528 90.163246 
L 495.631319 82.072465 
L 496.78611 82.003607 
L 497.940902 79.249299 
L 499.095693 79.008297 
L 501.405275 74.601403 
L 502.560067 73.052104 
L 503.714858 72.845531 
L 504.869649 70.917515 
L 506.024441 68.025491 
L 507.179232 65.787615 
L 508.334023 64.479319 
L 509.488815 54.908096 
L 510.643606 53.806373 
L 511.798397 48.091182 
L 512.953189 44.613868 
L 514.10798 44.476152 
L 515.262771 43.684289 
L 516.417563 43.615431 
L 517.572354 43.34 
L 608.800868 43.34 
L 609.955659 48.125611 
L 611.110451 56.078677 
L 612.265242 73.258677 
L 613.420033 77.355711 
L 614.574825 85.136633 
L 615.729616 93.67499 
L 620.348781 162.39499 
L 621.503573 166.90517 
L 622.658364 170.554629 
L 627.277529 239.274629 
L 628.432321 248.329419 
L 629.587112 255.662766 
L 630.741903 258.761363 
L 631.896694 267.230862 
L 633.051486 274.426493 
L 634.206277 273.32477 
L 635.361068 262.376393 
L 636.51586 270.226172 
L 637.670651 265.715992 
L 638.825442 269.124449 
L 639.980234 253.046172 
L 641.135025 244.438958 
L 642.289816 244.438958 
L 643.444608 228.636112 
L 644.599399 226.88024 
L 645.75419 232.044569 
L 646.908982 232.044569 
L 648.063773 220.545331 
L 649.218564 206.70493 
L 650.373356 200.955311 
L 651.528147 195.997555 
L 652.682938 189.387214 
L 653.83773 203.468617 
L 654.992521 207.29022 
L 656.147312 196.307415 
L 657.302104 206.636072 
L 658.456895 201.230741 
L 659.611686 206.463928 
L 660.766477 214.382565 
L 661.921269 214.003848 
L 663.07606 230.082124 
L 664.230851 225.227655 
L 665.385643 210.044529 
L 666.540434 209.252665 
L 667.695225 209.011663 
L 668.850017 207.049218 
L 670.004808 191.62509 
L 671.159599 187.528056 
L 672.314391 190.970942 
L 673.469182 180.47014 
L 674.623973 185.014749 
L 675.778765 187.493627 
L 676.933556 187.493627 
L 678.088347 179.540561 
L 679.243139 180.263567 
L 680.39793 166.595311 
L 681.552721 179.161844 
L 682.707513 179.161844 
L 683.862304 180.056994 
L 685.017095 181.193146 
L 686.171886 181.193146 
L 687.326678 194.65483 
L 688.481469 198.063287 
L 689.63626 202.676754 
L 690.791052 206.636072 
L 691.945843 200.266733 
L 693.100634 215.690862 
L 694.255426 216.999158 
L 695.410217 227.396673 
L 696.565008 230.254269 
L 697.7198 238.792625 
L 698.874591 237.243327 
L 700.029382 226.053948 
L 701.184174 230.047695 
L 702.338965 245.506253 
L 703.493756 259.174509 
L 704.648548 262.961683 
L 705.803339 253.734749 
L 706.95813 241.925651 
L 708.112922 246.401403 
L 709.267713 246.401403 
L 710.422504 231.941283 
L 711.577295 243.715952 
L 712.732087 241.684649 
L 713.886878 246.263687 
L 715.041669 262.961683 
L 716.196461 257.074349 
L 717.351252 271.362325 
L 718.506043 271.362325 
L 719.660835 270.914749 
L 720.815626 255.387335 
L 721.970417 258.072786 
L 723.125209 262.307535 
L 724.28 271.155752 
L 724.28 271.155752 
" style="fill:none;stroke:#2ca02c;stroke-linecap:square;stroke-width:1.5;"/>
   </g>
   <g id="line2d_16">
    <path clip-path="url(#pbf44687ca6)" d="M 54.501035 191.349659 
L 55.655826 175.546814 
L 56.810618 163.014709 
L 57.965409 171.587495 
L 59.1202 186.391904 
L 60.274992 187.665772 
L 61.429783 182.742445 
L 62.584574 174.066373 
L 63.739366 168.970902 
L 64.894157 166.801884 
L 66.048948 170.761202 
L 67.20374 170.416914 
L 68.358531 184.808176 
L 69.513322 173.756513 
L 70.668114 174.582806 
L 71.822905 167.697034 
L 72.977696 158.848818 
L 74.132487 155.061643 
L 75.287279 157.471663 
L 76.44207 156.95523 
L 77.596861 155.646934 
L 78.751653 171.44978 
L 79.906444 167.731463 
L 82.216027 147.900441 
L 83.370818 146.144569 
L 84.525609 149.002164 
L 85.680401 150.000601 
L 86.835192 161.18998 
L 87.989983 177.887976 
L 89.144775 160.914549 
L 90.299566 151.928617 
L 91.454357 136.401202 
L 92.609149 142.185251 
L 93.76394 157.506092 
L 94.918731 157.024088 
L 96.073523 158.77996 
L 97.228314 173.790942 
L 98.383105 174.341804 
L 99.537896 176.200962 
L 100.692688 181.227575 
L 101.847479 168.661042 
L 103.00227 174.651663 
L 104.157062 189.800361 
L 105.311853 192.623527 
L 106.466644 197.753427 
L 107.621436 197.684569 
L 108.776227 210.044529 
L 109.931018 199.991303 
L 111.08581 186.185331 
L 112.240601 193.415391 
L 113.395392 206.016353 
L 114.550184 211.52497 
L 115.704975 206.463928 
L 116.859766 196.651703 
L 118.014558 209.321523 
L 119.169349 207.186934 
L 120.32414 190.592224 
L 121.478932 187.803487 
L 122.633723 187.734629 
L 123.788514 198.235431 
L 124.943306 199.268297 
L 126.098097 201.368457 
L 127.252888 186.49519 
L 128.407679 193.759679 
L 129.562471 191.384088 
L 130.717262 198.166573 
L 131.872053 186.116473 
L 133.026845 179.230701 
L 134.181636 184.154028 
L 135.336427 193.897395 
L 136.491219 198.201002 
L 137.64601 208.2198 
L 138.800801 224.057074 
L 139.955593 221.750341 
L 141.110384 206.222926 
L 142.265175 218.961603 
L 143.419967 235.556313 
L 144.574758 237.587615 
L 145.729549 237.966333 
L 146.884341 225.640802 
L 148.039132 220.442044 
L 149.193923 211.456112 
L 150.348715 209.183808 
L 151.503506 192.038236 
L 152.658297 188.90521 
L 153.813088 178.851984 
L 154.96788 173.756513 
L 156.122671 173.54994 
L 157.277462 165.287014 
L 161.896628 96.704729 
L 163.051419 91.678116 
L 164.20621 90.05996 
L 166.515793 55.768818 
L 167.670584 53.152224 
L 168.825376 49.261764 
L 169.980167 44.441723 
L 171.134958 44.028577 
L 262.363472 44.028577 
L 263.518264 55.631102 
L 285.459299 55.631102 
L 286.61409 44.028577 
L 377.842604 44.028577 
L 378.997396 52.360361 
L 400.938431 53.014509 
L 402.093222 44.717154 
L 493.321736 44.717154 
L 494.476528 46.920601 
L 516.417563 45.612305 
L 517.572354 43.34 
L 608.800868 43.34 
L 609.955659 50.156914 
L 611.110451 51.947214 
L 612.265242 54.116232 
L 613.420033 54.460521 
L 614.574825 59.383848 
L 615.729616 60.003567 
L 616.884407 67.577916 
L 618.039199 70.194509 
L 619.19399 78.973868 
L 620.348781 86.720361 
L 621.503573 87.856513 
L 622.658364 88.579519 
L 623.813155 89.715671 
L 624.967947 102.385491 
L 626.122738 104.657796 
L 627.277529 115.468457 
L 628.432321 123.111663 
L 629.587112 128.379279 
L 630.741903 129.412144 
L 631.896694 136.263487 
L 633.051486 130.272866 
L 634.206277 138.122645 
L 635.361068 136.814349 
L 636.51586 142.839399 
L 637.670651 155.096072 
L 638.825442 160.742405 
L 639.980234 162.842565 
L 641.135025 160.707976 
L 642.289816 169.108617 
L 643.444608 165.906733 
L 644.599399 170.967776 
L 645.75419 180.676713 
L 646.908982 188.044489 
L 648.063773 181.640721 
L 649.218564 180.091423 
L 650.373356 170.348056 
L 651.528147 166.388737 
L 652.682938 164.529579 
L 653.83773 169.108617 
L 654.992521 168.316754 
L 656.147312 184.670461 
L 657.302104 177.578116 
L 658.456895 183.844168 
L 659.611686 180.538998 
L 660.766477 168.970902 
L 661.921269 166.595311 
L 663.07606 167.662605 
L 664.230851 169.556192 
L 665.385643 153.546774 
L 666.540434 155.302645 
L 667.695225 150.03503 
L 668.850017 151.928617 
L 670.004808 152.858196 
L 671.159599 148.795591 
L 672.314391 148.313587 
L 673.469182 153.615631 
L 674.623973 150.34489 
L 675.778765 147.693868 
L 676.933556 142.391824 
L 678.088347 143.906693 
L 679.243139 127.72513 
L 680.39793 136.848778 
L 681.552721 131.064729 
L 682.707513 129.033427 
L 683.862304 140.601523 
L 685.017095 139.947375 
L 686.171886 129.722004 
L 688.481469 136.504489 
L 689.63626 132.958317 
L 690.791052 149.208737 
L 691.945843 142.219679 
L 693.100634 134.025611 
L 695.410217 154.304208 
L 696.565008 157.506092 
L 697.7198 166.90517 
L 698.874591 167.903607 
L 700.029382 184.773747 
L 701.184174 189.042926 
L 702.338965 205.224489 
L 703.493756 199.509299 
L 704.648548 207.359078 
L 705.803339 223.506212 
L 706.95813 210.388818 
L 708.112922 213.659559 
L 709.267713 215.587575 
L 710.422504 215.105571 
L 711.577295 227.844248 
L 712.732087 226.088377 
L 713.886878 226.088377 
L 715.041669 222.886493 
L 716.196461 238.827054 
L 717.351252 228.257395 
L 718.506043 220.235471 
L 719.660835 213.93499 
L 721.970417 228.326253 
L 723.125209 212.557836 
L 724.28 207.29022 
L 724.28 207.29022 
" style="fill:none;stroke:#d62728;stroke-linecap:square;stroke-width:1.5;"/>
   </g>
   <g id="line2d_17">
    <path clip-path="url(#pbf44687ca6)" d="M 54.501035 84.413627 
L 56.810618 50.466774 
L 57.965409 47.471463 
L 146.884341 47.471463 
L 148.039132 54.219519 
L 169.980167 50.948778 
L 171.134958 44.028577 
L 262.363472 44.028577 
L 263.518264 47.815752 
L 285.459299 47.815752 
L 286.61409 44.028577 
L 377.842604 44.028577 
L 378.997396 57.352545 
L 400.938431 58.006693 
L 402.093222 44.717154 
L 493.321736 44.717154 
L 494.476528 48.401042 
L 516.417563 47.092745 
L 517.572354 43.34 
L 608.800868 43.34 
L 611.110451 77.7 
L 612.265242 79.249299 
L 631.896694 82.761042 
L 634.206277 48.814188 
L 635.361068 47.471463 
L 724.28 47.471463 
L 724.28 47.471463 
" style="fill:none;stroke:#9467bd;stroke-linecap:square;stroke-width:1.5;"/>
   </g>
   <g id="patch_3">
    <path d="M 32.56 404.12 
L 32.56 26.16 
" style="fill:none;stroke:#000000;stroke-linecap:square;stroke-linejoin:miter;stroke-width:0.8;"/>
   </g>
   <g id="patch_4">
    <path d="M 724.28 404.12 
L 724.28 26.16 
" style="fill:none;stroke:#000000;stroke-linecap:square;stroke-linejoin:miter;stroke-width:0.8;"/>
   </g>
   <g id="patch_5">
    <path d="M 32.56 404.12 
L 724.28 404.12 
" style="fill:none;stroke:#000000;stroke-linecap:square;stroke-linejoin:miter;stroke-width:0.8;"/>
   </g>
   <g id="patch_6">
    <path d="M 32.56 26.16 
L 724.28 26.16 
" style="fill:none;stroke:#000000;stroke-linecap:square;stroke-linejoin:miter;stroke-width:0.8;"/>
   </g>
   <g id="text_13">
    <!-- multi_way_v2: episode reward, MA=20 -->
    <defs>
     <path d="M 52 44.1875 
Q 55.375 50.25 60.0625 53.125 
Q 64.75 56 71.09375 56 
Q 79.640625 56 84.28125 50.015625 
Q 88.921875 44.046875 88.921875 33.015625 
L 88.921875 0 
L 79.890625 0 
L 79.890625 32.71875 
Q 79.890625 40.578125 77.09375 44.375 
Q 74.3125 48.1875 68.609375 48.1875 
Q 61.625 48.1875 57.5625 43.546875 
Q 53.515625 38.921875 53.515625 30.90625 
L 53.515625 0 
L 44.484375 0 
L 44.484375 32.71875 
Q 44.484375 40.625 41.703125 44.40625 
Q 38.921875 48.1875 33.109375 48.1875 
Q 26.21875 48.1875 22.15625 43.53125 
Q 18.109375 38.875 18.109375 30.90625 
L 18.109375 0 
L 9.078125 0 
L 9.078125 54.6875 
L 18.109375 54.6875 
L 18.109375 46.1875 
Q 21.1875 51.21875 25.484375 53.609375 
Q 29.78125 56 35.6875 56 
Q 41.65625 56 45.828125 52.96875 
Q 50 49.953125 52 44.1875 
z
" id="DejaVuSans-109"/>
     <path d="M 8.5 21.578125 
L 8.5 54.6875 
L 17.484375 54.6875 
L 17.484375 21.921875 
Q 17.484375 14.15625 20.5 10.265625 
Q 23.53125 6.390625 29.59375 6.390625 
Q 36.859375 6.390625 41.078125 11.03125 
Q 45.3125 15.671875 45.3125 23.6875 
L 45.3125 54.6875 
L 54.296875 54.6875 
L 54.296875 0 
L 45.3125 0 
L 45.3125 8.40625 
Q 42.046875 3.421875 37.71875 1 
Q 33.40625 -1.421875 27.6875 -1.421875 
Q 18.265625 -1.421875 13.375 4.4375 
Q 8.5 10.296875 8.5 21.578125 
z
M 31.109375 56 
z
" id="DejaVuSans-117"/>
     <path d="M 9.421875 75.984375 
L 18.40625 75.984375 
L 18.40625 0 
L 9.421875 0 
z
" id="DejaVuSans-108"/>
     <path d="M 18.3125 70.21875 
L 18.3125 54.6875 
L 36.8125 54.6875 
L 36.8125 47.703125 
L 18.3125 47.703125 
L 18.3125 18.015625 
Q 18.3125 11.328125 20.140625 9.421875 
Q 21.96875 7.515625 27.59375 7.515625 
L 36.8125 7.515625 
L 36.8125 0 
L 27.59375 0 
Q 17.1875 0 13.234375 3.875 
Q 9.28125 7.765625 9.28125 18.015625 
L 9.28125 47.703125 
L 2.6875 47.703125 
L 2.6875 54.6875 
L 9.28125 54.6875 
L 9.28125 70.21875 
z
" id="DejaVuSans-116"/>
     <path d="M 9.421875 54.6875 
L 18.40625 54.6875 
L 18.40625 0 
L 9.421875 0 
z
M 9.421875 75.984375 
L 18.40625 75.984375 
L 18.40625 64.59375 
L 9.421875 64.59375 
z
" id="DejaVuSans-105"/>
     <path d="M 50.984375 -16.609375 
L 50.984375 -23.578125 
L -0.984375 -23.578125 
L -0.984375 -16.609375 
z
" id="DejaVuSans-95"/>
     <path d="M 4.203125 54.6875 
L 13.1875 54.6875 
L 24.421875 12.015625 
L 35.59375 54.6875 
L 46.1875 54.6875 
L 57.421875 12.015625 
L 68.609375 54.6875 
L 77.59375 54.6875 
L 63.28125 0 
L 52.6875 0 
L 40.921875 44.828125 
L 29.109375 0 
L 18.5 0 
z
" id="DejaVuSans-119"/>
     <path d="M 34.28125 27.484375 
Q 23.390625 27.484375 19.1875 25 
Q 14.984375 22.515625 14.984375 16.5 
Q 14.984375 11.71875 18.140625 8.90625 
Q 21.296875 6.109375 26.703125 6.109375 
Q 34.1875 6.109375 38.703125 11.40625 
Q 43.21875 16.703125 43.21875 25.484375 
L 43.21875 27.484375 
z
M 52.203125 31.203125 
L 52.203125 0 
L 43.21875 0 
L 43.21875 8.296875 
Q 40.140625 3.328125 35.546875 0.953125 
Q 30.953125 -1.421875 24.3125 -1.421875 
Q 15.921875 -1.421875 10.953125 3.296875 
Q 6 8.015625 6 15.921875 
Q 6 25.140625 12.171875 29.828125 
Q 18.359375 34.515625 30.609375 34.515625 
L 43.21875 34.515625 
L 43.21875 35.40625 
Q 43.21875 41.609375 39.140625 45 
Q 35.0625 48.390625 27.6875 48.390625 
Q 23 48.390625 18.546875 47.265625 
Q 14.109375 46.140625 10.015625 43.890625 
L 10.015625 52.203125 
Q 14.9375 54.109375 19.578125 55.046875 
Q 24.21875 56 28.609375 56 
Q 40.484375 56 46.34375 49.84375 
Q 52.203125 43.703125 52.203125 31.203125 
z
" id="DejaVuSans-97"/>
     <path d="M 32.171875 -5.078125 
Q 28.375 -14.84375 24.75 -17.8125 
Q 21.140625 -20.796875 15.09375 -20.796875 
L 7.90625 -20.796875 
L 7.90625 -13.28125 
L 13.1875 -13.28125 
Q 16.890625 -13.28125 18.9375 -11.515625 
Q 21 -9.765625 23.484375 -3.21875 
L 25.09375 0.875 
L 2.984375 54.6875 
L 12.5 54.6875 
L 29.59375 11.921875 
L 46.6875 54.6875 
L 56.203125 54.6875 
z
" id="DejaVuSans-121"/>
     <path d="M 2.984375 54.6875 
L 12.5 54.6875 
L 29.59375 8.796875 
L 46.6875 54.6875 
L 56.203125 54.6875 
L 35.6875 0 
L 23.484375 0 
z
" id="DejaVuSans-118"/>
     <path d="M 11.71875 12.40625 
L 22.015625 12.40625 
L 22.015625 0 
L 11.71875 0 
z
M 11.71875 51.703125 
L 22.015625 51.703125 
L 22.015625 39.3125 
L 11.71875 39.3125 
z
" id="DejaVuSans-58"/>
     <path id="DejaVuSans-32"/>
     <path d="M 56.203125 29.59375 
L 56.203125 25.203125 
L 14.890625 25.203125 
Q 15.484375 15.921875 20.484375 11.0625 
Q 25.484375 6.203125 34.421875 6.203125 
Q 39.59375 6.203125 44.453125 7.46875 
Q 49.3125 8.734375 54.109375 11.28125 
L 54.109375 2.78125 
Q 49.265625 0.734375 44.1875 -0.34375 
Q 39.109375 -1.421875 33.890625 -1.421875 
Q 20.796875 -1.421875 13.15625 6.1875 
Q 5.515625 13.8125 5.515625 26.8125 
Q 5.515625 40.234375 12.765625 48.109375 
Q 20.015625 56 32.328125 56 
Q 43.359375 56 49.78125 48.890625 
Q 56.203125 41.796875 56.203125 29.59375 
z
M 47.21875 32.234375 
Q 47.125 39.59375 43.09375 43.984375 
Q 39.0625 48.390625 32.421875 48.390625 
Q 24.90625 48.390625 20.390625 44.140625 
Q 15.875 39.890625 15.1875 32.171875 
z
" id="DejaVuSans-101"/>
     <path d="M 18.109375 8.203125 
L 18.109375 -20.796875 
L 9.078125 -20.796875 
L 9.078125 54.6875 
L 18.109375 54.6875 
L 18.109375 46.390625 
Q 20.953125 51.265625 25.265625 53.625 
Q 29.59375 56 35.59375 56 
Q 45.5625 56 51.78125 48.09375 
Q 58.015625 40.1875 58.015625 27.296875 
Q 58.015625 14.40625 51.78125 6.484375 
Q 45.5625 -1.421875 35.59375 -1.421875 
Q 29.59375 -1.421875 25.265625 0.953125 
Q 20.953125 3.328125 18.109375 8.203125 
z
M 48.6875 27.296875 
Q 48.6875 37.203125 44.609375 42.84375 
Q 40.53125 48.484375 33.40625 48.484375 
Q 26.265625 48.484375 22.1875 42.84375 
Q 18.109375 37.203125 18.109375 27.296875 
Q 18.109375 17.390625 22.1875 11.75 
Q 26.265625 6.109375 33.40625 6.109375 
Q 40.53125 6.109375 44.609375 11.75 
Q 48.6875 17.390625 48.6875 27.296875 
z
" id="DejaVuSans-112"/>
     <path d="M 44.28125 53.078125 
L 44.28125 44.578125 
Q 40.484375 46.53125 36.375 47.5 
Q 32.28125 48.484375 27.875 48.484375 
Q 21.1875 48.484375 17.84375 46.4375 
Q 14.5 44.390625 14.5 40.28125 
Q 14.5 37.15625 16.890625 35.375 
Q 19.28125 33.59375 26.515625 31.984375 
L 29.59375 31.296875 
Q 39.15625 29.25 43.1875 25.515625 
Q 47.21875 21.78125 47.21875 15.09375 
Q 47.21875 7.46875 41.1875 3.015625 
Q 35.15625 -1.421875 24.609375 -1.421875 
Q 20.21875 -1.421875 15.453125 -0.5625 
Q 10.6875 0.296875 5.421875 2 
L 5.421875 11.28125 
Q 10.40625 8.6875 15.234375 7.390625 
Q 20.0625 6.109375 24.8125 6.109375 
Q 31.15625 6.109375 34.5625 8.28125 
Q 37.984375 10.453125 37.984375 14.40625 
Q 37.984375 18.0625 35.515625 20.015625 
Q 33.0625 21.96875 24.703125 23.78125 
L 21.578125 24.515625 
Q 13.234375 26.265625 9.515625 29.90625 
Q 5.8125 33.546875 5.8125 39.890625 
Q 5.8125 47.609375 11.28125 51.796875 
Q 16.75 56 26.8125 56 
Q 31.78125 56 36.171875 55.265625 
Q 40.578125 54.546875 44.28125 53.078125 
z
" id="DejaVuSans-115"/>
     <path d="M 30.609375 48.390625 
Q 23.390625 48.390625 19.1875 42.75 
Q 14.984375 37.109375 14.984375 27.296875 
Q 14.984375 17.484375 19.15625 11.84375 
Q 23.34375 6.203125 30.609375 6.203125 
Q 37.796875 6.203125 41.984375 11.859375 
Q 46.1875 17.53125 46.1875 27.296875 
Q 46.1875 37.015625 41.984375 42.703125 
Q 37.796875 48.390625 30.609375 48.390625 
z
M 30.609375 56 
Q 42.328125 56 49.015625 48.375 
Q 55.71875 40.765625 55.71875 27.296875 
Q 55.71875 13.875 49.015625 6.21875 
Q 42.328125 -1.421875 30.609375 -1.421875 
Q 18.84375 -1.421875 12.171875 6.21875 
Q 5.515625 13.875 5.515625 27.296875 
Q 5.515625 40.765625 12.171875 48.375 
Q 18.84375 56 30.609375 56 
z
" id="DejaVuSans-111"/>
     <path d="M 45.40625 46.390625 
L 45.40625 75.984375 
L 54.390625 75.984375 
L 54.390625 0 
L 45.40625 0 
L 45.40625 8.203125 
Q 42.578125 3.328125 38.25 0.953125 
Q 33.9375 -1.421875 27.875 -1.421875 
Q 17.96875 -1.421875 11.734375 6.484375 
Q 5.515625 14.40625 5.515625 27.296875 
Q 5.515625 40.1875 11.734375 48.09375 
Q 17.96875 56 27.875 56 
Q 33.9375 56 38.25 53.625 
Q 42.578125 51.265625 45.40625 46.390625 
z
M 14.796875 27.296875 
Q 14.796875 17.390625 18.875 11.75 
Q 22.953125 6.109375 30.078125 6.109375 
Q 37.203125 6.109375 41.296875 11.75 
Q 45.40625 17.390625 45.40625 27.296875 
Q 45.40625 37.203125 41.296875 42.84375 
Q 37.203125 48.484375 30.078125 48.484375 
Q 22.953125 48.484375 18.875 42.84375 
Q 14.796875 37.203125 14.796875 27.296875 
z
" id="DejaVuSans-100"/>
     <path d="M 41.109375 46.296875 
Q 39.59375 47.171875 37.8125 47.578125 
Q 36.03125 48 33.890625 48 
Q 26.265625 48 22.1875 43.046875 
Q 18.109375 38.09375 18.109375 28.8125 
L 18.109375 0 
L 9.078125 0 
L 9.078125 54.6875 
L 18.109375 54.6875 
L 18.109375 46.1875 
Q 20.953125 51.171875 25.484375 53.578125 
Q 30.03125 56 36.53125 56 
Q 37.453125 56 38.578125 55.875 
Q 39.703125 55.765625 41.0625 55.515625 
z
" id="DejaVuSans-114"/>
     <path d="M 11.71875 12.40625 
L 22.015625 12.40625 
L 22.015625 4 
L 14.015625 -11.625 
L 7.71875 -11.625 
L 11.71875 4 
z
" id="DejaVuSans-44"/>
     <path d="M 9.8125 72.90625 
L 24.515625 72.90625 
L 43.109375 23.296875 
L 61.8125 72.90625 
L 76.515625 72.90625 
L 76.515625 0 
L 66.890625 0 
L 66.890625 64.015625 
L 48.09375 14.015625 
L 38.1875 14.015625 
L 19.390625 64.015625 
L 19.390625 0 
L 9.8125 0 
z
" id="DejaVuSans-77"/>
     <path d="M 34.1875 63.1875 
L 20.796875 26.90625 
L 47.609375 26.90625 
z
M 28.609375 72.90625 
L 39.796875 72.90625 
L 67.578125 0 
L 57.328125 0 
L 50.6875 18.703125 
L 17.828125 18.703125 
L 11.1875 0 
L 0.78125 0 
z
" id="DejaVuSans-65"/>
     <path d="M 10.59375 45.40625 
L 73.1875 45.40625 
L 73.1875 37.203125 
L 10.59375 37.203125 
z
M 10.59375 25.484375 
L 73.1875 25.484375 
L 73.1875 17.1875 
L 10.59375 17.1875 
z
" id="DejaVuSans-61"/>
    </defs>
    <g transform="translate(261.51 20.16)scale(0.12 -0.12)">
     <use xlink:href="#DejaVuSans-109"/>
     <use x="97.412109" xlink:href="#DejaVuSans-117"/>
     <use x="160.791016" xlink:href="#DejaVuSans-108"/>
     <use x="188.574219" xlink:href="#DejaVuSans-116"/>
     <use x="227.783203" xlink:href="#DejaVuSans-105"/>
     <use x="255.566406" xlink:href="#DejaVuSans-95"/>
     <use x="305.566406" xlink:href="#DejaVuSans-119"/>
     <use x="387.353516" xlink:href="#DejaVuSans-97"/>
     <use x="448.632812" xlink:href="#DejaVuSans-121"/>
     <use x="507.8125" xlink:href="#DejaVuSans-95"/>
     <use x="557.8125" xlink:href="#DejaVuSans-118"/>
     <use x="616.992188" xlink:href="#DejaVuSans-50"/>
     <use x="680.615234" xlink:href="#DejaVuSans-58"/>
     <use x="714.306641" xlink:href="#DejaVuSans-32"/>
     <use x="746.09375" xlink:href="#DejaVuSans-101"/>
     <use x="807.617188" xlink:href="#DejaVuSans-112"/>
     <use x="871.09375" xlink:href="#DejaVuSans-105"/>
     <use x="898.876953" xlink:href="#DejaVuSans-115"/>
     <use x="950.976562" xlink:href="#DejaVuSans-111"/>
     <use x="1012.158203" xlink:href="#DejaVuSans-100"/>
     <use x="1075.634766" xlink:href="#DejaVuSans-101"/>
     <use x="1137.158203" xlink:href="#DejaVuSans-32"/>
     <use x="1168.945312" xlink:href="#DejaVuSans-114"/>
     <use x="1210.027344" xlink:href="#DejaVuSans-101"/>
     <use x="1271.550781" xlink:href="#DejaVuSans-119"/>
     <use x="1353.337891" xlink:href="#DejaVuSans-97"/>
     <use x="1414.617188" xlink:href="#DejaVuSans-114"/>
     <use x="1455.714844" xlink:href="#DejaVuSans-100"/>
     <use x="1519.191406" xlink:href="#DejaVuSans-44"/>
     <use x="1550.978516" xlink:href="#DejaVuSans-32"/>
     <use x="1582.765625" xlink:href="#DejaVuSans-77"/>
     <use x="1669.044922" xlink:href="#DejaVuSans-65"/>
     <use x="1737.453125" xlink:href="#DejaVuSans-61"/>
     <use x="1821.242188" xlink:href="#DejaVuSans-50"/>
     <use x="1884.865234" xlink:href="#DejaVuSans-48"/>
    </g>
   </g>
   <g id="legend_1">
    <g id="patch_7">
     <path d="M 764.559937 254.030625 
L 855.624 254.030625 
Q 857.624 254.030625 857.624 252.030625 
L 857.624 178.249375 
Q 857.624 176.249375 855.624 176.249375 
L 764.559937 176.249375 
Q 762.559937 176.249375 762.559937 178.249375 
L 762.559937 252.030625 
Q 762.559937 254.030625 764.559937 254.030625 
z
" style="fill:#ffffff;opacity:0.8;stroke:#cccccc;stroke-linejoin:miter;"/>
    </g>
    <g id="line2d_18">
     <path d="M 766.559937 184.347812 
L 786.559937 184.347812 
" style="fill:none;stroke:#1f77b4;stroke-linecap:square;stroke-width:1.5;"/>
    </g>
    <g id="line2d_19"/>
    <g id="text_14">
     <!-- htm_0 -->
     <defs>
      <path d="M 54.890625 33.015625 
L 54.890625 0 
L 45.90625 0 
L 45.90625 32.71875 
Q 45.90625 40.484375 42.875 44.328125 
Q 39.84375 48.1875 33.796875 48.1875 
Q 26.515625 48.1875 22.3125 43.546875 
Q 18.109375 38.921875 18.109375 30.90625 
L 18.109375 0 
L 9.078125 0 
L 9.078125 75.984375 
L 18.109375 75.984375 
L 18.109375 46.1875 
Q 21.34375 51.125 25.703125 53.5625 
Q 30.078125 56 35.796875 56 
Q 45.21875 56 50.046875 50.171875 
Q 54.890625 44.34375 54.890625 33.015625 
z
" id="DejaVuSans-104"/>
     </defs>
     <g transform="translate(794.559937 187.847812)scale(0.1 -0.1)">
      <use xlink:href="#DejaVuSans-104"/>
      <use x="63.378906" xlink:href="#DejaVuSans-116"/>
      <use x="102.587891" xlink:href="#DejaVuSans-109"/>
      <use x="200" xlink:href="#DejaVuSans-95"/>
      <use x="250" xlink:href="#DejaVuSans-48"/>
     </g>
    </g>
    <g id="line2d_20">
     <path d="M 766.559937 199.304062 
L 786.559937 199.304062 
" style="fill:none;stroke:#ff7f0e;stroke-linecap:square;stroke-width:1.5;"/>
    </g>
    <g id="line2d_21"/>
    <g id="text_15">
     <!-- dqn_greedy -->
     <defs>
      <path d="M 14.796875 27.296875 
Q 14.796875 17.390625 18.875 11.75 
Q 22.953125 6.109375 30.078125 6.109375 
Q 37.203125 6.109375 41.296875 11.75 
Q 45.40625 17.390625 45.40625 27.296875 
Q 45.40625 37.203125 41.296875 42.84375 
Q 37.203125 48.484375 30.078125 48.484375 
Q 22.953125 48.484375 18.875 42.84375 
Q 14.796875 37.203125 14.796875 27.296875 
z
M 45.40625 8.203125 
Q 42.578125 3.328125 38.25 0.953125 
Q 33.9375 -1.421875 27.875 -1.421875 
Q 17.96875 -1.421875 11.734375 6.484375 
Q 5.515625 14.40625 5.515625 27.296875 
Q 5.515625 40.1875 11.734375 48.09375 
Q 17.96875 56 27.875 56 
Q 33.9375 56 38.25 53.625 
Q 42.578125 51.265625 45.40625 46.390625 
L 45.40625 54.6875 
L 54.390625 54.6875 
L 54.390625 -20.796875 
L 45.40625 -20.796875 
z
" id="DejaVuSans-113"/>
      <path d="M 54.890625 33.015625 
L 54.890625 0 
L 45.90625 0 
L 45.90625 32.71875 
Q 45.90625 40.484375 42.875 44.328125 
Q 39.84375 48.1875 33.796875 48.1875 
Q 26.515625 48.1875 22.3125 43.546875 
Q 18.109375 38.921875 18.109375 30.90625 
L 18.109375 0 
L 9.078125 0 
L 9.078125 54.6875 
L 18.109375 54.6875 
L 18.109375 46.1875 
Q 21.34375 51.125 25.703125 53.5625 
Q 30.078125 56 35.796875 56 
Q 45.21875 56 50.046875 50.171875 
Q 54.890625 44.34375 54.890625 33.015625 
z
" id="DejaVuSans-110"/>
      <path d="M 45.40625 27.984375 
Q 45.40625 37.75 41.375 43.109375 
Q 37.359375 48.484375 30.078125 48.484375 
Q 22.859375 48.484375 18.828125 43.109375 
Q 14.796875 37.75 14.796875 27.984375 
Q 14.796875 18.265625 18.828125 12.890625 
Q 22.859375 7.515625 30.078125 7.515625 
Q 37.359375 7.515625 41.375 12.890625 
Q 45.40625 18.265625 45.40625 27.984375 
z
M 54.390625 6.78125 
Q 54.390625 -7.171875 48.1875 -13.984375 
Q 42 -20.796875 29.203125 -20.796875 
Q 24.46875 -20.796875 20.265625 -20.09375 
Q 16.0625 -19.390625 12.109375 -17.921875 
L 12.109375 -9.1875 
Q 16.0625 -11.328125 19.921875 -12.34375 
Q 23.78125 -13.375 27.78125 -13.375 
Q 36.625 -13.375 41.015625 -8.765625 
Q 45.40625 -4.15625 45.40625 5.171875 
L 45.40625 9.625 
Q 42.625 4.78125 38.28125 2.390625 
Q 33.9375 0 27.875 0 
Q 17.828125 0 11.671875 7.65625 
Q 5.515625 15.328125 5.515625 27.984375 
Q 5.515625 40.671875 11.671875 48.328125 
Q 17.828125 56 27.875 56 
Q 33.9375 56 38.28125 53.609375 
Q 42.625 51.21875 45.40625 46.390625 
L 45.40625 54.6875 
L 54.390625 54.6875 
z
" id="DejaVuSans-103"/>
     </defs>
     <g transform="translate(794.559937 202.804062)scale(0.1 -0.1)">
      <use xlink:href="#DejaVuSans-100"/>
      <use x="63.476562" xlink:href="#DejaVuSans-113"/>
      <use x="126.953125" xlink:href="#DejaVuSans-110"/>
      <use x="190.332031" xlink:href="#DejaVuSans-95"/>
      <use x="240.332031" xlink:href="#DejaVuSans-103"/>
      <use x="303.808594" xlink:href="#DejaVuSans-114"/>
      <use x="344.890625" xlink:href="#DejaVuSans-101"/>
      <use x="406.414062" xlink:href="#DejaVuSans-101"/>
      <use x="467.9375" xlink:href="#DejaVuSans-100"/>
      <use x="531.414062" xlink:href="#DejaVuSans-121"/>
     </g>
    </g>
    <g id="line2d_22">
     <path d="M 766.559937 214.260312 
L 786.559937 214.260312 
" style="fill:none;stroke:#2ca02c;stroke-linecap:square;stroke-width:1.5;"/>
    </g>
    <g id="line2d_23"/>
    <g id="text_16">
     <!-- htm_2_1g -->
     <g transform="translate(794.559937 217.760312)scale(0.1 -0.1)">
      <use xlink:href="#DejaVuSans-104"/>
      <use x="63.378906" xlink:href="#DejaVuSans-116"/>
      <use x="102.587891" xlink:href="#DejaVuSans-109"/>
      <use x="200" xlink:href="#DejaVuSans-95"/>
      <use x="250" xlink:href="#DejaVuSans-50"/>
      <use x="313.623047" xlink:href="#DejaVuSans-95"/>
      <use x="363.623047" xlink:href="#DejaVuSans-49"/>
      <use x="427.246094" xlink:href="#DejaVuSans-103"/>
     </g>
    </g>
    <g id="line2d_24">
     <path d="M 766.559937 229.216562 
L 786.559937 229.216562 
" style="fill:none;stroke:#d62728;stroke-linecap:square;stroke-width:1.5;"/>
    </g>
    <g id="line2d_25"/>
    <g id="text_17">
     <!-- htm_4_1g -->
     <g transform="translate(794.559937 232.716562)scale(0.1 -0.1)">
      <use xlink:href="#DejaVuSans-104"/>
      <use x="63.378906" xlink:href="#DejaVuSans-116"/>
      <use x="102.587891" xlink:href="#DejaVuSans-109"/>
      <use x="200" xlink:href="#DejaVuSans-95"/>
      <use x="250" xlink:href="#DejaVuSans-52"/>
      <use x="313.623047" xlink:href="#DejaVuSans-95"/>
      <use x="363.623047" xlink:href="#DejaVuSans-49"/>
      <use x="427.246094" xlink:href="#DejaVuSans-103"/>
     </g>
    </g>
    <g id="line2d_26">
     <path d="M 766.559937 244.172812 
L 786.559937 244.172812 
" style="fill:none;stroke:#9467bd;stroke-linecap:square;stroke-width:1.5;"/>
    </g>
    <g id="line2d_27"/>
    <g id="text_18">
     <!-- htm_8_1g -->
     <defs>
      <path d="M 31.78125 34.625 
Q 24.75 34.625 20.71875 30.859375 
Q 16.703125 27.09375 16.703125 20.515625 
Q 16.703125 13.921875 20.71875 10.15625 
Q 24.75 6.390625 31.78125 6.390625 
Q 38.8125 6.390625 42.859375 10.171875 
Q 46.921875 13.96875 46.921875 20.515625 
Q 46.921875 27.09375 42.890625 30.859375 
Q 38.875 34.625 31.78125 34.625 
z
M 21.921875 38.8125 
Q 15.578125 40.375 12.03125 44.71875 
Q 8.5 49.078125 8.5 55.328125 
Q 8.5 64.0625 14.71875 69.140625 
Q 20.953125 74.21875 31.78125 74.21875 
Q 42.671875 74.21875 48.875 69.140625 
Q 55.078125 64.0625 55.078125 55.328125 
Q 55.078125 49.078125 51.53125 44.71875 
Q 48 40.375 41.703125 38.8125 
Q 48.828125 37.15625 52.796875 32.3125 
Q 56.78125 27.484375 56.78125 20.515625 
Q 56.78125 9.90625 50.3125 4.234375 
Q 43.84375 -1.421875 31.78125 -1.421875 
Q 19.734375 -1.421875 13.25 4.234375 
Q 6.78125 9.90625 6.78125 20.515625 
Q 6.78125 27.484375 10.78125 32.3125 
Q 14.796875 37.15625 21.921875 38.8125 
z
M 18.3125 54.390625 
Q 18.3125 48.734375 21.84375 45.5625 
Q 25.390625 42.390625 31.78125 42.390625 
Q 38.140625 42.390625 41.71875 45.5625 
Q 45.3125 48.734375 45.3125 54.390625 
Q 45.3125 60.0625 41.71875 63.234375 
Q 38.140625 66.40625 31.78125 66.40625 
Q 25.390625 66.40625 21.84375 63.234375 
Q 18.3125 60.0625 18.3125 54.390625 
z
" id="DejaVuSans-56"/>
     </defs>
     <g transform="translate(794.559937 247.672812)scale(0.1 -0.1)">
      <use xlink:href="#DejaVuSans-104"/>
      <use x="63.378906" xlink:href="#DejaVuSans-116"/>
      <use x="102.587891" xlink:href="#DejaVuSans-109"/>
      <use x="200" xlink:href="#DejaVuSans-95"/>
      <use x="250" xlink:href="#DejaVuSans-56"/>
      <use x="313.623047" xlink:href="#DejaVuSans-95"/>
      <use x="363.623047" xlink:href="#DejaVuSans-49"/>
      <use x="427.246094" xlink:href="#DejaVuSans-103"/>
     </g>
    </g>
   </g>
  </g>
 </g>
 <defs>
  <clipPath id="pbf44687ca6">
   <rect height="377.96" width="691.72" x="32.56" y="26.16"/>
  </clipPath>
 </defs>
</svg>
