<?xml version="1.0" encoding="utf-8" standalone="no"?>
<!DOCTYPE svg PUBLIC "-//W3C//DTD SVG 1.1//EN"
  "http://www.w3.org/Graphics/SVG/1.1/DTD/svg11.dtd">
<!-- Created with matplotlib (https://matplotlib.org/) -->
<svg height="432pt" version="1.1" viewBox="0 0 864 432" width="864pt" xmlns="http://www.w3.org/2000/svg" xmlns:xlink="http://www.w3.org/1999/xlink">
 <defs>
  <style type="text/css">
*{stroke-linecap:butt;stroke-linejoin:round;}
  </style>
 </defs>
 <g id="figure_1">
  <g id="patch_1">
   <path d="M 0 432 
L 864 432 
L 864 0 
L 0 0 
z
" style="fill:#ffffff;"/>
  </g>
  <g id="axes_1">
   <g id="patch_2">
    <path d="M 42.1 404.12 
L 724.28 404.12 
L 724.28 26.52 
L 42.1 26.52 
z
" style="fill:#ffffff;"/>
   </g>
   <g id="matplotlib.axis_1">
    <g id="xtick_1">
     <g id="line2d_1">
      <defs>
       <path d="M 0 0 
L 0 3.5 
" id="m16bdde0210" style="stroke:#000000;stroke-width:0.8;"/>
      </defs>
      <g>
       <use style="stroke:#000000;stroke-width:0.8;" x="42.1" xlink:href="#m16bdde0210" y="404.12"/>
      </g>
     </g>
     <g id="text_1">
      <!-- 0 -->
      <defs>
       <path d="M 31.78125 66.40625 
Q 24.171875 66.40625 20.328125 58.90625 
Q 16.5 51.421875 16.5 36.375 
Q 16.5 21.390625 20.328125 13.890625 
Q 24.171875 6.390625 31.78125 6.390625 
Q 39.453125 6.390625 43.28125 13.890625 
Q 47.125 21.390625 47.125 36.375 
Q 47.125 51.421875 43.28125 58.90625 
Q 39.453125 66.40625 31.78125 66.40625 
z
M 31.78125 74.21875 
Q 44.046875 74.21875 50.515625 64.515625 
Q 56.984375 54.828125 56.984375 36.375 
Q 56.984375 17.96875 50.515625 8.265625 
Q 44.046875 -1.421875 31.78125 -1.421875 
Q 19.53125 -1.421875 13.0625 8.265625 
Q 6.59375 17.96875 6.59375 36.375 
Q 6.59375 54.828125 13.0625 64.515625 
Q 19.53125 74.21875 31.78125 74.21875 
z
" id="DejaVuSans-48"/>
      </defs>
      <g transform="translate(38.91875 418.718437)scale(0.1 -0.1)">
       <use xlink:href="#DejaVuSans-48"/>
      </g>
     </g>
    </g>
    <g id="xtick_2">
     <g id="line2d_2">
      <g>
       <use style="stroke:#000000;stroke-width:0.8;" x="178.672573" xlink:href="#m16bdde0210" y="404.12"/>
      </g>
     </g>
     <g id="text_2">
      <!-- 200 -->
      <defs>
       <path d="M 19.1875 8.296875 
L 53.609375 8.296875 
L 53.609375 0 
L 7.328125 0 
L 7.328125 8.296875 
Q 12.9375 14.109375 22.625 23.890625 
Q 32.328125 33.6875 34.8125 36.53125 
Q 39.546875 41.84375 41.421875 45.53125 
Q 43.3125 49.21875 43.3125 52.78125 
Q 43.3125 58.59375 39.234375 62.25 
Q 35.15625 65.921875 28.609375 65.921875 
Q 23.96875 65.921875 18.8125 64.3125 
Q 13.671875 62.703125 7.8125 59.421875 
L 7.8125 69.390625 
Q 13.765625 71.78125 18.9375 73 
Q 24.125 74.21875 28.421875 74.21875 
Q 39.75 74.21875 46.484375 68.546875 
Q 53.21875 62.890625 53.21875 53.421875 
Q 53.21875 48.921875 51.53125 44.890625 
Q 49.859375 40.875 45.40625 35.40625 
Q 44.1875 33.984375 37.640625 27.21875 
Q 31.109375 20.453125 19.1875 8.296875 
z
" id="DejaVuSans-50"/>
      </defs>
      <g transform="translate(169.128823 418.718437)scale(0.1 -0.1)">
       <use xlink:href="#DejaVuSans-50"/>
       <use x="63.623047" xlink:href="#DejaVuSans-48"/>
       <use x="127.246094" xlink:href="#DejaVuSans-48"/>
      </g>
     </g>
    </g>
    <g id="xtick_3">
     <g id="line2d_3">
      <g>
       <use style="stroke:#000000;stroke-width:0.8;" x="315.245145" xlink:href="#m16bdde0210" y="404.12"/>
      </g>
     </g>
     <g id="text_3">
      <!-- 400 -->
      <defs>
       <path d="M 37.796875 64.3125 
L 12.890625 25.390625 
L 37.796875 25.390625 
z
M 35.203125 72.90625 
L 47.609375 72.90625 
L 47.609375 25.390625 
L 58.015625 25.390625 
L 58.015625 17.1875 
L 47.609375 17.1875 
L 47.609375 0 
L 37.796875 0 
L 37.796875 17.1875 
L 4.890625 17.1875 
L 4.890625 26.703125 
z
" id="DejaVuSans-52"/>
      </defs>
      <g transform="translate(305.701395 418.718437)scale(0.1 -0.1)">
       <use xlink:href="#DejaVuSans-52"/>
       <use x="63.623047" xlink:href="#DejaVuSans-48"/>
       <use x="127.246094" xlink:href="#DejaVuSans-48"/>
      </g>
     </g>
    </g>
    <g id="xtick_4">
     <g id="line2d_4">
      <g>
       <use style="stroke:#000000;stroke-width:0.8;" x="451.817718" xlink:href="#m16bdde0210" y="404.12"/>
      </g>
     </g>
     <g id="text_4">
      <!-- 600 -->
      <defs>
       <path d="M 33.015625 40.375 
Q 26.375 40.375 22.484375 35.828125 
Q 18.609375 31.296875 18.609375 23.390625 
Q 18.609375 15.53125 22.484375 10.953125 
Q 26.375 6.390625 33.015625 6.390625 
Q 39.65625 6.390625 43.53125 10.953125 
Q 47.40625 15.53125 47.40625 23.390625 
Q 47.40625 31.296875 43.53125 35.828125 
Q 39.65625 40.375 33.015625 40.375 
z
M 52.59375 71.296875 
L 52.59375 62.3125 
Q 48.875 64.0625 45.09375 64.984375 
Q 41.3125 65.921875 37.59375 65.921875 
Q 27.828125 65.921875 22.671875 59.328125 
Q 17.53125 52.734375 16.796875 39.40625 
Q 19.671875 43.65625 24.015625 45.921875 
Q 28.375 48.1875 33.59375 48.1875 
Q 44.578125 48.1875 50.953125 41.515625 
Q 57.328125 34.859375 57.328125 23.390625 
Q 57.328125 12.15625 50.6875 5.359375 
Q 44.046875 -1.421875 33.015625 -1.421875 
Q 20.359375 -1.421875 13.671875 8.265625 
Q 6.984375 17.96875 6.984375 36.375 
Q 6.984375 53.65625 15.1875 63.9375 
Q 23.390625 74.21875 37.203125 74.21875 
Q 40.921875 74.21875 44.703125 73.484375 
Q 48.484375 72.75 52.59375 71.296875 
z
" id="DejaVuSans-54"/>
      </defs>
      <g transform="translate(442.273968 418.718437)scale(0.1 -0.1)">
       <use xlink:href="#DejaVuSans-54"/>
       <use x="63.623047" xlink:href="#DejaVuSans-48"/>
       <use x="127.246094" xlink:href="#DejaVuSans-48"/>
      </g>
     </g>
    </g>
    <g id="xtick_5">
     <g id="line2d_5">
      <g>
       <use style="stroke:#000000;stroke-width:0.8;" x="588.39029" xlink:href="#m16bdde0210" y="404.12"/>
      </g>
     </g>
     <g id="text_5">
      <!-- 800 -->
      <defs>
       <path d="M 31.78125 34.625 
Q 24.75 34.625 20.71875 30.859375 
Q 16.703125 27.09375 16.703125 20.515625 
Q 16.703125 13.921875 20.71875 10.15625 
Q 24.75 6.390625 31.78125 6.390625 
Q 38.8125 6.390625 42.859375 10.171875 
Q 46.921875 13.96875 46.921875 20.515625 
Q 46.921875 27.09375 42.890625 30.859375 
Q 38.875 34.625 31.78125 34.625 
z
M 21.921875 38.8125 
Q 15.578125 40.375 12.03125 44.71875 
Q 8.5 49.078125 8.5 55.328125 
Q 8.5 64.0625 14.71875 69.140625 
Q 20.953125 74.21875 31.78125 74.21875 
Q 42.671875 74.21875 48.875 69.140625 
Q 55.078125 64.0625 55.078125 55.328125 
Q 55.078125 49.078125 51.53125 44.71875 
Q 48 40.375 41.703125 38.8125 
Q 48.828125 37.15625 52.796875 32.3125 
Q 56.78125 27.484375 56.78125 20.515625 
Q 56.78125 9.90625 50.3125 4.234375 
Q 43.84375 -1.421875 31.78125 -1.421875 
Q 19.734375 -1.421875 13.25 4.234375 
Q 6.78125 9.90625 6.78125 20.515625 
Q 6.78125 27.484375 10.78125 32.3125 
Q 14.796875 37.15625 21.921875 38.8125 
z
M 18.3125 54.390625 
Q 18.3125 48.734375 21.84375 45.5625 
Q 25.390625 42.390625 31.78125 42.390625 
Q 38.140625 42.390625 41.71875 45.5625 
Q 45.3125 48.734375 45.3125 54.390625 
Q 45.3125 60.0625 41.71875 63.234375 
Q 38.140625 66.40625 31.78125 66.40625 
Q 25.390625 66.40625 21.84375 63.234375 
Q 18.3125 60.0625 18.3125 54.390625 
z
" id="DejaVuSans-56"/>
      </defs>
      <g transform="translate(578.84654 418.718437)scale(0.1 -0.1)">
       <use xlink:href="#DejaVuSans-56"/>
       <use x="63.623047" xlink:href="#DejaVuSans-48"/>
       <use x="127.246094" xlink:href="#DejaVuSans-48"/>
      </g>
     </g>
    </g>
   </g>
   <g id="matplotlib.axis_2">
    <g id="ytick_1">
     <g id="line2d_6">
      <defs>
       <path d="M 0 0 
L -3.5 0 
" id="m23e6737f0e" style="stroke:#000000;stroke-width:0.8;"/>
      </defs>
      <g>
       <use style="stroke:#000000;stroke-width:0.8;" x="42.1" xlink:href="#m23e6737f0e" y="383.100069"/>
      </g>
     </g>
     <g id="text_6">
      <!-- −2.0 -->
      <defs>
       <path d="M 10.59375 35.5 
L 73.1875 35.5 
L 73.1875 27.203125 
L 10.59375 27.203125 
z
" id="DejaVuSans-8722"/>
       <path d="M 10.6875 12.40625 
L 21 12.40625 
L 21 0 
L 10.6875 0 
z
" id="DejaVuSans-46"/>
      </defs>
      <g transform="translate(10.817188 386.899287)scale(0.1 -0.1)">
       <use xlink:href="#DejaVuSans-8722"/>
       <use x="83.789062" xlink:href="#DejaVuSans-50"/>
       <use x="147.412109" xlink:href="#DejaVuSans-46"/>
       <use x="179.199219" xlink:href="#DejaVuSans-48"/>
      </g>
     </g>
    </g>
    <g id="ytick_2">
     <g id="line2d_7">
      <g>
       <use style="stroke:#000000;stroke-width:0.8;" x="42.1" xlink:href="#m23e6737f0e" y="336.486426"/>
      </g>
     </g>
     <g id="text_7">
      <!-- −1.5 -->
      <defs>
       <path d="M 12.40625 8.296875 
L 28.515625 8.296875 
L 28.515625 63.921875 
L 10.984375 60.40625 
L 10.984375 69.390625 
L 28.421875 72.90625 
L 38.28125 72.90625 
L 38.28125 8.296875 
L 54.390625 8.296875 
L 54.390625 0 
L 12.40625 0 
z
" id="DejaVuSans-49"/>
       <path d="M 10.796875 72.90625 
L 49.515625 72.90625 
L 49.515625 64.59375 
L 19.828125 64.59375 
L 19.828125 46.734375 
Q 21.96875 47.46875 24.109375 47.828125 
Q 26.265625 48.1875 28.421875 48.1875 
Q 40.625 48.1875 47.75 41.5 
Q 54.890625 34.8125 54.890625 23.390625 
Q 54.890625 11.625 47.5625 5.09375 
Q 40.234375 -1.421875 26.90625 -1.421875 
Q 22.3125 -1.421875 17.546875 -0.640625 
Q 12.796875 0.140625 7.71875 1.703125 
L 7.71875 11.625 
Q 12.109375 9.234375 16.796875 8.0625 
Q 21.484375 6.890625 26.703125 6.890625 
Q 35.15625 6.890625 40.078125 11.328125 
Q 45.015625 15.765625 45.015625 23.390625 
Q 45.015625 31 40.078125 35.4375 
Q 35.15625 39.890625 26.703125 39.890625 
Q 22.75 39.890625 18.8125 39.015625 
Q 14.890625 38.140625 10.796875 36.28125 
z
" id="DejaVuSans-53"/>
      </defs>
      <g transform="translate(10.817188 340.285645)scale(0.1 -0.1)">
       <use xlink:href="#DejaVuSans-8722"/>
       <use x="83.789062" xlink:href="#DejaVuSans-49"/>
       <use x="147.412109" xlink:href="#DejaVuSans-46"/>
       <use x="179.199219" xlink:href="#DejaVuSans-53"/>
      </g>
     </g>
    </g>
    <g id="ytick_3">
     <g id="line2d_8">
      <g>
       <use style="stroke:#000000;stroke-width:0.8;" x="42.1" xlink:href="#m23e6737f0e" y="289.872783"/>
      </g>
     </g>
     <g id="text_8">
      <!-- −1.0 -->
      <g transform="translate(10.817188 293.672002)scale(0.1 -0.1)">
       <use xlink:href="#DejaVuSans-8722"/>
       <use x="83.789062" xlink:href="#DejaVuSans-49"/>
       <use x="147.412109" xlink:href="#DejaVuSans-46"/>
       <use x="179.199219" xlink:href="#DejaVuSans-48"/>
      </g>
     </g>
    </g>
    <g id="ytick_4">
     <g id="line2d_9">
      <g>
       <use style="stroke:#000000;stroke-width:0.8;" x="42.1" xlink:href="#m23e6737f0e" y="243.25914"/>
      </g>
     </g>
     <g id="text_9">
      <!-- −0.5 -->
      <g transform="translate(10.817188 247.058359)scale(0.1 -0.1)">
       <use xlink:href="#DejaVuSans-8722"/>
       <use x="83.789062" xlink:href="#DejaVuSans-48"/>
       <use x="147.412109" xlink:href="#DejaVuSans-46"/>
       <use x="179.199219" xlink:href="#DejaVuSans-53"/>
      </g>
     </g>
    </g>
    <g id="ytick_5">
     <g id="line2d_10">
      <g>
       <use style="stroke:#000000;stroke-width:0.8;" x="42.1" xlink:href="#m23e6737f0e" y="196.645497"/>
      </g>
     </g>
     <g id="text_10">
      <!-- 0.0 -->
      <g transform="translate(19.196875 200.444716)scale(0.1 -0.1)">
       <use xlink:href="#DejaVuSans-48"/>
       <use x="63.623047" xlink:href="#DejaVuSans-46"/>
       <use x="95.410156" xlink:href="#DejaVuSans-48"/>
      </g>
     </g>
    </g>
    <g id="ytick_6">
     <g id="line2d_11">
      <g>
       <use style="stroke:#000000;stroke-width:0.8;" x="42.1" xlink:href="#m23e6737f0e" y="150.031855"/>
      </g>
     </g>
     <g id="text_11">
      <!-- 0.5 -->
      <g transform="translate(19.196875 153.831073)scale(0.1 -0.1)">
       <use xlink:href="#DejaVuSans-48"/>
       <use x="63.623047" xlink:href="#DejaVuSans-46"/>
       <use x="95.410156" xlink:href="#DejaVuSans-53"/>
      </g>
     </g>
    </g>
    <g id="ytick_7">
     <g id="line2d_12">
      <g>
       <use style="stroke:#000000;stroke-width:0.8;" x="42.1" xlink:href="#m23e6737f0e" y="103.418212"/>
      </g>
     </g>
     <g id="text_12">
      <!-- 1.0 -->
      <g transform="translate(19.196875 107.217431)scale(0.1 -0.1)">
       <use xlink:href="#DejaVuSans-49"/>
       <use x="63.623047" xlink:href="#DejaVuSans-46"/>
       <use x="95.410156" xlink:href="#DejaVuSans-48"/>
      </g>
     </g>
    </g>
    <g id="ytick_8">
     <g id="line2d_13">
      <g>
       <use style="stroke:#000000;stroke-width:0.8;" x="42.1" xlink:href="#m23e6737f0e" y="56.804569"/>
      </g>
     </g>
     <g id="text_13">
      <!-- 1.5 -->
      <g transform="translate(19.196875 60.603788)scale(0.1 -0.1)">
       <use xlink:href="#DejaVuSans-49"/>
       <use x="63.623047" xlink:href="#DejaVuSans-46"/>
       <use x="95.410156" xlink:href="#DejaVuSans-53"/>
      </g>
     </g>
    </g>
   </g>
   <g id="line2d_14">
    <path clip-path="url(#pbcc5992a51)" d="M 55.074394 196.645497 
L 724.28 196.645497 
L 724.28 196.645497 
" style="fill:none;stroke:#1f77b4;stroke-linecap:square;stroke-width:1.5;"/>
   </g>
   <g id="line2d_15">
    <path clip-path="url(#pbcc5992a51)" d="M 55.074394 173.289101 
L 55.757257 173.289101 
L 56.44012 169.017936 
L 57.805846 169.017936 
L 58.488709 189.143321 
L 59.171572 185.91231 
L 59.854434 184.022289 
L 61.903023 184.022289 
L 62.585886 182.132268 
L 63.951612 182.132268 
L 64.634474 180.242248 
L 65.317337 180.242248 
L 66.0002 178.352227 
L 66.683063 178.352227 
L 67.365926 181.583239 
L 68.048789 181.583239 
L 68.731652 178.352227 
L 69.414515 178.352227 
L 70.097377 182.623392 
L 72.145966 182.623392 
L 72.828829 183.964383 
L 73.511692 185.854404 
L 77.608869 185.854404 
L 78.291732 187.744424 
L 78.974595 187.744424 
L 79.657457 189.634445 
L 81.706046 189.634445 
L 82.388909 192.865456 
L 83.071772 190.975436 
L 84.437497 190.975436 
L 85.12036 189.085415 
L 87.851812 189.085415 
L 89.217538 185.305374 
L 89.9004 187.195395 
L 92.631852 187.195395 
L 93.314715 185.305374 
L 98.094755 185.305374 
L 98.777618 187.195395 
L 99.46048 187.195395 
L 100.143343 189.085415 
L 100.826206 189.085415 
L 101.509069 187.195395 
L 102.874795 190.975436 
L 104.923383 190.975436 
L 106.289109 187.195395 
L 106.971972 189.085415 
L 107.654835 187.195395 
L 109.703423 187.195395 
L 110.386286 189.085415 
L 115.849189 189.085415 
L 116.532052 180.014819 
L 118.580641 180.014819 
L 119.263504 161.779455 
L 119.946366 163.669475 
L 120.629229 143.54409 
L 121.312092 145.434111 
L 121.994955 145.434111 
L 122.677818 143.54409 
L 125.409269 143.54409 
L 126.092132 140.313079 
L 126.774995 120.187694 
L 128.140721 120.187694 
L 128.823584 122.077715 
L 129.506446 120.187694 
L 130.189309 127.36827 
L 130.872172 127.36827 
L 131.555035 124.137258 
L 132.237898 124.137258 
L 132.920761 144.262643 
L 133.603624 144.262643 
L 134.286486 164.388028 
L 135.652212 164.388028 
L 136.335075 166.278048 
L 139.066527 166.278048 
L 139.749389 169.50906 
L 140.432252 187.744424 
L 141.115115 167.619039 
L 141.797978 164.388028 
L 142.480841 164.388028 
L 143.846567 168.168069 
L 144.529429 168.168069 
L 145.212292 171.39908 
L 146.578018 171.39908 
L 147.260881 167.127916 
L 149.992332 167.127916 
L 150.675195 165.237895 
L 153.406647 165.237895 
L 154.08951 167.127916 
L 154.772372 187.2533 
L 155.455235 190.484312 
L 159.552412 190.484312 
L 160.235275 179.099643 
L 160.918138 183.370808 
L 163.64959 183.370808 
L 164.332452 185.260828 
L 166.381041 185.260828 
L 167.063904 183.370808 
L 168.42963 183.370808 
L 169.112492 181.480787 
L 173.20967 181.480787 
L 173.892533 192.865456 
L 177.306847 192.865456 
L 177.98971 190.975436 
L 178.672573 190.975436 
L 179.355435 193.254128 
L 180.038298 188.800141 
L 180.721161 188.499304 
L 181.404024 188.499304 
L 182.086887 174.774201 
L 182.76975 173.924334 
L 183.452613 173.924334 
L 184.135475 173.074467 
L 184.818338 173.074467 
L 185.501201 170.883609 
L 186.184064 166.084178 
L 186.866927 166.084178 
L 187.54979 164.515758 
L 188.915516 164.515758 
L 189.598378 160.840471 
L 190.964104 160.840471 
L 191.646967 161.880624 
L 192.32983 161.880624 
L 193.012693 159.601932 
L 193.695556 170.839542 
L 194.378418 185.653609 
L 195.061281 179.949146 
L 195.744144 192.824381 
L 196.427007 195.564269 
L 197.10987 194.714402 
L 197.792733 211.418489 
L 198.475596 225.081851 
L 199.158458 223.597422 
L 199.841321 228.396853 
L 200.524184 244.251073 
L 201.207047 250.757703 
L 201.88991 264.421065 
L 202.572773 263.571198 
L 203.255636 267.246485 
L 205.987087 267.246485 
L 206.66995 283.100705 
L 207.352813 261.742111 
L 208.035676 249.118902 
L 208.718539 254.823366 
L 209.401401 255.673233 
L 210.084264 254.823366 
L 210.767127 255.673233 
L 211.44999 255.673233 
L 212.132853 253.410104 
L 212.815716 253.854379 
L 213.498579 253.854379 
L 214.181441 238.000159 
L 214.864304 233.061949 
L 215.547167 216.6587 
L 216.912893 215.09028 
L 217.595756 213.52186 
L 218.278619 213.52186 
L 218.961481 214.371728 
L 219.644344 213.52186 
L 220.327207 197.66764 
L 221.01007 212.24261 
L 221.692933 210.051752 
L 222.375796 208.483333 
L 223.058659 208.483333 
L 223.741522 209.3332 
L 224.424384 209.3332 
L 225.107247 193.47898 
L 225.79011 181.228879 
L 226.472973 183.610024 
L 227.838699 183.610024 
L 228.521562 182.760157 
L 229.887287 186.218597 
L 230.57015 186.218597 
L 231.253013 187.787016 
L 232.618739 187.787016 
L 233.301602 187.068464 
L 234.667327 187.068464 
L 235.35019 189.259322 
L 236.033053 190.827742 
L 237.398779 189.128007 
L 238.081642 189.128007 
L 238.764505 188.27814 
L 240.13023 216.442608 
L 240.813093 212.361729 
L 241.495956 226.025091 
L 242.178819 222.79408 
L 242.861682 222.79408 
L 243.544545 234.973013 
L 244.227407 227.96196 
L 244.91027 227.96196 
L 246.275996 226.262226 
L 246.958859 227.830645 
L 247.641722 225.090757 
L 249.007447 223.391023 
L 249.69031 223.391023 
L 250.373173 221.501003 
L 251.056036 222.35087 
L 251.738899 220.160012 
L 252.421762 220.160012 
L 253.104625 205.024344 
L 253.787487 192.845411 
L 254.47035 196.92629 
L 255.153213 181.694508 
L 255.836076 185.775387 
L 256.518939 183.885366 
L 257.201802 171.706433 
L 257.884665 192.190562 
L 258.567528 206.476362 
L 259.25039 200.212725 
L 259.933253 201.062592 
L 260.616116 201.062592 
L 261.298979 203.80248 
L 261.981842 204.652347 
L 262.664705 219.165576 
L 263.347568 215.084697 
L 264.03043 216.256165 
L 264.713293 214.687746 
L 265.396156 216.878604 
L 266.761882 218.578338 
L 267.444745 217.009919 
L 268.127608 214.819061 
L 268.81047 214.819061 
L 269.493333 230.67328 
L 270.176196 229.737881 
L 270.859059 229.737881 
L 272.224785 201.260453 
L 272.907648 207.52409 
L 274.273373 207.52409 
L 275.639099 205.824356 
L 276.321962 192.160994 
L 277.004825 196.241872 
L 277.687688 197.810292 
L 278.370551 198.528845 
L 279.053413 214.383065 
L 279.736276 227.497397 
L 280.419139 224.266385 
L 282.467728 228.744216 
L 283.150591 212.040128 
L 283.833453 215.715415 
L 284.516316 212.975528 
L 285.199179 214.543947 
L 285.882042 214.543947 
L 286.564905 212.653927 
L 287.247768 211.804059 
L 287.930631 227.658279 
L 288.613493 224.427268 
L 289.296356 225.277135 
L 289.979219 225.277135 
L 290.662082 224.427268 
L 291.344945 222.858848 
L 292.027808 222.858848 
L 292.710671 207.004628 
L 293.393534 193.890296 
L 294.076396 197.121308 
L 295.442122 197.121308 
L 296.124985 195.552888 
L 296.807848 196.402755 
L 297.490711 195.552888 
L 298.173574 196.724356 
L 299.539299 196.724356 
L 300.222162 199.464244 
L 300.905025 200.314111 
L 301.587888 184.459891 
L 302.270751 188.54077 
L 302.953614 188.54077 
L 303.636476 186.97235 
L 304.319339 187.822217 
L 305.002202 187.822217 
L 305.685065 188.672084 
L 306.367928 204.526304 
L 307.733654 202.82657 
L 308.416517 202.82657 
L 309.099379 201.485579 
L 309.782242 203.053999 
L 310.465105 199.378712 
L 311.147968 198.660159 
L 311.830831 200.228579 
L 313.879419 197.678977 
L 315.245145 197.678977 
L 315.928008 200.164876 
L 316.610871 206.565158 
L 317.976597 228.647635 
L 318.659459 222.713878 
L 319.342322 238.568098 
L 320.025185 213.643282 
L 320.708048 213.643282 
L 321.390911 226.26649 
L 322.073774 236.416247 
L 322.756637 234.153118 
L 323.439499 227.463667 
L 324.122362 246.993174 
L 324.805225 243.139724 
L 325.488088 243.139724 
L 326.170951 243.989591 
L 326.853814 243.989591 
L 327.536677 241.608447 
L 328.902402 241.608447 
L 329.585265 237.554128 
L 330.268128 231.153846 
L 330.950991 222.413131 
L 331.633854 201.310162 
L 332.316717 207.962471 
L 332.99958 192.108251 
L 333.682442 201.178847 
L 334.365305 202.028714 
L 335.048168 189.405506 
L 335.731031 179.255749 
L 336.413894 180.478724 
L 337.096757 186.318309 
L 337.77962 167.724201 
L 338.462482 173.146071 
L 339.145345 173.146071 
L 340.511071 171.577651 
L 341.193934 174.808663 
L 341.876797 174.808663 
L 342.55966 172.068775 
L 343.242523 176.018339 
L 344.608248 174.318605 
L 345.291111 183.648232 
L 345.973974 184.498099 
L 347.3397 184.498099 
L 348.022563 183.648232 
L 348.705425 184.498099 
L 349.388288 184.498099 
L 350.071151 187.729111 
L 350.754014 188.578978 
L 351.436877 191.318866 
L 352.11974 191.318866 
L 352.802603 189.750446 
L 353.485465 190.600313 
L 354.168328 192.168733 
L 354.851191 190.600313 
L 355.534054 187.860425 
L 356.216917 189.031893 
L 356.89978 186.650749 
L 358.265506 188.350483 
L 358.948368 187.500616 
L 359.631231 187.500616 
L 360.314094 185.932197 
L 360.996957 185.082329 
L 362.362683 185.082329 
L 363.728408 183.382595 
L 365.776997 183.382595 
L 366.45986 198.614377 
L 367.142723 197.045957 
L 367.825586 197.045957 
L 368.508448 198.614377 
L 369.191311 199.785845 
L 369.874174 201.354264 
L 370.557037 200.504397 
L 371.922763 200.504397 
L 372.605626 201.354264 
L 373.288488 201.354264 
L 373.971351 202.922684 
L 374.654214 203.772551 
L 375.337077 201.391407 
L 376.01994 200.54154 
L 376.702803 199.200549 
L 377.385666 198.481996 
L 379.434254 198.481996 
L 380.117117 183.968767 
L 380.79998 185.537187 
L 382.165706 185.537187 
L 382.848569 187.105607 
L 383.531431 187.105607 
L 384.214294 187.955474 
L 384.897157 186.387054 
L 385.58002 186.387054 
L 386.262883 184.818634 
L 386.945746 184.818634 
L 387.628609 183.250215 
L 388.311471 181.059357 
L 388.994334 184.290368 
L 389.677197 185.140235 
L 390.36006 185.140235 
L 391.042923 186.708655 
L 392.408649 183.571816 
L 393.774374 183.571816 
L 394.457237 182.003396 
L 395.1401 181.153529 
L 397.871552 181.153529 
L 398.554414 198.576168 
L 399.237277 196.38531 
L 399.92014 197.95373 
L 400.603003 197.103863 
L 401.968729 200.013273 
L 402.651592 198.444854 
L 403.334454 198.444854 
L 404.017317 200.635712 
L 404.70018 199.785845 
L 406.065906 202.922684 
L 406.748769 202.072817 
L 407.431632 202.922684 
L 408.114494 204.491104 
L 408.797357 205.340971 
L 410.163083 205.340971 
L 410.845946 203.772551 
L 411.528809 203.772551 
L 412.211672 187.918331 
L 412.894535 190.109189 
L 413.577397 190.109189 
L 414.26026 190.959057 
L 414.943123 187.728045 
L 415.625986 187.009493 
L 416.308849 188.577912 
L 416.991712 187.728045 
L 417.674575 187.728045 
L 418.357437 188.577912 
L 419.0403 188.577912 
L 419.723163 186.387054 
L 420.406026 187.236921 
L 421.088889 185.668502 
L 421.771752 182.928614 
L 422.454615 182.928614 
L 423.137477 179.697602 
L 423.82034 178.129183 
L 424.503203 179.697602 
L 427.234655 179.697602 
L 427.917518 178.847735 
L 428.60038 179.887889 
L 429.283243 179.26545 
L 429.966106 177.69703 
L 430.648969 176.978478 
L 431.331832 175.410058 
L 434.063283 175.410058 
L 434.746146 176.128611 
L 435.429009 178.868499 
L 436.111872 178.868499 
L 436.794735 182.09951 
L 437.477598 183.66793 
L 438.16046 186.049074 
L 438.843323 186.049074 
L 439.526186 201.903294 
L 440.209049 199.712436 
L 440.891912 198.862569 
L 441.574775 199.712436 
L 442.257638 201.053427 
L 442.940501 203.244285 
L 443.623363 202.621846 
L 444.306226 203.340399 
L 444.989089 204.908819 
L 445.671952 202.71796 
L 446.354815 201.149541 
L 447.037678 203.340399 
L 447.720541 203.340399 
L 448.403403 202.621846 
L 449.086266 202.621846 
L 449.769129 199.881959 
L 450.451992 194.177496 
L 451.134855 193.327628 
L 451.817718 190.946484 
L 452.500581 190.946484 
L 453.183443 176.017316 
L 453.866306 178.208174 
L 454.549169 179.058042 
L 455.232032 179.058042 
L 455.914895 179.907909 
L 456.597758 179.907909 
L 457.280621 182.098767 
L 457.963483 185.996824 
L 458.646346 195.628117 
L 459.329209 201.645865 
L 460.012072 215.393217 
L 460.694935 220.421942 
L 461.377798 213.41089 
L 462.060661 228.642671 
L 462.743524 238.273965 
L 463.426386 236.298412 
L 464.109249 252.736063 
L 464.792112 255.429569 
L 465.474975 253.94514 
L 466.840701 277.738239 
L 467.523564 273.022798 
L 468.206426 273.022798 
L 468.889289 267.183214 
L 469.572152 267.183214 
L 470.255015 264.920085 
L 470.937878 278.583447 
L 471.620741 272.021652 
L 472.303604 270.932688 
L 472.986466 280.220131 
L 473.669329 264.00913 
L 474.352192 258.980405 
L 475.035055 265.991458 
L 475.717918 252.328096 
L 476.400781 255.811135 
L 477.083644 271.581364 
L 477.766507 259.363747 
L 478.449369 257.520108 
L 479.132232 257.964384 
L 479.815095 246.909595 
L 480.497958 230.983105 
L 481.180821 235.698545 
L 481.863684 235.698545 
L 482.546547 241.538129 
L 483.229409 241.538129 
L 483.912272 243.801258 
L 484.595135 228.247876 
L 485.277998 231.212451 
L 485.960861 221.629968 
L 486.643724 206.625615 
L 487.326587 209.61753 
L 488.009449 209.0685 
L 488.692312 207.584071 
L 489.375175 207.035042 
L 490.058038 193.92071 
L 490.740901 192.030689 
L 491.423764 202.463039 
L 492.106627 196.459881 
L 492.789489 197.500035 
L 493.472352 196.459881 
L 494.155215 198.173981 
L 494.838078 198.173981 
L 496.203804 193.647723 
L 496.886667 193.098693 
L 497.56953 193.098693 
L 498.252392 194.988714 
L 498.935255 195.537744 
L 499.618118 194.687876 
L 500.300981 195.537744 
L 501.666707 222.0146 
L 502.34957 221.2359 
L 503.032432 219.894909 
L 503.715295 219.894909 
L 504.398158 209.689988 
L 505.081021 212.920999 
L 505.763884 230.697498 
L 506.446747 226.66543 
L 507.12961 240.328792 
L 507.812472 239.393393 
L 508.495335 239.393393 
L 509.178198 241.656522 
L 509.861061 243.370621 
L 510.543924 243.91965 
L 512.592513 243.91965 
L 513.275375 245.809671 
L 513.958238 246.849824 
L 514.641101 231.126919 
L 516.006827 232.755486 
L 516.68969 230.374342 
L 517.372553 242.99755 
L 518.055415 240.524099 
L 519.421141 214.982641 
L 520.104004 219.01471 
L 520.786867 206.391501 
L 521.46973 207.87593 
L 522.152593 207.87593 
L 524.201181 206.286747 
L 524.884044 206.286747 
L 525.566907 205.737717 
L 526.24977 205.737717 
L 526.932633 203.847697 
L 527.615495 201.239124 
L 528.298358 203.298667 
L 528.981221 190.675459 
L 529.664084 192.159888 
L 530.346947 196.431052 
L 531.02981 183.807844 
L 531.712673 186.281296 
L 532.395536 187.321449 
L 533.078398 186.38605 
L 533.761261 186.38605 
L 534.444124 185.345896 
L 535.126987 183.861467 
L 535.80985 183.861467 
L 536.492713 182.520477 
L 537.175576 183.56063 
L 537.858438 182.625231 
L 538.541301 182.625231 
L 539.224164 183.17426 
L 539.907027 196.837622 
L 540.58989 196.837622 
L 541.272753 199.446195 
L 543.321341 199.446195 
L 544.004204 197.961766 
L 544.687067 196.071746 
L 545.36993 195.221879 
L 546.052793 194.181725 
L 546.735656 208.780486 
L 547.418519 205.850312 
L 548.784244 207.825865 
L 549.467107 207.825865 
L 550.14997 209.715886 
L 550.832833 222.339094 
L 551.515696 220.893349 
L 552.881421 220.893349 
L 553.564284 206.680957 
L 554.247147 208.570978 
L 554.93001 205.962405 
L 555.612873 204.248306 
L 556.295736 201.985177 
L 556.978599 201.985177 
L 557.661461 202.920576 
L 558.344324 204.810597 
L 559.027187 204.810597 
L 559.71005 205.301721 
L 560.392913 189.578815 
L 561.075776 190.618969 
L 561.758639 190.618969 
L 562.441502 191.167998 
L 563.124364 190.618969 
L 563.807227 190.618969 
L 564.49009 177.99576 
L 565.172953 180.925934 
L 565.855816 180.925934 
L 566.538679 179.441505 
L 567.221542 178.506106 
L 567.904404 177.021677 
L 569.27013 180.304196 
L 569.952993 181.082896 
L 570.635856 181.082896 
L 571.318719 181.631926 
L 572.001582 181.631926 
L 572.684444 182.972917 
L 573.367307 181.258817 
L 574.733033 185.208381 
L 575.415896 184.168228 
L 576.781622 184.168228 
L 578.147347 182.087921 
L 578.83021 181.538892 
L 579.513073 181.538892 
L 580.195936 183.02332 
L 580.878799 183.95872 
L 581.561662 182.834575 
L 582.244525 183.874729 
L 583.61025 184.868034 
L 584.293113 184.868034 
L 584.975976 184.319004 
L 585.658839 182.055875 
L 586.341702 182.604905 
L 587.024565 183.383605 
L 587.707427 182.448206 
L 588.39029 182.448206 
L 589.073153 183.488359 
L 589.756016 183.488359 
L 590.438879 184.037389 
L 591.804605 186.117696 
L 592.487467 195.407441 
L 593.17033 209.070803 
L 593.853193 218.954123 
L 595.218919 231.759404 
L 595.901782 237.269108 
L 596.584645 232.148076 
L 597.267508 233.18823 
L 597.95037 247.47403 
L 598.633233 257.415257 
L 599.316096 256.074266 
L 599.998959 271.078618 
L 600.681822 264.342318 
L 601.364685 265.826747 
L 602.047548 265.826747 
L 602.73041 264.485756 
L 603.413273 264.485756 
L 604.096136 263.144765 
L 605.461862 261.707661 
L 606.144725 252.966945 
L 606.827588 237.962592 
L 607.51045 228.079271 
L 608.193313 221.918086 
L 608.876176 218.431593 
L 609.559039 212.203337 
L 610.241902 216.605816 
L 610.924765 216.605816 
L 611.607628 199.938872 
L 612.29049 190.546675 
L 612.973353 191.325375 
L 613.656216 175.602469 
L 614.339079 183.104646 
L 615.021942 181.214625 
L 615.704805 179.873634 
L 616.387668 180.496073 
L 618.436256 180.496073 
L 619.119119 179.873634 
L 619.801982 183.167215 
L 620.484845 174.18061 
L 621.167708 172.290589 
L 622.533433 172.290589 
L 623.216296 173.009142 
L 623.899159 172.386703 
L 624.582022 172.386703 
L 625.264885 173.426857 
L 625.947748 173.426857 
L 626.630611 176.252277 
L 627.313473 176.252277 
L 627.996336 176.970829 
L 628.679199 178.86085 
L 629.362062 180.201841 
L 631.410651 176.649228 
L 632.093514 174.136769 
L 632.776376 175.47776 
L 633.459239 172.184179 
L 634.142102 182.511775 
L 634.824965 184.401796 
L 635.507828 184.401796 
L 636.190691 179.028737 
L 636.873554 179.028737 
L 637.556416 195.37408 
L 638.239279 192.143069 
L 638.922142 193.48406 
L 639.605005 193.48406 
L 640.287868 192.765507 
L 640.970731 193.48406 
L 641.653594 192.143069 
L 642.336456 192.143069 
L 643.019319 190.802078 
L 643.702182 191.973546 
L 644.385045 191.973546 
L 645.067908 193.013699 
L 645.750771 196.244711 
L 647.116496 196.244711 
L 647.799359 195.526158 
L 649.165085 195.526158 
L 649.847948 197.295098 
L 650.530811 197.295098 
L 651.213674 182.290745 
L 651.896537 185.521757 
L 652.579399 185.521757 
L 653.262262 184.803204 
L 654.627988 184.803204 
L 655.310851 186.144195 
L 655.993714 185.425643 
L 656.676577 184.876613 
L 657.359439 184.876613 
L 658.042302 184.327583 
L 658.725165 185.668574 
L 659.408028 184.327583 
L 660.090891 183.609031 
L 661.456617 181.096572 
L 662.139479 180.378019 
L 662.822342 178.487999 
L 663.505205 181.373566 
L 664.188068 180.032575 
L 664.870931 180.032575 
L 665.553794 194.318375 
L 666.236657 190.368811 
L 667.602382 191.805916 
L 668.285245 191.805916 
L 668.968108 190.464925 
L 669.650971 191.183478 
L 670.333834 189.469379 
L 671.016697 189.469379 
L 671.69956 190.640847 
L 672.382422 205.6452 
L 673.065285 203.036627 
L 674.431011 204.377617 
L 675.113874 203.886494 
L 675.796737 203.886494 
L 676.4796 203.39537 
L 677.162462 204.113922 
L 677.845325 205.454913 
L 678.528188 204.736361 
L 679.211051 189.732008 
L 679.893914 191.791552 
L 680.576777 191.791552 
L 681.25964 191.072999 
L 682.625365 191.072999 
L 683.308228 188.691855 
L 683.991091 207.300327 
L 684.673954 205.19346 
L 685.356817 205.912012 
L 686.03968 188.526515 
L 686.722543 190.586059 
L 688.088268 190.586059 
L 688.771131 192.967203 
L 689.453994 192.344765 
L 690.136857 193.384918 
L 690.81972 191.003774 
L 691.502583 191.003774 
L 692.185445 206.726679 
L 692.868308 203.841112 
L 693.551171 205.731132 
L 694.234034 205.01258 
L 694.916897 205.731132 
L 695.59976 205.731132 
L 696.282623 207.072123 
L 696.965485 207.072123 
L 697.648348 192.06777 
L 698.331211 194.89319 
L 699.014074 193.552199 
L 699.696937 195.933344 
L 700.3798 197.823364 
L 701.062663 197.104812 
L 703.111251 197.104812 
L 703.794114 196.555782 
L 704.476977 197.595935 
L 705.15984 196.877383 
L 705.842703 180.532039 
L 706.525566 184.136159 
L 707.208428 184.136159 
L 707.891291 184.854711 
L 708.574154 199.859064 
L 709.257017 195.9095 
L 709.93988 195.9095 
L 710.622743 213.294997 
L 711.305606 210.913853 
L 711.988468 210.913853 
L 712.671331 210.364823 
L 713.354194 210.364823 
L 714.037057 209.023832 
L 714.71992 209.023832 
L 715.402783 209.742385 
L 716.085646 208.401394 
L 717.451371 210.913853 
L 718.134234 209.8737 
L 718.817097 210.592252 
L 719.49996 211.933243 
L 720.182823 211.933243 
L 720.865686 211.214691 
L 721.548549 211.214691 
L 722.231411 194.869347 
L 722.914274 196.92889 
L 723.597137 196.210338 
L 724.28 179.864994 
L 724.28 179.864994 
" style="fill:none;stroke:#ff7f0e;stroke-linecap:square;stroke-width:1.5;"/>
   </g>
   <g id="line2d_16">
    <path clip-path="url(#pbcc5992a51)" d="M 55.074394 176.147004 
L 55.757257 192.374333 
L 56.44012 196.645497 
L 177.98971 196.645497 
L 178.672573 205.593419 
L 179.355435 221.447639 
L 180.721161 221.447639 
L 181.404024 220.597772 
L 182.086887 220.597772 
L 182.76975 219.029352 
L 183.452613 215.798341 
L 185.501201 215.798341 
L 186.184064 213.607482 
L 186.866927 212.757615 
L 187.54979 212.757615 
L 188.232653 210.566757 
L 188.915516 209.71689 
L 189.598378 209.71689 
L 190.964104 208.017156 
L 191.646967 208.017156 
L 192.32983 199.069234 
L 193.012693 182.365147 
L 194.378418 212.505167 
L 195.061281 213.355034 
L 195.744144 211.786615 
L 196.427007 212.505167 
L 197.10987 215.736179 
L 198.475596 247.444619 
L 199.158458 247.444619 
L 199.841321 248.78561 
L 201.88991 297.68926 
L 202.572773 296.970708 
L 203.255636 296.970708 
L 204.621361 298.670442 
L 205.987087 296.970708 
L 206.66995 312.824928 
L 208.035676 279.548068 
L 208.718539 278.698201 
L 210.084264 280.266621 
L 210.767127 278.698201 
L 212.815716 278.698201 
L 213.498579 279.548068 
L 215.547167 233.685143 
L 216.23003 235.253562 
L 216.912893 235.253562 
L 217.595756 234.403695 
L 218.278619 234.403695 
L 219.644344 236.10343 
L 220.327207 221.099077 
L 221.01007 222.667497 
L 221.692933 222.045058 
L 222.375796 222.045058 
L 223.058659 222.894925 
L 223.741522 222.894925 
L 224.424384 224.463345 
L 225.79011 191.905038 
L 226.472973 187.824159 
L 230.57015 187.824159 
L 231.253013 188.674026 
L 231.935876 187.105607 
L 232.618739 187.105607 
L 233.301602 186.255739 
L 234.667327 186.255739 
L 235.35019 188.446598 
L 236.033053 188.446598 
L 237.398779 186.746863 
L 238.081642 184.556005 
L 238.764505 184.556005 
L 239.447367 200.410225 
L 240.13023 219.495456 
L 240.813093 216.755569 
L 241.495956 232.609789 
L 242.178819 231.759921 
L 242.861682 231.759921 
L 243.544545 247.614141 
L 244.227407 244.38313 
L 244.91027 244.38313 
L 245.593133 245.101682 
L 246.275996 244.251815 
L 246.958859 245.101682 
L 247.641722 241.426395 
L 249.007447 241.426395 
L 249.69031 240.707843 
L 250.373173 240.707843 
L 251.056036 241.55771 
L 251.738899 241.55771 
L 252.421762 242.407577 
L 253.787487 211.549005 
L 254.47035 214.288892 
L 255.153213 198.434672 
L 256.518939 196.866253 
L 257.201802 180.162166 
L 258.567528 211.42633 
L 259.933253 213.126064 
L 260.616116 210.935206 
L 261.298979 212.419635 
L 261.981842 207.965648 
L 262.664705 222.970001 
L 263.347568 222.347563 
L 264.03043 223.19743 
L 264.713293 218.397999 
L 265.396156 220.588857 
L 266.079019 219.73899 
L 267.444745 219.73899 
L 268.127608 218.889122 
L 268.81047 216.698264 
L 269.493333 233.271037 
L 270.859059 234.970771 
L 272.224785 203.896893 
L 272.907648 203.896893 
L 273.590511 201.157005 
L 274.956236 205.538721 
L 275.639099 209.992708 
L 276.321962 194.988355 
L 277.004825 196.329346 
L 277.687688 196.329346 
L 278.370551 199.560358 
L 279.053413 213.846158 
L 279.736276 230.550245 
L 280.419139 229.700378 
L 281.102002 227.50952 
L 281.784865 228.359387 
L 282.467728 230.550245 
L 283.150591 215.545892 
L 283.833453 213.355034 
L 284.516316 209.274156 
L 285.199179 209.896594 
L 286.564905 209.896594 
L 287.247768 211.786615 
L 287.930631 225.449977 
L 288.613493 223.881557 
L 289.296356 223.881557 
L 289.979219 223.03169 
L 290.662082 223.881557 
L 291.344945 223.881557 
L 292.027808 225.449977 
L 293.393534 194.460089 
L 294.076396 195.309956 
L 294.759259 196.650947 
L 295.442122 195.80108 
L 296.124985 195.80108 
L 296.807848 193.061192 
L 297.490711 193.683631 
L 298.173574 195.024622 
L 299.539299 195.024622 
L 300.222162 191.79361 
L 300.905025 192.643477 
L 301.587888 178.980115 
L 302.270751 179.698668 
L 304.319339 179.698668 
L 305.002202 176.95878 
L 305.685065 176.95878 
L 306.367928 193.662867 
L 307.050791 193.662867 
L 307.733654 192.813 
L 308.416517 193.662867 
L 309.099379 193.662867 
L 309.782242 192.813 
L 310.465105 195.552888 
L 311.147968 196.27144 
L 311.830831 199.011328 
L 312.513694 200.579748 
L 313.196557 201.429615 
L 313.879419 204.660627 
L 314.562282 204.660627 
L 317.976597 297.537182 
L 318.659459 302.658214 
L 319.342322 320.893579 
L 320.025185 307.420503 
L 320.708048 309.801647 
L 322.073774 347.122243 
L 323.439499 353.584266 
L 324.122362 371.819631 
L 324.805225 375.050642 
L 328.21954 386.956364 
L 331.633854 307.685264 
L 332.316717 307.685264 
L 332.99958 291.831044 
L 334.365305 291.831044 
L 335.731031 260.122604 
L 337.096757 260.122604 
L 337.77962 244.268384 
L 365.776997 244.268384 
L 366.45986 260.122604 
L 379.434254 260.122604 
L 380.117117 244.268384 
L 397.871552 244.268384 
L 398.554414 260.122604 
L 411.528809 260.122604 
L 412.211672 244.268384 
L 438.843323 244.268384 
L 439.526186 260.122604 
L 451.134855 260.122604 
L 451.817718 261.785196 
L 452.500581 262.635063 
L 453.183443 248.518018 
L 453.866306 251.853784 
L 454.549169 258.213355 
L 455.232032 260.68163 
L 456.597758 276.235013 
L 457.280621 279.263324 
L 457.963483 286.274377 
L 458.646346 291.395409 
L 459.329209 290.904285 
L 460.012072 298.672898 
L 460.694935 302.452939 
L 461.377798 296.55819 
L 462.060661 303.808339 
L 462.743524 304.416003 
L 463.426386 293.881201 
L 464.109249 304.614389 
L 464.792112 310.585288 
L 465.474975 302.509484 
L 466.157838 310.01166 
L 466.840701 315.058109 
L 467.523564 299.721573 
L 468.206426 279.750723 
L 468.889289 270.40271 
L 470.255015 231.433959 
L 470.937878 238.203437 
L 471.620741 221.309063 
L 472.303604 219.968072 
L 472.986466 229.478285 
L 473.669329 212.44879 
L 474.352192 202.507563 
L 475.035055 196.184696 
L 475.717918 183.322391 
L 476.400781 189.725779 
L 477.083644 204.40403 
L 478.449369 169.046863 
L 479.132232 170.470358 
L 480.497958 146.419253 
L 481.180821 152.807867 
L 481.863684 160.257961 
L 482.546547 157.617785 
L 483.229409 159.474628 
L 483.912272 167.467929 
L 484.595135 150.366349 
L 485.277998 156.384097 
L 486.643724 130.771472 
L 488.009449 123.319883 
L 488.692312 132.116202 
L 489.375175 127.729936 
L 490.058038 110.953578 
L 490.740901 116.607918 
L 491.423764 129.231127 
L 492.106627 136.242179 
L 492.789489 136.587623 
L 493.472352 135.246633 
L 494.155215 132.198443 
L 494.838078 133.166326 
L 495.520941 134.337794 
L 496.203804 133.746958 
L 496.886667 130.227523 
L 497.56953 119.652362 
L 498.252392 117.830392 
L 498.935255 107.930152 
L 499.618118 109.592744 
L 500.300981 109.998335 
L 500.983844 131.278975 
L 501.666707 148.691811 
L 502.34957 139.895492 
L 503.032432 137.893144 
L 503.715295 141.7637 
L 504.398158 120.598162 
L 505.081021 120.598162 
L 505.763884 124.124214 
L 506.446747 123.778769 
L 507.12961 136.401978 
L 507.812472 138.199691 
L 508.495335 137.231809 
L 509.178198 132.960644 
L 509.861061 138.800228 
L 510.543924 146.074976 
L 511.226787 147.223538 
L 511.90965 149.469561 
L 512.592513 151.017758 
L 513.275375 150.593705 
L 513.958238 144.348529 
L 514.641101 123.609819 
L 515.323964 123.091355 
L 516.006827 127.257766 
L 516.68969 129.375215 
L 517.372553 136.576554 
L 518.055415 141.783118 
L 518.738278 123.46525 
L 519.421141 115.858319 
L 520.104004 110.52044 
L 520.786867 98.19807 
L 521.46973 95.106214 
L 522.152593 89.794895 
L 522.835455 90.835049 
L 523.518318 83.571969 
L 524.201181 82.759244 
L 524.884044 85.990256 
L 525.566907 82.040692 
L 526.24977 87.845096 
L 526.932633 83.2227 
L 527.615495 86.920237 
L 528.298358 89.496992 
L 528.981221 68.583481 
L 529.664084 67.791519 
L 530.346947 67.909535 
L 531.02981 52.44846 
L 531.712673 43.683636 
L 532.395536 51.704276 
L 533.078398 48.473264 
L 533.761261 55.870687 
L 534.444124 56.91084 
L 535.126987 62.967271 
L 535.80985 62.608528 
L 537.175576 68.831454 
L 537.858438 67.13172 
L 538.541301 61.100282 
L 539.224164 68.064011 
L 540.58989 83.869421 
L 541.272753 86.41706 
L 541.955616 85.892759 
L 542.638478 94.566404 
L 543.321341 96.757262 
L 544.004204 97.980237 
L 544.687067 98.368909 
L 545.36993 108.305201 
L 546.052793 109.555677 
L 546.735656 124.308003 
L 548.784244 108.901768 
L 549.467107 113.770773 
L 550.14997 105.796156 
L 550.832833 117.681825 
L 551.515696 115.223631 
L 552.198559 126.959532 
L 552.881421 121.981937 
L 553.564284 112.742586 
L 554.247147 108.793022 
L 554.93001 106.245382 
L 555.612873 109.18797 
L 556.295736 108.866369 
L 556.978599 108.866369 
L 558.344324 117.916742 
L 559.027187 112.371658 
L 559.71005 102.908294 
L 560.392913 88.56156 
L 561.075776 84.494575 
L 561.758639 88.820259 
L 562.441502 87.221669 
L 563.124364 83.990657 
L 563.807227 93.411019 
L 564.49009 82.053617 
L 565.172953 86.401831 
L 565.855816 82.726544 
L 566.538679 85.674962 
L 567.221542 81.403797 
L 567.904404 79.980302 
L 568.587267 82.527941 
L 569.27013 80.337083 
L 571.318719 65.622296 
L 572.001582 70.743329 
L 572.684444 71.758217 
L 573.367307 74.015464 
L 574.05017 72.569719 
L 574.733033 78.44422 
L 575.415896 75.352364 
L 576.098759 73.93679 
L 576.781622 78.936741 
L 577.464484 70.584697 
L 578.147347 67.642109 
L 578.83021 70.154568 
L 579.513073 73.829855 
L 580.195936 72.62802 
L 580.878799 82.020217 
L 581.561662 81.666019 
L 582.244525 76.139395 
L 582.927387 76.630519 
L 584.293113 78.806862 
L 584.975976 80.622299 
L 585.658839 81.472166 
L 586.341702 80.162778 
L 587.024565 87.023451 
L 587.707427 88.576359 
L 588.39029 92.608427 
L 589.073153 107.954603 
L 589.756016 126.116559 
L 590.438879 140.153029 
L 591.804605 184.302549 
L 593.853193 223.347449 
L 594.536056 237.63325 
L 595.218919 255.983715 
L 595.901782 271.163989 
L 597.267508 279.921625 
L 598.633233 317.382941 
L 599.316096 314.818975 
L 599.998959 335.446065 
L 600.681822 335.229219 
L 601.364685 341.727517 
L 602.047548 338.496506 
L 603.413273 317.263896 
L 604.096136 304.772002 
L 605.461862 269.869693 
L 606.144725 255.770373 
L 606.827588 239.320275 
L 607.51045 227.018667 
L 608.193313 211.391876 
L 608.876176 198.768667 
L 609.559039 189.880893 
L 610.241902 189.880893 
L 610.924765 191.052361 
L 612.29049 161.247241 
L 612.973353 162.96134 
L 613.656216 147.178288 
L 614.339079 148.662717 
L 615.021942 142.348686 
L 615.704805 141.975578 
L 616.387668 136.664259 
L 617.070531 136.664259 
L 617.753393 135.001667 
L 618.436256 135.240764 
L 619.119119 136.090631 
L 619.801982 153.154528 
L 620.484845 152.85369 
L 621.167708 154.42211 
L 621.850571 150.150945 
L 622.533433 147.186369 
L 623.216296 146.563931 
L 623.899159 144.817348 
L 624.582022 138.355325 
L 625.264885 140.101908 
L 625.947748 137.589449 
L 626.630611 132.468417 
L 627.996336 126.878725 
L 628.679199 132.152603 
L 629.362062 132.931303 
L 630.044925 133.527181 
L 630.727788 131.420313 
L 631.410651 130.976038 
L 632.093514 131.494501 
L 632.776376 129.926081 
L 633.459239 112.239747 
L 634.142102 113.580738 
L 634.824965 112.730871 
L 635.507828 118.343026 
L 636.190691 122.47907 
L 636.873554 120.994641 
L 637.556416 138.680976 
L 638.239279 144.52056 
L 638.922142 143.396416 
L 639.605005 144.246283 
L 640.287868 150.538783 
L 640.970731 153.977001 
L 641.653594 153.977001 
L 642.336456 147.754074 
L 643.019319 147.348483 
L 643.702182 150.173903 
L 644.385045 152.28077 
L 645.067908 151.875178 
L 645.750771 155.388783 
L 646.433634 154.217315 
L 647.116496 155.185198 
L 647.799359 158.416209 
L 648.482222 158.043101 
L 649.165085 151.98667 
L 649.847948 148.13322 
L 650.530811 149.068619 
L 651.213674 135.954287 
L 651.896537 134.469858 
L 652.579399 135.594002 
L 653.262262 135.149727 
L 653.945125 134.527288 
L 654.627988 136.011717 
L 655.310851 140.282882 
L 655.993714 148.1684 
L 656.676577 148.573992 
L 657.359439 151.086451 
L 658.042302 151.086451 
L 658.725165 154.317462 
L 659.408028 149.006144 
L 660.090891 153.408624 
L 660.773754 155.671752 
L 661.456617 151.09975 
L 662.139479 151.87845 
L 662.822342 153.985317 
L 663.505205 153.184261 
L 664.188068 150.803116 
L 664.870931 147.572105 
L 665.553794 164.683325 
L 666.236657 166.167754 
L 666.91952 163.381018 
L 667.602382 157.886877 
L 668.285245 159.227868 
L 668.968108 157.337848 
L 669.650971 151.404091 
L 670.333834 152.88852 
L 671.016697 152.88852 
L 671.69956 149.03507 
L 672.382422 162.698432 
L 673.065285 166.969597 
L 673.748148 164.084029 
L 674.431011 165.42502 
L 675.113874 166.392903 
L 675.796737 164.363727 
L 676.4796 162.940232 
L 677.845325 168.418045 
L 678.528188 169.759036 
L 679.211051 154.132245 
L 679.893914 154.754683 
L 680.576777 159.025848 
L 681.25964 161.589814 
L 681.942503 160.248823 
L 682.625365 159.313424 
L 683.308228 162.734722 
L 683.991091 173.46791 
L 684.673954 172.296442 
L 685.356817 172.597279 
L 686.03968 158.933917 
L 686.722543 157.710942 
L 687.405405 155.942003 
L 688.088268 152.710991 
L 688.771131 153.084099 
L 689.453994 157.938695 
L 690.136857 157.048117 
L 690.81972 155.301535 
L 691.502583 151.78793 
L 692.185445 167.341312 
L 692.868308 165.856883 
L 693.551171 162.304271 
L 694.234034 160.819842 
L 694.916897 163.200986 
L 695.59976 162.651957 
L 696.282623 163.587356 
L 696.965485 162.547202 
L 697.648348 149.205441 
L 698.331211 146.240866 
L 699.014074 145.138972 
L 699.696937 140.01794 
L 700.3798 142.281069 
L 701.062663 143.704564 
L 701.745526 145.594584 
L 702.428388 146.444452 
L 703.111251 145.725899 
L 703.794114 146.868504 
L 704.476977 145.600922 
L 705.15984 146.184353 
L 705.842703 126.681407 
L 706.525566 127.616806 
L 707.891291 123.877751 
L 708.574154 135.917528 
L 709.257017 137.088996 
L 709.93988 134.707852 
L 710.622743 150.37925 
L 711.305606 148.065177 
L 711.988468 151.029752 
L 712.671331 149.940788 
L 713.354194 153.1718 
L 714.037057 153.1718 
L 714.71992 154.295944 
L 716.085646 150.515903 
L 716.768509 147.630336 
L 717.451371 149.925948 
L 718.134234 155.04698 
L 718.817097 159.318145 
L 719.49996 162.776585 
L 720.182823 161.435594 
L 720.865686 164.873812 
L 721.548549 164.324782 
L 722.231411 152.834034 
L 722.914274 153.552587 
L 723.597137 157.823751 
L 724.28 139.412466 
L 724.28 139.412466 
" style="fill:none;stroke:#2ca02c;stroke-linecap:square;stroke-width:1.5;"/>
   </g>
   <g id="patch_3">
    <path d="M 42.1 404.12 
L 42.1 26.52 
" style="fill:none;stroke:#000000;stroke-linecap:square;stroke-linejoin:miter;stroke-width:0.8;"/>
   </g>
   <g id="patch_4">
    <path d="M 724.28 404.12 
L 724.28 26.52 
" style="fill:none;stroke:#000000;stroke-linecap:square;stroke-linejoin:miter;stroke-width:0.8;"/>
   </g>
   <g id="patch_5">
    <path d="M 42.1 404.12 
L 724.28 404.12 
" style="fill:none;stroke:#000000;stroke-linecap:square;stroke-linejoin:miter;stroke-width:0.8;"/>
   </g>
   <g id="patch_6">
    <path d="M 42.1 26.52 
L 724.28 26.52 
" style="fill:none;stroke:#000000;stroke-linecap:square;stroke-linejoin:miter;stroke-width:0.8;"/>
   </g>
   <g id="text_14">
    <!-- multi_way_v1__dqn: episode duration in steps log-relative to `dqn_greedy`, MA=20 -->
    <defs>
     <path d="M 52 44.1875 
Q 55.375 50.25 60.0625 53.125 
Q 64.75 56 71.09375 56 
Q 79.640625 56 84.28125 50.015625 
Q 88.921875 44.046875 88.921875 33.015625 
L 88.921875 0 
L 79.890625 0 
L 79.890625 32.71875 
Q 79.890625 40.578125 77.09375 44.375 
Q 74.3125 48.1875 68.609375 48.1875 
Q 61.625 48.1875 57.5625 43.546875 
Q 53.515625 38.921875 53.515625 30.90625 
L 53.515625 0 
L 44.484375 0 
L 44.484375 32.71875 
Q 44.484375 40.625 41.703125 44.40625 
Q 38.921875 48.1875 33.109375 48.1875 
Q 26.21875 48.1875 22.15625 43.53125 
Q 18.109375 38.875 18.109375 30.90625 
L 18.109375 0 
L 9.078125 0 
L 9.078125 54.6875 
L 18.109375 54.6875 
L 18.109375 46.1875 
Q 21.1875 51.21875 25.484375 53.609375 
Q 29.78125 56 35.6875 56 
Q 41.65625 56 45.828125 52.96875 
Q 50 49.953125 52 44.1875 
z
" id="DejaVuSans-109"/>
     <path d="M 8.5 21.578125 
L 8.5 54.6875 
L 17.484375 54.6875 
L 17.484375 21.921875 
Q 17.484375 14.15625 20.5 10.265625 
Q 23.53125 6.390625 29.59375 6.390625 
Q 36.859375 6.390625 41.078125 11.03125 
Q 45.3125 15.671875 45.3125 23.6875 
L 45.3125 54.6875 
L 54.296875 54.6875 
L 54.296875 0 
L 45.3125 0 
L 45.3125 8.40625 
Q 42.046875 3.421875 37.71875 1 
Q 33.40625 -1.421875 27.6875 -1.421875 
Q 18.265625 -1.421875 13.375 4.4375 
Q 8.5 10.296875 8.5 21.578125 
z
M 31.109375 56 
z
" id="DejaVuSans-117"/>
     <path d="M 9.421875 75.984375 
L 18.40625 75.984375 
L 18.40625 0 
L 9.421875 0 
z
" id="DejaVuSans-108"/>
     <path d="M 18.3125 70.21875 
L 18.3125 54.6875 
L 36.8125 54.6875 
L 36.8125 47.703125 
L 18.3125 47.703125 
L 18.3125 18.015625 
Q 18.3125 11.328125 20.140625 9.421875 
Q 21.96875 7.515625 27.59375 7.515625 
L 36.8125 7.515625 
L 36.8125 0 
L 27.59375 0 
Q 17.1875 0 13.234375 3.875 
Q 9.28125 7.765625 9.28125 18.015625 
L 9.28125 47.703125 
L 2.6875 47.703125 
L 2.6875 54.6875 
L 9.28125 54.6875 
L 9.28125 70.21875 
z
" id="DejaVuSans-116"/>
     <path d="M 9.421875 54.6875 
L 18.40625 54.6875 
L 18.40625 0 
L 9.421875 0 
z
M 9.421875 75.984375 
L 18.40625 75.984375 
L 18.40625 64.59375 
L 9.421875 64.59375 
z
" id="DejaVuSans-105"/>
     <path d="M 50.984375 -16.609375 
L 50.984375 -23.578125 
L -0.984375 -23.578125 
L -0.984375 -16.609375 
z
" id="DejaVuSans-95"/>
     <path d="M 4.203125 54.6875 
L 13.1875 54.6875 
L 24.421875 12.015625 
L 35.59375 54.6875 
L 46.1875 54.6875 
L 57.421875 12.015625 
L 68.609375 54.6875 
L 77.59375 54.6875 
L 63.28125 0 
L 52.6875 0 
L 40.921875 44.828125 
L 29.109375 0 
L 18.5 0 
z
" id="DejaVuSans-119"/>
     <path d="M 34.28125 27.484375 
Q 23.390625 27.484375 19.1875 25 
Q 14.984375 22.515625 14.984375 16.5 
Q 14.984375 11.71875 18.140625 8.90625 
Q 21.296875 6.109375 26.703125 6.109375 
Q 34.1875 6.109375 38.703125 11.40625 
Q 43.21875 16.703125 43.21875 25.484375 
L 43.21875 27.484375 
z
M 52.203125 31.203125 
L 52.203125 0 
L 43.21875 0 
L 43.21875 8.296875 
Q 40.140625 3.328125 35.546875 0.953125 
Q 30.953125 -1.421875 24.3125 -1.421875 
Q 15.921875 -1.421875 10.953125 3.296875 
Q 6 8.015625 6 15.921875 
Q 6 25.140625 12.171875 29.828125 
Q 18.359375 34.515625 30.609375 34.515625 
L 43.21875 34.515625 
L 43.21875 35.40625 
Q 43.21875 41.609375 39.140625 45 
Q 35.0625 48.390625 27.6875 48.390625 
Q 23 48.390625 18.546875 47.265625 
Q 14.109375 46.140625 10.015625 43.890625 
L 10.015625 52.203125 
Q 14.9375 54.109375 19.578125 55.046875 
Q 24.21875 56 28.609375 56 
Q 40.484375 56 46.34375 49.84375 
Q 52.203125 43.703125 52.203125 31.203125 
z
" id="DejaVuSans-97"/>
     <path d="M 32.171875 -5.078125 
Q 28.375 -14.84375 24.75 -17.8125 
Q 21.140625 -20.796875 15.09375 -20.796875 
L 7.90625 -20.796875 
L 7.90625 -13.28125 
L 13.1875 -13.28125 
Q 16.890625 -13.28125 18.9375 -11.515625 
Q 21 -9.765625 23.484375 -3.21875 
L 25.09375 0.875 
L 2.984375 54.6875 
L 12.5 54.6875 
L 29.59375 11.921875 
L 46.6875 54.6875 
L 56.203125 54.6875 
z
" id="DejaVuSans-121"/>
     <path d="M 2.984375 54.6875 
L 12.5 54.6875 
L 29.59375 8.796875 
L 46.6875 54.6875 
L 56.203125 54.6875 
L 35.6875 0 
L 23.484375 0 
z
" id="DejaVuSans-118"/>
     <path d="M 45.40625 46.390625 
L 45.40625 75.984375 
L 54.390625 75.984375 
L 54.390625 0 
L 45.40625 0 
L 45.40625 8.203125 
Q 42.578125 3.328125 38.25 0.953125 
Q 33.9375 -1.421875 27.875 -1.421875 
Q 17.96875 -1.421875 11.734375 6.484375 
Q 5.515625 14.40625 5.515625 27.296875 
Q 5.515625 40.1875 11.734375 48.09375 
Q 17.96875 56 27.875 56 
Q 33.9375 56 38.25 53.625 
Q 42.578125 51.265625 45.40625 46.390625 
z
M 14.796875 27.296875 
Q 14.796875 17.390625 18.875 11.75 
Q 22.953125 6.109375 30.078125 6.109375 
Q 37.203125 6.109375 41.296875 11.75 
Q 45.40625 17.390625 45.40625 27.296875 
Q 45.40625 37.203125 41.296875 42.84375 
Q 37.203125 48.484375 30.078125 48.484375 
Q 22.953125 48.484375 18.875 42.84375 
Q 14.796875 37.203125 14.796875 27.296875 
z
" id="DejaVuSans-100"/>
     <path d="M 14.796875 27.296875 
Q 14.796875 17.390625 18.875 11.75 
Q 22.953125 6.109375 30.078125 6.109375 
Q 37.203125 6.109375 41.296875 11.75 
Q 45.40625 17.390625 45.40625 27.296875 
Q 45.40625 37.203125 41.296875 42.84375 
Q 37.203125 48.484375 30.078125 48.484375 
Q 22.953125 48.484375 18.875 42.84375 
Q 14.796875 37.203125 14.796875 27.296875 
z
M 45.40625 8.203125 
Q 42.578125 3.328125 38.25 0.953125 
Q 33.9375 -1.421875 27.875 -1.421875 
Q 17.96875 -1.421875 11.734375 6.484375 
Q 5.515625 14.40625 5.515625 27.296875 
Q 5.515625 40.1875 11.734375 48.09375 
Q 17.96875 56 27.875 56 
Q 33.9375 56 38.25 53.625 
Q 42.578125 51.265625 45.40625 46.390625 
L 45.40625 54.6875 
L 54.390625 54.6875 
L 54.390625 -20.796875 
L 45.40625 -20.796875 
z
" id="DejaVuSans-113"/>
     <path d="M 54.890625 33.015625 
L 54.890625 0 
L 45.90625 0 
L 45.90625 32.71875 
Q 45.90625 40.484375 42.875 44.328125 
Q 39.84375 48.1875 33.796875 48.1875 
Q 26.515625 48.1875 22.3125 43.546875 
Q 18.109375 38.921875 18.109375 30.90625 
L 18.109375 0 
L 9.078125 0 
L 9.078125 54.6875 
L 18.109375 54.6875 
L 18.109375 46.1875 
Q 21.34375 51.125 25.703125 53.5625 
Q 30.078125 56 35.796875 56 
Q 45.21875 56 50.046875 50.171875 
Q 54.890625 44.34375 54.890625 33.015625 
z
" id="DejaVuSans-110"/>
     <path d="M 11.71875 12.40625 
L 22.015625 12.40625 
L 22.015625 0 
L 11.71875 0 
z
M 11.71875 51.703125 
L 22.015625 51.703125 
L 22.015625 39.3125 
L 11.71875 39.3125 
z
" id="DejaVuSans-58"/>
     <path id="DejaVuSans-32"/>
     <path d="M 56.203125 29.59375 
L 56.203125 25.203125 
L 14.890625 25.203125 
Q 15.484375 15.921875 20.484375 11.0625 
Q 25.484375 6.203125 34.421875 6.203125 
Q 39.59375 6.203125 44.453125 7.46875 
Q 49.3125 8.734375 54.109375 11.28125 
L 54.109375 2.78125 
Q 49.265625 0.734375 44.1875 -0.34375 
Q 39.109375 -1.421875 33.890625 -1.421875 
Q 20.796875 -1.421875 13.15625 6.1875 
Q 5.515625 13.8125 5.515625 26.8125 
Q 5.515625 40.234375 12.765625 48.109375 
Q 20.015625 56 32.328125 56 
Q 43.359375 56 49.78125 48.890625 
Q 56.203125 41.796875 56.203125 29.59375 
z
M 47.21875 32.234375 
Q 47.125 39.59375 43.09375 43.984375 
Q 39.0625 48.390625 32.421875 48.390625 
Q 24.90625 48.390625 20.390625 44.140625 
Q 15.875 39.890625 15.1875 32.171875 
z
" id="DejaVuSans-101"/>
     <path d="M 18.109375 8.203125 
L 18.109375 -20.796875 
L 9.078125 -20.796875 
L 9.078125 54.6875 
L 18.109375 54.6875 
L 18.109375 46.390625 
Q 20.953125 51.265625 25.265625 53.625 
Q 29.59375 56 35.59375 56 
Q 45.5625 56 51.78125 48.09375 
Q 58.015625 40.1875 58.015625 27.296875 
Q 58.015625 14.40625 51.78125 6.484375 
Q 45.5625 -1.421875 35.59375 -1.421875 
Q 29.59375 -1.421875 25.265625 0.953125 
Q 20.953125 3.328125 18.109375 8.203125 
z
M 48.6875 27.296875 
Q 48.6875 37.203125 44.609375 42.84375 
Q 40.53125 48.484375 33.40625 48.484375 
Q 26.265625 48.484375 22.1875 42.84375 
Q 18.109375 37.203125 18.109375 27.296875 
Q 18.109375 17.390625 22.1875 11.75 
Q 26.265625 6.109375 33.40625 6.109375 
Q 40.53125 6.109375 44.609375 11.75 
Q 48.6875 17.390625 48.6875 27.296875 
z
" id="DejaVuSans-112"/>
     <path d="M 44.28125 53.078125 
L 44.28125 44.578125 
Q 40.484375 46.53125 36.375 47.5 
Q 32.28125 48.484375 27.875 48.484375 
Q 21.1875 48.484375 17.84375 46.4375 
Q 14.5 44.390625 14.5 40.28125 
Q 14.5 37.15625 16.890625 35.375 
Q 19.28125 33.59375 26.515625 31.984375 
L 29.59375 31.296875 
Q 39.15625 29.25 43.1875 25.515625 
Q 47.21875 21.78125 47.21875 15.09375 
Q 47.21875 7.46875 41.1875 3.015625 
Q 35.15625 -1.421875 24.609375 -1.421875 
Q 20.21875 -1.421875 15.453125 -0.5625 
Q 10.6875 0.296875 5.421875 2 
L 5.421875 11.28125 
Q 10.40625 8.6875 15.234375 7.390625 
Q 20.0625 6.109375 24.8125 6.109375 
Q 31.15625 6.109375 34.5625 8.28125 
Q 37.984375 10.453125 37.984375 14.40625 
Q 37.984375 18.0625 35.515625 20.015625 
Q 33.0625 21.96875 24.703125 23.78125 
L 21.578125 24.515625 
Q 13.234375 26.265625 9.515625 29.90625 
Q 5.8125 33.546875 5.8125 39.890625 
Q 5.8125 47.609375 11.28125 51.796875 
Q 16.75 56 26.8125 56 
Q 31.78125 56 36.171875 55.265625 
Q 40.578125 54.546875 44.28125 53.078125 
z
" id="DejaVuSans-115"/>
     <path d="M 30.609375 48.390625 
Q 23.390625 48.390625 19.1875 42.75 
Q 14.984375 37.109375 14.984375 27.296875 
Q 14.984375 17.484375 19.15625 11.84375 
Q 23.34375 6.203125 30.609375 6.203125 
Q 37.796875 6.203125 41.984375 11.859375 
Q 46.1875 17.53125 46.1875 27.296875 
Q 46.1875 37.015625 41.984375 42.703125 
Q 37.796875 48.390625 30.609375 48.390625 
z
M 30.609375 56 
Q 42.328125 56 49.015625 48.375 
Q 55.71875 40.765625 55.71875 27.296875 
Q 55.71875 13.875 49.015625 6.21875 
Q 42.328125 -1.421875 30.609375 -1.421875 
Q 18.84375 -1.421875 12.171875 6.21875 
Q 5.515625 13.875 5.515625 27.296875 
Q 5.515625 40.765625 12.171875 48.375 
Q 18.84375 56 30.609375 56 
z
" id="DejaVuSans-111"/>
     <path d="M 41.109375 46.296875 
Q 39.59375 47.171875 37.8125 47.578125 
Q 36.03125 48 33.890625 48 
Q 26.265625 48 22.1875 43.046875 
Q 18.109375 38.09375 18.109375 28.8125 
L 18.109375 0 
L 9.078125 0 
L 9.078125 54.6875 
L 18.109375 54.6875 
L 18.109375 46.1875 
Q 20.953125 51.171875 25.484375 53.578125 
Q 30.03125 56 36.53125 56 
Q 37.453125 56 38.578125 55.875 
Q 39.703125 55.765625 41.0625 55.515625 
z
" id="DejaVuSans-114"/>
     <path d="M 45.40625 27.984375 
Q 45.40625 37.75 41.375 43.109375 
Q 37.359375 48.484375 30.078125 48.484375 
Q 22.859375 48.484375 18.828125 43.109375 
Q 14.796875 37.75 14.796875 27.984375 
Q 14.796875 18.265625 18.828125 12.890625 
Q 22.859375 7.515625 30.078125 7.515625 
Q 37.359375 7.515625 41.375 12.890625 
Q 45.40625 18.265625 45.40625 27.984375 
z
M 54.390625 6.78125 
Q 54.390625 -7.171875 48.1875 -13.984375 
Q 42 -20.796875 29.203125 -20.796875 
Q 24.46875 -20.796875 20.265625 -20.09375 
Q 16.0625 -19.390625 12.109375 -17.921875 
L 12.109375 -9.1875 
Q 16.0625 -11.328125 19.921875 -12.34375 
Q 23.78125 -13.375 27.78125 -13.375 
Q 36.625 -13.375 41.015625 -8.765625 
Q 45.40625 -4.15625 45.40625 5.171875 
L 45.40625 9.625 
Q 42.625 4.78125 38.28125 2.390625 
Q 33.9375 0 27.875 0 
Q 17.828125 0 11.671875 7.65625 
Q 5.515625 15.328125 5.515625 27.984375 
Q 5.515625 40.671875 11.671875 48.328125 
Q 17.828125 56 27.875 56 
Q 33.9375 56 38.28125 53.609375 
Q 42.625 51.21875 45.40625 46.390625 
L 45.40625 54.6875 
L 54.390625 54.6875 
z
" id="DejaVuSans-103"/>
     <path d="M 4.890625 31.390625 
L 31.203125 31.390625 
L 31.203125 23.390625 
L 4.890625 23.390625 
z
" id="DejaVuSans-45"/>
     <path d="M 17.921875 79.984375 
L 31.6875 61.71875 
L 24.21875 61.71875 
L 8.296875 79.984375 
z
" id="DejaVuSans-96"/>
     <path d="M 11.71875 12.40625 
L 22.015625 12.40625 
L 22.015625 4 
L 14.015625 -11.625 
L 7.71875 -11.625 
L 11.71875 4 
z
" id="DejaVuSans-44"/>
     <path d="M 9.8125 72.90625 
L 24.515625 72.90625 
L 43.109375 23.296875 
L 61.8125 72.90625 
L 76.515625 72.90625 
L 76.515625 0 
L 66.890625 0 
L 66.890625 64.015625 
L 48.09375 14.015625 
L 38.1875 14.015625 
L 19.390625 64.015625 
L 19.390625 0 
L 9.8125 0 
z
" id="DejaVuSans-77"/>
     <path d="M 34.1875 63.1875 
L 20.796875 26.90625 
L 47.609375 26.90625 
z
M 28.609375 72.90625 
L 39.796875 72.90625 
L 67.578125 0 
L 57.328125 0 
L 50.6875 18.703125 
L 17.828125 18.703125 
L 11.1875 0 
L 0.78125 0 
z
" id="DejaVuSans-65"/>
     <path d="M 10.59375 45.40625 
L 73.1875 45.40625 
L 73.1875 37.203125 
L 10.59375 37.203125 
z
M 10.59375 25.484375 
L 73.1875 25.484375 
L 73.1875 17.1875 
L 10.59375 17.1875 
z
" id="DejaVuSans-61"/>
    </defs>
    <g transform="translate(131.982187 20.52)scale(0.12 -0.12)">
     <use xlink:href="#DejaVuSans-109"/>
     <use x="97.412109" xlink:href="#DejaVuSans-117"/>
     <use x="160.791016" xlink:href="#DejaVuSans-108"/>
     <use x="188.574219" xlink:href="#DejaVuSans-116"/>
     <use x="227.783203" xlink:href="#DejaVuSans-105"/>
     <use x="255.566406" xlink:href="#DejaVuSans-95"/>
     <use x="305.566406" xlink:href="#DejaVuSans-119"/>
     <use x="387.353516" xlink:href="#DejaVuSans-97"/>
     <use x="448.632812" xlink:href="#DejaVuSans-121"/>
     <use x="507.8125" xlink:href="#DejaVuSans-95"/>
     <use x="557.8125" xlink:href="#DejaVuSans-118"/>
     <use x="616.992188" xlink:href="#DejaVuSans-49"/>
     <use x="680.615234" xlink:href="#DejaVuSans-95"/>
     <use x="730.615234" xlink:href="#DejaVuSans-95"/>
     <use x="780.615234" xlink:href="#DejaVuSans-100"/>
     <use x="844.091797" xlink:href="#DejaVuSans-113"/>
     <use x="907.568359" xlink:href="#DejaVuSans-110"/>
     <use x="970.947266" xlink:href="#DejaVuSans-58"/>
     <use x="1004.638672" xlink:href="#DejaVuSans-32"/>
     <use x="1036.425781" xlink:href="#DejaVuSans-101"/>
     <use x="1097.949219" xlink:href="#DejaVuSans-112"/>
     <use x="1161.425781" xlink:href="#DejaVuSans-105"/>
     <use x="1189.208984" xlink:href="#DejaVuSans-115"/>
     <use x="1241.308594" xlink:href="#DejaVuSans-111"/>
     <use x="1302.490234" xlink:href="#DejaVuSans-100"/>
     <use x="1365.966797" xlink:href="#DejaVuSans-101"/>
     <use x="1427.490234" xlink:href="#DejaVuSans-32"/>
     <use x="1459.277344" xlink:href="#DejaVuSans-100"/>
     <use x="1522.753906" xlink:href="#DejaVuSans-117"/>
     <use x="1586.132812" xlink:href="#DejaVuSans-114"/>
     <use x="1627.246094" xlink:href="#DejaVuSans-97"/>
     <use x="1688.525391" xlink:href="#DejaVuSans-116"/>
     <use x="1727.734375" xlink:href="#DejaVuSans-105"/>
     <use x="1755.517578" xlink:href="#DejaVuSans-111"/>
     <use x="1816.699219" xlink:href="#DejaVuSans-110"/>
     <use x="1880.078125" xlink:href="#DejaVuSans-32"/>
     <use x="1911.865234" xlink:href="#DejaVuSans-105"/>
     <use x="1939.648438" xlink:href="#DejaVuSans-110"/>
     <use x="2003.027344" xlink:href="#DejaVuSans-32"/>
     <use x="2034.814453" xlink:href="#DejaVuSans-115"/>
     <use x="2086.914062" xlink:href="#DejaVuSans-116"/>
     <use x="2126.123047" xlink:href="#DejaVuSans-101"/>
     <use x="2187.646484" xlink:href="#DejaVuSans-112"/>
     <use x="2251.123047" xlink:href="#DejaVuSans-115"/>
     <use x="2303.222656" xlink:href="#DejaVuSans-32"/>
     <use x="2335.009766" xlink:href="#DejaVuSans-108"/>
     <use x="2362.792969" xlink:href="#DejaVuSans-111"/>
     <use x="2423.974609" xlink:href="#DejaVuSans-103"/>
     <use x="2487.451172" xlink:href="#DejaVuSans-45"/>
     <use x="2523.535156" xlink:href="#DejaVuSans-114"/>
     <use x="2564.617188" xlink:href="#DejaVuSans-101"/>
     <use x="2626.140625" xlink:href="#DejaVuSans-108"/>
     <use x="2653.923828" xlink:href="#DejaVuSans-97"/>
     <use x="2715.203125" xlink:href="#DejaVuSans-116"/>
     <use x="2754.412109" xlink:href="#DejaVuSans-105"/>
     <use x="2782.195312" xlink:href="#DejaVuSans-118"/>
     <use x="2841.375" xlink:href="#DejaVuSans-101"/>
     <use x="2902.898438" xlink:href="#DejaVuSans-32"/>
     <use x="2934.685547" xlink:href="#DejaVuSans-116"/>
     <use x="2973.894531" xlink:href="#DejaVuSans-111"/>
     <use x="3035.076172" xlink:href="#DejaVuSans-32"/>
     <use x="3066.863281" xlink:href="#DejaVuSans-96"/>
     <use x="3116.863281" xlink:href="#DejaVuSans-100"/>
     <use x="3180.339844" xlink:href="#DejaVuSans-113"/>
     <use x="3243.816406" xlink:href="#DejaVuSans-110"/>
     <use x="3307.195312" xlink:href="#DejaVuSans-95"/>
     <use x="3357.195312" xlink:href="#DejaVuSans-103"/>
     <use x="3420.671875" xlink:href="#DejaVuSans-114"/>
     <use x="3461.753906" xlink:href="#DejaVuSans-101"/>
     <use x="3523.277344" xlink:href="#DejaVuSans-101"/>
     <use x="3584.800781" xlink:href="#DejaVuSans-100"/>
     <use x="3648.277344" xlink:href="#DejaVuSans-121"/>
     <use x="3707.457031" xlink:href="#DejaVuSans-96"/>
     <use x="3757.457031" xlink:href="#DejaVuSans-44"/>
     <use x="3789.244141" xlink:href="#DejaVuSans-32"/>
     <use x="3821.03125" xlink:href="#DejaVuSans-77"/>
     <use x="3907.310547" xlink:href="#DejaVuSans-65"/>
     <use x="3975.71875" xlink:href="#DejaVuSans-61"/>
     <use x="4059.507812" xlink:href="#DejaVuSans-50"/>
     <use x="4123.130859" xlink:href="#DejaVuSans-48"/>
    </g>
   </g>
   <g id="legend_1">
    <g id="patch_7">
     <path d="M 762.651937 239.254375 
L 853.716 239.254375 
Q 855.716 239.254375 855.716 237.254375 
L 855.716 193.385625 
Q 855.716 191.385625 853.716 191.385625 
L 762.651937 191.385625 
Q 760.651937 191.385625 760.651937 193.385625 
L 760.651937 237.254375 
Q 760.651937 239.254375 762.651937 239.254375 
z
" style="fill:#ffffff;opacity:0.8;stroke:#cccccc;stroke-linejoin:miter;"/>
    </g>
    <g id="line2d_17">
     <path d="M 764.651937 199.484062 
L 784.651937 199.484062 
" style="fill:none;stroke:#1f77b4;stroke-linecap:square;stroke-width:1.5;"/>
    </g>
    <g id="line2d_18"/>
    <g id="text_15">
     <!-- dqn_greedy -->
     <g transform="translate(792.651937 202.984062)scale(0.1 -0.1)">
      <use xlink:href="#DejaVuSans-100"/>
      <use x="63.476562" xlink:href="#DejaVuSans-113"/>
      <use x="126.953125" xlink:href="#DejaVuSans-110"/>
      <use x="190.332031" xlink:href="#DejaVuSans-95"/>
      <use x="240.332031" xlink:href="#DejaVuSans-103"/>
      <use x="303.808594" xlink:href="#DejaVuSans-114"/>
      <use x="344.890625" xlink:href="#DejaVuSans-101"/>
      <use x="406.414062" xlink:href="#DejaVuSans-101"/>
      <use x="467.9375" xlink:href="#DejaVuSans-100"/>
      <use x="531.414062" xlink:href="#DejaVuSans-121"/>
     </g>
    </g>
    <g id="line2d_19">
     <path d="M 764.651937 214.440313 
L 784.651937 214.440313 
" style="fill:none;stroke:#ff7f0e;stroke-linecap:square;stroke-width:1.5;"/>
    </g>
    <g id="line2d_20"/>
    <g id="text_16">
     <!-- dqn_eps -->
     <g transform="translate(792.651937 217.940313)scale(0.1 -0.1)">
      <use xlink:href="#DejaVuSans-100"/>
      <use x="63.476562" xlink:href="#DejaVuSans-113"/>
      <use x="126.953125" xlink:href="#DejaVuSans-110"/>
      <use x="190.332031" xlink:href="#DejaVuSans-95"/>
      <use x="240.332031" xlink:href="#DejaVuSans-101"/>
      <use x="301.855469" xlink:href="#DejaVuSans-112"/>
      <use x="365.332031" xlink:href="#DejaVuSans-115"/>
     </g>
    </g>
    <g id="line2d_21">
     <path d="M 764.651937 229.396562 
L 784.651937 229.396562 
" style="fill:none;stroke:#2ca02c;stroke-linecap:square;stroke-width:1.5;"/>
    </g>
    <g id="line2d_22"/>
    <g id="text_17">
     <!-- htm_4_1g -->
     <defs>
      <path d="M 54.890625 33.015625 
L 54.890625 0 
L 45.90625 0 
L 45.90625 32.71875 
Q 45.90625 40.484375 42.875 44.328125 
Q 39.84375 48.1875 33.796875 48.1875 
Q 26.515625 48.1875 22.3125 43.546875 
Q 18.109375 38.921875 18.109375 30.90625 
L 18.109375 0 
L 9.078125 0 
L 9.078125 75.984375 
L 18.109375 75.984375 
L 18.109375 46.1875 
Q 21.34375 51.125 25.703125 53.5625 
Q 30.078125 56 35.796875 56 
Q 45.21875 56 50.046875 50.171875 
Q 54.890625 44.34375 54.890625 33.015625 
z
" id="DejaVuSans-104"/>
     </defs>
     <g transform="translate(792.651937 232.896562)scale(0.1 -0.1)">
      <use xlink:href="#DejaVuSans-104"/>
      <use x="63.378906" xlink:href="#DejaVuSans-116"/>
      <use x="102.587891" xlink:href="#DejaVuSans-109"/>
      <use x="200" xlink:href="#DejaVuSans-95"/>
      <use x="250" xlink:href="#DejaVuSans-52"/>
      <use x="313.623047" xlink:href="#DejaVuSans-95"/>
      <use x="363.623047" xlink:href="#DejaVuSans-49"/>
      <use x="427.246094" xlink:href="#DejaVuSans-103"/>
     </g>
    </g>
   </g>
  </g>
 </g>
 <defs>
  <clipPath id="pbcc5992a51">
   <rect height="377.6" width="682.18" x="42.1" y="26.52"/>
  </clipPath>
 </defs>
</svg>
