<?xml version="1.0" encoding="utf-8" standalone="no"?>
<!DOCTYPE svg PUBLIC "-//W3C//DTD SVG 1.1//EN"
  "http://www.w3.org/Graphics/SVG/1.1/DTD/svg11.dtd">
<!-- Created with matplotlib (https://matplotlib.org/) -->
<svg height="432pt" version="1.1" viewBox="0 0 864 432" width="864pt" xmlns="http://www.w3.org/2000/svg" xmlns:xlink="http://www.w3.org/1999/xlink">
 <defs>
  <style type="text/css">
*{stroke-linecap:butt;stroke-linejoin:round;}
  </style>
 </defs>
 <g id="figure_1">
  <g id="patch_1">
   <path d="M 0 432 
L 864 432 
L 864 0 
L 0 0 
z
" style="fill:#ffffff;"/>
  </g>
  <g id="axes_1">
   <g id="patch_2">
    <path d="M 24.19 404.12 
L 724.28 404.12 
L 724.28 26.16 
L 24.19 26.16 
z
" style="fill:#ffffff;"/>
   </g>
   <g id="matplotlib.axis_1">
    <g id="xtick_1">
     <g id="line2d_1">
      <defs>
       <path d="M 0 0 
L 0 3.5 
" id="mc8e6be186d" style="stroke:#000000;stroke-width:0.8;"/>
      </defs>
      <g>
       <use style="stroke:#000000;stroke-width:0.8;" x="24.19" xlink:href="#mc8e6be186d" y="404.12"/>
      </g>
     </g>
     <g id="text_1">
      <!-- 0 -->
      <defs>
       <path d="M 31.78125 66.40625 
Q 24.171875 66.40625 20.328125 58.90625 
Q 16.5 51.421875 16.5 36.375 
Q 16.5 21.390625 20.328125 13.890625 
Q 24.171875 6.390625 31.78125 6.390625 
Q 39.453125 6.390625 43.28125 13.890625 
Q 47.125 21.390625 47.125 36.375 
Q 47.125 51.421875 43.28125 58.90625 
Q 39.453125 66.40625 31.78125 66.40625 
z
M 31.78125 74.21875 
Q 44.046875 74.21875 50.515625 64.515625 
Q 56.984375 54.828125 56.984375 36.375 
Q 56.984375 17.96875 50.515625 8.265625 
Q 44.046875 -1.421875 31.78125 -1.421875 
Q 19.53125 -1.421875 13.0625 8.265625 
Q 6.59375 17.96875 6.59375 36.375 
Q 6.59375 54.828125 13.0625 64.515625 
Q 19.53125 74.21875 31.78125 74.21875 
z
" id="DejaVuSans-48"/>
      </defs>
      <g transform="translate(21.00875 418.718437)scale(0.1 -0.1)">
       <use xlink:href="#DejaVuSans-48"/>
      </g>
     </g>
    </g>
    <g id="xtick_2">
     <g id="line2d_2">
      <g>
       <use style="stroke:#000000;stroke-width:0.8;" x="164.348158" xlink:href="#mc8e6be186d" y="404.12"/>
      </g>
     </g>
     <g id="text_2">
      <!-- 200 -->
      <defs>
       <path d="M 19.1875 8.296875 
L 53.609375 8.296875 
L 53.609375 0 
L 7.328125 0 
L 7.328125 8.296875 
Q 12.9375 14.109375 22.625 23.890625 
Q 32.328125 33.6875 34.8125 36.53125 
Q 39.546875 41.84375 41.421875 45.53125 
Q 43.3125 49.21875 43.3125 52.78125 
Q 43.3125 58.59375 39.234375 62.25 
Q 35.15625 65.921875 28.609375 65.921875 
Q 23.96875 65.921875 18.8125 64.3125 
Q 13.671875 62.703125 7.8125 59.421875 
L 7.8125 69.390625 
Q 13.765625 71.78125 18.9375 73 
Q 24.125 74.21875 28.421875 74.21875 
Q 39.75 74.21875 46.484375 68.546875 
Q 53.21875 62.890625 53.21875 53.421875 
Q 53.21875 48.921875 51.53125 44.890625 
Q 49.859375 40.875 45.40625 35.40625 
Q 44.1875 33.984375 37.640625 27.21875 
Q 31.109375 20.453125 19.1875 8.296875 
z
" id="DejaVuSans-50"/>
      </defs>
      <g transform="translate(154.804408 418.718437)scale(0.1 -0.1)">
       <use xlink:href="#DejaVuSans-50"/>
       <use x="63.623047" xlink:href="#DejaVuSans-48"/>
       <use x="127.246094" xlink:href="#DejaVuSans-48"/>
      </g>
     </g>
    </g>
    <g id="xtick_3">
     <g id="line2d_3">
      <g>
       <use style="stroke:#000000;stroke-width:0.8;" x="304.506316" xlink:href="#mc8e6be186d" y="404.12"/>
      </g>
     </g>
     <g id="text_3">
      <!-- 400 -->
      <defs>
       <path d="M 37.796875 64.3125 
L 12.890625 25.390625 
L 37.796875 25.390625 
z
M 35.203125 72.90625 
L 47.609375 72.90625 
L 47.609375 25.390625 
L 58.015625 25.390625 
L 58.015625 17.1875 
L 47.609375 17.1875 
L 47.609375 0 
L 37.796875 0 
L 37.796875 17.1875 
L 4.890625 17.1875 
L 4.890625 26.703125 
z
" id="DejaVuSans-52"/>
      </defs>
      <g transform="translate(294.962566 418.718437)scale(0.1 -0.1)">
       <use xlink:href="#DejaVuSans-52"/>
       <use x="63.623047" xlink:href="#DejaVuSans-48"/>
       <use x="127.246094" xlink:href="#DejaVuSans-48"/>
      </g>
     </g>
    </g>
    <g id="xtick_4">
     <g id="line2d_4">
      <g>
       <use style="stroke:#000000;stroke-width:0.8;" x="444.664474" xlink:href="#mc8e6be186d" y="404.12"/>
      </g>
     </g>
     <g id="text_4">
      <!-- 600 -->
      <defs>
       <path d="M 33.015625 40.375 
Q 26.375 40.375 22.484375 35.828125 
Q 18.609375 31.296875 18.609375 23.390625 
Q 18.609375 15.53125 22.484375 10.953125 
Q 26.375 6.390625 33.015625 6.390625 
Q 39.65625 6.390625 43.53125 10.953125 
Q 47.40625 15.53125 47.40625 23.390625 
Q 47.40625 31.296875 43.53125 35.828125 
Q 39.65625 40.375 33.015625 40.375 
z
M 52.59375 71.296875 
L 52.59375 62.3125 
Q 48.875 64.0625 45.09375 64.984375 
Q 41.3125 65.921875 37.59375 65.921875 
Q 27.828125 65.921875 22.671875 59.328125 
Q 17.53125 52.734375 16.796875 39.40625 
Q 19.671875 43.65625 24.015625 45.921875 
Q 28.375 48.1875 33.59375 48.1875 
Q 44.578125 48.1875 50.953125 41.515625 
Q 57.328125 34.859375 57.328125 23.390625 
Q 57.328125 12.15625 50.6875 5.359375 
Q 44.046875 -1.421875 33.015625 -1.421875 
Q 20.359375 -1.421875 13.671875 8.265625 
Q 6.984375 17.96875 6.984375 36.375 
Q 6.984375 53.65625 15.1875 63.9375 
Q 23.390625 74.21875 37.203125 74.21875 
Q 40.921875 74.21875 44.703125 73.484375 
Q 48.484375 72.75 52.59375 71.296875 
z
" id="DejaVuSans-54"/>
      </defs>
      <g transform="translate(435.120724 418.718437)scale(0.1 -0.1)">
       <use xlink:href="#DejaVuSans-54"/>
       <use x="63.623047" xlink:href="#DejaVuSans-48"/>
       <use x="127.246094" xlink:href="#DejaVuSans-48"/>
      </g>
     </g>
    </g>
    <g id="xtick_5">
     <g id="line2d_5">
      <g>
       <use style="stroke:#000000;stroke-width:0.8;" x="584.822633" xlink:href="#mc8e6be186d" y="404.12"/>
      </g>
     </g>
     <g id="text_5">
      <!-- 800 -->
      <defs>
       <path d="M 31.78125 34.625 
Q 24.75 34.625 20.71875 30.859375 
Q 16.703125 27.09375 16.703125 20.515625 
Q 16.703125 13.921875 20.71875 10.15625 
Q 24.75 6.390625 31.78125 6.390625 
Q 38.8125 6.390625 42.859375 10.171875 
Q 46.921875 13.96875 46.921875 20.515625 
Q 46.921875 27.09375 42.890625 30.859375 
Q 38.875 34.625 31.78125 34.625 
z
M 21.921875 38.8125 
Q 15.578125 40.375 12.03125 44.71875 
Q 8.5 49.078125 8.5 55.328125 
Q 8.5 64.0625 14.71875 69.140625 
Q 20.953125 74.21875 31.78125 74.21875 
Q 42.671875 74.21875 48.875 69.140625 
Q 55.078125 64.0625 55.078125 55.328125 
Q 55.078125 49.078125 51.53125 44.71875 
Q 48 40.375 41.703125 38.8125 
Q 48.828125 37.15625 52.796875 32.3125 
Q 56.78125 27.484375 56.78125 20.515625 
Q 56.78125 9.90625 50.3125 4.234375 
Q 43.84375 -1.421875 31.78125 -1.421875 
Q 19.734375 -1.421875 13.25 4.234375 
Q 6.78125 9.90625 6.78125 20.515625 
Q 6.78125 27.484375 10.78125 32.3125 
Q 14.796875 37.15625 21.921875 38.8125 
z
M 18.3125 54.390625 
Q 18.3125 48.734375 21.84375 45.5625 
Q 25.390625 42.390625 31.78125 42.390625 
Q 38.140625 42.390625 41.71875 45.5625 
Q 45.3125 48.734375 45.3125 54.390625 
Q 45.3125 60.0625 41.71875 63.234375 
Q 38.140625 66.40625 31.78125 66.40625 
Q 25.390625 66.40625 21.84375 63.234375 
Q 18.3125 60.0625 18.3125 54.390625 
z
" id="DejaVuSans-56"/>
      </defs>
      <g transform="translate(575.278883 418.718437)scale(0.1 -0.1)">
       <use xlink:href="#DejaVuSans-56"/>
       <use x="63.623047" xlink:href="#DejaVuSans-48"/>
       <use x="127.246094" xlink:href="#DejaVuSans-48"/>
      </g>
     </g>
    </g>
   </g>
   <g id="matplotlib.axis_2">
    <g id="ytick_1">
     <g id="line2d_6">
      <defs>
       <path d="M 0 0 
L -3.5 0 
" id="me86c8fed5e" style="stroke:#000000;stroke-width:0.8;"/>
      </defs>
      <g>
       <use style="stroke:#000000;stroke-width:0.8;" x="24.19" xlink:href="#me86c8fed5e" y="386.959198"/>
      </g>
     </g>
     <g id="text_6">
      <!-- 0 -->
      <g transform="translate(10.8275 390.758416)scale(0.1 -0.1)">
       <use xlink:href="#DejaVuSans-48"/>
      </g>
     </g>
    </g>
    <g id="ytick_2">
     <g id="line2d_7">
      <g>
       <use style="stroke:#000000;stroke-width:0.8;" x="24.19" xlink:href="#me86c8fed5e" y="329.785708"/>
      </g>
     </g>
     <g id="text_7">
      <!-- 1 -->
      <defs>
       <path d="M 12.40625 8.296875 
L 28.515625 8.296875 
L 28.515625 63.921875 
L 10.984375 60.40625 
L 10.984375 69.390625 
L 28.421875 72.90625 
L 38.28125 72.90625 
L 38.28125 8.296875 
L 54.390625 8.296875 
L 54.390625 0 
L 12.40625 0 
z
" id="DejaVuSans-49"/>
      </defs>
      <g transform="translate(10.8275 333.584926)scale(0.1 -0.1)">
       <use xlink:href="#DejaVuSans-49"/>
      </g>
     </g>
    </g>
    <g id="ytick_3">
     <g id="line2d_8">
      <g>
       <use style="stroke:#000000;stroke-width:0.8;" x="24.19" xlink:href="#me86c8fed5e" y="272.612218"/>
      </g>
     </g>
     <g id="text_8">
      <!-- 2 -->
      <g transform="translate(10.8275 276.411436)scale(0.1 -0.1)">
       <use xlink:href="#DejaVuSans-50"/>
      </g>
     </g>
    </g>
    <g id="ytick_4">
     <g id="line2d_9">
      <g>
       <use style="stroke:#000000;stroke-width:0.8;" x="24.19" xlink:href="#me86c8fed5e" y="215.438728"/>
      </g>
     </g>
     <g id="text_9">
      <!-- 3 -->
      <defs>
       <path d="M 40.578125 39.3125 
Q 47.65625 37.796875 51.625 33 
Q 55.609375 28.21875 55.609375 21.1875 
Q 55.609375 10.40625 48.1875 4.484375 
Q 40.765625 -1.421875 27.09375 -1.421875 
Q 22.515625 -1.421875 17.65625 -0.515625 
Q 12.796875 0.390625 7.625 2.203125 
L 7.625 11.71875 
Q 11.71875 9.328125 16.59375 8.109375 
Q 21.484375 6.890625 26.8125 6.890625 
Q 36.078125 6.890625 40.9375 10.546875 
Q 45.796875 14.203125 45.796875 21.1875 
Q 45.796875 27.640625 41.28125 31.265625 
Q 36.765625 34.90625 28.71875 34.90625 
L 20.21875 34.90625 
L 20.21875 43.015625 
L 29.109375 43.015625 
Q 36.375 43.015625 40.234375 45.921875 
Q 44.09375 48.828125 44.09375 54.296875 
Q 44.09375 59.90625 40.109375 62.90625 
Q 36.140625 65.921875 28.71875 65.921875 
Q 24.65625 65.921875 20.015625 65.03125 
Q 15.375 64.15625 9.8125 62.3125 
L 9.8125 71.09375 
Q 15.4375 72.65625 20.34375 73.4375 
Q 25.25 74.21875 29.59375 74.21875 
Q 40.828125 74.21875 47.359375 69.109375 
Q 53.90625 64.015625 53.90625 55.328125 
Q 53.90625 49.265625 50.4375 45.09375 
Q 46.96875 40.921875 40.578125 39.3125 
z
" id="DejaVuSans-51"/>
      </defs>
      <g transform="translate(10.8275 219.237946)scale(0.1 -0.1)">
       <use xlink:href="#DejaVuSans-51"/>
      </g>
     </g>
    </g>
    <g id="ytick_5">
     <g id="line2d_10">
      <g>
       <use style="stroke:#000000;stroke-width:0.8;" x="24.19" xlink:href="#me86c8fed5e" y="158.265238"/>
      </g>
     </g>
     <g id="text_10">
      <!-- 4 -->
      <g transform="translate(10.8275 162.064457)scale(0.1 -0.1)">
       <use xlink:href="#DejaVuSans-52"/>
      </g>
     </g>
    </g>
    <g id="ytick_6">
     <g id="line2d_11">
      <g>
       <use style="stroke:#000000;stroke-width:0.8;" x="24.19" xlink:href="#me86c8fed5e" y="101.091748"/>
      </g>
     </g>
     <g id="text_11">
      <!-- 5 -->
      <defs>
       <path d="M 10.796875 72.90625 
L 49.515625 72.90625 
L 49.515625 64.59375 
L 19.828125 64.59375 
L 19.828125 46.734375 
Q 21.96875 47.46875 24.109375 47.828125 
Q 26.265625 48.1875 28.421875 48.1875 
Q 40.625 48.1875 47.75 41.5 
Q 54.890625 34.8125 54.890625 23.390625 
Q 54.890625 11.625 47.5625 5.09375 
Q 40.234375 -1.421875 26.90625 -1.421875 
Q 22.3125 -1.421875 17.546875 -0.640625 
Q 12.796875 0.140625 7.71875 1.703125 
L 7.71875 11.625 
Q 12.109375 9.234375 16.796875 8.0625 
Q 21.484375 6.890625 26.703125 6.890625 
Q 35.15625 6.890625 40.078125 11.328125 
Q 45.015625 15.765625 45.015625 23.390625 
Q 45.015625 31 40.078125 35.4375 
Q 35.15625 39.890625 26.703125 39.890625 
Q 22.75 39.890625 18.8125 39.015625 
Q 14.890625 38.140625 10.796875 36.28125 
z
" id="DejaVuSans-53"/>
      </defs>
      <g transform="translate(10.8275 104.890967)scale(0.1 -0.1)">
       <use xlink:href="#DejaVuSans-53"/>
      </g>
     </g>
    </g>
    <g id="ytick_7">
     <g id="line2d_12">
      <g>
       <use style="stroke:#000000;stroke-width:0.8;" x="24.19" xlink:href="#me86c8fed5e" y="43.918258"/>
      </g>
     </g>
     <g id="text_12">
      <!-- 6 -->
      <g transform="translate(10.8275 47.717477)scale(0.1 -0.1)">
       <use xlink:href="#DejaVuSans-54"/>
      </g>
     </g>
    </g>
   </g>
   <g id="line2d_13">
    <path clip-path="url(#p7ee695d446)" d="M 37.505025 386.620721 
L 41.008979 386.697512 
L 43.812142 386.650613 
L 45.914515 386.723199 
L 51.520841 386.595251 
L 62.032703 386.538076 
L 78.150891 386.715571 
L 83.056426 386.735771 
L 90.765125 386.779588 
L 101.977778 386.613136 
L 125.103874 386.58066 
L 127.206246 386.537434 
L 133.513363 386.546937 
L 136.316527 386.60965 
L 139.82048 386.663457 
L 141.222062 386.60335 
L 171.356066 386.567526 
L 175.560811 386.408885 
L 183.9703 386.247327 
L 189.576627 386.313333 
L 191.678999 386.387747 
L 193.080581 386.41144 
L 195.182953 386.390734 
L 198.686907 386.410946 
L 213.403514 386.226959 
L 215.505886 386.287126 
L 217.608258 386.232105 
L 219.710631 386.285977 
L 221.813003 386.306371 
L 224.616166 386.271936 
L 236.52961 386.362623 
L 240.734354 386.481087 
L 242.836727 386.424277 
L 244.238308 386.424616 
L 246.340681 386.528337 
L 261.057287 386.242553 
L 263.15966 386.23631 
L 264.561241 386.174414 
L 268.765986 386.259174 
L 270.167568 386.388277 
L 276.474685 386.334098 
L 282.781802 386.400553 
L 284.884174 386.390191 
L 291.191291 386.421124 
L 292.592873 386.382797 
L 294.695245 386.439271 
L 305.207107 386.52291 
L 306.608689 386.541261 
L 315.018178 386.634422 
L 317.120551 386.696104 
L 341.648228 386.626307 
L 365.475115 386.672278 
L 385.798048 386.687924 
L 387.90042 386.631813 
L 398.412282 386.60011 
L 400.514655 386.661153 
L 404.719399 386.605164 
L 406.821772 386.573042 
L 411.026517 386.642482 
L 418.735215 386.671605 
L 422.239169 386.697599 
L 429.947868 386.609427 
L 444.664474 386.68246 
L 460.782663 386.065206 
L 462.885035 386.068179 
L 469.192152 385.942048 
L 474.097688 385.974907 
L 476.20006 386.047818 
L 479.003223 386.082606 
L 480.404805 386.095745 
L 483.207968 386.108751 
L 485.31034 386.075039 
L 495.121411 386.020607 
L 497.924575 386.096448 
L 500.727738 386.045243 
L 502.129319 386.077815 
L 506.334064 385.977763 
L 508.436436 386.055753 
L 511.2396 386.019828 
L 521.751461 386.159809 
L 523.153043 386.148592 
L 525.956206 386.118664 
L 548.381512 386.167662 
L 551.184675 386.267668 
L 553.287047 386.264728 
L 556.791001 386.249289 
L 558.893373 386.287033 
L 565.901281 386.111897 
L 568.003654 386.151592 
L 570.106026 386.131874 
L 571.507608 386.112876 
L 572.909189 386.102281 
L 574.310771 386.165119 
L 584.121842 386.090061 
L 610.751892 386.240514 
L 612.854264 386.158009 
L 622.665335 386.152462 
L 624.066917 386.161986 
L 630.374034 386.271323 
L 634.578779 386.33894 
L 641.586687 386.244156 
L 644.38985 386.224485 
L 647.893804 386.214163 
L 649.295385 386.19536 
L 651.397758 386.254535 
L 654.901712 386.299099 
L 657.004084 386.343149 
L 659.106456 386.355466 
L 660.508038 386.322943 
L 661.90962 386.255549 
L 663.311201 386.307996 
L 669.618318 386.266554 
L 671.0199 386.322635 
L 673.823063 386.258828 
L 675.925435 386.297749 
L 678.027808 386.204142 
L 687.838879 386.162921 
L 689.24046 386.189455 
L 694.846787 386.394575 
L 701.153904 386.346362 
L 703.256276 386.386148 
L 710.964975 386.211849 
L 713.067347 386.192373 
L 716.571301 386.165366 
L 720.075255 386.239403 
L 722.878418 386.211463 
L 724.28 386.237085 
L 724.28 386.237085 
" style="fill:none;stroke:#1f77b4;stroke-linecap:square;stroke-width:1.5;"/>
   </g>
   <g id="line2d_14">
    <path clip-path="url(#p7ee695d446)" d="M 37.505025 386.936195 
L 183.26951 386.824661 
L 185.371882 386.720615 
L 187.474254 386.628497 
L 189.576627 386.58097 
L 200.789279 386.68399 
L 203.592442 386.77765 
L 212.001932 386.87058 
L 214.104304 386.916776 
L 228.12012 386.8277 
L 230.923283 386.734128 
L 242.135936 386.82157 
L 244.939099 386.914294 
L 247.742262 386.821539 
L 305.907898 386.729014 
L 308.711061 386.587797 
L 310.112643 386.633846 
L 313.616597 386.498675 
L 319.222923 386.59394 
L 323.427668 386.782582 
L 326.931622 386.874381 
L 329.033994 386.91869 
L 444.664474 386.826253 
L 455.877127 386.175619 
L 462.184244 386.261754 
L 465.688198 386.403372 
L 468.491361 386.494873 
L 469.892943 386.540286 
L 471.294525 386.541372 
L 474.798478 386.674151 
L 479.704014 386.76407 
L 481.806386 386.807847 
L 523.153043 386.808419 
L 525.956206 386.899266 
L 545.578348 386.807316 
L 547.680721 386.7628 
L 559.594164 386.855593 
L 561.696537 386.901533 
L 585.523423 386.802737 
L 595.334494 386.27073 
L 600.24003 386.362481 
L 609.35031 386.865381 
L 723.579209 386.863958 
L 724.28 386.91241 
L 724.28 386.91241 
" style="fill:none;stroke:#ff7f0e;stroke-linecap:square;stroke-width:1.5;"/>
   </g>
   <g id="line2d_15">
    <path clip-path="url(#p7ee695d446)" d="M 37.505025 375.227879 
L 38.205816 374.977756 
L 38.906607 375.027942 
L 39.607397 371.406757 
L 40.308188 370.41829 
L 41.008979 369.999828 
L 41.70977 369.960625 
L 42.410561 369.263614 
L 43.111351 369.158112 
L 43.812142 368.642439 
L 44.512933 367.977486 
L 45.213724 368.067939 
L 45.914515 368.610865 
L 46.615305 368.543853 
L 47.316096 369.326287 
L 48.016887 369.618864 
L 48.717678 369.590296 
L 49.418468 370.480999 
L 50.119259 370.341441 
L 50.82005 371.300418 
L 51.520841 370.467027 
L 52.922422 370.458409 
L 53.623213 375.811396 
L 55.024795 378.134308 
L 55.725586 378.135225 
L 56.426376 378.413469 
L 57.127167 378.469795 
L 57.827958 377.867449 
L 58.528749 378.712649 
L 59.22954 378.77443 
L 59.93033 378.479533 
L 60.631121 378.655543 
L 61.331912 378.655375 
L 62.032703 379.713987 
L 62.733493 379.32494 
L 63.434284 378.758435 
L 64.135075 378.642381 
L 64.835866 378.407799 
L 65.536657 379.318734 
L 66.237447 379.491345 
L 66.938238 379.265859 
L 67.639029 377.959516 
L 68.33982 378.007121 
L 69.040611 378.170655 
L 69.741401 377.424075 
L 70.442192 372.784925 
L 71.142983 372.777684 
L 71.843774 371.229074 
L 72.544565 369.997567 
L 73.946146 368.14011 
L 75.347728 367.167704 
L 76.048519 365.957852 
L 76.749309 366.347978 
L 77.4501 367.251145 
L 78.150891 367.462087 
L 78.851682 368.063869 
L 79.552472 364.416445 
L 80.253263 364.213362 
L 80.954054 364.365867 
L 81.654845 364.187881 
L 82.355636 362.540415 
L 83.056426 362.468215 
L 83.757217 361.541724 
L 84.458008 365.936986 
L 85.158799 364.515447 
L 85.85959 367.055051 
L 86.56038 368.275189 
L 87.261171 369.108675 
L 87.961962 370.25494 
L 88.662753 370.434175 
L 89.363544 370.909431 
L 90.064334 372.21956 
L 90.765125 369.94245 
L 91.465916 368.999014 
L 92.166707 369.064099 
L 92.867497 368.021136 
L 93.568288 371.599463 
L 94.269079 371.300877 
L 94.96987 371.299966 
L 95.670661 372.110324 
L 96.371451 373.687382 
L 97.072242 373.448656 
L 97.773033 375.162693 
L 98.473824 375.297572 
L 99.174615 376.714482 
L 99.875405 377.058171 
L 101.276987 376.997747 
L 101.977778 377.11782 
L 102.678569 376.991357 
L 103.379359 376.991435 
L 104.08015 377.174766 
L 104.780941 378.655173 
L 105.481732 379.467189 
L 106.182523 378.345177 
L 106.883313 378.95212 
L 107.584104 378.644772 
L 108.284895 377.928411 
L 108.985686 377.992606 
L 109.686476 378.483041 
L 110.387267 376.815966 
L 111.088058 372.499513 
L 111.788849 371.073177 
L 112.48964 371.557428 
L 113.19043 370.929434 
L 114.592012 371.016358 
L 115.292803 370.74456 
L 115.993594 370.744207 
L 116.694384 369.343466 
L 117.395175 369.027513 
L 118.095966 369.019715 
L 118.796757 369.752621 
L 119.497548 369.800102 
L 120.198338 361.426656 
L 120.899129 361.925705 
L 121.59992 360.755296 
L 122.300711 361.501289 
L 123.001502 360.354302 
L 123.702292 360.525121 
L 124.403083 362.256041 
L 125.103874 366.872047 
L 125.804665 365.279438 
L 126.505455 365.284343 
L 127.206246 365.717229 
L 127.907037 365.454717 
L 128.607828 365.002274 
L 129.308619 365.060647 
L 130.009409 363.530031 
L 130.7102 365.351604 
L 131.410991 365.351808 
L 132.111782 362.22526 
L 133.513363 362.354355 
L 134.214154 368.67443 
L 134.914945 368.525159 
L 135.615736 368.772666 
L 136.316527 369.22906 
L 137.017317 370.181013 
L 137.718108 369.60634 
L 138.418899 369.472899 
L 139.11969 369.212293 
L 139.82048 372.229655 
L 140.521271 372.217329 
L 141.222062 370.294578 
L 141.922853 370.434964 
L 142.623644 370.763122 
L 143.324434 369.995942 
L 144.025225 370.746693 
L 144.726016 369.334845 
L 145.426807 369.645877 
L 146.127598 370.340575 
L 146.828388 369.182399 
L 147.529179 368.482384 
L 148.22997 371.653154 
L 148.930761 371.974813 
L 149.631552 372.637633 
L 150.332342 372.385011 
L 151.033133 372.508445 
L 151.733924 363.430392 
L 152.434715 363.555928 
L 153.135506 363.809388 
L 153.836296 363.431778 
L 154.537087 363.313147 
L 155.237878 365.301294 
L 155.938669 365.297057 
L 156.639459 364.778789 
L 157.34025 364.547542 
L 158.041041 363.702618 
L 158.741832 364.860402 
L 159.442623 364.792096 
L 160.143413 367.226026 
L 160.844204 368.384163 
L 161.544995 369.022708 
L 162.245786 368.960958 
L 162.946577 368.457925 
L 163.647367 369.082704 
L 164.348158 369.099292 
L 165.048949 366.972922 
L 165.74974 374.328791 
L 166.450531 373.914626 
L 167.151321 371.8848 
L 167.852112 371.912393 
L 168.552903 371.455237 
L 169.253694 370.860664 
L 169.954484 369.648133 
L 170.655275 369.723268 
L 171.356066 370.353803 
L 172.056857 369.44381 
L 173.458438 357.4843 
L 174.159229 355.475612 
L 174.86002 349.443503 
L 175.560811 348.281432 
L 176.962392 347.466826 
L 177.663183 346.500471 
L 178.363974 341.997376 
L 179.064765 339.701974 
L 179.765556 341.063405 
L 180.466346 337.698498 
L 181.167137 337.495231 
L 181.867928 331.92306 
L 182.568719 331.863088 
L 183.26951 331.549656 
L 183.9703 332.039907 
L 184.671091 331.818032 
L 185.371882 330.358789 
L 186.072673 332.399908 
L 186.773463 337.871192 
L 187.474254 339.173972 
L 188.175045 340.066446 
L 188.875836 341.827815 
L 189.576627 341.849957 
L 190.277417 339.765157 
L 190.978208 335.930652 
L 191.678999 335.924531 
L 192.37979 339.120954 
L 193.080581 341.179834 
L 193.781371 337.775567 
L 194.482162 340.631047 
L 195.182953 336.651597 
L 195.883744 341.258382 
L 196.584535 339.199588 
L 197.285325 339.591173 
L 197.986116 338.478719 
L 198.686907 336.138146 
L 199.387698 336.592655 
L 200.088488 333.465389 
L 200.789279 333.186071 
L 201.49007 335.525401 
L 202.190861 333.557296 
L 202.891652 336.836738 
L 203.592442 334.131311 
L 204.293233 335.740867 
L 204.994024 337.814752 
L 205.694815 332.754308 
L 206.395606 332.410413 
L 207.096396 332.470252 
L 207.797187 330.195491 
L 208.497978 323.176503 
L 209.198769 328.175008 
L 209.89956 325.969237 
L 210.60035 328.364702 
L 211.301141 328.540207 
L 212.001932 330.207252 
L 212.702723 329.86637 
L 213.403514 330.776626 
L 214.104304 332.246443 
L 214.805095 330.929755 
L 215.505886 324.423787 
L 216.206677 326.979881 
L 216.907467 323.816147 
L 217.608258 327.29421 
L 218.309049 327.805538 
L 219.00984 327.430003 
L 219.710631 332.835057 
L 220.411421 333.66902 
L 221.813003 334.767009 
L 222.513794 342.048869 
L 223.214585 342.60215 
L 223.915375 343.806229 
L 224.616166 342.427442 
L 225.316957 340.223325 
L 226.017748 339.108721 
L 226.718539 341.597978 
L 227.419329 336.883626 
L 228.12012 336.514816 
L 228.820911 335.338887 
L 229.521702 343.516309 
L 230.222492 342.157289 
L 230.923283 344.943112 
L 231.624074 343.821939 
L 232.324865 343.2975 
L 233.025656 344.850262 
L 234.427237 344.770936 
L 235.128028 346.135804 
L 235.828819 350.048068 
L 236.52961 347.826117 
L 237.2304 341.797346 
L 237.931191 341.243706 
L 238.631982 338.42899 
L 239.332773 340.279815 
L 240.033564 339.741599 
L 240.734354 338.415031 
L 241.435145 343.432063 
L 242.135936 344.552672 
L 242.836727 347.138086 
L 243.537518 346.318889 
L 244.238308 347.27036 
L 244.939099 344.666507 
L 245.63989 343.80727 
L 246.340681 344.340784 
L 247.041471 343.178347 
L 247.742262 341.277318 
L 248.443053 338.401515 
L 249.143844 336.981499 
L 249.844635 338.651127 
L 250.545425 339.302868 
L 251.246216 342.072012 
L 251.947007 341.068375 
L 252.647798 344.594966 
L 253.348589 343.539193 
L 254.049379 342.850775 
L 254.75017 344.587003 
L 255.450961 340.69611 
L 256.151752 339.134242 
L 256.852543 339.785952 
L 257.553333 340.609317 
L 258.254124 340.355579 
L 258.954915 344.105152 
L 259.655706 344.056212 
L 260.356496 342.317245 
L 261.057287 342.762583 
L 263.15966 345.065241 
L 263.86045 345.211707 
L 264.561241 344.286991 
L 265.262032 347.511727 
L 265.962823 348.670926 
L 266.663614 346.708693 
L 267.364404 347.250934 
L 268.065195 342.838995 
L 268.765986 342.424198 
L 269.466777 345.903174 
L 270.167568 348.501156 
L 270.868358 342.777796 
L 271.569149 342.115735 
L 272.26994 342.254673 
L 272.970731 340.989378 
L 273.671522 342.318297 
L 274.372312 342.364536 
L 275.073103 342.841553 
L 275.773894 342.136579 
L 276.474685 343.876093 
L 277.175475 340.257608 
L 277.876266 339.077364 
L 278.577057 340.196312 
L 279.277848 337.460193 
L 279.978639 338.49277 
L 280.679429 339.222642 
L 281.38022 336.258227 
L 282.081011 339.831483 
L 282.781802 336.014869 
L 284.183383 324.63073 
L 284.884174 330.033711 
L 285.584965 329.810049 
L 286.285756 330.440553 
L 287.687337 329.708181 
L 288.388128 330.159814 
L 289.088919 329.997595 
L 289.78971 326.941823 
L 290.490501 327.223729 
L 291.191291 326.979523 
L 291.892082 327.537971 
L 292.592873 326.609228 
L 293.293664 326.025576 
L 293.994454 326.446412 
L 294.695245 325.012995 
L 295.396036 324.813012 
L 296.096827 326.732448 
L 296.797618 327.484781 
L 297.498408 332.072654 
L 298.199199 337.596885 
L 298.89999 334.430864 
L 299.600781 334.625772 
L 300.301572 333.100009 
L 301.002362 327.91225 
L 301.703153 328.737026 
L 302.403944 325.63969 
L 303.104735 325.672946 
L 303.805526 328.455129 
L 304.506316 329.189682 
L 305.207107 332.547534 
L 305.907898 332.041681 
L 306.608689 334.478298 
L 307.309479 338.269806 
L 308.01027 337.220728 
L 308.711061 340.288002 
L 309.411852 344.163413 
L 310.112643 345.495225 
L 310.813433 349.452962 
L 311.514224 349.646941 
L 312.215015 350.201465 
L 312.915806 353.917168 
L 313.616597 354.180451 
L 314.317387 356.041612 
L 315.018178 361.709857 
L 315.718969 362.121087 
L 316.41976 366.830939 
L 317.120551 368.499905 
L 317.821341 370.57438 
L 318.522132 367.016206 
L 319.222923 368.496109 
L 319.923714 367.952192 
L 320.624505 368.403378 
L 321.325295 367.583599 
L 322.726877 366.574931 
L 323.427668 365.44981 
L 324.128458 365.253146 
L 324.829249 364.168099 
L 325.53004 364.880849 
L 326.230831 363.966869 
L 327.632412 362.986432 
L 328.333203 362.849321 
L 329.033994 363.40589 
L 329.734785 362.207457 
L 330.435576 362.138689 
L 331.136366 359.416004 
L 331.837157 359.501693 
L 332.537948 362.412729 
L 333.238739 362.152142 
L 333.93953 363.831454 
L 335.341111 363.673115 
L 336.742693 365.58275 
L 337.443483 367.289971 
L 338.144274 363.21546 
L 338.845065 363.319811 
L 339.545856 363.103787 
L 340.246647 363.956459 
L 340.947437 364.272961 
L 341.648228 363.097057 
L 342.349019 362.142748 
L 343.04981 359.746001 
L 343.750601 361.124149 
L 344.451391 361.068639 
L 345.152182 362.599783 
L 345.852973 362.054705 
L 346.553764 362.878217 
L 347.955345 363.195072 
L 348.656136 362.415857 
L 349.356927 360.693067 
L 350.057718 361.514513 
L 350.758509 359.792097 
L 351.459299 358.406604 
L 352.16009 362.400131 
L 353.561672 363.125673 
L 354.262462 362.134742 
L 354.963253 361.843178 
L 355.664044 363.773047 
L 356.364835 361.82131 
L 357.065626 363.640798 
L 357.766416 363.200562 
L 358.467207 360.922498 
L 359.167998 360.799454 
L 359.868789 361.449009 
L 360.56958 361.436745 
L 361.27037 361.297055 
L 361.971161 360.843473 
L 362.671952 359.26298 
L 363.372743 361.616827 
L 364.073534 357.068972 
L 364.774324 354.490889 
L 365.475115 355.199256 
L 366.175906 354.445535 
L 366.876697 355.024112 
L 367.577487 353.375161 
L 368.979069 354.911632 
L 369.67986 354.693548 
L 370.380651 357.733138 
L 371.081441 358.779438 
L 371.782232 358.912275 
L 372.483023 360.867459 
L 373.183814 361.977314 
L 374.585395 362.12538 
L 375.286186 360.817177 
L 375.986977 360.933655 
L 376.687768 362.721693 
L 377.388559 357.831394 
L 378.089349 362.515271 
L 378.79014 366.181534 
L 379.490931 366.083733 
L 380.191722 367.108774 
L 380.892513 366.475186 
L 381.593303 368.151878 
L 382.294094 368.581234 
L 382.994885 368.120235 
L 383.695676 367.264259 
L 384.396466 366.646509 
L 385.097257 366.640187 
L 385.798048 366.781922 
L 386.498839 366.740495 
L 387.19963 365.168994 
L 387.90042 364.693025 
L 388.601211 363.313506 
L 389.302002 364.518164 
L 390.002793 363.981038 
L 390.703584 363.021945 
L 391.404374 368.117622 
L 392.805956 368.670843 
L 393.506747 367.12361 
L 394.207538 366.995133 
L 394.908328 365.566138 
L 395.609119 363.765027 
L 396.30991 362.804051 
L 397.010701 363.274782 
L 397.711491 364.564021 
L 398.412282 363.710947 
L 399.813864 364.063416 
L 400.514655 362.708515 
L 401.215445 364.356516 
L 401.916236 362.849556 
L 402.617027 363.016689 
L 403.317818 362.644602 
L 404.018609 362.705116 
L 404.719399 364.095887 
L 406.120981 361.760914 
L 406.821772 359.005842 
L 407.522563 361.201334 
L 408.223353 361.128697 
L 409.624935 362.484948 
L 411.026517 362.404751 
L 411.727307 361.608565 
L 412.428098 361.358025 
L 413.128889 361.494149 
L 413.82968 360.900608 
L 414.53047 362.166043 
L 415.932052 361.292521 
L 417.333634 361.832613 
L 418.034424 362.525169 
L 418.735215 361.969313 
L 420.136797 365.07003 
L 420.837588 366.973012 
L 421.538378 366.203274 
L 422.93996 366.281293 
L 423.640751 367.126321 
L 424.341542 368.231893 
L 425.042332 366.771373 
L 425.743123 364.930659 
L 426.443914 365.231875 
L 427.144705 364.878896 
L 427.845495 363.596268 
L 428.546286 363.552087 
L 429.247077 361.899053 
L 429.947868 363.702989 
L 430.648659 364.556297 
L 431.349449 362.611503 
L 432.05024 362.394222 
L 432.751031 362.312175 
L 434.152613 359.931114 
L 435.554194 360.408773 
L 436.254985 360.666127 
L 436.955776 361.095677 
L 438.357357 359.37335 
L 439.058148 360.907261 
L 439.758939 362.711495 
L 440.45973 362.948312 
L 441.160521 361.223649 
L 441.861311 360.18359 
L 442.562102 359.365853 
L 443.262893 361.097995 
L 443.963684 361.514568 
L 444.664474 360.871414 
L 445.365265 362.123314 
L 446.066056 352.227334 
L 446.766847 349.360167 
L 447.467638 340.138289 
L 448.168428 339.173449 
L 449.57001 324.967536 
L 450.270801 322.788716 
L 450.971592 318.927145 
L 451.672382 318.620517 
L 452.373173 312.334043 
L 453.073964 310.444609 
L 453.774755 307.466179 
L 454.475546 298.27875 
L 455.176336 298.614765 
L 455.877127 291.733119 
L 456.577918 283.344451 
L 457.278709 277.93186 
L 458.68029 269.681504 
L 459.381081 269.616311 
L 460.081872 273.393302 
L 460.782663 276.00591 
L 461.483453 281.554094 
L 462.184244 278.721418 
L 462.885035 276.944875 
L 463.585826 280.41241 
L 464.286617 278.62109 
L 464.987407 278.654665 
L 465.688198 275.975075 
L 466.388989 281.140454 
L 467.08978 281.010478 
L 467.790571 274.745174 
L 468.491361 281.971392 
L 469.192152 276.830288 
L 469.892943 276.247785 
L 470.593734 278.979237 
L 471.294525 274.70234 
L 471.995315 274.007974 
L 472.696106 277.086481 
L 473.396897 275.023672 
L 474.097688 271.221484 
L 474.798478 269.447013 
L 476.20006 276.083553 
L 476.900851 275.999833 
L 478.302432 268.681685 
L 479.003223 263.089654 
L 479.704014 263.745414 
L 481.105596 246.952723 
L 481.806386 252.35105 
L 482.507177 250.685207 
L 483.207968 249.448935 
L 483.908759 254.26744 
L 484.60955 259.918685 
L 485.31034 260.922349 
L 486.011131 257.875135 
L 486.711922 256.259661 
L 487.412713 258.061537 
L 488.113504 258.086183 
L 488.814294 259.488828 
L 489.515085 257.414688 
L 490.215876 248.961576 
L 490.916667 253.795548 
L 491.617457 255.628228 
L 492.318248 259.153795 
L 493.019039 268.005876 
L 493.71983 263.549478 
L 494.420621 272.478875 
L 495.121411 277.14383 
L 495.822202 280.406561 
L 497.223784 279.902347 
L 497.924575 277.34544 
L 498.625365 277.042128 
L 499.326156 284.419832 
L 500.026947 288.902104 
L 500.727738 291.22659 
L 501.428529 289.345279 
L 502.129319 298.959885 
L 502.83011 293.64196 
L 503.530901 292.406081 
L 504.231692 292.156225 
L 505.633273 296.455134 
L 507.034855 284.714259 
L 507.735646 289.450349 
L 508.436436 290.348386 
L 509.137227 289.527365 
L 509.838018 286.286168 
L 510.538809 289.887177 
L 511.2396 287.997551 
L 511.94039 293.573901 
L 512.641181 292.177832 
L 513.341972 291.881593 
L 514.042763 292.268505 
L 514.743554 286.754143 
L 515.444344 287.243717 
L 516.145135 284.681402 
L 516.845926 287.143412 
L 517.546717 283.887249 
L 518.247508 286.292144 
L 518.948298 284.140137 
L 519.649089 277.386568 
L 520.34988 285.347004 
L 521.050671 289.408493 
L 522.452252 286.965748 
L 523.153043 292.311234 
L 523.853834 294.191017 
L 524.554625 291.489791 
L 525.255415 301.021953 
L 525.956206 293.21094 
L 526.656997 293.353281 
L 527.357788 294.035835 
L 528.058579 289.77533 
L 528.759369 295.008126 
L 529.46016 294.404635 
L 530.160951 294.016104 
L 530.861742 289.649617 
L 531.562533 289.912322 
L 532.263323 296.778826 
L 532.964114 297.56322 
L 533.664905 305.947684 
L 535.066486 301.314493 
L 535.767277 304.477602 
L 536.468068 304.121535 
L 537.168859 303.297805 
L 537.86965 296.079031 
L 538.57044 298.577099 
L 539.271231 289.063578 
L 539.972022 291.320467 
L 540.672813 289.891842 
L 541.373604 281.133647 
L 542.074394 278.462453 
L 542.775185 274.723974 
L 543.475976 273.194483 
L 544.176767 269.263919 
L 544.877558 267.543799 
L 545.578348 267.981078 
L 546.97993 255.959484 
L 547.680721 255.086562 
L 548.381512 250.17616 
L 549.082302 249.731386 
L 549.783093 248.972406 
L 550.483884 249.469685 
L 551.184675 250.426001 
L 551.885465 251.931863 
L 552.586256 248.379556 
L 553.287047 252.033501 
L 553.987838 250.023039 
L 554.688629 244.287377 
L 555.389419 253.099087 
L 556.791001 261.017582 
L 557.491792 263.14751 
L 558.192583 264.400059 
L 558.893373 273.780652 
L 559.594164 270.668568 
L 560.294955 276.559869 
L 560.995746 285.974656 
L 561.696537 285.655581 
L 562.397327 294.436435 
L 563.098118 298.217717 
L 563.798909 298.771639 
L 565.20049 281.769852 
L 565.901281 280.399008 
L 566.602072 278.265592 
L 567.302863 280.619748 
L 568.003654 286.846918 
L 568.704444 291.217333 
L 569.405235 283.159089 
L 570.106026 285.071928 
L 570.806817 283.706999 
L 571.507608 276.243537 
L 572.208398 272.729697 
L 572.909189 272.358236 
L 573.60998 279.603046 
L 574.310771 279.260779 
L 575.011562 276.290679 
L 575.712352 279.008727 
L 576.413143 272.952105 
L 577.113934 271.835443 
L 577.814725 271.54047 
L 578.515516 279.560766 
L 579.216306 278.769338 
L 579.917097 278.531077 
L 580.617888 282.889097 
L 581.318679 285.235665 
L 582.019469 286.146441 
L 582.72026 290.197501 
L 583.421051 296.903386 
L 584.121842 299.557563 
L 584.822633 299.181699 
L 585.523423 301.069685 
L 586.224214 307.974927 
L 586.925005 301.027986 
L 587.625796 300.554102 
L 588.326587 302.363865 
L 589.027377 305.563665 
L 589.728168 296.077754 
L 591.12975 298.286826 
L 592.531331 300.925327 
L 593.932913 312.62059 
L 594.633704 310.905509 
L 595.334494 312.41774 
L 596.736076 301.650582 
L 597.436867 301.457226 
L 598.137658 300.855191 
L 598.838448 303.079986 
L 599.539239 306.719899 
L 600.24003 304.098315 
L 600.940821 302.091894 
L 601.641612 302.533151 
L 602.342402 295.425954 
L 603.043193 294.276198 
L 603.743984 298.64488 
L 604.444775 293.976428 
L 605.145566 294.927627 
L 605.846356 285.406188 
L 606.547147 283.744859 
L 607.247938 286.57789 
L 607.948729 283.012486 
L 608.64952 281.535557 
L 609.35031 278.415619 
L 610.051101 282.630139 
L 610.751892 288.305049 
L 611.452683 286.73206 
L 612.153473 278.580493 
L 612.854264 279.146571 
L 614.255846 275.34455 
L 614.956637 277.341074 
L 615.657427 270.133853 
L 616.358218 269.558206 
L 617.059009 265.950058 
L 617.7598 264.344324 
L 618.460591 269.213643 
L 619.161381 264.388098 
L 619.862172 266.263841 
L 620.562963 266.459851 
L 621.263754 267.013257 
L 621.964545 267.377014 
L 622.665335 268.40843 
L 623.366126 266.249588 
L 624.066917 266.460575 
L 624.767708 265.429194 
L 625.468498 261.712168 
L 626.169289 269.145111 
L 626.87008 268.270194 
L 627.570871 271.324767 
L 628.271662 268.348325 
L 628.972452 273.025541 
L 630.374034 288.064593 
L 631.074825 283.174331 
L 631.775616 280.030043 
L 632.476406 279.15189 
L 633.177197 275.588723 
L 633.877988 283.219566 
L 634.578779 282.481715 
L 635.27957 278.688901 
L 635.98036 283.738437 
L 636.681151 285.240908 
L 637.381942 287.806408 
L 638.082733 288.363778 
L 638.783524 285.40999 
L 639.484314 288.373237 
L 640.185105 288.515033 
L 640.885896 284.755106 
L 641.586687 282.594866 
L 642.287477 289.76373 
L 642.988268 283.13003 
L 643.689059 282.704771 
L 644.38985 280.795508 
L 645.090641 289.62199 
L 645.791431 294.864058 
L 646.492222 299.038056 
L 647.193013 301.175325 
L 647.893804 300.561253 
L 648.594595 300.339774 
L 649.295385 295.093941 
L 649.996176 290.701475 
L 651.397758 284.900978 
L 652.098549 277.550688 
L 652.799339 278.850147 
L 653.50013 273.820979 
L 654.200921 275.820454 
L 655.602503 285.081441 
L 656.303293 281.916958 
L 657.004084 287.263739 
L 657.704875 287.119137 
L 658.405666 283.569273 
L 659.106456 283.485624 
L 659.807247 285.836108 
L 660.508038 282.530757 
L 661.208829 287.195434 
L 661.90962 278.175431 
L 662.61041 280.330657 
L 664.011992 289.934345 
L 665.413574 296.911985 
L 666.114364 300.518899 
L 666.815155 302.893836 
L 667.515946 311.536877 
L 668.216737 306.010245 
L 668.917528 296.249649 
L 669.618318 290.421137 
L 670.319109 295.804103 
L 671.0199 296.738677 
L 671.720691 297.484056 
L 672.421481 295.144786 
L 673.122272 289.847706 
L 673.823063 282.2992 
L 674.523854 284.68535 
L 675.224645 279.260339 
L 675.925435 279.293502 
L 676.626226 279.920353 
L 677.327017 282.927434 
L 678.027808 278.493801 
L 678.728599 271.576524 
L 679.429389 272.29581 
L 680.13018 278.212041 
L 680.830971 275.818819 
L 681.531762 272.648429 
L 682.232553 275.712491 
L 682.933343 279.892728 
L 683.634134 285.133036 
L 685.035716 281.624338 
L 685.736507 282.364083 
L 686.437297 281.599469 
L 687.138088 285.983259 
L 687.838879 289.361311 
L 688.53967 289.147532 
L 689.24046 289.155919 
L 689.941251 298.14984 
L 690.642042 293.523664 
L 691.342833 285.566395 
L 692.043624 289.583319 
L 692.744414 289.432289 
L 693.445205 288.315193 
L 694.145996 288.955225 
L 694.846787 292.435746 
L 695.547578 292.5042 
L 696.248368 291.30139 
L 696.949159 295.35973 
L 697.64995 292.82234 
L 698.350741 292.059527 
L 699.051532 294.741221 
L 699.752322 293.950699 
L 700.453113 295.616122 
L 701.153904 288.053163 
L 701.854695 291.710884 
L 702.555485 289.346563 
L 703.256276 290.641527 
L 703.957067 289.321836 
L 704.657858 290.13686 
L 705.358649 296.518049 
L 706.059439 295.146531 
L 706.76023 295.645828 
L 708.862603 288.393748 
L 709.563393 288.781286 
L 710.264184 291.091224 
L 710.964975 289.237898 
L 711.665766 291.369907 
L 713.067347 277.164548 
L 713.768138 275.203861 
L 714.468929 282.234895 
L 715.16972 285.463611 
L 715.870511 280.362119 
L 716.571301 282.317497 
L 717.272092 287.106684 
L 717.972883 285.92441 
L 718.673674 288.682863 
L 719.374464 290.942944 
L 720.075255 289.027162 
L 720.776046 296.79733 
L 721.476837 300.64142 
L 722.177628 298.455235 
L 722.878418 300.188554 
L 723.579209 295.275643 
L 724.28 293.426077 
L 724.28 293.426077 
" style="fill:none;stroke:#2ca02c;stroke-linecap:square;stroke-width:1.5;"/>
   </g>
   <g id="line2d_16">
    <path clip-path="url(#p7ee695d446)" d="M 37.505025 385.272193 
L 38.205816 385.236322 
L 38.906607 385.495306 
L 52.221632 385.495005 
L 134.214154 385.502073 
L 164.348158 385.472904 
L 165.048949 385.279509 
L 165.74974 384.864531 
L 167.151321 381.428962 
L 167.852112 381.098118 
L 168.552903 379.751978 
L 169.253694 377.787339 
L 169.954484 374.465376 
L 170.655275 373.702516 
L 171.356066 372.760198 
L 172.056857 372.340897 
L 172.757648 371.104982 
L 173.458438 368.602565 
L 174.159229 368.27588 
L 174.86002 367.399377 
L 175.560811 366.738649 
L 176.261602 360.523005 
L 176.962392 356.661666 
L 177.663183 353.788048 
L 178.363974 345.458588 
L 179.064765 341.925264 
L 180.466346 340.746679 
L 181.167137 339.19366 
L 181.867928 338.55727 
L 182.568719 335.881061 
L 183.26951 336.282585 
L 183.9703 339.184626 
L 184.671091 338.407135 
L 185.371882 338.540843 
L 186.072673 336.725178 
L 186.773463 337.347372 
L 187.474254 335.514205 
L 188.175045 334.606447 
L 188.875836 334.588629 
L 189.576627 334.33056 
L 190.277417 339.472115 
L 190.978208 342.06559 
L 191.678999 342.699028 
L 192.37979 342.744118 
L 193.080581 344.126106 
L 193.781371 344.299772 
L 194.482162 345.913438 
L 195.182953 348.828028 
L 195.883744 348.833327 
L 196.584535 345.142436 
L 197.285325 342.922572 
L 197.986116 342.279109 
L 198.686907 341.279778 
L 199.387698 338.820256 
L 200.088488 339.295524 
L 200.789279 337.550968 
L 201.49007 338.40731 
L 202.190861 338.87661 
L 202.891652 339.20055 
L 203.592442 339.045376 
L 204.293233 339.702273 
L 204.994024 336.528449 
L 205.694815 336.777767 
L 206.395606 342.253858 
L 207.096396 344.17397 
L 207.797187 342.371064 
L 208.497978 342.530776 
L 209.198769 337.916985 
L 209.89956 336.72699 
L 210.60035 343.697893 
L 211.301141 345.199329 
L 212.001932 344.788875 
L 212.702723 346.877087 
L 213.403514 349.69172 
L 214.805095 351.829744 
L 215.505886 347.798607 
L 216.206677 347.811235 
L 216.907467 347.25917 
L 217.608258 346.067476 
L 218.309049 345.624808 
L 219.00984 349.626544 
L 219.710631 349.033805 
L 220.411421 350.421011 
L 221.112212 349.669449 
L 221.813003 350.438531 
L 222.513794 350.428923 
L 223.214585 353.511922 
L 223.915375 352.487159 
L 224.616166 352.58529 
L 225.316957 354.306071 
L 226.017748 353.426902 
L 226.718539 351.495273 
L 227.419329 348.33721 
L 228.12012 348.592627 
L 228.820911 348.660283 
L 229.521702 349.901344 
L 230.222492 344.442875 
L 230.923283 344.670558 
L 231.624074 345.509037 
L 232.324865 343.871373 
L 233.025656 341.932377 
L 233.726446 343.381985 
L 234.427237 340.02803 
L 235.128028 340.08278 
L 235.828819 338.895686 
L 236.52961 336.440554 
L 237.2304 337.069963 
L 237.931191 339.369702 
L 238.631982 338.624095 
L 240.033564 337.870804 
L 240.734354 339.743625 
L 241.435145 340.79323 
L 242.135936 340.534826 
L 242.836727 338.187383 
L 244.238308 349.318847 
L 244.939099 349.551233 
L 245.63989 350.343833 
L 246.340681 352.17497 
L 247.041471 353.531594 
L 247.742262 354.203595 
L 248.443053 358.531808 
L 249.143844 358.782954 
L 249.844635 359.76168 
L 250.545425 362.083099 
L 251.246216 362.74953 
L 251.947007 359.376739 
L 252.647798 360.280107 
L 254.049379 361.487321 
L 254.75017 361.213471 
L 255.450961 361.992155 
L 256.151752 360.596466 
L 256.852543 363.737772 
L 257.553333 359.994653 
L 258.254124 359.08756 
L 258.954915 359.098886 
L 259.655706 358.529182 
L 260.356496 357.339827 
L 261.057287 356.626227 
L 262.458869 356.354805 
L 263.86045 356.037596 
L 264.561241 355.69508 
L 265.262032 354.178556 
L 265.962823 357.901093 
L 266.663614 357.621131 
L 267.364404 357.701194 
L 268.065195 356.86129 
L 268.765986 356.240203 
L 269.466777 357.673369 
L 270.167568 358.471124 
L 270.868358 357.147089 
L 271.569149 360.63247 
L 272.26994 361.784649 
L 272.970731 361.522156 
L 273.671522 362.402461 
L 274.372312 363.039601 
L 275.773894 362.837952 
L 276.474685 352.742566 
L 277.175475 350.870103 
L 277.876266 352.531961 
L 278.577057 348.31992 
L 279.277848 349.019404 
L 280.679429 346.127469 
L 281.38022 342.23679 
L 282.081011 344.308854 
L 282.781802 343.723352 
L 283.482593 342.25079 
L 284.183383 342.849979 
L 284.884174 343.862624 
L 285.584965 342.483995 
L 286.285756 339.485257 
L 286.986547 337.256005 
L 287.687337 331.070397 
L 288.388128 330.930947 
L 289.088919 332.110645 
L 289.78971 327.721546 
L 290.490501 336.64547 
L 291.191291 338.19478 
L 291.892082 332.438662 
L 292.592873 334.635066 
L 293.994454 335.165961 
L 294.695245 336.588227 
L 295.396036 340.060143 
L 296.096827 339.914238 
L 296.797618 337.908563 
L 297.498408 338.832255 
L 298.199199 338.174975 
L 298.89999 337.907225 
L 299.600781 338.450434 
L 300.301572 337.380122 
L 301.002362 338.976765 
L 301.703153 345.14147 
L 302.403944 344.837178 
L 303.104735 341.779538 
L 303.805526 345.31227 
L 304.506316 345.490616 
L 305.207107 343.737143 
L 305.907898 348.982998 
L 306.608689 351.538494 
L 307.309479 350.984061 
L 308.01027 352.247042 
L 308.711061 352.069137 
L 309.411852 352.113054 
L 310.112643 350.929139 
L 310.813433 353.637847 
L 311.514224 353.443181 
L 312.215015 354.071561 
L 312.915806 353.8901 
L 313.616597 354.927591 
L 314.317387 359.618054 
L 315.018178 360.785441 
L 315.718969 360.147953 
L 316.41976 361.427475 
L 317.120551 363.223792 
L 317.821341 363.548346 
L 318.522132 365.013423 
L 319.222923 366.843157 
L 319.923714 367.831379 
L 320.624505 368.153907 
L 321.325295 369.668571 
L 322.026086 369.437759 
L 322.726877 370.305039 
L 323.427668 369.254889 
L 324.829249 371.588204 
L 325.53004 372.348984 
L 326.230831 371.575232 
L 326.931622 371.742655 
L 327.632412 371.402654 
L 328.333203 370.222524 
L 329.033994 370.330301 
L 329.734785 371.154629 
L 330.435576 371.382066 
L 331.136366 371.862397 
L 331.837157 372.642976 
L 332.537948 371.739183 
L 333.238739 371.084679 
L 333.93953 371.085152 
L 334.64032 370.665506 
L 335.341111 369.067939 
L 336.041902 368.624218 
L 336.742693 368.402793 
L 337.443483 369.688922 
L 338.144274 368.413602 
L 338.845065 368.414699 
L 339.545856 368.594079 
L 340.246647 369.697309 
L 340.947437 369.485003 
L 341.648228 367.984649 
L 342.349019 368.759974 
L 343.04981 368.528261 
L 343.750601 368.528588 
L 344.451391 368.415487 
L 345.152182 368.055182 
L 345.852973 367.919712 
L 346.553764 368.597486 
L 347.254555 370.056675 
L 347.955345 369.942448 
L 348.656136 370.127367 
L 349.356927 371.284497 
L 351.459299 372.074999 
L 352.16009 373.720522 
L 353.561672 373.482189 
L 354.262462 373.593504 
L 354.963253 373.969521 
L 355.664044 376.030684 
L 356.364835 373.585173 
L 357.065626 373.818493 
L 357.766416 373.099136 
L 358.467207 372.612132 
L 359.167998 373.673405 
L 359.868789 373.320015 
L 360.56958 369.803539 
L 361.27037 369.130994 
L 362.671952 368.237722 
L 364.073534 369.173778 
L 364.774324 368.11611 
L 365.475115 368.10928 
L 366.175906 368.394447 
L 366.876697 365.775419 
L 367.577487 365.875735 
L 369.67986 364.515791 
L 370.380651 365.947455 
L 371.081441 365.832477 
L 371.782232 366.162602 
L 372.483023 366.760502 
L 373.183814 366.805408 
L 373.884605 367.401841 
L 374.585395 371.034342 
L 376.687768 372.773192 
L 377.388559 372.375213 
L 378.089349 372.549339 
L 378.79014 371.933918 
L 379.490931 371.93935 
L 380.191722 371.487623 
L 380.892513 374.114341 
L 381.593303 372.868692 
L 382.294094 373.415319 
L 382.994885 374.542516 
L 383.695676 373.380018 
L 384.396466 373.284083 
L 385.798048 372.321191 
L 386.498839 372.319978 
L 387.19963 372.118342 
L 387.90042 371.574183 
L 388.601211 371.684413 
L 389.302002 372.024203 
L 390.002793 372.018597 
L 390.703584 372.145466 
L 392.105165 371.253939 
L 392.805956 372.363025 
L 394.207538 371.245254 
L 394.908328 371.242054 
L 395.609119 372.275911 
L 397.010701 371.71499 
L 397.711491 372.929273 
L 398.412282 372.40316 
L 399.113073 370.76254 
L 399.813864 370.988434 
L 400.514655 370.988222 
L 401.215445 369.752762 
L 401.916236 369.847477 
L 403.317818 368.851448 
L 404.719399 367.133057 
L 405.42019 366.614762 
L 406.120981 366.554299 
L 406.821772 366.896878 
L 407.522563 367.449621 
L 408.223353 367.681397 
L 408.924144 367.681579 
L 409.624935 366.900678 
L 410.325726 366.392084 
L 411.727307 367.083687 
L 412.428098 369.119138 
L 413.128889 370.058701 
L 413.82968 370.617375 
L 414.53047 368.966816 
L 415.231261 370.96681 
L 417.333634 372.296996 
L 418.034424 373.109327 
L 418.735215 373.171191 
L 419.436006 374.364657 
L 420.136797 374.921102 
L 420.837588 373.327274 
L 421.538378 373.328502 
L 422.239169 374.221656 
L 422.93996 372.671125 
L 423.640751 373.563975 
L 424.341542 373.028517 
L 425.042332 373.029774 
L 425.743123 372.91501 
L 426.443914 372.917431 
L 427.144705 373.597989 
L 427.845495 373.71044 
L 428.546286 374.23517 
L 429.247077 373.943906 
L 430.648659 374.172889 
L 432.05024 374.064362 
L 432.751031 372.674964 
L 433.451822 372.79718 
L 434.152613 372.800223 
L 434.853403 373.689404 
L 436.254985 373.681011 
L 436.955776 374.280833 
L 437.656567 374.396897 
L 438.357357 375.549457 
L 439.058148 375.21237 
L 439.758939 371.71703 
L 440.45973 370.415744 
L 441.160521 371.116897 
L 441.861311 371.006497 
L 442.562102 372.01821 
L 443.262893 372.194664 
L 444.664474 372.096464 
L 445.365265 366.644214 
L 446.066056 364.871618 
L 446.766847 353.458755 
L 447.467638 338.76137 
L 448.168428 334.885653 
L 448.869219 325.77495 
L 449.57001 321.470082 
L 450.270801 314.832928 
L 450.971592 306.385464 
L 451.672382 301.873189 
L 452.373173 299.05209 
L 453.073964 293.687426 
L 453.774755 292.518644 
L 454.475546 280.685717 
L 455.176336 276.167651 
L 455.877127 269.094179 
L 456.577918 256.894035 
L 457.278709 253.297657 
L 457.979499 248.380929 
L 458.68029 242.267196 
L 459.381081 243.016478 
L 460.081872 239.348035 
L 460.782663 248.942133 
L 461.483453 256.509867 
L 462.184244 256.732022 
L 462.885035 261.73599 
L 463.585826 259.287759 
L 464.286617 258.104325 
L 464.987407 265.468687 
L 465.688198 250.971278 
L 466.388989 249.753025 
L 467.790571 256.428234 
L 468.491361 264.24411 
L 469.192152 264.45533 
L 469.892943 268.624225 
L 470.593734 270.018028 
L 471.294525 266.10645 
L 473.396897 238.408453 
L 474.097688 241.58759 
L 474.798478 241.470292 
L 475.499269 237.749407 
L 476.20006 222.572607 
L 476.900851 215.027384 
L 477.601642 217.469748 
L 478.302432 206.246259 
L 479.003223 189.449815 
L 479.704014 199.797957 
L 480.404805 202.136633 
L 481.105596 202.547409 
L 481.806386 199.765563 
L 482.507177 201.135699 
L 483.207968 200.159395 
L 483.908759 189.549338 
L 484.60955 192.197778 
L 485.31034 192.448793 
L 486.011131 198.828089 
L 486.711922 211.067424 
L 487.412713 211.750967 
L 488.113504 203.560273 
L 488.814294 187.115412 
L 489.515085 186.345733 
L 490.215876 204.214223 
L 490.916667 207.646149 
L 491.617457 208.686886 
L 492.318248 218.493285 
L 493.71983 233.611807 
L 494.420621 234.006581 
L 495.121411 233.204982 
L 495.822202 222.177825 
L 496.522993 215.441661 
L 497.223784 216.08962 
L 497.924575 228.928974 
L 498.625365 235.939968 
L 499.326156 232.471149 
L 500.026947 237.411693 
L 500.727738 230.447472 
L 501.428529 242.536822 
L 502.129319 234.280101 
L 502.83011 246.824814 
L 503.530901 239.585624 
L 504.231692 236.335804 
L 504.932482 243.818531 
L 506.334064 232.675967 
L 507.034855 235.249008 
L 507.735646 232.045444 
L 508.436436 214.497377 
L 509.137227 208.557812 
L 509.838018 218.299577 
L 510.538809 223.897683 
L 511.2396 226.674901 
L 511.94039 222.355011 
L 512.641181 207.005598 
L 513.341972 216.313964 
L 514.042763 215.810206 
L 514.743554 222.1522 
L 515.444344 222.622404 
L 516.145135 232.088057 
L 516.845926 233.369102 
L 517.546717 249.076947 
L 518.247508 234.314589 
L 518.948298 229.572695 
L 519.649089 222.744754 
L 520.34988 228.224192 
L 521.050671 220.286146 
L 521.751461 215.840926 
L 522.452252 229.36774 
L 523.153043 232.270736 
L 523.853834 221.953727 
L 524.554625 215.258106 
L 525.255415 215.472156 
L 525.956206 211.450374 
L 526.656997 226.255203 
L 527.357788 213.4213 
L 528.058579 214.676623 
L 528.759369 214.947071 
L 529.46016 204.879475 
L 530.160951 209.410228 
L 530.861742 204.60684 
L 531.562533 205.127989 
L 532.263323 203.460186 
L 532.964114 207.358653 
L 533.664905 218.406685 
L 534.365696 208.620205 
L 535.066486 220.877857 
L 535.767277 227.921527 
L 537.168859 212.834966 
L 537.86965 226.297139 
L 538.57044 236.333646 
L 539.271231 230.491799 
L 539.972022 238.370374 
L 540.672813 236.399512 
L 541.373604 237.762404 
L 542.074394 236.071427 
L 542.775185 230.791248 
L 543.475976 224.265561 
L 544.176767 225.887634 
L 544.877558 225.870371 
L 545.578348 220.948989 
L 546.279139 225.850916 
L 546.97993 216.948846 
L 547.680721 214.202477 
L 548.381512 230.942518 
L 549.082302 230.987355 
L 549.783093 226.272701 
L 550.483884 229.621236 
L 551.184675 240.488018 
L 551.885465 241.41933 
L 552.586256 234.64733 
L 553.287047 239.056986 
L 553.987838 232.139211 
L 554.688629 216.780958 
L 555.389419 224.340578 
L 556.09021 220.619104 
L 556.791001 219.190904 
L 557.491792 229.614439 
L 558.192583 228.907846 
L 558.893373 237.682771 
L 559.594164 226.172483 
L 560.294955 239.005819 
L 560.995746 246.659822 
L 561.696537 244.356249 
L 562.397327 228.729481 
L 563.798909 207.342603 
L 564.4997 204.069591 
L 565.20049 204.662056 
L 565.901281 197.630982 
L 566.602072 187.231184 
L 567.302863 185.090696 
L 568.003654 190.454155 
L 568.704444 207.192148 
L 569.405235 205.531084 
L 570.806817 216.305918 
L 571.507608 205.491759 
L 572.208398 207.793878 
L 572.909189 196.689719 
L 573.60998 206.05141 
L 574.310771 193.046902 
L 575.011562 195.624491 
L 575.712352 202.792959 
L 576.413143 201.616278 
L 577.113934 198.19987 
L 577.814725 210.153899 
L 578.515516 214.311 
L 579.216306 200.794618 
L 579.917097 201.299 
L 580.617888 215.722318 
L 581.318679 212.129561 
L 582.019469 206.464344 
L 582.72026 193.743879 
L 583.421051 194.224086 
L 584.121842 193.665949 
L 584.822633 178.255451 
L 585.523423 196.32647 
L 586.224214 197.247194 
L 586.925005 208.373954 
L 587.625796 214.925737 
L 588.326587 230.150714 
L 589.027377 222.328135 
L 589.728168 220.829673 
L 590.428959 227.940076 
L 591.12975 244.041139 
L 591.830541 248.155973 
L 592.531331 254.431622 
L 593.232122 268.066902 
L 593.932913 274.49591 
L 594.633704 274.385956 
L 595.334494 276.187456 
L 596.035285 283.711213 
L 596.736076 296.393407 
L 597.436867 292.299683 
L 598.137658 291.348612 
L 598.838448 307.854821 
L 599.539239 299.616388 
L 600.24003 296.831341 
L 600.940821 297.668396 
L 601.641612 300.270698 
L 602.342402 295.958113 
L 603.043193 302.499615 
L 603.743984 291.925688 
L 604.444775 299.184979 
L 605.145566 299.568075 
L 605.846356 293.733581 
L 606.547147 295.239495 
L 607.247938 294.610356 
L 607.948729 294.137321 
L 608.64952 297.936939 
L 609.35031 302.980691 
L 610.051101 300.214701 
L 610.751892 301.459183 
L 611.452683 309.989617 
L 612.153473 311.631722 
L 612.854264 307.463861 
L 613.555055 315.529425 
L 614.255846 318.190405 
L 614.956637 314.314305 
L 615.657427 309.729316 
L 616.358218 307.44096 
L 617.059009 309.182352 
L 617.7598 319.254776 
L 618.460591 319.445675 
L 619.161381 317.722276 
L 619.862172 317.961753 
L 621.263754 315.794329 
L 621.964545 316.702761 
L 622.665335 312.045202 
L 623.366126 313.203785 
L 624.767708 297.736257 
L 625.468498 298.707689 
L 626.169289 298.962444 
L 626.87008 301.979517 
L 627.570871 294.78856 
L 628.271662 294.162748 
L 629.673243 303.368751 
L 630.374034 309.718529 
L 631.074825 304.833453 
L 631.775616 306.446334 
L 632.476406 305.731423 
L 633.177197 304.148573 
L 633.877988 308.682193 
L 634.578779 309.820959 
L 635.27957 309.845614 
L 635.98036 300.717648 
L 637.381942 297.970444 
L 638.082733 308.996238 
L 638.783524 313.827304 
L 639.484314 313.994473 
L 640.185105 314.624967 
L 640.885896 315.792476 
L 641.586687 323.024964 
L 642.287477 322.769602 
L 642.988268 320.613341 
L 643.689059 320.122245 
L 644.38985 311.066277 
L 645.090641 314.066865 
L 645.791431 312.966429 
L 646.492222 317.001636 
L 647.193013 317.846228 
L 647.893804 319.123328 
L 649.295385 316.814581 
L 649.996176 319.443005 
L 650.696967 324.454458 
L 651.397758 317.123851 
L 652.098549 312.93149 
L 652.799339 315.476797 
L 653.50013 311.882741 
L 654.200921 311.833398 
L 654.901712 312.729067 
L 655.602503 306.929092 
L 656.303293 307.31919 
L 657.004084 305.925441 
L 657.704875 300.827396 
L 658.405666 306.787763 
L 659.106456 306.693156 
L 659.807247 308.211978 
L 660.508038 307.692079 
L 661.208829 310.122034 
L 661.90962 305.076334 
L 662.61041 306.099705 
L 663.311201 306.365984 
L 664.011992 312.329725 
L 664.712783 312.74309 
L 665.413574 320.31641 
L 666.114364 323.984881 
L 666.815155 321.547623 
L 668.216737 318.154397 
L 668.917528 318.860071 
L 669.618318 324.543066 
L 670.319109 322.890318 
L 671.0199 321.83167 
L 671.720691 322.36884 
L 672.421481 321.252539 
L 673.122272 320.959872 
L 673.823063 321.586444 
L 674.523854 310.52343 
L 675.224645 309.619528 
L 675.925435 314.057788 
L 676.626226 309.034515 
L 677.327017 308.77254 
L 678.027808 307.917854 
L 678.728599 307.633083 
L 679.429389 301.162695 
L 680.13018 298.985864 
L 680.830971 299.754687 
L 681.531762 301.494997 
L 682.232553 302.888553 
L 682.933343 301.159803 
L 684.334925 299.67282 
L 685.035716 304.08496 
L 685.736507 301.885665 
L 686.437297 305.467918 
L 687.138088 305.105834 
L 687.838879 303.10185 
L 688.53967 311.974137 
L 689.24046 313.243489 
L 689.941251 312.610304 
L 690.642042 314.529942 
L 691.342833 317.948661 
L 692.043624 318.316475 
L 692.744414 316.437394 
L 693.445205 323.409047 
L 694.145996 325.447545 
L 694.846787 318.438638 
L 695.547578 312.769238 
L 696.248368 310.759804 
L 697.64995 300.956426 
L 698.350741 302.347164 
L 699.051532 299.946471 
L 699.752322 300.67688 
L 700.453113 300.543897 
L 701.153904 302.279907 
L 702.555485 308.033499 
L 703.957067 300.077933 
L 704.657858 297.851548 
L 705.358649 292.773462 
L 706.059439 290.962618 
L 706.76023 290.671107 
L 707.461021 278.653258 
L 708.161812 279.315238 
L 708.862603 282.379386 
L 709.563393 290.663526 
L 710.264184 285.573806 
L 710.964975 284.284512 
L 711.665766 288.991438 
L 712.366557 288.220363 
L 713.067347 287.018873 
L 713.768138 282.138763 
L 714.468929 281.019956 
L 715.16972 282.204245 
L 715.870511 274.885241 
L 716.571301 271.495647 
L 717.272092 266.931518 
L 717.972883 269.845454 
L 718.673674 274.926496 
L 719.374464 278.823053 
L 720.075255 277.068822 
L 720.776046 279.215752 
L 721.476837 290.359913 
L 722.177628 282.494967 
L 722.878418 285.693664 
L 723.579209 276.855392 
L 724.28 283.327103 
L 724.28 283.327103 
" style="fill:none;stroke:#d62728;stroke-linecap:square;stroke-width:1.5;"/>
   </g>
   <g id="line2d_17">
    <path clip-path="url(#p7ee695d446)" d="M 37.505025 385.018677 
L 38.205816 384.981652 
L 38.906607 385.502069 
L 54.324004 385.496914 
L 95.670661 385.509511 
L 164.348158 385.434221 
L 166.450531 384.446001 
L 168.552903 382.726729 
L 169.253694 381.25336 
L 171.356066 380.169712 
L 172.056857 379.164544 
L 173.458438 378.194012 
L 174.159229 377.183499 
L 174.86002 376.606423 
L 175.560811 376.238977 
L 176.962392 375.077708 
L 179.064765 374.104794 
L 179.765556 374.068762 
L 180.466346 373.615808 
L 181.167137 373.790355 
L 181.867928 373.424024 
L 182.568719 373.595679 
L 183.26951 374.712697 
L 185.371882 374.705993 
L 186.072673 375.136352 
L 186.773463 375.350168 
L 187.474254 375.21057 
L 188.175045 375.560682 
L 188.875836 375.337723 
L 189.576627 375.341143 
L 190.978208 375.783541 
L 192.37979 375.358759 
L 193.080581 375.369115 
L 193.781371 374.941043 
L 194.482162 374.929473 
L 195.182953 374.705947 
L 196.584535 375.144348 
L 197.285325 374.719936 
L 199.387698 374.696302 
L 200.088488 374.910376 
L 200.789279 374.923294 
L 202.190861 375.437841 
L 202.891652 375.879691 
L 203.592442 375.882328 
L 204.293233 375.655237 
L 204.994024 375.65335 
L 207.797187 376.619386 
L 208.497978 376.408973 
L 209.198769 376.407767 
L 209.89956 376.633239 
L 210.60035 376.636669 
L 211.301141 377.044053 
L 212.001932 376.840461 
L 212.702723 376.847858 
L 213.403514 375.328757 
L 217.608258 375.311638 
L 218.309049 375.535298 
L 219.00984 375.115077 
L 219.710631 375.11981 
L 221.112212 374.978873 
L 221.813003 374.991054 
L 222.513794 375.641999 
L 223.214585 375.649 
L 224.616166 375.212415 
L 225.316957 374.539339 
L 226.718539 374.518186 
L 227.419329 375.824601 
L 228.12012 374.863838 
L 228.820911 374.865595 
L 229.521702 374.654474 
L 230.923283 374.627808 
L 231.624074 373.536821 
L 232.324865 373.534006 
L 233.025656 373.727559 
L 233.726446 373.501739 
L 234.427237 373.708956 
L 235.128028 372.402462 
L 236.52961 372.3917 
L 237.2304 372.169834 
L 237.931191 372.161775 
L 238.631982 372.364092 
L 239.332773 372.366147 
L 240.033564 372.600264 
L 240.734354 372.595222 
L 241.435145 372.817782 
L 242.135936 373.775 
L 242.836727 373.677689 
L 245.63989 372.831719 
L 246.340681 372.834523 
L 247.742262 373.275864 
L 248.443053 372.624924 
L 249.143844 373.300565 
L 249.844635 371.546146 
L 251.246216 371.110648 
L 251.947007 371.326497 
L 252.647798 369.362473 
L 253.348589 370.046342 
L 254.049379 369.828302 
L 255.450961 369.833085 
L 256.151752 369.621204 
L 256.852543 369.06397 
L 257.553333 369.137753 
L 258.954915 369.584145 
L 259.655706 370.225094 
L 260.356496 370.005558 
L 261.057287 370.006323 
L 261.758078 369.146777 
L 263.15966 370.449268 
L 263.86045 372.208256 
L 264.561241 372.435669 
L 265.262032 372.859389 
L 265.962823 372.842674 
L 266.663614 374.388656 
L 267.364404 373.941913 
L 268.065195 374.156333 
L 268.765986 373.941225 
L 269.466777 373.289523 
L 270.167568 373.49058 
L 270.868358 374.138899 
L 271.569149 374.50256 
L 272.26994 373.841681 
L 272.970731 372.213551 
L 273.671522 372.434178 
L 275.073103 372.422078 
L 275.773894 373.079408 
L 276.474685 372.395711 
L 277.175475 371.964787 
L 277.876266 371.957028 
L 278.577057 371.736415 
L 279.277848 371.90059 
L 279.978639 371.920886 
L 280.679429 372.355502 
L 281.38022 372.583848 
L 282.081011 372.586865 
L 282.781802 372.809657 
L 283.482593 373.241709 
L 284.183383 373.035517 
L 284.884174 372.980246 
L 285.584965 372.109174 
L 286.285756 372.306567 
L 286.986547 373.061124 
L 288.388128 373.051543 
L 289.088919 371.979864 
L 289.78971 372.10397 
L 290.490501 372.79675 
L 291.191291 373.014694 
L 293.293664 373.067706 
L 293.994454 372.193522 
L 294.695245 372.191392 
L 295.396036 372.409898 
L 296.096827 372.41165 
L 296.797618 372.189418 
L 297.498408 372.398723 
L 298.199199 372.404091 
L 298.89999 372.241664 
L 299.600781 373.111736 
L 300.301572 373.358413 
L 301.002362 374.235111 
L 301.703153 374.680972 
L 302.403944 374.895034 
L 303.104735 375.962776 
L 304.506316 376.052374 
L 305.207107 376.559784 
L 305.907898 376.858034 
L 306.608689 377.376437 
L 307.309479 377.667061 
L 308.01027 378.833749 
L 310.112643 379.718552 
L 310.813433 380.229017 
L 311.514224 380.528079 
L 312.915806 381.553645 
L 313.616597 381.845486 
L 314.317387 382.351121 
L 318.522132 384.118124 
L 340.947437 384.095083 
L 342.349019 383.998556 
L 444.664474 384.058806 
L 446.066056 341.896611 
L 446.766847 327.63328 
L 447.467638 320.551121 
L 448.168428 302.796564 
L 449.57001 292.463326 
L 450.270801 276.602514 
L 450.971592 270.500219 
L 451.672382 260.757445 
L 452.373173 224.909539 
L 453.073964 219.861016 
L 453.774755 205.87741 
L 455.176336 194.63824 
L 455.877127 166.25314 
L 456.577918 149.849933 
L 457.278709 147.645817 
L 457.979499 139.35035 
L 458.68029 133.474326 
L 459.381081 150.85689 
L 460.081872 164.544845 
L 460.782663 156.118498 
L 461.483453 130.811538 
L 462.184244 142.019101 
L 462.885035 122.008642 
L 463.585826 110.185034 
L 464.286617 123.109667 
L 464.987407 115.517935 
L 465.688198 111.360973 
L 466.388989 143.555569 
L 467.08978 136.939654 
L 467.790571 145.325849 
L 468.491361 127.243778 
L 469.192152 128.390571 
L 469.892943 150.311475 
L 470.593734 154.115384 
L 471.995315 139.606395 
L 472.696106 141.523102 
L 473.396897 142.721308 
L 474.097688 145.550517 
L 474.798478 163.437895 
L 475.499269 190.032826 
L 476.20006 183.804105 
L 476.900851 192.298769 
L 477.601642 207.421319 
L 478.302432 202.997655 
L 479.003223 213.755935 
L 479.704014 217.564829 
L 480.404805 218.018717 
L 481.105596 200.390516 
L 481.806386 193.044345 
L 482.507177 213.846082 
L 483.207968 204.429064 
L 483.908759 197.408252 
L 484.60955 207.072675 
L 485.31034 204.35159 
L 486.011131 217.72896 
L 486.711922 217.873816 
L 487.412713 216.487198 
L 488.113504 212.043368 
L 488.814294 213.257091 
L 489.515085 215.004136 
L 490.215876 213.314413 
L 490.916667 194.231035 
L 491.617457 165.222666 
L 492.318248 161.166977 
L 493.019039 130.685993 
L 493.71983 134.128118 
L 494.420621 134.413129 
L 495.121411 158.602559 
L 495.822202 166.370487 
L 496.522993 145.797359 
L 497.223784 137.722672 
L 497.924575 146.036755 
L 498.625365 129.634083 
L 499.326156 129.399469 
L 500.026947 100.506232 
L 500.727738 100.254879 
L 501.428529 98.666872 
L 502.129319 101.610526 
L 502.83011 100.260706 
L 503.530901 92.592555 
L 504.231692 103.780952 
L 504.932482 132.496355 
L 505.633273 139.738694 
L 506.334064 144.47843 
L 507.034855 153.849953 
L 507.735646 152.735933 
L 508.436436 141.295497 
L 509.137227 120.321305 
L 509.838018 119.520751 
L 510.538809 133.947433 
L 511.2396 142.387374 
L 511.94039 123.277326 
L 512.641181 137.054831 
L 513.341972 115.180334 
L 514.042763 138.947916 
L 514.743554 127.925583 
L 515.444344 129.634487 
L 516.145135 123.844607 
L 516.845926 111.141553 
L 517.546717 113.277095 
L 518.247508 96.519775 
L 518.948298 95.037309 
L 519.649089 107.206171 
L 520.34988 96.923212 
L 521.050671 115.117337 
L 521.751461 100.989229 
L 522.452252 109.551458 
L 523.153043 121.147133 
L 523.853834 94.701997 
L 524.554625 92.739413 
L 525.255415 92.774748 
L 525.956206 81.135151 
L 526.656997 43.34 
L 527.357788 72.172634 
L 528.058579 62.931034 
L 528.759369 75.798553 
L 529.46016 76.964211 
L 530.160951 85.775418 
L 530.861742 84.391171 
L 531.562533 89.422067 
L 532.263323 100.194043 
L 532.964114 96.182818 
L 533.664905 63.294789 
L 534.365696 77.255399 
L 535.066486 61.569375 
L 535.767277 79.978924 
L 536.468068 82.772437 
L 537.168859 80.536894 
L 537.86965 108.76033 
L 538.57044 113.328134 
L 539.271231 116.967062 
L 539.972022 119.45544 
L 540.672813 158.767494 
L 541.373604 160.283444 
L 542.074394 164.453575 
L 542.775185 157.6233 
L 543.475976 146.171075 
L 544.176767 141.119972 
L 544.877558 154.402042 
L 545.578348 129.284775 
L 546.279139 123.724199 
L 546.97993 114.504333 
L 547.680721 156.603644 
L 548.381512 148.483102 
L 549.082302 162.280755 
L 549.783093 156.410155 
L 550.483884 153.37827 
L 551.184675 161.977679 
L 551.885465 161.63576 
L 552.586256 161.638154 
L 553.287047 168.50492 
L 553.987838 189.568357 
L 554.688629 177.554394 
L 555.389419 145.820804 
L 556.09021 143.369035 
L 556.791001 128.312992 
L 557.491792 137.838708 
L 558.192583 134.560003 
L 558.893373 127.318091 
L 559.594164 154.070138 
L 560.294955 160.741284 
L 560.995746 174.313614 
L 561.696537 169.88572 
L 562.397327 175.715164 
L 563.098118 162.688636 
L 563.798909 158.763513 
L 564.4997 161.923306 
L 565.20049 156.514558 
L 565.901281 146.662733 
L 566.602072 130.956242 
L 567.302863 123.868927 
L 568.003654 132.928442 
L 568.704444 136.451716 
L 569.405235 150.247555 
L 570.106026 144.569962 
L 570.806817 162.572771 
L 571.507608 156.330541 
L 572.208398 152.531364 
L 572.909189 161.864368 
L 573.60998 141.605392 
L 574.310771 133.250929 
L 575.712352 141.553475 
L 576.413143 139.742226 
L 577.113934 158.687957 
L 577.814725 157.863552 
L 578.515516 148.210963 
L 579.216306 149.294504 
L 579.917097 152.535041 
L 580.617888 157.049573 
L 581.318679 160.656421 
L 582.019469 161.41763 
L 582.72026 156.956659 
L 583.421051 174.381922 
L 584.121842 180.262109 
L 584.822633 170.3517 
L 585.523423 173.484337 
L 586.224214 183.173293 
L 586.925005 183.566969 
L 587.625796 203.556566 
L 588.326587 218.663859 
L 589.027377 217.671281 
L 589.728168 217.245927 
L 590.428959 216.465726 
L 591.12975 216.83575 
L 591.830541 226.656722 
L 592.531331 230.787138 
L 593.932913 249.48662 
L 594.633704 263.243995 
L 595.334494 267.855066 
L 596.035285 266.718074 
L 596.736076 280.846356 
L 597.436867 282.030628 
L 598.838448 307.988117 
L 599.539239 314.712202 
L 600.24003 317.981884 
L 600.940821 319.877664 
L 601.641612 316.810168 
L 602.342402 315.01933 
L 603.043193 316.144784 
L 603.743984 314.723096 
L 604.444775 318.710323 
L 605.145566 318.462711 
L 605.846356 320.624798 
L 606.547147 327.67683 
L 607.247938 327.53153 
L 607.948729 328.273088 
L 608.64952 327.260168 
L 609.35031 327.946271 
L 610.051101 329.565748 
L 610.751892 328.754413 
L 611.452683 329.945451 
L 612.153473 321.34103 
L 612.854264 321.090246 
L 613.555055 314.75232 
L 614.255846 314.828638 
L 614.956637 313.740811 
L 616.358218 314.897323 
L 617.059009 316.745158 
L 617.7598 316.447811 
L 618.460591 317.886506 
L 619.161381 313.422955 
L 619.862172 310.554958 
L 620.562963 310.100063 
L 621.263754 308.417417 
L 621.964545 300.667858 
L 622.665335 302.517897 
L 623.366126 300.640052 
L 624.066917 293.964459 
L 624.767708 290.364304 
L 625.468498 287.781225 
L 626.169289 295.569781 
L 626.87008 296.319796 
L 627.570871 297.422675 
L 628.271662 295.903479 
L 628.972452 295.491317 
L 629.673243 296.064212 
L 630.374034 294.680945 
L 631.074825 291.957762 
L 631.775616 293.409885 
L 632.476406 292.667193 
L 633.177197 297.839623 
L 633.877988 301.509659 
L 634.578779 300.504648 
L 635.27957 302.990353 
L 635.98036 310.352653 
L 636.681151 309.232196 
L 637.381942 310.053433 
L 638.082733 317.456379 
L 638.783524 321.830078 
L 639.484314 321.880019 
L 640.185105 311.460649 
L 640.885896 311.021949 
L 641.586687 314.699545 
L 642.287477 316.222095 
L 642.988268 315.871087 
L 643.689059 319.297436 
L 644.38985 317.759151 
L 645.090641 318.999242 
L 645.791431 321.243672 
L 646.492222 320.930632 
L 647.193013 314.897811 
L 647.893804 311.515627 
L 648.594595 312.094662 
L 649.295385 313.279744 
L 649.996176 312.136783 
L 650.696967 313.279319 
L 652.098549 312.489187 
L 652.799339 313.574225 
L 653.50013 316.888632 
L 654.200921 328.485438 
L 654.901712 328.943082 
L 655.602503 330.811711 
L 656.303293 330.797793 
L 657.004084 333.034918 
L 657.704875 326.710833 
L 658.405666 330.861716 
L 659.106456 332.696715 
L 659.807247 328.952402 
L 660.508038 329.640302 
L 661.208829 332.73961 
L 661.90962 331.532618 
L 663.311201 327.158334 
L 664.011992 328.588202 
L 664.712783 329.684459 
L 665.413574 326.369188 
L 666.114364 319.679236 
L 666.815155 320.516856 
L 667.515946 319.30468 
L 668.216737 312.588265 
L 668.917528 313.649915 
L 669.618318 313.715995 
L 670.319109 310.42945 
L 671.0199 309.60229 
L 671.720691 315.209269 
L 672.421481 313.020945 
L 673.122272 313.719182 
L 673.823063 314.738763 
L 674.523854 312.405275 
L 675.224645 310.554398 
L 676.626226 316.094691 
L 677.327017 317.226902 
L 678.027808 316.958405 
L 678.728599 317.318061 
L 680.13018 325.782156 
L 681.531762 324.357877 
L 682.232553 329.253623 
L 682.933343 324.711245 
L 683.634134 323.936145 
L 684.334925 324.191255 
L 685.035716 325.011995 
L 685.736507 323.889137 
L 687.138088 319.353676 
L 687.838879 319.878345 
L 688.53967 324.051606 
L 689.941251 320.761885 
L 690.642042 317.493989 
L 691.342833 317.799807 
L 692.043624 316.67454 
L 692.744414 313.753637 
L 693.445205 312.64712 
L 694.145996 314.831531 
L 694.846787 314.466732 
L 695.547578 315.239474 
L 696.248368 314.105571 
L 696.949159 316.375856 
L 697.64995 313.404713 
L 698.350741 311.936805 
L 699.051532 307.492328 
L 700.453113 311.139542 
L 701.153904 312.596188 
L 701.854695 313.310507 
L 702.555485 312.9306 
L 703.256276 314.865233 
L 703.957067 312.864689 
L 704.657858 313.581444 
L 705.358649 308.767143 
L 706.059439 309.472974 
L 706.76023 306.410752 
L 707.461021 304.528158 
L 708.161812 301.623442 
L 708.862603 302.269438 
L 709.563393 300.040171 
L 710.264184 300.758144 
L 710.964975 297.405351 
L 711.665766 300.392531 
L 712.366557 298.549198 
L 713.067347 301.863222 
L 713.768138 301.863567 
L 714.468929 302.997329 
L 715.16972 301.616611 
L 716.571301 297.462497 
L 717.272092 300.115748 
L 717.972883 305.314492 
L 718.673674 308.604141 
L 719.374464 312.767081 
L 720.075255 311.707693 
L 720.776046 316.182802 
L 721.476837 315.396815 
L 722.177628 318.77513 
L 722.878418 319.230632 
L 723.579209 322.574863 
L 724.28 317.401851 
L 724.28 317.401851 
" style="fill:none;stroke:#9467bd;stroke-linecap:square;stroke-width:1.5;"/>
   </g>
   <g id="line2d_18">
    <path clip-path="url(#p7ee695d446)" d="M 37.505025 381.729525 
L 38.205816 381.489545 
L 89.363544 381.35471 
L 90.765125 381.460943 
L 127.206246 381.443693 
L 140.521271 381.478201 
L 141.922853 381.384133 
L 145.426807 381.40206 
L 147.529179 381.350472 
L 165.74974 381.52357 
L 174.86002 381.913936 
L 176.261602 381.886692 
L 181.167137 381.995255 
L 228.12012 382.048788 
L 235.128028 382.017385 
L 239.332773 382.033344 
L 251.947007 381.989691 
L 263.86045 381.968079 
L 265.262032 382.061969 
L 296.797618 381.97022 
L 297.498408 381.907065 
L 298.89999 382.01724 
L 304.506316 382.014567 
L 318.522132 384.498318 
L 329.033994 384.544205 
L 339.545856 384.508202 
L 344.451391 384.497012 
L 403.317818 384.497835 
L 405.42019 384.551385 
L 421.538378 384.491687 
L 444.664474 384.474127 
L 446.766847 382.002877 
L 448.168428 380.24177 
L 455.877127 371.212782 
L 458.68029 367.960126 
L 460.782663 367.979589 
L 461.483453 368.114868 
L 463.585826 368.06326 
L 464.987407 367.958287 
L 469.892943 367.995392 
L 472.696106 367.936619 
L 475.499269 367.928681 
L 485.31034 368.027071 
L 486.011131 367.967573 
L 487.412713 368.10767 
L 488.814294 368.092021 
L 489.515085 367.92862 
L 496.522993 367.905422 
L 497.223784 367.91352 
L 498.625365 367.784863 
L 499.326156 367.739776 
L 500.727738 367.766069 
L 502.83011 367.769857 
L 503.530901 367.937096 
L 508.436436 367.912944 
L 511.2396 367.848507 
L 512.641181 367.952223 
L 514.743554 368.021506 
L 515.444344 367.912145 
L 518.247508 367.852516 
L 520.34988 367.871174 
L 521.050671 367.967377 
L 521.751461 367.892005 
L 523.153043 367.962773 
L 524.554625 367.79724 
L 531.562533 367.926752 
L 532.964114 367.888324 
L 537.168859 367.966581 
L 538.57044 368.143713 
L 539.972022 368.145742 
L 540.672813 368.025455 
L 545.578348 368.067709 
L 546.279139 368.188939 
L 549.082302 368.077459 
L 550.483884 367.97241 
L 553.987838 367.966514 
L 554.688629 368.085233 
L 556.791001 367.979453 
L 557.491792 367.852772 
L 559.594164 367.835281 
L 560.995746 367.769785 
L 563.098118 367.87218 
L 564.4997 367.969513 
L 565.20049 367.976406 
L 566.602072 367.859727 
L 570.106026 367.917241 
L 572.909189 368.089506 
L 584.822633 367.983868 
L 587.625796 369.354847 
L 589.027377 370.159351 
L 594.633704 372.891237 
L 596.035285 373.481965 
L 597.436867 374.30566 
L 598.838448 374.999097 
L 634.578779 375.008061 
L 635.27957 374.92289 
L 636.681151 375.020223 
L 646.492222 374.992523 
L 647.893804 374.934237 
L 648.594595 374.860818 
L 649.996176 374.949263 
L 663.311201 375.02564 
L 668.917528 375.047095 
L 670.319109 374.97756 
L 674.523854 374.909433 
L 675.224645 374.822279 
L 676.626226 374.920086 
L 701.153904 374.853812 
L 701.854695 374.758865 
L 702.555485 374.902803 
L 706.059439 374.911052 
L 724.28 375.066924 
L 724.28 375.066924 
" style="fill:none;stroke:#8c564b;stroke-linecap:square;stroke-width:1.5;"/>
   </g>
   <g id="patch_3">
    <path d="M 24.19 404.12 
L 24.19 26.16 
" style="fill:none;stroke:#000000;stroke-linecap:square;stroke-linejoin:miter;stroke-width:0.8;"/>
   </g>
   <g id="patch_4">
    <path d="M 724.28 404.12 
L 724.28 26.16 
" style="fill:none;stroke:#000000;stroke-linecap:square;stroke-linejoin:miter;stroke-width:0.8;"/>
   </g>
   <g id="patch_5">
    <path d="M 24.19 404.12 
L 724.28 404.12 
" style="fill:none;stroke:#000000;stroke-linecap:square;stroke-linejoin:miter;stroke-width:0.8;"/>
   </g>
   <g id="patch_6">
    <path d="M 24.19 26.16 
L 724.28 26.16 
" style="fill:none;stroke:#000000;stroke-linecap:square;stroke-linejoin:miter;stroke-width:0.8;"/>
   </g>
   <g id="text_13">
    <!-- multi_way_v1: episode execution time, sec, MA=20 -->
    <defs>
     <path d="M 52 44.1875 
Q 55.375 50.25 60.0625 53.125 
Q 64.75 56 71.09375 56 
Q 79.640625 56 84.28125 50.015625 
Q 88.921875 44.046875 88.921875 33.015625 
L 88.921875 0 
L 79.890625 0 
L 79.890625 32.71875 
Q 79.890625 40.578125 77.09375 44.375 
Q 74.3125 48.1875 68.609375 48.1875 
Q 61.625 48.1875 57.5625 43.546875 
Q 53.515625 38.921875 53.515625 30.90625 
L 53.515625 0 
L 44.484375 0 
L 44.484375 32.71875 
Q 44.484375 40.625 41.703125 44.40625 
Q 38.921875 48.1875 33.109375 48.1875 
Q 26.21875 48.1875 22.15625 43.53125 
Q 18.109375 38.875 18.109375 30.90625 
L 18.109375 0 
L 9.078125 0 
L 9.078125 54.6875 
L 18.109375 54.6875 
L 18.109375 46.1875 
Q 21.1875 51.21875 25.484375 53.609375 
Q 29.78125 56 35.6875 56 
Q 41.65625 56 45.828125 52.96875 
Q 50 49.953125 52 44.1875 
z
" id="DejaVuSans-109"/>
     <path d="M 8.5 21.578125 
L 8.5 54.6875 
L 17.484375 54.6875 
L 17.484375 21.921875 
Q 17.484375 14.15625 20.5 10.265625 
Q 23.53125 6.390625 29.59375 6.390625 
Q 36.859375 6.390625 41.078125 11.03125 
Q 45.3125 15.671875 45.3125 23.6875 
L 45.3125 54.6875 
L 54.296875 54.6875 
L 54.296875 0 
L 45.3125 0 
L 45.3125 8.40625 
Q 42.046875 3.421875 37.71875 1 
Q 33.40625 -1.421875 27.6875 -1.421875 
Q 18.265625 -1.421875 13.375 4.4375 
Q 8.5 10.296875 8.5 21.578125 
z
M 31.109375 56 
z
" id="DejaVuSans-117"/>
     <path d="M 9.421875 75.984375 
L 18.40625 75.984375 
L 18.40625 0 
L 9.421875 0 
z
" id="DejaVuSans-108"/>
     <path d="M 18.3125 70.21875 
L 18.3125 54.6875 
L 36.8125 54.6875 
L 36.8125 47.703125 
L 18.3125 47.703125 
L 18.3125 18.015625 
Q 18.3125 11.328125 20.140625 9.421875 
Q 21.96875 7.515625 27.59375 7.515625 
L 36.8125 7.515625 
L 36.8125 0 
L 27.59375 0 
Q 17.1875 0 13.234375 3.875 
Q 9.28125 7.765625 9.28125 18.015625 
L 9.28125 47.703125 
L 2.6875 47.703125 
L 2.6875 54.6875 
L 9.28125 54.6875 
L 9.28125 70.21875 
z
" id="DejaVuSans-116"/>
     <path d="M 9.421875 54.6875 
L 18.40625 54.6875 
L 18.40625 0 
L 9.421875 0 
z
M 9.421875 75.984375 
L 18.40625 75.984375 
L 18.40625 64.59375 
L 9.421875 64.59375 
z
" id="DejaVuSans-105"/>
     <path d="M 50.984375 -16.609375 
L 50.984375 -23.578125 
L -0.984375 -23.578125 
L -0.984375 -16.609375 
z
" id="DejaVuSans-95"/>
     <path d="M 4.203125 54.6875 
L 13.1875 54.6875 
L 24.421875 12.015625 
L 35.59375 54.6875 
L 46.1875 54.6875 
L 57.421875 12.015625 
L 68.609375 54.6875 
L 77.59375 54.6875 
L 63.28125 0 
L 52.6875 0 
L 40.921875 44.828125 
L 29.109375 0 
L 18.5 0 
z
" id="DejaVuSans-119"/>
     <path d="M 34.28125 27.484375 
Q 23.390625 27.484375 19.1875 25 
Q 14.984375 22.515625 14.984375 16.5 
Q 14.984375 11.71875 18.140625 8.90625 
Q 21.296875 6.109375 26.703125 6.109375 
Q 34.1875 6.109375 38.703125 11.40625 
Q 43.21875 16.703125 43.21875 25.484375 
L 43.21875 27.484375 
z
M 52.203125 31.203125 
L 52.203125 0 
L 43.21875 0 
L 43.21875 8.296875 
Q 40.140625 3.328125 35.546875 0.953125 
Q 30.953125 -1.421875 24.3125 -1.421875 
Q 15.921875 -1.421875 10.953125 3.296875 
Q 6 8.015625 6 15.921875 
Q 6 25.140625 12.171875 29.828125 
Q 18.359375 34.515625 30.609375 34.515625 
L 43.21875 34.515625 
L 43.21875 35.40625 
Q 43.21875 41.609375 39.140625 45 
Q 35.0625 48.390625 27.6875 48.390625 
Q 23 48.390625 18.546875 47.265625 
Q 14.109375 46.140625 10.015625 43.890625 
L 10.015625 52.203125 
Q 14.9375 54.109375 19.578125 55.046875 
Q 24.21875 56 28.609375 56 
Q 40.484375 56 46.34375 49.84375 
Q 52.203125 43.703125 52.203125 31.203125 
z
" id="DejaVuSans-97"/>
     <path d="M 32.171875 -5.078125 
Q 28.375 -14.84375 24.75 -17.8125 
Q 21.140625 -20.796875 15.09375 -20.796875 
L 7.90625 -20.796875 
L 7.90625 -13.28125 
L 13.1875 -13.28125 
Q 16.890625 -13.28125 18.9375 -11.515625 
Q 21 -9.765625 23.484375 -3.21875 
L 25.09375 0.875 
L 2.984375 54.6875 
L 12.5 54.6875 
L 29.59375 11.921875 
L 46.6875 54.6875 
L 56.203125 54.6875 
z
" id="DejaVuSans-121"/>
     <path d="M 2.984375 54.6875 
L 12.5 54.6875 
L 29.59375 8.796875 
L 46.6875 54.6875 
L 56.203125 54.6875 
L 35.6875 0 
L 23.484375 0 
z
" id="DejaVuSans-118"/>
     <path d="M 11.71875 12.40625 
L 22.015625 12.40625 
L 22.015625 0 
L 11.71875 0 
z
M 11.71875 51.703125 
L 22.015625 51.703125 
L 22.015625 39.3125 
L 11.71875 39.3125 
z
" id="DejaVuSans-58"/>
     <path id="DejaVuSans-32"/>
     <path d="M 56.203125 29.59375 
L 56.203125 25.203125 
L 14.890625 25.203125 
Q 15.484375 15.921875 20.484375 11.0625 
Q 25.484375 6.203125 34.421875 6.203125 
Q 39.59375 6.203125 44.453125 7.46875 
Q 49.3125 8.734375 54.109375 11.28125 
L 54.109375 2.78125 
Q 49.265625 0.734375 44.1875 -0.34375 
Q 39.109375 -1.421875 33.890625 -1.421875 
Q 20.796875 -1.421875 13.15625 6.1875 
Q 5.515625 13.8125 5.515625 26.8125 
Q 5.515625 40.234375 12.765625 48.109375 
Q 20.015625 56 32.328125 56 
Q 43.359375 56 49.78125 48.890625 
Q 56.203125 41.796875 56.203125 29.59375 
z
M 47.21875 32.234375 
Q 47.125 39.59375 43.09375 43.984375 
Q 39.0625 48.390625 32.421875 48.390625 
Q 24.90625 48.390625 20.390625 44.140625 
Q 15.875 39.890625 15.1875 32.171875 
z
" id="DejaVuSans-101"/>
     <path d="M 18.109375 8.203125 
L 18.109375 -20.796875 
L 9.078125 -20.796875 
L 9.078125 54.6875 
L 18.109375 54.6875 
L 18.109375 46.390625 
Q 20.953125 51.265625 25.265625 53.625 
Q 29.59375 56 35.59375 56 
Q 45.5625 56 51.78125 48.09375 
Q 58.015625 40.1875 58.015625 27.296875 
Q 58.015625 14.40625 51.78125 6.484375 
Q 45.5625 -1.421875 35.59375 -1.421875 
Q 29.59375 -1.421875 25.265625 0.953125 
Q 20.953125 3.328125 18.109375 8.203125 
z
M 48.6875 27.296875 
Q 48.6875 37.203125 44.609375 42.84375 
Q 40.53125 48.484375 33.40625 48.484375 
Q 26.265625 48.484375 22.1875 42.84375 
Q 18.109375 37.203125 18.109375 27.296875 
Q 18.109375 17.390625 22.1875 11.75 
Q 26.265625 6.109375 33.40625 6.109375 
Q 40.53125 6.109375 44.609375 11.75 
Q 48.6875 17.390625 48.6875 27.296875 
z
" id="DejaVuSans-112"/>
     <path d="M 44.28125 53.078125 
L 44.28125 44.578125 
Q 40.484375 46.53125 36.375 47.5 
Q 32.28125 48.484375 27.875 48.484375 
Q 21.1875 48.484375 17.84375 46.4375 
Q 14.5 44.390625 14.5 40.28125 
Q 14.5 37.15625 16.890625 35.375 
Q 19.28125 33.59375 26.515625 31.984375 
L 29.59375 31.296875 
Q 39.15625 29.25 43.1875 25.515625 
Q 47.21875 21.78125 47.21875 15.09375 
Q 47.21875 7.46875 41.1875 3.015625 
Q 35.15625 -1.421875 24.609375 -1.421875 
Q 20.21875 -1.421875 15.453125 -0.5625 
Q 10.6875 0.296875 5.421875 2 
L 5.421875 11.28125 
Q 10.40625 8.6875 15.234375 7.390625 
Q 20.0625 6.109375 24.8125 6.109375 
Q 31.15625 6.109375 34.5625 8.28125 
Q 37.984375 10.453125 37.984375 14.40625 
Q 37.984375 18.0625 35.515625 20.015625 
Q 33.0625 21.96875 24.703125 23.78125 
L 21.578125 24.515625 
Q 13.234375 26.265625 9.515625 29.90625 
Q 5.8125 33.546875 5.8125 39.890625 
Q 5.8125 47.609375 11.28125 51.796875 
Q 16.75 56 26.8125 56 
Q 31.78125 56 36.171875 55.265625 
Q 40.578125 54.546875 44.28125 53.078125 
z
" id="DejaVuSans-115"/>
     <path d="M 30.609375 48.390625 
Q 23.390625 48.390625 19.1875 42.75 
Q 14.984375 37.109375 14.984375 27.296875 
Q 14.984375 17.484375 19.15625 11.84375 
Q 23.34375 6.203125 30.609375 6.203125 
Q 37.796875 6.203125 41.984375 11.859375 
Q 46.1875 17.53125 46.1875 27.296875 
Q 46.1875 37.015625 41.984375 42.703125 
Q 37.796875 48.390625 30.609375 48.390625 
z
M 30.609375 56 
Q 42.328125 56 49.015625 48.375 
Q 55.71875 40.765625 55.71875 27.296875 
Q 55.71875 13.875 49.015625 6.21875 
Q 42.328125 -1.421875 30.609375 -1.421875 
Q 18.84375 -1.421875 12.171875 6.21875 
Q 5.515625 13.875 5.515625 27.296875 
Q 5.515625 40.765625 12.171875 48.375 
Q 18.84375 56 30.609375 56 
z
" id="DejaVuSans-111"/>
     <path d="M 45.40625 46.390625 
L 45.40625 75.984375 
L 54.390625 75.984375 
L 54.390625 0 
L 45.40625 0 
L 45.40625 8.203125 
Q 42.578125 3.328125 38.25 0.953125 
Q 33.9375 -1.421875 27.875 -1.421875 
Q 17.96875 -1.421875 11.734375 6.484375 
Q 5.515625 14.40625 5.515625 27.296875 
Q 5.515625 40.1875 11.734375 48.09375 
Q 17.96875 56 27.875 56 
Q 33.9375 56 38.25 53.625 
Q 42.578125 51.265625 45.40625 46.390625 
z
M 14.796875 27.296875 
Q 14.796875 17.390625 18.875 11.75 
Q 22.953125 6.109375 30.078125 6.109375 
Q 37.203125 6.109375 41.296875 11.75 
Q 45.40625 17.390625 45.40625 27.296875 
Q 45.40625 37.203125 41.296875 42.84375 
Q 37.203125 48.484375 30.078125 48.484375 
Q 22.953125 48.484375 18.875 42.84375 
Q 14.796875 37.203125 14.796875 27.296875 
z
" id="DejaVuSans-100"/>
     <path d="M 54.890625 54.6875 
L 35.109375 28.078125 
L 55.90625 0 
L 45.3125 0 
L 29.390625 21.484375 
L 13.484375 0 
L 2.875 0 
L 24.125 28.609375 
L 4.6875 54.6875 
L 15.28125 54.6875 
L 29.78125 35.203125 
L 44.28125 54.6875 
z
" id="DejaVuSans-120"/>
     <path d="M 48.78125 52.59375 
L 48.78125 44.1875 
Q 44.96875 46.296875 41.140625 47.34375 
Q 37.3125 48.390625 33.40625 48.390625 
Q 24.65625 48.390625 19.8125 42.84375 
Q 14.984375 37.3125 14.984375 27.296875 
Q 14.984375 17.28125 19.8125 11.734375 
Q 24.65625 6.203125 33.40625 6.203125 
Q 37.3125 6.203125 41.140625 7.25 
Q 44.96875 8.296875 48.78125 10.40625 
L 48.78125 2.09375 
Q 45.015625 0.34375 40.984375 -0.53125 
Q 36.96875 -1.421875 32.421875 -1.421875 
Q 20.0625 -1.421875 12.78125 6.34375 
Q 5.515625 14.109375 5.515625 27.296875 
Q 5.515625 40.671875 12.859375 48.328125 
Q 20.21875 56 33.015625 56 
Q 37.15625 56 41.109375 55.140625 
Q 45.0625 54.296875 48.78125 52.59375 
z
" id="DejaVuSans-99"/>
     <path d="M 54.890625 33.015625 
L 54.890625 0 
L 45.90625 0 
L 45.90625 32.71875 
Q 45.90625 40.484375 42.875 44.328125 
Q 39.84375 48.1875 33.796875 48.1875 
Q 26.515625 48.1875 22.3125 43.546875 
Q 18.109375 38.921875 18.109375 30.90625 
L 18.109375 0 
L 9.078125 0 
L 9.078125 54.6875 
L 18.109375 54.6875 
L 18.109375 46.1875 
Q 21.34375 51.125 25.703125 53.5625 
Q 30.078125 56 35.796875 56 
Q 45.21875 56 50.046875 50.171875 
Q 54.890625 44.34375 54.890625 33.015625 
z
" id="DejaVuSans-110"/>
     <path d="M 11.71875 12.40625 
L 22.015625 12.40625 
L 22.015625 4 
L 14.015625 -11.625 
L 7.71875 -11.625 
L 11.71875 4 
z
" id="DejaVuSans-44"/>
     <path d="M 9.8125 72.90625 
L 24.515625 72.90625 
L 43.109375 23.296875 
L 61.8125 72.90625 
L 76.515625 72.90625 
L 76.515625 0 
L 66.890625 0 
L 66.890625 64.015625 
L 48.09375 14.015625 
L 38.1875 14.015625 
L 19.390625 64.015625 
L 19.390625 0 
L 9.8125 0 
z
" id="DejaVuSans-77"/>
     <path d="M 34.1875 63.1875 
L 20.796875 26.90625 
L 47.609375 26.90625 
z
M 28.609375 72.90625 
L 39.796875 72.90625 
L 67.578125 0 
L 57.328125 0 
L 50.6875 18.703125 
L 17.828125 18.703125 
L 11.1875 0 
L 0.78125 0 
z
" id="DejaVuSans-65"/>
     <path d="M 10.59375 45.40625 
L 73.1875 45.40625 
L 73.1875 37.203125 
L 10.59375 37.203125 
z
M 10.59375 25.484375 
L 73.1875 25.484375 
L 73.1875 17.1875 
L 10.59375 17.1875 
z
" id="DejaVuSans-61"/>
    </defs>
    <g transform="translate(219.421875 20.16)scale(0.12 -0.12)">
     <use xlink:href="#DejaVuSans-109"/>
     <use x="97.412109" xlink:href="#DejaVuSans-117"/>
     <use x="160.791016" xlink:href="#DejaVuSans-108"/>
     <use x="188.574219" xlink:href="#DejaVuSans-116"/>
     <use x="227.783203" xlink:href="#DejaVuSans-105"/>
     <use x="255.566406" xlink:href="#DejaVuSans-95"/>
     <use x="305.566406" xlink:href="#DejaVuSans-119"/>
     <use x="387.353516" xlink:href="#DejaVuSans-97"/>
     <use x="448.632812" xlink:href="#DejaVuSans-121"/>
     <use x="507.8125" xlink:href="#DejaVuSans-95"/>
     <use x="557.8125" xlink:href="#DejaVuSans-118"/>
     <use x="616.992188" xlink:href="#DejaVuSans-49"/>
     <use x="680.615234" xlink:href="#DejaVuSans-58"/>
     <use x="714.306641" xlink:href="#DejaVuSans-32"/>
     <use x="746.09375" xlink:href="#DejaVuSans-101"/>
     <use x="807.617188" xlink:href="#DejaVuSans-112"/>
     <use x="871.09375" xlink:href="#DejaVuSans-105"/>
     <use x="898.876953" xlink:href="#DejaVuSans-115"/>
     <use x="950.976562" xlink:href="#DejaVuSans-111"/>
     <use x="1012.158203" xlink:href="#DejaVuSans-100"/>
     <use x="1075.634766" xlink:href="#DejaVuSans-101"/>
     <use x="1137.158203" xlink:href="#DejaVuSans-32"/>
     <use x="1168.945312" xlink:href="#DejaVuSans-101"/>
     <use x="1230.453125" xlink:href="#DejaVuSans-120"/>
     <use x="1289.585938" xlink:href="#DejaVuSans-101"/>
     <use x="1351.109375" xlink:href="#DejaVuSans-99"/>
     <use x="1406.089844" xlink:href="#DejaVuSans-117"/>
     <use x="1469.46875" xlink:href="#DejaVuSans-116"/>
     <use x="1508.677734" xlink:href="#DejaVuSans-105"/>
     <use x="1536.460938" xlink:href="#DejaVuSans-111"/>
     <use x="1597.642578" xlink:href="#DejaVuSans-110"/>
     <use x="1661.021484" xlink:href="#DejaVuSans-32"/>
     <use x="1692.808594" xlink:href="#DejaVuSans-116"/>
     <use x="1732.017578" xlink:href="#DejaVuSans-105"/>
     <use x="1759.800781" xlink:href="#DejaVuSans-109"/>
     <use x="1857.212891" xlink:href="#DejaVuSans-101"/>
     <use x="1918.736328" xlink:href="#DejaVuSans-44"/>
     <use x="1950.523438" xlink:href="#DejaVuSans-32"/>
     <use x="1982.310547" xlink:href="#DejaVuSans-115"/>
     <use x="2034.410156" xlink:href="#DejaVuSans-101"/>
     <use x="2095.933594" xlink:href="#DejaVuSans-99"/>
     <use x="2150.914062" xlink:href="#DejaVuSans-44"/>
     <use x="2182.701172" xlink:href="#DejaVuSans-32"/>
     <use x="2214.488281" xlink:href="#DejaVuSans-77"/>
     <use x="2300.767578" xlink:href="#DejaVuSans-65"/>
     <use x="2369.175781" xlink:href="#DejaVuSans-61"/>
     <use x="2452.964844" xlink:href="#DejaVuSans-50"/>
     <use x="2516.587891" xlink:href="#DejaVuSans-48"/>
    </g>
   </g>
   <g id="legend_1">
    <g id="patch_7">
     <path d="M 766.233937 261.50875 
L 857.298 261.50875 
Q 859.298 261.50875 859.298 259.50875 
L 859.298 170.77125 
Q 859.298 168.77125 857.298 168.77125 
L 766.233937 168.77125 
Q 764.233937 168.77125 764.233937 170.77125 
L 764.233937 259.50875 
Q 764.233937 261.50875 766.233937 261.50875 
z
" style="fill:#ffffff;opacity:0.8;stroke:#cccccc;stroke-linejoin:miter;"/>
    </g>
    <g id="line2d_19">
     <path d="M 768.233937 176.869687 
L 788.233937 176.869687 
" style="fill:none;stroke:#1f77b4;stroke-linecap:square;stroke-width:1.5;"/>
    </g>
    <g id="line2d_20"/>
    <g id="text_14">
     <!-- htm_0 -->
     <defs>
      <path d="M 54.890625 33.015625 
L 54.890625 0 
L 45.90625 0 
L 45.90625 32.71875 
Q 45.90625 40.484375 42.875 44.328125 
Q 39.84375 48.1875 33.796875 48.1875 
Q 26.515625 48.1875 22.3125 43.546875 
Q 18.109375 38.921875 18.109375 30.90625 
L 18.109375 0 
L 9.078125 0 
L 9.078125 75.984375 
L 18.109375 75.984375 
L 18.109375 46.1875 
Q 21.34375 51.125 25.703125 53.5625 
Q 30.078125 56 35.796875 56 
Q 45.21875 56 50.046875 50.171875 
Q 54.890625 44.34375 54.890625 33.015625 
z
" id="DejaVuSans-104"/>
     </defs>
     <g transform="translate(796.233937 180.369687)scale(0.1 -0.1)">
      <use xlink:href="#DejaVuSans-104"/>
      <use x="63.378906" xlink:href="#DejaVuSans-116"/>
      <use x="102.587891" xlink:href="#DejaVuSans-109"/>
      <use x="200" xlink:href="#DejaVuSans-95"/>
      <use x="250" xlink:href="#DejaVuSans-48"/>
     </g>
    </g>
    <g id="line2d_21">
     <path d="M 768.233937 191.825938 
L 788.233937 191.825938 
" style="fill:none;stroke:#ff7f0e;stroke-linecap:square;stroke-width:1.5;"/>
    </g>
    <g id="line2d_22"/>
    <g id="text_15">
     <!-- dqn_greedy -->
     <defs>
      <path d="M 14.796875 27.296875 
Q 14.796875 17.390625 18.875 11.75 
Q 22.953125 6.109375 30.078125 6.109375 
Q 37.203125 6.109375 41.296875 11.75 
Q 45.40625 17.390625 45.40625 27.296875 
Q 45.40625 37.203125 41.296875 42.84375 
Q 37.203125 48.484375 30.078125 48.484375 
Q 22.953125 48.484375 18.875 42.84375 
Q 14.796875 37.203125 14.796875 27.296875 
z
M 45.40625 8.203125 
Q 42.578125 3.328125 38.25 0.953125 
Q 33.9375 -1.421875 27.875 -1.421875 
Q 17.96875 -1.421875 11.734375 6.484375 
Q 5.515625 14.40625 5.515625 27.296875 
Q 5.515625 40.1875 11.734375 48.09375 
Q 17.96875 56 27.875 56 
Q 33.9375 56 38.25 53.625 
Q 42.578125 51.265625 45.40625 46.390625 
L 45.40625 54.6875 
L 54.390625 54.6875 
L 54.390625 -20.796875 
L 45.40625 -20.796875 
z
" id="DejaVuSans-113"/>
      <path d="M 45.40625 27.984375 
Q 45.40625 37.75 41.375 43.109375 
Q 37.359375 48.484375 30.078125 48.484375 
Q 22.859375 48.484375 18.828125 43.109375 
Q 14.796875 37.75 14.796875 27.984375 
Q 14.796875 18.265625 18.828125 12.890625 
Q 22.859375 7.515625 30.078125 7.515625 
Q 37.359375 7.515625 41.375 12.890625 
Q 45.40625 18.265625 45.40625 27.984375 
z
M 54.390625 6.78125 
Q 54.390625 -7.171875 48.1875 -13.984375 
Q 42 -20.796875 29.203125 -20.796875 
Q 24.46875 -20.796875 20.265625 -20.09375 
Q 16.0625 -19.390625 12.109375 -17.921875 
L 12.109375 -9.1875 
Q 16.0625 -11.328125 19.921875 -12.34375 
Q 23.78125 -13.375 27.78125 -13.375 
Q 36.625 -13.375 41.015625 -8.765625 
Q 45.40625 -4.15625 45.40625 5.171875 
L 45.40625 9.625 
Q 42.625 4.78125 38.28125 2.390625 
Q 33.9375 0 27.875 0 
Q 17.828125 0 11.671875 7.65625 
Q 5.515625 15.328125 5.515625 27.984375 
Q 5.515625 40.671875 11.671875 48.328125 
Q 17.828125 56 27.875 56 
Q 33.9375 56 38.28125 53.609375 
Q 42.625 51.21875 45.40625 46.390625 
L 45.40625 54.6875 
L 54.390625 54.6875 
z
" id="DejaVuSans-103"/>
      <path d="M 41.109375 46.296875 
Q 39.59375 47.171875 37.8125 47.578125 
Q 36.03125 48 33.890625 48 
Q 26.265625 48 22.1875 43.046875 
Q 18.109375 38.09375 18.109375 28.8125 
L 18.109375 0 
L 9.078125 0 
L 9.078125 54.6875 
L 18.109375 54.6875 
L 18.109375 46.1875 
Q 20.953125 51.171875 25.484375 53.578125 
Q 30.03125 56 36.53125 56 
Q 37.453125 56 38.578125 55.875 
Q 39.703125 55.765625 41.0625 55.515625 
z
" id="DejaVuSans-114"/>
     </defs>
     <g transform="translate(796.233937 195.325938)scale(0.1 -0.1)">
      <use xlink:href="#DejaVuSans-100"/>
      <use x="63.476562" xlink:href="#DejaVuSans-113"/>
      <use x="126.953125" xlink:href="#DejaVuSans-110"/>
      <use x="190.332031" xlink:href="#DejaVuSans-95"/>
      <use x="240.332031" xlink:href="#DejaVuSans-103"/>
      <use x="303.808594" xlink:href="#DejaVuSans-114"/>
      <use x="344.890625" xlink:href="#DejaVuSans-101"/>
      <use x="406.414062" xlink:href="#DejaVuSans-101"/>
      <use x="467.9375" xlink:href="#DejaVuSans-100"/>
      <use x="531.414062" xlink:href="#DejaVuSans-121"/>
     </g>
    </g>
    <g id="line2d_23">
     <path d="M 768.233937 206.782187 
L 788.233937 206.782187 
" style="fill:none;stroke:#2ca02c;stroke-linecap:square;stroke-width:1.5;"/>
    </g>
    <g id="line2d_24"/>
    <g id="text_16">
     <!-- htm_1_1g -->
     <g transform="translate(796.233937 210.282187)scale(0.1 -0.1)">
      <use xlink:href="#DejaVuSans-104"/>
      <use x="63.378906" xlink:href="#DejaVuSans-116"/>
      <use x="102.587891" xlink:href="#DejaVuSans-109"/>
      <use x="200" xlink:href="#DejaVuSans-95"/>
      <use x="250" xlink:href="#DejaVuSans-49"/>
      <use x="313.623047" xlink:href="#DejaVuSans-95"/>
      <use x="363.623047" xlink:href="#DejaVuSans-49"/>
      <use x="427.246094" xlink:href="#DejaVuSans-103"/>
     </g>
    </g>
    <g id="line2d_25">
     <path d="M 768.233937 221.738438 
L 788.233937 221.738438 
" style="fill:none;stroke:#d62728;stroke-linecap:square;stroke-width:1.5;"/>
    </g>
    <g id="line2d_26"/>
    <g id="text_17">
     <!-- htm_2_1g -->
     <g transform="translate(796.233937 225.238438)scale(0.1 -0.1)">
      <use xlink:href="#DejaVuSans-104"/>
      <use x="63.378906" xlink:href="#DejaVuSans-116"/>
      <use x="102.587891" xlink:href="#DejaVuSans-109"/>
      <use x="200" xlink:href="#DejaVuSans-95"/>
      <use x="250" xlink:href="#DejaVuSans-50"/>
      <use x="313.623047" xlink:href="#DejaVuSans-95"/>
      <use x="363.623047" xlink:href="#DejaVuSans-49"/>
      <use x="427.246094" xlink:href="#DejaVuSans-103"/>
     </g>
    </g>
    <g id="line2d_27">
     <path d="M 768.233937 236.694687 
L 788.233937 236.694687 
" style="fill:none;stroke:#9467bd;stroke-linecap:square;stroke-width:1.5;"/>
    </g>
    <g id="line2d_28"/>
    <g id="text_18">
     <!-- htm_4_1g -->
     <g transform="translate(796.233937 240.194687)scale(0.1 -0.1)">
      <use xlink:href="#DejaVuSans-104"/>
      <use x="63.378906" xlink:href="#DejaVuSans-116"/>
      <use x="102.587891" xlink:href="#DejaVuSans-109"/>
      <use x="200" xlink:href="#DejaVuSans-95"/>
      <use x="250" xlink:href="#DejaVuSans-52"/>
      <use x="313.623047" xlink:href="#DejaVuSans-95"/>
      <use x="363.623047" xlink:href="#DejaVuSans-49"/>
      <use x="427.246094" xlink:href="#DejaVuSans-103"/>
     </g>
    </g>
    <g id="line2d_29">
     <path d="M 768.233937 251.650937 
L 788.233937 251.650937 
" style="fill:none;stroke:#8c564b;stroke-linecap:square;stroke-width:1.5;"/>
    </g>
    <g id="line2d_30"/>
    <g id="text_19">
     <!-- htm_8_1g -->
     <g transform="translate(796.233937 255.150937)scale(0.1 -0.1)">
      <use xlink:href="#DejaVuSans-104"/>
      <use x="63.378906" xlink:href="#DejaVuSans-116"/>
      <use x="102.587891" xlink:href="#DejaVuSans-109"/>
      <use x="200" xlink:href="#DejaVuSans-95"/>
      <use x="250" xlink:href="#DejaVuSans-56"/>
      <use x="313.623047" xlink:href="#DejaVuSans-95"/>
      <use x="363.623047" xlink:href="#DejaVuSans-49"/>
      <use x="427.246094" xlink:href="#DejaVuSans-103"/>
     </g>
    </g>
   </g>
  </g>
 </g>
 <defs>
  <clipPath id="p7ee695d446">
   <rect height="377.96" width="700.09" x="24.19" y="26.16"/>
  </clipPath>
 </defs>
</svg>
