<?xml version="1.0" encoding="utf-8" standalone="no"?>
<!DOCTYPE svg PUBLIC "-//W3C//DTD SVG 1.1//EN"
  "http://www.w3.org/Graphics/SVG/1.1/DTD/svg11.dtd">
<!-- Created with matplotlib (https://matplotlib.org/) -->
<svg height="432pt" version="1.1" viewBox="0 0 864 432" width="864pt" xmlns="http://www.w3.org/2000/svg" xmlns:xlink="http://www.w3.org/1999/xlink">
 <defs>
  <style type="text/css">
*{stroke-linecap:butt;stroke-linejoin:round;}
  </style>
 </defs>
 <g id="figure_1">
  <g id="patch_1">
   <path d="M 0 432 
L 864 432 
L 864 0 
L 0 0 
z
" style="fill:#ffffff;"/>
  </g>
  <g id="axes_1">
   <g id="patch_2">
    <path d="M 30.58 404.12 
L 724.28 404.12 
L 724.28 26.16 
L 30.58 26.16 
z
" style="fill:#ffffff;"/>
   </g>
   <g id="matplotlib.axis_1">
    <g id="xtick_1">
     <g id="line2d_1">
      <defs>
       <path d="M 0 0 
L 0 3.5 
" id="m2b4b2a5bd6" style="stroke:#000000;stroke-width:0.8;"/>
      </defs>
      <g>
       <use style="stroke:#000000;stroke-width:0.8;" x="30.58" xlink:href="#m2b4b2a5bd6" y="404.12"/>
      </g>
     </g>
     <g id="text_1">
      <!-- 0 -->
      <defs>
       <path d="M 31.78125 66.40625 
Q 24.171875 66.40625 20.328125 58.90625 
Q 16.5 51.421875 16.5 36.375 
Q 16.5 21.390625 20.328125 13.890625 
Q 24.171875 6.390625 31.78125 6.390625 
Q 39.453125 6.390625 43.28125 13.890625 
Q 47.125 21.390625 47.125 36.375 
Q 47.125 51.421875 43.28125 58.90625 
Q 39.453125 66.40625 31.78125 66.40625 
z
M 31.78125 74.21875 
Q 44.046875 74.21875 50.515625 64.515625 
Q 56.984375 54.828125 56.984375 36.375 
Q 56.984375 17.96875 50.515625 8.265625 
Q 44.046875 -1.421875 31.78125 -1.421875 
Q 19.53125 -1.421875 13.0625 8.265625 
Q 6.59375 17.96875 6.59375 36.375 
Q 6.59375 54.828125 13.0625 64.515625 
Q 19.53125 74.21875 31.78125 74.21875 
z
" id="DejaVuSans-48"/>
      </defs>
      <g transform="translate(27.39875 418.718437)scale(0.1 -0.1)">
       <use xlink:href="#DejaVuSans-48"/>
      </g>
     </g>
    </g>
    <g id="xtick_2">
     <g id="line2d_2">
      <g>
       <use style="stroke:#000000;stroke-width:0.8;" x="169.458879" xlink:href="#m2b4b2a5bd6" y="404.12"/>
      </g>
     </g>
     <g id="text_2">
      <!-- 200 -->
      <defs>
       <path d="M 19.1875 8.296875 
L 53.609375 8.296875 
L 53.609375 0 
L 7.328125 0 
L 7.328125 8.296875 
Q 12.9375 14.109375 22.625 23.890625 
Q 32.328125 33.6875 34.8125 36.53125 
Q 39.546875 41.84375 41.421875 45.53125 
Q 43.3125 49.21875 43.3125 52.78125 
Q 43.3125 58.59375 39.234375 62.25 
Q 35.15625 65.921875 28.609375 65.921875 
Q 23.96875 65.921875 18.8125 64.3125 
Q 13.671875 62.703125 7.8125 59.421875 
L 7.8125 69.390625 
Q 13.765625 71.78125 18.9375 73 
Q 24.125 74.21875 28.421875 74.21875 
Q 39.75 74.21875 46.484375 68.546875 
Q 53.21875 62.890625 53.21875 53.421875 
Q 53.21875 48.921875 51.53125 44.890625 
Q 49.859375 40.875 45.40625 35.40625 
Q 44.1875 33.984375 37.640625 27.21875 
Q 31.109375 20.453125 19.1875 8.296875 
z
" id="DejaVuSans-50"/>
      </defs>
      <g transform="translate(159.915129 418.718437)scale(0.1 -0.1)">
       <use xlink:href="#DejaVuSans-50"/>
       <use x="63.623047" xlink:href="#DejaVuSans-48"/>
       <use x="127.246094" xlink:href="#DejaVuSans-48"/>
      </g>
     </g>
    </g>
    <g id="xtick_3">
     <g id="line2d_3">
      <g>
       <use style="stroke:#000000;stroke-width:0.8;" x="308.337758" xlink:href="#m2b4b2a5bd6" y="404.12"/>
      </g>
     </g>
     <g id="text_3">
      <!-- 400 -->
      <defs>
       <path d="M 37.796875 64.3125 
L 12.890625 25.390625 
L 37.796875 25.390625 
z
M 35.203125 72.90625 
L 47.609375 72.90625 
L 47.609375 25.390625 
L 58.015625 25.390625 
L 58.015625 17.1875 
L 47.609375 17.1875 
L 47.609375 0 
L 37.796875 0 
L 37.796875 17.1875 
L 4.890625 17.1875 
L 4.890625 26.703125 
z
" id="DejaVuSans-52"/>
      </defs>
      <g transform="translate(298.794008 418.718437)scale(0.1 -0.1)">
       <use xlink:href="#DejaVuSans-52"/>
       <use x="63.623047" xlink:href="#DejaVuSans-48"/>
       <use x="127.246094" xlink:href="#DejaVuSans-48"/>
      </g>
     </g>
    </g>
    <g id="xtick_4">
     <g id="line2d_4">
      <g>
       <use style="stroke:#000000;stroke-width:0.8;" x="447.216637" xlink:href="#m2b4b2a5bd6" y="404.12"/>
      </g>
     </g>
     <g id="text_4">
      <!-- 600 -->
      <defs>
       <path d="M 33.015625 40.375 
Q 26.375 40.375 22.484375 35.828125 
Q 18.609375 31.296875 18.609375 23.390625 
Q 18.609375 15.53125 22.484375 10.953125 
Q 26.375 6.390625 33.015625 6.390625 
Q 39.65625 6.390625 43.53125 10.953125 
Q 47.40625 15.53125 47.40625 23.390625 
Q 47.40625 31.296875 43.53125 35.828125 
Q 39.65625 40.375 33.015625 40.375 
z
M 52.59375 71.296875 
L 52.59375 62.3125 
Q 48.875 64.0625 45.09375 64.984375 
Q 41.3125 65.921875 37.59375 65.921875 
Q 27.828125 65.921875 22.671875 59.328125 
Q 17.53125 52.734375 16.796875 39.40625 
Q 19.671875 43.65625 24.015625 45.921875 
Q 28.375 48.1875 33.59375 48.1875 
Q 44.578125 48.1875 50.953125 41.515625 
Q 57.328125 34.859375 57.328125 23.390625 
Q 57.328125 12.15625 50.6875 5.359375 
Q 44.046875 -1.421875 33.015625 -1.421875 
Q 20.359375 -1.421875 13.671875 8.265625 
Q 6.984375 17.96875 6.984375 36.375 
Q 6.984375 53.65625 15.1875 63.9375 
Q 23.390625 74.21875 37.203125 74.21875 
Q 40.921875 74.21875 44.703125 73.484375 
Q 48.484375 72.75 52.59375 71.296875 
z
" id="DejaVuSans-54"/>
      </defs>
      <g transform="translate(437.672887 418.718437)scale(0.1 -0.1)">
       <use xlink:href="#DejaVuSans-54"/>
       <use x="63.623047" xlink:href="#DejaVuSans-48"/>
       <use x="127.246094" xlink:href="#DejaVuSans-48"/>
      </g>
     </g>
    </g>
    <g id="xtick_5">
     <g id="line2d_5">
      <g>
       <use style="stroke:#000000;stroke-width:0.8;" x="586.095516" xlink:href="#m2b4b2a5bd6" y="404.12"/>
      </g>
     </g>
     <g id="text_5">
      <!-- 800 -->
      <defs>
       <path d="M 31.78125 34.625 
Q 24.75 34.625 20.71875 30.859375 
Q 16.703125 27.09375 16.703125 20.515625 
Q 16.703125 13.921875 20.71875 10.15625 
Q 24.75 6.390625 31.78125 6.390625 
Q 38.8125 6.390625 42.859375 10.171875 
Q 46.921875 13.96875 46.921875 20.515625 
Q 46.921875 27.09375 42.890625 30.859375 
Q 38.875 34.625 31.78125 34.625 
z
M 21.921875 38.8125 
Q 15.578125 40.375 12.03125 44.71875 
Q 8.5 49.078125 8.5 55.328125 
Q 8.5 64.0625 14.71875 69.140625 
Q 20.953125 74.21875 31.78125 74.21875 
Q 42.671875 74.21875 48.875 69.140625 
Q 55.078125 64.0625 55.078125 55.328125 
Q 55.078125 49.078125 51.53125 44.71875 
Q 48 40.375 41.703125 38.8125 
Q 48.828125 37.15625 52.796875 32.3125 
Q 56.78125 27.484375 56.78125 20.515625 
Q 56.78125 9.90625 50.3125 4.234375 
Q 43.84375 -1.421875 31.78125 -1.421875 
Q 19.734375 -1.421875 13.25 4.234375 
Q 6.78125 9.90625 6.78125 20.515625 
Q 6.78125 27.484375 10.78125 32.3125 
Q 14.796875 37.15625 21.921875 38.8125 
z
M 18.3125 54.390625 
Q 18.3125 48.734375 21.84375 45.5625 
Q 25.390625 42.390625 31.78125 42.390625 
Q 38.140625 42.390625 41.71875 45.5625 
Q 45.3125 48.734375 45.3125 54.390625 
Q 45.3125 60.0625 41.71875 63.234375 
Q 38.140625 66.40625 31.78125 66.40625 
Q 25.390625 66.40625 21.84375 63.234375 
Q 18.3125 60.0625 18.3125 54.390625 
z
" id="DejaVuSans-56"/>
      </defs>
      <g transform="translate(576.551766 418.718437)scale(0.1 -0.1)">
       <use xlink:href="#DejaVuSans-56"/>
       <use x="63.623047" xlink:href="#DejaVuSans-48"/>
       <use x="127.246094" xlink:href="#DejaVuSans-48"/>
      </g>
     </g>
    </g>
   </g>
   <g id="matplotlib.axis_2">
    <g id="ytick_1">
     <g id="line2d_6">
      <defs>
       <path d="M 0 0 
L -3.5 0 
" id="mb479cbe99f" style="stroke:#000000;stroke-width:0.8;"/>
      </defs>
      <g>
       <use style="stroke:#000000;stroke-width:0.8;" x="30.58" xlink:href="#mb479cbe99f" y="401.639465"/>
      </g>
     </g>
     <g id="text_6">
      <!-- 0 -->
      <g transform="translate(17.2175 405.438684)scale(0.1 -0.1)">
       <use xlink:href="#DejaVuSans-48"/>
      </g>
     </g>
    </g>
    <g id="ytick_2">
     <g id="line2d_7">
      <g>
       <use style="stroke:#000000;stroke-width:0.8;" x="30.58" xlink:href="#mb479cbe99f" y="328.142139"/>
      </g>
     </g>
     <g id="text_7">
      <!-- 10 -->
      <defs>
       <path d="M 12.40625 8.296875 
L 28.515625 8.296875 
L 28.515625 63.921875 
L 10.984375 60.40625 
L 10.984375 69.390625 
L 28.421875 72.90625 
L 38.28125 72.90625 
L 38.28125 8.296875 
L 54.390625 8.296875 
L 54.390625 0 
L 12.40625 0 
z
" id="DejaVuSans-49"/>
      </defs>
      <g transform="translate(10.855 331.941358)scale(0.1 -0.1)">
       <use xlink:href="#DejaVuSans-49"/>
       <use x="63.623047" xlink:href="#DejaVuSans-48"/>
      </g>
     </g>
    </g>
    <g id="ytick_3">
     <g id="line2d_8">
      <g>
       <use style="stroke:#000000;stroke-width:0.8;" x="30.58" xlink:href="#mb479cbe99f" y="254.644813"/>
      </g>
     </g>
     <g id="text_8">
      <!-- 20 -->
      <g transform="translate(10.855 258.444032)scale(0.1 -0.1)">
       <use xlink:href="#DejaVuSans-50"/>
       <use x="63.623047" xlink:href="#DejaVuSans-48"/>
      </g>
     </g>
    </g>
    <g id="ytick_4">
     <g id="line2d_9">
      <g>
       <use style="stroke:#000000;stroke-width:0.8;" x="30.58" xlink:href="#mb479cbe99f" y="181.147487"/>
      </g>
     </g>
     <g id="text_9">
      <!-- 30 -->
      <defs>
       <path d="M 40.578125 39.3125 
Q 47.65625 37.796875 51.625 33 
Q 55.609375 28.21875 55.609375 21.1875 
Q 55.609375 10.40625 48.1875 4.484375 
Q 40.765625 -1.421875 27.09375 -1.421875 
Q 22.515625 -1.421875 17.65625 -0.515625 
Q 12.796875 0.390625 7.625 2.203125 
L 7.625 11.71875 
Q 11.71875 9.328125 16.59375 8.109375 
Q 21.484375 6.890625 26.8125 6.890625 
Q 36.078125 6.890625 40.9375 10.546875 
Q 45.796875 14.203125 45.796875 21.1875 
Q 45.796875 27.640625 41.28125 31.265625 
Q 36.765625 34.90625 28.71875 34.90625 
L 20.21875 34.90625 
L 20.21875 43.015625 
L 29.109375 43.015625 
Q 36.375 43.015625 40.234375 45.921875 
Q 44.09375 48.828125 44.09375 54.296875 
Q 44.09375 59.90625 40.109375 62.90625 
Q 36.140625 65.921875 28.71875 65.921875 
Q 24.65625 65.921875 20.015625 65.03125 
Q 15.375 64.15625 9.8125 62.3125 
L 9.8125 71.09375 
Q 15.4375 72.65625 20.34375 73.4375 
Q 25.25 74.21875 29.59375 74.21875 
Q 40.828125 74.21875 47.359375 69.109375 
Q 53.90625 64.015625 53.90625 55.328125 
Q 53.90625 49.265625 50.4375 45.09375 
Q 46.96875 40.921875 40.578125 39.3125 
z
" id="DejaVuSans-51"/>
      </defs>
      <g transform="translate(10.855 184.946705)scale(0.1 -0.1)">
       <use xlink:href="#DejaVuSans-51"/>
       <use x="63.623047" xlink:href="#DejaVuSans-48"/>
      </g>
     </g>
    </g>
    <g id="ytick_5">
     <g id="line2d_10">
      <g>
       <use style="stroke:#000000;stroke-width:0.8;" x="30.58" xlink:href="#mb479cbe99f" y="107.65016"/>
      </g>
     </g>
     <g id="text_10">
      <!-- 40 -->
      <g transform="translate(10.855 111.449379)scale(0.1 -0.1)">
       <use xlink:href="#DejaVuSans-52"/>
       <use x="63.623047" xlink:href="#DejaVuSans-48"/>
      </g>
     </g>
    </g>
    <g id="ytick_6">
     <g id="line2d_11">
      <g>
       <use style="stroke:#000000;stroke-width:0.8;" x="30.58" xlink:href="#mb479cbe99f" y="34.152834"/>
      </g>
     </g>
     <g id="text_11">
      <!-- 50 -->
      <defs>
       <path d="M 10.796875 72.90625 
L 49.515625 72.90625 
L 49.515625 64.59375 
L 19.828125 64.59375 
L 19.828125 46.734375 
Q 21.96875 47.46875 24.109375 47.828125 
Q 26.265625 48.1875 28.421875 48.1875 
Q 40.625 48.1875 47.75 41.5 
Q 54.890625 34.8125 54.890625 23.390625 
Q 54.890625 11.625 47.5625 5.09375 
Q 40.234375 -1.421875 26.90625 -1.421875 
Q 22.3125 -1.421875 17.546875 -0.640625 
Q 12.796875 0.140625 7.71875 1.703125 
L 7.71875 11.625 
Q 12.109375 9.234375 16.796875 8.0625 
Q 21.484375 6.890625 26.703125 6.890625 
Q 35.15625 6.890625 40.078125 11.328125 
Q 45.015625 15.765625 45.015625 23.390625 
Q 45.015625 31 40.078125 35.4375 
Q 35.15625 39.890625 26.703125 39.890625 
Q 22.75 39.890625 18.8125 39.015625 
Q 14.890625 38.140625 10.796875 36.28125 
z
" id="DejaVuSans-53"/>
      </defs>
      <g transform="translate(10.855 37.952053)scale(0.1 -0.1)">
       <use xlink:href="#DejaVuSans-53"/>
       <use x="63.623047" xlink:href="#DejaVuSans-48"/>
      </g>
     </g>
    </g>
   </g>
   <g id="line2d_12">
    <path clip-path="url(#pbb607ce39f)" d="M 43.773493 362.685882 
L 44.467888 385.83754 
L 45.162282 386.94 
L 168.764484 386.94 
L 169.458879 379.590267 
L 171.542062 376.282888 
L 172.236456 374.812941 
L 172.930851 373.710481 
L 173.625245 371.873048 
L 174.31964 368.933155 
L 176.402823 365.625775 
L 177.097217 363.420856 
L 177.791612 361.950909 
L 178.486006 360.848449 
L 179.1804 358.643529 
L 179.874795 357.173583 
L 180.569189 356.071123 
L 181.957978 353.13123 
L 182.652372 352.02877 
L 183.346767 358.276043 
L 184.041161 357.908556 
L 184.735556 357.908556 
L 185.42995 357.173583 
L 186.124344 357.54107 
L 186.818739 356.806096 
L 187.513133 357.173583 
L 188.207528 359.011016 
L 190.290711 359.011016 
L 190.985105 359.745989 
L 191.679499 360.113476 
L 192.373894 359.745989 
L 193.068288 360.480963 
L 193.762683 360.113476 
L 194.457077 360.113476 
L 195.845866 360.848449 
L 197.234655 360.113476 
L 197.929049 360.113476 
L 198.623443 359.378503 
L 199.317838 359.378503 
L 200.012232 359.011016 
L 201.401021 359.745989 
L 202.095415 359.011016 
L 204.178599 359.011016 
L 204.872993 359.378503 
L 205.567387 359.378503 
L 206.956176 360.113476 
L 207.650571 360.848449 
L 208.344965 360.848449 
L 209.039359 360.480963 
L 209.733754 360.480963 
L 211.816937 361.583422 
L 212.511331 362.318396 
L 213.205726 361.950909 
L 213.90012 361.950909 
L 214.594515 362.318396 
L 215.288909 362.318396 
L 215.983303 363.053369 
L 216.677698 362.685882 
L 217.372092 362.685882 
L 218.066486 360.113476 
L 222.232853 360.113476 
L 222.927247 360.480963 
L 223.621642 359.745989 
L 224.316036 359.745989 
L 225.01043 359.378503 
L 226.399219 359.378503 
L 227.093614 360.480963 
L 227.788008 360.480963 
L 229.176797 359.745989 
L 229.871191 358.643529 
L 231.25998 358.643529 
L 231.954374 360.848449 
L 232.648769 359.378503 
L 233.343163 359.378503 
L 234.037558 359.011016 
L 235.426346 359.011016 
L 236.120741 357.173583 
L 236.815135 357.173583 
L 237.50953 357.54107 
L 238.203924 357.173583 
L 238.898318 357.54107 
L 239.592713 355.33615 
L 240.981502 355.33615 
L 241.675896 354.968663 
L 242.37029 354.968663 
L 243.064685 355.33615 
L 243.759079 355.33615 
L 244.453473 355.703636 
L 245.147868 355.703636 
L 245.842262 356.071123 
L 246.536657 357.54107 
L 247.231051 357.54107 
L 250.008629 356.071123 
L 250.703023 356.071123 
L 252.091812 356.806096 
L 252.786206 355.703636 
L 253.480601 356.806096 
L 254.174995 353.866203 
L 255.563784 353.13123 
L 256.258178 353.498717 
L 256.952573 350.191337 
L 257.646967 351.293797 
L 258.341361 350.92631 
L 259.73015 350.92631 
L 260.424545 350.558824 
L 261.118939 349.456364 
L 263.202122 350.558824 
L 263.896517 351.661283 
L 264.590911 351.293797 
L 265.285305 351.293797 
L 265.9797 349.82385 
L 267.368488 352.02877 
L 268.062883 354.968663 
L 268.757277 355.33615 
L 269.451672 356.071123 
L 270.146066 356.071123 
L 270.84046 358.643529 
L 271.534855 357.908556 
L 272.229249 358.276043 
L 272.923644 357.908556 
L 273.618038 356.806096 
L 274.312432 357.173583 
L 275.006827 358.276043 
L 275.701221 358.643529 
L 276.395616 357.54107 
L 277.09001 354.968663 
L 277.784404 355.33615 
L 279.173193 355.33615 
L 279.867588 356.43861 
L 280.561982 355.33615 
L 281.256376 354.601176 
L 281.950771 354.601176 
L 282.645165 354.23369 
L 283.33956 354.601176 
L 284.033954 354.601176 
L 284.728348 355.33615 
L 285.422743 355.703636 
L 286.117137 355.703636 
L 286.811532 356.071123 
L 287.505926 356.806096 
L 288.20032 356.43861 
L 288.894715 356.43861 
L 289.589109 354.968663 
L 290.283504 355.33615 
L 290.977898 356.43861 
L 292.366687 356.43861 
L 293.061081 354.601176 
L 293.755475 354.968663 
L 294.44987 356.071123 
L 295.144264 356.43861 
L 297.227447 356.43861 
L 297.921842 354.968663 
L 298.616236 354.968663 
L 299.310631 355.33615 
L 300.005025 355.33615 
L 300.699419 354.968663 
L 301.393814 355.33615 
L 302.088208 355.33615 
L 302.782603 354.968663 
L 303.476997 356.43861 
L 304.171391 356.806096 
L 304.865786 358.276043 
L 305.56018 359.011016 
L 306.254575 359.378503 
L 306.948969 361.215936 
L 307.643363 361.215936 
L 308.337758 361.950909 
L 309.032152 363.053369 
L 309.726547 363.788342 
L 310.420941 364.890802 
L 311.115335 365.625775 
L 311.80973 367.830695 
L 313.892913 370.035615 
L 314.587307 371.138075 
L 315.281702 371.873048 
L 316.67049 374.077968 
L 317.364885 374.812941 
L 318.059279 375.915401 
L 321.531251 379.590267 
L 446.522242 379.590267 
L 447.216637 357.54107 
L 447.911031 331.082032 
L 448.605425 309.400321 
L 449.29982 294.333369 
L 449.994214 286.983636 
L 450.688609 268.609305 
L 452.077397 258.319679 
L 452.771792 242.150267 
L 453.466186 235.902995 
L 454.160581 225.980856 
L 454.854975 190.334652 
L 455.549369 185.18984 
L 456.243764 171.592834 
L 457.632553 160.568235 
L 458.326947 132.639251 
L 459.021341 116.837326 
L 459.715736 114.632406 
L 460.41013 106.547701 
L 461.104525 122.717112 
L 461.798919 144.76631 
L 462.493313 159.833262 
L 463.187708 152.851016 
L 463.882102 128.596898 
L 464.576496 140.356471 
L 465.270891 120.512193 
L 465.965285 108.75262 
L 466.65968 121.982139 
L 467.354074 114.632406 
L 468.048468 110.95754 
L 468.742863 142.928877 
L 469.437257 136.314118 
L 470.131652 144.398824 
L 470.826046 126.391979 
L 471.52044 127.494439 
L 472.214835 149.17615 
L 472.909229 152.483529 
L 474.298018 138.151551 
L 474.992412 139.988984 
L 475.686807 141.091444 
L 476.381201 144.031337 
L 477.075596 161.303209 
L 477.76999 187.394759 
L 478.464384 181.514973 
L 479.158779 189.967166 
L 479.853173 205.034118 
L 480.547568 200.624278 
L 481.241962 211.28139 
L 481.936356 214.956257 
L 482.630751 215.323743 
L 483.325145 198.051872 
L 484.01954 190.702139 
L 484.713934 211.28139 
L 485.408328 202.094225 
L 486.102723 195.111979 
L 486.797117 204.666631 
L 487.491512 202.094225 
L 488.185906 214.956257 
L 488.8803 215.323743 
L 489.574695 213.853797 
L 490.269089 209.443957 
L 490.963483 210.546417 
L 491.657878 212.016364 
L 492.352272 210.17893 
L 493.046667 190.702139 
L 493.741061 162.038182 
L 494.435455 157.995829 
L 495.12985 128.229412 
L 495.824244 131.536791 
L 496.518639 131.904278 
L 497.213033 156.158396 
L 497.907427 163.875615 
L 498.601822 143.296364 
L 499.296216 135.211658 
L 499.990611 143.296364 
L 500.685005 127.126952 
L 501.379399 127.126952 
L 502.073794 98.462995 
L 502.768188 98.095508 
L 503.462583 96.625561 
L 504.156977 99.565455 
L 504.851371 98.462995 
L 505.545766 90.745775 
L 506.24016 101.770374 
L 506.934555 130.801818 
L 507.628949 137.784064 
L 508.323343 142.56139 
L 509.017738 152.116043 
L 509.712132 151.38107 
L 510.406527 139.988984 
L 511.100921 119.042246 
L 511.795315 118.307273 
L 512.48971 132.639251 
L 513.184104 141.091444 
L 513.878498 122.349626 
L 514.572893 135.946631 
L 515.267287 113.897433 
L 515.961682 137.416578 
L 516.656076 126.391979 
L 517.35047 128.229412 
L 518.044865 122.349626 
L 518.739259 109.85508 
L 519.433654 112.427487 
L 520.128048 95.890588 
L 520.822442 94.420642 
L 521.516837 106.915187 
L 522.211231 96.625561 
L 522.905626 113.897433 
L 523.60002 99.565455 
L 524.294414 108.017647 
L 524.988809 119.409733 
L 525.683203 93.318182 
L 526.377598 91.480749 
L 527.071992 91.848235 
L 527.766386 80.088663 
L 528.460781 43.34 
L 529.155175 72.003957 
L 529.84957 63.184278 
L 530.543964 76.04631 
L 531.238358 77.14877 
L 531.932753 85.968449 
L 532.627147 84.498503 
L 533.321542 89.275829 
L 534.015936 99.932941 
L 534.71033 95.890588 
L 535.404725 62.816791 
L 536.099119 76.781283 
L 536.793514 60.979358 
L 537.487908 79.35369 
L 538.182302 82.293583 
L 538.876697 80.45615 
L 539.571091 108.385134 
L 540.265485 112.794973 
L 541.654274 119.042246 
L 542.348669 157.260856 
L 543.043063 158.730802 
L 543.737457 162.405668 
L 544.431852 155.423422 
L 545.126246 144.031337 
L 545.820641 139.254011 
L 546.515035 152.116043 
L 547.209429 127.126952 
L 547.903824 122.349626 
L 548.598218 113.16246 
L 549.292613 155.055936 
L 549.987007 147.338717 
L 550.681401 161.303209 
L 551.375796 155.423422 
L 552.07019 152.483529 
L 552.764585 160.568235 
L 553.458979 160.200749 
L 554.153373 160.200749 
L 554.847768 167.182995 
L 555.542162 187.762246 
L 556.236557 176.002674 
L 556.930951 144.398824 
L 557.625345 142.193904 
L 558.31974 127.861925 
L 559.014134 137.416578 
L 559.708529 134.109198 
L 560.402923 127.126952 
L 561.097317 153.585989 
L 561.791712 159.465775 
L 562.486106 173.062781 
L 563.180501 168.652941 
L 563.874895 174.165241 
L 564.569289 160.935722 
L 565.263684 157.260856 
L 565.958078 160.200749 
L 566.652472 154.688449 
L 567.346867 145.133797 
L 568.041261 130.066845 
L 568.735656 122.717112 
L 569.43005 131.536791 
L 570.124444 134.844171 
L 570.818839 148.808663 
L 571.513233 142.928877 
L 572.207628 160.568235 
L 572.902022 154.688449 
L 573.596416 150.646096 
L 574.290811 159.833262 
L 574.985205 139.621497 
L 575.6796 131.536791 
L 576.373994 135.211658 
L 577.068388 139.621497 
L 577.762783 137.784064 
L 578.457177 156.893369 
L 579.151572 155.790909 
L 579.845966 146.603743 
L 580.54036 148.07369 
L 581.234755 151.38107 
L 581.929149 155.790909 
L 582.623544 159.465775 
L 583.317938 160.200749 
L 584.012332 155.790909 
L 584.706727 173.062781 
L 585.401121 179.310053 
L 586.095516 131.169305 
L 586.78991 134.844171 
L 587.484304 144.398824 
L 588.178699 144.76631 
L 588.873093 164.610588 
L 589.567487 179.310053 
L 590.261882 178.207594 
L 590.956276 177.840107 
L 591.650671 176.737647 
L 592.345065 177.105134 
L 593.039459 186.659786 
L 593.733854 190.334652 
L 595.122643 207.974011 
L 595.817037 221.203529 
L 596.511431 225.613369 
L 597.205826 224.510909 
L 597.90022 238.475401 
L 598.594615 239.577861 
L 599.289009 252.439893 
L 599.983403 303.153048 
L 600.677798 308.665348 
L 601.372192 311.972727 
L 602.066587 313.81016 
L 602.760981 310.870267 
L 603.455375 309.032834 
L 604.14977 310.135294 
L 604.844164 308.665348 
L 605.538559 312.707701 
L 606.232953 312.340214 
L 606.927347 314.545134 
L 607.621742 321.52738 
L 608.316136 321.52738 
L 609.010531 322.262353 
L 609.704925 321.159893 
L 610.399319 321.894866 
L 611.093714 323.364813 
L 611.788108 322.62984 
L 612.482503 323.732299 
L 613.176897 315.280107 
L 613.871291 314.91262 
L 614.565686 308.665348 
L 615.26008 308.665348 
L 615.954474 307.562888 
L 616.648869 307.930374 
L 617.343263 308.665348 
L 618.037658 310.502781 
L 618.732052 310.135294 
L 619.426446 311.605241 
L 620.120841 307.195401 
L 620.815235 304.255508 
L 621.50963 303.888021 
L 622.204024 302.050588 
L 622.898418 294.333369 
L 623.592813 296.170802 
L 624.287207 294.333369 
L 624.981602 287.71861 
L 625.675996 284.043743 
L 626.37039 281.471337 
L 627.064785 289.188556 
L 627.759179 289.923529 
L 628.453574 291.025989 
L 629.147968 289.556043 
L 629.842362 289.188556 
L 630.536757 289.923529 
L 631.231151 288.453583 
L 631.925546 285.881176 
L 632.61994 287.351123 
L 633.314334 286.61615 
L 634.008729 291.760963 
L 634.703123 295.435829 
L 635.397518 294.333369 
L 636.091912 296.905775 
L 636.786306 304.255508 
L 637.480701 303.153048 
L 638.175095 303.888021 
L 638.869489 311.237754 
L 639.563884 315.647594 
L 640.258278 315.647594 
L 640.952673 305.357968 
L 641.647067 304.990481 
L 642.341461 308.665348 
L 643.035856 310.135294 
L 643.73025 309.767807 
L 644.424645 313.075187 
L 645.119039 311.605241 
L 645.813433 312.707701 
L 646.507828 314.91262 
L 647.202222 314.545134 
L 647.896617 308.665348 
L 648.591011 305.357968 
L 649.285405 306.092941 
L 649.9798 307.195401 
L 650.674194 306.092941 
L 651.368589 307.195401 
L 652.757377 306.460428 
L 653.451772 307.562888 
L 654.146166 310.870267 
L 654.840561 322.262353 
L 655.534955 322.62984 
L 656.229349 324.467273 
L 656.923744 324.467273 
L 657.618138 326.672193 
L 658.312533 320.42492 
L 659.006927 324.467273 
L 659.701321 326.304706 
L 660.395716 322.62984 
L 661.09011 323.364813 
L 661.784505 326.304706 
L 662.478899 325.202246 
L 663.867688 320.792406 
L 664.562082 322.262353 
L 665.256476 323.364813 
L 665.950871 320.057433 
L 666.645265 313.442674 
L 667.33966 314.177647 
L 668.034054 313.075187 
L 668.728448 306.460428 
L 669.422843 307.562888 
L 670.117237 307.562888 
L 670.811632 304.255508 
L 671.506026 303.520535 
L 672.20042 309.032834 
L 672.894815 306.827914 
L 673.589209 307.562888 
L 674.283604 308.665348 
L 675.672392 304.622995 
L 677.061181 310.135294 
L 677.755576 311.237754 
L 678.44997 310.870267 
L 679.144364 311.237754 
L 680.533153 319.689947 
L 681.921942 318.22 
L 682.616336 322.997326 
L 683.310731 318.587487 
L 684.005125 317.852513 
L 684.69952 318.22 
L 685.393914 318.954973 
L 686.088308 317.852513 
L 687.477097 313.442674 
L 688.171491 313.81016 
L 688.865886 317.852513 
L 689.56028 316.382567 
L 690.254675 314.545134 
L 690.949069 311.237754 
L 691.643463 311.605241 
L 692.337858 310.502781 
L 693.032252 307.562888 
L 693.726647 306.460428 
L 694.421041 308.665348 
L 695.115435 308.297861 
L 695.80983 309.032834 
L 696.504224 307.930374 
L 697.198619 310.135294 
L 697.893013 307.195401 
L 698.587407 305.725455 
L 699.281802 301.315615 
L 700.670591 304.990481 
L 701.364985 306.460428 
L 702.059379 307.195401 
L 702.753774 306.827914 
L 703.448168 308.665348 
L 704.142563 306.827914 
L 704.836957 307.562888 
L 705.531351 302.785561 
L 706.225746 303.520535 
L 706.92014 300.580642 
L 707.614535 298.743209 
L 708.308929 295.803316 
L 709.003323 296.538289 
L 709.697718 294.333369 
L 710.392112 295.068342 
L 711.086507 291.760963 
L 711.780901 294.700856 
L 712.475295 292.863422 
L 713.16969 296.170802 
L 713.864084 296.170802 
L 714.558478 297.273262 
L 715.252873 295.803316 
L 715.947267 293.965882 
L 716.641662 291.760963 
L 717.336056 294.333369 
L 718.03045 299.478182 
L 718.724845 302.785561 
L 719.419239 306.827914 
L 720.113634 305.725455 
L 720.808028 310.135294 
L 721.502422 309.400321 
L 722.196817 312.707701 
L 722.891211 313.075187 
L 723.585606 316.382567 
L 724.28 311.237754 
L 724.28 311.237754 
" style="fill:none;stroke:#1f77b4;stroke-linecap:square;stroke-width:1.5;"/>
   </g>
   <g id="line2d_13">
    <path clip-path="url(#pbb607ce39f)" d="M 43.773493 362.685882 
L 44.467888 385.83754 
L 45.162282 386.94 
L 168.764484 386.94 
L 169.458879 379.590267 
L 182.652372 358.643529 
L 183.346767 364.890802 
L 307.643363 364.890802 
L 308.337758 347.61893 
L 321.531251 347.61893 
L 322.225646 364.890802 
L 446.522242 364.890802 
L 447.216637 342.106631 
L 460.41013 307.195401 
L 461.104525 328.142139 
L 585.401121 328.142139 
L 586.095516 327.407166 
L 599.289009 327.407166 
L 599.983403 328.142139 
L 724.28 328.142139 
L 724.28 328.142139 
" style="fill:none;stroke:#ff7f0e;stroke-linecap:square;stroke-width:1.5;"/>
   </g>
   <g id="patch_3">
    <path d="M 30.58 404.12 
L 30.58 26.16 
" style="fill:none;stroke:#000000;stroke-linecap:square;stroke-linejoin:miter;stroke-width:0.8;"/>
   </g>
   <g id="patch_4">
    <path d="M 724.28 404.12 
L 724.28 26.16 
" style="fill:none;stroke:#000000;stroke-linecap:square;stroke-linejoin:miter;stroke-width:0.8;"/>
   </g>
   <g id="patch_5">
    <path d="M 30.58 404.12 
L 724.28 404.12 
" style="fill:none;stroke:#000000;stroke-linecap:square;stroke-linejoin:miter;stroke-width:0.8;"/>
   </g>
   <g id="patch_6">
    <path d="M 30.58 26.16 
L 724.28 26.16 
" style="fill:none;stroke:#000000;stroke-linecap:square;stroke-linejoin:miter;stroke-width:0.8;"/>
   </g>
   <g id="text_12">
    <!-- multi_way_v1__4: episode duration, steps, MA=20 -->
    <defs>
     <path d="M 52 44.1875 
Q 55.375 50.25 60.0625 53.125 
Q 64.75 56 71.09375 56 
Q 79.640625 56 84.28125 50.015625 
Q 88.921875 44.046875 88.921875 33.015625 
L 88.921875 0 
L 79.890625 0 
L 79.890625 32.71875 
Q 79.890625 40.578125 77.09375 44.375 
Q 74.3125 48.1875 68.609375 48.1875 
Q 61.625 48.1875 57.5625 43.546875 
Q 53.515625 38.921875 53.515625 30.90625 
L 53.515625 0 
L 44.484375 0 
L 44.484375 32.71875 
Q 44.484375 40.625 41.703125 44.40625 
Q 38.921875 48.1875 33.109375 48.1875 
Q 26.21875 48.1875 22.15625 43.53125 
Q 18.109375 38.875 18.109375 30.90625 
L 18.109375 0 
L 9.078125 0 
L 9.078125 54.6875 
L 18.109375 54.6875 
L 18.109375 46.1875 
Q 21.1875 51.21875 25.484375 53.609375 
Q 29.78125 56 35.6875 56 
Q 41.65625 56 45.828125 52.96875 
Q 50 49.953125 52 44.1875 
z
" id="DejaVuSans-109"/>
     <path d="M 8.5 21.578125 
L 8.5 54.6875 
L 17.484375 54.6875 
L 17.484375 21.921875 
Q 17.484375 14.15625 20.5 10.265625 
Q 23.53125 6.390625 29.59375 6.390625 
Q 36.859375 6.390625 41.078125 11.03125 
Q 45.3125 15.671875 45.3125 23.6875 
L 45.3125 54.6875 
L 54.296875 54.6875 
L 54.296875 0 
L 45.3125 0 
L 45.3125 8.40625 
Q 42.046875 3.421875 37.71875 1 
Q 33.40625 -1.421875 27.6875 -1.421875 
Q 18.265625 -1.421875 13.375 4.4375 
Q 8.5 10.296875 8.5 21.578125 
z
M 31.109375 56 
z
" id="DejaVuSans-117"/>
     <path d="M 9.421875 75.984375 
L 18.40625 75.984375 
L 18.40625 0 
L 9.421875 0 
z
" id="DejaVuSans-108"/>
     <path d="M 18.3125 70.21875 
L 18.3125 54.6875 
L 36.8125 54.6875 
L 36.8125 47.703125 
L 18.3125 47.703125 
L 18.3125 18.015625 
Q 18.3125 11.328125 20.140625 9.421875 
Q 21.96875 7.515625 27.59375 7.515625 
L 36.8125 7.515625 
L 36.8125 0 
L 27.59375 0 
Q 17.1875 0 13.234375 3.875 
Q 9.28125 7.765625 9.28125 18.015625 
L 9.28125 47.703125 
L 2.6875 47.703125 
L 2.6875 54.6875 
L 9.28125 54.6875 
L 9.28125 70.21875 
z
" id="DejaVuSans-116"/>
     <path d="M 9.421875 54.6875 
L 18.40625 54.6875 
L 18.40625 0 
L 9.421875 0 
z
M 9.421875 75.984375 
L 18.40625 75.984375 
L 18.40625 64.59375 
L 9.421875 64.59375 
z
" id="DejaVuSans-105"/>
     <path d="M 50.984375 -16.609375 
L 50.984375 -23.578125 
L -0.984375 -23.578125 
L -0.984375 -16.609375 
z
" id="DejaVuSans-95"/>
     <path d="M 4.203125 54.6875 
L 13.1875 54.6875 
L 24.421875 12.015625 
L 35.59375 54.6875 
L 46.1875 54.6875 
L 57.421875 12.015625 
L 68.609375 54.6875 
L 77.59375 54.6875 
L 63.28125 0 
L 52.6875 0 
L 40.921875 44.828125 
L 29.109375 0 
L 18.5 0 
z
" id="DejaVuSans-119"/>
     <path d="M 34.28125 27.484375 
Q 23.390625 27.484375 19.1875 25 
Q 14.984375 22.515625 14.984375 16.5 
Q 14.984375 11.71875 18.140625 8.90625 
Q 21.296875 6.109375 26.703125 6.109375 
Q 34.1875 6.109375 38.703125 11.40625 
Q 43.21875 16.703125 43.21875 25.484375 
L 43.21875 27.484375 
z
M 52.203125 31.203125 
L 52.203125 0 
L 43.21875 0 
L 43.21875 8.296875 
Q 40.140625 3.328125 35.546875 0.953125 
Q 30.953125 -1.421875 24.3125 -1.421875 
Q 15.921875 -1.421875 10.953125 3.296875 
Q 6 8.015625 6 15.921875 
Q 6 25.140625 12.171875 29.828125 
Q 18.359375 34.515625 30.609375 34.515625 
L 43.21875 34.515625 
L 43.21875 35.40625 
Q 43.21875 41.609375 39.140625 45 
Q 35.0625 48.390625 27.6875 48.390625 
Q 23 48.390625 18.546875 47.265625 
Q 14.109375 46.140625 10.015625 43.890625 
L 10.015625 52.203125 
Q 14.9375 54.109375 19.578125 55.046875 
Q 24.21875 56 28.609375 56 
Q 40.484375 56 46.34375 49.84375 
Q 52.203125 43.703125 52.203125 31.203125 
z
" id="DejaVuSans-97"/>
     <path d="M 32.171875 -5.078125 
Q 28.375 -14.84375 24.75 -17.8125 
Q 21.140625 -20.796875 15.09375 -20.796875 
L 7.90625 -20.796875 
L 7.90625 -13.28125 
L 13.1875 -13.28125 
Q 16.890625 -13.28125 18.9375 -11.515625 
Q 21 -9.765625 23.484375 -3.21875 
L 25.09375 0.875 
L 2.984375 54.6875 
L 12.5 54.6875 
L 29.59375 11.921875 
L 46.6875 54.6875 
L 56.203125 54.6875 
z
" id="DejaVuSans-121"/>
     <path d="M 2.984375 54.6875 
L 12.5 54.6875 
L 29.59375 8.796875 
L 46.6875 54.6875 
L 56.203125 54.6875 
L 35.6875 0 
L 23.484375 0 
z
" id="DejaVuSans-118"/>
     <path d="M 11.71875 12.40625 
L 22.015625 12.40625 
L 22.015625 0 
L 11.71875 0 
z
M 11.71875 51.703125 
L 22.015625 51.703125 
L 22.015625 39.3125 
L 11.71875 39.3125 
z
" id="DejaVuSans-58"/>
     <path id="DejaVuSans-32"/>
     <path d="M 56.203125 29.59375 
L 56.203125 25.203125 
L 14.890625 25.203125 
Q 15.484375 15.921875 20.484375 11.0625 
Q 25.484375 6.203125 34.421875 6.203125 
Q 39.59375 6.203125 44.453125 7.46875 
Q 49.3125 8.734375 54.109375 11.28125 
L 54.109375 2.78125 
Q 49.265625 0.734375 44.1875 -0.34375 
Q 39.109375 -1.421875 33.890625 -1.421875 
Q 20.796875 -1.421875 13.15625 6.1875 
Q 5.515625 13.8125 5.515625 26.8125 
Q 5.515625 40.234375 12.765625 48.109375 
Q 20.015625 56 32.328125 56 
Q 43.359375 56 49.78125 48.890625 
Q 56.203125 41.796875 56.203125 29.59375 
z
M 47.21875 32.234375 
Q 47.125 39.59375 43.09375 43.984375 
Q 39.0625 48.390625 32.421875 48.390625 
Q 24.90625 48.390625 20.390625 44.140625 
Q 15.875 39.890625 15.1875 32.171875 
z
" id="DejaVuSans-101"/>
     <path d="M 18.109375 8.203125 
L 18.109375 -20.796875 
L 9.078125 -20.796875 
L 9.078125 54.6875 
L 18.109375 54.6875 
L 18.109375 46.390625 
Q 20.953125 51.265625 25.265625 53.625 
Q 29.59375 56 35.59375 56 
Q 45.5625 56 51.78125 48.09375 
Q 58.015625 40.1875 58.015625 27.296875 
Q 58.015625 14.40625 51.78125 6.484375 
Q 45.5625 -1.421875 35.59375 -1.421875 
Q 29.59375 -1.421875 25.265625 0.953125 
Q 20.953125 3.328125 18.109375 8.203125 
z
M 48.6875 27.296875 
Q 48.6875 37.203125 44.609375 42.84375 
Q 40.53125 48.484375 33.40625 48.484375 
Q 26.265625 48.484375 22.1875 42.84375 
Q 18.109375 37.203125 18.109375 27.296875 
Q 18.109375 17.390625 22.1875 11.75 
Q 26.265625 6.109375 33.40625 6.109375 
Q 40.53125 6.109375 44.609375 11.75 
Q 48.6875 17.390625 48.6875 27.296875 
z
" id="DejaVuSans-112"/>
     <path d="M 44.28125 53.078125 
L 44.28125 44.578125 
Q 40.484375 46.53125 36.375 47.5 
Q 32.28125 48.484375 27.875 48.484375 
Q 21.1875 48.484375 17.84375 46.4375 
Q 14.5 44.390625 14.5 40.28125 
Q 14.5 37.15625 16.890625 35.375 
Q 19.28125 33.59375 26.515625 31.984375 
L 29.59375 31.296875 
Q 39.15625 29.25 43.1875 25.515625 
Q 47.21875 21.78125 47.21875 15.09375 
Q 47.21875 7.46875 41.1875 3.015625 
Q 35.15625 -1.421875 24.609375 -1.421875 
Q 20.21875 -1.421875 15.453125 -0.5625 
Q 10.6875 0.296875 5.421875 2 
L 5.421875 11.28125 
Q 10.40625 8.6875 15.234375 7.390625 
Q 20.0625 6.109375 24.8125 6.109375 
Q 31.15625 6.109375 34.5625 8.28125 
Q 37.984375 10.453125 37.984375 14.40625 
Q 37.984375 18.0625 35.515625 20.015625 
Q 33.0625 21.96875 24.703125 23.78125 
L 21.578125 24.515625 
Q 13.234375 26.265625 9.515625 29.90625 
Q 5.8125 33.546875 5.8125 39.890625 
Q 5.8125 47.609375 11.28125 51.796875 
Q 16.75 56 26.8125 56 
Q 31.78125 56 36.171875 55.265625 
Q 40.578125 54.546875 44.28125 53.078125 
z
" id="DejaVuSans-115"/>
     <path d="M 30.609375 48.390625 
Q 23.390625 48.390625 19.1875 42.75 
Q 14.984375 37.109375 14.984375 27.296875 
Q 14.984375 17.484375 19.15625 11.84375 
Q 23.34375 6.203125 30.609375 6.203125 
Q 37.796875 6.203125 41.984375 11.859375 
Q 46.1875 17.53125 46.1875 27.296875 
Q 46.1875 37.015625 41.984375 42.703125 
Q 37.796875 48.390625 30.609375 48.390625 
z
M 30.609375 56 
Q 42.328125 56 49.015625 48.375 
Q 55.71875 40.765625 55.71875 27.296875 
Q 55.71875 13.875 49.015625 6.21875 
Q 42.328125 -1.421875 30.609375 -1.421875 
Q 18.84375 -1.421875 12.171875 6.21875 
Q 5.515625 13.875 5.515625 27.296875 
Q 5.515625 40.765625 12.171875 48.375 
Q 18.84375 56 30.609375 56 
z
" id="DejaVuSans-111"/>
     <path d="M 45.40625 46.390625 
L 45.40625 75.984375 
L 54.390625 75.984375 
L 54.390625 0 
L 45.40625 0 
L 45.40625 8.203125 
Q 42.578125 3.328125 38.25 0.953125 
Q 33.9375 -1.421875 27.875 -1.421875 
Q 17.96875 -1.421875 11.734375 6.484375 
Q 5.515625 14.40625 5.515625 27.296875 
Q 5.515625 40.1875 11.734375 48.09375 
Q 17.96875 56 27.875 56 
Q 33.9375 56 38.25 53.625 
Q 42.578125 51.265625 45.40625 46.390625 
z
M 14.796875 27.296875 
Q 14.796875 17.390625 18.875 11.75 
Q 22.953125 6.109375 30.078125 6.109375 
Q 37.203125 6.109375 41.296875 11.75 
Q 45.40625 17.390625 45.40625 27.296875 
Q 45.40625 37.203125 41.296875 42.84375 
Q 37.203125 48.484375 30.078125 48.484375 
Q 22.953125 48.484375 18.875 42.84375 
Q 14.796875 37.203125 14.796875 27.296875 
z
" id="DejaVuSans-100"/>
     <path d="M 41.109375 46.296875 
Q 39.59375 47.171875 37.8125 47.578125 
Q 36.03125 48 33.890625 48 
Q 26.265625 48 22.1875 43.046875 
Q 18.109375 38.09375 18.109375 28.8125 
L 18.109375 0 
L 9.078125 0 
L 9.078125 54.6875 
L 18.109375 54.6875 
L 18.109375 46.1875 
Q 20.953125 51.171875 25.484375 53.578125 
Q 30.03125 56 36.53125 56 
Q 37.453125 56 38.578125 55.875 
Q 39.703125 55.765625 41.0625 55.515625 
z
" id="DejaVuSans-114"/>
     <path d="M 54.890625 33.015625 
L 54.890625 0 
L 45.90625 0 
L 45.90625 32.71875 
Q 45.90625 40.484375 42.875 44.328125 
Q 39.84375 48.1875 33.796875 48.1875 
Q 26.515625 48.1875 22.3125 43.546875 
Q 18.109375 38.921875 18.109375 30.90625 
L 18.109375 0 
L 9.078125 0 
L 9.078125 54.6875 
L 18.109375 54.6875 
L 18.109375 46.1875 
Q 21.34375 51.125 25.703125 53.5625 
Q 30.078125 56 35.796875 56 
Q 45.21875 56 50.046875 50.171875 
Q 54.890625 44.34375 54.890625 33.015625 
z
" id="DejaVuSans-110"/>
     <path d="M 11.71875 12.40625 
L 22.015625 12.40625 
L 22.015625 4 
L 14.015625 -11.625 
L 7.71875 -11.625 
L 11.71875 4 
z
" id="DejaVuSans-44"/>
     <path d="M 9.8125 72.90625 
L 24.515625 72.90625 
L 43.109375 23.296875 
L 61.8125 72.90625 
L 76.515625 72.90625 
L 76.515625 0 
L 66.890625 0 
L 66.890625 64.015625 
L 48.09375 14.015625 
L 38.1875 14.015625 
L 19.390625 64.015625 
L 19.390625 0 
L 9.8125 0 
z
" id="DejaVuSans-77"/>
     <path d="M 34.1875 63.1875 
L 20.796875 26.90625 
L 47.609375 26.90625 
z
M 28.609375 72.90625 
L 39.796875 72.90625 
L 67.578125 0 
L 57.328125 0 
L 50.6875 18.703125 
L 17.828125 18.703125 
L 11.1875 0 
L 0.78125 0 
z
" id="DejaVuSans-65"/>
     <path d="M 10.59375 45.40625 
L 73.1875 45.40625 
L 73.1875 37.203125 
L 10.59375 37.203125 
z
M 10.59375 25.484375 
L 73.1875 25.484375 
L 73.1875 17.1875 
L 10.59375 17.1875 
z
" id="DejaVuSans-61"/>
    </defs>
    <g transform="translate(226.551562 20.16)scale(0.12 -0.12)">
     <use xlink:href="#DejaVuSans-109"/>
     <use x="97.412109" xlink:href="#DejaVuSans-117"/>
     <use x="160.791016" xlink:href="#DejaVuSans-108"/>
     <use x="188.574219" xlink:href="#DejaVuSans-116"/>
     <use x="227.783203" xlink:href="#DejaVuSans-105"/>
     <use x="255.566406" xlink:href="#DejaVuSans-95"/>
     <use x="305.566406" xlink:href="#DejaVuSans-119"/>
     <use x="387.353516" xlink:href="#DejaVuSans-97"/>
     <use x="448.632812" xlink:href="#DejaVuSans-121"/>
     <use x="507.8125" xlink:href="#DejaVuSans-95"/>
     <use x="557.8125" xlink:href="#DejaVuSans-118"/>
     <use x="616.992188" xlink:href="#DejaVuSans-49"/>
     <use x="680.615234" xlink:href="#DejaVuSans-95"/>
     <use x="730.615234" xlink:href="#DejaVuSans-95"/>
     <use x="780.615234" xlink:href="#DejaVuSans-52"/>
     <use x="844.238281" xlink:href="#DejaVuSans-58"/>
     <use x="877.929688" xlink:href="#DejaVuSans-32"/>
     <use x="909.716797" xlink:href="#DejaVuSans-101"/>
     <use x="971.240234" xlink:href="#DejaVuSans-112"/>
     <use x="1034.716797" xlink:href="#DejaVuSans-105"/>
     <use x="1062.5" xlink:href="#DejaVuSans-115"/>
     <use x="1114.599609" xlink:href="#DejaVuSans-111"/>
     <use x="1175.78125" xlink:href="#DejaVuSans-100"/>
     <use x="1239.257812" xlink:href="#DejaVuSans-101"/>
     <use x="1300.78125" xlink:href="#DejaVuSans-32"/>
     <use x="1332.568359" xlink:href="#DejaVuSans-100"/>
     <use x="1396.044922" xlink:href="#DejaVuSans-117"/>
     <use x="1459.423828" xlink:href="#DejaVuSans-114"/>
     <use x="1500.537109" xlink:href="#DejaVuSans-97"/>
     <use x="1561.816406" xlink:href="#DejaVuSans-116"/>
     <use x="1601.025391" xlink:href="#DejaVuSans-105"/>
     <use x="1628.808594" xlink:href="#DejaVuSans-111"/>
     <use x="1689.990234" xlink:href="#DejaVuSans-110"/>
     <use x="1753.369141" xlink:href="#DejaVuSans-44"/>
     <use x="1785.15625" xlink:href="#DejaVuSans-32"/>
     <use x="1816.943359" xlink:href="#DejaVuSans-115"/>
     <use x="1869.042969" xlink:href="#DejaVuSans-116"/>
     <use x="1908.251953" xlink:href="#DejaVuSans-101"/>
     <use x="1969.775391" xlink:href="#DejaVuSans-112"/>
     <use x="2033.251953" xlink:href="#DejaVuSans-115"/>
     <use x="2085.351562" xlink:href="#DejaVuSans-44"/>
     <use x="2117.138672" xlink:href="#DejaVuSans-32"/>
     <use x="2148.925781" xlink:href="#DejaVuSans-77"/>
     <use x="2235.205078" xlink:href="#DejaVuSans-65"/>
     <use x="2303.613281" xlink:href="#DejaVuSans-61"/>
     <use x="2387.402344" xlink:href="#DejaVuSans-50"/>
     <use x="2451.025391" xlink:href="#DejaVuSans-48"/>
    </g>
   </g>
   <g id="legend_1">
    <g id="patch_7">
     <path d="M 774.948125 231.59625 
L 856.02 231.59625 
Q 858.02 231.59625 858.02 229.59625 
L 858.02 200.68375 
Q 858.02 198.68375 856.02 198.68375 
L 774.948125 198.68375 
Q 772.948125 198.68375 772.948125 200.68375 
L 772.948125 229.59625 
Q 772.948125 231.59625 774.948125 231.59625 
z
" style="fill:#ffffff;opacity:0.8;stroke:#cccccc;stroke-linejoin:miter;"/>
    </g>
    <g id="line2d_14">
     <path d="M 776.948125 206.782187 
L 796.948125 206.782187 
" style="fill:none;stroke:#1f77b4;stroke-linecap:square;stroke-width:1.5;"/>
    </g>
    <g id="line2d_15"/>
    <g id="text_13">
     <!-- htm_4_1g -->
     <defs>
      <path d="M 54.890625 33.015625 
L 54.890625 0 
L 45.90625 0 
L 45.90625 32.71875 
Q 45.90625 40.484375 42.875 44.328125 
Q 39.84375 48.1875 33.796875 48.1875 
Q 26.515625 48.1875 22.3125 43.546875 
Q 18.109375 38.921875 18.109375 30.90625 
L 18.109375 0 
L 9.078125 0 
L 9.078125 75.984375 
L 18.109375 75.984375 
L 18.109375 46.1875 
Q 21.34375 51.125 25.703125 53.5625 
Q 30.078125 56 35.796875 56 
Q 45.21875 56 50.046875 50.171875 
Q 54.890625 44.34375 54.890625 33.015625 
z
" id="DejaVuSans-104"/>
      <path d="M 45.40625 27.984375 
Q 45.40625 37.75 41.375 43.109375 
Q 37.359375 48.484375 30.078125 48.484375 
Q 22.859375 48.484375 18.828125 43.109375 
Q 14.796875 37.75 14.796875 27.984375 
Q 14.796875 18.265625 18.828125 12.890625 
Q 22.859375 7.515625 30.078125 7.515625 
Q 37.359375 7.515625 41.375 12.890625 
Q 45.40625 18.265625 45.40625 27.984375 
z
M 54.390625 6.78125 
Q 54.390625 -7.171875 48.1875 -13.984375 
Q 42 -20.796875 29.203125 -20.796875 
Q 24.46875 -20.796875 20.265625 -20.09375 
Q 16.0625 -19.390625 12.109375 -17.921875 
L 12.109375 -9.1875 
Q 16.0625 -11.328125 19.921875 -12.34375 
Q 23.78125 -13.375 27.78125 -13.375 
Q 36.625 -13.375 41.015625 -8.765625 
Q 45.40625 -4.15625 45.40625 5.171875 
L 45.40625 9.625 
Q 42.625 4.78125 38.28125 2.390625 
Q 33.9375 0 27.875 0 
Q 17.828125 0 11.671875 7.65625 
Q 5.515625 15.328125 5.515625 27.984375 
Q 5.515625 40.671875 11.671875 48.328125 
Q 17.828125 56 27.875 56 
Q 33.9375 56 38.28125 53.609375 
Q 42.625 51.21875 45.40625 46.390625 
L 45.40625 54.6875 
L 54.390625 54.6875 
z
" id="DejaVuSans-103"/>
     </defs>
     <g transform="translate(804.948125 210.282187)scale(0.1 -0.1)">
      <use xlink:href="#DejaVuSans-104"/>
      <use x="63.378906" xlink:href="#DejaVuSans-116"/>
      <use x="102.587891" xlink:href="#DejaVuSans-109"/>
      <use x="200" xlink:href="#DejaVuSans-95"/>
      <use x="250" xlink:href="#DejaVuSans-52"/>
      <use x="313.623047" xlink:href="#DejaVuSans-95"/>
      <use x="363.623047" xlink:href="#DejaVuSans-49"/>
      <use x="427.246094" xlink:href="#DejaVuSans-103"/>
     </g>
    </g>
    <g id="line2d_16">
     <path d="M 776.948125 221.738437 
L 796.948125 221.738437 
" style="fill:none;stroke:#ff7f0e;stroke-linecap:square;stroke-width:1.5;"/>
    </g>
    <g id="line2d_17"/>
    <g id="text_14">
     <!-- htm_4 -->
     <g transform="translate(804.948125 225.238437)scale(0.1 -0.1)">
      <use xlink:href="#DejaVuSans-104"/>
      <use x="63.378906" xlink:href="#DejaVuSans-116"/>
      <use x="102.587891" xlink:href="#DejaVuSans-109"/>
      <use x="200" xlink:href="#DejaVuSans-95"/>
      <use x="250" xlink:href="#DejaVuSans-52"/>
     </g>
    </g>
   </g>
  </g>
 </g>
 <defs>
  <clipPath id="pbb607ce39f">
   <rect height="377.96" width="693.7" x="30.58" y="26.16"/>
  </clipPath>
 </defs>
</svg>
