<?xml version="1.0" encoding="utf-8" standalone="no"?>
<!DOCTYPE svg PUBLIC "-//W3C//DTD SVG 1.1//EN"
  "http://www.w3.org/Graphics/SVG/1.1/DTD/svg11.dtd">
<!-- Created with matplotlib (https://matplotlib.org/) -->
<svg height="432pt" version="1.1" viewBox="0 0 864 432" width="864pt" xmlns="http://www.w3.org/2000/svg" xmlns:xlink="http://www.w3.org/1999/xlink">
 <defs>
  <style type="text/css">
*{stroke-linecap:butt;stroke-linejoin:round;}
  </style>
 </defs>
 <g id="figure_1">
  <g id="patch_1">
   <path d="M 0 432 
L 864 432 
L 864 0 
L 0 0 
z
" style="fill:#ffffff;"/>
  </g>
  <g id="axes_1">
   <g id="patch_2">
    <path d="M 42.1 404.12 
L 724.28 404.12 
L 724.28 26.16 
L 42.1 26.16 
z
" style="fill:#ffffff;"/>
   </g>
   <g id="matplotlib.axis_1">
    <g id="xtick_1">
     <g id="line2d_1">
      <defs>
       <path d="M 0 0 
L 0 3.5 
" id="md65770b000" style="stroke:#000000;stroke-width:0.8;"/>
      </defs>
      <g>
       <use style="stroke:#000000;stroke-width:0.8;" x="42.1" xlink:href="#md65770b000" y="404.12"/>
      </g>
     </g>
     <g id="text_1">
      <!-- 0 -->
      <defs>
       <path d="M 31.78125 66.40625 
Q 24.171875 66.40625 20.328125 58.90625 
Q 16.5 51.421875 16.5 36.375 
Q 16.5 21.390625 20.328125 13.890625 
Q 24.171875 6.390625 31.78125 6.390625 
Q 39.453125 6.390625 43.28125 13.890625 
Q 47.125 21.390625 47.125 36.375 
Q 47.125 51.421875 43.28125 58.90625 
Q 39.453125 66.40625 31.78125 66.40625 
z
M 31.78125 74.21875 
Q 44.046875 74.21875 50.515625 64.515625 
Q 56.984375 54.828125 56.984375 36.375 
Q 56.984375 17.96875 50.515625 8.265625 
Q 44.046875 -1.421875 31.78125 -1.421875 
Q 19.53125 -1.421875 13.0625 8.265625 
Q 6.59375 17.96875 6.59375 36.375 
Q 6.59375 54.828125 13.0625 64.515625 
Q 19.53125 74.21875 31.78125 74.21875 
z
" id="DejaVuSans-48"/>
      </defs>
      <g transform="translate(38.91875 418.718437)scale(0.1 -0.1)">
       <use xlink:href="#DejaVuSans-48"/>
      </g>
     </g>
    </g>
    <g id="xtick_2">
     <g id="line2d_2">
      <g>
       <use style="stroke:#000000;stroke-width:0.8;" x="127.586216" xlink:href="#md65770b000" y="404.12"/>
      </g>
     </g>
     <g id="text_2">
      <!-- 50 -->
      <defs>
       <path d="M 10.796875 72.90625 
L 49.515625 72.90625 
L 49.515625 64.59375 
L 19.828125 64.59375 
L 19.828125 46.734375 
Q 21.96875 47.46875 24.109375 47.828125 
Q 26.265625 48.1875 28.421875 48.1875 
Q 40.625 48.1875 47.75 41.5 
Q 54.890625 34.8125 54.890625 23.390625 
Q 54.890625 11.625 47.5625 5.09375 
Q 40.234375 -1.421875 26.90625 -1.421875 
Q 22.3125 -1.421875 17.546875 -0.640625 
Q 12.796875 0.140625 7.71875 1.703125 
L 7.71875 11.625 
Q 12.109375 9.234375 16.796875 8.0625 
Q 21.484375 6.890625 26.703125 6.890625 
Q 35.15625 6.890625 40.078125 11.328125 
Q 45.015625 15.765625 45.015625 23.390625 
Q 45.015625 31 40.078125 35.4375 
Q 35.15625 39.890625 26.703125 39.890625 
Q 22.75 39.890625 18.8125 39.015625 
Q 14.890625 38.140625 10.796875 36.28125 
z
" id="DejaVuSans-53"/>
      </defs>
      <g transform="translate(121.223716 418.718437)scale(0.1 -0.1)">
       <use xlink:href="#DejaVuSans-53"/>
       <use x="63.623047" xlink:href="#DejaVuSans-48"/>
      </g>
     </g>
    </g>
    <g id="xtick_3">
     <g id="line2d_3">
      <g>
       <use style="stroke:#000000;stroke-width:0.8;" x="213.072431" xlink:href="#md65770b000" y="404.12"/>
      </g>
     </g>
     <g id="text_3">
      <!-- 100 -->
      <defs>
       <path d="M 12.40625 8.296875 
L 28.515625 8.296875 
L 28.515625 63.921875 
L 10.984375 60.40625 
L 10.984375 69.390625 
L 28.421875 72.90625 
L 38.28125 72.90625 
L 38.28125 8.296875 
L 54.390625 8.296875 
L 54.390625 0 
L 12.40625 0 
z
" id="DejaVuSans-49"/>
      </defs>
      <g transform="translate(203.528681 418.718437)scale(0.1 -0.1)">
       <use xlink:href="#DejaVuSans-49"/>
       <use x="63.623047" xlink:href="#DejaVuSans-48"/>
       <use x="127.246094" xlink:href="#DejaVuSans-48"/>
      </g>
     </g>
    </g>
    <g id="xtick_4">
     <g id="line2d_4">
      <g>
       <use style="stroke:#000000;stroke-width:0.8;" x="298.558647" xlink:href="#md65770b000" y="404.12"/>
      </g>
     </g>
     <g id="text_4">
      <!-- 150 -->
      <g transform="translate(289.014897 418.718437)scale(0.1 -0.1)">
       <use xlink:href="#DejaVuSans-49"/>
       <use x="63.623047" xlink:href="#DejaVuSans-53"/>
       <use x="127.246094" xlink:href="#DejaVuSans-48"/>
      </g>
     </g>
    </g>
    <g id="xtick_5">
     <g id="line2d_5">
      <g>
       <use style="stroke:#000000;stroke-width:0.8;" x="384.044862" xlink:href="#md65770b000" y="404.12"/>
      </g>
     </g>
     <g id="text_5">
      <!-- 200 -->
      <defs>
       <path d="M 19.1875 8.296875 
L 53.609375 8.296875 
L 53.609375 0 
L 7.328125 0 
L 7.328125 8.296875 
Q 12.9375 14.109375 22.625 23.890625 
Q 32.328125 33.6875 34.8125 36.53125 
Q 39.546875 41.84375 41.421875 45.53125 
Q 43.3125 49.21875 43.3125 52.78125 
Q 43.3125 58.59375 39.234375 62.25 
Q 35.15625 65.921875 28.609375 65.921875 
Q 23.96875 65.921875 18.8125 64.3125 
Q 13.671875 62.703125 7.8125 59.421875 
L 7.8125 69.390625 
Q 13.765625 71.78125 18.9375 73 
Q 24.125 74.21875 28.421875 74.21875 
Q 39.75 74.21875 46.484375 68.546875 
Q 53.21875 62.890625 53.21875 53.421875 
Q 53.21875 48.921875 51.53125 44.890625 
Q 49.859375 40.875 45.40625 35.40625 
Q 44.1875 33.984375 37.640625 27.21875 
Q 31.109375 20.453125 19.1875 8.296875 
z
" id="DejaVuSans-50"/>
      </defs>
      <g transform="translate(374.501112 418.718437)scale(0.1 -0.1)">
       <use xlink:href="#DejaVuSans-50"/>
       <use x="63.623047" xlink:href="#DejaVuSans-48"/>
       <use x="127.246094" xlink:href="#DejaVuSans-48"/>
      </g>
     </g>
    </g>
    <g id="xtick_6">
     <g id="line2d_6">
      <g>
       <use style="stroke:#000000;stroke-width:0.8;" x="469.531078" xlink:href="#md65770b000" y="404.12"/>
      </g>
     </g>
     <g id="text_6">
      <!-- 250 -->
      <g transform="translate(459.987328 418.718437)scale(0.1 -0.1)">
       <use xlink:href="#DejaVuSans-50"/>
       <use x="63.623047" xlink:href="#DejaVuSans-53"/>
       <use x="127.246094" xlink:href="#DejaVuSans-48"/>
      </g>
     </g>
    </g>
    <g id="xtick_7">
     <g id="line2d_7">
      <g>
       <use style="stroke:#000000;stroke-width:0.8;" x="555.017293" xlink:href="#md65770b000" y="404.12"/>
      </g>
     </g>
     <g id="text_7">
      <!-- 300 -->
      <defs>
       <path d="M 40.578125 39.3125 
Q 47.65625 37.796875 51.625 33 
Q 55.609375 28.21875 55.609375 21.1875 
Q 55.609375 10.40625 48.1875 4.484375 
Q 40.765625 -1.421875 27.09375 -1.421875 
Q 22.515625 -1.421875 17.65625 -0.515625 
Q 12.796875 0.390625 7.625 2.203125 
L 7.625 11.71875 
Q 11.71875 9.328125 16.59375 8.109375 
Q 21.484375 6.890625 26.8125 6.890625 
Q 36.078125 6.890625 40.9375 10.546875 
Q 45.796875 14.203125 45.796875 21.1875 
Q 45.796875 27.640625 41.28125 31.265625 
Q 36.765625 34.90625 28.71875 34.90625 
L 20.21875 34.90625 
L 20.21875 43.015625 
L 29.109375 43.015625 
Q 36.375 43.015625 40.234375 45.921875 
Q 44.09375 48.828125 44.09375 54.296875 
Q 44.09375 59.90625 40.109375 62.90625 
Q 36.140625 65.921875 28.71875 65.921875 
Q 24.65625 65.921875 20.015625 65.03125 
Q 15.375 64.15625 9.8125 62.3125 
L 9.8125 71.09375 
Q 15.4375 72.65625 20.34375 73.4375 
Q 25.25 74.21875 29.59375 74.21875 
Q 40.828125 74.21875 47.359375 69.109375 
Q 53.90625 64.015625 53.90625 55.328125 
Q 53.90625 49.265625 50.4375 45.09375 
Q 46.96875 40.921875 40.578125 39.3125 
z
" id="DejaVuSans-51"/>
      </defs>
      <g transform="translate(545.473543 418.718437)scale(0.1 -0.1)">
       <use xlink:href="#DejaVuSans-51"/>
       <use x="63.623047" xlink:href="#DejaVuSans-48"/>
       <use x="127.246094" xlink:href="#DejaVuSans-48"/>
      </g>
     </g>
    </g>
    <g id="xtick_8">
     <g id="line2d_8">
      <g>
       <use style="stroke:#000000;stroke-width:0.8;" x="640.503509" xlink:href="#md65770b000" y="404.12"/>
      </g>
     </g>
     <g id="text_8">
      <!-- 350 -->
      <g transform="translate(630.959759 418.718437)scale(0.1 -0.1)">
       <use xlink:href="#DejaVuSans-51"/>
       <use x="63.623047" xlink:href="#DejaVuSans-53"/>
       <use x="127.246094" xlink:href="#DejaVuSans-48"/>
      </g>
     </g>
    </g>
   </g>
   <g id="matplotlib.axis_2">
    <g id="ytick_1">
     <g id="line2d_9">
      <defs>
       <path d="M 0 0 
L -3.5 0 
" id="m665b137f96" style="stroke:#000000;stroke-width:0.8;"/>
      </defs>
      <g>
       <use style="stroke:#000000;stroke-width:0.8;" x="42.1" xlink:href="#m665b137f96" y="386.94"/>
      </g>
     </g>
     <g id="text_9">
      <!-- −0.4 -->
      <defs>
       <path d="M 10.59375 35.5 
L 73.1875 35.5 
L 73.1875 27.203125 
L 10.59375 27.203125 
z
" id="DejaVuSans-8722"/>
       <path d="M 10.6875 12.40625 
L 21 12.40625 
L 21 0 
L 10.6875 0 
z
" id="DejaVuSans-46"/>
       <path d="M 37.796875 64.3125 
L 12.890625 25.390625 
L 37.796875 25.390625 
z
M 35.203125 72.90625 
L 47.609375 72.90625 
L 47.609375 25.390625 
L 58.015625 25.390625 
L 58.015625 17.1875 
L 47.609375 17.1875 
L 47.609375 0 
L 37.796875 0 
L 37.796875 17.1875 
L 4.890625 17.1875 
L 4.890625 26.703125 
z
" id="DejaVuSans-52"/>
      </defs>
      <g transform="translate(10.817188 390.739219)scale(0.1 -0.1)">
       <use xlink:href="#DejaVuSans-8722"/>
       <use x="83.789062" xlink:href="#DejaVuSans-48"/>
       <use x="147.412109" xlink:href="#DejaVuSans-46"/>
       <use x="179.199219" xlink:href="#DejaVuSans-52"/>
      </g>
     </g>
    </g>
    <g id="ytick_2">
     <g id="line2d_10">
      <g>
       <use style="stroke:#000000;stroke-width:0.8;" x="42.1" xlink:href="#m665b137f96" y="337.501151"/>
      </g>
     </g>
     <g id="text_10">
      <!-- −0.2 -->
      <g transform="translate(10.817188 341.30037)scale(0.1 -0.1)">
       <use xlink:href="#DejaVuSans-8722"/>
       <use x="83.789062" xlink:href="#DejaVuSans-48"/>
       <use x="147.412109" xlink:href="#DejaVuSans-46"/>
       <use x="179.199219" xlink:href="#DejaVuSans-50"/>
      </g>
     </g>
    </g>
    <g id="ytick_3">
     <g id="line2d_11">
      <g>
       <use style="stroke:#000000;stroke-width:0.8;" x="42.1" xlink:href="#m665b137f96" y="288.062302"/>
      </g>
     </g>
     <g id="text_11">
      <!-- 0.0 -->
      <g transform="translate(19.196875 291.861521)scale(0.1 -0.1)">
       <use xlink:href="#DejaVuSans-48"/>
       <use x="63.623047" xlink:href="#DejaVuSans-46"/>
       <use x="95.410156" xlink:href="#DejaVuSans-48"/>
      </g>
     </g>
    </g>
    <g id="ytick_4">
     <g id="line2d_12">
      <g>
       <use style="stroke:#000000;stroke-width:0.8;" x="42.1" xlink:href="#m665b137f96" y="238.623453"/>
      </g>
     </g>
     <g id="text_12">
      <!-- 0.2 -->
      <g transform="translate(19.196875 242.422672)scale(0.1 -0.1)">
       <use xlink:href="#DejaVuSans-48"/>
       <use x="63.623047" xlink:href="#DejaVuSans-46"/>
       <use x="95.410156" xlink:href="#DejaVuSans-50"/>
      </g>
     </g>
    </g>
    <g id="ytick_5">
     <g id="line2d_13">
      <g>
       <use style="stroke:#000000;stroke-width:0.8;" x="42.1" xlink:href="#m665b137f96" y="189.184604"/>
      </g>
     </g>
     <g id="text_13">
      <!-- 0.4 -->
      <g transform="translate(19.196875 192.983823)scale(0.1 -0.1)">
       <use xlink:href="#DejaVuSans-48"/>
       <use x="63.623047" xlink:href="#DejaVuSans-46"/>
       <use x="95.410156" xlink:href="#DejaVuSans-52"/>
      </g>
     </g>
    </g>
    <g id="ytick_6">
     <g id="line2d_14">
      <g>
       <use style="stroke:#000000;stroke-width:0.8;" x="42.1" xlink:href="#m665b137f96" y="139.745755"/>
      </g>
     </g>
     <g id="text_14">
      <!-- 0.6 -->
      <defs>
       <path d="M 33.015625 40.375 
Q 26.375 40.375 22.484375 35.828125 
Q 18.609375 31.296875 18.609375 23.390625 
Q 18.609375 15.53125 22.484375 10.953125 
Q 26.375 6.390625 33.015625 6.390625 
Q 39.65625 6.390625 43.53125 10.953125 
Q 47.40625 15.53125 47.40625 23.390625 
Q 47.40625 31.296875 43.53125 35.828125 
Q 39.65625 40.375 33.015625 40.375 
z
M 52.59375 71.296875 
L 52.59375 62.3125 
Q 48.875 64.0625 45.09375 64.984375 
Q 41.3125 65.921875 37.59375 65.921875 
Q 27.828125 65.921875 22.671875 59.328125 
Q 17.53125 52.734375 16.796875 39.40625 
Q 19.671875 43.65625 24.015625 45.921875 
Q 28.375 48.1875 33.59375 48.1875 
Q 44.578125 48.1875 50.953125 41.515625 
Q 57.328125 34.859375 57.328125 23.390625 
Q 57.328125 12.15625 50.6875 5.359375 
Q 44.046875 -1.421875 33.015625 -1.421875 
Q 20.359375 -1.421875 13.671875 8.265625 
Q 6.984375 17.96875 6.984375 36.375 
Q 6.984375 53.65625 15.1875 63.9375 
Q 23.390625 74.21875 37.203125 74.21875 
Q 40.921875 74.21875 44.703125 73.484375 
Q 48.484375 72.75 52.59375 71.296875 
z
" id="DejaVuSans-54"/>
      </defs>
      <g transform="translate(19.196875 143.544974)scale(0.1 -0.1)">
       <use xlink:href="#DejaVuSans-48"/>
       <use x="63.623047" xlink:href="#DejaVuSans-46"/>
       <use x="95.410156" xlink:href="#DejaVuSans-54"/>
      </g>
     </g>
    </g>
    <g id="ytick_7">
     <g id="line2d_15">
      <g>
       <use style="stroke:#000000;stroke-width:0.8;" x="42.1" xlink:href="#m665b137f96" y="90.306906"/>
      </g>
     </g>
     <g id="text_15">
      <!-- 0.8 -->
      <defs>
       <path d="M 31.78125 34.625 
Q 24.75 34.625 20.71875 30.859375 
Q 16.703125 27.09375 16.703125 20.515625 
Q 16.703125 13.921875 20.71875 10.15625 
Q 24.75 6.390625 31.78125 6.390625 
Q 38.8125 6.390625 42.859375 10.171875 
Q 46.921875 13.96875 46.921875 20.515625 
Q 46.921875 27.09375 42.890625 30.859375 
Q 38.875 34.625 31.78125 34.625 
z
M 21.921875 38.8125 
Q 15.578125 40.375 12.03125 44.71875 
Q 8.5 49.078125 8.5 55.328125 
Q 8.5 64.0625 14.71875 69.140625 
Q 20.953125 74.21875 31.78125 74.21875 
Q 42.671875 74.21875 48.875 69.140625 
Q 55.078125 64.0625 55.078125 55.328125 
Q 55.078125 49.078125 51.53125 44.71875 
Q 48 40.375 41.703125 38.8125 
Q 48.828125 37.15625 52.796875 32.3125 
Q 56.78125 27.484375 56.78125 20.515625 
Q 56.78125 9.90625 50.3125 4.234375 
Q 43.84375 -1.421875 31.78125 -1.421875 
Q 19.734375 -1.421875 13.25 4.234375 
Q 6.78125 9.90625 6.78125 20.515625 
Q 6.78125 27.484375 10.78125 32.3125 
Q 14.796875 37.15625 21.921875 38.8125 
z
M 18.3125 54.390625 
Q 18.3125 48.734375 21.84375 45.5625 
Q 25.390625 42.390625 31.78125 42.390625 
Q 38.140625 42.390625 41.71875 45.5625 
Q 45.3125 48.734375 45.3125 54.390625 
Q 45.3125 60.0625 41.71875 63.234375 
Q 38.140625 66.40625 31.78125 66.40625 
Q 25.390625 66.40625 21.84375 63.234375 
Q 18.3125 60.0625 18.3125 54.390625 
z
" id="DejaVuSans-56"/>
      </defs>
      <g transform="translate(19.196875 94.106125)scale(0.1 -0.1)">
       <use xlink:href="#DejaVuSans-48"/>
       <use x="63.623047" xlink:href="#DejaVuSans-46"/>
       <use x="95.410156" xlink:href="#DejaVuSans-56"/>
      </g>
     </g>
    </g>
    <g id="ytick_8">
     <g id="line2d_16">
      <g>
       <use style="stroke:#000000;stroke-width:0.8;" x="42.1" xlink:href="#m665b137f96" y="40.868058"/>
      </g>
     </g>
     <g id="text_16">
      <!-- 1.0 -->
      <g transform="translate(19.196875 44.667276)scale(0.1 -0.1)">
       <use xlink:href="#DejaVuSans-49"/>
       <use x="63.623047" xlink:href="#DejaVuSans-46"/>
       <use x="95.410156" xlink:href="#DejaVuSans-48"/>
      </g>
     </g>
    </g>
   </g>
   <g id="line2d_17">
    <path clip-path="url(#p59c1754551)" d="M 74.584762 153.835827 
L 76.294486 151.240288 
L 78.004211 154.57741 
L 79.713935 153.835827 
L 81.423659 167.555108 
L 83.133383 154.453813 
L 84.843108 154.453813 
L 86.552832 153.465036 
L 88.262556 152.84705 
L 89.972281 166.19554 
L 91.682005 168.049496 
L 93.391729 152.723453 
L 95.101454 151.858273 
L 96.811178 152.105468 
L 98.520902 166.319137 
L 100.230627 162.858417 
L 101.940351 163.105612 
L 103.650075 162.240432 
L 105.359799 159.892086 
L 107.069524 160.015683 
L 108.779248 145.431223 
L 110.488972 161.498849 
L 112.198697 174.600144 
L 113.908421 173.858561 
L 115.618145 158.038129 
L 117.32787 171.139424 
L 119.037594 157.420144 
L 120.747318 171.881007 
L 122.457043 170.397842 
L 124.166767 157.914532 
L 125.876491 157.667338 
L 127.586216 172.993381 
L 129.29594 174.229353 
L 131.005664 173.858561 
L 132.715388 173.858561 
L 134.425113 174.723741 
L 136.134837 176.577698 
L 139.554286 209.454532 
L 141.26401 210.566906 
L 142.973734 208.218561 
L 144.683459 195.240863 
L 146.393183 179.420432 
L 148.102907 178.802446 
L 149.812632 194.622878 
L 151.522356 181.397986 
L 153.23208 195.117266 
L 154.941805 178.555252 
L 156.651529 179.04964 
L 158.361253 175.959712 
L 160.070977 174.970935 
L 161.780702 159.644892 
L 163.490426 174.847338 
L 165.20015 174.970935 
L 166.909875 174.970935 
L 168.619599 190.049784 
L 170.329323 187.701439 
L 172.039048 171.881007 
L 173.748772 171.881007 
L 175.458496 172.128201 
L 177.168221 189.061007 
L 178.877945 185.229496 
L 180.587669 184.487914 
L 182.297393 187.083453 
L 184.007118 174.105755 
L 185.716842 171.015827 
L 187.426566 157.420144 
L 189.136291 158.285324 
L 190.846015 173.116978 
L 192.555739 173.858561 
L 194.265464 173.982158 
L 195.975188 173.858561 
L 197.684912 160.510072 
L 199.394637 161.251655 
L 201.104361 161.251655 
L 202.814085 144.442446 
L 204.52381 144.195252 
L 206.233534 143.577266 
L 207.943258 127.262446 
L 209.652982 125.655683 
L 211.362707 109.958849 
L 213.072431 126.768058 
L 214.782155 128.127626 
L 218.201604 120.464604 
L 219.911328 119.846619 
L 221.621053 117.003885 
L 223.330777 117.621871 
L 225.040501 117.621871 
L 226.750226 116.138705 
L 228.45995 115.891511 
L 230.169674 117.498273 
L 231.879398 130.846763 
L 233.589123 132.453525 
L 235.298847 118.981439 
L 237.008571 119.599424 
L 238.718296 123.678129 
L 240.42802 123.430935 
L 242.137744 139.745755 
L 243.847469 138.509784 
L 245.557193 154.206619 
L 247.266917 140.734532 
L 248.976642 139.251367 
L 250.686366 141.352518 
L 252.39609 143.82446 
L 254.105815 147.903165 
L 255.815539 148.15036 
L 257.525263 147.779568 
L 259.234987 147.779568 
L 260.944712 147.655971 
L 262.654436 148.273957 
L 264.36416 145.060432 
L 266.073885 128.869209 
L 267.783609 125.037698 
L 269.493333 122.194964 
L 271.203058 123.430935 
L 272.912782 121.453381 
L 274.622506 121.206187 
L 276.332231 121.206187 
L 278.041955 121.700576 
L 279.751679 105.880144 
L 281.461404 102.419424 
L 283.171128 119.105036 
L 284.880852 118.363453 
L 286.590576 118.734245 
L 288.300301 115.767914 
L 290.010025 118.981439 
L 291.719749 121.206187 
L 293.429474 108.475683 
L 295.139198 108.104892 
L 296.848922 106.621727 
L 298.558647 107.239712 
L 300.268371 107.486906 
L 301.978095 108.599281 
L 303.68782 107.734101 
L 305.397544 109.958849 
L 307.107268 107.610504 
L 308.816992 124.543309 
L 310.526717 107.610504 
L 312.236441 107.363309 
L 313.946165 109.958849 
L 315.65589 110.576835 
L 317.365614 95.127194 
L 319.075338 93.767626 
L 320.785063 91.666475 
L 322.494787 92.037266 
L 324.204511 90.430504 
L 325.914236 90.801295 
L 327.62396 86.598993 
L 331.043409 86.351799 
L 332.753133 85.85741 
L 334.462857 101.801439 
L 336.172581 104.149784 
L 337.882306 108.599281 
L 339.59203 106.868921 
L 341.301754 108.228489 
L 343.011479 95.74518 
L 344.721203 112.677986 
L 346.430927 112.801583 
L 348.140652 112.183597 
L 349.850376 113.295971 
L 351.5601 112.677986 
L 354.979549 145.55482 
L 356.689273 145.925612 
L 358.398997 144.318849 
L 360.108722 141.723309 
L 361.818446 144.442446 
L 363.52817 145.925612 
L 365.237895 148.891942 
L 366.947619 165.824748 
L 368.657343 148.891942 
L 370.367068 145.060432 
L 372.076792 145.307626 
L 373.786516 142.712086 
L 375.496241 141.228921 
L 377.205965 136.655827 
L 378.915689 120.341007 
L 380.625414 120.835396 
L 382.335138 134.678273 
L 384.044862 133.195108 
L 385.754586 132.577122 
L 389.174035 101.30705 
L 390.883759 99.947482 
L 392.593484 99.823885 
L 394.303208 99.205899 
L 396.012932 99.947482 
L 397.722657 101.183453 
L 399.432381 98.340719 
L 401.142105 83.632662 
L 402.85183 84.250647 
L 404.561554 84.745036 
L 406.271278 97.228345 
L 407.981003 97.599137 
L 409.690727 114.779137 
L 411.400451 116.633094 
L 413.110175 115.891511 
L 414.8199 117.003885 
L 416.529624 117.003885 
L 418.239348 118.48705 
L 419.949073 135.172662 
L 421.658797 137.273813 
L 423.368521 153.094245 
L 425.078246 152.599856 
L 426.78797 153.959424 
L 428.497694 153.094245 
L 430.207419 149.880719 
L 431.917143 148.273957 
L 433.626867 165.33036 
L 435.336591 167.060719 
L 437.046316 166.813525 
L 438.75604 183.37554 
L 440.465764 170.02705 
L 442.175489 186.712662 
L 443.885213 171.263022 
L 445.594937 170.521439 
L 447.304662 170.768633 
L 449.014386 169.656259 
L 450.72411 152.476259 
L 452.433835 151.240288 
L 454.143559 134.307482 
L 455.853283 134.678273 
L 457.563008 117.745468 
L 460.982456 118.239856 
L 462.69218 135.172662 
L 464.401905 134.678273 
L 466.111629 150.498705 
L 467.821353 133.442302 
L 469.531078 146.42 
L 471.240802 145.925612 
L 472.950526 128.992806 
L 474.660251 128.992806 
L 476.369975 113.666763 
L 478.079699 114.161151 
L 479.789424 113.048777 
L 481.499148 112.801583 
L 483.208872 129.116403 
L 484.918596 130.846763 
L 486.628321 132.947914 
L 488.338045 132.824317 
L 490.047769 130.10518 
L 491.757494 130.228777 
L 493.467218 133.565899 
L 495.176942 148.273957 
L 496.886667 148.273957 
L 498.596391 149.139137 
L 500.306115 132.700719 
L 502.01584 149.757122 
L 503.725564 133.071511 
L 505.435288 133.813094 
L 507.145013 137.026619 
L 508.854737 133.318705 
L 510.564461 131.588345 
L 512.274185 130.10518 
L 515.693634 130.10518 
L 517.403358 113.172374 
L 519.113083 128.622014 
L 520.822807 126.520863 
L 524.242256 128.004029 
L 525.95198 129.24 
L 527.661704 142.588489 
L 531.081153 109.588058 
L 532.790877 108.970072 
L 536.210326 108.970072 
L 537.92005 125.655683 
L 539.629774 126.273669 
L 541.339499 126.64446 
L 543.049223 143.700863 
L 544.758947 145.431223 
L 546.468672 146.172806 
L 548.178396 146.049209 
L 549.88812 163.105612 
L 551.597845 167.431511 
L 553.307569 150.375108 
L 555.017293 153.465036 
L 556.727018 152.723453 
L 558.436742 154.206619 
L 560.146466 156.925755 
L 561.85619 140.116547 
L 563.565915 141.352518 
L 565.275639 144.936835 
L 566.985363 144.813237 
L 568.695088 144.318849 
L 570.404812 127.880432 
L 572.114536 127.880432 
L 573.824261 130.97036 
L 575.533985 128.004029 
L 577.243709 112.307194 
L 578.953434 114.161151 
L 580.663158 114.284748 
L 582.372882 115.520719 
L 584.082607 99.700288 
L 585.792331 96.363165 
L 587.502055 100.812662 
L 589.211779 114.161151 
L 590.921504 117.745468 
L 592.631228 131.217554 
L 594.340952 128.498417 
L 596.050677 131.711942 
L 597.760401 131.588345 
L 599.470125 129.487194 
L 601.17985 130.723165 
L 602.889574 133.318705 
L 604.599298 149.757122 
L 606.309023 149.757122 
L 608.018747 148.026763 
L 609.728471 151.858273 
L 611.438195 151.487482 
L 613.14792 147.903165 
L 614.857644 163.476403 
L 616.567368 162.982014 
L 618.277093 163.105612 
L 619.986817 162.858417 
L 621.696541 159.521295 
L 623.406266 142.835683 
L 625.11599 142.094101 
L 626.825714 125.284892 
L 628.535439 127.015252 
L 630.245163 123.554532 
L 631.954887 138.509784 
L 633.664612 138.386187 
L 635.374336 138.756978 
L 637.08406 139.99295 
L 638.793784 123.801727 
L 640.503509 109.093669 
L 642.213233 107.610504 
L 643.922957 120.093813 
L 647.342406 153.217842 
L 649.05213 139.004173 
L 650.761855 140.487338 
L 652.471579 139.622158 
L 654.181303 142.341295 
L 655.891028 158.285324 
L 657.600752 159.644892 
L 659.310476 159.521295 
L 661.020201 176.330504 
L 662.729925 174.600144 
L 664.439649 175.465324 
L 666.149373 160.015683 
L 667.859098 160.386475 
L 669.568822 160.139281 
L 671.278546 158.656115 
L 672.988271 158.285324 
L 674.697995 158.903309 
L 676.407719 174.723741 
L 678.117444 174.723741 
L 681.536892 144.071655 
L 683.246617 144.566043 
L 684.956341 143.453669 
L 686.666065 147.037986 
L 688.375789 146.42 
L 690.085514 130.228777 
L 693.504962 132.329928 
L 695.214687 119.105036 
L 698.634135 150.869496 
L 700.34386 150.004317 
L 705.473033 195.488058 
L 707.182757 197.836403 
L 708.892481 211.926475 
L 710.602206 196.847626 
L 712.31193 184.240719 
L 714.021654 185.105899 
L 715.731378 187.20705 
L 717.441103 186.465468 
L 719.150827 185.476691 
L 722.570276 179.420432 
L 724.28 195.611655 
L 724.28 195.611655 
" style="fill:none;stroke:#1f77b4;stroke-linecap:square;stroke-width:1.5;"/>
   </g>
   <g id="line2d_18">
    <path clip-path="url(#p59c1754551)" d="M 74.584762 285.343165 
L 79.713935 234.544748 
L 81.423659 234.544748 
L 98.520902 65.216691 
L 113.908421 65.216691 
L 115.618145 48.283885 
L 211.362707 48.283885 
L 245.557193 386.94 
L 291.719749 386.94 
L 293.429474 370.254388 
L 305.397544 370.254388 
L 307.107268 353.568777 
L 308.816992 353.568777 
L 313.946165 303.511942 
L 320.785063 303.511942 
L 324.204511 270.140719 
L 327.62396 270.140719 
L 339.59203 153.341439 
L 341.301754 153.341439 
L 343.011479 136.655827 
L 348.140652 136.655827 
L 354.979549 69.913381 
L 358.398997 69.913381 
L 360.108722 53.22777 
L 382.335138 53.22777 
L 416.529624 43.34 
L 450.72411 43.34 
L 452.433835 60.52 
L 484.918596 60.52 
L 486.628321 43.34 
L 488.338045 60.52 
L 520.822807 60.52 
L 522.532531 43.34 
L 543.049223 43.34 
L 544.758947 60.52 
L 553.307569 60.52 
L 555.017293 60.890791 
L 556.727018 78.070791 
L 568.695088 80.666331 
L 570.404812 97.846331 
L 572.114536 98.217122 
L 573.824261 115.397122 
L 577.243709 116.138705 
L 578.953434 99.329496 
L 587.502055 101.183453 
L 589.211779 101.183453 
L 590.921504 84.374245 
L 602.889574 84.374245 
L 604.599298 67.565036 
L 606.309023 67.565036 
L 608.018747 50.755827 
L 654.181303 50.755827 
L 655.891028 67.565036 
L 688.375789 67.565036 
L 690.085514 50.755827 
L 724.28 50.755827 
L 724.28 50.755827 
" style="fill:none;stroke:#ff7f0e;stroke-linecap:square;stroke-width:1.5;"/>
   </g>
   <g id="line2d_19">
    <path clip-path="url(#p59c1754551)" d="M 74.584762 106.621727 
L 76.294486 104.76777 
L 78.004211 106.498129 
L 79.713935 107.610504 
L 83.133383 107.363309 
L 84.843108 106.868921 
L 86.552832 107.857698 
L 88.262556 93.520432 
L 89.972281 92.408058 
L 91.682005 76.093237 
L 93.391729 74.733669 
L 95.101454 91.666475 
L 96.811178 89.318129 
L 98.520902 92.037266 
L 100.230627 92.160863 
L 101.940351 108.846475 
L 103.650075 112.430791 
L 105.359799 113.419568 
L 107.069524 112.06 
L 108.779248 114.037554 
L 110.488972 115.767914 
L 112.198697 114.284748 
L 113.908421 114.531942 
L 115.618145 115.273525 
L 117.32787 114.65554 
L 119.037594 115.644317 
L 120.747318 115.026331 
L 122.457043 114.531942 
L 124.166767 114.779137 
L 125.876491 118.610647 
L 127.586216 119.228633 
L 129.29594 102.790216 
L 131.005664 103.03741 
L 132.715388 99.576691 
L 134.425113 97.722734 
L 136.134837 82.891079 
L 137.844561 95.868777 
L 139.554286 95.868777 
L 141.26401 97.104748 
L 142.973734 95.621583 
L 144.683459 92.655252 
L 146.393183 91.913669 
L 148.102907 88.329353 
L 149.812632 103.90259 
L 151.522356 106.992518 
L 153.23208 109.835252 
L 154.941805 110.082446 
L 156.651529 110.453237 
L 158.361253 113.419568 
L 160.070977 110.576835 
L 161.780702 111.812806 
L 163.490426 114.531942 
L 165.20015 114.408345 
L 166.909875 113.913957 
L 168.619599 113.79036 
L 170.329323 111.812806 
L 172.039048 111.812806 
L 173.748772 108.228489 
L 175.458496 107.610504 
L 177.168221 109.835252 
L 178.877945 109.588058 
L 180.587669 112.183597 
L 182.297393 111.812806 
L 184.007118 111.812806 
L 185.716842 108.970072 
L 187.426566 106.868921 
L 190.846015 106.374532 
L 192.555739 104.520576 
L 194.265464 103.03741 
L 195.975188 100.936259 
L 197.684912 98.093525 
L 199.394637 98.711511 
L 201.104361 115.397122 
L 202.814085 117.498273 
L 204.52381 117.869065 
L 206.233534 101.801439 
L 207.943258 104.026187 
L 209.652982 103.161007 
L 211.362707 100.441871 
L 213.072431 103.90259 
L 214.782155 101.30705 
L 216.49188 100.812662 
L 218.201604 87.340576 
L 219.911328 90.801295 
L 221.621053 88.700144 
L 223.330777 90.554101 
L 225.040501 88.082158 
L 226.750226 86.475396 
L 228.45995 86.598993 
L 230.169674 87.093381 
L 231.879398 87.093381 
L 233.589123 85.981007 
L 235.298847 68.924604 
L 237.008571 65.711079 
L 238.718296 64.969496 
L 240.42802 67.688633 
L 242.137744 65.340288 
L 243.847469 67.194245 
L 245.557193 66.823453 
L 247.266917 67.317842 
L 248.976642 67.070647 
L 250.686366 68.430216 
L 252.39609 81.902302 
L 254.105815 78.441583 
L 257.525263 79.183165 
L 259.234987 80.29554 
L 260.944712 80.542734 
L 262.654436 81.037122 
L 264.36416 80.171942 
L 266.073885 79.677554 
L 267.783609 81.902302 
L 269.493333 86.228201 
L 271.203058 86.846187 
L 272.912782 86.846187 
L 274.622506 86.228201 
L 276.332231 88.329353 
L 278.041955 85.85741 
L 279.751679 86.228201 
L 281.461404 85.85741 
L 283.171128 89.318129 
L 284.880852 90.924892 
L 286.590576 73.744892 
L 288.300301 75.351655 
L 290.010025 77.205612 
L 291.719749 74.239281 
L 293.429474 74.115683 
L 295.139198 74.239281 
L 296.848922 73.250504 
L 298.558647 74.857266 
L 300.268371 76.83482 
L 301.978095 77.205612 
L 303.68782 72.756115 
L 305.397544 89.318129 
L 307.107268 92.531655 
L 308.816992 89.318129 
L 310.526717 87.216978 
L 313.946165 86.969784 
L 315.65589 84.497842 
L 317.365614 81.531511 
L 319.075338 78.935971 
L 320.785063 79.801151 
L 322.494787 77.576403 
L 324.204511 92.531655 
L 325.914236 93.520432 
L 327.62396 92.655252 
L 329.333684 92.778849 
L 331.043409 92.778849 
L 332.753133 91.172086 
L 334.462857 90.801295 
L 336.172581 88.823741 
L 337.882306 92.531655 
L 339.59203 76.216835 
L 341.301754 75.96964 
L 343.011479 75.96964 
L 344.721203 76.958417 
L 346.430927 80.542734 
L 348.140652 80.913525 
L 349.850376 79.677554 
L 351.5601 79.183165 
L 353.269825 78.812374 
L 354.979549 81.655108 
L 356.689273 81.778705 
L 358.398997 64.722302 
L 360.108722 64.104317 
L 361.818446 67.070647 
L 363.52817 66.576259 
L 366.947619 66.576259 
L 368.657343 64.845899 
L 370.367068 63.980719 
L 372.076792 60.890791 
L 373.786516 77.205612 
L 375.496241 77.205612 
L 377.205965 77.947194 
L 378.915689 77.329209 
L 380.625414 76.216835 
L 382.335138 75.598849 
L 384.044862 76.464029 
L 385.754586 76.587626 
L 387.464311 78.441583 
L 389.174035 75.351655 
L 390.883759 75.96964 
L 392.593484 75.96964 
L 394.303208 77.576403 
L 396.012932 75.351655 
L 397.722657 77.947194 
L 399.432381 78.56518 
L 401.142105 79.059568 
L 402.85183 80.171942 
L 404.561554 80.789928 
L 406.271278 80.29554 
L 407.981003 67.81223 
L 409.690727 64.969496 
L 411.400451 64.722302 
L 413.110175 65.463885 
L 414.8199 62.868345 
L 416.529624 62.868345 
L 418.239348 78.935971 
L 419.949073 79.059568 
L 421.658797 77.205612 
L 423.368521 76.83482 
L 425.078246 76.340432 
L 426.78797 78.688777 
L 428.497694 76.711223 
L 430.207419 77.329209 
L 431.917143 74.733669 
L 433.626867 74.115683 
L 435.336591 74.733669 
L 437.046316 73.621295 
L 438.75604 74.610072 
L 440.465764 74.610072 
L 442.175489 69.913381 
L 443.885213 69.913381 
L 445.594937 70.036978 
L 447.304662 68.801007 
L 449.014386 69.666187 
L 450.72411 72.756115 
L 452.433835 57.800863 
L 454.143559 59.160432 
L 455.853283 60.025612 
L 457.563008 60.149209 
L 459.272732 60.643597 
L 460.982456 58.171655 
L 462.69218 60.52 
L 464.401905 61.879568 
L 466.111629 62.497554 
L 467.821353 62.497554 
L 469.531078 61.508777 
L 471.240802 62.868345 
L 472.950526 61.261583 
L 474.660251 61.137986 
L 476.369975 62.497554 
L 478.079699 62.373957 
L 479.789424 78.935971 
L 481.499148 79.183165 
L 483.208872 78.688777 
L 484.918596 75.598849 
L 486.628321 73.744892 
L 488.338045 73.250504 
L 490.047769 72.879712 
L 491.757494 74.733669 
L 493.467218 91.172086 
L 495.176942 91.172086 
L 496.886667 88.823741 
L 498.596391 85.981007 
L 500.306115 85.363022 
L 502.01584 85.85741 
L 503.725564 85.85741 
L 505.435288 85.239424 
L 507.145013 85.239424 
L 510.564461 91.666475 
L 512.274185 91.666475 
L 513.98391 75.228058 
L 517.403358 74.733669 
L 519.113083 74.733669 
L 520.822807 76.093237 
L 522.532531 74.980863 
L 524.242256 74.486475 
L 525.95198 72.508921 
L 527.661704 56.564892 
L 529.371429 56.812086 
L 531.081153 56.935683 
L 532.790877 60.643597 
L 534.500602 60.643597 
L 536.210326 63.11554 
L 537.92005 63.486331 
L 539.629774 62.868345 
L 541.339499 62.991942 
L 543.049223 59.778417 
L 544.758947 55.328921 
L 546.468672 56.812086 
L 548.178396 58.542446 
L 549.88812 59.407626 
L 551.597845 59.284029 
L 553.307569 60.52 
L 555.017293 58.913237 
L 556.727018 61.632374 
L 558.436742 63.239137 
L 560.146466 66.94705 
L 561.85619 65.958273 
L 563.565915 66.94705 
L 565.275639 69.54259 
L 566.985363 70.160576 
L 568.695088 73.126906 
L 570.404812 71.396547 
L 572.114536 73.992086 
L 573.824261 74.239281 
L 575.533985 91.295683 
L 577.243709 92.408058 
L 578.953434 94.262014 
L 580.663158 93.891223 
L 582.372882 93.273237 
L 585.792331 97.351942 
L 587.502055 98.587914 
L 589.211779 98.587914 
L 590.921504 100.441871 
L 592.631228 99.700288 
L 594.340952 95.992374 
L 596.050677 99.700288 
L 597.760401 98.835108 
L 599.470125 96.61036 
L 601.17985 92.408058 
L 602.889574 89.688921 
L 604.599298 89.441727 
L 606.309023 87.340576 
L 608.018747 104.149784 
L 609.728471 89.565324 
L 611.438195 92.037266 
L 613.14792 107.239712 
L 614.857644 106.745324 
L 616.567368 106.374532 
L 618.277093 103.778993 
L 619.986817 104.891367 
L 621.696541 103.408201 
L 623.406266 105.138561 
L 625.11599 102.295827 
L 626.825714 105.014964 
L 628.535439 109.46446 
L 630.245163 107.239712 
L 631.954887 111.071223 
L 633.664612 112.801583 
L 635.374336 114.161151 
L 637.08406 114.408345 
L 638.793784 113.79036 
L 640.503509 115.397122 
L 642.213233 98.958705 
L 643.922957 97.969928 
L 645.632682 94.632806 
L 647.342406 77.823597 
L 649.05213 78.688777 
L 650.761855 94.385612 
L 652.471579 94.88 
L 654.181303 108.846475 
L 655.891028 125.037698 
L 657.600752 123.925324 
L 659.310476 123.554532 
L 661.020201 121.206187 
L 662.729925 117.498273 
L 664.439649 115.891511 
L 666.149373 128.869209 
L 667.859098 127.262446 
L 669.568822 126.026475 
L 671.278546 126.64446 
L 672.988271 126.397266 
L 674.697995 125.779281 
L 676.407719 125.284892 
L 679.827168 127.262446 
L 681.536892 127.386043 
L 683.246617 126.768058 
L 684.956341 111.689209 
L 686.666065 114.779137 
L 690.085514 81.655108 
L 691.795238 81.037122 
L 693.504962 96.857554 
L 695.214687 95.992374 
L 696.924411 98.217122 
L 698.634135 98.835108 
L 700.34386 82.520288 
L 702.053584 82.520288 
L 703.763308 83.756259 
L 705.473033 85.981007 
L 707.182757 89.318129 
L 708.892481 88.205755 
L 710.602206 88.082158 
L 712.31193 88.329353 
L 714.021654 88.329353 
L 715.731378 88.082158 
L 717.441103 87.464173 
L 719.150827 86.969784 
L 720.860551 83.632662 
L 722.570276 84.003453 
L 724.28 86.598993 
L 724.28 86.598993 
" style="fill:none;stroke:#2ca02c;stroke-linecap:square;stroke-width:1.5;"/>
   </g>
   <g id="line2d_20">
    <path clip-path="url(#p59c1754551)" d="M 74.584762 61.014388 
L 76.294486 58.542446 
L 78.004211 60.272806 
L 79.713935 61.137986 
L 83.133383 61.137986 
L 84.843108 63.239137 
L 86.552832 63.980719 
L 88.262556 63.609928 
L 89.972281 64.969496 
L 91.682005 64.598705 
L 93.391729 64.475108 
L 95.101454 64.722302 
L 96.811178 64.722302 
L 98.520902 64.845899 
L 100.230627 63.733525 
L 101.940351 65.834676 
L 103.650075 65.711079 
L 105.359799 65.958273 
L 107.069524 66.329065 
L 108.779248 66.329065 
L 110.488972 65.587482 
L 112.198697 63.362734 
L 113.908421 62.497554 
L 115.618145 62.621151 
L 117.32787 63.980719 
L 119.037594 63.609928 
L 120.747318 62.497554 
L 122.457043 62.126763 
L 124.166767 60.149209 
L 127.586216 60.396403 
L 129.29594 59.902014 
L 131.005664 60.272806 
L 132.715388 59.036835 
L 134.425113 59.160432 
L 136.134837 58.048058 
L 139.554286 57.306475 
L 142.973734 57.800863 
L 144.683459 57.677266 
L 146.393183 60.025612 
L 148.102907 60.149209 
L 149.812632 60.396403 
L 151.522356 59.65482 
L 153.23208 58.048058 
L 154.941805 60.272806 
L 156.651529 60.767194 
L 158.361253 60.52 
L 160.070977 62.621151 
L 161.780702 62.373957 
L 163.490426 65.834676 
L 165.20015 66.699856 
L 166.909875 66.699856 
L 168.619599 67.441439 
L 170.329323 67.070647 
L 172.039048 68.430216 
L 173.748772 68.924604 
L 175.458496 68.801007 
L 177.168221 68.306619 
L 178.877945 68.801007 
L 180.587669 66.576259 
L 182.297393 68.306619 
L 184.007118 67.81223 
L 185.716842 67.935827 
L 187.426566 68.183022 
L 189.136291 66.452662 
L 190.846015 65.958273 
L 192.555739 66.329065 
L 194.265464 66.329065 
L 195.975188 66.94705 
L 197.684912 63.486331 
L 199.394637 62.126763 
L 201.104361 63.486331 
L 202.814085 62.373957 
L 204.52381 62.126763 
L 206.233534 61.014388 
L 207.943258 60.52 
L 209.652982 59.902014 
L 211.362707 60.149209 
L 213.072431 60.149209 
L 214.782155 59.778417 
L 216.49188 57.430072 
L 218.201604 57.059281 
L 219.911328 56.070504 
L 221.621053 54.834532 
L 223.330777 54.09295 
L 225.040501 53.845755 
L 226.750226 53.22777 
L 228.45995 50.261439 
L 230.169674 49.396259 
L 231.879398 49.149065 
L 233.589123 48.654676 
L 235.298847 47.047914 
L 237.008571 46.800719 
L 238.718296 45.93554 
L 240.42802 45.317554 
L 242.137744 45.07036 
L 243.847469 44.699568 
L 245.557193 44.20518 
L 247.266917 43.34 
L 382.335138 43.34 
L 384.044862 44.946763 
L 416.529624 44.946763 
L 418.239348 43.34 
L 553.307569 43.34 
L 555.017293 46.553525 
L 556.727018 47.913094 
L 558.436742 48.407482 
L 560.146466 48.531079 
L 563.565915 50.879424 
L 565.275639 53.598561 
L 566.985363 54.340144 
L 568.695088 54.834532 
L 570.404812 56.194101 
L 572.114536 56.441295 
L 573.824261 56.812086 
L 575.533985 59.778417 
L 578.953434 61.38518 
L 580.663158 62.003165 
L 582.372882 62.868345 
L 584.082607 63.11554 
L 585.792331 65.587482 
L 587.502055 65.711079 
L 589.211779 62.991942 
L 590.921504 61.755971 
L 594.340952 62.003165 
L 596.050677 61.879568 
L 597.760401 62.868345 
L 599.470125 60.272806 
L 601.17985 60.767194 
L 602.889574 61.38518 
L 604.599298 60.272806 
L 606.309023 60.767194 
L 608.018747 61.38518 
L 609.728471 58.542446 
L 611.438195 57.800863 
L 613.14792 58.542446 
L 614.857644 58.418849 
L 616.567368 57.677266 
L 618.277093 58.542446 
L 619.986817 56.564892 
L 621.696541 57.059281 
L 623.406266 58.048058 
L 625.11599 58.048058 
L 628.535439 59.65482 
L 630.245163 58.913237 
L 631.954887 59.160432 
L 633.664612 59.160432 
L 635.374336 58.542446 
L 637.08406 58.78964 
L 638.793784 59.284029 
L 640.503509 58.913237 
L 642.213233 58.78964 
L 643.922957 59.036835 
L 645.632682 59.160432 
L 647.342406 60.025612 
L 649.05213 61.755971 
L 650.761855 62.497554 
L 652.471579 61.508777 
L 654.181303 62.25036 
L 655.891028 62.497554 
L 657.600752 62.497554 
L 659.310476 63.11554 
L 661.020201 63.609928 
L 662.729925 62.744748 
L 664.439649 62.497554 
L 666.149373 60.396403 
L 667.859098 61.261583 
L 669.568822 60.767194 
L 671.278546 60.767194 
L 672.988271 60.643597 
L 674.697995 61.137986 
L 676.407719 60.52 
L 678.117444 60.272806 
L 679.827168 60.643597 
L 681.536892 58.542446 
L 683.246617 57.306475 
L 684.956341 56.564892 
L 686.666065 58.048058 
L 688.375789 57.430072 
L 690.085514 57.677266 
L 691.795238 57.059281 
L 693.504962 57.306475 
L 695.214687 56.441295 
L 696.924411 56.441295 
L 698.634135 56.688489 
L 700.34386 57.306475 
L 702.053584 57.306475 
L 703.763308 57.677266 
L 705.473033 56.441295 
L 707.182757 56.812086 
L 710.602206 58.048058 
L 712.31193 58.048058 
L 714.021654 57.677266 
L 715.731378 57.553669 
L 717.441103 57.800863 
L 719.150827 57.800863 
L 720.860551 58.171655 
L 722.570276 58.171655 
L 724.28 59.160432 
L 724.28 59.160432 
" style="fill:none;stroke:#d62728;stroke-linecap:square;stroke-width:1.5;"/>
   </g>
   <g id="line2d_21">
    <path clip-path="url(#p59c1754551)" d="M 74.584762 51.744604 
L 76.294486 48.283885 
L 211.362707 48.283885 
L 245.557193 43.34 
L 382.335138 43.34 
L 384.044862 60.52 
L 385.754586 63.980719 
L 387.464311 64.598705 
L 416.529624 64.598705 
L 418.239348 47.418705 
L 419.949073 43.957986 
L 421.658797 43.34 
L 553.307569 43.34 
L 555.017293 46.306331 
L 587.502055 48.654676 
L 589.211779 45.811942 
L 724.28 45.811942 
L 724.28 45.811942 
" style="fill:none;stroke:#9467bd;stroke-linecap:square;stroke-width:1.5;"/>
   </g>
   <g id="patch_3">
    <path d="M 42.1 404.12 
L 42.1 26.16 
" style="fill:none;stroke:#000000;stroke-linecap:square;stroke-linejoin:miter;stroke-width:0.8;"/>
   </g>
   <g id="patch_4">
    <path d="M 724.28 404.12 
L 724.28 26.16 
" style="fill:none;stroke:#000000;stroke-linecap:square;stroke-linejoin:miter;stroke-width:0.8;"/>
   </g>
   <g id="patch_5">
    <path d="M 42.1 404.12 
L 724.28 404.12 
" style="fill:none;stroke:#000000;stroke-linecap:square;stroke-linejoin:miter;stroke-width:0.8;"/>
   </g>
   <g id="patch_6">
    <path d="M 42.1 26.16 
L 724.28 26.16 
" style="fill:none;stroke:#000000;stroke-linecap:square;stroke-linejoin:miter;stroke-width:0.8;"/>
   </g>
   <g id="text_17">
    <!-- multi_way_v0: episode reward, MA=20 -->
    <defs>
     <path d="M 52 44.1875 
Q 55.375 50.25 60.0625 53.125 
Q 64.75 56 71.09375 56 
Q 79.640625 56 84.28125 50.015625 
Q 88.921875 44.046875 88.921875 33.015625 
L 88.921875 0 
L 79.890625 0 
L 79.890625 32.71875 
Q 79.890625 40.578125 77.09375 44.375 
Q 74.3125 48.1875 68.609375 48.1875 
Q 61.625 48.1875 57.5625 43.546875 
Q 53.515625 38.921875 53.515625 30.90625 
L 53.515625 0 
L 44.484375 0 
L 44.484375 32.71875 
Q 44.484375 40.625 41.703125 44.40625 
Q 38.921875 48.1875 33.109375 48.1875 
Q 26.21875 48.1875 22.15625 43.53125 
Q 18.109375 38.875 18.109375 30.90625 
L 18.109375 0 
L 9.078125 0 
L 9.078125 54.6875 
L 18.109375 54.6875 
L 18.109375 46.1875 
Q 21.1875 51.21875 25.484375 53.609375 
Q 29.78125 56 35.6875 56 
Q 41.65625 56 45.828125 52.96875 
Q 50 49.953125 52 44.1875 
z
" id="DejaVuSans-109"/>
     <path d="M 8.5 21.578125 
L 8.5 54.6875 
L 17.484375 54.6875 
L 17.484375 21.921875 
Q 17.484375 14.15625 20.5 10.265625 
Q 23.53125 6.390625 29.59375 6.390625 
Q 36.859375 6.390625 41.078125 11.03125 
Q 45.3125 15.671875 45.3125 23.6875 
L 45.3125 54.6875 
L 54.296875 54.6875 
L 54.296875 0 
L 45.3125 0 
L 45.3125 8.40625 
Q 42.046875 3.421875 37.71875 1 
Q 33.40625 -1.421875 27.6875 -1.421875 
Q 18.265625 -1.421875 13.375 4.4375 
Q 8.5 10.296875 8.5 21.578125 
z
M 31.109375 56 
z
" id="DejaVuSans-117"/>
     <path d="M 9.421875 75.984375 
L 18.40625 75.984375 
L 18.40625 0 
L 9.421875 0 
z
" id="DejaVuSans-108"/>
     <path d="M 18.3125 70.21875 
L 18.3125 54.6875 
L 36.8125 54.6875 
L 36.8125 47.703125 
L 18.3125 47.703125 
L 18.3125 18.015625 
Q 18.3125 11.328125 20.140625 9.421875 
Q 21.96875 7.515625 27.59375 7.515625 
L 36.8125 7.515625 
L 36.8125 0 
L 27.59375 0 
Q 17.1875 0 13.234375 3.875 
Q 9.28125 7.765625 9.28125 18.015625 
L 9.28125 47.703125 
L 2.6875 47.703125 
L 2.6875 54.6875 
L 9.28125 54.6875 
L 9.28125 70.21875 
z
" id="DejaVuSans-116"/>
     <path d="M 9.421875 54.6875 
L 18.40625 54.6875 
L 18.40625 0 
L 9.421875 0 
z
M 9.421875 75.984375 
L 18.40625 75.984375 
L 18.40625 64.59375 
L 9.421875 64.59375 
z
" id="DejaVuSans-105"/>
     <path d="M 50.984375 -16.609375 
L 50.984375 -23.578125 
L -0.984375 -23.578125 
L -0.984375 -16.609375 
z
" id="DejaVuSans-95"/>
     <path d="M 4.203125 54.6875 
L 13.1875 54.6875 
L 24.421875 12.015625 
L 35.59375 54.6875 
L 46.1875 54.6875 
L 57.421875 12.015625 
L 68.609375 54.6875 
L 77.59375 54.6875 
L 63.28125 0 
L 52.6875 0 
L 40.921875 44.828125 
L 29.109375 0 
L 18.5 0 
z
" id="DejaVuSans-119"/>
     <path d="M 34.28125 27.484375 
Q 23.390625 27.484375 19.1875 25 
Q 14.984375 22.515625 14.984375 16.5 
Q 14.984375 11.71875 18.140625 8.90625 
Q 21.296875 6.109375 26.703125 6.109375 
Q 34.1875 6.109375 38.703125 11.40625 
Q 43.21875 16.703125 43.21875 25.484375 
L 43.21875 27.484375 
z
M 52.203125 31.203125 
L 52.203125 0 
L 43.21875 0 
L 43.21875 8.296875 
Q 40.140625 3.328125 35.546875 0.953125 
Q 30.953125 -1.421875 24.3125 -1.421875 
Q 15.921875 -1.421875 10.953125 3.296875 
Q 6 8.015625 6 15.921875 
Q 6 25.140625 12.171875 29.828125 
Q 18.359375 34.515625 30.609375 34.515625 
L 43.21875 34.515625 
L 43.21875 35.40625 
Q 43.21875 41.609375 39.140625 45 
Q 35.0625 48.390625 27.6875 48.390625 
Q 23 48.390625 18.546875 47.265625 
Q 14.109375 46.140625 10.015625 43.890625 
L 10.015625 52.203125 
Q 14.9375 54.109375 19.578125 55.046875 
Q 24.21875 56 28.609375 56 
Q 40.484375 56 46.34375 49.84375 
Q 52.203125 43.703125 52.203125 31.203125 
z
" id="DejaVuSans-97"/>
     <path d="M 32.171875 -5.078125 
Q 28.375 -14.84375 24.75 -17.8125 
Q 21.140625 -20.796875 15.09375 -20.796875 
L 7.90625 -20.796875 
L 7.90625 -13.28125 
L 13.1875 -13.28125 
Q 16.890625 -13.28125 18.9375 -11.515625 
Q 21 -9.765625 23.484375 -3.21875 
L 25.09375 0.875 
L 2.984375 54.6875 
L 12.5 54.6875 
L 29.59375 11.921875 
L 46.6875 54.6875 
L 56.203125 54.6875 
z
" id="DejaVuSans-121"/>
     <path d="M 2.984375 54.6875 
L 12.5 54.6875 
L 29.59375 8.796875 
L 46.6875 54.6875 
L 56.203125 54.6875 
L 35.6875 0 
L 23.484375 0 
z
" id="DejaVuSans-118"/>
     <path d="M 11.71875 12.40625 
L 22.015625 12.40625 
L 22.015625 0 
L 11.71875 0 
z
M 11.71875 51.703125 
L 22.015625 51.703125 
L 22.015625 39.3125 
L 11.71875 39.3125 
z
" id="DejaVuSans-58"/>
     <path id="DejaVuSans-32"/>
     <path d="M 56.203125 29.59375 
L 56.203125 25.203125 
L 14.890625 25.203125 
Q 15.484375 15.921875 20.484375 11.0625 
Q 25.484375 6.203125 34.421875 6.203125 
Q 39.59375 6.203125 44.453125 7.46875 
Q 49.3125 8.734375 54.109375 11.28125 
L 54.109375 2.78125 
Q 49.265625 0.734375 44.1875 -0.34375 
Q 39.109375 -1.421875 33.890625 -1.421875 
Q 20.796875 -1.421875 13.15625 6.1875 
Q 5.515625 13.8125 5.515625 26.8125 
Q 5.515625 40.234375 12.765625 48.109375 
Q 20.015625 56 32.328125 56 
Q 43.359375 56 49.78125 48.890625 
Q 56.203125 41.796875 56.203125 29.59375 
z
M 47.21875 32.234375 
Q 47.125 39.59375 43.09375 43.984375 
Q 39.0625 48.390625 32.421875 48.390625 
Q 24.90625 48.390625 20.390625 44.140625 
Q 15.875 39.890625 15.1875 32.171875 
z
" id="DejaVuSans-101"/>
     <path d="M 18.109375 8.203125 
L 18.109375 -20.796875 
L 9.078125 -20.796875 
L 9.078125 54.6875 
L 18.109375 54.6875 
L 18.109375 46.390625 
Q 20.953125 51.265625 25.265625 53.625 
Q 29.59375 56 35.59375 56 
Q 45.5625 56 51.78125 48.09375 
Q 58.015625 40.1875 58.015625 27.296875 
Q 58.015625 14.40625 51.78125 6.484375 
Q 45.5625 -1.421875 35.59375 -1.421875 
Q 29.59375 -1.421875 25.265625 0.953125 
Q 20.953125 3.328125 18.109375 8.203125 
z
M 48.6875 27.296875 
Q 48.6875 37.203125 44.609375 42.84375 
Q 40.53125 48.484375 33.40625 48.484375 
Q 26.265625 48.484375 22.1875 42.84375 
Q 18.109375 37.203125 18.109375 27.296875 
Q 18.109375 17.390625 22.1875 11.75 
Q 26.265625 6.109375 33.40625 6.109375 
Q 40.53125 6.109375 44.609375 11.75 
Q 48.6875 17.390625 48.6875 27.296875 
z
" id="DejaVuSans-112"/>
     <path d="M 44.28125 53.078125 
L 44.28125 44.578125 
Q 40.484375 46.53125 36.375 47.5 
Q 32.28125 48.484375 27.875 48.484375 
Q 21.1875 48.484375 17.84375 46.4375 
Q 14.5 44.390625 14.5 40.28125 
Q 14.5 37.15625 16.890625 35.375 
Q 19.28125 33.59375 26.515625 31.984375 
L 29.59375 31.296875 
Q 39.15625 29.25 43.1875 25.515625 
Q 47.21875 21.78125 47.21875 15.09375 
Q 47.21875 7.46875 41.1875 3.015625 
Q 35.15625 -1.421875 24.609375 -1.421875 
Q 20.21875 -1.421875 15.453125 -0.5625 
Q 10.6875 0.296875 5.421875 2 
L 5.421875 11.28125 
Q 10.40625 8.6875 15.234375 7.390625 
Q 20.0625 6.109375 24.8125 6.109375 
Q 31.15625 6.109375 34.5625 8.28125 
Q 37.984375 10.453125 37.984375 14.40625 
Q 37.984375 18.0625 35.515625 20.015625 
Q 33.0625 21.96875 24.703125 23.78125 
L 21.578125 24.515625 
Q 13.234375 26.265625 9.515625 29.90625 
Q 5.8125 33.546875 5.8125 39.890625 
Q 5.8125 47.609375 11.28125 51.796875 
Q 16.75 56 26.8125 56 
Q 31.78125 56 36.171875 55.265625 
Q 40.578125 54.546875 44.28125 53.078125 
z
" id="DejaVuSans-115"/>
     <path d="M 30.609375 48.390625 
Q 23.390625 48.390625 19.1875 42.75 
Q 14.984375 37.109375 14.984375 27.296875 
Q 14.984375 17.484375 19.15625 11.84375 
Q 23.34375 6.203125 30.609375 6.203125 
Q 37.796875 6.203125 41.984375 11.859375 
Q 46.1875 17.53125 46.1875 27.296875 
Q 46.1875 37.015625 41.984375 42.703125 
Q 37.796875 48.390625 30.609375 48.390625 
z
M 30.609375 56 
Q 42.328125 56 49.015625 48.375 
Q 55.71875 40.765625 55.71875 27.296875 
Q 55.71875 13.875 49.015625 6.21875 
Q 42.328125 -1.421875 30.609375 -1.421875 
Q 18.84375 -1.421875 12.171875 6.21875 
Q 5.515625 13.875 5.515625 27.296875 
Q 5.515625 40.765625 12.171875 48.375 
Q 18.84375 56 30.609375 56 
z
" id="DejaVuSans-111"/>
     <path d="M 45.40625 46.390625 
L 45.40625 75.984375 
L 54.390625 75.984375 
L 54.390625 0 
L 45.40625 0 
L 45.40625 8.203125 
Q 42.578125 3.328125 38.25 0.953125 
Q 33.9375 -1.421875 27.875 -1.421875 
Q 17.96875 -1.421875 11.734375 6.484375 
Q 5.515625 14.40625 5.515625 27.296875 
Q 5.515625 40.1875 11.734375 48.09375 
Q 17.96875 56 27.875 56 
Q 33.9375 56 38.25 53.625 
Q 42.578125 51.265625 45.40625 46.390625 
z
M 14.796875 27.296875 
Q 14.796875 17.390625 18.875 11.75 
Q 22.953125 6.109375 30.078125 6.109375 
Q 37.203125 6.109375 41.296875 11.75 
Q 45.40625 17.390625 45.40625 27.296875 
Q 45.40625 37.203125 41.296875 42.84375 
Q 37.203125 48.484375 30.078125 48.484375 
Q 22.953125 48.484375 18.875 42.84375 
Q 14.796875 37.203125 14.796875 27.296875 
z
" id="DejaVuSans-100"/>
     <path d="M 41.109375 46.296875 
Q 39.59375 47.171875 37.8125 47.578125 
Q 36.03125 48 33.890625 48 
Q 26.265625 48 22.1875 43.046875 
Q 18.109375 38.09375 18.109375 28.8125 
L 18.109375 0 
L 9.078125 0 
L 9.078125 54.6875 
L 18.109375 54.6875 
L 18.109375 46.1875 
Q 20.953125 51.171875 25.484375 53.578125 
Q 30.03125 56 36.53125 56 
Q 37.453125 56 38.578125 55.875 
Q 39.703125 55.765625 41.0625 55.515625 
z
" id="DejaVuSans-114"/>
     <path d="M 11.71875 12.40625 
L 22.015625 12.40625 
L 22.015625 4 
L 14.015625 -11.625 
L 7.71875 -11.625 
L 11.71875 4 
z
" id="DejaVuSans-44"/>
     <path d="M 9.8125 72.90625 
L 24.515625 72.90625 
L 43.109375 23.296875 
L 61.8125 72.90625 
L 76.515625 72.90625 
L 76.515625 0 
L 66.890625 0 
L 66.890625 64.015625 
L 48.09375 14.015625 
L 38.1875 14.015625 
L 19.390625 64.015625 
L 19.390625 0 
L 9.8125 0 
z
" id="DejaVuSans-77"/>
     <path d="M 34.1875 63.1875 
L 20.796875 26.90625 
L 47.609375 26.90625 
z
M 28.609375 72.90625 
L 39.796875 72.90625 
L 67.578125 0 
L 57.328125 0 
L 50.6875 18.703125 
L 17.828125 18.703125 
L 11.1875 0 
L 0.78125 0 
z
" id="DejaVuSans-65"/>
     <path d="M 10.59375 45.40625 
L 73.1875 45.40625 
L 73.1875 37.203125 
L 10.59375 37.203125 
z
M 10.59375 25.484375 
L 73.1875 25.484375 
L 73.1875 17.1875 
L 10.59375 17.1875 
z
" id="DejaVuSans-61"/>
    </defs>
    <g transform="translate(266.28 20.16)scale(0.12 -0.12)">
     <use xlink:href="#DejaVuSans-109"/>
     <use x="97.412109" xlink:href="#DejaVuSans-117"/>
     <use x="160.791016" xlink:href="#DejaVuSans-108"/>
     <use x="188.574219" xlink:href="#DejaVuSans-116"/>
     <use x="227.783203" xlink:href="#DejaVuSans-105"/>
     <use x="255.566406" xlink:href="#DejaVuSans-95"/>
     <use x="305.566406" xlink:href="#DejaVuSans-119"/>
     <use x="387.353516" xlink:href="#DejaVuSans-97"/>
     <use x="448.632812" xlink:href="#DejaVuSans-121"/>
     <use x="507.8125" xlink:href="#DejaVuSans-95"/>
     <use x="557.8125" xlink:href="#DejaVuSans-118"/>
     <use x="616.992188" xlink:href="#DejaVuSans-48"/>
     <use x="680.615234" xlink:href="#DejaVuSans-58"/>
     <use x="714.306641" xlink:href="#DejaVuSans-32"/>
     <use x="746.09375" xlink:href="#DejaVuSans-101"/>
     <use x="807.617188" xlink:href="#DejaVuSans-112"/>
     <use x="871.09375" xlink:href="#DejaVuSans-105"/>
     <use x="898.876953" xlink:href="#DejaVuSans-115"/>
     <use x="950.976562" xlink:href="#DejaVuSans-111"/>
     <use x="1012.158203" xlink:href="#DejaVuSans-100"/>
     <use x="1075.634766" xlink:href="#DejaVuSans-101"/>
     <use x="1137.158203" xlink:href="#DejaVuSans-32"/>
     <use x="1168.945312" xlink:href="#DejaVuSans-114"/>
     <use x="1210.027344" xlink:href="#DejaVuSans-101"/>
     <use x="1271.550781" xlink:href="#DejaVuSans-119"/>
     <use x="1353.337891" xlink:href="#DejaVuSans-97"/>
     <use x="1414.617188" xlink:href="#DejaVuSans-114"/>
     <use x="1455.714844" xlink:href="#DejaVuSans-100"/>
     <use x="1519.191406" xlink:href="#DejaVuSans-44"/>
     <use x="1550.978516" xlink:href="#DejaVuSans-32"/>
     <use x="1582.765625" xlink:href="#DejaVuSans-77"/>
     <use x="1669.044922" xlink:href="#DejaVuSans-65"/>
     <use x="1737.453125" xlink:href="#DejaVuSans-61"/>
     <use x="1821.242188" xlink:href="#DejaVuSans-50"/>
     <use x="1884.865234" xlink:href="#DejaVuSans-48"/>
    </g>
   </g>
   <g id="legend_1">
    <g id="patch_7">
     <path d="M 762.651937 254.030625 
L 853.716 254.030625 
Q 855.716 254.030625 855.716 252.030625 
L 855.716 178.249375 
Q 855.716 176.249375 853.716 176.249375 
L 762.651937 176.249375 
Q 760.651937 176.249375 760.651937 178.249375 
L 760.651937 252.030625 
Q 760.651937 254.030625 762.651937 254.030625 
z
" style="fill:#ffffff;opacity:0.8;stroke:#cccccc;stroke-linejoin:miter;"/>
    </g>
    <g id="line2d_22">
     <path d="M 764.651937 184.347812 
L 784.651937 184.347812 
" style="fill:none;stroke:#1f77b4;stroke-linecap:square;stroke-width:1.5;"/>
    </g>
    <g id="line2d_23"/>
    <g id="text_18">
     <!-- htm_0 -->
     <defs>
      <path d="M 54.890625 33.015625 
L 54.890625 0 
L 45.90625 0 
L 45.90625 32.71875 
Q 45.90625 40.484375 42.875 44.328125 
Q 39.84375 48.1875 33.796875 48.1875 
Q 26.515625 48.1875 22.3125 43.546875 
Q 18.109375 38.921875 18.109375 30.90625 
L 18.109375 0 
L 9.078125 0 
L 9.078125 75.984375 
L 18.109375 75.984375 
L 18.109375 46.1875 
Q 21.34375 51.125 25.703125 53.5625 
Q 30.078125 56 35.796875 56 
Q 45.21875 56 50.046875 50.171875 
Q 54.890625 44.34375 54.890625 33.015625 
z
" id="DejaVuSans-104"/>
     </defs>
     <g transform="translate(792.651937 187.847812)scale(0.1 -0.1)">
      <use xlink:href="#DejaVuSans-104"/>
      <use x="63.378906" xlink:href="#DejaVuSans-116"/>
      <use x="102.587891" xlink:href="#DejaVuSans-109"/>
      <use x="200" xlink:href="#DejaVuSans-95"/>
      <use x="250" xlink:href="#DejaVuSans-48"/>
     </g>
    </g>
    <g id="line2d_24">
     <path d="M 764.651937 199.304062 
L 784.651937 199.304062 
" style="fill:none;stroke:#ff7f0e;stroke-linecap:square;stroke-width:1.5;"/>
    </g>
    <g id="line2d_25"/>
    <g id="text_19">
     <!-- dqn_greedy -->
     <defs>
      <path d="M 14.796875 27.296875 
Q 14.796875 17.390625 18.875 11.75 
Q 22.953125 6.109375 30.078125 6.109375 
Q 37.203125 6.109375 41.296875 11.75 
Q 45.40625 17.390625 45.40625 27.296875 
Q 45.40625 37.203125 41.296875 42.84375 
Q 37.203125 48.484375 30.078125 48.484375 
Q 22.953125 48.484375 18.875 42.84375 
Q 14.796875 37.203125 14.796875 27.296875 
z
M 45.40625 8.203125 
Q 42.578125 3.328125 38.25 0.953125 
Q 33.9375 -1.421875 27.875 -1.421875 
Q 17.96875 -1.421875 11.734375 6.484375 
Q 5.515625 14.40625 5.515625 27.296875 
Q 5.515625 40.1875 11.734375 48.09375 
Q 17.96875 56 27.875 56 
Q 33.9375 56 38.25 53.625 
Q 42.578125 51.265625 45.40625 46.390625 
L 45.40625 54.6875 
L 54.390625 54.6875 
L 54.390625 -20.796875 
L 45.40625 -20.796875 
z
" id="DejaVuSans-113"/>
      <path d="M 54.890625 33.015625 
L 54.890625 0 
L 45.90625 0 
L 45.90625 32.71875 
Q 45.90625 40.484375 42.875 44.328125 
Q 39.84375 48.1875 33.796875 48.1875 
Q 26.515625 48.1875 22.3125 43.546875 
Q 18.109375 38.921875 18.109375 30.90625 
L 18.109375 0 
L 9.078125 0 
L 9.078125 54.6875 
L 18.109375 54.6875 
L 18.109375 46.1875 
Q 21.34375 51.125 25.703125 53.5625 
Q 30.078125 56 35.796875 56 
Q 45.21875 56 50.046875 50.171875 
Q 54.890625 44.34375 54.890625 33.015625 
z
" id="DejaVuSans-110"/>
      <path d="M 45.40625 27.984375 
Q 45.40625 37.75 41.375 43.109375 
Q 37.359375 48.484375 30.078125 48.484375 
Q 22.859375 48.484375 18.828125 43.109375 
Q 14.796875 37.75 14.796875 27.984375 
Q 14.796875 18.265625 18.828125 12.890625 
Q 22.859375 7.515625 30.078125 7.515625 
Q 37.359375 7.515625 41.375 12.890625 
Q 45.40625 18.265625 45.40625 27.984375 
z
M 54.390625 6.78125 
Q 54.390625 -7.171875 48.1875 -13.984375 
Q 42 -20.796875 29.203125 -20.796875 
Q 24.46875 -20.796875 20.265625 -20.09375 
Q 16.0625 -19.390625 12.109375 -17.921875 
L 12.109375 -9.1875 
Q 16.0625 -11.328125 19.921875 -12.34375 
Q 23.78125 -13.375 27.78125 -13.375 
Q 36.625 -13.375 41.015625 -8.765625 
Q 45.40625 -4.15625 45.40625 5.171875 
L 45.40625 9.625 
Q 42.625 4.78125 38.28125 2.390625 
Q 33.9375 0 27.875 0 
Q 17.828125 0 11.671875 7.65625 
Q 5.515625 15.328125 5.515625 27.984375 
Q 5.515625 40.671875 11.671875 48.328125 
Q 17.828125 56 27.875 56 
Q 33.9375 56 38.28125 53.609375 
Q 42.625 51.21875 45.40625 46.390625 
L 45.40625 54.6875 
L 54.390625 54.6875 
z
" id="DejaVuSans-103"/>
     </defs>
     <g transform="translate(792.651937 202.804062)scale(0.1 -0.1)">
      <use xlink:href="#DejaVuSans-100"/>
      <use x="63.476562" xlink:href="#DejaVuSans-113"/>
      <use x="126.953125" xlink:href="#DejaVuSans-110"/>
      <use x="190.332031" xlink:href="#DejaVuSans-95"/>
      <use x="240.332031" xlink:href="#DejaVuSans-103"/>
      <use x="303.808594" xlink:href="#DejaVuSans-114"/>
      <use x="344.890625" xlink:href="#DejaVuSans-101"/>
      <use x="406.414062" xlink:href="#DejaVuSans-101"/>
      <use x="467.9375" xlink:href="#DejaVuSans-100"/>
      <use x="531.414062" xlink:href="#DejaVuSans-121"/>
     </g>
    </g>
    <g id="line2d_26">
     <path d="M 764.651937 214.260312 
L 784.651937 214.260312 
" style="fill:none;stroke:#2ca02c;stroke-linecap:square;stroke-width:1.5;"/>
    </g>
    <g id="line2d_27"/>
    <g id="text_20">
     <!-- htm_1_1g -->
     <g transform="translate(792.651937 217.760312)scale(0.1 -0.1)">
      <use xlink:href="#DejaVuSans-104"/>
      <use x="63.378906" xlink:href="#DejaVuSans-116"/>
      <use x="102.587891" xlink:href="#DejaVuSans-109"/>
      <use x="200" xlink:href="#DejaVuSans-95"/>
      <use x="250" xlink:href="#DejaVuSans-49"/>
      <use x="313.623047" xlink:href="#DejaVuSans-95"/>
      <use x="363.623047" xlink:href="#DejaVuSans-49"/>
      <use x="427.246094" xlink:href="#DejaVuSans-103"/>
     </g>
    </g>
    <g id="line2d_28">
     <path d="M 764.651937 229.216562 
L 784.651937 229.216562 
" style="fill:none;stroke:#d62728;stroke-linecap:square;stroke-width:1.5;"/>
    </g>
    <g id="line2d_29"/>
    <g id="text_21">
     <!-- htm_2_1g -->
     <g transform="translate(792.651937 232.716562)scale(0.1 -0.1)">
      <use xlink:href="#DejaVuSans-104"/>
      <use x="63.378906" xlink:href="#DejaVuSans-116"/>
      <use x="102.587891" xlink:href="#DejaVuSans-109"/>
      <use x="200" xlink:href="#DejaVuSans-95"/>
      <use x="250" xlink:href="#DejaVuSans-50"/>
      <use x="313.623047" xlink:href="#DejaVuSans-95"/>
      <use x="363.623047" xlink:href="#DejaVuSans-49"/>
      <use x="427.246094" xlink:href="#DejaVuSans-103"/>
     </g>
    </g>
    <g id="line2d_30">
     <path d="M 764.651937 244.172812 
L 784.651937 244.172812 
" style="fill:none;stroke:#9467bd;stroke-linecap:square;stroke-width:1.5;"/>
    </g>
    <g id="line2d_31"/>
    <g id="text_22">
     <!-- htm_4_1g -->
     <g transform="translate(792.651937 247.672812)scale(0.1 -0.1)">
      <use xlink:href="#DejaVuSans-104"/>
      <use x="63.378906" xlink:href="#DejaVuSans-116"/>
      <use x="102.587891" xlink:href="#DejaVuSans-109"/>
      <use x="200" xlink:href="#DejaVuSans-95"/>
      <use x="250" xlink:href="#DejaVuSans-52"/>
      <use x="313.623047" xlink:href="#DejaVuSans-95"/>
      <use x="363.623047" xlink:href="#DejaVuSans-49"/>
      <use x="427.246094" xlink:href="#DejaVuSans-103"/>
     </g>
    </g>
   </g>
  </g>
 </g>
 <defs>
  <clipPath id="p59c1754551">
   <rect height="377.96" width="682.18" x="42.1" y="26.16"/>
  </clipPath>
 </defs>
</svg>
