<?xml version="1.0" encoding="utf-8" standalone="no"?>
<!DOCTYPE svg PUBLIC "-//W3C//DTD SVG 1.1//EN"
  "http://www.w3.org/Graphics/SVG/1.1/DTD/svg11.dtd">
<!-- Created with matplotlib (https://matplotlib.org/) -->
<svg height="432pt" version="1.1" viewBox="0 0 864 432" width="864pt" xmlns="http://www.w3.org/2000/svg" xmlns:xlink="http://www.w3.org/1999/xlink">
 <defs>
  <style type="text/css">
*{stroke-linecap:butt;stroke-linejoin:round;}
  </style>
 </defs>
 <g id="figure_1">
  <g id="patch_1">
   <path d="M 0 432 
L 864 432 
L 864 0 
L 0 0 
z
" style="fill:#ffffff;"/>
  </g>
  <g id="axes_1">
   <g id="patch_2">
    <path d="M 36.925 404.12 
L 724.28 404.12 
L 724.28 26.16 
L 36.925 26.16 
z
" style="fill:#ffffff;"/>
   </g>
   <g id="matplotlib.axis_1">
    <g id="xtick_1">
     <g id="line2d_1">
      <defs>
       <path d="M 0 0 
L 0 3.5 
" id="m451378341f" style="stroke:#000000;stroke-width:0.8;"/>
      </defs>
      <g>
       <use style="stroke:#000000;stroke-width:0.8;" x="36.925" xlink:href="#m451378341f" y="404.12"/>
      </g>
     </g>
     <g id="text_1">
      <!-- 0 -->
      <defs>
       <path d="M 31.78125 66.40625 
Q 24.171875 66.40625 20.328125 58.90625 
Q 16.5 51.421875 16.5 36.375 
Q 16.5 21.390625 20.328125 13.890625 
Q 24.171875 6.390625 31.78125 6.390625 
Q 39.453125 6.390625 43.28125 13.890625 
Q 47.125 21.390625 47.125 36.375 
Q 47.125 51.421875 43.28125 58.90625 
Q 39.453125 66.40625 31.78125 66.40625 
z
M 31.78125 74.21875 
Q 44.046875 74.21875 50.515625 64.515625 
Q 56.984375 54.828125 56.984375 36.375 
Q 56.984375 17.96875 50.515625 8.265625 
Q 44.046875 -1.421875 31.78125 -1.421875 
Q 19.53125 -1.421875 13.0625 8.265625 
Q 6.59375 17.96875 6.59375 36.375 
Q 6.59375 54.828125 13.0625 64.515625 
Q 19.53125 74.21875 31.78125 74.21875 
z
" id="DejaVuSans-48"/>
      </defs>
      <g transform="translate(33.74375 418.718437)scale(0.1 -0.1)">
       <use xlink:href="#DejaVuSans-48"/>
      </g>
     </g>
    </g>
    <g id="xtick_2">
     <g id="line2d_2">
      <g>
       <use style="stroke:#000000;stroke-width:0.8;" x="174.533609" xlink:href="#m451378341f" y="404.12"/>
      </g>
     </g>
     <g id="text_2">
      <!-- 200 -->
      <defs>
       <path d="M 19.1875 8.296875 
L 53.609375 8.296875 
L 53.609375 0 
L 7.328125 0 
L 7.328125 8.296875 
Q 12.9375 14.109375 22.625 23.890625 
Q 32.328125 33.6875 34.8125 36.53125 
Q 39.546875 41.84375 41.421875 45.53125 
Q 43.3125 49.21875 43.3125 52.78125 
Q 43.3125 58.59375 39.234375 62.25 
Q 35.15625 65.921875 28.609375 65.921875 
Q 23.96875 65.921875 18.8125 64.3125 
Q 13.671875 62.703125 7.8125 59.421875 
L 7.8125 69.390625 
Q 13.765625 71.78125 18.9375 73 
Q 24.125 74.21875 28.421875 74.21875 
Q 39.75 74.21875 46.484375 68.546875 
Q 53.21875 62.890625 53.21875 53.421875 
Q 53.21875 48.921875 51.53125 44.890625 
Q 49.859375 40.875 45.40625 35.40625 
Q 44.1875 33.984375 37.640625 27.21875 
Q 31.109375 20.453125 19.1875 8.296875 
z
" id="DejaVuSans-50"/>
      </defs>
      <g transform="translate(164.989859 418.718437)scale(0.1 -0.1)">
       <use xlink:href="#DejaVuSans-50"/>
       <use x="63.623047" xlink:href="#DejaVuSans-48"/>
       <use x="127.246094" xlink:href="#DejaVuSans-48"/>
      </g>
     </g>
    </g>
    <g id="xtick_3">
     <g id="line2d_3">
      <g>
       <use style="stroke:#000000;stroke-width:0.8;" x="312.142217" xlink:href="#m451378341f" y="404.12"/>
      </g>
     </g>
     <g id="text_3">
      <!-- 400 -->
      <defs>
       <path d="M 37.796875 64.3125 
L 12.890625 25.390625 
L 37.796875 25.390625 
z
M 35.203125 72.90625 
L 47.609375 72.90625 
L 47.609375 25.390625 
L 58.015625 25.390625 
L 58.015625 17.1875 
L 47.609375 17.1875 
L 47.609375 0 
L 37.796875 0 
L 37.796875 17.1875 
L 4.890625 17.1875 
L 4.890625 26.703125 
z
" id="DejaVuSans-52"/>
      </defs>
      <g transform="translate(302.598467 418.718437)scale(0.1 -0.1)">
       <use xlink:href="#DejaVuSans-52"/>
       <use x="63.623047" xlink:href="#DejaVuSans-48"/>
       <use x="127.246094" xlink:href="#DejaVuSans-48"/>
      </g>
     </g>
    </g>
    <g id="xtick_4">
     <g id="line2d_4">
      <g>
       <use style="stroke:#000000;stroke-width:0.8;" x="449.750826" xlink:href="#m451378341f" y="404.12"/>
      </g>
     </g>
     <g id="text_4">
      <!-- 600 -->
      <defs>
       <path d="M 33.015625 40.375 
Q 26.375 40.375 22.484375 35.828125 
Q 18.609375 31.296875 18.609375 23.390625 
Q 18.609375 15.53125 22.484375 10.953125 
Q 26.375 6.390625 33.015625 6.390625 
Q 39.65625 6.390625 43.53125 10.953125 
Q 47.40625 15.53125 47.40625 23.390625 
Q 47.40625 31.296875 43.53125 35.828125 
Q 39.65625 40.375 33.015625 40.375 
z
M 52.59375 71.296875 
L 52.59375 62.3125 
Q 48.875 64.0625 45.09375 64.984375 
Q 41.3125 65.921875 37.59375 65.921875 
Q 27.828125 65.921875 22.671875 59.328125 
Q 17.53125 52.734375 16.796875 39.40625 
Q 19.671875 43.65625 24.015625 45.921875 
Q 28.375 48.1875 33.59375 48.1875 
Q 44.578125 48.1875 50.953125 41.515625 
Q 57.328125 34.859375 57.328125 23.390625 
Q 57.328125 12.15625 50.6875 5.359375 
Q 44.046875 -1.421875 33.015625 -1.421875 
Q 20.359375 -1.421875 13.671875 8.265625 
Q 6.984375 17.96875 6.984375 36.375 
Q 6.984375 53.65625 15.1875 63.9375 
Q 23.390625 74.21875 37.203125 74.21875 
Q 40.921875 74.21875 44.703125 73.484375 
Q 48.484375 72.75 52.59375 71.296875 
z
" id="DejaVuSans-54"/>
      </defs>
      <g transform="translate(440.207076 418.718437)scale(0.1 -0.1)">
       <use xlink:href="#DejaVuSans-54"/>
       <use x="63.623047" xlink:href="#DejaVuSans-48"/>
       <use x="127.246094" xlink:href="#DejaVuSans-48"/>
      </g>
     </g>
    </g>
    <g id="xtick_5">
     <g id="line2d_5">
      <g>
       <use style="stroke:#000000;stroke-width:0.8;" x="587.359434" xlink:href="#m451378341f" y="404.12"/>
      </g>
     </g>
     <g id="text_5">
      <!-- 800 -->
      <defs>
       <path d="M 31.78125 34.625 
Q 24.75 34.625 20.71875 30.859375 
Q 16.703125 27.09375 16.703125 20.515625 
Q 16.703125 13.921875 20.71875 10.15625 
Q 24.75 6.390625 31.78125 6.390625 
Q 38.8125 6.390625 42.859375 10.171875 
Q 46.921875 13.96875 46.921875 20.515625 
Q 46.921875 27.09375 42.890625 30.859375 
Q 38.875 34.625 31.78125 34.625 
z
M 21.921875 38.8125 
Q 15.578125 40.375 12.03125 44.71875 
Q 8.5 49.078125 8.5 55.328125 
Q 8.5 64.0625 14.71875 69.140625 
Q 20.953125 74.21875 31.78125 74.21875 
Q 42.671875 74.21875 48.875 69.140625 
Q 55.078125 64.0625 55.078125 55.328125 
Q 55.078125 49.078125 51.53125 44.71875 
Q 48 40.375 41.703125 38.8125 
Q 48.828125 37.15625 52.796875 32.3125 
Q 56.78125 27.484375 56.78125 20.515625 
Q 56.78125 9.90625 50.3125 4.234375 
Q 43.84375 -1.421875 31.78125 -1.421875 
Q 19.734375 -1.421875 13.25 4.234375 
Q 6.78125 9.90625 6.78125 20.515625 
Q 6.78125 27.484375 10.78125 32.3125 
Q 14.796875 37.15625 21.921875 38.8125 
z
M 18.3125 54.390625 
Q 18.3125 48.734375 21.84375 45.5625 
Q 25.390625 42.390625 31.78125 42.390625 
Q 38.140625 42.390625 41.71875 45.5625 
Q 45.3125 48.734375 45.3125 54.390625 
Q 45.3125 60.0625 41.71875 63.234375 
Q 38.140625 66.40625 31.78125 66.40625 
Q 25.390625 66.40625 21.84375 63.234375 
Q 18.3125 60.0625 18.3125 54.390625 
z
" id="DejaVuSans-56"/>
      </defs>
      <g transform="translate(577.815684 418.718437)scale(0.1 -0.1)">
       <use xlink:href="#DejaVuSans-56"/>
       <use x="63.623047" xlink:href="#DejaVuSans-48"/>
       <use x="127.246094" xlink:href="#DejaVuSans-48"/>
      </g>
     </g>
    </g>
   </g>
   <g id="matplotlib.axis_2">
    <g id="ytick_1">
     <g id="line2d_6">
      <defs>
       <path d="M 0 0 
L -3.5 0 
" id="m8c315ea627" style="stroke:#000000;stroke-width:0.8;"/>
      </defs>
      <g>
       <use style="stroke:#000000;stroke-width:0.8;" x="36.925" xlink:href="#m8c315ea627" y="336.076954"/>
      </g>
     </g>
     <g id="text_6">
      <!-- 20 -->
      <g transform="translate(17.2 339.876173)scale(0.1 -0.1)">
       <use xlink:href="#DejaVuSans-50"/>
       <use x="63.623047" xlink:href="#DejaVuSans-48"/>
      </g>
     </g>
    </g>
    <g id="ytick_2">
     <g id="line2d_7">
      <g>
       <use style="stroke:#000000;stroke-width:0.8;" x="36.925" xlink:href="#m8c315ea627" y="262.892716"/>
      </g>
     </g>
     <g id="text_7">
      <!-- 40 -->
      <g transform="translate(17.2 266.691934)scale(0.1 -0.1)">
       <use xlink:href="#DejaVuSans-52"/>
       <use x="63.623047" xlink:href="#DejaVuSans-48"/>
      </g>
     </g>
    </g>
    <g id="ytick_3">
     <g id="line2d_8">
      <g>
       <use style="stroke:#000000;stroke-width:0.8;" x="36.925" xlink:href="#m8c315ea627" y="189.708477"/>
      </g>
     </g>
     <g id="text_8">
      <!-- 60 -->
      <g transform="translate(17.2 193.507696)scale(0.1 -0.1)">
       <use xlink:href="#DejaVuSans-54"/>
       <use x="63.623047" xlink:href="#DejaVuSans-48"/>
      </g>
     </g>
    </g>
    <g id="ytick_4">
     <g id="line2d_9">
      <g>
       <use style="stroke:#000000;stroke-width:0.8;" x="36.925" xlink:href="#m8c315ea627" y="116.524239"/>
      </g>
     </g>
     <g id="text_9">
      <!-- 80 -->
      <g transform="translate(17.2 120.323457)scale(0.1 -0.1)">
       <use xlink:href="#DejaVuSans-56"/>
       <use x="63.623047" xlink:href="#DejaVuSans-48"/>
      </g>
     </g>
    </g>
    <g id="ytick_5">
     <g id="line2d_10">
      <g>
       <use style="stroke:#000000;stroke-width:0.8;" x="36.925" xlink:href="#m8c315ea627" y="43.34"/>
      </g>
     </g>
     <g id="text_10">
      <!-- 100 -->
      <defs>
       <path d="M 12.40625 8.296875 
L 28.515625 8.296875 
L 28.515625 63.921875 
L 10.984375 60.40625 
L 10.984375 69.390625 
L 28.421875 72.90625 
L 38.28125 72.90625 
L 38.28125 8.296875 
L 54.390625 8.296875 
L 54.390625 0 
L 12.40625 0 
z
" id="DejaVuSans-49"/>
      </defs>
      <g transform="translate(10.8375 47.139219)scale(0.1 -0.1)">
       <use xlink:href="#DejaVuSans-49"/>
       <use x="63.623047" xlink:href="#DejaVuSans-48"/>
       <use x="127.246094" xlink:href="#DejaVuSans-48"/>
      </g>
     </g>
    </g>
   </g>
   <g id="line2d_11">
    <path clip-path="url(#pba13b644a5)" d="M 49.997818 345.224984 
L 50.685861 356.019659 
L 51.373904 356.568541 
L 52.061947 344.676102 
L 52.74999 341.748733 
L 53.438033 342.480575 
L 54.126076 342.480575 
L 54.814119 340.285048 
L 55.502162 340.102087 
L 56.190205 338.821363 
L 56.878248 336.991757 
L 57.566291 337.540639 
L 58.254334 340.102087 
L 58.942377 340.102087 
L 59.63042 343.212417 
L 60.318463 345.590905 
L 61.006507 345.590905 
L 61.69455 350.347881 
L 62.382593 349.98196 
L 63.070636 354.007093 
L 63.758679 351.445644 
L 64.446722 351.628605 
L 65.134765 351.628605 
L 65.822808 372.852034 
L 67.198894 380.71934 
L 67.886937 380.71934 
L 68.57498 381.634143 
L 69.263023 381.817103 
L 69.951066 379.804537 
L 70.639109 382.548946 
L 71.327152 382.731906 
L 72.015195 381.634143 
L 72.703238 382.183024 
L 73.391281 382.183024 
L 74.079324 385.659276 
L 74.767367 384.378552 
L 75.45541 382.548946 
L 76.143453 382.183024 
L 76.831496 381.451182 
L 77.51954 384.378552 
L 78.207583 384.927433 
L 78.895626 384.195591 
L 79.583669 380.170458 
L 80.271712 380.353419 
L 80.959755 380.9023 
L 81.647798 378.523813 
L 82.335841 363.704004 
L 83.023884 363.704004 
L 83.711927 359.129989 
L 84.39997 355.470777 
L 85.776056 349.98196 
L 87.152142 347.05459 
L 87.840185 343.395378 
L 88.528228 344.676102 
L 89.216271 347.603472 
L 89.904314 348.335314 
L 90.592357 350.347881 
L 91.2804 339.004324 
L 91.968443 338.455442 
L 92.656486 339.004324 
L 93.34453 338.638403 
L 94.032573 333.698466 
L 94.720616 333.515506 
L 95.408659 330.954058 
L 96.096702 345.224984 
L 96.784745 341.01689 
L 97.472788 349.067157 
L 98.160831 352.726368 
L 98.848874 355.287817 
L 99.536917 358.764068 
L 100.22496 359.31295 
L 100.913003 360.776635 
L 101.601046 364.801768 
L 102.289089 358.032226 
L 102.977132 355.287817 
L 103.665175 355.470777 
L 104.353218 352.360447 
L 105.041261 363.521044 
L 105.729304 362.606241 
L 106.417347 362.606241 
L 107.10539 364.984728 
L 107.793433 369.741704 
L 108.481476 369.009862 
L 109.16952 374.132758 
L 109.857563 374.498679 
L 110.545606 378.706773 
L 111.233649 379.804537 
L 111.921692 379.621576 
L 112.609735 379.621576 
L 113.297778 379.987497 
L 113.985821 379.621576 
L 114.673864 379.621576 
L 115.361907 380.170458 
L 116.04995 384.561512 
L 116.737993 386.94 
L 117.426036 383.646709 
L 118.114079 385.476315 
L 118.802122 384.561512 
L 119.490165 382.365985 
L 120.178208 382.548946 
L 120.866251 384.01263 
L 121.554294 379.072694 
L 122.242337 366.631374 
L 122.93038 362.606241 
L 123.618423 364.069925 
L 124.306466 362.240319 
L 124.99451 362.240319 
L 125.682553 362.42328 
L 126.370596 361.691438 
L 127.058639 361.691438 
L 127.746682 357.666305 
L 128.434725 356.751502 
L 129.122768 356.751502 
L 129.810811 358.947029 
L 130.498854 359.129989 
L 131.186897 335.345112 
L 131.87494 336.991757 
L 132.562983 333.698466 
L 133.251026 336.076954 
L 133.939069 332.783663 
L 134.627112 333.332545 
L 135.315155 338.455442 
L 136.003198 351.811565 
L 136.691241 347.237551 
L 137.379284 347.237551 
L 138.067327 348.518275 
L 138.75537 347.786432 
L 139.443413 346.505708 
L 140.131456 346.688669 
L 140.819499 342.297614 
L 141.507543 347.603472 
L 142.195586 347.603472 
L 142.883629 338.638403 
L 144.259715 339.004324 
L 144.947758 357.117423 
L 145.635801 356.568541 
L 146.323844 357.300383 
L 147.011887 358.581108 
L 147.69993 361.325517 
L 148.387973 359.678871 
L 149.076016 359.31295 
L 149.764059 358.581108 
L 150.452102 367.180256 
L 151.140145 367.180256 
L 151.828188 361.691438 
L 152.516231 362.057359 
L 153.204274 362.972162 
L 153.892317 360.776635 
L 154.58036 362.972162 
L 155.268403 358.947029 
L 155.956446 359.861832 
L 156.644489 361.874398 
L 157.332533 358.581108 
L 158.020576 356.568541 
L 158.708619 365.53361 
L 159.396662 366.448413 
L 160.084705 368.278019 
L 160.772748 367.546177 
L 161.460791 367.912098 
L 162.148834 342.480575 
L 162.836877 342.846496 
L 163.52492 343.578339 
L 164.212963 342.480575 
L 164.901006 342.114654 
L 165.589049 347.786432 
L 166.277092 347.786432 
L 166.965135 346.322748 
L 167.653178 345.773866 
L 168.341221 343.395378 
L 169.029264 346.688669 
L 169.717307 346.505708 
L 170.40535 353.458211 
L 171.093393 356.751502 
L 171.781436 358.581108 
L 172.469479 358.398147 
L 173.157523 356.934462 
L 173.845566 358.764068 
L 174.533609 351.445644 
L 175.221652 345.407945 
L 175.909695 366.265453 
L 176.597738 365.167689 
L 177.285781 359.678871 
L 177.973824 359.861832 
L 178.661867 358.764068 
L 179.34991 357.300383 
L 180.037953 354.007093 
L 180.725996 354.373014 
L 181.414039 356.20262 
L 182.102082 354.007093 
L 183.478168 322.53787 
L 184.166211 317.232013 
L 184.854254 301.314441 
L 185.542297 298.752993 
L 186.23034 297.83819 
L 186.918383 297.289308 
L 187.606426 295.093781 
L 188.294469 291.98345 
L 188.982513 287.592396 
L 189.670556 291.617529 
L 190.358599 283.567263 
L 191.046642 283.567263 
L 191.734685 269.296337 
L 192.422728 269.113376 
L 193.110771 268.381534 
L 193.798814 269.845218 
L 194.486857 269.296337 
L 195.1749 265.454164 
L 195.862943 270.942982 
L 196.550986 285.396869 
L 197.239029 288.87312 
L 197.927072 291.251608 
L 198.615115 296.008584 
L 199.303158 295.642662 
L 199.991201 289.970884 
L 200.679244 279.54213 
L 201.367287 279.176209 
L 202.05533 286.311672 
L 202.743373 290.519766 
L 203.431416 281.188775 
L 204.119459 287.958317 
L 204.807503 276.980682 
L 205.495546 288.69016 
L 206.183589 283.201342 
L 206.871632 284.116145 
L 207.559675 281.188775 
L 208.247718 274.968115 
L 208.935761 276.248839 
L 209.623804 268.015612 
L 210.311847 267.28377 
L 210.99989 273.50443 
L 211.687933 268.381534 
L 212.375976 276.980682 
L 213.064019 269.845218 
L 213.752062 274.053312 
L 214.440105 279.725091 
L 215.128148 266.734888 
L 215.816191 265.820085 
L 216.504234 266.003046 
L 217.192277 260.148307 
L 217.88032 241.852247 
L 218.568363 256.123174 
L 219.256406 251.732119 
L 219.944449 258.13574 
L 220.632492 258.684622 
L 221.320536 263.075676 
L 222.008579 262.343834 
L 222.696622 264.722322 
L 223.384665 270.028179 
L 224.072708 268.015612 
L 224.760751 251.549159 
L 225.448794 258.501661 
L 226.136837 250.634356 
L 226.82488 259.782386 
L 227.512923 261.24607 
L 228.200966 260.331267 
L 228.889009 274.236273 
L 229.577052 276.4318 
L 230.953138 279.54213 
L 231.641181 298.570032 
L 232.329224 299.301874 
L 233.017267 301.13148 
L 233.70531 297.655229 
L 234.393353 291.98345 
L 235.081396 289.604963 
L 235.769439 296.008584 
L 236.457482 283.567263 
L 237.145526 281.188775 
L 237.833569 276.61476 
L 238.521612 297.472268 
L 239.209655 293.630096 
L 239.897698 300.582599 
L 240.585741 297.655229 
L 241.273784 296.191544 
L 241.961827 300.216677 
L 242.64987 300.033717 
L 243.337913 300.033717 
L 244.025956 303.509968 
L 244.713999 313.755761 
L 245.402042 307.901022 
L 246.090085 292.166411 
L 246.778128 291.068647 
L 247.466171 283.933184 
L 248.154214 288.69016 
L 248.842257 287.043514 
L 249.5303 283.567263 
L 250.218343 296.740426 
L 250.906386 299.667796 
L 251.594429 306.437338 
L 252.282472 304.24181 
L 252.970516 306.986219 
L 253.658559 300.399638 
L 254.346602 298.570032 
L 255.034645 300.033717 
L 255.722688 297.289308 
L 256.410731 292.532332 
L 257.098774 285.030948 
L 257.786817 281.371736 
L 258.47486 285.76279 
L 259.162903 287.409436 
L 259.850946 294.361938 
L 260.538989 291.434569 
L 261.227032 300.216677 
L 261.915075 297.289308 
L 262.603118 295.276741 
L 263.291161 299.850756 
L 263.979204 289.787923 
L 264.667247 285.76279 
L 265.35529 287.592396 
L 266.043333 289.787923 
L 266.731376 288.87312 
L 267.419419 298.387071 
L 268.107462 297.83819 
L 268.795506 293.264175 
L 269.483549 293.996017 
L 270.171592 295.642662 
L 271.547678 299.667796 
L 272.235721 300.033717 
L 272.923764 297.83819 
L 273.611807 306.437338 
L 274.29985 309.547668 
L 274.987893 304.424771 
L 275.675936 305.888456 
L 276.363979 294.178978 
L 277.052022 293.081214 
L 277.740065 302.046283 
L 278.428108 308.815825 
L 279.116151 293.630096 
L 279.804194 291.98345 
L 280.492237 292.349372 
L 281.18028 289.056081 
L 281.868323 292.532332 
L 282.556366 292.532332 
L 283.244409 293.813056 
L 283.932452 291.98345 
L 284.620495 296.557465 
L 285.308539 287.043514 
L 285.996582 283.933184 
L 286.684625 286.677593 
L 287.372668 279.359169 
L 288.060711 281.920618 
L 288.748754 283.933184 
L 289.436797 276.248839 
L 290.12484 285.57983 
L 290.812883 275.516997 
L 292.188969 245.511459 
L 292.877012 259.782386 
L 293.565055 259.050543 
L 294.253098 260.697188 
L 295.629184 258.867583 
L 296.317227 260.148307 
L 297.00527 259.782386 
L 297.693313 251.732119 
L 298.381356 252.463962 
L 299.069399 251.91508 
L 299.757442 253.378765 
L 300.445485 251.000277 
L 301.133529 249.536592 
L 301.821572 250.634356 
L 302.509615 246.975144 
L 303.197658 247.341065 
L 303.885701 252.463962 
L 304.573744 254.476528 
L 305.261787 266.551928 
L 305.94983 281.188775 
L 306.637873 273.32147 
L 307.325916 273.870351 
L 308.013959 269.845218 
L 308.702002 256.123174 
L 309.390045 258.318701 
L 310.078088 250.634356 
L 310.766131 250.817316 
L 311.454174 258.318701 
L 312.142217 260.331267 
L 312.83026 269.113376 
L 313.518303 267.832652 
L 314.206346 274.236273 
L 314.894389 284.116145 
L 315.582432 281.371736 
L 316.270475 289.239042 
L 316.958519 298.570032 
L 317.646562 302.046283 
L 318.334605 312.475037 
L 319.022648 313.572801 
L 319.710691 315.036486 
L 320.398734 324.367476 
L 321.086777 325.099318 
L 321.77482 330.039255 
L 322.462863 345.042023 
L 323.150906 346.139787 
L 323.838949 358.032226 
L 324.526992 362.240319 
L 325.215035 367.546177 
L 325.903078 358.215186 
L 326.591121 362.057359 
L 327.279164 360.593674 
L 327.967207 361.691438 
L 328.65525 359.495911 
L 330.031336 356.751502 
L 330.719379 353.641171 
L 331.407422 353.09229 
L 332.095465 350.16492 
L 332.783509 351.445644 
L 333.471552 349.067157 
L 334.159595 347.969393 
L 334.847638 346.505708 
L 335.535681 346.139787 
L 336.223724 347.420511 
L 336.911767 344.310181 
L 337.59981 344.12722 
L 338.287853 336.808797 
L 338.975896 337.174718 
L 339.663939 344.676102 
L 340.351982 343.94426 
L 341.040025 348.335314 
L 342.416111 347.969393 
L 343.104154 351.079723 
L 343.792197 353.641171 
L 344.48024 358.215186 
L 345.168283 347.603472 
L 345.856326 347.969393 
L 346.544369 347.420511 
L 347.232412 349.616038 
L 347.920455 350.347881 
L 348.608498 347.237551 
L 349.296542 344.859063 
L 349.984585 338.821363 
L 350.672628 342.480575 
L 351.360671 342.480575 
L 352.048714 346.688669 
L 352.736757 345.224984 
L 353.4248 347.420511 
L 354.112843 347.786432 
L 354.800886 348.335314 
L 355.488929 346.322748 
L 356.176972 341.748733 
L 356.865015 343.395378 
L 357.553058 338.821363 
L 358.241101 335.162151 
L 358.929144 345.590905 
L 360.30523 347.786432 
L 360.993273 345.224984 
L 361.681316 344.493142 
L 362.369359 349.616038 
L 363.057402 344.676102 
L 363.745445 349.250117 
L 364.433488 347.969393 
L 365.121532 342.297614 
L 365.809575 341.931693 
L 366.497618 343.578339 
L 367.185661 343.578339 
L 367.873704 343.212417 
L 368.561747 342.114654 
L 369.24979 337.90656 
L 369.937833 344.12722 
L 370.625876 332.234782 
L 371.313919 325.46524 
L 372.001962 327.294846 
L 372.690005 325.282279 
L 373.378048 326.745964 
L 374.066091 322.53787 
L 375.442177 326.563003 
L 376.13022 326.014121 
L 376.818263 333.698466 
L 377.506306 336.442875 
L 378.194349 336.808797 
L 378.882392 341.565772 
L 379.570435 344.493142 
L 380.946522 344.859063 
L 381.634565 341.382812 
L 382.322608 341.565772 
L 383.010651 346.322748 
L 383.698694 333.515506 
L 384.386737 345.773866 
L 385.07478 355.470777 
L 385.762823 355.470777 
L 386.450866 358.215186 
L 387.138909 356.568541 
L 387.826952 360.593674 
L 388.514995 361.691438 
L 389.203038 360.410714 
L 389.891081 358.215186 
L 390.579124 356.568541 
L 391.267167 356.568541 
L 391.95521 356.934462 
L 392.643253 356.751502 
L 393.331296 352.726368 
L 394.019339 351.445644 
L 394.707382 347.786432 
L 395.395425 351.079723 
L 396.083468 349.798999 
L 396.771512 347.237551 
L 397.459555 360.593674 
L 398.147598 361.142556 
L 398.835641 362.057359 
L 399.523684 357.666305 
L 400.211727 357.300383 
L 400.89977 353.641171 
L 401.587813 348.884196 
L 402.275856 346.505708 
L 402.963899 347.786432 
L 403.651942 351.079723 
L 404.339985 348.884196 
L 405.028028 349.250117 
L 405.716071 349.798999 
L 406.404114 346.322748 
L 407.092157 350.530841 
L 407.7802 346.688669 
L 408.468243 347.237551 
L 409.156286 346.139787 
L 409.844329 346.139787 
L 410.532372 349.798999 
L 411.908458 343.761299 
L 412.596502 336.442875 
L 413.284545 342.297614 
L 413.972588 342.114654 
L 415.348674 345.773866 
L 416.72476 345.407945 
L 417.412803 343.578339 
L 418.100846 343.212417 
L 418.788889 343.578339 
L 419.476932 342.114654 
L 420.164975 345.407945 
L 421.541061 343.212417 
L 422.229104 343.761299 
L 422.917147 344.676102 
L 423.60519 346.505708 
L 424.293233 345.042023 
L 424.981276 348.701235 
L 426.357362 358.032226 
L 427.045405 356.019659 
L 427.733448 356.20262 
L 428.421491 356.20262 
L 429.109535 358.215186 
L 429.797578 361.142556 
L 430.485621 357.300383 
L 431.173664 352.543408 
L 431.861707 353.09229 
L 432.54975 352.177487 
L 433.237793 348.701235 
L 433.925836 348.518275 
L 434.613879 343.94426 
L 435.301922 348.701235 
L 435.989965 350.896763 
L 436.678008 345.773866 
L 437.366051 345.224984 
L 438.054094 345.042023 
L 439.43018 338.821363 
L 440.118223 339.370245 
L 441.494309 340.83393 
L 442.182352 341.931693 
L 442.870395 339.919127 
L 443.558438 337.540639 
L 444.934525 345.956826 
L 445.622568 346.505708 
L 446.310611 341.931693 
L 446.998654 339.187284 
L 447.686697 336.991757 
L 448.37474 341.565772 
L 449.062783 342.663536 
L 449.750826 323.086752 
L 450.438869 326.380043 
L 451.126912 300.582599 
L 451.814955 293.081214 
L 452.502998 269.296337 
L 453.191041 266.734888 
L 454.567127 229.410927 
L 455.25517 223.739148 
L 455.943213 213.676315 
L 456.631256 212.761512 
L 457.319299 196.478019 
L 458.007342 191.538083 
L 458.695385 183.853738 
L 459.383428 160.06886 
L 460.071471 160.983663 
L 460.759515 142.870564 
L 461.447558 121.464175 
L 462.135601 107.193248 
L 462.823644 96.764494 
L 463.511687 103.716997 
L 464.19973 103.534036 
L 464.887773 113.413908 
L 465.575816 120.366411 
L 466.263859 134.454377 
L 466.951902 126.952993 
L 467.639945 122.561938 
L 468.327988 131.709968 
L 469.016031 126.952993 
L 469.704074 126.952993 
L 470.392117 120.00049 
L 471.08016 133.356613 
L 471.768203 132.990692 
L 472.456246 116.707199 
L 473.144289 135.36918 
L 473.832332 121.830096 
L 474.520375 120.732332 
L 475.208418 127.501874 
L 475.896461 116.524239 
L 476.584505 114.694633 
L 477.272548 122.561938 
L 477.960591 117.07312 
L 478.648634 107.193248 
L 479.336677 102.436273 
L 480.712763 120.00049 
L 481.400806 120.00049 
L 482.776892 100.789627 
L 483.464935 86.33574 
L 484.152978 87.982386 
L 485.529064 44.803685 
L 486.217107 58.891651 
L 486.90515 54.500596 
L 487.593193 51.390266 
L 488.281236 63.831587 
L 488.969279 78.651395 
L 489.657322 81.395804 
L 490.345365 73.711459 
L 491.033408 69.503365 
L 491.721451 74.260341 
L 492.409494 74.260341 
L 493.097538 77.919553 
L 493.785581 72.613695 
L 494.473624 50.475463 
L 495.161667 62.733823 
L 495.84971 67.490799 
L 496.537753 76.821789 
L 497.225796 99.874824 
L 497.913839 88.165346 
L 498.601882 111.218381 
L 499.289925 122.927859 
L 499.977968 131.344047 
L 500.666011 130.795165 
L 501.354054 130.063323 
L 502.042097 123.476741 
L 502.73014 122.744899 
L 503.418183 141.772801 
L 504.106226 153.299318 
L 504.794269 159.337018 
L 505.482312 154.580043 
L 506.170355 179.645644 
L 506.858398 165.9236 
L 507.546441 162.630309 
L 508.234484 162.630309 
L 509.610571 173.790905 
L 510.986657 143.236486 
L 511.6747 155.677806 
L 512.362743 158.056294 
L 513.050786 156.043727 
L 513.738829 147.62754 
L 514.426872 157.141491 
L 515.114915 152.201555 
L 515.802958 166.655442 
L 516.491001 162.813269 
L 517.179044 162.081427 
L 517.867087 162.99623 
L 518.55513 148.542343 
L 519.243173 149.640106 
L 519.931216 142.870564 
L 520.619259 149.091225 
L 521.307302 140.675037 
L 521.995345 146.346816 
L 522.683388 140.857998 
L 523.371431 123.476741 
L 524.059474 144.334249 
L 524.747518 154.945964 
L 526.123604 149.091225 
L 526.811647 162.99623 
L 527.49969 167.753206 
L 528.187733 160.617742 
L 528.875776 185.500383 
L 529.563819 165.191757 
L 530.251862 165.557678 
L 530.939905 167.387284 
L 531.627948 156.409649 
L 532.315991 170.131693 
L 533.004034 168.668009 
L 533.692077 167.936166 
L 534.38012 156.592609 
L 535.068163 157.324452 
L 535.756206 175.25459 
L 536.444249 177.267157 
L 537.132292 199.039468 
L 538.508378 186.964068 
L 539.196421 195.197295 
L 539.884464 193.916571 
L 540.572508 191.721044 
L 541.260551 172.876102 
L 541.948594 179.462684 
L 542.636637 154.580043 
L 543.32468 160.251821 
L 544.012723 156.409649 
L 544.700766 133.539574 
L 545.388809 126.587071 
L 546.076852 116.707199 
L 546.764895 112.682066 
L 547.452938 102.070351 
L 548.140981 97.862258 
L 548.829024 98.960021 
L 550.20511 67.673759 
L 550.893153 65.295272 
L 551.581196 52.122109 
L 552.269239 51.939148 
L 552.957282 50.475463 
L 553.645325 52.48803 
L 554.333368 55.415399 
L 555.021411 61.81902 
L 555.709454 53.219872 
L 556.397497 63.465666 
L 557.085541 58.159808 
L 557.773584 43.34 
L 558.461627 66.393035 
L 559.837713 86.884622 
L 560.525756 92.37344 
L 561.213799 95.666731 
L 561.901842 119.817529 
L 562.589885 111.767263 
L 563.277928 127.135953 
L 563.965971 151.652673 
L 564.654014 150.73787 
L 565.342057 173.973866 
L 566.0301 182.755974 
L 566.718143 183.487817 
L 568.094229 138.29655 
L 569.470315 126.03819 
L 570.158358 131.527007 
L 570.846401 147.993461 
L 571.534444 159.519979 
L 572.222487 138.47951 
L 572.910531 143.602407 
L 573.598574 139.943195 
L 574.286617 120.732332 
L 574.97466 111.584302 
L 575.662703 110.669499 
L 576.350746 129.33148 
L 577.038789 128.416677 
L 577.726832 120.549372 
L 578.414875 127.684835 
L 579.102918 111.950224 
L 579.790961 109.022854 
L 580.479004 108.291012 
L 581.167047 128.965559 
L 581.85509 126.770032 
L 582.543133 126.404111 
L 583.231176 137.747668 
L 583.919219 143.785367 
L 584.607262 146.163855 
L 585.295305 156.592609 
L 585.983348 173.973866 
L 586.671391 180.926368 
L 587.359434 180.011565 
L 588.047477 184.768541 
L 588.735521 202.88164 
L 589.423564 184.58558 
L 590.111607 183.304856 
L 590.79965 188.061832 
L 591.487693 196.478019 
L 592.175736 171.595378 
L 592.863779 174.156826 
L 594.239865 180.560447 
L 594.927908 184.219659 
L 596.303994 214.591118 
L 596.992037 210.017103 
L 597.68008 214.042236 
L 599.056166 185.866305 
L 599.744209 185.500383 
L 600.432252 183.853738 
L 601.120295 189.708477 
L 601.808338 199.039468 
L 602.496381 192.086965 
L 603.184424 187.147029 
L 603.872467 188.427753 
L 604.560511 169.948733 
L 605.248554 167.021363 
L 605.936597 178.547881 
L 606.62464 166.838403 
L 607.312683 169.399851 
L 608.000726 144.70017 
L 608.688769 140.492077 
L 609.376812 147.993461 
L 610.064855 138.845431 
L 610.752898 135.186219 
L 611.440941 126.952993 
L 612.128984 137.930628 
L 612.817027 152.933397 
L 613.50507 148.725304 
L 614.193113 127.684835 
L 614.881156 129.14852 
L 616.257242 119.268647 
L 616.945285 124.391544 
L 617.633328 105.729563 
L 618.321371 104.265879 
L 619.009414 94.934888 
L 619.697457 90.726794 
L 620.385501 102.985154 
L 621.073544 90.177913 
L 621.761587 95.117849 
L 622.44963 95.48377 
L 623.137673 96.947455 
L 623.825716 97.679297 
L 624.513759 100.240745 
L 625.201802 94.568967 
L 625.889845 95.117849 
L 626.577888 92.190479 
L 627.265931 82.310607 
L 627.953974 101.52147 
L 628.642017 99.325942 
L 629.33006 107.376209 
L 630.018103 99.691864 
L 630.706146 111.767263 
L 632.082232 150.73787 
L 632.770275 137.930628 
L 633.458318 129.880362 
L 634.146361 127.684835 
L 634.834404 118.353845 
L 635.522447 138.113589 
L 636.21049 136.101022 
L 636.898534 126.03819 
L 637.586577 139.211353 
L 638.27462 143.053525 
L 638.962663 149.823067 
L 639.650706 151.286752 
L 640.338749 143.602407 
L 641.026792 151.469712 
L 641.714835 151.835634 
L 642.402878 141.955761 
L 643.090921 136.283983 
L 643.778964 154.945964 
L 644.467007 137.747668 
L 645.15505 136.649904 
L 645.843093 131.892929 
L 646.531136 154.763003 
L 647.219179 168.485048 
L 647.907222 179.279723 
L 648.595265 185.134462 
L 649.283308 183.487817 
L 649.971351 183.121896 
L 651.347437 158.422215 
L 652.723524 143.236486 
L 653.411567 124.391544 
L 654.09961 127.867796 
L 654.787653 115.060554 
L 655.475696 120.366411 
L 656.851782 144.70017 
L 657.539825 136.466944 
L 658.227868 150.371949 
L 658.915911 150.006028 
L 659.603954 140.492077 
L 660.291997 140.309116 
L 660.98004 146.346816 
L 661.668083 137.747668 
L 662.356126 149.823067 
L 663.044169 126.770032 
L 663.732212 132.25885 
L 665.108298 156.95853 
L 667.86047 190.806241 
L 668.548514 213.127433 
L 669.236557 198.856507 
L 669.9246 173.424984 
L 670.612643 158.056294 
L 671.300686 172.14426 
L 671.988729 174.705708 
L 672.676772 176.718275 
L 673.364815 170.680575 
L 674.052858 156.77557 
L 674.740901 137.015825 
L 675.428944 143.236486 
L 676.116987 129.14852 
L 676.80503 129.14852 
L 677.493073 130.795165 
L 678.181116 138.845431 
L 678.869159 127.318914 
L 679.557202 109.205815 
L 680.245245 111.035421 
L 680.933288 126.404111 
L 681.621331 120.18345 
L 682.309374 111.950224 
L 682.997417 119.817529 
L 683.68546 130.795165 
L 684.373504 144.51721 
L 685.74959 135.186219 
L 686.437633 137.198786 
L 687.125676 135.36918 
L 687.813719 146.895698 
L 688.501762 155.677806 
L 689.189805 155.128924 
L 689.877848 154.945964 
L 690.565891 177.998999 
L 691.253934 165.9236 
L 691.941977 145.249052 
L 692.63002 155.677806 
L 693.318063 155.677806 
L 694.006106 152.750437 
L 694.694149 154.580043 
L 695.382192 163.545112 
L 696.070235 163.728072 
L 696.758278 160.434782 
L 697.446321 170.863536 
L 698.134364 164.276954 
L 698.822407 162.264388 
L 699.51045 169.21689 
L 700.198493 167.021363 
L 700.886537 171.229457 
L 701.57458 151.652673 
L 702.262623 161.349585 
L 702.950666 155.311885 
L 703.638709 158.788136 
L 704.326752 155.311885 
L 705.014795 157.324452 
L 705.702838 173.790905 
L 706.390881 170.314654 
L 707.078924 171.412417 
L 709.143053 152.201555 
L 709.831096 153.116358 
L 710.519139 159.337018 
L 711.207182 154.580043 
L 711.895225 160.06886 
L 713.271311 123.476741 
L 713.959354 118.353845 
L 714.647397 136.649904 
L 715.33544 144.883131 
L 716.023483 131.344047 
L 716.711527 136.283983 
L 717.39957 148.725304 
L 718.087613 145.797934 
L 718.775656 153.116358 
L 719.463699 158.971097 
L 720.151742 154.214121 
L 720.839785 174.339787 
L 721.527828 184.58558 
L 722.215871 179.096763 
L 722.903914 183.670777 
L 723.591957 171.412417 
L 724.28 166.472481 
L 724.28 166.472481 
" style="fill:none;stroke:#1f77b4;stroke-linecap:square;stroke-width:1.5;"/>
   </g>
   <g id="line2d_12">
    <path clip-path="url(#pba13b644a5)" d="M 49.997818 345.224984 
L 50.685861 356.019659 
L 51.373904 356.568541 
L 52.061947 344.676102 
L 52.74999 341.748733 
L 53.438033 342.480575 
L 54.126076 342.480575 
L 54.814119 340.285048 
L 55.502162 340.102087 
L 56.190205 338.821363 
L 56.878248 336.991757 
L 57.566291 337.540639 
L 58.254334 340.102087 
L 58.942377 340.102087 
L 59.63042 343.212417 
L 60.318463 345.590905 
L 61.006507 345.590905 
L 61.69455 350.347881 
L 62.382593 349.98196 
L 63.070636 354.007093 
L 63.758679 351.445644 
L 64.446722 351.628605 
L 65.134765 351.628605 
L 65.822808 372.852034 
L 67.198894 380.71934 
L 67.886937 380.71934 
L 68.57498 381.634143 
L 69.263023 381.817103 
L 69.951066 379.804537 
L 70.639109 382.548946 
L 71.327152 382.731906 
L 72.015195 381.634143 
L 72.703238 382.183024 
L 73.391281 382.183024 
L 74.079324 385.659276 
L 74.767367 384.378552 
L 75.45541 382.548946 
L 76.143453 382.183024 
L 76.831496 381.451182 
L 77.51954 384.378552 
L 78.207583 384.927433 
L 78.895626 384.195591 
L 79.583669 380.170458 
L 80.271712 380.353419 
L 80.959755 380.9023 
L 81.647798 378.523813 
L 82.335841 363.704004 
L 83.023884 363.704004 
L 83.711927 359.129989 
L 84.39997 355.470777 
L 85.776056 349.98196 
L 87.152142 347.05459 
L 87.840185 343.395378 
L 88.528228 344.676102 
L 89.216271 347.603472 
L 89.904314 348.335314 
L 90.592357 350.347881 
L 91.2804 339.004324 
L 91.968443 338.455442 
L 92.656486 339.004324 
L 93.34453 338.638403 
L 94.032573 333.698466 
L 94.720616 333.515506 
L 95.408659 330.954058 
L 96.096702 345.224984 
L 96.784745 341.01689 
L 97.472788 349.067157 
L 98.160831 352.726368 
L 98.848874 355.287817 
L 99.536917 358.764068 
L 100.22496 359.31295 
L 100.913003 360.776635 
L 101.601046 364.801768 
L 102.289089 358.032226 
L 102.977132 355.287817 
L 103.665175 355.470777 
L 104.353218 352.360447 
L 105.041261 363.521044 
L 105.729304 362.606241 
L 106.417347 362.606241 
L 107.10539 364.984728 
L 107.793433 369.741704 
L 108.481476 369.009862 
L 109.16952 374.132758 
L 109.857563 374.498679 
L 110.545606 378.706773 
L 111.233649 379.804537 
L 111.921692 379.621576 
L 112.609735 379.621576 
L 113.297778 379.987497 
L 113.985821 379.621576 
L 114.673864 379.621576 
L 115.361907 380.170458 
L 116.04995 384.561512 
L 116.737993 386.94 
L 117.426036 383.646709 
L 118.114079 385.476315 
L 118.802122 384.561512 
L 119.490165 382.365985 
L 120.178208 382.548946 
L 120.866251 384.01263 
L 121.554294 379.072694 
L 122.242337 366.631374 
L 122.93038 362.606241 
L 123.618423 364.069925 
L 124.306466 362.240319 
L 124.99451 362.240319 
L 125.682553 362.42328 
L 126.370596 361.691438 
L 127.058639 361.691438 
L 127.746682 357.666305 
L 128.434725 356.751502 
L 129.122768 356.751502 
L 129.810811 358.947029 
L 130.498854 359.129989 
L 131.186897 335.345112 
L 131.87494 336.991757 
L 132.562983 333.698466 
L 133.251026 336.076954 
L 133.939069 332.783663 
L 134.627112 333.332545 
L 135.315155 338.455442 
L 136.003198 351.811565 
L 136.691241 347.237551 
L 137.379284 347.237551 
L 138.067327 348.518275 
L 138.75537 347.786432 
L 139.443413 346.505708 
L 140.131456 346.688669 
L 140.819499 342.297614 
L 141.507543 347.603472 
L 142.195586 347.603472 
L 142.883629 338.638403 
L 144.259715 339.004324 
L 144.947758 357.117423 
L 145.635801 356.568541 
L 146.323844 357.300383 
L 147.011887 358.581108 
L 147.69993 361.325517 
L 148.387973 359.678871 
L 149.076016 359.31295 
L 149.764059 358.581108 
L 150.452102 367.180256 
L 151.140145 367.180256 
L 151.828188 361.691438 
L 152.516231 362.057359 
L 153.204274 362.972162 
L 153.892317 360.776635 
L 154.58036 362.972162 
L 155.268403 358.947029 
L 155.956446 359.861832 
L 156.644489 361.874398 
L 157.332533 358.581108 
L 158.020576 356.568541 
L 158.708619 365.53361 
L 159.396662 366.448413 
L 160.084705 368.278019 
L 160.772748 367.546177 
L 161.460791 367.912098 
L 162.148834 342.480575 
L 162.836877 342.846496 
L 163.52492 343.578339 
L 164.212963 342.480575 
L 164.901006 342.114654 
L 165.589049 347.786432 
L 166.277092 347.786432 
L 166.965135 346.322748 
L 167.653178 345.773866 
L 168.341221 343.395378 
L 169.029264 346.688669 
L 169.717307 346.505708 
L 170.40535 353.458211 
L 171.093393 356.751502 
L 171.781436 358.581108 
L 172.469479 358.398147 
L 173.157523 356.934462 
L 173.845566 358.764068 
L 175.221652 345.224984 
L 175.909695 365.899531 
L 176.597738 364.618807 
L 177.285781 360.593674 
L 177.973824 360.227753 
L 178.661867 359.495911 
L 179.34991 358.581108 
L 180.037953 352.726368 
L 180.725996 352.909329 
L 181.414039 354.738935 
L 182.102082 352.360447 
L 182.790125 351.628605 
L 184.166211 320.708264 
L 184.854254 318.512737 
L 185.542297 315.768328 
L 186.23034 299.850756 
L 186.918383 300.033717 
L 187.606426 298.387071 
L 188.294469 305.339574 
L 188.982513 309.547668 
L 189.670556 314.487604 
L 190.358599 314.121683 
L 191.046642 307.901022 
L 191.734685 298.570032 
L 192.422728 297.472268 
L 193.110771 289.604963 
L 193.798814 290.336805 
L 194.486857 276.61476 
L 195.1749 276.61476 
L 195.862943 280.822854 
L 196.550986 279.908051 
L 197.239029 293.630096 
L 197.927072 303.144047 
L 198.615115 304.05885 
L 199.303158 304.24181 
L 199.991201 308.632865 
L 200.679244 306.986219 
L 201.367287 297.289308 
L 202.05533 295.093781 
L 202.743373 296.374505 
L 203.431416 291.98345 
L 204.119459 281.005815 
L 205.495546 295.093781 
L 206.183589 290.702726 
L 206.871632 299.301874 
L 207.559675 293.996017 
L 208.247718 306.986219 
L 208.935761 291.98345 
L 209.623804 291.068647 
L 210.311847 291.98345 
L 210.99989 288.87312 
L 211.687933 292.349372 
L 212.375976 288.324239 
L 213.064019 282.835421 
L 213.752062 290.336805 
L 214.440105 291.068647 
L 215.128148 295.093781 
L 215.816191 294.544899 
L 216.504234 294.91082 
L 217.192277 296.008584 
L 217.88032 300.399638 
L 218.568363 300.399638 
L 219.256406 301.863323 
L 219.944449 300.765559 
L 220.632492 298.752993 
L 221.320536 302.778126 
L 222.008579 289.422002 
L 222.696622 304.24181 
L 223.384665 304.973653 
L 224.072708 300.033717 
L 224.760751 304.24181 
L 226.136837 274.602194 
L 226.82488 280.639894 
L 227.512923 276.797721 
L 228.200966 278.261406 
L 228.889009 284.116145 
L 229.577052 287.226475 
L 230.953138 283.567263 
L 231.641181 289.970884 
L 232.329224 289.422002 
L 233.017267 291.251608 
L 233.70531 298.02115 
L 234.393353 296.008584 
L 235.081396 280.822854 
L 235.769439 295.276741 
L 236.457482 286.494633 
L 237.145526 288.69016 
L 237.833569 289.422002 
L 238.521612 288.507199 
L 239.209655 302.961086 
L 239.897698 321.988988 
L 240.585741 322.171949 
L 241.273784 329.673333 
L 241.961827 325.6482 
L 242.64987 311.011353 
L 243.337913 309.913589 
L 244.025956 310.645431 
L 244.713999 311.011353 
L 245.402042 308.449904 
L 246.778128 305.888456 
L 247.466171 303.692929 
L 248.154214 305.705495 
L 248.842257 327.111885 
L 249.5303 314.670564 
L 250.218343 322.903791 
L 250.906386 319.42754 
L 251.594429 323.818594 
L 252.282472 320.342343 
L 252.970516 318.329776 
L 253.658559 314.304643 
L 254.346602 308.266944 
L 255.034645 306.620298 
L 255.722688 306.986219 
L 256.410731 321.074185 
L 257.098774 320.708264 
L 257.786817 321.440106 
L 258.47486 320.891225 
L 259.162903 317.597934 
L 259.850946 304.790692 
L 260.538989 299.667796 
L 261.227032 291.251608 
L 261.915075 291.80049 
L 262.603118 287.409436 
L 263.291161 294.91082 
L 263.979204 296.191544 
L 264.667247 296.740426 
L 265.35529 294.361938 
L 266.043333 296.557465 
L 266.731376 287.592396 
L 267.419419 287.226475 
L 268.107462 294.178978 
L 268.795506 289.787923 
L 269.483549 287.592396 
L 270.171592 288.507199 
L 270.859635 281.554696 
L 271.547678 277.529563 
L 272.235721 283.018381 
L 272.923764 287.043514 
L 273.611807 302.229244 
L 274.29985 299.118914 
L 274.987893 309.364707 
L 275.675936 307.352141 
L 276.363979 308.632865 
L 277.052022 311.926155 
L 277.740065 311.194313 
L 278.428108 311.011353 
L 279.116151 313.572801 
L 279.804194 311.194313 
L 280.492237 322.354909 
L 281.18028 317.232013 
L 281.868323 310.645431 
L 282.556366 315.402407 
L 283.244409 321.074185 
L 283.932452 318.878658 
L 284.620495 327.294846 
L 285.308539 325.46524 
L 285.996582 320.891225 
L 286.684625 318.695698 
L 287.372668 320.342343 
L 288.060711 326.380043 
L 288.748754 323.269712 
L 290.12484 324.367476 
L 290.812883 326.380043 
L 291.500926 319.976422 
L 292.188969 322.171949 
L 292.877012 316.134249 
L 293.565055 313.938722 
L 294.253098 312.292077 
L 294.941141 323.086752 
L 295.629184 312.475037 
L 296.317227 311.560234 
L 297.00527 310.09655 
L 297.693313 312.292077 
L 298.381356 296.008584 
L 299.069399 296.923387 
L 299.757442 298.935953 
L 300.445485 301.497401 
L 301.133529 296.191544 
L 301.821572 296.008584 
L 302.509615 299.301874 
L 303.197658 297.289308 
L 303.885701 298.387071 
L 304.573744 297.83819 
L 305.261787 293.447135 
L 305.94983 290.885687 
L 306.637873 292.532332 
L 308.013959 289.970884 
L 308.702002 284.847987 
L 309.390045 302.595165 
L 310.766131 287.775357 
L 311.454174 276.065879 
L 312.142217 270.577061 
L 312.83026 275.334036 
L 313.518303 276.61476 
L 314.206346 273.138509 
L 314.894389 278.444366 
L 315.582432 281.737657 
L 316.270475 281.554696 
L 316.958519 284.482066 
L 317.646562 285.213908 
L 318.334605 282.835421 
L 319.022648 295.093781 
L 319.710691 298.752993 
L 320.398734 300.399638 
L 321.086777 307.901022 
L 321.77482 309.547668 
L 322.462863 313.572801 
L 323.150906 311.560234 
L 323.838949 321.806028 
L 324.526992 328.57557 
L 325.215035 331.502939 
L 325.903078 353.458211 
L 326.591121 350.896763 
L 327.279164 342.480575 
L 327.967207 347.237551 
L 328.65525 345.042023 
L 329.343293 345.773866 
L 330.031336 344.12722 
L 330.719379 343.029457 
L 331.407422 339.004324 
L 332.095465 342.663536 
L 332.783509 337.357678 
L 333.471552 335.528072 
L 334.159595 329.856294 
L 334.847638 330.405176 
L 335.535681 331.502939 
L 336.223724 330.588136 
L 336.911767 329.124452 
L 337.59981 328.209649 
L 338.287853 327.843727 
L 338.975896 335.162151 
L 339.663939 330.222215 
L 340.351982 333.332545 
L 341.040025 342.480575 
L 341.728068 340.285048 
L 342.416111 341.748733 
L 343.104154 340.102087 
L 343.792197 333.698466 
L 345.168283 340.102087 
L 345.856326 339.919127 
L 346.544369 341.199851 
L 347.232412 342.846496 
L 347.920455 350.713802 
L 348.608498 347.05459 
L 349.296542 348.152354 
L 349.984585 344.676102 
L 350.672628 347.237551 
L 351.360671 347.420511 
L 352.736757 351.994526 
L 353.4248 356.568541 
L 354.112843 350.347881 
L 354.800886 351.994526 
L 355.488929 355.104856 
L 356.176972 355.287817 
L 356.865015 355.653738 
L 357.553058 359.861832 
L 358.241101 356.019659 
L 358.929144 358.215186 
L 359.617187 356.934462 
L 360.30523 361.142556 
L 360.993273 360.044792 
L 361.681316 357.666305 
L 362.369359 358.398147 
L 363.057402 357.849265 
L 363.745445 363.338083 
L 364.433488 358.764068 
L 365.121532 358.215186 
L 365.809575 357.300383 
L 366.497618 356.934462 
L 367.185661 357.666305 
L 367.873704 363.704004 
L 368.561747 361.691438 
L 369.24979 357.849265 
L 369.937833 358.764068 
L 370.625876 356.934462 
L 372.001962 365.35065 
L 372.690005 365.167689 
L 373.378048 364.618807 
L 374.066091 354.555974 
L 374.754134 356.019659 
L 375.442177 354.555974 
L 376.13022 358.398147 
L 376.818263 356.751502 
L 377.506306 349.798999 
L 378.194349 352.909329 
L 378.882392 349.616038 
L 379.570435 349.98196 
L 380.258478 349.250117 
L 380.946522 347.603472 
L 382.322608 345.224984 
L 383.010651 347.786432 
L 383.698694 344.310181 
L 384.386737 347.420511 
L 385.07478 345.773866 
L 385.762823 341.931693 
L 386.450866 341.931693 
L 387.138909 336.259915 
L 387.826952 345.407945 
L 388.514995 345.224984 
L 389.203038 349.98196 
L 389.891081 348.518275 
L 390.579124 350.713802 
L 391.267167 357.666305 
L 391.95521 360.227753 
L 392.643253 364.801768 
L 393.331296 362.972162 
L 394.019339 359.861832 
L 395.395425 362.972162 
L 396.083468 354.555974 
L 396.771512 354.007093 
L 397.459555 355.287817 
L 398.147598 354.555974 
L 398.835641 355.287817 
L 400.211727 349.798999 
L 400.89977 349.250117 
L 401.587813 350.16492 
L 402.275856 350.347881 
L 402.963899 349.98196 
L 403.651942 349.433078 
L 404.339985 346.871629 
L 405.028028 347.05459 
L 405.716071 346.871629 
L 406.404114 346.871629 
L 407.092157 347.420511 
L 407.7802 344.12722 
L 408.468243 341.748733 
L 409.156286 336.808797 
L 409.844329 344.676102 
L 410.532372 346.139787 
L 411.220415 346.688669 
L 411.908458 346.871629 
L 412.596502 344.859063 
L 413.284545 339.187284 
L 413.972588 338.455442 
L 414.660631 338.821363 
L 415.348674 334.979191 
L 416.036717 333.881427 
L 416.72476 334.613269 
L 417.412803 333.698466 
L 418.100846 336.076954 
L 418.788889 330.771097 
L 419.476932 330.222215 
L 420.164975 315.951289 
L 420.853018 306.620298 
L 421.541061 312.109116 
L 422.229104 311.377274 
L 422.917147 316.31721 
L 423.60519 319.061619 
L 424.293233 316.50017 
L 424.981276 316.683131 
L 425.669319 317.597934 
L 426.357362 319.244579 
L 427.045405 331.319979 
L 427.733448 334.247348 
L 428.421491 341.01689 
L 429.109535 343.578339 
L 429.797578 344.12722 
L 430.485621 343.029457 
L 431.173664 345.956826 
L 431.861707 342.114654 
L 432.54975 346.505708 
L 433.237793 345.773866 
L 433.925836 346.139787 
L 434.613879 355.653738 
L 435.301922 355.653738 
L 435.989965 356.934462 
L 436.678008 356.568541 
L 437.366051 355.836699 
L 438.054094 358.581108 
L 438.742137 359.678871 
L 439.43018 358.215186 
L 440.118223 359.31295 
L 440.806266 356.38558 
L 441.494309 355.287817 
L 442.182352 355.470777 
L 442.870395 356.019659 
L 443.558438 355.470777 
L 444.246481 351.811565 
L 444.934525 349.250117 
L 445.622568 349.98196 
L 446.310611 349.98196 
L 446.998654 349.250117 
L 447.686697 362.057359 
L 449.062783 363.886965 
L 449.750826 339.004324 
L 450.438869 336.808797 
L 451.126912 330.039255 
L 451.814955 304.24181 
L 452.502998 292.532332 
L 453.191041 291.80049 
L 453.879084 269.662258 
L 454.567127 255.391331 
L 455.25517 255.574292 
L 455.943213 250.268435 
L 456.631256 224.105069 
L 457.319299 205.626049 
L 458.007342 209.468222 
L 458.695385 201.052034 
L 459.383428 177.998999 
L 460.071471 175.803472 
L 460.759515 174.522748 
L 461.447558 159.519979 
L 462.135601 154.214121 
L 462.823644 144.51721 
L 463.511687 164.825836 
L 464.19973 163.362151 
L 464.887773 158.422215 
L 465.575816 169.765772 
L 466.263859 173.059063 
L 466.951902 148.359382 
L 467.639945 164.825836 
L 468.327988 158.788136 
L 469.016031 142.870564 
L 469.704074 142.138722 
L 470.392117 154.580043 
L 471.08016 172.510181 
L 471.768203 170.863536 
L 472.456246 176.901235 
L 473.144289 195.197295 
L 473.832332 186.781108 
L 474.520375 163.728072 
L 475.208418 170.497614 
L 475.896461 169.765772 
L 476.584505 154.214121 
L 477.272548 158.788136 
L 479.336677 125.855229 
L 480.02472 130.429244 
L 480.712763 140.126155 
L 481.400806 144.51721 
L 482.088849 153.482279 
L 482.776892 166.10656 
L 483.464935 162.264388 
L 484.152978 168.850969 
L 484.841021 143.785367 
L 485.529064 134.271416 
L 486.217107 132.807732 
L 486.90515 138.662471 
L 487.593193 146.895698 
L 488.281236 161.349585 
L 488.969279 162.447348 
L 489.657322 142.870564 
L 490.345365 166.289521 
L 491.033408 165.9236 
L 491.721451 174.888669 
L 492.409494 197.941704 
L 493.097538 206.357891 
L 493.785581 183.670777 
L 494.473624 189.708477 
L 495.161667 188.976635 
L 495.84971 197.941704 
L 496.537753 175.986432 
L 497.225796 184.58558 
L 497.913839 183.121896 
L 498.601882 201.052034 
L 499.289925 203.979404 
L 499.977968 183.487817 
L 500.666011 173.973866 
L 501.354054 171.595378 
L 502.042097 180.743408 
L 502.73014 162.264388 
L 503.418183 172.876102 
L 504.106226 154.214121 
L 504.794269 153.482279 
L 505.482312 149.823067 
L 506.170355 126.404111 
L 506.858398 138.845431 
L 507.546441 138.845431 
L 508.234484 123.11082 
L 508.922528 116.524239 
L 509.610571 108.839894 
L 510.298614 113.96279 
L 510.986657 101.155548 
L 511.6747 106.278445 
L 513.050786 72.979617 
L 513.738829 93.105282 
L 514.426872 98.5941 
L 515.114915 78.102513 
L 515.802958 70.418168 
L 516.491001 89.994952 
L 517.179044 93.654164 
L 517.867087 108.108051 
L 518.55513 109.022854 
L 519.243173 105.912524 
L 519.931216 127.867796 
L 520.619259 125.306347 
L 521.307302 135.186219 
L 521.995345 136.101022 
L 522.683388 142.504643 
L 523.371431 138.47951 
L 524.059474 156.226688 
L 524.747518 163.728072 
L 525.435561 160.251821 
L 526.123604 163.179191 
L 526.811647 182.024132 
L 527.49969 178.730841 
L 528.187733 182.024132 
L 528.875776 197.758743 
L 529.563819 201.234995 
L 530.251862 201.966837 
L 530.939905 205.077167 
L 531.627948 209.285261 
L 532.315991 201.783876 
L 533.004034 206.906773 
L 533.692077 207.272694 
L 534.38012 208.736379 
L 535.068163 223.739148 
L 535.756206 231.423493 
L 536.444249 214.408158 
L 537.132292 221.543621 
L 537.820335 198.673546 
L 538.508378 201.417955 
L 539.196421 199.588349 
L 540.572508 212.761512 
L 541.260551 205.077167 
L 541.948594 195.197295 
L 542.636637 178.913802 
L 543.32468 168.850969 
L 544.700766 176.901235 
L 545.388809 168.850969 
L 546.076852 152.018594 
L 546.764895 151.835634 
L 547.452938 141.772801 
L 548.140981 133.356613 
L 548.829024 122.013056 
L 550.20511 145.249052 
L 550.893153 140.309116 
L 551.581196 140.309116 
L 552.269239 137.930628 
L 552.957282 126.587071 
L 553.645325 138.47951 
L 554.333368 134.454377 
L 555.021411 145.249052 
L 555.709454 143.053525 
L 556.397497 161.898466 
L 557.085541 171.778339 
L 557.773584 154.031161 
L 558.461627 155.128924 
L 559.14967 148.908264 
L 559.837713 169.765772 
L 560.525756 167.570245 
L 561.213799 169.21689 
L 561.901842 156.95853 
L 562.589885 164.642875 
L 563.277928 165.008797 
L 563.965971 168.485048 
L 564.654014 180.743408 
L 565.342057 200.137231 
L 566.0301 200.869073 
L 566.718143 219.348094 
L 567.406186 206.357891 
L 568.094229 207.638616 
L 568.782272 205.077167 
L 569.470315 216.054803 
L 570.846401 219.348094 
L 571.534444 234.167902 
L 572.222487 211.846709 
L 572.910531 202.149798 
L 573.598574 185.317423 
L 574.286617 183.121896 
L 574.97466 167.753206 
L 575.662703 167.753206 
L 576.350746 157.873333 
L 577.038789 151.469712 
L 577.726832 134.820298 
L 578.414875 110.669499 
L 579.102918 116.158317 
L 579.790961 104.81476 
L 580.479004 89.44607 
L 581.167047 78.468435 
L 581.85509 72.796656 
L 582.543133 55.415399 
L 583.231176 52.122109 
L 583.919219 51.939148 
L 584.607262 53.402833 
L 585.295305 53.036912 
L 585.983348 55.781321 
L 586.671391 69.320405 
L 587.359434 87.616464 
L 588.047477 93.471203 
L 588.735521 114.328711 
L 589.423564 122.013056 
L 590.111607 119.268647 
L 590.79965 105.180682 
L 591.487693 117.622002 
L 592.175736 142.504643 
L 592.863779 133.356613 
L 593.551822 129.697401 
L 594.239865 121.647135 
L 594.927908 139.394313 
L 595.615951 146.712737 
L 596.303994 165.191757 
L 596.992037 170.131693 
L 597.68008 172.876102 
L 598.368123 168.302087 
L 599.056166 161.349585 
L 600.432252 174.522748 
L 601.120295 171.961299 
L 601.808338 171.046496 
L 602.496381 155.128924 
L 603.184424 170.680575 
L 603.872467 168.119127 
L 604.560511 181.841171 
L 605.248554 184.58558 
L 605.936597 181.841171 
L 606.62464 188.061832 
L 607.312683 203.613482 
L 608.000726 225.019872 
L 608.688769 228.313163 
L 610.064855 229.959808 
L 610.752898 224.836912 
L 611.440941 215.505921 
L 612.817027 218.799212 
L 613.50507 222.824345 
L 614.193113 202.698679 
L 614.881156 201.966837 
L 615.569199 196.295059 
L 616.257242 202.88164 
L 616.945285 203.796443 
L 617.633328 210.931906 
L 618.321371 221.543621 
L 619.009414 224.105069 
L 619.697457 220.079936 
L 620.385501 206.357891 
L 621.073544 185.317423 
L 621.761587 183.304856 
L 622.44963 168.485048 
L 623.137673 157.324452 
L 623.825716 157.324452 
L 624.513759 155.860767 
L 625.201802 156.043727 
L 625.889845 160.800703 
L 626.577888 155.860767 
L 627.265931 142.504643 
L 627.953974 156.77557 
L 628.642017 161.715506 
L 629.33006 170.680575 
L 630.018103 159.519979 
L 630.706146 146.346816 
L 631.394189 152.201555 
L 632.082232 152.018594 
L 632.770275 152.384515 
L 633.458318 156.409649 
L 634.146361 168.302087 
L 634.834404 192.452886 
L 635.522447 194.465453 
L 636.21049 208.736379 
L 636.898534 213.493355 
L 637.586577 196.478019 
L 638.27462 183.670777 
L 638.962663 190.989201 
L 639.650706 186.415186 
L 640.338749 198.856507 
L 641.026792 213.310394 
L 641.714835 211.480788 
L 642.402878 187.147029 
L 643.090921 185.866305 
L 643.778964 187.329989 
L 644.467007 197.941704 
L 645.15505 190.62328 
L 645.843093 166.472481 
L 646.531136 167.387284 
L 647.219179 145.249052 
L 647.907222 137.381747 
L 648.595265 124.208584 
L 649.283308 107.559169 
L 649.971351 107.010288 
L 650.659394 101.70443 
L 652.03548 144.51721 
L 652.723524 137.015825 
L 653.411567 136.283983 
L 654.09961 132.075889 
L 654.787653 140.857998 
L 655.475696 153.482279 
L 656.163739 172.876102 
L 656.851782 158.422215 
L 657.539825 180.743408 
L 658.227868 169.03393 
L 658.915911 161.898466 
L 659.603954 161.898466 
L 660.291997 142.138722 
L 660.98004 142.138722 
L 661.668083 148.908264 
L 662.356126 153.482279 
L 663.044169 171.412417 
L 663.732212 162.813269 
L 664.420255 169.03393 
L 665.108298 164.825836 
L 665.796341 157.873333 
L 666.484384 163.728072 
L 667.172427 166.655442 
L 667.86047 162.447348 
L 668.548514 162.081427 
L 669.236557 157.141491 
L 669.9246 139.211353 
L 670.612643 149.091225 
L 671.300686 142.870564 
L 671.988729 157.507412 
L 672.676772 176.535314 
L 673.364815 184.951502 
L 674.052858 201.234995 
L 674.740901 213.310394 
L 675.428944 213.493355 
L 676.116987 214.957039 
L 676.80503 214.591118 
L 677.493073 211.297827 
L 678.181116 215.871842 
L 678.869159 219.165133 
L 679.557202 201.417955 
L 680.245245 204.894207 
L 680.933288 183.121896 
L 682.309374 177.267157 
L 682.997417 162.99623 
L 683.68546 176.718275 
L 684.373504 172.876102 
L 685.061547 179.645644 
L 685.74959 179.279723 
L 686.437633 169.03393 
L 687.125676 171.595378 
L 687.813719 159.702939 
L 688.501762 169.582812 
L 689.189805 170.131693 
L 689.877848 174.339787 
L 690.565891 173.242023 
L 691.253934 177.998999 
L 691.941977 178.18196 
L 692.63002 169.21689 
L 693.318063 187.329989 
L 694.006106 188.793674 
L 694.694149 189.708477 
L 695.382192 196.66098 
L 696.070235 196.112098 
L 696.758278 211.663749 
L 697.446321 215.322961 
L 698.134364 217.518488 
L 698.822407 200.503152 
L 699.51045 189.525517 
L 700.198493 176.169393 
L 700.886537 173.059063 
L 701.57458 181.29229 
L 702.262623 182.390053 
L 702.950666 169.21689 
L 703.638709 147.993461 
L 704.326752 143.968328 
L 705.014795 153.8482 
L 705.702838 129.697401 
L 706.390881 135.552141 
L 707.078924 138.113589 
L 707.766967 126.952993 
L 708.45501 138.662471 
L 709.143053 134.820298 
L 709.831096 126.22115 
L 710.519139 121.281214 
L 711.207182 114.145751 
L 711.895225 98.777061 
L 712.583268 113.96279 
L 713.271311 120.366411 
L 714.647397 145.066092 
L 715.33544 148.359382 
L 716.023483 144.70017 
L 716.711527 149.823067 
L 717.39957 165.557678 
L 718.087613 169.03393 
L 718.775656 156.409649 
L 719.463699 181.29229 
L 720.151742 160.434782 
L 720.839785 164.276954 
L 721.527828 174.705708 
L 722.215871 173.059063 
L 723.591957 190.62328 
L 724.28 192.635847 
L 724.28 192.635847 
" style="fill:none;stroke:#ff7f0e;stroke-linecap:square;stroke-width:1.5;"/>
   </g>
   <g id="patch_3">
    <path d="M 36.925 404.12 
L 36.925 26.16 
" style="fill:none;stroke:#000000;stroke-linecap:square;stroke-linejoin:miter;stroke-width:0.8;"/>
   </g>
   <g id="patch_4">
    <path d="M 724.28 404.12 
L 724.28 26.16 
" style="fill:none;stroke:#000000;stroke-linecap:square;stroke-linejoin:miter;stroke-width:0.8;"/>
   </g>
   <g id="patch_5">
    <path d="M 36.925 404.12 
L 724.28 404.12 
" style="fill:none;stroke:#000000;stroke-linecap:square;stroke-linejoin:miter;stroke-width:0.8;"/>
   </g>
   <g id="patch_6">
    <path d="M 36.925 26.16 
L 724.28 26.16 
" style="fill:none;stroke:#000000;stroke-linecap:square;stroke-linejoin:miter;stroke-width:0.8;"/>
   </g>
   <g id="text_11">
    <!-- multi_way_v1__1: episode duration, steps, MA=20 -->
    <defs>
     <path d="M 52 44.1875 
Q 55.375 50.25 60.0625 53.125 
Q 64.75 56 71.09375 56 
Q 79.640625 56 84.28125 50.015625 
Q 88.921875 44.046875 88.921875 33.015625 
L 88.921875 0 
L 79.890625 0 
L 79.890625 32.71875 
Q 79.890625 40.578125 77.09375 44.375 
Q 74.3125 48.1875 68.609375 48.1875 
Q 61.625 48.1875 57.5625 43.546875 
Q 53.515625 38.921875 53.515625 30.90625 
L 53.515625 0 
L 44.484375 0 
L 44.484375 32.71875 
Q 44.484375 40.625 41.703125 44.40625 
Q 38.921875 48.1875 33.109375 48.1875 
Q 26.21875 48.1875 22.15625 43.53125 
Q 18.109375 38.875 18.109375 30.90625 
L 18.109375 0 
L 9.078125 0 
L 9.078125 54.6875 
L 18.109375 54.6875 
L 18.109375 46.1875 
Q 21.1875 51.21875 25.484375 53.609375 
Q 29.78125 56 35.6875 56 
Q 41.65625 56 45.828125 52.96875 
Q 50 49.953125 52 44.1875 
z
" id="DejaVuSans-109"/>
     <path d="M 8.5 21.578125 
L 8.5 54.6875 
L 17.484375 54.6875 
L 17.484375 21.921875 
Q 17.484375 14.15625 20.5 10.265625 
Q 23.53125 6.390625 29.59375 6.390625 
Q 36.859375 6.390625 41.078125 11.03125 
Q 45.3125 15.671875 45.3125 23.6875 
L 45.3125 54.6875 
L 54.296875 54.6875 
L 54.296875 0 
L 45.3125 0 
L 45.3125 8.40625 
Q 42.046875 3.421875 37.71875 1 
Q 33.40625 -1.421875 27.6875 -1.421875 
Q 18.265625 -1.421875 13.375 4.4375 
Q 8.5 10.296875 8.5 21.578125 
z
M 31.109375 56 
z
" id="DejaVuSans-117"/>
     <path d="M 9.421875 75.984375 
L 18.40625 75.984375 
L 18.40625 0 
L 9.421875 0 
z
" id="DejaVuSans-108"/>
     <path d="M 18.3125 70.21875 
L 18.3125 54.6875 
L 36.8125 54.6875 
L 36.8125 47.703125 
L 18.3125 47.703125 
L 18.3125 18.015625 
Q 18.3125 11.328125 20.140625 9.421875 
Q 21.96875 7.515625 27.59375 7.515625 
L 36.8125 7.515625 
L 36.8125 0 
L 27.59375 0 
Q 17.1875 0 13.234375 3.875 
Q 9.28125 7.765625 9.28125 18.015625 
L 9.28125 47.703125 
L 2.6875 47.703125 
L 2.6875 54.6875 
L 9.28125 54.6875 
L 9.28125 70.21875 
z
" id="DejaVuSans-116"/>
     <path d="M 9.421875 54.6875 
L 18.40625 54.6875 
L 18.40625 0 
L 9.421875 0 
z
M 9.421875 75.984375 
L 18.40625 75.984375 
L 18.40625 64.59375 
L 9.421875 64.59375 
z
" id="DejaVuSans-105"/>
     <path d="M 50.984375 -16.609375 
L 50.984375 -23.578125 
L -0.984375 -23.578125 
L -0.984375 -16.609375 
z
" id="DejaVuSans-95"/>
     <path d="M 4.203125 54.6875 
L 13.1875 54.6875 
L 24.421875 12.015625 
L 35.59375 54.6875 
L 46.1875 54.6875 
L 57.421875 12.015625 
L 68.609375 54.6875 
L 77.59375 54.6875 
L 63.28125 0 
L 52.6875 0 
L 40.921875 44.828125 
L 29.109375 0 
L 18.5 0 
z
" id="DejaVuSans-119"/>
     <path d="M 34.28125 27.484375 
Q 23.390625 27.484375 19.1875 25 
Q 14.984375 22.515625 14.984375 16.5 
Q 14.984375 11.71875 18.140625 8.90625 
Q 21.296875 6.109375 26.703125 6.109375 
Q 34.1875 6.109375 38.703125 11.40625 
Q 43.21875 16.703125 43.21875 25.484375 
L 43.21875 27.484375 
z
M 52.203125 31.203125 
L 52.203125 0 
L 43.21875 0 
L 43.21875 8.296875 
Q 40.140625 3.328125 35.546875 0.953125 
Q 30.953125 -1.421875 24.3125 -1.421875 
Q 15.921875 -1.421875 10.953125 3.296875 
Q 6 8.015625 6 15.921875 
Q 6 25.140625 12.171875 29.828125 
Q 18.359375 34.515625 30.609375 34.515625 
L 43.21875 34.515625 
L 43.21875 35.40625 
Q 43.21875 41.609375 39.140625 45 
Q 35.0625 48.390625 27.6875 48.390625 
Q 23 48.390625 18.546875 47.265625 
Q 14.109375 46.140625 10.015625 43.890625 
L 10.015625 52.203125 
Q 14.9375 54.109375 19.578125 55.046875 
Q 24.21875 56 28.609375 56 
Q 40.484375 56 46.34375 49.84375 
Q 52.203125 43.703125 52.203125 31.203125 
z
" id="DejaVuSans-97"/>
     <path d="M 32.171875 -5.078125 
Q 28.375 -14.84375 24.75 -17.8125 
Q 21.140625 -20.796875 15.09375 -20.796875 
L 7.90625 -20.796875 
L 7.90625 -13.28125 
L 13.1875 -13.28125 
Q 16.890625 -13.28125 18.9375 -11.515625 
Q 21 -9.765625 23.484375 -3.21875 
L 25.09375 0.875 
L 2.984375 54.6875 
L 12.5 54.6875 
L 29.59375 11.921875 
L 46.6875 54.6875 
L 56.203125 54.6875 
z
" id="DejaVuSans-121"/>
     <path d="M 2.984375 54.6875 
L 12.5 54.6875 
L 29.59375 8.796875 
L 46.6875 54.6875 
L 56.203125 54.6875 
L 35.6875 0 
L 23.484375 0 
z
" id="DejaVuSans-118"/>
     <path d="M 11.71875 12.40625 
L 22.015625 12.40625 
L 22.015625 0 
L 11.71875 0 
z
M 11.71875 51.703125 
L 22.015625 51.703125 
L 22.015625 39.3125 
L 11.71875 39.3125 
z
" id="DejaVuSans-58"/>
     <path id="DejaVuSans-32"/>
     <path d="M 56.203125 29.59375 
L 56.203125 25.203125 
L 14.890625 25.203125 
Q 15.484375 15.921875 20.484375 11.0625 
Q 25.484375 6.203125 34.421875 6.203125 
Q 39.59375 6.203125 44.453125 7.46875 
Q 49.3125 8.734375 54.109375 11.28125 
L 54.109375 2.78125 
Q 49.265625 0.734375 44.1875 -0.34375 
Q 39.109375 -1.421875 33.890625 -1.421875 
Q 20.796875 -1.421875 13.15625 6.1875 
Q 5.515625 13.8125 5.515625 26.8125 
Q 5.515625 40.234375 12.765625 48.109375 
Q 20.015625 56 32.328125 56 
Q 43.359375 56 49.78125 48.890625 
Q 56.203125 41.796875 56.203125 29.59375 
z
M 47.21875 32.234375 
Q 47.125 39.59375 43.09375 43.984375 
Q 39.0625 48.390625 32.421875 48.390625 
Q 24.90625 48.390625 20.390625 44.140625 
Q 15.875 39.890625 15.1875 32.171875 
z
" id="DejaVuSans-101"/>
     <path d="M 18.109375 8.203125 
L 18.109375 -20.796875 
L 9.078125 -20.796875 
L 9.078125 54.6875 
L 18.109375 54.6875 
L 18.109375 46.390625 
Q 20.953125 51.265625 25.265625 53.625 
Q 29.59375 56 35.59375 56 
Q 45.5625 56 51.78125 48.09375 
Q 58.015625 40.1875 58.015625 27.296875 
Q 58.015625 14.40625 51.78125 6.484375 
Q 45.5625 -1.421875 35.59375 -1.421875 
Q 29.59375 -1.421875 25.265625 0.953125 
Q 20.953125 3.328125 18.109375 8.203125 
z
M 48.6875 27.296875 
Q 48.6875 37.203125 44.609375 42.84375 
Q 40.53125 48.484375 33.40625 48.484375 
Q 26.265625 48.484375 22.1875 42.84375 
Q 18.109375 37.203125 18.109375 27.296875 
Q 18.109375 17.390625 22.1875 11.75 
Q 26.265625 6.109375 33.40625 6.109375 
Q 40.53125 6.109375 44.609375 11.75 
Q 48.6875 17.390625 48.6875 27.296875 
z
" id="DejaVuSans-112"/>
     <path d="M 44.28125 53.078125 
L 44.28125 44.578125 
Q 40.484375 46.53125 36.375 47.5 
Q 32.28125 48.484375 27.875 48.484375 
Q 21.1875 48.484375 17.84375 46.4375 
Q 14.5 44.390625 14.5 40.28125 
Q 14.5 37.15625 16.890625 35.375 
Q 19.28125 33.59375 26.515625 31.984375 
L 29.59375 31.296875 
Q 39.15625 29.25 43.1875 25.515625 
Q 47.21875 21.78125 47.21875 15.09375 
Q 47.21875 7.46875 41.1875 3.015625 
Q 35.15625 -1.421875 24.609375 -1.421875 
Q 20.21875 -1.421875 15.453125 -0.5625 
Q 10.6875 0.296875 5.421875 2 
L 5.421875 11.28125 
Q 10.40625 8.6875 15.234375 7.390625 
Q 20.0625 6.109375 24.8125 6.109375 
Q 31.15625 6.109375 34.5625 8.28125 
Q 37.984375 10.453125 37.984375 14.40625 
Q 37.984375 18.0625 35.515625 20.015625 
Q 33.0625 21.96875 24.703125 23.78125 
L 21.578125 24.515625 
Q 13.234375 26.265625 9.515625 29.90625 
Q 5.8125 33.546875 5.8125 39.890625 
Q 5.8125 47.609375 11.28125 51.796875 
Q 16.75 56 26.8125 56 
Q 31.78125 56 36.171875 55.265625 
Q 40.578125 54.546875 44.28125 53.078125 
z
" id="DejaVuSans-115"/>
     <path d="M 30.609375 48.390625 
Q 23.390625 48.390625 19.1875 42.75 
Q 14.984375 37.109375 14.984375 27.296875 
Q 14.984375 17.484375 19.15625 11.84375 
Q 23.34375 6.203125 30.609375 6.203125 
Q 37.796875 6.203125 41.984375 11.859375 
Q 46.1875 17.53125 46.1875 27.296875 
Q 46.1875 37.015625 41.984375 42.703125 
Q 37.796875 48.390625 30.609375 48.390625 
z
M 30.609375 56 
Q 42.328125 56 49.015625 48.375 
Q 55.71875 40.765625 55.71875 27.296875 
Q 55.71875 13.875 49.015625 6.21875 
Q 42.328125 -1.421875 30.609375 -1.421875 
Q 18.84375 -1.421875 12.171875 6.21875 
Q 5.515625 13.875 5.515625 27.296875 
Q 5.515625 40.765625 12.171875 48.375 
Q 18.84375 56 30.609375 56 
z
" id="DejaVuSans-111"/>
     <path d="M 45.40625 46.390625 
L 45.40625 75.984375 
L 54.390625 75.984375 
L 54.390625 0 
L 45.40625 0 
L 45.40625 8.203125 
Q 42.578125 3.328125 38.25 0.953125 
Q 33.9375 -1.421875 27.875 -1.421875 
Q 17.96875 -1.421875 11.734375 6.484375 
Q 5.515625 14.40625 5.515625 27.296875 
Q 5.515625 40.1875 11.734375 48.09375 
Q 17.96875 56 27.875 56 
Q 33.9375 56 38.25 53.625 
Q 42.578125 51.265625 45.40625 46.390625 
z
M 14.796875 27.296875 
Q 14.796875 17.390625 18.875 11.75 
Q 22.953125 6.109375 30.078125 6.109375 
Q 37.203125 6.109375 41.296875 11.75 
Q 45.40625 17.390625 45.40625 27.296875 
Q 45.40625 37.203125 41.296875 42.84375 
Q 37.203125 48.484375 30.078125 48.484375 
Q 22.953125 48.484375 18.875 42.84375 
Q 14.796875 37.203125 14.796875 27.296875 
z
" id="DejaVuSans-100"/>
     <path d="M 41.109375 46.296875 
Q 39.59375 47.171875 37.8125 47.578125 
Q 36.03125 48 33.890625 48 
Q 26.265625 48 22.1875 43.046875 
Q 18.109375 38.09375 18.109375 28.8125 
L 18.109375 0 
L 9.078125 0 
L 9.078125 54.6875 
L 18.109375 54.6875 
L 18.109375 46.1875 
Q 20.953125 51.171875 25.484375 53.578125 
Q 30.03125 56 36.53125 56 
Q 37.453125 56 38.578125 55.875 
Q 39.703125 55.765625 41.0625 55.515625 
z
" id="DejaVuSans-114"/>
     <path d="M 54.890625 33.015625 
L 54.890625 0 
L 45.90625 0 
L 45.90625 32.71875 
Q 45.90625 40.484375 42.875 44.328125 
Q 39.84375 48.1875 33.796875 48.1875 
Q 26.515625 48.1875 22.3125 43.546875 
Q 18.109375 38.921875 18.109375 30.90625 
L 18.109375 0 
L 9.078125 0 
L 9.078125 54.6875 
L 18.109375 54.6875 
L 18.109375 46.1875 
Q 21.34375 51.125 25.703125 53.5625 
Q 30.078125 56 35.796875 56 
Q 45.21875 56 50.046875 50.171875 
Q 54.890625 44.34375 54.890625 33.015625 
z
" id="DejaVuSans-110"/>
     <path d="M 11.71875 12.40625 
L 22.015625 12.40625 
L 22.015625 4 
L 14.015625 -11.625 
L 7.71875 -11.625 
L 11.71875 4 
z
" id="DejaVuSans-44"/>
     <path d="M 9.8125 72.90625 
L 24.515625 72.90625 
L 43.109375 23.296875 
L 61.8125 72.90625 
L 76.515625 72.90625 
L 76.515625 0 
L 66.890625 0 
L 66.890625 64.015625 
L 48.09375 14.015625 
L 38.1875 14.015625 
L 19.390625 64.015625 
L 19.390625 0 
L 9.8125 0 
z
" id="DejaVuSans-77"/>
     <path d="M 34.1875 63.1875 
L 20.796875 26.90625 
L 47.609375 26.90625 
z
M 28.609375 72.90625 
L 39.796875 72.90625 
L 67.578125 0 
L 57.328125 0 
L 50.6875 18.703125 
L 17.828125 18.703125 
L 11.1875 0 
L 0.78125 0 
z
" id="DejaVuSans-65"/>
     <path d="M 10.59375 45.40625 
L 73.1875 45.40625 
L 73.1875 37.203125 
L 10.59375 37.203125 
z
M 10.59375 25.484375 
L 73.1875 25.484375 
L 73.1875 17.1875 
L 10.59375 17.1875 
z
" id="DejaVuSans-61"/>
    </defs>
    <g transform="translate(229.724062 20.16)scale(0.12 -0.12)">
     <use xlink:href="#DejaVuSans-109"/>
     <use x="97.412109" xlink:href="#DejaVuSans-117"/>
     <use x="160.791016" xlink:href="#DejaVuSans-108"/>
     <use x="188.574219" xlink:href="#DejaVuSans-116"/>
     <use x="227.783203" xlink:href="#DejaVuSans-105"/>
     <use x="255.566406" xlink:href="#DejaVuSans-95"/>
     <use x="305.566406" xlink:href="#DejaVuSans-119"/>
     <use x="387.353516" xlink:href="#DejaVuSans-97"/>
     <use x="448.632812" xlink:href="#DejaVuSans-121"/>
     <use x="507.8125" xlink:href="#DejaVuSans-95"/>
     <use x="557.8125" xlink:href="#DejaVuSans-118"/>
     <use x="616.992188" xlink:href="#DejaVuSans-49"/>
     <use x="680.615234" xlink:href="#DejaVuSans-95"/>
     <use x="730.615234" xlink:href="#DejaVuSans-95"/>
     <use x="780.615234" xlink:href="#DejaVuSans-49"/>
     <use x="844.238281" xlink:href="#DejaVuSans-58"/>
     <use x="877.929688" xlink:href="#DejaVuSans-32"/>
     <use x="909.716797" xlink:href="#DejaVuSans-101"/>
     <use x="971.240234" xlink:href="#DejaVuSans-112"/>
     <use x="1034.716797" xlink:href="#DejaVuSans-105"/>
     <use x="1062.5" xlink:href="#DejaVuSans-115"/>
     <use x="1114.599609" xlink:href="#DejaVuSans-111"/>
     <use x="1175.78125" xlink:href="#DejaVuSans-100"/>
     <use x="1239.257812" xlink:href="#DejaVuSans-101"/>
     <use x="1300.78125" xlink:href="#DejaVuSans-32"/>
     <use x="1332.568359" xlink:href="#DejaVuSans-100"/>
     <use x="1396.044922" xlink:href="#DejaVuSans-117"/>
     <use x="1459.423828" xlink:href="#DejaVuSans-114"/>
     <use x="1500.537109" xlink:href="#DejaVuSans-97"/>
     <use x="1561.816406" xlink:href="#DejaVuSans-116"/>
     <use x="1601.025391" xlink:href="#DejaVuSans-105"/>
     <use x="1628.808594" xlink:href="#DejaVuSans-111"/>
     <use x="1689.990234" xlink:href="#DejaVuSans-110"/>
     <use x="1753.369141" xlink:href="#DejaVuSans-44"/>
     <use x="1785.15625" xlink:href="#DejaVuSans-32"/>
     <use x="1816.943359" xlink:href="#DejaVuSans-115"/>
     <use x="1869.042969" xlink:href="#DejaVuSans-116"/>
     <use x="1908.251953" xlink:href="#DejaVuSans-101"/>
     <use x="1969.775391" xlink:href="#DejaVuSans-112"/>
     <use x="2033.251953" xlink:href="#DejaVuSans-115"/>
     <use x="2085.351562" xlink:href="#DejaVuSans-44"/>
     <use x="2117.138672" xlink:href="#DejaVuSans-32"/>
     <use x="2148.925781" xlink:href="#DejaVuSans-77"/>
     <use x="2235.205078" xlink:href="#DejaVuSans-65"/>
     <use x="2303.613281" xlink:href="#DejaVuSans-61"/>
     <use x="2387.402344" xlink:href="#DejaVuSans-50"/>
     <use x="2451.025391" xlink:href="#DejaVuSans-48"/>
    </g>
   </g>
   <g id="legend_1">
    <g id="patch_7">
     <path d="M 773.679125 231.59625 
L 854.751 231.59625 
Q 856.751 231.59625 856.751 229.59625 
L 856.751 200.68375 
Q 856.751 198.68375 854.751 198.68375 
L 773.679125 198.68375 
Q 771.679125 198.68375 771.679125 200.68375 
L 771.679125 229.59625 
Q 771.679125 231.59625 773.679125 231.59625 
z
" style="fill:#ffffff;opacity:0.8;stroke:#cccccc;stroke-linejoin:miter;"/>
    </g>
    <g id="line2d_13">
     <path d="M 775.679125 206.782187 
L 795.679125 206.782187 
" style="fill:none;stroke:#1f77b4;stroke-linecap:square;stroke-width:1.5;"/>
    </g>
    <g id="line2d_14"/>
    <g id="text_12">
     <!-- htm_1_1g -->
     <defs>
      <path d="M 54.890625 33.015625 
L 54.890625 0 
L 45.90625 0 
L 45.90625 32.71875 
Q 45.90625 40.484375 42.875 44.328125 
Q 39.84375 48.1875 33.796875 48.1875 
Q 26.515625 48.1875 22.3125 43.546875 
Q 18.109375 38.921875 18.109375 30.90625 
L 18.109375 0 
L 9.078125 0 
L 9.078125 75.984375 
L 18.109375 75.984375 
L 18.109375 46.1875 
Q 21.34375 51.125 25.703125 53.5625 
Q 30.078125 56 35.796875 56 
Q 45.21875 56 50.046875 50.171875 
Q 54.890625 44.34375 54.890625 33.015625 
z
" id="DejaVuSans-104"/>
      <path d="M 45.40625 27.984375 
Q 45.40625 37.75 41.375 43.109375 
Q 37.359375 48.484375 30.078125 48.484375 
Q 22.859375 48.484375 18.828125 43.109375 
Q 14.796875 37.75 14.796875 27.984375 
Q 14.796875 18.265625 18.828125 12.890625 
Q 22.859375 7.515625 30.078125 7.515625 
Q 37.359375 7.515625 41.375 12.890625 
Q 45.40625 18.265625 45.40625 27.984375 
z
M 54.390625 6.78125 
Q 54.390625 -7.171875 48.1875 -13.984375 
Q 42 -20.796875 29.203125 -20.796875 
Q 24.46875 -20.796875 20.265625 -20.09375 
Q 16.0625 -19.390625 12.109375 -17.921875 
L 12.109375 -9.1875 
Q 16.0625 -11.328125 19.921875 -12.34375 
Q 23.78125 -13.375 27.78125 -13.375 
Q 36.625 -13.375 41.015625 -8.765625 
Q 45.40625 -4.15625 45.40625 5.171875 
L 45.40625 9.625 
Q 42.625 4.78125 38.28125 2.390625 
Q 33.9375 0 27.875 0 
Q 17.828125 0 11.671875 7.65625 
Q 5.515625 15.328125 5.515625 27.984375 
Q 5.515625 40.671875 11.671875 48.328125 
Q 17.828125 56 27.875 56 
Q 33.9375 56 38.28125 53.609375 
Q 42.625 51.21875 45.40625 46.390625 
L 45.40625 54.6875 
L 54.390625 54.6875 
z
" id="DejaVuSans-103"/>
     </defs>
     <g transform="translate(803.679125 210.282187)scale(0.1 -0.1)">
      <use xlink:href="#DejaVuSans-104"/>
      <use x="63.378906" xlink:href="#DejaVuSans-116"/>
      <use x="102.587891" xlink:href="#DejaVuSans-109"/>
      <use x="200" xlink:href="#DejaVuSans-95"/>
      <use x="250" xlink:href="#DejaVuSans-49"/>
      <use x="313.623047" xlink:href="#DejaVuSans-95"/>
      <use x="363.623047" xlink:href="#DejaVuSans-49"/>
      <use x="427.246094" xlink:href="#DejaVuSans-103"/>
     </g>
    </g>
    <g id="line2d_15">
     <path d="M 775.679125 221.738437 
L 795.679125 221.738437 
" style="fill:none;stroke:#ff7f0e;stroke-linecap:square;stroke-width:1.5;"/>
    </g>
    <g id="line2d_16"/>
    <g id="text_13">
     <!-- htm_1 -->
     <g transform="translate(803.679125 225.238437)scale(0.1 -0.1)">
      <use xlink:href="#DejaVuSans-104"/>
      <use x="63.378906" xlink:href="#DejaVuSans-116"/>
      <use x="102.587891" xlink:href="#DejaVuSans-109"/>
      <use x="200" xlink:href="#DejaVuSans-95"/>
      <use x="250" xlink:href="#DejaVuSans-49"/>
     </g>
    </g>
   </g>
  </g>
 </g>
 <defs>
  <clipPath id="pba13b644a5">
   <rect height="377.96" width="687.355" x="36.925" y="26.16"/>
  </clipPath>
 </defs>
</svg>
