<?xml version="1.0" encoding="utf-8" standalone="no"?>
<!DOCTYPE svg PUBLIC "-//W3C//DTD SVG 1.1//EN"
  "http://www.w3.org/Graphics/SVG/1.1/DTD/svg11.dtd">
<!-- Created with matplotlib (https://matplotlib.org/) -->
<svg height="432pt" version="1.1" viewBox="0 0 864 432" width="864pt" xmlns="http://www.w3.org/2000/svg" xmlns:xlink="http://www.w3.org/1999/xlink">
 <defs>
  <style type="text/css">
*{stroke-linecap:butt;stroke-linejoin:round;}
  </style>
 </defs>
 <g id="figure_1">
  <g id="patch_1">
   <path d="M 0 432 
L 864 432 
L 864 0 
L 0 0 
z
" style="fill:#ffffff;"/>
  </g>
  <g id="axes_1">
   <g id="patch_2">
    <path d="M 42.1 404.12 
L 724.28 404.12 
L 724.28 26.52 
L 42.1 26.52 
z
" style="fill:#ffffff;"/>
   </g>
   <g id="matplotlib.axis_1">
    <g id="xtick_1">
     <g id="line2d_1">
      <defs>
       <path d="M 0 0 
L 0 3.5 
" id="m9fa3fc4f6c" style="stroke:#000000;stroke-width:0.8;"/>
      </defs>
      <g>
       <use style="stroke:#000000;stroke-width:0.8;" x="42.1" xlink:href="#m9fa3fc4f6c" y="404.12"/>
      </g>
     </g>
     <g id="text_1">
      <!-- 0 -->
      <defs>
       <path d="M 31.78125 66.40625 
Q 24.171875 66.40625 20.328125 58.90625 
Q 16.5 51.421875 16.5 36.375 
Q 16.5 21.390625 20.328125 13.890625 
Q 24.171875 6.390625 31.78125 6.390625 
Q 39.453125 6.390625 43.28125 13.890625 
Q 47.125 21.390625 47.125 36.375 
Q 47.125 51.421875 43.28125 58.90625 
Q 39.453125 66.40625 31.78125 66.40625 
z
M 31.78125 74.21875 
Q 44.046875 74.21875 50.515625 64.515625 
Q 56.984375 54.828125 56.984375 36.375 
Q 56.984375 17.96875 50.515625 8.265625 
Q 44.046875 -1.421875 31.78125 -1.421875 
Q 19.53125 -1.421875 13.0625 8.265625 
Q 6.59375 17.96875 6.59375 36.375 
Q 6.59375 54.828125 13.0625 64.515625 
Q 19.53125 74.21875 31.78125 74.21875 
z
" id="DejaVuSans-48"/>
      </defs>
      <g transform="translate(38.91875 418.718437)scale(0.1 -0.1)">
       <use xlink:href="#DejaVuSans-48"/>
      </g>
     </g>
    </g>
    <g id="xtick_2">
     <g id="line2d_2">
      <g>
       <use style="stroke:#000000;stroke-width:0.8;" x="155.986477" xlink:href="#m9fa3fc4f6c" y="404.12"/>
      </g>
     </g>
     <g id="text_2">
      <!-- 100 -->
      <defs>
       <path d="M 12.40625 8.296875 
L 28.515625 8.296875 
L 28.515625 63.921875 
L 10.984375 60.40625 
L 10.984375 69.390625 
L 28.421875 72.90625 
L 38.28125 72.90625 
L 38.28125 8.296875 
L 54.390625 8.296875 
L 54.390625 0 
L 12.40625 0 
z
" id="DejaVuSans-49"/>
      </defs>
      <g transform="translate(146.442727 418.718437)scale(0.1 -0.1)">
       <use xlink:href="#DejaVuSans-49"/>
       <use x="63.623047" xlink:href="#DejaVuSans-48"/>
       <use x="127.246094" xlink:href="#DejaVuSans-48"/>
      </g>
     </g>
    </g>
    <g id="xtick_3">
     <g id="line2d_3">
      <g>
       <use style="stroke:#000000;stroke-width:0.8;" x="269.872955" xlink:href="#m9fa3fc4f6c" y="404.12"/>
      </g>
     </g>
     <g id="text_3">
      <!-- 200 -->
      <defs>
       <path d="M 19.1875 8.296875 
L 53.609375 8.296875 
L 53.609375 0 
L 7.328125 0 
L 7.328125 8.296875 
Q 12.9375 14.109375 22.625 23.890625 
Q 32.328125 33.6875 34.8125 36.53125 
Q 39.546875 41.84375 41.421875 45.53125 
Q 43.3125 49.21875 43.3125 52.78125 
Q 43.3125 58.59375 39.234375 62.25 
Q 35.15625 65.921875 28.609375 65.921875 
Q 23.96875 65.921875 18.8125 64.3125 
Q 13.671875 62.703125 7.8125 59.421875 
L 7.8125 69.390625 
Q 13.765625 71.78125 18.9375 73 
Q 24.125 74.21875 28.421875 74.21875 
Q 39.75 74.21875 46.484375 68.546875 
Q 53.21875 62.890625 53.21875 53.421875 
Q 53.21875 48.921875 51.53125 44.890625 
Q 49.859375 40.875 45.40625 35.40625 
Q 44.1875 33.984375 37.640625 27.21875 
Q 31.109375 20.453125 19.1875 8.296875 
z
" id="DejaVuSans-50"/>
      </defs>
      <g transform="translate(260.329205 418.718437)scale(0.1 -0.1)">
       <use xlink:href="#DejaVuSans-50"/>
       <use x="63.623047" xlink:href="#DejaVuSans-48"/>
       <use x="127.246094" xlink:href="#DejaVuSans-48"/>
      </g>
     </g>
    </g>
    <g id="xtick_4">
     <g id="line2d_4">
      <g>
       <use style="stroke:#000000;stroke-width:0.8;" x="383.759432" xlink:href="#m9fa3fc4f6c" y="404.12"/>
      </g>
     </g>
     <g id="text_4">
      <!-- 300 -->
      <defs>
       <path d="M 40.578125 39.3125 
Q 47.65625 37.796875 51.625 33 
Q 55.609375 28.21875 55.609375 21.1875 
Q 55.609375 10.40625 48.1875 4.484375 
Q 40.765625 -1.421875 27.09375 -1.421875 
Q 22.515625 -1.421875 17.65625 -0.515625 
Q 12.796875 0.390625 7.625 2.203125 
L 7.625 11.71875 
Q 11.71875 9.328125 16.59375 8.109375 
Q 21.484375 6.890625 26.8125 6.890625 
Q 36.078125 6.890625 40.9375 10.546875 
Q 45.796875 14.203125 45.796875 21.1875 
Q 45.796875 27.640625 41.28125 31.265625 
Q 36.765625 34.90625 28.71875 34.90625 
L 20.21875 34.90625 
L 20.21875 43.015625 
L 29.109375 43.015625 
Q 36.375 43.015625 40.234375 45.921875 
Q 44.09375 48.828125 44.09375 54.296875 
Q 44.09375 59.90625 40.109375 62.90625 
Q 36.140625 65.921875 28.71875 65.921875 
Q 24.65625 65.921875 20.015625 65.03125 
Q 15.375 64.15625 9.8125 62.3125 
L 9.8125 71.09375 
Q 15.4375 72.65625 20.34375 73.4375 
Q 25.25 74.21875 29.59375 74.21875 
Q 40.828125 74.21875 47.359375 69.109375 
Q 53.90625 64.015625 53.90625 55.328125 
Q 53.90625 49.265625 50.4375 45.09375 
Q 46.96875 40.921875 40.578125 39.3125 
z
" id="DejaVuSans-51"/>
      </defs>
      <g transform="translate(374.215682 418.718437)scale(0.1 -0.1)">
       <use xlink:href="#DejaVuSans-51"/>
       <use x="63.623047" xlink:href="#DejaVuSans-48"/>
       <use x="127.246094" xlink:href="#DejaVuSans-48"/>
      </g>
     </g>
    </g>
    <g id="xtick_5">
     <g id="line2d_5">
      <g>
       <use style="stroke:#000000;stroke-width:0.8;" x="497.64591" xlink:href="#m9fa3fc4f6c" y="404.12"/>
      </g>
     </g>
     <g id="text_5">
      <!-- 400 -->
      <defs>
       <path d="M 37.796875 64.3125 
L 12.890625 25.390625 
L 37.796875 25.390625 
z
M 35.203125 72.90625 
L 47.609375 72.90625 
L 47.609375 25.390625 
L 58.015625 25.390625 
L 58.015625 17.1875 
L 47.609375 17.1875 
L 47.609375 0 
L 37.796875 0 
L 37.796875 17.1875 
L 4.890625 17.1875 
L 4.890625 26.703125 
z
" id="DejaVuSans-52"/>
      </defs>
      <g transform="translate(488.10216 418.718437)scale(0.1 -0.1)">
       <use xlink:href="#DejaVuSans-52"/>
       <use x="63.623047" xlink:href="#DejaVuSans-48"/>
       <use x="127.246094" xlink:href="#DejaVuSans-48"/>
      </g>
     </g>
    </g>
    <g id="xtick_6">
     <g id="line2d_6">
      <g>
       <use style="stroke:#000000;stroke-width:0.8;" x="611.532387" xlink:href="#m9fa3fc4f6c" y="404.12"/>
      </g>
     </g>
     <g id="text_6">
      <!-- 500 -->
      <defs>
       <path d="M 10.796875 72.90625 
L 49.515625 72.90625 
L 49.515625 64.59375 
L 19.828125 64.59375 
L 19.828125 46.734375 
Q 21.96875 47.46875 24.109375 47.828125 
Q 26.265625 48.1875 28.421875 48.1875 
Q 40.625 48.1875 47.75 41.5 
Q 54.890625 34.8125 54.890625 23.390625 
Q 54.890625 11.625 47.5625 5.09375 
Q 40.234375 -1.421875 26.90625 -1.421875 
Q 22.3125 -1.421875 17.546875 -0.640625 
Q 12.796875 0.140625 7.71875 1.703125 
L 7.71875 11.625 
Q 12.109375 9.234375 16.796875 8.0625 
Q 21.484375 6.890625 26.703125 6.890625 
Q 35.15625 6.890625 40.078125 11.328125 
Q 45.015625 15.765625 45.015625 23.390625 
Q 45.015625 31 40.078125 35.4375 
Q 35.15625 39.890625 26.703125 39.890625 
Q 22.75 39.890625 18.8125 39.015625 
Q 14.890625 38.140625 10.796875 36.28125 
z
" id="DejaVuSans-53"/>
      </defs>
      <g transform="translate(601.988637 418.718437)scale(0.1 -0.1)">
       <use xlink:href="#DejaVuSans-53"/>
       <use x="63.623047" xlink:href="#DejaVuSans-48"/>
       <use x="127.246094" xlink:href="#DejaVuSans-48"/>
      </g>
     </g>
    </g>
   </g>
   <g id="matplotlib.axis_2">
    <g id="ytick_1">
     <g id="line2d_7">
      <defs>
       <path d="M 0 0 
L -3.5 0 
" id="medf358c674" style="stroke:#000000;stroke-width:0.8;"/>
      </defs>
      <g>
       <use style="stroke:#000000;stroke-width:0.8;" x="42.1" xlink:href="#medf358c674" y="402.490863"/>
      </g>
     </g>
     <g id="text_7">
      <!-- −1.0 -->
      <defs>
       <path d="M 10.59375 35.5 
L 73.1875 35.5 
L 73.1875 27.203125 
L 10.59375 27.203125 
z
" id="DejaVuSans-8722"/>
       <path d="M 10.6875 12.40625 
L 21 12.40625 
L 21 0 
L 10.6875 0 
z
" id="DejaVuSans-46"/>
      </defs>
      <g transform="translate(10.817188 406.290081)scale(0.1 -0.1)">
       <use xlink:href="#DejaVuSans-8722"/>
       <use x="83.789062" xlink:href="#DejaVuSans-49"/>
       <use x="147.412109" xlink:href="#DejaVuSans-46"/>
       <use x="179.199219" xlink:href="#DejaVuSans-48"/>
      </g>
     </g>
    </g>
    <g id="ytick_2">
     <g id="line2d_8">
      <g>
       <use style="stroke:#000000;stroke-width:0.8;" x="42.1" xlink:href="#medf358c674" y="320.410069"/>
      </g>
     </g>
     <g id="text_8">
      <!-- −0.5 -->
      <g transform="translate(10.817188 324.209287)scale(0.1 -0.1)">
       <use xlink:href="#DejaVuSans-8722"/>
       <use x="83.789062" xlink:href="#DejaVuSans-48"/>
       <use x="147.412109" xlink:href="#DejaVuSans-46"/>
       <use x="179.199219" xlink:href="#DejaVuSans-53"/>
      </g>
     </g>
    </g>
    <g id="ytick_3">
     <g id="line2d_9">
      <g>
       <use style="stroke:#000000;stroke-width:0.8;" x="42.1" xlink:href="#medf358c674" y="238.329275"/>
      </g>
     </g>
     <g id="text_9">
      <!-- 0.0 -->
      <g transform="translate(19.196875 242.128493)scale(0.1 -0.1)">
       <use xlink:href="#DejaVuSans-48"/>
       <use x="63.623047" xlink:href="#DejaVuSans-46"/>
       <use x="95.410156" xlink:href="#DejaVuSans-48"/>
      </g>
     </g>
    </g>
    <g id="ytick_4">
     <g id="line2d_10">
      <g>
       <use style="stroke:#000000;stroke-width:0.8;" x="42.1" xlink:href="#medf358c674" y="156.248481"/>
      </g>
     </g>
     <g id="text_10">
      <!-- 0.5 -->
      <g transform="translate(19.196875 160.047699)scale(0.1 -0.1)">
       <use xlink:href="#DejaVuSans-48"/>
       <use x="63.623047" xlink:href="#DejaVuSans-46"/>
       <use x="95.410156" xlink:href="#DejaVuSans-53"/>
      </g>
     </g>
    </g>
    <g id="ytick_5">
     <g id="line2d_11">
      <g>
       <use style="stroke:#000000;stroke-width:0.8;" x="42.1" xlink:href="#medf358c674" y="74.167687"/>
      </g>
     </g>
     <g id="text_11">
      <!-- 1.0 -->
      <g transform="translate(19.196875 77.966905)scale(0.1 -0.1)">
       <use xlink:href="#DejaVuSans-49"/>
       <use x="63.623047" xlink:href="#DejaVuSans-46"/>
       <use x="95.410156" xlink:href="#DejaVuSans-48"/>
      </g>
     </g>
    </g>
   </g>
   <g id="line2d_12">
    <path clip-path="url(#p8f8270e331)" d="M 63.738431 238.329275 
L 724.28 238.329275 
L 724.28 238.329275 
" style="fill:none;stroke:#1f77b4;stroke-linecap:square;stroke-width:1.5;"/>
   </g>
   <g id="line2d_13">
    <path clip-path="url(#p8f8270e331)" d="M 63.738431 238.329275 
L 173.069449 238.231993 
L 176.486043 238.183992 
L 178.763773 238.183992 
L 179.902638 235.346898 
L 181.041503 237.54883 
L 182.180367 244.503518 
L 183.319232 244.552231 
L 184.458097 207.678462 
L 185.596962 201.989055 
L 186.735826 200.157475 
L 187.874691 176.635041 
L 189.013556 162.397298 
L 190.152421 152.563562 
L 191.291285 161.643007 
L 192.43015 167.332414 
L 193.569015 187.497496 
L 194.70788 198.201294 
L 195.846745 233.07328 
L 196.985609 239.308299 
L 198.124474 216.398195 
L 199.263339 215.348928 
L 200.402204 202.704833 
L 201.541068 162.543913 
L 202.679933 180.5317 
L 203.818798 165.685673 
L 204.957663 166.781709 
L 206.096528 186.038439 
L 207.235392 248.528765 
L 208.374257 282.834452 
L 209.513122 297.310128 
L 210.651987 348.280699 
L 211.790851 345.799554 
L 212.929716 337.060324 
L 214.068581 361.18711 
L 215.207446 347.745487 
L 217.485175 327.228073 
L 218.62404 292.356087 
L 219.762905 286.169068 
L 220.90177 309.079173 
L 222.040634 310.128439 
L 223.179499 329.727223 
L 224.318364 372.815759 
L 225.457229 364.501651 
L 226.596093 386.956364 
L 227.734958 363.040751 
L 228.873823 333.119402 
L 230.012688 314.457533 
L 231.151553 290.922376 
L 232.290417 273.197158 
L 233.429282 270.03972 
L 234.568147 293.868171 
L 235.707012 274.083774 
L 236.845876 267.076477 
L 237.984741 258.512062 
L 239.123606 262.915642 
L 240.262471 256.003511 
L 241.401336 252.985196 
L 242.5402 248.160597 
L 243.679065 242.47119 
L 244.81793 254.632317 
L 245.956795 231.323604 
L 247.095659 251.966963 
L 248.234524 238.658658 
L 249.373389 211.444749 
L 250.512254 243.663662 
L 251.651119 237.974255 
L 252.789983 242.398381 
L 253.928848 245.367982 
L 255.067713 231.019567 
L 256.206578 227.989985 
L 257.345442 220.015616 
L 258.484307 242.218134 
L 259.623172 233.681034 
L 260.762037 249.404051 
L 261.900902 245.517373 
L 263.039766 224.378116 
L 264.178631 233.868151 
L 265.317496 249.882865 
L 266.456361 262.662187 
L 267.595225 241.721494 
L 268.73409 258.963745 
L 269.872955 235.39277 
L 271.01182 240.053203 
L 272.150684 257.456494 
L 273.289549 240.867937 
L 274.428414 257.069956 
L 275.567279 245.691142 
L 276.706144 237.640417 
L 277.845008 257.069956 
L 278.983873 235.808837 
L 280.122738 236.58037 
L 281.261603 252.692073 
L 282.400467 216.130436 
L 283.539332 217.323446 
L 285.817062 237.963821 
L 286.955927 247.063812 
L 288.094791 202.833291 
L 289.233656 230.231289 
L 290.372521 213.203402 
L 291.511386 233.155276 
L 292.65025 235.218085 
L 293.789115 222.129328 
L 294.92798 237.105374 
L 296.066845 233.147009 
L 297.20571 223.789869 
L 298.344574 258.032498 
L 299.483439 250.662122 
L 300.622304 219.663612 
L 301.761169 231.583815 
L 302.900033 249.506871 
L 304.038898 226.671709 
L 305.177763 238.44617 
L 306.316628 262.014963 
L 307.455492 243.619476 
L 308.594357 236.636917 
L 309.733222 220.218261 
L 310.872087 253.258667 
L 312.010952 204.063851 
L 313.149816 256.821828 
L 314.288681 235.981729 
L 315.427546 206.765715 
L 316.566411 231.650029 
L 317.705275 238.528716 
L 318.84414 224.686619 
L 319.983005 217.657281 
L 321.12187 183.414652 
L 322.260735 185.095621 
L 323.399599 235.776246 
L 324.538464 253.856392 
L 325.677329 239.116769 
L 326.816194 238.857669 
L 327.955058 232.294339 
L 329.093923 221.098612 
L 330.232788 219.350364 
L 331.371653 233.287611 
L 332.510518 242.638881 
L 333.649382 227.931977 
L 334.788247 264.300473 
L 335.927112 230.031639 
L 337.065977 208.176907 
L 338.204841 235.330111 
L 339.343706 247.754137 
L 340.482571 219.495802 
L 341.621436 220.462574 
L 342.760301 263.311669 
L 343.899165 257.403367 
L 345.03803 246.232364 
L 346.176895 251.22113 
L 347.31576 209.599346 
L 348.454624 211.88882 
L 349.593489 221.232697 
L 350.732354 238.249456 
L 351.871219 247.613603 
L 353.010083 211.2126 
L 354.148948 234.937001 
L 355.287813 236.636907 
L 356.426678 236.636907 
L 357.565543 222.676706 
L 358.704407 213.276126 
L 359.843272 262.863698 
L 360.982137 234.946399 
L 362.121002 212.538104 
L 363.259866 223.134604 
L 364.398731 204.065558 
L 365.537596 146.26989 
L 366.676461 178.95591 
L 367.815326 202.771009 
L 368.95419 172.41072 
L 370.093055 196.869391 
L 371.23192 172.868225 
L 372.370785 186.710321 
L 373.509649 168.018331 
L 374.648514 163.716715 
L 375.787379 193.222565 
L 376.926244 161.390636 
L 378.065109 149.764177 
L 379.203973 136.832049 
L 380.342838 141.042337 
L 382.620568 147.024543 
L 383.759432 174.941841 
L 384.898297 167.75008 
L 386.037162 156.519163 
L 387.176027 186.691867 
L 388.314891 229.900183 
L 389.453756 235.314334 
L 390.592621 231.008996 
L 391.731486 232.357608 
L 392.870351 190.575726 
L 394.009215 235.699722 
L 395.14808 230.952013 
L 396.286945 208.516312 
L 397.42581 205.35338 
L 398.564674 203.231037 
L 399.703539 209.81676 
L 400.842404 218.166362 
L 401.981269 231.447822 
L 403.120134 207.010152 
L 404.258998 225.473435 
L 405.397863 209.717264 
L 406.536728 222.062851 
L 407.675593 227.13833 
L 408.814457 248.353517 
L 409.953322 284.493449 
L 411.092187 262.605515 
L 412.231052 244.334979 
L 413.369917 261.960337 
L 414.508781 239.135424 
L 415.647646 266.198289 
L 416.786511 217.126899 
L 417.925376 227.303419 
L 419.06424 270.371409 
L 420.203105 256.66465 
L 421.34197 269.186005 
L 422.480835 250.690625 
L 423.619699 234.291436 
L 424.758564 234.520376 
L 425.897429 260.578689 
L 427.036294 254.851857 
L 428.175159 229.264321 
L 429.314023 250.498033 
L 430.452888 242.90416 
L 432.730618 172.01732 
L 433.869482 187.052642 
L 435.008347 169.216679 
L 436.147212 144.808987 
L 437.286077 165.522378 
L 438.424942 158.584459 
L 439.563806 168.834668 
L 440.702671 143.009546 
L 441.841536 131.623406 
L 442.980401 108.169635 
L 444.119265 97.562354 
L 445.25813 116.121118 
L 446.396995 144.609163 
L 447.53586 145.841122 
L 448.674725 116.635125 
L 449.813589 116.951923 
L 450.952454 115.152851 
L 452.091319 82.257954 
L 453.230184 90.793526 
L 454.369048 78.574708 
L 455.507913 84.990968 
L 456.646778 62.501015 
L 457.785643 63.272014 
L 458.924508 62.075127 
L 460.063372 57.678366 
L 461.202237 43.683636 
L 462.341102 57.857024 
L 463.479967 86.521026 
L 464.618831 93.790842 
L 465.757696 113.51278 
L 466.896561 116.156467 
L 468.035426 132.667545 
L 469.17429 111.211451 
L 470.313155 149.290944 
L 471.45202 179.784741 
L 472.590885 188.465148 
L 473.72975 183.475191 
L 474.868614 166.88787 
L 476.007479 196.97254 
L 477.146344 202.181261 
L 478.285209 200.634854 
L 479.424073 223.078759 
L 480.562938 236.808084 
L 481.701803 238.595543 
L 482.840668 231.86852 
L 483.979533 238.858665 
L 485.118397 258.95362 
L 486.257262 259.896567 
L 487.396127 256.41387 
L 488.534992 261.908016 
L 489.673856 286.846557 
L 490.812721 287.084365 
L 491.951586 301.303517 
L 493.090451 277.137425 
L 494.229316 234.354532 
L 495.36818 223.310788 
L 496.507045 215.677616 
L 497.64591 213.729999 
L 498.784775 184.819913 
L 499.923639 211.948054 
L 501.062504 213.494461 
L 502.201369 208.669862 
L 503.340234 198.084168 
L 504.479098 201.62658 
L 505.617963 219.20268 
L 506.756828 235.026968 
L 507.895693 213.077343 
L 509.034558 203.866706 
L 510.173422 206.197339 
L 511.312287 203.269723 
L 512.451152 182.008604 
L 513.590017 177.232146 
L 514.728881 165.452858 
L 515.867746 164.436128 
L 517.006611 192.3989 
L 518.145476 195.39192 
L 519.284341 220.47874 
L 520.423205 238.329275 
L 610.393523 238.329275 
L 611.532387 234.71516 
L 612.671252 230.2793 
L 613.810117 230.2793 
L 614.948982 220.465113 
L 616.087846 221.140129 
L 617.226711 217.282302 
L 619.504441 217.282302 
L 620.643306 232.854014 
L 621.78217 232.854014 
L 622.921035 223.815971 
L 624.0599 220.487881 
L 625.198765 224.151041 
L 626.337629 236.214258 
L 627.476494 239.289772 
L 628.615359 258.189573 
L 629.754224 255.674829 
L 630.893088 251.512531 
L 633.170818 249.530946 
L 634.309683 265.05674 
L 635.448548 282.743933 
L 636.587412 279.892923 
L 637.726277 288.587588 
L 638.865142 284.959609 
L 640.004007 297.050481 
L 641.142871 285.033261 
L 642.281736 281.208201 
L 643.420601 272.14523 
L 644.559466 265.981235 
L 645.698331 262.922098 
L 646.837195 271.939595 
L 647.97606 279.573576 
L 649.114925 266.581904 
L 650.25379 252.045082 
L 651.392654 231.665171 
L 652.531519 228.766435 
L 653.670384 209.486702 
L 654.809249 212.912998 
L 655.948114 214.270302 
L 657.086978 181.366646 
L 658.225843 177.597144 
L 659.364708 179.273571 
L 660.503573 181.848664 
L 661.642437 194.048202 
L 662.781302 189.528556 
L 663.920167 204.444129 
L 665.059032 208.808882 
L 666.197896 186.72843 
L 667.336761 177.170888 
L 668.475626 182.173862 
L 669.614491 170.856532 
L 670.753356 151.130347 
L 671.89222 135.751547 
L 673.031085 144.351501 
L 674.16995 140.578133 
L 675.308815 143.785865 
L 676.447679 155.428062 
L 677.586544 160.553025 
L 678.725409 162.113987 
L 679.864274 167.83978 
L 681.003139 153.901004 
L 682.142003 161.44301 
L 683.280868 159.987439 
L 684.419733 161.601576 
L 685.558598 157.270415 
L 686.697462 162.930664 
L 687.836327 162.390972 
L 688.975192 184.696665 
L 690.114057 198.903829 
L 691.252922 203.745435 
L 692.391786 182.95257 
L 693.530651 191.381614 
L 694.669516 204.55392 
L 695.808381 215.973877 
L 696.947245 210.778751 
L 698.08611 212.984499 
L 699.224975 207.716112 
L 700.36384 201.403928 
L 701.502705 207.369691 
L 702.641569 222.907069 
L 703.780434 230.380049 
L 704.919299 224.012626 
L 706.058164 240.308147 
L 707.197028 199.16882 
L 708.335893 199.78658 
L 709.474758 191.227978 
L 710.613623 190.182766 
L 711.752487 199.298762 
L 712.891352 197.903001 
L 714.030217 200.572608 
L 715.169082 226.993397 
L 716.307947 231.788203 
L 717.446811 234.923153 
L 718.585676 233.291923 
L 719.724541 239.800206 
L 720.863406 222.731984 
L 722.00227 245.883676 
L 723.141135 262.416672 
L 724.28 255.945348 
L 724.28 255.945348 
" style="fill:none;stroke:#ff7f0e;stroke-linecap:square;stroke-width:1.5;"/>
   </g>
   <g id="patch_3">
    <path d="M 42.1 404.12 
L 42.1 26.52 
" style="fill:none;stroke:#000000;stroke-linecap:square;stroke-linejoin:miter;stroke-width:0.8;"/>
   </g>
   <g id="patch_4">
    <path d="M 724.28 404.12 
L 724.28 26.52 
" style="fill:none;stroke:#000000;stroke-linecap:square;stroke-linejoin:miter;stroke-width:0.8;"/>
   </g>
   <g id="patch_5">
    <path d="M 42.1 404.12 
L 724.28 404.12 
" style="fill:none;stroke:#000000;stroke-linecap:square;stroke-linejoin:miter;stroke-width:0.8;"/>
   </g>
   <g id="patch_6">
    <path d="M 42.1 26.52 
L 724.28 26.52 
" style="fill:none;stroke:#000000;stroke-linecap:square;stroke-linejoin:miter;stroke-width:0.8;"/>
   </g>
   <g id="text_12">
    <!-- multi_way_v2__2: episode duration in steps log-relative to `htm_2_1g`, MA=20 -->
    <defs>
     <path d="M 52 44.1875 
Q 55.375 50.25 60.0625 53.125 
Q 64.75 56 71.09375 56 
Q 79.640625 56 84.28125 50.015625 
Q 88.921875 44.046875 88.921875 33.015625 
L 88.921875 0 
L 79.890625 0 
L 79.890625 32.71875 
Q 79.890625 40.578125 77.09375 44.375 
Q 74.3125 48.1875 68.609375 48.1875 
Q 61.625 48.1875 57.5625 43.546875 
Q 53.515625 38.921875 53.515625 30.90625 
L 53.515625 0 
L 44.484375 0 
L 44.484375 32.71875 
Q 44.484375 40.625 41.703125 44.40625 
Q 38.921875 48.1875 33.109375 48.1875 
Q 26.21875 48.1875 22.15625 43.53125 
Q 18.109375 38.875 18.109375 30.90625 
L 18.109375 0 
L 9.078125 0 
L 9.078125 54.6875 
L 18.109375 54.6875 
L 18.109375 46.1875 
Q 21.1875 51.21875 25.484375 53.609375 
Q 29.78125 56 35.6875 56 
Q 41.65625 56 45.828125 52.96875 
Q 50 49.953125 52 44.1875 
z
" id="DejaVuSans-109"/>
     <path d="M 8.5 21.578125 
L 8.5 54.6875 
L 17.484375 54.6875 
L 17.484375 21.921875 
Q 17.484375 14.15625 20.5 10.265625 
Q 23.53125 6.390625 29.59375 6.390625 
Q 36.859375 6.390625 41.078125 11.03125 
Q 45.3125 15.671875 45.3125 23.6875 
L 45.3125 54.6875 
L 54.296875 54.6875 
L 54.296875 0 
L 45.3125 0 
L 45.3125 8.40625 
Q 42.046875 3.421875 37.71875 1 
Q 33.40625 -1.421875 27.6875 -1.421875 
Q 18.265625 -1.421875 13.375 4.4375 
Q 8.5 10.296875 8.5 21.578125 
z
M 31.109375 56 
z
" id="DejaVuSans-117"/>
     <path d="M 9.421875 75.984375 
L 18.40625 75.984375 
L 18.40625 0 
L 9.421875 0 
z
" id="DejaVuSans-108"/>
     <path d="M 18.3125 70.21875 
L 18.3125 54.6875 
L 36.8125 54.6875 
L 36.8125 47.703125 
L 18.3125 47.703125 
L 18.3125 18.015625 
Q 18.3125 11.328125 20.140625 9.421875 
Q 21.96875 7.515625 27.59375 7.515625 
L 36.8125 7.515625 
L 36.8125 0 
L 27.59375 0 
Q 17.1875 0 13.234375 3.875 
Q 9.28125 7.765625 9.28125 18.015625 
L 9.28125 47.703125 
L 2.6875 47.703125 
L 2.6875 54.6875 
L 9.28125 54.6875 
L 9.28125 70.21875 
z
" id="DejaVuSans-116"/>
     <path d="M 9.421875 54.6875 
L 18.40625 54.6875 
L 18.40625 0 
L 9.421875 0 
z
M 9.421875 75.984375 
L 18.40625 75.984375 
L 18.40625 64.59375 
L 9.421875 64.59375 
z
" id="DejaVuSans-105"/>
     <path d="M 50.984375 -16.609375 
L 50.984375 -23.578125 
L -0.984375 -23.578125 
L -0.984375 -16.609375 
z
" id="DejaVuSans-95"/>
     <path d="M 4.203125 54.6875 
L 13.1875 54.6875 
L 24.421875 12.015625 
L 35.59375 54.6875 
L 46.1875 54.6875 
L 57.421875 12.015625 
L 68.609375 54.6875 
L 77.59375 54.6875 
L 63.28125 0 
L 52.6875 0 
L 40.921875 44.828125 
L 29.109375 0 
L 18.5 0 
z
" id="DejaVuSans-119"/>
     <path d="M 34.28125 27.484375 
Q 23.390625 27.484375 19.1875 25 
Q 14.984375 22.515625 14.984375 16.5 
Q 14.984375 11.71875 18.140625 8.90625 
Q 21.296875 6.109375 26.703125 6.109375 
Q 34.1875 6.109375 38.703125 11.40625 
Q 43.21875 16.703125 43.21875 25.484375 
L 43.21875 27.484375 
z
M 52.203125 31.203125 
L 52.203125 0 
L 43.21875 0 
L 43.21875 8.296875 
Q 40.140625 3.328125 35.546875 0.953125 
Q 30.953125 -1.421875 24.3125 -1.421875 
Q 15.921875 -1.421875 10.953125 3.296875 
Q 6 8.015625 6 15.921875 
Q 6 25.140625 12.171875 29.828125 
Q 18.359375 34.515625 30.609375 34.515625 
L 43.21875 34.515625 
L 43.21875 35.40625 
Q 43.21875 41.609375 39.140625 45 
Q 35.0625 48.390625 27.6875 48.390625 
Q 23 48.390625 18.546875 47.265625 
Q 14.109375 46.140625 10.015625 43.890625 
L 10.015625 52.203125 
Q 14.9375 54.109375 19.578125 55.046875 
Q 24.21875 56 28.609375 56 
Q 40.484375 56 46.34375 49.84375 
Q 52.203125 43.703125 52.203125 31.203125 
z
" id="DejaVuSans-97"/>
     <path d="M 32.171875 -5.078125 
Q 28.375 -14.84375 24.75 -17.8125 
Q 21.140625 -20.796875 15.09375 -20.796875 
L 7.90625 -20.796875 
L 7.90625 -13.28125 
L 13.1875 -13.28125 
Q 16.890625 -13.28125 18.9375 -11.515625 
Q 21 -9.765625 23.484375 -3.21875 
L 25.09375 0.875 
L 2.984375 54.6875 
L 12.5 54.6875 
L 29.59375 11.921875 
L 46.6875 54.6875 
L 56.203125 54.6875 
z
" id="DejaVuSans-121"/>
     <path d="M 2.984375 54.6875 
L 12.5 54.6875 
L 29.59375 8.796875 
L 46.6875 54.6875 
L 56.203125 54.6875 
L 35.6875 0 
L 23.484375 0 
z
" id="DejaVuSans-118"/>
     <path d="M 11.71875 12.40625 
L 22.015625 12.40625 
L 22.015625 0 
L 11.71875 0 
z
M 11.71875 51.703125 
L 22.015625 51.703125 
L 22.015625 39.3125 
L 11.71875 39.3125 
z
" id="DejaVuSans-58"/>
     <path id="DejaVuSans-32"/>
     <path d="M 56.203125 29.59375 
L 56.203125 25.203125 
L 14.890625 25.203125 
Q 15.484375 15.921875 20.484375 11.0625 
Q 25.484375 6.203125 34.421875 6.203125 
Q 39.59375 6.203125 44.453125 7.46875 
Q 49.3125 8.734375 54.109375 11.28125 
L 54.109375 2.78125 
Q 49.265625 0.734375 44.1875 -0.34375 
Q 39.109375 -1.421875 33.890625 -1.421875 
Q 20.796875 -1.421875 13.15625 6.1875 
Q 5.515625 13.8125 5.515625 26.8125 
Q 5.515625 40.234375 12.765625 48.109375 
Q 20.015625 56 32.328125 56 
Q 43.359375 56 49.78125 48.890625 
Q 56.203125 41.796875 56.203125 29.59375 
z
M 47.21875 32.234375 
Q 47.125 39.59375 43.09375 43.984375 
Q 39.0625 48.390625 32.421875 48.390625 
Q 24.90625 48.390625 20.390625 44.140625 
Q 15.875 39.890625 15.1875 32.171875 
z
" id="DejaVuSans-101"/>
     <path d="M 18.109375 8.203125 
L 18.109375 -20.796875 
L 9.078125 -20.796875 
L 9.078125 54.6875 
L 18.109375 54.6875 
L 18.109375 46.390625 
Q 20.953125 51.265625 25.265625 53.625 
Q 29.59375 56 35.59375 56 
Q 45.5625 56 51.78125 48.09375 
Q 58.015625 40.1875 58.015625 27.296875 
Q 58.015625 14.40625 51.78125 6.484375 
Q 45.5625 -1.421875 35.59375 -1.421875 
Q 29.59375 -1.421875 25.265625 0.953125 
Q 20.953125 3.328125 18.109375 8.203125 
z
M 48.6875 27.296875 
Q 48.6875 37.203125 44.609375 42.84375 
Q 40.53125 48.484375 33.40625 48.484375 
Q 26.265625 48.484375 22.1875 42.84375 
Q 18.109375 37.203125 18.109375 27.296875 
Q 18.109375 17.390625 22.1875 11.75 
Q 26.265625 6.109375 33.40625 6.109375 
Q 40.53125 6.109375 44.609375 11.75 
Q 48.6875 17.390625 48.6875 27.296875 
z
" id="DejaVuSans-112"/>
     <path d="M 44.28125 53.078125 
L 44.28125 44.578125 
Q 40.484375 46.53125 36.375 47.5 
Q 32.28125 48.484375 27.875 48.484375 
Q 21.1875 48.484375 17.84375 46.4375 
Q 14.5 44.390625 14.5 40.28125 
Q 14.5 37.15625 16.890625 35.375 
Q 19.28125 33.59375 26.515625 31.984375 
L 29.59375 31.296875 
Q 39.15625 29.25 43.1875 25.515625 
Q 47.21875 21.78125 47.21875 15.09375 
Q 47.21875 7.46875 41.1875 3.015625 
Q 35.15625 -1.421875 24.609375 -1.421875 
Q 20.21875 -1.421875 15.453125 -0.5625 
Q 10.6875 0.296875 5.421875 2 
L 5.421875 11.28125 
Q 10.40625 8.6875 15.234375 7.390625 
Q 20.0625 6.109375 24.8125 6.109375 
Q 31.15625 6.109375 34.5625 8.28125 
Q 37.984375 10.453125 37.984375 14.40625 
Q 37.984375 18.0625 35.515625 20.015625 
Q 33.0625 21.96875 24.703125 23.78125 
L 21.578125 24.515625 
Q 13.234375 26.265625 9.515625 29.90625 
Q 5.8125 33.546875 5.8125 39.890625 
Q 5.8125 47.609375 11.28125 51.796875 
Q 16.75 56 26.8125 56 
Q 31.78125 56 36.171875 55.265625 
Q 40.578125 54.546875 44.28125 53.078125 
z
" id="DejaVuSans-115"/>
     <path d="M 30.609375 48.390625 
Q 23.390625 48.390625 19.1875 42.75 
Q 14.984375 37.109375 14.984375 27.296875 
Q 14.984375 17.484375 19.15625 11.84375 
Q 23.34375 6.203125 30.609375 6.203125 
Q 37.796875 6.203125 41.984375 11.859375 
Q 46.1875 17.53125 46.1875 27.296875 
Q 46.1875 37.015625 41.984375 42.703125 
Q 37.796875 48.390625 30.609375 48.390625 
z
M 30.609375 56 
Q 42.328125 56 49.015625 48.375 
Q 55.71875 40.765625 55.71875 27.296875 
Q 55.71875 13.875 49.015625 6.21875 
Q 42.328125 -1.421875 30.609375 -1.421875 
Q 18.84375 -1.421875 12.171875 6.21875 
Q 5.515625 13.875 5.515625 27.296875 
Q 5.515625 40.765625 12.171875 48.375 
Q 18.84375 56 30.609375 56 
z
" id="DejaVuSans-111"/>
     <path d="M 45.40625 46.390625 
L 45.40625 75.984375 
L 54.390625 75.984375 
L 54.390625 0 
L 45.40625 0 
L 45.40625 8.203125 
Q 42.578125 3.328125 38.25 0.953125 
Q 33.9375 -1.421875 27.875 -1.421875 
Q 17.96875 -1.421875 11.734375 6.484375 
Q 5.515625 14.40625 5.515625 27.296875 
Q 5.515625 40.1875 11.734375 48.09375 
Q 17.96875 56 27.875 56 
Q 33.9375 56 38.25 53.625 
Q 42.578125 51.265625 45.40625 46.390625 
z
M 14.796875 27.296875 
Q 14.796875 17.390625 18.875 11.75 
Q 22.953125 6.109375 30.078125 6.109375 
Q 37.203125 6.109375 41.296875 11.75 
Q 45.40625 17.390625 45.40625 27.296875 
Q 45.40625 37.203125 41.296875 42.84375 
Q 37.203125 48.484375 30.078125 48.484375 
Q 22.953125 48.484375 18.875 42.84375 
Q 14.796875 37.203125 14.796875 27.296875 
z
" id="DejaVuSans-100"/>
     <path d="M 41.109375 46.296875 
Q 39.59375 47.171875 37.8125 47.578125 
Q 36.03125 48 33.890625 48 
Q 26.265625 48 22.1875 43.046875 
Q 18.109375 38.09375 18.109375 28.8125 
L 18.109375 0 
L 9.078125 0 
L 9.078125 54.6875 
L 18.109375 54.6875 
L 18.109375 46.1875 
Q 20.953125 51.171875 25.484375 53.578125 
Q 30.03125 56 36.53125 56 
Q 37.453125 56 38.578125 55.875 
Q 39.703125 55.765625 41.0625 55.515625 
z
" id="DejaVuSans-114"/>
     <path d="M 54.890625 33.015625 
L 54.890625 0 
L 45.90625 0 
L 45.90625 32.71875 
Q 45.90625 40.484375 42.875 44.328125 
Q 39.84375 48.1875 33.796875 48.1875 
Q 26.515625 48.1875 22.3125 43.546875 
Q 18.109375 38.921875 18.109375 30.90625 
L 18.109375 0 
L 9.078125 0 
L 9.078125 54.6875 
L 18.109375 54.6875 
L 18.109375 46.1875 
Q 21.34375 51.125 25.703125 53.5625 
Q 30.078125 56 35.796875 56 
Q 45.21875 56 50.046875 50.171875 
Q 54.890625 44.34375 54.890625 33.015625 
z
" id="DejaVuSans-110"/>
     <path d="M 45.40625 27.984375 
Q 45.40625 37.75 41.375 43.109375 
Q 37.359375 48.484375 30.078125 48.484375 
Q 22.859375 48.484375 18.828125 43.109375 
Q 14.796875 37.75 14.796875 27.984375 
Q 14.796875 18.265625 18.828125 12.890625 
Q 22.859375 7.515625 30.078125 7.515625 
Q 37.359375 7.515625 41.375 12.890625 
Q 45.40625 18.265625 45.40625 27.984375 
z
M 54.390625 6.78125 
Q 54.390625 -7.171875 48.1875 -13.984375 
Q 42 -20.796875 29.203125 -20.796875 
Q 24.46875 -20.796875 20.265625 -20.09375 
Q 16.0625 -19.390625 12.109375 -17.921875 
L 12.109375 -9.1875 
Q 16.0625 -11.328125 19.921875 -12.34375 
Q 23.78125 -13.375 27.78125 -13.375 
Q 36.625 -13.375 41.015625 -8.765625 
Q 45.40625 -4.15625 45.40625 5.171875 
L 45.40625 9.625 
Q 42.625 4.78125 38.28125 2.390625 
Q 33.9375 0 27.875 0 
Q 17.828125 0 11.671875 7.65625 
Q 5.515625 15.328125 5.515625 27.984375 
Q 5.515625 40.671875 11.671875 48.328125 
Q 17.828125 56 27.875 56 
Q 33.9375 56 38.28125 53.609375 
Q 42.625 51.21875 45.40625 46.390625 
L 45.40625 54.6875 
L 54.390625 54.6875 
z
" id="DejaVuSans-103"/>
     <path d="M 4.890625 31.390625 
L 31.203125 31.390625 
L 31.203125 23.390625 
L 4.890625 23.390625 
z
" id="DejaVuSans-45"/>
     <path d="M 17.921875 79.984375 
L 31.6875 61.71875 
L 24.21875 61.71875 
L 8.296875 79.984375 
z
" id="DejaVuSans-96"/>
     <path d="M 54.890625 33.015625 
L 54.890625 0 
L 45.90625 0 
L 45.90625 32.71875 
Q 45.90625 40.484375 42.875 44.328125 
Q 39.84375 48.1875 33.796875 48.1875 
Q 26.515625 48.1875 22.3125 43.546875 
Q 18.109375 38.921875 18.109375 30.90625 
L 18.109375 0 
L 9.078125 0 
L 9.078125 75.984375 
L 18.109375 75.984375 
L 18.109375 46.1875 
Q 21.34375 51.125 25.703125 53.5625 
Q 30.078125 56 35.796875 56 
Q 45.21875 56 50.046875 50.171875 
Q 54.890625 44.34375 54.890625 33.015625 
z
" id="DejaVuSans-104"/>
     <path d="M 11.71875 12.40625 
L 22.015625 12.40625 
L 22.015625 4 
L 14.015625 -11.625 
L 7.71875 -11.625 
L 11.71875 4 
z
" id="DejaVuSans-44"/>
     <path d="M 9.8125 72.90625 
L 24.515625 72.90625 
L 43.109375 23.296875 
L 61.8125 72.90625 
L 76.515625 72.90625 
L 76.515625 0 
L 66.890625 0 
L 66.890625 64.015625 
L 48.09375 14.015625 
L 38.1875 14.015625 
L 19.390625 64.015625 
L 19.390625 0 
L 9.8125 0 
z
" id="DejaVuSans-77"/>
     <path d="M 34.1875 63.1875 
L 20.796875 26.90625 
L 47.609375 26.90625 
z
M 28.609375 72.90625 
L 39.796875 72.90625 
L 67.578125 0 
L 57.328125 0 
L 50.6875 18.703125 
L 17.828125 18.703125 
L 11.1875 0 
L 0.78125 0 
z
" id="DejaVuSans-65"/>
     <path d="M 10.59375 45.40625 
L 73.1875 45.40625 
L 73.1875 37.203125 
L 10.59375 37.203125 
z
M 10.59375 25.484375 
L 73.1875 25.484375 
L 73.1875 17.1875 
L 10.59375 17.1875 
z
" id="DejaVuSans-61"/>
    </defs>
    <g transform="translate(145.580625 20.52)scale(0.12 -0.12)">
     <use xlink:href="#DejaVuSans-109"/>
     <use x="97.412109" xlink:href="#DejaVuSans-117"/>
     <use x="160.791016" xlink:href="#DejaVuSans-108"/>
     <use x="188.574219" xlink:href="#DejaVuSans-116"/>
     <use x="227.783203" xlink:href="#DejaVuSans-105"/>
     <use x="255.566406" xlink:href="#DejaVuSans-95"/>
     <use x="305.566406" xlink:href="#DejaVuSans-119"/>
     <use x="387.353516" xlink:href="#DejaVuSans-97"/>
     <use x="448.632812" xlink:href="#DejaVuSans-121"/>
     <use x="507.8125" xlink:href="#DejaVuSans-95"/>
     <use x="557.8125" xlink:href="#DejaVuSans-118"/>
     <use x="616.992188" xlink:href="#DejaVuSans-50"/>
     <use x="680.615234" xlink:href="#DejaVuSans-95"/>
     <use x="730.615234" xlink:href="#DejaVuSans-95"/>
     <use x="780.615234" xlink:href="#DejaVuSans-50"/>
     <use x="844.238281" xlink:href="#DejaVuSans-58"/>
     <use x="877.929688" xlink:href="#DejaVuSans-32"/>
     <use x="909.716797" xlink:href="#DejaVuSans-101"/>
     <use x="971.240234" xlink:href="#DejaVuSans-112"/>
     <use x="1034.716797" xlink:href="#DejaVuSans-105"/>
     <use x="1062.5" xlink:href="#DejaVuSans-115"/>
     <use x="1114.599609" xlink:href="#DejaVuSans-111"/>
     <use x="1175.78125" xlink:href="#DejaVuSans-100"/>
     <use x="1239.257812" xlink:href="#DejaVuSans-101"/>
     <use x="1300.78125" xlink:href="#DejaVuSans-32"/>
     <use x="1332.568359" xlink:href="#DejaVuSans-100"/>
     <use x="1396.044922" xlink:href="#DejaVuSans-117"/>
     <use x="1459.423828" xlink:href="#DejaVuSans-114"/>
     <use x="1500.537109" xlink:href="#DejaVuSans-97"/>
     <use x="1561.816406" xlink:href="#DejaVuSans-116"/>
     <use x="1601.025391" xlink:href="#DejaVuSans-105"/>
     <use x="1628.808594" xlink:href="#DejaVuSans-111"/>
     <use x="1689.990234" xlink:href="#DejaVuSans-110"/>
     <use x="1753.369141" xlink:href="#DejaVuSans-32"/>
     <use x="1785.15625" xlink:href="#DejaVuSans-105"/>
     <use x="1812.939453" xlink:href="#DejaVuSans-110"/>
     <use x="1876.318359" xlink:href="#DejaVuSans-32"/>
     <use x="1908.105469" xlink:href="#DejaVuSans-115"/>
     <use x="1960.205078" xlink:href="#DejaVuSans-116"/>
     <use x="1999.414062" xlink:href="#DejaVuSans-101"/>
     <use x="2060.9375" xlink:href="#DejaVuSans-112"/>
     <use x="2124.414062" xlink:href="#DejaVuSans-115"/>
     <use x="2176.513672" xlink:href="#DejaVuSans-32"/>
     <use x="2208.300781" xlink:href="#DejaVuSans-108"/>
     <use x="2236.083984" xlink:href="#DejaVuSans-111"/>
     <use x="2297.265625" xlink:href="#DejaVuSans-103"/>
     <use x="2360.742188" xlink:href="#DejaVuSans-45"/>
     <use x="2396.826172" xlink:href="#DejaVuSans-114"/>
     <use x="2437.908203" xlink:href="#DejaVuSans-101"/>
     <use x="2499.431641" xlink:href="#DejaVuSans-108"/>
     <use x="2527.214844" xlink:href="#DejaVuSans-97"/>
     <use x="2588.494141" xlink:href="#DejaVuSans-116"/>
     <use x="2627.703125" xlink:href="#DejaVuSans-105"/>
     <use x="2655.486328" xlink:href="#DejaVuSans-118"/>
     <use x="2714.666016" xlink:href="#DejaVuSans-101"/>
     <use x="2776.189453" xlink:href="#DejaVuSans-32"/>
     <use x="2807.976562" xlink:href="#DejaVuSans-116"/>
     <use x="2847.185547" xlink:href="#DejaVuSans-111"/>
     <use x="2908.367188" xlink:href="#DejaVuSans-32"/>
     <use x="2940.154297" xlink:href="#DejaVuSans-96"/>
     <use x="2990.154297" xlink:href="#DejaVuSans-104"/>
     <use x="3053.533203" xlink:href="#DejaVuSans-116"/>
     <use x="3092.742188" xlink:href="#DejaVuSans-109"/>
     <use x="3190.154297" xlink:href="#DejaVuSans-95"/>
     <use x="3240.154297" xlink:href="#DejaVuSans-50"/>
     <use x="3303.777344" xlink:href="#DejaVuSans-95"/>
     <use x="3353.777344" xlink:href="#DejaVuSans-49"/>
     <use x="3417.400391" xlink:href="#DejaVuSans-103"/>
     <use x="3480.876953" xlink:href="#DejaVuSans-96"/>
     <use x="3530.876953" xlink:href="#DejaVuSans-44"/>
     <use x="3562.664062" xlink:href="#DejaVuSans-32"/>
     <use x="3594.451172" xlink:href="#DejaVuSans-77"/>
     <use x="3680.730469" xlink:href="#DejaVuSans-65"/>
     <use x="3749.138672" xlink:href="#DejaVuSans-61"/>
     <use x="3832.927734" xlink:href="#DejaVuSans-50"/>
     <use x="3896.550781" xlink:href="#DejaVuSans-48"/>
    </g>
   </g>
   <g id="legend_1">
    <g id="patch_7">
     <path d="M 772.644125 231.77625 
L 853.716 231.77625 
Q 855.716 231.77625 855.716 229.77625 
L 855.716 200.86375 
Q 855.716 198.86375 853.716 198.86375 
L 772.644125 198.86375 
Q 770.644125 198.86375 770.644125 200.86375 
L 770.644125 229.77625 
Q 770.644125 231.77625 772.644125 231.77625 
z
" style="fill:#ffffff;opacity:0.8;stroke:#cccccc;stroke-linejoin:miter;"/>
    </g>
    <g id="line2d_14">
     <path d="M 774.644125 206.962187 
L 794.644125 206.962187 
" style="fill:none;stroke:#1f77b4;stroke-linecap:square;stroke-width:1.5;"/>
    </g>
    <g id="line2d_15"/>
    <g id="text_13">
     <!-- htm_2_1g -->
     <g transform="translate(802.644125 210.462187)scale(0.1 -0.1)">
      <use xlink:href="#DejaVuSans-104"/>
      <use x="63.378906" xlink:href="#DejaVuSans-116"/>
      <use x="102.587891" xlink:href="#DejaVuSans-109"/>
      <use x="200" xlink:href="#DejaVuSans-95"/>
      <use x="250" xlink:href="#DejaVuSans-50"/>
      <use x="313.623047" xlink:href="#DejaVuSans-95"/>
      <use x="363.623047" xlink:href="#DejaVuSans-49"/>
      <use x="427.246094" xlink:href="#DejaVuSans-103"/>
     </g>
    </g>
    <g id="line2d_16">
     <path d="M 774.644125 221.918437 
L 794.644125 221.918437 
" style="fill:none;stroke:#ff7f0e;stroke-linecap:square;stroke-width:1.5;"/>
    </g>
    <g id="line2d_17"/>
    <g id="text_14">
     <!-- htm_2 -->
     <g transform="translate(802.644125 225.418437)scale(0.1 -0.1)">
      <use xlink:href="#DejaVuSans-104"/>
      <use x="63.378906" xlink:href="#DejaVuSans-116"/>
      <use x="102.587891" xlink:href="#DejaVuSans-109"/>
      <use x="200" xlink:href="#DejaVuSans-95"/>
      <use x="250" xlink:href="#DejaVuSans-50"/>
     </g>
    </g>
   </g>
  </g>
 </g>
 <defs>
  <clipPath id="p8f8270e331">
   <rect height="377.6" width="682.18" x="42.1" y="26.52"/>
  </clipPath>
 </defs>
</svg>
