<?xml version="1.0" encoding="utf-8" standalone="no"?>
<!DOCTYPE svg PUBLIC "-//W3C//DTD SVG 1.1//EN"
  "http://www.w3.org/Graphics/SVG/1.1/DTD/svg11.dtd">
<!-- Created with matplotlib (https://matplotlib.org/) -->
<svg height="432pt" version="1.1" viewBox="0 0 864 432" width="864pt" xmlns="http://www.w3.org/2000/svg" xmlns:xlink="http://www.w3.org/1999/xlink">
 <defs>
  <style type="text/css">
*{stroke-linecap:butt;stroke-linejoin:round;}
  </style>
 </defs>
 <g id="figure_1">
  <g id="patch_1">
   <path d="M 0 432 
L 864 432 
L 864 0 
L 0 0 
z
" style="fill:#ffffff;"/>
  </g>
  <g id="axes_1">
   <g id="patch_2">
    <path d="M 32.56 404.12 
L 724.28 404.12 
L 724.28 26.52 
L 32.56 26.52 
z
" style="fill:#ffffff;"/>
   </g>
   <g id="matplotlib.axis_1">
    <g id="xtick_1">
     <g id="line2d_1">
      <defs>
       <path d="M 0 0 
L 0 3.5 
" id="ma2fb4eb7c9" style="stroke:#000000;stroke-width:0.8;"/>
      </defs>
      <g>
       <use style="stroke:#000000;stroke-width:0.8;" x="32.56" xlink:href="#ma2fb4eb7c9" y="404.12"/>
      </g>
     </g>
     <g id="text_1">
      <!-- 0 -->
      <defs>
       <path d="M 31.78125 66.40625 
Q 24.171875 66.40625 20.328125 58.90625 
Q 16.5 51.421875 16.5 36.375 
Q 16.5 21.390625 20.328125 13.890625 
Q 24.171875 6.390625 31.78125 6.390625 
Q 39.453125 6.390625 43.28125 13.890625 
Q 47.125 21.390625 47.125 36.375 
Q 47.125 51.421875 43.28125 58.90625 
Q 39.453125 66.40625 31.78125 66.40625 
z
M 31.78125 74.21875 
Q 44.046875 74.21875 50.515625 64.515625 
Q 56.984375 54.828125 56.984375 36.375 
Q 56.984375 17.96875 50.515625 8.265625 
Q 44.046875 -1.421875 31.78125 -1.421875 
Q 19.53125 -1.421875 13.0625 8.265625 
Q 6.59375 17.96875 6.59375 36.375 
Q 6.59375 54.828125 13.0625 64.515625 
Q 19.53125 74.21875 31.78125 74.21875 
z
" id="DejaVuSans-48"/>
      </defs>
      <g transform="translate(29.37875 418.718437)scale(0.1 -0.1)">
       <use xlink:href="#DejaVuSans-48"/>
      </g>
     </g>
    </g>
    <g id="xtick_2">
     <g id="line2d_2">
      <g>
       <use style="stroke:#000000;stroke-width:0.8;" x="148.039132" xlink:href="#ma2fb4eb7c9" y="404.12"/>
      </g>
     </g>
     <g id="text_2">
      <!-- 100 -->
      <defs>
       <path d="M 12.40625 8.296875 
L 28.515625 8.296875 
L 28.515625 63.921875 
L 10.984375 60.40625 
L 10.984375 69.390625 
L 28.421875 72.90625 
L 38.28125 72.90625 
L 38.28125 8.296875 
L 54.390625 8.296875 
L 54.390625 0 
L 12.40625 0 
z
" id="DejaVuSans-49"/>
      </defs>
      <g transform="translate(138.495382 418.718437)scale(0.1 -0.1)">
       <use xlink:href="#DejaVuSans-49"/>
       <use x="63.623047" xlink:href="#DejaVuSans-48"/>
       <use x="127.246094" xlink:href="#DejaVuSans-48"/>
      </g>
     </g>
    </g>
    <g id="xtick_3">
     <g id="line2d_3">
      <g>
       <use style="stroke:#000000;stroke-width:0.8;" x="263.518264" xlink:href="#ma2fb4eb7c9" y="404.12"/>
      </g>
     </g>
     <g id="text_3">
      <!-- 200 -->
      <defs>
       <path d="M 19.1875 8.296875 
L 53.609375 8.296875 
L 53.609375 0 
L 7.328125 0 
L 7.328125 8.296875 
Q 12.9375 14.109375 22.625 23.890625 
Q 32.328125 33.6875 34.8125 36.53125 
Q 39.546875 41.84375 41.421875 45.53125 
Q 43.3125 49.21875 43.3125 52.78125 
Q 43.3125 58.59375 39.234375 62.25 
Q 35.15625 65.921875 28.609375 65.921875 
Q 23.96875 65.921875 18.8125 64.3125 
Q 13.671875 62.703125 7.8125 59.421875 
L 7.8125 69.390625 
Q 13.765625 71.78125 18.9375 73 
Q 24.125 74.21875 28.421875 74.21875 
Q 39.75 74.21875 46.484375 68.546875 
Q 53.21875 62.890625 53.21875 53.421875 
Q 53.21875 48.921875 51.53125 44.890625 
Q 49.859375 40.875 45.40625 35.40625 
Q 44.1875 33.984375 37.640625 27.21875 
Q 31.109375 20.453125 19.1875 8.296875 
z
" id="DejaVuSans-50"/>
      </defs>
      <g transform="translate(253.974514 418.718437)scale(0.1 -0.1)">
       <use xlink:href="#DejaVuSans-50"/>
       <use x="63.623047" xlink:href="#DejaVuSans-48"/>
       <use x="127.246094" xlink:href="#DejaVuSans-48"/>
      </g>
     </g>
    </g>
    <g id="xtick_4">
     <g id="line2d_4">
      <g>
       <use style="stroke:#000000;stroke-width:0.8;" x="378.997396" xlink:href="#ma2fb4eb7c9" y="404.12"/>
      </g>
     </g>
     <g id="text_4">
      <!-- 300 -->
      <defs>
       <path d="M 40.578125 39.3125 
Q 47.65625 37.796875 51.625 33 
Q 55.609375 28.21875 55.609375 21.1875 
Q 55.609375 10.40625 48.1875 4.484375 
Q 40.765625 -1.421875 27.09375 -1.421875 
Q 22.515625 -1.421875 17.65625 -0.515625 
Q 12.796875 0.390625 7.625 2.203125 
L 7.625 11.71875 
Q 11.71875 9.328125 16.59375 8.109375 
Q 21.484375 6.890625 26.8125 6.890625 
Q 36.078125 6.890625 40.9375 10.546875 
Q 45.796875 14.203125 45.796875 21.1875 
Q 45.796875 27.640625 41.28125 31.265625 
Q 36.765625 34.90625 28.71875 34.90625 
L 20.21875 34.90625 
L 20.21875 43.015625 
L 29.109375 43.015625 
Q 36.375 43.015625 40.234375 45.921875 
Q 44.09375 48.828125 44.09375 54.296875 
Q 44.09375 59.90625 40.109375 62.90625 
Q 36.140625 65.921875 28.71875 65.921875 
Q 24.65625 65.921875 20.015625 65.03125 
Q 15.375 64.15625 9.8125 62.3125 
L 9.8125 71.09375 
Q 15.4375 72.65625 20.34375 73.4375 
Q 25.25 74.21875 29.59375 74.21875 
Q 40.828125 74.21875 47.359375 69.109375 
Q 53.90625 64.015625 53.90625 55.328125 
Q 53.90625 49.265625 50.4375 45.09375 
Q 46.96875 40.921875 40.578125 39.3125 
z
" id="DejaVuSans-51"/>
      </defs>
      <g transform="translate(369.453646 418.718437)scale(0.1 -0.1)">
       <use xlink:href="#DejaVuSans-51"/>
       <use x="63.623047" xlink:href="#DejaVuSans-48"/>
       <use x="127.246094" xlink:href="#DejaVuSans-48"/>
      </g>
     </g>
    </g>
    <g id="xtick_5">
     <g id="line2d_5">
      <g>
       <use style="stroke:#000000;stroke-width:0.8;" x="494.476528" xlink:href="#ma2fb4eb7c9" y="404.12"/>
      </g>
     </g>
     <g id="text_5">
      <!-- 400 -->
      <defs>
       <path d="M 37.796875 64.3125 
L 12.890625 25.390625 
L 37.796875 25.390625 
z
M 35.203125 72.90625 
L 47.609375 72.90625 
L 47.609375 25.390625 
L 58.015625 25.390625 
L 58.015625 17.1875 
L 47.609375 17.1875 
L 47.609375 0 
L 37.796875 0 
L 37.796875 17.1875 
L 4.890625 17.1875 
L 4.890625 26.703125 
z
" id="DejaVuSans-52"/>
      </defs>
      <g transform="translate(484.932778 418.718437)scale(0.1 -0.1)">
       <use xlink:href="#DejaVuSans-52"/>
       <use x="63.623047" xlink:href="#DejaVuSans-48"/>
       <use x="127.246094" xlink:href="#DejaVuSans-48"/>
      </g>
     </g>
    </g>
    <g id="xtick_6">
     <g id="line2d_6">
      <g>
       <use style="stroke:#000000;stroke-width:0.8;" x="609.955659" xlink:href="#ma2fb4eb7c9" y="404.12"/>
      </g>
     </g>
     <g id="text_6">
      <!-- 500 -->
      <defs>
       <path d="M 10.796875 72.90625 
L 49.515625 72.90625 
L 49.515625 64.59375 
L 19.828125 64.59375 
L 19.828125 46.734375 
Q 21.96875 47.46875 24.109375 47.828125 
Q 26.265625 48.1875 28.421875 48.1875 
Q 40.625 48.1875 47.75 41.5 
Q 54.890625 34.8125 54.890625 23.390625 
Q 54.890625 11.625 47.5625 5.09375 
Q 40.234375 -1.421875 26.90625 -1.421875 
Q 22.3125 -1.421875 17.546875 -0.640625 
Q 12.796875 0.140625 7.71875 1.703125 
L 7.71875 11.625 
Q 12.109375 9.234375 16.796875 8.0625 
Q 21.484375 6.890625 26.703125 6.890625 
Q 35.15625 6.890625 40.078125 11.328125 
Q 45.015625 15.765625 45.015625 23.390625 
Q 45.015625 31 40.078125 35.4375 
Q 35.15625 39.890625 26.703125 39.890625 
Q 22.75 39.890625 18.8125 39.015625 
Q 14.890625 38.140625 10.796875 36.28125 
z
" id="DejaVuSans-53"/>
      </defs>
      <g transform="translate(600.411909 418.718437)scale(0.1 -0.1)">
       <use xlink:href="#DejaVuSans-53"/>
       <use x="63.623047" xlink:href="#DejaVuSans-48"/>
       <use x="127.246094" xlink:href="#DejaVuSans-48"/>
      </g>
     </g>
    </g>
   </g>
   <g id="matplotlib.axis_2">
    <g id="ytick_1">
     <g id="line2d_7">
      <defs>
       <path d="M 0 0 
L -3.5 0 
" id="m010e4eb807" style="stroke:#000000;stroke-width:0.8;"/>
      </defs>
      <g>
       <use style="stroke:#000000;stroke-width:0.8;" x="32.56" xlink:href="#m010e4eb807" y="379.743997"/>
      </g>
     </g>
     <g id="text_7">
      <!-- −4 -->
      <defs>
       <path d="M 10.59375 35.5 
L 73.1875 35.5 
L 73.1875 27.203125 
L 10.59375 27.203125 
z
" id="DejaVuSans-8722"/>
      </defs>
      <g transform="translate(10.817813 383.543216)scale(0.1 -0.1)">
       <use xlink:href="#DejaVuSans-8722"/>
       <use x="83.789062" xlink:href="#DejaVuSans-52"/>
      </g>
     </g>
    </g>
    <g id="ytick_2">
     <g id="line2d_8">
      <g>
       <use style="stroke:#000000;stroke-width:0.8;" x="32.56" xlink:href="#m010e4eb807" y="333.235515"/>
      </g>
     </g>
     <g id="text_8">
      <!-- −3 -->
      <g transform="translate(10.817813 337.034733)scale(0.1 -0.1)">
       <use xlink:href="#DejaVuSans-8722"/>
       <use x="83.789062" xlink:href="#DejaVuSans-51"/>
      </g>
     </g>
    </g>
    <g id="ytick_3">
     <g id="line2d_9">
      <g>
       <use style="stroke:#000000;stroke-width:0.8;" x="32.56" xlink:href="#m010e4eb807" y="286.727032"/>
      </g>
     </g>
     <g id="text_9">
      <!-- −2 -->
      <g transform="translate(10.817813 290.526251)scale(0.1 -0.1)">
       <use xlink:href="#DejaVuSans-8722"/>
       <use x="83.789062" xlink:href="#DejaVuSans-50"/>
      </g>
     </g>
    </g>
    <g id="ytick_4">
     <g id="line2d_10">
      <g>
       <use style="stroke:#000000;stroke-width:0.8;" x="32.56" xlink:href="#m010e4eb807" y="240.21855"/>
      </g>
     </g>
     <g id="text_10">
      <!-- −1 -->
      <g transform="translate(10.817813 244.017768)scale(0.1 -0.1)">
       <use xlink:href="#DejaVuSans-8722"/>
       <use x="83.789062" xlink:href="#DejaVuSans-49"/>
      </g>
     </g>
    </g>
    <g id="ytick_5">
     <g id="line2d_11">
      <g>
       <use style="stroke:#000000;stroke-width:0.8;" x="32.56" xlink:href="#m010e4eb807" y="193.710067"/>
      </g>
     </g>
     <g id="text_11">
      <!-- 0 -->
      <g transform="translate(19.1975 197.509286)scale(0.1 -0.1)">
       <use xlink:href="#DejaVuSans-48"/>
      </g>
     </g>
    </g>
    <g id="ytick_6">
     <g id="line2d_12">
      <g>
       <use style="stroke:#000000;stroke-width:0.8;" x="32.56" xlink:href="#m010e4eb807" y="147.201585"/>
      </g>
     </g>
     <g id="text_12">
      <!-- 1 -->
      <g transform="translate(19.1975 151.000804)scale(0.1 -0.1)">
       <use xlink:href="#DejaVuSans-49"/>
      </g>
     </g>
    </g>
    <g id="ytick_7">
     <g id="line2d_13">
      <g>
       <use style="stroke:#000000;stroke-width:0.8;" x="32.56" xlink:href="#m010e4eb807" y="100.693102"/>
      </g>
     </g>
     <g id="text_13">
      <!-- 2 -->
      <g transform="translate(19.1975 104.492321)scale(0.1 -0.1)">
       <use xlink:href="#DejaVuSans-50"/>
      </g>
     </g>
    </g>
    <g id="ytick_8">
     <g id="line2d_14">
      <g>
       <use style="stroke:#000000;stroke-width:0.8;" x="32.56" xlink:href="#m010e4eb807" y="54.18462"/>
      </g>
     </g>
     <g id="text_14">
      <!-- 3 -->
      <g transform="translate(19.1975 57.983839)scale(0.1 -0.1)">
       <use xlink:href="#DejaVuSans-51"/>
      </g>
     </g>
    </g>
   </g>
   <g id="line2d_15">
    <path clip-path="url(#pd1b80dad09)" d="M 54.501035 193.710067 
L 724.28 193.710067 
L 724.28 193.710067 
" style="fill:none;stroke:#1f77b4;stroke-linecap:square;stroke-width:1.5;"/>
   </g>
   <g id="line2d_16">
    <path clip-path="url(#pd1b80dad09)" d="M 54.501035 194.459931 
L 55.655826 194.129396 
L 56.810618 194.129396 
L 57.965409 197.448047 
L 61.429783 197.448047 
L 62.584574 188.763311 
L 63.739366 197.860424 
L 64.894157 191.431218 
L 66.048948 191.431218 
L 67.20374 198.642574 
L 68.358531 195.647766 
L 69.513322 195.373871 
L 70.668114 189.115589 
L 71.822905 189.115589 
L 72.977696 188.596686 
L 74.132487 197.174895 
L 75.287279 195.163409 
L 76.44207 190.260915 
L 77.596861 190.260915 
L 78.751653 198.839124 
L 79.906444 196.010489 
L 81.061235 188.294809 
L 83.370818 188.294809 
L 84.525609 187.775906 
L 85.680401 195.941738 
L 86.835192 186.104085 
L 87.989983 191.590413 
L 89.144775 191.590413 
L 90.299566 182.4933 
L 91.454357 184.747568 
L 92.609149 183.892452 
L 93.76394 190.150733 
L 94.918731 189.207855 
L 96.073523 189.726758 
L 97.228314 180.629646 
L 98.383105 182.122228 
L 99.537896 186.605394 
L 100.692688 186.605394 
L 101.847479 177.753289 
L 103.00227 180.581924 
L 104.157062 184.238413 
L 105.311853 183.497873 
L 106.466644 178.32468 
L 107.621436 177.714572 
L 108.776227 177.714572 
L 109.931018 178.455112 
L 111.08581 178.879087 
L 112.240601 177.267226 
L 113.395392 178.634079 
L 114.550184 179.374619 
L 115.704975 180.50363 
L 116.859766 180.50363 
L 118.014558 180.927605 
L 119.169349 180.65371 
L 120.32414 180.65371 
L 121.478932 176.33703 
L 122.633723 175.394151 
L 123.788514 174.653611 
L 124.943306 174.408603 
L 126.098097 172.056202 
L 127.252888 172.796742 
L 128.407679 173.263387 
L 129.562471 177.917677 
L 130.717262 178.772793 
L 131.872053 179.291696 
L 133.026845 177.160932 
L 134.181636 177.679835 
L 135.336427 179.291696 
L 136.491219 179.8106 
L 138.800801 178.772793 
L 139.955593 178.498897 
L 141.110384 179.017801 
L 142.265175 179.017801 
L 143.419967 178.593826 
L 144.574758 183.155514 
L 148.039132 185.08394 
L 149.193923 187.436341 
L 150.348715 187.436341 
L 151.503506 187.710237 
L 152.658297 188.22914 
L 153.813088 188.503035 
L 154.96788 188.503035 
L 156.122671 190.6338 
L 157.277462 191.302783 
L 159.587045 191.302783 
L 161.896628 192.352246 
L 163.051419 195.969143 
L 164.20621 188.17105 
L 165.361002 198.635016 
L 166.515793 191.518588 
L 167.670584 201.982554 
L 168.825376 213.634406 
L 169.980167 213.210431 
L 171.134958 212.117473 
L 172.28975 211.693499 
L 173.444541 210.081637 
L 174.599332 210.081637 
L 175.754124 211.269524 
L 176.908915 211.269524 
L 178.063706 209.299197 
L 179.218497 209.299197 
L 180.373289 208.630214 
L 181.52808 209.8181 
L 182.682871 207.423798 
L 184.992454 207.412142 
L 186.147245 204.069141 
L 187.302037 210.679348 
L 188.456828 200.489277 
L 189.611619 207.360697 
L 190.766411 197.170626 
L 191.921202 185.79267 
L 193.075993 186.216645 
L 194.230785 184.08588 
L 195.385576 182.897994 
L 196.540367 183.321969 
L 197.695159 183.321969 
L 198.84995 182.134083 
L 200.004741 182.134083 
L 201.159533 184.104409 
L 202.314324 184.104409 
L 203.469115 183.435427 
L 204.623907 182.24754 
L 205.778698 183.972859 
L 209.243072 183.972859 
L 210.397863 184.491763 
L 211.552654 184.491763 
L 212.707446 185.679649 
L 216.17182 185.679649 
L 217.326611 188.903371 
L 218.481402 190.515233 
L 219.636194 191.703119 
L 220.790985 191.703119 
L 221.945776 191.034136 
L 224.255359 191.034136 
L 225.41015 188.753292 
L 226.564942 189.422275 
L 227.719733 189.422275 
L 228.874524 190.091258 
L 231.184107 190.091258 
L 232.338898 189.422275 
L 233.493689 190.091258 
L 234.648481 188.903371 
L 235.803272 188.903371 
L 236.958063 188.234389 
L 239.267646 188.234389 
L 240.422437 184.341683 
L 241.577229 183.672701 
L 243.886811 183.672701 
L 245.041603 184.341683 
L 246.196394 184.341683 
L 247.351185 183.153797 
L 248.505977 185.434641 
L 249.660768 184.765658 
L 254.279933 184.765658 
L 255.434725 185.434641 
L 256.589516 184.246755 
L 257.744307 185.434641 
L 260.05389 185.434641 
L 262.363472 184.096675 
L 263.518264 187.989381 
L 264.673055 177.763256 
L 266.982638 177.763256 
L 268.137429 173.470926 
L 269.29222 173.470926 
L 270.447012 174.658813 
L 271.601803 169.383161 
L 272.756594 170.052144 
L 275.066177 170.052144 
L 276.220968 163.860498 
L 281.994925 163.860498 
L 284.304508 165.198464 
L 285.459299 164.255585 
L 286.61409 159.146106 
L 287.768881 168.853327 
L 288.923673 167.665441 
L 290.078464 167.665441 
L 291.233255 170.34591 
L 293.542838 170.34591 
L 294.697629 173.651234 
L 297.007212 173.651234 
L 298.162003 172.982252 
L 299.316795 178.504915 
L 300.471586 177.317028 
L 301.626377 177.317028 
L 302.781169 178.504915 
L 307.400334 178.504915 
L 308.555125 179.447793 
L 309.709917 184.557272 
L 312.019499 184.557272 
L 313.17429 188.15892 
L 314.329082 189.770781 
L 316.638664 189.770781 
L 317.793456 191.741108 
L 318.948247 191.741108 
L 320.103038 180.796446 
L 322.412621 182.134412 
L 323.567412 183.322298 
L 324.722204 183.322298 
L 325.876995 179.288615 
L 329.341369 179.288615 
L 330.49616 172.700193 
L 331.650952 173.369175 
L 332.805743 173.369175 
L 333.960534 170.390461 
L 335.115326 171.578347 
L 336.270117 167.976699 
L 337.424908 167.307717 
L 338.579699 164.752977 
L 342.044073 164.752977 
L 343.198865 174.509752 
L 344.353656 172.539425 
L 347.81803 172.539425 
L 348.972821 175.385222 
L 350.127613 175.385222 
L 351.282404 174.716239 
L 352.437195 174.716239 
L 353.591987 181.304662 
L 354.746778 180.116776 
L 355.901569 180.116776 
L 357.056361 184.283377 
L 358.211152 184.283377 
L 359.365943 193.380489 
L 360.520735 194.049472 
L 361.675526 196.604212 
L 365.1399 196.604212 
L 366.294691 197.792098 
L 367.449482 199.762425 
L 368.604274 199.762425 
L 369.759065 194.652946 
L 370.913856 194.652946 
L 372.068648 195.171849 
L 373.223439 193.983963 
L 374.37823 193.465059 
L 376.687813 193.465059 
L 377.842604 194.652946 
L 378.997396 195.482366 
L 380.152187 195.482366 
L 381.306978 198.874846 
L 382.46177 189.777733 
L 383.616561 194.268177 
L 384.771352 192.382421 
L 385.926144 187.405859 
L 387.080935 187.405859 
L 388.235726 186.462981 
L 389.390518 186.462981 
L 390.545309 185.520103 
L 391.7001 185.001199 
L 392.854891 190.110678 
L 394.009683 190.110678 
L 395.164474 190.779661 
L 396.319265 191.967547 
L 397.474057 186.707989 
L 400.938431 186.707989 
L 402.093222 185.359665 
L 403.248013 185.359665 
L 404.402805 181.967185 
L 405.557596 181.448282 
L 406.712387 174.827073 
L 407.867179 173.215212 
L 409.02197 173.506269 
L 410.176761 173.506269 
L 411.331553 174.449147 
L 412.486344 173.506269 
L 413.641135 174.449147 
L 414.795927 174.968051 
L 417.105509 174.968051 
L 418.260301 174.025173 
L 419.415092 174.025173 
L 420.569883 180.472617 
L 421.724674 178.860756 
L 422.879466 173.884195 
L 424.034257 172.941316 
L 425.189048 173.46022 
L 426.34384 172.941316 
L 427.498631 172.941316 
L 428.653422 168.935153 
L 429.808214 171.065918 
L 430.963005 173.620657 
L 432.117796 177.004817 
L 433.272588 176.061939 
L 437.891753 176.061939 
L 439.046544 175.543036 
L 440.201336 175.543036 
L 441.356127 175.18457 
L 442.510918 175.18457 
L 443.66571 174.241692 
L 444.820501 174.241692 
L 445.975292 179.218253 
L 447.130083 180.161131 
L 448.284875 180.161131 
L 449.439666 180.680035 
L 450.594457 191.389009 
L 451.749249 191.846444 
L 452.90404 191.846444 
L 454.058831 192.789322 
L 455.213623 194.090666 
L 456.368414 195.033544 
L 457.523205 194.090666 
L 458.677997 195.033544 
L 460.987579 195.033544 
L 462.142371 195.552448 
L 463.297162 193.940586 
L 464.451953 194.299052 
L 465.606745 194.299052 
L 466.761536 195.241931 
L 467.916327 196.853792 
L 470.22591 196.853792 
L 471.380701 194.299052 
L 472.535492 192.168288 
L 473.690284 180.94041 
L 474.845075 184.065164 
L 475.999866 184.065164 
L 477.154658 182.76382 
L 479.46424 182.76382 
L 480.619032 183.706698 
L 482.928614 183.706698 
L 484.083406 183.187794 
L 485.238197 180.446922 
L 486.392988 182.058783 
L 487.54778 183.001661 
L 488.702571 182.058783 
L 489.857362 180.446922 
L 491.012154 180.446922 
L 492.166945 179.504043 
L 493.321736 179.504043 
L 494.476528 182.058783 
L 495.631319 184.189547 
L 496.78611 184.708451 
L 497.940902 185.651329 
L 499.095693 185.651329 
L 500.250484 186.952673 
L 501.405275 186.952673 
L 502.560067 187.676559 
L 503.714858 186.064698 
L 506.024441 186.064698 
L 507.179232 186.583601 
L 508.334023 189.324474 
L 510.643606 189.324474 
L 511.798397 190.267352 
L 512.953189 191.879214 
L 514.10798 191.879214 
L 515.262771 192.822092 
L 517.572354 192.822092 
L 518.727145 191.210231 
L 524.501102 191.210231 
L 525.655893 190.486345 
L 526.810684 192.098206 
L 527.965476 192.098206 
L 529.120267 190.486345 
L 537.203806 190.486345 
L 538.358598 179.02839 
L 540.66818 179.02839 
L 541.822972 180.640251 
L 555.680467 180.640251 
L 556.835259 170.435692 
L 560.299633 170.435692 
L 561.454424 181.893647 
L 571.847546 181.893647 
L 573.002337 176.317523 
L 574.157129 176.317523 
L 575.31192 177.929385 
L 578.776294 177.929385 
L 579.931085 188.133944 
L 582.240668 188.133944 
L 583.395459 186.522083 
L 592.63379 186.522083 
L 593.788581 180.557487 
L 594.943372 180.557487 
L 596.098164 186.133611 
L 600.717329 186.133611 
L 601.87212 183.578871 
L 605.336494 183.578871 
L 606.491285 185.190733 
L 607.646077 183.578871 
L 615.729616 183.578871 
L 616.884407 189.543467 
L 623.813155 189.543467 
L 624.967947 192.098206 
L 629.587112 192.098206 
L 630.741903 193.710067 
L 720.815626 193.710067 
L 721.970417 194.143363 
L 723.125209 194.143363 
L 724.28 196.333002 
L 724.28 196.333002 
" style="fill:none;stroke:#ff7f0e;stroke-linecap:square;stroke-width:1.5;"/>
   </g>
   <g id="line2d_17">
    <path clip-path="url(#pd1b80dad09)" d="M 54.501035 242.203811 
L 55.655826 247.44484 
L 56.810618 249.936494 
L 57.965409 246.94422 
L 59.1202 242.924063 
L 60.274992 240.965631 
L 61.429783 246.179139 
L 62.584574 239.808609 
L 63.739366 241.227721 
L 64.894157 235.843983 
L 66.048948 226.664022 
L 67.20374 226.748286 
L 68.358531 213.994155 
L 69.513322 211.492295 
L 70.668114 201.093838 
L 72.977696 187.299377 
L 74.132487 189.602474 
L 75.287279 176.471678 
L 77.596861 160.17158 
L 81.061235 144.36942 
L 82.216027 136.792964 
L 83.370818 131.266145 
L 84.525609 118.048481 
L 85.680401 117.517263 
L 86.835192 106.511022 
L 87.989983 99.025771 
L 89.144775 108.122883 
L 90.299566 106.698586 
L 91.454357 111.53417 
L 92.609149 106.323569 
L 93.76394 101.751523 
L 94.918731 101.984259 
L 96.073523 101.270672 
L 97.228314 87.948084 
L 98.383105 87.54702 
L 99.537896 85.913324 
L 100.692688 82.736581 
L 101.847479 76.148159 
L 104.157062 67.249921 
L 105.311853 66.477083 
L 106.466644 60.768881 
L 107.621436 60.815861 
L 108.776227 58.407565 
L 109.931018 59.917068 
L 111.08581 63.14079 
L 112.240601 55.455139 
L 113.395392 47.020817 
L 114.550184 43.683636 
L 115.704975 47.224955 
L 116.859766 48.657849 
L 118.014558 46.097289 
L 119.169349 46.998374 
L 120.32414 54.084001 
L 121.478932 57.849765 
L 122.633723 57.893642 
L 123.788514 56.234801 
L 124.943306 55.771268 
L 126.098097 55.160278 
L 127.252888 59.246881 
L 128.407679 58.499063 
L 129.562471 59.779105 
L 130.717262 57.21647 
L 131.872053 59.481862 
L 133.026845 66.795576 
L 134.181636 64.730852 
L 135.336427 63.319391 
L 136.491219 63.175504 
L 137.64601 61.677101 
L 138.800801 56.380035 
L 139.955593 57.243539 
L 141.110384 62.079123 
L 142.265175 59.483328 
L 143.419967 52.397701 
L 144.574758 49.20323 
L 145.729549 48.971548 
L 146.884341 51.363526 
L 148.039132 66.050813 
L 149.193923 85.559633 
L 150.348715 101.948099 
L 151.503506 122.423169 
L 152.658297 139.530629 
L 154.96788 177.507309 
L 156.122671 189.159161 
L 158.432254 228.950301 
L 161.896628 290.375509 
L 163.051419 308.55418 
L 164.20621 314.003595 
L 165.361002 334.478664 
L 166.515793 344.763663 
L 168.825376 379.063342 
L 169.980167 386.956364 
L 171.134958 380.508919 
L 172.28975 370.318848 
L 174.599332 347.562935 
L 176.908915 327.182794 
L 180.373289 293.048924 
L 186.147245 242.098572 
L 187.302037 240.910686 
L 188.456828 229.532729 
L 189.611619 228.344843 
L 191.921202 205.58893 
L 195.385576 202.025271 
L 197.695159 202.025271 
L 200.004741 199.649498 
L 203.469115 199.649498 
L 209.243072 193.710067 
L 262.363472 193.710067 
L 263.518264 194.087993 
L 285.459299 194.087993 
L 286.61409 193.710067 
L 312.019499 193.710067 
L 318.948247 261.977807 
L 335.115326 261.977807 
L 342.044073 193.710067 
L 358.211152 193.710067 
L 359.365943 205.088024 
L 377.842604 205.088024 
L 378.997396 206.227962 
L 381.306978 227.645909 
L 382.46177 226.976926 
L 383.616561 237.6859 
L 400.938431 237.6859 
L 402.093222 236.545963 
L 406.712387 193.710067 
L 449.439666 193.710067 
L 450.594457 204.419041 
L 472.535492 204.419041 
L 473.690284 193.710067 
L 493.321736 193.710067 
L 494.476528 197.830618 
L 502.560067 284.076464 
L 516.417563 284.076464 
L 517.572354 279.955912 
L 525.655893 193.710067 
L 608.800868 193.710067 
L 609.955659 195.321928 
L 612.265242 204.20402 
L 613.420033 212.358255 
L 614.574825 214.717934 
L 615.729616 221.684282 
L 616.884407 223.053462 
L 618.039199 226.854962 
L 619.19399 227.883703 
L 620.348781 229.20109 
L 621.503573 234.866094 
L 622.658364 241.507436 
L 623.813155 247.17244 
L 624.967947 247.353734 
L 626.122738 251.474285 
L 627.277529 252.022439 
L 628.432321 253.370763 
L 629.587112 255.575357 
L 630.741903 261.448747 
L 631.896694 263.04901 
L 633.051486 267.793389 
L 634.206277 263.949642 
L 635.361068 265.992644 
L 636.51586 259.60656 
L 637.670651 257.246881 
L 638.825442 252.086291 
L 639.980234 251.521749 
L 641.135025 255.2055 
L 642.289816 254.176759 
L 643.444608 255.402514 
L 644.599399 251.568684 
L 645.75419 245.557887 
L 646.908982 240.995161 
L 648.063773 242.619626 
L 649.218564 245.140417 
L 650.373356 250.394096 
L 651.528147 252.069094 
L 652.682938 253.065084 
L 653.83773 249.250901 
L 654.992521 249.53349 
L 656.147312 243.17725 
L 657.302104 246.226285 
L 658.456895 241.467311 
L 659.611686 243.142195 
L 660.766477 245.201403 
L 661.921269 246.294361 
L 663.07606 246.052642 
L 664.230851 242.587548 
L 665.385643 248.187043 
L 666.540434 247.437056 
L 667.695225 251.708188 
L 668.850017 251.322651 
L 670.004808 251.083253 
L 672.314391 255.649341 
L 673.469182 251.615658 
L 674.623973 256.388104 
L 675.778765 259.729893 
L 676.933556 266.027259 
L 678.088347 265.513587 
L 679.243139 271.460806 
L 680.39793 267.969998 
L 681.552721 271.757561 
L 682.707513 274.187916 
L 683.862304 272.128709 
L 685.017095 272.548643 
L 686.171886 279.329998 
L 687.326678 277.258948 
L 688.481469 274.255248 
L 689.63626 276.147298 
L 690.791052 270.044993 
L 691.945843 271.974765 
L 693.100634 276.58565 
L 694.255426 272.558193 
L 695.410217 264.474789 
L 696.565008 263.53606 
L 697.7198 256.512291 
L 698.874591 254.670001 
L 700.029382 246.313429 
L 701.184174 245.281495 
L 702.338965 239.334276 
L 703.493756 240.885558 
L 704.648548 236.511111 
L 705.803339 230.637721 
L 706.95813 233.437468 
L 708.112922 231.83775 
L 709.267713 228.449035 
L 710.422504 228.645272 
L 711.577295 226.049477 
L 712.732087 228.311491 
L 713.886878 228.311491 
L 715.041669 230.39824 
L 716.196461 224.924475 
L 718.506043 232.702563 
L 719.660835 235.167695 
L 720.815626 234.395695 
L 721.970417 230.724352 
L 723.125209 235.910663 
L 724.28 237.268126 
L 724.28 237.268126 
" style="fill:none;stroke:#2ca02c;stroke-linecap:square;stroke-width:1.5;"/>
   </g>
   <g id="patch_3">
    <path d="M 32.56 404.12 
L 32.56 26.52 
" style="fill:none;stroke:#000000;stroke-linecap:square;stroke-linejoin:miter;stroke-width:0.8;"/>
   </g>
   <g id="patch_4">
    <path d="M 724.28 404.12 
L 724.28 26.52 
" style="fill:none;stroke:#000000;stroke-linecap:square;stroke-linejoin:miter;stroke-width:0.8;"/>
   </g>
   <g id="patch_5">
    <path d="M 32.56 404.12 
L 724.28 404.12 
" style="fill:none;stroke:#000000;stroke-linecap:square;stroke-linejoin:miter;stroke-width:0.8;"/>
   </g>
   <g id="patch_6">
    <path d="M 32.56 26.52 
L 724.28 26.52 
" style="fill:none;stroke:#000000;stroke-linecap:square;stroke-linejoin:miter;stroke-width:0.8;"/>
   </g>
   <g id="text_15">
    <!-- multi_way_v2__dqn: episode duration in steps log-relative to `dqn_greedy`, MA=20 -->
    <defs>
     <path d="M 52 44.1875 
Q 55.375 50.25 60.0625 53.125 
Q 64.75 56 71.09375 56 
Q 79.640625 56 84.28125 50.015625 
Q 88.921875 44.046875 88.921875 33.015625 
L 88.921875 0 
L 79.890625 0 
L 79.890625 32.71875 
Q 79.890625 40.578125 77.09375 44.375 
Q 74.3125 48.1875 68.609375 48.1875 
Q 61.625 48.1875 57.5625 43.546875 
Q 53.515625 38.921875 53.515625 30.90625 
L 53.515625 0 
L 44.484375 0 
L 44.484375 32.71875 
Q 44.484375 40.625 41.703125 44.40625 
Q 38.921875 48.1875 33.109375 48.1875 
Q 26.21875 48.1875 22.15625 43.53125 
Q 18.109375 38.875 18.109375 30.90625 
L 18.109375 0 
L 9.078125 0 
L 9.078125 54.6875 
L 18.109375 54.6875 
L 18.109375 46.1875 
Q 21.1875 51.21875 25.484375 53.609375 
Q 29.78125 56 35.6875 56 
Q 41.65625 56 45.828125 52.96875 
Q 50 49.953125 52 44.1875 
z
" id="DejaVuSans-109"/>
     <path d="M 8.5 21.578125 
L 8.5 54.6875 
L 17.484375 54.6875 
L 17.484375 21.921875 
Q 17.484375 14.15625 20.5 10.265625 
Q 23.53125 6.390625 29.59375 6.390625 
Q 36.859375 6.390625 41.078125 11.03125 
Q 45.3125 15.671875 45.3125 23.6875 
L 45.3125 54.6875 
L 54.296875 54.6875 
L 54.296875 0 
L 45.3125 0 
L 45.3125 8.40625 
Q 42.046875 3.421875 37.71875 1 
Q 33.40625 -1.421875 27.6875 -1.421875 
Q 18.265625 -1.421875 13.375 4.4375 
Q 8.5 10.296875 8.5 21.578125 
z
M 31.109375 56 
z
" id="DejaVuSans-117"/>
     <path d="M 9.421875 75.984375 
L 18.40625 75.984375 
L 18.40625 0 
L 9.421875 0 
z
" id="DejaVuSans-108"/>
     <path d="M 18.3125 70.21875 
L 18.3125 54.6875 
L 36.8125 54.6875 
L 36.8125 47.703125 
L 18.3125 47.703125 
L 18.3125 18.015625 
Q 18.3125 11.328125 20.140625 9.421875 
Q 21.96875 7.515625 27.59375 7.515625 
L 36.8125 7.515625 
L 36.8125 0 
L 27.59375 0 
Q 17.1875 0 13.234375 3.875 
Q 9.28125 7.765625 9.28125 18.015625 
L 9.28125 47.703125 
L 2.6875 47.703125 
L 2.6875 54.6875 
L 9.28125 54.6875 
L 9.28125 70.21875 
z
" id="DejaVuSans-116"/>
     <path d="M 9.421875 54.6875 
L 18.40625 54.6875 
L 18.40625 0 
L 9.421875 0 
z
M 9.421875 75.984375 
L 18.40625 75.984375 
L 18.40625 64.59375 
L 9.421875 64.59375 
z
" id="DejaVuSans-105"/>
     <path d="M 50.984375 -16.609375 
L 50.984375 -23.578125 
L -0.984375 -23.578125 
L -0.984375 -16.609375 
z
" id="DejaVuSans-95"/>
     <path d="M 4.203125 54.6875 
L 13.1875 54.6875 
L 24.421875 12.015625 
L 35.59375 54.6875 
L 46.1875 54.6875 
L 57.421875 12.015625 
L 68.609375 54.6875 
L 77.59375 54.6875 
L 63.28125 0 
L 52.6875 0 
L 40.921875 44.828125 
L 29.109375 0 
L 18.5 0 
z
" id="DejaVuSans-119"/>
     <path d="M 34.28125 27.484375 
Q 23.390625 27.484375 19.1875 25 
Q 14.984375 22.515625 14.984375 16.5 
Q 14.984375 11.71875 18.140625 8.90625 
Q 21.296875 6.109375 26.703125 6.109375 
Q 34.1875 6.109375 38.703125 11.40625 
Q 43.21875 16.703125 43.21875 25.484375 
L 43.21875 27.484375 
z
M 52.203125 31.203125 
L 52.203125 0 
L 43.21875 0 
L 43.21875 8.296875 
Q 40.140625 3.328125 35.546875 0.953125 
Q 30.953125 -1.421875 24.3125 -1.421875 
Q 15.921875 -1.421875 10.953125 3.296875 
Q 6 8.015625 6 15.921875 
Q 6 25.140625 12.171875 29.828125 
Q 18.359375 34.515625 30.609375 34.515625 
L 43.21875 34.515625 
L 43.21875 35.40625 
Q 43.21875 41.609375 39.140625 45 
Q 35.0625 48.390625 27.6875 48.390625 
Q 23 48.390625 18.546875 47.265625 
Q 14.109375 46.140625 10.015625 43.890625 
L 10.015625 52.203125 
Q 14.9375 54.109375 19.578125 55.046875 
Q 24.21875 56 28.609375 56 
Q 40.484375 56 46.34375 49.84375 
Q 52.203125 43.703125 52.203125 31.203125 
z
" id="DejaVuSans-97"/>
     <path d="M 32.171875 -5.078125 
Q 28.375 -14.84375 24.75 -17.8125 
Q 21.140625 -20.796875 15.09375 -20.796875 
L 7.90625 -20.796875 
L 7.90625 -13.28125 
L 13.1875 -13.28125 
Q 16.890625 -13.28125 18.9375 -11.515625 
Q 21 -9.765625 23.484375 -3.21875 
L 25.09375 0.875 
L 2.984375 54.6875 
L 12.5 54.6875 
L 29.59375 11.921875 
L 46.6875 54.6875 
L 56.203125 54.6875 
z
" id="DejaVuSans-121"/>
     <path d="M 2.984375 54.6875 
L 12.5 54.6875 
L 29.59375 8.796875 
L 46.6875 54.6875 
L 56.203125 54.6875 
L 35.6875 0 
L 23.484375 0 
z
" id="DejaVuSans-118"/>
     <path d="M 45.40625 46.390625 
L 45.40625 75.984375 
L 54.390625 75.984375 
L 54.390625 0 
L 45.40625 0 
L 45.40625 8.203125 
Q 42.578125 3.328125 38.25 0.953125 
Q 33.9375 -1.421875 27.875 -1.421875 
Q 17.96875 -1.421875 11.734375 6.484375 
Q 5.515625 14.40625 5.515625 27.296875 
Q 5.515625 40.1875 11.734375 48.09375 
Q 17.96875 56 27.875 56 
Q 33.9375 56 38.25 53.625 
Q 42.578125 51.265625 45.40625 46.390625 
z
M 14.796875 27.296875 
Q 14.796875 17.390625 18.875 11.75 
Q 22.953125 6.109375 30.078125 6.109375 
Q 37.203125 6.109375 41.296875 11.75 
Q 45.40625 17.390625 45.40625 27.296875 
Q 45.40625 37.203125 41.296875 42.84375 
Q 37.203125 48.484375 30.078125 48.484375 
Q 22.953125 48.484375 18.875 42.84375 
Q 14.796875 37.203125 14.796875 27.296875 
z
" id="DejaVuSans-100"/>
     <path d="M 14.796875 27.296875 
Q 14.796875 17.390625 18.875 11.75 
Q 22.953125 6.109375 30.078125 6.109375 
Q 37.203125 6.109375 41.296875 11.75 
Q 45.40625 17.390625 45.40625 27.296875 
Q 45.40625 37.203125 41.296875 42.84375 
Q 37.203125 48.484375 30.078125 48.484375 
Q 22.953125 48.484375 18.875 42.84375 
Q 14.796875 37.203125 14.796875 27.296875 
z
M 45.40625 8.203125 
Q 42.578125 3.328125 38.25 0.953125 
Q 33.9375 -1.421875 27.875 -1.421875 
Q 17.96875 -1.421875 11.734375 6.484375 
Q 5.515625 14.40625 5.515625 27.296875 
Q 5.515625 40.1875 11.734375 48.09375 
Q 17.96875 56 27.875 56 
Q 33.9375 56 38.25 53.625 
Q 42.578125 51.265625 45.40625 46.390625 
L 45.40625 54.6875 
L 54.390625 54.6875 
L 54.390625 -20.796875 
L 45.40625 -20.796875 
z
" id="DejaVuSans-113"/>
     <path d="M 54.890625 33.015625 
L 54.890625 0 
L 45.90625 0 
L 45.90625 32.71875 
Q 45.90625 40.484375 42.875 44.328125 
Q 39.84375 48.1875 33.796875 48.1875 
Q 26.515625 48.1875 22.3125 43.546875 
Q 18.109375 38.921875 18.109375 30.90625 
L 18.109375 0 
L 9.078125 0 
L 9.078125 54.6875 
L 18.109375 54.6875 
L 18.109375 46.1875 
Q 21.34375 51.125 25.703125 53.5625 
Q 30.078125 56 35.796875 56 
Q 45.21875 56 50.046875 50.171875 
Q 54.890625 44.34375 54.890625 33.015625 
z
" id="DejaVuSans-110"/>
     <path d="M 11.71875 12.40625 
L 22.015625 12.40625 
L 22.015625 0 
L 11.71875 0 
z
M 11.71875 51.703125 
L 22.015625 51.703125 
L 22.015625 39.3125 
L 11.71875 39.3125 
z
" id="DejaVuSans-58"/>
     <path id="DejaVuSans-32"/>
     <path d="M 56.203125 29.59375 
L 56.203125 25.203125 
L 14.890625 25.203125 
Q 15.484375 15.921875 20.484375 11.0625 
Q 25.484375 6.203125 34.421875 6.203125 
Q 39.59375 6.203125 44.453125 7.46875 
Q 49.3125 8.734375 54.109375 11.28125 
L 54.109375 2.78125 
Q 49.265625 0.734375 44.1875 -0.34375 
Q 39.109375 -1.421875 33.890625 -1.421875 
Q 20.796875 -1.421875 13.15625 6.1875 
Q 5.515625 13.8125 5.515625 26.8125 
Q 5.515625 40.234375 12.765625 48.109375 
Q 20.015625 56 32.328125 56 
Q 43.359375 56 49.78125 48.890625 
Q 56.203125 41.796875 56.203125 29.59375 
z
M 47.21875 32.234375 
Q 47.125 39.59375 43.09375 43.984375 
Q 39.0625 48.390625 32.421875 48.390625 
Q 24.90625 48.390625 20.390625 44.140625 
Q 15.875 39.890625 15.1875 32.171875 
z
" id="DejaVuSans-101"/>
     <path d="M 18.109375 8.203125 
L 18.109375 -20.796875 
L 9.078125 -20.796875 
L 9.078125 54.6875 
L 18.109375 54.6875 
L 18.109375 46.390625 
Q 20.953125 51.265625 25.265625 53.625 
Q 29.59375 56 35.59375 56 
Q 45.5625 56 51.78125 48.09375 
Q 58.015625 40.1875 58.015625 27.296875 
Q 58.015625 14.40625 51.78125 6.484375 
Q 45.5625 -1.421875 35.59375 -1.421875 
Q 29.59375 -1.421875 25.265625 0.953125 
Q 20.953125 3.328125 18.109375 8.203125 
z
M 48.6875 27.296875 
Q 48.6875 37.203125 44.609375 42.84375 
Q 40.53125 48.484375 33.40625 48.484375 
Q 26.265625 48.484375 22.1875 42.84375 
Q 18.109375 37.203125 18.109375 27.296875 
Q 18.109375 17.390625 22.1875 11.75 
Q 26.265625 6.109375 33.40625 6.109375 
Q 40.53125 6.109375 44.609375 11.75 
Q 48.6875 17.390625 48.6875 27.296875 
z
" id="DejaVuSans-112"/>
     <path d="M 44.28125 53.078125 
L 44.28125 44.578125 
Q 40.484375 46.53125 36.375 47.5 
Q 32.28125 48.484375 27.875 48.484375 
Q 21.1875 48.484375 17.84375 46.4375 
Q 14.5 44.390625 14.5 40.28125 
Q 14.5 37.15625 16.890625 35.375 
Q 19.28125 33.59375 26.515625 31.984375 
L 29.59375 31.296875 
Q 39.15625 29.25 43.1875 25.515625 
Q 47.21875 21.78125 47.21875 15.09375 
Q 47.21875 7.46875 41.1875 3.015625 
Q 35.15625 -1.421875 24.609375 -1.421875 
Q 20.21875 -1.421875 15.453125 -0.5625 
Q 10.6875 0.296875 5.421875 2 
L 5.421875 11.28125 
Q 10.40625 8.6875 15.234375 7.390625 
Q 20.0625 6.109375 24.8125 6.109375 
Q 31.15625 6.109375 34.5625 8.28125 
Q 37.984375 10.453125 37.984375 14.40625 
Q 37.984375 18.0625 35.515625 20.015625 
Q 33.0625 21.96875 24.703125 23.78125 
L 21.578125 24.515625 
Q 13.234375 26.265625 9.515625 29.90625 
Q 5.8125 33.546875 5.8125 39.890625 
Q 5.8125 47.609375 11.28125 51.796875 
Q 16.75 56 26.8125 56 
Q 31.78125 56 36.171875 55.265625 
Q 40.578125 54.546875 44.28125 53.078125 
z
" id="DejaVuSans-115"/>
     <path d="M 30.609375 48.390625 
Q 23.390625 48.390625 19.1875 42.75 
Q 14.984375 37.109375 14.984375 27.296875 
Q 14.984375 17.484375 19.15625 11.84375 
Q 23.34375 6.203125 30.609375 6.203125 
Q 37.796875 6.203125 41.984375 11.859375 
Q 46.1875 17.53125 46.1875 27.296875 
Q 46.1875 37.015625 41.984375 42.703125 
Q 37.796875 48.390625 30.609375 48.390625 
z
M 30.609375 56 
Q 42.328125 56 49.015625 48.375 
Q 55.71875 40.765625 55.71875 27.296875 
Q 55.71875 13.875 49.015625 6.21875 
Q 42.328125 -1.421875 30.609375 -1.421875 
Q 18.84375 -1.421875 12.171875 6.21875 
Q 5.515625 13.875 5.515625 27.296875 
Q 5.515625 40.765625 12.171875 48.375 
Q 18.84375 56 30.609375 56 
z
" id="DejaVuSans-111"/>
     <path d="M 41.109375 46.296875 
Q 39.59375 47.171875 37.8125 47.578125 
Q 36.03125 48 33.890625 48 
Q 26.265625 48 22.1875 43.046875 
Q 18.109375 38.09375 18.109375 28.8125 
L 18.109375 0 
L 9.078125 0 
L 9.078125 54.6875 
L 18.109375 54.6875 
L 18.109375 46.1875 
Q 20.953125 51.171875 25.484375 53.578125 
Q 30.03125 56 36.53125 56 
Q 37.453125 56 38.578125 55.875 
Q 39.703125 55.765625 41.0625 55.515625 
z
" id="DejaVuSans-114"/>
     <path d="M 45.40625 27.984375 
Q 45.40625 37.75 41.375 43.109375 
Q 37.359375 48.484375 30.078125 48.484375 
Q 22.859375 48.484375 18.828125 43.109375 
Q 14.796875 37.75 14.796875 27.984375 
Q 14.796875 18.265625 18.828125 12.890625 
Q 22.859375 7.515625 30.078125 7.515625 
Q 37.359375 7.515625 41.375 12.890625 
Q 45.40625 18.265625 45.40625 27.984375 
z
M 54.390625 6.78125 
Q 54.390625 -7.171875 48.1875 -13.984375 
Q 42 -20.796875 29.203125 -20.796875 
Q 24.46875 -20.796875 20.265625 -20.09375 
Q 16.0625 -19.390625 12.109375 -17.921875 
L 12.109375 -9.1875 
Q 16.0625 -11.328125 19.921875 -12.34375 
Q 23.78125 -13.375 27.78125 -13.375 
Q 36.625 -13.375 41.015625 -8.765625 
Q 45.40625 -4.15625 45.40625 5.171875 
L 45.40625 9.625 
Q 42.625 4.78125 38.28125 2.390625 
Q 33.9375 0 27.875 0 
Q 17.828125 0 11.671875 7.65625 
Q 5.515625 15.328125 5.515625 27.984375 
Q 5.515625 40.671875 11.671875 48.328125 
Q 17.828125 56 27.875 56 
Q 33.9375 56 38.28125 53.609375 
Q 42.625 51.21875 45.40625 46.390625 
L 45.40625 54.6875 
L 54.390625 54.6875 
z
" id="DejaVuSans-103"/>
     <path d="M 4.890625 31.390625 
L 31.203125 31.390625 
L 31.203125 23.390625 
L 4.890625 23.390625 
z
" id="DejaVuSans-45"/>
     <path d="M 17.921875 79.984375 
L 31.6875 61.71875 
L 24.21875 61.71875 
L 8.296875 79.984375 
z
" id="DejaVuSans-96"/>
     <path d="M 11.71875 12.40625 
L 22.015625 12.40625 
L 22.015625 4 
L 14.015625 -11.625 
L 7.71875 -11.625 
L 11.71875 4 
z
" id="DejaVuSans-44"/>
     <path d="M 9.8125 72.90625 
L 24.515625 72.90625 
L 43.109375 23.296875 
L 61.8125 72.90625 
L 76.515625 72.90625 
L 76.515625 0 
L 66.890625 0 
L 66.890625 64.015625 
L 48.09375 14.015625 
L 38.1875 14.015625 
L 19.390625 64.015625 
L 19.390625 0 
L 9.8125 0 
z
" id="DejaVuSans-77"/>
     <path d="M 34.1875 63.1875 
L 20.796875 26.90625 
L 47.609375 26.90625 
z
M 28.609375 72.90625 
L 39.796875 72.90625 
L 67.578125 0 
L 57.328125 0 
L 50.6875 18.703125 
L 17.828125 18.703125 
L 11.1875 0 
L 0.78125 0 
z
" id="DejaVuSans-65"/>
     <path d="M 10.59375 45.40625 
L 73.1875 45.40625 
L 73.1875 37.203125 
L 10.59375 37.203125 
z
M 10.59375 25.484375 
L 73.1875 25.484375 
L 73.1875 17.1875 
L 10.59375 17.1875 
z
" id="DejaVuSans-61"/>
    </defs>
    <g transform="translate(127.212187 20.52)scale(0.12 -0.12)">
     <use xlink:href="#DejaVuSans-109"/>
     <use x="97.412109" xlink:href="#DejaVuSans-117"/>
     <use x="160.791016" xlink:href="#DejaVuSans-108"/>
     <use x="188.574219" xlink:href="#DejaVuSans-116"/>
     <use x="227.783203" xlink:href="#DejaVuSans-105"/>
     <use x="255.566406" xlink:href="#DejaVuSans-95"/>
     <use x="305.566406" xlink:href="#DejaVuSans-119"/>
     <use x="387.353516" xlink:href="#DejaVuSans-97"/>
     <use x="448.632812" xlink:href="#DejaVuSans-121"/>
     <use x="507.8125" xlink:href="#DejaVuSans-95"/>
     <use x="557.8125" xlink:href="#DejaVuSans-118"/>
     <use x="616.992188" xlink:href="#DejaVuSans-50"/>
     <use x="680.615234" xlink:href="#DejaVuSans-95"/>
     <use x="730.615234" xlink:href="#DejaVuSans-95"/>
     <use x="780.615234" xlink:href="#DejaVuSans-100"/>
     <use x="844.091797" xlink:href="#DejaVuSans-113"/>
     <use x="907.568359" xlink:href="#DejaVuSans-110"/>
     <use x="970.947266" xlink:href="#DejaVuSans-58"/>
     <use x="1004.638672" xlink:href="#DejaVuSans-32"/>
     <use x="1036.425781" xlink:href="#DejaVuSans-101"/>
     <use x="1097.949219" xlink:href="#DejaVuSans-112"/>
     <use x="1161.425781" xlink:href="#DejaVuSans-105"/>
     <use x="1189.208984" xlink:href="#DejaVuSans-115"/>
     <use x="1241.308594" xlink:href="#DejaVuSans-111"/>
     <use x="1302.490234" xlink:href="#DejaVuSans-100"/>
     <use x="1365.966797" xlink:href="#DejaVuSans-101"/>
     <use x="1427.490234" xlink:href="#DejaVuSans-32"/>
     <use x="1459.277344" xlink:href="#DejaVuSans-100"/>
     <use x="1522.753906" xlink:href="#DejaVuSans-117"/>
     <use x="1586.132812" xlink:href="#DejaVuSans-114"/>
     <use x="1627.246094" xlink:href="#DejaVuSans-97"/>
     <use x="1688.525391" xlink:href="#DejaVuSans-116"/>
     <use x="1727.734375" xlink:href="#DejaVuSans-105"/>
     <use x="1755.517578" xlink:href="#DejaVuSans-111"/>
     <use x="1816.699219" xlink:href="#DejaVuSans-110"/>
     <use x="1880.078125" xlink:href="#DejaVuSans-32"/>
     <use x="1911.865234" xlink:href="#DejaVuSans-105"/>
     <use x="1939.648438" xlink:href="#DejaVuSans-110"/>
     <use x="2003.027344" xlink:href="#DejaVuSans-32"/>
     <use x="2034.814453" xlink:href="#DejaVuSans-115"/>
     <use x="2086.914062" xlink:href="#DejaVuSans-116"/>
     <use x="2126.123047" xlink:href="#DejaVuSans-101"/>
     <use x="2187.646484" xlink:href="#DejaVuSans-112"/>
     <use x="2251.123047" xlink:href="#DejaVuSans-115"/>
     <use x="2303.222656" xlink:href="#DejaVuSans-32"/>
     <use x="2335.009766" xlink:href="#DejaVuSans-108"/>
     <use x="2362.792969" xlink:href="#DejaVuSans-111"/>
     <use x="2423.974609" xlink:href="#DejaVuSans-103"/>
     <use x="2487.451172" xlink:href="#DejaVuSans-45"/>
     <use x="2523.535156" xlink:href="#DejaVuSans-114"/>
     <use x="2564.617188" xlink:href="#DejaVuSans-101"/>
     <use x="2626.140625" xlink:href="#DejaVuSans-108"/>
     <use x="2653.923828" xlink:href="#DejaVuSans-97"/>
     <use x="2715.203125" xlink:href="#DejaVuSans-116"/>
     <use x="2754.412109" xlink:href="#DejaVuSans-105"/>
     <use x="2782.195312" xlink:href="#DejaVuSans-118"/>
     <use x="2841.375" xlink:href="#DejaVuSans-101"/>
     <use x="2902.898438" xlink:href="#DejaVuSans-32"/>
     <use x="2934.685547" xlink:href="#DejaVuSans-116"/>
     <use x="2973.894531" xlink:href="#DejaVuSans-111"/>
     <use x="3035.076172" xlink:href="#DejaVuSans-32"/>
     <use x="3066.863281" xlink:href="#DejaVuSans-96"/>
     <use x="3116.863281" xlink:href="#DejaVuSans-100"/>
     <use x="3180.339844" xlink:href="#DejaVuSans-113"/>
     <use x="3243.816406" xlink:href="#DejaVuSans-110"/>
     <use x="3307.195312" xlink:href="#DejaVuSans-95"/>
     <use x="3357.195312" xlink:href="#DejaVuSans-103"/>
     <use x="3420.671875" xlink:href="#DejaVuSans-114"/>
     <use x="3461.753906" xlink:href="#DejaVuSans-101"/>
     <use x="3523.277344" xlink:href="#DejaVuSans-101"/>
     <use x="3584.800781" xlink:href="#DejaVuSans-100"/>
     <use x="3648.277344" xlink:href="#DejaVuSans-121"/>
     <use x="3707.457031" xlink:href="#DejaVuSans-96"/>
     <use x="3757.457031" xlink:href="#DejaVuSans-44"/>
     <use x="3789.244141" xlink:href="#DejaVuSans-32"/>
     <use x="3821.03125" xlink:href="#DejaVuSans-77"/>
     <use x="3907.310547" xlink:href="#DejaVuSans-65"/>
     <use x="3975.71875" xlink:href="#DejaVuSans-61"/>
     <use x="4059.507812" xlink:href="#DejaVuSans-50"/>
     <use x="4123.130859" xlink:href="#DejaVuSans-48"/>
    </g>
   </g>
   <g id="legend_1">
    <g id="patch_7">
     <path d="M 764.559937 239.254375 
L 855.624 239.254375 
Q 857.624 239.254375 857.624 237.254375 
L 857.624 193.385625 
Q 857.624 191.385625 855.624 191.385625 
L 764.559937 191.385625 
Q 762.559937 191.385625 762.559937 193.385625 
L 762.559937 237.254375 
Q 762.559937 239.254375 764.559937 239.254375 
z
" style="fill:#ffffff;opacity:0.8;stroke:#cccccc;stroke-linejoin:miter;"/>
    </g>
    <g id="line2d_18">
     <path d="M 766.559937 199.484062 
L 786.559937 199.484062 
" style="fill:none;stroke:#1f77b4;stroke-linecap:square;stroke-width:1.5;"/>
    </g>
    <g id="line2d_19"/>
    <g id="text_16">
     <!-- dqn_greedy -->
     <g transform="translate(794.559937 202.984062)scale(0.1 -0.1)">
      <use xlink:href="#DejaVuSans-100"/>
      <use x="63.476562" xlink:href="#DejaVuSans-113"/>
      <use x="126.953125" xlink:href="#DejaVuSans-110"/>
      <use x="190.332031" xlink:href="#DejaVuSans-95"/>
      <use x="240.332031" xlink:href="#DejaVuSans-103"/>
      <use x="303.808594" xlink:href="#DejaVuSans-114"/>
      <use x="344.890625" xlink:href="#DejaVuSans-101"/>
      <use x="406.414062" xlink:href="#DejaVuSans-101"/>
      <use x="467.9375" xlink:href="#DejaVuSans-100"/>
      <use x="531.414062" xlink:href="#DejaVuSans-121"/>
     </g>
    </g>
    <g id="line2d_20">
     <path d="M 766.559937 214.440313 
L 786.559937 214.440313 
" style="fill:none;stroke:#ff7f0e;stroke-linecap:square;stroke-width:1.5;"/>
    </g>
    <g id="line2d_21"/>
    <g id="text_17">
     <!-- dqn_eps -->
     <g transform="translate(794.559937 217.940313)scale(0.1 -0.1)">
      <use xlink:href="#DejaVuSans-100"/>
      <use x="63.476562" xlink:href="#DejaVuSans-113"/>
      <use x="126.953125" xlink:href="#DejaVuSans-110"/>
      <use x="190.332031" xlink:href="#DejaVuSans-95"/>
      <use x="240.332031" xlink:href="#DejaVuSans-101"/>
      <use x="301.855469" xlink:href="#DejaVuSans-112"/>
      <use x="365.332031" xlink:href="#DejaVuSans-115"/>
     </g>
    </g>
    <g id="line2d_22">
     <path d="M 766.559937 229.396562 
L 786.559937 229.396562 
" style="fill:none;stroke:#2ca02c;stroke-linecap:square;stroke-width:1.5;"/>
    </g>
    <g id="line2d_23"/>
    <g id="text_18">
     <!-- htm_4_1g -->
     <defs>
      <path d="M 54.890625 33.015625 
L 54.890625 0 
L 45.90625 0 
L 45.90625 32.71875 
Q 45.90625 40.484375 42.875 44.328125 
Q 39.84375 48.1875 33.796875 48.1875 
Q 26.515625 48.1875 22.3125 43.546875 
Q 18.109375 38.921875 18.109375 30.90625 
L 18.109375 0 
L 9.078125 0 
L 9.078125 75.984375 
L 18.109375 75.984375 
L 18.109375 46.1875 
Q 21.34375 51.125 25.703125 53.5625 
Q 30.078125 56 35.796875 56 
Q 45.21875 56 50.046875 50.171875 
Q 54.890625 44.34375 54.890625 33.015625 
z
" id="DejaVuSans-104"/>
     </defs>
     <g transform="translate(794.559937 232.896562)scale(0.1 -0.1)">
      <use xlink:href="#DejaVuSans-104"/>
      <use x="63.378906" xlink:href="#DejaVuSans-116"/>
      <use x="102.587891" xlink:href="#DejaVuSans-109"/>
      <use x="200" xlink:href="#DejaVuSans-95"/>
      <use x="250" xlink:href="#DejaVuSans-52"/>
      <use x="313.623047" xlink:href="#DejaVuSans-95"/>
      <use x="363.623047" xlink:href="#DejaVuSans-49"/>
      <use x="427.246094" xlink:href="#DejaVuSans-103"/>
     </g>
    </g>
   </g>
  </g>
 </g>
 <defs>
  <clipPath id="pd1b80dad09">
   <rect height="377.6" width="691.72" x="32.56" y="26.52"/>
  </clipPath>
 </defs>
</svg>
