<?xml version="1.0" encoding="utf-8" standalone="no"?>
<!DOCTYPE svg PUBLIC "-//W3C//DTD SVG 1.1//EN"
  "http://www.w3.org/Graphics/SVG/1.1/DTD/svg11.dtd">
<!-- Created with matplotlib (https://matplotlib.org/) -->
<svg height="432pt" version="1.1" viewBox="0 0 864 432" width="864pt" xmlns="http://www.w3.org/2000/svg" xmlns:xlink="http://www.w3.org/1999/xlink">
 <defs>
  <style type="text/css">
*{stroke-linecap:butt;stroke-linejoin:round;}
  </style>
 </defs>
 <g id="figure_1">
  <g id="patch_1">
   <path d="M 0 432 
L 864 432 
L 864 0 
L 0 0 
z
" style="fill:#ffffff;"/>
  </g>
  <g id="axes_1">
   <g id="patch_2">
    <path d="M 40.165 404.12 
L 724.28 404.12 
L 724.28 26.16 
L 40.165 26.16 
z
" style="fill:#ffffff;"/>
   </g>
   <g id="matplotlib.axis_1">
    <g id="xtick_1">
     <g id="line2d_1">
      <defs>
       <path d="M 0 0 
L 0 3.5 
" id="m707b9770e7" style="stroke:#000000;stroke-width:0.8;"/>
      </defs>
      <g>
       <use style="stroke:#000000;stroke-width:0.8;" x="40.165" xlink:href="#m707b9770e7" y="404.12"/>
      </g>
     </g>
     <g id="text_1">
      <!-- 0 -->
      <defs>
       <path d="M 31.78125 66.40625 
Q 24.171875 66.40625 20.328125 58.90625 
Q 16.5 51.421875 16.5 36.375 
Q 16.5 21.390625 20.328125 13.890625 
Q 24.171875 6.390625 31.78125 6.390625 
Q 39.453125 6.390625 43.28125 13.890625 
Q 47.125 21.390625 47.125 36.375 
Q 47.125 51.421875 43.28125 58.90625 
Q 39.453125 66.40625 31.78125 66.40625 
z
M 31.78125 74.21875 
Q 44.046875 74.21875 50.515625 64.515625 
Q 56.984375 54.828125 56.984375 36.375 
Q 56.984375 17.96875 50.515625 8.265625 
Q 44.046875 -1.421875 31.78125 -1.421875 
Q 19.53125 -1.421875 13.0625 8.265625 
Q 6.59375 17.96875 6.59375 36.375 
Q 6.59375 54.828125 13.0625 64.515625 
Q 19.53125 74.21875 31.78125 74.21875 
z
" id="DejaVuSans-48"/>
      </defs>
      <g transform="translate(36.98375 418.718437)scale(0.1 -0.1)">
       <use xlink:href="#DejaVuSans-48"/>
      </g>
     </g>
    </g>
    <g id="xtick_2">
     <g id="line2d_2">
      <g>
       <use style="stroke:#000000;stroke-width:0.8;" x="125.893697" xlink:href="#m707b9770e7" y="404.12"/>
      </g>
     </g>
     <g id="text_2">
      <!-- 50 -->
      <defs>
       <path d="M 10.796875 72.90625 
L 49.515625 72.90625 
L 49.515625 64.59375 
L 19.828125 64.59375 
L 19.828125 46.734375 
Q 21.96875 47.46875 24.109375 47.828125 
Q 26.265625 48.1875 28.421875 48.1875 
Q 40.625 48.1875 47.75 41.5 
Q 54.890625 34.8125 54.890625 23.390625 
Q 54.890625 11.625 47.5625 5.09375 
Q 40.234375 -1.421875 26.90625 -1.421875 
Q 22.3125 -1.421875 17.546875 -0.640625 
Q 12.796875 0.140625 7.71875 1.703125 
L 7.71875 11.625 
Q 12.109375 9.234375 16.796875 8.0625 
Q 21.484375 6.890625 26.703125 6.890625 
Q 35.15625 6.890625 40.078125 11.328125 
Q 45.015625 15.765625 45.015625 23.390625 
Q 45.015625 31 40.078125 35.4375 
Q 35.15625 39.890625 26.703125 39.890625 
Q 22.75 39.890625 18.8125 39.015625 
Q 14.890625 38.140625 10.796875 36.28125 
z
" id="DejaVuSans-53"/>
      </defs>
      <g transform="translate(119.531197 418.718437)scale(0.1 -0.1)">
       <use xlink:href="#DejaVuSans-53"/>
       <use x="63.623047" xlink:href="#DejaVuSans-48"/>
      </g>
     </g>
    </g>
    <g id="xtick_3">
     <g id="line2d_3">
      <g>
       <use style="stroke:#000000;stroke-width:0.8;" x="211.622393" xlink:href="#m707b9770e7" y="404.12"/>
      </g>
     </g>
     <g id="text_3">
      <!-- 100 -->
      <defs>
       <path d="M 12.40625 8.296875 
L 28.515625 8.296875 
L 28.515625 63.921875 
L 10.984375 60.40625 
L 10.984375 69.390625 
L 28.421875 72.90625 
L 38.28125 72.90625 
L 38.28125 8.296875 
L 54.390625 8.296875 
L 54.390625 0 
L 12.40625 0 
z
" id="DejaVuSans-49"/>
      </defs>
      <g transform="translate(202.078643 418.718437)scale(0.1 -0.1)">
       <use xlink:href="#DejaVuSans-49"/>
       <use x="63.623047" xlink:href="#DejaVuSans-48"/>
       <use x="127.246094" xlink:href="#DejaVuSans-48"/>
      </g>
     </g>
    </g>
    <g id="xtick_4">
     <g id="line2d_4">
      <g>
       <use style="stroke:#000000;stroke-width:0.8;" x="297.35109" xlink:href="#m707b9770e7" y="404.12"/>
      </g>
     </g>
     <g id="text_4">
      <!-- 150 -->
      <g transform="translate(287.80734 418.718437)scale(0.1 -0.1)">
       <use xlink:href="#DejaVuSans-49"/>
       <use x="63.623047" xlink:href="#DejaVuSans-53"/>
       <use x="127.246094" xlink:href="#DejaVuSans-48"/>
      </g>
     </g>
    </g>
    <g id="xtick_5">
     <g id="line2d_5">
      <g>
       <use style="stroke:#000000;stroke-width:0.8;" x="383.079787" xlink:href="#m707b9770e7" y="404.12"/>
      </g>
     </g>
     <g id="text_5">
      <!-- 200 -->
      <defs>
       <path d="M 19.1875 8.296875 
L 53.609375 8.296875 
L 53.609375 0 
L 7.328125 0 
L 7.328125 8.296875 
Q 12.9375 14.109375 22.625 23.890625 
Q 32.328125 33.6875 34.8125 36.53125 
Q 39.546875 41.84375 41.421875 45.53125 
Q 43.3125 49.21875 43.3125 52.78125 
Q 43.3125 58.59375 39.234375 62.25 
Q 35.15625 65.921875 28.609375 65.921875 
Q 23.96875 65.921875 18.8125 64.3125 
Q 13.671875 62.703125 7.8125 59.421875 
L 7.8125 69.390625 
Q 13.765625 71.78125 18.9375 73 
Q 24.125 74.21875 28.421875 74.21875 
Q 39.75 74.21875 46.484375 68.546875 
Q 53.21875 62.890625 53.21875 53.421875 
Q 53.21875 48.921875 51.53125 44.890625 
Q 49.859375 40.875 45.40625 35.40625 
Q 44.1875 33.984375 37.640625 27.21875 
Q 31.109375 20.453125 19.1875 8.296875 
z
" id="DejaVuSans-50"/>
      </defs>
      <g transform="translate(373.536037 418.718437)scale(0.1 -0.1)">
       <use xlink:href="#DejaVuSans-50"/>
       <use x="63.623047" xlink:href="#DejaVuSans-48"/>
       <use x="127.246094" xlink:href="#DejaVuSans-48"/>
      </g>
     </g>
    </g>
    <g id="xtick_6">
     <g id="line2d_6">
      <g>
       <use style="stroke:#000000;stroke-width:0.8;" x="468.808484" xlink:href="#m707b9770e7" y="404.12"/>
      </g>
     </g>
     <g id="text_6">
      <!-- 250 -->
      <g transform="translate(459.264734 418.718437)scale(0.1 -0.1)">
       <use xlink:href="#DejaVuSans-50"/>
       <use x="63.623047" xlink:href="#DejaVuSans-53"/>
       <use x="127.246094" xlink:href="#DejaVuSans-48"/>
      </g>
     </g>
    </g>
    <g id="xtick_7">
     <g id="line2d_7">
      <g>
       <use style="stroke:#000000;stroke-width:0.8;" x="554.53718" xlink:href="#m707b9770e7" y="404.12"/>
      </g>
     </g>
     <g id="text_7">
      <!-- 300 -->
      <defs>
       <path d="M 40.578125 39.3125 
Q 47.65625 37.796875 51.625 33 
Q 55.609375 28.21875 55.609375 21.1875 
Q 55.609375 10.40625 48.1875 4.484375 
Q 40.765625 -1.421875 27.09375 -1.421875 
Q 22.515625 -1.421875 17.65625 -0.515625 
Q 12.796875 0.390625 7.625 2.203125 
L 7.625 11.71875 
Q 11.71875 9.328125 16.59375 8.109375 
Q 21.484375 6.890625 26.8125 6.890625 
Q 36.078125 6.890625 40.9375 10.546875 
Q 45.796875 14.203125 45.796875 21.1875 
Q 45.796875 27.640625 41.28125 31.265625 
Q 36.765625 34.90625 28.71875 34.90625 
L 20.21875 34.90625 
L 20.21875 43.015625 
L 29.109375 43.015625 
Q 36.375 43.015625 40.234375 45.921875 
Q 44.09375 48.828125 44.09375 54.296875 
Q 44.09375 59.90625 40.109375 62.90625 
Q 36.140625 65.921875 28.71875 65.921875 
Q 24.65625 65.921875 20.015625 65.03125 
Q 15.375 64.15625 9.8125 62.3125 
L 9.8125 71.09375 
Q 15.4375 72.65625 20.34375 73.4375 
Q 25.25 74.21875 29.59375 74.21875 
Q 40.828125 74.21875 47.359375 69.109375 
Q 53.90625 64.015625 53.90625 55.328125 
Q 53.90625 49.265625 50.4375 45.09375 
Q 46.96875 40.921875 40.578125 39.3125 
z
" id="DejaVuSans-51"/>
      </defs>
      <g transform="translate(544.99343 418.718437)scale(0.1 -0.1)">
       <use xlink:href="#DejaVuSans-51"/>
       <use x="63.623047" xlink:href="#DejaVuSans-48"/>
       <use x="127.246094" xlink:href="#DejaVuSans-48"/>
      </g>
     </g>
    </g>
    <g id="xtick_8">
     <g id="line2d_8">
      <g>
       <use style="stroke:#000000;stroke-width:0.8;" x="640.265877" xlink:href="#m707b9770e7" y="404.12"/>
      </g>
     </g>
     <g id="text_8">
      <!-- 350 -->
      <g transform="translate(630.722127 418.718437)scale(0.1 -0.1)">
       <use xlink:href="#DejaVuSans-51"/>
       <use x="63.623047" xlink:href="#DejaVuSans-53"/>
       <use x="127.246094" xlink:href="#DejaVuSans-48"/>
      </g>
     </g>
    </g>
   </g>
   <g id="matplotlib.axis_2">
    <g id="ytick_1">
     <g id="line2d_9">
      <defs>
       <path d="M 0 0 
L -3.5 0 
" id="m5688dab0d5" style="stroke:#000000;stroke-width:0.8;"/>
      </defs>
      <g>
       <use style="stroke:#000000;stroke-width:0.8;" x="40.165" xlink:href="#m5688dab0d5" y="387.269236"/>
      </g>
     </g>
     <g id="text_9">
      <!-- 0.00 -->
      <defs>
       <path d="M 10.6875 12.40625 
L 21 12.40625 
L 21 0 
L 10.6875 0 
z
" id="DejaVuSans-46"/>
      </defs>
      <g transform="translate(10.899375 391.068455)scale(0.1 -0.1)">
       <use xlink:href="#DejaVuSans-48"/>
       <use x="63.623047" xlink:href="#DejaVuSans-46"/>
       <use x="95.410156" xlink:href="#DejaVuSans-48"/>
       <use x="159.033203" xlink:href="#DejaVuSans-48"/>
      </g>
     </g>
    </g>
    <g id="ytick_2">
     <g id="line2d_10">
      <g>
       <use style="stroke:#000000;stroke-width:0.8;" x="40.165" xlink:href="#m5688dab0d5" y="340.654219"/>
      </g>
     </g>
     <g id="text_10">
      <!-- 0.05 -->
      <g transform="translate(10.899375 344.453438)scale(0.1 -0.1)">
       <use xlink:href="#DejaVuSans-48"/>
       <use x="63.623047" xlink:href="#DejaVuSans-46"/>
       <use x="95.410156" xlink:href="#DejaVuSans-48"/>
       <use x="159.033203" xlink:href="#DejaVuSans-53"/>
      </g>
     </g>
    </g>
    <g id="ytick_3">
     <g id="line2d_11">
      <g>
       <use style="stroke:#000000;stroke-width:0.8;" x="40.165" xlink:href="#m5688dab0d5" y="294.039202"/>
      </g>
     </g>
     <g id="text_11">
      <!-- 0.10 -->
      <g transform="translate(10.899375 297.838421)scale(0.1 -0.1)">
       <use xlink:href="#DejaVuSans-48"/>
       <use x="63.623047" xlink:href="#DejaVuSans-46"/>
       <use x="95.410156" xlink:href="#DejaVuSans-49"/>
       <use x="159.033203" xlink:href="#DejaVuSans-48"/>
      </g>
     </g>
    </g>
    <g id="ytick_4">
     <g id="line2d_12">
      <g>
       <use style="stroke:#000000;stroke-width:0.8;" x="40.165" xlink:href="#m5688dab0d5" y="247.424185"/>
      </g>
     </g>
     <g id="text_12">
      <!-- 0.15 -->
      <g transform="translate(10.899375 251.223404)scale(0.1 -0.1)">
       <use xlink:href="#DejaVuSans-48"/>
       <use x="63.623047" xlink:href="#DejaVuSans-46"/>
       <use x="95.410156" xlink:href="#DejaVuSans-49"/>
       <use x="159.033203" xlink:href="#DejaVuSans-53"/>
      </g>
     </g>
    </g>
    <g id="ytick_5">
     <g id="line2d_13">
      <g>
       <use style="stroke:#000000;stroke-width:0.8;" x="40.165" xlink:href="#m5688dab0d5" y="200.809168"/>
      </g>
     </g>
     <g id="text_13">
      <!-- 0.20 -->
      <g transform="translate(10.899375 204.608387)scale(0.1 -0.1)">
       <use xlink:href="#DejaVuSans-48"/>
       <use x="63.623047" xlink:href="#DejaVuSans-46"/>
       <use x="95.410156" xlink:href="#DejaVuSans-50"/>
       <use x="159.033203" xlink:href="#DejaVuSans-48"/>
      </g>
     </g>
    </g>
    <g id="ytick_6">
     <g id="line2d_14">
      <g>
       <use style="stroke:#000000;stroke-width:0.8;" x="40.165" xlink:href="#m5688dab0d5" y="154.194151"/>
      </g>
     </g>
     <g id="text_14">
      <!-- 0.25 -->
      <g transform="translate(10.899375 157.99337)scale(0.1 -0.1)">
       <use xlink:href="#DejaVuSans-48"/>
       <use x="63.623047" xlink:href="#DejaVuSans-46"/>
       <use x="95.410156" xlink:href="#DejaVuSans-50"/>
       <use x="159.033203" xlink:href="#DejaVuSans-53"/>
      </g>
     </g>
    </g>
    <g id="ytick_7">
     <g id="line2d_15">
      <g>
       <use style="stroke:#000000;stroke-width:0.8;" x="40.165" xlink:href="#m5688dab0d5" y="107.579134"/>
      </g>
     </g>
     <g id="text_15">
      <!-- 0.30 -->
      <g transform="translate(10.899375 111.378353)scale(0.1 -0.1)">
       <use xlink:href="#DejaVuSans-48"/>
       <use x="63.623047" xlink:href="#DejaVuSans-46"/>
       <use x="95.410156" xlink:href="#DejaVuSans-51"/>
       <use x="159.033203" xlink:href="#DejaVuSans-48"/>
      </g>
     </g>
    </g>
    <g id="ytick_8">
     <g id="line2d_16">
      <g>
       <use style="stroke:#000000;stroke-width:0.8;" x="40.165" xlink:href="#m5688dab0d5" y="60.964117"/>
      </g>
     </g>
     <g id="text_16">
      <!-- 0.35 -->
      <g transform="translate(10.899375 64.763336)scale(0.1 -0.1)">
       <use xlink:href="#DejaVuSans-48"/>
       <use x="63.623047" xlink:href="#DejaVuSans-46"/>
       <use x="95.410156" xlink:href="#DejaVuSans-51"/>
       <use x="159.033203" xlink:href="#DejaVuSans-53"/>
      </g>
     </g>
    </g>
   </g>
   <g id="line2d_17">
    <path clip-path="url(#pbff70d6f25)" d="M 72.741905 382.534055 
L 74.456479 382.777298 
L 76.171053 382.63607 
L 83.029348 383.014368 
L 86.458496 383.133309 
L 89.887644 382.982938 
L 93.316792 383.296662 
L 96.74594 383.315044 
L 98.460514 383.566335 
L 101.889662 383.658089 
L 103.604236 383.836029 
L 105.31881 383.81886 
L 107.033383 383.91867 
L 108.747957 383.772621 
L 112.177105 383.820189 
L 113.891679 383.990661 
L 115.606253 383.964495 
L 117.320827 384.06851 
L 119.035401 384.043199 
L 122.464549 384.152454 
L 124.179123 384.137182 
L 127.608271 383.949159 
L 131.037419 383.881529 
L 134.466566 383.675804 
L 137.895714 383.243582 
L 139.610288 383.203563 
L 141.324862 383.330772 
L 143.039436 383.335927 
L 144.75401 383.504684 
L 146.468584 383.545112 
L 148.183158 383.349827 
L 156.756028 383.688654 
L 160.185175 383.915352 
L 161.899749 383.779894 
L 168.758045 383.876226 
L 170.472619 384.067882 
L 173.901767 384.037803 
L 175.616341 383.799149 
L 177.330915 384.006911 
L 179.045489 384.039388 
L 180.760063 383.876417 
L 187.618358 384.071947 
L 191.047506 383.911927 
L 199.620376 383.902198 
L 201.33495 384.140486 
L 204.764098 384.184084 
L 206.478672 384.409317 
L 209.90782 384.657143 
L 211.622393 384.418607 
L 213.336967 384.353585 
L 216.766115 384.768784 
L 227.053559 385.001402 
L 230.482707 384.789505 
L 232.197281 384.543641 
L 235.626429 384.336377 
L 237.341003 383.914071 
L 239.055576 383.894328 
L 240.77015 383.480079 
L 242.484724 383.5249 
L 244.199298 383.159695 
L 249.34302 383.061371 
L 252.772168 382.491715 
L 261.345038 382.4767 
L 264.774185 382.92463 
L 268.203333 383.605907 
L 269.917907 383.568562 
L 271.632481 383.868842 
L 276.776203 384.04176 
L 280.205351 384.629147 
L 281.919925 384.398313 
L 285.349073 384.584406 
L 287.063647 384.840584 
L 290.492794 384.538396 
L 305.92396 384.596086 
L 307.638534 384.361009 
L 309.353108 384.65306 
L 311.067682 384.67032 
L 314.49683 384.499957 
L 317.925977 384.746657 
L 319.640551 384.861316 
L 324.784273 384.889648 
L 326.498847 385.134503 
L 331.642569 385.179757 
L 335.071717 384.79244 
L 336.786291 384.482433 
L 338.500865 384.538544 
L 348.788308 384.119322 
L 350.502882 384.136086 
L 353.93203 383.660734 
L 355.646604 383.651503 
L 359.075752 383.909646 
L 365.934048 383.29415 
L 371.077769 383.886811 
L 377.936065 384.594457 
L 383.079787 384.656268 
L 386.508935 384.817817 
L 389.938083 384.983153 
L 396.796378 384.79609 
L 400.225526 385.076707 
L 405.369248 384.954412 
L 407.083822 384.934955 
L 408.798396 384.690109 
L 410.51297 384.587462 
L 413.942118 384.566283 
L 417.371266 384.510286 
L 419.08584 384.313637 
L 425.944135 384.186439 
L 427.658709 384.249259 
L 431.087857 384.535393 
L 432.802431 384.299557 
L 434.517005 384.19097 
L 436.231579 384.235972 
L 437.946153 384.04608 
L 439.660727 384.110917 
L 441.375301 383.88102 
L 444.804449 384.076274 
L 448.233596 384.116001 
L 449.94817 384.366062 
L 451.662744 384.441458 
L 453.377318 384.665835 
L 455.091892 384.63966 
L 456.806466 384.881366 
L 460.235614 384.818635 
L 461.950188 384.575799 
L 463.664762 384.603176 
L 465.379336 384.37373 
L 467.09391 384.599007 
L 470.523058 384.569565 
L 472.237632 384.796708 
L 473.952206 384.811184 
L 475.666779 384.97072 
L 479.095927 385.005844 
L 480.810501 385.023199 
L 484.239649 384.726089 
L 485.954223 384.611541 
L 487.668797 384.620858 
L 489.383371 384.775541 
L 491.097945 384.766768 
L 494.527093 384.52991 
L 497.956241 384.494539 
L 499.670815 384.763708 
L 501.385388 384.54492 
L 503.099962 384.802401 
L 504.814536 384.76666 
L 506.52911 384.57703 
L 509.958258 384.855403 
L 513.387406 384.944872 
L 515.10198 384.93961 
L 516.816554 385.163666 
L 518.531128 385.017324 
L 520.245702 385.12956 
L 527.103997 384.922234 
L 532.247719 385.34925 
L 535.676867 385.273637 
L 537.391441 385.051382 
L 540.820589 385.008262 
L 542.535163 384.775135 
L 545.964311 384.634208 
L 547.678885 384.637512 
L 551.108033 384.178911 
L 552.822607 384.420955 
L 554.53718 384.242489 
L 556.251754 384.276519 
L 559.680902 383.98252 
L 561.395476 384.223919 
L 563.11005 384.174949 
L 564.824624 383.96594 
L 568.253772 383.980163 
L 569.968346 384.214418 
L 571.68292 384.078518 
L 573.397494 383.73089 
L 576.826642 384.039563 
L 581.970363 383.740099 
L 585.399511 384.047959 
L 587.114085 383.77643 
L 588.828659 383.752568 
L 590.543233 383.570483 
L 592.257807 383.558793 
L 593.972381 383.728795 
L 595.686955 383.566046 
L 597.401529 383.56775 
L 599.116103 383.700937 
L 602.545251 383.536058 
L 604.259825 383.343303 
L 605.974398 383.483519 
L 607.688972 383.761513 
L 609.403546 383.554681 
L 611.11812 383.582067 
L 612.832694 383.782968 
L 614.547268 383.656367 
L 617.976416 383.730227 
L 619.69099 383.717061 
L 623.120138 384.123509 
L 624.834712 384.168709 
L 626.549286 384.386303 
L 628.26386 384.298873 
L 629.978434 384.468265 
L 631.693008 384.359256 
L 636.836729 384.294145 
L 640.265877 384.61835 
L 643.695025 384.705183 
L 647.124173 384.287527 
L 648.838747 384.416127 
L 650.553321 384.336218 
L 652.267895 384.383123 
L 662.555338 383.915624 
L 664.269912 383.876827 
L 665.984486 384.012027 
L 674.557356 383.930497 
L 676.27193 383.752655 
L 677.986504 383.760952 
L 681.415652 384.02384 
L 688.273947 383.930168 
L 689.988521 384.106842 
L 696.846817 383.853743 
L 698.561391 383.649086 
L 700.275965 383.69735 
L 707.134261 383.237572 
L 708.848835 383.165416 
L 710.563409 383.262976 
L 717.421704 383.109381 
L 719.136278 383.151243 
L 722.565426 383.46176 
L 724.28 383.268876 
L 724.28 383.268876 
" style="fill:none;stroke:#1f77b4;stroke-linecap:square;stroke-width:1.5;"/>
   </g>
   <g id="line2d_18">
    <path clip-path="url(#pbff70d6f25)" d="M 72.741905 383.969363 
L 77.885627 384.550081 
L 79.600201 384.558277 
L 98.460514 386.520322 
L 137.895714 386.722105 
L 160.185175 386.687491 
L 199.620376 386.702306 
L 209.90782 386.719144 
L 216.766115 385.9284 
L 244.199298 382.88625 
L 247.628446 382.916499 
L 251.057594 382.854936 
L 290.492794 382.936874 
L 292.207368 383.118925 
L 295.636516 383.062631 
L 304.209386 383.023111 
L 305.92396 383.237792 
L 307.638534 383.236783 
L 312.782256 383.750457 
L 321.355125 383.961324 
L 323.069699 384.14228 
L 326.498847 384.121929 
L 341.930013 385.55625 
L 347.073734 385.559572 
L 353.93203 386.279513 
L 357.361178 386.279697 
L 359.075752 386.481715 
L 396.796378 386.642639 
L 419.08584 386.868415 
L 449.94817 386.89942 
L 451.662744 386.712676 
L 484.239649 386.720423 
L 485.954223 386.906611 
L 487.668797 386.708064 
L 520.245702 386.741553 
L 521.960276 386.94 
L 539.106015 386.923561 
L 542.535163 386.926186 
L 544.249737 386.734244 
L 554.53718 386.6708 
L 556.251754 386.477533 
L 568.253772 386.39292 
L 569.968346 386.172081 
L 571.68292 386.136189 
L 573.397494 385.900938 
L 576.826642 385.859898 
L 578.541216 386.027593 
L 588.828659 385.992945 
L 590.543233 386.163242 
L 602.545251 386.170594 
L 604.259825 386.375312 
L 605.974398 386.384718 
L 607.688972 386.60473 
L 638.551303 386.566164 
L 653.982469 386.583664 
L 655.697043 386.404281 
L 710.563409 386.554177 
L 719.136278 386.594472 
L 724.28 386.608814 
L 724.28 386.608814 
" style="fill:none;stroke:#ff7f0e;stroke-linecap:square;stroke-width:1.5;"/>
   </g>
   <g id="line2d_19">
    <path clip-path="url(#pbff70d6f25)" d="M 72.741905 205.590879 
L 74.456479 195.380263 
L 76.171053 183.67669 
L 77.885627 170.867151 
L 79.600201 169.666577 
L 81.314774 168.136311 
L 83.029348 169.394876 
L 84.743922 163.591541 
L 86.458496 169.550628 
L 88.17307 174.340841 
L 89.887644 192.855921 
L 91.602218 199.153662 
L 93.316792 174.600341 
L 95.031366 186.064171 
L 96.74594 172.363048 
L 98.460514 171.84441 
L 100.175088 148.902281 
L 101.889662 129.939823 
L 103.604236 123.636388 
L 105.31881 130.756047 
L 107.033383 120.055509 
L 108.747957 110.667132 
L 110.462531 118.61934 
L 112.177105 117.419717 
L 113.891679 113.189562 
L 115.606253 116.63405 
L 117.320827 111.838326 
L 119.035401 115.046515 
L 120.749975 117.362341 
L 122.464549 116.1125 
L 124.179123 95.251073 
L 125.893697 92.254365 
L 127.608271 113.842291 
L 129.322845 112.638852 
L 131.037419 130.272936 
L 132.751992 140.081028 
L 134.466566 153.264493 
L 136.18114 148.577077 
L 137.895714 149.238347 
L 139.610288 142.534736 
L 141.324862 150.495556 
L 143.039436 165.818908 
L 144.75401 169.760853 
L 146.468584 189.495382 
L 148.183158 171.537626 
L 149.897732 154.866954 
L 151.612306 139.970151 
L 153.32688 138.559668 
L 155.041454 135.758627 
L 156.756028 119.929974 
L 158.470602 135.57506 
L 160.185175 128.911979 
L 161.899749 114.041462 
L 163.614323 114.692056 
L 165.328897 117.062747 
L 167.043471 117.801209 
L 168.758045 128.475627 
L 170.472619 129.835775 
L 172.187193 148.640674 
L 173.901767 151.935478 
L 175.616341 140.088423 
L 177.330915 141.544475 
L 179.045489 127.600531 
L 180.760063 129.593461 
L 182.474637 130.652785 
L 184.189211 145.78705 
L 185.903784 156.615836 
L 187.618358 158.154919 
L 189.332932 160.338595 
L 191.047506 170.430194 
L 192.76208 178.157248 
L 194.476654 189.279195 
L 196.191228 204.777849 
L 197.905802 201.571453 
L 199.620376 178.204414 
L 201.33495 167.127132 
L 203.049524 165.089964 
L 204.764098 184.49163 
L 206.478672 172.647055 
L 208.193246 177.105964 
L 209.90782 191.625958 
L 211.622393 178.712416 
L 213.336967 192.097924 
L 215.051541 194.387347 
L 216.766115 201.197474 
L 218.480689 181.224178 
L 220.195263 191.921781 
L 221.909837 180.506987 
L 223.624411 193.239524 
L 225.338985 201.293388 
L 227.053559 200.119008 
L 228.768133 196.801811 
L 230.482707 196.178956 
L 232.197281 201.479914 
L 233.911855 226.55753 
L 235.626429 243.124064 
L 237.341003 246.633404 
L 239.055576 229.950388 
L 240.77015 242.143046 
L 242.484724 230.901652 
L 244.199298 232.333539 
L 245.913872 220.771244 
L 247.628446 222.092425 
L 249.34302 213.781564 
L 251.057594 203.336617 
L 252.772168 222.409312 
L 254.486742 220.078375 
L 256.201316 217.281682 
L 257.91589 210.442948 
L 259.630464 208.813844 
L 261.345038 205.729049 
L 263.059612 210.794707 
L 264.774185 213.671003 
L 266.488759 199.929904 
L 268.203333 173.183984 
L 269.917907 169.310601 
L 271.632481 169.244057 
L 273.347055 171.876244 
L 275.061629 158.899876 
L 276.776203 172.620376 
L 278.490777 170.459499 
L 280.205351 172.399951 
L 281.919925 151.409221 
L 283.634499 141.028311 
L 285.349073 169.801562 
L 287.063647 160.321758 
L 288.778221 149.151962 
L 290.492794 166.798631 
L 292.207368 167.514389 
L 293.921942 166.598054 
L 295.636516 172.56525 
L 297.35109 162.832139 
L 299.065664 150.591342 
L 300.780238 148.532046 
L 302.494812 175.923654 
L 304.209386 150.196456 
L 305.92396 129.935227 
L 307.638534 149.656043 
L 309.353108 162.594399 
L 311.067682 163.553368 
L 312.782256 164.29459 
L 314.49683 179.418769 
L 316.211404 197.409861 
L 317.925977 213.730253 
L 319.640551 208.637047 
L 321.355125 222.008751 
L 323.069699 205.455721 
L 324.784273 199.300958 
L 326.498847 204.618477 
L 328.213421 204.101734 
L 329.927995 204.063324 
L 331.642569 212.816011 
L 333.357143 215.253788 
L 335.071717 227.190701 
L 336.786291 204.40995 
L 338.500865 227.861541 
L 340.215439 229.955786 
L 341.930013 229.95344 
L 343.644586 223.917296 
L 345.35916 201.37433 
L 347.073734 198.954965 
L 348.788308 206.352602 
L 350.502882 209.397558 
L 352.217456 211.589231 
L 353.93203 193.413507 
L 355.646604 192.601654 
L 357.361178 221.841241 
L 359.075752 225.74702 
L 360.790326 207.822612 
L 362.5049 210.816375 
L 364.219474 210.819311 
L 365.934048 211.804527 
L 367.648622 222.394454 
L 369.363195 227.659057 
L 371.077769 246.735338 
L 372.792343 222.972039 
L 374.506917 222.681364 
L 376.221491 218.103408 
L 377.936065 221.82825 
L 379.650639 229.034301 
L 381.365213 232.771327 
L 383.079787 227.317449 
L 384.794361 226.328868 
L 386.508935 215.387891 
L 388.223509 234.791486 
L 389.938083 230.890415 
L 391.652657 230.819809 
L 393.367231 220.544845 
L 395.081805 233.904307 
L 396.796378 217.414353 
L 398.510952 213.588513 
L 400.225526 210.428064 
L 401.9401 203.528668 
L 403.654674 199.772942 
L 405.369248 202.682921 
L 407.083822 203.200423 
L 408.798396 220.86255 
L 410.51297 222.35504 
L 412.227544 217.610025 
L 413.942118 233.642436 
L 415.656692 233.741672 
L 417.371266 210.917505 
L 419.08584 210.282853 
L 420.800414 221.213022 
L 422.514987 223.529075 
L 424.229561 226.678172 
L 425.944135 211.610374 
L 427.658709 224.156445 
L 429.373283 220.217158 
L 431.087857 236.675878 
L 432.802431 240.457095 
L 434.517005 236.657916 
L 436.231579 243.470766 
L 437.946153 237.094005 
L 439.660727 237.082807 
L 441.375301 266.446312 
L 443.089875 266.466669 
L 444.804449 265.604647 
L 446.519023 273.387692 
L 448.233596 267.856117 
L 449.94817 248.412327 
L 451.662744 264.256889 
L 453.377318 255.702571 
L 455.091892 250.177824 
L 456.806466 249.318192 
L 458.52104 246.180949 
L 460.235614 261.871757 
L 461.950188 247.022485 
L 463.664762 238.071275 
L 465.379336 234.139546 
L 467.09391 234.17024 
L 468.808484 240.305686 
L 470.523058 231.769099 
L 472.237632 241.883973 
L 473.952206 242.280772 
L 475.666779 233.664767 
L 477.381353 234.387849 
L 479.095927 207.848801 
L 480.810501 206.180734 
L 482.525075 209.447551 
L 484.239649 228.884683 
L 485.954223 240.516377 
L 487.668797 243.667074 
L 489.383371 246.151801 
L 491.097945 234.545497 
L 492.812519 208.737128 
L 494.527093 208.88943 
L 496.241667 223.699013 
L 497.956241 241.916229 
L 499.670815 245.826105 
L 501.385388 242.620695 
L 503.099962 242.622603 
L 504.814536 246.60592 
L 506.52911 246.580253 
L 509.958258 206.626424 
L 511.672832 206.684092 
L 513.387406 232.490511 
L 516.816554 235.675089 
L 518.531128 235.757353 
L 520.245702 227.283141 
L 521.960276 233.923922 
L 523.67485 236.859929 
L 525.389424 249.308757 
L 527.103997 271.991228 
L 528.818571 270.42898 
L 530.533145 269.665972 
L 532.247719 246.219797 
L 533.962293 246.180562 
L 535.676867 230.540455 
L 537.391441 228.09287 
L 539.106015 231.80064 
L 540.820589 231.107783 
L 542.535163 250.975344 
L 544.249737 279.25975 
L 545.964311 270.066307 
L 547.678885 258.928904 
L 549.393459 253.553058 
L 551.108033 254.250864 
L 552.822607 246.42977 
L 554.53718 256.224455 
L 556.251754 239.562933 
L 557.966328 229.552255 
L 559.680902 205.062475 
L 561.395476 211.03385 
L 563.11005 204.919204 
L 564.824624 188.670112 
L 566.539198 184.803664 
L 568.253772 166.278864 
L 569.968346 177.332643 
L 571.68292 161.089946 
L 573.397494 159.596895 
L 575.112068 130.223758 
L 576.826642 123.316395 
L 578.541216 111.652758 
L 580.255789 113.577391 
L 581.970363 117.615627 
L 585.399511 91.750843 
L 587.114085 83.953806 
L 588.828659 84.206069 
L 590.543233 72.488844 
L 592.257807 77.102671 
L 593.972381 101.619985 
L 595.686955 78.622046 
L 597.401529 83.941939 
L 599.116103 97.887224 
L 600.830677 124.369782 
L 602.545251 141.408362 
L 604.259825 142.18981 
L 605.974398 155.343708 
L 607.688972 127.222785 
L 609.403546 141.187618 
L 611.11812 122.604413 
L 612.832694 102.618614 
L 614.547268 105.400824 
L 616.261842 106.935795 
L 617.976416 123.171621 
L 619.69099 114.689899 
L 621.405564 123.746001 
L 623.120138 112.430246 
L 624.834712 130.22225 
L 626.549286 112.429454 
L 628.26386 83.367713 
L 629.978434 96.79753 
L 631.693008 71.651381 
L 633.407581 60.232431 
L 635.122155 51.24627 
L 636.836729 49.456657 
L 638.551303 53.90595 
L 640.265877 43.34 
L 641.980451 68.751078 
L 643.695025 74.405823 
L 645.409599 98.255016 
L 647.124173 128.208896 
L 648.838747 122.80139 
L 650.553321 101.567049 
L 652.267895 98.152247 
L 653.982469 88.486828 
L 655.697043 62.265233 
L 657.411617 69.183135 
L 659.12619 71.153795 
L 660.840764 86.389999 
L 662.555338 110.47335 
L 664.269912 120.993818 
L 665.984486 117.343359 
L 667.69906 127.704607 
L 669.413634 135.831261 
L 671.128208 132.205916 
L 672.842782 133.890228 
L 674.557356 137.805716 
L 676.27193 141.135159 
L 679.701078 127.853866 
L 681.415652 126.939076 
L 683.130226 130.860949 
L 684.844799 148.565098 
L 686.559373 129.049652 
L 688.273947 155.700845 
L 689.988521 185.301471 
L 691.703095 189.654792 
L 693.417669 167.981433 
L 695.132243 173.601063 
L 696.846817 160.066498 
L 698.561391 156.196379 
L 700.275965 181.736725 
L 701.990539 181.91775 
L 703.705113 174.108054 
L 705.419687 160.141208 
L 707.134261 139.418211 
L 708.848835 147.014772 
L 710.563409 147.997381 
L 712.277982 147.406914 
L 713.992556 147.807403 
L 715.70713 149.557514 
L 717.421704 153.976356 
L 719.136278 157.660826 
L 720.850852 179.214728 
L 722.565426 176.995045 
L 724.28 160.716028 
L 724.28 160.716028 
" style="fill:none;stroke:#2ca02c;stroke-linecap:square;stroke-width:1.5;"/>
   </g>
   <g id="line2d_20">
    <path clip-path="url(#pbff70d6f25)" d="M 72.741905 238.70408 
L 74.456479 224.410623 
L 76.171053 200.0539 
L 77.885627 187.503487 
L 79.600201 184.076972 
L 81.314774 182.973623 
L 83.029348 157.351746 
L 84.743922 147.165416 
L 86.458496 148.465375 
L 88.17307 129.481542 
L 89.887644 131.219407 
L 91.602218 132.15053 
L 93.316792 128.54909 
L 95.031366 127.398104 
L 96.74594 124.673918 
L 98.460514 135.977172 
L 100.175088 114.006125 
L 101.889662 115.602368 
L 103.604236 112.210456 
L 105.31881 107.835786 
L 107.033383 107.36474 
L 108.747957 115.595813 
L 110.462531 140.84499 
L 112.177105 151.660394 
L 113.891679 151.313267 
L 115.606253 136.275684 
L 117.320827 139.32338 
L 119.035401 151.767903 
L 120.749975 156.144169 
L 122.464549 179.588963 
L 124.179123 178.611784 
L 125.893697 177.306378 
L 127.608271 182.910405 
L 129.322845 179.20009 
L 131.037419 193.909214 
L 132.751992 192.619828 
L 134.466566 201.885202 
L 136.18114 205.632635 
L 137.895714 210.035766 
L 139.610288 207.513842 
L 141.324862 205.215197 
L 143.039436 206.681443 
L 144.75401 178.850759 
L 146.468584 176.708947 
L 148.183158 173.791429 
L 149.897732 180.956244 
L 151.612306 199.055397 
L 153.32688 172.441483 
L 155.041454 166.293961 
L 156.756028 169.2491 
L 158.470602 145.297325 
L 160.185175 147.829746 
L 161.899749 106.108753 
L 163.614323 95.11665 
L 165.328897 95.068712 
L 167.043471 86.159071 
L 168.758045 90.892294 
L 170.472619 75.525378 
L 172.187193 69.627431 
L 173.901767 70.94244 
L 175.616341 76.504573 
L 177.330915 70.426282 
L 179.045489 96.659916 
L 180.760063 76.382758 
L 182.474637 82.171877 
L 184.189211 81.035827 
L 185.903784 78.180534 
L 187.618358 99.092964 
L 189.332932 105.045024 
L 191.047506 101.031933 
L 192.76208 101.186943 
L 194.476654 93.65542 
L 196.191228 135.134146 
L 197.905802 151.548155 
L 199.620376 135.105179 
L 201.33495 148.138466 
L 203.049524 151.755492 
L 204.764098 164.157533 
L 206.478672 170.024877 
L 208.193246 177.129311 
L 209.90782 174.288201 
L 211.622393 172.2669 
L 213.336967 175.969805 
L 215.051541 202.910091 
L 216.766115 206.408652 
L 218.480689 217.477285 
L 220.195263 230.909901 
L 221.909837 238.767578 
L 223.624411 240.817679 
L 225.338985 246.80776 
L 227.053559 279.611551 
L 228.768133 289.221067 
L 230.482707 291.543157 
L 232.197281 296.454808 
L 233.911855 314.979382 
L 235.626429 317.058434 
L 237.341003 325.741325 
L 239.055576 331.984886 
L 240.77015 334.048935 
L 242.484724 337.655129 
L 244.199298 342.590341 
L 245.913872 354.040912 
L 256.201316 354.134894 
L 264.774185 354.356448 
L 266.488759 354.282395 
L 269.917907 354.302757 
L 273.347055 354.393172 
L 275.061629 354.396115 
L 276.776203 353.429589 
L 281.919925 353.273108 
L 285.349073 353.335441 
L 290.492794 353.307972 
L 295.636516 353.40268 
L 299.065664 353.370882 
L 304.209386 353.487107 
L 309.353108 353.401269 
L 311.067682 354.328231 
L 314.49683 354.540647 
L 319.640551 354.50119 
L 328.213421 354.4137 
L 331.642569 354.474633 
L 338.500865 354.407725 
L 341.930013 354.483097 
L 348.788308 354.349011 
L 350.502882 353.572561 
L 353.93203 353.419476 
L 357.361178 353.489846 
L 360.790326 353.46877 
L 364.219474 353.386061 
L 365.934048 352.041562 
L 381.365213 351.965807 
L 383.079787 351.279686 
L 384.794361 352.093635 
L 386.508935 352.200044 
L 398.510952 351.524231 
L 400.225526 352.788817 
L 407.083822 352.676655 
L 410.51297 352.401972 
L 413.942118 352.277782 
L 415.656692 352.13627 
L 417.371266 352.781134 
L 419.08584 352.400322 
L 420.800414 351.889941 
L 425.944135 351.77404 
L 427.658709 351.880769 
L 431.087857 351.853843 
L 432.802431 351.99397 
L 448.233596 352.085258 
L 451.662744 352.111974 
L 453.377318 352.365177 
L 455.091892 352.762631 
L 458.52104 352.920478 
L 461.950188 352.802637 
L 463.664762 352.843313 
L 467.09391 352.735536 
L 477.381353 352.714275 
L 480.810501 352.781107 
L 485.954223 352.77787 
L 487.668797 352.856464 
L 489.383371 352.768864 
L 491.097945 352.100369 
L 492.812519 351.908474 
L 494.527093 352.025076 
L 497.956241 352.015635 
L 499.670815 352.120506 
L 521.960276 351.945629 
L 523.67485 352.03 
L 525.389424 352.695009 
L 530.533145 352.868505 
L 537.391441 352.717601 
L 547.678885 352.799603 
L 552.822607 352.663122 
L 554.53718 352.264532 
L 556.251754 334.369127 
L 557.966328 327.641134 
L 559.680902 325.837791 
L 561.395476 309.15367 
L 563.11005 294.061367 
L 564.824624 256.924614 
L 566.539198 246.772419 
L 568.253772 239.814136 
L 569.968346 223.226289 
L 571.68292 219.648973 
L 573.397494 214.566646 
L 575.112068 175.290873 
L 576.826642 161.801385 
L 578.541216 151.271485 
L 580.255789 142.491667 
L 581.970363 130.139951 
L 583.684937 126.478213 
L 585.399511 89.083975 
L 587.114085 87.350025 
L 588.828659 80.566793 
L 590.543233 96.674783 
L 592.257807 95.348667 
L 593.972381 93.466803 
L 595.686955 95.206388 
L 597.401529 80.682535 
L 599.116103 115.993299 
L 600.830677 108.618382 
L 602.545251 99.69801 
L 604.259825 112.722941 
L 605.974398 105.951632 
L 607.688972 97.371174 
L 609.403546 134.823079 
L 611.11812 146.593743 
L 612.832694 136.942011 
L 614.547268 139.299139 
L 616.261842 149.961253 
L 617.976416 137.221866 
L 619.69099 168.022472 
L 621.405564 161.662344 
L 623.120138 148.547112 
L 624.834712 148.586255 
L 626.549286 136.880181 
L 628.26386 127.186415 
L 629.978434 136.899914 
L 631.693008 134.628098 
L 633.407581 134.579709 
L 635.122155 144.110266 
L 636.836729 140.405464 
L 638.551303 133.342382 
L 640.265877 138.522408 
L 641.980451 140.485795 
L 643.695025 136.849595 
L 645.409599 135.093927 
L 647.124173 122.112895 
L 648.838747 96.877993 
L 650.553321 86.251279 
L 652.267895 100.251942 
L 653.982469 90.240525 
L 655.697043 86.766863 
L 657.411617 86.517124 
L 660.840764 69.813123 
L 662.555338 81.372791 
L 664.269912 84.920455 
L 665.984486 113.282402 
L 667.69906 101.642892 
L 669.413634 107.941261 
L 671.128208 108.123505 
L 672.842782 110.015756 
L 674.557356 103.488332 
L 676.27193 111.704793 
L 677.986504 115.293255 
L 679.701078 110.167915 
L 681.415652 139.76741 
L 683.130226 156.6867 
L 684.844799 167.1552 
L 686.559373 146.992346 
L 688.273947 154.839719 
L 689.988521 151.815729 
L 691.703095 160.671969 
L 693.417669 155.858255 
L 695.132243 168.137431 
L 696.846817 168.146841 
L 698.561391 164.674825 
L 700.275965 156.670417 
L 701.990539 156.735189 
L 703.705113 151.134856 
L 705.419687 168.775688 
L 707.134261 164.094425 
L 710.563409 146.524467 
L 712.277982 146.58226 
L 713.992556 150.976332 
L 715.70713 152.399544 
L 717.421704 150.468154 
L 719.136278 149.233759 
L 720.850852 145.291855 
L 722.565426 145.679385 
L 724.28 130.211279 
L 724.28 130.211279 
" style="fill:none;stroke:#d62728;stroke-linecap:square;stroke-width:1.5;"/>
   </g>
   <g id="line2d_21">
    <path clip-path="url(#pbff70d6f25)" d="M 72.741905 342.584028 
L 74.456479 340.365402 
L 76.171053 340.808448 
L 77.885627 340.700239 
L 79.600201 340.852732 
L 83.029348 340.663772 
L 84.743922 340.824918 
L 86.458496 340.853758 
L 88.17307 340.769729 
L 89.887644 340.944291 
L 96.74594 341.058174 
L 103.604236 341.012303 
L 105.31881 341.060106 
L 107.033383 341.678399 
L 108.747957 341.918121 
L 115.606253 342.002997 
L 117.320827 342.12758 
L 120.749975 342.102334 
L 122.464549 342.176104 
L 129.322845 341.728103 
L 131.037419 341.743119 
L 132.751992 341.88369 
L 136.18114 341.739415 
L 137.895714 341.839388 
L 141.324862 341.697066 
L 144.75401 341.635999 
L 149.897732 341.547764 
L 161.899749 341.635904 
L 163.614323 341.808884 
L 167.043471 341.633716 
L 168.758045 341.69841 
L 172.187193 341.637048 
L 175.616341 341.65089 
L 179.045489 341.71767 
L 180.760063 340.808863 
L 187.618358 340.774175 
L 189.332932 340.879364 
L 194.476654 340.870834 
L 204.764098 340.798339 
L 208.193246 340.654978 
L 209.90782 340.729419 
L 211.622393 340.577986 
L 213.336967 341.927413 
L 215.051541 344.237165 
L 218.480689 346.879455 
L 221.909837 349.51349 
L 233.911855 358.754362 
L 237.341003 361.473915 
L 245.913872 368.454329 
L 259.630464 368.198111 
L 261.345038 367.719911 
L 263.059612 367.455364 
L 266.488759 367.447132 
L 285.349073 367.482507 
L 288.778221 367.483146 
L 292.207368 367.527501 
L 293.921942 367.615749 
L 295.636516 368.090066 
L 297.35109 368.434147 
L 300.780238 368.414751 
L 307.638534 368.435077 
L 317.925977 368.342479 
L 333.357143 368.30577 
L 336.786291 368.435342 
L 341.930013 368.496167 
L 347.073734 368.606546 
L 350.502882 368.661499 
L 374.506917 368.289937 
L 377.936065 368.20195 
L 381.365213 368.201528 
L 383.079787 367.434161 
L 384.794361 366.908824 
L 386.508935 345.44554 
L 388.223509 345.152884 
L 389.938083 344.694366 
L 393.367231 344.071203 
L 395.081805 343.687443 
L 398.510952 342.789958 
L 401.9401 342.070094 
L 405.369248 341.098317 
L 407.083822 340.846273 
L 412.227544 339.710343 
L 413.942118 339.327952 
L 415.656692 338.823114 
L 417.371266 339.197639 
L 419.08584 339.342728 
L 420.800414 360.457516 
L 422.514987 360.331323 
L 425.944135 360.381692 
L 429.373283 360.356705 
L 432.802431 360.530507 
L 436.231579 360.51708 
L 437.946153 360.646823 
L 443.089875 360.56612 
L 448.233596 360.514907 
L 449.94817 360.575221 
L 455.091892 360.331039 
L 456.806466 360.382722 
L 460.235614 360.289907 
L 485.954223 360.483683 
L 492.812519 360.695417 
L 508.243684 360.598913 
L 513.387406 360.687526 
L 518.531128 360.609266 
L 523.67485 360.607487 
L 525.389424 360.661124 
L 528.818571 360.609749 
L 539.106015 360.612455 
L 542.535163 360.612881 
L 547.678885 360.488193 
L 552.822607 360.530216 
L 554.53718 360.231217 
L 559.680902 355.681931 
L 561.395476 354.370301 
L 569.968346 346.8303 
L 573.397494 344.017347 
L 576.826642 341.248837 
L 585.399511 334.360663 
L 587.114085 332.879964 
L 588.828659 331.812327 
L 592.257807 331.83621 
L 595.686955 331.769978 
L 599.116103 332.035392 
L 602.545251 332.21029 
L 607.688972 332.25727 
L 614.547268 332.259141 
L 619.69099 332.265295 
L 623.120138 332.310631 
L 636.836729 332.369334 
L 638.551303 332.072445 
L 641.980451 332.097676 
L 643.695025 330.650138 
L 647.124173 330.557936 
L 653.982469 330.566527 
L 660.840764 330.595626 
L 665.984486 330.742222 
L 671.128208 330.680338 
L 672.842782 330.929617 
L 676.27193 330.878979 
L 677.986504 332.271015 
L 679.701078 332.17008 
L 681.415652 331.760628 
L 688.273947 331.797251 
L 722.565426 331.783164 
L 724.28 331.645027 
L 724.28 331.645027 
" style="fill:none;stroke:#9467bd;stroke-linecap:square;stroke-width:1.5;"/>
   </g>
   <g id="patch_3">
    <path d="M 40.165 404.12 
L 40.165 26.16 
" style="fill:none;stroke:#000000;stroke-linecap:square;stroke-linejoin:miter;stroke-width:0.8;"/>
   </g>
   <g id="patch_4">
    <path d="M 724.28 404.12 
L 724.28 26.16 
" style="fill:none;stroke:#000000;stroke-linecap:square;stroke-linejoin:miter;stroke-width:0.8;"/>
   </g>
   <g id="patch_5">
    <path d="M 40.165 404.12 
L 724.28 404.12 
" style="fill:none;stroke:#000000;stroke-linecap:square;stroke-linejoin:miter;stroke-width:0.8;"/>
   </g>
   <g id="patch_6">
    <path d="M 40.165 26.16 
L 724.28 26.16 
" style="fill:none;stroke:#000000;stroke-linecap:square;stroke-linejoin:miter;stroke-width:0.8;"/>
   </g>
   <g id="text_17">
    <!-- multi_way_v0: episode execution time, sec, MA=20 -->
    <defs>
     <path d="M 52 44.1875 
Q 55.375 50.25 60.0625 53.125 
Q 64.75 56 71.09375 56 
Q 79.640625 56 84.28125 50.015625 
Q 88.921875 44.046875 88.921875 33.015625 
L 88.921875 0 
L 79.890625 0 
L 79.890625 32.71875 
Q 79.890625 40.578125 77.09375 44.375 
Q 74.3125 48.1875 68.609375 48.1875 
Q 61.625 48.1875 57.5625 43.546875 
Q 53.515625 38.921875 53.515625 30.90625 
L 53.515625 0 
L 44.484375 0 
L 44.484375 32.71875 
Q 44.484375 40.625 41.703125 44.40625 
Q 38.921875 48.1875 33.109375 48.1875 
Q 26.21875 48.1875 22.15625 43.53125 
Q 18.109375 38.875 18.109375 30.90625 
L 18.109375 0 
L 9.078125 0 
L 9.078125 54.6875 
L 18.109375 54.6875 
L 18.109375 46.1875 
Q 21.1875 51.21875 25.484375 53.609375 
Q 29.78125 56 35.6875 56 
Q 41.65625 56 45.828125 52.96875 
Q 50 49.953125 52 44.1875 
z
" id="DejaVuSans-109"/>
     <path d="M 8.5 21.578125 
L 8.5 54.6875 
L 17.484375 54.6875 
L 17.484375 21.921875 
Q 17.484375 14.15625 20.5 10.265625 
Q 23.53125 6.390625 29.59375 6.390625 
Q 36.859375 6.390625 41.078125 11.03125 
Q 45.3125 15.671875 45.3125 23.6875 
L 45.3125 54.6875 
L 54.296875 54.6875 
L 54.296875 0 
L 45.3125 0 
L 45.3125 8.40625 
Q 42.046875 3.421875 37.71875 1 
Q 33.40625 -1.421875 27.6875 -1.421875 
Q 18.265625 -1.421875 13.375 4.4375 
Q 8.5 10.296875 8.5 21.578125 
z
M 31.109375 56 
z
" id="DejaVuSans-117"/>
     <path d="M 9.421875 75.984375 
L 18.40625 75.984375 
L 18.40625 0 
L 9.421875 0 
z
" id="DejaVuSans-108"/>
     <path d="M 18.3125 70.21875 
L 18.3125 54.6875 
L 36.8125 54.6875 
L 36.8125 47.703125 
L 18.3125 47.703125 
L 18.3125 18.015625 
Q 18.3125 11.328125 20.140625 9.421875 
Q 21.96875 7.515625 27.59375 7.515625 
L 36.8125 7.515625 
L 36.8125 0 
L 27.59375 0 
Q 17.1875 0 13.234375 3.875 
Q 9.28125 7.765625 9.28125 18.015625 
L 9.28125 47.703125 
L 2.6875 47.703125 
L 2.6875 54.6875 
L 9.28125 54.6875 
L 9.28125 70.21875 
z
" id="DejaVuSans-116"/>
     <path d="M 9.421875 54.6875 
L 18.40625 54.6875 
L 18.40625 0 
L 9.421875 0 
z
M 9.421875 75.984375 
L 18.40625 75.984375 
L 18.40625 64.59375 
L 9.421875 64.59375 
z
" id="DejaVuSans-105"/>
     <path d="M 50.984375 -16.609375 
L 50.984375 -23.578125 
L -0.984375 -23.578125 
L -0.984375 -16.609375 
z
" id="DejaVuSans-95"/>
     <path d="M 4.203125 54.6875 
L 13.1875 54.6875 
L 24.421875 12.015625 
L 35.59375 54.6875 
L 46.1875 54.6875 
L 57.421875 12.015625 
L 68.609375 54.6875 
L 77.59375 54.6875 
L 63.28125 0 
L 52.6875 0 
L 40.921875 44.828125 
L 29.109375 0 
L 18.5 0 
z
" id="DejaVuSans-119"/>
     <path d="M 34.28125 27.484375 
Q 23.390625 27.484375 19.1875 25 
Q 14.984375 22.515625 14.984375 16.5 
Q 14.984375 11.71875 18.140625 8.90625 
Q 21.296875 6.109375 26.703125 6.109375 
Q 34.1875 6.109375 38.703125 11.40625 
Q 43.21875 16.703125 43.21875 25.484375 
L 43.21875 27.484375 
z
M 52.203125 31.203125 
L 52.203125 0 
L 43.21875 0 
L 43.21875 8.296875 
Q 40.140625 3.328125 35.546875 0.953125 
Q 30.953125 -1.421875 24.3125 -1.421875 
Q 15.921875 -1.421875 10.953125 3.296875 
Q 6 8.015625 6 15.921875 
Q 6 25.140625 12.171875 29.828125 
Q 18.359375 34.515625 30.609375 34.515625 
L 43.21875 34.515625 
L 43.21875 35.40625 
Q 43.21875 41.609375 39.140625 45 
Q 35.0625 48.390625 27.6875 48.390625 
Q 23 48.390625 18.546875 47.265625 
Q 14.109375 46.140625 10.015625 43.890625 
L 10.015625 52.203125 
Q 14.9375 54.109375 19.578125 55.046875 
Q 24.21875 56 28.609375 56 
Q 40.484375 56 46.34375 49.84375 
Q 52.203125 43.703125 52.203125 31.203125 
z
" id="DejaVuSans-97"/>
     <path d="M 32.171875 -5.078125 
Q 28.375 -14.84375 24.75 -17.8125 
Q 21.140625 -20.796875 15.09375 -20.796875 
L 7.90625 -20.796875 
L 7.90625 -13.28125 
L 13.1875 -13.28125 
Q 16.890625 -13.28125 18.9375 -11.515625 
Q 21 -9.765625 23.484375 -3.21875 
L 25.09375 0.875 
L 2.984375 54.6875 
L 12.5 54.6875 
L 29.59375 11.921875 
L 46.6875 54.6875 
L 56.203125 54.6875 
z
" id="DejaVuSans-121"/>
     <path d="M 2.984375 54.6875 
L 12.5 54.6875 
L 29.59375 8.796875 
L 46.6875 54.6875 
L 56.203125 54.6875 
L 35.6875 0 
L 23.484375 0 
z
" id="DejaVuSans-118"/>
     <path d="M 11.71875 12.40625 
L 22.015625 12.40625 
L 22.015625 0 
L 11.71875 0 
z
M 11.71875 51.703125 
L 22.015625 51.703125 
L 22.015625 39.3125 
L 11.71875 39.3125 
z
" id="DejaVuSans-58"/>
     <path id="DejaVuSans-32"/>
     <path d="M 56.203125 29.59375 
L 56.203125 25.203125 
L 14.890625 25.203125 
Q 15.484375 15.921875 20.484375 11.0625 
Q 25.484375 6.203125 34.421875 6.203125 
Q 39.59375 6.203125 44.453125 7.46875 
Q 49.3125 8.734375 54.109375 11.28125 
L 54.109375 2.78125 
Q 49.265625 0.734375 44.1875 -0.34375 
Q 39.109375 -1.421875 33.890625 -1.421875 
Q 20.796875 -1.421875 13.15625 6.1875 
Q 5.515625 13.8125 5.515625 26.8125 
Q 5.515625 40.234375 12.765625 48.109375 
Q 20.015625 56 32.328125 56 
Q 43.359375 56 49.78125 48.890625 
Q 56.203125 41.796875 56.203125 29.59375 
z
M 47.21875 32.234375 
Q 47.125 39.59375 43.09375 43.984375 
Q 39.0625 48.390625 32.421875 48.390625 
Q 24.90625 48.390625 20.390625 44.140625 
Q 15.875 39.890625 15.1875 32.171875 
z
" id="DejaVuSans-101"/>
     <path d="M 18.109375 8.203125 
L 18.109375 -20.796875 
L 9.078125 -20.796875 
L 9.078125 54.6875 
L 18.109375 54.6875 
L 18.109375 46.390625 
Q 20.953125 51.265625 25.265625 53.625 
Q 29.59375 56 35.59375 56 
Q 45.5625 56 51.78125 48.09375 
Q 58.015625 40.1875 58.015625 27.296875 
Q 58.015625 14.40625 51.78125 6.484375 
Q 45.5625 -1.421875 35.59375 -1.421875 
Q 29.59375 -1.421875 25.265625 0.953125 
Q 20.953125 3.328125 18.109375 8.203125 
z
M 48.6875 27.296875 
Q 48.6875 37.203125 44.609375 42.84375 
Q 40.53125 48.484375 33.40625 48.484375 
Q 26.265625 48.484375 22.1875 42.84375 
Q 18.109375 37.203125 18.109375 27.296875 
Q 18.109375 17.390625 22.1875 11.75 
Q 26.265625 6.109375 33.40625 6.109375 
Q 40.53125 6.109375 44.609375 11.75 
Q 48.6875 17.390625 48.6875 27.296875 
z
" id="DejaVuSans-112"/>
     <path d="M 44.28125 53.078125 
L 44.28125 44.578125 
Q 40.484375 46.53125 36.375 47.5 
Q 32.28125 48.484375 27.875 48.484375 
Q 21.1875 48.484375 17.84375 46.4375 
Q 14.5 44.390625 14.5 40.28125 
Q 14.5 37.15625 16.890625 35.375 
Q 19.28125 33.59375 26.515625 31.984375 
L 29.59375 31.296875 
Q 39.15625 29.25 43.1875 25.515625 
Q 47.21875 21.78125 47.21875 15.09375 
Q 47.21875 7.46875 41.1875 3.015625 
Q 35.15625 -1.421875 24.609375 -1.421875 
Q 20.21875 -1.421875 15.453125 -0.5625 
Q 10.6875 0.296875 5.421875 2 
L 5.421875 11.28125 
Q 10.40625 8.6875 15.234375 7.390625 
Q 20.0625 6.109375 24.8125 6.109375 
Q 31.15625 6.109375 34.5625 8.28125 
Q 37.984375 10.453125 37.984375 14.40625 
Q 37.984375 18.0625 35.515625 20.015625 
Q 33.0625 21.96875 24.703125 23.78125 
L 21.578125 24.515625 
Q 13.234375 26.265625 9.515625 29.90625 
Q 5.8125 33.546875 5.8125 39.890625 
Q 5.8125 47.609375 11.28125 51.796875 
Q 16.75 56 26.8125 56 
Q 31.78125 56 36.171875 55.265625 
Q 40.578125 54.546875 44.28125 53.078125 
z
" id="DejaVuSans-115"/>
     <path d="M 30.609375 48.390625 
Q 23.390625 48.390625 19.1875 42.75 
Q 14.984375 37.109375 14.984375 27.296875 
Q 14.984375 17.484375 19.15625 11.84375 
Q 23.34375 6.203125 30.609375 6.203125 
Q 37.796875 6.203125 41.984375 11.859375 
Q 46.1875 17.53125 46.1875 27.296875 
Q 46.1875 37.015625 41.984375 42.703125 
Q 37.796875 48.390625 30.609375 48.390625 
z
M 30.609375 56 
Q 42.328125 56 49.015625 48.375 
Q 55.71875 40.765625 55.71875 27.296875 
Q 55.71875 13.875 49.015625 6.21875 
Q 42.328125 -1.421875 30.609375 -1.421875 
Q 18.84375 -1.421875 12.171875 6.21875 
Q 5.515625 13.875 5.515625 27.296875 
Q 5.515625 40.765625 12.171875 48.375 
Q 18.84375 56 30.609375 56 
z
" id="DejaVuSans-111"/>
     <path d="M 45.40625 46.390625 
L 45.40625 75.984375 
L 54.390625 75.984375 
L 54.390625 0 
L 45.40625 0 
L 45.40625 8.203125 
Q 42.578125 3.328125 38.25 0.953125 
Q 33.9375 -1.421875 27.875 -1.421875 
Q 17.96875 -1.421875 11.734375 6.484375 
Q 5.515625 14.40625 5.515625 27.296875 
Q 5.515625 40.1875 11.734375 48.09375 
Q 17.96875 56 27.875 56 
Q 33.9375 56 38.25 53.625 
Q 42.578125 51.265625 45.40625 46.390625 
z
M 14.796875 27.296875 
Q 14.796875 17.390625 18.875 11.75 
Q 22.953125 6.109375 30.078125 6.109375 
Q 37.203125 6.109375 41.296875 11.75 
Q 45.40625 17.390625 45.40625 27.296875 
Q 45.40625 37.203125 41.296875 42.84375 
Q 37.203125 48.484375 30.078125 48.484375 
Q 22.953125 48.484375 18.875 42.84375 
Q 14.796875 37.203125 14.796875 27.296875 
z
" id="DejaVuSans-100"/>
     <path d="M 54.890625 54.6875 
L 35.109375 28.078125 
L 55.90625 0 
L 45.3125 0 
L 29.390625 21.484375 
L 13.484375 0 
L 2.875 0 
L 24.125 28.609375 
L 4.6875 54.6875 
L 15.28125 54.6875 
L 29.78125 35.203125 
L 44.28125 54.6875 
z
" id="DejaVuSans-120"/>
     <path d="M 48.78125 52.59375 
L 48.78125 44.1875 
Q 44.96875 46.296875 41.140625 47.34375 
Q 37.3125 48.390625 33.40625 48.390625 
Q 24.65625 48.390625 19.8125 42.84375 
Q 14.984375 37.3125 14.984375 27.296875 
Q 14.984375 17.28125 19.8125 11.734375 
Q 24.65625 6.203125 33.40625 6.203125 
Q 37.3125 6.203125 41.140625 7.25 
Q 44.96875 8.296875 48.78125 10.40625 
L 48.78125 2.09375 
Q 45.015625 0.34375 40.984375 -0.53125 
Q 36.96875 -1.421875 32.421875 -1.421875 
Q 20.0625 -1.421875 12.78125 6.34375 
Q 5.515625 14.109375 5.515625 27.296875 
Q 5.515625 40.671875 12.859375 48.328125 
Q 20.21875 56 33.015625 56 
Q 37.15625 56 41.109375 55.140625 
Q 45.0625 54.296875 48.78125 52.59375 
z
" id="DejaVuSans-99"/>
     <path d="M 54.890625 33.015625 
L 54.890625 0 
L 45.90625 0 
L 45.90625 32.71875 
Q 45.90625 40.484375 42.875 44.328125 
Q 39.84375 48.1875 33.796875 48.1875 
Q 26.515625 48.1875 22.3125 43.546875 
Q 18.109375 38.921875 18.109375 30.90625 
L 18.109375 0 
L 9.078125 0 
L 9.078125 54.6875 
L 18.109375 54.6875 
L 18.109375 46.1875 
Q 21.34375 51.125 25.703125 53.5625 
Q 30.078125 56 35.796875 56 
Q 45.21875 56 50.046875 50.171875 
Q 54.890625 44.34375 54.890625 33.015625 
z
" id="DejaVuSans-110"/>
     <path d="M 11.71875 12.40625 
L 22.015625 12.40625 
L 22.015625 4 
L 14.015625 -11.625 
L 7.71875 -11.625 
L 11.71875 4 
z
" id="DejaVuSans-44"/>
     <path d="M 9.8125 72.90625 
L 24.515625 72.90625 
L 43.109375 23.296875 
L 61.8125 72.90625 
L 76.515625 72.90625 
L 76.515625 0 
L 66.890625 0 
L 66.890625 64.015625 
L 48.09375 14.015625 
L 38.1875 14.015625 
L 19.390625 64.015625 
L 19.390625 0 
L 9.8125 0 
z
" id="DejaVuSans-77"/>
     <path d="M 34.1875 63.1875 
L 20.796875 26.90625 
L 47.609375 26.90625 
z
M 28.609375 72.90625 
L 39.796875 72.90625 
L 67.578125 0 
L 57.328125 0 
L 50.6875 18.703125 
L 17.828125 18.703125 
L 11.1875 0 
L 0.78125 0 
z
" id="DejaVuSans-65"/>
     <path d="M 10.59375 45.40625 
L 73.1875 45.40625 
L 73.1875 37.203125 
L 10.59375 37.203125 
z
M 10.59375 25.484375 
L 73.1875 25.484375 
L 73.1875 17.1875 
L 10.59375 17.1875 
z
" id="DejaVuSans-61"/>
    </defs>
    <g transform="translate(227.409375 20.16)scale(0.12 -0.12)">
     <use xlink:href="#DejaVuSans-109"/>
     <use x="97.412109" xlink:href="#DejaVuSans-117"/>
     <use x="160.791016" xlink:href="#DejaVuSans-108"/>
     <use x="188.574219" xlink:href="#DejaVuSans-116"/>
     <use x="227.783203" xlink:href="#DejaVuSans-105"/>
     <use x="255.566406" xlink:href="#DejaVuSans-95"/>
     <use x="305.566406" xlink:href="#DejaVuSans-119"/>
     <use x="387.353516" xlink:href="#DejaVuSans-97"/>
     <use x="448.632812" xlink:href="#DejaVuSans-121"/>
     <use x="507.8125" xlink:href="#DejaVuSans-95"/>
     <use x="557.8125" xlink:href="#DejaVuSans-118"/>
     <use x="616.992188" xlink:href="#DejaVuSans-48"/>
     <use x="680.615234" xlink:href="#DejaVuSans-58"/>
     <use x="714.306641" xlink:href="#DejaVuSans-32"/>
     <use x="746.09375" xlink:href="#DejaVuSans-101"/>
     <use x="807.617188" xlink:href="#DejaVuSans-112"/>
     <use x="871.09375" xlink:href="#DejaVuSans-105"/>
     <use x="898.876953" xlink:href="#DejaVuSans-115"/>
     <use x="950.976562" xlink:href="#DejaVuSans-111"/>
     <use x="1012.158203" xlink:href="#DejaVuSans-100"/>
     <use x="1075.634766" xlink:href="#DejaVuSans-101"/>
     <use x="1137.158203" xlink:href="#DejaVuSans-32"/>
     <use x="1168.945312" xlink:href="#DejaVuSans-101"/>
     <use x="1230.453125" xlink:href="#DejaVuSans-120"/>
     <use x="1289.585938" xlink:href="#DejaVuSans-101"/>
     <use x="1351.109375" xlink:href="#DejaVuSans-99"/>
     <use x="1406.089844" xlink:href="#DejaVuSans-117"/>
     <use x="1469.46875" xlink:href="#DejaVuSans-116"/>
     <use x="1508.677734" xlink:href="#DejaVuSans-105"/>
     <use x="1536.460938" xlink:href="#DejaVuSans-111"/>
     <use x="1597.642578" xlink:href="#DejaVuSans-110"/>
     <use x="1661.021484" xlink:href="#DejaVuSans-32"/>
     <use x="1692.808594" xlink:href="#DejaVuSans-116"/>
     <use x="1732.017578" xlink:href="#DejaVuSans-105"/>
     <use x="1759.800781" xlink:href="#DejaVuSans-109"/>
     <use x="1857.212891" xlink:href="#DejaVuSans-101"/>
     <use x="1918.736328" xlink:href="#DejaVuSans-44"/>
     <use x="1950.523438" xlink:href="#DejaVuSans-32"/>
     <use x="1982.310547" xlink:href="#DejaVuSans-115"/>
     <use x="2034.410156" xlink:href="#DejaVuSans-101"/>
     <use x="2095.933594" xlink:href="#DejaVuSans-99"/>
     <use x="2150.914062" xlink:href="#DejaVuSans-44"/>
     <use x="2182.701172" xlink:href="#DejaVuSans-32"/>
     <use x="2214.488281" xlink:href="#DejaVuSans-77"/>
     <use x="2300.767578" xlink:href="#DejaVuSans-65"/>
     <use x="2369.175781" xlink:href="#DejaVuSans-61"/>
     <use x="2452.964844" xlink:href="#DejaVuSans-50"/>
     <use x="2516.587891" xlink:href="#DejaVuSans-48"/>
    </g>
   </g>
   <g id="legend_1">
    <g id="patch_7">
     <path d="M 763.038937 254.030625 
L 854.103 254.030625 
Q 856.103 254.030625 856.103 252.030625 
L 856.103 178.249375 
Q 856.103 176.249375 854.103 176.249375 
L 763.038937 176.249375 
Q 761.038937 176.249375 761.038937 178.249375 
L 761.038937 252.030625 
Q 761.038937 254.030625 763.038937 254.030625 
z
" style="fill:#ffffff;opacity:0.8;stroke:#cccccc;stroke-linejoin:miter;"/>
    </g>
    <g id="line2d_22">
     <path d="M 765.038937 184.347812 
L 785.038937 184.347812 
" style="fill:none;stroke:#1f77b4;stroke-linecap:square;stroke-width:1.5;"/>
    </g>
    <g id="line2d_23"/>
    <g id="text_18">
     <!-- htm_0 -->
     <defs>
      <path d="M 54.890625 33.015625 
L 54.890625 0 
L 45.90625 0 
L 45.90625 32.71875 
Q 45.90625 40.484375 42.875 44.328125 
Q 39.84375 48.1875 33.796875 48.1875 
Q 26.515625 48.1875 22.3125 43.546875 
Q 18.109375 38.921875 18.109375 30.90625 
L 18.109375 0 
L 9.078125 0 
L 9.078125 75.984375 
L 18.109375 75.984375 
L 18.109375 46.1875 
Q 21.34375 51.125 25.703125 53.5625 
Q 30.078125 56 35.796875 56 
Q 45.21875 56 50.046875 50.171875 
Q 54.890625 44.34375 54.890625 33.015625 
z
" id="DejaVuSans-104"/>
     </defs>
     <g transform="translate(793.038937 187.847812)scale(0.1 -0.1)">
      <use xlink:href="#DejaVuSans-104"/>
      <use x="63.378906" xlink:href="#DejaVuSans-116"/>
      <use x="102.587891" xlink:href="#DejaVuSans-109"/>
      <use x="200" xlink:href="#DejaVuSans-95"/>
      <use x="250" xlink:href="#DejaVuSans-48"/>
     </g>
    </g>
    <g id="line2d_24">
     <path d="M 765.038937 199.304062 
L 785.038937 199.304062 
" style="fill:none;stroke:#ff7f0e;stroke-linecap:square;stroke-width:1.5;"/>
    </g>
    <g id="line2d_25"/>
    <g id="text_19">
     <!-- dqn_greedy -->
     <defs>
      <path d="M 14.796875 27.296875 
Q 14.796875 17.390625 18.875 11.75 
Q 22.953125 6.109375 30.078125 6.109375 
Q 37.203125 6.109375 41.296875 11.75 
Q 45.40625 17.390625 45.40625 27.296875 
Q 45.40625 37.203125 41.296875 42.84375 
Q 37.203125 48.484375 30.078125 48.484375 
Q 22.953125 48.484375 18.875 42.84375 
Q 14.796875 37.203125 14.796875 27.296875 
z
M 45.40625 8.203125 
Q 42.578125 3.328125 38.25 0.953125 
Q 33.9375 -1.421875 27.875 -1.421875 
Q 17.96875 -1.421875 11.734375 6.484375 
Q 5.515625 14.40625 5.515625 27.296875 
Q 5.515625 40.1875 11.734375 48.09375 
Q 17.96875 56 27.875 56 
Q 33.9375 56 38.25 53.625 
Q 42.578125 51.265625 45.40625 46.390625 
L 45.40625 54.6875 
L 54.390625 54.6875 
L 54.390625 -20.796875 
L 45.40625 -20.796875 
z
" id="DejaVuSans-113"/>
      <path d="M 45.40625 27.984375 
Q 45.40625 37.75 41.375 43.109375 
Q 37.359375 48.484375 30.078125 48.484375 
Q 22.859375 48.484375 18.828125 43.109375 
Q 14.796875 37.75 14.796875 27.984375 
Q 14.796875 18.265625 18.828125 12.890625 
Q 22.859375 7.515625 30.078125 7.515625 
Q 37.359375 7.515625 41.375 12.890625 
Q 45.40625 18.265625 45.40625 27.984375 
z
M 54.390625 6.78125 
Q 54.390625 -7.171875 48.1875 -13.984375 
Q 42 -20.796875 29.203125 -20.796875 
Q 24.46875 -20.796875 20.265625 -20.09375 
Q 16.0625 -19.390625 12.109375 -17.921875 
L 12.109375 -9.1875 
Q 16.0625 -11.328125 19.921875 -12.34375 
Q 23.78125 -13.375 27.78125 -13.375 
Q 36.625 -13.375 41.015625 -8.765625 
Q 45.40625 -4.15625 45.40625 5.171875 
L 45.40625 9.625 
Q 42.625 4.78125 38.28125 2.390625 
Q 33.9375 0 27.875 0 
Q 17.828125 0 11.671875 7.65625 
Q 5.515625 15.328125 5.515625 27.984375 
Q 5.515625 40.671875 11.671875 48.328125 
Q 17.828125 56 27.875 56 
Q 33.9375 56 38.28125 53.609375 
Q 42.625 51.21875 45.40625 46.390625 
L 45.40625 54.6875 
L 54.390625 54.6875 
z
" id="DejaVuSans-103"/>
      <path d="M 41.109375 46.296875 
Q 39.59375 47.171875 37.8125 47.578125 
Q 36.03125 48 33.890625 48 
Q 26.265625 48 22.1875 43.046875 
Q 18.109375 38.09375 18.109375 28.8125 
L 18.109375 0 
L 9.078125 0 
L 9.078125 54.6875 
L 18.109375 54.6875 
L 18.109375 46.1875 
Q 20.953125 51.171875 25.484375 53.578125 
Q 30.03125 56 36.53125 56 
Q 37.453125 56 38.578125 55.875 
Q 39.703125 55.765625 41.0625 55.515625 
z
" id="DejaVuSans-114"/>
     </defs>
     <g transform="translate(793.038937 202.804062)scale(0.1 -0.1)">
      <use xlink:href="#DejaVuSans-100"/>
      <use x="63.476562" xlink:href="#DejaVuSans-113"/>
      <use x="126.953125" xlink:href="#DejaVuSans-110"/>
      <use x="190.332031" xlink:href="#DejaVuSans-95"/>
      <use x="240.332031" xlink:href="#DejaVuSans-103"/>
      <use x="303.808594" xlink:href="#DejaVuSans-114"/>
      <use x="344.890625" xlink:href="#DejaVuSans-101"/>
      <use x="406.414062" xlink:href="#DejaVuSans-101"/>
      <use x="467.9375" xlink:href="#DejaVuSans-100"/>
      <use x="531.414062" xlink:href="#DejaVuSans-121"/>
     </g>
    </g>
    <g id="line2d_26">
     <path d="M 765.038937 214.260312 
L 785.038937 214.260312 
" style="fill:none;stroke:#2ca02c;stroke-linecap:square;stroke-width:1.5;"/>
    </g>
    <g id="line2d_27"/>
    <g id="text_20">
     <!-- htm_1_1g -->
     <g transform="translate(793.038937 217.760312)scale(0.1 -0.1)">
      <use xlink:href="#DejaVuSans-104"/>
      <use x="63.378906" xlink:href="#DejaVuSans-116"/>
      <use x="102.587891" xlink:href="#DejaVuSans-109"/>
      <use x="200" xlink:href="#DejaVuSans-95"/>
      <use x="250" xlink:href="#DejaVuSans-49"/>
      <use x="313.623047" xlink:href="#DejaVuSans-95"/>
      <use x="363.623047" xlink:href="#DejaVuSans-49"/>
      <use x="427.246094" xlink:href="#DejaVuSans-103"/>
     </g>
    </g>
    <g id="line2d_28">
     <path d="M 765.038937 229.216562 
L 785.038937 229.216562 
" style="fill:none;stroke:#d62728;stroke-linecap:square;stroke-width:1.5;"/>
    </g>
    <g id="line2d_29"/>
    <g id="text_21">
     <!-- htm_2_1g -->
     <g transform="translate(793.038937 232.716562)scale(0.1 -0.1)">
      <use xlink:href="#DejaVuSans-104"/>
      <use x="63.378906" xlink:href="#DejaVuSans-116"/>
      <use x="102.587891" xlink:href="#DejaVuSans-109"/>
      <use x="200" xlink:href="#DejaVuSans-95"/>
      <use x="250" xlink:href="#DejaVuSans-50"/>
      <use x="313.623047" xlink:href="#DejaVuSans-95"/>
      <use x="363.623047" xlink:href="#DejaVuSans-49"/>
      <use x="427.246094" xlink:href="#DejaVuSans-103"/>
     </g>
    </g>
    <g id="line2d_30">
     <path d="M 765.038937 244.172812 
L 785.038937 244.172812 
" style="fill:none;stroke:#9467bd;stroke-linecap:square;stroke-width:1.5;"/>
    </g>
    <g id="line2d_31"/>
    <g id="text_22">
     <!-- htm_4_1g -->
     <defs>
      <path d="M 37.796875 64.3125 
L 12.890625 25.390625 
L 37.796875 25.390625 
z
M 35.203125 72.90625 
L 47.609375 72.90625 
L 47.609375 25.390625 
L 58.015625 25.390625 
L 58.015625 17.1875 
L 47.609375 17.1875 
L 47.609375 0 
L 37.796875 0 
L 37.796875 17.1875 
L 4.890625 17.1875 
L 4.890625 26.703125 
z
" id="DejaVuSans-52"/>
     </defs>
     <g transform="translate(793.038937 247.672812)scale(0.1 -0.1)">
      <use xlink:href="#DejaVuSans-104"/>
      <use x="63.378906" xlink:href="#DejaVuSans-116"/>
      <use x="102.587891" xlink:href="#DejaVuSans-109"/>
      <use x="200" xlink:href="#DejaVuSans-95"/>
      <use x="250" xlink:href="#DejaVuSans-52"/>
      <use x="313.623047" xlink:href="#DejaVuSans-95"/>
      <use x="363.623047" xlink:href="#DejaVuSans-49"/>
      <use x="427.246094" xlink:href="#DejaVuSans-103"/>
     </g>
    </g>
   </g>
  </g>
 </g>
 <defs>
  <clipPath id="pbff70d6f25">
   <rect height="377.96" width="684.115" x="40.165" y="26.16"/>
  </clipPath>
 </defs>
</svg>
