<?xml version="1.0" encoding="utf-8" standalone="no"?>
<!DOCTYPE svg PUBLIC "-//W3C//DTD SVG 1.1//EN"
  "http://www.w3.org/Graphics/SVG/1.1/DTD/svg11.dtd">
<!-- Created with matplotlib (https://matplotlib.org/) -->
<svg height="432pt" version="1.1" viewBox="0 0 864 432" width="864pt" xmlns="http://www.w3.org/2000/svg" xmlns:xlink="http://www.w3.org/1999/xlink">
 <defs>
  <style type="text/css">
*{stroke-linecap:butt;stroke-linejoin:round;}
  </style>
 </defs>
 <g id="figure_1">
  <g id="patch_1">
   <path d="M 0 432 
L 864 432 
L 864 0 
L 0 0 
z
" style="fill:#ffffff;"/>
  </g>
  <g id="axes_1">
   <g id="patch_2">
    <path d="M 40.12 404.12 
L 724.28 404.12 
L 724.28 26.16 
L 40.12 26.16 
z
" style="fill:#ffffff;"/>
   </g>
   <g id="matplotlib.axis_1">
    <g id="xtick_1">
     <g id="line2d_1">
      <defs>
       <path d="M 0 0 
L 0 3.5 
" id="m31f1ef12a2" style="stroke:#000000;stroke-width:0.8;"/>
      </defs>
      <g>
       <use style="stroke:#000000;stroke-width:0.8;" x="40.12" xlink:href="#m31f1ef12a2" y="404.12"/>
      </g>
     </g>
     <g id="text_1">
      <!-- 0 -->
      <defs>
       <path d="M 31.78125 66.40625 
Q 24.171875 66.40625 20.328125 58.90625 
Q 16.5 51.421875 16.5 36.375 
Q 16.5 21.390625 20.328125 13.890625 
Q 24.171875 6.390625 31.78125 6.390625 
Q 39.453125 6.390625 43.28125 13.890625 
Q 47.125 21.390625 47.125 36.375 
Q 47.125 51.421875 43.28125 58.90625 
Q 39.453125 66.40625 31.78125 66.40625 
z
M 31.78125 74.21875 
Q 44.046875 74.21875 50.515625 64.515625 
Q 56.984375 54.828125 56.984375 36.375 
Q 56.984375 17.96875 50.515625 8.265625 
Q 44.046875 -1.421875 31.78125 -1.421875 
Q 19.53125 -1.421875 13.0625 8.265625 
Q 6.59375 17.96875 6.59375 36.375 
Q 6.59375 54.828125 13.0625 64.515625 
Q 19.53125 74.21875 31.78125 74.21875 
z
" id="DejaVuSans-48"/>
      </defs>
      <g transform="translate(36.93875 418.718437)scale(0.1 -0.1)">
       <use xlink:href="#DejaVuSans-48"/>
      </g>
     </g>
    </g>
    <g id="xtick_2">
     <g id="line2d_2">
      <g>
       <use style="stroke:#000000;stroke-width:0.8;" x="125.854336" xlink:href="#m31f1ef12a2" y="404.12"/>
      </g>
     </g>
     <g id="text_2">
      <!-- 50 -->
      <defs>
       <path d="M 10.796875 72.90625 
L 49.515625 72.90625 
L 49.515625 64.59375 
L 19.828125 64.59375 
L 19.828125 46.734375 
Q 21.96875 47.46875 24.109375 47.828125 
Q 26.265625 48.1875 28.421875 48.1875 
Q 40.625 48.1875 47.75 41.5 
Q 54.890625 34.8125 54.890625 23.390625 
Q 54.890625 11.625 47.5625 5.09375 
Q 40.234375 -1.421875 26.90625 -1.421875 
Q 22.3125 -1.421875 17.546875 -0.640625 
Q 12.796875 0.140625 7.71875 1.703125 
L 7.71875 11.625 
Q 12.109375 9.234375 16.796875 8.0625 
Q 21.484375 6.890625 26.703125 6.890625 
Q 35.15625 6.890625 40.078125 11.328125 
Q 45.015625 15.765625 45.015625 23.390625 
Q 45.015625 31 40.078125 35.4375 
Q 35.15625 39.890625 26.703125 39.890625 
Q 22.75 39.890625 18.8125 39.015625 
Q 14.890625 38.140625 10.796875 36.28125 
z
" id="DejaVuSans-53"/>
      </defs>
      <g transform="translate(119.491836 418.718437)scale(0.1 -0.1)">
       <use xlink:href="#DejaVuSans-53"/>
       <use x="63.623047" xlink:href="#DejaVuSans-48"/>
      </g>
     </g>
    </g>
    <g id="xtick_3">
     <g id="line2d_3">
      <g>
       <use style="stroke:#000000;stroke-width:0.8;" x="211.588672" xlink:href="#m31f1ef12a2" y="404.12"/>
      </g>
     </g>
     <g id="text_3">
      <!-- 100 -->
      <defs>
       <path d="M 12.40625 8.296875 
L 28.515625 8.296875 
L 28.515625 63.921875 
L 10.984375 60.40625 
L 10.984375 69.390625 
L 28.421875 72.90625 
L 38.28125 72.90625 
L 38.28125 8.296875 
L 54.390625 8.296875 
L 54.390625 0 
L 12.40625 0 
z
" id="DejaVuSans-49"/>
      </defs>
      <g transform="translate(202.044922 418.718437)scale(0.1 -0.1)">
       <use xlink:href="#DejaVuSans-49"/>
       <use x="63.623047" xlink:href="#DejaVuSans-48"/>
       <use x="127.246094" xlink:href="#DejaVuSans-48"/>
      </g>
     </g>
    </g>
    <g id="xtick_4">
     <g id="line2d_4">
      <g>
       <use style="stroke:#000000;stroke-width:0.8;" x="297.323008" xlink:href="#m31f1ef12a2" y="404.12"/>
      </g>
     </g>
     <g id="text_4">
      <!-- 150 -->
      <g transform="translate(287.779258 418.718437)scale(0.1 -0.1)">
       <use xlink:href="#DejaVuSans-49"/>
       <use x="63.623047" xlink:href="#DejaVuSans-53"/>
       <use x="127.246094" xlink:href="#DejaVuSans-48"/>
      </g>
     </g>
    </g>
    <g id="xtick_5">
     <g id="line2d_5">
      <g>
       <use style="stroke:#000000;stroke-width:0.8;" x="383.057343" xlink:href="#m31f1ef12a2" y="404.12"/>
      </g>
     </g>
     <g id="text_5">
      <!-- 200 -->
      <defs>
       <path d="M 19.1875 8.296875 
L 53.609375 8.296875 
L 53.609375 0 
L 7.328125 0 
L 7.328125 8.296875 
Q 12.9375 14.109375 22.625 23.890625 
Q 32.328125 33.6875 34.8125 36.53125 
Q 39.546875 41.84375 41.421875 45.53125 
Q 43.3125 49.21875 43.3125 52.78125 
Q 43.3125 58.59375 39.234375 62.25 
Q 35.15625 65.921875 28.609375 65.921875 
Q 23.96875 65.921875 18.8125 64.3125 
Q 13.671875 62.703125 7.8125 59.421875 
L 7.8125 69.390625 
Q 13.765625 71.78125 18.9375 73 
Q 24.125 74.21875 28.421875 74.21875 
Q 39.75 74.21875 46.484375 68.546875 
Q 53.21875 62.890625 53.21875 53.421875 
Q 53.21875 48.921875 51.53125 44.890625 
Q 49.859375 40.875 45.40625 35.40625 
Q 44.1875 33.984375 37.640625 27.21875 
Q 31.109375 20.453125 19.1875 8.296875 
z
" id="DejaVuSans-50"/>
      </defs>
      <g transform="translate(373.513593 418.718437)scale(0.1 -0.1)">
       <use xlink:href="#DejaVuSans-50"/>
       <use x="63.623047" xlink:href="#DejaVuSans-48"/>
       <use x="127.246094" xlink:href="#DejaVuSans-48"/>
      </g>
     </g>
    </g>
    <g id="xtick_6">
     <g id="line2d_6">
      <g>
       <use style="stroke:#000000;stroke-width:0.8;" x="468.791679" xlink:href="#m31f1ef12a2" y="404.12"/>
      </g>
     </g>
     <g id="text_6">
      <!-- 250 -->
      <g transform="translate(459.247929 418.718437)scale(0.1 -0.1)">
       <use xlink:href="#DejaVuSans-50"/>
       <use x="63.623047" xlink:href="#DejaVuSans-53"/>
       <use x="127.246094" xlink:href="#DejaVuSans-48"/>
      </g>
     </g>
    </g>
    <g id="xtick_7">
     <g id="line2d_7">
      <g>
       <use style="stroke:#000000;stroke-width:0.8;" x="554.526015" xlink:href="#m31f1ef12a2" y="404.12"/>
      </g>
     </g>
     <g id="text_7">
      <!-- 300 -->
      <defs>
       <path d="M 40.578125 39.3125 
Q 47.65625 37.796875 51.625 33 
Q 55.609375 28.21875 55.609375 21.1875 
Q 55.609375 10.40625 48.1875 4.484375 
Q 40.765625 -1.421875 27.09375 -1.421875 
Q 22.515625 -1.421875 17.65625 -0.515625 
Q 12.796875 0.390625 7.625 2.203125 
L 7.625 11.71875 
Q 11.71875 9.328125 16.59375 8.109375 
Q 21.484375 6.890625 26.8125 6.890625 
Q 36.078125 6.890625 40.9375 10.546875 
Q 45.796875 14.203125 45.796875 21.1875 
Q 45.796875 27.640625 41.28125 31.265625 
Q 36.765625 34.90625 28.71875 34.90625 
L 20.21875 34.90625 
L 20.21875 43.015625 
L 29.109375 43.015625 
Q 36.375 43.015625 40.234375 45.921875 
Q 44.09375 48.828125 44.09375 54.296875 
Q 44.09375 59.90625 40.109375 62.90625 
Q 36.140625 65.921875 28.71875 65.921875 
Q 24.65625 65.921875 20.015625 65.03125 
Q 15.375 64.15625 9.8125 62.3125 
L 9.8125 71.09375 
Q 15.4375 72.65625 20.34375 73.4375 
Q 25.25 74.21875 29.59375 74.21875 
Q 40.828125 74.21875 47.359375 69.109375 
Q 53.90625 64.015625 53.90625 55.328125 
Q 53.90625 49.265625 50.4375 45.09375 
Q 46.96875 40.921875 40.578125 39.3125 
z
" id="DejaVuSans-51"/>
      </defs>
      <g transform="translate(544.982265 418.718437)scale(0.1 -0.1)">
       <use xlink:href="#DejaVuSans-51"/>
       <use x="63.623047" xlink:href="#DejaVuSans-48"/>
       <use x="127.246094" xlink:href="#DejaVuSans-48"/>
      </g>
     </g>
    </g>
    <g id="xtick_8">
     <g id="line2d_8">
      <g>
       <use style="stroke:#000000;stroke-width:0.8;" x="640.260351" xlink:href="#m31f1ef12a2" y="404.12"/>
      </g>
     </g>
     <g id="text_8">
      <!-- 350 -->
      <g transform="translate(630.716601 418.718437)scale(0.1 -0.1)">
       <use xlink:href="#DejaVuSans-51"/>
       <use x="63.623047" xlink:href="#DejaVuSans-53"/>
       <use x="127.246094" xlink:href="#DejaVuSans-48"/>
      </g>
     </g>
    </g>
   </g>
   <g id="matplotlib.axis_2">
    <g id="ytick_1">
     <g id="line2d_9">
      <defs>
       <path d="M 0 0 
L -3.5 0 
" id="m439bd51353" style="stroke:#000000;stroke-width:0.8;"/>
      </defs>
      <g>
       <use style="stroke:#000000;stroke-width:0.8;" x="40.12" xlink:href="#m439bd51353" y="355.891807"/>
      </g>
     </g>
     <g id="text_9">
      <!-- 7.5 -->
      <defs>
       <path d="M 8.203125 72.90625 
L 55.078125 72.90625 
L 55.078125 68.703125 
L 28.609375 0 
L 18.3125 0 
L 43.21875 64.59375 
L 8.203125 64.59375 
z
" id="DejaVuSans-55"/>
       <path d="M 10.6875 12.40625 
L 21 12.40625 
L 21 0 
L 10.6875 0 
z
" id="DejaVuSans-46"/>
      </defs>
      <g transform="translate(17.216875 359.691026)scale(0.1 -0.1)">
       <use xlink:href="#DejaVuSans-55"/>
       <use x="63.623047" xlink:href="#DejaVuSans-46"/>
       <use x="95.410156" xlink:href="#DejaVuSans-53"/>
      </g>
     </g>
    </g>
    <g id="ytick_2">
     <g id="line2d_10">
      <g>
       <use style="stroke:#000000;stroke-width:0.8;" x="40.12" xlink:href="#m439bd51353" y="304.144819"/>
      </g>
     </g>
     <g id="text_10">
      <!-- 10.0 -->
      <g transform="translate(10.854375 307.944038)scale(0.1 -0.1)">
       <use xlink:href="#DejaVuSans-49"/>
       <use x="63.623047" xlink:href="#DejaVuSans-48"/>
       <use x="127.246094" xlink:href="#DejaVuSans-46"/>
       <use x="159.033203" xlink:href="#DejaVuSans-48"/>
      </g>
     </g>
    </g>
    <g id="ytick_3">
     <g id="line2d_11">
      <g>
       <use style="stroke:#000000;stroke-width:0.8;" x="40.12" xlink:href="#m439bd51353" y="252.397831"/>
      </g>
     </g>
     <g id="text_11">
      <!-- 12.5 -->
      <g transform="translate(10.854375 256.19705)scale(0.1 -0.1)">
       <use xlink:href="#DejaVuSans-49"/>
       <use x="63.623047" xlink:href="#DejaVuSans-50"/>
       <use x="127.246094" xlink:href="#DejaVuSans-46"/>
       <use x="159.033203" xlink:href="#DejaVuSans-53"/>
      </g>
     </g>
    </g>
    <g id="ytick_4">
     <g id="line2d_12">
      <g>
       <use style="stroke:#000000;stroke-width:0.8;" x="40.12" xlink:href="#m439bd51353" y="200.650843"/>
      </g>
     </g>
     <g id="text_12">
      <!-- 15.0 -->
      <g transform="translate(10.854375 204.450062)scale(0.1 -0.1)">
       <use xlink:href="#DejaVuSans-49"/>
       <use x="63.623047" xlink:href="#DejaVuSans-53"/>
       <use x="127.246094" xlink:href="#DejaVuSans-46"/>
       <use x="159.033203" xlink:href="#DejaVuSans-48"/>
      </g>
     </g>
    </g>
    <g id="ytick_5">
     <g id="line2d_13">
      <g>
       <use style="stroke:#000000;stroke-width:0.8;" x="40.12" xlink:href="#m439bd51353" y="148.903855"/>
      </g>
     </g>
     <g id="text_13">
      <!-- 17.5 -->
      <g transform="translate(10.854375 152.703074)scale(0.1 -0.1)">
       <use xlink:href="#DejaVuSans-49"/>
       <use x="63.623047" xlink:href="#DejaVuSans-55"/>
       <use x="127.246094" xlink:href="#DejaVuSans-46"/>
       <use x="159.033203" xlink:href="#DejaVuSans-53"/>
      </g>
     </g>
    </g>
    <g id="ytick_6">
     <g id="line2d_14">
      <g>
       <use style="stroke:#000000;stroke-width:0.8;" x="40.12" xlink:href="#m439bd51353" y="97.156867"/>
      </g>
     </g>
     <g id="text_14">
      <!-- 20.0 -->
      <g transform="translate(10.854375 100.956086)scale(0.1 -0.1)">
       <use xlink:href="#DejaVuSans-50"/>
       <use x="63.623047" xlink:href="#DejaVuSans-48"/>
       <use x="127.246094" xlink:href="#DejaVuSans-46"/>
       <use x="159.033203" xlink:href="#DejaVuSans-48"/>
      </g>
     </g>
    </g>
    <g id="ytick_7">
     <g id="line2d_15">
      <g>
       <use style="stroke:#000000;stroke-width:0.8;" x="40.12" xlink:href="#m439bd51353" y="45.40988"/>
      </g>
     </g>
     <g id="text_15">
      <!-- 22.5 -->
      <g transform="translate(10.854375 49.209098)scale(0.1 -0.1)">
       <use xlink:href="#DejaVuSans-50"/>
       <use x="63.623047" xlink:href="#DejaVuSans-50"/>
       <use x="127.246094" xlink:href="#DejaVuSans-46"/>
       <use x="159.033203" xlink:href="#DejaVuSans-53"/>
      </g>
     </g>
    </g>
   </g>
   <g id="line2d_16">
    <path clip-path="url(#p42413ddac3)" d="M 72.699048 148.903855 
L 74.413734 164.427952 
L 76.128421 149.938795 
L 77.843108 140.624337 
L 81.272481 142.694217 
L 82.987168 146.833976 
L 84.701855 138.554458 
L 86.416541 154.078554 
L 88.131228 163.393012 
L 89.845915 195.476145 
L 91.560602 206.860482 
L 93.275288 169.602651 
L 94.989975 189.266506 
L 96.704662 166.497831 
L 98.419348 165.462892 
L 100.134035 130.27494 
L 101.848722 100.261687 
L 103.563409 91.982169 
L 105.278095 103.366506 
L 106.992782 86.80747 
L 108.707469 72.318313 
L 110.422155 84.73759 
L 112.136842 82.667711 
L 113.851529 76.458072 
L 115.566216 81.632771 
L 117.280902 73.353253 
L 118.995589 78.527952 
L 120.710276 82.667711 
L 122.424962 80.597831 
L 124.139649 48.514699 
L 125.854336 43.34 
L 127.569023 76.458072 
L 129.283709 74.388193 
L 130.998396 103.366506 
L 132.713083 118.890602 
L 134.427769 138.554458 
L 136.142456 134.414699 
L 137.857143 134.414699 
L 139.57183 124.065301 
L 141.286516 136.484578 
L 143.001203 161.323133 
L 144.71589 167.532771 
L 146.430576 197.546024 
L 149.85995 145.799036 
L 151.574637 121.995422 
L 153.289323 119.925542 
L 155.00401 116.820723 
L 156.718697 91.982169 
L 158.433383 115.785783 
L 160.14807 105.436386 
L 161.862757 82.667711 
L 163.577444 83.702651 
L 165.29213 87.84241 
L 167.006817 88.877349 
L 168.721504 105.436386 
L 170.43619 105.436386 
L 172.150877 135.449639 
L 173.865564 140.624337 
L 175.580251 121.995422 
L 177.294937 124.065301 
L 179.009624 102.331566 
L 180.724311 105.436386 
L 182.438997 105.436386 
L 184.153684 129.24 
L 185.868371 146.833976 
L 189.297744 150.973735 
L 191.012431 166.497831 
L 192.727118 178.917108 
L 194.441805 196.511084 
L 196.156491 220.314699 
L 197.871178 215.14 
L 199.585865 179.952048 
L 201.300551 162.358072 
L 203.015238 159.253253 
L 204.729925 189.266506 
L 206.444612 170.63759 
L 208.159298 177.882169 
L 209.873985 200.650843 
L 211.588672 171.67253 
L 213.303358 193.406265 
L 215.018045 197.546024 
L 216.732732 205.825542 
L 218.447419 176.847229 
L 220.162105 194.441205 
L 221.876792 178.917108 
L 223.591479 199.615904 
L 225.306165 213.07012 
L 227.020852 212.035181 
L 228.735539 207.895422 
L 230.450226 207.895422 
L 232.164912 217.20988 
L 233.879599 255.502651 
L 235.594286 282.411084 
L 237.308972 288.620723 
L 239.023659 265.852048 
L 240.738346 285.515904 
L 242.453033 269.991807 
L 244.167719 273.096627 
L 245.882406 268.956867 
L 247.597093 271.026747 
L 249.311779 259.64241 
L 251.026466 251.362892 
L 252.741153 280.341205 
L 256.170526 274.131566 
L 257.885213 264.817108 
L 259.5999 262.747229 
L 261.314586 258.60747 
L 263.029273 265.852048 
L 264.74396 269.991807 
L 266.458647 251.362892 
L 268.173333 215.14 
L 269.88802 209.965301 
L 271.602707 209.965301 
L 273.317393 215.14 
L 275.03208 197.546024 
L 276.746767 218.244819 
L 278.461454 215.14 
L 280.17614 218.244819 
L 281.890827 189.266506 
L 283.605514 175.812289 
L 285.320201 215.14 
L 287.034887 201.685783 
L 288.749574 186.161687 
L 290.464261 211.000241 
L 292.178947 212.035181 
L 293.893634 211.000241 
L 295.608321 219.279759 
L 297.323008 205.825542 
L 299.037694 189.266506 
L 300.752381 186.161687 
L 302.467068 223.419518 
L 304.181754 189.266506 
L 305.896441 162.358072 
L 307.611128 189.266506 
L 309.325815 206.860482 
L 312.755188 208.930361 
L 314.469875 229.629157 
L 316.184561 254.467711 
L 317.899248 276.201446 
L 319.613935 268.956867 
L 321.328622 287.585783 
L 323.043308 266.886988 
L 324.757995 258.60747 
L 326.472682 265.852048 
L 328.187368 264.817108 
L 329.902055 264.817108 
L 331.616742 278.271325 
L 333.331429 281.376145 
L 335.046115 297.935181 
L 336.760802 266.886988 
L 338.475489 298.97012 
L 340.190175 301.04 
L 341.904862 301.04 
L 343.619549 292.760482 
L 345.334236 262.747229 
L 347.048922 259.64241 
L 348.763609 269.991807 
L 350.478296 274.131566 
L 352.192982 277.236386 
L 353.907669 253.432771 
L 355.622356 252.397831 
L 357.337043 290.690602 
L 359.051729 295.865301 
L 360.766416 271.026747 
L 362.481103 275.166506 
L 365.910476 275.166506 
L 367.625163 289.655663 
L 369.33985 296.900241 
L 371.054536 322.773735 
L 372.769223 290.690602 
L 374.48391 290.690602 
L 376.198596 284.480964 
L 377.913283 289.655663 
L 379.62797 298.97012 
L 381.342657 304.144819 
L 383.057343 296.900241 
L 384.77203 295.865301 
L 386.486717 280.341205 
L 388.201404 306.214699 
L 389.91609 301.04 
L 391.630777 301.04 
L 393.345464 287.585783 
L 395.06015 306.214699 
L 396.774837 284.480964 
L 398.489524 279.306265 
L 400.204211 275.166506 
L 401.918897 265.852048 
L 403.633584 260.677349 
L 405.348271 264.817108 
L 407.062957 264.817108 
L 408.777644 288.620723 
L 410.492331 290.690602 
L 412.207018 284.480964 
L 413.921704 306.214699 
L 415.636391 306.214699 
L 417.351078 276.201446 
L 419.065764 275.166506 
L 420.780451 290.690602 
L 422.495138 293.795422 
L 424.209825 297.935181 
L 425.924511 278.271325 
L 427.639198 294.830361 
L 429.353885 289.655663 
L 431.068571 311.389398 
L 432.783258 316.564096 
L 434.497945 311.389398 
L 436.212632 320.703855 
L 437.927318 312.424337 
L 439.642005 312.424337 
L 441.356692 351.752048 
L 443.071378 351.752048 
L 444.786065 350.717108 
L 446.500752 361.066506 
L 448.215439 353.821928 
L 449.930125 327.948434 
L 451.644812 348.647229 
L 453.359499 337.262892 
L 455.074185 330.018313 
L 456.788872 328.983373 
L 458.503559 324.843614 
L 460.218246 345.54241 
L 461.932932 325.878554 
L 463.647619 314.494217 
L 465.362306 309.319518 
L 467.076992 309.319518 
L 468.791679 317.599036 
L 470.506366 306.214699 
L 472.221053 319.668916 
L 473.935739 320.703855 
L 475.650426 309.319518 
L 477.365113 310.354458 
L 479.079799 276.201446 
L 480.794486 274.131566 
L 482.509173 278.271325 
L 484.22386 304.144819 
L 485.938546 319.668916 
L 487.653233 323.808675 
L 489.36792 326.913494 
L 491.082607 311.389398 
L 492.797293 278.271325 
L 494.51198 278.271325 
L 496.226667 297.935181 
L 497.941353 321.738795 
L 499.65604 326.913494 
L 501.370727 322.773735 
L 503.085414 322.773735 
L 504.8001 327.948434 
L 506.514787 327.948434 
L 509.94416 274.131566 
L 511.658847 274.131566 
L 513.373534 307.249639 
L 516.802907 311.389398 
L 518.517594 311.389398 
L 520.232281 300.00506 
L 521.946967 309.319518 
L 523.661654 313.459277 
L 525.376341 330.018313 
L 527.091028 358.996627 
L 528.805714 356.926747 
L 530.520401 355.891807 
L 532.235088 324.843614 
L 533.949774 324.843614 
L 535.664461 304.144819 
L 537.379148 301.04 
L 539.093835 306.214699 
L 540.808521 305.179759 
L 542.523208 332.088193 
L 544.237895 369.346024 
L 545.952581 356.926747 
L 547.667268 342.43759 
L 549.381955 335.193012 
L 551.096642 336.227952 
L 552.811328 325.878554 
L 554.526015 339.332771 
L 556.240702 316.564096 
L 557.955388 303.10988 
L 559.670075 272.061687 
L 561.384762 280.341205 
L 563.099449 272.061687 
L 564.814135 250.327952 
L 566.528822 245.153253 
L 568.243509 220.314699 
L 569.958195 234.803855 
L 571.672882 213.07012 
L 573.387569 211.000241 
L 575.102256 172.70747 
L 576.816942 163.393012 
L 578.531629 147.868916 
L 580.246316 150.973735 
L 581.961003 156.148434 
L 585.390376 121.995422 
L 587.105063 111.646024 
L 588.819749 111.646024 
L 590.534436 96.121928 
L 592.249123 102.331566 
L 593.96381 133.379759 
L 595.678496 102.331566 
L 597.393183 109.576145 
L 599.10787 128.20506 
L 600.822556 163.393012 
L 602.537243 186.161687 
L 604.25193 188.231566 
L 605.966617 205.825542 
L 607.681303 169.602651 
L 609.39599 187.196627 
L 611.110677 166.497831 
L 612.825363 143.729157 
L 614.54005 147.868916 
L 616.254737 150.973735 
L 617.969424 172.70747 
L 619.68411 163.393012 
L 621.398797 175.812289 
L 623.113484 161.323133 
L 624.82817 185.126747 
L 626.542857 162.358072 
L 628.257544 125.100241 
L 629.972231 143.729157 
L 631.686917 111.646024 
L 633.401604 97.156867 
L 635.116291 85.77253 
L 636.830977 83.702651 
L 638.545664 88.877349 
L 640.260351 75.423133 
L 641.975038 108.541205 
L 643.689724 116.820723 
L 645.404411 144.764096 
L 647.119098 180.986988 
L 648.833784 173.74241 
L 650.548471 146.833976 
L 652.263158 142.694217 
L 653.977845 130.27494 
L 655.692531 99.226747 
L 657.407218 108.541205 
L 659.121905 111.646024 
L 660.836591 131.30988 
L 662.551278 162.358072 
L 664.265965 175.812289 
L 665.980652 171.67253 
L 667.695338 185.126747 
L 669.410025 195.476145 
L 671.124712 190.301446 
L 672.839398 192.371325 
L 674.554085 197.546024 
L 676.268772 201.685783 
L 679.698145 185.126747 
L 681.412832 184.091807 
L 683.127519 189.266506 
L 684.842206 211.000241 
L 686.556892 185.126747 
L 689.986266 253.432771 
L 691.700952 258.60747 
L 693.415639 230.664096 
L 695.130326 237.908675 
L 696.845013 219.279759 
L 698.559699 214.10506 
L 700.274386 246.188193 
L 701.989073 246.188193 
L 703.703759 235.838795 
L 705.418446 217.20988 
L 707.133133 189.266506 
L 708.84782 198.580964 
L 710.562506 199.615904 
L 712.277193 197.546024 
L 713.99188 197.546024 
L 715.706566 199.615904 
L 717.421253 204.790602 
L 719.13594 208.930361 
L 720.850627 236.873735 
L 722.565313 233.768916 
L 724.28 212.035181 
L 724.28 212.035181 
" style="fill:none;stroke:#1f77b4;stroke-linecap:square;stroke-width:1.5;"/>
   </g>
   <g id="line2d_17">
    <path clip-path="url(#p42413ddac3)" d="M 72.699048 148.903855 
L 74.413734 164.427952 
L 76.128421 149.938795 
L 77.843108 140.624337 
L 81.272481 142.694217 
L 82.987168 146.833976 
L 84.701855 138.554458 
L 86.416541 154.078554 
L 88.131228 163.393012 
L 89.845915 195.476145 
L 91.560602 206.860482 
L 93.275288 169.602651 
L 94.989975 189.266506 
L 96.704662 166.497831 
L 98.419348 165.462892 
L 100.134035 130.27494 
L 101.848722 100.261687 
L 103.563409 91.982169 
L 105.278095 103.366506 
L 106.992782 86.80747 
L 108.707469 72.318313 
L 110.422155 84.73759 
L 112.136842 82.667711 
L 113.851529 76.458072 
L 115.566216 81.632771 
L 117.280902 73.353253 
L 118.995589 78.527952 
L 120.710276 82.667711 
L 122.424962 80.597831 
L 124.139649 48.514699 
L 125.854336 43.34 
L 127.569023 76.458072 
L 129.283709 74.388193 
L 130.998396 103.366506 
L 132.713083 118.890602 
L 134.427769 138.554458 
L 136.142456 134.414699 
L 137.857143 134.414699 
L 139.57183 124.065301 
L 141.286516 136.484578 
L 143.001203 161.323133 
L 144.71589 167.532771 
L 146.430576 197.546024 
L 149.85995 145.799036 
L 151.574637 121.995422 
L 153.289323 119.925542 
L 155.00401 116.820723 
L 156.718697 91.982169 
L 158.433383 115.785783 
L 160.14807 105.436386 
L 161.862757 82.667711 
L 163.577444 83.702651 
L 165.29213 87.84241 
L 167.006817 88.877349 
L 168.721504 105.436386 
L 170.43619 105.436386 
L 172.150877 135.449639 
L 173.865564 140.624337 
L 175.580251 121.995422 
L 177.294937 124.065301 
L 179.009624 102.331566 
L 180.724311 105.436386 
L 182.438997 105.436386 
L 184.153684 129.24 
L 185.868371 146.833976 
L 189.297744 150.973735 
L 191.012431 166.497831 
L 192.727118 178.917108 
L 194.441805 196.511084 
L 196.156491 220.314699 
L 197.871178 215.14 
L 199.585865 179.952048 
L 201.300551 162.358072 
L 203.015238 159.253253 
L 204.729925 189.266506 
L 206.444612 170.63759 
L 208.159298 177.882169 
L 209.873985 200.650843 
L 211.588672 171.67253 
L 213.303358 193.406265 
L 215.018045 197.546024 
L 216.732732 204.790602 
L 218.447419 197.546024 
L 220.162105 205.825542 
L 221.876792 201.685783 
L 223.591479 222.384578 
L 225.306165 220.314699 
L 227.020852 221.349639 
L 228.735539 224.454458 
L 230.450226 228.594217 
L 232.164912 239.978554 
L 233.879599 275.166506 
L 235.594286 294.830361 
L 237.308972 295.865301 
L 239.023659 303.10988 
L 240.738346 322.773735 
L 242.453033 330.018313 
L 244.167719 333.123133 
L 245.882406 343.47253 
L 247.597093 344.50747 
L 249.311779 344.50747 
L 251.026466 372.450843 
L 252.741153 383.835181 
L 254.45584 386.94 
L 256.170526 380.730361 
L 257.885213 380.730361 
L 259.5999 360.031566 
L 261.314586 362.101446 
L 263.029273 350.717108 
L 264.74396 312.424337 
L 266.458647 306.214699 
L 268.173333 307.249639 
L 269.88802 288.620723 
L 271.602707 284.480964 
L 273.317393 284.480964 
L 275.03208 277.236386 
L 276.746767 277.236386 
L 278.461454 276.201446 
L 280.17614 277.236386 
L 281.890827 239.978554 
L 283.605514 234.803855 
L 285.320201 238.943614 
L 287.034887 212.035181 
L 288.749574 199.615904 
L 290.464261 214.10506 
L 292.178947 211.000241 
L 293.893634 213.07012 
L 295.608321 183.056867 
L 297.323008 169.602651 
L 299.037694 208.930361 
L 300.752381 195.476145 
L 302.467068 178.917108 
L 304.181754 204.790602 
L 305.896441 205.825542 
L 307.611128 204.790602 
L 309.325815 213.07012 
L 311.040501 203.755663 
L 312.755188 200.650843 
L 314.469875 218.244819 
L 316.184561 244.118313 
L 317.899248 224.454458 
L 319.613935 224.454458 
L 321.328622 213.07012 
L 323.043308 231.699036 
L 326.472682 235.838795 
L 328.187368 249.293012 
L 329.902055 279.306265 
L 331.616742 303.10988 
L 333.331429 302.07494 
L 335.046115 319.668916 
L 336.760802 325.878554 
L 338.475489 321.738795 
L 340.190175 326.913494 
L 341.904862 321.738795 
L 343.619549 321.738795 
L 345.334236 291.725542 
L 347.048922 288.620723 
L 348.763609 290.690602 
L 350.478296 302.07494 
L 352.192982 322.773735 
L 353.907669 322.773735 
L 355.622356 362.101446 
L 357.337043 346.577349 
L 359.051729 339.332771 
L 360.766416 308.284578 
L 362.481103 321.738795 
L 364.195789 314.494217 
L 365.910476 314.494217 
L 367.625163 301.04 
L 369.33985 303.10988 
L 371.054536 306.214699 
L 372.769223 301.04 
L 374.48391 301.04 
L 376.198596 292.760482 
L 377.913283 287.585783 
L 379.62797 324.843614 
L 381.342657 332.088193 
L 383.057343 320.703855 
L 384.77203 321.738795 
L 386.486717 324.843614 
L 388.201404 317.599036 
L 389.91609 294.830361 
L 391.630777 310.354458 
L 393.345464 313.459277 
L 395.06015 343.47253 
L 396.774837 325.878554 
L 398.489524 331.053253 
L 400.204211 321.738795 
L 401.918897 335.193012 
L 403.633584 334.158072 
L 405.348271 344.50747 
L 407.062957 347.612289 
L 408.777644 345.54241 
L 410.492331 339.332771 
L 412.207018 337.262892 
L 413.921704 303.10988 
L 415.636391 294.830361 
L 417.351078 298.97012 
L 419.065764 292.760482 
L 420.780451 269.991807 
L 422.495138 272.061687 
L 424.209825 288.620723 
L 425.924511 288.620723 
L 427.639198 291.725542 
L 429.353885 284.480964 
L 431.068571 301.04 
L 432.783258 293.795422 
L 434.497945 293.795422 
L 436.212632 276.201446 
L 437.927318 277.236386 
L 439.642005 259.64241 
L 441.356692 260.677349 
L 443.071378 262.747229 
L 444.786065 246.188193 
L 446.500752 243.083373 
L 448.215439 266.886988 
L 451.644812 283.446024 
L 453.359499 285.515904 
L 455.074185 298.97012 
L 456.788872 269.991807 
L 458.503559 274.131566 
L 460.218246 247.223133 
L 461.932932 248.258072 
L 463.647619 243.083373 
L 465.362306 251.362892 
L 467.076992 260.677349 
L 468.791679 259.64241 
L 470.506366 278.271325 
L 472.221053 266.886988 
L 473.935739 282.411084 
L 475.650426 286.550843 
L 477.365113 289.655663 
L 479.079799 327.948434 
L 480.794486 333.123133 
L 482.509173 345.54241 
L 484.22386 345.54241 
L 485.938546 319.668916 
L 487.653233 313.459277 
L 489.36792 305.179759 
L 491.082607 322.773735 
L 492.797293 316.564096 
L 494.51198 330.018313 
L 496.226667 330.018313 
L 497.941353 324.843614 
L 499.65604 310.354458 
L 503.085414 283.446024 
L 504.8001 283.446024 
L 506.514787 294.830361 
L 508.229474 283.446024 
L 509.94416 284.480964 
L 511.658847 269.991807 
L 513.373534 233.768916 
L 515.088221 238.943614 
L 516.802907 235.838795 
L 518.517594 225.489398 
L 520.232281 247.223133 
L 521.946967 257.57253 
L 523.661654 263.782169 
L 525.376341 277.236386 
L 527.091028 284.480964 
L 528.805714 258.60747 
L 530.520401 246.188193 
L 532.235088 265.852048 
L 533.949774 280.341205 
L 535.664461 292.760482 
L 537.379148 309.319518 
L 539.093835 309.319518 
L 540.808521 281.376145 
L 542.523208 255.502651 
L 544.237895 220.314699 
L 545.952581 234.803855 
L 547.667268 272.061687 
L 549.381955 269.991807 
L 551.096642 263.782169 
L 552.811328 273.096627 
L 554.526015 266.886988 
L 556.240702 263.782169 
L 557.955388 275.166506 
L 559.670075 274.131566 
L 561.384762 272.061687 
L 563.099449 310.354458 
L 564.814135 320.703855 
L 566.528822 305.179759 
L 568.243509 300.00506 
L 569.958195 296.900241 
L 571.672882 304.144819 
L 573.387569 297.935181 
L 575.102256 319.668916 
L 576.816942 347.612289 
L 578.531629 377.625542 
L 580.246316 374.520723 
L 581.961003 373.485783 
L 583.675689 374.520723 
L 585.390376 380.730361 
L 587.105063 375.555663 
L 588.819749 383.835181 
L 590.534436 376.590602 
L 592.249123 376.590602 
L 593.96381 377.625542 
L 595.678496 377.625542 
L 597.393183 365.206265 
L 599.10787 354.856867 
L 600.822556 367.276145 
L 602.537243 355.891807 
L 604.25193 356.926747 
L 605.966617 347.612289 
L 609.39599 345.54241 
L 611.110677 355.891807 
L 612.825363 355.891807 
L 614.54005 352.786988 
L 616.254737 346.577349 
L 617.969424 346.577349 
L 619.68411 347.612289 
L 621.398797 342.43759 
L 623.113484 324.843614 
L 624.82817 332.088193 
L 626.542857 332.088193 
L 628.257544 320.703855 
L 629.972231 301.04 
L 631.686917 309.319518 
L 633.401604 316.564096 
L 635.116291 318.633976 
L 636.830977 322.773735 
L 638.545664 324.843614 
L 640.260351 334.158072 
L 641.975038 340.367711 
L 643.689724 339.332771 
L 645.404411 322.773735 
L 647.119098 318.633976 
L 648.833784 323.808675 
L 650.548471 326.913494 
L 652.263158 323.808675 
L 653.977845 321.738795 
L 655.692531 326.913494 
L 657.407218 335.193012 
L 659.121905 332.088193 
L 660.836591 326.913494 
L 662.551278 340.367711 
L 664.265965 357.961687 
L 665.980652 361.066506 
L 667.695338 365.206265 
L 669.410025 365.206265 
L 671.124712 370.380964 
L 672.839398 365.206265 
L 674.554085 363.136386 
L 676.268772 357.961687 
L 677.983459 363.136386 
L 679.698145 363.136386 
L 681.412832 371.415904 
L 683.127519 366.241205 
L 684.842206 352.786988 
L 686.556892 350.717108 
L 688.271579 351.752048 
L 689.986266 354.856867 
L 691.700952 339.332771 
L 695.130326 349.682169 
L 696.845013 347.612289 
L 698.559699 340.367711 
L 700.274386 320.703855 
L 703.703759 316.564096 
L 705.418446 319.668916 
L 707.133133 324.843614 
L 708.84782 325.878554 
L 710.562506 325.878554 
L 712.277193 327.948434 
L 713.99188 337.262892 
L 715.706566 334.158072 
L 717.421253 337.262892 
L 719.13594 351.752048 
L 720.850627 356.926747 
L 722.565313 357.961687 
L 724.28 357.961687 
L 724.28 357.961687 
" style="fill:none;stroke:#ff7f0e;stroke-linecap:square;stroke-width:1.5;"/>
   </g>
   <g id="patch_3">
    <path d="M 40.12 404.12 
L 40.12 26.16 
" style="fill:none;stroke:#000000;stroke-linecap:square;stroke-linejoin:miter;stroke-width:0.8;"/>
   </g>
   <g id="patch_4">
    <path d="M 724.28 404.12 
L 724.28 26.16 
" style="fill:none;stroke:#000000;stroke-linecap:square;stroke-linejoin:miter;stroke-width:0.8;"/>
   </g>
   <g id="patch_5">
    <path d="M 40.12 404.12 
L 724.28 404.12 
" style="fill:none;stroke:#000000;stroke-linecap:square;stroke-linejoin:miter;stroke-width:0.8;"/>
   </g>
   <g id="patch_6">
    <path d="M 40.12 26.16 
L 724.28 26.16 
" style="fill:none;stroke:#000000;stroke-linecap:square;stroke-linejoin:miter;stroke-width:0.8;"/>
   </g>
   <g id="text_16">
    <!-- multi_way_v0__1: episode duration, steps, MA=20 -->
    <defs>
     <path d="M 52 44.1875 
Q 55.375 50.25 60.0625 53.125 
Q 64.75 56 71.09375 56 
Q 79.640625 56 84.28125 50.015625 
Q 88.921875 44.046875 88.921875 33.015625 
L 88.921875 0 
L 79.890625 0 
L 79.890625 32.71875 
Q 79.890625 40.578125 77.09375 44.375 
Q 74.3125 48.1875 68.609375 48.1875 
Q 61.625 48.1875 57.5625 43.546875 
Q 53.515625 38.921875 53.515625 30.90625 
L 53.515625 0 
L 44.484375 0 
L 44.484375 32.71875 
Q 44.484375 40.625 41.703125 44.40625 
Q 38.921875 48.1875 33.109375 48.1875 
Q 26.21875 48.1875 22.15625 43.53125 
Q 18.109375 38.875 18.109375 30.90625 
L 18.109375 0 
L 9.078125 0 
L 9.078125 54.6875 
L 18.109375 54.6875 
L 18.109375 46.1875 
Q 21.1875 51.21875 25.484375 53.609375 
Q 29.78125 56 35.6875 56 
Q 41.65625 56 45.828125 52.96875 
Q 50 49.953125 52 44.1875 
z
" id="DejaVuSans-109"/>
     <path d="M 8.5 21.578125 
L 8.5 54.6875 
L 17.484375 54.6875 
L 17.484375 21.921875 
Q 17.484375 14.15625 20.5 10.265625 
Q 23.53125 6.390625 29.59375 6.390625 
Q 36.859375 6.390625 41.078125 11.03125 
Q 45.3125 15.671875 45.3125 23.6875 
L 45.3125 54.6875 
L 54.296875 54.6875 
L 54.296875 0 
L 45.3125 0 
L 45.3125 8.40625 
Q 42.046875 3.421875 37.71875 1 
Q 33.40625 -1.421875 27.6875 -1.421875 
Q 18.265625 -1.421875 13.375 4.4375 
Q 8.5 10.296875 8.5 21.578125 
z
M 31.109375 56 
z
" id="DejaVuSans-117"/>
     <path d="M 9.421875 75.984375 
L 18.40625 75.984375 
L 18.40625 0 
L 9.421875 0 
z
" id="DejaVuSans-108"/>
     <path d="M 18.3125 70.21875 
L 18.3125 54.6875 
L 36.8125 54.6875 
L 36.8125 47.703125 
L 18.3125 47.703125 
L 18.3125 18.015625 
Q 18.3125 11.328125 20.140625 9.421875 
Q 21.96875 7.515625 27.59375 7.515625 
L 36.8125 7.515625 
L 36.8125 0 
L 27.59375 0 
Q 17.1875 0 13.234375 3.875 
Q 9.28125 7.765625 9.28125 18.015625 
L 9.28125 47.703125 
L 2.6875 47.703125 
L 2.6875 54.6875 
L 9.28125 54.6875 
L 9.28125 70.21875 
z
" id="DejaVuSans-116"/>
     <path d="M 9.421875 54.6875 
L 18.40625 54.6875 
L 18.40625 0 
L 9.421875 0 
z
M 9.421875 75.984375 
L 18.40625 75.984375 
L 18.40625 64.59375 
L 9.421875 64.59375 
z
" id="DejaVuSans-105"/>
     <path d="M 50.984375 -16.609375 
L 50.984375 -23.578125 
L -0.984375 -23.578125 
L -0.984375 -16.609375 
z
" id="DejaVuSans-95"/>
     <path d="M 4.203125 54.6875 
L 13.1875 54.6875 
L 24.421875 12.015625 
L 35.59375 54.6875 
L 46.1875 54.6875 
L 57.421875 12.015625 
L 68.609375 54.6875 
L 77.59375 54.6875 
L 63.28125 0 
L 52.6875 0 
L 40.921875 44.828125 
L 29.109375 0 
L 18.5 0 
z
" id="DejaVuSans-119"/>
     <path d="M 34.28125 27.484375 
Q 23.390625 27.484375 19.1875 25 
Q 14.984375 22.515625 14.984375 16.5 
Q 14.984375 11.71875 18.140625 8.90625 
Q 21.296875 6.109375 26.703125 6.109375 
Q 34.1875 6.109375 38.703125 11.40625 
Q 43.21875 16.703125 43.21875 25.484375 
L 43.21875 27.484375 
z
M 52.203125 31.203125 
L 52.203125 0 
L 43.21875 0 
L 43.21875 8.296875 
Q 40.140625 3.328125 35.546875 0.953125 
Q 30.953125 -1.421875 24.3125 -1.421875 
Q 15.921875 -1.421875 10.953125 3.296875 
Q 6 8.015625 6 15.921875 
Q 6 25.140625 12.171875 29.828125 
Q 18.359375 34.515625 30.609375 34.515625 
L 43.21875 34.515625 
L 43.21875 35.40625 
Q 43.21875 41.609375 39.140625 45 
Q 35.0625 48.390625 27.6875 48.390625 
Q 23 48.390625 18.546875 47.265625 
Q 14.109375 46.140625 10.015625 43.890625 
L 10.015625 52.203125 
Q 14.9375 54.109375 19.578125 55.046875 
Q 24.21875 56 28.609375 56 
Q 40.484375 56 46.34375 49.84375 
Q 52.203125 43.703125 52.203125 31.203125 
z
" id="DejaVuSans-97"/>
     <path d="M 32.171875 -5.078125 
Q 28.375 -14.84375 24.75 -17.8125 
Q 21.140625 -20.796875 15.09375 -20.796875 
L 7.90625 -20.796875 
L 7.90625 -13.28125 
L 13.1875 -13.28125 
Q 16.890625 -13.28125 18.9375 -11.515625 
Q 21 -9.765625 23.484375 -3.21875 
L 25.09375 0.875 
L 2.984375 54.6875 
L 12.5 54.6875 
L 29.59375 11.921875 
L 46.6875 54.6875 
L 56.203125 54.6875 
z
" id="DejaVuSans-121"/>
     <path d="M 2.984375 54.6875 
L 12.5 54.6875 
L 29.59375 8.796875 
L 46.6875 54.6875 
L 56.203125 54.6875 
L 35.6875 0 
L 23.484375 0 
z
" id="DejaVuSans-118"/>
     <path d="M 11.71875 12.40625 
L 22.015625 12.40625 
L 22.015625 0 
L 11.71875 0 
z
M 11.71875 51.703125 
L 22.015625 51.703125 
L 22.015625 39.3125 
L 11.71875 39.3125 
z
" id="DejaVuSans-58"/>
     <path id="DejaVuSans-32"/>
     <path d="M 56.203125 29.59375 
L 56.203125 25.203125 
L 14.890625 25.203125 
Q 15.484375 15.921875 20.484375 11.0625 
Q 25.484375 6.203125 34.421875 6.203125 
Q 39.59375 6.203125 44.453125 7.46875 
Q 49.3125 8.734375 54.109375 11.28125 
L 54.109375 2.78125 
Q 49.265625 0.734375 44.1875 -0.34375 
Q 39.109375 -1.421875 33.890625 -1.421875 
Q 20.796875 -1.421875 13.15625 6.1875 
Q 5.515625 13.8125 5.515625 26.8125 
Q 5.515625 40.234375 12.765625 48.109375 
Q 20.015625 56 32.328125 56 
Q 43.359375 56 49.78125 48.890625 
Q 56.203125 41.796875 56.203125 29.59375 
z
M 47.21875 32.234375 
Q 47.125 39.59375 43.09375 43.984375 
Q 39.0625 48.390625 32.421875 48.390625 
Q 24.90625 48.390625 20.390625 44.140625 
Q 15.875 39.890625 15.1875 32.171875 
z
" id="DejaVuSans-101"/>
     <path d="M 18.109375 8.203125 
L 18.109375 -20.796875 
L 9.078125 -20.796875 
L 9.078125 54.6875 
L 18.109375 54.6875 
L 18.109375 46.390625 
Q 20.953125 51.265625 25.265625 53.625 
Q 29.59375 56 35.59375 56 
Q 45.5625 56 51.78125 48.09375 
Q 58.015625 40.1875 58.015625 27.296875 
Q 58.015625 14.40625 51.78125 6.484375 
Q 45.5625 -1.421875 35.59375 -1.421875 
Q 29.59375 -1.421875 25.265625 0.953125 
Q 20.953125 3.328125 18.109375 8.203125 
z
M 48.6875 27.296875 
Q 48.6875 37.203125 44.609375 42.84375 
Q 40.53125 48.484375 33.40625 48.484375 
Q 26.265625 48.484375 22.1875 42.84375 
Q 18.109375 37.203125 18.109375 27.296875 
Q 18.109375 17.390625 22.1875 11.75 
Q 26.265625 6.109375 33.40625 6.109375 
Q 40.53125 6.109375 44.609375 11.75 
Q 48.6875 17.390625 48.6875 27.296875 
z
" id="DejaVuSans-112"/>
     <path d="M 44.28125 53.078125 
L 44.28125 44.578125 
Q 40.484375 46.53125 36.375 47.5 
Q 32.28125 48.484375 27.875 48.484375 
Q 21.1875 48.484375 17.84375 46.4375 
Q 14.5 44.390625 14.5 40.28125 
Q 14.5 37.15625 16.890625 35.375 
Q 19.28125 33.59375 26.515625 31.984375 
L 29.59375 31.296875 
Q 39.15625 29.25 43.1875 25.515625 
Q 47.21875 21.78125 47.21875 15.09375 
Q 47.21875 7.46875 41.1875 3.015625 
Q 35.15625 -1.421875 24.609375 -1.421875 
Q 20.21875 -1.421875 15.453125 -0.5625 
Q 10.6875 0.296875 5.421875 2 
L 5.421875 11.28125 
Q 10.40625 8.6875 15.234375 7.390625 
Q 20.0625 6.109375 24.8125 6.109375 
Q 31.15625 6.109375 34.5625 8.28125 
Q 37.984375 10.453125 37.984375 14.40625 
Q 37.984375 18.0625 35.515625 20.015625 
Q 33.0625 21.96875 24.703125 23.78125 
L 21.578125 24.515625 
Q 13.234375 26.265625 9.515625 29.90625 
Q 5.8125 33.546875 5.8125 39.890625 
Q 5.8125 47.609375 11.28125 51.796875 
Q 16.75 56 26.8125 56 
Q 31.78125 56 36.171875 55.265625 
Q 40.578125 54.546875 44.28125 53.078125 
z
" id="DejaVuSans-115"/>
     <path d="M 30.609375 48.390625 
Q 23.390625 48.390625 19.1875 42.75 
Q 14.984375 37.109375 14.984375 27.296875 
Q 14.984375 17.484375 19.15625 11.84375 
Q 23.34375 6.203125 30.609375 6.203125 
Q 37.796875 6.203125 41.984375 11.859375 
Q 46.1875 17.53125 46.1875 27.296875 
Q 46.1875 37.015625 41.984375 42.703125 
Q 37.796875 48.390625 30.609375 48.390625 
z
M 30.609375 56 
Q 42.328125 56 49.015625 48.375 
Q 55.71875 40.765625 55.71875 27.296875 
Q 55.71875 13.875 49.015625 6.21875 
Q 42.328125 -1.421875 30.609375 -1.421875 
Q 18.84375 -1.421875 12.171875 6.21875 
Q 5.515625 13.875 5.515625 27.296875 
Q 5.515625 40.765625 12.171875 48.375 
Q 18.84375 56 30.609375 56 
z
" id="DejaVuSans-111"/>
     <path d="M 45.40625 46.390625 
L 45.40625 75.984375 
L 54.390625 75.984375 
L 54.390625 0 
L 45.40625 0 
L 45.40625 8.203125 
Q 42.578125 3.328125 38.25 0.953125 
Q 33.9375 -1.421875 27.875 -1.421875 
Q 17.96875 -1.421875 11.734375 6.484375 
Q 5.515625 14.40625 5.515625 27.296875 
Q 5.515625 40.1875 11.734375 48.09375 
Q 17.96875 56 27.875 56 
Q 33.9375 56 38.25 53.625 
Q 42.578125 51.265625 45.40625 46.390625 
z
M 14.796875 27.296875 
Q 14.796875 17.390625 18.875 11.75 
Q 22.953125 6.109375 30.078125 6.109375 
Q 37.203125 6.109375 41.296875 11.75 
Q 45.40625 17.390625 45.40625 27.296875 
Q 45.40625 37.203125 41.296875 42.84375 
Q 37.203125 48.484375 30.078125 48.484375 
Q 22.953125 48.484375 18.875 42.84375 
Q 14.796875 37.203125 14.796875 27.296875 
z
" id="DejaVuSans-100"/>
     <path d="M 41.109375 46.296875 
Q 39.59375 47.171875 37.8125 47.578125 
Q 36.03125 48 33.890625 48 
Q 26.265625 48 22.1875 43.046875 
Q 18.109375 38.09375 18.109375 28.8125 
L 18.109375 0 
L 9.078125 0 
L 9.078125 54.6875 
L 18.109375 54.6875 
L 18.109375 46.1875 
Q 20.953125 51.171875 25.484375 53.578125 
Q 30.03125 56 36.53125 56 
Q 37.453125 56 38.578125 55.875 
Q 39.703125 55.765625 41.0625 55.515625 
z
" id="DejaVuSans-114"/>
     <path d="M 54.890625 33.015625 
L 54.890625 0 
L 45.90625 0 
L 45.90625 32.71875 
Q 45.90625 40.484375 42.875 44.328125 
Q 39.84375 48.1875 33.796875 48.1875 
Q 26.515625 48.1875 22.3125 43.546875 
Q 18.109375 38.921875 18.109375 30.90625 
L 18.109375 0 
L 9.078125 0 
L 9.078125 54.6875 
L 18.109375 54.6875 
L 18.109375 46.1875 
Q 21.34375 51.125 25.703125 53.5625 
Q 30.078125 56 35.796875 56 
Q 45.21875 56 50.046875 50.171875 
Q 54.890625 44.34375 54.890625 33.015625 
z
" id="DejaVuSans-110"/>
     <path d="M 11.71875 12.40625 
L 22.015625 12.40625 
L 22.015625 4 
L 14.015625 -11.625 
L 7.71875 -11.625 
L 11.71875 4 
z
" id="DejaVuSans-44"/>
     <path d="M 9.8125 72.90625 
L 24.515625 72.90625 
L 43.109375 23.296875 
L 61.8125 72.90625 
L 76.515625 72.90625 
L 76.515625 0 
L 66.890625 0 
L 66.890625 64.015625 
L 48.09375 14.015625 
L 38.1875 14.015625 
L 19.390625 64.015625 
L 19.390625 0 
L 9.8125 0 
z
" id="DejaVuSans-77"/>
     <path d="M 34.1875 63.1875 
L 20.796875 26.90625 
L 47.609375 26.90625 
z
M 28.609375 72.90625 
L 39.796875 72.90625 
L 67.578125 0 
L 57.328125 0 
L 50.6875 18.703125 
L 17.828125 18.703125 
L 11.1875 0 
L 0.78125 0 
z
" id="DejaVuSans-65"/>
     <path d="M 10.59375 45.40625 
L 73.1875 45.40625 
L 73.1875 37.203125 
L 10.59375 37.203125 
z
M 10.59375 25.484375 
L 73.1875 25.484375 
L 73.1875 17.1875 
L 10.59375 17.1875 
z
" id="DejaVuSans-61"/>
    </defs>
    <g transform="translate(231.321562 20.16)scale(0.12 -0.12)">
     <use xlink:href="#DejaVuSans-109"/>
     <use x="97.412109" xlink:href="#DejaVuSans-117"/>
     <use x="160.791016" xlink:href="#DejaVuSans-108"/>
     <use x="188.574219" xlink:href="#DejaVuSans-116"/>
     <use x="227.783203" xlink:href="#DejaVuSans-105"/>
     <use x="255.566406" xlink:href="#DejaVuSans-95"/>
     <use x="305.566406" xlink:href="#DejaVuSans-119"/>
     <use x="387.353516" xlink:href="#DejaVuSans-97"/>
     <use x="448.632812" xlink:href="#DejaVuSans-121"/>
     <use x="507.8125" xlink:href="#DejaVuSans-95"/>
     <use x="557.8125" xlink:href="#DejaVuSans-118"/>
     <use x="616.992188" xlink:href="#DejaVuSans-48"/>
     <use x="680.615234" xlink:href="#DejaVuSans-95"/>
     <use x="730.615234" xlink:href="#DejaVuSans-95"/>
     <use x="780.615234" xlink:href="#DejaVuSans-49"/>
     <use x="844.238281" xlink:href="#DejaVuSans-58"/>
     <use x="877.929688" xlink:href="#DejaVuSans-32"/>
     <use x="909.716797" xlink:href="#DejaVuSans-101"/>
     <use x="971.240234" xlink:href="#DejaVuSans-112"/>
     <use x="1034.716797" xlink:href="#DejaVuSans-105"/>
     <use x="1062.5" xlink:href="#DejaVuSans-115"/>
     <use x="1114.599609" xlink:href="#DejaVuSans-111"/>
     <use x="1175.78125" xlink:href="#DejaVuSans-100"/>
     <use x="1239.257812" xlink:href="#DejaVuSans-101"/>
     <use x="1300.78125" xlink:href="#DejaVuSans-32"/>
     <use x="1332.568359" xlink:href="#DejaVuSans-100"/>
     <use x="1396.044922" xlink:href="#DejaVuSans-117"/>
     <use x="1459.423828" xlink:href="#DejaVuSans-114"/>
     <use x="1500.537109" xlink:href="#DejaVuSans-97"/>
     <use x="1561.816406" xlink:href="#DejaVuSans-116"/>
     <use x="1601.025391" xlink:href="#DejaVuSans-105"/>
     <use x="1628.808594" xlink:href="#DejaVuSans-111"/>
     <use x="1689.990234" xlink:href="#DejaVuSans-110"/>
     <use x="1753.369141" xlink:href="#DejaVuSans-44"/>
     <use x="1785.15625" xlink:href="#DejaVuSans-32"/>
     <use x="1816.943359" xlink:href="#DejaVuSans-115"/>
     <use x="1869.042969" xlink:href="#DejaVuSans-116"/>
     <use x="1908.251953" xlink:href="#DejaVuSans-101"/>
     <use x="1969.775391" xlink:href="#DejaVuSans-112"/>
     <use x="2033.251953" xlink:href="#DejaVuSans-115"/>
     <use x="2085.351562" xlink:href="#DejaVuSans-44"/>
     <use x="2117.138672" xlink:href="#DejaVuSans-32"/>
     <use x="2148.925781" xlink:href="#DejaVuSans-77"/>
     <use x="2235.205078" xlink:href="#DejaVuSans-65"/>
     <use x="2303.613281" xlink:href="#DejaVuSans-61"/>
     <use x="2387.402344" xlink:href="#DejaVuSans-50"/>
     <use x="2451.025391" xlink:href="#DejaVuSans-48"/>
    </g>
   </g>
   <g id="legend_1">
    <g id="patch_7">
     <path d="M 773.040125 231.59625 
L 854.112 231.59625 
Q 856.112 231.59625 856.112 229.59625 
L 856.112 200.68375 
Q 856.112 198.68375 854.112 198.68375 
L 773.040125 198.68375 
Q 771.040125 198.68375 771.040125 200.68375 
L 771.040125 229.59625 
Q 771.040125 231.59625 773.040125 231.59625 
z
" style="fill:#ffffff;opacity:0.8;stroke:#cccccc;stroke-linejoin:miter;"/>
    </g>
    <g id="line2d_18">
     <path d="M 775.040125 206.782187 
L 795.040125 206.782187 
" style="fill:none;stroke:#1f77b4;stroke-linecap:square;stroke-width:1.5;"/>
    </g>
    <g id="line2d_19"/>
    <g id="text_17">
     <!-- htm_1_1g -->
     <defs>
      <path d="M 54.890625 33.015625 
L 54.890625 0 
L 45.90625 0 
L 45.90625 32.71875 
Q 45.90625 40.484375 42.875 44.328125 
Q 39.84375 48.1875 33.796875 48.1875 
Q 26.515625 48.1875 22.3125 43.546875 
Q 18.109375 38.921875 18.109375 30.90625 
L 18.109375 0 
L 9.078125 0 
L 9.078125 75.984375 
L 18.109375 75.984375 
L 18.109375 46.1875 
Q 21.34375 51.125 25.703125 53.5625 
Q 30.078125 56 35.796875 56 
Q 45.21875 56 50.046875 50.171875 
Q 54.890625 44.34375 54.890625 33.015625 
z
" id="DejaVuSans-104"/>
      <path d="M 45.40625 27.984375 
Q 45.40625 37.75 41.375 43.109375 
Q 37.359375 48.484375 30.078125 48.484375 
Q 22.859375 48.484375 18.828125 43.109375 
Q 14.796875 37.75 14.796875 27.984375 
Q 14.796875 18.265625 18.828125 12.890625 
Q 22.859375 7.515625 30.078125 7.515625 
Q 37.359375 7.515625 41.375 12.890625 
Q 45.40625 18.265625 45.40625 27.984375 
z
M 54.390625 6.78125 
Q 54.390625 -7.171875 48.1875 -13.984375 
Q 42 -20.796875 29.203125 -20.796875 
Q 24.46875 -20.796875 20.265625 -20.09375 
Q 16.0625 -19.390625 12.109375 -17.921875 
L 12.109375 -9.1875 
Q 16.0625 -11.328125 19.921875 -12.34375 
Q 23.78125 -13.375 27.78125 -13.375 
Q 36.625 -13.375 41.015625 -8.765625 
Q 45.40625 -4.15625 45.40625 5.171875 
L 45.40625 9.625 
Q 42.625 4.78125 38.28125 2.390625 
Q 33.9375 0 27.875 0 
Q 17.828125 0 11.671875 7.65625 
Q 5.515625 15.328125 5.515625 27.984375 
Q 5.515625 40.671875 11.671875 48.328125 
Q 17.828125 56 27.875 56 
Q 33.9375 56 38.28125 53.609375 
Q 42.625 51.21875 45.40625 46.390625 
L 45.40625 54.6875 
L 54.390625 54.6875 
z
" id="DejaVuSans-103"/>
     </defs>
     <g transform="translate(803.040125 210.282187)scale(0.1 -0.1)">
      <use xlink:href="#DejaVuSans-104"/>
      <use x="63.378906" xlink:href="#DejaVuSans-116"/>
      <use x="102.587891" xlink:href="#DejaVuSans-109"/>
      <use x="200" xlink:href="#DejaVuSans-95"/>
      <use x="250" xlink:href="#DejaVuSans-49"/>
      <use x="313.623047" xlink:href="#DejaVuSans-95"/>
      <use x="363.623047" xlink:href="#DejaVuSans-49"/>
      <use x="427.246094" xlink:href="#DejaVuSans-103"/>
     </g>
    </g>
    <g id="line2d_20">
     <path d="M 775.040125 221.738437 
L 795.040125 221.738437 
" style="fill:none;stroke:#ff7f0e;stroke-linecap:square;stroke-width:1.5;"/>
    </g>
    <g id="line2d_21"/>
    <g id="text_18">
     <!-- htm_1 -->
     <g transform="translate(803.040125 225.238437)scale(0.1 -0.1)">
      <use xlink:href="#DejaVuSans-104"/>
      <use x="63.378906" xlink:href="#DejaVuSans-116"/>
      <use x="102.587891" xlink:href="#DejaVuSans-109"/>
      <use x="200" xlink:href="#DejaVuSans-95"/>
      <use x="250" xlink:href="#DejaVuSans-49"/>
     </g>
    </g>
   </g>
  </g>
 </g>
 <defs>
  <clipPath id="p42413ddac3">
   <rect height="377.96" width="684.16" x="40.12" y="26.16"/>
  </clipPath>
 </defs>
</svg>
