<?xml version="1.0" encoding="utf-8" standalone="no"?>
<!DOCTYPE svg PUBLIC "-//W3C//DTD SVG 1.1//EN"
  "http://www.w3.org/Graphics/SVG/1.1/DTD/svg11.dtd">
<!-- Created with matplotlib (https://matplotlib.org/) -->
<svg height="432pt" version="1.1" viewBox="0 0 864 432" width="864pt" xmlns="http://www.w3.org/2000/svg" xmlns:xlink="http://www.w3.org/1999/xlink">
 <defs>
  <style type="text/css">
*{stroke-linecap:butt;stroke-linejoin:round;}
  </style>
 </defs>
 <g id="figure_1">
  <g id="patch_1">
   <path d="M 0 432 
L 864 432 
L 864 0 
L 0 0 
z
" style="fill:#ffffff;"/>
  </g>
  <g id="axes_1">
   <g id="patch_2">
    <path d="M 48.49 404.12 
L 724.28 404.12 
L 724.28 26.52 
L 48.49 26.52 
z
" style="fill:#ffffff;"/>
   </g>
   <g id="matplotlib.axis_1">
    <g id="xtick_1">
     <g id="line2d_1">
      <defs>
       <path d="M 0 0 
L 0 3.5 
" id="m92239b81ed" style="stroke:#000000;stroke-width:0.8;"/>
      </defs>
      <g>
       <use style="stroke:#000000;stroke-width:0.8;" x="48.49" xlink:href="#m92239b81ed" y="404.12"/>
      </g>
     </g>
     <g id="text_1">
      <!-- 0 -->
      <defs>
       <path d="M 31.78125 66.40625 
Q 24.171875 66.40625 20.328125 58.90625 
Q 16.5 51.421875 16.5 36.375 
Q 16.5 21.390625 20.328125 13.890625 
Q 24.171875 6.390625 31.78125 6.390625 
Q 39.453125 6.390625 43.28125 13.890625 
Q 47.125 21.390625 47.125 36.375 
Q 47.125 51.421875 43.28125 58.90625 
Q 39.453125 66.40625 31.78125 66.40625 
z
M 31.78125 74.21875 
Q 44.046875 74.21875 50.515625 64.515625 
Q 56.984375 54.828125 56.984375 36.375 
Q 56.984375 17.96875 50.515625 8.265625 
Q 44.046875 -1.421875 31.78125 -1.421875 
Q 19.53125 -1.421875 13.0625 8.265625 
Q 6.59375 17.96875 6.59375 36.375 
Q 6.59375 54.828125 13.0625 64.515625 
Q 19.53125 74.21875 31.78125 74.21875 
z
" id="DejaVuSans-48"/>
      </defs>
      <g transform="translate(45.30875 418.718437)scale(0.1 -0.1)">
       <use xlink:href="#DejaVuSans-48"/>
      </g>
     </g>
    </g>
    <g id="xtick_2">
     <g id="line2d_2">
      <g>
       <use style="stroke:#000000;stroke-width:0.8;" x="183.783293" xlink:href="#m92239b81ed" y="404.12"/>
      </g>
     </g>
     <g id="text_2">
      <!-- 200 -->
      <defs>
       <path d="M 19.1875 8.296875 
L 53.609375 8.296875 
L 53.609375 0 
L 7.328125 0 
L 7.328125 8.296875 
Q 12.9375 14.109375 22.625 23.890625 
Q 32.328125 33.6875 34.8125 36.53125 
Q 39.546875 41.84375 41.421875 45.53125 
Q 43.3125 49.21875 43.3125 52.78125 
Q 43.3125 58.59375 39.234375 62.25 
Q 35.15625 65.921875 28.609375 65.921875 
Q 23.96875 65.921875 18.8125 64.3125 
Q 13.671875 62.703125 7.8125 59.421875 
L 7.8125 69.390625 
Q 13.765625 71.78125 18.9375 73 
Q 24.125 74.21875 28.421875 74.21875 
Q 39.75 74.21875 46.484375 68.546875 
Q 53.21875 62.890625 53.21875 53.421875 
Q 53.21875 48.921875 51.53125 44.890625 
Q 49.859375 40.875 45.40625 35.40625 
Q 44.1875 33.984375 37.640625 27.21875 
Q 31.109375 20.453125 19.1875 8.296875 
z
" id="DejaVuSans-50"/>
      </defs>
      <g transform="translate(174.239543 418.718437)scale(0.1 -0.1)">
       <use xlink:href="#DejaVuSans-50"/>
       <use x="63.623047" xlink:href="#DejaVuSans-48"/>
       <use x="127.246094" xlink:href="#DejaVuSans-48"/>
      </g>
     </g>
    </g>
    <g id="xtick_3">
     <g id="line2d_3">
      <g>
       <use style="stroke:#000000;stroke-width:0.8;" x="319.076587" xlink:href="#m92239b81ed" y="404.12"/>
      </g>
     </g>
     <g id="text_3">
      <!-- 400 -->
      <defs>
       <path d="M 37.796875 64.3125 
L 12.890625 25.390625 
L 37.796875 25.390625 
z
M 35.203125 72.90625 
L 47.609375 72.90625 
L 47.609375 25.390625 
L 58.015625 25.390625 
L 58.015625 17.1875 
L 47.609375 17.1875 
L 47.609375 0 
L 37.796875 0 
L 37.796875 17.1875 
L 4.890625 17.1875 
L 4.890625 26.703125 
z
" id="DejaVuSans-52"/>
      </defs>
      <g transform="translate(309.532837 418.718437)scale(0.1 -0.1)">
       <use xlink:href="#DejaVuSans-52"/>
       <use x="63.623047" xlink:href="#DejaVuSans-48"/>
       <use x="127.246094" xlink:href="#DejaVuSans-48"/>
      </g>
     </g>
    </g>
    <g id="xtick_4">
     <g id="line2d_4">
      <g>
       <use style="stroke:#000000;stroke-width:0.8;" x="454.36988" xlink:href="#m92239b81ed" y="404.12"/>
      </g>
     </g>
     <g id="text_4">
      <!-- 600 -->
      <defs>
       <path d="M 33.015625 40.375 
Q 26.375 40.375 22.484375 35.828125 
Q 18.609375 31.296875 18.609375 23.390625 
Q 18.609375 15.53125 22.484375 10.953125 
Q 26.375 6.390625 33.015625 6.390625 
Q 39.65625 6.390625 43.53125 10.953125 
Q 47.40625 15.53125 47.40625 23.390625 
Q 47.40625 31.296875 43.53125 35.828125 
Q 39.65625 40.375 33.015625 40.375 
z
M 52.59375 71.296875 
L 52.59375 62.3125 
Q 48.875 64.0625 45.09375 64.984375 
Q 41.3125 65.921875 37.59375 65.921875 
Q 27.828125 65.921875 22.671875 59.328125 
Q 17.53125 52.734375 16.796875 39.40625 
Q 19.671875 43.65625 24.015625 45.921875 
Q 28.375 48.1875 33.59375 48.1875 
Q 44.578125 48.1875 50.953125 41.515625 
Q 57.328125 34.859375 57.328125 23.390625 
Q 57.328125 12.15625 50.6875 5.359375 
Q 44.046875 -1.421875 33.015625 -1.421875 
Q 20.359375 -1.421875 13.671875 8.265625 
Q 6.984375 17.96875 6.984375 36.375 
Q 6.984375 53.65625 15.1875 63.9375 
Q 23.390625 74.21875 37.203125 74.21875 
Q 40.921875 74.21875 44.703125 73.484375 
Q 48.484375 72.75 52.59375 71.296875 
z
" id="DejaVuSans-54"/>
      </defs>
      <g transform="translate(444.82613 418.718437)scale(0.1 -0.1)">
       <use xlink:href="#DejaVuSans-54"/>
       <use x="63.623047" xlink:href="#DejaVuSans-48"/>
       <use x="127.246094" xlink:href="#DejaVuSans-48"/>
      </g>
     </g>
    </g>
    <g id="xtick_5">
     <g id="line2d_5">
      <g>
       <use style="stroke:#000000;stroke-width:0.8;" x="589.663173" xlink:href="#m92239b81ed" y="404.12"/>
      </g>
     </g>
     <g id="text_5">
      <!-- 800 -->
      <defs>
       <path d="M 31.78125 34.625 
Q 24.75 34.625 20.71875 30.859375 
Q 16.703125 27.09375 16.703125 20.515625 
Q 16.703125 13.921875 20.71875 10.15625 
Q 24.75 6.390625 31.78125 6.390625 
Q 38.8125 6.390625 42.859375 10.171875 
Q 46.921875 13.96875 46.921875 20.515625 
Q 46.921875 27.09375 42.890625 30.859375 
Q 38.875 34.625 31.78125 34.625 
z
M 21.921875 38.8125 
Q 15.578125 40.375 12.03125 44.71875 
Q 8.5 49.078125 8.5 55.328125 
Q 8.5 64.0625 14.71875 69.140625 
Q 20.953125 74.21875 31.78125 74.21875 
Q 42.671875 74.21875 48.875 69.140625 
Q 55.078125 64.0625 55.078125 55.328125 
Q 55.078125 49.078125 51.53125 44.71875 
Q 48 40.375 41.703125 38.8125 
Q 48.828125 37.15625 52.796875 32.3125 
Q 56.78125 27.484375 56.78125 20.515625 
Q 56.78125 9.90625 50.3125 4.234375 
Q 43.84375 -1.421875 31.78125 -1.421875 
Q 19.734375 -1.421875 13.25 4.234375 
Q 6.78125 9.90625 6.78125 20.515625 
Q 6.78125 27.484375 10.78125 32.3125 
Q 14.796875 37.15625 21.921875 38.8125 
z
M 18.3125 54.390625 
Q 18.3125 48.734375 21.84375 45.5625 
Q 25.390625 42.390625 31.78125 42.390625 
Q 38.140625 42.390625 41.71875 45.5625 
Q 45.3125 48.734375 45.3125 54.390625 
Q 45.3125 60.0625 41.71875 63.234375 
Q 38.140625 66.40625 31.78125 66.40625 
Q 25.390625 66.40625 21.84375 63.234375 
Q 18.3125 60.0625 18.3125 54.390625 
z
" id="DejaVuSans-56"/>
      </defs>
      <g transform="translate(580.119423 418.718437)scale(0.1 -0.1)">
       <use xlink:href="#DejaVuSans-56"/>
       <use x="63.623047" xlink:href="#DejaVuSans-48"/>
       <use x="127.246094" xlink:href="#DejaVuSans-48"/>
      </g>
     </g>
    </g>
   </g>
   <g id="matplotlib.axis_2">
    <g id="ytick_1">
     <g id="line2d_6">
      <defs>
       <path d="M 0 0 
L -3.5 0 
" id="mcd476680b2" style="stroke:#000000;stroke-width:0.8;"/>
      </defs>
      <g>
       <use style="stroke:#000000;stroke-width:0.8;" x="48.49" xlink:href="#mcd476680b2" y="375.264107"/>
      </g>
     </g>
     <g id="text_6">
      <!-- −1.25 -->
      <defs>
       <path d="M 10.59375 35.5 
L 73.1875 35.5 
L 73.1875 27.203125 
L 10.59375 27.203125 
z
" id="DejaVuSans-8722"/>
       <path d="M 12.40625 8.296875 
L 28.515625 8.296875 
L 28.515625 63.921875 
L 10.984375 60.40625 
L 10.984375 69.390625 
L 28.421875 72.90625 
L 38.28125 72.90625 
L 38.28125 8.296875 
L 54.390625 8.296875 
L 54.390625 0 
L 12.40625 0 
z
" id="DejaVuSans-49"/>
       <path d="M 10.6875 12.40625 
L 21 12.40625 
L 21 0 
L 10.6875 0 
z
" id="DejaVuSans-46"/>
       <path d="M 10.796875 72.90625 
L 49.515625 72.90625 
L 49.515625 64.59375 
L 19.828125 64.59375 
L 19.828125 46.734375 
Q 21.96875 47.46875 24.109375 47.828125 
Q 26.265625 48.1875 28.421875 48.1875 
Q 40.625 48.1875 47.75 41.5 
Q 54.890625 34.8125 54.890625 23.390625 
Q 54.890625 11.625 47.5625 5.09375 
Q 40.234375 -1.421875 26.90625 -1.421875 
Q 22.3125 -1.421875 17.546875 -0.640625 
Q 12.796875 0.140625 7.71875 1.703125 
L 7.71875 11.625 
Q 12.109375 9.234375 16.796875 8.0625 
Q 21.484375 6.890625 26.703125 6.890625 
Q 35.15625 6.890625 40.078125 11.328125 
Q 45.015625 15.765625 45.015625 23.390625 
Q 45.015625 31 40.078125 35.4375 
Q 35.15625 39.890625 26.703125 39.890625 
Q 22.75 39.890625 18.8125 39.015625 
Q 14.890625 38.140625 10.796875 36.28125 
z
" id="DejaVuSans-53"/>
      </defs>
      <g transform="translate(10.844687 379.063325)scale(0.1 -0.1)">
       <use xlink:href="#DejaVuSans-8722"/>
       <use x="83.789062" xlink:href="#DejaVuSans-49"/>
       <use x="147.412109" xlink:href="#DejaVuSans-46"/>
       <use x="179.199219" xlink:href="#DejaVuSans-50"/>
       <use x="242.822266" xlink:href="#DejaVuSans-53"/>
      </g>
     </g>
    </g>
    <g id="ytick_2">
     <g id="line2d_7">
      <g>
       <use style="stroke:#000000;stroke-width:0.8;" x="48.49" xlink:href="#mcd476680b2" y="328.408884"/>
      </g>
     </g>
     <g id="text_7">
      <!-- −1.00 -->
      <g transform="translate(10.844687 332.208102)scale(0.1 -0.1)">
       <use xlink:href="#DejaVuSans-8722"/>
       <use x="83.789062" xlink:href="#DejaVuSans-49"/>
       <use x="147.412109" xlink:href="#DejaVuSans-46"/>
       <use x="179.199219" xlink:href="#DejaVuSans-48"/>
       <use x="242.822266" xlink:href="#DejaVuSans-48"/>
      </g>
     </g>
    </g>
    <g id="ytick_3">
     <g id="line2d_8">
      <g>
       <use style="stroke:#000000;stroke-width:0.8;" x="48.49" xlink:href="#mcd476680b2" y="281.55366"/>
      </g>
     </g>
     <g id="text_8">
      <!-- −0.75 -->
      <defs>
       <path d="M 8.203125 72.90625 
L 55.078125 72.90625 
L 55.078125 68.703125 
L 28.609375 0 
L 18.3125 0 
L 43.21875 64.59375 
L 8.203125 64.59375 
z
" id="DejaVuSans-55"/>
      </defs>
      <g transform="translate(10.844687 285.352879)scale(0.1 -0.1)">
       <use xlink:href="#DejaVuSans-8722"/>
       <use x="83.789062" xlink:href="#DejaVuSans-48"/>
       <use x="147.412109" xlink:href="#DejaVuSans-46"/>
       <use x="179.199219" xlink:href="#DejaVuSans-55"/>
       <use x="242.822266" xlink:href="#DejaVuSans-53"/>
      </g>
     </g>
    </g>
    <g id="ytick_4">
     <g id="line2d_9">
      <g>
       <use style="stroke:#000000;stroke-width:0.8;" x="48.49" xlink:href="#mcd476680b2" y="234.698437"/>
      </g>
     </g>
     <g id="text_9">
      <!-- −0.50 -->
      <g transform="translate(10.844687 238.497656)scale(0.1 -0.1)">
       <use xlink:href="#DejaVuSans-8722"/>
       <use x="83.789062" xlink:href="#DejaVuSans-48"/>
       <use x="147.412109" xlink:href="#DejaVuSans-46"/>
       <use x="179.199219" xlink:href="#DejaVuSans-53"/>
       <use x="242.822266" xlink:href="#DejaVuSans-48"/>
      </g>
     </g>
    </g>
    <g id="ytick_5">
     <g id="line2d_10">
      <g>
       <use style="stroke:#000000;stroke-width:0.8;" x="48.49" xlink:href="#mcd476680b2" y="187.843214"/>
      </g>
     </g>
     <g id="text_10">
      <!-- −0.25 -->
      <g transform="translate(10.844687 191.642433)scale(0.1 -0.1)">
       <use xlink:href="#DejaVuSans-8722"/>
       <use x="83.789062" xlink:href="#DejaVuSans-48"/>
       <use x="147.412109" xlink:href="#DejaVuSans-46"/>
       <use x="179.199219" xlink:href="#DejaVuSans-50"/>
       <use x="242.822266" xlink:href="#DejaVuSans-53"/>
      </g>
     </g>
    </g>
    <g id="ytick_6">
     <g id="line2d_11">
      <g>
       <use style="stroke:#000000;stroke-width:0.8;" x="48.49" xlink:href="#mcd476680b2" y="140.987991"/>
      </g>
     </g>
     <g id="text_11">
      <!-- 0.00 -->
      <g transform="translate(19.224375 144.78721)scale(0.1 -0.1)">
       <use xlink:href="#DejaVuSans-48"/>
       <use x="63.623047" xlink:href="#DejaVuSans-46"/>
       <use x="95.410156" xlink:href="#DejaVuSans-48"/>
       <use x="159.033203" xlink:href="#DejaVuSans-48"/>
      </g>
     </g>
    </g>
    <g id="ytick_7">
     <g id="line2d_12">
      <g>
       <use style="stroke:#000000;stroke-width:0.8;" x="48.49" xlink:href="#mcd476680b2" y="94.132768"/>
      </g>
     </g>
     <g id="text_12">
      <!-- 0.25 -->
      <g transform="translate(19.224375 97.931987)scale(0.1 -0.1)">
       <use xlink:href="#DejaVuSans-48"/>
       <use x="63.623047" xlink:href="#DejaVuSans-46"/>
       <use x="95.410156" xlink:href="#DejaVuSans-50"/>
       <use x="159.033203" xlink:href="#DejaVuSans-53"/>
      </g>
     </g>
    </g>
    <g id="ytick_8">
     <g id="line2d_13">
      <g>
       <use style="stroke:#000000;stroke-width:0.8;" x="48.49" xlink:href="#mcd476680b2" y="47.277545"/>
      </g>
     </g>
     <g id="text_13">
      <!-- 0.50 -->
      <g transform="translate(19.224375 51.076763)scale(0.1 -0.1)">
       <use xlink:href="#DejaVuSans-48"/>
       <use x="63.623047" xlink:href="#DejaVuSans-46"/>
       <use x="95.410156" xlink:href="#DejaVuSans-53"/>
       <use x="159.033203" xlink:href="#DejaVuSans-48"/>
      </g>
     </g>
    </g>
   </g>
   <g id="line2d_14">
    <path clip-path="url(#p8604b77f76)" d="M 61.342863 140.987991 
L 724.28 140.987991 
L 724.28 140.987991 
" style="fill:none;stroke:#1f77b4;stroke-linecap:square;stroke-width:1.5;"/>
   </g>
   <g id="line2d_15">
    <path clip-path="url(#p8604b77f76)" d="M 61.342863 140.987991 
L 184.45976 140.987991 
L 185.136226 126.636458 
L 185.812693 142.086111 
L 186.489159 142.086111 
L 187.165626 139.39023 
L 187.842092 138.402891 
L 188.518559 152.703633 
L 189.195025 169.751048 
L 189.871491 168.857892 
L 190.547958 165.346623 
L 191.224424 167.055167 
L 191.900891 159.019962 
L 192.577357 174.469616 
L 193.253824 174.469616 
L 193.93029 180.965129 
L 194.606757 185.369554 
L 195.283223 206.947182 
L 195.95969 216.30444 
L 196.636156 232.448562 
L 197.312623 258.193361 
L 197.989089 276.156928 
L 198.665556 289.758378 
L 199.342022 283.788482 
L 200.018488 286.883191 
L 200.694955 296.967742 
L 201.371421 315.495822 
L 202.047888 312.095018 
L 202.724354 293.60305 
L 203.400821 295.940759 
L 204.077287 304.960203 
L 205.43022 287.259976 
L 206.106687 286.020082 
L 206.783153 280.274653 
L 207.45962 279.287314 
L 208.136086 255.633604 
L 208.812553 241.444646 
L 209.489019 223.077961 
L 210.165485 211.169411 
L 210.841952 196.102302 
L 211.518418 192.022917 
L 212.194885 181.873062 
L 212.871351 167.84359 
L 213.547818 145.030945 
L 214.900751 139.588074 
L 215.577217 143.039669 
L 216.253684 140.972953 
L 216.93015 144.961905 
L 217.606617 143.103422 
L 218.283083 157.29238 
L 218.95955 167.762305 
L 220.312482 173.700026 
L 220.988949 171.344947 
L 221.665415 191.40962 
L 222.341882 178.340825 
L 223.018348 207.294007 
L 223.694815 212.896364 
L 224.371281 215.209701 
L 225.047748 192.738917 
L 225.724214 217.379965 
L 226.400681 211.634536 
L 227.077147 226.726381 
L 227.753614 230.315419 
L 228.43008 209.120336 
L 229.106547 200.865488 
L 229.783013 212.123598 
L 230.459479 208.398637 
L 231.812412 195.557551 
L 232.488879 211.069678 
L 233.165345 218.702469 
L 233.841812 217.257916 
L 234.518278 198.565491 
L 235.871211 219.364844 
L 236.547678 183.734182 
L 237.224144 180.024226 
L 237.900611 161.525024 
L 238.577077 161.381952 
L 239.253544 157.478772 
L 239.93001 169.21847 
L 241.282943 184.414156 
L 241.959409 181.429912 
L 242.635876 160.802509 
L 243.312342 162.951984 
L 243.988809 174.234467 
L 244.665275 195.165559 
L 245.341742 196.874102 
L 246.018208 185.279695 
L 246.694675 179.113024 
L 247.371141 206.221937 
L 248.047608 208.313025 
L 248.724074 207.460525 
L 249.400541 209.984456 
L 250.077007 235.966508 
L 250.753473 234.889494 
L 251.42994 258.040828 
L 252.106406 260.274988 
L 252.782873 263.130566 
L 253.459339 262.014856 
L 254.135806 261.904607 
L 254.812272 242.110792 
L 255.488739 259.530616 
L 256.165205 263.766188 
L 256.841672 266.166429 
L 257.518138 249.375771 
L 258.194605 241.435705 
L 258.871071 238.623411 
L 259.547538 255.099927 
L 260.224004 233.382777 
L 260.90047 202.720854 
L 261.576937 214.078007 
L 262.253403 199.547289 
L 263.606336 193.734338 
L 264.282803 188.683377 
L 264.959269 169.595666 
L 265.635736 182.586692 
L 266.312202 182.068823 
L 266.988669 186.144406 
L 267.665135 182.698441 
L 268.341602 198.963482 
L 269.018068 181.263905 
L 269.694535 170.299115 
L 270.371001 166.589159 
L 271.047467 174.188422 
L 271.723934 171.492541 
L 272.4004 177.090392 
L 273.076867 158.760042 
L 274.4298 182.623605 
L 275.106266 184.714693 
L 275.782733 197.904406 
L 276.459199 197.806279 
L 277.135666 192.772689 
L 277.812132 195.925785 
L 278.488599 200.06622 
L 279.165065 190.059438 
L 279.841532 183.2304 
L 280.517998 186.214644 
L 281.194464 186.671859 
L 281.870931 172.456164 
L 282.547397 180.335181 
L 283.223864 192.640975 
L 283.90033 194.031826 
L 284.576797 185.077685 
L 285.253263 173.073997 
L 285.92973 177.534037 
L 286.606196 176.74609 
L 287.282663 155.73881 
L 288.635596 157.928025 
L 289.312062 132.50092 
L 289.988529 135.440219 
L 290.664995 145.595495 
L 291.341461 142.442398 
L 292.017928 160.336806 
L 293.370861 152.610754 
L 294.047327 157.151103 
L 294.723794 159.600364 
L 296.753193 197.666811 
L 297.42966 193.197534 
L 298.106126 202.388929 
L 298.782593 200.54775 
L 299.459059 195.998035 
L 300.135526 190.290468 
L 300.811992 205.929442 
L 301.488458 214.516043 
L 302.164925 210.155104 
L 302.841391 239.773992 
L 303.517858 240.468461 
L 304.194324 215.571873 
L 304.870791 219.669023 
L 305.547257 209.373879 
L 306.223724 223.01144 
L 306.90019 245.046283 
L 307.576657 249.261387 
L 308.253123 249.050793 
L 308.92959 249.14892 
L 309.606056 244.496788 
L 310.282523 236.177748 
L 310.958989 219.052374 
L 312.311922 244.547263 
L 312.988388 248.082904 
L 313.664855 264.058175 
L 314.341321 258.019876 
L 315.017788 263.214347 
L 315.694254 277.487887 
L 316.370721 262.63342 
L 317.047187 266.697042 
L 317.723654 297.582477 
L 318.40012 303.780471 
L 319.076587 272.421309 
L 319.753053 282.716454 
L 320.42952 268.384423 
L 321.105986 240.236612 
L 321.782452 244.60436 
L 322.458919 227.208909 
L 323.135385 220.713396 
L 323.811852 220.860974 
L 324.488318 245.926414 
L 325.164785 222.640243 
L 325.841251 215.394646 
L 326.517718 211.859005 
L 327.194184 211.979923 
L 327.870651 211.522708 
L 328.547117 183.042067 
L 329.223584 172.142129 
L 329.90005 174.743828 
L 330.576517 157.231965 
L 331.252983 151.243118 
L 331.929449 149.15203 
L 332.605916 159.920902 
L 333.282382 152.084384 
L 333.958849 136.634731 
L 334.635315 140.698353 
L 335.311782 128.847754 
L 335.988248 124.612181 
L 336.664715 116.672115 
L 337.341181 132.211445 
L 338.017648 114.963572 
L 338.694114 107.023506 
L 339.370581 102.265415 
L 340.047047 103.751709 
L 340.723514 95.254784 
L 341.39998 94.608249 
L 342.076446 110.295156 
L 344.782312 65.37254 
L 345.458779 51.660308 
L 346.135245 69.344122 
L 346.811712 67.989245 
L 347.488178 62.309119 
L 348.164645 67.894106 
L 348.841111 84.684764 
L 349.517578 97.296344 
L 350.194044 105.23641 
L 350.870511 88.445753 
L 351.546977 97.175426 
L 352.223443 97.175426 
L 352.89991 97.896631 
L 353.576376 87.601487 
L 354.252843 97.542965 
L 354.929309 115.226779 
L 355.605776 110.175819 
L 356.282242 122.929591 
L 356.958709 129.425104 
L 357.635175 144.124674 
L 358.311642 137.246616 
L 358.988108 141.310238 
L 359.664575 124.967428 
L 360.341041 115.923612 
L 361.017508 122.855067 
L 361.693974 120.80572 
L 362.37044 108.802032 
L 363.046907 110.72117 
L 363.723373 101.529775 
L 364.39984 95.849649 
L 365.076306 86.684035 
L 365.752773 81.633074 
L 366.429239 84.328956 
L 367.105706 83.489196 
L 367.782172 77.230938 
L 368.458639 48.911176 
L 369.135105 60.786492 
L 369.811572 56.98686 
L 370.488038 62.761168 
L 371.164505 63.864918 
L 371.840971 66.771394 
L 372.517437 73.002916 
L 373.193904 100.713015 
L 373.87037 109.546237 
L 374.546837 114.790422 
L 375.223303 124.703022 
L 375.89977 113.420539 
L 376.576236 98.720969 
L 377.252703 108.662448 
L 377.929169 116.051117 
L 378.605636 109.991545 
L 379.282102 139.126694 
L 379.958569 125.530874 
L 380.635035 133.47094 
L 381.311502 142.778747 
L 381.987968 147.376396 
L 382.664434 135.307856 
L 384.017367 139.564702 
L 385.3703 132.40138 
L 386.046767 123.814779 
L 386.723233 92.672588 
L 387.3997 86.992462 
L 388.076166 68.32131 
L 388.752633 60.722047 
L 389.429099 70.753201 
L 390.105566 66.571025 
L 390.782032 72.316454 
L 391.458498 69.163358 
L 392.134965 82.154384 
L 392.811431 60.119541 
L 393.487898 75.806449 
L 394.164364 68.323598 
L 394.840831 55.937365 
L 395.517297 76.07044 
L 396.193764 78.898496 
L 396.87023 84.406671 
L 397.546697 84.237819 
L 398.223163 84.237819 
L 398.89963 87.77346 
L 399.576096 93.928171 
L 400.252563 101.527434 
L 400.929029 95.031921 
L 401.605495 103.407928 
L 402.281962 93.323377 
L 402.958428 101.070219 
L 403.634895 117.403662 
L 404.311361 113.604031 
L 404.987828 125.948522 
L 405.664294 130.498237 
L 406.340761 140.793382 
L 407.017227 136.388957 
L 407.693694 130.880782 
L 408.37016 129.172238 
L 409.046627 102.901823 
L 409.723093 105.775166 
L 410.39956 102.838751 
L 411.076026 96.408541 
L 411.752492 82.9603 
L 412.428959 86.042671 
L 413.105425 84.938921 
L 414.458358 99.904624 
L 415.134825 99.15454 
L 415.811291 111.330179 
L 416.487758 115.12981 
L 417.164224 116.574363 
L 418.517157 99.178912 
L 419.193624 99.321984 
L 419.87009 96.168888 
L 420.546557 108.777369 
L 421.223023 126.461183 
L 421.899489 122.320749 
L 422.575956 131.800506 
L 423.252422 115.656384 
L 423.928889 123.984562 
L 424.605355 123.630895 
L 425.281822 144.081316 
L 425.958288 137.920519 
L 426.634755 134.578102 
L 427.311221 113.987812 
L 427.987688 103.351865 
L 428.664154 104.101948 
L 429.340621 110.597462 
L 430.017087 98.211229 
L 430.693554 90.728377 
L 431.37002 108.746907 
L 432.046486 99.792767 
L 432.722953 87.617128 
L 433.399419 101.711904 
L 434.075886 84.02809 
L 434.752352 87.539359 
L 435.428819 84.196943 
L 436.105285 86.892824 
L 436.781752 84.801736 
L 437.458218 70.455832 
L 438.134685 63.960319 
L 438.811151 63.310581 
L 439.487618 60.851954 
L 440.164084 56.447529 
L 440.840551 69.554967 
L 442.193483 61.955704 
L 442.86995 68.052389 
L 443.546416 59.848332 
L 444.222883 59.848332 
L 444.899349 48.153365 
L 445.575816 57.107505 
L 446.252282 53.954409 
L 446.928749 53.307874 
L 447.605215 56.292118 
L 448.281682 43.683636 
L 448.958148 56.674663 
L 450.311081 97.398027 
L 450.987548 90.548848 
L 451.664014 97.044361 
L 453.693413 65.269715 
L 454.36988 83.887471 
L 455.046346 92.67453 
L 455.722813 108.860395 
L 456.399279 110.362973 
L 457.075746 135.167777 
L 457.752212 150.801288 
L 459.105145 174.766076 
L 459.781612 182.706142 
L 460.458078 193.870749 
L 461.811011 211.527902 
L 462.487477 223.625773 
L 463.84041 204.204765 
L 465.193343 242.232248 
L 465.86981 247.529829 
L 466.546276 272.846824 
L 467.222743 302.473414 
L 467.899209 288.642628 
L 468.575676 285.568404 
L 469.252142 289.972829 
L 469.928609 279.957437 
L 470.605075 266.631283 
L 471.281542 264.226052 
L 471.958008 251.235025 
L 472.634474 248.539144 
L 473.310941 265.934595 
L 473.987407 252.168289 
L 474.663874 268.738987 
L 475.34034 252.763716 
L 476.016807 221.385272 
L 476.693273 203.197379 
L 477.36974 202.210937 
L 478.046206 185.294492 
L 478.722673 173.576068 
L 479.399139 195.785201 
L 480.075606 202.430654 
L 480.752072 206.328809 
L 482.105005 246.668365 
L 482.781471 242.053346 
L 483.457938 245.309233 
L 484.134404 253.605487 
L 484.810871 270.541435 
L 485.487337 282.656024 
L 486.163804 279.142117 
L 486.84027 286.23077 
L 487.516737 302.20604 
L 488.193203 302.016719 
L 488.86967 314.192358 
L 490.222603 346.010931 
L 490.899069 354.110453 
L 492.252002 386.956364 
L 492.928468 382.488549 
L 493.604935 376.83963 
L 494.281401 376.299116 
L 494.957868 357.375813 
L 495.634334 354.81995 
L 496.987267 383.049983 
L 497.663734 371.53851 
L 498.3402 340.653076 
L 499.016667 330.661287 
L 499.693133 326.855322 
L 500.3696 316.280424 
L 501.046066 310.783955 
L 501.722533 293.243213 
L 502.398999 285.854544 
L 503.075465 295.558768 
L 503.751932 315.309298 
L 504.428398 303.375973 
L 505.104865 299.890484 
L 505.781331 276.517943 
L 506.457798 242.777792 
L 507.134264 248.108208 
L 507.810731 232.4213 
L 508.487197 249.080893 
L 509.163664 224.348384 
L 509.84013 230.794051 
L 510.516597 206.364168 
L 511.193063 225.967914 
L 511.86953 225.379404 
L 512.545996 221.646186 
L 513.222462 241.450419 
L 513.898929 241.519578 
L 514.575395 232.205576 
L 515.928328 257.96349 
L 516.604795 265.54672 
L 517.281261 247.401185 
L 517.957728 260.888668 
L 518.634194 256.156985 
L 519.310661 265.808158 
L 519.987127 289.615577 
L 520.663594 269.295856 
L 521.34006 265.604561 
L 522.016527 255.440482 
L 522.692993 271.833566 
L 523.369459 255.660356 
L 524.045926 272.108431 
L 524.722392 243.088054 
L 525.398859 262.301553 
L 526.075325 272.587397 
L 526.751792 279.614205 
L 527.428258 280.964575 
L 528.104725 298.305483 
L 528.781191 296.919 
L 529.457658 285.306848 
L 530.134124 284.666979 
L 530.810591 298.865304 
L 531.487057 302.802603 
L 532.163524 302.984571 
L 532.83999 301.416077 
L 533.516456 289.771182 
L 534.192923 311.118834 
L 534.869389 315.316795 
L 535.545856 302.563023 
L 536.222322 310.244561 
L 536.898789 311.749019 
L 537.575255 319.655558 
L 538.251722 337.599417 
L 538.928188 341.655806 
L 539.604655 333.437594 
L 540.281121 310.140875 
L 540.957588 307.198373 
L 541.634054 276.594796 
L 542.310521 267.442716 
L 542.986987 288.698327 
L 543.663453 295.827873 
L 544.33992 275.179196 
L 545.016386 240.968064 
L 545.692853 243.47804 
L 546.369319 241.355239 
L 547.045786 255.589484 
L 547.722252 256.110811 
L 548.398719 265.610927 
L 549.075185 282.319228 
L 549.751652 282.767076 
L 550.428118 273.563385 
L 551.104585 260.809613 
L 551.781051 267.762341 
L 552.457518 268.317683 
L 553.133984 286.845763 
L 553.81045 297.762395 
L 554.486917 280.504386 
L 555.163383 297.295044 
L 555.83985 307.424325 
L 556.516316 301.374386 
L 557.869249 271.920229 
L 558.545716 310.560158 
L 559.222182 291.69363 
L 559.898649 305.718733 
L 560.575115 313.980294 
L 561.251582 292.096775 
L 561.928048 294.631123 
L 562.604515 295.291613 
L 563.280981 278.644831 
L 563.957447 285.051854 
L 564.633914 285.112118 
L 565.31038 294.582509 
L 565.986847 281.40368 
L 566.663313 265.114267 
L 567.33978 271.337007 
L 568.016246 298.874128 
L 568.692713 291.553861 
L 569.369179 292.131237 
L 570.045646 298.093185 
L 570.722112 293.853057 
L 571.398579 303.28531 
L 572.075045 308.718815 
L 572.751512 315.56983 
L 573.427978 306.331697 
L 574.104444 288.9479 
L 574.780911 286.067317 
L 575.457377 254.163769 
L 576.133844 246.395654 
L 576.81031 271.391783 
L 577.486777 252.107784 
L 578.163243 265.650207 
L 578.83971 260.391695 
L 579.516176 278.097328 
L 580.192643 274.651362 
L 580.869109 260.392046 
L 581.545576 262.210804 
L 582.222042 280.813554 
L 582.898509 272.159969 
L 583.574975 269.542343 
L 584.251441 288.781837 
L 584.927908 304.444748 
L 585.604374 278.204272 
L 586.280841 295.178007 
L 586.957307 305.473152 
L 588.31024 352.135642 
L 588.986707 358.206333 
L 589.663173 368.501478 
L 590.33964 342.355184 
L 591.016106 346.289653 
L 591.692573 324.942001 
L 592.369039 316.589688 
L 593.045506 280.775198 
L 593.721972 297.565856 
L 594.398438 299.618265 
L 595.074905 286.777745 
L 595.751371 266.39805 
L 596.427838 258.330137 
L 597.104304 248.16078 
L 597.780771 220.606327 
L 598.457237 206.522004 
L 599.133704 205.800798 
L 599.81017 212.109684 
L 601.163103 181.212425 
L 601.83957 183.801208 
L 602.516036 202.722814 
L 603.192503 194.329437 
L 603.868969 210.703535 
L 604.545435 221.58719 
L 605.221902 223.007807 
L 605.898368 205.953158 
L 606.574835 227.452367 
L 607.251301 215.00083 
L 607.927768 225.643806 
L 608.604234 214.000223 
L 609.280701 219.297804 
L 609.957167 237.192212 
L 610.633634 225.820053 
L 611.3101 235.468662 
L 611.986567 239.962763 
L 612.663033 241.375234 
L 613.339499 230.410444 
L 614.015966 237.004085 
L 614.692432 232.074043 
L 615.368899 214.497328 
L 616.045365 212.667081 
L 616.721832 218.07851 
L 617.398298 203.828323 
L 618.074765 198.054015 
L 618.751231 209.225597 
L 619.427698 222.437129 
L 620.104164 225.272879 
L 620.780631 215.188328 
L 621.457097 209.893951 
L 622.81003 221.396394 
L 623.486496 218.346846 
L 624.162963 226.429985 
L 624.839429 226.301612 
L 625.515896 218.912943 
L 626.192362 235.094179 
L 626.868829 223.09049 
L 627.545295 236.24738 
L 628.221762 246.143697 
L 628.898228 242.460477 
L 629.574695 240.606644 
L 630.251161 232.440946 
L 630.927628 250.437771 
L 631.604094 256.669293 
L 632.280561 241.418327 
L 632.957027 232.61122 
L 633.633493 219.376776 
L 634.30996 235.20049 
L 634.986426 226.032552 
L 635.662893 224.22046 
L 636.339359 227.180332 
L 637.015826 219.646373 
L 637.692292 216.057335 
L 638.368759 221.30152 
L 639.045225 243.888715 
L 639.721692 242.098328 
L 640.398158 246.022081 
L 641.074625 227.980095 
L 641.751091 223.713657 
L 642.427558 220.807181 
L 643.104024 219.754539 
L 643.78049 219.812926 
L 644.456957 203.524645 
L 645.133423 201.511976 
L 645.80989 213.420526 
L 646.486356 214.503002 
L 647.162823 234.105954 
L 647.839289 226.151581 
L 648.515756 232.832665 
L 649.192222 227.692029 
L 650.545155 210.963914 
L 651.221622 214.552952 
L 651.898088 217.085855 
L 653.251021 196.417162 
L 653.927487 217.101634 
L 654.603954 227.617284 
L 655.28042 218.476136 
L 655.956887 230.817424 
L 656.633353 227.017792 
L 657.30982 219.418529 
L 657.986286 234.934064 
L 658.662753 232.452632 
L 659.339219 232.404698 
L 660.015686 246.593657 
L 660.692152 231.963246 
L 661.368619 231.404806 
L 662.045085 230.478517 
L 662.721552 231.741102 
L 663.398018 231.151534 
L 664.074484 248.530702 
L 664.750951 238.446152 
L 665.427417 235.243604 
L 666.103884 221.707902 
L 666.78035 221.612764 
L 667.456817 206.76405 
L 668.133283 196.2484 
L 670.162683 217.69336 
L 670.839149 212.848004 
L 671.515616 200.118026 
L 672.192082 207.717289 
L 672.868549 210.357556 
L 673.545015 205.340611 
L 674.221481 209.99993 
L 674.897948 211.64317 
L 675.574414 203.2122 
L 676.250881 219.081076 
L 676.927347 214.791801 
L 677.603814 200.634131 
L 678.28028 222.757799 
L 678.956747 227.668891 
L 679.633213 241.013583 
L 680.30968 241.267557 
L 680.986146 250.994585 
L 681.662613 256.624464 
L 682.339079 255.520714 
L 683.015546 249.372316 
L 683.692012 245.446332 
L 684.368478 257.758776 
L 685.044945 259.175969 
L 685.721411 258.573463 
L 686.397878 248.791148 
L 687.074344 254.870102 
L 687.750811 247.092075 
L 688.427277 246.024298 
L 689.103744 256.546356 
L 689.78021 248.424322 
L 690.456677 249.248682 
L 691.133143 252.065481 
L 691.80961 246.489054 
L 692.486076 225.564048 
L 693.162543 220.563281 
L 693.839009 227.240762 
L 694.515475 211.735822 
L 695.191942 209.905575 
L 695.868408 223.42526 
L 696.544875 226.977185 
L 697.897808 244.78535 
L 698.574274 250.262499 
L 699.250741 250.809389 
L 699.927207 249.602091 
L 700.603674 249.284398 
L 701.28014 253.40046 
L 701.956607 251.404816 
L 703.30954 225.234094 
L 703.986006 233.882145 
L 704.662472 233.483317 
L 705.338939 234.603171 
L 706.015405 256.576964 
L 706.691872 265.524942 
L 707.368338 265.342974 
L 708.044805 287.60992 
L 708.721271 281.351661 
L 709.397738 276.138824 
L 710.074204 265.042599 
L 710.750671 275.202906 
L 712.103604 263.478311 
L 712.78007 264.492385 
L 713.456537 270.448637 
L 714.133003 273.052655 
L 714.809469 273.155446 
L 715.485936 259.324661 
L 716.162402 269.101936 
L 716.838869 283.131409 
L 717.515335 290.832201 
L 718.191802 290.832201 
L 718.868268 282.356501 
L 719.544735 268.797359 
L 720.221201 272.948246 
L 720.897668 262.328403 
L 721.574134 245.917787 
L 722.250601 254.121844 
L 722.927067 249.009834 
L 723.603534 264.048693 
L 724.28 243.252438 
L 724.28 243.252438 
" style="fill:none;stroke:#ff7f0e;stroke-linecap:square;stroke-width:1.5;"/>
   </g>
   <g id="patch_3">
    <path d="M 48.49 404.12 
L 48.49 26.52 
" style="fill:none;stroke:#000000;stroke-linecap:square;stroke-linejoin:miter;stroke-width:0.8;"/>
   </g>
   <g id="patch_4">
    <path d="M 724.28 404.12 
L 724.28 26.52 
" style="fill:none;stroke:#000000;stroke-linecap:square;stroke-linejoin:miter;stroke-width:0.8;"/>
   </g>
   <g id="patch_5">
    <path d="M 48.49 404.12 
L 724.28 404.12 
" style="fill:none;stroke:#000000;stroke-linecap:square;stroke-linejoin:miter;stroke-width:0.8;"/>
   </g>
   <g id="patch_6">
    <path d="M 48.49 26.52 
L 724.28 26.52 
" style="fill:none;stroke:#000000;stroke-linecap:square;stroke-linejoin:miter;stroke-width:0.8;"/>
   </g>
   <g id="text_14">
    <!-- multi_way_v1__2: episode duration in steps log-relative to `htm_2_1g`, MA=20 -->
    <defs>
     <path d="M 52 44.1875 
Q 55.375 50.25 60.0625 53.125 
Q 64.75 56 71.09375 56 
Q 79.640625 56 84.28125 50.015625 
Q 88.921875 44.046875 88.921875 33.015625 
L 88.921875 0 
L 79.890625 0 
L 79.890625 32.71875 
Q 79.890625 40.578125 77.09375 44.375 
Q 74.3125 48.1875 68.609375 48.1875 
Q 61.625 48.1875 57.5625 43.546875 
Q 53.515625 38.921875 53.515625 30.90625 
L 53.515625 0 
L 44.484375 0 
L 44.484375 32.71875 
Q 44.484375 40.625 41.703125 44.40625 
Q 38.921875 48.1875 33.109375 48.1875 
Q 26.21875 48.1875 22.15625 43.53125 
Q 18.109375 38.875 18.109375 30.90625 
L 18.109375 0 
L 9.078125 0 
L 9.078125 54.6875 
L 18.109375 54.6875 
L 18.109375 46.1875 
Q 21.1875 51.21875 25.484375 53.609375 
Q 29.78125 56 35.6875 56 
Q 41.65625 56 45.828125 52.96875 
Q 50 49.953125 52 44.1875 
z
" id="DejaVuSans-109"/>
     <path d="M 8.5 21.578125 
L 8.5 54.6875 
L 17.484375 54.6875 
L 17.484375 21.921875 
Q 17.484375 14.15625 20.5 10.265625 
Q 23.53125 6.390625 29.59375 6.390625 
Q 36.859375 6.390625 41.078125 11.03125 
Q 45.3125 15.671875 45.3125 23.6875 
L 45.3125 54.6875 
L 54.296875 54.6875 
L 54.296875 0 
L 45.3125 0 
L 45.3125 8.40625 
Q 42.046875 3.421875 37.71875 1 
Q 33.40625 -1.421875 27.6875 -1.421875 
Q 18.265625 -1.421875 13.375 4.4375 
Q 8.5 10.296875 8.5 21.578125 
z
M 31.109375 56 
z
" id="DejaVuSans-117"/>
     <path d="M 9.421875 75.984375 
L 18.40625 75.984375 
L 18.40625 0 
L 9.421875 0 
z
" id="DejaVuSans-108"/>
     <path d="M 18.3125 70.21875 
L 18.3125 54.6875 
L 36.8125 54.6875 
L 36.8125 47.703125 
L 18.3125 47.703125 
L 18.3125 18.015625 
Q 18.3125 11.328125 20.140625 9.421875 
Q 21.96875 7.515625 27.59375 7.515625 
L 36.8125 7.515625 
L 36.8125 0 
L 27.59375 0 
Q 17.1875 0 13.234375 3.875 
Q 9.28125 7.765625 9.28125 18.015625 
L 9.28125 47.703125 
L 2.6875 47.703125 
L 2.6875 54.6875 
L 9.28125 54.6875 
L 9.28125 70.21875 
z
" id="DejaVuSans-116"/>
     <path d="M 9.421875 54.6875 
L 18.40625 54.6875 
L 18.40625 0 
L 9.421875 0 
z
M 9.421875 75.984375 
L 18.40625 75.984375 
L 18.40625 64.59375 
L 9.421875 64.59375 
z
" id="DejaVuSans-105"/>
     <path d="M 50.984375 -16.609375 
L 50.984375 -23.578125 
L -0.984375 -23.578125 
L -0.984375 -16.609375 
z
" id="DejaVuSans-95"/>
     <path d="M 4.203125 54.6875 
L 13.1875 54.6875 
L 24.421875 12.015625 
L 35.59375 54.6875 
L 46.1875 54.6875 
L 57.421875 12.015625 
L 68.609375 54.6875 
L 77.59375 54.6875 
L 63.28125 0 
L 52.6875 0 
L 40.921875 44.828125 
L 29.109375 0 
L 18.5 0 
z
" id="DejaVuSans-119"/>
     <path d="M 34.28125 27.484375 
Q 23.390625 27.484375 19.1875 25 
Q 14.984375 22.515625 14.984375 16.5 
Q 14.984375 11.71875 18.140625 8.90625 
Q 21.296875 6.109375 26.703125 6.109375 
Q 34.1875 6.109375 38.703125 11.40625 
Q 43.21875 16.703125 43.21875 25.484375 
L 43.21875 27.484375 
z
M 52.203125 31.203125 
L 52.203125 0 
L 43.21875 0 
L 43.21875 8.296875 
Q 40.140625 3.328125 35.546875 0.953125 
Q 30.953125 -1.421875 24.3125 -1.421875 
Q 15.921875 -1.421875 10.953125 3.296875 
Q 6 8.015625 6 15.921875 
Q 6 25.140625 12.171875 29.828125 
Q 18.359375 34.515625 30.609375 34.515625 
L 43.21875 34.515625 
L 43.21875 35.40625 
Q 43.21875 41.609375 39.140625 45 
Q 35.0625 48.390625 27.6875 48.390625 
Q 23 48.390625 18.546875 47.265625 
Q 14.109375 46.140625 10.015625 43.890625 
L 10.015625 52.203125 
Q 14.9375 54.109375 19.578125 55.046875 
Q 24.21875 56 28.609375 56 
Q 40.484375 56 46.34375 49.84375 
Q 52.203125 43.703125 52.203125 31.203125 
z
" id="DejaVuSans-97"/>
     <path d="M 32.171875 -5.078125 
Q 28.375 -14.84375 24.75 -17.8125 
Q 21.140625 -20.796875 15.09375 -20.796875 
L 7.90625 -20.796875 
L 7.90625 -13.28125 
L 13.1875 -13.28125 
Q 16.890625 -13.28125 18.9375 -11.515625 
Q 21 -9.765625 23.484375 -3.21875 
L 25.09375 0.875 
L 2.984375 54.6875 
L 12.5 54.6875 
L 29.59375 11.921875 
L 46.6875 54.6875 
L 56.203125 54.6875 
z
" id="DejaVuSans-121"/>
     <path d="M 2.984375 54.6875 
L 12.5 54.6875 
L 29.59375 8.796875 
L 46.6875 54.6875 
L 56.203125 54.6875 
L 35.6875 0 
L 23.484375 0 
z
" id="DejaVuSans-118"/>
     <path d="M 11.71875 12.40625 
L 22.015625 12.40625 
L 22.015625 0 
L 11.71875 0 
z
M 11.71875 51.703125 
L 22.015625 51.703125 
L 22.015625 39.3125 
L 11.71875 39.3125 
z
" id="DejaVuSans-58"/>
     <path id="DejaVuSans-32"/>
     <path d="M 56.203125 29.59375 
L 56.203125 25.203125 
L 14.890625 25.203125 
Q 15.484375 15.921875 20.484375 11.0625 
Q 25.484375 6.203125 34.421875 6.203125 
Q 39.59375 6.203125 44.453125 7.46875 
Q 49.3125 8.734375 54.109375 11.28125 
L 54.109375 2.78125 
Q 49.265625 0.734375 44.1875 -0.34375 
Q 39.109375 -1.421875 33.890625 -1.421875 
Q 20.796875 -1.421875 13.15625 6.1875 
Q 5.515625 13.8125 5.515625 26.8125 
Q 5.515625 40.234375 12.765625 48.109375 
Q 20.015625 56 32.328125 56 
Q 43.359375 56 49.78125 48.890625 
Q 56.203125 41.796875 56.203125 29.59375 
z
M 47.21875 32.234375 
Q 47.125 39.59375 43.09375 43.984375 
Q 39.0625 48.390625 32.421875 48.390625 
Q 24.90625 48.390625 20.390625 44.140625 
Q 15.875 39.890625 15.1875 32.171875 
z
" id="DejaVuSans-101"/>
     <path d="M 18.109375 8.203125 
L 18.109375 -20.796875 
L 9.078125 -20.796875 
L 9.078125 54.6875 
L 18.109375 54.6875 
L 18.109375 46.390625 
Q 20.953125 51.265625 25.265625 53.625 
Q 29.59375 56 35.59375 56 
Q 45.5625 56 51.78125 48.09375 
Q 58.015625 40.1875 58.015625 27.296875 
Q 58.015625 14.40625 51.78125 6.484375 
Q 45.5625 -1.421875 35.59375 -1.421875 
Q 29.59375 -1.421875 25.265625 0.953125 
Q 20.953125 3.328125 18.109375 8.203125 
z
M 48.6875 27.296875 
Q 48.6875 37.203125 44.609375 42.84375 
Q 40.53125 48.484375 33.40625 48.484375 
Q 26.265625 48.484375 22.1875 42.84375 
Q 18.109375 37.203125 18.109375 27.296875 
Q 18.109375 17.390625 22.1875 11.75 
Q 26.265625 6.109375 33.40625 6.109375 
Q 40.53125 6.109375 44.609375 11.75 
Q 48.6875 17.390625 48.6875 27.296875 
z
" id="DejaVuSans-112"/>
     <path d="M 44.28125 53.078125 
L 44.28125 44.578125 
Q 40.484375 46.53125 36.375 47.5 
Q 32.28125 48.484375 27.875 48.484375 
Q 21.1875 48.484375 17.84375 46.4375 
Q 14.5 44.390625 14.5 40.28125 
Q 14.5 37.15625 16.890625 35.375 
Q 19.28125 33.59375 26.515625 31.984375 
L 29.59375 31.296875 
Q 39.15625 29.25 43.1875 25.515625 
Q 47.21875 21.78125 47.21875 15.09375 
Q 47.21875 7.46875 41.1875 3.015625 
Q 35.15625 -1.421875 24.609375 -1.421875 
Q 20.21875 -1.421875 15.453125 -0.5625 
Q 10.6875 0.296875 5.421875 2 
L 5.421875 11.28125 
Q 10.40625 8.6875 15.234375 7.390625 
Q 20.0625 6.109375 24.8125 6.109375 
Q 31.15625 6.109375 34.5625 8.28125 
Q 37.984375 10.453125 37.984375 14.40625 
Q 37.984375 18.0625 35.515625 20.015625 
Q 33.0625 21.96875 24.703125 23.78125 
L 21.578125 24.515625 
Q 13.234375 26.265625 9.515625 29.90625 
Q 5.8125 33.546875 5.8125 39.890625 
Q 5.8125 47.609375 11.28125 51.796875 
Q 16.75 56 26.8125 56 
Q 31.78125 56 36.171875 55.265625 
Q 40.578125 54.546875 44.28125 53.078125 
z
" id="DejaVuSans-115"/>
     <path d="M 30.609375 48.390625 
Q 23.390625 48.390625 19.1875 42.75 
Q 14.984375 37.109375 14.984375 27.296875 
Q 14.984375 17.484375 19.15625 11.84375 
Q 23.34375 6.203125 30.609375 6.203125 
Q 37.796875 6.203125 41.984375 11.859375 
Q 46.1875 17.53125 46.1875 27.296875 
Q 46.1875 37.015625 41.984375 42.703125 
Q 37.796875 48.390625 30.609375 48.390625 
z
M 30.609375 56 
Q 42.328125 56 49.015625 48.375 
Q 55.71875 40.765625 55.71875 27.296875 
Q 55.71875 13.875 49.015625 6.21875 
Q 42.328125 -1.421875 30.609375 -1.421875 
Q 18.84375 -1.421875 12.171875 6.21875 
Q 5.515625 13.875 5.515625 27.296875 
Q 5.515625 40.765625 12.171875 48.375 
Q 18.84375 56 30.609375 56 
z
" id="DejaVuSans-111"/>
     <path d="M 45.40625 46.390625 
L 45.40625 75.984375 
L 54.390625 75.984375 
L 54.390625 0 
L 45.40625 0 
L 45.40625 8.203125 
Q 42.578125 3.328125 38.25 0.953125 
Q 33.9375 -1.421875 27.875 -1.421875 
Q 17.96875 -1.421875 11.734375 6.484375 
Q 5.515625 14.40625 5.515625 27.296875 
Q 5.515625 40.1875 11.734375 48.09375 
Q 17.96875 56 27.875 56 
Q 33.9375 56 38.25 53.625 
Q 42.578125 51.265625 45.40625 46.390625 
z
M 14.796875 27.296875 
Q 14.796875 17.390625 18.875 11.75 
Q 22.953125 6.109375 30.078125 6.109375 
Q 37.203125 6.109375 41.296875 11.75 
Q 45.40625 17.390625 45.40625 27.296875 
Q 45.40625 37.203125 41.296875 42.84375 
Q 37.203125 48.484375 30.078125 48.484375 
Q 22.953125 48.484375 18.875 42.84375 
Q 14.796875 37.203125 14.796875 27.296875 
z
" id="DejaVuSans-100"/>
     <path d="M 41.109375 46.296875 
Q 39.59375 47.171875 37.8125 47.578125 
Q 36.03125 48 33.890625 48 
Q 26.265625 48 22.1875 43.046875 
Q 18.109375 38.09375 18.109375 28.8125 
L 18.109375 0 
L 9.078125 0 
L 9.078125 54.6875 
L 18.109375 54.6875 
L 18.109375 46.1875 
Q 20.953125 51.171875 25.484375 53.578125 
Q 30.03125 56 36.53125 56 
Q 37.453125 56 38.578125 55.875 
Q 39.703125 55.765625 41.0625 55.515625 
z
" id="DejaVuSans-114"/>
     <path d="M 54.890625 33.015625 
L 54.890625 0 
L 45.90625 0 
L 45.90625 32.71875 
Q 45.90625 40.484375 42.875 44.328125 
Q 39.84375 48.1875 33.796875 48.1875 
Q 26.515625 48.1875 22.3125 43.546875 
Q 18.109375 38.921875 18.109375 30.90625 
L 18.109375 0 
L 9.078125 0 
L 9.078125 54.6875 
L 18.109375 54.6875 
L 18.109375 46.1875 
Q 21.34375 51.125 25.703125 53.5625 
Q 30.078125 56 35.796875 56 
Q 45.21875 56 50.046875 50.171875 
Q 54.890625 44.34375 54.890625 33.015625 
z
" id="DejaVuSans-110"/>
     <path d="M 45.40625 27.984375 
Q 45.40625 37.75 41.375 43.109375 
Q 37.359375 48.484375 30.078125 48.484375 
Q 22.859375 48.484375 18.828125 43.109375 
Q 14.796875 37.75 14.796875 27.984375 
Q 14.796875 18.265625 18.828125 12.890625 
Q 22.859375 7.515625 30.078125 7.515625 
Q 37.359375 7.515625 41.375 12.890625 
Q 45.40625 18.265625 45.40625 27.984375 
z
M 54.390625 6.78125 
Q 54.390625 -7.171875 48.1875 -13.984375 
Q 42 -20.796875 29.203125 -20.796875 
Q 24.46875 -20.796875 20.265625 -20.09375 
Q 16.0625 -19.390625 12.109375 -17.921875 
L 12.109375 -9.1875 
Q 16.0625 -11.328125 19.921875 -12.34375 
Q 23.78125 -13.375 27.78125 -13.375 
Q 36.625 -13.375 41.015625 -8.765625 
Q 45.40625 -4.15625 45.40625 5.171875 
L 45.40625 9.625 
Q 42.625 4.78125 38.28125 2.390625 
Q 33.9375 0 27.875 0 
Q 17.828125 0 11.671875 7.65625 
Q 5.515625 15.328125 5.515625 27.984375 
Q 5.515625 40.671875 11.671875 48.328125 
Q 17.828125 56 27.875 56 
Q 33.9375 56 38.28125 53.609375 
Q 42.625 51.21875 45.40625 46.390625 
L 45.40625 54.6875 
L 54.390625 54.6875 
z
" id="DejaVuSans-103"/>
     <path d="M 4.890625 31.390625 
L 31.203125 31.390625 
L 31.203125 23.390625 
L 4.890625 23.390625 
z
" id="DejaVuSans-45"/>
     <path d="M 17.921875 79.984375 
L 31.6875 61.71875 
L 24.21875 61.71875 
L 8.296875 79.984375 
z
" id="DejaVuSans-96"/>
     <path d="M 54.890625 33.015625 
L 54.890625 0 
L 45.90625 0 
L 45.90625 32.71875 
Q 45.90625 40.484375 42.875 44.328125 
Q 39.84375 48.1875 33.796875 48.1875 
Q 26.515625 48.1875 22.3125 43.546875 
Q 18.109375 38.921875 18.109375 30.90625 
L 18.109375 0 
L 9.078125 0 
L 9.078125 75.984375 
L 18.109375 75.984375 
L 18.109375 46.1875 
Q 21.34375 51.125 25.703125 53.5625 
Q 30.078125 56 35.796875 56 
Q 45.21875 56 50.046875 50.171875 
Q 54.890625 44.34375 54.890625 33.015625 
z
" id="DejaVuSans-104"/>
     <path d="M 11.71875 12.40625 
L 22.015625 12.40625 
L 22.015625 4 
L 14.015625 -11.625 
L 7.71875 -11.625 
L 11.71875 4 
z
" id="DejaVuSans-44"/>
     <path d="M 9.8125 72.90625 
L 24.515625 72.90625 
L 43.109375 23.296875 
L 61.8125 72.90625 
L 76.515625 72.90625 
L 76.515625 0 
L 66.890625 0 
L 66.890625 64.015625 
L 48.09375 14.015625 
L 38.1875 14.015625 
L 19.390625 64.015625 
L 19.390625 0 
L 9.8125 0 
z
" id="DejaVuSans-77"/>
     <path d="M 34.1875 63.1875 
L 20.796875 26.90625 
L 47.609375 26.90625 
z
M 28.609375 72.90625 
L 39.796875 72.90625 
L 67.578125 0 
L 57.328125 0 
L 50.6875 18.703125 
L 17.828125 18.703125 
L 11.1875 0 
L 0.78125 0 
z
" id="DejaVuSans-65"/>
     <path d="M 10.59375 45.40625 
L 73.1875 45.40625 
L 73.1875 37.203125 
L 10.59375 37.203125 
z
M 10.59375 25.484375 
L 73.1875 25.484375 
L 73.1875 17.1875 
L 10.59375 17.1875 
z
" id="DejaVuSans-61"/>
    </defs>
    <g transform="translate(148.775625 20.52)scale(0.12 -0.12)">
     <use xlink:href="#DejaVuSans-109"/>
     <use x="97.412109" xlink:href="#DejaVuSans-117"/>
     <use x="160.791016" xlink:href="#DejaVuSans-108"/>
     <use x="188.574219" xlink:href="#DejaVuSans-116"/>
     <use x="227.783203" xlink:href="#DejaVuSans-105"/>
     <use x="255.566406" xlink:href="#DejaVuSans-95"/>
     <use x="305.566406" xlink:href="#DejaVuSans-119"/>
     <use x="387.353516" xlink:href="#DejaVuSans-97"/>
     <use x="448.632812" xlink:href="#DejaVuSans-121"/>
     <use x="507.8125" xlink:href="#DejaVuSans-95"/>
     <use x="557.8125" xlink:href="#DejaVuSans-118"/>
     <use x="616.992188" xlink:href="#DejaVuSans-49"/>
     <use x="680.615234" xlink:href="#DejaVuSans-95"/>
     <use x="730.615234" xlink:href="#DejaVuSans-95"/>
     <use x="780.615234" xlink:href="#DejaVuSans-50"/>
     <use x="844.238281" xlink:href="#DejaVuSans-58"/>
     <use x="877.929688" xlink:href="#DejaVuSans-32"/>
     <use x="909.716797" xlink:href="#DejaVuSans-101"/>
     <use x="971.240234" xlink:href="#DejaVuSans-112"/>
     <use x="1034.716797" xlink:href="#DejaVuSans-105"/>
     <use x="1062.5" xlink:href="#DejaVuSans-115"/>
     <use x="1114.599609" xlink:href="#DejaVuSans-111"/>
     <use x="1175.78125" xlink:href="#DejaVuSans-100"/>
     <use x="1239.257812" xlink:href="#DejaVuSans-101"/>
     <use x="1300.78125" xlink:href="#DejaVuSans-32"/>
     <use x="1332.568359" xlink:href="#DejaVuSans-100"/>
     <use x="1396.044922" xlink:href="#DejaVuSans-117"/>
     <use x="1459.423828" xlink:href="#DejaVuSans-114"/>
     <use x="1500.537109" xlink:href="#DejaVuSans-97"/>
     <use x="1561.816406" xlink:href="#DejaVuSans-116"/>
     <use x="1601.025391" xlink:href="#DejaVuSans-105"/>
     <use x="1628.808594" xlink:href="#DejaVuSans-111"/>
     <use x="1689.990234" xlink:href="#DejaVuSans-110"/>
     <use x="1753.369141" xlink:href="#DejaVuSans-32"/>
     <use x="1785.15625" xlink:href="#DejaVuSans-105"/>
     <use x="1812.939453" xlink:href="#DejaVuSans-110"/>
     <use x="1876.318359" xlink:href="#DejaVuSans-32"/>
     <use x="1908.105469" xlink:href="#DejaVuSans-115"/>
     <use x="1960.205078" xlink:href="#DejaVuSans-116"/>
     <use x="1999.414062" xlink:href="#DejaVuSans-101"/>
     <use x="2060.9375" xlink:href="#DejaVuSans-112"/>
     <use x="2124.414062" xlink:href="#DejaVuSans-115"/>
     <use x="2176.513672" xlink:href="#DejaVuSans-32"/>
     <use x="2208.300781" xlink:href="#DejaVuSans-108"/>
     <use x="2236.083984" xlink:href="#DejaVuSans-111"/>
     <use x="2297.265625" xlink:href="#DejaVuSans-103"/>
     <use x="2360.742188" xlink:href="#DejaVuSans-45"/>
     <use x="2396.826172" xlink:href="#DejaVuSans-114"/>
     <use x="2437.908203" xlink:href="#DejaVuSans-101"/>
     <use x="2499.431641" xlink:href="#DejaVuSans-108"/>
     <use x="2527.214844" xlink:href="#DejaVuSans-97"/>
     <use x="2588.494141" xlink:href="#DejaVuSans-116"/>
     <use x="2627.703125" xlink:href="#DejaVuSans-105"/>
     <use x="2655.486328" xlink:href="#DejaVuSans-118"/>
     <use x="2714.666016" xlink:href="#DejaVuSans-101"/>
     <use x="2776.189453" xlink:href="#DejaVuSans-32"/>
     <use x="2807.976562" xlink:href="#DejaVuSans-116"/>
     <use x="2847.185547" xlink:href="#DejaVuSans-111"/>
     <use x="2908.367188" xlink:href="#DejaVuSans-32"/>
     <use x="2940.154297" xlink:href="#DejaVuSans-96"/>
     <use x="2990.154297" xlink:href="#DejaVuSans-104"/>
     <use x="3053.533203" xlink:href="#DejaVuSans-116"/>
     <use x="3092.742188" xlink:href="#DejaVuSans-109"/>
     <use x="3190.154297" xlink:href="#DejaVuSans-95"/>
     <use x="3240.154297" xlink:href="#DejaVuSans-50"/>
     <use x="3303.777344" xlink:href="#DejaVuSans-95"/>
     <use x="3353.777344" xlink:href="#DejaVuSans-49"/>
     <use x="3417.400391" xlink:href="#DejaVuSans-103"/>
     <use x="3480.876953" xlink:href="#DejaVuSans-96"/>
     <use x="3530.876953" xlink:href="#DejaVuSans-44"/>
     <use x="3562.664062" xlink:href="#DejaVuSans-32"/>
     <use x="3594.451172" xlink:href="#DejaVuSans-77"/>
     <use x="3680.730469" xlink:href="#DejaVuSans-65"/>
     <use x="3749.138672" xlink:href="#DejaVuSans-61"/>
     <use x="3832.927734" xlink:href="#DejaVuSans-50"/>
     <use x="3896.550781" xlink:href="#DejaVuSans-48"/>
    </g>
   </g>
   <g id="legend_1">
    <g id="patch_7">
     <path d="M 771.366125 231.77625 
L 852.438 231.77625 
Q 854.438 231.77625 854.438 229.77625 
L 854.438 200.86375 
Q 854.438 198.86375 852.438 198.86375 
L 771.366125 198.86375 
Q 769.366125 198.86375 769.366125 200.86375 
L 769.366125 229.77625 
Q 769.366125 231.77625 771.366125 231.77625 
z
" style="fill:#ffffff;opacity:0.8;stroke:#cccccc;stroke-linejoin:miter;"/>
    </g>
    <g id="line2d_16">
     <path d="M 773.366125 206.962187 
L 793.366125 206.962187 
" style="fill:none;stroke:#1f77b4;stroke-linecap:square;stroke-width:1.5;"/>
    </g>
    <g id="line2d_17"/>
    <g id="text_15">
     <!-- htm_2_1g -->
     <g transform="translate(801.366125 210.462187)scale(0.1 -0.1)">
      <use xlink:href="#DejaVuSans-104"/>
      <use x="63.378906" xlink:href="#DejaVuSans-116"/>
      <use x="102.587891" xlink:href="#DejaVuSans-109"/>
      <use x="200" xlink:href="#DejaVuSans-95"/>
      <use x="250" xlink:href="#DejaVuSans-50"/>
      <use x="313.623047" xlink:href="#DejaVuSans-95"/>
      <use x="363.623047" xlink:href="#DejaVuSans-49"/>
      <use x="427.246094" xlink:href="#DejaVuSans-103"/>
     </g>
    </g>
    <g id="line2d_18">
     <path d="M 773.366125 221.918437 
L 793.366125 221.918437 
" style="fill:none;stroke:#ff7f0e;stroke-linecap:square;stroke-width:1.5;"/>
    </g>
    <g id="line2d_19"/>
    <g id="text_16">
     <!-- htm_2 -->
     <g transform="translate(801.366125 225.418437)scale(0.1 -0.1)">
      <use xlink:href="#DejaVuSans-104"/>
      <use x="63.378906" xlink:href="#DejaVuSans-116"/>
      <use x="102.587891" xlink:href="#DejaVuSans-109"/>
      <use x="200" xlink:href="#DejaVuSans-95"/>
      <use x="250" xlink:href="#DejaVuSans-50"/>
     </g>
    </g>
   </g>
  </g>
 </g>
 <defs>
  <clipPath id="p8604b77f76">
   <rect height="377.6" width="675.79" x="48.49" y="26.52"/>
  </clipPath>
 </defs>
</svg>
