<?xml version="1.0" encoding="utf-8" standalone="no"?>
<!DOCTYPE svg PUBLIC "-//W3C//DTD SVG 1.1//EN"
  "http://www.w3.org/Graphics/SVG/1.1/DTD/svg11.dtd">
<!-- Created with matplotlib (https://matplotlib.org/) -->
<svg height="432pt" version="1.1" viewBox="0 0 864 432" width="864pt" xmlns="http://www.w3.org/2000/svg" xmlns:xlink="http://www.w3.org/1999/xlink">
 <defs>
  <style type="text/css">
*{stroke-linecap:butt;stroke-linejoin:round;}
  </style>
 </defs>
 <g id="figure_1">
  <g id="patch_1">
   <path d="M 0 432 
L 864 432 
L 864 0 
L 0 0 
z
" style="fill:#ffffff;"/>
  </g>
  <g id="axes_1">
   <g id="patch_2">
    <path d="M 42.1 404.12 
L 724.28 404.12 
L 724.28 26.52 
L 42.1 26.52 
z
" style="fill:#ffffff;"/>
   </g>
   <g id="matplotlib.axis_1">
    <g id="xtick_1">
     <g id="line2d_1">
      <defs>
       <path d="M 0 0 
L 0 3.5 
" id="mbb9b52ea1d" style="stroke:#000000;stroke-width:0.8;"/>
      </defs>
      <g>
       <use style="stroke:#000000;stroke-width:0.8;" x="42.1" xlink:href="#mbb9b52ea1d" y="404.12"/>
      </g>
     </g>
     <g id="text_1">
      <!-- 0 -->
      <defs>
       <path d="M 31.78125 66.40625 
Q 24.171875 66.40625 20.328125 58.90625 
Q 16.5 51.421875 16.5 36.375 
Q 16.5 21.390625 20.328125 13.890625 
Q 24.171875 6.390625 31.78125 6.390625 
Q 39.453125 6.390625 43.28125 13.890625 
Q 47.125 21.390625 47.125 36.375 
Q 47.125 51.421875 43.28125 58.90625 
Q 39.453125 66.40625 31.78125 66.40625 
z
M 31.78125 74.21875 
Q 44.046875 74.21875 50.515625 64.515625 
Q 56.984375 54.828125 56.984375 36.375 
Q 56.984375 17.96875 50.515625 8.265625 
Q 44.046875 -1.421875 31.78125 -1.421875 
Q 19.53125 -1.421875 13.0625 8.265625 
Q 6.59375 17.96875 6.59375 36.375 
Q 6.59375 54.828125 13.0625 64.515625 
Q 19.53125 74.21875 31.78125 74.21875 
z
" id="DejaVuSans-48"/>
      </defs>
      <g transform="translate(38.91875 418.718437)scale(0.1 -0.1)">
       <use xlink:href="#DejaVuSans-48"/>
      </g>
     </g>
    </g>
    <g id="xtick_2">
     <g id="line2d_2">
      <g>
       <use style="stroke:#000000;stroke-width:0.8;" x="127.586216" xlink:href="#mbb9b52ea1d" y="404.12"/>
      </g>
     </g>
     <g id="text_2">
      <!-- 50 -->
      <defs>
       <path d="M 10.796875 72.90625 
L 49.515625 72.90625 
L 49.515625 64.59375 
L 19.828125 64.59375 
L 19.828125 46.734375 
Q 21.96875 47.46875 24.109375 47.828125 
Q 26.265625 48.1875 28.421875 48.1875 
Q 40.625 48.1875 47.75 41.5 
Q 54.890625 34.8125 54.890625 23.390625 
Q 54.890625 11.625 47.5625 5.09375 
Q 40.234375 -1.421875 26.90625 -1.421875 
Q 22.3125 -1.421875 17.546875 -0.640625 
Q 12.796875 0.140625 7.71875 1.703125 
L 7.71875 11.625 
Q 12.109375 9.234375 16.796875 8.0625 
Q 21.484375 6.890625 26.703125 6.890625 
Q 35.15625 6.890625 40.078125 11.328125 
Q 45.015625 15.765625 45.015625 23.390625 
Q 45.015625 31 40.078125 35.4375 
Q 35.15625 39.890625 26.703125 39.890625 
Q 22.75 39.890625 18.8125 39.015625 
Q 14.890625 38.140625 10.796875 36.28125 
z
" id="DejaVuSans-53"/>
      </defs>
      <g transform="translate(121.223716 418.718437)scale(0.1 -0.1)">
       <use xlink:href="#DejaVuSans-53"/>
       <use x="63.623047" xlink:href="#DejaVuSans-48"/>
      </g>
     </g>
    </g>
    <g id="xtick_3">
     <g id="line2d_3">
      <g>
       <use style="stroke:#000000;stroke-width:0.8;" x="213.072431" xlink:href="#mbb9b52ea1d" y="404.12"/>
      </g>
     </g>
     <g id="text_3">
      <!-- 100 -->
      <defs>
       <path d="M 12.40625 8.296875 
L 28.515625 8.296875 
L 28.515625 63.921875 
L 10.984375 60.40625 
L 10.984375 69.390625 
L 28.421875 72.90625 
L 38.28125 72.90625 
L 38.28125 8.296875 
L 54.390625 8.296875 
L 54.390625 0 
L 12.40625 0 
z
" id="DejaVuSans-49"/>
      </defs>
      <g transform="translate(203.528681 418.718437)scale(0.1 -0.1)">
       <use xlink:href="#DejaVuSans-49"/>
       <use x="63.623047" xlink:href="#DejaVuSans-48"/>
       <use x="127.246094" xlink:href="#DejaVuSans-48"/>
      </g>
     </g>
    </g>
    <g id="xtick_4">
     <g id="line2d_4">
      <g>
       <use style="stroke:#000000;stroke-width:0.8;" x="298.558647" xlink:href="#mbb9b52ea1d" y="404.12"/>
      </g>
     </g>
     <g id="text_4">
      <!-- 150 -->
      <g transform="translate(289.014897 418.718437)scale(0.1 -0.1)">
       <use xlink:href="#DejaVuSans-49"/>
       <use x="63.623047" xlink:href="#DejaVuSans-53"/>
       <use x="127.246094" xlink:href="#DejaVuSans-48"/>
      </g>
     </g>
    </g>
    <g id="xtick_5">
     <g id="line2d_5">
      <g>
       <use style="stroke:#000000;stroke-width:0.8;" x="384.044862" xlink:href="#mbb9b52ea1d" y="404.12"/>
      </g>
     </g>
     <g id="text_5">
      <!-- 200 -->
      <defs>
       <path d="M 19.1875 8.296875 
L 53.609375 8.296875 
L 53.609375 0 
L 7.328125 0 
L 7.328125 8.296875 
Q 12.9375 14.109375 22.625 23.890625 
Q 32.328125 33.6875 34.8125 36.53125 
Q 39.546875 41.84375 41.421875 45.53125 
Q 43.3125 49.21875 43.3125 52.78125 
Q 43.3125 58.59375 39.234375 62.25 
Q 35.15625 65.921875 28.609375 65.921875 
Q 23.96875 65.921875 18.8125 64.3125 
Q 13.671875 62.703125 7.8125 59.421875 
L 7.8125 69.390625 
Q 13.765625 71.78125 18.9375 73 
Q 24.125 74.21875 28.421875 74.21875 
Q 39.75 74.21875 46.484375 68.546875 
Q 53.21875 62.890625 53.21875 53.421875 
Q 53.21875 48.921875 51.53125 44.890625 
Q 49.859375 40.875 45.40625 35.40625 
Q 44.1875 33.984375 37.640625 27.21875 
Q 31.109375 20.453125 19.1875 8.296875 
z
" id="DejaVuSans-50"/>
      </defs>
      <g transform="translate(374.501112 418.718437)scale(0.1 -0.1)">
       <use xlink:href="#DejaVuSans-50"/>
       <use x="63.623047" xlink:href="#DejaVuSans-48"/>
       <use x="127.246094" xlink:href="#DejaVuSans-48"/>
      </g>
     </g>
    </g>
    <g id="xtick_6">
     <g id="line2d_6">
      <g>
       <use style="stroke:#000000;stroke-width:0.8;" x="469.531078" xlink:href="#mbb9b52ea1d" y="404.12"/>
      </g>
     </g>
     <g id="text_6">
      <!-- 250 -->
      <g transform="translate(459.987328 418.718437)scale(0.1 -0.1)">
       <use xlink:href="#DejaVuSans-50"/>
       <use x="63.623047" xlink:href="#DejaVuSans-53"/>
       <use x="127.246094" xlink:href="#DejaVuSans-48"/>
      </g>
     </g>
    </g>
    <g id="xtick_7">
     <g id="line2d_7">
      <g>
       <use style="stroke:#000000;stroke-width:0.8;" x="555.017293" xlink:href="#mbb9b52ea1d" y="404.12"/>
      </g>
     </g>
     <g id="text_7">
      <!-- 300 -->
      <defs>
       <path d="M 40.578125 39.3125 
Q 47.65625 37.796875 51.625 33 
Q 55.609375 28.21875 55.609375 21.1875 
Q 55.609375 10.40625 48.1875 4.484375 
Q 40.765625 -1.421875 27.09375 -1.421875 
Q 22.515625 -1.421875 17.65625 -0.515625 
Q 12.796875 0.390625 7.625 2.203125 
L 7.625 11.71875 
Q 11.71875 9.328125 16.59375 8.109375 
Q 21.484375 6.890625 26.8125 6.890625 
Q 36.078125 6.890625 40.9375 10.546875 
Q 45.796875 14.203125 45.796875 21.1875 
Q 45.796875 27.640625 41.28125 31.265625 
Q 36.765625 34.90625 28.71875 34.90625 
L 20.21875 34.90625 
L 20.21875 43.015625 
L 29.109375 43.015625 
Q 36.375 43.015625 40.234375 45.921875 
Q 44.09375 48.828125 44.09375 54.296875 
Q 44.09375 59.90625 40.109375 62.90625 
Q 36.140625 65.921875 28.71875 65.921875 
Q 24.65625 65.921875 20.015625 65.03125 
Q 15.375 64.15625 9.8125 62.3125 
L 9.8125 71.09375 
Q 15.4375 72.65625 20.34375 73.4375 
Q 25.25 74.21875 29.59375 74.21875 
Q 40.828125 74.21875 47.359375 69.109375 
Q 53.90625 64.015625 53.90625 55.328125 
Q 53.90625 49.265625 50.4375 45.09375 
Q 46.96875 40.921875 40.578125 39.3125 
z
" id="DejaVuSans-51"/>
      </defs>
      <g transform="translate(545.473543 418.718437)scale(0.1 -0.1)">
       <use xlink:href="#DejaVuSans-51"/>
       <use x="63.623047" xlink:href="#DejaVuSans-48"/>
       <use x="127.246094" xlink:href="#DejaVuSans-48"/>
      </g>
     </g>
    </g>
    <g id="xtick_8">
     <g id="line2d_8">
      <g>
       <use style="stroke:#000000;stroke-width:0.8;" x="640.503509" xlink:href="#mbb9b52ea1d" y="404.12"/>
      </g>
     </g>
     <g id="text_8">
      <!-- 350 -->
      <g transform="translate(630.959759 418.718437)scale(0.1 -0.1)">
       <use xlink:href="#DejaVuSans-51"/>
       <use x="63.623047" xlink:href="#DejaVuSans-53"/>
       <use x="127.246094" xlink:href="#DejaVuSans-48"/>
      </g>
     </g>
    </g>
   </g>
   <g id="matplotlib.axis_2">
    <g id="ytick_1">
     <g id="line2d_9">
      <defs>
       <path d="M 0 0 
L -3.5 0 
" id="m1c1b800e69" style="stroke:#000000;stroke-width:0.8;"/>
      </defs>
      <g>
       <use style="stroke:#000000;stroke-width:0.8;" x="42.1" xlink:href="#m1c1b800e69" y="392.479662"/>
      </g>
     </g>
     <g id="text_9">
      <!-- −2.5 -->
      <defs>
       <path d="M 10.59375 35.5 
L 73.1875 35.5 
L 73.1875 27.203125 
L 10.59375 27.203125 
z
" id="DejaVuSans-8722"/>
       <path d="M 10.6875 12.40625 
L 21 12.40625 
L 21 0 
L 10.6875 0 
z
" id="DejaVuSans-46"/>
      </defs>
      <g transform="translate(10.817188 396.278881)scale(0.1 -0.1)">
       <use xlink:href="#DejaVuSans-8722"/>
       <use x="83.789062" xlink:href="#DejaVuSans-50"/>
       <use x="147.412109" xlink:href="#DejaVuSans-46"/>
       <use x="179.199219" xlink:href="#DejaVuSans-53"/>
      </g>
     </g>
    </g>
    <g id="ytick_2">
     <g id="line2d_10">
      <g>
       <use style="stroke:#000000;stroke-width:0.8;" x="42.1" xlink:href="#m1c1b800e69" y="345.481413"/>
      </g>
     </g>
     <g id="text_10">
      <!-- −2.0 -->
      <g transform="translate(10.817188 349.280632)scale(0.1 -0.1)">
       <use xlink:href="#DejaVuSans-8722"/>
       <use x="83.789062" xlink:href="#DejaVuSans-50"/>
       <use x="147.412109" xlink:href="#DejaVuSans-46"/>
       <use x="179.199219" xlink:href="#DejaVuSans-48"/>
      </g>
     </g>
    </g>
    <g id="ytick_3">
     <g id="line2d_11">
      <g>
       <use style="stroke:#000000;stroke-width:0.8;" x="42.1" xlink:href="#m1c1b800e69" y="298.483164"/>
      </g>
     </g>
     <g id="text_11">
      <!-- −1.5 -->
      <g transform="translate(10.817188 302.282383)scale(0.1 -0.1)">
       <use xlink:href="#DejaVuSans-8722"/>
       <use x="83.789062" xlink:href="#DejaVuSans-49"/>
       <use x="147.412109" xlink:href="#DejaVuSans-46"/>
       <use x="179.199219" xlink:href="#DejaVuSans-53"/>
      </g>
     </g>
    </g>
    <g id="ytick_4">
     <g id="line2d_12">
      <g>
       <use style="stroke:#000000;stroke-width:0.8;" x="42.1" xlink:href="#m1c1b800e69" y="251.484916"/>
      </g>
     </g>
     <g id="text_12">
      <!-- −1.0 -->
      <g transform="translate(10.817188 255.284134)scale(0.1 -0.1)">
       <use xlink:href="#DejaVuSans-8722"/>
       <use x="83.789062" xlink:href="#DejaVuSans-49"/>
       <use x="147.412109" xlink:href="#DejaVuSans-46"/>
       <use x="179.199219" xlink:href="#DejaVuSans-48"/>
      </g>
     </g>
    </g>
    <g id="ytick_5">
     <g id="line2d_13">
      <g>
       <use style="stroke:#000000;stroke-width:0.8;" x="42.1" xlink:href="#m1c1b800e69" y="204.486667"/>
      </g>
     </g>
     <g id="text_13">
      <!-- −0.5 -->
      <g transform="translate(10.817188 208.285885)scale(0.1 -0.1)">
       <use xlink:href="#DejaVuSans-8722"/>
       <use x="83.789062" xlink:href="#DejaVuSans-48"/>
       <use x="147.412109" xlink:href="#DejaVuSans-46"/>
       <use x="179.199219" xlink:href="#DejaVuSans-53"/>
      </g>
     </g>
    </g>
    <g id="ytick_6">
     <g id="line2d_14">
      <g>
       <use style="stroke:#000000;stroke-width:0.8;" x="42.1" xlink:href="#m1c1b800e69" y="157.488418"/>
      </g>
     </g>
     <g id="text_14">
      <!-- 0.0 -->
      <g transform="translate(19.196875 161.287637)scale(0.1 -0.1)">
       <use xlink:href="#DejaVuSans-48"/>
       <use x="63.623047" xlink:href="#DejaVuSans-46"/>
       <use x="95.410156" xlink:href="#DejaVuSans-48"/>
      </g>
     </g>
    </g>
    <g id="ytick_7">
     <g id="line2d_15">
      <g>
       <use style="stroke:#000000;stroke-width:0.8;" x="42.1" xlink:href="#m1c1b800e69" y="110.490169"/>
      </g>
     </g>
     <g id="text_15">
      <!-- 0.5 -->
      <g transform="translate(19.196875 114.289388)scale(0.1 -0.1)">
       <use xlink:href="#DejaVuSans-48"/>
       <use x="63.623047" xlink:href="#DejaVuSans-46"/>
       <use x="95.410156" xlink:href="#DejaVuSans-53"/>
      </g>
     </g>
    </g>
    <g id="ytick_8">
     <g id="line2d_16">
      <g>
       <use style="stroke:#000000;stroke-width:0.8;" x="42.1" xlink:href="#m1c1b800e69" y="63.49192"/>
      </g>
     </g>
     <g id="text_16">
      <!-- 1.0 -->
      <g transform="translate(19.196875 67.291139)scale(0.1 -0.1)">
       <use xlink:href="#DejaVuSans-49"/>
       <use x="63.623047" xlink:href="#DejaVuSans-46"/>
       <use x="95.410156" xlink:href="#DejaVuSans-48"/>
      </g>
     </g>
    </g>
   </g>
   <g id="line2d_17">
    <path clip-path="url(#p6c9e6a9962)" d="M 74.584762 157.488418 
L 724.28 157.488418 
L 724.28 157.488418 
" style="fill:none;stroke:#1f77b4;stroke-linecap:square;stroke-width:1.5;"/>
   </g>
   <g id="line2d_18">
    <path clip-path="url(#p6c9e6a9962)" d="M 74.584762 170.635578 
L 76.294486 176.438661 
L 78.004211 194.19691 
L 79.713935 204.042788 
L 81.423659 205.394843 
L 88.262556 245.954625 
L 89.972281 257.680486 
L 91.682005 274.389999 
L 93.391729 281.190265 
L 95.101454 289.057661 
L 96.811178 300.374584 
L 98.520902 313.220935 
L 100.230627 307.562473 
L 101.940351 308.50559 
L 103.650075 305.55124 
L 105.359799 299.834395 
L 107.069524 300.182689 
L 108.779248 297.581875 
L 110.488972 303.649275 
L 112.198697 304.276849 
L 113.908421 303.043783 
L 115.618145 308.583255 
L 117.32787 309.210829 
L 119.037594 307.858774 
L 120.747318 310.259565 
L 122.457043 307.749471 
L 124.166767 307.749471 
L 125.876491 307.279096 
L 129.29594 315.111807 
L 131.005664 314.347996 
L 132.715388 314.347996 
L 134.425113 316.507718 
L 136.134837 320.550513 
L 139.554286 335.678666 
L 141.26401 338.011832 
L 142.973734 329.790899 
L 144.683459 329.295723 
L 146.393183 324.013449 
L 148.102907 322.661393 
L 149.812632 327.943668 
L 151.522356 327.179857 
L 153.23208 328.531913 
L 154.941805 320.340262 
L 156.651529 321.333378 
L 158.361253 316.723652 
L 160.070977 314.154993 
L 161.780702 310.133512 
L 163.490426 313.886358 
L 165.20015 314.154993 
L 166.909875 314.154993 
L 168.619599 317.653733 
L 170.329323 311.486686 
L 172.039048 306.204412 
L 173.748772 306.204412 
L 175.458496 306.596291 
L 177.168221 317.418037 
L 178.877945 308.140202 
L 180.587669 305.230826 
L 182.297393 309.345376 
L 184.007118 308.8502 
L 185.716842 302.603494 
L 187.426566 301.405545 
L 190.846015 307.69158 
L 192.555739 309.272941 
L 194.265464 309.681879 
L 195.975188 309.396954 
L 197.684912 308.49284 
L 199.394637 309.844895 
L 201.104361 309.844895 
L 202.814085 300.071884 
L 204.52381 298.490524 
L 206.233534 296.208722 
L 207.943258 289.198205 
L 209.652982 285.748679 
L 211.362707 280.814698 
L 213.072431 279.765963 
L 214.782155 273.38302 
L 216.49188 254.140318 
L 218.201604 232.992 
L 219.911328 218.359024 
L 221.621053 201.171149 
L 223.330777 191.784643 
L 225.040501 180.962896 
L 226.750226 166.158998 
L 228.45995 154.480372 
L 230.169674 146.453644 
L 231.879398 136.536012 
L 233.589123 127.748651 
L 235.298847 115.878168 
L 237.008571 108.314092 
L 238.718296 107.024287 
L 240.42802 94.850485 
L 242.137744 91.039255 
L 243.847469 71.796552 
L 245.557193 65.908786 
L 247.266917 64.86005 
L 248.976642 59.696765 
L 250.686366 66.012083 
L 252.39609 74.433038 
L 254.105815 84.88838 
L 255.815539 85.937115 
L 257.525263 85.129449 
L 259.234987 85.129449 
L 260.944712 84.575889 
L 262.654436 86.481504 
L 264.36416 75.819089 
L 266.073885 69.303748 
L 267.783609 60.754022 
L 269.493333 54.792241 
L 271.203058 58.049911 
L 272.912782 55.481252 
L 274.622506 53.575637 
L 276.332231 53.575637 
L 278.041955 58.738922 
L 279.751679 53.456647 
L 281.461404 43.683636 
L 283.171128 52.599768 
L 284.880852 51.179101 
L 286.590576 51.732661 
L 288.300301 46.816792 
L 290.010025 52.836956 
L 291.719749 56.379552 
L 293.429474 65.054614 
L 295.139198 62.845679 
L 296.848922 55.281603 
L 298.558647 59.891329 
L 300.268371 60.748208 
L 301.978095 65.054614 
L 303.68782 57.985714 
L 305.397544 61.002314 
L 307.107268 60.554373 
L 308.816992 71.37612 
L 310.526717 69.470505 
L 312.236441 76.481022 
L 313.946165 89.915618 
L 315.65589 93.726848 
L 317.365614 89.420442 
L 320.785063 79.857681 
L 322.494787 89.749682 
L 324.204511 96.560176 
L 325.914236 96.957581 
L 327.62396 86.376903 
L 329.333684 94.2443 
L 331.043409 101.254816 
L 332.753133 106.913278 
L 334.462857 121.487871 
L 336.172581 134.249918 
L 337.882306 157.004397 
L 339.59203 163.760807 
L 341.301754 171.000629 
L 343.011479 179.916761 
L 344.721203 190.738507 
L 346.430927 191.787243 
L 348.140652 191.039667 
L 349.850376 203.213469 
L 351.5601 210.368607 
L 353.269825 228.200871 
L 354.979549 243.632343 
L 356.689273 244.440009 
L 358.398997 240.525482 
L 360.108722 245.501613 
L 361.818446 254.298756 
L 363.52817 260.814097 
L 365.237895 272.868909 
L 366.947619 283.690656 
L 370.367068 261.458918 
L 372.076792 261.699987 
L 375.496241 242.781539 
L 377.205965 230.607737 
L 378.915689 223.59722 
L 380.625414 226.359715 
L 382.335138 227.871102 
L 384.044862 227.871102 
L 385.754586 230.185655 
L 387.464311 231.042534 
L 389.174035 230.923545 
L 390.883759 232.021494 
L 392.593484 236.689603 
L 394.303208 240.091895 
L 396.012932 246.231049 
L 397.722657 253.676136 
L 399.432381 248.690224 
L 401.142105 251.04378 
L 404.561554 269.163732 
L 406.271278 274.327018 
L 407.981003 282.747973 
L 409.690727 301.990676 
L 411.400451 315.574917 
L 413.110175 315.574917 
L 414.8199 323.995873 
L 418.239348 334.322443 
L 419.949073 343.238575 
L 421.658797 346.640867 
L 423.368521 351.923142 
L 425.078246 348.665471 
L 426.78797 352.418318 
L 428.497694 347.66397 
L 430.207419 339.796574 
L 431.917143 336.538904 
L 433.626867 348.712706 
L 435.336591 351.027259 
L 437.046316 349.846125 
L 438.75604 358.037776 
L 440.465764 357.133662 
L 442.175489 366.049793 
L 443.885213 361.743387 
L 445.594937 359.837772 
L 447.304662 362.238563 
L 449.014386 358.980893 
L 450.72411 344.901476 
L 452.433835 327.010829 
L 454.143559 316.189082 
L 455.853283 316.59802 
L 457.563008 305.776274 
L 459.272732 307.681889 
L 460.982456 308.12983 
L 462.69218 318.951577 
L 464.401905 313.788291 
L 466.111629 319.070566 
L 467.821353 306.896764 
L 469.531078 307.39194 
L 471.240802 303.409788 
L 472.950526 292.588041 
L 474.660251 292.588041 
L 476.369975 288.566561 
L 478.079699 289.615296 
L 479.789424 283.099955 
L 481.499148 280.699164 
L 483.208872 287.709681 
L 484.918596 297.482692 
L 486.628321 316.917251 
L 488.338045 301.485778 
L 490.047769 297.046974 
L 491.757494 298.09571 
L 493.467218 306.107727 
L 495.176942 308.917457 
L 496.886667 308.917457 
L 498.596391 315.986357 
L 500.306115 308.422281 
L 502.01584 320.596083 
L 503.725564 311.679951 
L 505.435288 316.843236 
L 507.145013 326.312928 
L 508.854737 315.04324 
L 510.564461 306.890919 
L 512.274185 302.584513 
L 515.693634 302.584513 
L 517.403358 291.762766 
L 519.113083 296.069172 
L 520.822807 290.71403 
L 522.532531 309.956733 
L 524.242256 311.633043 
L 525.95198 316.796328 
L 527.661704 317.700442 
L 529.371429 311.633043 
L 531.081153 300.811296 
L 532.790877 297.000066 
L 536.210326 297.000066 
L 537.92005 305.916198 
L 539.629774 307.992734 
L 541.339499 308.440675 
L 543.049223 320.614477 
L 544.758947 314.687382 
L 546.468672 317.317478 
L 548.178396 315.411863 
L 549.88812 327.585665 
L 551.597845 338.288422 
L 553.307569 326.11462 
L 555.017293 328.468176 
L 556.727018 309.225474 
L 558.436742 307.128003 
L 560.146466 307.064917 
L 561.85619 292.9855 
L 563.565915 291.718128 
L 565.275639 297.329355 
L 566.985363 291.670893 
L 568.695088 284.106817 
L 570.404812 262.463324 
L 572.114536 258.156918 
L 573.824261 248.892491 
L 575.533985 238.479683 
L 577.243709 229.239297 
L 578.953434 241.985053 
L 580.663158 238.002902 
L 582.372882 242.117451 
L 585.792331 222.682893 
L 587.502055 230.431299 
L 589.211779 231.335414 
L 590.921504 252.233491 
L 592.631228 253.282227 
L 594.340952 249.038907 
L 596.050677 257.613969 
L 597.760401 257.384664 
L 599.470125 253.982372 
L 601.17985 260.873899 
L 602.889574 269.486711 
L 604.599298 286.823799 
L 606.309023 286.823799 
L 608.018747 294.506864 
L 609.728471 301.517381 
L 611.438195 300.383962 
L 613.14792 289.258895 
L 614.857644 293.868621 
L 616.567368 291.963006 
L 618.277093 292.3113 
L 619.986817 291.454421 
L 621.696541 285.914949 
L 623.406266 276.998817 
L 625.11599 276.022949 
L 626.825714 266.249937 
L 628.535439 269.348276 
L 630.245163 258.372423 
L 631.954887 261.630094 
L 633.664612 261.326774 
L 635.374336 262.302643 
L 637.08406 263.884003 
L 638.793784 257.368662 
L 640.503509 254.558933 
L 642.213233 251.485593 
L 643.922957 251.485593 
L 645.632682 257.552993 
L 647.342406 269.726795 
L 649.05213 267.702191 
L 650.761855 272.008597 
L 652.471579 268.750926 
L 654.181303 274.217531 
L 655.891028 270.102982 
L 657.600752 274.997633 
L 659.310476 274.813302 
L 661.020201 284.586313 
L 662.729925 281.487974 
L 664.439649 287.146436 
L 666.149373 282.84003 
L 667.859098 283.696909 
L 669.568822 283.069335 
L 671.278546 281.096095 
L 672.988271 279.419785 
L 674.697995 280.382283 
L 676.407719 285.664558 
L 678.117444 285.664558 
L 679.827168 281.054832 
L 681.536892 277.556092 
L 683.246617 278.228641 
L 684.956341 275.418912 
L 686.666065 283.115387 
L 688.375789 282.316891 
L 690.085514 285.574561 
L 691.795238 287.571438 
L 693.504962 288.876258 
L 695.214687 288.112448 
L 696.924411 292.722174 
L 698.634135 299.237514 
L 700.34386 296.533404 
L 702.053584 300.28625 
L 703.763308 305.22023 
L 705.473033 307.821044 
L 707.182757 313.98809 
L 708.892481 315.835321 
L 710.602206 312.336582 
L 712.31193 312.217592 
L 714.021654 314.017589 
L 715.731378 317.021153 
L 717.441103 315.972417 
L 719.150827 309.866015 
L 720.860551 304.293791 
L 722.570276 293.96722 
L 724.28 300.482561 
L 724.28 300.482561 
" style="fill:none;stroke:#ff7f0e;stroke-linecap:square;stroke-width:1.5;"/>
   </g>
   <g id="line2d_19">
    <path clip-path="url(#p6c9e6a9962)" d="M 74.584762 205.643349 
L 76.294486 203.59743 
L 78.004211 205.779585 
L 79.713935 203.451661 
L 81.423659 205.298893 
L 83.133383 205.11926 
L 84.843108 207.881754 
L 86.552832 202.038962 
L 88.262556 203.500321 
L 89.972281 209.943907 
L 91.682005 222.84219 
L 93.391729 223.259514 
L 95.101454 209.483416 
L 96.811178 216.145639 
L 98.520902 214.104906 
L 100.230627 208.269072 
L 101.940351 200.296057 
L 103.650075 189.645232 
L 105.359799 182.623567 
L 107.069524 186.229532 
L 108.779248 176.884072 
L 110.488972 180.12794 
L 112.198697 184.461125 
L 113.908421 182.973953 
L 115.618145 175.290887 
L 117.32787 179.176132 
L 119.037594 173.33334 
L 120.747318 178.015932 
L 122.457043 176.325269 
L 124.166767 174.419654 
L 125.876491 166.938762 
L 127.586216 168.427054 
L 129.29594 179.80236 
L 131.005664 177.857416 
L 134.425113 190.102639 
L 137.844561 204.2427 
L 139.554286 211.806776 
L 141.26401 211.100908 
L 142.973734 206.862126 
L 144.683459 213.360652 
L 146.393183 212.384783 
L 148.102907 217.802175 
L 149.812632 218.474724 
L 151.522356 209.289958 
L 153.23208 205.854915 
L 154.941805 196.614528 
L 156.651529 196.98007 
L 158.361253 184.806268 
L 160.070977 186.259089 
L 161.780702 179.388876 
L 163.490426 176.929701 
L 165.20015 177.751896 
L 166.909875 180.152687 
L 168.619599 184.060365 
L 170.329323 184.637964 
L 172.039048 179.35569 
L 173.748772 189.273322 
L 175.458496 190.943242 
L 177.168221 196.601703 
L 178.877945 188.905229 
L 180.587669 177.383041 
L 182.297393 183.403206 
L 184.007118 182.90803 
L 185.716842 183.500919 
L 187.426566 185.306534 
L 189.136291 189.61294 
L 190.846015 193.050243 
L 192.555739 197.889274 
L 194.265464 204.049743 
L 195.975188 210.728099 
L 197.684912 216.66358 
L 199.394637 215.733834 
L 201.104361 206.817702 
L 202.814085 192.653601 
L 204.52381 188.863306 
L 206.233534 192.648904 
L 207.943258 177.62637 
L 209.652982 176.880954 
L 211.362707 179.872753 
L 213.072431 180.776868 
L 214.782155 193.828484 
L 216.49188 190.570813 
L 218.201604 181.292978 
L 219.911328 169.917672 
L 221.621053 174.132222 
L 223.330777 170.604199 
L 225.040501 181.873887 
L 226.750226 187.361427 
L 228.45995 185.647668 
L 230.169674 185.680193 
L 231.879398 186.584307 
L 233.589123 194.158165 
L 235.298847 205.283231 
L 238.718296 236.991291 
L 240.42802 230.475951 
L 242.137744 246.85054 
L 243.847469 233.819859 
L 245.557193 243.060245 
L 247.266917 241.473801 
L 248.976642 239.568186 
L 250.686366 237.086361 
L 252.39609 244.458581 
L 254.105815 262.477999 
L 255.815539 259.220328 
L 257.525263 257.836453 
L 259.234987 249.824435 
L 260.944712 246.013205 
L 262.654436 245.518029 
L 264.36416 241.924514 
L 266.073885 239.391325 
L 267.783609 222.829581 
L 269.493333 204.935068 
L 272.912782 199.736312 
L 274.622506 198.602892 
L 276.332231 189.686761 
L 278.041955 203.271002 
L 281.461404 184.306715 
L 283.171128 180.495485 
L 284.880852 175.817147 
L 286.590576 190.450124 
L 288.300301 180.600275 
L 290.010025 180.105099 
L 291.719749 195.702507 
L 293.429474 195.909379 
L 295.139198 192.651709 
L 296.848922 192.651709 
L 298.558647 187.791743 
L 300.268371 179.97356 
L 301.978095 183.679172 
L 303.68782 190.448619 
L 305.397544 185.273569 
L 307.107268 163.506389 
L 308.816992 186.731243 
L 310.526717 184.825628 
L 312.236441 184.272068 
L 313.946165 189.839268 
L 315.65589 197.820668 
L 317.365614 201.078338 
L 319.075338 203.932094 
L 320.785063 192.195084 
L 322.494787 203.9927 
L 324.204511 198.629392 
L 325.914236 191.46272 
L 327.62396 186.540504 
L 331.043409 182.729274 
L 334.462857 195.407423 
L 336.172581 204.05492 
L 337.882306 204.862586 
L 339.59203 209.713381 
L 341.301754 217.301498 
L 343.011479 217.301498 
L 344.721203 222.016842 
L 346.430927 211.940511 
L 348.140652 208.562839 
L 349.850376 217.708276 
L 351.5601 221.110567 
L 353.269825 234.333105 
L 354.979549 234.886665 
L 356.689273 233.788716 
L 358.398997 242.047991 
L 360.108722 241.365661 
L 361.818446 239.836233 
L 366.947619 274.391418 
L 368.657343 273.342683 
L 370.367068 269.001592 
L 372.076792 276.385576 
L 373.786516 259.602048 
L 375.496241 250.456611 
L 377.205965 231.767468 
L 378.915689 227.605684 
L 380.625414 231.920256 
L 382.335138 239.31941 
L 384.044862 229.401777 
L 385.754586 224.64743 
L 387.464311 210.283088 
L 389.174035 212.143728 
L 390.883759 203.468666 
L 392.593484 202.97349 
L 394.303208 195.192331 
L 396.012932 201.331485 
L 397.722657 192.134684 
L 399.432381 176.097719 
L 401.142105 168.124705 
L 402.85183 163.923917 
L 404.561554 162.018302 
L 406.271278 166.000454 
L 407.981003 169.258124 
L 409.690727 193.486739 
L 411.400451 203.25975 
L 413.110175 194.838794 
L 414.8199 209.575068 
L 416.529624 209.575068 
L 418.239348 208.670954 
L 419.949073 216.23503 
L 421.658797 229.695258 
L 423.368521 237.607629 
L 425.078246 237.607629 
L 426.78797 231.996403 
L 428.497694 237.568626 
L 430.207419 227.624694 
L 431.917143 235.845627 
L 433.626867 253.907195 
L 435.336591 253.373016 
L 437.046316 260.2039 
L 438.75604 264.813626 
L 440.465764 263.909512 
L 442.175489 286.90506 
L 443.885213 282.598654 
L 445.594937 279.968558 
L 447.304662 290.790305 
L 449.014386 280.463734 
L 450.72411 254.152131 
L 452.433835 253.598572 
L 454.143559 236.564804 
L 455.853283 229.904842 
L 457.563008 218.03436 
L 459.272732 216.682304 
L 460.982456 228.399933 
L 462.69218 228.170628 
L 464.401905 220.282297 
L 466.111629 219.676805 
L 467.821353 207.503003 
L 469.531078 214.104582 
L 471.240802 201.325288 
L 472.950526 199.973232 
L 474.660251 201.878847 
L 476.369975 189.060224 
L 478.079699 192.014575 
L 479.789424 177.307583 
L 481.499148 171.649122 
L 483.208872 181.422133 
L 484.918596 203.42733 
L 486.628321 215.297812 
L 488.338045 215.403431 
L 490.047769 212.870242 
L 491.757494 207.403636 
L 493.467218 207.851578 
L 495.176942 210.661307 
L 496.886667 221.712359 
L 498.596391 240.651742 
L 500.306115 238.975432 
L 502.01584 245.985948 
L 503.725564 237.069817 
L 505.435288 244.514904 
L 507.145013 253.984595 
L 508.854737 230.3118 
L 510.564461 216.996193 
L 512.274185 212.689787 
L 513.98391 220.253864 
L 515.693634 223.511534 
L 517.403358 215.090578 
L 519.113083 219.396984 
L 520.822807 208.575238 
L 522.532531 221.750541 
L 524.242256 228.590136 
L 525.95198 241.317497 
L 527.661704 247.880073 
L 529.371429 238.555003 
L 531.081153 225.827641 
L 532.790877 208.98573 
L 534.500602 208.98573 
L 536.210326 202.094202 
L 537.92005 207.752664 
L 539.629774 214.438926 
L 541.339499 212.981252 
L 543.049223 237.558162 
L 544.758947 257.765296 
L 548.178396 244.589993 
L 549.88812 249.694894 
L 551.597845 262.303267 
L 553.307569 241.708509 
L 555.017293 256.235867 
L 556.727018 239.393956 
L 558.436742 232.133199 
L 560.146466 226.318583 
L 561.85619 221.708857 
L 563.565915 219.584606 
L 565.275639 219.729228 
L 566.985363 217.694842 
L 568.695088 202.382359 
L 570.404812 198.45214 
L 572.114536 191.38324 
L 573.824261 193.79744 
L 575.533985 175.517235 
L 577.243709 162.571237 
L 578.953434 157.123027 
L 580.663158 158.580701 
L 582.372882 168.213408 
L 584.082607 158.129551 
L 585.792331 142.009402 
L 587.502055 151.215483 
L 589.211779 152.119597 
L 590.921504 160.962862 
L 592.631228 164.412388 
L 594.340952 170.227004 
L 596.050677 168.74413 
L 597.760401 172.629375 
L 599.470125 175.742424 
L 601.17985 194.441348 
L 602.889574 211.851302 
L 604.599298 220.272258 
L 606.309023 224.940367 
L 608.018747 213.077411 
L 609.728471 222.688741 
L 611.438195 216.685871 
L 613.14792 201.807958 
L 614.857644 208.541935 
L 616.567368 207.548819 
L 618.277093 216.509926 
L 619.986817 213.830616 
L 621.696541 211.996756 
L 623.406266 194.928303 
L 625.11599 198.139851 
L 626.825714 182.554272 
L 630.245163 167.397607 
L 635.374336 149.151707 
L 637.08406 148.827453 
L 638.793784 145.569783 
L 640.503509 138.845526 
L 642.213233 143.336263 
L 643.922957 145.345175 
L 645.632682 161.036372 
L 647.342406 182.983185 
L 649.05213 177.700911 
L 650.761855 177.073337 
L 652.471579 170.557996 
L 654.181303 174.348291 
L 655.891028 173.491412 
L 657.600752 181.928658 
L 659.310476 182.720196 
L 661.020201 196.95372 
L 662.729925 200.370722 
L 664.439649 213.896579 
L 666.149373 209.094997 
L 667.859098 214.885857 
L 669.568822 220.146049 
L 671.278546 215.324077 
L 672.988271 216.048559 
L 674.697995 218.163089 
L 676.407719 226.703034 
L 678.117444 224.694122 
L 679.827168 214.921111 
L 681.536892 210.565492 
L 683.246617 213.314577 
L 684.956341 214.003588 
L 686.666065 215.0401 
L 688.375789 221.805681 
L 690.085514 224.206472 
L 691.795238 230.813074 
L 693.504962 226.83562 
L 695.214687 230.186359 
L 696.924411 229.957054 
L 698.634135 231.862669 
L 700.34386 236.169075 
L 702.053584 239.921921 
L 703.763308 238.968135 
L 705.473033 237.012936 
L 707.182757 232.358235 
L 708.892481 237.463137 
L 710.602206 235.316453 
L 712.31193 234.805584 
L 714.021654 236.605581 
L 715.731378 241.51476 
L 717.441103 244.277254 
L 719.150827 239.281838 
L 720.860551 241.721631 
L 722.570276 229.898384 
L 724.28 229.344824 
L 724.28 229.344824 
" style="fill:none;stroke:#2ca02c;stroke-linecap:square;stroke-width:1.5;"/>
   </g>
   <g id="line2d_20">
    <path clip-path="url(#p6c9e6a9962)" d="M 74.584762 256.272065 
L 76.294486 255.863126 
L 78.004211 258.045281 
L 79.713935 253.435556 
L 81.423659 254.787611 
L 83.133383 254.160037 
L 84.843108 249.174124 
L 86.552832 244.912693 
L 88.262556 245.841427 
L 89.972281 243.487871 
L 91.682005 250.872314 
L 93.391729 247.707712 
L 95.101454 243.401306 
L 96.811178 243.896482 
L 98.520902 245.572792 
L 100.230627 244.220737 
L 101.940351 238.848536 
L 103.650075 236.447745 
L 105.359799 229.149539 
L 107.069524 227.592219 
L 108.779248 224.991405 
L 110.488972 234.316475 
L 112.198697 242.956067 
L 113.908421 245.356858 
L 115.618145 239.350102 
L 117.32787 233.765655 
L 119.037594 232.989809 
L 120.747318 240.930072 
L 122.457043 241.050074 
L 124.166767 247.156477 
L 125.876491 246.132542 
L 127.586216 249.297144 
L 129.29594 256.366044 
L 131.005664 253.925924 
L 132.715388 259.813691 
L 134.425113 261.248931 
L 136.134837 267.624893 
L 139.554286 287.592076 
L 141.26401 288.982126 
L 142.973734 279.409137 
L 144.683459 279.770841 
L 146.393183 266.267633 
L 148.102907 264.191096 
L 149.812632 268.292237 
L 151.522356 269.929218 
L 153.23208 275.1958 
L 154.941805 258.992132 
L 156.651529 256.727577 
L 158.361253 254.023467 
L 160.070977 246.468895 
L 161.780702 244.353029 
L 163.490426 238.332864 
L 165.20015 236.107639 
L 166.909875 236.107639 
L 168.619599 236.697003 
L 170.329323 231.663376 
L 172.039048 220.914496 
L 173.748772 217.656826 
L 175.458496 218.496646 
L 177.168221 232.576063 
L 178.877945 220.535733 
L 180.587669 224.798555 
L 182.297393 223.749819 
L 184.007118 226.017138 
L 185.716842 219.275255 
L 187.426566 217.220427 
L 189.136291 225.232445 
L 190.846015 231.51848 
L 192.555739 230.469745 
L 194.265464 230.878683 
L 195.975188 226.782528 
L 197.684912 235.651425 
L 199.394637 241.898131 
L 201.104361 235.68611 
L 202.814085 231.452571 
L 204.52381 230.814327 
L 206.233534 232.41777 
L 207.943258 228.664924 
L 209.652982 228.473068 
L 211.362707 221.633472 
L 213.072431 231.406484 
L 214.782155 240.151694 
L 216.49188 242.78179 
L 218.201604 236.761625 
L 219.911328 240.514471 
L 221.621053 242.5693 
L 223.330777 250.519881 
L 225.040501 253.777551 
L 226.750226 255.683166 
L 228.45995 266.8811 
L 230.169674 276.745019 
L 231.879398 280.906804 
L 233.589123 288.104475 
L 235.298847 296.52543 
L 237.008571 303.040771 
L 238.718296 319.641613 
L 240.42802 324.177324 
L 242.137744 334.445511 
L 243.847469 330.330962 
L 245.557193 340.428227 
L 247.266917 346.448392 
L 248.976642 341.285106 
L 250.686366 347.600425 
L 252.39609 356.02138 
L 254.105815 366.476721 
L 255.815539 367.525457 
L 257.525263 366.717791 
L 259.234987 366.717791 
L 260.944712 366.164231 
L 262.654436 368.069846 
L 264.36416 357.407431 
L 266.073885 350.89209 
L 267.783609 342.342364 
L 269.493333 336.380583 
L 271.203058 339.638253 
L 272.912782 337.069594 
L 274.622506 335.163979 
L 276.332231 335.163979 
L 278.041955 340.327264 
L 279.751679 335.044989 
L 281.461404 325.271978 
L 283.171128 334.18811 
L 284.880852 332.767443 
L 286.590576 333.321002 
L 288.300301 328.405133 
L 290.010025 334.425298 
L 291.719749 337.967894 
L 293.429474 337.726824 
L 295.139198 335.517889 
L 296.848922 327.953813 
L 298.558647 332.563539 
L 300.268371 333.420418 
L 301.978095 337.726824 
L 303.68782 330.657924 
L 305.397544 333.674525 
L 307.107268 324.310452 
L 308.816992 335.132198 
L 310.526717 324.310452 
L 312.236441 322.404837 
L 313.946165 326.923301 
L 315.65589 330.734531 
L 317.365614 326.428125 
L 320.785063 316.865365 
L 322.494787 317.841233 
L 324.204511 315.735596 
L 325.914236 316.133 
L 327.62396 305.552323 
L 329.333684 304.503588 
L 331.043409 302.597973 
L 332.753133 299.340302 
L 334.462857 304.998764 
L 336.172581 308.844679 
L 337.882306 322.683026 
L 339.59203 320.523305 
L 341.301754 327.763127 
L 343.011479 327.763127 
L 344.721203 338.584874 
L 346.430927 339.633609 
L 348.140652 338.886033 
L 349.850376 342.143703 
L 351.5601 340.38271 
L 353.269825 349.298841 
L 354.979549 355.814182 
L 356.689273 356.621848 
L 360.108722 348.767321 
L 361.818446 357.564463 
L 363.52817 364.079804 
L 365.237895 376.134617 
L 366.947619 386.956364 
L 370.367068 364.724625 
L 372.076792 364.965695 
L 375.496241 346.047247 
L 377.205965 333.873445 
L 378.915689 326.862928 
L 380.625414 329.625422 
L 382.335138 331.136809 
L 384.044862 316.503832 
L 385.754586 313.6551 
L 387.464311 309.348694 
L 389.174035 304.06642 
L 390.883759 300.001083 
L 392.593484 299.505907 
L 394.303208 297.744914 
L 396.012932 298.720782 
L 397.722657 301.002584 
L 399.432381 290.853386 
L 401.142105 288.043657 
L 404.561554 295.837038 
L 406.271278 295.837038 
L 407.981003 299.094709 
L 409.690727 313.174126 
L 411.400451 321.595082 
L 413.110175 316.431796 
L 414.8199 319.689467 
L 416.529624 319.689467 
L 418.239348 334.322443 
L 419.949073 343.238575 
L 421.658797 346.640867 
L 423.368521 351.923142 
L 425.078246 348.665471 
L 426.78797 352.418318 
L 428.497694 347.66397 
L 430.207419 339.796574 
L 431.917143 336.538904 
L 433.626867 348.712706 
L 435.336591 351.027259 
L 437.046316 349.846125 
L 438.75604 358.037776 
L 440.465764 357.133662 
L 442.175489 366.049793 
L 443.885213 361.743387 
L 445.594937 359.837772 
L 447.304662 362.238563 
L 449.014386 358.980893 
L 450.72411 344.901476 
L 452.433835 341.090246 
L 454.143559 330.268499 
L 455.853283 330.677437 
L 457.563008 319.855691 
L 459.272732 321.761306 
L 460.982456 322.209247 
L 462.69218 333.030994 
L 464.401905 327.867708 
L 466.111629 333.149983 
L 467.821353 320.976181 
L 469.531078 321.471357 
L 471.240802 317.489205 
L 472.950526 306.667459 
L 474.660251 306.667459 
L 476.369975 302.645978 
L 478.079699 303.694713 
L 479.789424 297.179373 
L 481.499148 294.778582 
L 483.208872 301.789098 
L 484.918596 311.562109 
L 486.628321 316.917251 
L 488.338045 315.565196 
L 490.047769 311.126391 
L 491.757494 312.175127 
L 493.467218 320.187145 
L 495.176942 322.996874 
L 496.886667 322.996874 
L 498.596391 330.065774 
L 500.306115 322.501698 
L 502.01584 334.6755 
L 503.725564 325.759368 
L 505.435288 330.922654 
L 507.145013 340.392345 
L 508.854737 329.122657 
L 510.564461 320.970336 
L 512.274185 316.66393 
L 515.693634 316.66393 
L 517.403358 305.842183 
L 519.113083 310.148589 
L 520.822807 304.793447 
L 522.532531 309.956733 
L 524.242256 311.633043 
L 525.95198 316.796328 
L 527.661704 317.700442 
L 529.371429 311.633043 
L 531.081153 300.811296 
L 532.790877 297.000066 
L 536.210326 297.000066 
L 537.92005 305.916198 
L 539.629774 307.992734 
L 541.339499 308.440675 
L 543.049223 320.614477 
L 544.758947 328.766799 
L 546.468672 331.396895 
L 548.178396 329.49128 
L 549.88812 341.665082 
L 551.597845 352.367839 
L 553.307569 340.194037 
L 555.017293 334.450892 
L 556.727018 320.490464 
L 558.436742 317.536114 
L 560.146466 319.873819 
L 561.85619 301.679852 
L 563.565915 296.706869 
L 565.275639 294.945875 
L 566.985363 287.078479 
L 568.695088 278.657523 
L 570.404812 262.296305 
L 572.114536 259.038634 
L 573.824261 259.547219 
L 575.533985 241.386004 
L 577.243709 229.383123 
L 578.953434 225.840528 
L 580.663158 220.277016 
L 582.372882 221.629071 
L 584.082607 213.089126 
L 585.792331 196.279966 
L 587.502055 206.429164 
L 589.211779 214.5731 
L 590.921504 232.589694 
L 592.631228 232.913948 
L 594.340952 227.318573 
L 596.050677 236.302573 
L 597.760401 233.504608 
L 599.470125 239.875328 
L 601.17985 244.86124 
L 602.889574 250.62532 
L 604.599298 263.728868 
L 606.309023 260.471198 
L 608.018747 255.123582 
L 609.728471 272.283297 
L 611.438195 276.313163 
L 613.14792 262.558 
L 614.857644 267.892207 
L 616.567368 271.149877 
L 618.277093 266.743825 
L 619.986817 271.993348 
L 621.696541 262.471724 
L 623.406266 249.573441 
L 625.11599 248.597572 
L 626.825714 235.566891 
L 628.535439 234.358824 
L 630.245163 227.088582 
L 631.954887 229.875878 
L 633.664612 229.572558 
L 635.374336 233.081616 
L 637.08406 233.877851 
L 638.793784 224.10484 
L 640.503509 223.504046 
L 643.922957 218.525091 
L 645.632682 223.240435 
L 647.342406 233.508622 
L 649.05213 225.825557 
L 650.761855 224.968677 
L 652.471579 227.817409 
L 654.181303 230.026344 
L 655.891028 234.503672 
L 657.600752 239.398322 
L 659.310476 234.604266 
L 661.020201 243.196144 
L 662.729925 245.756266 
L 664.439649 253.815518 
L 666.149373 257.302494 
L 667.859098 252.500912 
L 669.568822 255.855489 
L 671.278546 253.88225 
L 672.988271 252.833514 
L 674.697995 251.033518 
L 676.407719 260.127022 
L 678.117444 262.527813 
L 679.827168 255.287991 
L 681.536892 259.582633 
L 683.246617 263.512852 
L 684.956341 265.866408 
L 686.666065 265.998807 
L 688.375789 267.7335 
L 690.085514 260.275042 
L 691.795238 264.348455 
L 693.504962 264.60454 
L 695.214687 266.155283 
L 696.924411 270.765009 
L 698.634135 274.879559 
L 700.34386 268.364218 
L 702.053584 272.117064 
L 703.763308 273.793374 
L 705.473033 283.285715 
L 707.182757 287.776452 
L 708.892481 287.547146 
L 710.602206 280.237176 
L 712.31193 280.118187 
L 715.731378 288.903899 
L 717.441103 286.998284 
L 720.860551 274.462779 
L 722.570276 264.136208 
L 724.28 268.082889 
L 724.28 268.082889 
" style="fill:none;stroke:#d62728;stroke-linecap:square;stroke-width:1.5;"/>
   </g>
   <g id="line2d_21">
    <path clip-path="url(#p6c9e6a9962)" d="M 74.584762 312.367021 
L 76.294486 317.121369 
L 78.004211 324.057871 
L 79.713935 323.082002 
L 81.423659 324.434057 
L 83.133383 323.806483 
L 84.843108 323.806483 
L 86.552832 322.454428 
L 88.262556 321.706852 
L 89.972281 322.610966 
L 91.682005 328.498732 
L 93.391729 324.477252 
L 95.101454 321.522901 
L 96.811178 322.018077 
L 98.520902 324.042681 
L 100.230627 318.38422 
L 101.940351 319.327337 
L 103.650075 316.372986 
L 105.359799 310.656141 
L 107.069524 311.004436 
L 108.779248 308.403622 
L 110.488972 314.471022 
L 112.198697 315.098596 
L 113.908421 313.86553 
L 115.618145 308.583255 
L 117.32787 309.210829 
L 119.037594 307.858774 
L 120.747318 310.259565 
L 122.457043 307.749471 
L 124.166767 307.749471 
L 125.876491 307.279096 
L 129.29594 315.111807 
L 131.005664 314.347996 
L 132.715388 314.347996 
L 134.425113 316.507718 
L 136.134837 320.550513 
L 139.554286 335.678666 
L 141.26401 338.011832 
L 142.973734 329.790899 
L 144.683459 329.295723 
L 146.393183 324.013449 
L 148.102907 322.661393 
L 149.812632 327.943668 
L 151.522356 327.179857 
L 153.23208 328.531913 
L 154.941805 320.340262 
L 156.651529 321.333378 
L 158.361253 316.723652 
L 160.070977 314.154993 
L 161.780702 310.133512 
L 163.490426 313.886358 
L 165.20015 314.154993 
L 166.909875 314.154993 
L 168.619599 317.653733 
L 170.329323 311.486686 
L 172.039048 306.204412 
L 173.748772 306.204412 
L 175.458496 306.596291 
L 177.168221 317.418037 
L 178.877945 308.140202 
L 180.587669 305.230826 
L 182.297393 309.345376 
L 184.007118 308.8502 
L 185.716842 302.603494 
L 187.426566 301.405545 
L 190.846015 307.69158 
L 192.555739 309.272941 
L 194.265464 309.681879 
L 195.975188 309.396954 
L 197.684912 308.49284 
L 199.394637 309.844895 
L 201.104361 309.844895 
L 202.814085 300.071884 
L 204.52381 298.490524 
L 206.233534 296.208722 
L 207.943258 289.198205 
L 209.652982 285.748679 
L 211.362707 280.814698 
L 213.072431 293.84538 
L 214.782155 301.541854 
L 216.49188 296.378569 
L 218.201604 289.309669 
L 219.911328 288.756109 
L 221.621053 285.647652 
L 223.330777 290.340563 
L 225.040501 293.598233 
L 226.750226 292.873752 
L 228.45995 295.274543 
L 230.169674 301.327232 
L 231.879398 305.489017 
L 233.589123 310.781073 
L 235.298847 312.990008 
L 237.008571 319.505348 
L 238.718296 332.29496 
L 240.42802 334.200575 
L 242.137744 344.468762 
L 243.847469 339.305477 
L 245.557193 347.497127 
L 247.266917 346.448392 
L 248.976642 341.285106 
L 250.686366 347.600425 
L 252.39609 356.02138 
L 254.105815 366.476721 
L 255.815539 367.525457 
L 257.525263 366.717791 
L 259.234987 366.717791 
L 260.944712 366.164231 
L 262.654436 368.069846 
L 264.36416 357.407431 
L 266.073885 350.89209 
L 267.783609 342.342364 
L 269.493333 336.380583 
L 271.203058 339.638253 
L 272.912782 337.069594 
L 274.622506 335.163979 
L 276.332231 335.163979 
L 278.041955 340.327264 
L 279.751679 335.044989 
L 281.461404 325.271978 
L 283.171128 334.18811 
L 284.880852 332.767443 
L 286.590576 333.321002 
L 288.300301 328.405133 
L 290.010025 334.425298 
L 291.719749 337.967894 
L 293.429474 337.726824 
L 295.139198 335.517889 
L 296.848922 327.953813 
L 298.558647 332.563539 
L 300.268371 333.420418 
L 301.978095 337.726824 
L 303.68782 330.657924 
L 305.397544 333.674525 
L 307.107268 324.310452 
L 308.816992 335.132198 
L 310.526717 324.310452 
L 312.236441 322.404837 
L 313.946165 326.923301 
L 315.65589 330.734531 
L 317.365614 326.428125 
L 320.785063 316.865365 
L 322.494787 317.841233 
L 324.204511 315.735596 
L 325.914236 316.133 
L 327.62396 305.552323 
L 329.333684 304.503588 
L 331.043409 302.597973 
L 332.753133 299.340302 
L 334.462857 304.998764 
L 336.172581 308.844679 
L 337.882306 322.683026 
L 339.59203 320.523305 
L 341.301754 327.763127 
L 343.011479 327.763127 
L 344.721203 338.584874 
L 346.430927 339.633609 
L 348.140652 338.886033 
L 349.850376 342.143703 
L 351.5601 340.38271 
L 353.269825 349.298841 
L 354.979549 355.814182 
L 356.689273 356.621848 
L 360.108722 348.767321 
L 361.818446 357.564463 
L 363.52817 364.079804 
L 365.237895 376.134617 
L 366.947619 386.956364 
L 370.367068 364.724625 
L 372.076792 364.965695 
L 375.496241 346.047247 
L 377.205965 333.873445 
L 378.915689 326.862928 
L 380.625414 329.625422 
L 382.335138 331.136809 
L 384.044862 311.894107 
L 385.754586 296.318013 
L 387.464311 286.12384 
L 389.174035 280.841566 
L 390.883759 276.776229 
L 392.593484 276.281053 
L 394.303208 274.52006 
L 396.012932 275.495928 
L 397.722657 277.77773 
L 399.432381 267.628532 
L 401.142105 264.818803 
L 404.561554 272.612184 
L 406.271278 272.612184 
L 407.981003 275.869855 
L 409.690727 289.949272 
L 411.400451 298.370228 
L 413.110175 293.206942 
L 414.8199 296.464613 
L 416.529624 296.464613 
L 418.239348 315.707315 
L 419.949073 337.350809 
L 421.658797 346.640867 
L 423.368521 351.923142 
L 425.078246 348.665471 
L 426.78797 352.418318 
L 428.497694 347.66397 
L 430.207419 339.796574 
L 431.917143 336.538904 
L 433.626867 348.712706 
L 435.336591 351.027259 
L 437.046316 349.846125 
L 438.75604 358.037776 
L 440.465764 357.133662 
L 442.175489 366.049793 
L 443.885213 361.743387 
L 445.594937 359.837772 
L 447.304662 362.238563 
L 449.014386 358.980893 
L 450.72411 344.901476 
L 452.433835 341.090246 
L 454.143559 330.268499 
L 455.853283 330.677437 
L 457.563008 319.855691 
L 459.272732 321.761306 
L 460.982456 322.209247 
L 462.69218 333.030994 
L 464.401905 327.867708 
L 466.111629 333.149983 
L 467.821353 320.976181 
L 469.531078 321.471357 
L 471.240802 317.489205 
L 472.950526 306.667459 
L 474.660251 306.667459 
L 476.369975 302.645978 
L 478.079699 303.694713 
L 479.789424 297.179373 
L 481.499148 294.778582 
L 483.208872 301.789098 
L 484.918596 311.562109 
L 486.628321 316.917251 
L 488.338045 315.565196 
L 490.047769 311.126391 
L 491.757494 312.175127 
L 493.467218 320.187145 
L 495.176942 322.996874 
L 496.886667 322.996874 
L 498.596391 330.065774 
L 500.306115 322.501698 
L 502.01584 334.6755 
L 503.725564 325.759368 
L 505.435288 330.922654 
L 507.145013 340.392345 
L 508.854737 329.122657 
L 510.564461 320.970336 
L 512.274185 316.66393 
L 515.693634 316.66393 
L 517.403358 305.842183 
L 519.113083 310.148589 
L 520.822807 304.793447 
L 522.532531 309.956733 
L 524.242256 311.633043 
L 525.95198 316.796328 
L 527.661704 317.700442 
L 529.371429 311.633043 
L 531.081153 300.811296 
L 532.790877 297.000066 
L 536.210326 297.000066 
L 537.92005 305.916198 
L 539.629774 307.992734 
L 541.339499 308.440675 
L 543.049223 320.614477 
L 544.758947 328.766799 
L 546.468672 331.396895 
L 548.178396 329.49128 
L 549.88812 341.665082 
L 551.597845 352.367839 
L 553.307569 340.194037 
L 555.017293 334.799187 
L 556.727018 327.730286 
L 558.436742 328.033606 
L 560.146466 330.371311 
L 561.85619 318.692685 
L 563.565915 319.826104 
L 565.275639 327.838122 
L 566.985363 324.580452 
L 568.695088 319.417166 
L 570.404812 309.947475 
L 572.114536 308.04186 
L 573.824261 310.951236 
L 575.533985 302.939218 
L 577.243709 296.099623 
L 578.953434 297.166753 
L 580.663158 295.585393 
L 582.372882 302.100733 
L 585.792331 287.467757 
L 587.502055 297.616955 
L 590.921504 319.795333 
L 592.631228 320.844069 
L 594.340952 316.600748 
L 596.050677 325.175811 
L 597.760401 324.946505 
L 599.470125 321.544214 
L 601.17985 328.435741 
L 602.889574 337.048553 
L 604.599298 344.612629 
L 606.309023 344.612629 
L 608.018747 342.522684 
L 609.728471 349.533201 
L 611.438195 348.399781 
L 613.14792 337.274715 
L 614.857644 341.88444 
L 616.567368 339.978825 
L 618.277093 340.32712 
L 619.986817 339.470241 
L 621.696541 333.930768 
L 623.406266 325.014637 
L 625.11599 324.038768 
L 626.825714 314.265757 
L 628.535439 317.364096 
L 630.245163 306.388243 
L 631.954887 309.645913 
L 633.664612 309.342593 
L 635.374336 310.318462 
L 637.08406 311.899823 
L 638.793784 305.384482 
L 640.503509 302.574753 
L 642.213233 299.501413 
L 643.922957 299.501413 
L 645.632682 305.568812 
L 647.342406 317.742615 
L 649.05213 315.71801 
L 650.761855 320.024416 
L 652.471579 316.766746 
L 655.891028 327.891812 
L 657.600752 332.786463 
L 659.310476 332.602133 
L 661.020201 342.375144 
L 662.729925 339.276805 
L 664.439649 344.935266 
L 666.149373 340.62886 
L 667.859098 341.48574 
L 669.568822 340.858165 
L 671.278546 338.884926 
L 672.988271 337.208616 
L 674.697995 338.171114 
L 676.407719 343.453389 
L 678.117444 343.453389 
L 679.827168 338.843663 
L 681.536892 335.344923 
L 683.246617 336.017472 
L 684.956341 333.207743 
L 686.666065 340.904217 
L 688.375789 340.105722 
L 690.085514 333.590381 
L 691.795238 335.587257 
L 693.504962 336.892078 
L 695.214687 336.128267 
L 696.924411 340.737993 
L 698.634135 347.253334 
L 700.34386 344.549223 
L 702.053584 348.30207 
L 703.763308 353.23605 
L 705.473033 355.836863 
L 707.182757 362.00391 
L 708.892481 363.851141 
L 710.602206 360.352401 
L 712.31193 360.233412 
L 714.021654 362.033408 
L 715.731378 365.036972 
L 717.441103 363.988237 
L 719.150827 357.881834 
L 720.860551 352.309611 
L 722.570276 341.98304 
L 724.28 348.498381 
L 724.28 348.498381 
" style="fill:none;stroke:#9467bd;stroke-linecap:square;stroke-width:1.5;"/>
   </g>
   <g id="patch_3">
    <path d="M 42.1 404.12 
L 42.1 26.52 
" style="fill:none;stroke:#000000;stroke-linecap:square;stroke-linejoin:miter;stroke-width:0.8;"/>
   </g>
   <g id="patch_4">
    <path d="M 724.28 404.12 
L 724.28 26.52 
" style="fill:none;stroke:#000000;stroke-linecap:square;stroke-linejoin:miter;stroke-width:0.8;"/>
   </g>
   <g id="patch_5">
    <path d="M 42.1 404.12 
L 724.28 404.12 
" style="fill:none;stroke:#000000;stroke-linecap:square;stroke-linejoin:miter;stroke-width:0.8;"/>
   </g>
   <g id="patch_6">
    <path d="M 42.1 26.52 
L 724.28 26.52 
" style="fill:none;stroke:#000000;stroke-linecap:square;stroke-linejoin:miter;stroke-width:0.8;"/>
   </g>
   <g id="text_17">
    <!-- multi_way_v0: episode duration in steps log-relative to `htm_0`, MA=20 -->
    <defs>
     <path d="M 52 44.1875 
Q 55.375 50.25 60.0625 53.125 
Q 64.75 56 71.09375 56 
Q 79.640625 56 84.28125 50.015625 
Q 88.921875 44.046875 88.921875 33.015625 
L 88.921875 0 
L 79.890625 0 
L 79.890625 32.71875 
Q 79.890625 40.578125 77.09375 44.375 
Q 74.3125 48.1875 68.609375 48.1875 
Q 61.625 48.1875 57.5625 43.546875 
Q 53.515625 38.921875 53.515625 30.90625 
L 53.515625 0 
L 44.484375 0 
L 44.484375 32.71875 
Q 44.484375 40.625 41.703125 44.40625 
Q 38.921875 48.1875 33.109375 48.1875 
Q 26.21875 48.1875 22.15625 43.53125 
Q 18.109375 38.875 18.109375 30.90625 
L 18.109375 0 
L 9.078125 0 
L 9.078125 54.6875 
L 18.109375 54.6875 
L 18.109375 46.1875 
Q 21.1875 51.21875 25.484375 53.609375 
Q 29.78125 56 35.6875 56 
Q 41.65625 56 45.828125 52.96875 
Q 50 49.953125 52 44.1875 
z
" id="DejaVuSans-109"/>
     <path d="M 8.5 21.578125 
L 8.5 54.6875 
L 17.484375 54.6875 
L 17.484375 21.921875 
Q 17.484375 14.15625 20.5 10.265625 
Q 23.53125 6.390625 29.59375 6.390625 
Q 36.859375 6.390625 41.078125 11.03125 
Q 45.3125 15.671875 45.3125 23.6875 
L 45.3125 54.6875 
L 54.296875 54.6875 
L 54.296875 0 
L 45.3125 0 
L 45.3125 8.40625 
Q 42.046875 3.421875 37.71875 1 
Q 33.40625 -1.421875 27.6875 -1.421875 
Q 18.265625 -1.421875 13.375 4.4375 
Q 8.5 10.296875 8.5 21.578125 
z
M 31.109375 56 
z
" id="DejaVuSans-117"/>
     <path d="M 9.421875 75.984375 
L 18.40625 75.984375 
L 18.40625 0 
L 9.421875 0 
z
" id="DejaVuSans-108"/>
     <path d="M 18.3125 70.21875 
L 18.3125 54.6875 
L 36.8125 54.6875 
L 36.8125 47.703125 
L 18.3125 47.703125 
L 18.3125 18.015625 
Q 18.3125 11.328125 20.140625 9.421875 
Q 21.96875 7.515625 27.59375 7.515625 
L 36.8125 7.515625 
L 36.8125 0 
L 27.59375 0 
Q 17.1875 0 13.234375 3.875 
Q 9.28125 7.765625 9.28125 18.015625 
L 9.28125 47.703125 
L 2.6875 47.703125 
L 2.6875 54.6875 
L 9.28125 54.6875 
L 9.28125 70.21875 
z
" id="DejaVuSans-116"/>
     <path d="M 9.421875 54.6875 
L 18.40625 54.6875 
L 18.40625 0 
L 9.421875 0 
z
M 9.421875 75.984375 
L 18.40625 75.984375 
L 18.40625 64.59375 
L 9.421875 64.59375 
z
" id="DejaVuSans-105"/>
     <path d="M 50.984375 -16.609375 
L 50.984375 -23.578125 
L -0.984375 -23.578125 
L -0.984375 -16.609375 
z
" id="DejaVuSans-95"/>
     <path d="M 4.203125 54.6875 
L 13.1875 54.6875 
L 24.421875 12.015625 
L 35.59375 54.6875 
L 46.1875 54.6875 
L 57.421875 12.015625 
L 68.609375 54.6875 
L 77.59375 54.6875 
L 63.28125 0 
L 52.6875 0 
L 40.921875 44.828125 
L 29.109375 0 
L 18.5 0 
z
" id="DejaVuSans-119"/>
     <path d="M 34.28125 27.484375 
Q 23.390625 27.484375 19.1875 25 
Q 14.984375 22.515625 14.984375 16.5 
Q 14.984375 11.71875 18.140625 8.90625 
Q 21.296875 6.109375 26.703125 6.109375 
Q 34.1875 6.109375 38.703125 11.40625 
Q 43.21875 16.703125 43.21875 25.484375 
L 43.21875 27.484375 
z
M 52.203125 31.203125 
L 52.203125 0 
L 43.21875 0 
L 43.21875 8.296875 
Q 40.140625 3.328125 35.546875 0.953125 
Q 30.953125 -1.421875 24.3125 -1.421875 
Q 15.921875 -1.421875 10.953125 3.296875 
Q 6 8.015625 6 15.921875 
Q 6 25.140625 12.171875 29.828125 
Q 18.359375 34.515625 30.609375 34.515625 
L 43.21875 34.515625 
L 43.21875 35.40625 
Q 43.21875 41.609375 39.140625 45 
Q 35.0625 48.390625 27.6875 48.390625 
Q 23 48.390625 18.546875 47.265625 
Q 14.109375 46.140625 10.015625 43.890625 
L 10.015625 52.203125 
Q 14.9375 54.109375 19.578125 55.046875 
Q 24.21875 56 28.609375 56 
Q 40.484375 56 46.34375 49.84375 
Q 52.203125 43.703125 52.203125 31.203125 
z
" id="DejaVuSans-97"/>
     <path d="M 32.171875 -5.078125 
Q 28.375 -14.84375 24.75 -17.8125 
Q 21.140625 -20.796875 15.09375 -20.796875 
L 7.90625 -20.796875 
L 7.90625 -13.28125 
L 13.1875 -13.28125 
Q 16.890625 -13.28125 18.9375 -11.515625 
Q 21 -9.765625 23.484375 -3.21875 
L 25.09375 0.875 
L 2.984375 54.6875 
L 12.5 54.6875 
L 29.59375 11.921875 
L 46.6875 54.6875 
L 56.203125 54.6875 
z
" id="DejaVuSans-121"/>
     <path d="M 2.984375 54.6875 
L 12.5 54.6875 
L 29.59375 8.796875 
L 46.6875 54.6875 
L 56.203125 54.6875 
L 35.6875 0 
L 23.484375 0 
z
" id="DejaVuSans-118"/>
     <path d="M 11.71875 12.40625 
L 22.015625 12.40625 
L 22.015625 0 
L 11.71875 0 
z
M 11.71875 51.703125 
L 22.015625 51.703125 
L 22.015625 39.3125 
L 11.71875 39.3125 
z
" id="DejaVuSans-58"/>
     <path id="DejaVuSans-32"/>
     <path d="M 56.203125 29.59375 
L 56.203125 25.203125 
L 14.890625 25.203125 
Q 15.484375 15.921875 20.484375 11.0625 
Q 25.484375 6.203125 34.421875 6.203125 
Q 39.59375 6.203125 44.453125 7.46875 
Q 49.3125 8.734375 54.109375 11.28125 
L 54.109375 2.78125 
Q 49.265625 0.734375 44.1875 -0.34375 
Q 39.109375 -1.421875 33.890625 -1.421875 
Q 20.796875 -1.421875 13.15625 6.1875 
Q 5.515625 13.8125 5.515625 26.8125 
Q 5.515625 40.234375 12.765625 48.109375 
Q 20.015625 56 32.328125 56 
Q 43.359375 56 49.78125 48.890625 
Q 56.203125 41.796875 56.203125 29.59375 
z
M 47.21875 32.234375 
Q 47.125 39.59375 43.09375 43.984375 
Q 39.0625 48.390625 32.421875 48.390625 
Q 24.90625 48.390625 20.390625 44.140625 
Q 15.875 39.890625 15.1875 32.171875 
z
" id="DejaVuSans-101"/>
     <path d="M 18.109375 8.203125 
L 18.109375 -20.796875 
L 9.078125 -20.796875 
L 9.078125 54.6875 
L 18.109375 54.6875 
L 18.109375 46.390625 
Q 20.953125 51.265625 25.265625 53.625 
Q 29.59375 56 35.59375 56 
Q 45.5625 56 51.78125 48.09375 
Q 58.015625 40.1875 58.015625 27.296875 
Q 58.015625 14.40625 51.78125 6.484375 
Q 45.5625 -1.421875 35.59375 -1.421875 
Q 29.59375 -1.421875 25.265625 0.953125 
Q 20.953125 3.328125 18.109375 8.203125 
z
M 48.6875 27.296875 
Q 48.6875 37.203125 44.609375 42.84375 
Q 40.53125 48.484375 33.40625 48.484375 
Q 26.265625 48.484375 22.1875 42.84375 
Q 18.109375 37.203125 18.109375 27.296875 
Q 18.109375 17.390625 22.1875 11.75 
Q 26.265625 6.109375 33.40625 6.109375 
Q 40.53125 6.109375 44.609375 11.75 
Q 48.6875 17.390625 48.6875 27.296875 
z
" id="DejaVuSans-112"/>
     <path d="M 44.28125 53.078125 
L 44.28125 44.578125 
Q 40.484375 46.53125 36.375 47.5 
Q 32.28125 48.484375 27.875 48.484375 
Q 21.1875 48.484375 17.84375 46.4375 
Q 14.5 44.390625 14.5 40.28125 
Q 14.5 37.15625 16.890625 35.375 
Q 19.28125 33.59375 26.515625 31.984375 
L 29.59375 31.296875 
Q 39.15625 29.25 43.1875 25.515625 
Q 47.21875 21.78125 47.21875 15.09375 
Q 47.21875 7.46875 41.1875 3.015625 
Q 35.15625 -1.421875 24.609375 -1.421875 
Q 20.21875 -1.421875 15.453125 -0.5625 
Q 10.6875 0.296875 5.421875 2 
L 5.421875 11.28125 
Q 10.40625 8.6875 15.234375 7.390625 
Q 20.0625 6.109375 24.8125 6.109375 
Q 31.15625 6.109375 34.5625 8.28125 
Q 37.984375 10.453125 37.984375 14.40625 
Q 37.984375 18.0625 35.515625 20.015625 
Q 33.0625 21.96875 24.703125 23.78125 
L 21.578125 24.515625 
Q 13.234375 26.265625 9.515625 29.90625 
Q 5.8125 33.546875 5.8125 39.890625 
Q 5.8125 47.609375 11.28125 51.796875 
Q 16.75 56 26.8125 56 
Q 31.78125 56 36.171875 55.265625 
Q 40.578125 54.546875 44.28125 53.078125 
z
" id="DejaVuSans-115"/>
     <path d="M 30.609375 48.390625 
Q 23.390625 48.390625 19.1875 42.75 
Q 14.984375 37.109375 14.984375 27.296875 
Q 14.984375 17.484375 19.15625 11.84375 
Q 23.34375 6.203125 30.609375 6.203125 
Q 37.796875 6.203125 41.984375 11.859375 
Q 46.1875 17.53125 46.1875 27.296875 
Q 46.1875 37.015625 41.984375 42.703125 
Q 37.796875 48.390625 30.609375 48.390625 
z
M 30.609375 56 
Q 42.328125 56 49.015625 48.375 
Q 55.71875 40.765625 55.71875 27.296875 
Q 55.71875 13.875 49.015625 6.21875 
Q 42.328125 -1.421875 30.609375 -1.421875 
Q 18.84375 -1.421875 12.171875 6.21875 
Q 5.515625 13.875 5.515625 27.296875 
Q 5.515625 40.765625 12.171875 48.375 
Q 18.84375 56 30.609375 56 
z
" id="DejaVuSans-111"/>
     <path d="M 45.40625 46.390625 
L 45.40625 75.984375 
L 54.390625 75.984375 
L 54.390625 0 
L 45.40625 0 
L 45.40625 8.203125 
Q 42.578125 3.328125 38.25 0.953125 
Q 33.9375 -1.421875 27.875 -1.421875 
Q 17.96875 -1.421875 11.734375 6.484375 
Q 5.515625 14.40625 5.515625 27.296875 
Q 5.515625 40.1875 11.734375 48.09375 
Q 17.96875 56 27.875 56 
Q 33.9375 56 38.25 53.625 
Q 42.578125 51.265625 45.40625 46.390625 
z
M 14.796875 27.296875 
Q 14.796875 17.390625 18.875 11.75 
Q 22.953125 6.109375 30.078125 6.109375 
Q 37.203125 6.109375 41.296875 11.75 
Q 45.40625 17.390625 45.40625 27.296875 
Q 45.40625 37.203125 41.296875 42.84375 
Q 37.203125 48.484375 30.078125 48.484375 
Q 22.953125 48.484375 18.875 42.84375 
Q 14.796875 37.203125 14.796875 27.296875 
z
" id="DejaVuSans-100"/>
     <path d="M 41.109375 46.296875 
Q 39.59375 47.171875 37.8125 47.578125 
Q 36.03125 48 33.890625 48 
Q 26.265625 48 22.1875 43.046875 
Q 18.109375 38.09375 18.109375 28.8125 
L 18.109375 0 
L 9.078125 0 
L 9.078125 54.6875 
L 18.109375 54.6875 
L 18.109375 46.1875 
Q 20.953125 51.171875 25.484375 53.578125 
Q 30.03125 56 36.53125 56 
Q 37.453125 56 38.578125 55.875 
Q 39.703125 55.765625 41.0625 55.515625 
z
" id="DejaVuSans-114"/>
     <path d="M 54.890625 33.015625 
L 54.890625 0 
L 45.90625 0 
L 45.90625 32.71875 
Q 45.90625 40.484375 42.875 44.328125 
Q 39.84375 48.1875 33.796875 48.1875 
Q 26.515625 48.1875 22.3125 43.546875 
Q 18.109375 38.921875 18.109375 30.90625 
L 18.109375 0 
L 9.078125 0 
L 9.078125 54.6875 
L 18.109375 54.6875 
L 18.109375 46.1875 
Q 21.34375 51.125 25.703125 53.5625 
Q 30.078125 56 35.796875 56 
Q 45.21875 56 50.046875 50.171875 
Q 54.890625 44.34375 54.890625 33.015625 
z
" id="DejaVuSans-110"/>
     <path d="M 45.40625 27.984375 
Q 45.40625 37.75 41.375 43.109375 
Q 37.359375 48.484375 30.078125 48.484375 
Q 22.859375 48.484375 18.828125 43.109375 
Q 14.796875 37.75 14.796875 27.984375 
Q 14.796875 18.265625 18.828125 12.890625 
Q 22.859375 7.515625 30.078125 7.515625 
Q 37.359375 7.515625 41.375 12.890625 
Q 45.40625 18.265625 45.40625 27.984375 
z
M 54.390625 6.78125 
Q 54.390625 -7.171875 48.1875 -13.984375 
Q 42 -20.796875 29.203125 -20.796875 
Q 24.46875 -20.796875 20.265625 -20.09375 
Q 16.0625 -19.390625 12.109375 -17.921875 
L 12.109375 -9.1875 
Q 16.0625 -11.328125 19.921875 -12.34375 
Q 23.78125 -13.375 27.78125 -13.375 
Q 36.625 -13.375 41.015625 -8.765625 
Q 45.40625 -4.15625 45.40625 5.171875 
L 45.40625 9.625 
Q 42.625 4.78125 38.28125 2.390625 
Q 33.9375 0 27.875 0 
Q 17.828125 0 11.671875 7.65625 
Q 5.515625 15.328125 5.515625 27.984375 
Q 5.515625 40.671875 11.671875 48.328125 
Q 17.828125 56 27.875 56 
Q 33.9375 56 38.28125 53.609375 
Q 42.625 51.21875 45.40625 46.390625 
L 45.40625 54.6875 
L 54.390625 54.6875 
z
" id="DejaVuSans-103"/>
     <path d="M 4.890625 31.390625 
L 31.203125 31.390625 
L 31.203125 23.390625 
L 4.890625 23.390625 
z
" id="DejaVuSans-45"/>
     <path d="M 17.921875 79.984375 
L 31.6875 61.71875 
L 24.21875 61.71875 
L 8.296875 79.984375 
z
" id="DejaVuSans-96"/>
     <path d="M 54.890625 33.015625 
L 54.890625 0 
L 45.90625 0 
L 45.90625 32.71875 
Q 45.90625 40.484375 42.875 44.328125 
Q 39.84375 48.1875 33.796875 48.1875 
Q 26.515625 48.1875 22.3125 43.546875 
Q 18.109375 38.921875 18.109375 30.90625 
L 18.109375 0 
L 9.078125 0 
L 9.078125 75.984375 
L 18.109375 75.984375 
L 18.109375 46.1875 
Q 21.34375 51.125 25.703125 53.5625 
Q 30.078125 56 35.796875 56 
Q 45.21875 56 50.046875 50.171875 
Q 54.890625 44.34375 54.890625 33.015625 
z
" id="DejaVuSans-104"/>
     <path d="M 11.71875 12.40625 
L 22.015625 12.40625 
L 22.015625 4 
L 14.015625 -11.625 
L 7.71875 -11.625 
L 11.71875 4 
z
" id="DejaVuSans-44"/>
     <path d="M 9.8125 72.90625 
L 24.515625 72.90625 
L 43.109375 23.296875 
L 61.8125 72.90625 
L 76.515625 72.90625 
L 76.515625 0 
L 66.890625 0 
L 66.890625 64.015625 
L 48.09375 14.015625 
L 38.1875 14.015625 
L 19.390625 64.015625 
L 19.390625 0 
L 9.8125 0 
z
" id="DejaVuSans-77"/>
     <path d="M 34.1875 63.1875 
L 20.796875 26.90625 
L 47.609375 26.90625 
z
M 28.609375 72.90625 
L 39.796875 72.90625 
L 67.578125 0 
L 57.328125 0 
L 50.6875 18.703125 
L 17.828125 18.703125 
L 11.1875 0 
L 0.78125 0 
z
" id="DejaVuSans-65"/>
     <path d="M 10.59375 45.40625 
L 73.1875 45.40625 
L 73.1875 37.203125 
L 10.59375 37.203125 
z
M 10.59375 25.484375 
L 73.1875 25.484375 
L 73.1875 17.1875 
L 10.59375 17.1875 
z
" id="DejaVuSans-61"/>
    </defs>
    <g transform="translate(166.024687 20.52)scale(0.12 -0.12)">
     <use xlink:href="#DejaVuSans-109"/>
     <use x="97.412109" xlink:href="#DejaVuSans-117"/>
     <use x="160.791016" xlink:href="#DejaVuSans-108"/>
     <use x="188.574219" xlink:href="#DejaVuSans-116"/>
     <use x="227.783203" xlink:href="#DejaVuSans-105"/>
     <use x="255.566406" xlink:href="#DejaVuSans-95"/>
     <use x="305.566406" xlink:href="#DejaVuSans-119"/>
     <use x="387.353516" xlink:href="#DejaVuSans-97"/>
     <use x="448.632812" xlink:href="#DejaVuSans-121"/>
     <use x="507.8125" xlink:href="#DejaVuSans-95"/>
     <use x="557.8125" xlink:href="#DejaVuSans-118"/>
     <use x="616.992188" xlink:href="#DejaVuSans-48"/>
     <use x="680.615234" xlink:href="#DejaVuSans-58"/>
     <use x="714.306641" xlink:href="#DejaVuSans-32"/>
     <use x="746.09375" xlink:href="#DejaVuSans-101"/>
     <use x="807.617188" xlink:href="#DejaVuSans-112"/>
     <use x="871.09375" xlink:href="#DejaVuSans-105"/>
     <use x="898.876953" xlink:href="#DejaVuSans-115"/>
     <use x="950.976562" xlink:href="#DejaVuSans-111"/>
     <use x="1012.158203" xlink:href="#DejaVuSans-100"/>
     <use x="1075.634766" xlink:href="#DejaVuSans-101"/>
     <use x="1137.158203" xlink:href="#DejaVuSans-32"/>
     <use x="1168.945312" xlink:href="#DejaVuSans-100"/>
     <use x="1232.421875" xlink:href="#DejaVuSans-117"/>
     <use x="1295.800781" xlink:href="#DejaVuSans-114"/>
     <use x="1336.914062" xlink:href="#DejaVuSans-97"/>
     <use x="1398.193359" xlink:href="#DejaVuSans-116"/>
     <use x="1437.402344" xlink:href="#DejaVuSans-105"/>
     <use x="1465.185547" xlink:href="#DejaVuSans-111"/>
     <use x="1526.367188" xlink:href="#DejaVuSans-110"/>
     <use x="1589.746094" xlink:href="#DejaVuSans-32"/>
     <use x="1621.533203" xlink:href="#DejaVuSans-105"/>
     <use x="1649.316406" xlink:href="#DejaVuSans-110"/>
     <use x="1712.695312" xlink:href="#DejaVuSans-32"/>
     <use x="1744.482422" xlink:href="#DejaVuSans-115"/>
     <use x="1796.582031" xlink:href="#DejaVuSans-116"/>
     <use x="1835.791016" xlink:href="#DejaVuSans-101"/>
     <use x="1897.314453" xlink:href="#DejaVuSans-112"/>
     <use x="1960.791016" xlink:href="#DejaVuSans-115"/>
     <use x="2012.890625" xlink:href="#DejaVuSans-32"/>
     <use x="2044.677734" xlink:href="#DejaVuSans-108"/>
     <use x="2072.460938" xlink:href="#DejaVuSans-111"/>
     <use x="2133.642578" xlink:href="#DejaVuSans-103"/>
     <use x="2197.119141" xlink:href="#DejaVuSans-45"/>
     <use x="2233.203125" xlink:href="#DejaVuSans-114"/>
     <use x="2274.285156" xlink:href="#DejaVuSans-101"/>
     <use x="2335.808594" xlink:href="#DejaVuSans-108"/>
     <use x="2363.591797" xlink:href="#DejaVuSans-97"/>
     <use x="2424.871094" xlink:href="#DejaVuSans-116"/>
     <use x="2464.080078" xlink:href="#DejaVuSans-105"/>
     <use x="2491.863281" xlink:href="#DejaVuSans-118"/>
     <use x="2551.042969" xlink:href="#DejaVuSans-101"/>
     <use x="2612.566406" xlink:href="#DejaVuSans-32"/>
     <use x="2644.353516" xlink:href="#DejaVuSans-116"/>
     <use x="2683.5625" xlink:href="#DejaVuSans-111"/>
     <use x="2744.744141" xlink:href="#DejaVuSans-32"/>
     <use x="2776.53125" xlink:href="#DejaVuSans-96"/>
     <use x="2826.53125" xlink:href="#DejaVuSans-104"/>
     <use x="2889.910156" xlink:href="#DejaVuSans-116"/>
     <use x="2929.119141" xlink:href="#DejaVuSans-109"/>
     <use x="3026.53125" xlink:href="#DejaVuSans-95"/>
     <use x="3076.53125" xlink:href="#DejaVuSans-48"/>
     <use x="3140.154297" xlink:href="#DejaVuSans-96"/>
     <use x="3190.154297" xlink:href="#DejaVuSans-44"/>
     <use x="3221.941406" xlink:href="#DejaVuSans-32"/>
     <use x="3253.728516" xlink:href="#DejaVuSans-77"/>
     <use x="3340.007812" xlink:href="#DejaVuSans-65"/>
     <use x="3408.416016" xlink:href="#DejaVuSans-61"/>
     <use x="3492.205078" xlink:href="#DejaVuSans-50"/>
     <use x="3555.828125" xlink:href="#DejaVuSans-48"/>
    </g>
   </g>
   <g id="legend_1">
    <g id="patch_7">
     <path d="M 762.651937 254.210625 
L 853.716 254.210625 
Q 855.716 254.210625 855.716 252.210625 
L 855.716 178.429375 
Q 855.716 176.429375 853.716 176.429375 
L 762.651937 176.429375 
Q 760.651937 176.429375 760.651937 178.429375 
L 760.651937 252.210625 
Q 760.651937 254.210625 762.651937 254.210625 
z
" style="fill:#ffffff;opacity:0.8;stroke:#cccccc;stroke-linejoin:miter;"/>
    </g>
    <g id="line2d_22">
     <path d="M 764.651937 184.527812 
L 784.651937 184.527812 
" style="fill:none;stroke:#1f77b4;stroke-linecap:square;stroke-width:1.5;"/>
    </g>
    <g id="line2d_23"/>
    <g id="text_18">
     <!-- htm_0 -->
     <g transform="translate(792.651937 188.027812)scale(0.1 -0.1)">
      <use xlink:href="#DejaVuSans-104"/>
      <use x="63.378906" xlink:href="#DejaVuSans-116"/>
      <use x="102.587891" xlink:href="#DejaVuSans-109"/>
      <use x="200" xlink:href="#DejaVuSans-95"/>
      <use x="250" xlink:href="#DejaVuSans-48"/>
     </g>
    </g>
    <g id="line2d_24">
     <path d="M 764.651937 199.484062 
L 784.651937 199.484062 
" style="fill:none;stroke:#ff7f0e;stroke-linecap:square;stroke-width:1.5;"/>
    </g>
    <g id="line2d_25"/>
    <g id="text_19">
     <!-- dqn_greedy -->
     <defs>
      <path d="M 14.796875 27.296875 
Q 14.796875 17.390625 18.875 11.75 
Q 22.953125 6.109375 30.078125 6.109375 
Q 37.203125 6.109375 41.296875 11.75 
Q 45.40625 17.390625 45.40625 27.296875 
Q 45.40625 37.203125 41.296875 42.84375 
Q 37.203125 48.484375 30.078125 48.484375 
Q 22.953125 48.484375 18.875 42.84375 
Q 14.796875 37.203125 14.796875 27.296875 
z
M 45.40625 8.203125 
Q 42.578125 3.328125 38.25 0.953125 
Q 33.9375 -1.421875 27.875 -1.421875 
Q 17.96875 -1.421875 11.734375 6.484375 
Q 5.515625 14.40625 5.515625 27.296875 
Q 5.515625 40.1875 11.734375 48.09375 
Q 17.96875 56 27.875 56 
Q 33.9375 56 38.25 53.625 
Q 42.578125 51.265625 45.40625 46.390625 
L 45.40625 54.6875 
L 54.390625 54.6875 
L 54.390625 -20.796875 
L 45.40625 -20.796875 
z
" id="DejaVuSans-113"/>
     </defs>
     <g transform="translate(792.651937 202.984062)scale(0.1 -0.1)">
      <use xlink:href="#DejaVuSans-100"/>
      <use x="63.476562" xlink:href="#DejaVuSans-113"/>
      <use x="126.953125" xlink:href="#DejaVuSans-110"/>
      <use x="190.332031" xlink:href="#DejaVuSans-95"/>
      <use x="240.332031" xlink:href="#DejaVuSans-103"/>
      <use x="303.808594" xlink:href="#DejaVuSans-114"/>
      <use x="344.890625" xlink:href="#DejaVuSans-101"/>
      <use x="406.414062" xlink:href="#DejaVuSans-101"/>
      <use x="467.9375" xlink:href="#DejaVuSans-100"/>
      <use x="531.414062" xlink:href="#DejaVuSans-121"/>
     </g>
    </g>
    <g id="line2d_26">
     <path d="M 764.651937 214.440312 
L 784.651937 214.440312 
" style="fill:none;stroke:#2ca02c;stroke-linecap:square;stroke-width:1.5;"/>
    </g>
    <g id="line2d_27"/>
    <g id="text_20">
     <!-- htm_1_1g -->
     <g transform="translate(792.651937 217.940312)scale(0.1 -0.1)">
      <use xlink:href="#DejaVuSans-104"/>
      <use x="63.378906" xlink:href="#DejaVuSans-116"/>
      <use x="102.587891" xlink:href="#DejaVuSans-109"/>
      <use x="200" xlink:href="#DejaVuSans-95"/>
      <use x="250" xlink:href="#DejaVuSans-49"/>
      <use x="313.623047" xlink:href="#DejaVuSans-95"/>
      <use x="363.623047" xlink:href="#DejaVuSans-49"/>
      <use x="427.246094" xlink:href="#DejaVuSans-103"/>
     </g>
    </g>
    <g id="line2d_28">
     <path d="M 764.651937 229.396562 
L 784.651937 229.396562 
" style="fill:none;stroke:#d62728;stroke-linecap:square;stroke-width:1.5;"/>
    </g>
    <g id="line2d_29"/>
    <g id="text_21">
     <!-- htm_2_1g -->
     <g transform="translate(792.651937 232.896562)scale(0.1 -0.1)">
      <use xlink:href="#DejaVuSans-104"/>
      <use x="63.378906" xlink:href="#DejaVuSans-116"/>
      <use x="102.587891" xlink:href="#DejaVuSans-109"/>
      <use x="200" xlink:href="#DejaVuSans-95"/>
      <use x="250" xlink:href="#DejaVuSans-50"/>
      <use x="313.623047" xlink:href="#DejaVuSans-95"/>
      <use x="363.623047" xlink:href="#DejaVuSans-49"/>
      <use x="427.246094" xlink:href="#DejaVuSans-103"/>
     </g>
    </g>
    <g id="line2d_30">
     <path d="M 764.651937 244.352812 
L 784.651937 244.352812 
" style="fill:none;stroke:#9467bd;stroke-linecap:square;stroke-width:1.5;"/>
    </g>
    <g id="line2d_31"/>
    <g id="text_22">
     <!-- htm_4_1g -->
     <defs>
      <path d="M 37.796875 64.3125 
L 12.890625 25.390625 
L 37.796875 25.390625 
z
M 35.203125 72.90625 
L 47.609375 72.90625 
L 47.609375 25.390625 
L 58.015625 25.390625 
L 58.015625 17.1875 
L 47.609375 17.1875 
L 47.609375 0 
L 37.796875 0 
L 37.796875 17.1875 
L 4.890625 17.1875 
L 4.890625 26.703125 
z
" id="DejaVuSans-52"/>
     </defs>
     <g transform="translate(792.651937 247.852812)scale(0.1 -0.1)">
      <use xlink:href="#DejaVuSans-104"/>
      <use x="63.378906" xlink:href="#DejaVuSans-116"/>
      <use x="102.587891" xlink:href="#DejaVuSans-109"/>
      <use x="200" xlink:href="#DejaVuSans-95"/>
      <use x="250" xlink:href="#DejaVuSans-52"/>
      <use x="313.623047" xlink:href="#DejaVuSans-95"/>
      <use x="363.623047" xlink:href="#DejaVuSans-49"/>
      <use x="427.246094" xlink:href="#DejaVuSans-103"/>
     </g>
    </g>
   </g>
  </g>
 </g>
 <defs>
  <clipPath id="p6c9e6a9962">
   <rect height="377.6" width="682.18" x="42.1" y="26.52"/>
  </clipPath>
 </defs>
</svg>
