<?xml version="1.0" encoding="utf-8" standalone="no"?>
<!DOCTYPE svg PUBLIC "-//W3C//DTD SVG 1.1//EN"
  "http://www.w3.org/Graphics/SVG/1.1/DTD/svg11.dtd">
<!-- Created with matplotlib (https://matplotlib.org/) -->
<svg height="432pt" version="1.1" viewBox="0 0 864 432" width="864pt" xmlns="http://www.w3.org/2000/svg" xmlns:xlink="http://www.w3.org/1999/xlink">
 <defs>
  <style type="text/css">
*{stroke-linecap:butt;stroke-linejoin:round;}
  </style>
 </defs>
 <g id="figure_1">
  <g id="patch_1">
   <path d="M 0 432 
L 864 432 
L 864 0 
L 0 0 
z
" style="fill:#ffffff;"/>
  </g>
  <g id="axes_1">
   <g id="patch_2">
    <path d="M 36.925 404.12 
L 724.28 404.12 
L 724.28 26.16 
L 36.925 26.16 
z
" style="fill:#ffffff;"/>
   </g>
   <g id="matplotlib.axis_1">
    <g id="xtick_1">
     <g id="line2d_1">
      <defs>
       <path d="M 0 0 
L 0 3.5 
" id="mf31bcf9b17" style="stroke:#000000;stroke-width:0.8;"/>
      </defs>
      <g>
       <use style="stroke:#000000;stroke-width:0.8;" x="36.925" xlink:href="#mf31bcf9b17" y="404.12"/>
      </g>
     </g>
     <g id="text_1">
      <!-- 0 -->
      <defs>
       <path d="M 31.78125 66.40625 
Q 24.171875 66.40625 20.328125 58.90625 
Q 16.5 51.421875 16.5 36.375 
Q 16.5 21.390625 20.328125 13.890625 
Q 24.171875 6.390625 31.78125 6.390625 
Q 39.453125 6.390625 43.28125 13.890625 
Q 47.125 21.390625 47.125 36.375 
Q 47.125 51.421875 43.28125 58.90625 
Q 39.453125 66.40625 31.78125 66.40625 
z
M 31.78125 74.21875 
Q 44.046875 74.21875 50.515625 64.515625 
Q 56.984375 54.828125 56.984375 36.375 
Q 56.984375 17.96875 50.515625 8.265625 
Q 44.046875 -1.421875 31.78125 -1.421875 
Q 19.53125 -1.421875 13.0625 8.265625 
Q 6.59375 17.96875 6.59375 36.375 
Q 6.59375 54.828125 13.0625 64.515625 
Q 19.53125 74.21875 31.78125 74.21875 
z
" id="DejaVuSans-48"/>
      </defs>
      <g transform="translate(33.74375 418.718437)scale(0.1 -0.1)">
       <use xlink:href="#DejaVuSans-48"/>
      </g>
     </g>
    </g>
    <g id="xtick_2">
     <g id="line2d_2">
      <g>
       <use style="stroke:#000000;stroke-width:0.8;" x="151.675417" xlink:href="#mf31bcf9b17" y="404.12"/>
      </g>
     </g>
     <g id="text_2">
      <!-- 100 -->
      <defs>
       <path d="M 12.40625 8.296875 
L 28.515625 8.296875 
L 28.515625 63.921875 
L 10.984375 60.40625 
L 10.984375 69.390625 
L 28.421875 72.90625 
L 38.28125 72.90625 
L 38.28125 8.296875 
L 54.390625 8.296875 
L 54.390625 0 
L 12.40625 0 
z
" id="DejaVuSans-49"/>
      </defs>
      <g transform="translate(142.131667 418.718437)scale(0.1 -0.1)">
       <use xlink:href="#DejaVuSans-49"/>
       <use x="63.623047" xlink:href="#DejaVuSans-48"/>
       <use x="127.246094" xlink:href="#DejaVuSans-48"/>
      </g>
     </g>
    </g>
    <g id="xtick_3">
     <g id="line2d_3">
      <g>
       <use style="stroke:#000000;stroke-width:0.8;" x="266.425835" xlink:href="#mf31bcf9b17" y="404.12"/>
      </g>
     </g>
     <g id="text_3">
      <!-- 200 -->
      <defs>
       <path d="M 19.1875 8.296875 
L 53.609375 8.296875 
L 53.609375 0 
L 7.328125 0 
L 7.328125 8.296875 
Q 12.9375 14.109375 22.625 23.890625 
Q 32.328125 33.6875 34.8125 36.53125 
Q 39.546875 41.84375 41.421875 45.53125 
Q 43.3125 49.21875 43.3125 52.78125 
Q 43.3125 58.59375 39.234375 62.25 
Q 35.15625 65.921875 28.609375 65.921875 
Q 23.96875 65.921875 18.8125 64.3125 
Q 13.671875 62.703125 7.8125 59.421875 
L 7.8125 69.390625 
Q 13.765625 71.78125 18.9375 73 
Q 24.125 74.21875 28.421875 74.21875 
Q 39.75 74.21875 46.484375 68.546875 
Q 53.21875 62.890625 53.21875 53.421875 
Q 53.21875 48.921875 51.53125 44.890625 
Q 49.859375 40.875 45.40625 35.40625 
Q 44.1875 33.984375 37.640625 27.21875 
Q 31.109375 20.453125 19.1875 8.296875 
z
" id="DejaVuSans-50"/>
      </defs>
      <g transform="translate(256.882085 418.718437)scale(0.1 -0.1)">
       <use xlink:href="#DejaVuSans-50"/>
       <use x="63.623047" xlink:href="#DejaVuSans-48"/>
       <use x="127.246094" xlink:href="#DejaVuSans-48"/>
      </g>
     </g>
    </g>
    <g id="xtick_4">
     <g id="line2d_4">
      <g>
       <use style="stroke:#000000;stroke-width:0.8;" x="381.176252" xlink:href="#mf31bcf9b17" y="404.12"/>
      </g>
     </g>
     <g id="text_4">
      <!-- 300 -->
      <defs>
       <path d="M 40.578125 39.3125 
Q 47.65625 37.796875 51.625 33 
Q 55.609375 28.21875 55.609375 21.1875 
Q 55.609375 10.40625 48.1875 4.484375 
Q 40.765625 -1.421875 27.09375 -1.421875 
Q 22.515625 -1.421875 17.65625 -0.515625 
Q 12.796875 0.390625 7.625 2.203125 
L 7.625 11.71875 
Q 11.71875 9.328125 16.59375 8.109375 
Q 21.484375 6.890625 26.8125 6.890625 
Q 36.078125 6.890625 40.9375 10.546875 
Q 45.796875 14.203125 45.796875 21.1875 
Q 45.796875 27.640625 41.28125 31.265625 
Q 36.765625 34.90625 28.71875 34.90625 
L 20.21875 34.90625 
L 20.21875 43.015625 
L 29.109375 43.015625 
Q 36.375 43.015625 40.234375 45.921875 
Q 44.09375 48.828125 44.09375 54.296875 
Q 44.09375 59.90625 40.109375 62.90625 
Q 36.140625 65.921875 28.71875 65.921875 
Q 24.65625 65.921875 20.015625 65.03125 
Q 15.375 64.15625 9.8125 62.3125 
L 9.8125 71.09375 
Q 15.4375 72.65625 20.34375 73.4375 
Q 25.25 74.21875 29.59375 74.21875 
Q 40.828125 74.21875 47.359375 69.109375 
Q 53.90625 64.015625 53.90625 55.328125 
Q 53.90625 49.265625 50.4375 45.09375 
Q 46.96875 40.921875 40.578125 39.3125 
z
" id="DejaVuSans-51"/>
      </defs>
      <g transform="translate(371.632502 418.718437)scale(0.1 -0.1)">
       <use xlink:href="#DejaVuSans-51"/>
       <use x="63.623047" xlink:href="#DejaVuSans-48"/>
       <use x="127.246094" xlink:href="#DejaVuSans-48"/>
      </g>
     </g>
    </g>
    <g id="xtick_5">
     <g id="line2d_5">
      <g>
       <use style="stroke:#000000;stroke-width:0.8;" x="495.926669" xlink:href="#mf31bcf9b17" y="404.12"/>
      </g>
     </g>
     <g id="text_5">
      <!-- 400 -->
      <defs>
       <path d="M 37.796875 64.3125 
L 12.890625 25.390625 
L 37.796875 25.390625 
z
M 35.203125 72.90625 
L 47.609375 72.90625 
L 47.609375 25.390625 
L 58.015625 25.390625 
L 58.015625 17.1875 
L 47.609375 17.1875 
L 47.609375 0 
L 37.796875 0 
L 37.796875 17.1875 
L 4.890625 17.1875 
L 4.890625 26.703125 
z
" id="DejaVuSans-52"/>
      </defs>
      <g transform="translate(486.382919 418.718437)scale(0.1 -0.1)">
       <use xlink:href="#DejaVuSans-52"/>
       <use x="63.623047" xlink:href="#DejaVuSans-48"/>
       <use x="127.246094" xlink:href="#DejaVuSans-48"/>
      </g>
     </g>
    </g>
    <g id="xtick_6">
     <g id="line2d_6">
      <g>
       <use style="stroke:#000000;stroke-width:0.8;" x="610.677087" xlink:href="#mf31bcf9b17" y="404.12"/>
      </g>
     </g>
     <g id="text_6">
      <!-- 500 -->
      <defs>
       <path d="M 10.796875 72.90625 
L 49.515625 72.90625 
L 49.515625 64.59375 
L 19.828125 64.59375 
L 19.828125 46.734375 
Q 21.96875 47.46875 24.109375 47.828125 
Q 26.265625 48.1875 28.421875 48.1875 
Q 40.625 48.1875 47.75 41.5 
Q 54.890625 34.8125 54.890625 23.390625 
Q 54.890625 11.625 47.5625 5.09375 
Q 40.234375 -1.421875 26.90625 -1.421875 
Q 22.3125 -1.421875 17.546875 -0.640625 
Q 12.796875 0.140625 7.71875 1.703125 
L 7.71875 11.625 
Q 12.109375 9.234375 16.796875 8.0625 
Q 21.484375 6.890625 26.703125 6.890625 
Q 35.15625 6.890625 40.078125 11.328125 
Q 45.015625 15.765625 45.015625 23.390625 
Q 45.015625 31 40.078125 35.4375 
Q 35.15625 39.890625 26.703125 39.890625 
Q 22.75 39.890625 18.8125 39.015625 
Q 14.890625 38.140625 10.796875 36.28125 
z
" id="DejaVuSans-53"/>
      </defs>
      <g transform="translate(601.133337 418.718437)scale(0.1 -0.1)">
       <use xlink:href="#DejaVuSans-53"/>
       <use x="63.623047" xlink:href="#DejaVuSans-48"/>
       <use x="127.246094" xlink:href="#DejaVuSans-48"/>
      </g>
     </g>
    </g>
   </g>
   <g id="matplotlib.axis_2">
    <g id="ytick_1">
     <g id="line2d_7">
      <defs>
       <path d="M 0 0 
L -3.5 0 
" id="md63da13b84" style="stroke:#000000;stroke-width:0.8;"/>
      </defs>
      <g>
       <use style="stroke:#000000;stroke-width:0.8;" x="36.925" xlink:href="#md63da13b84" y="389.649779"/>
      </g>
     </g>
     <g id="text_7">
      <!-- 0 -->
      <g transform="translate(23.5625 393.448998)scale(0.1 -0.1)">
       <use xlink:href="#DejaVuSans-48"/>
      </g>
     </g>
    </g>
    <g id="ytick_2">
     <g id="line2d_8">
      <g>
       <use style="stroke:#000000;stroke-width:0.8;" x="36.925" xlink:href="#md63da13b84" y="321.9053"/>
      </g>
     </g>
     <g id="text_8">
      <!-- 50 -->
      <g transform="translate(17.2 325.704518)scale(0.1 -0.1)">
       <use xlink:href="#DejaVuSans-53"/>
       <use x="63.623047" xlink:href="#DejaVuSans-48"/>
      </g>
     </g>
    </g>
    <g id="ytick_3">
     <g id="line2d_9">
      <g>
       <use style="stroke:#000000;stroke-width:0.8;" x="36.925" xlink:href="#md63da13b84" y="254.16082"/>
      </g>
     </g>
     <g id="text_9">
      <!-- 100 -->
      <g transform="translate(10.8375 257.960039)scale(0.1 -0.1)">
       <use xlink:href="#DejaVuSans-49"/>
       <use x="63.623047" xlink:href="#DejaVuSans-48"/>
       <use x="127.246094" xlink:href="#DejaVuSans-48"/>
      </g>
     </g>
    </g>
    <g id="ytick_4">
     <g id="line2d_10">
      <g>
       <use style="stroke:#000000;stroke-width:0.8;" x="36.925" xlink:href="#md63da13b84" y="186.416341"/>
      </g>
     </g>
     <g id="text_10">
      <!-- 150 -->
      <g transform="translate(10.8375 190.215559)scale(0.1 -0.1)">
       <use xlink:href="#DejaVuSans-49"/>
       <use x="63.623047" xlink:href="#DejaVuSans-53"/>
       <use x="127.246094" xlink:href="#DejaVuSans-48"/>
      </g>
     </g>
    </g>
    <g id="ytick_5">
     <g id="line2d_11">
      <g>
       <use style="stroke:#000000;stroke-width:0.8;" x="36.925" xlink:href="#md63da13b84" y="118.671861"/>
      </g>
     </g>
     <g id="text_11">
      <!-- 200 -->
      <g transform="translate(10.8375 122.47108)scale(0.1 -0.1)">
       <use xlink:href="#DejaVuSans-50"/>
       <use x="63.623047" xlink:href="#DejaVuSans-48"/>
       <use x="127.246094" xlink:href="#DejaVuSans-48"/>
      </g>
     </g>
    </g>
    <g id="ytick_6">
     <g id="line2d_12">
      <g>
       <use style="stroke:#000000;stroke-width:0.8;" x="36.925" xlink:href="#md63da13b84" y="50.927382"/>
      </g>
     </g>
     <g id="text_12">
      <!-- 250 -->
      <g transform="translate(10.8375 54.7266)scale(0.1 -0.1)">
       <use xlink:href="#DejaVuSans-50"/>
       <use x="63.623047" xlink:href="#DejaVuSans-53"/>
       <use x="127.246094" xlink:href="#DejaVuSans-48"/>
      </g>
     </g>
    </g>
   </g>
   <g id="line2d_13">
    <path clip-path="url(#p9519d4f071)" d="M 58.727579 109.390868 
L 59.875083 133.643391 
L 61.022588 151.460189 
L 62.170092 134.591814 
L 63.317596 112.30388 
L 64.4651 109.797334 
L 65.612604 119.484795 
L 66.760109 136.556404 
L 67.907613 146.582587 
L 69.055117 150.850489 
L 70.202621 149.902066 
L 71.350125 150.579511 
L 72.497629 129.104511 
L 73.645134 150.850489 
L 74.792638 149.224621 
L 75.940142 162.773517 
L 77.087646 180.183849 
L 78.23515 187.635741 
L 79.382654 182.893628 
L 80.530159 183.909795 
L 81.677663 186.484085 
L 82.825167 162.231562 
L 83.972671 169.547965 
L 85.120175 188.719653 
L 86.267679 201.726593 
L 87.415184 205.181562 
L 88.562688 199.55877 
L 89.710192 197.59418 
L 90.857696 182.419416 
L 92.0052 156.405536 
L 93.152705 182.961372 
L 94.300209 200.642681 
L 95.447713 224.353249 
L 96.595217 212.972177 
L 97.742721 189.668076 
L 98.890225 190.616498 
L 100.03773 187.16153 
L 101.185234 164.467129 
L 102.332738 163.383218 
L 103.480242 159.725016 
L 104.627746 149.834322 
L 105.77525 167.718864 
L 106.922755 155.931325 
L 108.070259 132.965946 
L 109.217763 127.410899 
L 110.365267 117.316972 
L 111.512771 117.452461 
L 112.660275 99.974385 
L 113.80778 112.91358 
L 114.955284 133.236924 
L 116.102788 119.010584 
L 117.250292 94.216104 
L 118.397796 83.376987 
L 119.545301 93.335426 
L 120.692805 105.80041 
L 121.840309 87.712634 
L 122.987813 91.912792 
L 124.135317 117.723438 
L 125.282821 123.210741 
L 126.430326 123.34623 
L 127.57783 109.526356 
L 128.725334 107.494022 
L 129.872838 103.361609 
L 131.020342 125.785032 
L 132.167846 118.333139 
L 133.315351 123.007508 
L 134.462855 109.661845 
L 135.610359 126.530221 
L 136.757863 140.079117 
L 137.905367 130.391656 
L 139.052871 118.062161 
L 140.200376 116.436293 
L 141.34788 103.564842 
L 142.495384 79.244574 
L 143.642888 83.783454 
L 144.790392 107.494022 
L 145.937896 89.270757 
L 147.085401 63.46011 
L 148.232905 59.463186 
L 149.380409 58.717997 
L 150.527913 76.128328 
L 151.675417 86.357744 
L 152.822922 104.039054 
L 153.970426 108.510189 
L 155.11793 135.404748 
L 156.265434 141.569495 
L 157.412938 161.350883 
L 158.560442 171.377066 
L 159.707947 171.783533 
L 160.855451 188.042208 
L 165.445467 295.620442 
L 166.592972 305.511136 
L 167.740476 308.695126 
L 170.035484 362.484243 
L 171.182988 367.632823 
L 172.330492 375.28795 
L 173.477997 384.772177 
L 174.625501 385.58511 
L 265.278331 385.58511 
L 266.425835 362.755221 
L 288.228414 362.755221 
L 289.375918 385.58511 
L 380.028748 385.58511 
L 381.176252 369.190946 
L 402.978831 367.903801 
L 404.126336 384.230221 
L 494.779165 384.230221 
L 495.926669 379.894574 
L 517.729249 382.468864 
L 518.876753 386.94 
L 609.529583 386.94 
L 610.677087 373.526593 
L 611.824591 370.00388 
L 612.972095 365.735978 
L 614.119599 365.058533 
L 615.267104 355.371073 
L 616.414608 354.151672 
L 617.562112 339.247886 
L 618.709616 334.099306 
L 619.85712 316.824464 
L 621.004624 301.581956 
L 622.152129 299.346388 
L 623.299633 297.923754 
L 624.447137 295.688186 
L 625.594641 270.758218 
L 626.742145 266.287082 
L 627.889649 245.015315 
L 629.037154 229.976041 
L 630.184658 219.611136 
L 631.332162 217.578801 
L 632.479666 204.09765 
L 633.62717 215.885189 
L 634.774674 200.439448 
L 635.922179 203.013738 
L 637.069683 191.158454 
L 638.217187 173.883612 
L 639.364691 162.773517 
L 640.512195 158.641104 
L 641.659699 162.841262 
L 642.807204 153.153801 
L 643.954708 159.454038 
L 645.102212 149.495599 
L 646.249716 130.391656 
L 647.39722 115.894338 
L 648.544725 128.494811 
L 649.692229 131.543312 
L 650.839733 150.715 
L 651.987237 158.505615 
L 653.134741 162.163817 
L 654.282245 153.153801 
L 655.42975 154.711924 
L 656.577254 129.375489 
L 657.724758 143.330852 
L 658.872262 131.001356 
L 660.019766 137.504826 
L 661.16727 153.424779 
L 662.314775 158.099148 
L 663.462279 155.999069 
L 664.609783 152.273123 
L 665.757287 176.932114 
L 666.904791 173.477145 
L 668.052295 183.84205 
L 669.1998 180.116104 
L 670.347304 178.287003 
L 671.494808 186.280852 
L 672.642312 187.229274 
L 673.789816 176.796625 
L 674.937321 183.23235 
L 676.084825 188.448675 
L 677.232329 198.881325 
L 678.379833 195.900568 
L 679.527337 220.898281 
L 680.674841 202.945994 
L 681.822346 214.327066 
L 682.96985 218.323991 
L 684.117354 202.404038 
L 685.264858 203.691183 
L 686.412362 223.811293 
L 688.707371 210.465631 
L 689.854875 217.443312 
L 691.002379 192.31011 
L 692.149883 206.06224 
L 693.297387 222.185426 
L 695.592396 182.283927 
L 696.7399 175.983691 
L 697.887404 157.489448 
L 699.034908 155.524858 
L 700.182412 129.172256 
L 701.329917 120.77194 
L 702.477421 95.774227 
L 703.624925 107.019811 
L 704.772429 91.574069 
L 705.919933 66.644101 
L 707.067437 85.612555 
L 708.214942 79.17683 
L 709.362446 75.383139 
L 710.50995 76.331562 
L 711.657454 58.108297 
L 712.804958 61.563265 
L 713.952462 61.563265 
L 715.099967 67.863502 
L 716.247471 43.34 
L 717.394975 64.137555 
L 718.542479 79.922019 
L 719.689983 92.319259 
L 720.837487 84.664132 
L 721.984992 70.844259 
L 723.132496 95.029038 
L 724.28 105.393943 
L 724.28 105.393943 
" style="fill:none;stroke:#1f77b4;stroke-linecap:square;stroke-width:1.5;"/>
   </g>
   <g id="line2d_14">
    <path clip-path="url(#p9519d4f071)" d="M 58.727579 109.390868 
L 59.875083 133.643391 
L 61.022588 151.460189 
L 62.170092 134.591814 
L 63.317596 112.30388 
L 64.4651 109.797334 
L 65.612604 119.484795 
L 66.760109 136.556404 
L 67.907613 146.582587 
L 69.055117 150.850489 
L 70.202621 149.902066 
L 71.350125 150.579511 
L 72.497629 129.104511 
L 73.645134 150.850489 
L 74.792638 149.224621 
L 75.940142 162.773517 
L 77.087646 180.183849 
L 78.23515 187.635741 
L 79.382654 182.893628 
L 80.530159 183.909795 
L 81.677663 186.484085 
L 82.825167 162.231562 
L 83.972671 169.547965 
L 85.120175 188.719653 
L 86.267679 201.726593 
L 87.415184 205.181562 
L 88.562688 199.55877 
L 89.710192 197.59418 
L 90.857696 182.419416 
L 92.0052 156.405536 
L 93.152705 182.961372 
L 94.300209 200.642681 
L 95.447713 224.353249 
L 96.595217 212.972177 
L 97.742721 189.668076 
L 98.890225 190.616498 
L 100.03773 187.16153 
L 101.185234 164.467129 
L 102.332738 163.383218 
L 103.480242 159.725016 
L 104.627746 149.834322 
L 105.77525 167.718864 
L 106.922755 155.931325 
L 108.070259 132.965946 
L 109.217763 127.410899 
L 110.365267 117.316972 
L 111.512771 117.452461 
L 112.660275 99.974385 
L 113.80778 112.91358 
L 114.955284 133.236924 
L 116.102788 119.010584 
L 117.250292 94.216104 
L 118.397796 83.376987 
L 119.545301 93.335426 
L 120.692805 105.80041 
L 121.840309 87.712634 
L 122.987813 91.912792 
L 124.135317 117.723438 
L 125.282821 123.210741 
L 126.430326 123.34623 
L 127.57783 109.526356 
L 128.725334 107.494022 
L 129.872838 103.361609 
L 131.020342 125.785032 
L 132.167846 118.333139 
L 133.315351 123.007508 
L 134.462855 109.661845 
L 135.610359 126.530221 
L 136.757863 140.079117 
L 137.905367 130.391656 
L 139.052871 118.062161 
L 140.200376 116.436293 
L 141.34788 103.564842 
L 142.495384 79.244574 
L 143.642888 83.783454 
L 144.790392 107.494022 
L 145.937896 89.270757 
L 147.085401 63.46011 
L 148.232905 59.463186 
L 149.380409 58.717997 
L 150.527913 76.128328 
L 151.675417 86.357744 
L 152.822922 104.039054 
L 153.970426 108.510189 
L 155.11793 135.404748 
L 156.265434 141.569495 
L 157.412938 161.350883 
L 158.560442 171.377066 
L 159.707947 171.783533 
L 160.855451 188.042208 
L 165.445467 295.620442 
L 166.592972 305.511136 
L 167.740476 308.695126 
L 170.035484 362.484243 
L 171.182988 367.632823 
L 172.330492 375.28795 
L 173.477997 384.772177 
L 174.625501 385.58511 
L 265.278331 385.58511 
L 266.425835 362.755221 
L 267.573339 361.874543 
L 268.720843 360.587397 
L 269.868347 359.977697 
L 271.015851 358.080852 
L 272.163356 357.064685 
L 273.31086 356.522729 
L 274.458364 355.438817 
L 275.605868 354.829117 
L 276.753372 354.354905 
L 277.900876 353.203249 
L 279.048381 351.712871 
L 281.343389 349.748281 
L 284.785902 348.325647 
L 285.933406 347.444968 
L 287.08091 345.412634 
L 288.228414 344.464211 
L 289.375918 366.548912 
L 290.523422 366.481167 
L 291.670927 367.361845 
L 292.818431 365.735978 
L 293.965935 364.516577 
L 295.113439 364.719811 
L 296.260943 364.719811 
L 297.408447 365.329511 
L 298.555952 365.397256 
L 299.703456 365.194022 
L 301.998464 363.026199 
L 303.145968 361.197098 
L 304.293472 361.197098 
L 305.440977 359.097019 
L 306.588481 357.674385 
L 307.735985 356.048517 
L 308.883489 356.251751 
L 310.030993 357.200174 
L 311.178497 357.403407 
L 312.326002 356.99694 
L 313.473506 356.99694 
L 314.62101 355.777539 
L 315.768514 354.016183 
L 316.916018 355.371073 
L 318.063523 351.441893 
L 320.358531 349.951514 
L 321.506035 348.935347 
L 322.653539 348.799858 
L 323.801043 350.561215 
L 324.948548 350.899937 
L 326.096052 351.577382 
L 327.243556 351.84836 
L 328.39106 353.474227 
L 329.538564 354.558139 
L 330.686068 356.116262 
L 331.833573 352.796782 
L 334.128581 352.45806 
L 335.276085 350.967681 
L 336.423589 349.003091 
L 337.571093 349.680536 
L 338.718598 353.203249 
L 339.866102 353.880694 
L 341.013606 357.60664 
L 342.16111 357.60664 
L 343.308614 357.809874 
L 344.456119 354.625883 
L 345.603623 354.42265 
L 346.751127 350.899937 
L 347.898631 352.729038 
L 349.046135 353.541972 
L 350.193639 351.441893 
L 352.488648 351.577382 
L 353.636152 350.425726 
L 354.783656 354.016183 
L 355.93116 354.490394 
L 357.078664 354.151672 
L 358.226169 354.761372 
L 359.373673 357.200174 
L 360.521177 357.538896 
L 361.668681 356.319495 
L 362.816185 353.270994 
L 363.963689 353.203249 
L 365.111194 353.81295 
L 366.258698 352.322571 
L 367.406202 356.454984 
L 368.553706 357.064685 
L 369.70121 360.587397 
L 370.848715 358.284085 
L 371.996219 358.893785 
L 373.143723 361.264842 
L 374.291227 360.790631 
L 375.438731 358.893785 
L 376.586235 360.180931 
L 377.73374 360.180931 
L 378.881244 360.384164 
L 380.028748 360.31642 
L 381.176252 353.135505 
L 382.323756 351.441893 
L 383.47126 350.899937 
L 385.766269 351.441893 
L 386.913773 349.341814 
L 388.061277 346.090079 
L 389.208781 346.767524 
L 390.356285 345.615868 
L 391.50379 342.093155 
L 392.651294 340.535032 
L 393.798798 340.941498 
L 394.946302 338.909164 
L 396.093806 337.215552 
L 397.241311 336.538107 
L 398.388815 336.402618 
L 399.536319 334.031562 
L 400.683823 332.473438 
L 401.831327 330.170126 
L 402.978831 329.357192 
L 404.126336 333.828328 
L 405.27384 334.099306 
L 406.421344 331.525016 
L 407.568848 329.560426 
L 408.716352 330.37336 
L 409.863856 332.066972 
L 411.011361 334.031562 
L 412.158865 333.354117 
L 413.306369 331.457271 
L 414.453873 333.896073 
L 415.601377 332.676672 
L 416.748881 330.847571 
L 419.04389 331.186293 
L 420.191394 331.59276 
L 421.338898 332.812161 
L 423.633907 334.709006 
L 424.781411 333.421861 
L 425.928915 333.692839 
L 427.076419 335.52194 
L 428.223923 334.91224 
L 429.371427 337.283297 
L 430.518932 339.315631 
L 431.666436 339.180142 
L 432.81394 337.689763 
L 435.108948 338.231719 
L 436.256452 340.602776 
L 437.403957 338.434953 
L 438.551461 340.602776 
L 439.698965 340.196309 
L 440.846469 340.128565 
L 441.993973 339.857587 
L 443.141477 337.418785 
L 444.288982 335.318707 
L 445.436486 331.525016 
L 446.58399 330.779826 
L 447.731494 333.286372 
L 448.878998 333.286372 
L 450.026503 334.302539 
L 451.174007 335.047729 
L 452.321511 334.573517 
L 453.469015 333.692839 
L 454.616519 334.776751 
L 455.764023 335.115473 
L 456.911528 332.33795 
L 458.059032 331.795994 
L 459.206536 329.01847 
L 460.35404 331.050804 
L 461.501544 328.747492 
L 462.649048 331.457271 
L 464.944057 326.715158 
L 466.091561 326.376435 
L 467.239065 328.544259 
L 468.386569 329.763659 
L 469.534073 329.492681 
L 470.681578 326.240946 
L 471.829082 326.308691 
L 472.976586 326.647413 
L 474.12409 326.037713 
L 475.271594 324.005379 
L 476.419098 324.615079 
L 477.566603 324.547334 
L 478.714107 324.615079 
L 479.861611 326.579669 
L 481.009115 327.392603 
L 482.156619 329.153959 
L 483.304124 328.950726 
L 484.451628 330.576593 
L 485.599132 330.712082 
L 486.746636 334.234795 
L 487.89414 334.16705 
L 489.041644 336.402618 
L 490.189149 332.608927 
L 491.336653 333.55735 
L 492.484157 330.915315 
L 493.631661 328.882981 
L 494.779165 329.424937 
L 495.926669 319.805221 
L 497.074174 322.244022 
L 498.221678 326.173202 
L 499.369182 327.866814 
L 500.516686 330.102382 
L 502.811694 335.318707 
L 503.959199 337.351041 
L 505.106703 339.722098 
L 508.549215 345.209401 
L 509.69672 346.835268 
L 510.844224 351.509637 
L 511.991728 353.745205 
L 513.139232 359.029274 
L 514.286736 362.619732 
L 515.43424 367.361845 
L 516.581745 374.407271 
L 517.729249 375.694416 
L 518.876753 386.94 
L 609.529583 386.94 
L 610.677087 383.417287 
L 611.824591 380.301041 
L 612.972095 361.061609 
L 614.119599 356.658218 
L 615.267104 352.932271 
L 616.414608 341.551199 
L 617.562112 338.299464 
L 618.709616 333.692839 
L 619.85712 330.37336 
L 621.004624 324.750568 
L 622.152129 320.008454 
L 624.447137 305.443391 
L 625.594641 293.520363 
L 626.742145 288.913738 
L 629.037154 278.819811 
L 630.184658 274.484164 
L 631.332162 247.521861 
L 632.479666 244.134637 
L 633.62717 243.931404 
L 634.774674 243.999148 
L 635.922179 261.477224 
L 638.217187 263.916025 
L 639.364691 269.877539 
L 640.512195 269.538817 
L 642.807204 269.200095 
L 643.954708 268.387161 
L 646.249716 273.806719 
L 647.39722 274.822886 
L 648.544725 264.728959 
L 649.692229 265.474148 
L 650.839733 253.415631 
L 651.987237 254.296309 
L 653.134741 252.19623 
L 654.282245 260.867524 
L 655.42975 262.290158 
L 656.577254 247.589606 
L 657.724758 245.421782 
L 658.872262 242.779748 
L 660.019766 240.882902 
L 661.16727 240.679669 
L 662.314775 241.086136 
L 663.462279 241.086136 
L 664.609783 242.441025 
L 665.757287 233.092287 
L 666.904791 236.0053 
L 668.052295 234.108454 
L 669.1998 218.188502 
L 670.347304 221.237003 
L 671.494808 216.291656 
L 672.642312 210.059164 
L 673.789816 223.811293 
L 674.937321 223.811293 
L 676.084825 226.521073 
L 677.232329 239.663502 
L 678.379833 238.444101 
L 679.527337 253.076909 
L 680.674841 256.260899 
L 681.822346 257.209322 
L 682.96985 256.328644 
L 684.117354 253.957587 
L 685.264858 255.176987 
L 686.412362 255.312476 
L 687.559866 253.686609 
L 688.707371 241.357114 
L 689.854875 242.305536 
L 691.002379 243.72817 
L 692.149883 238.715079 
L 693.297387 238.240868 
L 694.444891 247.792839 
L 695.592396 253.280142 
L 696.7399 240.679669 
L 697.887404 233.634243 
L 699.034908 227.334006 
L 700.182412 230.179274 
L 701.329917 230.72123 
L 702.477421 231.46642 
L 703.624925 229.637319 
L 704.772429 217.375568 
L 705.919933 196.374779 
L 707.067437 197.865158 
L 708.214942 198.678091 
L 709.362446 197.052224 
L 710.50995 199.55877 
L 711.657454 218.053013 
L 712.804958 193.665 
L 713.952462 192.581088 
L 715.099967 212.56571 
L 717.394975 193.868233 
L 718.542479 195.223123 
L 719.689983 203.826672 
L 720.837487 208.63653 
L 721.984992 210.330142 
L 723.132496 209.449464 
L 724.28 198.068391 
L 724.28 198.068391 
" style="fill:none;stroke:#ff7f0e;stroke-linecap:square;stroke-width:1.5;"/>
   </g>
   <g id="patch_3">
    <path d="M 36.925 404.12 
L 36.925 26.16 
" style="fill:none;stroke:#000000;stroke-linecap:square;stroke-linejoin:miter;stroke-width:0.8;"/>
   </g>
   <g id="patch_4">
    <path d="M 724.28 404.12 
L 724.28 26.16 
" style="fill:none;stroke:#000000;stroke-linecap:square;stroke-linejoin:miter;stroke-width:0.8;"/>
   </g>
   <g id="patch_5">
    <path d="M 36.925 404.12 
L 724.28 404.12 
" style="fill:none;stroke:#000000;stroke-linecap:square;stroke-linejoin:miter;stroke-width:0.8;"/>
   </g>
   <g id="patch_6">
    <path d="M 36.925 26.16 
L 724.28 26.16 
" style="fill:none;stroke:#000000;stroke-linecap:square;stroke-linejoin:miter;stroke-width:0.8;"/>
   </g>
   <g id="text_13">
    <!-- multi_way_v2__4: episode duration, steps, MA=20 -->
    <defs>
     <path d="M 52 44.1875 
Q 55.375 50.25 60.0625 53.125 
Q 64.75 56 71.09375 56 
Q 79.640625 56 84.28125 50.015625 
Q 88.921875 44.046875 88.921875 33.015625 
L 88.921875 0 
L 79.890625 0 
L 79.890625 32.71875 
Q 79.890625 40.578125 77.09375 44.375 
Q 74.3125 48.1875 68.609375 48.1875 
Q 61.625 48.1875 57.5625 43.546875 
Q 53.515625 38.921875 53.515625 30.90625 
L 53.515625 0 
L 44.484375 0 
L 44.484375 32.71875 
Q 44.484375 40.625 41.703125 44.40625 
Q 38.921875 48.1875 33.109375 48.1875 
Q 26.21875 48.1875 22.15625 43.53125 
Q 18.109375 38.875 18.109375 30.90625 
L 18.109375 0 
L 9.078125 0 
L 9.078125 54.6875 
L 18.109375 54.6875 
L 18.109375 46.1875 
Q 21.1875 51.21875 25.484375 53.609375 
Q 29.78125 56 35.6875 56 
Q 41.65625 56 45.828125 52.96875 
Q 50 49.953125 52 44.1875 
z
" id="DejaVuSans-109"/>
     <path d="M 8.5 21.578125 
L 8.5 54.6875 
L 17.484375 54.6875 
L 17.484375 21.921875 
Q 17.484375 14.15625 20.5 10.265625 
Q 23.53125 6.390625 29.59375 6.390625 
Q 36.859375 6.390625 41.078125 11.03125 
Q 45.3125 15.671875 45.3125 23.6875 
L 45.3125 54.6875 
L 54.296875 54.6875 
L 54.296875 0 
L 45.3125 0 
L 45.3125 8.40625 
Q 42.046875 3.421875 37.71875 1 
Q 33.40625 -1.421875 27.6875 -1.421875 
Q 18.265625 -1.421875 13.375 4.4375 
Q 8.5 10.296875 8.5 21.578125 
z
M 31.109375 56 
z
" id="DejaVuSans-117"/>
     <path d="M 9.421875 75.984375 
L 18.40625 75.984375 
L 18.40625 0 
L 9.421875 0 
z
" id="DejaVuSans-108"/>
     <path d="M 18.3125 70.21875 
L 18.3125 54.6875 
L 36.8125 54.6875 
L 36.8125 47.703125 
L 18.3125 47.703125 
L 18.3125 18.015625 
Q 18.3125 11.328125 20.140625 9.421875 
Q 21.96875 7.515625 27.59375 7.515625 
L 36.8125 7.515625 
L 36.8125 0 
L 27.59375 0 
Q 17.1875 0 13.234375 3.875 
Q 9.28125 7.765625 9.28125 18.015625 
L 9.28125 47.703125 
L 2.6875 47.703125 
L 2.6875 54.6875 
L 9.28125 54.6875 
L 9.28125 70.21875 
z
" id="DejaVuSans-116"/>
     <path d="M 9.421875 54.6875 
L 18.40625 54.6875 
L 18.40625 0 
L 9.421875 0 
z
M 9.421875 75.984375 
L 18.40625 75.984375 
L 18.40625 64.59375 
L 9.421875 64.59375 
z
" id="DejaVuSans-105"/>
     <path d="M 50.984375 -16.609375 
L 50.984375 -23.578125 
L -0.984375 -23.578125 
L -0.984375 -16.609375 
z
" id="DejaVuSans-95"/>
     <path d="M 4.203125 54.6875 
L 13.1875 54.6875 
L 24.421875 12.015625 
L 35.59375 54.6875 
L 46.1875 54.6875 
L 57.421875 12.015625 
L 68.609375 54.6875 
L 77.59375 54.6875 
L 63.28125 0 
L 52.6875 0 
L 40.921875 44.828125 
L 29.109375 0 
L 18.5 0 
z
" id="DejaVuSans-119"/>
     <path d="M 34.28125 27.484375 
Q 23.390625 27.484375 19.1875 25 
Q 14.984375 22.515625 14.984375 16.5 
Q 14.984375 11.71875 18.140625 8.90625 
Q 21.296875 6.109375 26.703125 6.109375 
Q 34.1875 6.109375 38.703125 11.40625 
Q 43.21875 16.703125 43.21875 25.484375 
L 43.21875 27.484375 
z
M 52.203125 31.203125 
L 52.203125 0 
L 43.21875 0 
L 43.21875 8.296875 
Q 40.140625 3.328125 35.546875 0.953125 
Q 30.953125 -1.421875 24.3125 -1.421875 
Q 15.921875 -1.421875 10.953125 3.296875 
Q 6 8.015625 6 15.921875 
Q 6 25.140625 12.171875 29.828125 
Q 18.359375 34.515625 30.609375 34.515625 
L 43.21875 34.515625 
L 43.21875 35.40625 
Q 43.21875 41.609375 39.140625 45 
Q 35.0625 48.390625 27.6875 48.390625 
Q 23 48.390625 18.546875 47.265625 
Q 14.109375 46.140625 10.015625 43.890625 
L 10.015625 52.203125 
Q 14.9375 54.109375 19.578125 55.046875 
Q 24.21875 56 28.609375 56 
Q 40.484375 56 46.34375 49.84375 
Q 52.203125 43.703125 52.203125 31.203125 
z
" id="DejaVuSans-97"/>
     <path d="M 32.171875 -5.078125 
Q 28.375 -14.84375 24.75 -17.8125 
Q 21.140625 -20.796875 15.09375 -20.796875 
L 7.90625 -20.796875 
L 7.90625 -13.28125 
L 13.1875 -13.28125 
Q 16.890625 -13.28125 18.9375 -11.515625 
Q 21 -9.765625 23.484375 -3.21875 
L 25.09375 0.875 
L 2.984375 54.6875 
L 12.5 54.6875 
L 29.59375 11.921875 
L 46.6875 54.6875 
L 56.203125 54.6875 
z
" id="DejaVuSans-121"/>
     <path d="M 2.984375 54.6875 
L 12.5 54.6875 
L 29.59375 8.796875 
L 46.6875 54.6875 
L 56.203125 54.6875 
L 35.6875 0 
L 23.484375 0 
z
" id="DejaVuSans-118"/>
     <path d="M 11.71875 12.40625 
L 22.015625 12.40625 
L 22.015625 0 
L 11.71875 0 
z
M 11.71875 51.703125 
L 22.015625 51.703125 
L 22.015625 39.3125 
L 11.71875 39.3125 
z
" id="DejaVuSans-58"/>
     <path id="DejaVuSans-32"/>
     <path d="M 56.203125 29.59375 
L 56.203125 25.203125 
L 14.890625 25.203125 
Q 15.484375 15.921875 20.484375 11.0625 
Q 25.484375 6.203125 34.421875 6.203125 
Q 39.59375 6.203125 44.453125 7.46875 
Q 49.3125 8.734375 54.109375 11.28125 
L 54.109375 2.78125 
Q 49.265625 0.734375 44.1875 -0.34375 
Q 39.109375 -1.421875 33.890625 -1.421875 
Q 20.796875 -1.421875 13.15625 6.1875 
Q 5.515625 13.8125 5.515625 26.8125 
Q 5.515625 40.234375 12.765625 48.109375 
Q 20.015625 56 32.328125 56 
Q 43.359375 56 49.78125 48.890625 
Q 56.203125 41.796875 56.203125 29.59375 
z
M 47.21875 32.234375 
Q 47.125 39.59375 43.09375 43.984375 
Q 39.0625 48.390625 32.421875 48.390625 
Q 24.90625 48.390625 20.390625 44.140625 
Q 15.875 39.890625 15.1875 32.171875 
z
" id="DejaVuSans-101"/>
     <path d="M 18.109375 8.203125 
L 18.109375 -20.796875 
L 9.078125 -20.796875 
L 9.078125 54.6875 
L 18.109375 54.6875 
L 18.109375 46.390625 
Q 20.953125 51.265625 25.265625 53.625 
Q 29.59375 56 35.59375 56 
Q 45.5625 56 51.78125 48.09375 
Q 58.015625 40.1875 58.015625 27.296875 
Q 58.015625 14.40625 51.78125 6.484375 
Q 45.5625 -1.421875 35.59375 -1.421875 
Q 29.59375 -1.421875 25.265625 0.953125 
Q 20.953125 3.328125 18.109375 8.203125 
z
M 48.6875 27.296875 
Q 48.6875 37.203125 44.609375 42.84375 
Q 40.53125 48.484375 33.40625 48.484375 
Q 26.265625 48.484375 22.1875 42.84375 
Q 18.109375 37.203125 18.109375 27.296875 
Q 18.109375 17.390625 22.1875 11.75 
Q 26.265625 6.109375 33.40625 6.109375 
Q 40.53125 6.109375 44.609375 11.75 
Q 48.6875 17.390625 48.6875 27.296875 
z
" id="DejaVuSans-112"/>
     <path d="M 44.28125 53.078125 
L 44.28125 44.578125 
Q 40.484375 46.53125 36.375 47.5 
Q 32.28125 48.484375 27.875 48.484375 
Q 21.1875 48.484375 17.84375 46.4375 
Q 14.5 44.390625 14.5 40.28125 
Q 14.5 37.15625 16.890625 35.375 
Q 19.28125 33.59375 26.515625 31.984375 
L 29.59375 31.296875 
Q 39.15625 29.25 43.1875 25.515625 
Q 47.21875 21.78125 47.21875 15.09375 
Q 47.21875 7.46875 41.1875 3.015625 
Q 35.15625 -1.421875 24.609375 -1.421875 
Q 20.21875 -1.421875 15.453125 -0.5625 
Q 10.6875 0.296875 5.421875 2 
L 5.421875 11.28125 
Q 10.40625 8.6875 15.234375 7.390625 
Q 20.0625 6.109375 24.8125 6.109375 
Q 31.15625 6.109375 34.5625 8.28125 
Q 37.984375 10.453125 37.984375 14.40625 
Q 37.984375 18.0625 35.515625 20.015625 
Q 33.0625 21.96875 24.703125 23.78125 
L 21.578125 24.515625 
Q 13.234375 26.265625 9.515625 29.90625 
Q 5.8125 33.546875 5.8125 39.890625 
Q 5.8125 47.609375 11.28125 51.796875 
Q 16.75 56 26.8125 56 
Q 31.78125 56 36.171875 55.265625 
Q 40.578125 54.546875 44.28125 53.078125 
z
" id="DejaVuSans-115"/>
     <path d="M 30.609375 48.390625 
Q 23.390625 48.390625 19.1875 42.75 
Q 14.984375 37.109375 14.984375 27.296875 
Q 14.984375 17.484375 19.15625 11.84375 
Q 23.34375 6.203125 30.609375 6.203125 
Q 37.796875 6.203125 41.984375 11.859375 
Q 46.1875 17.53125 46.1875 27.296875 
Q 46.1875 37.015625 41.984375 42.703125 
Q 37.796875 48.390625 30.609375 48.390625 
z
M 30.609375 56 
Q 42.328125 56 49.015625 48.375 
Q 55.71875 40.765625 55.71875 27.296875 
Q 55.71875 13.875 49.015625 6.21875 
Q 42.328125 -1.421875 30.609375 -1.421875 
Q 18.84375 -1.421875 12.171875 6.21875 
Q 5.515625 13.875 5.515625 27.296875 
Q 5.515625 40.765625 12.171875 48.375 
Q 18.84375 56 30.609375 56 
z
" id="DejaVuSans-111"/>
     <path d="M 45.40625 46.390625 
L 45.40625 75.984375 
L 54.390625 75.984375 
L 54.390625 0 
L 45.40625 0 
L 45.40625 8.203125 
Q 42.578125 3.328125 38.25 0.953125 
Q 33.9375 -1.421875 27.875 -1.421875 
Q 17.96875 -1.421875 11.734375 6.484375 
Q 5.515625 14.40625 5.515625 27.296875 
Q 5.515625 40.1875 11.734375 48.09375 
Q 17.96875 56 27.875 56 
Q 33.9375 56 38.25 53.625 
Q 42.578125 51.265625 45.40625 46.390625 
z
M 14.796875 27.296875 
Q 14.796875 17.390625 18.875 11.75 
Q 22.953125 6.109375 30.078125 6.109375 
Q 37.203125 6.109375 41.296875 11.75 
Q 45.40625 17.390625 45.40625 27.296875 
Q 45.40625 37.203125 41.296875 42.84375 
Q 37.203125 48.484375 30.078125 48.484375 
Q 22.953125 48.484375 18.875 42.84375 
Q 14.796875 37.203125 14.796875 27.296875 
z
" id="DejaVuSans-100"/>
     <path d="M 41.109375 46.296875 
Q 39.59375 47.171875 37.8125 47.578125 
Q 36.03125 48 33.890625 48 
Q 26.265625 48 22.1875 43.046875 
Q 18.109375 38.09375 18.109375 28.8125 
L 18.109375 0 
L 9.078125 0 
L 9.078125 54.6875 
L 18.109375 54.6875 
L 18.109375 46.1875 
Q 20.953125 51.171875 25.484375 53.578125 
Q 30.03125 56 36.53125 56 
Q 37.453125 56 38.578125 55.875 
Q 39.703125 55.765625 41.0625 55.515625 
z
" id="DejaVuSans-114"/>
     <path d="M 54.890625 33.015625 
L 54.890625 0 
L 45.90625 0 
L 45.90625 32.71875 
Q 45.90625 40.484375 42.875 44.328125 
Q 39.84375 48.1875 33.796875 48.1875 
Q 26.515625 48.1875 22.3125 43.546875 
Q 18.109375 38.921875 18.109375 30.90625 
L 18.109375 0 
L 9.078125 0 
L 9.078125 54.6875 
L 18.109375 54.6875 
L 18.109375 46.1875 
Q 21.34375 51.125 25.703125 53.5625 
Q 30.078125 56 35.796875 56 
Q 45.21875 56 50.046875 50.171875 
Q 54.890625 44.34375 54.890625 33.015625 
z
" id="DejaVuSans-110"/>
     <path d="M 11.71875 12.40625 
L 22.015625 12.40625 
L 22.015625 4 
L 14.015625 -11.625 
L 7.71875 -11.625 
L 11.71875 4 
z
" id="DejaVuSans-44"/>
     <path d="M 9.8125 72.90625 
L 24.515625 72.90625 
L 43.109375 23.296875 
L 61.8125 72.90625 
L 76.515625 72.90625 
L 76.515625 0 
L 66.890625 0 
L 66.890625 64.015625 
L 48.09375 14.015625 
L 38.1875 14.015625 
L 19.390625 64.015625 
L 19.390625 0 
L 9.8125 0 
z
" id="DejaVuSans-77"/>
     <path d="M 34.1875 63.1875 
L 20.796875 26.90625 
L 47.609375 26.90625 
z
M 28.609375 72.90625 
L 39.796875 72.90625 
L 67.578125 0 
L 57.328125 0 
L 50.6875 18.703125 
L 17.828125 18.703125 
L 11.1875 0 
L 0.78125 0 
z
" id="DejaVuSans-65"/>
     <path d="M 10.59375 45.40625 
L 73.1875 45.40625 
L 73.1875 37.203125 
L 10.59375 37.203125 
z
M 10.59375 25.484375 
L 73.1875 25.484375 
L 73.1875 17.1875 
L 10.59375 17.1875 
z
" id="DejaVuSans-61"/>
    </defs>
    <g transform="translate(229.724062 20.16)scale(0.12 -0.12)">
     <use xlink:href="#DejaVuSans-109"/>
     <use x="97.412109" xlink:href="#DejaVuSans-117"/>
     <use x="160.791016" xlink:href="#DejaVuSans-108"/>
     <use x="188.574219" xlink:href="#DejaVuSans-116"/>
     <use x="227.783203" xlink:href="#DejaVuSans-105"/>
     <use x="255.566406" xlink:href="#DejaVuSans-95"/>
     <use x="305.566406" xlink:href="#DejaVuSans-119"/>
     <use x="387.353516" xlink:href="#DejaVuSans-97"/>
     <use x="448.632812" xlink:href="#DejaVuSans-121"/>
     <use x="507.8125" xlink:href="#DejaVuSans-95"/>
     <use x="557.8125" xlink:href="#DejaVuSans-118"/>
     <use x="616.992188" xlink:href="#DejaVuSans-50"/>
     <use x="680.615234" xlink:href="#DejaVuSans-95"/>
     <use x="730.615234" xlink:href="#DejaVuSans-95"/>
     <use x="780.615234" xlink:href="#DejaVuSans-52"/>
     <use x="844.238281" xlink:href="#DejaVuSans-58"/>
     <use x="877.929688" xlink:href="#DejaVuSans-32"/>
     <use x="909.716797" xlink:href="#DejaVuSans-101"/>
     <use x="971.240234" xlink:href="#DejaVuSans-112"/>
     <use x="1034.716797" xlink:href="#DejaVuSans-105"/>
     <use x="1062.5" xlink:href="#DejaVuSans-115"/>
     <use x="1114.599609" xlink:href="#DejaVuSans-111"/>
     <use x="1175.78125" xlink:href="#DejaVuSans-100"/>
     <use x="1239.257812" xlink:href="#DejaVuSans-101"/>
     <use x="1300.78125" xlink:href="#DejaVuSans-32"/>
     <use x="1332.568359" xlink:href="#DejaVuSans-100"/>
     <use x="1396.044922" xlink:href="#DejaVuSans-117"/>
     <use x="1459.423828" xlink:href="#DejaVuSans-114"/>
     <use x="1500.537109" xlink:href="#DejaVuSans-97"/>
     <use x="1561.816406" xlink:href="#DejaVuSans-116"/>
     <use x="1601.025391" xlink:href="#DejaVuSans-105"/>
     <use x="1628.808594" xlink:href="#DejaVuSans-111"/>
     <use x="1689.990234" xlink:href="#DejaVuSans-110"/>
     <use x="1753.369141" xlink:href="#DejaVuSans-44"/>
     <use x="1785.15625" xlink:href="#DejaVuSans-32"/>
     <use x="1816.943359" xlink:href="#DejaVuSans-115"/>
     <use x="1869.042969" xlink:href="#DejaVuSans-116"/>
     <use x="1908.251953" xlink:href="#DejaVuSans-101"/>
     <use x="1969.775391" xlink:href="#DejaVuSans-112"/>
     <use x="2033.251953" xlink:href="#DejaVuSans-115"/>
     <use x="2085.351562" xlink:href="#DejaVuSans-44"/>
     <use x="2117.138672" xlink:href="#DejaVuSans-32"/>
     <use x="2148.925781" xlink:href="#DejaVuSans-77"/>
     <use x="2235.205078" xlink:href="#DejaVuSans-65"/>
     <use x="2303.613281" xlink:href="#DejaVuSans-61"/>
     <use x="2387.402344" xlink:href="#DejaVuSans-50"/>
     <use x="2451.025391" xlink:href="#DejaVuSans-48"/>
    </g>
   </g>
   <g id="legend_1">
    <g id="patch_7">
     <path d="M 773.679125 231.59625 
L 854.751 231.59625 
Q 856.751 231.59625 856.751 229.59625 
L 856.751 200.68375 
Q 856.751 198.68375 854.751 198.68375 
L 773.679125 198.68375 
Q 771.679125 198.68375 771.679125 200.68375 
L 771.679125 229.59625 
Q 771.679125 231.59625 773.679125 231.59625 
z
" style="fill:#ffffff;opacity:0.8;stroke:#cccccc;stroke-linejoin:miter;"/>
    </g>
    <g id="line2d_15">
     <path d="M 775.679125 206.782187 
L 795.679125 206.782187 
" style="fill:none;stroke:#1f77b4;stroke-linecap:square;stroke-width:1.5;"/>
    </g>
    <g id="line2d_16"/>
    <g id="text_14">
     <!-- htm_4_1g -->
     <defs>
      <path d="M 54.890625 33.015625 
L 54.890625 0 
L 45.90625 0 
L 45.90625 32.71875 
Q 45.90625 40.484375 42.875 44.328125 
Q 39.84375 48.1875 33.796875 48.1875 
Q 26.515625 48.1875 22.3125 43.546875 
Q 18.109375 38.921875 18.109375 30.90625 
L 18.109375 0 
L 9.078125 0 
L 9.078125 75.984375 
L 18.109375 75.984375 
L 18.109375 46.1875 
Q 21.34375 51.125 25.703125 53.5625 
Q 30.078125 56 35.796875 56 
Q 45.21875 56 50.046875 50.171875 
Q 54.890625 44.34375 54.890625 33.015625 
z
" id="DejaVuSans-104"/>
      <path d="M 45.40625 27.984375 
Q 45.40625 37.75 41.375 43.109375 
Q 37.359375 48.484375 30.078125 48.484375 
Q 22.859375 48.484375 18.828125 43.109375 
Q 14.796875 37.75 14.796875 27.984375 
Q 14.796875 18.265625 18.828125 12.890625 
Q 22.859375 7.515625 30.078125 7.515625 
Q 37.359375 7.515625 41.375 12.890625 
Q 45.40625 18.265625 45.40625 27.984375 
z
M 54.390625 6.78125 
Q 54.390625 -7.171875 48.1875 -13.984375 
Q 42 -20.796875 29.203125 -20.796875 
Q 24.46875 -20.796875 20.265625 -20.09375 
Q 16.0625 -19.390625 12.109375 -17.921875 
L 12.109375 -9.1875 
Q 16.0625 -11.328125 19.921875 -12.34375 
Q 23.78125 -13.375 27.78125 -13.375 
Q 36.625 -13.375 41.015625 -8.765625 
Q 45.40625 -4.15625 45.40625 5.171875 
L 45.40625 9.625 
Q 42.625 4.78125 38.28125 2.390625 
Q 33.9375 0 27.875 0 
Q 17.828125 0 11.671875 7.65625 
Q 5.515625 15.328125 5.515625 27.984375 
Q 5.515625 40.671875 11.671875 48.328125 
Q 17.828125 56 27.875 56 
Q 33.9375 56 38.28125 53.609375 
Q 42.625 51.21875 45.40625 46.390625 
L 45.40625 54.6875 
L 54.390625 54.6875 
z
" id="DejaVuSans-103"/>
     </defs>
     <g transform="translate(803.679125 210.282187)scale(0.1 -0.1)">
      <use xlink:href="#DejaVuSans-104"/>
      <use x="63.378906" xlink:href="#DejaVuSans-116"/>
      <use x="102.587891" xlink:href="#DejaVuSans-109"/>
      <use x="200" xlink:href="#DejaVuSans-95"/>
      <use x="250" xlink:href="#DejaVuSans-52"/>
      <use x="313.623047" xlink:href="#DejaVuSans-95"/>
      <use x="363.623047" xlink:href="#DejaVuSans-49"/>
      <use x="427.246094" xlink:href="#DejaVuSans-103"/>
     </g>
    </g>
    <g id="line2d_17">
     <path d="M 775.679125 221.738437 
L 795.679125 221.738437 
" style="fill:none;stroke:#ff7f0e;stroke-linecap:square;stroke-width:1.5;"/>
    </g>
    <g id="line2d_18"/>
    <g id="text_15">
     <!-- htm_4 -->
     <g transform="translate(803.679125 225.238437)scale(0.1 -0.1)">
      <use xlink:href="#DejaVuSans-104"/>
      <use x="63.378906" xlink:href="#DejaVuSans-116"/>
      <use x="102.587891" xlink:href="#DejaVuSans-109"/>
      <use x="200" xlink:href="#DejaVuSans-95"/>
      <use x="250" xlink:href="#DejaVuSans-52"/>
     </g>
    </g>
   </g>
  </g>
 </g>
 <defs>
  <clipPath id="p9519d4f071">
   <rect height="377.96" width="687.355" x="36.925" y="26.16"/>
  </clipPath>
 </defs>
</svg>
