<?xml version="1.0" encoding="utf-8" standalone="no"?>
<!DOCTYPE svg PUBLIC "-//W3C//DTD SVG 1.1//EN"
  "http://www.w3.org/Graphics/SVG/1.1/DTD/svg11.dtd">
<!-- Created with matplotlib (https://matplotlib.org/) -->
<svg height="432pt" version="1.1" viewBox="0 0 864 432" width="864pt" xmlns="http://www.w3.org/2000/svg" xmlns:xlink="http://www.w3.org/1999/xlink">
 <defs>
  <style type="text/css">
*{stroke-linecap:butt;stroke-linejoin:round;}
  </style>
 </defs>
 <g id="figure_1">
  <g id="patch_1">
   <path d="M 0 432 
L 864 432 
L 864 0 
L 0 0 
z
" style="fill:#ffffff;"/>
  </g>
  <g id="axes_1">
   <g id="patch_2">
    <path d="M 42.1 404.12 
L 724.28 404.12 
L 724.28 26.52 
L 42.1 26.52 
z
" style="fill:#ffffff;"/>
   </g>
   <g id="matplotlib.axis_1">
    <g id="xtick_1">
     <g id="line2d_1">
      <defs>
       <path d="M 0 0 
L 0 3.5 
" id="m9ec0f20153" style="stroke:#000000;stroke-width:0.8;"/>
      </defs>
      <g>
       <use style="stroke:#000000;stroke-width:0.8;" x="42.1" xlink:href="#m9ec0f20153" y="404.12"/>
      </g>
     </g>
     <g id="text_1">
      <!-- 0 -->
      <defs>
       <path d="M 31.78125 66.40625 
Q 24.171875 66.40625 20.328125 58.90625 
Q 16.5 51.421875 16.5 36.375 
Q 16.5 21.390625 20.328125 13.890625 
Q 24.171875 6.390625 31.78125 6.390625 
Q 39.453125 6.390625 43.28125 13.890625 
Q 47.125 21.390625 47.125 36.375 
Q 47.125 51.421875 43.28125 58.90625 
Q 39.453125 66.40625 31.78125 66.40625 
z
M 31.78125 74.21875 
Q 44.046875 74.21875 50.515625 64.515625 
Q 56.984375 54.828125 56.984375 36.375 
Q 56.984375 17.96875 50.515625 8.265625 
Q 44.046875 -1.421875 31.78125 -1.421875 
Q 19.53125 -1.421875 13.0625 8.265625 
Q 6.59375 17.96875 6.59375 36.375 
Q 6.59375 54.828125 13.0625 64.515625 
Q 19.53125 74.21875 31.78125 74.21875 
z
" id="DejaVuSans-48"/>
      </defs>
      <g transform="translate(38.91875 418.718437)scale(0.1 -0.1)">
       <use xlink:href="#DejaVuSans-48"/>
      </g>
     </g>
    </g>
    <g id="xtick_2">
     <g id="line2d_2">
      <g>
       <use style="stroke:#000000;stroke-width:0.8;" x="178.672573" xlink:href="#m9ec0f20153" y="404.12"/>
      </g>
     </g>
     <g id="text_2">
      <!-- 200 -->
      <defs>
       <path d="M 19.1875 8.296875 
L 53.609375 8.296875 
L 53.609375 0 
L 7.328125 0 
L 7.328125 8.296875 
Q 12.9375 14.109375 22.625 23.890625 
Q 32.328125 33.6875 34.8125 36.53125 
Q 39.546875 41.84375 41.421875 45.53125 
Q 43.3125 49.21875 43.3125 52.78125 
Q 43.3125 58.59375 39.234375 62.25 
Q 35.15625 65.921875 28.609375 65.921875 
Q 23.96875 65.921875 18.8125 64.3125 
Q 13.671875 62.703125 7.8125 59.421875 
L 7.8125 69.390625 
Q 13.765625 71.78125 18.9375 73 
Q 24.125 74.21875 28.421875 74.21875 
Q 39.75 74.21875 46.484375 68.546875 
Q 53.21875 62.890625 53.21875 53.421875 
Q 53.21875 48.921875 51.53125 44.890625 
Q 49.859375 40.875 45.40625 35.40625 
Q 44.1875 33.984375 37.640625 27.21875 
Q 31.109375 20.453125 19.1875 8.296875 
z
" id="DejaVuSans-50"/>
      </defs>
      <g transform="translate(169.128823 418.718437)scale(0.1 -0.1)">
       <use xlink:href="#DejaVuSans-50"/>
       <use x="63.623047" xlink:href="#DejaVuSans-48"/>
       <use x="127.246094" xlink:href="#DejaVuSans-48"/>
      </g>
     </g>
    </g>
    <g id="xtick_3">
     <g id="line2d_3">
      <g>
       <use style="stroke:#000000;stroke-width:0.8;" x="315.245145" xlink:href="#m9ec0f20153" y="404.12"/>
      </g>
     </g>
     <g id="text_3">
      <!-- 400 -->
      <defs>
       <path d="M 37.796875 64.3125 
L 12.890625 25.390625 
L 37.796875 25.390625 
z
M 35.203125 72.90625 
L 47.609375 72.90625 
L 47.609375 25.390625 
L 58.015625 25.390625 
L 58.015625 17.1875 
L 47.609375 17.1875 
L 47.609375 0 
L 37.796875 0 
L 37.796875 17.1875 
L 4.890625 17.1875 
L 4.890625 26.703125 
z
" id="DejaVuSans-52"/>
      </defs>
      <g transform="translate(305.701395 418.718437)scale(0.1 -0.1)">
       <use xlink:href="#DejaVuSans-52"/>
       <use x="63.623047" xlink:href="#DejaVuSans-48"/>
       <use x="127.246094" xlink:href="#DejaVuSans-48"/>
      </g>
     </g>
    </g>
    <g id="xtick_4">
     <g id="line2d_4">
      <g>
       <use style="stroke:#000000;stroke-width:0.8;" x="451.817718" xlink:href="#m9ec0f20153" y="404.12"/>
      </g>
     </g>
     <g id="text_4">
      <!-- 600 -->
      <defs>
       <path d="M 33.015625 40.375 
Q 26.375 40.375 22.484375 35.828125 
Q 18.609375 31.296875 18.609375 23.390625 
Q 18.609375 15.53125 22.484375 10.953125 
Q 26.375 6.390625 33.015625 6.390625 
Q 39.65625 6.390625 43.53125 10.953125 
Q 47.40625 15.53125 47.40625 23.390625 
Q 47.40625 31.296875 43.53125 35.828125 
Q 39.65625 40.375 33.015625 40.375 
z
M 52.59375 71.296875 
L 52.59375 62.3125 
Q 48.875 64.0625 45.09375 64.984375 
Q 41.3125 65.921875 37.59375 65.921875 
Q 27.828125 65.921875 22.671875 59.328125 
Q 17.53125 52.734375 16.796875 39.40625 
Q 19.671875 43.65625 24.015625 45.921875 
Q 28.375 48.1875 33.59375 48.1875 
Q 44.578125 48.1875 50.953125 41.515625 
Q 57.328125 34.859375 57.328125 23.390625 
Q 57.328125 12.15625 50.6875 5.359375 
Q 44.046875 -1.421875 33.015625 -1.421875 
Q 20.359375 -1.421875 13.671875 8.265625 
Q 6.984375 17.96875 6.984375 36.375 
Q 6.984375 53.65625 15.1875 63.9375 
Q 23.390625 74.21875 37.203125 74.21875 
Q 40.921875 74.21875 44.703125 73.484375 
Q 48.484375 72.75 52.59375 71.296875 
z
" id="DejaVuSans-54"/>
      </defs>
      <g transform="translate(442.273968 418.718437)scale(0.1 -0.1)">
       <use xlink:href="#DejaVuSans-54"/>
       <use x="63.623047" xlink:href="#DejaVuSans-48"/>
       <use x="127.246094" xlink:href="#DejaVuSans-48"/>
      </g>
     </g>
    </g>
    <g id="xtick_5">
     <g id="line2d_5">
      <g>
       <use style="stroke:#000000;stroke-width:0.8;" x="588.39029" xlink:href="#m9ec0f20153" y="404.12"/>
      </g>
     </g>
     <g id="text_5">
      <!-- 800 -->
      <defs>
       <path d="M 31.78125 34.625 
Q 24.75 34.625 20.71875 30.859375 
Q 16.703125 27.09375 16.703125 20.515625 
Q 16.703125 13.921875 20.71875 10.15625 
Q 24.75 6.390625 31.78125 6.390625 
Q 38.8125 6.390625 42.859375 10.171875 
Q 46.921875 13.96875 46.921875 20.515625 
Q 46.921875 27.09375 42.890625 30.859375 
Q 38.875 34.625 31.78125 34.625 
z
M 21.921875 38.8125 
Q 15.578125 40.375 12.03125 44.71875 
Q 8.5 49.078125 8.5 55.328125 
Q 8.5 64.0625 14.71875 69.140625 
Q 20.953125 74.21875 31.78125 74.21875 
Q 42.671875 74.21875 48.875 69.140625 
Q 55.078125 64.0625 55.078125 55.328125 
Q 55.078125 49.078125 51.53125 44.71875 
Q 48 40.375 41.703125 38.8125 
Q 48.828125 37.15625 52.796875 32.3125 
Q 56.78125 27.484375 56.78125 20.515625 
Q 56.78125 9.90625 50.3125 4.234375 
Q 43.84375 -1.421875 31.78125 -1.421875 
Q 19.734375 -1.421875 13.25 4.234375 
Q 6.78125 9.90625 6.78125 20.515625 
Q 6.78125 27.484375 10.78125 32.3125 
Q 14.796875 37.15625 21.921875 38.8125 
z
M 18.3125 54.390625 
Q 18.3125 48.734375 21.84375 45.5625 
Q 25.390625 42.390625 31.78125 42.390625 
Q 38.140625 42.390625 41.71875 45.5625 
Q 45.3125 48.734375 45.3125 54.390625 
Q 45.3125 60.0625 41.71875 63.234375 
Q 38.140625 66.40625 31.78125 66.40625 
Q 25.390625 66.40625 21.84375 63.234375 
Q 18.3125 60.0625 18.3125 54.390625 
z
" id="DejaVuSans-56"/>
      </defs>
      <g transform="translate(578.84654 418.718437)scale(0.1 -0.1)">
       <use xlink:href="#DejaVuSans-56"/>
       <use x="63.623047" xlink:href="#DejaVuSans-48"/>
       <use x="127.246094" xlink:href="#DejaVuSans-48"/>
      </g>
     </g>
    </g>
   </g>
   <g id="matplotlib.axis_2">
    <g id="ytick_1">
     <g id="line2d_6">
      <defs>
       <path d="M 0 0 
L -3.5 0 
" id="ma764085fe7" style="stroke:#000000;stroke-width:0.8;"/>
      </defs>
      <g>
       <use style="stroke:#000000;stroke-width:0.8;" x="42.1" xlink:href="#ma764085fe7" y="400.784887"/>
      </g>
     </g>
     <g id="text_6">
      <!-- −1.5 -->
      <defs>
       <path d="M 10.59375 35.5 
L 73.1875 35.5 
L 73.1875 27.203125 
L 10.59375 27.203125 
z
" id="DejaVuSans-8722"/>
       <path d="M 12.40625 8.296875 
L 28.515625 8.296875 
L 28.515625 63.921875 
L 10.984375 60.40625 
L 10.984375 69.390625 
L 28.421875 72.90625 
L 38.28125 72.90625 
L 38.28125 8.296875 
L 54.390625 8.296875 
L 54.390625 0 
L 12.40625 0 
z
" id="DejaVuSans-49"/>
       <path d="M 10.6875 12.40625 
L 21 12.40625 
L 21 0 
L 10.6875 0 
z
" id="DejaVuSans-46"/>
       <path d="M 10.796875 72.90625 
L 49.515625 72.90625 
L 49.515625 64.59375 
L 19.828125 64.59375 
L 19.828125 46.734375 
Q 21.96875 47.46875 24.109375 47.828125 
Q 26.265625 48.1875 28.421875 48.1875 
Q 40.625 48.1875 47.75 41.5 
Q 54.890625 34.8125 54.890625 23.390625 
Q 54.890625 11.625 47.5625 5.09375 
Q 40.234375 -1.421875 26.90625 -1.421875 
Q 22.3125 -1.421875 17.546875 -0.640625 
Q 12.796875 0.140625 7.71875 1.703125 
L 7.71875 11.625 
Q 12.109375 9.234375 16.796875 8.0625 
Q 21.484375 6.890625 26.703125 6.890625 
Q 35.15625 6.890625 40.078125 11.328125 
Q 45.015625 15.765625 45.015625 23.390625 
Q 45.015625 31 40.078125 35.4375 
Q 35.15625 39.890625 26.703125 39.890625 
Q 22.75 39.890625 18.8125 39.015625 
Q 14.890625 38.140625 10.796875 36.28125 
z
" id="DejaVuSans-53"/>
      </defs>
      <g transform="translate(10.817188 404.584105)scale(0.1 -0.1)">
       <use xlink:href="#DejaVuSans-8722"/>
       <use x="83.789062" xlink:href="#DejaVuSans-49"/>
       <use x="147.412109" xlink:href="#DejaVuSans-46"/>
       <use x="179.199219" xlink:href="#DejaVuSans-53"/>
      </g>
     </g>
    </g>
    <g id="ytick_2">
     <g id="line2d_7">
      <g>
       <use style="stroke:#000000;stroke-width:0.8;" x="42.1" xlink:href="#ma764085fe7" y="316.876202"/>
      </g>
     </g>
     <g id="text_7">
      <!-- −1.0 -->
      <g transform="translate(10.817188 320.675421)scale(0.1 -0.1)">
       <use xlink:href="#DejaVuSans-8722"/>
       <use x="83.789062" xlink:href="#DejaVuSans-49"/>
       <use x="147.412109" xlink:href="#DejaVuSans-46"/>
       <use x="179.199219" xlink:href="#DejaVuSans-48"/>
      </g>
     </g>
    </g>
    <g id="ytick_3">
     <g id="line2d_8">
      <g>
       <use style="stroke:#000000;stroke-width:0.8;" x="42.1" xlink:href="#ma764085fe7" y="232.967518"/>
      </g>
     </g>
     <g id="text_8">
      <!-- −0.5 -->
      <g transform="translate(10.817188 236.766736)scale(0.1 -0.1)">
       <use xlink:href="#DejaVuSans-8722"/>
       <use x="83.789062" xlink:href="#DejaVuSans-48"/>
       <use x="147.412109" xlink:href="#DejaVuSans-46"/>
       <use x="179.199219" xlink:href="#DejaVuSans-53"/>
      </g>
     </g>
    </g>
    <g id="ytick_4">
     <g id="line2d_9">
      <g>
       <use style="stroke:#000000;stroke-width:0.8;" x="42.1" xlink:href="#ma764085fe7" y="149.058833"/>
      </g>
     </g>
     <g id="text_9">
      <!-- 0.0 -->
      <g transform="translate(19.196875 152.858052)scale(0.1 -0.1)">
       <use xlink:href="#DejaVuSans-48"/>
       <use x="63.623047" xlink:href="#DejaVuSans-46"/>
       <use x="95.410156" xlink:href="#DejaVuSans-48"/>
      </g>
     </g>
    </g>
    <g id="ytick_5">
     <g id="line2d_10">
      <g>
       <use style="stroke:#000000;stroke-width:0.8;" x="42.1" xlink:href="#ma764085fe7" y="65.150149"/>
      </g>
     </g>
     <g id="text_10">
      <!-- 0.5 -->
      <g transform="translate(19.196875 68.949367)scale(0.1 -0.1)">
       <use xlink:href="#DejaVuSans-48"/>
       <use x="63.623047" xlink:href="#DejaVuSans-46"/>
       <use x="95.410156" xlink:href="#DejaVuSans-53"/>
      </g>
     </g>
    </g>
   </g>
   <g id="line2d_11">
    <path clip-path="url(#p31a9c46187)" d="M 55.074394 149.058833 
L 724.28 149.058833 
L 724.28 149.058833 
" style="fill:none;stroke:#1f77b4;stroke-linecap:square;stroke-width:1.5;"/>
   </g>
   <g id="line2d_12">
    <path clip-path="url(#p31a9c46187)" d="M 55.074394 149.058833 
L 180.721161 149.058833 
L 181.404024 150.588669 
L 182.086887 150.588669 
L 182.76975 153.411964 
L 183.452613 159.22807 
L 185.501201 159.22807 
L 186.184064 163.171809 
L 186.866927 164.701645 
L 187.54979 164.701645 
L 188.232653 168.645384 
L 188.915516 170.17522 
L 189.598378 170.17522 
L 190.964104 173.234892 
L 192.32983 173.234892 
L 193.012693 174.764729 
L 193.695556 174.764729 
L 194.378418 177.588023 
L 195.061281 176.058187 
L 195.744144 178.881481 
L 196.427007 177.588023 
L 197.10987 171.771916 
L 199.158458 171.771916 
L 199.841321 169.358014 
L 200.524184 167.828177 
L 201.207047 169.358014 
L 201.88991 166.944111 
L 202.572773 168.237569 
L 203.255636 168.237569 
L 204.621361 165.177897 
L 205.987087 168.237569 
L 206.66995 168.237569 
L 207.352813 171.060864 
L 208.035676 171.060864 
L 208.718539 172.5907 
L 210.084264 169.767406 
L 210.767127 172.5907 
L 212.815716 172.5907 
L 213.498579 171.060864 
L 214.181441 171.060864 
L 215.547167 168.001191 
L 216.23003 165.177897 
L 216.912893 165.177897 
L 217.595756 166.707733 
L 218.278619 166.707733 
L 220.327207 162.118225 
L 221.01007 159.29493 
L 221.692933 160.415375 
L 222.375796 160.415375 
L 223.058659 158.885538 
L 223.741522 158.885538 
L 224.424384 156.062244 
L 225.107247 157.59208 
L 225.79011 157.59208 
L 226.472973 164.938023 
L 230.57015 164.938023 
L 231.253013 163.408187 
L 231.935876 166.231481 
L 232.618739 166.231481 
L 233.301602 167.761318 
L 234.667327 167.761318 
L 235.35019 163.817579 
L 236.033053 163.817579 
L 237.398779 166.877251 
L 238.081642 170.82099 
L 239.447367 170.82099 
L 240.13023 165.004883 
L 240.813093 169.936924 
L 241.495956 169.936924 
L 242.178819 171.46676 
L 243.544545 171.46676 
L 244.227407 177.282867 
L 244.91027 177.282867 
L 245.593133 175.989409 
L 246.275996 177.519245 
L 246.958859 175.989409 
L 247.641722 182.605251 
L 249.007447 182.605251 
L 249.69031 183.898709 
L 250.373173 183.898709 
L 251.056036 182.368873 
L 251.738899 182.368873 
L 252.421762 180.839036 
L 253.104625 180.839036 
L 253.787487 179.3092 
L 254.47035 174.37716 
L 255.153213 174.37716 
L 256.518939 177.200454 
L 257.201802 178.73029 
L 257.884665 179.530025 
L 258.567528 179.530025 
L 259.933253 176.470353 
L 260.616116 180.414091 
L 261.298979 177.741988 
L 261.981842 185.759559 
L 262.664705 187.289395 
L 263.347568 188.409839 
L 264.03043 186.880003 
L 264.713293 195.519404 
L 265.396156 191.575666 
L 266.079019 193.105502 
L 267.444745 193.105502 
L 268.127608 194.635338 
L 268.81047 198.579077 
L 270.176196 195.755783 
L 270.859059 194.225946 
L 271.541922 191.553843 
L 272.224785 193.083679 
L 272.907648 193.083679 
L 273.590511 198.01572 
L 274.956236 190.128242 
L 275.639099 182.110672 
L 276.321962 180.580835 
L 277.004825 178.166933 
L 277.687688 178.166933 
L 278.370551 172.350826 
L 279.053413 175.17412 
L 279.736276 173.644284 
L 280.419139 175.17412 
L 281.102002 179.117859 
L 281.784865 177.588023 
L 282.467728 173.644284 
L 283.150591 172.114448 
L 283.833453 176.058187 
L 284.516316 183.40413 
L 285.199179 182.283685 
L 286.564905 182.283685 
L 287.247768 178.881481 
L 287.930631 182.82522 
L 288.613493 185.648514 
L 289.296356 185.648514 
L 289.979219 187.17835 
L 290.662082 185.648514 
L 291.344945 185.648514 
L 292.027808 182.82522 
L 292.710671 181.531762 
L 293.393534 181.531762 
L 294.076396 180.001925 
L 294.759259 177.588023 
L 295.442122 179.117859 
L 296.124985 179.117859 
L 296.807848 184.0499 
L 297.490711 182.929455 
L 298.173574 180.515553 
L 299.539299 180.515553 
L 300.222162 186.33166 
L 300.905025 184.801824 
L 301.587888 180.858085 
L 302.270751 179.564627 
L 304.319339 179.564627 
L 305.002202 184.496667 
L 305.685065 184.496667 
L 306.367928 182.966831 
L 307.050791 182.966831 
L 307.733654 184.496667 
L 308.416517 182.966831 
L 309.099379 182.966831 
L 309.782242 184.496667 
L 310.465105 179.564627 
L 311.147968 178.271169 
L 311.830831 173.339128 
L 312.513694 170.515834 
L 313.196557 168.985998 
L 313.879419 163.169891 
L 314.562282 163.169891 
L 315.245145 139.233836 
L 315.928008 133.417729 
L 316.610871 129.131458 
L 317.293734 123.315352 
L 317.976597 119.029081 
L 318.659459 109.81077 
L 320.708048 96.951958 
L 321.390911 91.135851 
L 322.073774 86.84958 
L 323.439499 75.217367 
L 324.122362 70.931096 
L 324.805225 65.114989 
L 328.21954 43.683636 
L 328.902402 63.333421 
L 451.134855 63.333421 
L 451.817718 67.103167 
L 453.183443 107.892048 
L 453.866306 124.610267 
L 454.549169 135.885369 
L 455.232032 154.165148 
L 456.597758 171.613468 
L 457.280621 188.885132 
L 457.963483 198.98751 
L 458.646346 212.492092 
L 459.329209 236.099051 
L 460.012072 244.837753 
L 460.694935 260.756238 
L 462.060661 279.166922 
L 462.743524 300.795966 
L 463.426386 317.887175 
L 464.109249 321.289379 
L 464.792112 333.264125 
L 465.474975 339.16636 
L 466.157838 325.661778 
L 466.840701 316.577724 
L 467.523564 319.589585 
L 468.206426 330.943623 
L 468.889289 323.175613 
L 469.572152 335.55975 
L 470.255015 344.132292 
L 470.937878 331.946633 
L 471.620741 337.76274 
L 472.303604 340.176643 
L 472.986466 323.057418 
L 473.669329 329.116755 
L 474.352192 322.416582 
L 475.035055 333.798304 
L 475.717918 332.356331 
L 476.400781 320.829664 
L 477.083644 319.002775 
L 477.766507 328.526242 
L 478.449369 333.458283 
L 479.132232 330.895866 
L 479.815095 329.023498 
L 480.497958 324.999463 
L 481.180821 313.499392 
L 481.863684 300.088564 
L 482.546547 304.841113 
L 483.229409 301.498631 
L 483.912272 287.109983 
L 484.595135 293.299078 
L 485.277998 282.4666 
L 485.960861 280.052698 
L 486.643724 279.38107 
L 488.009449 292.794591 
L 488.692312 276.960438 
L 489.375175 284.856105 
L 490.058038 290.459774 
L 490.740901 280.28146 
L 491.423764 282.153829 
L 492.106627 269.533313 
L 492.789489 268.911483 
L 493.472352 271.325385 
L 494.155215 276.812396 
L 494.838078 275.070122 
L 495.520941 272.961375 
L 496.203804 274.024932 
L 496.886667 280.360227 
L 497.56953 299.396453 
L 498.252392 302.67616 
L 498.935255 320.49747 
L 499.618118 317.504657 
L 500.300981 316.774556 
L 500.983844 303.062782 
L 501.666707 296.313395 
L 502.34957 312.147549 
L 503.032432 315.751952 
L 503.715295 308.784609 
L 504.398158 322.289191 
L 505.081021 322.289191 
L 505.763884 340.537246 
L 506.446747 341.159077 
L 507.12961 343.031445 
L 507.812472 339.795402 
L 508.495335 341.537676 
L 509.178198 349.226151 
L 509.861061 338.714382 
L 510.543924 325.619192 
L 511.226787 323.551679 
L 511.90965 319.508639 
L 512.592513 316.721747 
L 513.275375 317.485079 
L 514.641101 341.463203 
L 515.323964 342.396483 
L 516.006827 334.896575 
L 516.68969 331.084978 
L 517.372553 342.717192 
L 518.055415 333.344916 
L 518.738278 341.72344 
L 519.421141 330.821327 
L 520.104004 340.429982 
L 520.786867 338.016079 
L 521.46973 343.581694 
L 522.152593 353.142537 
L 522.835455 351.270169 
L 523.518318 364.344355 
L 524.201181 365.807332 
L 524.884044 359.991225 
L 525.566907 367.10079 
L 526.24977 356.652348 
L 526.932633 364.97307 
L 527.615495 358.317176 
L 528.298358 353.67879 
L 528.981221 366.729701 
L 529.664084 368.155301 
L 530.346947 367.942863 
L 531.02981 371.178906 
L 531.712673 386.956364 
L 532.395536 372.518502 
L 533.078398 378.334609 
L 533.761261 365.018594 
L 534.444124 363.146226 
L 535.126987 352.244113 
L 535.80985 352.889883 
L 537.175576 341.688065 
L 537.858438 344.747737 
L 538.541301 355.604858 
L 539.224164 343.06953 
L 539.907027 352.993372 
L 540.58989 339.213655 
L 541.272753 334.627678 
L 541.955616 335.571466 
L 542.638478 319.958138 
L 543.321341 316.0144 
L 544.004204 313.812936 
L 544.687067 313.113291 
L 545.36993 295.227087 
L 546.735656 291.015888 
L 548.784244 318.748474 
L 549.467107 309.983834 
L 550.14997 324.338851 
L 550.832833 327.538856 
L 551.515696 331.963822 
L 552.198559 310.838162 
L 552.881421 319.798272 
L 553.564284 311.834662 
L 554.247147 318.944227 
L 554.93001 323.530203 
L 555.612873 318.233285 
L 556.295736 318.812195 
L 556.978599 318.812195 
L 558.344324 302.520722 
L 559.027187 312.502365 
L 559.71005 329.537259 
L 560.392913 330.767389 
L 561.075776 338.088322 
L 561.758639 330.301707 
L 562.441502 333.179312 
L 563.124364 338.995418 
L 563.807227 322.037932 
L 564.49009 317.887001 
L 565.172953 310.059831 
L 565.855816 316.675673 
L 566.538679 311.368259 
L 567.221542 319.056734 
L 567.904404 321.619151 
L 568.587267 317.033175 
L 569.27013 320.976914 
L 571.318719 347.464833 
L 572.001582 338.246522 
L 572.684444 336.419633 
L 573.367307 332.356388 
L 574.05017 334.958857 
L 574.733033 324.384235 
L 575.415896 329.949849 
L 576.098759 332.498009 
L 576.781622 323.497654 
L 577.464484 338.532072 
L 578.147347 343.828991 
L 578.83021 339.306342 
L 579.513073 332.6905 
L 580.195936 334.85391 
L 580.878799 317.947124 
L 581.561662 318.584712 
L 582.244525 328.533124 
L 582.927387 327.649058 
L 584.293113 323.731447 
L 584.975976 320.4635 
L 585.658839 318.933664 
L 586.341702 321.290678 
L 587.024565 308.94086 
L 587.707427 306.145488 
L 588.39029 321.952834 
L 589.073153 318.923618 
L 589.756016 310.825751 
L 590.438879 310.154123 
L 591.804605 279.8716 
L 592.487467 281.500738 
L 593.17033 282.300473 
L 593.853193 283.373106 
L 594.536056 282.252662 
L 595.218919 273.81546 
L 595.901782 271.084884 
L 597.267508 250.49256 
L 597.95037 239.35896 
L 598.633233 232.249395 
L 599.316096 234.450859 
L 599.998959 221.915531 
L 600.681822 219.891972 
L 601.364685 205.780557 
L 602.047548 186.117336 
L 602.73041 177.256137 
L 603.413273 170.319586 
L 604.096136 165.796937 
L 605.461862 174.605857 
L 606.144725 172.976719 
L 606.827588 175.579188 
L 607.51045 170.714008 
L 608.193313 171.834452 
L 608.876176 167.548181 
L 609.559039 156.537798 
L 610.241902 156.537798 
L 610.924765 154.429052 
L 611.607628 156.171326 
L 612.29049 154.06258 
L 612.973353 150.97705 
L 613.656216 152.378779 
L 614.339079 149.706675 
L 615.021942 161.07249 
L 615.704805 161.744117 
L 616.387668 171.304961 
L 617.070531 171.304961 
L 617.753393 174.297773 
L 618.436256 173.867378 
L 619.119119 172.337542 
L 619.801982 168.630181 
L 620.484845 169.171715 
L 621.167708 166.348421 
L 621.850571 174.036896 
L 622.533433 179.373394 
L 623.216296 180.493839 
L 623.899159 183.637842 
L 624.582022 195.270056 
L 625.264885 192.126052 
L 625.947748 196.648701 
L 626.630611 205.867012 
L 627.996336 215.928952 
L 628.679199 206.435505 
L 629.362062 205.033776 
L 630.044925 203.961143 
L 630.727788 207.753691 
L 631.410651 208.553426 
L 632.093514 207.620147 
L 632.776376 210.443441 
L 633.459239 215.271246 
L 634.142102 212.857343 
L 634.824965 214.38718 
L 635.507828 204.284802 
L 636.190691 196.839558 
L 636.873554 199.511661 
L 637.556416 194.683856 
L 638.239279 184.172087 
L 638.922142 186.195646 
L 639.605005 184.66581 
L 640.287868 173.338752 
L 640.970731 167.149657 
L 641.653594 167.149657 
L 642.336456 178.351475 
L 643.019319 179.081576 
L 643.702182 173.99557 
L 644.385045 170.203023 
L 645.067908 170.933124 
L 645.750771 164.608324 
L 646.433634 166.71707 
L 647.116496 164.974795 
L 647.799359 159.158688 
L 648.482222 159.830316 
L 649.165085 170.732429 
L 649.847948 177.66898 
L 650.530811 175.985179 
L 651.213674 172.582974 
L 651.896537 175.255078 
L 652.579399 173.231518 
L 653.262262 174.031254 
L 653.945125 175.151698 
L 654.627988 172.479595 
L 655.310851 164.79112 
L 655.993714 150.596489 
L 656.676577 149.866388 
L 657.359439 145.343739 
L 658.042302 145.343739 
L 658.725165 139.527632 
L 659.408028 149.088475 
L 660.090891 141.163622 
L 660.773754 137.08979 
L 661.456617 145.319799 
L 662.139479 143.91807 
L 662.822342 140.125523 
L 663.505205 141.567496 
L 664.188068 145.853766 
L 664.870931 151.669873 
L 665.553794 147.877325 
L 666.236657 145.205222 
L 666.91952 150.221594 
L 667.602382 160.111533 
L 668.285245 157.69763 
L 668.968108 161.099835 
L 669.650971 171.781122 
L 670.333834 169.109019 
L 671.016697 169.109019 
L 671.69956 176.04557 
L 672.382422 178.459472 
L 673.065285 170.770997 
L 673.748148 175.965274 
L 674.431011 173.551372 
L 675.113874 171.809097 
L 675.796737 175.461794 
L 676.4796 178.024211 
L 677.845325 168.163662 
L 678.528188 165.749759 
L 679.211051 166.870204 
L 679.893914 165.749759 
L 680.576777 158.061284 
L 681.25964 153.445918 
L 681.942503 155.85982 
L 682.625365 157.543622 
L 683.308228 151.384983 
L 683.991091 159.073458 
L 684.673954 161.182204 
L 685.356817 160.64067 
L 686.03968 158.226768 
L 686.722543 160.428232 
L 687.405405 163.612479 
L 688.088268 169.428586 
L 688.771131 168.756958 
L 689.453994 160.018256 
L 690.136857 161.621375 
L 690.81972 164.765379 
L 691.502583 171.090179 
L 692.185445 170.101877 
L 692.868308 172.77398 
L 693.551171 179.168997 
L 694.234034 181.8411 
L 694.916897 177.55483 
L 695.59976 178.543132 
L 696.282623 176.85933 
L 696.965485 178.731698 
L 697.648348 175.738886 
L 698.331211 181.075384 
L 699.014074 183.058891 
L 699.696937 192.277202 
L 700.3798 188.20337 
L 701.062663 185.640953 
L 701.745526 182.238748 
L 702.428388 180.708912 
L 703.111251 182.00237 
L 703.794114 179.94558 
L 704.476977 182.22734 
L 705.15984 181.177113 
L 705.842703 189.274979 
L 706.525566 187.591178 
L 707.891291 194.321808 
L 708.574154 199.658306 
L 709.257017 197.54956 
L 709.93988 201.83583 
L 710.622743 200.63509 
L 711.305606 204.800627 
L 711.988468 199.464129 
L 712.671331 201.42436 
L 713.354194 195.608253 
L 714.037057 195.608253 
L 714.71992 193.584694 
L 716.085646 200.389103 
L 716.768509 205.583379 
L 717.451371 201.451074 
L 718.134234 192.232763 
L 718.817097 184.544288 
L 719.49996 178.318789 
L 720.182823 180.732692 
L 720.865686 174.543596 
L 721.548549 175.531898 
L 722.231411 169.207098 
L 722.914274 167.91364 
L 723.597137 160.225165 
L 724.28 166.357946 
L 724.28 166.357946 
" style="fill:none;stroke:#ff7f0e;stroke-linecap:square;stroke-width:1.5;"/>
   </g>
   <g id="patch_3">
    <path d="M 42.1 404.12 
L 42.1 26.52 
" style="fill:none;stroke:#000000;stroke-linecap:square;stroke-linejoin:miter;stroke-width:0.8;"/>
   </g>
   <g id="patch_4">
    <path d="M 724.28 404.12 
L 724.28 26.52 
" style="fill:none;stroke:#000000;stroke-linecap:square;stroke-linejoin:miter;stroke-width:0.8;"/>
   </g>
   <g id="patch_5">
    <path d="M 42.1 404.12 
L 724.28 404.12 
" style="fill:none;stroke:#000000;stroke-linecap:square;stroke-linejoin:miter;stroke-width:0.8;"/>
   </g>
   <g id="patch_6">
    <path d="M 42.1 26.52 
L 724.28 26.52 
" style="fill:none;stroke:#000000;stroke-linecap:square;stroke-linejoin:miter;stroke-width:0.8;"/>
   </g>
   <g id="text_11">
    <!-- multi_way_v1__4: episode duration in steps log-relative to `htm_4_1g`, MA=20 -->
    <defs>
     <path d="M 52 44.1875 
Q 55.375 50.25 60.0625 53.125 
Q 64.75 56 71.09375 56 
Q 79.640625 56 84.28125 50.015625 
Q 88.921875 44.046875 88.921875 33.015625 
L 88.921875 0 
L 79.890625 0 
L 79.890625 32.71875 
Q 79.890625 40.578125 77.09375 44.375 
Q 74.3125 48.1875 68.609375 48.1875 
Q 61.625 48.1875 57.5625 43.546875 
Q 53.515625 38.921875 53.515625 30.90625 
L 53.515625 0 
L 44.484375 0 
L 44.484375 32.71875 
Q 44.484375 40.625 41.703125 44.40625 
Q 38.921875 48.1875 33.109375 48.1875 
Q 26.21875 48.1875 22.15625 43.53125 
Q 18.109375 38.875 18.109375 30.90625 
L 18.109375 0 
L 9.078125 0 
L 9.078125 54.6875 
L 18.109375 54.6875 
L 18.109375 46.1875 
Q 21.1875 51.21875 25.484375 53.609375 
Q 29.78125 56 35.6875 56 
Q 41.65625 56 45.828125 52.96875 
Q 50 49.953125 52 44.1875 
z
" id="DejaVuSans-109"/>
     <path d="M 8.5 21.578125 
L 8.5 54.6875 
L 17.484375 54.6875 
L 17.484375 21.921875 
Q 17.484375 14.15625 20.5 10.265625 
Q 23.53125 6.390625 29.59375 6.390625 
Q 36.859375 6.390625 41.078125 11.03125 
Q 45.3125 15.671875 45.3125 23.6875 
L 45.3125 54.6875 
L 54.296875 54.6875 
L 54.296875 0 
L 45.3125 0 
L 45.3125 8.40625 
Q 42.046875 3.421875 37.71875 1 
Q 33.40625 -1.421875 27.6875 -1.421875 
Q 18.265625 -1.421875 13.375 4.4375 
Q 8.5 10.296875 8.5 21.578125 
z
M 31.109375 56 
z
" id="DejaVuSans-117"/>
     <path d="M 9.421875 75.984375 
L 18.40625 75.984375 
L 18.40625 0 
L 9.421875 0 
z
" id="DejaVuSans-108"/>
     <path d="M 18.3125 70.21875 
L 18.3125 54.6875 
L 36.8125 54.6875 
L 36.8125 47.703125 
L 18.3125 47.703125 
L 18.3125 18.015625 
Q 18.3125 11.328125 20.140625 9.421875 
Q 21.96875 7.515625 27.59375 7.515625 
L 36.8125 7.515625 
L 36.8125 0 
L 27.59375 0 
Q 17.1875 0 13.234375 3.875 
Q 9.28125 7.765625 9.28125 18.015625 
L 9.28125 47.703125 
L 2.6875 47.703125 
L 2.6875 54.6875 
L 9.28125 54.6875 
L 9.28125 70.21875 
z
" id="DejaVuSans-116"/>
     <path d="M 9.421875 54.6875 
L 18.40625 54.6875 
L 18.40625 0 
L 9.421875 0 
z
M 9.421875 75.984375 
L 18.40625 75.984375 
L 18.40625 64.59375 
L 9.421875 64.59375 
z
" id="DejaVuSans-105"/>
     <path d="M 50.984375 -16.609375 
L 50.984375 -23.578125 
L -0.984375 -23.578125 
L -0.984375 -16.609375 
z
" id="DejaVuSans-95"/>
     <path d="M 4.203125 54.6875 
L 13.1875 54.6875 
L 24.421875 12.015625 
L 35.59375 54.6875 
L 46.1875 54.6875 
L 57.421875 12.015625 
L 68.609375 54.6875 
L 77.59375 54.6875 
L 63.28125 0 
L 52.6875 0 
L 40.921875 44.828125 
L 29.109375 0 
L 18.5 0 
z
" id="DejaVuSans-119"/>
     <path d="M 34.28125 27.484375 
Q 23.390625 27.484375 19.1875 25 
Q 14.984375 22.515625 14.984375 16.5 
Q 14.984375 11.71875 18.140625 8.90625 
Q 21.296875 6.109375 26.703125 6.109375 
Q 34.1875 6.109375 38.703125 11.40625 
Q 43.21875 16.703125 43.21875 25.484375 
L 43.21875 27.484375 
z
M 52.203125 31.203125 
L 52.203125 0 
L 43.21875 0 
L 43.21875 8.296875 
Q 40.140625 3.328125 35.546875 0.953125 
Q 30.953125 -1.421875 24.3125 -1.421875 
Q 15.921875 -1.421875 10.953125 3.296875 
Q 6 8.015625 6 15.921875 
Q 6 25.140625 12.171875 29.828125 
Q 18.359375 34.515625 30.609375 34.515625 
L 43.21875 34.515625 
L 43.21875 35.40625 
Q 43.21875 41.609375 39.140625 45 
Q 35.0625 48.390625 27.6875 48.390625 
Q 23 48.390625 18.546875 47.265625 
Q 14.109375 46.140625 10.015625 43.890625 
L 10.015625 52.203125 
Q 14.9375 54.109375 19.578125 55.046875 
Q 24.21875 56 28.609375 56 
Q 40.484375 56 46.34375 49.84375 
Q 52.203125 43.703125 52.203125 31.203125 
z
" id="DejaVuSans-97"/>
     <path d="M 32.171875 -5.078125 
Q 28.375 -14.84375 24.75 -17.8125 
Q 21.140625 -20.796875 15.09375 -20.796875 
L 7.90625 -20.796875 
L 7.90625 -13.28125 
L 13.1875 -13.28125 
Q 16.890625 -13.28125 18.9375 -11.515625 
Q 21 -9.765625 23.484375 -3.21875 
L 25.09375 0.875 
L 2.984375 54.6875 
L 12.5 54.6875 
L 29.59375 11.921875 
L 46.6875 54.6875 
L 56.203125 54.6875 
z
" id="DejaVuSans-121"/>
     <path d="M 2.984375 54.6875 
L 12.5 54.6875 
L 29.59375 8.796875 
L 46.6875 54.6875 
L 56.203125 54.6875 
L 35.6875 0 
L 23.484375 0 
z
" id="DejaVuSans-118"/>
     <path d="M 11.71875 12.40625 
L 22.015625 12.40625 
L 22.015625 0 
L 11.71875 0 
z
M 11.71875 51.703125 
L 22.015625 51.703125 
L 22.015625 39.3125 
L 11.71875 39.3125 
z
" id="DejaVuSans-58"/>
     <path id="DejaVuSans-32"/>
     <path d="M 56.203125 29.59375 
L 56.203125 25.203125 
L 14.890625 25.203125 
Q 15.484375 15.921875 20.484375 11.0625 
Q 25.484375 6.203125 34.421875 6.203125 
Q 39.59375 6.203125 44.453125 7.46875 
Q 49.3125 8.734375 54.109375 11.28125 
L 54.109375 2.78125 
Q 49.265625 0.734375 44.1875 -0.34375 
Q 39.109375 -1.421875 33.890625 -1.421875 
Q 20.796875 -1.421875 13.15625 6.1875 
Q 5.515625 13.8125 5.515625 26.8125 
Q 5.515625 40.234375 12.765625 48.109375 
Q 20.015625 56 32.328125 56 
Q 43.359375 56 49.78125 48.890625 
Q 56.203125 41.796875 56.203125 29.59375 
z
M 47.21875 32.234375 
Q 47.125 39.59375 43.09375 43.984375 
Q 39.0625 48.390625 32.421875 48.390625 
Q 24.90625 48.390625 20.390625 44.140625 
Q 15.875 39.890625 15.1875 32.171875 
z
" id="DejaVuSans-101"/>
     <path d="M 18.109375 8.203125 
L 18.109375 -20.796875 
L 9.078125 -20.796875 
L 9.078125 54.6875 
L 18.109375 54.6875 
L 18.109375 46.390625 
Q 20.953125 51.265625 25.265625 53.625 
Q 29.59375 56 35.59375 56 
Q 45.5625 56 51.78125 48.09375 
Q 58.015625 40.1875 58.015625 27.296875 
Q 58.015625 14.40625 51.78125 6.484375 
Q 45.5625 -1.421875 35.59375 -1.421875 
Q 29.59375 -1.421875 25.265625 0.953125 
Q 20.953125 3.328125 18.109375 8.203125 
z
M 48.6875 27.296875 
Q 48.6875 37.203125 44.609375 42.84375 
Q 40.53125 48.484375 33.40625 48.484375 
Q 26.265625 48.484375 22.1875 42.84375 
Q 18.109375 37.203125 18.109375 27.296875 
Q 18.109375 17.390625 22.1875 11.75 
Q 26.265625 6.109375 33.40625 6.109375 
Q 40.53125 6.109375 44.609375 11.75 
Q 48.6875 17.390625 48.6875 27.296875 
z
" id="DejaVuSans-112"/>
     <path d="M 44.28125 53.078125 
L 44.28125 44.578125 
Q 40.484375 46.53125 36.375 47.5 
Q 32.28125 48.484375 27.875 48.484375 
Q 21.1875 48.484375 17.84375 46.4375 
Q 14.5 44.390625 14.5 40.28125 
Q 14.5 37.15625 16.890625 35.375 
Q 19.28125 33.59375 26.515625 31.984375 
L 29.59375 31.296875 
Q 39.15625 29.25 43.1875 25.515625 
Q 47.21875 21.78125 47.21875 15.09375 
Q 47.21875 7.46875 41.1875 3.015625 
Q 35.15625 -1.421875 24.609375 -1.421875 
Q 20.21875 -1.421875 15.453125 -0.5625 
Q 10.6875 0.296875 5.421875 2 
L 5.421875 11.28125 
Q 10.40625 8.6875 15.234375 7.390625 
Q 20.0625 6.109375 24.8125 6.109375 
Q 31.15625 6.109375 34.5625 8.28125 
Q 37.984375 10.453125 37.984375 14.40625 
Q 37.984375 18.0625 35.515625 20.015625 
Q 33.0625 21.96875 24.703125 23.78125 
L 21.578125 24.515625 
Q 13.234375 26.265625 9.515625 29.90625 
Q 5.8125 33.546875 5.8125 39.890625 
Q 5.8125 47.609375 11.28125 51.796875 
Q 16.75 56 26.8125 56 
Q 31.78125 56 36.171875 55.265625 
Q 40.578125 54.546875 44.28125 53.078125 
z
" id="DejaVuSans-115"/>
     <path d="M 30.609375 48.390625 
Q 23.390625 48.390625 19.1875 42.75 
Q 14.984375 37.109375 14.984375 27.296875 
Q 14.984375 17.484375 19.15625 11.84375 
Q 23.34375 6.203125 30.609375 6.203125 
Q 37.796875 6.203125 41.984375 11.859375 
Q 46.1875 17.53125 46.1875 27.296875 
Q 46.1875 37.015625 41.984375 42.703125 
Q 37.796875 48.390625 30.609375 48.390625 
z
M 30.609375 56 
Q 42.328125 56 49.015625 48.375 
Q 55.71875 40.765625 55.71875 27.296875 
Q 55.71875 13.875 49.015625 6.21875 
Q 42.328125 -1.421875 30.609375 -1.421875 
Q 18.84375 -1.421875 12.171875 6.21875 
Q 5.515625 13.875 5.515625 27.296875 
Q 5.515625 40.765625 12.171875 48.375 
Q 18.84375 56 30.609375 56 
z
" id="DejaVuSans-111"/>
     <path d="M 45.40625 46.390625 
L 45.40625 75.984375 
L 54.390625 75.984375 
L 54.390625 0 
L 45.40625 0 
L 45.40625 8.203125 
Q 42.578125 3.328125 38.25 0.953125 
Q 33.9375 -1.421875 27.875 -1.421875 
Q 17.96875 -1.421875 11.734375 6.484375 
Q 5.515625 14.40625 5.515625 27.296875 
Q 5.515625 40.1875 11.734375 48.09375 
Q 17.96875 56 27.875 56 
Q 33.9375 56 38.25 53.625 
Q 42.578125 51.265625 45.40625 46.390625 
z
M 14.796875 27.296875 
Q 14.796875 17.390625 18.875 11.75 
Q 22.953125 6.109375 30.078125 6.109375 
Q 37.203125 6.109375 41.296875 11.75 
Q 45.40625 17.390625 45.40625 27.296875 
Q 45.40625 37.203125 41.296875 42.84375 
Q 37.203125 48.484375 30.078125 48.484375 
Q 22.953125 48.484375 18.875 42.84375 
Q 14.796875 37.203125 14.796875 27.296875 
z
" id="DejaVuSans-100"/>
     <path d="M 41.109375 46.296875 
Q 39.59375 47.171875 37.8125 47.578125 
Q 36.03125 48 33.890625 48 
Q 26.265625 48 22.1875 43.046875 
Q 18.109375 38.09375 18.109375 28.8125 
L 18.109375 0 
L 9.078125 0 
L 9.078125 54.6875 
L 18.109375 54.6875 
L 18.109375 46.1875 
Q 20.953125 51.171875 25.484375 53.578125 
Q 30.03125 56 36.53125 56 
Q 37.453125 56 38.578125 55.875 
Q 39.703125 55.765625 41.0625 55.515625 
z
" id="DejaVuSans-114"/>
     <path d="M 54.890625 33.015625 
L 54.890625 0 
L 45.90625 0 
L 45.90625 32.71875 
Q 45.90625 40.484375 42.875 44.328125 
Q 39.84375 48.1875 33.796875 48.1875 
Q 26.515625 48.1875 22.3125 43.546875 
Q 18.109375 38.921875 18.109375 30.90625 
L 18.109375 0 
L 9.078125 0 
L 9.078125 54.6875 
L 18.109375 54.6875 
L 18.109375 46.1875 
Q 21.34375 51.125 25.703125 53.5625 
Q 30.078125 56 35.796875 56 
Q 45.21875 56 50.046875 50.171875 
Q 54.890625 44.34375 54.890625 33.015625 
z
" id="DejaVuSans-110"/>
     <path d="M 45.40625 27.984375 
Q 45.40625 37.75 41.375 43.109375 
Q 37.359375 48.484375 30.078125 48.484375 
Q 22.859375 48.484375 18.828125 43.109375 
Q 14.796875 37.75 14.796875 27.984375 
Q 14.796875 18.265625 18.828125 12.890625 
Q 22.859375 7.515625 30.078125 7.515625 
Q 37.359375 7.515625 41.375 12.890625 
Q 45.40625 18.265625 45.40625 27.984375 
z
M 54.390625 6.78125 
Q 54.390625 -7.171875 48.1875 -13.984375 
Q 42 -20.796875 29.203125 -20.796875 
Q 24.46875 -20.796875 20.265625 -20.09375 
Q 16.0625 -19.390625 12.109375 -17.921875 
L 12.109375 -9.1875 
Q 16.0625 -11.328125 19.921875 -12.34375 
Q 23.78125 -13.375 27.78125 -13.375 
Q 36.625 -13.375 41.015625 -8.765625 
Q 45.40625 -4.15625 45.40625 5.171875 
L 45.40625 9.625 
Q 42.625 4.78125 38.28125 2.390625 
Q 33.9375 0 27.875 0 
Q 17.828125 0 11.671875 7.65625 
Q 5.515625 15.328125 5.515625 27.984375 
Q 5.515625 40.671875 11.671875 48.328125 
Q 17.828125 56 27.875 56 
Q 33.9375 56 38.28125 53.609375 
Q 42.625 51.21875 45.40625 46.390625 
L 45.40625 54.6875 
L 54.390625 54.6875 
z
" id="DejaVuSans-103"/>
     <path d="M 4.890625 31.390625 
L 31.203125 31.390625 
L 31.203125 23.390625 
L 4.890625 23.390625 
z
" id="DejaVuSans-45"/>
     <path d="M 17.921875 79.984375 
L 31.6875 61.71875 
L 24.21875 61.71875 
L 8.296875 79.984375 
z
" id="DejaVuSans-96"/>
     <path d="M 54.890625 33.015625 
L 54.890625 0 
L 45.90625 0 
L 45.90625 32.71875 
Q 45.90625 40.484375 42.875 44.328125 
Q 39.84375 48.1875 33.796875 48.1875 
Q 26.515625 48.1875 22.3125 43.546875 
Q 18.109375 38.921875 18.109375 30.90625 
L 18.109375 0 
L 9.078125 0 
L 9.078125 75.984375 
L 18.109375 75.984375 
L 18.109375 46.1875 
Q 21.34375 51.125 25.703125 53.5625 
Q 30.078125 56 35.796875 56 
Q 45.21875 56 50.046875 50.171875 
Q 54.890625 44.34375 54.890625 33.015625 
z
" id="DejaVuSans-104"/>
     <path d="M 11.71875 12.40625 
L 22.015625 12.40625 
L 22.015625 4 
L 14.015625 -11.625 
L 7.71875 -11.625 
L 11.71875 4 
z
" id="DejaVuSans-44"/>
     <path d="M 9.8125 72.90625 
L 24.515625 72.90625 
L 43.109375 23.296875 
L 61.8125 72.90625 
L 76.515625 72.90625 
L 76.515625 0 
L 66.890625 0 
L 66.890625 64.015625 
L 48.09375 14.015625 
L 38.1875 14.015625 
L 19.390625 64.015625 
L 19.390625 0 
L 9.8125 0 
z
" id="DejaVuSans-77"/>
     <path d="M 34.1875 63.1875 
L 20.796875 26.90625 
L 47.609375 26.90625 
z
M 28.609375 72.90625 
L 39.796875 72.90625 
L 67.578125 0 
L 57.328125 0 
L 50.6875 18.703125 
L 17.828125 18.703125 
L 11.1875 0 
L 0.78125 0 
z
" id="DejaVuSans-65"/>
     <path d="M 10.59375 45.40625 
L 73.1875 45.40625 
L 73.1875 37.203125 
L 10.59375 37.203125 
z
M 10.59375 25.484375 
L 73.1875 25.484375 
L 73.1875 17.1875 
L 10.59375 17.1875 
z
" id="DejaVuSans-61"/>
    </defs>
    <g transform="translate(145.580625 20.52)scale(0.12 -0.12)">
     <use xlink:href="#DejaVuSans-109"/>
     <use x="97.412109" xlink:href="#DejaVuSans-117"/>
     <use x="160.791016" xlink:href="#DejaVuSans-108"/>
     <use x="188.574219" xlink:href="#DejaVuSans-116"/>
     <use x="227.783203" xlink:href="#DejaVuSans-105"/>
     <use x="255.566406" xlink:href="#DejaVuSans-95"/>
     <use x="305.566406" xlink:href="#DejaVuSans-119"/>
     <use x="387.353516" xlink:href="#DejaVuSans-97"/>
     <use x="448.632812" xlink:href="#DejaVuSans-121"/>
     <use x="507.8125" xlink:href="#DejaVuSans-95"/>
     <use x="557.8125" xlink:href="#DejaVuSans-118"/>
     <use x="616.992188" xlink:href="#DejaVuSans-49"/>
     <use x="680.615234" xlink:href="#DejaVuSans-95"/>
     <use x="730.615234" xlink:href="#DejaVuSans-95"/>
     <use x="780.615234" xlink:href="#DejaVuSans-52"/>
     <use x="844.238281" xlink:href="#DejaVuSans-58"/>
     <use x="877.929688" xlink:href="#DejaVuSans-32"/>
     <use x="909.716797" xlink:href="#DejaVuSans-101"/>
     <use x="971.240234" xlink:href="#DejaVuSans-112"/>
     <use x="1034.716797" xlink:href="#DejaVuSans-105"/>
     <use x="1062.5" xlink:href="#DejaVuSans-115"/>
     <use x="1114.599609" xlink:href="#DejaVuSans-111"/>
     <use x="1175.78125" xlink:href="#DejaVuSans-100"/>
     <use x="1239.257812" xlink:href="#DejaVuSans-101"/>
     <use x="1300.78125" xlink:href="#DejaVuSans-32"/>
     <use x="1332.568359" xlink:href="#DejaVuSans-100"/>
     <use x="1396.044922" xlink:href="#DejaVuSans-117"/>
     <use x="1459.423828" xlink:href="#DejaVuSans-114"/>
     <use x="1500.537109" xlink:href="#DejaVuSans-97"/>
     <use x="1561.816406" xlink:href="#DejaVuSans-116"/>
     <use x="1601.025391" xlink:href="#DejaVuSans-105"/>
     <use x="1628.808594" xlink:href="#DejaVuSans-111"/>
     <use x="1689.990234" xlink:href="#DejaVuSans-110"/>
     <use x="1753.369141" xlink:href="#DejaVuSans-32"/>
     <use x="1785.15625" xlink:href="#DejaVuSans-105"/>
     <use x="1812.939453" xlink:href="#DejaVuSans-110"/>
     <use x="1876.318359" xlink:href="#DejaVuSans-32"/>
     <use x="1908.105469" xlink:href="#DejaVuSans-115"/>
     <use x="1960.205078" xlink:href="#DejaVuSans-116"/>
     <use x="1999.414062" xlink:href="#DejaVuSans-101"/>
     <use x="2060.9375" xlink:href="#DejaVuSans-112"/>
     <use x="2124.414062" xlink:href="#DejaVuSans-115"/>
     <use x="2176.513672" xlink:href="#DejaVuSans-32"/>
     <use x="2208.300781" xlink:href="#DejaVuSans-108"/>
     <use x="2236.083984" xlink:href="#DejaVuSans-111"/>
     <use x="2297.265625" xlink:href="#DejaVuSans-103"/>
     <use x="2360.742188" xlink:href="#DejaVuSans-45"/>
     <use x="2396.826172" xlink:href="#DejaVuSans-114"/>
     <use x="2437.908203" xlink:href="#DejaVuSans-101"/>
     <use x="2499.431641" xlink:href="#DejaVuSans-108"/>
     <use x="2527.214844" xlink:href="#DejaVuSans-97"/>
     <use x="2588.494141" xlink:href="#DejaVuSans-116"/>
     <use x="2627.703125" xlink:href="#DejaVuSans-105"/>
     <use x="2655.486328" xlink:href="#DejaVuSans-118"/>
     <use x="2714.666016" xlink:href="#DejaVuSans-101"/>
     <use x="2776.189453" xlink:href="#DejaVuSans-32"/>
     <use x="2807.976562" xlink:href="#DejaVuSans-116"/>
     <use x="2847.185547" xlink:href="#DejaVuSans-111"/>
     <use x="2908.367188" xlink:href="#DejaVuSans-32"/>
     <use x="2940.154297" xlink:href="#DejaVuSans-96"/>
     <use x="2990.154297" xlink:href="#DejaVuSans-104"/>
     <use x="3053.533203" xlink:href="#DejaVuSans-116"/>
     <use x="3092.742188" xlink:href="#DejaVuSans-109"/>
     <use x="3190.154297" xlink:href="#DejaVuSans-95"/>
     <use x="3240.154297" xlink:href="#DejaVuSans-52"/>
     <use x="3303.777344" xlink:href="#DejaVuSans-95"/>
     <use x="3353.777344" xlink:href="#DejaVuSans-49"/>
     <use x="3417.400391" xlink:href="#DejaVuSans-103"/>
     <use x="3480.876953" xlink:href="#DejaVuSans-96"/>
     <use x="3530.876953" xlink:href="#DejaVuSans-44"/>
     <use x="3562.664062" xlink:href="#DejaVuSans-32"/>
     <use x="3594.451172" xlink:href="#DejaVuSans-77"/>
     <use x="3680.730469" xlink:href="#DejaVuSans-65"/>
     <use x="3749.138672" xlink:href="#DejaVuSans-61"/>
     <use x="3832.927734" xlink:href="#DejaVuSans-50"/>
     <use x="3896.550781" xlink:href="#DejaVuSans-48"/>
    </g>
   </g>
   <g id="legend_1">
    <g id="patch_7">
     <path d="M 772.644125 231.77625 
L 853.716 231.77625 
Q 855.716 231.77625 855.716 229.77625 
L 855.716 200.86375 
Q 855.716 198.86375 853.716 198.86375 
L 772.644125 198.86375 
Q 770.644125 198.86375 770.644125 200.86375 
L 770.644125 229.77625 
Q 770.644125 231.77625 772.644125 231.77625 
z
" style="fill:#ffffff;opacity:0.8;stroke:#cccccc;stroke-linejoin:miter;"/>
    </g>
    <g id="line2d_13">
     <path d="M 774.644125 206.962187 
L 794.644125 206.962187 
" style="fill:none;stroke:#1f77b4;stroke-linecap:square;stroke-width:1.5;"/>
    </g>
    <g id="line2d_14"/>
    <g id="text_12">
     <!-- htm_4_1g -->
     <g transform="translate(802.644125 210.462187)scale(0.1 -0.1)">
      <use xlink:href="#DejaVuSans-104"/>
      <use x="63.378906" xlink:href="#DejaVuSans-116"/>
      <use x="102.587891" xlink:href="#DejaVuSans-109"/>
      <use x="200" xlink:href="#DejaVuSans-95"/>
      <use x="250" xlink:href="#DejaVuSans-52"/>
      <use x="313.623047" xlink:href="#DejaVuSans-95"/>
      <use x="363.623047" xlink:href="#DejaVuSans-49"/>
      <use x="427.246094" xlink:href="#DejaVuSans-103"/>
     </g>
    </g>
    <g id="line2d_15">
     <path d="M 774.644125 221.918437 
L 794.644125 221.918437 
" style="fill:none;stroke:#ff7f0e;stroke-linecap:square;stroke-width:1.5;"/>
    </g>
    <g id="line2d_16"/>
    <g id="text_13">
     <!-- htm_4 -->
     <g transform="translate(802.644125 225.418437)scale(0.1 -0.1)">
      <use xlink:href="#DejaVuSans-104"/>
      <use x="63.378906" xlink:href="#DejaVuSans-116"/>
      <use x="102.587891" xlink:href="#DejaVuSans-109"/>
      <use x="200" xlink:href="#DejaVuSans-95"/>
      <use x="250" xlink:href="#DejaVuSans-52"/>
     </g>
    </g>
   </g>
  </g>
 </g>
 <defs>
  <clipPath id="p31a9c46187">
   <rect height="377.6" width="682.18" x="42.1" y="26.52"/>
  </clipPath>
 </defs>
</svg>
