<?xml version="1.0" encoding="utf-8" standalone="no"?>
<!DOCTYPE svg PUBLIC "-//W3C//DTD SVG 1.1//EN"
  "http://www.w3.org/Graphics/SVG/1.1/DTD/svg11.dtd">
<!-- Created with matplotlib (https://matplotlib.org/) -->
<svg height="432pt" version="1.1" viewBox="0 0 864 432" width="864pt" xmlns="http://www.w3.org/2000/svg" xmlns:xlink="http://www.w3.org/1999/xlink">
 <defs>
  <style type="text/css">
*{stroke-linecap:butt;stroke-linejoin:round;}
  </style>
 </defs>
 <g id="figure_1">
  <g id="patch_1">
   <path d="M 0 432 
L 864 432 
L 864 0 
L 0 0 
z
" style="fill:#ffffff;"/>
  </g>
  <g id="axes_1">
   <g id="patch_2">
    <path d="M 36.925 404.12 
L 724.28 404.12 
L 724.28 26.16 
L 36.925 26.16 
z
" style="fill:#ffffff;"/>
   </g>
   <g id="matplotlib.axis_1">
    <g id="xtick_1">
     <g id="line2d_1">
      <defs>
       <path d="M 0 0 
L 0 3.5 
" id="md0d636f652" style="stroke:#000000;stroke-width:0.8;"/>
      </defs>
      <g>
       <use style="stroke:#000000;stroke-width:0.8;" x="36.925" xlink:href="#md0d636f652" y="404.12"/>
      </g>
     </g>
     <g id="text_1">
      <!-- 0 -->
      <defs>
       <path d="M 31.78125 66.40625 
Q 24.171875 66.40625 20.328125 58.90625 
Q 16.5 51.421875 16.5 36.375 
Q 16.5 21.390625 20.328125 13.890625 
Q 24.171875 6.390625 31.78125 6.390625 
Q 39.453125 6.390625 43.28125 13.890625 
Q 47.125 21.390625 47.125 36.375 
Q 47.125 51.421875 43.28125 58.90625 
Q 39.453125 66.40625 31.78125 66.40625 
z
M 31.78125 74.21875 
Q 44.046875 74.21875 50.515625 64.515625 
Q 56.984375 54.828125 56.984375 36.375 
Q 56.984375 17.96875 50.515625 8.265625 
Q 44.046875 -1.421875 31.78125 -1.421875 
Q 19.53125 -1.421875 13.0625 8.265625 
Q 6.59375 17.96875 6.59375 36.375 
Q 6.59375 54.828125 13.0625 64.515625 
Q 19.53125 74.21875 31.78125 74.21875 
z
" id="DejaVuSans-48"/>
      </defs>
      <g transform="translate(33.74375 418.718437)scale(0.1 -0.1)">
       <use xlink:href="#DejaVuSans-48"/>
      </g>
     </g>
    </g>
    <g id="xtick_2">
     <g id="line2d_2">
      <g>
       <use style="stroke:#000000;stroke-width:0.8;" x="174.533609" xlink:href="#md0d636f652" y="404.12"/>
      </g>
     </g>
     <g id="text_2">
      <!-- 200 -->
      <defs>
       <path d="M 19.1875 8.296875 
L 53.609375 8.296875 
L 53.609375 0 
L 7.328125 0 
L 7.328125 8.296875 
Q 12.9375 14.109375 22.625 23.890625 
Q 32.328125 33.6875 34.8125 36.53125 
Q 39.546875 41.84375 41.421875 45.53125 
Q 43.3125 49.21875 43.3125 52.78125 
Q 43.3125 58.59375 39.234375 62.25 
Q 35.15625 65.921875 28.609375 65.921875 
Q 23.96875 65.921875 18.8125 64.3125 
Q 13.671875 62.703125 7.8125 59.421875 
L 7.8125 69.390625 
Q 13.765625 71.78125 18.9375 73 
Q 24.125 74.21875 28.421875 74.21875 
Q 39.75 74.21875 46.484375 68.546875 
Q 53.21875 62.890625 53.21875 53.421875 
Q 53.21875 48.921875 51.53125 44.890625 
Q 49.859375 40.875 45.40625 35.40625 
Q 44.1875 33.984375 37.640625 27.21875 
Q 31.109375 20.453125 19.1875 8.296875 
z
" id="DejaVuSans-50"/>
      </defs>
      <g transform="translate(164.989859 418.718437)scale(0.1 -0.1)">
       <use xlink:href="#DejaVuSans-50"/>
       <use x="63.623047" xlink:href="#DejaVuSans-48"/>
       <use x="127.246094" xlink:href="#DejaVuSans-48"/>
      </g>
     </g>
    </g>
    <g id="xtick_3">
     <g id="line2d_3">
      <g>
       <use style="stroke:#000000;stroke-width:0.8;" x="312.142217" xlink:href="#md0d636f652" y="404.12"/>
      </g>
     </g>
     <g id="text_3">
      <!-- 400 -->
      <defs>
       <path d="M 37.796875 64.3125 
L 12.890625 25.390625 
L 37.796875 25.390625 
z
M 35.203125 72.90625 
L 47.609375 72.90625 
L 47.609375 25.390625 
L 58.015625 25.390625 
L 58.015625 17.1875 
L 47.609375 17.1875 
L 47.609375 0 
L 37.796875 0 
L 37.796875 17.1875 
L 4.890625 17.1875 
L 4.890625 26.703125 
z
" id="DejaVuSans-52"/>
      </defs>
      <g transform="translate(302.598467 418.718437)scale(0.1 -0.1)">
       <use xlink:href="#DejaVuSans-52"/>
       <use x="63.623047" xlink:href="#DejaVuSans-48"/>
       <use x="127.246094" xlink:href="#DejaVuSans-48"/>
      </g>
     </g>
    </g>
    <g id="xtick_4">
     <g id="line2d_4">
      <g>
       <use style="stroke:#000000;stroke-width:0.8;" x="449.750826" xlink:href="#md0d636f652" y="404.12"/>
      </g>
     </g>
     <g id="text_4">
      <!-- 600 -->
      <defs>
       <path d="M 33.015625 40.375 
Q 26.375 40.375 22.484375 35.828125 
Q 18.609375 31.296875 18.609375 23.390625 
Q 18.609375 15.53125 22.484375 10.953125 
Q 26.375 6.390625 33.015625 6.390625 
Q 39.65625 6.390625 43.53125 10.953125 
Q 47.40625 15.53125 47.40625 23.390625 
Q 47.40625 31.296875 43.53125 35.828125 
Q 39.65625 40.375 33.015625 40.375 
z
M 52.59375 71.296875 
L 52.59375 62.3125 
Q 48.875 64.0625 45.09375 64.984375 
Q 41.3125 65.921875 37.59375 65.921875 
Q 27.828125 65.921875 22.671875 59.328125 
Q 17.53125 52.734375 16.796875 39.40625 
Q 19.671875 43.65625 24.015625 45.921875 
Q 28.375 48.1875 33.59375 48.1875 
Q 44.578125 48.1875 50.953125 41.515625 
Q 57.328125 34.859375 57.328125 23.390625 
Q 57.328125 12.15625 50.6875 5.359375 
Q 44.046875 -1.421875 33.015625 -1.421875 
Q 20.359375 -1.421875 13.671875 8.265625 
Q 6.984375 17.96875 6.984375 36.375 
Q 6.984375 53.65625 15.1875 63.9375 
Q 23.390625 74.21875 37.203125 74.21875 
Q 40.921875 74.21875 44.703125 73.484375 
Q 48.484375 72.75 52.59375 71.296875 
z
" id="DejaVuSans-54"/>
      </defs>
      <g transform="translate(440.207076 418.718437)scale(0.1 -0.1)">
       <use xlink:href="#DejaVuSans-54"/>
       <use x="63.623047" xlink:href="#DejaVuSans-48"/>
       <use x="127.246094" xlink:href="#DejaVuSans-48"/>
      </g>
     </g>
    </g>
    <g id="xtick_5">
     <g id="line2d_5">
      <g>
       <use style="stroke:#000000;stroke-width:0.8;" x="587.359434" xlink:href="#md0d636f652" y="404.12"/>
      </g>
     </g>
     <g id="text_5">
      <!-- 800 -->
      <defs>
       <path d="M 31.78125 34.625 
Q 24.75 34.625 20.71875 30.859375 
Q 16.703125 27.09375 16.703125 20.515625 
Q 16.703125 13.921875 20.71875 10.15625 
Q 24.75 6.390625 31.78125 6.390625 
Q 38.8125 6.390625 42.859375 10.171875 
Q 46.921875 13.96875 46.921875 20.515625 
Q 46.921875 27.09375 42.890625 30.859375 
Q 38.875 34.625 31.78125 34.625 
z
M 21.921875 38.8125 
Q 15.578125 40.375 12.03125 44.71875 
Q 8.5 49.078125 8.5 55.328125 
Q 8.5 64.0625 14.71875 69.140625 
Q 20.953125 74.21875 31.78125 74.21875 
Q 42.671875 74.21875 48.875 69.140625 
Q 55.078125 64.0625 55.078125 55.328125 
Q 55.078125 49.078125 51.53125 44.71875 
Q 48 40.375 41.703125 38.8125 
Q 48.828125 37.15625 52.796875 32.3125 
Q 56.78125 27.484375 56.78125 20.515625 
Q 56.78125 9.90625 50.3125 4.234375 
Q 43.84375 -1.421875 31.78125 -1.421875 
Q 19.734375 -1.421875 13.25 4.234375 
Q 6.78125 9.90625 6.78125 20.515625 
Q 6.78125 27.484375 10.78125 32.3125 
Q 14.796875 37.15625 21.921875 38.8125 
z
M 18.3125 54.390625 
Q 18.3125 48.734375 21.84375 45.5625 
Q 25.390625 42.390625 31.78125 42.390625 
Q 38.140625 42.390625 41.71875 45.5625 
Q 45.3125 48.734375 45.3125 54.390625 
Q 45.3125 60.0625 41.71875 63.234375 
Q 38.140625 66.40625 31.78125 66.40625 
Q 25.390625 66.40625 21.84375 63.234375 
Q 18.3125 60.0625 18.3125 54.390625 
z
" id="DejaVuSans-56"/>
      </defs>
      <g transform="translate(577.815684 418.718437)scale(0.1 -0.1)">
       <use xlink:href="#DejaVuSans-56"/>
       <use x="63.623047" xlink:href="#DejaVuSans-48"/>
       <use x="127.246094" xlink:href="#DejaVuSans-48"/>
      </g>
     </g>
    </g>
   </g>
   <g id="matplotlib.axis_2">
    <g id="ytick_1">
     <g id="line2d_6">
      <defs>
       <path d="M 0 0 
L -3.5 0 
" id="m4e16340953" style="stroke:#000000;stroke-width:0.8;"/>
      </defs>
      <g>
       <use style="stroke:#000000;stroke-width:0.8;" x="36.925" xlink:href="#m4e16340953" y="392.076024"/>
      </g>
     </g>
     <g id="text_6">
      <!-- 0 -->
      <g transform="translate(23.5625 395.875243)scale(0.1 -0.1)">
       <use xlink:href="#DejaVuSans-48"/>
      </g>
     </g>
    </g>
    <g id="ytick_2">
     <g id="line2d_7">
      <g>
       <use style="stroke:#000000;stroke-width:0.8;" x="36.925" xlink:href="#m4e16340953" y="340.715785"/>
      </g>
     </g>
     <g id="text_7">
      <!-- 20 -->
      <g transform="translate(17.2 344.515004)scale(0.1 -0.1)">
       <use xlink:href="#DejaVuSans-50"/>
       <use x="63.623047" xlink:href="#DejaVuSans-48"/>
      </g>
     </g>
    </g>
    <g id="ytick_3">
     <g id="line2d_8">
      <g>
       <use style="stroke:#000000;stroke-width:0.8;" x="36.925" xlink:href="#m4e16340953" y="289.355546"/>
      </g>
     </g>
     <g id="text_8">
      <!-- 40 -->
      <g transform="translate(17.2 293.154764)scale(0.1 -0.1)">
       <use xlink:href="#DejaVuSans-52"/>
       <use x="63.623047" xlink:href="#DejaVuSans-48"/>
      </g>
     </g>
    </g>
    <g id="ytick_4">
     <g id="line2d_9">
      <g>
       <use style="stroke:#000000;stroke-width:0.8;" x="36.925" xlink:href="#m4e16340953" y="237.995306"/>
      </g>
     </g>
     <g id="text_9">
      <!-- 60 -->
      <g transform="translate(17.2 241.794525)scale(0.1 -0.1)">
       <use xlink:href="#DejaVuSans-54"/>
       <use x="63.623047" xlink:href="#DejaVuSans-48"/>
      </g>
     </g>
    </g>
    <g id="ytick_5">
     <g id="line2d_10">
      <g>
       <use style="stroke:#000000;stroke-width:0.8;" x="36.925" xlink:href="#m4e16340953" y="186.635067"/>
      </g>
     </g>
     <g id="text_10">
      <!-- 80 -->
      <g transform="translate(17.2 190.434286)scale(0.1 -0.1)">
       <use xlink:href="#DejaVuSans-56"/>
       <use x="63.623047" xlink:href="#DejaVuSans-48"/>
      </g>
     </g>
    </g>
    <g id="ytick_6">
     <g id="line2d_11">
      <g>
       <use style="stroke:#000000;stroke-width:0.8;" x="36.925" xlink:href="#m4e16340953" y="135.274828"/>
      </g>
     </g>
     <g id="text_11">
      <!-- 100 -->
      <defs>
       <path d="M 12.40625 8.296875 
L 28.515625 8.296875 
L 28.515625 63.921875 
L 10.984375 60.40625 
L 10.984375 69.390625 
L 28.421875 72.90625 
L 38.28125 72.90625 
L 38.28125 8.296875 
L 54.390625 8.296875 
L 54.390625 0 
L 12.40625 0 
z
" id="DejaVuSans-49"/>
      </defs>
      <g transform="translate(10.8375 139.074047)scale(0.1 -0.1)">
       <use xlink:href="#DejaVuSans-49"/>
       <use x="63.623047" xlink:href="#DejaVuSans-48"/>
       <use x="127.246094" xlink:href="#DejaVuSans-48"/>
      </g>
     </g>
    </g>
    <g id="ytick_7">
     <g id="line2d_12">
      <g>
       <use style="stroke:#000000;stroke-width:0.8;" x="36.925" xlink:href="#m4e16340953" y="83.914589"/>
      </g>
     </g>
     <g id="text_12">
      <!-- 120 -->
      <g transform="translate(10.8375 87.713808)scale(0.1 -0.1)">
       <use xlink:href="#DejaVuSans-49"/>
       <use x="63.623047" xlink:href="#DejaVuSans-50"/>
       <use x="127.246094" xlink:href="#DejaVuSans-48"/>
      </g>
     </g>
    </g>
    <g id="ytick_8">
     <g id="line2d_13">
      <g>
       <use style="stroke:#000000;stroke-width:0.8;" x="36.925" xlink:href="#m4e16340953" y="32.55435"/>
      </g>
     </g>
     <g id="text_13">
      <!-- 140 -->
      <g transform="translate(10.8375 36.353569)scale(0.1 -0.1)">
       <use xlink:href="#DejaVuSans-49"/>
       <use x="63.623047" xlink:href="#DejaVuSans-52"/>
       <use x="127.246094" xlink:href="#DejaVuSans-48"/>
      </g>
     </g>
    </g>
   </g>
   <g id="line2d_14">
    <path clip-path="url(#peebb3caff2)" d="M 49.997818 386.94 
L 173.845566 386.94 
L 175.221652 348.933423 
L 187.606426 341.999791 
L 188.982513 379.235964 
L 190.358599 341.999791 
L 193.110771 341.999791 
L 194.486857 304.763617 
L 195.862943 304.763617 
L 197.927072 248.909357 
L 202.05533 248.909357 
L 202.743373 230.291271 
L 204.119459 267.527444 
L 209.623804 267.527444 
L 211.687933 323.381704 
L 215.816191 323.381704 
L 216.504234 341.999791 
L 220.632492 341.999791 
L 222.008579 379.235964 
L 235.081396 379.235964 
L 236.457482 341.999791 
L 237.145526 341.999791 
L 237.833569 323.381704 
L 239.209655 323.381704 
L 239.897698 304.763617 
L 248.842257 304.763617 
L 250.218343 341.999791 
L 250.906386 341.999791 
L 251.594429 360.617877 
L 252.970516 360.617877 
L 253.658559 379.235964 
L 255.034645 341.999791 
L 258.47486 341.999791 
L 259.162903 323.381704 
L 265.35529 323.381704 
L 266.043333 304.763617 
L 267.419419 304.763617 
L 268.795506 341.999791 
L 272.235721 341.999791 
L 272.923764 360.617877 
L 274.987893 360.617877 
L 276.363979 323.381704 
L 279.116151 323.381704 
L 279.804194 341.999791 
L 283.932452 341.999791 
L 284.620495 323.381704 
L 288.748754 323.381704 
L 290.12484 360.617877 
L 297.693313 360.617877 
L 298.381356 379.235964 
L 302.509615 379.235964 
L 303.197658 360.617877 
L 311.454174 360.617877 
L 314.894389 267.527444 
L 315.582432 267.527444 
L 316.270475 248.909357 
L 316.958519 267.527444 
L 317.646562 267.527444 
L 319.022648 230.291271 
L 320.398734 230.291271 
L 321.086777 211.673184 
L 325.215035 211.673184 
L 328.65525 304.763617 
L 329.343293 304.763617 
L 330.031336 323.381704 
L 331.407422 323.381704 
L 332.783509 360.617877 
L 334.159595 360.617877 
L 334.847638 379.235964 
L 363.057402 379.235964 
L 363.745445 360.617877 
L 376.818263 360.617877 
L 377.506306 379.235964 
L 395.395425 379.235964 
L 396.083468 360.617877 
L 409.156286 360.617877 
L 409.844329 379.235964 
L 436.678008 379.235964 
L 437.366051 360.617877 
L 449.062783 360.617877 
L 450.438869 323.381704 
L 451.126912 323.381704 
L 458.695385 118.58275 
L 459.383428 118.197549 
L 460.759515 80.961375 
L 461.447558 80.576173 
L 462.823644 43.34 
L 463.511687 61.572885 
L 464.887773 61.572885 
L 468.327988 152.737309 
L 469.016031 152.737309 
L 469.704074 170.970194 
L 471.08016 170.970194 
L 472.456246 207.435964 
L 473.144289 207.435964 
L 473.832332 225.668849 
L 474.520375 225.668849 
L 475.208418 207.435964 
L 476.584505 243.901734 
L 477.272548 243.901734 
L 478.648634 280.367504 
L 482.088849 280.367504 
L 482.776892 298.600389 
L 483.464935 298.600389 
L 484.841021 335.066158 
L 487.593193 335.066158 
L 488.281236 353.299043 
L 488.969279 353.299043 
L 489.657322 335.066158 
L 498.601882 335.066158 
L 499.977968 298.600389 
L 502.042097 298.600389 
L 502.73014 316.833274 
L 503.418183 316.833274 
L 504.106226 298.600389 
L 504.794269 298.600389 
L 505.482312 280.367504 
L 512.362743 280.367504 
L 513.050786 298.600389 
L 515.114915 298.600389 
L 515.802958 280.367504 
L 516.491001 280.367504 
L 517.867087 316.833274 
L 518.55513 316.833274 
L 519.243173 335.066158 
L 526.811647 335.066158 
L 527.49969 353.299043 
L 528.875776 353.299043 
L 529.563819 371.531928 
L 537.820335 371.531928 
L 538.508378 353.299043 
L 544.700766 353.299043 
L 545.388809 335.066158 
L 548.829024 335.066158 
L 549.517067 316.833274 
L 551.581196 316.833274 
L 552.269239 335.066158 
L 558.461627 335.066158 
L 559.14967 353.299043 
L 562.589885 353.299043 
L 563.277928 371.531928 
L 586.671391 371.531928 
L 594.927908 152.737309 
L 596.303994 153.250912 
L 597.68008 116.785142 
L 598.368123 117.041943 
L 599.056166 98.809058 
L 600.432252 99.322661 
L 608.688769 321.198894 
L 610.064855 321.198894 
L 611.440941 358.178266 
L 612.128984 358.178266 
L 612.817027 376.667952 
L 618.321371 376.667952 
L 619.009414 358.178266 
L 632.082232 358.178266 
L 632.770275 376.667952 
L 636.21049 376.667952 
L 636.898534 358.178266 
L 649.971351 358.178266 
L 650.659394 376.667952 
L 664.420255 376.667952 
L 665.108298 358.178266 
L 671.300686 358.178266 
L 671.988729 339.68858 
L 678.181116 339.68858 
L 678.869159 358.178266 
L 682.997417 358.178266 
L 683.68546 339.68858 
L 685.061547 339.68858 
L 685.74959 358.178266 
L 691.253934 358.178266 
L 691.941977 339.68858 
L 696.758278 339.68858 
L 697.446321 358.178266 
L 705.014795 358.178266 
L 705.702838 376.667952 
L 707.766967 376.667952 
L 708.45501 358.178266 
L 709.831096 358.178266 
L 710.519139 339.68858 
L 721.527828 339.68858 
L 722.215871 358.178266 
L 723.591957 358.178266 
L 724.28 376.667952 
L 724.28 376.667952 
" style="fill:none;stroke:#1f77b4;stroke-linecap:square;stroke-width:1.5;"/>
   </g>
   <g id="line2d_15">
    <path clip-path="url(#peebb3caff2)" d="M 49.997818 367.67991 
L 50.685861 367.67991 
L 51.373904 367.294709 
L 52.74999 367.294709 
L 53.438033 386.297997 
L 54.126076 386.041196 
L 54.814119 385.912795 
L 56.878248 385.912795 
L 57.566291 385.784395 
L 58.942377 385.784395 
L 59.63042 385.655994 
L 60.318463 385.655994 
L 61.006507 385.527593 
L 61.69455 385.527593 
L 62.382593 385.784395 
L 63.070636 385.784395 
L 63.758679 385.527593 
L 64.446722 385.527593 
L 65.134765 385.912795 
L 67.198894 385.912795 
L 68.57498 386.169596 
L 72.703238 386.169596 
L 73.391281 386.297997 
L 74.079324 386.297997 
L 74.767367 386.426398 
L 76.831496 386.426398 
L 77.51954 386.683199 
L 78.207583 386.554798 
L 79.583669 386.554798 
L 80.271712 386.426398 
L 83.023884 386.426398 
L 84.39997 386.169596 
L 85.088013 386.297997 
L 87.840185 386.297997 
L 88.528228 386.169596 
L 93.34453 386.169596 
L 94.032573 386.297997 
L 94.720616 386.297997 
L 95.408659 386.426398 
L 96.096702 386.426398 
L 96.784745 386.297997 
L 98.160831 386.554798 
L 100.22496 386.554798 
L 101.601046 386.297997 
L 102.289089 386.426398 
L 102.977132 386.297997 
L 105.041261 386.297997 
L 105.729304 386.426398 
L 111.233649 386.426398 
L 111.921692 384.88559 
L 113.985821 384.88559 
L 114.673864 366.010703 
L 115.361907 366.139103 
L 116.04995 347.135815 
L 116.737993 347.264215 
L 117.426036 347.264215 
L 118.114079 347.135815 
L 120.866251 347.135815 
L 121.554294 346.879013 
L 122.242337 327.875725 
L 123.618423 327.875725 
L 124.306466 328.004126 
L 124.99451 327.875725 
L 125.682553 329.288132 
L 126.370596 329.288132 
L 127.058639 329.03133 
L 127.746682 329.03133 
L 128.434725 348.034619 
L 129.122768 348.034619 
L 129.810811 367.037907 
L 131.186897 367.037907 
L 131.87494 367.166308 
L 134.627112 367.166308 
L 135.315155 367.423109 
L 136.003198 386.297997 
L 136.691241 367.294709 
L 137.379284 367.037907 
L 138.067327 367.037907 
L 139.443413 367.294709 
L 140.131456 367.294709 
L 140.819499 367.55151 
L 142.195586 367.55151 
L 142.883629 367.166308 
L 145.635801 367.166308 
L 146.323844 367.037907 
L 149.076016 367.037907 
L 149.764059 367.166308 
L 150.452102 386.169596 
L 151.140145 386.426398 
L 155.268403 386.426398 
L 155.956446 383.729985 
L 156.644489 384.115187 
L 159.396662 384.115187 
L 160.084705 384.243587 
L 162.148834 384.243587 
L 162.836877 384.115187 
L 164.212963 384.115187 
L 164.901006 383.986786 
L 169.029264 383.986786 
L 169.717307 386.683199 
L 173.157523 386.683199 
L 173.845566 386.554798 
L 174.533609 367.55151 
L 175.221652 355.995456 
L 175.909695 354.583049 
L 176.597738 353.941046 
L 177.285781 353.555845 
L 177.973824 341.614589 
L 178.661867 340.844185 
L 179.34991 340.458984 
L 181.414039 338.789776 
L 182.102082 337.248969 
L 182.790125 336.863767 
L 183.478168 336.221764 
L 184.854254 335.45136 
L 185.542297 334.295755 
L 187.606426 333.140149 
L 188.294469 351.758236 
L 188.982513 362.929088 
L 189.670556 360.104275 
L 190.358599 359.847474 
L 191.046642 358.306667 
L 191.734685 369.73432 
L 192.422728 370.247922 
L 193.110771 370.119522 
L 193.798814 370.247922 
L 195.1749 369.477519 
L 195.862943 370.633124 
L 196.550986 370.633124 
L 197.239029 364.855097 
L 197.927072 364.469895 
L 198.615115 364.341495 
L 199.303158 365.111898 
L 202.743373 365.111898 
L 203.431416 354.968251 
L 204.119459 355.610254 
L 204.807503 357.151061 
L 205.495546 357.279462 
L 206.183589 357.151061 
L 206.871632 357.279462 
L 207.559675 357.279462 
L 208.247718 356.637459 
L 208.935761 356.765859 
L 210.311847 356.765859 
L 210.99989 362.800688 
L 213.064019 362.415486 
L 213.752062 362.158685 
L 214.440105 362.158685 
L 215.128148 362.287085 
L 215.816191 362.158685 
L 216.504234 362.158685 
L 217.192277 376.15435 
L 217.88032 375.769148 
L 218.568363 375.512347 
L 219.256406 375.512347 
L 219.944449 375.640747 
L 221.320536 375.640747 
L 222.008579 376.539552 
L 222.696622 377.053154 
L 224.072708 377.053154 
L 224.760751 376.924753 
L 225.448794 377.309955 
L 226.136837 377.566756 
L 226.82488 377.566756 
L 227.512923 377.823558 
L 228.889009 377.823558 
L 229.577052 377.695157 
L 230.953138 377.695157 
L 231.641181 378.080359 
L 232.329224 378.33716 
L 233.70531 378.080359 
L 234.393353 378.080359 
L 235.769439 377.823558 
L 236.457482 377.181555 
L 237.145526 376.28275 
L 237.833569 375.897549 
L 238.521612 375.127145 
L 239.209655 375.127145 
L 239.897698 374.356741 
L 240.585741 371.660329 
L 241.273784 371.660329 
L 242.64987 371.403528 
L 243.337913 371.660329 
L 244.025956 371.146726 
L 245.402042 370.889925 
L 246.090085 370.889925 
L 246.778128 370.504723 
L 247.466171 370.633124 
L 248.154214 370.247922 
L 248.842257 370.247922 
L 249.5303 370.376323 
L 250.906386 372.045531 
L 251.594429 372.173931 
L 252.282472 373.072735 
L 252.970516 372.687534 
L 253.658559 373.457937 
L 254.346602 375.640747 
L 255.034645 375.383946 
L 255.722688 373.201136 
L 256.410731 373.329537 
L 257.098774 373.329537 
L 257.786817 373.843139 
L 258.47486 373.97154 
L 259.162903 373.714738 
L 259.850946 372.815934 
L 260.538989 373.072735 
L 261.227032 372.815934 
L 261.915075 373.201136 
L 263.291161 373.457937 
L 263.979204 373.201136 
L 264.667247 372.815934 
L 266.043333 372.815934 
L 266.731376 372.559133 
L 267.419419 372.559133 
L 268.107462 372.944335 
L 268.795506 373.201136 
L 269.483549 375.383946 
L 270.859635 375.383946 
L 272.235721 375.127145 
L 272.923764 375.512347 
L 273.611807 376.411151 
L 274.29985 376.667952 
L 274.987893 376.796353 
L 275.675936 376.796353 
L 277.052022 375.640747 
L 279.116151 376.411151 
L 279.804194 376.28275 
L 280.492237 377.053154 
L 281.18028 376.539552 
L 281.868323 376.796353 
L 282.556366 376.796353 
L 283.244409 376.411151 
L 283.932452 376.28275 
L 284.620495 376.28275 
L 285.308539 375.512347 
L 285.996582 375.640747 
L 286.684625 375.640747 
L 287.372668 375.512347 
L 288.060711 375.255546 
L 289.436797 375.255546 
L 290.812883 376.411151 
L 292.188969 376.411151 
L 292.877012 376.15435 
L 293.565055 376.28275 
L 294.253098 376.15435 
L 294.941141 376.411151 
L 296.317227 376.411151 
L 297.00527 376.924753 
L 297.693313 377.053154 
L 298.381356 377.053154 
L 299.069399 377.951958 
L 299.757442 377.951958 
L 300.445485 377.695157 
L 301.133529 377.823558 
L 301.821572 377.823558 
L 302.509615 377.951958 
L 303.197658 377.951958 
L 304.573744 377.695157 
L 305.261787 377.695157 
L 305.94983 377.438356 
L 306.637873 377.695157 
L 307.325916 376.924753 
L 308.013959 376.796353 
L 308.702002 377.053154 
L 310.766131 376.667952 
L 311.454174 376.667952 
L 312.142217 358.049865 
L 312.83026 347.392616 
L 313.518303 343.155396 
L 314.206346 341.100987 
L 314.894389 340.202182 
L 315.582432 337.890972 
L 316.270475 337.890972 
L 316.958519 334.038954 
L 317.646562 334.038954 
L 318.334605 333.26855 
L 319.022648 331.727743 
L 319.710691 331.08574 
L 320.398734 329.03133 
L 321.086777 329.801734 
L 321.77482 328.646129 
L 322.462863 328.646129 
L 323.150906 328.774529 
L 323.838949 328.774529 
L 324.526992 328.260927 
L 325.215035 328.260927 
L 325.903078 346.879013 
L 326.591121 357.279462 
L 327.279164 361.516682 
L 327.967207 363.827892 
L 328.65525 360.617877 
L 329.343293 363.057489 
L 330.031336 363.057489 
L 330.719379 366.909507 
L 331.407422 367.037907 
L 332.095465 367.808311 
L 332.783509 369.349118 
L 333.471552 369.73432 
L 334.159595 371.660329 
L 334.847638 371.146726 
L 335.535681 372.559133 
L 336.223724 372.559133 
L 337.59981 372.302332 
L 338.287853 372.944335 
L 338.975896 372.944335 
L 339.663939 372.430732 
L 340.351982 372.944335 
L 341.728068 372.687534 
L 342.416111 376.796353 
L 343.104154 376.924753 
L 344.48024 376.924753 
L 345.168283 376.796353 
L 345.856326 376.924753 
L 346.544369 376.924753 
L 347.232412 377.566756 
L 347.920455 377.695157 
L 348.608498 378.208759 
L 349.296542 378.208759 
L 349.984585 377.951958 
L 350.672628 378.080359 
L 351.360671 378.33716 
L 352.048714 378.080359 
L 352.736757 377.566756 
L 353.4248 377.823558 
L 354.112843 377.566756 
L 355.488929 377.823558 
L 356.176972 377.695157 
L 356.865015 377.695157 
L 357.553058 377.438356 
L 358.241101 377.309955 
L 359.617187 377.309955 
L 360.993273 377.053154 
L 363.057402 377.053154 
L 363.745445 376.924753 
L 364.433488 376.667952 
L 365.121532 376.667952 
L 367.185661 377.438356 
L 367.873704 377.309955 
L 369.24979 377.309955 
L 369.937833 377.438356 
L 370.625876 377.438356 
L 371.313919 377.695157 
L 372.001962 377.823558 
L 372.690005 377.309955 
L 373.378048 377.181555 
L 374.066091 376.924753 
L 374.754134 376.796353 
L 376.818263 376.796353 
L 378.194349 377.309955 
L 379.570435 377.309955 
L 380.258478 377.566756 
L 380.946522 377.566756 
L 381.634565 377.695157 
L 382.322608 377.438356 
L 383.010651 377.438356 
L 383.698694 377.181555 
L 384.386737 377.181555 
L 385.07478 376.924753 
L 385.762823 376.539552 
L 386.450866 377.181555 
L 387.138909 377.309955 
L 387.826952 377.309955 
L 388.514995 377.566756 
L 389.891081 377.053154 
L 391.267167 377.053154 
L 391.95521 376.796353 
L 392.643253 376.667952 
L 395.395425 376.667952 
L 396.083468 376.924753 
L 396.771512 376.539552 
L 397.459555 376.796353 
L 398.147598 376.667952 
L 399.523684 377.181555 
L 400.211727 376.924753 
L 400.89977 376.924753 
L 401.587813 377.309955 
L 402.275856 377.181555 
L 403.651942 377.695157 
L 404.339985 377.566756 
L 405.028028 377.695157 
L 405.716071 377.951958 
L 406.404114 378.080359 
L 407.7802 378.080359 
L 408.468243 377.823558 
L 409.844329 377.823558 
L 410.532372 378.208759 
L 411.220415 378.208759 
L 411.908458 378.33716 
L 412.596502 377.695157 
L 413.284545 377.566756 
L 413.972588 377.823558 
L 414.660631 377.695157 
L 415.348674 377.695157 
L 416.036717 377.823558 
L 416.72476 377.823558 
L 417.412803 377.438356 
L 418.100846 377.566756 
L 418.788889 377.309955 
L 419.476932 376.796353 
L 420.164975 376.796353 
L 420.853018 376.15435 
L 421.541061 375.897549 
L 422.229104 376.15435 
L 424.981276 376.15435 
L 425.669319 376.025949 
L 426.357362 376.28275 
L 427.045405 376.15435 
L 427.733448 375.897549 
L 428.421491 375.769148 
L 429.109535 375.512347 
L 431.861707 375.512347 
L 432.54975 375.640747 
L 433.237793 376.15435 
L 433.925836 376.15435 
L 434.613879 376.796353 
L 435.989965 377.309955 
L 437.366051 377.309955 
L 438.054094 376.924753 
L 438.742137 376.796353 
L 439.43018 376.924753 
L 440.118223 377.181555 
L 440.806266 377.566756 
L 441.494309 377.438356 
L 442.182352 377.566756 
L 442.870395 377.823558 
L 443.558438 377.438356 
L 444.246481 377.181555 
L 444.934525 377.566756 
L 445.622568 377.566756 
L 446.310611 377.438356 
L 446.998654 377.438356 
L 447.686697 376.924753 
L 448.37474 375.383946 
L 449.062783 375.255546 
L 450.438869 337.762571 
L 451.126912 322.6113 
L 455.25517 211.929985 
L 455.943213 202.685142 
L 456.631256 200.887534 
L 457.319299 193.440299 
L 458.007342 192.926697 
L 458.695385 187.020269 
L 459.383428 183.039851 
L 460.071471 182.91145 
L 461.447558 179.444634 
L 462.135601 179.701435 
L 462.823644 167.503378 
L 464.19973 202.813543 
L 465.575816 234.014888 
L 467.639945 286.145531 
L 469.016031 321.969297 
L 469.704074 329.801734 
L 470.392117 329.159731 
L 471.08016 336.478565 
L 471.768203 335.45136 
L 472.456246 340.972586 
L 473.144289 344.567803 
L 473.832332 344.567803 
L 474.520375 345.851809 
L 475.208418 346.879013 
L 475.896461 347.392616 
L 476.584505 359.333871 
L 477.272548 359.462272 
L 477.960591 360.232676 
L 478.648634 359.590673 
L 479.336677 361.388281 
L 480.02472 361.388281 
L 480.712763 363.956293 
L 481.400806 363.956293 
L 482.088849 364.598296 
L 482.776892 364.084694 
L 483.464935 365.111898 
L 484.152978 366.909507 
L 484.841021 366.524305 
L 485.529064 367.67991 
L 486.217107 367.55151 
L 486.90515 367.166308 
L 487.593193 367.037907 
L 488.281236 367.166308 
L 488.969279 366.267504 
L 489.657322 364.855097 
L 490.345365 362.158685 
L 491.033408 362.415486 
L 491.721451 362.158685 
L 492.409494 362.672287 
L 493.097538 362.672287 
L 494.473624 361.388281 
L 495.161667 361.25988 
L 495.84971 361.25988 
L 496.537753 361.773483 
L 497.225796 361.901883 
L 497.913839 361.645082 
L 498.601882 361.901883 
L 499.289925 362.030284 
L 499.977968 361.645082 
L 500.666011 361.388281 
L 501.354054 361.003079 
L 502.042097 361.003079 
L 503.418183 363.827892 
L 504.106226 366.010703 
L 504.794269 364.598296 
L 505.482312 364.598296 
L 506.170355 364.341495 
L 506.858398 364.341495 
L 508.234484 365.4971 
L 508.922528 365.625501 
L 510.986657 365.625501 
L 511.6747 366.139103 
L 512.362743 366.395904 
L 513.050786 365.753901 
L 514.426872 366.267504 
L 515.114915 365.240299 
L 515.802958 364.983498 
L 516.491001 364.084694 
L 517.179044 364.213094 
L 517.867087 364.598296 
L 518.55513 366.010703 
L 519.243173 366.267504 
L 519.931216 366.652706 
L 520.619259 366.652706 
L 522.683388 366.267504 
L 523.371431 366.267504 
L 524.059474 366.139103 
L 524.747518 366.139103 
L 525.435561 365.625501 
L 526.123604 364.855097 
L 526.811647 365.4971 
L 527.49969 365.753901 
L 528.187733 366.139103 
L 528.875776 367.67991 
L 529.563819 367.936712 
L 530.251862 368.835516 
L 530.939905 369.092317 
L 531.627948 368.835516 
L 532.315991 368.835516 
L 533.004034 368.578714 
L 533.692077 368.193513 
L 534.38012 368.193513 
L 535.068163 367.808311 
L 535.756206 368.065112 
L 536.444249 367.808311 
L 537.132292 367.808311 
L 537.820335 367.936712 
L 539.196421 367.936712 
L 539.884464 368.707115 
L 541.948594 368.707115 
L 542.636637 368.321913 
L 543.32468 367.808311 
L 544.700766 367.294709 
L 545.388809 367.55151 
L 546.076852 366.652706 
L 547.452938 367.166308 
L 548.140981 367.166308 
L 548.829024 367.67991 
L 549.517067 367.423109 
L 550.20511 366.909507 
L 551.581196 366.909507 
L 552.269239 366.781106 
L 552.957282 367.294709 
L 553.645325 366.524305 
L 555.021411 365.3687 
L 555.709454 365.3687 
L 556.397497 365.625501 
L 557.085541 366.139103 
L 557.773584 366.139103 
L 558.461627 366.267504 
L 559.14967 365.625501 
L 559.837713 366.010703 
L 560.525756 366.010703 
L 561.213799 366.139103 
L 561.901842 366.010703 
L 562.589885 366.010703 
L 563.277928 366.267504 
L 563.965971 367.166308 
L 564.654014 367.166308 
L 565.342057 366.781106 
L 566.0301 366.524305 
L 566.718143 366.139103 
L 568.094229 367.166308 
L 568.782272 367.423109 
L 569.470315 367.423109 
L 570.158358 367.55151 
L 570.846401 367.55151 
L 571.534444 367.936712 
L 572.222487 367.423109 
L 573.598574 368.578714 
L 574.286617 368.321913 
L 575.662703 368.321913 
L 577.038789 367.808311 
L 577.726832 367.67991 
L 578.414875 367.67991 
L 579.102918 368.065112 
L 579.790961 368.321913 
L 580.479004 367.936712 
L 581.167047 368.193513 
L 582.543133 368.450314 
L 583.231176 368.450314 
L 583.919219 368.321913 
L 584.607262 367.67991 
L 585.295305 367.808311 
L 585.983348 368.065112 
L 586.671391 367.808311 
L 590.79965 259.309806 
L 591.487693 257.512197 
L 592.175736 257.512197 
L 592.863779 256.228191 
L 593.551822 252.247773 
L 594.239865 244.928939 
L 594.927908 240.049716 
L 595.615951 238.76571 
L 596.303994 239.279312 
L 596.992037 239.407713 
L 597.68008 237.995306 
L 598.368123 237.995306 
L 599.056166 238.252108 
L 599.744209 235.170493 
L 600.432252 235.812496 
L 604.560511 345.980209 
L 605.248554 348.163019 
L 605.936597 348.163019 
L 606.62464 349.703827 
L 607.312683 354.069447 
L 608.000726 362.415486 
L 608.688769 367.423109 
L 609.376812 368.835516 
L 610.064855 368.835516 
L 610.752898 368.450314 
L 611.440941 370.247922 
L 612.128984 370.504723 
L 612.817027 370.376323 
L 613.50507 373.97154 
L 614.193113 373.586338 
L 614.881156 373.329537 
L 615.569199 373.457937 
L 617.633328 373.457937 
L 618.321371 373.329537 
L 619.009414 364.598296 
L 619.697457 358.563468 
L 620.385501 358.178266 
L 621.761587 358.178266 
L 622.44963 358.306667 
L 623.137673 358.178266 
L 623.825716 358.178266 
L 624.513759 358.435067 
L 625.201802 358.435067 
L 625.889845 359.07707 
L 626.577888 359.07707 
L 627.265931 359.205471 
L 627.953974 359.590673 
L 628.642017 359.847474 
L 630.706146 359.07707 
L 631.394189 358.435067 
L 632.082232 358.691868 
L 632.770275 367.423109 
L 633.458318 373.714738 
L 634.146361 374.09994 
L 634.834404 374.09994 
L 635.522447 372.430732 
L 636.21049 372.430732 
L 636.898534 372.687534 
L 637.586577 371.91713 
L 638.27462 372.173931 
L 638.962663 372.173931 
L 639.650706 372.045531 
L 640.338749 372.173931 
L 641.026792 371.91713 
L 641.714835 371.91713 
L 642.402878 371.660329 
L 643.090921 371.91713 
L 643.778964 371.91713 
L 644.467007 372.173931 
L 645.15505 372.944335 
L 646.531136 372.944335 
L 647.219179 372.815934 
L 648.595265 372.815934 
L 649.283308 373.586338 
L 650.659394 373.586338 
L 651.347437 374.356741 
L 652.03548 374.356741 
L 652.723524 374.228341 
L 654.09961 374.228341 
L 654.787653 374.485142 
L 656.163739 374.228341 
L 656.851782 374.228341 
L 657.539825 374.09994 
L 658.227868 374.356741 
L 658.915911 374.09994 
L 659.603954 373.97154 
L 660.98004 373.457937 
L 661.668083 373.329537 
L 662.356126 372.944335 
L 663.044169 373.714738 
L 663.732212 373.457937 
L 664.420255 373.457937 
L 665.108298 373.329537 
L 665.796341 372.302332 
L 667.172427 372.559133 
L 667.86047 372.559133 
L 668.548514 372.302332 
L 669.236557 372.430732 
L 669.9246 371.91713 
L 670.612643 371.91713 
L 671.300686 372.173931 
L 671.988729 372.173931 
L 672.676772 371.403528 
L 674.052858 371.660329 
L 674.740901 371.531928 
L 675.428944 371.531928 
L 676.116987 371.403528 
L 676.80503 371.531928 
L 677.493073 371.788729 
L 678.181116 371.660329 
L 678.869159 371.660329 
L 679.557202 372.302332 
L 680.245245 372.302332 
L 680.933288 372.173931 
L 682.309374 372.173931 
L 682.997417 371.660329 
L 683.68546 372.559133 
L 684.373504 372.045531 
L 685.061547 372.173931 
L 685.74959 371.660329 
L 686.437633 372.302332 
L 687.813719 372.302332 
L 688.501762 372.815934 
L 689.189805 372.687534 
L 689.877848 372.944335 
L 690.565891 372.430732 
L 691.253934 372.430732 
L 691.941977 372.559133 
L 692.63002 371.788729 
L 693.318063 372.173931 
L 694.006106 372.045531 
L 694.694149 372.173931 
L 695.382192 372.173931 
L 696.070235 372.430732 
L 697.446321 372.430732 
L 698.134364 373.072735 
L 698.822407 372.815934 
L 700.198493 373.714738 
L 700.886537 373.586338 
L 702.950666 373.586338 
L 703.638709 373.457937 
L 704.326752 373.714738 
L 705.014795 373.586338 
L 705.702838 373.329537 
L 706.390881 374.228341 
L 707.078924 374.228341 
L 707.766967 374.356741 
L 708.45501 374.356741 
L 709.143053 373.329537 
L 709.831096 373.329537 
L 710.519139 373.843139 
L 711.207182 373.329537 
L 711.895225 373.329537 
L 712.583268 373.201136 
L 713.271311 373.201136 
L 713.959354 372.944335 
L 714.647397 372.944335 
L 715.33544 373.072735 
L 716.023483 372.815934 
L 717.39957 373.329537 
L 718.087613 373.072735 
L 718.775656 373.201136 
L 719.463699 373.457937 
L 720.151742 373.457937 
L 720.839785 373.329537 
L 721.527828 373.329537 
L 722.215871 373.072735 
L 722.903914 373.714738 
L 723.591957 373.586338 
L 724.28 373.329537 
L 724.28 373.329537 
" style="fill:none;stroke:#ff7f0e;stroke-linecap:square;stroke-width:1.5;"/>
   </g>
   <g id="line2d_16">
    <path clip-path="url(#peebb3caff2)" d="M 49.997818 378.465561 
L 50.685861 386.554798 
L 51.373904 386.94 
L 173.845566 386.94 
L 174.533609 384.371988 
L 176.597738 383.216383 
L 178.661867 381.675575 
L 179.34991 380.648371 
L 181.414039 379.492765 
L 182.102082 378.722362 
L 187.606426 374.741943 
L 188.294469 376.924753 
L 188.982513 376.796353 
L 189.670556 376.796353 
L 190.358599 376.539552 
L 191.046642 376.667952 
L 191.734685 376.411151 
L 192.422728 376.539552 
L 193.110771 377.181555 
L 195.1749 377.181555 
L 195.862943 377.438356 
L 196.550986 377.566756 
L 197.239029 377.438356 
L 197.927072 377.695157 
L 198.615115 377.566756 
L 199.303158 377.566756 
L 200.679244 377.823558 
L 202.05533 377.566756 
L 202.743373 377.566756 
L 203.431416 377.309955 
L 204.119459 377.309955 
L 204.807503 377.181555 
L 206.183589 377.438356 
L 206.871632 377.181555 
L 208.935761 377.181555 
L 209.623804 377.309955 
L 210.311847 377.309955 
L 211.687933 377.566756 
L 212.375976 377.823558 
L 213.064019 377.823558 
L 213.752062 377.695157 
L 214.440105 377.695157 
L 216.504234 378.080359 
L 217.192277 378.33716 
L 217.88032 378.208759 
L 218.568363 378.208759 
L 219.256406 378.33716 
L 219.944449 378.33716 
L 220.632492 378.593961 
L 221.320536 378.465561 
L 222.008579 378.465561 
L 222.696622 377.566756 
L 226.82488 377.566756 
L 227.512923 377.695157 
L 228.200966 377.438356 
L 228.889009 377.438356 
L 229.577052 377.309955 
L 230.953138 377.309955 
L 231.641181 377.695157 
L 232.329224 377.695157 
L 233.70531 377.438356 
L 234.393353 377.053154 
L 235.769439 377.053154 
L 236.457482 377.823558 
L 237.145526 377.309955 
L 237.833569 377.309955 
L 238.521612 377.181555 
L 239.897698 377.181555 
L 240.585741 376.539552 
L 241.273784 376.539552 
L 241.961827 376.667952 
L 242.64987 376.539552 
L 243.337913 376.667952 
L 244.025956 375.897549 
L 245.402042 375.897549 
L 246.090085 375.769148 
L 246.778128 375.769148 
L 247.466171 375.897549 
L 248.154214 375.897549 
L 248.842257 376.025949 
L 249.5303 376.025949 
L 250.218343 376.15435 
L 250.906386 376.667952 
L 251.594429 376.667952 
L 254.346602 376.15435 
L 255.034645 376.15435 
L 256.410731 376.411151 
L 257.098774 376.025949 
L 257.786817 376.411151 
L 258.47486 375.383946 
L 259.850946 375.127145 
L 260.538989 375.255546 
L 261.227032 374.09994 
L 261.915075 374.485142 
L 262.603118 374.356741 
L 263.979204 374.356741 
L 264.667247 374.228341 
L 265.35529 373.843139 
L 267.419419 374.228341 
L 268.107462 374.613543 
L 268.795506 374.485142 
L 269.483549 374.485142 
L 270.171592 373.97154 
L 271.547678 374.741943 
L 272.235721 375.769148 
L 272.923764 375.897549 
L 273.611807 376.15435 
L 274.29985 376.15435 
L 274.987893 377.053154 
L 275.675936 376.796353 
L 276.363979 376.924753 
L 277.052022 376.796353 
L 277.740065 376.411151 
L 278.428108 376.539552 
L 279.116151 376.924753 
L 279.804194 377.053154 
L 280.492237 376.667952 
L 281.18028 375.769148 
L 281.868323 375.897549 
L 283.244409 375.897549 
L 283.932452 376.28275 
L 284.620495 375.897549 
L 285.308539 375.640747 
L 285.996582 375.640747 
L 286.684625 375.512347 
L 287.372668 375.640747 
L 288.060711 375.640747 
L 288.748754 375.897549 
L 289.436797 376.025949 
L 290.12484 376.025949 
L 290.812883 376.15435 
L 291.500926 376.411151 
L 292.188969 376.28275 
L 292.877012 376.28275 
L 293.565055 375.769148 
L 294.253098 375.897549 
L 294.941141 376.28275 
L 296.317227 376.28275 
L 297.00527 375.640747 
L 297.693313 375.769148 
L 298.381356 376.15435 
L 299.069399 376.28275 
L 301.133529 376.28275 
L 301.821572 375.769148 
L 302.509615 375.769148 
L 303.197658 375.897549 
L 303.885701 375.897549 
L 304.573744 375.769148 
L 305.261787 375.897549 
L 305.94983 375.897549 
L 306.637873 375.769148 
L 307.325916 376.28275 
L 308.013959 376.411151 
L 308.702002 376.924753 
L 309.390045 377.181555 
L 310.078088 377.309955 
L 310.766131 377.951958 
L 311.454174 377.951958 
L 312.142217 378.208759 
L 312.83026 378.593961 
L 313.518303 378.850762 
L 314.206346 379.235964 
L 314.894389 379.492765 
L 315.582432 380.263169 
L 317.646562 381.033572 
L 318.334605 381.418774 
L 319.022648 381.675575 
L 320.398734 382.445979 
L 321.086777 382.70278 
L 321.77482 383.087982 
L 325.215035 384.371988 
L 449.062783 384.371988 
L 449.750826 376.667952 
L 450.438869 367.423109 
L 451.126912 359.847474 
L 451.814955 354.583049 
L 452.502998 352.015037 
L 453.191041 345.595007 
L 454.567127 341.999791 
L 455.25517 336.350164 
L 455.943213 334.167354 
L 456.631256 330.700538 
L 457.319299 318.24568 
L 458.007342 316.448072 
L 458.695385 311.69725 
L 460.071471 307.845232 
L 460.759515 298.086786 
L 461.447558 292.565561 
L 462.135601 291.795157 
L 462.823644 288.970344 
L 463.511687 294.61997 
L 464.19973 302.324006 
L 464.887773 307.58843 
L 465.575816 305.148819 
L 466.263859 296.67438 
L 466.951902 300.783199 
L 467.639945 293.849567 
L 468.327988 289.740747 
L 469.016031 294.363169 
L 469.704074 291.795157 
L 470.392117 290.511151 
L 471.08016 301.682003 
L 471.768203 299.370792 
L 472.456246 302.195605 
L 473.144289 295.903976 
L 473.832332 296.289178 
L 474.520375 303.864813 
L 475.208418 305.020419 
L 476.584505 300.012795 
L 477.272548 300.654798 
L 477.960591 301.04 
L 478.648634 302.067205 
L 479.336677 308.102033 
L 480.02472 317.218475 
L 480.712763 315.164066 
L 481.400806 318.11728 
L 482.088849 323.381704 
L 482.776892 321.840897 
L 483.464935 325.564514 
L 484.152978 326.84852 
L 484.841021 326.976921 
L 485.529064 320.942093 
L 486.217107 318.374081 
L 486.90515 325.564514 
L 487.593193 322.354499 
L 488.281236 319.914888 
L 488.969279 323.253303 
L 489.657322 322.354499 
L 490.345365 326.84852 
L 491.033408 326.976921 
L 491.721451 326.463318 
L 492.409494 324.922511 
L 493.097538 325.307713 
L 493.785581 325.821315 
L 494.473624 325.179312 
L 495.161667 318.374081 
L 495.84971 308.358834 
L 496.537753 306.946428 
L 497.225796 296.545979 
L 497.913839 297.701584 
L 498.601882 297.829985 
L 499.289925 306.304425 
L 499.977968 309.000837 
L 500.666011 301.810404 
L 501.354054 298.98559 
L 502.042097 301.810404 
L 502.73014 296.160777 
L 503.418183 296.160777 
L 504.106226 286.145531 
L 504.794269 286.01713 
L 505.482312 285.503528 
L 506.170355 286.530732 
L 506.858398 286.145531 
L 507.546441 283.449118 
L 508.234484 287.301136 
L 508.922528 297.444783 
L 509.610571 299.884395 
L 510.298614 301.553602 
L 510.986657 304.892018 
L 511.6747 304.635217 
L 512.362743 300.654798 
L 513.050786 293.335964 
L 513.738829 293.079163 
L 514.426872 298.086786 
L 515.114915 301.04 
L 515.802958 294.49157 
L 516.491001 299.242392 
L 517.179044 291.538356 
L 517.867087 299.755994 
L 518.55513 295.903976 
L 519.243173 296.545979 
L 519.931216 294.49157 
L 520.619259 290.125949 
L 521.307302 291.024753 
L 521.995345 285.246726 
L 522.683388 284.733124 
L 523.371431 289.098744 
L 524.059474 285.503528 
L 524.747518 291.538356 
L 525.435561 286.530732 
L 526.123604 289.483946 
L 526.811647 293.464365 
L 527.49969 284.347922 
L 528.187733 283.705919 
L 528.875776 283.83432 
L 529.563819 279.725501 
L 530.251862 266.885441 
L 530.939905 276.900688 
L 531.627948 273.819073 
L 532.315991 278.313094 
L 533.004034 278.698296 
L 533.692077 281.77991 
L 534.38012 281.266308 
L 535.068163 282.935516 
L 535.756206 286.659133 
L 536.444249 285.246726 
L 537.132292 273.690673 
L 537.820335 278.569895 
L 538.508378 273.04867 
L 539.196421 279.4687 
L 539.884464 280.495904 
L 540.572508 279.853901 
L 541.260551 289.612347 
L 541.948594 291.153154 
L 543.32468 293.335964 
L 544.012723 306.689626 
L 544.700766 307.203229 
L 545.388809 308.487235 
L 546.076852 306.047623 
L 546.764895 302.067205 
L 547.452938 300.397997 
L 548.140981 304.892018 
L 548.829024 296.160777 
L 549.517067 294.49157 
L 550.20511 291.281555 
L 550.893153 305.919223 
L 551.581196 303.22281 
L 552.269239 308.102033 
L 552.957282 306.047623 
L 553.645325 305.020419 
L 554.333368 307.845232 
L 555.021411 307.716831 
L 555.709454 307.716831 
L 556.397497 310.156442 
L 557.085541 317.346876 
L 557.773584 313.238057 
L 558.461627 302.195605 
L 559.14967 301.425202 
L 559.837713 296.417578 
L 560.525756 299.755994 
L 561.213799 298.600389 
L 561.901842 296.160777 
L 562.589885 305.40562 
L 563.277928 307.46003 
L 563.965971 312.210852 
L 564.654014 310.670045 
L 565.342057 312.596054 
L 566.0301 307.973632 
L 566.718143 306.689626 
L 567.406186 307.716831 
L 568.094229 305.790822 
L 568.782272 302.452407 
L 569.470315 297.187982 
L 570.158358 294.61997 
L 570.846401 297.701584 
L 571.534444 298.85719 
L 572.222487 303.736413 
L 572.910531 301.682003 
L 573.598574 307.845232 
L 574.286617 305.790822 
L 574.97466 304.378416 
L 575.662703 307.58843 
L 576.350746 300.526398 
L 577.038789 297.701584 
L 577.726832 298.98559 
L 578.414875 300.526398 
L 579.102918 299.884395 
L 579.790961 306.561226 
L 580.479004 306.176024 
L 581.167047 302.966009 
L 581.85509 303.479611 
L 582.543133 304.635217 
L 583.919219 307.46003 
L 584.607262 307.716831 
L 585.295305 306.176024 
L 585.983348 312.210852 
L 586.671391 314.393662 
L 587.359434 297.573184 
L 588.047477 298.85719 
L 588.735521 302.195605 
L 589.423564 302.324006 
L 590.111607 309.257638 
L 590.79965 314.393662 
L 591.487693 314.00846 
L 592.175736 313.88006 
L 592.863779 313.494858 
L 593.551822 313.623259 
L 594.239865 316.961674 
L 594.927908 318.24568 
L 596.303994 324.408909 
L 596.992037 329.03133 
L 597.68008 330.572138 
L 598.368123 330.186936 
L 599.056166 335.066158 
L 599.744209 335.45136 
L 600.432252 339.945381 
L 601.120295 357.664664 
L 601.808338 359.590673 
L 602.496381 360.746278 
L 603.184424 361.388281 
L 603.872467 360.361076 
L 604.560511 359.719073 
L 605.248554 360.104275 
L 605.936597 359.590673 
L 606.62464 361.003079 
L 607.312683 360.874679 
L 608.000726 361.645082 
L 608.688769 364.084694 
L 609.376812 364.084694 
L 610.064855 364.341495 
L 610.752898 363.956293 
L 611.440941 364.213094 
L 612.128984 364.726697 
L 612.817027 364.469895 
L 613.50507 364.855097 
L 614.193113 361.901883 
L 614.881156 361.773483 
L 615.569199 359.590673 
L 616.257242 359.590673 
L 616.945285 359.205471 
L 617.633328 359.333871 
L 618.321371 359.590673 
L 619.009414 360.232676 
L 619.697457 360.104275 
L 620.385501 360.617877 
L 621.073544 359.07707 
L 621.761587 358.049865 
L 622.44963 357.921465 
L 623.137673 357.279462 
L 623.825716 354.583049 
L 624.513759 355.225052 
L 625.201802 354.583049 
L 625.889845 352.271839 
L 626.577888 350.987833 
L 627.265931 350.089028 
L 627.953974 352.785441 
L 628.642017 353.042242 
L 629.33006 353.427444 
L 630.018103 352.913842 
L 630.706146 352.785441 
L 631.394189 353.042242 
L 632.082232 352.52864 
L 632.770275 351.629836 
L 633.458318 352.143438 
L 634.146361 351.886637 
L 634.834404 353.684245 
L 635.522447 354.968251 
L 636.21049 354.583049 
L 636.898534 355.481854 
L 637.586577 358.049865 
L 638.27462 357.664664 
L 638.962663 357.921465 
L 639.650706 360.489477 
L 640.338749 362.030284 
L 641.026792 362.030284 
L 641.714835 358.435067 
L 642.402878 358.306667 
L 643.090921 359.590673 
L 643.778964 360.104275 
L 644.467007 359.975874 
L 645.15505 361.13148 
L 645.843093 360.617877 
L 646.531136 361.003079 
L 647.219179 361.773483 
L 647.907222 361.645082 
L 648.595265 359.590673 
L 649.283308 358.435067 
L 649.971351 358.691868 
L 650.659394 359.07707 
L 651.347437 358.691868 
L 652.03548 359.07707 
L 653.411567 358.820269 
L 654.09961 359.205471 
L 654.787653 360.361076 
L 655.475696 364.341495 
L 656.163739 364.469895 
L 656.851782 365.111898 
L 657.539825 365.111898 
L 658.227868 365.882302 
L 658.915911 363.699492 
L 659.603954 365.111898 
L 660.291997 365.753901 
L 660.98004 364.469895 
L 661.668083 364.726697 
L 662.356126 365.753901 
L 663.044169 365.3687 
L 664.420255 363.827892 
L 665.796341 364.726697 
L 666.484384 363.571091 
L 667.172427 361.25988 
L 667.86047 361.516682 
L 668.548514 361.13148 
L 669.236557 358.820269 
L 669.9246 359.205471 
L 670.612643 359.205471 
L 671.300686 358.049865 
L 671.988729 357.793064 
L 672.676772 359.719073 
L 673.364815 358.94867 
L 674.052858 359.205471 
L 674.740901 359.590673 
L 676.116987 358.178266 
L 677.493073 360.104275 
L 678.181116 360.489477 
L 678.869159 360.361076 
L 679.557202 360.489477 
L 680.933288 363.442691 
L 682.309374 362.929088 
L 682.997417 364.598296 
L 683.68546 363.057489 
L 684.373504 362.800688 
L 685.061547 362.929088 
L 685.74959 363.185889 
L 686.437633 362.800688 
L 687.813719 361.25988 
L 688.501762 361.388281 
L 689.189805 362.800688 
L 690.565891 361.645082 
L 691.253934 360.489477 
L 691.941977 360.617877 
L 692.63002 360.232676 
L 693.318063 359.205471 
L 694.006106 358.820269 
L 694.694149 359.590673 
L 695.382192 359.462272 
L 696.070235 359.719073 
L 696.758278 359.333871 
L 697.446321 360.104275 
L 698.134364 359.07707 
L 698.822407 358.563468 
L 699.51045 357.022661 
L 701.57458 358.820269 
L 702.262623 359.07707 
L 702.950666 358.94867 
L 703.638709 359.590673 
L 704.326752 358.94867 
L 705.014795 359.205471 
L 705.702838 357.536263 
L 706.390881 357.793064 
L 707.078924 356.765859 
L 707.766967 356.123857 
L 708.45501 355.096652 
L 709.143053 355.353453 
L 709.831096 354.583049 
L 710.519139 354.839851 
L 711.207182 353.684245 
L 711.895225 354.71145 
L 712.583268 354.069447 
L 713.271311 355.225052 
L 713.959354 355.225052 
L 714.647397 355.610254 
L 716.023483 354.454649 
L 716.711527 353.684245 
L 717.39957 354.583049 
L 718.087613 356.380658 
L 718.775656 357.536263 
L 719.463699 358.94867 
L 720.151742 358.563468 
L 720.839785 360.104275 
L 721.527828 359.847474 
L 722.215871 361.003079 
L 722.903914 361.13148 
L 723.591957 362.287085 
L 724.28 360.489477 
L 724.28 360.489477 
" style="fill:none;stroke:#2ca02c;stroke-linecap:square;stroke-width:1.5;"/>
   </g>
   <g id="patch_3">
    <path d="M 36.925 404.12 
L 36.925 26.16 
" style="fill:none;stroke:#000000;stroke-linecap:square;stroke-linejoin:miter;stroke-width:0.8;"/>
   </g>
   <g id="patch_4">
    <path d="M 724.28 404.12 
L 724.28 26.16 
" style="fill:none;stroke:#000000;stroke-linecap:square;stroke-linejoin:miter;stroke-width:0.8;"/>
   </g>
   <g id="patch_5">
    <path d="M 36.925 404.12 
L 724.28 404.12 
" style="fill:none;stroke:#000000;stroke-linecap:square;stroke-linejoin:miter;stroke-width:0.8;"/>
   </g>
   <g id="patch_6">
    <path d="M 36.925 26.16 
L 724.28 26.16 
" style="fill:none;stroke:#000000;stroke-linecap:square;stroke-linejoin:miter;stroke-width:0.8;"/>
   </g>
   <g id="text_14">
    <!-- multi_way_v1__dqn: episode duration, steps, MA=20 -->
    <defs>
     <path d="M 52 44.1875 
Q 55.375 50.25 60.0625 53.125 
Q 64.75 56 71.09375 56 
Q 79.640625 56 84.28125 50.015625 
Q 88.921875 44.046875 88.921875 33.015625 
L 88.921875 0 
L 79.890625 0 
L 79.890625 32.71875 
Q 79.890625 40.578125 77.09375 44.375 
Q 74.3125 48.1875 68.609375 48.1875 
Q 61.625 48.1875 57.5625 43.546875 
Q 53.515625 38.921875 53.515625 30.90625 
L 53.515625 0 
L 44.484375 0 
L 44.484375 32.71875 
Q 44.484375 40.625 41.703125 44.40625 
Q 38.921875 48.1875 33.109375 48.1875 
Q 26.21875 48.1875 22.15625 43.53125 
Q 18.109375 38.875 18.109375 30.90625 
L 18.109375 0 
L 9.078125 0 
L 9.078125 54.6875 
L 18.109375 54.6875 
L 18.109375 46.1875 
Q 21.1875 51.21875 25.484375 53.609375 
Q 29.78125 56 35.6875 56 
Q 41.65625 56 45.828125 52.96875 
Q 50 49.953125 52 44.1875 
z
" id="DejaVuSans-109"/>
     <path d="M 8.5 21.578125 
L 8.5 54.6875 
L 17.484375 54.6875 
L 17.484375 21.921875 
Q 17.484375 14.15625 20.5 10.265625 
Q 23.53125 6.390625 29.59375 6.390625 
Q 36.859375 6.390625 41.078125 11.03125 
Q 45.3125 15.671875 45.3125 23.6875 
L 45.3125 54.6875 
L 54.296875 54.6875 
L 54.296875 0 
L 45.3125 0 
L 45.3125 8.40625 
Q 42.046875 3.421875 37.71875 1 
Q 33.40625 -1.421875 27.6875 -1.421875 
Q 18.265625 -1.421875 13.375 4.4375 
Q 8.5 10.296875 8.5 21.578125 
z
M 31.109375 56 
z
" id="DejaVuSans-117"/>
     <path d="M 9.421875 75.984375 
L 18.40625 75.984375 
L 18.40625 0 
L 9.421875 0 
z
" id="DejaVuSans-108"/>
     <path d="M 18.3125 70.21875 
L 18.3125 54.6875 
L 36.8125 54.6875 
L 36.8125 47.703125 
L 18.3125 47.703125 
L 18.3125 18.015625 
Q 18.3125 11.328125 20.140625 9.421875 
Q 21.96875 7.515625 27.59375 7.515625 
L 36.8125 7.515625 
L 36.8125 0 
L 27.59375 0 
Q 17.1875 0 13.234375 3.875 
Q 9.28125 7.765625 9.28125 18.015625 
L 9.28125 47.703125 
L 2.6875 47.703125 
L 2.6875 54.6875 
L 9.28125 54.6875 
L 9.28125 70.21875 
z
" id="DejaVuSans-116"/>
     <path d="M 9.421875 54.6875 
L 18.40625 54.6875 
L 18.40625 0 
L 9.421875 0 
z
M 9.421875 75.984375 
L 18.40625 75.984375 
L 18.40625 64.59375 
L 9.421875 64.59375 
z
" id="DejaVuSans-105"/>
     <path d="M 50.984375 -16.609375 
L 50.984375 -23.578125 
L -0.984375 -23.578125 
L -0.984375 -16.609375 
z
" id="DejaVuSans-95"/>
     <path d="M 4.203125 54.6875 
L 13.1875 54.6875 
L 24.421875 12.015625 
L 35.59375 54.6875 
L 46.1875 54.6875 
L 57.421875 12.015625 
L 68.609375 54.6875 
L 77.59375 54.6875 
L 63.28125 0 
L 52.6875 0 
L 40.921875 44.828125 
L 29.109375 0 
L 18.5 0 
z
" id="DejaVuSans-119"/>
     <path d="M 34.28125 27.484375 
Q 23.390625 27.484375 19.1875 25 
Q 14.984375 22.515625 14.984375 16.5 
Q 14.984375 11.71875 18.140625 8.90625 
Q 21.296875 6.109375 26.703125 6.109375 
Q 34.1875 6.109375 38.703125 11.40625 
Q 43.21875 16.703125 43.21875 25.484375 
L 43.21875 27.484375 
z
M 52.203125 31.203125 
L 52.203125 0 
L 43.21875 0 
L 43.21875 8.296875 
Q 40.140625 3.328125 35.546875 0.953125 
Q 30.953125 -1.421875 24.3125 -1.421875 
Q 15.921875 -1.421875 10.953125 3.296875 
Q 6 8.015625 6 15.921875 
Q 6 25.140625 12.171875 29.828125 
Q 18.359375 34.515625 30.609375 34.515625 
L 43.21875 34.515625 
L 43.21875 35.40625 
Q 43.21875 41.609375 39.140625 45 
Q 35.0625 48.390625 27.6875 48.390625 
Q 23 48.390625 18.546875 47.265625 
Q 14.109375 46.140625 10.015625 43.890625 
L 10.015625 52.203125 
Q 14.9375 54.109375 19.578125 55.046875 
Q 24.21875 56 28.609375 56 
Q 40.484375 56 46.34375 49.84375 
Q 52.203125 43.703125 52.203125 31.203125 
z
" id="DejaVuSans-97"/>
     <path d="M 32.171875 -5.078125 
Q 28.375 -14.84375 24.75 -17.8125 
Q 21.140625 -20.796875 15.09375 -20.796875 
L 7.90625 -20.796875 
L 7.90625 -13.28125 
L 13.1875 -13.28125 
Q 16.890625 -13.28125 18.9375 -11.515625 
Q 21 -9.765625 23.484375 -3.21875 
L 25.09375 0.875 
L 2.984375 54.6875 
L 12.5 54.6875 
L 29.59375 11.921875 
L 46.6875 54.6875 
L 56.203125 54.6875 
z
" id="DejaVuSans-121"/>
     <path d="M 2.984375 54.6875 
L 12.5 54.6875 
L 29.59375 8.796875 
L 46.6875 54.6875 
L 56.203125 54.6875 
L 35.6875 0 
L 23.484375 0 
z
" id="DejaVuSans-118"/>
     <path d="M 45.40625 46.390625 
L 45.40625 75.984375 
L 54.390625 75.984375 
L 54.390625 0 
L 45.40625 0 
L 45.40625 8.203125 
Q 42.578125 3.328125 38.25 0.953125 
Q 33.9375 -1.421875 27.875 -1.421875 
Q 17.96875 -1.421875 11.734375 6.484375 
Q 5.515625 14.40625 5.515625 27.296875 
Q 5.515625 40.1875 11.734375 48.09375 
Q 17.96875 56 27.875 56 
Q 33.9375 56 38.25 53.625 
Q 42.578125 51.265625 45.40625 46.390625 
z
M 14.796875 27.296875 
Q 14.796875 17.390625 18.875 11.75 
Q 22.953125 6.109375 30.078125 6.109375 
Q 37.203125 6.109375 41.296875 11.75 
Q 45.40625 17.390625 45.40625 27.296875 
Q 45.40625 37.203125 41.296875 42.84375 
Q 37.203125 48.484375 30.078125 48.484375 
Q 22.953125 48.484375 18.875 42.84375 
Q 14.796875 37.203125 14.796875 27.296875 
z
" id="DejaVuSans-100"/>
     <path d="M 14.796875 27.296875 
Q 14.796875 17.390625 18.875 11.75 
Q 22.953125 6.109375 30.078125 6.109375 
Q 37.203125 6.109375 41.296875 11.75 
Q 45.40625 17.390625 45.40625 27.296875 
Q 45.40625 37.203125 41.296875 42.84375 
Q 37.203125 48.484375 30.078125 48.484375 
Q 22.953125 48.484375 18.875 42.84375 
Q 14.796875 37.203125 14.796875 27.296875 
z
M 45.40625 8.203125 
Q 42.578125 3.328125 38.25 0.953125 
Q 33.9375 -1.421875 27.875 -1.421875 
Q 17.96875 -1.421875 11.734375 6.484375 
Q 5.515625 14.40625 5.515625 27.296875 
Q 5.515625 40.1875 11.734375 48.09375 
Q 17.96875 56 27.875 56 
Q 33.9375 56 38.25 53.625 
Q 42.578125 51.265625 45.40625 46.390625 
L 45.40625 54.6875 
L 54.390625 54.6875 
L 54.390625 -20.796875 
L 45.40625 -20.796875 
z
" id="DejaVuSans-113"/>
     <path d="M 54.890625 33.015625 
L 54.890625 0 
L 45.90625 0 
L 45.90625 32.71875 
Q 45.90625 40.484375 42.875 44.328125 
Q 39.84375 48.1875 33.796875 48.1875 
Q 26.515625 48.1875 22.3125 43.546875 
Q 18.109375 38.921875 18.109375 30.90625 
L 18.109375 0 
L 9.078125 0 
L 9.078125 54.6875 
L 18.109375 54.6875 
L 18.109375 46.1875 
Q 21.34375 51.125 25.703125 53.5625 
Q 30.078125 56 35.796875 56 
Q 45.21875 56 50.046875 50.171875 
Q 54.890625 44.34375 54.890625 33.015625 
z
" id="DejaVuSans-110"/>
     <path d="M 11.71875 12.40625 
L 22.015625 12.40625 
L 22.015625 0 
L 11.71875 0 
z
M 11.71875 51.703125 
L 22.015625 51.703125 
L 22.015625 39.3125 
L 11.71875 39.3125 
z
" id="DejaVuSans-58"/>
     <path id="DejaVuSans-32"/>
     <path d="M 56.203125 29.59375 
L 56.203125 25.203125 
L 14.890625 25.203125 
Q 15.484375 15.921875 20.484375 11.0625 
Q 25.484375 6.203125 34.421875 6.203125 
Q 39.59375 6.203125 44.453125 7.46875 
Q 49.3125 8.734375 54.109375 11.28125 
L 54.109375 2.78125 
Q 49.265625 0.734375 44.1875 -0.34375 
Q 39.109375 -1.421875 33.890625 -1.421875 
Q 20.796875 -1.421875 13.15625 6.1875 
Q 5.515625 13.8125 5.515625 26.8125 
Q 5.515625 40.234375 12.765625 48.109375 
Q 20.015625 56 32.328125 56 
Q 43.359375 56 49.78125 48.890625 
Q 56.203125 41.796875 56.203125 29.59375 
z
M 47.21875 32.234375 
Q 47.125 39.59375 43.09375 43.984375 
Q 39.0625 48.390625 32.421875 48.390625 
Q 24.90625 48.390625 20.390625 44.140625 
Q 15.875 39.890625 15.1875 32.171875 
z
" id="DejaVuSans-101"/>
     <path d="M 18.109375 8.203125 
L 18.109375 -20.796875 
L 9.078125 -20.796875 
L 9.078125 54.6875 
L 18.109375 54.6875 
L 18.109375 46.390625 
Q 20.953125 51.265625 25.265625 53.625 
Q 29.59375 56 35.59375 56 
Q 45.5625 56 51.78125 48.09375 
Q 58.015625 40.1875 58.015625 27.296875 
Q 58.015625 14.40625 51.78125 6.484375 
Q 45.5625 -1.421875 35.59375 -1.421875 
Q 29.59375 -1.421875 25.265625 0.953125 
Q 20.953125 3.328125 18.109375 8.203125 
z
M 48.6875 27.296875 
Q 48.6875 37.203125 44.609375 42.84375 
Q 40.53125 48.484375 33.40625 48.484375 
Q 26.265625 48.484375 22.1875 42.84375 
Q 18.109375 37.203125 18.109375 27.296875 
Q 18.109375 17.390625 22.1875 11.75 
Q 26.265625 6.109375 33.40625 6.109375 
Q 40.53125 6.109375 44.609375 11.75 
Q 48.6875 17.390625 48.6875 27.296875 
z
" id="DejaVuSans-112"/>
     <path d="M 44.28125 53.078125 
L 44.28125 44.578125 
Q 40.484375 46.53125 36.375 47.5 
Q 32.28125 48.484375 27.875 48.484375 
Q 21.1875 48.484375 17.84375 46.4375 
Q 14.5 44.390625 14.5 40.28125 
Q 14.5 37.15625 16.890625 35.375 
Q 19.28125 33.59375 26.515625 31.984375 
L 29.59375 31.296875 
Q 39.15625 29.25 43.1875 25.515625 
Q 47.21875 21.78125 47.21875 15.09375 
Q 47.21875 7.46875 41.1875 3.015625 
Q 35.15625 -1.421875 24.609375 -1.421875 
Q 20.21875 -1.421875 15.453125 -0.5625 
Q 10.6875 0.296875 5.421875 2 
L 5.421875 11.28125 
Q 10.40625 8.6875 15.234375 7.390625 
Q 20.0625 6.109375 24.8125 6.109375 
Q 31.15625 6.109375 34.5625 8.28125 
Q 37.984375 10.453125 37.984375 14.40625 
Q 37.984375 18.0625 35.515625 20.015625 
Q 33.0625 21.96875 24.703125 23.78125 
L 21.578125 24.515625 
Q 13.234375 26.265625 9.515625 29.90625 
Q 5.8125 33.546875 5.8125 39.890625 
Q 5.8125 47.609375 11.28125 51.796875 
Q 16.75 56 26.8125 56 
Q 31.78125 56 36.171875 55.265625 
Q 40.578125 54.546875 44.28125 53.078125 
z
" id="DejaVuSans-115"/>
     <path d="M 30.609375 48.390625 
Q 23.390625 48.390625 19.1875 42.75 
Q 14.984375 37.109375 14.984375 27.296875 
Q 14.984375 17.484375 19.15625 11.84375 
Q 23.34375 6.203125 30.609375 6.203125 
Q 37.796875 6.203125 41.984375 11.859375 
Q 46.1875 17.53125 46.1875 27.296875 
Q 46.1875 37.015625 41.984375 42.703125 
Q 37.796875 48.390625 30.609375 48.390625 
z
M 30.609375 56 
Q 42.328125 56 49.015625 48.375 
Q 55.71875 40.765625 55.71875 27.296875 
Q 55.71875 13.875 49.015625 6.21875 
Q 42.328125 -1.421875 30.609375 -1.421875 
Q 18.84375 -1.421875 12.171875 6.21875 
Q 5.515625 13.875 5.515625 27.296875 
Q 5.515625 40.765625 12.171875 48.375 
Q 18.84375 56 30.609375 56 
z
" id="DejaVuSans-111"/>
     <path d="M 41.109375 46.296875 
Q 39.59375 47.171875 37.8125 47.578125 
Q 36.03125 48 33.890625 48 
Q 26.265625 48 22.1875 43.046875 
Q 18.109375 38.09375 18.109375 28.8125 
L 18.109375 0 
L 9.078125 0 
L 9.078125 54.6875 
L 18.109375 54.6875 
L 18.109375 46.1875 
Q 20.953125 51.171875 25.484375 53.578125 
Q 30.03125 56 36.53125 56 
Q 37.453125 56 38.578125 55.875 
Q 39.703125 55.765625 41.0625 55.515625 
z
" id="DejaVuSans-114"/>
     <path d="M 11.71875 12.40625 
L 22.015625 12.40625 
L 22.015625 4 
L 14.015625 -11.625 
L 7.71875 -11.625 
L 11.71875 4 
z
" id="DejaVuSans-44"/>
     <path d="M 9.8125 72.90625 
L 24.515625 72.90625 
L 43.109375 23.296875 
L 61.8125 72.90625 
L 76.515625 72.90625 
L 76.515625 0 
L 66.890625 0 
L 66.890625 64.015625 
L 48.09375 14.015625 
L 38.1875 14.015625 
L 19.390625 64.015625 
L 19.390625 0 
L 9.8125 0 
z
" id="DejaVuSans-77"/>
     <path d="M 34.1875 63.1875 
L 20.796875 26.90625 
L 47.609375 26.90625 
z
M 28.609375 72.90625 
L 39.796875 72.90625 
L 67.578125 0 
L 57.328125 0 
L 50.6875 18.703125 
L 17.828125 18.703125 
L 11.1875 0 
L 0.78125 0 
z
" id="DejaVuSans-65"/>
     <path d="M 10.59375 45.40625 
L 73.1875 45.40625 
L 73.1875 37.203125 
L 10.59375 37.203125 
z
M 10.59375 25.484375 
L 73.1875 25.484375 
L 73.1875 17.1875 
L 10.59375 17.1875 
z
" id="DejaVuSans-61"/>
    </defs>
    <g transform="translate(222.120937 20.16)scale(0.12 -0.12)">
     <use xlink:href="#DejaVuSans-109"/>
     <use x="97.412109" xlink:href="#DejaVuSans-117"/>
     <use x="160.791016" xlink:href="#DejaVuSans-108"/>
     <use x="188.574219" xlink:href="#DejaVuSans-116"/>
     <use x="227.783203" xlink:href="#DejaVuSans-105"/>
     <use x="255.566406" xlink:href="#DejaVuSans-95"/>
     <use x="305.566406" xlink:href="#DejaVuSans-119"/>
     <use x="387.353516" xlink:href="#DejaVuSans-97"/>
     <use x="448.632812" xlink:href="#DejaVuSans-121"/>
     <use x="507.8125" xlink:href="#DejaVuSans-95"/>
     <use x="557.8125" xlink:href="#DejaVuSans-118"/>
     <use x="616.992188" xlink:href="#DejaVuSans-49"/>
     <use x="680.615234" xlink:href="#DejaVuSans-95"/>
     <use x="730.615234" xlink:href="#DejaVuSans-95"/>
     <use x="780.615234" xlink:href="#DejaVuSans-100"/>
     <use x="844.091797" xlink:href="#DejaVuSans-113"/>
     <use x="907.568359" xlink:href="#DejaVuSans-110"/>
     <use x="970.947266" xlink:href="#DejaVuSans-58"/>
     <use x="1004.638672" xlink:href="#DejaVuSans-32"/>
     <use x="1036.425781" xlink:href="#DejaVuSans-101"/>
     <use x="1097.949219" xlink:href="#DejaVuSans-112"/>
     <use x="1161.425781" xlink:href="#DejaVuSans-105"/>
     <use x="1189.208984" xlink:href="#DejaVuSans-115"/>
     <use x="1241.308594" xlink:href="#DejaVuSans-111"/>
     <use x="1302.490234" xlink:href="#DejaVuSans-100"/>
     <use x="1365.966797" xlink:href="#DejaVuSans-101"/>
     <use x="1427.490234" xlink:href="#DejaVuSans-32"/>
     <use x="1459.277344" xlink:href="#DejaVuSans-100"/>
     <use x="1522.753906" xlink:href="#DejaVuSans-117"/>
     <use x="1586.132812" xlink:href="#DejaVuSans-114"/>
     <use x="1627.246094" xlink:href="#DejaVuSans-97"/>
     <use x="1688.525391" xlink:href="#DejaVuSans-116"/>
     <use x="1727.734375" xlink:href="#DejaVuSans-105"/>
     <use x="1755.517578" xlink:href="#DejaVuSans-111"/>
     <use x="1816.699219" xlink:href="#DejaVuSans-110"/>
     <use x="1880.078125" xlink:href="#DejaVuSans-44"/>
     <use x="1911.865234" xlink:href="#DejaVuSans-32"/>
     <use x="1943.652344" xlink:href="#DejaVuSans-115"/>
     <use x="1995.751953" xlink:href="#DejaVuSans-116"/>
     <use x="2034.960938" xlink:href="#DejaVuSans-101"/>
     <use x="2096.484375" xlink:href="#DejaVuSans-112"/>
     <use x="2159.960938" xlink:href="#DejaVuSans-115"/>
     <use x="2212.060547" xlink:href="#DejaVuSans-44"/>
     <use x="2243.847656" xlink:href="#DejaVuSans-32"/>
     <use x="2275.634766" xlink:href="#DejaVuSans-77"/>
     <use x="2361.914062" xlink:href="#DejaVuSans-65"/>
     <use x="2430.322266" xlink:href="#DejaVuSans-61"/>
     <use x="2514.111328" xlink:href="#DejaVuSans-50"/>
     <use x="2577.734375" xlink:href="#DejaVuSans-48"/>
    </g>
   </g>
   <g id="legend_1">
    <g id="patch_7">
     <path d="M 763.686937 239.074375 
L 854.751 239.074375 
Q 856.751 239.074375 856.751 237.074375 
L 856.751 193.205625 
Q 856.751 191.205625 854.751 191.205625 
L 763.686937 191.205625 
Q 761.686937 191.205625 761.686937 193.205625 
L 761.686937 237.074375 
Q 761.686937 239.074375 763.686937 239.074375 
z
" style="fill:#ffffff;opacity:0.8;stroke:#cccccc;stroke-linejoin:miter;"/>
    </g>
    <g id="line2d_17">
     <path d="M 765.686937 199.304062 
L 785.686937 199.304062 
" style="fill:none;stroke:#1f77b4;stroke-linecap:square;stroke-width:1.5;"/>
    </g>
    <g id="line2d_18"/>
    <g id="text_15">
     <!-- dqn_greedy -->
     <defs>
      <path d="M 45.40625 27.984375 
Q 45.40625 37.75 41.375 43.109375 
Q 37.359375 48.484375 30.078125 48.484375 
Q 22.859375 48.484375 18.828125 43.109375 
Q 14.796875 37.75 14.796875 27.984375 
Q 14.796875 18.265625 18.828125 12.890625 
Q 22.859375 7.515625 30.078125 7.515625 
Q 37.359375 7.515625 41.375 12.890625 
Q 45.40625 18.265625 45.40625 27.984375 
z
M 54.390625 6.78125 
Q 54.390625 -7.171875 48.1875 -13.984375 
Q 42 -20.796875 29.203125 -20.796875 
Q 24.46875 -20.796875 20.265625 -20.09375 
Q 16.0625 -19.390625 12.109375 -17.921875 
L 12.109375 -9.1875 
Q 16.0625 -11.328125 19.921875 -12.34375 
Q 23.78125 -13.375 27.78125 -13.375 
Q 36.625 -13.375 41.015625 -8.765625 
Q 45.40625 -4.15625 45.40625 5.171875 
L 45.40625 9.625 
Q 42.625 4.78125 38.28125 2.390625 
Q 33.9375 0 27.875 0 
Q 17.828125 0 11.671875 7.65625 
Q 5.515625 15.328125 5.515625 27.984375 
Q 5.515625 40.671875 11.671875 48.328125 
Q 17.828125 56 27.875 56 
Q 33.9375 56 38.28125 53.609375 
Q 42.625 51.21875 45.40625 46.390625 
L 45.40625 54.6875 
L 54.390625 54.6875 
z
" id="DejaVuSans-103"/>
     </defs>
     <g transform="translate(793.686937 202.804062)scale(0.1 -0.1)">
      <use xlink:href="#DejaVuSans-100"/>
      <use x="63.476562" xlink:href="#DejaVuSans-113"/>
      <use x="126.953125" xlink:href="#DejaVuSans-110"/>
      <use x="190.332031" xlink:href="#DejaVuSans-95"/>
      <use x="240.332031" xlink:href="#DejaVuSans-103"/>
      <use x="303.808594" xlink:href="#DejaVuSans-114"/>
      <use x="344.890625" xlink:href="#DejaVuSans-101"/>
      <use x="406.414062" xlink:href="#DejaVuSans-101"/>
      <use x="467.9375" xlink:href="#DejaVuSans-100"/>
      <use x="531.414062" xlink:href="#DejaVuSans-121"/>
     </g>
    </g>
    <g id="line2d_19">
     <path d="M 765.686937 214.260312 
L 785.686937 214.260312 
" style="fill:none;stroke:#ff7f0e;stroke-linecap:square;stroke-width:1.5;"/>
    </g>
    <g id="line2d_20"/>
    <g id="text_16">
     <!-- dqn_eps -->
     <g transform="translate(793.686937 217.760312)scale(0.1 -0.1)">
      <use xlink:href="#DejaVuSans-100"/>
      <use x="63.476562" xlink:href="#DejaVuSans-113"/>
      <use x="126.953125" xlink:href="#DejaVuSans-110"/>
      <use x="190.332031" xlink:href="#DejaVuSans-95"/>
      <use x="240.332031" xlink:href="#DejaVuSans-101"/>
      <use x="301.855469" xlink:href="#DejaVuSans-112"/>
      <use x="365.332031" xlink:href="#DejaVuSans-115"/>
     </g>
    </g>
    <g id="line2d_21">
     <path d="M 765.686937 229.216562 
L 785.686937 229.216562 
" style="fill:none;stroke:#2ca02c;stroke-linecap:square;stroke-width:1.5;"/>
    </g>
    <g id="line2d_22"/>
    <g id="text_17">
     <!-- htm_4_1g -->
     <defs>
      <path d="M 54.890625 33.015625 
L 54.890625 0 
L 45.90625 0 
L 45.90625 32.71875 
Q 45.90625 40.484375 42.875 44.328125 
Q 39.84375 48.1875 33.796875 48.1875 
Q 26.515625 48.1875 22.3125 43.546875 
Q 18.109375 38.921875 18.109375 30.90625 
L 18.109375 0 
L 9.078125 0 
L 9.078125 75.984375 
L 18.109375 75.984375 
L 18.109375 46.1875 
Q 21.34375 51.125 25.703125 53.5625 
Q 30.078125 56 35.796875 56 
Q 45.21875 56 50.046875 50.171875 
Q 54.890625 44.34375 54.890625 33.015625 
z
" id="DejaVuSans-104"/>
     </defs>
     <g transform="translate(793.686937 232.716562)scale(0.1 -0.1)">
      <use xlink:href="#DejaVuSans-104"/>
      <use x="63.378906" xlink:href="#DejaVuSans-116"/>
      <use x="102.587891" xlink:href="#DejaVuSans-109"/>
      <use x="200" xlink:href="#DejaVuSans-95"/>
      <use x="250" xlink:href="#DejaVuSans-52"/>
      <use x="313.623047" xlink:href="#DejaVuSans-95"/>
      <use x="363.623047" xlink:href="#DejaVuSans-49"/>
      <use x="427.246094" xlink:href="#DejaVuSans-103"/>
     </g>
    </g>
   </g>
  </g>
 </g>
 <defs>
  <clipPath id="peebb3caff2">
   <rect height="377.96" width="687.355" x="36.925" y="26.16"/>
  </clipPath>
 </defs>
</svg>
