<?xml version="1.0" encoding="utf-8" standalone="no"?>
<!DOCTYPE svg PUBLIC "-//W3C//DTD SVG 1.1//EN"
  "http://www.w3.org/Graphics/SVG/1.1/DTD/svg11.dtd">
<!-- Created with matplotlib (https://matplotlib.org/) -->
<svg height="432pt" version="1.1" viewBox="0 0 864 432" width="864pt" xmlns="http://www.w3.org/2000/svg" xmlns:xlink="http://www.w3.org/1999/xlink">
 <defs>
  <style type="text/css">
*{stroke-linecap:butt;stroke-linejoin:round;}
  </style>
 </defs>
 <g id="figure_1">
  <g id="patch_1">
   <path d="M 0 432 
L 864 432 
L 864 0 
L 0 0 
z
" style="fill:#ffffff;"/>
  </g>
  <g id="axes_1">
   <g id="patch_2">
    <path d="M 42.145 404.12 
L 724.28 404.12 
L 724.28 26.52 
L 42.145 26.52 
z
" style="fill:#ffffff;"/>
   </g>
   <g id="matplotlib.axis_1">
    <g id="xtick_1">
     <g id="line2d_1">
      <defs>
       <path d="M 0 0 
L 0 3.5 
" id="m1ac116b5ba" style="stroke:#000000;stroke-width:0.8;"/>
      </defs>
      <g>
       <use style="stroke:#000000;stroke-width:0.8;" x="42.145" xlink:href="#m1ac116b5ba" y="404.12"/>
      </g>
     </g>
     <g id="text_1">
      <!-- 0 -->
      <defs>
       <path d="M 31.78125 66.40625 
Q 24.171875 66.40625 20.328125 58.90625 
Q 16.5 51.421875 16.5 36.375 
Q 16.5 21.390625 20.328125 13.890625 
Q 24.171875 6.390625 31.78125 6.390625 
Q 39.453125 6.390625 43.28125 13.890625 
Q 47.125 21.390625 47.125 36.375 
Q 47.125 51.421875 43.28125 58.90625 
Q 39.453125 66.40625 31.78125 66.40625 
z
M 31.78125 74.21875 
Q 44.046875 74.21875 50.515625 64.515625 
Q 56.984375 54.828125 56.984375 36.375 
Q 56.984375 17.96875 50.515625 8.265625 
Q 44.046875 -1.421875 31.78125 -1.421875 
Q 19.53125 -1.421875 13.0625 8.265625 
Q 6.59375 17.96875 6.59375 36.375 
Q 6.59375 54.828125 13.0625 64.515625 
Q 19.53125 74.21875 31.78125 74.21875 
z
" id="DejaVuSans-48"/>
      </defs>
      <g transform="translate(38.96375 418.718437)scale(0.1 -0.1)">
       <use xlink:href="#DejaVuSans-48"/>
      </g>
     </g>
    </g>
    <g id="xtick_2">
     <g id="line2d_2">
      <g>
       <use style="stroke:#000000;stroke-width:0.8;" x="127.625576" xlink:href="#m1ac116b5ba" y="404.12"/>
      </g>
     </g>
     <g id="text_2">
      <!-- 50 -->
      <defs>
       <path d="M 10.796875 72.90625 
L 49.515625 72.90625 
L 49.515625 64.59375 
L 19.828125 64.59375 
L 19.828125 46.734375 
Q 21.96875 47.46875 24.109375 47.828125 
Q 26.265625 48.1875 28.421875 48.1875 
Q 40.625 48.1875 47.75 41.5 
Q 54.890625 34.8125 54.890625 23.390625 
Q 54.890625 11.625 47.5625 5.09375 
Q 40.234375 -1.421875 26.90625 -1.421875 
Q 22.3125 -1.421875 17.546875 -0.640625 
Q 12.796875 0.140625 7.71875 1.703125 
L 7.71875 11.625 
Q 12.109375 9.234375 16.796875 8.0625 
Q 21.484375 6.890625 26.703125 6.890625 
Q 35.15625 6.890625 40.078125 11.328125 
Q 45.015625 15.765625 45.015625 23.390625 
Q 45.015625 31 40.078125 35.4375 
Q 35.15625 39.890625 26.703125 39.890625 
Q 22.75 39.890625 18.8125 39.015625 
Q 14.890625 38.140625 10.796875 36.28125 
z
" id="DejaVuSans-53"/>
      </defs>
      <g transform="translate(121.263076 418.718437)scale(0.1 -0.1)">
       <use xlink:href="#DejaVuSans-53"/>
       <use x="63.623047" xlink:href="#DejaVuSans-48"/>
      </g>
     </g>
    </g>
    <g id="xtick_3">
     <g id="line2d_3">
      <g>
       <use style="stroke:#000000;stroke-width:0.8;" x="213.106153" xlink:href="#m1ac116b5ba" y="404.12"/>
      </g>
     </g>
     <g id="text_3">
      <!-- 100 -->
      <defs>
       <path d="M 12.40625 8.296875 
L 28.515625 8.296875 
L 28.515625 63.921875 
L 10.984375 60.40625 
L 10.984375 69.390625 
L 28.421875 72.90625 
L 38.28125 72.90625 
L 38.28125 8.296875 
L 54.390625 8.296875 
L 54.390625 0 
L 12.40625 0 
z
" id="DejaVuSans-49"/>
      </defs>
      <g transform="translate(203.562403 418.718437)scale(0.1 -0.1)">
       <use xlink:href="#DejaVuSans-49"/>
       <use x="63.623047" xlink:href="#DejaVuSans-48"/>
       <use x="127.246094" xlink:href="#DejaVuSans-48"/>
      </g>
     </g>
    </g>
    <g id="xtick_4">
     <g id="line2d_4">
      <g>
       <use style="stroke:#000000;stroke-width:0.8;" x="298.586729" xlink:href="#m1ac116b5ba" y="404.12"/>
      </g>
     </g>
     <g id="text_4">
      <!-- 150 -->
      <g transform="translate(289.042979 418.718437)scale(0.1 -0.1)">
       <use xlink:href="#DejaVuSans-49"/>
       <use x="63.623047" xlink:href="#DejaVuSans-53"/>
       <use x="127.246094" xlink:href="#DejaVuSans-48"/>
      </g>
     </g>
    </g>
    <g id="xtick_5">
     <g id="line2d_5">
      <g>
       <use style="stroke:#000000;stroke-width:0.8;" x="384.067306" xlink:href="#m1ac116b5ba" y="404.12"/>
      </g>
     </g>
     <g id="text_5">
      <!-- 200 -->
      <defs>
       <path d="M 19.1875 8.296875 
L 53.609375 8.296875 
L 53.609375 0 
L 7.328125 0 
L 7.328125 8.296875 
Q 12.9375 14.109375 22.625 23.890625 
Q 32.328125 33.6875 34.8125 36.53125 
Q 39.546875 41.84375 41.421875 45.53125 
Q 43.3125 49.21875 43.3125 52.78125 
Q 43.3125 58.59375 39.234375 62.25 
Q 35.15625 65.921875 28.609375 65.921875 
Q 23.96875 65.921875 18.8125 64.3125 
Q 13.671875 62.703125 7.8125 59.421875 
L 7.8125 69.390625 
Q 13.765625 71.78125 18.9375 73 
Q 24.125 74.21875 28.421875 74.21875 
Q 39.75 74.21875 46.484375 68.546875 
Q 53.21875 62.890625 53.21875 53.421875 
Q 53.21875 48.921875 51.53125 44.890625 
Q 49.859375 40.875 45.40625 35.40625 
Q 44.1875 33.984375 37.640625 27.21875 
Q 31.109375 20.453125 19.1875 8.296875 
z
" id="DejaVuSans-50"/>
      </defs>
      <g transform="translate(374.523556 418.718437)scale(0.1 -0.1)">
       <use xlink:href="#DejaVuSans-50"/>
       <use x="63.623047" xlink:href="#DejaVuSans-48"/>
       <use x="127.246094" xlink:href="#DejaVuSans-48"/>
      </g>
     </g>
    </g>
    <g id="xtick_6">
     <g id="line2d_6">
      <g>
       <use style="stroke:#000000;stroke-width:0.8;" x="469.547882" xlink:href="#m1ac116b5ba" y="404.12"/>
      </g>
     </g>
     <g id="text_6">
      <!-- 250 -->
      <g transform="translate(460.004132 418.718437)scale(0.1 -0.1)">
       <use xlink:href="#DejaVuSans-50"/>
       <use x="63.623047" xlink:href="#DejaVuSans-53"/>
       <use x="127.246094" xlink:href="#DejaVuSans-48"/>
      </g>
     </g>
    </g>
    <g id="xtick_7">
     <g id="line2d_7">
      <g>
       <use style="stroke:#000000;stroke-width:0.8;" x="555.028459" xlink:href="#m1ac116b5ba" y="404.12"/>
      </g>
     </g>
     <g id="text_7">
      <!-- 300 -->
      <defs>
       <path d="M 40.578125 39.3125 
Q 47.65625 37.796875 51.625 33 
Q 55.609375 28.21875 55.609375 21.1875 
Q 55.609375 10.40625 48.1875 4.484375 
Q 40.765625 -1.421875 27.09375 -1.421875 
Q 22.515625 -1.421875 17.65625 -0.515625 
Q 12.796875 0.390625 7.625 2.203125 
L 7.625 11.71875 
Q 11.71875 9.328125 16.59375 8.109375 
Q 21.484375 6.890625 26.8125 6.890625 
Q 36.078125 6.890625 40.9375 10.546875 
Q 45.796875 14.203125 45.796875 21.1875 
Q 45.796875 27.640625 41.28125 31.265625 
Q 36.765625 34.90625 28.71875 34.90625 
L 20.21875 34.90625 
L 20.21875 43.015625 
L 29.109375 43.015625 
Q 36.375 43.015625 40.234375 45.921875 
Q 44.09375 48.828125 44.09375 54.296875 
Q 44.09375 59.90625 40.109375 62.90625 
Q 36.140625 65.921875 28.71875 65.921875 
Q 24.65625 65.921875 20.015625 65.03125 
Q 15.375 64.15625 9.8125 62.3125 
L 9.8125 71.09375 
Q 15.4375 72.65625 20.34375 73.4375 
Q 25.25 74.21875 29.59375 74.21875 
Q 40.828125 74.21875 47.359375 69.109375 
Q 53.90625 64.015625 53.90625 55.328125 
Q 53.90625 49.265625 50.4375 45.09375 
Q 46.96875 40.921875 40.578125 39.3125 
z
" id="DejaVuSans-51"/>
      </defs>
      <g transform="translate(545.484709 418.718437)scale(0.1 -0.1)">
       <use xlink:href="#DejaVuSans-51"/>
       <use x="63.623047" xlink:href="#DejaVuSans-48"/>
       <use x="127.246094" xlink:href="#DejaVuSans-48"/>
      </g>
     </g>
    </g>
    <g id="xtick_8">
     <g id="line2d_8">
      <g>
       <use style="stroke:#000000;stroke-width:0.8;" x="640.509035" xlink:href="#m1ac116b5ba" y="404.12"/>
      </g>
     </g>
     <g id="text_8">
      <!-- 350 -->
      <g transform="translate(630.965285 418.718437)scale(0.1 -0.1)">
       <use xlink:href="#DejaVuSans-51"/>
       <use x="63.623047" xlink:href="#DejaVuSans-53"/>
       <use x="127.246094" xlink:href="#DejaVuSans-48"/>
      </g>
     </g>
    </g>
   </g>
   <g id="matplotlib.axis_2">
    <g id="ytick_1">
     <g id="line2d_9">
      <defs>
       <path d="M 0 0 
L -3.5 0 
" id="m30464d3e15" style="stroke:#000000;stroke-width:0.8;"/>
      </defs>
      <g>
       <use style="stroke:#000000;stroke-width:0.8;" x="42.145" xlink:href="#m30464d3e15" y="387.394518"/>
      </g>
     </g>
     <g id="text_9">
      <!-- −3.0 -->
      <defs>
       <path d="M 10.59375 35.5 
L 73.1875 35.5 
L 73.1875 27.203125 
L 10.59375 27.203125 
z
" id="DejaVuSans-8722"/>
       <path d="M 10.6875 12.40625 
L 21 12.40625 
L 21 0 
L 10.6875 0 
z
" id="DejaVuSans-46"/>
      </defs>
      <g transform="translate(10.862188 391.193736)scale(0.1 -0.1)">
       <use xlink:href="#DejaVuSans-8722"/>
       <use x="83.789062" xlink:href="#DejaVuSans-51"/>
       <use x="147.412109" xlink:href="#DejaVuSans-46"/>
       <use x="179.199219" xlink:href="#DejaVuSans-48"/>
      </g>
     </g>
    </g>
    <g id="ytick_2">
     <g id="line2d_10">
      <g>
       <use style="stroke:#000000;stroke-width:0.8;" x="42.145" xlink:href="#m30464d3e15" y="336.061093"/>
      </g>
     </g>
     <g id="text_10">
      <!-- −2.5 -->
      <g transform="translate(10.862188 339.860311)scale(0.1 -0.1)">
       <use xlink:href="#DejaVuSans-8722"/>
       <use x="83.789062" xlink:href="#DejaVuSans-50"/>
       <use x="147.412109" xlink:href="#DejaVuSans-46"/>
       <use x="179.199219" xlink:href="#DejaVuSans-53"/>
      </g>
     </g>
    </g>
    <g id="ytick_3">
     <g id="line2d_11">
      <g>
       <use style="stroke:#000000;stroke-width:0.8;" x="42.145" xlink:href="#m30464d3e15" y="284.727667"/>
      </g>
     </g>
     <g id="text_11">
      <!-- −2.0 -->
      <g transform="translate(10.862188 288.526886)scale(0.1 -0.1)">
       <use xlink:href="#DejaVuSans-8722"/>
       <use x="83.789062" xlink:href="#DejaVuSans-50"/>
       <use x="147.412109" xlink:href="#DejaVuSans-46"/>
       <use x="179.199219" xlink:href="#DejaVuSans-48"/>
      </g>
     </g>
    </g>
    <g id="ytick_4">
     <g id="line2d_12">
      <g>
       <use style="stroke:#000000;stroke-width:0.8;" x="42.145" xlink:href="#m30464d3e15" y="233.394242"/>
      </g>
     </g>
     <g id="text_12">
      <!-- −1.5 -->
      <g transform="translate(10.862188 237.193461)scale(0.1 -0.1)">
       <use xlink:href="#DejaVuSans-8722"/>
       <use x="83.789062" xlink:href="#DejaVuSans-49"/>
       <use x="147.412109" xlink:href="#DejaVuSans-46"/>
       <use x="179.199219" xlink:href="#DejaVuSans-53"/>
      </g>
     </g>
    </g>
    <g id="ytick_5">
     <g id="line2d_13">
      <g>
       <use style="stroke:#000000;stroke-width:0.8;" x="42.145" xlink:href="#m30464d3e15" y="182.060817"/>
      </g>
     </g>
     <g id="text_13">
      <!-- −1.0 -->
      <g transform="translate(10.862188 185.860036)scale(0.1 -0.1)">
       <use xlink:href="#DejaVuSans-8722"/>
       <use x="83.789062" xlink:href="#DejaVuSans-49"/>
       <use x="147.412109" xlink:href="#DejaVuSans-46"/>
       <use x="179.199219" xlink:href="#DejaVuSans-48"/>
      </g>
     </g>
    </g>
    <g id="ytick_6">
     <g id="line2d_14">
      <g>
       <use style="stroke:#000000;stroke-width:0.8;" x="42.145" xlink:href="#m30464d3e15" y="130.727392"/>
      </g>
     </g>
     <g id="text_14">
      <!-- −0.5 -->
      <g transform="translate(10.862188 134.526611)scale(0.1 -0.1)">
       <use xlink:href="#DejaVuSans-8722"/>
       <use x="83.789062" xlink:href="#DejaVuSans-48"/>
       <use x="147.412109" xlink:href="#DejaVuSans-46"/>
       <use x="179.199219" xlink:href="#DejaVuSans-53"/>
      </g>
     </g>
    </g>
    <g id="ytick_7">
     <g id="line2d_15">
      <g>
       <use style="stroke:#000000;stroke-width:0.8;" x="42.145" xlink:href="#m30464d3e15" y="79.393967"/>
      </g>
     </g>
     <g id="text_15">
      <!-- 0.0 -->
      <g transform="translate(19.241875 83.193186)scale(0.1 -0.1)">
       <use xlink:href="#DejaVuSans-48"/>
       <use x="63.623047" xlink:href="#DejaVuSans-46"/>
       <use x="95.410156" xlink:href="#DejaVuSans-48"/>
      </g>
     </g>
    </g>
    <g id="ytick_8">
     <g id="line2d_16">
      <g>
       <use style="stroke:#000000;stroke-width:0.8;" x="42.145" xlink:href="#m30464d3e15" y="28.060542"/>
      </g>
     </g>
     <g id="text_16">
      <!-- 0.5 -->
      <g transform="translate(19.241875 31.85976)scale(0.1 -0.1)">
       <use xlink:href="#DejaVuSans-48"/>
       <use x="63.623047" xlink:href="#DejaVuSans-46"/>
       <use x="95.410156" xlink:href="#DejaVuSans-53"/>
      </g>
     </g>
    </g>
   </g>
   <g id="line2d_17">
    <path clip-path="url(#pfe13625c4f)" d="M 74.627619 79.393967 
L 724.28 79.393967 
L 724.28 79.393967 
" style="fill:none;stroke:#1f77b4;stroke-linecap:square;stroke-width:1.5;"/>
   </g>
   <g id="line2d_18">
    <path clip-path="url(#pfe13625c4f)" d="M 74.627619 75.04575 
L 76.337231 73.900278 
L 79.756454 73.900278 
L 81.466065 85.720236 
L 83.175677 81.557453 
L 84.885288 79.476062 
L 88.304511 79.476062 
L 90.014123 79.346097 
L 91.723734 68.671611 
L 95.142957 68.671611 
L 98.56218 61.555288 
L 100.271792 56.166191 
L 103.691015 58.457136 
L 105.400627 68.446159 
L 107.110238 66.364768 
L 108.81985 66.364768 
L 110.529461 65.428849 
L 112.239073 64.283376 
L 113.948684 64.283376 
L 115.658296 52.463418 
L 117.367907 56.626201 
L 122.496742 56.626201 
L 124.206353 54.54481 
L 125.915965 53.399337 
L 127.625576 49.236555 
L 129.335188 47.155163 
L 131.044799 50.713325 
L 132.754411 50.713325 
L 134.464023 59.660584 
L 137.883246 59.660584 
L 139.592857 56.787884 
L 141.302469 58.869276 
L 143.01208 58.869276 
L 144.721692 59.805195 
L 146.431303 60.950667 
L 148.140915 60.950667 
L 149.850526 58.869276 
L 151.560138 58.869276 
L 153.269749 59.805195 
L 156.688972 59.805195 
L 158.398584 61.886586 
L 160.108195 61.886586 
L 161.817807 66.049368 
L 163.527419 68.13076 
L 166.946642 68.13076 
L 168.656253 66.840677 
L 172.075476 66.840677 
L 173.785088 68.567904 
L 177.204311 68.567904 
L 178.913922 69.713376 
L 180.623534 68.567904 
L 182.333145 65.009742 
L 184.042757 67.091133 
L 185.752368 67.091133 
L 187.46198 68.236606 
L 190.881203 68.236606 
L 192.590815 67.091133 
L 194.300426 66.155214 
L 196.010038 59.370189 
L 199.429261 59.370189 
L 201.138872 57.288798 
L 202.848484 59.370189 
L 204.558095 49.96292 
L 206.267707 49.96292 
L 207.977318 51.108393 
L 211.396541 48.817448 
L 213.106153 48.817448 
L 214.815764 49.96292 
L 216.525376 53.521082 
L 225.073434 53.521082 
L 226.783045 54.666555 
L 228.492657 56.747946 
L 230.202268 63.532971 
L 233.621491 63.532971 
L 237.040714 67.695754 
L 238.750326 77.103022 
L 242.169549 77.103022 
L 245.588772 79.393967 
L 257.556053 79.393967 
L 259.265664 85.574372 
L 272.942556 85.574372 
L 274.652168 87.785728 
L 279.781003 87.785728 
L 281.490614 91.34389 
L 283.200226 91.34389 
L 284.909837 96.732986 
L 286.619449 101.43662 
L 288.32906 101.43662 
L 290.038672 108.552944 
L 291.748283 108.552944 
L 293.457895 97.337607 
L 295.167506 99.355229 
L 296.877118 103.747656 
L 298.586729 103.747656 
L 300.296341 112.694915 
L 302.005952 114.345714 
L 303.715564 121.462038 
L 305.425175 121.462038 
L 307.134787 116.115898 
L 308.844398 117.462704 
L 310.55401 108.409599 
L 312.263622 104.060129 
L 313.973233 97.162279 
L 315.682845 101.865913 
L 317.392456 105.424075 
L 319.102068 107.151302 
L 320.811679 107.4826 
L 322.521291 98.578299 
L 324.230902 91.461975 
L 325.940514 99.723771 
L 327.650125 95.560989 
L 329.359737 93.543366 
L 331.069348 84.447305 
L 332.77896 84.447305 
L 334.488571 74.708738 
L 336.198183 72.266631 
L 337.907794 65.150307 
L 339.617406 65.150307 
L 341.327018 67.874204 
L 343.036629 64.316042 
L 344.746241 72.577838 
L 346.455852 76.927308 
L 348.165464 83.825159 
L 349.875075 69.646264 
L 351.584687 71.727655 
L 353.294298 64.611332 
L 355.00391 59.576399 
L 356.713521 68.4807 
L 358.423133 67.689392 
L 360.132744 57.346205 
L 361.842356 66.54392 
L 363.551967 65.752612 
L 365.261579 68.374855 
L 366.97119 67.583546 
L 370.390414 69.166163 
L 372.100025 69.166163 
L 373.809637 66.05466 
L 375.519248 65.118741 
L 377.22886 64.327433 
L 378.938471 64.327433 
L 380.648083 62.850662 
L 382.357694 62.850662 
L 384.067306 68.767761 
L 385.776917 63.128208 
L 390.905752 63.128208 
L 392.615363 63.919516 
L 394.324975 66.000907 
L 396.034586 66.000907 
L 397.744198 66.792216 
L 399.45381 68.873607 
L 401.163421 69.664915 
L 404.582644 69.664915 
L 406.292256 67.583524 
L 408.001867 70.695027 
L 409.711479 70.695027 
L 413.130702 72.277643 
L 414.840313 70.196252 
L 416.549925 66.63809 
L 419.969148 66.63809 
L 421.678759 63.079928 
L 423.388371 63.079928 
L 425.097982 60.998537 
L 438.774875 60.998537 
L 440.484486 63.079928 
L 442.194098 63.079928 
L 443.903709 64.556699 
L 447.322932 64.556699 
L 449.032544 63.411226 
L 450.742155 66.969388 
L 452.451767 82.347508 
L 454.161378 76.707955 
L 455.87099 80.266117 
L 457.580602 80.266117 
L 459.290213 82.347508 
L 460.999825 80.266117 
L 469.547882 80.266117 
L 471.257494 74.626564 
L 476.386328 74.626564 
L 478.09594 76.707955 
L 481.515163 76.707955 
L 483.224774 81.411589 
L 484.934386 81.411589 
L 486.643997 62.475307 
L 488.353609 83.49298 
L 490.063221 75.772036 
L 491.772832 75.772036 
L 493.482444 73.690645 
L 495.192055 75.772036 
L 503.740113 75.772036 
L 505.449724 81.411589 
L 519.126617 81.411589 
L 520.836228 84.969751 
L 522.54584 69.591631 
L 524.255451 72.608941 
L 525.965063 72.608941 
L 527.674674 74.690333 
L 531.093897 74.690333 
L 532.803509 69.050779 
L 543.061178 69.050779 
L 544.770789 84.428899 
L 546.480401 76.707955 
L 548.190013 76.707955 
L 549.899624 73.149793 
L 553.318847 73.149793 
L 555.028459 70.132483 
L 556.73807 77.789658 
L 558.447682 78.445871 
L 563.576516 78.445871 
L 565.286128 77.509952 
L 566.995739 83.149505 
L 568.705351 83.149505 
L 570.414962 93.82399 
L 572.124574 90.265829 
L 573.834185 100.940314 
L 575.543797 96.035347 
L 577.253409 96.035347 
L 578.96302 79.721308 
L 580.672632 84.424942 
L 582.382243 82.697715 
L 584.091855 86.255877 
L 587.511078 86.255877 
L 589.220689 88.337268 
L 590.930301 80.680093 
L 592.639912 80.233433 
L 594.349524 79.297514 
L 596.059135 79.297514 
L 597.768747 78.361595 
L 599.478358 79.297514 
L 601.18797 78.361595 
L 602.897581 78.361595 
L 604.607193 67.68711 
L 606.316805 68.832582 
L 608.026416 58.158096 
L 609.736028 63.063064 
L 611.445639 63.063064 
L 613.155251 63.998983 
L 614.864862 67.016293 
L 616.574474 68.74352 
L 618.284085 67.807601 
L 621.703308 67.807601 
L 623.41292 68.74352 
L 625.122531 68.74352 
L 626.832143 73.237601 
L 628.541754 74.17352 
L 630.251366 70.615358 
L 631.960977 70.615358 
L 633.670589 68.888131 
L 635.380201 69.82405 
L 637.089812 68.096823 
L 638.799424 68.096823 
L 640.509035 70.509512 
L 642.218647 69.573593 
L 650.766704 69.573593 
L 652.476316 70.509512 
L 654.185927 68.782285 
L 655.895539 79.456771 
L 657.60515 76.439461 
L 659.314762 76.439461 
L 661.024373 74.712233 
L 662.733985 72.299544 
L 664.443596 75.857706 
L 666.153208 76.793625 
L 669.572431 76.793625 
L 671.282043 77.584933 
L 672.991654 75.857706 
L 674.701266 75.857706 
L 676.410877 75.066397 
L 678.120489 73.33917 
L 679.8301 72.403251 
L 683.249323 72.403251 
L 684.958935 69.990562 
L 686.668546 69.990562 
L 688.378158 70.78187 
L 690.087769 59.171465 
L 691.797381 61.252856 
L 693.506992 61.252856 
L 695.216604 62.980084 
L 696.926216 64.456854 
L 700.345439 64.456854 
L 702.05505 66.184082 
L 703.764662 65.248163 
L 705.474273 66.184082 
L 707.183885 67.911309 
L 708.893496 66.97539 
L 712.312719 70.429844 
L 714.022331 71.365763 
L 719.151165 71.365763 
L 720.860777 70.429844 
L 724.28 72.301682 
L 724.28 72.301682 
" style="fill:none;stroke:#ff7f0e;stroke-linecap:square;stroke-width:1.5;"/>
   </g>
   <g id="line2d_19">
    <path clip-path="url(#pfe13625c4f)" d="M 74.627619 234.198892 
L 76.337231 233.05342 
L 79.756454 209.413504 
L 81.466065 209.413504 
L 98.56218 91.213925 
L 113.948684 91.213925 
L 115.658296 79.393967 
L 211.396541 79.393967 
L 245.588772 386.956364 
L 291.748283 386.956364 
L 293.457895 377.217797 
L 305.425175 377.217797 
L 307.134787 367.47923 
L 308.844398 367.47923 
L 313.973233 338.26353 
L 320.811679 338.26353 
L 324.230902 318.786397 
L 327.650125 318.786397 
L 339.617406 250.61643 
L 341.327018 250.61643 
L 343.036629 240.877864 
L 348.165464 240.877864 
L 355.00391 201.923597 
L 358.423133 201.923597 
L 360.132744 192.18503 
L 382.357694 192.18503 
L 384.067306 171.167357 
L 385.776917 151.626455 
L 387.486529 139.55604 
L 416.549925 43.683636 
L 418.259536 59.061756 
L 419.969148 72.963105 
L 421.678759 79.393967 
L 450.742155 79.393967 
L 452.451767 94.772087 
L 484.934386 94.772087 
L 486.643997 79.393967 
L 488.353609 94.772087 
L 520.836228 94.772087 
L 522.54584 79.393967 
L 543.061178 79.393967 
L 544.770789 94.772087 
L 553.318847 94.772087 
L 555.028459 86.308957 
L 556.73807 99.605686 
L 568.705351 117.961386 
L 570.414962 131.258115 
L 572.124574 133.880358 
L 573.834185 147.177086 
L 577.253409 152.421572 
L 578.96302 139.665695 
L 587.511078 152.776909 
L 589.220689 163.862282 
L 590.930301 153.187796 
L 602.897581 153.187796 
L 604.607193 142.51331 
L 606.316805 142.51331 
L 608.026416 131.838825 
L 654.185927 131.838825 
L 655.895539 142.51331 
L 688.378158 142.51331 
L 690.087769 131.838825 
L 724.28 131.838825 
L 724.28 131.838825 
" style="fill:none;stroke:#2ca02c;stroke-linecap:square;stroke-width:1.5;"/>
   </g>
   <g id="patch_3">
    <path d="M 42.145 404.12 
L 42.145 26.52 
" style="fill:none;stroke:#000000;stroke-linecap:square;stroke-linejoin:miter;stroke-width:0.8;"/>
   </g>
   <g id="patch_4">
    <path d="M 724.28 404.12 
L 724.28 26.52 
" style="fill:none;stroke:#000000;stroke-linecap:square;stroke-linejoin:miter;stroke-width:0.8;"/>
   </g>
   <g id="patch_5">
    <path d="M 42.145 404.12 
L 724.28 404.12 
" style="fill:none;stroke:#000000;stroke-linecap:square;stroke-linejoin:miter;stroke-width:0.8;"/>
   </g>
   <g id="patch_6">
    <path d="M 42.145 26.52 
L 724.28 26.52 
" style="fill:none;stroke:#000000;stroke-linecap:square;stroke-linejoin:miter;stroke-width:0.8;"/>
   </g>
   <g id="text_17">
    <!-- multi_way_v0__dqn: episode duration in steps log-relative to `dqn_greedy`, MA=20 -->
    <defs>
     <path d="M 52 44.1875 
Q 55.375 50.25 60.0625 53.125 
Q 64.75 56 71.09375 56 
Q 79.640625 56 84.28125 50.015625 
Q 88.921875 44.046875 88.921875 33.015625 
L 88.921875 0 
L 79.890625 0 
L 79.890625 32.71875 
Q 79.890625 40.578125 77.09375 44.375 
Q 74.3125 48.1875 68.609375 48.1875 
Q 61.625 48.1875 57.5625 43.546875 
Q 53.515625 38.921875 53.515625 30.90625 
L 53.515625 0 
L 44.484375 0 
L 44.484375 32.71875 
Q 44.484375 40.625 41.703125 44.40625 
Q 38.921875 48.1875 33.109375 48.1875 
Q 26.21875 48.1875 22.15625 43.53125 
Q 18.109375 38.875 18.109375 30.90625 
L 18.109375 0 
L 9.078125 0 
L 9.078125 54.6875 
L 18.109375 54.6875 
L 18.109375 46.1875 
Q 21.1875 51.21875 25.484375 53.609375 
Q 29.78125 56 35.6875 56 
Q 41.65625 56 45.828125 52.96875 
Q 50 49.953125 52 44.1875 
z
" id="DejaVuSans-109"/>
     <path d="M 8.5 21.578125 
L 8.5 54.6875 
L 17.484375 54.6875 
L 17.484375 21.921875 
Q 17.484375 14.15625 20.5 10.265625 
Q 23.53125 6.390625 29.59375 6.390625 
Q 36.859375 6.390625 41.078125 11.03125 
Q 45.3125 15.671875 45.3125 23.6875 
L 45.3125 54.6875 
L 54.296875 54.6875 
L 54.296875 0 
L 45.3125 0 
L 45.3125 8.40625 
Q 42.046875 3.421875 37.71875 1 
Q 33.40625 -1.421875 27.6875 -1.421875 
Q 18.265625 -1.421875 13.375 4.4375 
Q 8.5 10.296875 8.5 21.578125 
z
M 31.109375 56 
z
" id="DejaVuSans-117"/>
     <path d="M 9.421875 75.984375 
L 18.40625 75.984375 
L 18.40625 0 
L 9.421875 0 
z
" id="DejaVuSans-108"/>
     <path d="M 18.3125 70.21875 
L 18.3125 54.6875 
L 36.8125 54.6875 
L 36.8125 47.703125 
L 18.3125 47.703125 
L 18.3125 18.015625 
Q 18.3125 11.328125 20.140625 9.421875 
Q 21.96875 7.515625 27.59375 7.515625 
L 36.8125 7.515625 
L 36.8125 0 
L 27.59375 0 
Q 17.1875 0 13.234375 3.875 
Q 9.28125 7.765625 9.28125 18.015625 
L 9.28125 47.703125 
L 2.6875 47.703125 
L 2.6875 54.6875 
L 9.28125 54.6875 
L 9.28125 70.21875 
z
" id="DejaVuSans-116"/>
     <path d="M 9.421875 54.6875 
L 18.40625 54.6875 
L 18.40625 0 
L 9.421875 0 
z
M 9.421875 75.984375 
L 18.40625 75.984375 
L 18.40625 64.59375 
L 9.421875 64.59375 
z
" id="DejaVuSans-105"/>
     <path d="M 50.984375 -16.609375 
L 50.984375 -23.578125 
L -0.984375 -23.578125 
L -0.984375 -16.609375 
z
" id="DejaVuSans-95"/>
     <path d="M 4.203125 54.6875 
L 13.1875 54.6875 
L 24.421875 12.015625 
L 35.59375 54.6875 
L 46.1875 54.6875 
L 57.421875 12.015625 
L 68.609375 54.6875 
L 77.59375 54.6875 
L 63.28125 0 
L 52.6875 0 
L 40.921875 44.828125 
L 29.109375 0 
L 18.5 0 
z
" id="DejaVuSans-119"/>
     <path d="M 34.28125 27.484375 
Q 23.390625 27.484375 19.1875 25 
Q 14.984375 22.515625 14.984375 16.5 
Q 14.984375 11.71875 18.140625 8.90625 
Q 21.296875 6.109375 26.703125 6.109375 
Q 34.1875 6.109375 38.703125 11.40625 
Q 43.21875 16.703125 43.21875 25.484375 
L 43.21875 27.484375 
z
M 52.203125 31.203125 
L 52.203125 0 
L 43.21875 0 
L 43.21875 8.296875 
Q 40.140625 3.328125 35.546875 0.953125 
Q 30.953125 -1.421875 24.3125 -1.421875 
Q 15.921875 -1.421875 10.953125 3.296875 
Q 6 8.015625 6 15.921875 
Q 6 25.140625 12.171875 29.828125 
Q 18.359375 34.515625 30.609375 34.515625 
L 43.21875 34.515625 
L 43.21875 35.40625 
Q 43.21875 41.609375 39.140625 45 
Q 35.0625 48.390625 27.6875 48.390625 
Q 23 48.390625 18.546875 47.265625 
Q 14.109375 46.140625 10.015625 43.890625 
L 10.015625 52.203125 
Q 14.9375 54.109375 19.578125 55.046875 
Q 24.21875 56 28.609375 56 
Q 40.484375 56 46.34375 49.84375 
Q 52.203125 43.703125 52.203125 31.203125 
z
" id="DejaVuSans-97"/>
     <path d="M 32.171875 -5.078125 
Q 28.375 -14.84375 24.75 -17.8125 
Q 21.140625 -20.796875 15.09375 -20.796875 
L 7.90625 -20.796875 
L 7.90625 -13.28125 
L 13.1875 -13.28125 
Q 16.890625 -13.28125 18.9375 -11.515625 
Q 21 -9.765625 23.484375 -3.21875 
L 25.09375 0.875 
L 2.984375 54.6875 
L 12.5 54.6875 
L 29.59375 11.921875 
L 46.6875 54.6875 
L 56.203125 54.6875 
z
" id="DejaVuSans-121"/>
     <path d="M 2.984375 54.6875 
L 12.5 54.6875 
L 29.59375 8.796875 
L 46.6875 54.6875 
L 56.203125 54.6875 
L 35.6875 0 
L 23.484375 0 
z
" id="DejaVuSans-118"/>
     <path d="M 45.40625 46.390625 
L 45.40625 75.984375 
L 54.390625 75.984375 
L 54.390625 0 
L 45.40625 0 
L 45.40625 8.203125 
Q 42.578125 3.328125 38.25 0.953125 
Q 33.9375 -1.421875 27.875 -1.421875 
Q 17.96875 -1.421875 11.734375 6.484375 
Q 5.515625 14.40625 5.515625 27.296875 
Q 5.515625 40.1875 11.734375 48.09375 
Q 17.96875 56 27.875 56 
Q 33.9375 56 38.25 53.625 
Q 42.578125 51.265625 45.40625 46.390625 
z
M 14.796875 27.296875 
Q 14.796875 17.390625 18.875 11.75 
Q 22.953125 6.109375 30.078125 6.109375 
Q 37.203125 6.109375 41.296875 11.75 
Q 45.40625 17.390625 45.40625 27.296875 
Q 45.40625 37.203125 41.296875 42.84375 
Q 37.203125 48.484375 30.078125 48.484375 
Q 22.953125 48.484375 18.875 42.84375 
Q 14.796875 37.203125 14.796875 27.296875 
z
" id="DejaVuSans-100"/>
     <path d="M 14.796875 27.296875 
Q 14.796875 17.390625 18.875 11.75 
Q 22.953125 6.109375 30.078125 6.109375 
Q 37.203125 6.109375 41.296875 11.75 
Q 45.40625 17.390625 45.40625 27.296875 
Q 45.40625 37.203125 41.296875 42.84375 
Q 37.203125 48.484375 30.078125 48.484375 
Q 22.953125 48.484375 18.875 42.84375 
Q 14.796875 37.203125 14.796875 27.296875 
z
M 45.40625 8.203125 
Q 42.578125 3.328125 38.25 0.953125 
Q 33.9375 -1.421875 27.875 -1.421875 
Q 17.96875 -1.421875 11.734375 6.484375 
Q 5.515625 14.40625 5.515625 27.296875 
Q 5.515625 40.1875 11.734375 48.09375 
Q 17.96875 56 27.875 56 
Q 33.9375 56 38.25 53.625 
Q 42.578125 51.265625 45.40625 46.390625 
L 45.40625 54.6875 
L 54.390625 54.6875 
L 54.390625 -20.796875 
L 45.40625 -20.796875 
z
" id="DejaVuSans-113"/>
     <path d="M 54.890625 33.015625 
L 54.890625 0 
L 45.90625 0 
L 45.90625 32.71875 
Q 45.90625 40.484375 42.875 44.328125 
Q 39.84375 48.1875 33.796875 48.1875 
Q 26.515625 48.1875 22.3125 43.546875 
Q 18.109375 38.921875 18.109375 30.90625 
L 18.109375 0 
L 9.078125 0 
L 9.078125 54.6875 
L 18.109375 54.6875 
L 18.109375 46.1875 
Q 21.34375 51.125 25.703125 53.5625 
Q 30.078125 56 35.796875 56 
Q 45.21875 56 50.046875 50.171875 
Q 54.890625 44.34375 54.890625 33.015625 
z
" id="DejaVuSans-110"/>
     <path d="M 11.71875 12.40625 
L 22.015625 12.40625 
L 22.015625 0 
L 11.71875 0 
z
M 11.71875 51.703125 
L 22.015625 51.703125 
L 22.015625 39.3125 
L 11.71875 39.3125 
z
" id="DejaVuSans-58"/>
     <path id="DejaVuSans-32"/>
     <path d="M 56.203125 29.59375 
L 56.203125 25.203125 
L 14.890625 25.203125 
Q 15.484375 15.921875 20.484375 11.0625 
Q 25.484375 6.203125 34.421875 6.203125 
Q 39.59375 6.203125 44.453125 7.46875 
Q 49.3125 8.734375 54.109375 11.28125 
L 54.109375 2.78125 
Q 49.265625 0.734375 44.1875 -0.34375 
Q 39.109375 -1.421875 33.890625 -1.421875 
Q 20.796875 -1.421875 13.15625 6.1875 
Q 5.515625 13.8125 5.515625 26.8125 
Q 5.515625 40.234375 12.765625 48.109375 
Q 20.015625 56 32.328125 56 
Q 43.359375 56 49.78125 48.890625 
Q 56.203125 41.796875 56.203125 29.59375 
z
M 47.21875 32.234375 
Q 47.125 39.59375 43.09375 43.984375 
Q 39.0625 48.390625 32.421875 48.390625 
Q 24.90625 48.390625 20.390625 44.140625 
Q 15.875 39.890625 15.1875 32.171875 
z
" id="DejaVuSans-101"/>
     <path d="M 18.109375 8.203125 
L 18.109375 -20.796875 
L 9.078125 -20.796875 
L 9.078125 54.6875 
L 18.109375 54.6875 
L 18.109375 46.390625 
Q 20.953125 51.265625 25.265625 53.625 
Q 29.59375 56 35.59375 56 
Q 45.5625 56 51.78125 48.09375 
Q 58.015625 40.1875 58.015625 27.296875 
Q 58.015625 14.40625 51.78125 6.484375 
Q 45.5625 -1.421875 35.59375 -1.421875 
Q 29.59375 -1.421875 25.265625 0.953125 
Q 20.953125 3.328125 18.109375 8.203125 
z
M 48.6875 27.296875 
Q 48.6875 37.203125 44.609375 42.84375 
Q 40.53125 48.484375 33.40625 48.484375 
Q 26.265625 48.484375 22.1875 42.84375 
Q 18.109375 37.203125 18.109375 27.296875 
Q 18.109375 17.390625 22.1875 11.75 
Q 26.265625 6.109375 33.40625 6.109375 
Q 40.53125 6.109375 44.609375 11.75 
Q 48.6875 17.390625 48.6875 27.296875 
z
" id="DejaVuSans-112"/>
     <path d="M 44.28125 53.078125 
L 44.28125 44.578125 
Q 40.484375 46.53125 36.375 47.5 
Q 32.28125 48.484375 27.875 48.484375 
Q 21.1875 48.484375 17.84375 46.4375 
Q 14.5 44.390625 14.5 40.28125 
Q 14.5 37.15625 16.890625 35.375 
Q 19.28125 33.59375 26.515625 31.984375 
L 29.59375 31.296875 
Q 39.15625 29.25 43.1875 25.515625 
Q 47.21875 21.78125 47.21875 15.09375 
Q 47.21875 7.46875 41.1875 3.015625 
Q 35.15625 -1.421875 24.609375 -1.421875 
Q 20.21875 -1.421875 15.453125 -0.5625 
Q 10.6875 0.296875 5.421875 2 
L 5.421875 11.28125 
Q 10.40625 8.6875 15.234375 7.390625 
Q 20.0625 6.109375 24.8125 6.109375 
Q 31.15625 6.109375 34.5625 8.28125 
Q 37.984375 10.453125 37.984375 14.40625 
Q 37.984375 18.0625 35.515625 20.015625 
Q 33.0625 21.96875 24.703125 23.78125 
L 21.578125 24.515625 
Q 13.234375 26.265625 9.515625 29.90625 
Q 5.8125 33.546875 5.8125 39.890625 
Q 5.8125 47.609375 11.28125 51.796875 
Q 16.75 56 26.8125 56 
Q 31.78125 56 36.171875 55.265625 
Q 40.578125 54.546875 44.28125 53.078125 
z
" id="DejaVuSans-115"/>
     <path d="M 30.609375 48.390625 
Q 23.390625 48.390625 19.1875 42.75 
Q 14.984375 37.109375 14.984375 27.296875 
Q 14.984375 17.484375 19.15625 11.84375 
Q 23.34375 6.203125 30.609375 6.203125 
Q 37.796875 6.203125 41.984375 11.859375 
Q 46.1875 17.53125 46.1875 27.296875 
Q 46.1875 37.015625 41.984375 42.703125 
Q 37.796875 48.390625 30.609375 48.390625 
z
M 30.609375 56 
Q 42.328125 56 49.015625 48.375 
Q 55.71875 40.765625 55.71875 27.296875 
Q 55.71875 13.875 49.015625 6.21875 
Q 42.328125 -1.421875 30.609375 -1.421875 
Q 18.84375 -1.421875 12.171875 6.21875 
Q 5.515625 13.875 5.515625 27.296875 
Q 5.515625 40.765625 12.171875 48.375 
Q 18.84375 56 30.609375 56 
z
" id="DejaVuSans-111"/>
     <path d="M 41.109375 46.296875 
Q 39.59375 47.171875 37.8125 47.578125 
Q 36.03125 48 33.890625 48 
Q 26.265625 48 22.1875 43.046875 
Q 18.109375 38.09375 18.109375 28.8125 
L 18.109375 0 
L 9.078125 0 
L 9.078125 54.6875 
L 18.109375 54.6875 
L 18.109375 46.1875 
Q 20.953125 51.171875 25.484375 53.578125 
Q 30.03125 56 36.53125 56 
Q 37.453125 56 38.578125 55.875 
Q 39.703125 55.765625 41.0625 55.515625 
z
" id="DejaVuSans-114"/>
     <path d="M 45.40625 27.984375 
Q 45.40625 37.75 41.375 43.109375 
Q 37.359375 48.484375 30.078125 48.484375 
Q 22.859375 48.484375 18.828125 43.109375 
Q 14.796875 37.75 14.796875 27.984375 
Q 14.796875 18.265625 18.828125 12.890625 
Q 22.859375 7.515625 30.078125 7.515625 
Q 37.359375 7.515625 41.375 12.890625 
Q 45.40625 18.265625 45.40625 27.984375 
z
M 54.390625 6.78125 
Q 54.390625 -7.171875 48.1875 -13.984375 
Q 42 -20.796875 29.203125 -20.796875 
Q 24.46875 -20.796875 20.265625 -20.09375 
Q 16.0625 -19.390625 12.109375 -17.921875 
L 12.109375 -9.1875 
Q 16.0625 -11.328125 19.921875 -12.34375 
Q 23.78125 -13.375 27.78125 -13.375 
Q 36.625 -13.375 41.015625 -8.765625 
Q 45.40625 -4.15625 45.40625 5.171875 
L 45.40625 9.625 
Q 42.625 4.78125 38.28125 2.390625 
Q 33.9375 0 27.875 0 
Q 17.828125 0 11.671875 7.65625 
Q 5.515625 15.328125 5.515625 27.984375 
Q 5.515625 40.671875 11.671875 48.328125 
Q 17.828125 56 27.875 56 
Q 33.9375 56 38.28125 53.609375 
Q 42.625 51.21875 45.40625 46.390625 
L 45.40625 54.6875 
L 54.390625 54.6875 
z
" id="DejaVuSans-103"/>
     <path d="M 4.890625 31.390625 
L 31.203125 31.390625 
L 31.203125 23.390625 
L 4.890625 23.390625 
z
" id="DejaVuSans-45"/>
     <path d="M 17.921875 79.984375 
L 31.6875 61.71875 
L 24.21875 61.71875 
L 8.296875 79.984375 
z
" id="DejaVuSans-96"/>
     <path d="M 11.71875 12.40625 
L 22.015625 12.40625 
L 22.015625 4 
L 14.015625 -11.625 
L 7.71875 -11.625 
L 11.71875 4 
z
" id="DejaVuSans-44"/>
     <path d="M 9.8125 72.90625 
L 24.515625 72.90625 
L 43.109375 23.296875 
L 61.8125 72.90625 
L 76.515625 72.90625 
L 76.515625 0 
L 66.890625 0 
L 66.890625 64.015625 
L 48.09375 14.015625 
L 38.1875 14.015625 
L 19.390625 64.015625 
L 19.390625 0 
L 9.8125 0 
z
" id="DejaVuSans-77"/>
     <path d="M 34.1875 63.1875 
L 20.796875 26.90625 
L 47.609375 26.90625 
z
M 28.609375 72.90625 
L 39.796875 72.90625 
L 67.578125 0 
L 57.328125 0 
L 50.6875 18.703125 
L 17.828125 18.703125 
L 11.1875 0 
L 0.78125 0 
z
" id="DejaVuSans-65"/>
     <path d="M 10.59375 45.40625 
L 73.1875 45.40625 
L 73.1875 37.203125 
L 10.59375 37.203125 
z
M 10.59375 25.484375 
L 73.1875 25.484375 
L 73.1875 17.1875 
L 10.59375 17.1875 
z
" id="DejaVuSans-61"/>
    </defs>
    <g transform="translate(132.004687 20.52)scale(0.12 -0.12)">
     <use xlink:href="#DejaVuSans-109"/>
     <use x="97.412109" xlink:href="#DejaVuSans-117"/>
     <use x="160.791016" xlink:href="#DejaVuSans-108"/>
     <use x="188.574219" xlink:href="#DejaVuSans-116"/>
     <use x="227.783203" xlink:href="#DejaVuSans-105"/>
     <use x="255.566406" xlink:href="#DejaVuSans-95"/>
     <use x="305.566406" xlink:href="#DejaVuSans-119"/>
     <use x="387.353516" xlink:href="#DejaVuSans-97"/>
     <use x="448.632812" xlink:href="#DejaVuSans-121"/>
     <use x="507.8125" xlink:href="#DejaVuSans-95"/>
     <use x="557.8125" xlink:href="#DejaVuSans-118"/>
     <use x="616.992188" xlink:href="#DejaVuSans-48"/>
     <use x="680.615234" xlink:href="#DejaVuSans-95"/>
     <use x="730.615234" xlink:href="#DejaVuSans-95"/>
     <use x="780.615234" xlink:href="#DejaVuSans-100"/>
     <use x="844.091797" xlink:href="#DejaVuSans-113"/>
     <use x="907.568359" xlink:href="#DejaVuSans-110"/>
     <use x="970.947266" xlink:href="#DejaVuSans-58"/>
     <use x="1004.638672" xlink:href="#DejaVuSans-32"/>
     <use x="1036.425781" xlink:href="#DejaVuSans-101"/>
     <use x="1097.949219" xlink:href="#DejaVuSans-112"/>
     <use x="1161.425781" xlink:href="#DejaVuSans-105"/>
     <use x="1189.208984" xlink:href="#DejaVuSans-115"/>
     <use x="1241.308594" xlink:href="#DejaVuSans-111"/>
     <use x="1302.490234" xlink:href="#DejaVuSans-100"/>
     <use x="1365.966797" xlink:href="#DejaVuSans-101"/>
     <use x="1427.490234" xlink:href="#DejaVuSans-32"/>
     <use x="1459.277344" xlink:href="#DejaVuSans-100"/>
     <use x="1522.753906" xlink:href="#DejaVuSans-117"/>
     <use x="1586.132812" xlink:href="#DejaVuSans-114"/>
     <use x="1627.246094" xlink:href="#DejaVuSans-97"/>
     <use x="1688.525391" xlink:href="#DejaVuSans-116"/>
     <use x="1727.734375" xlink:href="#DejaVuSans-105"/>
     <use x="1755.517578" xlink:href="#DejaVuSans-111"/>
     <use x="1816.699219" xlink:href="#DejaVuSans-110"/>
     <use x="1880.078125" xlink:href="#DejaVuSans-32"/>
     <use x="1911.865234" xlink:href="#DejaVuSans-105"/>
     <use x="1939.648438" xlink:href="#DejaVuSans-110"/>
     <use x="2003.027344" xlink:href="#DejaVuSans-32"/>
     <use x="2034.814453" xlink:href="#DejaVuSans-115"/>
     <use x="2086.914062" xlink:href="#DejaVuSans-116"/>
     <use x="2126.123047" xlink:href="#DejaVuSans-101"/>
     <use x="2187.646484" xlink:href="#DejaVuSans-112"/>
     <use x="2251.123047" xlink:href="#DejaVuSans-115"/>
     <use x="2303.222656" xlink:href="#DejaVuSans-32"/>
     <use x="2335.009766" xlink:href="#DejaVuSans-108"/>
     <use x="2362.792969" xlink:href="#DejaVuSans-111"/>
     <use x="2423.974609" xlink:href="#DejaVuSans-103"/>
     <use x="2487.451172" xlink:href="#DejaVuSans-45"/>
     <use x="2523.535156" xlink:href="#DejaVuSans-114"/>
     <use x="2564.617188" xlink:href="#DejaVuSans-101"/>
     <use x="2626.140625" xlink:href="#DejaVuSans-108"/>
     <use x="2653.923828" xlink:href="#DejaVuSans-97"/>
     <use x="2715.203125" xlink:href="#DejaVuSans-116"/>
     <use x="2754.412109" xlink:href="#DejaVuSans-105"/>
     <use x="2782.195312" xlink:href="#DejaVuSans-118"/>
     <use x="2841.375" xlink:href="#DejaVuSans-101"/>
     <use x="2902.898438" xlink:href="#DejaVuSans-32"/>
     <use x="2934.685547" xlink:href="#DejaVuSans-116"/>
     <use x="2973.894531" xlink:href="#DejaVuSans-111"/>
     <use x="3035.076172" xlink:href="#DejaVuSans-32"/>
     <use x="3066.863281" xlink:href="#DejaVuSans-96"/>
     <use x="3116.863281" xlink:href="#DejaVuSans-100"/>
     <use x="3180.339844" xlink:href="#DejaVuSans-113"/>
     <use x="3243.816406" xlink:href="#DejaVuSans-110"/>
     <use x="3307.195312" xlink:href="#DejaVuSans-95"/>
     <use x="3357.195312" xlink:href="#DejaVuSans-103"/>
     <use x="3420.671875" xlink:href="#DejaVuSans-114"/>
     <use x="3461.753906" xlink:href="#DejaVuSans-101"/>
     <use x="3523.277344" xlink:href="#DejaVuSans-101"/>
     <use x="3584.800781" xlink:href="#DejaVuSans-100"/>
     <use x="3648.277344" xlink:href="#DejaVuSans-121"/>
     <use x="3707.457031" xlink:href="#DejaVuSans-96"/>
     <use x="3757.457031" xlink:href="#DejaVuSans-44"/>
     <use x="3789.244141" xlink:href="#DejaVuSans-32"/>
     <use x="3821.03125" xlink:href="#DejaVuSans-77"/>
     <use x="3907.310547" xlink:href="#DejaVuSans-65"/>
     <use x="3975.71875" xlink:href="#DejaVuSans-61"/>
     <use x="4059.507812" xlink:href="#DejaVuSans-50"/>
     <use x="4123.130859" xlink:href="#DejaVuSans-48"/>
    </g>
   </g>
   <g id="legend_1">
    <g id="patch_7">
     <path d="M 762.642937 239.254375 
L 853.707 239.254375 
Q 855.707 239.254375 855.707 237.254375 
L 855.707 193.385625 
Q 855.707 191.385625 853.707 191.385625 
L 762.642937 191.385625 
Q 760.642937 191.385625 760.642937 193.385625 
L 760.642937 237.254375 
Q 760.642937 239.254375 762.642937 239.254375 
z
" style="fill:#ffffff;opacity:0.8;stroke:#cccccc;stroke-linejoin:miter;"/>
    </g>
    <g id="line2d_20">
     <path d="M 764.642937 199.484062 
L 784.642937 199.484062 
" style="fill:none;stroke:#1f77b4;stroke-linecap:square;stroke-width:1.5;"/>
    </g>
    <g id="line2d_21"/>
    <g id="text_18">
     <!-- dqn_greedy -->
     <g transform="translate(792.642937 202.984062)scale(0.1 -0.1)">
      <use xlink:href="#DejaVuSans-100"/>
      <use x="63.476562" xlink:href="#DejaVuSans-113"/>
      <use x="126.953125" xlink:href="#DejaVuSans-110"/>
      <use x="190.332031" xlink:href="#DejaVuSans-95"/>
      <use x="240.332031" xlink:href="#DejaVuSans-103"/>
      <use x="303.808594" xlink:href="#DejaVuSans-114"/>
      <use x="344.890625" xlink:href="#DejaVuSans-101"/>
      <use x="406.414062" xlink:href="#DejaVuSans-101"/>
      <use x="467.9375" xlink:href="#DejaVuSans-100"/>
      <use x="531.414062" xlink:href="#DejaVuSans-121"/>
     </g>
    </g>
    <g id="line2d_22">
     <path d="M 764.642937 214.440313 
L 784.642937 214.440313 
" style="fill:none;stroke:#ff7f0e;stroke-linecap:square;stroke-width:1.5;"/>
    </g>
    <g id="line2d_23"/>
    <g id="text_19">
     <!-- dqn_eps -->
     <g transform="translate(792.642937 217.940313)scale(0.1 -0.1)">
      <use xlink:href="#DejaVuSans-100"/>
      <use x="63.476562" xlink:href="#DejaVuSans-113"/>
      <use x="126.953125" xlink:href="#DejaVuSans-110"/>
      <use x="190.332031" xlink:href="#DejaVuSans-95"/>
      <use x="240.332031" xlink:href="#DejaVuSans-101"/>
      <use x="301.855469" xlink:href="#DejaVuSans-112"/>
      <use x="365.332031" xlink:href="#DejaVuSans-115"/>
     </g>
    </g>
    <g id="line2d_24">
     <path d="M 764.642937 229.396562 
L 784.642937 229.396562 
" style="fill:none;stroke:#2ca02c;stroke-linecap:square;stroke-width:1.5;"/>
    </g>
    <g id="line2d_25"/>
    <g id="text_20">
     <!-- htm_4_1g -->
     <defs>
      <path d="M 54.890625 33.015625 
L 54.890625 0 
L 45.90625 0 
L 45.90625 32.71875 
Q 45.90625 40.484375 42.875 44.328125 
Q 39.84375 48.1875 33.796875 48.1875 
Q 26.515625 48.1875 22.3125 43.546875 
Q 18.109375 38.921875 18.109375 30.90625 
L 18.109375 0 
L 9.078125 0 
L 9.078125 75.984375 
L 18.109375 75.984375 
L 18.109375 46.1875 
Q 21.34375 51.125 25.703125 53.5625 
Q 30.078125 56 35.796875 56 
Q 45.21875 56 50.046875 50.171875 
Q 54.890625 44.34375 54.890625 33.015625 
z
" id="DejaVuSans-104"/>
      <path d="M 37.796875 64.3125 
L 12.890625 25.390625 
L 37.796875 25.390625 
z
M 35.203125 72.90625 
L 47.609375 72.90625 
L 47.609375 25.390625 
L 58.015625 25.390625 
L 58.015625 17.1875 
L 47.609375 17.1875 
L 47.609375 0 
L 37.796875 0 
L 37.796875 17.1875 
L 4.890625 17.1875 
L 4.890625 26.703125 
z
" id="DejaVuSans-52"/>
     </defs>
     <g transform="translate(792.642937 232.896562)scale(0.1 -0.1)">
      <use xlink:href="#DejaVuSans-104"/>
      <use x="63.378906" xlink:href="#DejaVuSans-116"/>
      <use x="102.587891" xlink:href="#DejaVuSans-109"/>
      <use x="200" xlink:href="#DejaVuSans-95"/>
      <use x="250" xlink:href="#DejaVuSans-52"/>
      <use x="313.623047" xlink:href="#DejaVuSans-95"/>
      <use x="363.623047" xlink:href="#DejaVuSans-49"/>
      <use x="427.246094" xlink:href="#DejaVuSans-103"/>
     </g>
    </g>
   </g>
  </g>
 </g>
 <defs>
  <clipPath id="pfe13625c4f">
   <rect height="377.6" width="682.135" x="42.145" y="26.52"/>
  </clipPath>
 </defs>
</svg>
