<?xml version="1.0" encoding="utf-8" standalone="no"?>
<!DOCTYPE svg PUBLIC "-//W3C//DTD SVG 1.1//EN"
  "http://www.w3.org/Graphics/SVG/1.1/DTD/svg11.dtd">
<!-- Created with matplotlib (https://matplotlib.org/) -->
<svg height="432pt" version="1.1" viewBox="0 0 864 432" width="864pt" xmlns="http://www.w3.org/2000/svg" xmlns:xlink="http://www.w3.org/1999/xlink">
 <defs>
  <style type="text/css">
*{stroke-linecap:butt;stroke-linejoin:round;}
  </style>
 </defs>
 <g id="figure_1">
  <g id="patch_1">
   <path d="M 0 432 
L 864 432 
L 864 0 
L 0 0 
z
" style="fill:#ffffff;"/>
  </g>
  <g id="axes_1">
   <g id="patch_2">
    <path d="M 36.97 404.12 
L 724.28 404.12 
L 724.28 26.16 
L 36.97 26.16 
z
" style="fill:#ffffff;"/>
   </g>
   <g id="matplotlib.axis_1">
    <g id="xtick_1">
     <g id="line2d_1">
      <defs>
       <path d="M 0 0 
L 0 3.5 
" id="m9bcfeeb149" style="stroke:#000000;stroke-width:0.8;"/>
      </defs>
      <g>
       <use style="stroke:#000000;stroke-width:0.8;" x="36.97" xlink:href="#m9bcfeeb149" y="404.12"/>
      </g>
     </g>
     <g id="text_1">
      <!-- 0 -->
      <defs>
       <path d="M 31.78125 66.40625 
Q 24.171875 66.40625 20.328125 58.90625 
Q 16.5 51.421875 16.5 36.375 
Q 16.5 21.390625 20.328125 13.890625 
Q 24.171875 6.390625 31.78125 6.390625 
Q 39.453125 6.390625 43.28125 13.890625 
Q 47.125 21.390625 47.125 36.375 
Q 47.125 51.421875 43.28125 58.90625 
Q 39.453125 66.40625 31.78125 66.40625 
z
M 31.78125 74.21875 
Q 44.046875 74.21875 50.515625 64.515625 
Q 56.984375 54.828125 56.984375 36.375 
Q 56.984375 17.96875 50.515625 8.265625 
Q 44.046875 -1.421875 31.78125 -1.421875 
Q 19.53125 -1.421875 13.0625 8.265625 
Q 6.59375 17.96875 6.59375 36.375 
Q 6.59375 54.828125 13.0625 64.515625 
Q 19.53125 74.21875 31.78125 74.21875 
z
" id="DejaVuSans-48"/>
      </defs>
      <g transform="translate(33.78875 418.718437)scale(0.1 -0.1)">
       <use xlink:href="#DejaVuSans-48"/>
      </g>
     </g>
    </g>
    <g id="xtick_2">
     <g id="line2d_2">
      <g>
       <use style="stroke:#000000;stroke-width:0.8;" x="151.712905" xlink:href="#m9bcfeeb149" y="404.12"/>
      </g>
     </g>
     <g id="text_2">
      <!-- 100 -->
      <defs>
       <path d="M 12.40625 8.296875 
L 28.515625 8.296875 
L 28.515625 63.921875 
L 10.984375 60.40625 
L 10.984375 69.390625 
L 28.421875 72.90625 
L 38.28125 72.90625 
L 38.28125 8.296875 
L 54.390625 8.296875 
L 54.390625 0 
L 12.40625 0 
z
" id="DejaVuSans-49"/>
      </defs>
      <g transform="translate(142.169155 418.718437)scale(0.1 -0.1)">
       <use xlink:href="#DejaVuSans-49"/>
       <use x="63.623047" xlink:href="#DejaVuSans-48"/>
       <use x="127.246094" xlink:href="#DejaVuSans-48"/>
      </g>
     </g>
    </g>
    <g id="xtick_3">
     <g id="line2d_3">
      <g>
       <use style="stroke:#000000;stroke-width:0.8;" x="266.45581" xlink:href="#m9bcfeeb149" y="404.12"/>
      </g>
     </g>
     <g id="text_3">
      <!-- 200 -->
      <defs>
       <path d="M 19.1875 8.296875 
L 53.609375 8.296875 
L 53.609375 0 
L 7.328125 0 
L 7.328125 8.296875 
Q 12.9375 14.109375 22.625 23.890625 
Q 32.328125 33.6875 34.8125 36.53125 
Q 39.546875 41.84375 41.421875 45.53125 
Q 43.3125 49.21875 43.3125 52.78125 
Q 43.3125 58.59375 39.234375 62.25 
Q 35.15625 65.921875 28.609375 65.921875 
Q 23.96875 65.921875 18.8125 64.3125 
Q 13.671875 62.703125 7.8125 59.421875 
L 7.8125 69.390625 
Q 13.765625 71.78125 18.9375 73 
Q 24.125 74.21875 28.421875 74.21875 
Q 39.75 74.21875 46.484375 68.546875 
Q 53.21875 62.890625 53.21875 53.421875 
Q 53.21875 48.921875 51.53125 44.890625 
Q 49.859375 40.875 45.40625 35.40625 
Q 44.1875 33.984375 37.640625 27.21875 
Q 31.109375 20.453125 19.1875 8.296875 
z
" id="DejaVuSans-50"/>
      </defs>
      <g transform="translate(256.91206 418.718437)scale(0.1 -0.1)">
       <use xlink:href="#DejaVuSans-50"/>
       <use x="63.623047" xlink:href="#DejaVuSans-48"/>
       <use x="127.246094" xlink:href="#DejaVuSans-48"/>
      </g>
     </g>
    </g>
    <g id="xtick_4">
     <g id="line2d_4">
      <g>
       <use style="stroke:#000000;stroke-width:0.8;" x="381.198715" xlink:href="#m9bcfeeb149" y="404.12"/>
      </g>
     </g>
     <g id="text_4">
      <!-- 300 -->
      <defs>
       <path d="M 40.578125 39.3125 
Q 47.65625 37.796875 51.625 33 
Q 55.609375 28.21875 55.609375 21.1875 
Q 55.609375 10.40625 48.1875 4.484375 
Q 40.765625 -1.421875 27.09375 -1.421875 
Q 22.515625 -1.421875 17.65625 -0.515625 
Q 12.796875 0.390625 7.625 2.203125 
L 7.625 11.71875 
Q 11.71875 9.328125 16.59375 8.109375 
Q 21.484375 6.890625 26.8125 6.890625 
Q 36.078125 6.890625 40.9375 10.546875 
Q 45.796875 14.203125 45.796875 21.1875 
Q 45.796875 27.640625 41.28125 31.265625 
Q 36.765625 34.90625 28.71875 34.90625 
L 20.21875 34.90625 
L 20.21875 43.015625 
L 29.109375 43.015625 
Q 36.375 43.015625 40.234375 45.921875 
Q 44.09375 48.828125 44.09375 54.296875 
Q 44.09375 59.90625 40.109375 62.90625 
Q 36.140625 65.921875 28.71875 65.921875 
Q 24.65625 65.921875 20.015625 65.03125 
Q 15.375 64.15625 9.8125 62.3125 
L 9.8125 71.09375 
Q 15.4375 72.65625 20.34375 73.4375 
Q 25.25 74.21875 29.59375 74.21875 
Q 40.828125 74.21875 47.359375 69.109375 
Q 53.90625 64.015625 53.90625 55.328125 
Q 53.90625 49.265625 50.4375 45.09375 
Q 46.96875 40.921875 40.578125 39.3125 
z
" id="DejaVuSans-51"/>
      </defs>
      <g transform="translate(371.654965 418.718437)scale(0.1 -0.1)">
       <use xlink:href="#DejaVuSans-51"/>
       <use x="63.623047" xlink:href="#DejaVuSans-48"/>
       <use x="127.246094" xlink:href="#DejaVuSans-48"/>
      </g>
     </g>
    </g>
    <g id="xtick_5">
     <g id="line2d_5">
      <g>
       <use style="stroke:#000000;stroke-width:0.8;" x="495.941619" xlink:href="#m9bcfeeb149" y="404.12"/>
      </g>
     </g>
     <g id="text_5">
      <!-- 400 -->
      <defs>
       <path d="M 37.796875 64.3125 
L 12.890625 25.390625 
L 37.796875 25.390625 
z
M 35.203125 72.90625 
L 47.609375 72.90625 
L 47.609375 25.390625 
L 58.015625 25.390625 
L 58.015625 17.1875 
L 47.609375 17.1875 
L 47.609375 0 
L 37.796875 0 
L 37.796875 17.1875 
L 4.890625 17.1875 
L 4.890625 26.703125 
z
" id="DejaVuSans-52"/>
      </defs>
      <g transform="translate(486.397869 418.718437)scale(0.1 -0.1)">
       <use xlink:href="#DejaVuSans-52"/>
       <use x="63.623047" xlink:href="#DejaVuSans-48"/>
       <use x="127.246094" xlink:href="#DejaVuSans-48"/>
      </g>
     </g>
    </g>
    <g id="xtick_6">
     <g id="line2d_6">
      <g>
       <use style="stroke:#000000;stroke-width:0.8;" x="610.684524" xlink:href="#m9bcfeeb149" y="404.12"/>
      </g>
     </g>
     <g id="text_6">
      <!-- 500 -->
      <defs>
       <path d="M 10.796875 72.90625 
L 49.515625 72.90625 
L 49.515625 64.59375 
L 19.828125 64.59375 
L 19.828125 46.734375 
Q 21.96875 47.46875 24.109375 47.828125 
Q 26.265625 48.1875 28.421875 48.1875 
Q 40.625 48.1875 47.75 41.5 
Q 54.890625 34.8125 54.890625 23.390625 
Q 54.890625 11.625 47.5625 5.09375 
Q 40.234375 -1.421875 26.90625 -1.421875 
Q 22.3125 -1.421875 17.546875 -0.640625 
Q 12.796875 0.140625 7.71875 1.703125 
L 7.71875 11.625 
Q 12.109375 9.234375 16.796875 8.0625 
Q 21.484375 6.890625 26.703125 6.890625 
Q 35.15625 6.890625 40.078125 11.328125 
Q 45.015625 15.765625 45.015625 23.390625 
Q 45.015625 31 40.078125 35.4375 
Q 35.15625 39.890625 26.703125 39.890625 
Q 22.75 39.890625 18.8125 39.015625 
Q 14.890625 38.140625 10.796875 36.28125 
z
" id="DejaVuSans-53"/>
      </defs>
      <g transform="translate(601.140774 418.718437)scale(0.1 -0.1)">
       <use xlink:href="#DejaVuSans-53"/>
       <use x="63.623047" xlink:href="#DejaVuSans-48"/>
       <use x="127.246094" xlink:href="#DejaVuSans-48"/>
      </g>
     </g>
    </g>
   </g>
   <g id="matplotlib.axis_2">
    <g id="ytick_1">
     <g id="line2d_7">
      <defs>
       <path d="M 0 0 
L -3.5 0 
" id="m5839f09a50" style="stroke:#000000;stroke-width:0.8;"/>
      </defs>
      <g>
       <use style="stroke:#000000;stroke-width:0.8;" x="36.97" xlink:href="#m5839f09a50" y="388.666633"/>
      </g>
     </g>
     <g id="text_7">
      <!-- 0 -->
      <g transform="translate(23.6075 392.465852)scale(0.1 -0.1)">
       <use xlink:href="#DejaVuSans-48"/>
      </g>
     </g>
    </g>
    <g id="ytick_2">
     <g id="line2d_8">
      <g>
       <use style="stroke:#000000;stroke-width:0.8;" x="36.97" xlink:href="#m5839f09a50" y="345.500804"/>
      </g>
     </g>
     <g id="text_8">
      <!-- 50 -->
      <g transform="translate(17.245 349.300023)scale(0.1 -0.1)">
       <use xlink:href="#DejaVuSans-53"/>
       <use x="63.623047" xlink:href="#DejaVuSans-48"/>
      </g>
     </g>
    </g>
    <g id="ytick_3">
     <g id="line2d_9">
      <g>
       <use style="stroke:#000000;stroke-width:0.8;" x="36.97" xlink:href="#m5839f09a50" y="302.334975"/>
      </g>
     </g>
     <g id="text_9">
      <!-- 100 -->
      <g transform="translate(10.8825 306.134194)scale(0.1 -0.1)">
       <use xlink:href="#DejaVuSans-49"/>
       <use x="63.623047" xlink:href="#DejaVuSans-48"/>
       <use x="127.246094" xlink:href="#DejaVuSans-48"/>
      </g>
     </g>
    </g>
    <g id="ytick_4">
     <g id="line2d_10">
      <g>
       <use style="stroke:#000000;stroke-width:0.8;" x="36.97" xlink:href="#m5839f09a50" y="259.169146"/>
      </g>
     </g>
     <g id="text_10">
      <!-- 150 -->
      <g transform="translate(10.8825 262.968364)scale(0.1 -0.1)">
       <use xlink:href="#DejaVuSans-49"/>
       <use x="63.623047" xlink:href="#DejaVuSans-53"/>
       <use x="127.246094" xlink:href="#DejaVuSans-48"/>
      </g>
     </g>
    </g>
    <g id="ytick_5">
     <g id="line2d_11">
      <g>
       <use style="stroke:#000000;stroke-width:0.8;" x="36.97" xlink:href="#m5839f09a50" y="216.003317"/>
      </g>
     </g>
     <g id="text_11">
      <!-- 200 -->
      <g transform="translate(10.8825 219.802535)scale(0.1 -0.1)">
       <use xlink:href="#DejaVuSans-50"/>
       <use x="63.623047" xlink:href="#DejaVuSans-48"/>
       <use x="127.246094" xlink:href="#DejaVuSans-48"/>
      </g>
     </g>
    </g>
    <g id="ytick_6">
     <g id="line2d_12">
      <g>
       <use style="stroke:#000000;stroke-width:0.8;" x="36.97" xlink:href="#m5839f09a50" y="172.837487"/>
      </g>
     </g>
     <g id="text_12">
      <!-- 250 -->
      <g transform="translate(10.8825 176.636706)scale(0.1 -0.1)">
       <use xlink:href="#DejaVuSans-50"/>
       <use x="63.623047" xlink:href="#DejaVuSans-53"/>
       <use x="127.246094" xlink:href="#DejaVuSans-48"/>
      </g>
     </g>
    </g>
    <g id="ytick_7">
     <g id="line2d_13">
      <g>
       <use style="stroke:#000000;stroke-width:0.8;" x="36.97" xlink:href="#m5839f09a50" y="129.671658"/>
      </g>
     </g>
     <g id="text_13">
      <!-- 300 -->
      <g transform="translate(10.8825 133.470877)scale(0.1 -0.1)">
       <use xlink:href="#DejaVuSans-51"/>
       <use x="63.623047" xlink:href="#DejaVuSans-48"/>
       <use x="127.246094" xlink:href="#DejaVuSans-48"/>
      </g>
     </g>
    </g>
    <g id="ytick_8">
     <g id="line2d_14">
      <g>
       <use style="stroke:#000000;stroke-width:0.8;" x="36.97" xlink:href="#m5839f09a50" y="86.505829"/>
      </g>
     </g>
     <g id="text_14">
      <!-- 350 -->
      <g transform="translate(10.8825 90.305048)scale(0.1 -0.1)">
       <use xlink:href="#DejaVuSans-51"/>
       <use x="63.623047" xlink:href="#DejaVuSans-53"/>
       <use x="127.246094" xlink:href="#DejaVuSans-48"/>
      </g>
     </g>
    </g>
    <g id="ytick_9">
     <g id="line2d_15">
      <g>
       <use style="stroke:#000000;stroke-width:0.8;" x="36.97" xlink:href="#m5839f09a50" y="43.34"/>
      </g>
     </g>
     <g id="text_15">
      <!-- 400 -->
      <g transform="translate(10.8825 47.139219)scale(0.1 -0.1)">
       <use xlink:href="#DejaVuSans-52"/>
       <use x="63.623047" xlink:href="#DejaVuSans-48"/>
       <use x="127.246094" xlink:href="#DejaVuSans-48"/>
      </g>
     </g>
    </g>
   </g>
   <g id="line2d_16">
    <path clip-path="url(#p250325c257)" d="M 58.771152 43.34 
L 65.655726 43.34 
L 66.803155 60.261005 
L 67.950584 60.261005 
L 70.245442 94.103015 
L 71.392871 94.103015 
L 77.130017 178.70804 
L 78.277446 178.70804 
L 81.719733 229.471055 
L 82.867162 229.471055 
L 88.604307 314.07608 
L 89.751736 314.07608 
L 90.899165 330.997085 
L 93.194023 330.997085 
L 94.341452 347.91809 
L 100.078598 347.91809 
L 101.226027 364.839095 
L 104.668314 364.839095 
L 105.815743 381.760101 
L 150.565476 381.760101 
L 166.629482 144.86603 
L 167.776912 144.995528 
L 168.924341 128.074523 
L 170.07177 128.20402 
L 172.366628 94.36201 
L 173.514057 94.491508 
L 189.578063 333.630201 
L 190.725492 333.716533 
L 191.872922 350.853367 
L 193.020351 350.939698 
L 195.315209 385.213367 
L 199.904925 385.472362 
L 202.199783 385.558693 
L 204.494641 385.645025 
L 207.936928 385.731357 
L 213.674073 386.076683 
L 265.308381 386.076683 
L 266.45581 368.939849 
L 288.256962 368.939849 
L 289.404391 386.076683 
L 314.64783 386.076683 
L 321.532404 283.255678 
L 337.596411 283.255678 
L 344.480985 386.076683 
L 360.544992 386.076683 
L 361.692421 368.939849 
L 380.051285 368.939849 
L 383.493573 317.529347 
L 384.641002 317.529347 
L 385.788431 300.392513 
L 402.999866 299.745025 
L 408.737012 385.213367 
L 451.191886 385.213367 
L 452.339316 368.119698 
L 474.140467 368.119698 
L 475.287896 385.213367 
L 494.79419 385.213367 
L 503.973623 248.46402 
L 517.742771 249.5 
L 526.922204 386.94 
L 609.537095 386.94 
L 632.485676 43.34 
L 724.28 43.34 
L 724.28 43.34 
" style="fill:none;stroke:#1f77b4;stroke-linecap:square;stroke-width:1.5;"/>
   </g>
   <g id="line2d_17">
    <path clip-path="url(#p250325c257)" d="M 58.771152 48.476734 
L 59.918581 46.188945 
L 61.06601 46.188945 
L 62.213439 59.311357 
L 65.655726 59.311357 
L 66.803155 62.117136 
L 67.950584 79.038141 
L 69.098013 90.822412 
L 73.68773 157.125126 
L 74.835159 169.297889 
L 79.424875 236.334422 
L 80.572304 248.377688 
L 84.014591 298.234221 
L 85.16202 300.090352 
L 88.604307 350.767035 
L 89.751736 364.79593 
L 90.899165 364.666432 
L 92.046594 369.630503 
L 94.341452 369.630503 
L 95.488881 370.407487 
L 96.636311 370.234824 
L 97.78374 374.983065 
L 98.931169 374.810402 
L 101.226027 374.896734 
L 102.373456 375.285226 
L 103.520885 377.31402 
L 105.815743 377.357186 
L 106.963172 378.177337 
L 108.110601 379.990302 
L 109.25803 379.860804 
L 110.405459 377.011859 
L 111.552888 376.882362 
L 112.700317 376.882362 
L 114.995175 377.098191 
L 116.142604 376.752864 
L 117.290033 377.098191 
L 121.87975 377.529849 
L 124.174608 377.486683 
L 125.322037 375.155729 
L 127.616895 374.853568 
L 128.764324 374.810402 
L 129.911753 374.20608 
L 132.206611 374.42191 
L 133.35404 377.184523 
L 135.648898 377.443518 
L 136.796327 376.925528 
L 137.943756 377.011859 
L 139.091185 377.357186 
L 140.238614 377.443518 
L 143.680902 377.227688 
L 145.97576 377.31402 
L 147.123189 377.227688 
L 148.270618 379.601809 
L 150.565476 379.860804 
L 159.744908 245.87407 
L 160.892337 233.269648 
L 165.482053 165.844623 
L 166.629482 162.132362 
L 167.776912 156.304975 
L 168.924341 156.477638 
L 170.07177 150.089095 
L 173.514057 150.607085 
L 182.693489 286.96794 
L 183.840918 299.788191 
L 188.430634 367.601709 
L 189.578063 371.486633 
L 190.725492 377.443518 
L 191.872922 377.529849 
L 193.020351 384.220553 
L 196.462638 384.436382 
L 197.610067 384.263719 
L 202.199783 384.306884 
L 205.64207 384.565879 
L 207.936928 384.522714 
L 209.084357 384.954372 
L 213.674073 385.256533 
L 219.411219 385.342864 
L 220.558648 385.731357 
L 222.853506 385.947186 
L 227.443222 385.90402 
L 228.590651 385.688191 
L 233.180367 385.774523 
L 238.917513 385.688191 
L 242.3598 385.645025 
L 243.507229 385.083869 
L 246.949516 385.040704 
L 249.244374 385.083869 
L 250.391803 384.997538 
L 251.539232 385.213367 
L 254.981519 385.170201 
L 265.308381 385.127035 
L 266.45581 368.551357 
L 267.603239 354.695126 
L 269.898097 354.695126 
L 271.045526 354.004472 
L 273.340384 354.090804 
L 274.487813 352.968492 
L 277.9301 353.011658 
L 279.077529 351.285025 
L 288.256962 351.285025 
L 289.404391 367.385879 
L 290.55182 381.198945 
L 292.846678 381.112613 
L 293.994107 381.673769 
L 296.288965 381.673769 
L 297.436394 382.623417 
L 300.878681 382.580251 
L 302.02611 384.263719 
L 304.320968 384.177387 
L 306.615826 384.263719 
L 311.205543 384.35005 
L 312.352972 385.38603 
L 314.64783 385.38603 
L 315.795259 381.846432 
L 321.532404 296.464422 
L 322.679833 282.262864 
L 327.269549 282.435528 
L 328.416978 281.831206 
L 331.859265 281.831206 
L 333.006694 279.759246 
L 335.301553 279.802412 
L 336.448982 279.241256 
L 337.596411 279.327588 
L 338.74384 282.867186 
L 344.480985 368.249196 
L 345.628414 382.364422 
L 346.775843 382.191759 
L 350.21813 382.191759 
L 351.365559 382.709749 
L 354.807846 382.666583 
L 355.955275 384.738543 
L 358.250134 384.652211 
L 359.397563 385.299698 
L 360.544992 385.299698 
L 361.692421 385.083869 
L 362.83985 385.127035 
L 363.987279 385.38603 
L 368.576995 385.472362 
L 369.724424 385.645025 
L 370.871853 385.645025 
L 372.019282 384.609045 
L 380.051285 384.609045 
L 381.198715 372.652111 
L 382.346144 355.515276 
L 383.493573 351.630352 
L 384.641002 334.709347 
L 385.788431 332.335226 
L 386.93586 332.076231 
L 388.083289 330.73809 
L 391.525576 330.522261 
L 393.820434 330.306432 
L 394.967863 331.299246 
L 397.262721 331.25608 
L 398.41015 331.299246 
L 399.557579 328.752462 
L 402.999866 328.622965 
L 404.147295 340.493568 
L 405.294725 357.587236 
L 406.442154 361.428995 
L 407.589583 378.479497 
L 408.737012 380.551457 
L 409.884441 380.162965 
L 411.03187 380.335628 
L 415.621586 380.42196 
L 419.063873 380.465126 
L 421.358731 380.378794 
L 422.50616 382.968744 
L 423.653589 382.79608 
L 424.801018 381.501106 
L 425.948447 381.414774 
L 428.243306 381.414774 
L 429.390735 381.414774 
L 430.538164 380.42196 
L 431.685593 380.680955 
L 432.833022 381.198945 
L 433.980451 382.191759 
L 436.275309 382.105427 
L 444.307312 382.019095 
L 446.60217 381.932764 
L 447.749599 383.227739 
L 450.044457 383.31407 
L 452.339316 383.357236 
L 453.486745 383.573065 
L 455.781603 383.659397 
L 458.076461 383.875226 
L 459.22389 383.788894 
L 461.518748 383.875226 
L 463.813606 383.918392 
L 464.961035 383.745729 
L 468.403322 383.875226 
L 469.550751 384.047889 
L 471.845609 384.047889 
L 474.140467 383.443568 
L 475.287896 383.400402 
L 476.435326 384.134221 
L 477.582755 384.134221 
L 478.730184 384.004724 
L 485.614758 384.047889 
L 486.762187 383.659397 
L 489.057045 383.918392 
L 494.79419 383.573065 
L 502.826194 264.780704 
L 503.973623 252.305779 
L 506.268481 252.392111 
L 508.563339 252.60794 
L 509.710768 253.082764 
L 513.153055 253.42809 
L 514.300484 253.687085 
L 517.742771 254.032412 
L 525.774775 374.20608 
L 526.922204 386.767337 
L 529.217062 386.853668 
L 531.51192 386.767337 
L 538.396494 386.767337 
L 539.543923 374.939899 
L 556.755359 375.026231 
L 557.902788 368.162864 
L 561.345075 368.162864 
L 562.492504 379.990302 
L 572.819366 379.990302 
L 573.966795 379.126985 
L 579.70394 379.213317 
L 580.851369 386.076683 
L 593.473088 385.990352 
L 594.620518 384.954372 
L 595.767947 384.954372 
L 596.915376 385.817688 
L 601.505092 385.817688 
L 602.652521 385.645025 
L 609.537095 385.645025 
L 632.485676 43.34 
L 720.837713 43.34 
L 721.985142 46.275276 
L 723.132571 46.275276 
L 724.28 56.807739 
L 724.28 56.807739 
" style="fill:none;stroke:#ff7f0e;stroke-linecap:square;stroke-width:1.5;"/>
   </g>
   <g id="line2d_18">
    <path clip-path="url(#p250325c257)" d="M 58.771152 210.089598 
L 59.918581 225.542965 
L 61.06601 236.895578 
L 62.213439 226.147286 
L 63.360868 211.945729 
L 64.508297 210.348593 
L 65.655726 216.521307 
L 66.803155 227.399095 
L 67.950584 233.787638 
L 69.098013 236.507085 
L 70.245442 235.902764 
L 71.392871 236.334422 
L 72.540301 222.650854 
L 73.68773 236.507085 
L 74.835159 235.471106 
L 75.982588 244.104271 
L 77.130017 255.197889 
L 78.277446 259.946131 
L 79.424875 256.924523 
L 80.572304 257.57201 
L 81.719733 259.212312 
L 82.867162 243.758945 
L 84.014591 248.420854 
L 85.16202 260.636784 
L 86.309449 268.924623 
L 87.456878 271.12608 
L 88.604307 267.543317 
L 89.751736 266.291508 
L 90.899165 256.622362 
L 92.046594 240.046683 
L 93.194023 256.967688 
L 94.341452 268.23397 
L 95.488881 283.34201 
L 96.636311 276.090151 
L 97.78374 261.241106 
L 98.931169 261.845427 
L 100.078598 259.64397 
L 101.226027 245.183417 
L 102.373456 244.492764 
L 103.520885 242.161809 
L 104.668314 235.859598 
L 105.815743 247.255377 
L 106.963172 239.744523 
L 108.110601 225.111307 
L 109.25803 221.571709 
L 110.405459 215.14 
L 111.552888 215.226332 
L 112.700317 204.089548 
L 113.847746 212.334221 
L 114.995175 225.28397 
L 116.142604 216.219146 
L 117.290033 200.420452 
L 118.437462 193.51392 
L 119.584891 199.859296 
L 120.732321 207.801809 
L 121.87975 196.276533 
L 123.027179 198.952814 
L 124.174608 215.398995 
L 125.322037 218.895427 
L 126.469466 218.981759 
L 127.616895 210.17593 
L 128.764324 208.880955 
L 129.911753 206.247839 
L 131.059182 220.535729 
L 132.206611 215.787487 
L 133.35404 218.76593 
L 134.501469 210.262261 
L 135.648898 221.010553 
L 136.796327 229.643719 
L 137.943756 223.471005 
L 139.091185 215.614824 
L 140.238614 214.578844 
L 141.386043 206.377337 
L 142.533472 190.880804 
L 143.680902 193.772915 
L 144.828331 208.880955 
L 145.97576 197.269347 
L 147.123189 180.823166 
L 148.270618 178.276382 
L 149.418047 177.801558 
L 150.565476 188.895176 
L 151.712905 195.413216 
L 152.860334 206.679497 
L 154.007763 209.528442 
L 155.155192 226.665276 
L 156.302621 230.593367 
L 157.45005 243.197789 
L 158.597479 249.586332 
L 159.744908 249.845327 
L 160.892337 260.205126 
L 165.482053 328.752462 
L 166.629482 335.054673 
L 167.776912 337.083467 
L 170.07177 371.357136 
L 171.219199 374.637739 
L 172.366628 379.515477 
L 173.514057 385.558693 
L 174.661486 386.076683 
L 265.308381 386.076683 
L 266.45581 371.529799 
L 288.256962 371.529799 
L 289.404391 386.076683 
L 380.051285 386.076683 
L 381.198715 375.630553 
L 402.999866 374.810402 
L 404.147295 385.213367 
L 494.79419 385.213367 
L 495.941619 382.450754 
L 517.742771 384.091055 
L 518.8902 386.94 
L 609.537095 386.94 
L 610.684524 378.393166 
L 611.831953 376.148543 
L 612.979382 373.429095 
L 614.126811 372.997437 
L 615.27424 366.824724 
L 616.421669 366.047739 
L 617.569098 356.551256 
L 618.716528 353.270653 
L 619.863957 342.263367 
L 621.011386 332.551055 
L 622.158815 331.126583 
L 623.306244 330.220101 
L 624.453673 328.795628 
L 625.601102 312.910603 
L 626.748531 310.061658 
L 627.89596 296.507588 
L 629.043389 286.924774 
L 630.190818 280.320402 
L 631.338247 279.025427 
L 632.485676 270.435427 
L 633.633105 277.946281 
L 634.780534 268.104472 
L 635.927963 269.744774 
L 637.075392 262.190754 
L 638.222821 251.183467 
L 639.37025 244.104271 
L 640.517679 241.471156 
L 641.665109 244.147437 
L 642.812538 237.974724 
L 643.959967 241.989146 
L 645.107396 235.643769 
L 646.254825 223.471005 
L 647.402254 214.233518 
L 648.549683 222.262362 
L 649.697112 224.204824 
L 650.844541 236.420754 
L 651.99197 241.384824 
L 653.139399 243.715779 
L 654.286828 237.974724 
L 655.434257 238.967538 
L 656.581686 222.823518 
L 657.729115 231.715678 
L 658.876544 223.859497 
L 660.023973 228.003417 
L 661.171402 238.147387 
L 662.318831 241.125829 
L 663.46626 239.787688 
L 664.613689 237.413568 
L 665.761119 253.12593 
L 666.908548 250.924472 
L 668.055977 257.528844 
L 669.203406 255.154724 
L 670.350835 253.989246 
L 671.498264 259.082814 
L 672.645693 259.687136 
L 673.793122 253.039598 
L 674.940551 257.140352 
L 676.08798 260.464121 
L 677.235409 267.111658 
L 678.382838 265.212362 
L 679.530267 281.140553 
L 680.677696 269.701608 
L 681.825125 276.953467 
L 682.972554 279.500251 
L 684.119983 269.356281 
L 685.267412 270.176432 
L 686.414841 282.996683 
L 688.709699 274.493015 
L 689.857129 278.939095 
L 691.004558 262.924573 
L 692.151987 271.687236 
L 693.299416 281.960704 
L 695.594274 256.53603 
L 696.741703 252.521608 
L 697.889132 240.737337 
L 699.036561 239.485528 
L 700.18399 222.69402 
L 701.331419 217.341457 
L 702.478848 201.413266 
L 703.626277 208.578794 
L 704.773706 198.736985 
L 705.921135 182.85196 
L 707.068564 194.938392 
L 708.215993 190.837638 
L 709.363422 188.420352 
L 710.510851 189.024673 
L 711.65828 177.413065 
L 712.80571 179.614523 
L 713.953139 179.614523 
L 715.100568 183.628945 
L 716.247997 168.002915 
L 717.395426 181.254824 
L 718.542855 191.312462 
L 719.690284 199.211809 
L 720.837713 194.33407 
L 721.985142 185.528241 
L 723.132571 200.938442 
L 724.28 207.542814 
L 724.28 207.542814 
" style="fill:none;stroke:#2ca02c;stroke-linecap:square;stroke-width:1.5;"/>
   </g>
   <g id="patch_3">
    <path d="M 36.97 404.12 
L 36.97 26.16 
" style="fill:none;stroke:#000000;stroke-linecap:square;stroke-linejoin:miter;stroke-width:0.8;"/>
   </g>
   <g id="patch_4">
    <path d="M 724.28 404.12 
L 724.28 26.16 
" style="fill:none;stroke:#000000;stroke-linecap:square;stroke-linejoin:miter;stroke-width:0.8;"/>
   </g>
   <g id="patch_5">
    <path d="M 36.97 404.12 
L 724.28 404.12 
" style="fill:none;stroke:#000000;stroke-linecap:square;stroke-linejoin:miter;stroke-width:0.8;"/>
   </g>
   <g id="patch_6">
    <path d="M 36.97 26.16 
L 724.28 26.16 
" style="fill:none;stroke:#000000;stroke-linecap:square;stroke-linejoin:miter;stroke-width:0.8;"/>
   </g>
   <g id="text_16">
    <!-- multi_way_v2__dqn: episode duration, steps, MA=20 -->
    <defs>
     <path d="M 52 44.1875 
Q 55.375 50.25 60.0625 53.125 
Q 64.75 56 71.09375 56 
Q 79.640625 56 84.28125 50.015625 
Q 88.921875 44.046875 88.921875 33.015625 
L 88.921875 0 
L 79.890625 0 
L 79.890625 32.71875 
Q 79.890625 40.578125 77.09375 44.375 
Q 74.3125 48.1875 68.609375 48.1875 
Q 61.625 48.1875 57.5625 43.546875 
Q 53.515625 38.921875 53.515625 30.90625 
L 53.515625 0 
L 44.484375 0 
L 44.484375 32.71875 
Q 44.484375 40.625 41.703125 44.40625 
Q 38.921875 48.1875 33.109375 48.1875 
Q 26.21875 48.1875 22.15625 43.53125 
Q 18.109375 38.875 18.109375 30.90625 
L 18.109375 0 
L 9.078125 0 
L 9.078125 54.6875 
L 18.109375 54.6875 
L 18.109375 46.1875 
Q 21.1875 51.21875 25.484375 53.609375 
Q 29.78125 56 35.6875 56 
Q 41.65625 56 45.828125 52.96875 
Q 50 49.953125 52 44.1875 
z
" id="DejaVuSans-109"/>
     <path d="M 8.5 21.578125 
L 8.5 54.6875 
L 17.484375 54.6875 
L 17.484375 21.921875 
Q 17.484375 14.15625 20.5 10.265625 
Q 23.53125 6.390625 29.59375 6.390625 
Q 36.859375 6.390625 41.078125 11.03125 
Q 45.3125 15.671875 45.3125 23.6875 
L 45.3125 54.6875 
L 54.296875 54.6875 
L 54.296875 0 
L 45.3125 0 
L 45.3125 8.40625 
Q 42.046875 3.421875 37.71875 1 
Q 33.40625 -1.421875 27.6875 -1.421875 
Q 18.265625 -1.421875 13.375 4.4375 
Q 8.5 10.296875 8.5 21.578125 
z
M 31.109375 56 
z
" id="DejaVuSans-117"/>
     <path d="M 9.421875 75.984375 
L 18.40625 75.984375 
L 18.40625 0 
L 9.421875 0 
z
" id="DejaVuSans-108"/>
     <path d="M 18.3125 70.21875 
L 18.3125 54.6875 
L 36.8125 54.6875 
L 36.8125 47.703125 
L 18.3125 47.703125 
L 18.3125 18.015625 
Q 18.3125 11.328125 20.140625 9.421875 
Q 21.96875 7.515625 27.59375 7.515625 
L 36.8125 7.515625 
L 36.8125 0 
L 27.59375 0 
Q 17.1875 0 13.234375 3.875 
Q 9.28125 7.765625 9.28125 18.015625 
L 9.28125 47.703125 
L 2.6875 47.703125 
L 2.6875 54.6875 
L 9.28125 54.6875 
L 9.28125 70.21875 
z
" id="DejaVuSans-116"/>
     <path d="M 9.421875 54.6875 
L 18.40625 54.6875 
L 18.40625 0 
L 9.421875 0 
z
M 9.421875 75.984375 
L 18.40625 75.984375 
L 18.40625 64.59375 
L 9.421875 64.59375 
z
" id="DejaVuSans-105"/>
     <path d="M 50.984375 -16.609375 
L 50.984375 -23.578125 
L -0.984375 -23.578125 
L -0.984375 -16.609375 
z
" id="DejaVuSans-95"/>
     <path d="M 4.203125 54.6875 
L 13.1875 54.6875 
L 24.421875 12.015625 
L 35.59375 54.6875 
L 46.1875 54.6875 
L 57.421875 12.015625 
L 68.609375 54.6875 
L 77.59375 54.6875 
L 63.28125 0 
L 52.6875 0 
L 40.921875 44.828125 
L 29.109375 0 
L 18.5 0 
z
" id="DejaVuSans-119"/>
     <path d="M 34.28125 27.484375 
Q 23.390625 27.484375 19.1875 25 
Q 14.984375 22.515625 14.984375 16.5 
Q 14.984375 11.71875 18.140625 8.90625 
Q 21.296875 6.109375 26.703125 6.109375 
Q 34.1875 6.109375 38.703125 11.40625 
Q 43.21875 16.703125 43.21875 25.484375 
L 43.21875 27.484375 
z
M 52.203125 31.203125 
L 52.203125 0 
L 43.21875 0 
L 43.21875 8.296875 
Q 40.140625 3.328125 35.546875 0.953125 
Q 30.953125 -1.421875 24.3125 -1.421875 
Q 15.921875 -1.421875 10.953125 3.296875 
Q 6 8.015625 6 15.921875 
Q 6 25.140625 12.171875 29.828125 
Q 18.359375 34.515625 30.609375 34.515625 
L 43.21875 34.515625 
L 43.21875 35.40625 
Q 43.21875 41.609375 39.140625 45 
Q 35.0625 48.390625 27.6875 48.390625 
Q 23 48.390625 18.546875 47.265625 
Q 14.109375 46.140625 10.015625 43.890625 
L 10.015625 52.203125 
Q 14.9375 54.109375 19.578125 55.046875 
Q 24.21875 56 28.609375 56 
Q 40.484375 56 46.34375 49.84375 
Q 52.203125 43.703125 52.203125 31.203125 
z
" id="DejaVuSans-97"/>
     <path d="M 32.171875 -5.078125 
Q 28.375 -14.84375 24.75 -17.8125 
Q 21.140625 -20.796875 15.09375 -20.796875 
L 7.90625 -20.796875 
L 7.90625 -13.28125 
L 13.1875 -13.28125 
Q 16.890625 -13.28125 18.9375 -11.515625 
Q 21 -9.765625 23.484375 -3.21875 
L 25.09375 0.875 
L 2.984375 54.6875 
L 12.5 54.6875 
L 29.59375 11.921875 
L 46.6875 54.6875 
L 56.203125 54.6875 
z
" id="DejaVuSans-121"/>
     <path d="M 2.984375 54.6875 
L 12.5 54.6875 
L 29.59375 8.796875 
L 46.6875 54.6875 
L 56.203125 54.6875 
L 35.6875 0 
L 23.484375 0 
z
" id="DejaVuSans-118"/>
     <path d="M 45.40625 46.390625 
L 45.40625 75.984375 
L 54.390625 75.984375 
L 54.390625 0 
L 45.40625 0 
L 45.40625 8.203125 
Q 42.578125 3.328125 38.25 0.953125 
Q 33.9375 -1.421875 27.875 -1.421875 
Q 17.96875 -1.421875 11.734375 6.484375 
Q 5.515625 14.40625 5.515625 27.296875 
Q 5.515625 40.1875 11.734375 48.09375 
Q 17.96875 56 27.875 56 
Q 33.9375 56 38.25 53.625 
Q 42.578125 51.265625 45.40625 46.390625 
z
M 14.796875 27.296875 
Q 14.796875 17.390625 18.875 11.75 
Q 22.953125 6.109375 30.078125 6.109375 
Q 37.203125 6.109375 41.296875 11.75 
Q 45.40625 17.390625 45.40625 27.296875 
Q 45.40625 37.203125 41.296875 42.84375 
Q 37.203125 48.484375 30.078125 48.484375 
Q 22.953125 48.484375 18.875 42.84375 
Q 14.796875 37.203125 14.796875 27.296875 
z
" id="DejaVuSans-100"/>
     <path d="M 14.796875 27.296875 
Q 14.796875 17.390625 18.875 11.75 
Q 22.953125 6.109375 30.078125 6.109375 
Q 37.203125 6.109375 41.296875 11.75 
Q 45.40625 17.390625 45.40625 27.296875 
Q 45.40625 37.203125 41.296875 42.84375 
Q 37.203125 48.484375 30.078125 48.484375 
Q 22.953125 48.484375 18.875 42.84375 
Q 14.796875 37.203125 14.796875 27.296875 
z
M 45.40625 8.203125 
Q 42.578125 3.328125 38.25 0.953125 
Q 33.9375 -1.421875 27.875 -1.421875 
Q 17.96875 -1.421875 11.734375 6.484375 
Q 5.515625 14.40625 5.515625 27.296875 
Q 5.515625 40.1875 11.734375 48.09375 
Q 17.96875 56 27.875 56 
Q 33.9375 56 38.25 53.625 
Q 42.578125 51.265625 45.40625 46.390625 
L 45.40625 54.6875 
L 54.390625 54.6875 
L 54.390625 -20.796875 
L 45.40625 -20.796875 
z
" id="DejaVuSans-113"/>
     <path d="M 54.890625 33.015625 
L 54.890625 0 
L 45.90625 0 
L 45.90625 32.71875 
Q 45.90625 40.484375 42.875 44.328125 
Q 39.84375 48.1875 33.796875 48.1875 
Q 26.515625 48.1875 22.3125 43.546875 
Q 18.109375 38.921875 18.109375 30.90625 
L 18.109375 0 
L 9.078125 0 
L 9.078125 54.6875 
L 18.109375 54.6875 
L 18.109375 46.1875 
Q 21.34375 51.125 25.703125 53.5625 
Q 30.078125 56 35.796875 56 
Q 45.21875 56 50.046875 50.171875 
Q 54.890625 44.34375 54.890625 33.015625 
z
" id="DejaVuSans-110"/>
     <path d="M 11.71875 12.40625 
L 22.015625 12.40625 
L 22.015625 0 
L 11.71875 0 
z
M 11.71875 51.703125 
L 22.015625 51.703125 
L 22.015625 39.3125 
L 11.71875 39.3125 
z
" id="DejaVuSans-58"/>
     <path id="DejaVuSans-32"/>
     <path d="M 56.203125 29.59375 
L 56.203125 25.203125 
L 14.890625 25.203125 
Q 15.484375 15.921875 20.484375 11.0625 
Q 25.484375 6.203125 34.421875 6.203125 
Q 39.59375 6.203125 44.453125 7.46875 
Q 49.3125 8.734375 54.109375 11.28125 
L 54.109375 2.78125 
Q 49.265625 0.734375 44.1875 -0.34375 
Q 39.109375 -1.421875 33.890625 -1.421875 
Q 20.796875 -1.421875 13.15625 6.1875 
Q 5.515625 13.8125 5.515625 26.8125 
Q 5.515625 40.234375 12.765625 48.109375 
Q 20.015625 56 32.328125 56 
Q 43.359375 56 49.78125 48.890625 
Q 56.203125 41.796875 56.203125 29.59375 
z
M 47.21875 32.234375 
Q 47.125 39.59375 43.09375 43.984375 
Q 39.0625 48.390625 32.421875 48.390625 
Q 24.90625 48.390625 20.390625 44.140625 
Q 15.875 39.890625 15.1875 32.171875 
z
" id="DejaVuSans-101"/>
     <path d="M 18.109375 8.203125 
L 18.109375 -20.796875 
L 9.078125 -20.796875 
L 9.078125 54.6875 
L 18.109375 54.6875 
L 18.109375 46.390625 
Q 20.953125 51.265625 25.265625 53.625 
Q 29.59375 56 35.59375 56 
Q 45.5625 56 51.78125 48.09375 
Q 58.015625 40.1875 58.015625 27.296875 
Q 58.015625 14.40625 51.78125 6.484375 
Q 45.5625 -1.421875 35.59375 -1.421875 
Q 29.59375 -1.421875 25.265625 0.953125 
Q 20.953125 3.328125 18.109375 8.203125 
z
M 48.6875 27.296875 
Q 48.6875 37.203125 44.609375 42.84375 
Q 40.53125 48.484375 33.40625 48.484375 
Q 26.265625 48.484375 22.1875 42.84375 
Q 18.109375 37.203125 18.109375 27.296875 
Q 18.109375 17.390625 22.1875 11.75 
Q 26.265625 6.109375 33.40625 6.109375 
Q 40.53125 6.109375 44.609375 11.75 
Q 48.6875 17.390625 48.6875 27.296875 
z
" id="DejaVuSans-112"/>
     <path d="M 44.28125 53.078125 
L 44.28125 44.578125 
Q 40.484375 46.53125 36.375 47.5 
Q 32.28125 48.484375 27.875 48.484375 
Q 21.1875 48.484375 17.84375 46.4375 
Q 14.5 44.390625 14.5 40.28125 
Q 14.5 37.15625 16.890625 35.375 
Q 19.28125 33.59375 26.515625 31.984375 
L 29.59375 31.296875 
Q 39.15625 29.25 43.1875 25.515625 
Q 47.21875 21.78125 47.21875 15.09375 
Q 47.21875 7.46875 41.1875 3.015625 
Q 35.15625 -1.421875 24.609375 -1.421875 
Q 20.21875 -1.421875 15.453125 -0.5625 
Q 10.6875 0.296875 5.421875 2 
L 5.421875 11.28125 
Q 10.40625 8.6875 15.234375 7.390625 
Q 20.0625 6.109375 24.8125 6.109375 
Q 31.15625 6.109375 34.5625 8.28125 
Q 37.984375 10.453125 37.984375 14.40625 
Q 37.984375 18.0625 35.515625 20.015625 
Q 33.0625 21.96875 24.703125 23.78125 
L 21.578125 24.515625 
Q 13.234375 26.265625 9.515625 29.90625 
Q 5.8125 33.546875 5.8125 39.890625 
Q 5.8125 47.609375 11.28125 51.796875 
Q 16.75 56 26.8125 56 
Q 31.78125 56 36.171875 55.265625 
Q 40.578125 54.546875 44.28125 53.078125 
z
" id="DejaVuSans-115"/>
     <path d="M 30.609375 48.390625 
Q 23.390625 48.390625 19.1875 42.75 
Q 14.984375 37.109375 14.984375 27.296875 
Q 14.984375 17.484375 19.15625 11.84375 
Q 23.34375 6.203125 30.609375 6.203125 
Q 37.796875 6.203125 41.984375 11.859375 
Q 46.1875 17.53125 46.1875 27.296875 
Q 46.1875 37.015625 41.984375 42.703125 
Q 37.796875 48.390625 30.609375 48.390625 
z
M 30.609375 56 
Q 42.328125 56 49.015625 48.375 
Q 55.71875 40.765625 55.71875 27.296875 
Q 55.71875 13.875 49.015625 6.21875 
Q 42.328125 -1.421875 30.609375 -1.421875 
Q 18.84375 -1.421875 12.171875 6.21875 
Q 5.515625 13.875 5.515625 27.296875 
Q 5.515625 40.765625 12.171875 48.375 
Q 18.84375 56 30.609375 56 
z
" id="DejaVuSans-111"/>
     <path d="M 41.109375 46.296875 
Q 39.59375 47.171875 37.8125 47.578125 
Q 36.03125 48 33.890625 48 
Q 26.265625 48 22.1875 43.046875 
Q 18.109375 38.09375 18.109375 28.8125 
L 18.109375 0 
L 9.078125 0 
L 9.078125 54.6875 
L 18.109375 54.6875 
L 18.109375 46.1875 
Q 20.953125 51.171875 25.484375 53.578125 
Q 30.03125 56 36.53125 56 
Q 37.453125 56 38.578125 55.875 
Q 39.703125 55.765625 41.0625 55.515625 
z
" id="DejaVuSans-114"/>
     <path d="M 11.71875 12.40625 
L 22.015625 12.40625 
L 22.015625 4 
L 14.015625 -11.625 
L 7.71875 -11.625 
L 11.71875 4 
z
" id="DejaVuSans-44"/>
     <path d="M 9.8125 72.90625 
L 24.515625 72.90625 
L 43.109375 23.296875 
L 61.8125 72.90625 
L 76.515625 72.90625 
L 76.515625 0 
L 66.890625 0 
L 66.890625 64.015625 
L 48.09375 14.015625 
L 38.1875 14.015625 
L 19.390625 64.015625 
L 19.390625 0 
L 9.8125 0 
z
" id="DejaVuSans-77"/>
     <path d="M 34.1875 63.1875 
L 20.796875 26.90625 
L 47.609375 26.90625 
z
M 28.609375 72.90625 
L 39.796875 72.90625 
L 67.578125 0 
L 57.328125 0 
L 50.6875 18.703125 
L 17.828125 18.703125 
L 11.1875 0 
L 0.78125 0 
z
" id="DejaVuSans-65"/>
     <path d="M 10.59375 45.40625 
L 73.1875 45.40625 
L 73.1875 37.203125 
L 10.59375 37.203125 
z
M 10.59375 25.484375 
L 73.1875 25.484375 
L 73.1875 17.1875 
L 10.59375 17.1875 
z
" id="DejaVuSans-61"/>
    </defs>
    <g transform="translate(222.143437 20.16)scale(0.12 -0.12)">
     <use xlink:href="#DejaVuSans-109"/>
     <use x="97.412109" xlink:href="#DejaVuSans-117"/>
     <use x="160.791016" xlink:href="#DejaVuSans-108"/>
     <use x="188.574219" xlink:href="#DejaVuSans-116"/>
     <use x="227.783203" xlink:href="#DejaVuSans-105"/>
     <use x="255.566406" xlink:href="#DejaVuSans-95"/>
     <use x="305.566406" xlink:href="#DejaVuSans-119"/>
     <use x="387.353516" xlink:href="#DejaVuSans-97"/>
     <use x="448.632812" xlink:href="#DejaVuSans-121"/>
     <use x="507.8125" xlink:href="#DejaVuSans-95"/>
     <use x="557.8125" xlink:href="#DejaVuSans-118"/>
     <use x="616.992188" xlink:href="#DejaVuSans-50"/>
     <use x="680.615234" xlink:href="#DejaVuSans-95"/>
     <use x="730.615234" xlink:href="#DejaVuSans-95"/>
     <use x="780.615234" xlink:href="#DejaVuSans-100"/>
     <use x="844.091797" xlink:href="#DejaVuSans-113"/>
     <use x="907.568359" xlink:href="#DejaVuSans-110"/>
     <use x="970.947266" xlink:href="#DejaVuSans-58"/>
     <use x="1004.638672" xlink:href="#DejaVuSans-32"/>
     <use x="1036.425781" xlink:href="#DejaVuSans-101"/>
     <use x="1097.949219" xlink:href="#DejaVuSans-112"/>
     <use x="1161.425781" xlink:href="#DejaVuSans-105"/>
     <use x="1189.208984" xlink:href="#DejaVuSans-115"/>
     <use x="1241.308594" xlink:href="#DejaVuSans-111"/>
     <use x="1302.490234" xlink:href="#DejaVuSans-100"/>
     <use x="1365.966797" xlink:href="#DejaVuSans-101"/>
     <use x="1427.490234" xlink:href="#DejaVuSans-32"/>
     <use x="1459.277344" xlink:href="#DejaVuSans-100"/>
     <use x="1522.753906" xlink:href="#DejaVuSans-117"/>
     <use x="1586.132812" xlink:href="#DejaVuSans-114"/>
     <use x="1627.246094" xlink:href="#DejaVuSans-97"/>
     <use x="1688.525391" xlink:href="#DejaVuSans-116"/>
     <use x="1727.734375" xlink:href="#DejaVuSans-105"/>
     <use x="1755.517578" xlink:href="#DejaVuSans-111"/>
     <use x="1816.699219" xlink:href="#DejaVuSans-110"/>
     <use x="1880.078125" xlink:href="#DejaVuSans-44"/>
     <use x="1911.865234" xlink:href="#DejaVuSans-32"/>
     <use x="1943.652344" xlink:href="#DejaVuSans-115"/>
     <use x="1995.751953" xlink:href="#DejaVuSans-116"/>
     <use x="2034.960938" xlink:href="#DejaVuSans-101"/>
     <use x="2096.484375" xlink:href="#DejaVuSans-112"/>
     <use x="2159.960938" xlink:href="#DejaVuSans-115"/>
     <use x="2212.060547" xlink:href="#DejaVuSans-44"/>
     <use x="2243.847656" xlink:href="#DejaVuSans-32"/>
     <use x="2275.634766" xlink:href="#DejaVuSans-77"/>
     <use x="2361.914062" xlink:href="#DejaVuSans-65"/>
     <use x="2430.322266" xlink:href="#DejaVuSans-61"/>
     <use x="2514.111328" xlink:href="#DejaVuSans-50"/>
     <use x="2577.734375" xlink:href="#DejaVuSans-48"/>
    </g>
   </g>
   <g id="legend_1">
    <g id="patch_7">
     <path d="M 763.677937 239.074375 
L 854.742 239.074375 
Q 856.742 239.074375 856.742 237.074375 
L 856.742 193.205625 
Q 856.742 191.205625 854.742 191.205625 
L 763.677937 191.205625 
Q 761.677937 191.205625 761.677937 193.205625 
L 761.677937 237.074375 
Q 761.677937 239.074375 763.677937 239.074375 
z
" style="fill:#ffffff;opacity:0.8;stroke:#cccccc;stroke-linejoin:miter;"/>
    </g>
    <g id="line2d_19">
     <path d="M 765.677937 199.304062 
L 785.677937 199.304062 
" style="fill:none;stroke:#1f77b4;stroke-linecap:square;stroke-width:1.5;"/>
    </g>
    <g id="line2d_20"/>
    <g id="text_17">
     <!-- dqn_greedy -->
     <defs>
      <path d="M 45.40625 27.984375 
Q 45.40625 37.75 41.375 43.109375 
Q 37.359375 48.484375 30.078125 48.484375 
Q 22.859375 48.484375 18.828125 43.109375 
Q 14.796875 37.75 14.796875 27.984375 
Q 14.796875 18.265625 18.828125 12.890625 
Q 22.859375 7.515625 30.078125 7.515625 
Q 37.359375 7.515625 41.375 12.890625 
Q 45.40625 18.265625 45.40625 27.984375 
z
M 54.390625 6.78125 
Q 54.390625 -7.171875 48.1875 -13.984375 
Q 42 -20.796875 29.203125 -20.796875 
Q 24.46875 -20.796875 20.265625 -20.09375 
Q 16.0625 -19.390625 12.109375 -17.921875 
L 12.109375 -9.1875 
Q 16.0625 -11.328125 19.921875 -12.34375 
Q 23.78125 -13.375 27.78125 -13.375 
Q 36.625 -13.375 41.015625 -8.765625 
Q 45.40625 -4.15625 45.40625 5.171875 
L 45.40625 9.625 
Q 42.625 4.78125 38.28125 2.390625 
Q 33.9375 0 27.875 0 
Q 17.828125 0 11.671875 7.65625 
Q 5.515625 15.328125 5.515625 27.984375 
Q 5.515625 40.671875 11.671875 48.328125 
Q 17.828125 56 27.875 56 
Q 33.9375 56 38.28125 53.609375 
Q 42.625 51.21875 45.40625 46.390625 
L 45.40625 54.6875 
L 54.390625 54.6875 
z
" id="DejaVuSans-103"/>
     </defs>
     <g transform="translate(793.677937 202.804062)scale(0.1 -0.1)">
      <use xlink:href="#DejaVuSans-100"/>
      <use x="63.476562" xlink:href="#DejaVuSans-113"/>
      <use x="126.953125" xlink:href="#DejaVuSans-110"/>
      <use x="190.332031" xlink:href="#DejaVuSans-95"/>
      <use x="240.332031" xlink:href="#DejaVuSans-103"/>
      <use x="303.808594" xlink:href="#DejaVuSans-114"/>
      <use x="344.890625" xlink:href="#DejaVuSans-101"/>
      <use x="406.414062" xlink:href="#DejaVuSans-101"/>
      <use x="467.9375" xlink:href="#DejaVuSans-100"/>
      <use x="531.414062" xlink:href="#DejaVuSans-121"/>
     </g>
    </g>
    <g id="line2d_21">
     <path d="M 765.677937 214.260312 
L 785.677937 214.260312 
" style="fill:none;stroke:#ff7f0e;stroke-linecap:square;stroke-width:1.5;"/>
    </g>
    <g id="line2d_22"/>
    <g id="text_18">
     <!-- dqn_eps -->
     <g transform="translate(793.677937 217.760312)scale(0.1 -0.1)">
      <use xlink:href="#DejaVuSans-100"/>
      <use x="63.476562" xlink:href="#DejaVuSans-113"/>
      <use x="126.953125" xlink:href="#DejaVuSans-110"/>
      <use x="190.332031" xlink:href="#DejaVuSans-95"/>
      <use x="240.332031" xlink:href="#DejaVuSans-101"/>
      <use x="301.855469" xlink:href="#DejaVuSans-112"/>
      <use x="365.332031" xlink:href="#DejaVuSans-115"/>
     </g>
    </g>
    <g id="line2d_23">
     <path d="M 765.677937 229.216562 
L 785.677937 229.216562 
" style="fill:none;stroke:#2ca02c;stroke-linecap:square;stroke-width:1.5;"/>
    </g>
    <g id="line2d_24"/>
    <g id="text_19">
     <!-- htm_4_1g -->
     <defs>
      <path d="M 54.890625 33.015625 
L 54.890625 0 
L 45.90625 0 
L 45.90625 32.71875 
Q 45.90625 40.484375 42.875 44.328125 
Q 39.84375 48.1875 33.796875 48.1875 
Q 26.515625 48.1875 22.3125 43.546875 
Q 18.109375 38.921875 18.109375 30.90625 
L 18.109375 0 
L 9.078125 0 
L 9.078125 75.984375 
L 18.109375 75.984375 
L 18.109375 46.1875 
Q 21.34375 51.125 25.703125 53.5625 
Q 30.078125 56 35.796875 56 
Q 45.21875 56 50.046875 50.171875 
Q 54.890625 44.34375 54.890625 33.015625 
z
" id="DejaVuSans-104"/>
     </defs>
     <g transform="translate(793.677937 232.716562)scale(0.1 -0.1)">
      <use xlink:href="#DejaVuSans-104"/>
      <use x="63.378906" xlink:href="#DejaVuSans-116"/>
      <use x="102.587891" xlink:href="#DejaVuSans-109"/>
      <use x="200" xlink:href="#DejaVuSans-95"/>
      <use x="250" xlink:href="#DejaVuSans-52"/>
      <use x="313.623047" xlink:href="#DejaVuSans-95"/>
      <use x="363.623047" xlink:href="#DejaVuSans-49"/>
      <use x="427.246094" xlink:href="#DejaVuSans-103"/>
     </g>
    </g>
   </g>
  </g>
 </g>
 <defs>
  <clipPath id="p250325c257">
   <rect height="377.96" width="687.31" x="36.97" y="26.16"/>
  </clipPath>
 </defs>
</svg>
