<?xml version="1.0" encoding="utf-8" standalone="no"?>
<!DOCTYPE svg PUBLIC "-//W3C//DTD SVG 1.1//EN"
  "http://www.w3.org/Graphics/SVG/1.1/DTD/svg11.dtd">
<!-- Created with matplotlib (https://matplotlib.org/) -->
<svg height="432pt" version="1.1" viewBox="0 0 864 432" width="864pt" xmlns="http://www.w3.org/2000/svg" xmlns:xlink="http://www.w3.org/1999/xlink">
 <defs>
  <style type="text/css">
*{stroke-linecap:butt;stroke-linejoin:round;}
  </style>
 </defs>
 <g id="figure_1">
  <g id="patch_1">
   <path d="M 0 432 
L 864 432 
L 864 0 
L 0 0 
z
" style="fill:#ffffff;"/>
  </g>
  <g id="axes_1">
   <g id="patch_2">
    <path d="M 30.58 404.12 
L 724.28 404.12 
L 724.28 26.16 
L 30.58 26.16 
z
" style="fill:#ffffff;"/>
   </g>
   <g id="matplotlib.axis_1">
    <g id="xtick_1">
     <g id="line2d_1">
      <defs>
       <path d="M 0 0 
L 0 3.5 
" id="m21ecce06c8" style="stroke:#000000;stroke-width:0.8;"/>
      </defs>
      <g>
       <use style="stroke:#000000;stroke-width:0.8;" x="30.58" xlink:href="#m21ecce06c8" y="404.12"/>
      </g>
     </g>
     <g id="text_1">
      <!-- 0 -->
      <defs>
       <path d="M 31.78125 66.40625 
Q 24.171875 66.40625 20.328125 58.90625 
Q 16.5 51.421875 16.5 36.375 
Q 16.5 21.390625 20.328125 13.890625 
Q 24.171875 6.390625 31.78125 6.390625 
Q 39.453125 6.390625 43.28125 13.890625 
Q 47.125 21.390625 47.125 36.375 
Q 47.125 51.421875 43.28125 58.90625 
Q 39.453125 66.40625 31.78125 66.40625 
z
M 31.78125 74.21875 
Q 44.046875 74.21875 50.515625 64.515625 
Q 56.984375 54.828125 56.984375 36.375 
Q 56.984375 17.96875 50.515625 8.265625 
Q 44.046875 -1.421875 31.78125 -1.421875 
Q 19.53125 -1.421875 13.0625 8.265625 
Q 6.59375 17.96875 6.59375 36.375 
Q 6.59375 54.828125 13.0625 64.515625 
Q 19.53125 74.21875 31.78125 74.21875 
z
" id="DejaVuSans-48"/>
      </defs>
      <g transform="translate(27.39875 418.718437)scale(0.1 -0.1)">
       <use xlink:href="#DejaVuSans-48"/>
      </g>
     </g>
    </g>
    <g id="xtick_2">
     <g id="line2d_2">
      <g>
       <use style="stroke:#000000;stroke-width:0.8;" x="117.509825" xlink:href="#m21ecce06c8" y="404.12"/>
      </g>
     </g>
     <g id="text_2">
      <!-- 50 -->
      <defs>
       <path d="M 10.796875 72.90625 
L 49.515625 72.90625 
L 49.515625 64.59375 
L 19.828125 64.59375 
L 19.828125 46.734375 
Q 21.96875 47.46875 24.109375 47.828125 
Q 26.265625 48.1875 28.421875 48.1875 
Q 40.625 48.1875 47.75 41.5 
Q 54.890625 34.8125 54.890625 23.390625 
Q 54.890625 11.625 47.5625 5.09375 
Q 40.234375 -1.421875 26.90625 -1.421875 
Q 22.3125 -1.421875 17.546875 -0.640625 
Q 12.796875 0.140625 7.71875 1.703125 
L 7.71875 11.625 
Q 12.109375 9.234375 16.796875 8.0625 
Q 21.484375 6.890625 26.703125 6.890625 
Q 35.15625 6.890625 40.078125 11.328125 
Q 45.015625 15.765625 45.015625 23.390625 
Q 45.015625 31 40.078125 35.4375 
Q 35.15625 39.890625 26.703125 39.890625 
Q 22.75 39.890625 18.8125 39.015625 
Q 14.890625 38.140625 10.796875 36.28125 
z
" id="DejaVuSans-53"/>
      </defs>
      <g transform="translate(111.147325 418.718437)scale(0.1 -0.1)">
       <use xlink:href="#DejaVuSans-53"/>
       <use x="63.623047" xlink:href="#DejaVuSans-48"/>
      </g>
     </g>
    </g>
    <g id="xtick_3">
     <g id="line2d_3">
      <g>
       <use style="stroke:#000000;stroke-width:0.8;" x="204.439649" xlink:href="#m21ecce06c8" y="404.12"/>
      </g>
     </g>
     <g id="text_3">
      <!-- 100 -->
      <defs>
       <path d="M 12.40625 8.296875 
L 28.515625 8.296875 
L 28.515625 63.921875 
L 10.984375 60.40625 
L 10.984375 69.390625 
L 28.421875 72.90625 
L 38.28125 72.90625 
L 38.28125 8.296875 
L 54.390625 8.296875 
L 54.390625 0 
L 12.40625 0 
z
" id="DejaVuSans-49"/>
      </defs>
      <g transform="translate(194.895899 418.718437)scale(0.1 -0.1)">
       <use xlink:href="#DejaVuSans-49"/>
       <use x="63.623047" xlink:href="#DejaVuSans-48"/>
       <use x="127.246094" xlink:href="#DejaVuSans-48"/>
      </g>
     </g>
    </g>
    <g id="xtick_4">
     <g id="line2d_4">
      <g>
       <use style="stroke:#000000;stroke-width:0.8;" x="291.369474" xlink:href="#m21ecce06c8" y="404.12"/>
      </g>
     </g>
     <g id="text_4">
      <!-- 150 -->
      <g transform="translate(281.825724 418.718437)scale(0.1 -0.1)">
       <use xlink:href="#DejaVuSans-49"/>
       <use x="63.623047" xlink:href="#DejaVuSans-53"/>
       <use x="127.246094" xlink:href="#DejaVuSans-48"/>
      </g>
     </g>
    </g>
    <g id="xtick_5">
     <g id="line2d_5">
      <g>
       <use style="stroke:#000000;stroke-width:0.8;" x="378.299298" xlink:href="#m21ecce06c8" y="404.12"/>
      </g>
     </g>
     <g id="text_5">
      <!-- 200 -->
      <defs>
       <path d="M 19.1875 8.296875 
L 53.609375 8.296875 
L 53.609375 0 
L 7.328125 0 
L 7.328125 8.296875 
Q 12.9375 14.109375 22.625 23.890625 
Q 32.328125 33.6875 34.8125 36.53125 
Q 39.546875 41.84375 41.421875 45.53125 
Q 43.3125 49.21875 43.3125 52.78125 
Q 43.3125 58.59375 39.234375 62.25 
Q 35.15625 65.921875 28.609375 65.921875 
Q 23.96875 65.921875 18.8125 64.3125 
Q 13.671875 62.703125 7.8125 59.421875 
L 7.8125 69.390625 
Q 13.765625 71.78125 18.9375 73 
Q 24.125 74.21875 28.421875 74.21875 
Q 39.75 74.21875 46.484375 68.546875 
Q 53.21875 62.890625 53.21875 53.421875 
Q 53.21875 48.921875 51.53125 44.890625 
Q 49.859375 40.875 45.40625 35.40625 
Q 44.1875 33.984375 37.640625 27.21875 
Q 31.109375 20.453125 19.1875 8.296875 
z
" id="DejaVuSans-50"/>
      </defs>
      <g transform="translate(368.755548 418.718437)scale(0.1 -0.1)">
       <use xlink:href="#DejaVuSans-50"/>
       <use x="63.623047" xlink:href="#DejaVuSans-48"/>
       <use x="127.246094" xlink:href="#DejaVuSans-48"/>
      </g>
     </g>
    </g>
    <g id="xtick_6">
     <g id="line2d_6">
      <g>
       <use style="stroke:#000000;stroke-width:0.8;" x="465.229123" xlink:href="#m21ecce06c8" y="404.12"/>
      </g>
     </g>
     <g id="text_6">
      <!-- 250 -->
      <g transform="translate(455.685373 418.718437)scale(0.1 -0.1)">
       <use xlink:href="#DejaVuSans-50"/>
       <use x="63.623047" xlink:href="#DejaVuSans-53"/>
       <use x="127.246094" xlink:href="#DejaVuSans-48"/>
      </g>
     </g>
    </g>
    <g id="xtick_7">
     <g id="line2d_7">
      <g>
       <use style="stroke:#000000;stroke-width:0.8;" x="552.158947" xlink:href="#m21ecce06c8" y="404.12"/>
      </g>
     </g>
     <g id="text_7">
      <!-- 300 -->
      <defs>
       <path d="M 40.578125 39.3125 
Q 47.65625 37.796875 51.625 33 
Q 55.609375 28.21875 55.609375 21.1875 
Q 55.609375 10.40625 48.1875 4.484375 
Q 40.765625 -1.421875 27.09375 -1.421875 
Q 22.515625 -1.421875 17.65625 -0.515625 
Q 12.796875 0.390625 7.625 2.203125 
L 7.625 11.71875 
Q 11.71875 9.328125 16.59375 8.109375 
Q 21.484375 6.890625 26.8125 6.890625 
Q 36.078125 6.890625 40.9375 10.546875 
Q 45.796875 14.203125 45.796875 21.1875 
Q 45.796875 27.640625 41.28125 31.265625 
Q 36.765625 34.90625 28.71875 34.90625 
L 20.21875 34.90625 
L 20.21875 43.015625 
L 29.109375 43.015625 
Q 36.375 43.015625 40.234375 45.921875 
Q 44.09375 48.828125 44.09375 54.296875 
Q 44.09375 59.90625 40.109375 62.90625 
Q 36.140625 65.921875 28.71875 65.921875 
Q 24.65625 65.921875 20.015625 65.03125 
Q 15.375 64.15625 9.8125 62.3125 
L 9.8125 71.09375 
Q 15.4375 72.65625 20.34375 73.4375 
Q 25.25 74.21875 29.59375 74.21875 
Q 40.828125 74.21875 47.359375 69.109375 
Q 53.90625 64.015625 53.90625 55.328125 
Q 53.90625 49.265625 50.4375 45.09375 
Q 46.96875 40.921875 40.578125 39.3125 
z
" id="DejaVuSans-51"/>
      </defs>
      <g transform="translate(542.615197 418.718437)scale(0.1 -0.1)">
       <use xlink:href="#DejaVuSans-51"/>
       <use x="63.623047" xlink:href="#DejaVuSans-48"/>
       <use x="127.246094" xlink:href="#DejaVuSans-48"/>
      </g>
     </g>
    </g>
    <g id="xtick_8">
     <g id="line2d_8">
      <g>
       <use style="stroke:#000000;stroke-width:0.8;" x="639.088772" xlink:href="#m21ecce06c8" y="404.12"/>
      </g>
     </g>
     <g id="text_8">
      <!-- 350 -->
      <g transform="translate(629.545022 418.718437)scale(0.1 -0.1)">
       <use xlink:href="#DejaVuSans-51"/>
       <use x="63.623047" xlink:href="#DejaVuSans-53"/>
       <use x="127.246094" xlink:href="#DejaVuSans-48"/>
      </g>
     </g>
    </g>
   </g>
   <g id="matplotlib.axis_2">
    <g id="ytick_1">
     <g id="line2d_9">
      <defs>
       <path d="M 0 0 
L -3.5 0 
" id="m85ad485121" style="stroke:#000000;stroke-width:0.8;"/>
      </defs>
      <g>
       <use style="stroke:#000000;stroke-width:0.8;" x="30.58" xlink:href="#m85ad485121" y="359.813684"/>
      </g>
     </g>
     <g id="text_9">
      <!-- 5 -->
      <g transform="translate(17.2175 363.612903)scale(0.1 -0.1)">
       <use xlink:href="#DejaVuSans-53"/>
      </g>
     </g>
    </g>
    <g id="ytick_2">
     <g id="line2d_10">
      <g>
       <use style="stroke:#000000;stroke-width:0.8;" x="30.58" xlink:href="#m85ad485121" y="314.603158"/>
      </g>
     </g>
     <g id="text_10">
      <!-- 10 -->
      <g transform="translate(10.855 318.402377)scale(0.1 -0.1)">
       <use xlink:href="#DejaVuSans-49"/>
       <use x="63.623047" xlink:href="#DejaVuSans-48"/>
      </g>
     </g>
    </g>
    <g id="ytick_3">
     <g id="line2d_11">
      <g>
       <use style="stroke:#000000;stroke-width:0.8;" x="30.58" xlink:href="#m85ad485121" y="269.392632"/>
      </g>
     </g>
     <g id="text_11">
      <!-- 15 -->
      <g transform="translate(10.855 273.19185)scale(0.1 -0.1)">
       <use xlink:href="#DejaVuSans-49"/>
       <use x="63.623047" xlink:href="#DejaVuSans-53"/>
      </g>
     </g>
    </g>
    <g id="ytick_4">
     <g id="line2d_12">
      <g>
       <use style="stroke:#000000;stroke-width:0.8;" x="30.58" xlink:href="#m85ad485121" y="224.182105"/>
      </g>
     </g>
     <g id="text_12">
      <!-- 20 -->
      <g transform="translate(10.855 227.981324)scale(0.1 -0.1)">
       <use xlink:href="#DejaVuSans-50"/>
       <use x="63.623047" xlink:href="#DejaVuSans-48"/>
      </g>
     </g>
    </g>
    <g id="ytick_5">
     <g id="line2d_13">
      <g>
       <use style="stroke:#000000;stroke-width:0.8;" x="30.58" xlink:href="#m85ad485121" y="178.971579"/>
      </g>
     </g>
     <g id="text_13">
      <!-- 25 -->
      <g transform="translate(10.855 182.770798)scale(0.1 -0.1)">
       <use xlink:href="#DejaVuSans-50"/>
       <use x="63.623047" xlink:href="#DejaVuSans-53"/>
      </g>
     </g>
    </g>
    <g id="ytick_6">
     <g id="line2d_14">
      <g>
       <use style="stroke:#000000;stroke-width:0.8;" x="30.58" xlink:href="#m85ad485121" y="133.761053"/>
      </g>
     </g>
     <g id="text_14">
      <!-- 30 -->
      <g transform="translate(10.855 137.560271)scale(0.1 -0.1)">
       <use xlink:href="#DejaVuSans-51"/>
       <use x="63.623047" xlink:href="#DejaVuSans-48"/>
      </g>
     </g>
    </g>
    <g id="ytick_7">
     <g id="line2d_15">
      <g>
       <use style="stroke:#000000;stroke-width:0.8;" x="30.58" xlink:href="#m85ad485121" y="88.550526"/>
      </g>
     </g>
     <g id="text_15">
      <!-- 35 -->
      <g transform="translate(10.855 92.349745)scale(0.1 -0.1)">
       <use xlink:href="#DejaVuSans-51"/>
       <use x="63.623047" xlink:href="#DejaVuSans-53"/>
      </g>
     </g>
    </g>
    <g id="ytick_8">
     <g id="line2d_16">
      <g>
       <use style="stroke:#000000;stroke-width:0.8;" x="30.58" xlink:href="#m85ad485121" y="43.34"/>
      </g>
     </g>
     <g id="text_16">
      <!-- 40 -->
      <defs>
       <path d="M 37.796875 64.3125 
L 12.890625 25.390625 
L 37.796875 25.390625 
z
M 35.203125 72.90625 
L 47.609375 72.90625 
L 47.609375 25.390625 
L 58.015625 25.390625 
L 58.015625 17.1875 
L 47.609375 17.1875 
L 47.609375 0 
L 37.796875 0 
L 37.796875 17.1875 
L 4.890625 17.1875 
L 4.890625 26.703125 
z
" id="DejaVuSans-52"/>
      </defs>
      <g transform="translate(10.855 47.139219)scale(0.1 -0.1)">
       <use xlink:href="#DejaVuSans-52"/>
       <use x="63.623047" xlink:href="#DejaVuSans-48"/>
      </g>
     </g>
    </g>
   </g>
   <g id="line2d_17">
    <path clip-path="url(#pf5bad7efcd)" d="M 63.613333 165.408421 
L 65.35193 174.902632 
L 67.090526 162.695789 
L 68.829123 165.408421 
L 70.567719 160.887368 
L 72.306316 163.147895 
L 74.044912 163.147895 
L 75.783509 166.764737 
L 77.522105 169.025263 
L 79.260702 165.860526 
L 80.999298 159.078947 
L 82.737895 169.477368 
L 84.476491 172.642105 
L 86.215088 171.737895 
L 87.953684 165.408421 
L 89.692281 178.067368 
L 91.430877 177.163158 
L 93.169474 180.327895 
L 94.90807 188.917895 
L 96.646667 188.465789 
L 98.385263 196.151579 
L 100.12386 183.040526 
L 101.862456 180.78 
L 103.601053 183.492632 
L 105.339649 195.699474 
L 107.078246 193.438947 
L 108.816842 197.96 
L 110.555439 190.726316 
L 112.294035 196.151579 
L 114.032632 196.151579 
L 115.771228 197.055789 
L 117.509825 186.657368 
L 119.248421 182.136316 
L 120.987018 183.492632 
L 122.725614 183.492632 
L 124.464211 180.327895 
L 126.202807 173.546316 
L 129.68 144.611579 
L 131.418596 140.542632 
L 133.157193 149.132632 
L 134.895789 150.941053 
L 136.634386 163.147895 
L 138.372982 165.408421 
L 140.111579 153.201579 
L 141.850175 155.914211 
L 143.588772 151.393158 
L 145.327368 166.312632 
L 147.065965 164.504211 
L 148.804561 175.806842 
L 150.543158 179.423684 
L 152.281754 189.822105 
L 154.020351 179.875789 
L 155.758947 179.423684 
L 157.497544 179.423684 
L 159.23614 169.929474 
L 160.974737 178.519474 
L 162.713333 190.726316 
L 164.45193 190.726316 
L 166.190526 189.822105 
L 167.929123 173.546316 
L 169.667719 187.561579 
L 171.406316 190.274211 
L 173.144912 180.78 
L 174.883509 182.588421 
L 176.622105 193.891053 
L 178.360702 197.96 
L 180.099298 194.795263 
L 181.837895 186.205263 
L 183.576491 183.492632 
L 185.315088 183.040526 
L 187.053684 183.492632 
L 188.792281 186.657368 
L 190.530877 183.944737 
L 192.269474 183.944737 
L 194.00807 199.768421 
L 195.746667 200.672632 
L 197.485263 202.933158 
L 199.22386 216.948421 
L 200.962456 222.825789 
L 202.701053 234.580526 
L 204.439649 218.756842 
L 206.178246 213.783684 
L 207.916842 227.346842 
L 209.655439 241.814211 
L 211.394035 244.074737 
L 213.132632 254.473158 
L 214.871228 252.212632 
L 216.609825 252.212632 
L 218.348421 257.637895 
L 220.087018 258.542105 
L 221.825614 252.664737 
L 223.564211 249.5 
L 225.302807 243.622632 
L 227.041404 247.239474 
L 228.78 244.978947 
L 230.518596 230.059474 
L 232.257193 230.963684 
L 233.995789 216.948421 
L 235.734386 221.469474 
L 237.472982 209.714737 
L 239.211579 213.331579 
L 240.950175 218.756842 
L 242.688772 211.071053 
L 244.427368 202.028947 
L 246.165965 187.109474 
L 247.904561 186.205263 
L 249.643158 187.561579 
L 251.381754 187.561579 
L 253.120351 188.013684 
L 254.858947 185.753158 
L 256.597544 197.507895 
L 260.074737 225.086316 
L 261.813333 235.484737 
L 263.55193 230.963684 
L 265.290526 238.197368 
L 267.029123 239.101579 
L 268.767719 239.101579 
L 270.506316 237.293158 
L 273.983509 262.158947 
L 275.722105 246.787368 
L 277.460702 249.5 
L 279.199298 248.143684 
L 280.937895 258.994211 
L 282.676491 247.239474 
L 284.415088 239.101579 
L 286.153684 240.005789 
L 287.892281 241.362105 
L 289.630877 246.787368 
L 291.369474 244.526842 
L 293.10807 243.622632 
L 294.846667 239.553684 
L 296.585263 242.718421 
L 298.32386 234.580526 
L 300.062456 243.170526 
L 301.801053 226.894737 
L 303.539649 243.170526 
L 305.278246 244.074737 
L 307.016842 234.580526 
L 308.755439 232.32 
L 310.494035 243.170526 
L 312.232632 248.143684 
L 313.971228 255.829474 
L 315.709825 254.473158 
L 317.448421 260.350526 
L 319.187018 258.994211 
L 320.925614 274.365789 
L 324.402807 275.27 
L 326.141404 277.078421 
L 327.88 264.419474 
L 329.618596 255.829474 
L 331.357193 239.553684 
L 333.095789 245.883158 
L 334.834386 240.91 
L 336.572982 240.91 
L 338.311579 224.634211 
L 340.050175 224.182105 
L 341.788772 226.442632 
L 343.527368 222.373684 
L 345.265965 224.634211 
L 347.004561 209.262632 
L 348.743158 195.699474 
L 350.481754 194.343158 
L 352.220351 200.220526 
L 353.958947 209.714737 
L 355.697544 199.768421 
L 357.43614 194.343158 
L 359.174737 183.492632 
L 360.913333 167.216842 
L 362.65193 183.492632 
L 364.390526 197.507895 
L 366.129123 196.603684 
L 367.867719 206.097895 
L 369.606316 211.523158 
L 371.344912 228.251053 
L 373.083509 242.266316 
L 374.822105 240.457895 
L 376.560702 235.484737 
L 378.299298 240.91 
L 380.037895 243.170526 
L 381.776491 254.021053 
L 383.515088 266.227895 
L 385.253684 271.201053 
L 386.992281 271.653158 
L 388.730877 273.913684 
L 390.469474 271.201053 
L 392.20807 266.68 
L 393.946667 277.078421 
L 395.685263 285.216316 
L 397.42386 282.955789 
L 399.162456 281.147368 
L 400.901053 281.147368 
L 402.639649 279.791053 
L 404.378246 262.611053 
L 406.116842 255.829474 
L 407.855439 258.542105 
L 409.594035 254.473158 
L 411.332632 254.473158 
L 413.071228 249.047895 
L 414.809825 233.676316 
L 416.548421 225.990526 
L 418.287018 213.783684 
L 420.025614 215.592105 
L 421.764211 210.618947 
L 423.502807 213.783684 
L 425.241404 225.538421 
L 426.98 231.415789 
L 428.718596 214.687895 
L 430.457193 208.358421 
L 432.195789 209.262632 
L 433.934386 194.343158 
L 435.672982 197.507895 
L 437.411579 182.136316 
L 439.150175 192.986842 
L 440.888772 195.699474 
L 442.627368 194.795263 
L 444.365965 198.864211 
L 446.104561 216.044211 
L 447.843158 220.565263 
L 449.581754 236.841053 
L 451.320351 235.484737 
L 453.058947 251.760526 
L 456.53614 249.952105 
L 458.274737 233.676316 
L 460.013333 235.484737 
L 461.75193 223.277895 
L 463.490526 240.005789 
L 465.229123 238.197368 
L 466.967719 240.005789 
L 468.706316 256.281579 
L 470.444912 256.281579 
L 472.183509 266.68 
L 473.922105 264.871579 
L 475.660702 268.940526 
L 477.399298 269.844737 
L 479.137895 255.829474 
L 480.876491 249.5 
L 482.615088 241.814211 
L 484.353684 242.266316 
L 486.092281 252.212632 
L 487.830877 251.760526 
L 489.569474 239.553684 
L 491.30807 231.415789 
L 493.046667 231.415789 
L 494.785263 228.251053 
L 496.52386 242.718421 
L 498.262456 225.990526 
L 500.001053 241.362105 
L 501.739649 238.649474 
L 503.478246 226.894737 
L 505.216842 240.457895 
L 506.955439 246.787368 
L 508.694035 252.212632 
L 512.171228 252.212632 
L 513.909825 268.488421 
L 515.648421 257.637895 
L 517.387018 265.323684 
L 520.864211 259.898421 
L 522.602807 255.377368 
L 524.341404 252.212632 
L 526.08 265.323684 
L 527.818596 281.599474 
L 529.557193 283.86 
L 533.034386 283.86 
L 534.772982 268.488421 
L 536.511579 266.227895 
L 538.250175 264.871579 
L 539.988772 248.143684 
L 541.727368 241.814211 
L 543.465965 239.101579 
L 545.204561 239.553684 
L 548.681754 207.002105 
L 550.420351 223.73 
L 552.158947 212.427368 
L 553.897544 215.14 
L 555.63614 209.714737 
L 557.374737 199.768421 
L 559.113333 215.592105 
L 560.85193 211.071053 
L 562.590526 197.96 
L 564.329123 198.412105 
L 566.067719 200.220526 
L 567.806316 214.687895 
L 569.544912 214.687895 
L 571.283509 203.385263 
L 573.022105 214.235789 
L 574.760702 225.990526 
L 576.499298 219.208947 
L 578.237895 218.756842 
L 579.976491 214.235789 
L 583.453684 238.649474 
L 585.192281 222.373684 
L 586.930877 219.208947 
L 588.669474 206.097895 
L 590.40807 202.481053 
L 592.146667 212.427368 
L 593.885263 200.672632 
L 595.62386 201.124737 
L 597.362456 208.810526 
L 599.101053 204.289474 
L 600.839649 194.795263 
L 602.578246 180.327895 
L 604.316842 180.327895 
L 606.055439 186.657368 
L 607.794035 172.642105 
L 609.532632 173.998421 
L 611.271228 187.109474 
L 613.009825 175.806842 
L 614.748421 177.615263 
L 616.487018 177.163158 
L 618.225614 178.067368 
L 619.964211 190.274211 
L 621.702807 205.645789 
L 623.441404 208.358421 
L 625.18 224.182105 
L 626.918596 217.852632 
L 628.657193 230.511579 
L 630.395789 221.469474 
L 632.134386 221.921579 
L 633.872982 220.565263 
L 635.611579 216.044211 
L 637.350175 229.607368 
L 639.088772 237.745263 
L 640.827368 243.170526 
L 642.565965 243.170526 
L 644.304561 230.059474 
L 646.043158 213.331579 
L 647.781754 219.661053 
L 649.520351 214.235789 
L 651.258947 217.400526 
L 652.997544 207.454211 
L 654.73614 194.795263 
L 656.474737 189.822105 
L 658.213333 190.274211 
L 659.95193 174.450526 
L 661.690526 180.78 
L 663.429123 177.615263 
L 665.167719 188.465789 
L 666.906316 187.109474 
L 668.644912 188.013684 
L 670.383509 193.438947 
L 672.122105 194.795263 
L 673.860702 192.534737 
L 675.599298 180.327895 
L 677.337895 180.327895 
L 679.076491 191.630526 
L 680.815088 201.124737 
L 682.553684 199.316316 
L 684.292281 203.385263 
L 686.030877 190.274211 
L 687.769474 192.534737 
L 689.50807 206.097895 
L 691.246667 202.028947 
L 692.985263 198.412105 
L 694.72386 201.124737 
L 696.462456 189.822105 
L 698.201053 176.258947 
L 699.939649 179.423684 
L 701.678246 169.477368 
L 703.416842 157.722632 
L 705.155439 150.036842 
L 706.894035 141.446842 
L 708.632632 135.569474 
L 710.371228 145.063684 
L 712.109825 145.515789 
L 713.848421 142.351053 
L 715.587018 134.665263 
L 717.325614 137.377895 
L 719.064211 140.994737 
L 722.541404 163.147895 
L 724.28 149.584737 
L 724.28 149.584737 
" style="fill:none;stroke:#1f77b4;stroke-linecap:square;stroke-width:1.5;"/>
   </g>
   <g id="line2d_18">
    <path clip-path="url(#pf5bad7efcd)" d="M 63.613333 140.994737 
L 68.829123 189.822105 
L 70.567719 189.822105 
L 87.953684 352.58 
L 103.601053 352.58 
L 105.339649 368.855789 
L 202.701053 368.855789 
L 237.472982 43.34 
L 284.415088 43.34 
L 286.153684 58.711579 
L 298.32386 58.711579 
L 300.062456 74.083158 
L 301.801053 74.083158 
L 307.016842 120.197895 
L 313.971228 120.197895 
L 317.448421 150.941053 
L 320.925614 150.941053 
L 333.095789 258.542105 
L 334.834386 258.542105 
L 336.572982 273.913684 
L 341.788772 273.913684 
L 348.743158 335.4 
L 352.220351 335.4 
L 353.958947 350.771579 
L 376.560702 350.771579 
L 411.332632 386.94 
L 446.104561 386.94 
L 447.843158 369.76 
L 480.876491 369.76 
L 482.615088 386.94 
L 484.353684 369.76 
L 517.387018 369.76 
L 519.125614 386.94 
L 539.988772 386.94 
L 541.727368 369.76 
L 550.420351 369.76 
L 552.158947 368.403684 
L 553.897544 351.223684 
L 566.067719 341.729474 
L 567.806316 324.549474 
L 569.544912 323.193158 
L 571.283509 306.013158 
L 574.760702 303.300526 
L 576.499298 319.124211 
L 585.192281 312.342632 
L 586.930877 312.342632 
L 588.669474 328.166316 
L 600.839649 328.166316 
L 602.578246 343.99 
L 604.316842 343.99 
L 606.055439 359.813684 
L 652.997544 359.813684 
L 654.73614 343.99 
L 687.769474 343.99 
L 689.50807 359.813684 
L 724.28 359.813684 
L 724.28 359.813684 
" style="fill:none;stroke:#ff7f0e;stroke-linecap:square;stroke-width:1.5;"/>
   </g>
   <g id="line2d_19">
    <path clip-path="url(#pf5bad7efcd)" d="M 63.613333 246.787368 
L 65.35193 253.568947 
L 67.090526 247.239474 
L 68.829123 243.170526 
L 72.306316 244.074737 
L 74.044912 245.883158 
L 75.783509 242.266316 
L 77.522105 249.047895 
L 79.260702 253.116842 
L 80.999298 267.132105 
L 82.737895 272.105263 
L 84.476491 255.829474 
L 86.215088 264.419474 
L 87.953684 254.473158 
L 89.692281 254.021053 
L 91.430877 238.649474 
L 93.169474 225.538421 
L 94.90807 221.921579 
L 96.646667 226.894737 
L 98.385263 219.661053 
L 100.12386 213.331579 
L 101.862456 218.756842 
L 103.601053 217.852632 
L 105.339649 215.14 
L 107.078246 217.400526 
L 108.816842 213.783684 
L 110.555439 216.044211 
L 112.294035 217.852632 
L 114.032632 216.948421 
L 115.771228 202.933158 
L 117.509825 200.672632 
L 119.248421 215.14 
L 120.987018 214.235789 
L 122.725614 226.894737 
L 124.464211 233.676316 
L 126.202807 242.266316 
L 127.941404 240.457895 
L 129.68 240.457895 
L 131.418596 235.936842 
L 133.157193 241.362105 
L 134.895789 252.212632 
L 136.634386 254.925263 
L 138.372982 268.036316 
L 141.850175 245.431053 
L 143.588772 235.032632 
L 145.327368 234.128421 
L 147.065965 232.772105 
L 148.804561 221.921579 
L 150.543158 232.32 
L 152.281754 227.798947 
L 154.020351 217.852632 
L 155.758947 218.304737 
L 157.497544 220.113158 
L 159.23614 220.565263 
L 160.974737 227.798947 
L 162.713333 227.798947 
L 164.45193 240.91 
L 166.190526 243.170526 
L 167.929123 235.032632 
L 169.667719 235.936842 
L 171.406316 226.442632 
L 173.144912 227.798947 
L 174.883509 227.798947 
L 176.622105 238.197368 
L 178.360702 245.883158 
L 181.837895 247.691579 
L 183.576491 254.473158 
L 185.315088 259.898421 
L 187.053684 267.584211 
L 188.792281 277.982632 
L 190.530877 275.722105 
L 192.269474 260.350526 
L 194.00807 252.664737 
L 195.746667 251.308421 
L 197.485263 264.419474 
L 199.22386 256.281579 
L 200.962456 259.446316 
L 202.701053 269.392632 
L 204.439649 256.733684 
L 206.178246 266.227895 
L 207.916842 268.036316 
L 209.655439 271.653158 
L 211.394035 258.994211 
L 213.132632 266.68 
L 214.871228 259.898421 
L 216.609825 268.940526 
L 218.348421 274.817895 
L 220.087018 274.365789 
L 221.825614 272.557368 
L 223.564211 272.557368 
L 225.302807 276.626316 
L 227.041404 293.354211 
L 228.78 305.108947 
L 230.518596 307.821579 
L 232.257193 297.875263 
L 233.995789 306.465263 
L 235.734386 299.683684 
L 237.472982 301.04 
L 239.211579 299.231579 
L 240.950175 300.135789 
L 242.688772 295.162632 
L 244.427368 291.545789 
L 246.165965 304.204737 
L 249.643158 301.492105 
L 251.381754 297.423158 
L 253.120351 296.518947 
L 254.858947 294.710526 
L 256.597544 297.875263 
L 258.33614 299.683684 
L 260.074737 291.545789 
L 261.813333 275.722105 
L 263.55193 273.461579 
L 265.290526 273.461579 
L 267.029123 275.722105 
L 268.767719 268.036316 
L 270.506316 277.078421 
L 272.244912 275.722105 
L 273.983509 277.078421 
L 275.722105 264.419474 
L 277.460702 258.542105 
L 279.199298 275.722105 
L 280.937895 269.844737 
L 282.676491 263.063158 
L 284.415088 273.913684 
L 286.153684 274.365789 
L 287.892281 273.913684 
L 289.630877 277.530526 
L 291.369474 271.653158 
L 293.10807 264.419474 
L 294.846667 263.063158 
L 296.585263 279.338947 
L 298.32386 264.419474 
L 300.062456 252.664737 
L 301.801053 264.419474 
L 303.539649 272.105263 
L 307.016842 273.009474 
L 308.755439 282.051579 
L 310.494035 292.902105 
L 312.232632 302.396316 
L 313.971228 299.231579 
L 315.709825 307.369474 
L 317.448421 298.327368 
L 319.187018 294.710526 
L 320.925614 297.875263 
L 322.664211 297.423158 
L 324.402807 297.423158 
L 326.141404 303.300526 
L 327.88 304.656842 
L 329.618596 311.890526 
L 331.357193 298.327368 
L 333.095789 312.342632 
L 334.834386 313.246842 
L 336.572982 313.246842 
L 338.311579 309.63 
L 340.050175 296.518947 
L 341.788772 295.162632 
L 343.527368 299.683684 
L 345.265965 301.492105 
L 347.004561 302.848421 
L 348.743158 292.45 
L 350.481754 291.997895 
L 352.220351 308.725789 
L 353.958947 310.986316 
L 355.697544 300.135789 
L 357.43614 301.944211 
L 360.913333 301.944211 
L 362.65193 308.273684 
L 364.390526 311.438421 
L 366.129123 322.741053 
L 367.867719 308.725789 
L 369.606316 308.725789 
L 371.344912 306.013158 
L 373.083509 308.273684 
L 374.822105 312.342632 
L 376.560702 314.603158 
L 378.299298 311.438421 
L 380.037895 310.986316 
L 381.776491 304.204737 
L 383.515088 315.507368 
L 385.253684 313.246842 
L 386.992281 313.246842 
L 388.730877 307.369474 
L 390.469474 315.507368 
L 392.20807 306.013158 
L 393.946667 303.752632 
L 395.685263 301.944211 
L 397.42386 297.875263 
L 399.162456 295.614737 
L 400.901053 297.423158 
L 402.639649 297.423158 
L 404.378246 307.821579 
L 406.116842 308.725789 
L 407.855439 306.013158 
L 409.594035 315.507368 
L 411.332632 315.507368 
L 413.071228 302.396316 
L 414.809825 301.944211 
L 416.548421 308.725789 
L 418.287018 310.082105 
L 420.025614 311.890526 
L 421.764211 303.300526 
L 423.502807 310.534211 
L 425.241404 308.273684 
L 426.98 317.767895 
L 428.718596 320.028421 
L 430.457193 317.767895 
L 432.195789 321.836842 
L 433.934386 318.22 
L 435.672982 318.22 
L 437.411579 335.4 
L 439.150175 335.4 
L 440.888772 334.947895 
L 442.627368 339.468947 
L 444.365965 336.304211 
L 446.104561 325.001579 
L 447.843158 334.043684 
L 449.581754 329.070526 
L 451.320351 325.905789 
L 453.058947 325.453684 
L 454.797544 323.645263 
L 456.53614 332.687368 
L 458.274737 324.097368 
L 460.013333 319.124211 
L 461.75193 316.863684 
L 463.490526 316.863684 
L 465.229123 320.480526 
L 466.967719 315.507368 
L 468.706316 321.384737 
L 470.444912 321.836842 
L 472.183509 316.863684 
L 473.922105 317.315789 
L 475.660702 302.396316 
L 477.399298 301.492105 
L 479.137895 303.300526 
L 480.876491 314.603158 
L 482.615088 321.384737 
L 484.353684 323.193158 
L 486.092281 324.549474 
L 487.830877 317.767895 
L 489.569474 303.300526 
L 491.30807 303.300526 
L 493.046667 311.890526 
L 494.785263 322.288947 
L 496.52386 324.549474 
L 498.262456 322.741053 
L 500.001053 322.741053 
L 501.739649 325.001579 
L 503.478246 325.001579 
L 506.955439 301.492105 
L 508.694035 301.492105 
L 510.432632 315.959474 
L 513.909825 317.767895 
L 515.648421 317.767895 
L 517.387018 312.794737 
L 519.125614 316.863684 
L 520.864211 318.672105 
L 522.602807 325.905789 
L 524.341404 338.564737 
L 526.08 337.660526 
L 527.818596 337.208421 
L 529.557193 323.645263 
L 531.295789 323.645263 
L 533.034386 314.603158 
L 534.772982 313.246842 
L 536.511579 315.507368 
L 538.250175 315.055263 
L 539.988772 326.81 
L 541.727368 343.085789 
L 543.465965 337.660526 
L 545.204561 331.331053 
L 546.943158 328.166316 
L 548.681754 328.618421 
L 550.420351 324.097368 
L 552.158947 329.974737 
L 553.897544 320.028421 
L 555.63614 314.151053 
L 557.374737 300.587895 
L 559.113333 304.204737 
L 560.85193 300.587895 
L 562.590526 291.093684 
L 564.329123 288.833158 
L 566.067719 277.982632 
L 567.806316 284.312105 
L 569.544912 274.817895 
L 571.283509 273.913684 
L 573.022105 257.185789 
L 574.760702 253.116842 
L 576.499298 246.335263 
L 578.237895 247.691579 
L 579.976491 249.952105 
L 583.453684 235.032632 
L 585.192281 230.511579 
L 586.930877 230.511579 
L 588.669474 223.73 
L 590.40807 226.442632 
L 592.146667 240.005789 
L 593.885263 226.442632 
L 595.62386 229.607368 
L 597.362456 237.745263 
L 599.101053 253.116842 
L 600.839649 263.063158 
L 602.578246 263.967368 
L 604.316842 271.653158 
L 606.055439 255.829474 
L 607.794035 263.515263 
L 609.532632 254.473158 
L 611.271228 244.526842 
L 613.009825 246.335263 
L 614.748421 247.691579 
L 616.487018 257.185789 
L 618.225614 253.116842 
L 619.964211 258.542105 
L 621.702807 252.212632 
L 623.441404 262.611053 
L 625.18 252.664737 
L 626.918596 236.388947 
L 628.657193 244.526842 
L 630.395789 230.511579 
L 632.134386 224.182105 
L 633.872982 219.208947 
L 635.611579 218.304737 
L 637.350175 220.565263 
L 639.088772 214.687895 
L 640.827368 229.155263 
L 642.565965 232.772105 
L 644.304561 244.978947 
L 646.043158 260.802632 
L 647.781754 257.637895 
L 649.520351 245.883158 
L 651.258947 244.074737 
L 652.997544 238.649474 
L 654.73614 225.086316 
L 656.474737 229.155263 
L 658.213333 230.511579 
L 659.95193 239.101579 
L 661.690526 252.664737 
L 663.429123 258.542105 
L 665.167719 256.733684 
L 666.906316 262.611053 
L 668.644912 267.132105 
L 670.383509 264.871579 
L 672.122105 265.775789 
L 673.860702 268.036316 
L 675.599298 269.844737 
L 679.076491 262.611053 
L 680.815088 262.158947 
L 682.553684 264.419474 
L 684.292281 273.913684 
L 686.030877 262.611053 
L 689.50807 292.45 
L 691.246667 294.710526 
L 692.985263 282.503684 
L 694.72386 285.668421 
L 696.462456 277.530526 
L 698.201053 275.27 
L 699.939649 289.285263 
L 701.678246 289.285263 
L 703.416842 284.764211 
L 705.155439 276.626316 
L 706.894035 264.419474 
L 708.632632 268.488421 
L 710.371228 268.940526 
L 712.109825 268.036316 
L 713.848421 268.036316 
L 715.587018 268.940526 
L 717.325614 271.201053 
L 719.064211 273.009474 
L 720.802807 285.216316 
L 722.541404 283.86 
L 724.28 274.365789 
L 724.28 274.365789 
" style="fill:none;stroke:#2ca02c;stroke-linecap:square;stroke-width:1.5;"/>
   </g>
   <g id="line2d_20">
    <path clip-path="url(#pf5bad7efcd)" d="M 63.613333 322.288947 
L 65.35193 331.331053 
L 67.090526 325.001579 
L 68.829123 321.836842 
L 72.306316 321.836842 
L 74.044912 314.151053 
L 75.783509 311.438421 
L 77.522105 312.794737 
L 79.260702 307.821579 
L 80.999298 309.177895 
L 82.737895 309.63 
L 84.476491 308.725789 
L 86.215088 308.725789 
L 87.953684 308.273684 
L 89.692281 312.342632 
L 91.430877 304.656842 
L 93.169474 305.108947 
L 94.90807 304.204737 
L 96.646667 302.848421 
L 98.385263 302.848421 
L 100.12386 305.561053 
L 101.862456 313.698947 
L 103.601053 316.863684 
L 105.339649 316.411579 
L 107.078246 311.438421 
L 108.816842 312.794737 
L 110.555439 316.863684 
L 112.294035 318.22 
L 114.032632 325.453684 
L 117.509825 324.549474 
L 119.248421 326.357895 
L 120.987018 325.001579 
L 122.725614 329.522632 
L 124.464211 329.070526 
L 126.202807 333.139474 
L 129.68 335.852105 
L 133.157193 334.043684 
L 134.895789 334.495789 
L 136.634386 325.905789 
L 138.372982 325.453684 
L 140.111579 324.549474 
L 141.850175 327.262105 
L 143.588772 333.139474 
L 145.327368 325.001579 
L 147.065965 323.193158 
L 148.804561 324.097368 
L 150.543158 316.411579 
L 152.281754 317.315789 
L 154.020351 304.656842 
L 155.758947 301.492105 
L 157.497544 301.492105 
L 159.23614 298.779474 
L 160.974737 300.135789 
L 162.713333 295.162632 
L 164.45193 293.354211 
L 166.190526 293.806316 
L 167.929123 295.614737 
L 169.667719 293.806316 
L 171.406316 301.944211 
L 173.144912 295.614737 
L 174.883509 297.423158 
L 176.622105 296.971053 
L 178.360702 296.066842 
L 180.099298 302.396316 
L 181.837895 304.204737 
L 183.576491 302.848421 
L 185.315088 302.848421 
L 187.053684 300.587895 
L 188.792281 313.246842 
L 190.530877 318.22 
L 192.269474 313.246842 
L 194.00807 317.315789 
L 195.746667 318.22 
L 197.485263 322.288947 
L 199.22386 324.097368 
L 200.962456 326.357895 
L 202.701053 325.453684 
L 204.439649 325.453684 
L 206.178246 326.81 
L 207.916842 335.4 
L 209.655439 336.756316 
L 211.394035 340.373158 
L 213.132632 344.894211 
L 214.871228 347.606842 
L 216.609825 348.511053 
L 218.348421 350.771579 
L 220.087018 361.622105 
L 221.825614 364.786842 
L 223.564211 365.691053 
L 225.302807 367.499474 
L 227.041404 373.376842 
L 228.78 374.281053 
L 230.518596 377.445789 
L 232.257193 379.706316 
L 233.995789 380.610526 
L 235.734386 381.966842 
L 237.472982 383.775263 
L 239.211579 386.94 
L 376.560702 386.94 
L 378.299298 381.062632 
L 411.332632 381.062632 
L 413.071228 386.94 
L 550.420351 386.94 
L 552.158947 375.185263 
L 553.897544 370.212105 
L 555.63614 368.403684 
L 557.374737 367.951579 
L 559.113333 363.430526 
L 560.85193 359.361579 
L 562.590526 349.415263 
L 564.329123 346.702632 
L 566.067719 344.894211 
L 567.806316 339.921053 
L 569.544912 339.016842 
L 571.283509 337.660526 
L 573.022105 326.81 
L 574.760702 323.645263 
L 576.499298 320.932632 
L 578.237895 318.672105 
L 579.976491 315.507368 
L 581.715088 314.603158 
L 583.453684 305.561053 
L 585.192281 305.108947 
L 586.930877 315.055263 
L 588.669474 319.576316 
L 592.146667 318.672105 
L 593.885263 319.124211 
L 595.62386 315.507368 
L 597.362456 325.001579 
L 599.101053 323.193158 
L 600.839649 320.932632 
L 602.578246 325.001579 
L 604.316842 323.193158 
L 606.055439 320.932632 
L 607.794035 331.331053 
L 609.532632 334.043684 
L 611.271228 331.331053 
L 613.009825 331.783158 
L 614.748421 334.495789 
L 616.487018 331.331053 
L 618.225614 338.564737 
L 619.964211 336.756316 
L 621.702807 333.139474 
L 623.441404 333.139474 
L 625.18 329.974737 
L 626.918596 327.262105 
L 628.657193 329.974737 
L 630.395789 329.070526 
L 632.134386 329.070526 
L 633.872982 331.331053 
L 635.611579 330.426842 
L 637.350175 328.618421 
L 639.088772 329.974737 
L 640.827368 330.426842 
L 642.565965 329.522632 
L 644.304561 329.070526 
L 646.043158 325.905789 
L 647.781754 319.576316 
L 649.520351 316.863684 
L 651.258947 320.480526 
L 652.997544 317.767895 
L 654.73614 316.863684 
L 656.474737 316.863684 
L 658.213333 314.603158 
L 659.95193 312.794737 
L 661.690526 315.959474 
L 663.429123 316.863684 
L 665.167719 324.549474 
L 666.906316 321.384737 
L 668.644912 323.193158 
L 670.383509 323.193158 
L 672.122105 323.645263 
L 673.860702 321.836842 
L 675.599298 324.097368 
L 677.337895 325.001579 
L 679.076491 323.645263 
L 680.815088 331.331053 
L 682.553684 335.852105 
L 684.292281 338.564737 
L 686.030877 333.139474 
L 687.769474 335.4 
L 689.50807 334.495789 
L 691.246667 336.756316 
L 692.985263 335.852105 
L 694.72386 339.016842 
L 696.462456 339.016842 
L 698.201053 338.112632 
L 699.939649 335.852105 
L 701.678246 335.852105 
L 703.416842 334.495789 
L 705.155439 339.016842 
L 706.894035 337.660526 
L 710.371228 333.139474 
L 712.109825 333.139474 
L 713.848421 334.495789 
L 715.587018 334.947895 
L 717.325614 334.043684 
L 719.064211 334.043684 
L 720.802807 332.687368 
L 722.541404 332.687368 
L 724.28 329.070526 
L 724.28 329.070526 
" style="fill:none;stroke:#d62728;stroke-linecap:square;stroke-width:1.5;"/>
   </g>
   <g id="line2d_21">
    <path clip-path="url(#pf5bad7efcd)" d="M 63.613333 356.196842 
L 65.35193 368.855789 
L 202.701053 368.855789 
L 237.472982 386.94 
L 376.560702 386.94 
L 378.299298 369.76 
L 380.037895 357.101053 
L 381.776491 354.840526 
L 411.332632 354.840526 
L 413.071228 372.020526 
L 414.809825 384.679474 
L 416.548421 386.94 
L 550.420351 386.94 
L 552.158947 376.089474 
L 585.192281 367.499474 
L 586.930877 377.897895 
L 724.28 377.897895 
L 724.28 377.897895 
" style="fill:none;stroke:#9467bd;stroke-linecap:square;stroke-width:1.5;"/>
   </g>
   <g id="patch_3">
    <path d="M 30.58 404.12 
L 30.58 26.16 
" style="fill:none;stroke:#000000;stroke-linecap:square;stroke-linejoin:miter;stroke-width:0.8;"/>
   </g>
   <g id="patch_4">
    <path d="M 724.28 404.12 
L 724.28 26.16 
" style="fill:none;stroke:#000000;stroke-linecap:square;stroke-linejoin:miter;stroke-width:0.8;"/>
   </g>
   <g id="patch_5">
    <path d="M 30.58 404.12 
L 724.28 404.12 
" style="fill:none;stroke:#000000;stroke-linecap:square;stroke-linejoin:miter;stroke-width:0.8;"/>
   </g>
   <g id="patch_6">
    <path d="M 30.58 26.16 
L 724.28 26.16 
" style="fill:none;stroke:#000000;stroke-linecap:square;stroke-linejoin:miter;stroke-width:0.8;"/>
   </g>
   <g id="text_17">
    <!-- multi_way_v0: episode duration, steps, MA=20 -->
    <defs>
     <path d="M 52 44.1875 
Q 55.375 50.25 60.0625 53.125 
Q 64.75 56 71.09375 56 
Q 79.640625 56 84.28125 50.015625 
Q 88.921875 44.046875 88.921875 33.015625 
L 88.921875 0 
L 79.890625 0 
L 79.890625 32.71875 
Q 79.890625 40.578125 77.09375 44.375 
Q 74.3125 48.1875 68.609375 48.1875 
Q 61.625 48.1875 57.5625 43.546875 
Q 53.515625 38.921875 53.515625 30.90625 
L 53.515625 0 
L 44.484375 0 
L 44.484375 32.71875 
Q 44.484375 40.625 41.703125 44.40625 
Q 38.921875 48.1875 33.109375 48.1875 
Q 26.21875 48.1875 22.15625 43.53125 
Q 18.109375 38.875 18.109375 30.90625 
L 18.109375 0 
L 9.078125 0 
L 9.078125 54.6875 
L 18.109375 54.6875 
L 18.109375 46.1875 
Q 21.1875 51.21875 25.484375 53.609375 
Q 29.78125 56 35.6875 56 
Q 41.65625 56 45.828125 52.96875 
Q 50 49.953125 52 44.1875 
z
" id="DejaVuSans-109"/>
     <path d="M 8.5 21.578125 
L 8.5 54.6875 
L 17.484375 54.6875 
L 17.484375 21.921875 
Q 17.484375 14.15625 20.5 10.265625 
Q 23.53125 6.390625 29.59375 6.390625 
Q 36.859375 6.390625 41.078125 11.03125 
Q 45.3125 15.671875 45.3125 23.6875 
L 45.3125 54.6875 
L 54.296875 54.6875 
L 54.296875 0 
L 45.3125 0 
L 45.3125 8.40625 
Q 42.046875 3.421875 37.71875 1 
Q 33.40625 -1.421875 27.6875 -1.421875 
Q 18.265625 -1.421875 13.375 4.4375 
Q 8.5 10.296875 8.5 21.578125 
z
M 31.109375 56 
z
" id="DejaVuSans-117"/>
     <path d="M 9.421875 75.984375 
L 18.40625 75.984375 
L 18.40625 0 
L 9.421875 0 
z
" id="DejaVuSans-108"/>
     <path d="M 18.3125 70.21875 
L 18.3125 54.6875 
L 36.8125 54.6875 
L 36.8125 47.703125 
L 18.3125 47.703125 
L 18.3125 18.015625 
Q 18.3125 11.328125 20.140625 9.421875 
Q 21.96875 7.515625 27.59375 7.515625 
L 36.8125 7.515625 
L 36.8125 0 
L 27.59375 0 
Q 17.1875 0 13.234375 3.875 
Q 9.28125 7.765625 9.28125 18.015625 
L 9.28125 47.703125 
L 2.6875 47.703125 
L 2.6875 54.6875 
L 9.28125 54.6875 
L 9.28125 70.21875 
z
" id="DejaVuSans-116"/>
     <path d="M 9.421875 54.6875 
L 18.40625 54.6875 
L 18.40625 0 
L 9.421875 0 
z
M 9.421875 75.984375 
L 18.40625 75.984375 
L 18.40625 64.59375 
L 9.421875 64.59375 
z
" id="DejaVuSans-105"/>
     <path d="M 50.984375 -16.609375 
L 50.984375 -23.578125 
L -0.984375 -23.578125 
L -0.984375 -16.609375 
z
" id="DejaVuSans-95"/>
     <path d="M 4.203125 54.6875 
L 13.1875 54.6875 
L 24.421875 12.015625 
L 35.59375 54.6875 
L 46.1875 54.6875 
L 57.421875 12.015625 
L 68.609375 54.6875 
L 77.59375 54.6875 
L 63.28125 0 
L 52.6875 0 
L 40.921875 44.828125 
L 29.109375 0 
L 18.5 0 
z
" id="DejaVuSans-119"/>
     <path d="M 34.28125 27.484375 
Q 23.390625 27.484375 19.1875 25 
Q 14.984375 22.515625 14.984375 16.5 
Q 14.984375 11.71875 18.140625 8.90625 
Q 21.296875 6.109375 26.703125 6.109375 
Q 34.1875 6.109375 38.703125 11.40625 
Q 43.21875 16.703125 43.21875 25.484375 
L 43.21875 27.484375 
z
M 52.203125 31.203125 
L 52.203125 0 
L 43.21875 0 
L 43.21875 8.296875 
Q 40.140625 3.328125 35.546875 0.953125 
Q 30.953125 -1.421875 24.3125 -1.421875 
Q 15.921875 -1.421875 10.953125 3.296875 
Q 6 8.015625 6 15.921875 
Q 6 25.140625 12.171875 29.828125 
Q 18.359375 34.515625 30.609375 34.515625 
L 43.21875 34.515625 
L 43.21875 35.40625 
Q 43.21875 41.609375 39.140625 45 
Q 35.0625 48.390625 27.6875 48.390625 
Q 23 48.390625 18.546875 47.265625 
Q 14.109375 46.140625 10.015625 43.890625 
L 10.015625 52.203125 
Q 14.9375 54.109375 19.578125 55.046875 
Q 24.21875 56 28.609375 56 
Q 40.484375 56 46.34375 49.84375 
Q 52.203125 43.703125 52.203125 31.203125 
z
" id="DejaVuSans-97"/>
     <path d="M 32.171875 -5.078125 
Q 28.375 -14.84375 24.75 -17.8125 
Q 21.140625 -20.796875 15.09375 -20.796875 
L 7.90625 -20.796875 
L 7.90625 -13.28125 
L 13.1875 -13.28125 
Q 16.890625 -13.28125 18.9375 -11.515625 
Q 21 -9.765625 23.484375 -3.21875 
L 25.09375 0.875 
L 2.984375 54.6875 
L 12.5 54.6875 
L 29.59375 11.921875 
L 46.6875 54.6875 
L 56.203125 54.6875 
z
" id="DejaVuSans-121"/>
     <path d="M 2.984375 54.6875 
L 12.5 54.6875 
L 29.59375 8.796875 
L 46.6875 54.6875 
L 56.203125 54.6875 
L 35.6875 0 
L 23.484375 0 
z
" id="DejaVuSans-118"/>
     <path d="M 11.71875 12.40625 
L 22.015625 12.40625 
L 22.015625 0 
L 11.71875 0 
z
M 11.71875 51.703125 
L 22.015625 51.703125 
L 22.015625 39.3125 
L 11.71875 39.3125 
z
" id="DejaVuSans-58"/>
     <path id="DejaVuSans-32"/>
     <path d="M 56.203125 29.59375 
L 56.203125 25.203125 
L 14.890625 25.203125 
Q 15.484375 15.921875 20.484375 11.0625 
Q 25.484375 6.203125 34.421875 6.203125 
Q 39.59375 6.203125 44.453125 7.46875 
Q 49.3125 8.734375 54.109375 11.28125 
L 54.109375 2.78125 
Q 49.265625 0.734375 44.1875 -0.34375 
Q 39.109375 -1.421875 33.890625 -1.421875 
Q 20.796875 -1.421875 13.15625 6.1875 
Q 5.515625 13.8125 5.515625 26.8125 
Q 5.515625 40.234375 12.765625 48.109375 
Q 20.015625 56 32.328125 56 
Q 43.359375 56 49.78125 48.890625 
Q 56.203125 41.796875 56.203125 29.59375 
z
M 47.21875 32.234375 
Q 47.125 39.59375 43.09375 43.984375 
Q 39.0625 48.390625 32.421875 48.390625 
Q 24.90625 48.390625 20.390625 44.140625 
Q 15.875 39.890625 15.1875 32.171875 
z
" id="DejaVuSans-101"/>
     <path d="M 18.109375 8.203125 
L 18.109375 -20.796875 
L 9.078125 -20.796875 
L 9.078125 54.6875 
L 18.109375 54.6875 
L 18.109375 46.390625 
Q 20.953125 51.265625 25.265625 53.625 
Q 29.59375 56 35.59375 56 
Q 45.5625 56 51.78125 48.09375 
Q 58.015625 40.1875 58.015625 27.296875 
Q 58.015625 14.40625 51.78125 6.484375 
Q 45.5625 -1.421875 35.59375 -1.421875 
Q 29.59375 -1.421875 25.265625 0.953125 
Q 20.953125 3.328125 18.109375 8.203125 
z
M 48.6875 27.296875 
Q 48.6875 37.203125 44.609375 42.84375 
Q 40.53125 48.484375 33.40625 48.484375 
Q 26.265625 48.484375 22.1875 42.84375 
Q 18.109375 37.203125 18.109375 27.296875 
Q 18.109375 17.390625 22.1875 11.75 
Q 26.265625 6.109375 33.40625 6.109375 
Q 40.53125 6.109375 44.609375 11.75 
Q 48.6875 17.390625 48.6875 27.296875 
z
" id="DejaVuSans-112"/>
     <path d="M 44.28125 53.078125 
L 44.28125 44.578125 
Q 40.484375 46.53125 36.375 47.5 
Q 32.28125 48.484375 27.875 48.484375 
Q 21.1875 48.484375 17.84375 46.4375 
Q 14.5 44.390625 14.5 40.28125 
Q 14.5 37.15625 16.890625 35.375 
Q 19.28125 33.59375 26.515625 31.984375 
L 29.59375 31.296875 
Q 39.15625 29.25 43.1875 25.515625 
Q 47.21875 21.78125 47.21875 15.09375 
Q 47.21875 7.46875 41.1875 3.015625 
Q 35.15625 -1.421875 24.609375 -1.421875 
Q 20.21875 -1.421875 15.453125 -0.5625 
Q 10.6875 0.296875 5.421875 2 
L 5.421875 11.28125 
Q 10.40625 8.6875 15.234375 7.390625 
Q 20.0625 6.109375 24.8125 6.109375 
Q 31.15625 6.109375 34.5625 8.28125 
Q 37.984375 10.453125 37.984375 14.40625 
Q 37.984375 18.0625 35.515625 20.015625 
Q 33.0625 21.96875 24.703125 23.78125 
L 21.578125 24.515625 
Q 13.234375 26.265625 9.515625 29.90625 
Q 5.8125 33.546875 5.8125 39.890625 
Q 5.8125 47.609375 11.28125 51.796875 
Q 16.75 56 26.8125 56 
Q 31.78125 56 36.171875 55.265625 
Q 40.578125 54.546875 44.28125 53.078125 
z
" id="DejaVuSans-115"/>
     <path d="M 30.609375 48.390625 
Q 23.390625 48.390625 19.1875 42.75 
Q 14.984375 37.109375 14.984375 27.296875 
Q 14.984375 17.484375 19.15625 11.84375 
Q 23.34375 6.203125 30.609375 6.203125 
Q 37.796875 6.203125 41.984375 11.859375 
Q 46.1875 17.53125 46.1875 27.296875 
Q 46.1875 37.015625 41.984375 42.703125 
Q 37.796875 48.390625 30.609375 48.390625 
z
M 30.609375 56 
Q 42.328125 56 49.015625 48.375 
Q 55.71875 40.765625 55.71875 27.296875 
Q 55.71875 13.875 49.015625 6.21875 
Q 42.328125 -1.421875 30.609375 -1.421875 
Q 18.84375 -1.421875 12.171875 6.21875 
Q 5.515625 13.875 5.515625 27.296875 
Q 5.515625 40.765625 12.171875 48.375 
Q 18.84375 56 30.609375 56 
z
" id="DejaVuSans-111"/>
     <path d="M 45.40625 46.390625 
L 45.40625 75.984375 
L 54.390625 75.984375 
L 54.390625 0 
L 45.40625 0 
L 45.40625 8.203125 
Q 42.578125 3.328125 38.25 0.953125 
Q 33.9375 -1.421875 27.875 -1.421875 
Q 17.96875 -1.421875 11.734375 6.484375 
Q 5.515625 14.40625 5.515625 27.296875 
Q 5.515625 40.1875 11.734375 48.09375 
Q 17.96875 56 27.875 56 
Q 33.9375 56 38.25 53.625 
Q 42.578125 51.265625 45.40625 46.390625 
z
M 14.796875 27.296875 
Q 14.796875 17.390625 18.875 11.75 
Q 22.953125 6.109375 30.078125 6.109375 
Q 37.203125 6.109375 41.296875 11.75 
Q 45.40625 17.390625 45.40625 27.296875 
Q 45.40625 37.203125 41.296875 42.84375 
Q 37.203125 48.484375 30.078125 48.484375 
Q 22.953125 48.484375 18.875 42.84375 
Q 14.796875 37.203125 14.796875 27.296875 
z
" id="DejaVuSans-100"/>
     <path d="M 41.109375 46.296875 
Q 39.59375 47.171875 37.8125 47.578125 
Q 36.03125 48 33.890625 48 
Q 26.265625 48 22.1875 43.046875 
Q 18.109375 38.09375 18.109375 28.8125 
L 18.109375 0 
L 9.078125 0 
L 9.078125 54.6875 
L 18.109375 54.6875 
L 18.109375 46.1875 
Q 20.953125 51.171875 25.484375 53.578125 
Q 30.03125 56 36.53125 56 
Q 37.453125 56 38.578125 55.875 
Q 39.703125 55.765625 41.0625 55.515625 
z
" id="DejaVuSans-114"/>
     <path d="M 54.890625 33.015625 
L 54.890625 0 
L 45.90625 0 
L 45.90625 32.71875 
Q 45.90625 40.484375 42.875 44.328125 
Q 39.84375 48.1875 33.796875 48.1875 
Q 26.515625 48.1875 22.3125 43.546875 
Q 18.109375 38.921875 18.109375 30.90625 
L 18.109375 0 
L 9.078125 0 
L 9.078125 54.6875 
L 18.109375 54.6875 
L 18.109375 46.1875 
Q 21.34375 51.125 25.703125 53.5625 
Q 30.078125 56 35.796875 56 
Q 45.21875 56 50.046875 50.171875 
Q 54.890625 44.34375 54.890625 33.015625 
z
" id="DejaVuSans-110"/>
     <path d="M 11.71875 12.40625 
L 22.015625 12.40625 
L 22.015625 4 
L 14.015625 -11.625 
L 7.71875 -11.625 
L 11.71875 4 
z
" id="DejaVuSans-44"/>
     <path d="M 9.8125 72.90625 
L 24.515625 72.90625 
L 43.109375 23.296875 
L 61.8125 72.90625 
L 76.515625 72.90625 
L 76.515625 0 
L 66.890625 0 
L 66.890625 64.015625 
L 48.09375 14.015625 
L 38.1875 14.015625 
L 19.390625 64.015625 
L 19.390625 0 
L 9.8125 0 
z
" id="DejaVuSans-77"/>
     <path d="M 34.1875 63.1875 
L 20.796875 26.90625 
L 47.609375 26.90625 
z
M 28.609375 72.90625 
L 39.796875 72.90625 
L 67.578125 0 
L 57.328125 0 
L 50.6875 18.703125 
L 17.828125 18.703125 
L 11.1875 0 
L 0.78125 0 
z
" id="DejaVuSans-65"/>
     <path d="M 10.59375 45.40625 
L 73.1875 45.40625 
L 73.1875 37.203125 
L 10.59375 37.203125 
z
M 10.59375 25.484375 
L 73.1875 25.484375 
L 73.1875 17.1875 
L 10.59375 17.1875 
z
" id="DejaVuSans-61"/>
    </defs>
    <g transform="translate(236.369062 20.16)scale(0.12 -0.12)">
     <use xlink:href="#DejaVuSans-109"/>
     <use x="97.412109" xlink:href="#DejaVuSans-117"/>
     <use x="160.791016" xlink:href="#DejaVuSans-108"/>
     <use x="188.574219" xlink:href="#DejaVuSans-116"/>
     <use x="227.783203" xlink:href="#DejaVuSans-105"/>
     <use x="255.566406" xlink:href="#DejaVuSans-95"/>
     <use x="305.566406" xlink:href="#DejaVuSans-119"/>
     <use x="387.353516" xlink:href="#DejaVuSans-97"/>
     <use x="448.632812" xlink:href="#DejaVuSans-121"/>
     <use x="507.8125" xlink:href="#DejaVuSans-95"/>
     <use x="557.8125" xlink:href="#DejaVuSans-118"/>
     <use x="616.992188" xlink:href="#DejaVuSans-48"/>
     <use x="680.615234" xlink:href="#DejaVuSans-58"/>
     <use x="714.306641" xlink:href="#DejaVuSans-32"/>
     <use x="746.09375" xlink:href="#DejaVuSans-101"/>
     <use x="807.617188" xlink:href="#DejaVuSans-112"/>
     <use x="871.09375" xlink:href="#DejaVuSans-105"/>
     <use x="898.876953" xlink:href="#DejaVuSans-115"/>
     <use x="950.976562" xlink:href="#DejaVuSans-111"/>
     <use x="1012.158203" xlink:href="#DejaVuSans-100"/>
     <use x="1075.634766" xlink:href="#DejaVuSans-101"/>
     <use x="1137.158203" xlink:href="#DejaVuSans-32"/>
     <use x="1168.945312" xlink:href="#DejaVuSans-100"/>
     <use x="1232.421875" xlink:href="#DejaVuSans-117"/>
     <use x="1295.800781" xlink:href="#DejaVuSans-114"/>
     <use x="1336.914062" xlink:href="#DejaVuSans-97"/>
     <use x="1398.193359" xlink:href="#DejaVuSans-116"/>
     <use x="1437.402344" xlink:href="#DejaVuSans-105"/>
     <use x="1465.185547" xlink:href="#DejaVuSans-111"/>
     <use x="1526.367188" xlink:href="#DejaVuSans-110"/>
     <use x="1589.746094" xlink:href="#DejaVuSans-44"/>
     <use x="1621.533203" xlink:href="#DejaVuSans-32"/>
     <use x="1653.320312" xlink:href="#DejaVuSans-115"/>
     <use x="1705.419922" xlink:href="#DejaVuSans-116"/>
     <use x="1744.628906" xlink:href="#DejaVuSans-101"/>
     <use x="1806.152344" xlink:href="#DejaVuSans-112"/>
     <use x="1869.628906" xlink:href="#DejaVuSans-115"/>
     <use x="1921.728516" xlink:href="#DejaVuSans-44"/>
     <use x="1953.515625" xlink:href="#DejaVuSans-32"/>
     <use x="1985.302734" xlink:href="#DejaVuSans-77"/>
     <use x="2071.582031" xlink:href="#DejaVuSans-65"/>
     <use x="2139.990234" xlink:href="#DejaVuSans-61"/>
     <use x="2223.779297" xlink:href="#DejaVuSans-50"/>
     <use x="2287.402344" xlink:href="#DejaVuSans-48"/>
    </g>
   </g>
   <g id="legend_1">
    <g id="patch_7">
     <path d="M 764.955937 254.030625 
L 856.02 254.030625 
Q 858.02 254.030625 858.02 252.030625 
L 858.02 178.249375 
Q 858.02 176.249375 856.02 176.249375 
L 764.955937 176.249375 
Q 762.955937 176.249375 762.955937 178.249375 
L 762.955937 252.030625 
Q 762.955937 254.030625 764.955937 254.030625 
z
" style="fill:#ffffff;opacity:0.8;stroke:#cccccc;stroke-linejoin:miter;"/>
    </g>
    <g id="line2d_22">
     <path d="M 766.955937 184.347812 
L 786.955937 184.347812 
" style="fill:none;stroke:#1f77b4;stroke-linecap:square;stroke-width:1.5;"/>
    </g>
    <g id="line2d_23"/>
    <g id="text_18">
     <!-- htm_0 -->
     <defs>
      <path d="M 54.890625 33.015625 
L 54.890625 0 
L 45.90625 0 
L 45.90625 32.71875 
Q 45.90625 40.484375 42.875 44.328125 
Q 39.84375 48.1875 33.796875 48.1875 
Q 26.515625 48.1875 22.3125 43.546875 
Q 18.109375 38.921875 18.109375 30.90625 
L 18.109375 0 
L 9.078125 0 
L 9.078125 75.984375 
L 18.109375 75.984375 
L 18.109375 46.1875 
Q 21.34375 51.125 25.703125 53.5625 
Q 30.078125 56 35.796875 56 
Q 45.21875 56 50.046875 50.171875 
Q 54.890625 44.34375 54.890625 33.015625 
z
" id="DejaVuSans-104"/>
     </defs>
     <g transform="translate(794.955937 187.847812)scale(0.1 -0.1)">
      <use xlink:href="#DejaVuSans-104"/>
      <use x="63.378906" xlink:href="#DejaVuSans-116"/>
      <use x="102.587891" xlink:href="#DejaVuSans-109"/>
      <use x="200" xlink:href="#DejaVuSans-95"/>
      <use x="250" xlink:href="#DejaVuSans-48"/>
     </g>
    </g>
    <g id="line2d_24">
     <path d="M 766.955937 199.304062 
L 786.955937 199.304062 
" style="fill:none;stroke:#ff7f0e;stroke-linecap:square;stroke-width:1.5;"/>
    </g>
    <g id="line2d_25"/>
    <g id="text_19">
     <!-- dqn_greedy -->
     <defs>
      <path d="M 14.796875 27.296875 
Q 14.796875 17.390625 18.875 11.75 
Q 22.953125 6.109375 30.078125 6.109375 
Q 37.203125 6.109375 41.296875 11.75 
Q 45.40625 17.390625 45.40625 27.296875 
Q 45.40625 37.203125 41.296875 42.84375 
Q 37.203125 48.484375 30.078125 48.484375 
Q 22.953125 48.484375 18.875 42.84375 
Q 14.796875 37.203125 14.796875 27.296875 
z
M 45.40625 8.203125 
Q 42.578125 3.328125 38.25 0.953125 
Q 33.9375 -1.421875 27.875 -1.421875 
Q 17.96875 -1.421875 11.734375 6.484375 
Q 5.515625 14.40625 5.515625 27.296875 
Q 5.515625 40.1875 11.734375 48.09375 
Q 17.96875 56 27.875 56 
Q 33.9375 56 38.25 53.625 
Q 42.578125 51.265625 45.40625 46.390625 
L 45.40625 54.6875 
L 54.390625 54.6875 
L 54.390625 -20.796875 
L 45.40625 -20.796875 
z
" id="DejaVuSans-113"/>
      <path d="M 45.40625 27.984375 
Q 45.40625 37.75 41.375 43.109375 
Q 37.359375 48.484375 30.078125 48.484375 
Q 22.859375 48.484375 18.828125 43.109375 
Q 14.796875 37.75 14.796875 27.984375 
Q 14.796875 18.265625 18.828125 12.890625 
Q 22.859375 7.515625 30.078125 7.515625 
Q 37.359375 7.515625 41.375 12.890625 
Q 45.40625 18.265625 45.40625 27.984375 
z
M 54.390625 6.78125 
Q 54.390625 -7.171875 48.1875 -13.984375 
Q 42 -20.796875 29.203125 -20.796875 
Q 24.46875 -20.796875 20.265625 -20.09375 
Q 16.0625 -19.390625 12.109375 -17.921875 
L 12.109375 -9.1875 
Q 16.0625 -11.328125 19.921875 -12.34375 
Q 23.78125 -13.375 27.78125 -13.375 
Q 36.625 -13.375 41.015625 -8.765625 
Q 45.40625 -4.15625 45.40625 5.171875 
L 45.40625 9.625 
Q 42.625 4.78125 38.28125 2.390625 
Q 33.9375 0 27.875 0 
Q 17.828125 0 11.671875 7.65625 
Q 5.515625 15.328125 5.515625 27.984375 
Q 5.515625 40.671875 11.671875 48.328125 
Q 17.828125 56 27.875 56 
Q 33.9375 56 38.28125 53.609375 
Q 42.625 51.21875 45.40625 46.390625 
L 45.40625 54.6875 
L 54.390625 54.6875 
z
" id="DejaVuSans-103"/>
     </defs>
     <g transform="translate(794.955937 202.804062)scale(0.1 -0.1)">
      <use xlink:href="#DejaVuSans-100"/>
      <use x="63.476562" xlink:href="#DejaVuSans-113"/>
      <use x="126.953125" xlink:href="#DejaVuSans-110"/>
      <use x="190.332031" xlink:href="#DejaVuSans-95"/>
      <use x="240.332031" xlink:href="#DejaVuSans-103"/>
      <use x="303.808594" xlink:href="#DejaVuSans-114"/>
      <use x="344.890625" xlink:href="#DejaVuSans-101"/>
      <use x="406.414062" xlink:href="#DejaVuSans-101"/>
      <use x="467.9375" xlink:href="#DejaVuSans-100"/>
      <use x="531.414062" xlink:href="#DejaVuSans-121"/>
     </g>
    </g>
    <g id="line2d_26">
     <path d="M 766.955937 214.260312 
L 786.955937 214.260312 
" style="fill:none;stroke:#2ca02c;stroke-linecap:square;stroke-width:1.5;"/>
    </g>
    <g id="line2d_27"/>
    <g id="text_20">
     <!-- htm_1_1g -->
     <g transform="translate(794.955937 217.760312)scale(0.1 -0.1)">
      <use xlink:href="#DejaVuSans-104"/>
      <use x="63.378906" xlink:href="#DejaVuSans-116"/>
      <use x="102.587891" xlink:href="#DejaVuSans-109"/>
      <use x="200" xlink:href="#DejaVuSans-95"/>
      <use x="250" xlink:href="#DejaVuSans-49"/>
      <use x="313.623047" xlink:href="#DejaVuSans-95"/>
      <use x="363.623047" xlink:href="#DejaVuSans-49"/>
      <use x="427.246094" xlink:href="#DejaVuSans-103"/>
     </g>
    </g>
    <g id="line2d_28">
     <path d="M 766.955937 229.216562 
L 786.955937 229.216562 
" style="fill:none;stroke:#d62728;stroke-linecap:square;stroke-width:1.5;"/>
    </g>
    <g id="line2d_29"/>
    <g id="text_21">
     <!-- htm_2_1g -->
     <g transform="translate(794.955937 232.716562)scale(0.1 -0.1)">
      <use xlink:href="#DejaVuSans-104"/>
      <use x="63.378906" xlink:href="#DejaVuSans-116"/>
      <use x="102.587891" xlink:href="#DejaVuSans-109"/>
      <use x="200" xlink:href="#DejaVuSans-95"/>
      <use x="250" xlink:href="#DejaVuSans-50"/>
      <use x="313.623047" xlink:href="#DejaVuSans-95"/>
      <use x="363.623047" xlink:href="#DejaVuSans-49"/>
      <use x="427.246094" xlink:href="#DejaVuSans-103"/>
     </g>
    </g>
    <g id="line2d_30">
     <path d="M 766.955937 244.172812 
L 786.955937 244.172812 
" style="fill:none;stroke:#9467bd;stroke-linecap:square;stroke-width:1.5;"/>
    </g>
    <g id="line2d_31"/>
    <g id="text_22">
     <!-- htm_4_1g -->
     <g transform="translate(794.955937 247.672812)scale(0.1 -0.1)">
      <use xlink:href="#DejaVuSans-104"/>
      <use x="63.378906" xlink:href="#DejaVuSans-116"/>
      <use x="102.587891" xlink:href="#DejaVuSans-109"/>
      <use x="200" xlink:href="#DejaVuSans-95"/>
      <use x="250" xlink:href="#DejaVuSans-52"/>
      <use x="313.623047" xlink:href="#DejaVuSans-95"/>
      <use x="363.623047" xlink:href="#DejaVuSans-49"/>
      <use x="427.246094" xlink:href="#DejaVuSans-103"/>
     </g>
    </g>
   </g>
  </g>
 </g>
 <defs>
  <clipPath id="pf5bad7efcd">
   <rect height="377.96" width="693.7" x="30.58" y="26.16"/>
  </clipPath>
 </defs>
</svg>
