<?xml version="1.0" encoding="utf-8" standalone="no"?>
<!DOCTYPE svg PUBLIC "-//W3C//DTD SVG 1.1//EN"
  "http://www.w3.org/Graphics/SVG/1.1/DTD/svg11.dtd">
<!-- Created with matplotlib (https://matplotlib.org/) -->
<svg height="432pt" version="1.1" viewBox="0 0 864 432" width="864pt" xmlns="http://www.w3.org/2000/svg" xmlns:xlink="http://www.w3.org/1999/xlink">
 <defs>
  <style type="text/css">
*{stroke-linecap:butt;stroke-linejoin:round;}
  </style>
 </defs>
 <g id="figure_1">
  <g id="patch_1">
   <path d="M 0 432 
L 864 432 
L 864 0 
L 0 0 
z
" style="fill:#ffffff;"/>
  </g>
  <g id="axes_1">
   <g id="patch_2">
    <path d="M 30.58 404.12 
L 724.28 404.12 
L 724.28 26.16 
L 30.58 26.16 
z
" style="fill:#ffffff;"/>
   </g>
   <g id="matplotlib.axis_1">
    <g id="xtick_1">
     <g id="line2d_1">
      <defs>
       <path d="M 0 0 
L 0 3.5 
" id="mdfc7e50239" style="stroke:#000000;stroke-width:0.8;"/>
      </defs>
      <g>
       <use style="stroke:#000000;stroke-width:0.8;" x="30.58" xlink:href="#mdfc7e50239" y="404.12"/>
      </g>
     </g>
     <g id="text_1">
      <!-- 0 -->
      <defs>
       <path d="M 31.78125 66.40625 
Q 24.171875 66.40625 20.328125 58.90625 
Q 16.5 51.421875 16.5 36.375 
Q 16.5 21.390625 20.328125 13.890625 
Q 24.171875 6.390625 31.78125 6.390625 
Q 39.453125 6.390625 43.28125 13.890625 
Q 47.125 21.390625 47.125 36.375 
Q 47.125 51.421875 43.28125 58.90625 
Q 39.453125 66.40625 31.78125 66.40625 
z
M 31.78125 74.21875 
Q 44.046875 74.21875 50.515625 64.515625 
Q 56.984375 54.828125 56.984375 36.375 
Q 56.984375 17.96875 50.515625 8.265625 
Q 44.046875 -1.421875 31.78125 -1.421875 
Q 19.53125 -1.421875 13.0625 8.265625 
Q 6.59375 17.96875 6.59375 36.375 
Q 6.59375 54.828125 13.0625 64.515625 
Q 19.53125 74.21875 31.78125 74.21875 
z
" id="DejaVuSans-48"/>
      </defs>
      <g transform="translate(27.39875 418.718437)scale(0.1 -0.1)">
       <use xlink:href="#DejaVuSans-48"/>
      </g>
     </g>
    </g>
    <g id="xtick_2">
     <g id="line2d_2">
      <g>
       <use style="stroke:#000000;stroke-width:0.8;" x="146.389683" xlink:href="#mdfc7e50239" y="404.12"/>
      </g>
     </g>
     <g id="text_2">
      <!-- 100 -->
      <defs>
       <path d="M 12.40625 8.296875 
L 28.515625 8.296875 
L 28.515625 63.921875 
L 10.984375 60.40625 
L 10.984375 69.390625 
L 28.421875 72.90625 
L 38.28125 72.90625 
L 38.28125 8.296875 
L 54.390625 8.296875 
L 54.390625 0 
L 12.40625 0 
z
" id="DejaVuSans-49"/>
      </defs>
      <g transform="translate(136.845933 418.718437)scale(0.1 -0.1)">
       <use xlink:href="#DejaVuSans-49"/>
       <use x="63.623047" xlink:href="#DejaVuSans-48"/>
       <use x="127.246094" xlink:href="#DejaVuSans-48"/>
      </g>
     </g>
    </g>
    <g id="xtick_3">
     <g id="line2d_3">
      <g>
       <use style="stroke:#000000;stroke-width:0.8;" x="262.199366" xlink:href="#mdfc7e50239" y="404.12"/>
      </g>
     </g>
     <g id="text_3">
      <!-- 200 -->
      <defs>
       <path d="M 19.1875 8.296875 
L 53.609375 8.296875 
L 53.609375 0 
L 7.328125 0 
L 7.328125 8.296875 
Q 12.9375 14.109375 22.625 23.890625 
Q 32.328125 33.6875 34.8125 36.53125 
Q 39.546875 41.84375 41.421875 45.53125 
Q 43.3125 49.21875 43.3125 52.78125 
Q 43.3125 58.59375 39.234375 62.25 
Q 35.15625 65.921875 28.609375 65.921875 
Q 23.96875 65.921875 18.8125 64.3125 
Q 13.671875 62.703125 7.8125 59.421875 
L 7.8125 69.390625 
Q 13.765625 71.78125 18.9375 73 
Q 24.125 74.21875 28.421875 74.21875 
Q 39.75 74.21875 46.484375 68.546875 
Q 53.21875 62.890625 53.21875 53.421875 
Q 53.21875 48.921875 51.53125 44.890625 
Q 49.859375 40.875 45.40625 35.40625 
Q 44.1875 33.984375 37.640625 27.21875 
Q 31.109375 20.453125 19.1875 8.296875 
z
" id="DejaVuSans-50"/>
      </defs>
      <g transform="translate(252.655616 418.718437)scale(0.1 -0.1)">
       <use xlink:href="#DejaVuSans-50"/>
       <use x="63.623047" xlink:href="#DejaVuSans-48"/>
       <use x="127.246094" xlink:href="#DejaVuSans-48"/>
      </g>
     </g>
    </g>
    <g id="xtick_4">
     <g id="line2d_4">
      <g>
       <use style="stroke:#000000;stroke-width:0.8;" x="378.009048" xlink:href="#mdfc7e50239" y="404.12"/>
      </g>
     </g>
     <g id="text_4">
      <!-- 300 -->
      <defs>
       <path d="M 40.578125 39.3125 
Q 47.65625 37.796875 51.625 33 
Q 55.609375 28.21875 55.609375 21.1875 
Q 55.609375 10.40625 48.1875 4.484375 
Q 40.765625 -1.421875 27.09375 -1.421875 
Q 22.515625 -1.421875 17.65625 -0.515625 
Q 12.796875 0.390625 7.625 2.203125 
L 7.625 11.71875 
Q 11.71875 9.328125 16.59375 8.109375 
Q 21.484375 6.890625 26.8125 6.890625 
Q 36.078125 6.890625 40.9375 10.546875 
Q 45.796875 14.203125 45.796875 21.1875 
Q 45.796875 27.640625 41.28125 31.265625 
Q 36.765625 34.90625 28.71875 34.90625 
L 20.21875 34.90625 
L 20.21875 43.015625 
L 29.109375 43.015625 
Q 36.375 43.015625 40.234375 45.921875 
Q 44.09375 48.828125 44.09375 54.296875 
Q 44.09375 59.90625 40.109375 62.90625 
Q 36.140625 65.921875 28.71875 65.921875 
Q 24.65625 65.921875 20.015625 65.03125 
Q 15.375 64.15625 9.8125 62.3125 
L 9.8125 71.09375 
Q 15.4375 72.65625 20.34375 73.4375 
Q 25.25 74.21875 29.59375 74.21875 
Q 40.828125 74.21875 47.359375 69.109375 
Q 53.90625 64.015625 53.90625 55.328125 
Q 53.90625 49.265625 50.4375 45.09375 
Q 46.96875 40.921875 40.578125 39.3125 
z
" id="DejaVuSans-51"/>
      </defs>
      <g transform="translate(368.465298 418.718437)scale(0.1 -0.1)">
       <use xlink:href="#DejaVuSans-51"/>
       <use x="63.623047" xlink:href="#DejaVuSans-48"/>
       <use x="127.246094" xlink:href="#DejaVuSans-48"/>
      </g>
     </g>
    </g>
    <g id="xtick_5">
     <g id="line2d_5">
      <g>
       <use style="stroke:#000000;stroke-width:0.8;" x="493.818731" xlink:href="#mdfc7e50239" y="404.12"/>
      </g>
     </g>
     <g id="text_5">
      <!-- 400 -->
      <defs>
       <path d="M 37.796875 64.3125 
L 12.890625 25.390625 
L 37.796875 25.390625 
z
M 35.203125 72.90625 
L 47.609375 72.90625 
L 47.609375 25.390625 
L 58.015625 25.390625 
L 58.015625 17.1875 
L 47.609375 17.1875 
L 47.609375 0 
L 37.796875 0 
L 37.796875 17.1875 
L 4.890625 17.1875 
L 4.890625 26.703125 
z
" id="DejaVuSans-52"/>
      </defs>
      <g transform="translate(484.274981 418.718437)scale(0.1 -0.1)">
       <use xlink:href="#DejaVuSans-52"/>
       <use x="63.623047" xlink:href="#DejaVuSans-48"/>
       <use x="127.246094" xlink:href="#DejaVuSans-48"/>
      </g>
     </g>
    </g>
    <g id="xtick_6">
     <g id="line2d_6">
      <g>
       <use style="stroke:#000000;stroke-width:0.8;" x="609.628414" xlink:href="#mdfc7e50239" y="404.12"/>
      </g>
     </g>
     <g id="text_6">
      <!-- 500 -->
      <defs>
       <path d="M 10.796875 72.90625 
L 49.515625 72.90625 
L 49.515625 64.59375 
L 19.828125 64.59375 
L 19.828125 46.734375 
Q 21.96875 47.46875 24.109375 47.828125 
Q 26.265625 48.1875 28.421875 48.1875 
Q 40.625 48.1875 47.75 41.5 
Q 54.890625 34.8125 54.890625 23.390625 
Q 54.890625 11.625 47.5625 5.09375 
Q 40.234375 -1.421875 26.90625 -1.421875 
Q 22.3125 -1.421875 17.546875 -0.640625 
Q 12.796875 0.140625 7.71875 1.703125 
L 7.71875 11.625 
Q 12.109375 9.234375 16.796875 8.0625 
Q 21.484375 6.890625 26.703125 6.890625 
Q 35.15625 6.890625 40.078125 11.328125 
Q 45.015625 15.765625 45.015625 23.390625 
Q 45.015625 31 40.078125 35.4375 
Q 35.15625 39.890625 26.703125 39.890625 
Q 22.75 39.890625 18.8125 39.015625 
Q 14.890625 38.140625 10.796875 36.28125 
z
" id="DejaVuSans-53"/>
      </defs>
      <g transform="translate(600.084664 418.718437)scale(0.1 -0.1)">
       <use xlink:href="#DejaVuSans-53"/>
       <use x="63.623047" xlink:href="#DejaVuSans-48"/>
       <use x="127.246094" xlink:href="#DejaVuSans-48"/>
      </g>
     </g>
    </g>
   </g>
   <g id="matplotlib.axis_2">
    <g id="ytick_1">
     <g id="line2d_7">
      <defs>
       <path d="M 0 0 
L -3.5 0 
" id="m8c030d1840" style="stroke:#000000;stroke-width:0.8;"/>
      </defs>
      <g>
       <use style="stroke:#000000;stroke-width:0.8;" x="30.58" xlink:href="#m8c030d1840" y="386.942814"/>
      </g>
     </g>
     <g id="text_7">
      <!-- 0 -->
      <g transform="translate(17.2175 390.742033)scale(0.1 -0.1)">
       <use xlink:href="#DejaVuSans-48"/>
      </g>
     </g>
    </g>
    <g id="ytick_2">
     <g id="line2d_8">
      <g>
       <use style="stroke:#000000;stroke-width:0.8;" x="30.58" xlink:href="#m8c030d1840" y="305.006118"/>
      </g>
     </g>
     <g id="text_8">
      <!-- 10 -->
      <g transform="translate(10.855 308.805337)scale(0.1 -0.1)">
       <use xlink:href="#DejaVuSans-49"/>
       <use x="63.623047" xlink:href="#DejaVuSans-48"/>
      </g>
     </g>
    </g>
    <g id="ytick_3">
     <g id="line2d_9">
      <g>
       <use style="stroke:#000000;stroke-width:0.8;" x="30.58" xlink:href="#m8c030d1840" y="223.069422"/>
      </g>
     </g>
     <g id="text_9">
      <!-- 20 -->
      <g transform="translate(10.855 226.86864)scale(0.1 -0.1)">
       <use xlink:href="#DejaVuSans-50"/>
       <use x="63.623047" xlink:href="#DejaVuSans-48"/>
      </g>
     </g>
    </g>
    <g id="ytick_4">
     <g id="line2d_10">
      <g>
       <use style="stroke:#000000;stroke-width:0.8;" x="30.58" xlink:href="#m8c030d1840" y="141.132726"/>
      </g>
     </g>
     <g id="text_10">
      <!-- 30 -->
      <g transform="translate(10.855 144.931944)scale(0.1 -0.1)">
       <use xlink:href="#DejaVuSans-51"/>
       <use x="63.623047" xlink:href="#DejaVuSans-48"/>
      </g>
     </g>
    </g>
    <g id="ytick_5">
     <g id="line2d_11">
      <g>
       <use style="stroke:#000000;stroke-width:0.8;" x="30.58" xlink:href="#m8c030d1840" y="59.196029"/>
      </g>
     </g>
     <g id="text_11">
      <!-- 40 -->
      <g transform="translate(10.855 62.995248)scale(0.1 -0.1)">
       <use xlink:href="#DejaVuSans-52"/>
       <use x="63.623047" xlink:href="#DejaVuSans-48"/>
      </g>
     </g>
    </g>
   </g>
   <g id="line2d_12">
    <path clip-path="url(#p28879adfd2)" d="M 52.58384 386.566627 
L 76.903873 386.588315 
L 105.856294 386.506794 
L 141.757295 386.647128 
L 155.654457 386.711312 
L 167.235426 386.844572 
L 177.658297 386.809636 
L 201.978331 386.788052 
L 214.717396 386.831621 
L 230.930751 386.792753 
L 241.353623 386.788605 
L 269.147947 386.762941 
L 276.096528 386.730882 
L 307.365142 386.765425 
L 391.90621 386.791206 
L 398.854791 386.82678 
L 410.43576 386.741065 
L 425.491018 386.678434 
L 435.91389 386.694424 
L 449.811052 386.689074 
L 479.921569 386.71258 
L 507.715893 386.766964 
L 512.34828 386.772827 
L 598.047446 386.83349 
L 604.996027 386.814302 
L 624.683673 386.654169 
L 633.948447 386.593367 
L 724.28 386.577744 
L 724.28 386.577744 
" style="fill:none;stroke:#1f77b4;stroke-linecap:square;stroke-width:1.5;"/>
   </g>
   <g id="line2d_13">
    <path clip-path="url(#p28879adfd2)" d="M 52.58384 386.576626 
L 73.429583 386.735922 
L 90.801035 386.898149 
L 154.496361 386.79052 
L 169.551619 386.644994 
L 195.02975 386.938236 
L 498.451119 386.847446 
L 508.87399 386.794265 
L 522.771152 386.903624 
L 532.035927 386.939802 
L 614.260801 386.843852 
L 638.580835 386.576301 
L 724.28 386.57114 
L 724.28 386.57114 
" style="fill:none;stroke:#ff7f0e;stroke-linecap:square;stroke-width:1.5;"/>
   </g>
   <g id="line2d_14">
    <path clip-path="url(#p28879adfd2)" d="M 52.58384 292.568979 
L 53.741937 283.892667 
L 54.900033 279.303933 
L 56.05813 274.24882 
L 57.216227 275.085999 
L 58.374324 274.551816 
L 59.532421 282.410101 
L 60.690518 280.989573 
L 63.006711 289.871651 
L 64.164808 281.5195 
L 65.322905 287.373921 
L 66.481002 285.845381 
L 67.639098 293.816413 
L 68.797195 287.826345 
L 69.955292 283.414647 
L 71.113389 282.818069 
L 72.271486 282.62035 
L 73.429583 277.72044 
L 74.587679 282.391759 
L 75.745776 284.119624 
L 76.903873 284.758618 
L 78.06197 286.990494 
L 79.220067 283.28214 
L 80.378164 275.016151 
L 81.53626 275.136546 
L 82.694357 272.043106 
L 83.852454 273.082596 
L 85.010551 277.338013 
L 86.168648 272.425115 
L 87.326745 275.557982 
L 88.484841 276.870464 
L 89.642938 280.858246 
L 90.801035 273.487264 
L 91.959132 277.610629 
L 93.117229 285.789468 
L 94.275326 278.505807 
L 95.433422 279.793695 
L 96.591519 284.482606 
L 97.749616 280.016078 
L 98.907713 273.652251 
L 100.06581 279.777243 
L 101.223907 273.30349 
L 102.382003 279.846367 
L 103.5401 282.420107 
L 104.698197 282.647941 
L 105.856294 277.652325 
L 107.014391 270.609215 
L 108.172487 262.183659 
L 109.330584 262.256748 
L 110.488681 259.055312 
L 111.646778 250.970574 
L 112.804875 248.991855 
L 113.962972 250.037952 
L 115.121068 246.537985 
L 116.279165 239.645743 
L 117.437262 239.720982 
L 118.595359 244.876787 
L 119.753456 246.608671 
L 120.911553 252.015073 
L 122.069649 260.104501 
L 123.227746 257.713236 
L 124.385843 264.901706 
L 125.54394 261.504118 
L 126.702037 261.667071 
L 127.860134 269.36227 
L 129.01823 270.296414 
L 131.334424 285.782472 
L 132.492521 287.949645 
L 133.650618 288.934418 
L 134.808715 296.16059 
L 137.124908 292.576608 
L 138.283005 291.838145 
L 140.599199 291.761557 
L 141.757295 287.486887 
L 142.915392 280.674559 
L 144.073489 275.227306 
L 145.231586 274.765705 
L 147.54778 278.134998 
L 149.863973 289.497989 
L 151.02207 283.022464 
L 152.180167 290.359287 
L 153.338264 291.785257 
L 154.496361 292.001878 
L 155.654457 298.60356 
L 156.812554 306.192213 
L 157.970651 300.202405 
L 161.444942 326.100114 
L 162.603038 333.555329 
L 163.761135 341.865632 
L 164.919232 341.223111 
L 166.077329 347.535582 
L 167.235426 356.152842 
L 168.393523 357.314985 
L 169.551619 359.37746 
L 170.709716 355.866593 
L 171.867813 355.105463 
L 173.02591 355.322704 
L 174.184007 362.66026 
L 175.342104 363.142028 
L 176.5002 363.141351 
L 178.816394 362.622496 
L 179.974491 362.783354 
L 181.132588 370.366562 
L 182.290684 364.570867 
L 183.448781 364.869916 
L 184.606878 364.386729 
L 185.764975 362.822868 
L 186.923072 358.567171 
L 188.081169 365.765069 
L 189.239265 366.809763 
L 190.397362 365.12124 
L 191.555459 365.120557 
L 192.713556 365.588008 
L 193.871653 368.712615 
L 195.02975 369.472947 
L 196.187846 369.462334 
L 197.345943 367.360286 
L 198.50404 365.872063 
L 199.662137 363.846464 
L 200.820234 364.18207 
L 201.978331 362.624106 
L 204.294524 362.624327 
L 205.452621 359.489197 
L 206.610718 359.453487 
L 207.768815 360.041465 
L 208.926912 360.396773 
L 210.085008 363.005934 
L 211.243105 358.078196 
L 212.401202 349.501678 
L 213.559299 351.287787 
L 217.033589 350.95 
L 218.191686 349.268724 
L 219.349783 349.196535 
L 220.50788 351.299469 
L 221.665977 352.690097 
L 222.824073 354.477973 
L 223.98217 354.644261 
L 225.140267 353.369647 
L 226.298364 346.191734 
L 227.456461 346.192389 
L 228.614558 353.536463 
L 229.772654 353.482827 
L 230.930751 352.405536 
L 232.088848 353.087145 
L 233.246945 354.759815 
L 234.405042 359.844457 
L 235.563139 368.537428 
L 236.721235 368.103091 
L 237.879332 368.199439 
L 239.037429 367.195122 
L 240.195526 367.144054 
L 241.353623 368.825954 
L 242.51172 368.546329 
L 243.669816 368.546548 
L 244.827913 368.419375 
L 245.98601 367.957341 
L 247.144107 368.056208 
L 248.302204 370.3386 
L 249.460301 376.74713 
L 250.618397 376.701297 
L 251.776494 377.335088 
L 252.934591 376.603188 
L 254.092688 374.694917 
L 255.250785 375.170981 
L 256.408881 375.325056 
L 257.566978 374.544364 
L 258.725075 372.331423 
L 259.883172 372.005185 
L 261.041269 371.172559 
L 262.199366 372.06442 
L 263.357462 372.575888 
L 264.515559 372.477793 
L 265.673656 371.44599 
L 266.831753 369.094482 
L 267.98985 369.264587 
L 269.147947 369.963122 
L 270.306043 369.960758 
L 271.46414 370.817188 
L 272.622237 363.835028 
L 273.780334 359.855537 
L 274.938431 360.690786 
L 276.096528 360.024969 
L 277.254624 361.792866 
L 278.412721 361.794272 
L 279.570818 361.150224 
L 280.728915 362.023864 
L 281.887012 356.902858 
L 283.045109 357.614147 
L 284.203205 355.923785 
L 285.361302 356.052327 
L 286.519399 355.959979 
L 287.677496 352.572844 
L 288.835593 353.993096 
L 289.993689 355.765052 
L 291.151786 347.007523 
L 293.46798 346.673518 
L 294.626077 345.674283 
L 295.784174 351.689719 
L 296.94227 355.711 
L 298.100367 355.104386 
L 300.416561 355.773518 
L 301.574658 355.820984 
L 302.732755 355.674634 
L 303.890851 355.749042 
L 305.048948 363.012865 
L 306.207045 361.292137 
L 307.365142 363.69769 
L 308.523239 363.838556 
L 309.681336 363.356734 
L 310.839432 365.933008 
L 311.997529 366.003671 
L 313.155626 366.508486 
L 314.313723 375.3188 
L 315.47182 375.512735 
L 316.629917 374.962845 
L 317.788013 373.474307 
L 318.94611 374.11616 
L 320.104207 374.022853 
L 322.420401 375.094676 
L 323.578497 375.964818 
L 324.736594 375.784458 
L 325.894691 376.127162 
L 327.052788 376.030146 
L 328.210885 373.98294 
L 329.368982 374.883363 
L 330.527078 374.998348 
L 331.685175 374.998767 
L 332.843272 374.584511 
L 334.001369 375.052573 
L 335.159466 375.053609 
L 336.317563 373.500512 
L 337.475659 372.720168 
L 338.633756 372.668873 
L 339.791853 371.142311 
L 340.94995 373.125259 
L 343.266144 373.029318 
L 344.42424 372.903154 
L 345.582337 368.510805 
L 346.740434 368.692882 
L 347.898531 368.596736 
L 349.056628 368.093277 
L 350.214725 368.042521 
L 351.372821 369.71986 
L 352.530918 370.587651 
L 353.689015 368.661868 
L 354.847112 368.660898 
L 356.005209 369.656963 
L 357.163306 370.047635 
L 358.321402 370.047831 
L 359.479499 371.672869 
L 360.637596 367.148122 
L 361.795693 367.093502 
L 362.95379 369.311638 
L 364.111886 366.969456 
L 365.269983 367.933971 
L 367.586177 368.322353 
L 368.744274 372.838656 
L 369.902371 370.965291 
L 373.376661 371.742138 
L 374.534758 368.330388 
L 375.692855 367.769282 
L 378.009048 366.099126 
L 379.167145 363.54214 
L 381.483339 361.692067 
L 382.641436 358.528427 
L 383.799533 359.284636 
L 384.957629 357.554768 
L 386.115726 356.83758 
L 387.273823 359.661883 
L 388.43192 357.533417 
L 389.590017 354.351118 
L 390.748114 354.401286 
L 391.90621 349.323382 
L 393.064307 350.740874 
L 394.222404 350.666481 
L 395.380501 342.452585 
L 396.538598 342.431152 
L 397.696694 345.673654 
L 398.854791 341.197981 
L 400.012888 340.502844 
L 401.170985 340.550023 
L 402.329082 341.19529 
L 403.487179 339.106881 
L 404.645275 336.512604 
L 405.803372 338.838077 
L 406.961469 338.277034 
L 408.119566 335.606181 
L 409.277663 336.205078 
L 410.43576 332.582643 
L 411.593856 334.67627 
L 412.751953 337.207901 
L 413.91005 335.987509 
L 415.068147 340.181272 
L 416.226244 337.976726 
L 417.384341 338.028335 
L 418.542437 346.152923 
L 422.016728 343.02456 
L 423.174825 346.200727 
L 424.332922 340.263937 
L 425.491018 341.039108 
L 427.807212 347.008923 
L 428.965309 344.595989 
L 430.123406 348.51742 
L 431.281503 351.796694 
L 432.439599 350.140036 
L 433.597696 353.524617 
L 434.755793 352.151112 
L 437.071987 353.439258 
L 438.230083 354.758915 
L 439.38818 356.907686 
L 440.546277 355.88283 
L 441.704374 353.608477 
L 442.862471 354.368591 
L 444.020568 355.510359 
L 446.336761 354.156326 
L 447.494858 358.605658 
L 448.652955 359.503766 
L 449.811052 359.507299 
L 450.969149 360.036761 
L 452.127245 363.149806 
L 453.285342 363.047316 
L 454.443439 363.522621 
L 455.601536 364.982911 
L 456.759633 365.103438 
L 457.91773 364.816223 
L 459.075826 362.276227 
L 460.233923 360.964026 
L 461.39202 357.470678 
L 462.550117 357.516044 
L 463.708214 351.746411 
L 464.866311 353.199765 
L 466.024407 350.557548 
L 467.182504 349.46805 
L 468.340601 355.907749 
L 469.498698 356.660201 
L 470.656795 358.605286 
L 471.814891 353.474385 
L 472.972988 353.497117 
L 474.131085 351.725167 
L 475.289182 351.72064 
L 476.447279 351.554823 
L 478.763472 350.174755 
L 479.921569 350.196047 
L 481.079666 350.706245 
L 482.237763 351.368038 
L 483.39586 351.875974 
L 484.553957 354.600207 
L 485.712053 348.773877 
L 486.87015 354.861457 
L 488.028247 352.849014 
L 489.186344 353.553163 
L 490.344441 355.102898 
L 491.502538 354.89012 
L 493.818731 355.247614 
L 494.976828 360.642538 
L 496.134925 360.691504 
L 497.293022 362.518886 
L 498.451119 362.686622 
L 500.767312 365.620504 
L 501.925409 366.66484 
L 503.083506 366.808909 
L 504.241603 368.161406 
L 505.399699 370.087936 
L 506.557796 371.501138 
L 507.715893 372.438149 
L 508.87399 378.756963 
L 510.032087 379.511822 
L 511.190184 383.254521 
L 512.34828 385.526928 
L 513.506377 385.625583 
L 514.664474 386.178778 
L 515.822571 386.225255 
L 516.980668 386.425909 
L 609.628414 386.417025 
L 610.786511 381.08432 
L 611.944608 372.069938 
L 613.102705 369.3738 
L 614.260801 364.16954 
L 615.418898 358.432352 
L 620.051285 321.569252 
L 621.209382 318.584249 
L 622.367479 316.207943 
L 626.999866 279.428488 
L 628.157963 273.475536 
L 629.31606 268.568748 
L 630.474157 266.525008 
L 631.632254 260.948004 
L 632.790351 252.891892 
L 633.948447 253.616176 
L 635.106544 258.440151 
L 636.264641 253.243069 
L 637.422738 256.272148 
L 638.580835 254.119003 
L 639.738932 262.590137 
L 640.897028 266.211857 
L 642.055125 266.257086 
L 643.213222 274.521596 
L 644.371319 275.690467 
L 645.529416 272.209778 
L 646.687513 272.181529 
L 647.845609 277.793042 
L 649.003706 284.727322 
L 650.161803 286.18389 
L 651.3199 289.391023 
L 652.477997 293.816695 
L 653.636093 286.690195 
L 654.79419 284.13573 
L 655.952287 291.513818 
L 657.110384 286.912924 
L 658.268481 290.541772 
L 659.426578 289.246175 
L 660.584674 283.921395 
L 661.742771 283.989049 
L 662.900868 275.729362 
L 664.058965 278.812711 
L 665.217062 286.611395 
L 666.375159 287.151204 
L 667.533255 287.238003 
L 668.691352 288.557147 
L 669.849449 296.570085 
L 671.007546 299.243039 
L 672.165643 297.004548 
L 673.32374 303.984331 
L 674.481836 301.009234 
L 675.639933 299.469294 
L 676.79803 299.572921 
L 677.956127 304.75689 
L 679.114224 304.291311 
L 680.272321 311.222424 
L 681.430417 303.027654 
L 682.588514 303.070906 
L 684.904708 301.837271 
L 686.062805 301.560328 
L 687.220902 294.906115 
L 688.378998 292.69797 
L 689.537095 289.621913 
L 690.695192 287.112961 
L 691.853289 291.320434 
L 693.011386 283.340922 
L 694.169482 282.454962 
L 695.327579 277.774129 
L 696.485676 275.840285 
L 697.643773 272.435601 
L 698.80187 273.342227 
L 699.959967 278.419056 
L 701.118063 275.907772 
L 702.27616 267.858269 
L 703.434257 261.11526 
L 704.592354 260.731765 
L 705.750451 264.661083 
L 706.908548 272.636891 
L 708.066644 272.017849 
L 709.224741 272.126172 
L 710.382838 279.444522 
L 711.540935 273.710349 
L 712.699032 275.11847 
L 713.857129 271.999935 
L 715.015225 263.387514 
L 716.173322 265.112817 
L 717.331419 257.831796 
L 718.489516 257.877257 
L 719.647613 258.371665 
L 720.80571 266.393365 
L 721.963806 264.690683 
L 723.121903 261.923636 
L 724.28 258.198522 
L 724.28 258.198522 
" style="fill:none;stroke:#2ca02c;stroke-linecap:square;stroke-width:1.5;"/>
   </g>
   <g id="line2d_15">
    <path clip-path="url(#p28879adfd2)" d="M 52.58384 169.724002 
L 53.741937 166.902751 
L 54.900033 157.784337 
L 57.216227 111.801758 
L 58.374324 109.260711 
L 59.532421 118.393318 
L 60.690518 134.886155 
L 61.848614 144.56353 
L 63.006711 148.031531 
L 64.164808 149.994055 
L 65.322905 150.216125 
L 66.481002 127.790015 
L 67.639098 148.973478 
L 68.797195 147.810771 
L 69.955292 159.906253 
L 71.113389 179.127016 
L 72.271486 187.097769 
L 73.429583 182.081795 
L 74.587679 183.851079 
L 75.745776 186.454313 
L 76.903873 162.791914 
L 78.06197 170.08851 
L 79.220067 189.205705 
L 80.378164 203.207792 
L 81.53626 206.689933 
L 82.694357 200.900875 
L 83.852454 198.186237 
L 85.010551 182.77841 
L 86.168648 158.429913 
L 87.326745 183.24985 
L 88.484841 201.128224 
L 89.642938 225.582776 
L 90.801035 213.090925 
L 91.959132 188.102064 
L 93.117229 189.157028 
L 94.275326 184.191542 
L 95.433422 161.719223 
L 96.591519 160.849113 
L 97.749616 156.60897 
L 98.907713 147.434436 
L 100.06581 164.57725 
L 101.223907 154.051821 
L 102.382003 131.047249 
L 103.5401 125.571394 
L 104.698197 115.955537 
L 105.856294 115.947229 
L 107.014391 98.687138 
L 108.172487 111.227329 
L 109.330584 129.21031 
L 110.488681 113.818893 
L 111.646778 89.419022 
L 112.804875 78.429385 
L 113.962972 89.292015 
L 115.121068 103.425675 
L 116.279165 87.106141 
L 117.437262 92.099416 
L 118.595359 118.319873 
L 119.753456 123.803593 
L 120.911553 123.923023 
L 122.069649 109.939742 
L 123.227746 107.795164 
L 124.385843 103.529533 
L 125.54394 126.263847 
L 126.702037 117.704452 
L 127.860134 121.445668 
L 129.01823 108.686669 
L 130.176327 125.7861 
L 131.334424 139.906349 
L 132.492521 131.589407 
L 133.650618 120.541756 
L 134.808715 118.523484 
L 135.966811 106.623348 
L 137.124908 82.889449 
L 138.283005 88.215636 
L 139.441102 110.502528 
L 140.599199 92.854324 
L 141.757295 67.178091 
L 142.915392 63.601392 
L 144.073489 63.032338 
L 145.231586 80.226777 
L 146.389683 90.472669 
L 147.54778 107.057735 
L 148.705876 111.42903 
L 149.863973 138.737292 
L 151.02207 145.292417 
L 152.180167 164.876298 
L 153.338264 174.986043 
L 154.496361 175.347548 
L 155.654457 190.912963 
L 160.286845 297.291186 
L 161.444942 306.118488 
L 162.603038 309.566464 
L 164.919232 362.902498 
L 166.077329 367.681674 
L 167.235426 375.262636 
L 168.393523 384.658105 
L 169.551619 385.873325 
L 284.203205 385.822231 
L 287.677496 385.845438 
L 382.641436 385.669624 
L 403.487179 385.033116 
L 488.028247 385.030923 
L 497.293022 385.244168 
L 519.296861 386.450903 
L 609.628414 386.433624 
L 610.786511 382.703562 
L 611.944608 378.156881 
L 613.102705 377.525853 
L 614.260801 367.686354 
L 615.418898 366.401484 
L 616.576995 352.106723 
L 617.735092 347.217835 
L 620.051285 314.481077 
L 621.209382 312.104401 
L 622.367479 310.696905 
L 623.525576 308.388554 
L 624.683673 283.234354 
L 625.84177 278.713453 
L 626.999866 257.263588 
L 628.157963 242.949543 
L 629.31606 232.093121 
L 630.474157 230.03983 
L 631.632254 216.345764 
L 632.790351 214.999402 
L 633.948447 199.109746 
L 635.106544 201.824746 
L 636.264641 190.011566 
L 637.422738 172.285628 
L 638.580835 161.549647 
L 639.738932 156.382522 
L 640.897028 160.365894 
L 642.055125 150.896488 
L 643.213222 157.839698 
L 644.371319 148.643631 
L 645.529416 130.598163 
L 646.687513 115.357168 
L 647.845609 127.893513 
L 649.003706 131.139519 
L 650.161803 150.290017 
L 651.3199 157.800511 
L 652.477997 162.282749 
L 653.636093 153.228505 
L 654.79419 154.285582 
L 655.952287 129.675061 
L 657.110384 143.815565 
L 658.268481 130.576496 
L 659.426578 136.509426 
L 660.584674 154.061954 
L 661.742771 157.875712 
L 662.900868 155.637374 
L 664.058965 152.100235 
L 665.217062 175.977211 
L 666.375159 172.077431 
L 667.533255 181.739916 
L 668.691352 176.836753 
L 669.849449 175.91131 
L 671.007546 183.705833 
L 672.165643 184.56007 
L 673.32374 173.646298 
L 674.481836 179.724689 
L 675.639933 184.488767 
L 676.79803 195.025645 
L 677.956127 193.056164 
L 679.114224 216.986575 
L 680.272321 201.564339 
L 681.430417 214.090042 
L 682.588514 218.864352 
L 683.746611 201.966047 
L 684.904708 203.887928 
L 686.062805 224.602718 
L 688.378998 209.853844 
L 689.537095 217.454599 
L 690.695192 192.674563 
L 691.853289 206.629176 
L 693.011386 222.268694 
L 694.169482 201.576387 
L 695.327579 182.960671 
L 696.485676 178.101046 
L 697.643773 159.397156 
L 698.80187 157.290412 
L 699.959967 130.61608 
L 701.118063 121.191796 
L 702.27616 96.549026 
L 703.434257 106.133761 
L 704.592354 90.836632 
L 705.750451 64.586723 
L 706.908548 84.021353 
L 708.066644 77.206638 
L 709.224741 73.177418 
L 710.382838 74.119398 
L 711.540935 56.897202 
L 712.699032 60.355215 
L 713.857129 60.30862 
L 715.015225 66.41515 
L 716.173322 43.34 
L 717.331419 64.653855 
L 718.489516 80.647074 
L 719.647613 92.615364 
L 720.80571 85.627761 
L 721.963806 72.240401 
L 723.121903 96.79109 
L 724.28 108.876132 
L 724.28 108.876132 
" style="fill:none;stroke:#d62728;stroke-linecap:square;stroke-width:1.5;"/>
   </g>
   <g id="line2d_16">
    <path clip-path="url(#p28879adfd2)" d="M 52.58384 382.237827 
L 56.05813 381.49314 
L 119.753456 381.492669 
L 124.385843 381.487166 
L 146.389683 381.495239 
L 170.709716 385.883218 
L 340.94995 385.881905 
L 380.325242 385.771101 
L 403.487179 385.054205 
L 496.134925 385.1877 
L 519.296861 386.441382 
L 602.679833 386.441849 
L 611.944608 386.380969 
L 621.209382 384.091943 
L 626.999866 382.656063 
L 635.106544 380.713314 
L 694.169482 380.765146 
L 699.959967 380.761677 
L 716.173322 380.767053 
L 724.28 380.786747 
L 724.28 380.786747 
" style="fill:none;stroke:#9467bd;stroke-linecap:square;stroke-width:1.5;"/>
   </g>
   <g id="patch_3">
    <path d="M 30.58 404.12 
L 30.58 26.16 
" style="fill:none;stroke:#000000;stroke-linecap:square;stroke-linejoin:miter;stroke-width:0.8;"/>
   </g>
   <g id="patch_4">
    <path d="M 724.28 404.12 
L 724.28 26.16 
" style="fill:none;stroke:#000000;stroke-linecap:square;stroke-linejoin:miter;stroke-width:0.8;"/>
   </g>
   <g id="patch_5">
    <path d="M 30.58 404.12 
L 724.28 404.12 
" style="fill:none;stroke:#000000;stroke-linecap:square;stroke-linejoin:miter;stroke-width:0.8;"/>
   </g>
   <g id="patch_6">
    <path d="M 30.58 26.16 
L 724.28 26.16 
" style="fill:none;stroke:#000000;stroke-linecap:square;stroke-linejoin:miter;stroke-width:0.8;"/>
   </g>
   <g id="text_12">
    <!-- multi_way_v2: episode execution time, sec, MA=20 -->
    <defs>
     <path d="M 52 44.1875 
Q 55.375 50.25 60.0625 53.125 
Q 64.75 56 71.09375 56 
Q 79.640625 56 84.28125 50.015625 
Q 88.921875 44.046875 88.921875 33.015625 
L 88.921875 0 
L 79.890625 0 
L 79.890625 32.71875 
Q 79.890625 40.578125 77.09375 44.375 
Q 74.3125 48.1875 68.609375 48.1875 
Q 61.625 48.1875 57.5625 43.546875 
Q 53.515625 38.921875 53.515625 30.90625 
L 53.515625 0 
L 44.484375 0 
L 44.484375 32.71875 
Q 44.484375 40.625 41.703125 44.40625 
Q 38.921875 48.1875 33.109375 48.1875 
Q 26.21875 48.1875 22.15625 43.53125 
Q 18.109375 38.875 18.109375 30.90625 
L 18.109375 0 
L 9.078125 0 
L 9.078125 54.6875 
L 18.109375 54.6875 
L 18.109375 46.1875 
Q 21.1875 51.21875 25.484375 53.609375 
Q 29.78125 56 35.6875 56 
Q 41.65625 56 45.828125 52.96875 
Q 50 49.953125 52 44.1875 
z
" id="DejaVuSans-109"/>
     <path d="M 8.5 21.578125 
L 8.5 54.6875 
L 17.484375 54.6875 
L 17.484375 21.921875 
Q 17.484375 14.15625 20.5 10.265625 
Q 23.53125 6.390625 29.59375 6.390625 
Q 36.859375 6.390625 41.078125 11.03125 
Q 45.3125 15.671875 45.3125 23.6875 
L 45.3125 54.6875 
L 54.296875 54.6875 
L 54.296875 0 
L 45.3125 0 
L 45.3125 8.40625 
Q 42.046875 3.421875 37.71875 1 
Q 33.40625 -1.421875 27.6875 -1.421875 
Q 18.265625 -1.421875 13.375 4.4375 
Q 8.5 10.296875 8.5 21.578125 
z
M 31.109375 56 
z
" id="DejaVuSans-117"/>
     <path d="M 9.421875 75.984375 
L 18.40625 75.984375 
L 18.40625 0 
L 9.421875 0 
z
" id="DejaVuSans-108"/>
     <path d="M 18.3125 70.21875 
L 18.3125 54.6875 
L 36.8125 54.6875 
L 36.8125 47.703125 
L 18.3125 47.703125 
L 18.3125 18.015625 
Q 18.3125 11.328125 20.140625 9.421875 
Q 21.96875 7.515625 27.59375 7.515625 
L 36.8125 7.515625 
L 36.8125 0 
L 27.59375 0 
Q 17.1875 0 13.234375 3.875 
Q 9.28125 7.765625 9.28125 18.015625 
L 9.28125 47.703125 
L 2.6875 47.703125 
L 2.6875 54.6875 
L 9.28125 54.6875 
L 9.28125 70.21875 
z
" id="DejaVuSans-116"/>
     <path d="M 9.421875 54.6875 
L 18.40625 54.6875 
L 18.40625 0 
L 9.421875 0 
z
M 9.421875 75.984375 
L 18.40625 75.984375 
L 18.40625 64.59375 
L 9.421875 64.59375 
z
" id="DejaVuSans-105"/>
     <path d="M 50.984375 -16.609375 
L 50.984375 -23.578125 
L -0.984375 -23.578125 
L -0.984375 -16.609375 
z
" id="DejaVuSans-95"/>
     <path d="M 4.203125 54.6875 
L 13.1875 54.6875 
L 24.421875 12.015625 
L 35.59375 54.6875 
L 46.1875 54.6875 
L 57.421875 12.015625 
L 68.609375 54.6875 
L 77.59375 54.6875 
L 63.28125 0 
L 52.6875 0 
L 40.921875 44.828125 
L 29.109375 0 
L 18.5 0 
z
" id="DejaVuSans-119"/>
     <path d="M 34.28125 27.484375 
Q 23.390625 27.484375 19.1875 25 
Q 14.984375 22.515625 14.984375 16.5 
Q 14.984375 11.71875 18.140625 8.90625 
Q 21.296875 6.109375 26.703125 6.109375 
Q 34.1875 6.109375 38.703125 11.40625 
Q 43.21875 16.703125 43.21875 25.484375 
L 43.21875 27.484375 
z
M 52.203125 31.203125 
L 52.203125 0 
L 43.21875 0 
L 43.21875 8.296875 
Q 40.140625 3.328125 35.546875 0.953125 
Q 30.953125 -1.421875 24.3125 -1.421875 
Q 15.921875 -1.421875 10.953125 3.296875 
Q 6 8.015625 6 15.921875 
Q 6 25.140625 12.171875 29.828125 
Q 18.359375 34.515625 30.609375 34.515625 
L 43.21875 34.515625 
L 43.21875 35.40625 
Q 43.21875 41.609375 39.140625 45 
Q 35.0625 48.390625 27.6875 48.390625 
Q 23 48.390625 18.546875 47.265625 
Q 14.109375 46.140625 10.015625 43.890625 
L 10.015625 52.203125 
Q 14.9375 54.109375 19.578125 55.046875 
Q 24.21875 56 28.609375 56 
Q 40.484375 56 46.34375 49.84375 
Q 52.203125 43.703125 52.203125 31.203125 
z
" id="DejaVuSans-97"/>
     <path d="M 32.171875 -5.078125 
Q 28.375 -14.84375 24.75 -17.8125 
Q 21.140625 -20.796875 15.09375 -20.796875 
L 7.90625 -20.796875 
L 7.90625 -13.28125 
L 13.1875 -13.28125 
Q 16.890625 -13.28125 18.9375 -11.515625 
Q 21 -9.765625 23.484375 -3.21875 
L 25.09375 0.875 
L 2.984375 54.6875 
L 12.5 54.6875 
L 29.59375 11.921875 
L 46.6875 54.6875 
L 56.203125 54.6875 
z
" id="DejaVuSans-121"/>
     <path d="M 2.984375 54.6875 
L 12.5 54.6875 
L 29.59375 8.796875 
L 46.6875 54.6875 
L 56.203125 54.6875 
L 35.6875 0 
L 23.484375 0 
z
" id="DejaVuSans-118"/>
     <path d="M 11.71875 12.40625 
L 22.015625 12.40625 
L 22.015625 0 
L 11.71875 0 
z
M 11.71875 51.703125 
L 22.015625 51.703125 
L 22.015625 39.3125 
L 11.71875 39.3125 
z
" id="DejaVuSans-58"/>
     <path id="DejaVuSans-32"/>
     <path d="M 56.203125 29.59375 
L 56.203125 25.203125 
L 14.890625 25.203125 
Q 15.484375 15.921875 20.484375 11.0625 
Q 25.484375 6.203125 34.421875 6.203125 
Q 39.59375 6.203125 44.453125 7.46875 
Q 49.3125 8.734375 54.109375 11.28125 
L 54.109375 2.78125 
Q 49.265625 0.734375 44.1875 -0.34375 
Q 39.109375 -1.421875 33.890625 -1.421875 
Q 20.796875 -1.421875 13.15625 6.1875 
Q 5.515625 13.8125 5.515625 26.8125 
Q 5.515625 40.234375 12.765625 48.109375 
Q 20.015625 56 32.328125 56 
Q 43.359375 56 49.78125 48.890625 
Q 56.203125 41.796875 56.203125 29.59375 
z
M 47.21875 32.234375 
Q 47.125 39.59375 43.09375 43.984375 
Q 39.0625 48.390625 32.421875 48.390625 
Q 24.90625 48.390625 20.390625 44.140625 
Q 15.875 39.890625 15.1875 32.171875 
z
" id="DejaVuSans-101"/>
     <path d="M 18.109375 8.203125 
L 18.109375 -20.796875 
L 9.078125 -20.796875 
L 9.078125 54.6875 
L 18.109375 54.6875 
L 18.109375 46.390625 
Q 20.953125 51.265625 25.265625 53.625 
Q 29.59375 56 35.59375 56 
Q 45.5625 56 51.78125 48.09375 
Q 58.015625 40.1875 58.015625 27.296875 
Q 58.015625 14.40625 51.78125 6.484375 
Q 45.5625 -1.421875 35.59375 -1.421875 
Q 29.59375 -1.421875 25.265625 0.953125 
Q 20.953125 3.328125 18.109375 8.203125 
z
M 48.6875 27.296875 
Q 48.6875 37.203125 44.609375 42.84375 
Q 40.53125 48.484375 33.40625 48.484375 
Q 26.265625 48.484375 22.1875 42.84375 
Q 18.109375 37.203125 18.109375 27.296875 
Q 18.109375 17.390625 22.1875 11.75 
Q 26.265625 6.109375 33.40625 6.109375 
Q 40.53125 6.109375 44.609375 11.75 
Q 48.6875 17.390625 48.6875 27.296875 
z
" id="DejaVuSans-112"/>
     <path d="M 44.28125 53.078125 
L 44.28125 44.578125 
Q 40.484375 46.53125 36.375 47.5 
Q 32.28125 48.484375 27.875 48.484375 
Q 21.1875 48.484375 17.84375 46.4375 
Q 14.5 44.390625 14.5 40.28125 
Q 14.5 37.15625 16.890625 35.375 
Q 19.28125 33.59375 26.515625 31.984375 
L 29.59375 31.296875 
Q 39.15625 29.25 43.1875 25.515625 
Q 47.21875 21.78125 47.21875 15.09375 
Q 47.21875 7.46875 41.1875 3.015625 
Q 35.15625 -1.421875 24.609375 -1.421875 
Q 20.21875 -1.421875 15.453125 -0.5625 
Q 10.6875 0.296875 5.421875 2 
L 5.421875 11.28125 
Q 10.40625 8.6875 15.234375 7.390625 
Q 20.0625 6.109375 24.8125 6.109375 
Q 31.15625 6.109375 34.5625 8.28125 
Q 37.984375 10.453125 37.984375 14.40625 
Q 37.984375 18.0625 35.515625 20.015625 
Q 33.0625 21.96875 24.703125 23.78125 
L 21.578125 24.515625 
Q 13.234375 26.265625 9.515625 29.90625 
Q 5.8125 33.546875 5.8125 39.890625 
Q 5.8125 47.609375 11.28125 51.796875 
Q 16.75 56 26.8125 56 
Q 31.78125 56 36.171875 55.265625 
Q 40.578125 54.546875 44.28125 53.078125 
z
" id="DejaVuSans-115"/>
     <path d="M 30.609375 48.390625 
Q 23.390625 48.390625 19.1875 42.75 
Q 14.984375 37.109375 14.984375 27.296875 
Q 14.984375 17.484375 19.15625 11.84375 
Q 23.34375 6.203125 30.609375 6.203125 
Q 37.796875 6.203125 41.984375 11.859375 
Q 46.1875 17.53125 46.1875 27.296875 
Q 46.1875 37.015625 41.984375 42.703125 
Q 37.796875 48.390625 30.609375 48.390625 
z
M 30.609375 56 
Q 42.328125 56 49.015625 48.375 
Q 55.71875 40.765625 55.71875 27.296875 
Q 55.71875 13.875 49.015625 6.21875 
Q 42.328125 -1.421875 30.609375 -1.421875 
Q 18.84375 -1.421875 12.171875 6.21875 
Q 5.515625 13.875 5.515625 27.296875 
Q 5.515625 40.765625 12.171875 48.375 
Q 18.84375 56 30.609375 56 
z
" id="DejaVuSans-111"/>
     <path d="M 45.40625 46.390625 
L 45.40625 75.984375 
L 54.390625 75.984375 
L 54.390625 0 
L 45.40625 0 
L 45.40625 8.203125 
Q 42.578125 3.328125 38.25 0.953125 
Q 33.9375 -1.421875 27.875 -1.421875 
Q 17.96875 -1.421875 11.734375 6.484375 
Q 5.515625 14.40625 5.515625 27.296875 
Q 5.515625 40.1875 11.734375 48.09375 
Q 17.96875 56 27.875 56 
Q 33.9375 56 38.25 53.625 
Q 42.578125 51.265625 45.40625 46.390625 
z
M 14.796875 27.296875 
Q 14.796875 17.390625 18.875 11.75 
Q 22.953125 6.109375 30.078125 6.109375 
Q 37.203125 6.109375 41.296875 11.75 
Q 45.40625 17.390625 45.40625 27.296875 
Q 45.40625 37.203125 41.296875 42.84375 
Q 37.203125 48.484375 30.078125 48.484375 
Q 22.953125 48.484375 18.875 42.84375 
Q 14.796875 37.203125 14.796875 27.296875 
z
" id="DejaVuSans-100"/>
     <path d="M 54.890625 54.6875 
L 35.109375 28.078125 
L 55.90625 0 
L 45.3125 0 
L 29.390625 21.484375 
L 13.484375 0 
L 2.875 0 
L 24.125 28.609375 
L 4.6875 54.6875 
L 15.28125 54.6875 
L 29.78125 35.203125 
L 44.28125 54.6875 
z
" id="DejaVuSans-120"/>
     <path d="M 48.78125 52.59375 
L 48.78125 44.1875 
Q 44.96875 46.296875 41.140625 47.34375 
Q 37.3125 48.390625 33.40625 48.390625 
Q 24.65625 48.390625 19.8125 42.84375 
Q 14.984375 37.3125 14.984375 27.296875 
Q 14.984375 17.28125 19.8125 11.734375 
Q 24.65625 6.203125 33.40625 6.203125 
Q 37.3125 6.203125 41.140625 7.25 
Q 44.96875 8.296875 48.78125 10.40625 
L 48.78125 2.09375 
Q 45.015625 0.34375 40.984375 -0.53125 
Q 36.96875 -1.421875 32.421875 -1.421875 
Q 20.0625 -1.421875 12.78125 6.34375 
Q 5.515625 14.109375 5.515625 27.296875 
Q 5.515625 40.671875 12.859375 48.328125 
Q 20.21875 56 33.015625 56 
Q 37.15625 56 41.109375 55.140625 
Q 45.0625 54.296875 48.78125 52.59375 
z
" id="DejaVuSans-99"/>
     <path d="M 54.890625 33.015625 
L 54.890625 0 
L 45.90625 0 
L 45.90625 32.71875 
Q 45.90625 40.484375 42.875 44.328125 
Q 39.84375 48.1875 33.796875 48.1875 
Q 26.515625 48.1875 22.3125 43.546875 
Q 18.109375 38.921875 18.109375 30.90625 
L 18.109375 0 
L 9.078125 0 
L 9.078125 54.6875 
L 18.109375 54.6875 
L 18.109375 46.1875 
Q 21.34375 51.125 25.703125 53.5625 
Q 30.078125 56 35.796875 56 
Q 45.21875 56 50.046875 50.171875 
Q 54.890625 44.34375 54.890625 33.015625 
z
" id="DejaVuSans-110"/>
     <path d="M 11.71875 12.40625 
L 22.015625 12.40625 
L 22.015625 4 
L 14.015625 -11.625 
L 7.71875 -11.625 
L 11.71875 4 
z
" id="DejaVuSans-44"/>
     <path d="M 9.8125 72.90625 
L 24.515625 72.90625 
L 43.109375 23.296875 
L 61.8125 72.90625 
L 76.515625 72.90625 
L 76.515625 0 
L 66.890625 0 
L 66.890625 64.015625 
L 48.09375 14.015625 
L 38.1875 14.015625 
L 19.390625 64.015625 
L 19.390625 0 
L 9.8125 0 
z
" id="DejaVuSans-77"/>
     <path d="M 34.1875 63.1875 
L 20.796875 26.90625 
L 47.609375 26.90625 
z
M 28.609375 72.90625 
L 39.796875 72.90625 
L 67.578125 0 
L 57.328125 0 
L 50.6875 18.703125 
L 17.828125 18.703125 
L 11.1875 0 
L 0.78125 0 
z
" id="DejaVuSans-65"/>
     <path d="M 10.59375 45.40625 
L 73.1875 45.40625 
L 73.1875 37.203125 
L 10.59375 37.203125 
z
M 10.59375 25.484375 
L 73.1875 25.484375 
L 73.1875 17.1875 
L 10.59375 17.1875 
z
" id="DejaVuSans-61"/>
    </defs>
    <g transform="translate(222.616875 20.16)scale(0.12 -0.12)">
     <use xlink:href="#DejaVuSans-109"/>
     <use x="97.412109" xlink:href="#DejaVuSans-117"/>
     <use x="160.791016" xlink:href="#DejaVuSans-108"/>
     <use x="188.574219" xlink:href="#DejaVuSans-116"/>
     <use x="227.783203" xlink:href="#DejaVuSans-105"/>
     <use x="255.566406" xlink:href="#DejaVuSans-95"/>
     <use x="305.566406" xlink:href="#DejaVuSans-119"/>
     <use x="387.353516" xlink:href="#DejaVuSans-97"/>
     <use x="448.632812" xlink:href="#DejaVuSans-121"/>
     <use x="507.8125" xlink:href="#DejaVuSans-95"/>
     <use x="557.8125" xlink:href="#DejaVuSans-118"/>
     <use x="616.992188" xlink:href="#DejaVuSans-50"/>
     <use x="680.615234" xlink:href="#DejaVuSans-58"/>
     <use x="714.306641" xlink:href="#DejaVuSans-32"/>
     <use x="746.09375" xlink:href="#DejaVuSans-101"/>
     <use x="807.617188" xlink:href="#DejaVuSans-112"/>
     <use x="871.09375" xlink:href="#DejaVuSans-105"/>
     <use x="898.876953" xlink:href="#DejaVuSans-115"/>
     <use x="950.976562" xlink:href="#DejaVuSans-111"/>
     <use x="1012.158203" xlink:href="#DejaVuSans-100"/>
     <use x="1075.634766" xlink:href="#DejaVuSans-101"/>
     <use x="1137.158203" xlink:href="#DejaVuSans-32"/>
     <use x="1168.945312" xlink:href="#DejaVuSans-101"/>
     <use x="1230.453125" xlink:href="#DejaVuSans-120"/>
     <use x="1289.585938" xlink:href="#DejaVuSans-101"/>
     <use x="1351.109375" xlink:href="#DejaVuSans-99"/>
     <use x="1406.089844" xlink:href="#DejaVuSans-117"/>
     <use x="1469.46875" xlink:href="#DejaVuSans-116"/>
     <use x="1508.677734" xlink:href="#DejaVuSans-105"/>
     <use x="1536.460938" xlink:href="#DejaVuSans-111"/>
     <use x="1597.642578" xlink:href="#DejaVuSans-110"/>
     <use x="1661.021484" xlink:href="#DejaVuSans-32"/>
     <use x="1692.808594" xlink:href="#DejaVuSans-116"/>
     <use x="1732.017578" xlink:href="#DejaVuSans-105"/>
     <use x="1759.800781" xlink:href="#DejaVuSans-109"/>
     <use x="1857.212891" xlink:href="#DejaVuSans-101"/>
     <use x="1918.736328" xlink:href="#DejaVuSans-44"/>
     <use x="1950.523438" xlink:href="#DejaVuSans-32"/>
     <use x="1982.310547" xlink:href="#DejaVuSans-115"/>
     <use x="2034.410156" xlink:href="#DejaVuSans-101"/>
     <use x="2095.933594" xlink:href="#DejaVuSans-99"/>
     <use x="2150.914062" xlink:href="#DejaVuSans-44"/>
     <use x="2182.701172" xlink:href="#DejaVuSans-32"/>
     <use x="2214.488281" xlink:href="#DejaVuSans-77"/>
     <use x="2300.767578" xlink:href="#DejaVuSans-65"/>
     <use x="2369.175781" xlink:href="#DejaVuSans-61"/>
     <use x="2452.964844" xlink:href="#DejaVuSans-50"/>
     <use x="2516.587891" xlink:href="#DejaVuSans-48"/>
    </g>
   </g>
   <g id="legend_1">
    <g id="patch_7">
     <path d="M 764.955937 254.030625 
L 856.02 254.030625 
Q 858.02 254.030625 858.02 252.030625 
L 858.02 178.249375 
Q 858.02 176.249375 856.02 176.249375 
L 764.955937 176.249375 
Q 762.955937 176.249375 762.955937 178.249375 
L 762.955937 252.030625 
Q 762.955937 254.030625 764.955937 254.030625 
z
" style="fill:#ffffff;opacity:0.8;stroke:#cccccc;stroke-linejoin:miter;"/>
    </g>
    <g id="line2d_17">
     <path d="M 766.955937 184.347812 
L 786.955937 184.347812 
" style="fill:none;stroke:#1f77b4;stroke-linecap:square;stroke-width:1.5;"/>
    </g>
    <g id="line2d_18"/>
    <g id="text_13">
     <!-- htm_0 -->
     <defs>
      <path d="M 54.890625 33.015625 
L 54.890625 0 
L 45.90625 0 
L 45.90625 32.71875 
Q 45.90625 40.484375 42.875 44.328125 
Q 39.84375 48.1875 33.796875 48.1875 
Q 26.515625 48.1875 22.3125 43.546875 
Q 18.109375 38.921875 18.109375 30.90625 
L 18.109375 0 
L 9.078125 0 
L 9.078125 75.984375 
L 18.109375 75.984375 
L 18.109375 46.1875 
Q 21.34375 51.125 25.703125 53.5625 
Q 30.078125 56 35.796875 56 
Q 45.21875 56 50.046875 50.171875 
Q 54.890625 44.34375 54.890625 33.015625 
z
" id="DejaVuSans-104"/>
     </defs>
     <g transform="translate(794.955937 187.847812)scale(0.1 -0.1)">
      <use xlink:href="#DejaVuSans-104"/>
      <use x="63.378906" xlink:href="#DejaVuSans-116"/>
      <use x="102.587891" xlink:href="#DejaVuSans-109"/>
      <use x="200" xlink:href="#DejaVuSans-95"/>
      <use x="250" xlink:href="#DejaVuSans-48"/>
     </g>
    </g>
    <g id="line2d_19">
     <path d="M 766.955937 199.304062 
L 786.955937 199.304062 
" style="fill:none;stroke:#ff7f0e;stroke-linecap:square;stroke-width:1.5;"/>
    </g>
    <g id="line2d_20"/>
    <g id="text_14">
     <!-- dqn_greedy -->
     <defs>
      <path d="M 14.796875 27.296875 
Q 14.796875 17.390625 18.875 11.75 
Q 22.953125 6.109375 30.078125 6.109375 
Q 37.203125 6.109375 41.296875 11.75 
Q 45.40625 17.390625 45.40625 27.296875 
Q 45.40625 37.203125 41.296875 42.84375 
Q 37.203125 48.484375 30.078125 48.484375 
Q 22.953125 48.484375 18.875 42.84375 
Q 14.796875 37.203125 14.796875 27.296875 
z
M 45.40625 8.203125 
Q 42.578125 3.328125 38.25 0.953125 
Q 33.9375 -1.421875 27.875 -1.421875 
Q 17.96875 -1.421875 11.734375 6.484375 
Q 5.515625 14.40625 5.515625 27.296875 
Q 5.515625 40.1875 11.734375 48.09375 
Q 17.96875 56 27.875 56 
Q 33.9375 56 38.25 53.625 
Q 42.578125 51.265625 45.40625 46.390625 
L 45.40625 54.6875 
L 54.390625 54.6875 
L 54.390625 -20.796875 
L 45.40625 -20.796875 
z
" id="DejaVuSans-113"/>
      <path d="M 45.40625 27.984375 
Q 45.40625 37.75 41.375 43.109375 
Q 37.359375 48.484375 30.078125 48.484375 
Q 22.859375 48.484375 18.828125 43.109375 
Q 14.796875 37.75 14.796875 27.984375 
Q 14.796875 18.265625 18.828125 12.890625 
Q 22.859375 7.515625 30.078125 7.515625 
Q 37.359375 7.515625 41.375 12.890625 
Q 45.40625 18.265625 45.40625 27.984375 
z
M 54.390625 6.78125 
Q 54.390625 -7.171875 48.1875 -13.984375 
Q 42 -20.796875 29.203125 -20.796875 
Q 24.46875 -20.796875 20.265625 -20.09375 
Q 16.0625 -19.390625 12.109375 -17.921875 
L 12.109375 -9.1875 
Q 16.0625 -11.328125 19.921875 -12.34375 
Q 23.78125 -13.375 27.78125 -13.375 
Q 36.625 -13.375 41.015625 -8.765625 
Q 45.40625 -4.15625 45.40625 5.171875 
L 45.40625 9.625 
Q 42.625 4.78125 38.28125 2.390625 
Q 33.9375 0 27.875 0 
Q 17.828125 0 11.671875 7.65625 
Q 5.515625 15.328125 5.515625 27.984375 
Q 5.515625 40.671875 11.671875 48.328125 
Q 17.828125 56 27.875 56 
Q 33.9375 56 38.28125 53.609375 
Q 42.625 51.21875 45.40625 46.390625 
L 45.40625 54.6875 
L 54.390625 54.6875 
z
" id="DejaVuSans-103"/>
      <path d="M 41.109375 46.296875 
Q 39.59375 47.171875 37.8125 47.578125 
Q 36.03125 48 33.890625 48 
Q 26.265625 48 22.1875 43.046875 
Q 18.109375 38.09375 18.109375 28.8125 
L 18.109375 0 
L 9.078125 0 
L 9.078125 54.6875 
L 18.109375 54.6875 
L 18.109375 46.1875 
Q 20.953125 51.171875 25.484375 53.578125 
Q 30.03125 56 36.53125 56 
Q 37.453125 56 38.578125 55.875 
Q 39.703125 55.765625 41.0625 55.515625 
z
" id="DejaVuSans-114"/>
     </defs>
     <g transform="translate(794.955937 202.804062)scale(0.1 -0.1)">
      <use xlink:href="#DejaVuSans-100"/>
      <use x="63.476562" xlink:href="#DejaVuSans-113"/>
      <use x="126.953125" xlink:href="#DejaVuSans-110"/>
      <use x="190.332031" xlink:href="#DejaVuSans-95"/>
      <use x="240.332031" xlink:href="#DejaVuSans-103"/>
      <use x="303.808594" xlink:href="#DejaVuSans-114"/>
      <use x="344.890625" xlink:href="#DejaVuSans-101"/>
      <use x="406.414062" xlink:href="#DejaVuSans-101"/>
      <use x="467.9375" xlink:href="#DejaVuSans-100"/>
      <use x="531.414062" xlink:href="#DejaVuSans-121"/>
     </g>
    </g>
    <g id="line2d_21">
     <path d="M 766.955937 214.260312 
L 786.955937 214.260312 
" style="fill:none;stroke:#2ca02c;stroke-linecap:square;stroke-width:1.5;"/>
    </g>
    <g id="line2d_22"/>
    <g id="text_15">
     <!-- htm_2_1g -->
     <g transform="translate(794.955937 217.760312)scale(0.1 -0.1)">
      <use xlink:href="#DejaVuSans-104"/>
      <use x="63.378906" xlink:href="#DejaVuSans-116"/>
      <use x="102.587891" xlink:href="#DejaVuSans-109"/>
      <use x="200" xlink:href="#DejaVuSans-95"/>
      <use x="250" xlink:href="#DejaVuSans-50"/>
      <use x="313.623047" xlink:href="#DejaVuSans-95"/>
      <use x="363.623047" xlink:href="#DejaVuSans-49"/>
      <use x="427.246094" xlink:href="#DejaVuSans-103"/>
     </g>
    </g>
    <g id="line2d_23">
     <path d="M 766.955937 229.216562 
L 786.955937 229.216562 
" style="fill:none;stroke:#d62728;stroke-linecap:square;stroke-width:1.5;"/>
    </g>
    <g id="line2d_24"/>
    <g id="text_16">
     <!-- htm_4_1g -->
     <g transform="translate(794.955937 232.716562)scale(0.1 -0.1)">
      <use xlink:href="#DejaVuSans-104"/>
      <use x="63.378906" xlink:href="#DejaVuSans-116"/>
      <use x="102.587891" xlink:href="#DejaVuSans-109"/>
      <use x="200" xlink:href="#DejaVuSans-95"/>
      <use x="250" xlink:href="#DejaVuSans-52"/>
      <use x="313.623047" xlink:href="#DejaVuSans-95"/>
      <use x="363.623047" xlink:href="#DejaVuSans-49"/>
      <use x="427.246094" xlink:href="#DejaVuSans-103"/>
     </g>
    </g>
    <g id="line2d_25">
     <path d="M 766.955937 244.172812 
L 786.955937 244.172812 
" style="fill:none;stroke:#9467bd;stroke-linecap:square;stroke-width:1.5;"/>
    </g>
    <g id="line2d_26"/>
    <g id="text_17">
     <!-- htm_8_1g -->
     <defs>
      <path d="M 31.78125 34.625 
Q 24.75 34.625 20.71875 30.859375 
Q 16.703125 27.09375 16.703125 20.515625 
Q 16.703125 13.921875 20.71875 10.15625 
Q 24.75 6.390625 31.78125 6.390625 
Q 38.8125 6.390625 42.859375 10.171875 
Q 46.921875 13.96875 46.921875 20.515625 
Q 46.921875 27.09375 42.890625 30.859375 
Q 38.875 34.625 31.78125 34.625 
z
M 21.921875 38.8125 
Q 15.578125 40.375 12.03125 44.71875 
Q 8.5 49.078125 8.5 55.328125 
Q 8.5 64.0625 14.71875 69.140625 
Q 20.953125 74.21875 31.78125 74.21875 
Q 42.671875 74.21875 48.875 69.140625 
Q 55.078125 64.0625 55.078125 55.328125 
Q 55.078125 49.078125 51.53125 44.71875 
Q 48 40.375 41.703125 38.8125 
Q 48.828125 37.15625 52.796875 32.3125 
Q 56.78125 27.484375 56.78125 20.515625 
Q 56.78125 9.90625 50.3125 4.234375 
Q 43.84375 -1.421875 31.78125 -1.421875 
Q 19.734375 -1.421875 13.25 4.234375 
Q 6.78125 9.90625 6.78125 20.515625 
Q 6.78125 27.484375 10.78125 32.3125 
Q 14.796875 37.15625 21.921875 38.8125 
z
M 18.3125 54.390625 
Q 18.3125 48.734375 21.84375 45.5625 
Q 25.390625 42.390625 31.78125 42.390625 
Q 38.140625 42.390625 41.71875 45.5625 
Q 45.3125 48.734375 45.3125 54.390625 
Q 45.3125 60.0625 41.71875 63.234375 
Q 38.140625 66.40625 31.78125 66.40625 
Q 25.390625 66.40625 21.84375 63.234375 
Q 18.3125 60.0625 18.3125 54.390625 
z
" id="DejaVuSans-56"/>
     </defs>
     <g transform="translate(794.955937 247.672812)scale(0.1 -0.1)">
      <use xlink:href="#DejaVuSans-104"/>
      <use x="63.378906" xlink:href="#DejaVuSans-116"/>
      <use x="102.587891" xlink:href="#DejaVuSans-109"/>
      <use x="200" xlink:href="#DejaVuSans-95"/>
      <use x="250" xlink:href="#DejaVuSans-56"/>
      <use x="313.623047" xlink:href="#DejaVuSans-95"/>
      <use x="363.623047" xlink:href="#DejaVuSans-49"/>
      <use x="427.246094" xlink:href="#DejaVuSans-103"/>
     </g>
    </g>
   </g>
  </g>
 </g>
 <defs>
  <clipPath id="p28879adfd2">
   <rect height="377.96" width="693.7" x="30.58" y="26.16"/>
  </clipPath>
 </defs>
</svg>
